<?xml version="1.0" encoding="utf-8" standalone="no"?>
<!DOCTYPE svg PUBLIC "-//W3C//DTD SVG 1.1//EN"
  "http://www.w3.org/Graphics/SVG/1.1/DTD/svg11.dtd">
<svg height="288pt" version="1.1" viewBox="0 0 576 288" width="576pt" xmlns="http://www.w3.org/2000/svg" xmlns:xlink="http://www.w3.org/1999/xlink">
 <metadata>
  <rdf:RDF xmlns:cc="http://creativecommons.org/ns#" xmlns:dc="http://purl.org/dc/elements/1.1/" xmlns:rdf="http://www.w3.org/1999/02/22-rdf-syntax-ns#">
   <cc:Work>
    <dc:type rdf:resource="http://purl.org/dc/dcmitype/StillImage"/>
    <dc:date>2022-01-06T21:21:52.811778</dc:date>
    <dc:format>image/svg+xml</dc:format>
    <dc:creator>
     <cc:Agent>
      <dc:title>Matplotlib v3.4.3, https://matplotlib.org/</dc:title>
     </cc:Agent>
    </dc:creator>
   </cc:Work>
  </rdf:RDF>
 </metadata>
 <defs>
  <style type="text/css">*{stroke-linecap:butt;stroke-linejoin:round;}</style>
 </defs>
 <g id="figure_1">
  <g id="patch_1">
   <path d="M 0 288 
L 576 288 
L 576 0 
L 0 0 
z
" style="fill:#ffffff;"/>
  </g>
  <g id="axes_1">
   <g id="patch_2">
    <path d="M 72 256.32 
L 518.4 256.32 
L 518.4 34.56 
L 72 34.56 
z
" style="fill:#ffffff;"/>
   </g>
   <g id="matplotlib.axis_1">
    <g id="xtick_1">
     <g id="line2d_1">
      <defs>
       <path d="M 0 0 
L 0 3.5 
" id="m853330eae7" style="stroke:#000000;stroke-width:0.8;"/>
      </defs>
      <g>
       <use style="stroke:#000000;stroke-width:0.8;" x="92.290909" xlink:href="#m853330eae7" y="256.32"/>
      </g>
     </g>
     <g id="text_1">
      <!-- 39000 -->
      <g transform="translate(76.384659 270.918437)scale(0.1 -0.1)">
       <defs>
        <path d="M 2597 2516 
Q 3050 2419 3304 2112 
Q 3559 1806 3559 1356 
Q 3559 666 3084 287 
Q 2609 -91 1734 -91 
Q 1441 -91 1130 -33 
Q 819 25 488 141 
L 488 750 
Q 750 597 1062 519 
Q 1375 441 1716 441 
Q 2309 441 2620 675 
Q 2931 909 2931 1356 
Q 2931 1769 2642 2001 
Q 2353 2234 1838 2234 
L 1294 2234 
L 1294 2753 
L 1863 2753 
Q 2328 2753 2575 2939 
Q 2822 3125 2822 3475 
Q 2822 3834 2567 4026 
Q 2313 4219 1838 4219 
Q 1578 4219 1281 4162 
Q 984 4106 628 3988 
L 628 4550 
Q 988 4650 1302 4700 
Q 1616 4750 1894 4750 
Q 2613 4750 3031 4423 
Q 3450 4097 3450 3541 
Q 3450 3153 3228 2886 
Q 3006 2619 2597 2516 
z
" id="DejaVuSans-33" transform="scale(0.015625)"/>
        <path d="M 703 97 
L 703 672 
Q 941 559 1184 500 
Q 1428 441 1663 441 
Q 2288 441 2617 861 
Q 2947 1281 2994 2138 
Q 2813 1869 2534 1725 
Q 2256 1581 1919 1581 
Q 1219 1581 811 2004 
Q 403 2428 403 3163 
Q 403 3881 828 4315 
Q 1253 4750 1959 4750 
Q 2769 4750 3195 4129 
Q 3622 3509 3622 2328 
Q 3622 1225 3098 567 
Q 2575 -91 1691 -91 
Q 1453 -91 1209 -44 
Q 966 3 703 97 
z
M 1959 2075 
Q 2384 2075 2632 2365 
Q 2881 2656 2881 3163 
Q 2881 3666 2632 3958 
Q 2384 4250 1959 4250 
Q 1534 4250 1286 3958 
Q 1038 3666 1038 3163 
Q 1038 2656 1286 2365 
Q 1534 2075 1959 2075 
z
" id="DejaVuSans-39" transform="scale(0.015625)"/>
        <path d="M 2034 4250 
Q 1547 4250 1301 3770 
Q 1056 3291 1056 2328 
Q 1056 1369 1301 889 
Q 1547 409 2034 409 
Q 2525 409 2770 889 
Q 3016 1369 3016 2328 
Q 3016 3291 2770 3770 
Q 2525 4250 2034 4250 
z
M 2034 4750 
Q 2819 4750 3233 4129 
Q 3647 3509 3647 2328 
Q 3647 1150 3233 529 
Q 2819 -91 2034 -91 
Q 1250 -91 836 529 
Q 422 1150 422 2328 
Q 422 3509 836 4129 
Q 1250 4750 2034 4750 
z
" id="DejaVuSans-30" transform="scale(0.015625)"/>
       </defs>
       <use xlink:href="#DejaVuSans-33"/>
       <use x="63.623047" xlink:href="#DejaVuSans-39"/>
       <use x="127.246094" xlink:href="#DejaVuSans-30"/>
       <use x="190.869141" xlink:href="#DejaVuSans-30"/>
       <use x="254.492188" xlink:href="#DejaVuSans-30"/>
      </g>
     </g>
    </g>
    <g id="xtick_2">
     <g id="line2d_2">
      <g>
       <use style="stroke:#000000;stroke-width:0.8;" x="153.853133" xlink:href="#m853330eae7" y="256.32"/>
      </g>
     </g>
     <g id="text_2">
      <!-- 39250 -->
      <g transform="translate(137.946883 270.918437)scale(0.1 -0.1)">
       <defs>
        <path d="M 1228 531 
L 3431 531 
L 3431 0 
L 469 0 
L 469 531 
Q 828 903 1448 1529 
Q 2069 2156 2228 2338 
Q 2531 2678 2651 2914 
Q 2772 3150 2772 3378 
Q 2772 3750 2511 3984 
Q 2250 4219 1831 4219 
Q 1534 4219 1204 4116 
Q 875 4013 500 3803 
L 500 4441 
Q 881 4594 1212 4672 
Q 1544 4750 1819 4750 
Q 2544 4750 2975 4387 
Q 3406 4025 3406 3419 
Q 3406 3131 3298 2873 
Q 3191 2616 2906 2266 
Q 2828 2175 2409 1742 
Q 1991 1309 1228 531 
z
" id="DejaVuSans-32" transform="scale(0.015625)"/>
        <path d="M 691 4666 
L 3169 4666 
L 3169 4134 
L 1269 4134 
L 1269 2991 
Q 1406 3038 1543 3061 
Q 1681 3084 1819 3084 
Q 2600 3084 3056 2656 
Q 3513 2228 3513 1497 
Q 3513 744 3044 326 
Q 2575 -91 1722 -91 
Q 1428 -91 1123 -41 
Q 819 9 494 109 
L 494 744 
Q 775 591 1075 516 
Q 1375 441 1709 441 
Q 2250 441 2565 725 
Q 2881 1009 2881 1497 
Q 2881 1984 2565 2268 
Q 2250 2553 1709 2553 
Q 1456 2553 1204 2497 
Q 953 2441 691 2322 
L 691 4666 
z
" id="DejaVuSans-35" transform="scale(0.015625)"/>
       </defs>
       <use xlink:href="#DejaVuSans-33"/>
       <use x="63.623047" xlink:href="#DejaVuSans-39"/>
       <use x="127.246094" xlink:href="#DejaVuSans-32"/>
       <use x="190.869141" xlink:href="#DejaVuSans-35"/>
       <use x="254.492188" xlink:href="#DejaVuSans-30"/>
      </g>
     </g>
    </g>
    <g id="xtick_3">
     <g id="line2d_3">
      <g>
       <use style="stroke:#000000;stroke-width:0.8;" x="215.415357" xlink:href="#m853330eae7" y="256.32"/>
      </g>
     </g>
     <g id="text_3">
      <!-- 39500 -->
      <g transform="translate(199.509107 270.918437)scale(0.1 -0.1)">
       <use xlink:href="#DejaVuSans-33"/>
       <use x="63.623047" xlink:href="#DejaVuSans-39"/>
       <use x="127.246094" xlink:href="#DejaVuSans-35"/>
       <use x="190.869141" xlink:href="#DejaVuSans-30"/>
       <use x="254.492188" xlink:href="#DejaVuSans-30"/>
      </g>
     </g>
    </g>
    <g id="xtick_4">
     <g id="line2d_4">
      <g>
       <use style="stroke:#000000;stroke-width:0.8;" x="276.977582" xlink:href="#m853330eae7" y="256.32"/>
      </g>
     </g>
     <g id="text_4">
      <!-- 39750 -->
      <g transform="translate(261.071332 270.918437)scale(0.1 -0.1)">
       <defs>
        <path d="M 525 4666 
L 3525 4666 
L 3525 4397 
L 1831 0 
L 1172 0 
L 2766 4134 
L 525 4134 
L 525 4666 
z
" id="DejaVuSans-37" transform="scale(0.015625)"/>
       </defs>
       <use xlink:href="#DejaVuSans-33"/>
       <use x="63.623047" xlink:href="#DejaVuSans-39"/>
       <use x="127.246094" xlink:href="#DejaVuSans-37"/>
       <use x="190.869141" xlink:href="#DejaVuSans-35"/>
       <use x="254.492188" xlink:href="#DejaVuSans-30"/>
      </g>
     </g>
    </g>
    <g id="xtick_5">
     <g id="line2d_5">
      <g>
       <use style="stroke:#000000;stroke-width:0.8;" x="338.539806" xlink:href="#m853330eae7" y="256.32"/>
      </g>
     </g>
     <g id="text_5">
      <!-- 40000 -->
      <g transform="translate(322.633556 270.918437)scale(0.1 -0.1)">
       <defs>
        <path d="M 2419 4116 
L 825 1625 
L 2419 1625 
L 2419 4116 
z
M 2253 4666 
L 3047 4666 
L 3047 1625 
L 3713 1625 
L 3713 1100 
L 3047 1100 
L 3047 0 
L 2419 0 
L 2419 1100 
L 313 1100 
L 313 1709 
L 2253 4666 
z
" id="DejaVuSans-34" transform="scale(0.015625)"/>
       </defs>
       <use xlink:href="#DejaVuSans-34"/>
       <use x="63.623047" xlink:href="#DejaVuSans-30"/>
       <use x="127.246094" xlink:href="#DejaVuSans-30"/>
       <use x="190.869141" xlink:href="#DejaVuSans-30"/>
       <use x="254.492188" xlink:href="#DejaVuSans-30"/>
      </g>
     </g>
    </g>
    <g id="xtick_6">
     <g id="line2d_6">
      <g>
       <use style="stroke:#000000;stroke-width:0.8;" x="400.10203" xlink:href="#m853330eae7" y="256.32"/>
      </g>
     </g>
     <g id="text_6">
      <!-- 40250 -->
      <g transform="translate(384.19578 270.918437)scale(0.1 -0.1)">
       <use xlink:href="#DejaVuSans-34"/>
       <use x="63.623047" xlink:href="#DejaVuSans-30"/>
       <use x="127.246094" xlink:href="#DejaVuSans-32"/>
       <use x="190.869141" xlink:href="#DejaVuSans-35"/>
       <use x="254.492188" xlink:href="#DejaVuSans-30"/>
      </g>
     </g>
    </g>
    <g id="xtick_7">
     <g id="line2d_7">
      <g>
       <use style="stroke:#000000;stroke-width:0.8;" x="461.664254" xlink:href="#m853330eae7" y="256.32"/>
      </g>
     </g>
     <g id="text_7">
      <!-- 40500 -->
      <g transform="translate(445.758004 270.918437)scale(0.1 -0.1)">
       <use xlink:href="#DejaVuSans-34"/>
       <use x="63.623047" xlink:href="#DejaVuSans-30"/>
       <use x="127.246094" xlink:href="#DejaVuSans-35"/>
       <use x="190.869141" xlink:href="#DejaVuSans-30"/>
       <use x="254.492188" xlink:href="#DejaVuSans-30"/>
      </g>
     </g>
    </g>
   </g>
   <g id="matplotlib.axis_2">
    <g id="ytick_1">
     <g id="line2d_8">
      <defs>
       <path d="M 0 0 
L -3.5 0 
" id="m5227f83c29" style="stroke:#000000;stroke-width:0.8;"/>
      </defs>
      <g>
       <use style="stroke:#000000;stroke-width:0.8;" x="72" xlink:href="#m5227f83c29" y="231.317604"/>
      </g>
     </g>
     <g id="text_8">
      <!-- −3 -->
      <g transform="translate(50.257812 235.116823)scale(0.1 -0.1)">
       <defs>
        <path d="M 678 2272 
L 4684 2272 
L 4684 1741 
L 678 1741 
L 678 2272 
z
" id="DejaVuSans-2212" transform="scale(0.015625)"/>
       </defs>
       <use xlink:href="#DejaVuSans-2212"/>
       <use x="83.789062" xlink:href="#DejaVuSans-33"/>
      </g>
     </g>
    </g>
    <g id="ytick_2">
     <g id="line2d_9">
      <g>
       <use style="stroke:#000000;stroke-width:0.8;" x="72" xlink:href="#m5227f83c29" y="201.409451"/>
      </g>
     </g>
     <g id="text_9">
      <!-- −2 -->
      <g transform="translate(50.257812 205.20867)scale(0.1 -0.1)">
       <use xlink:href="#DejaVuSans-2212"/>
       <use x="83.789062" xlink:href="#DejaVuSans-32"/>
      </g>
     </g>
    </g>
    <g id="ytick_3">
     <g id="line2d_10">
      <g>
       <use style="stroke:#000000;stroke-width:0.8;" x="72" xlink:href="#m5227f83c29" y="171.501299"/>
      </g>
     </g>
     <g id="text_10">
      <!-- −1 -->
      <g transform="translate(50.257812 175.300517)scale(0.1 -0.1)">
       <defs>
        <path d="M 794 531 
L 1825 531 
L 1825 4091 
L 703 3866 
L 703 4441 
L 1819 4666 
L 2450 4666 
L 2450 531 
L 3481 531 
L 3481 0 
L 794 0 
L 794 531 
z
" id="DejaVuSans-31" transform="scale(0.015625)"/>
       </defs>
       <use xlink:href="#DejaVuSans-2212"/>
       <use x="83.789062" xlink:href="#DejaVuSans-31"/>
      </g>
     </g>
    </g>
    <g id="ytick_4">
     <g id="line2d_11">
      <g>
       <use style="stroke:#000000;stroke-width:0.8;" x="72" xlink:href="#m5227f83c29" y="141.593146"/>
      </g>
     </g>
     <g id="text_11">
      <!-- 0 -->
      <g transform="translate(58.6375 145.392364)scale(0.1 -0.1)">
       <use xlink:href="#DejaVuSans-30"/>
      </g>
     </g>
    </g>
    <g id="ytick_5">
     <g id="line2d_12">
      <g>
       <use style="stroke:#000000;stroke-width:0.8;" x="72" xlink:href="#m5227f83c29" y="111.684993"/>
      </g>
     </g>
     <g id="text_12">
      <!-- 1 -->
      <g transform="translate(58.6375 115.484212)scale(0.1 -0.1)">
       <use xlink:href="#DejaVuSans-31"/>
      </g>
     </g>
    </g>
    <g id="ytick_6">
     <g id="line2d_13">
      <g>
       <use style="stroke:#000000;stroke-width:0.8;" x="72" xlink:href="#m5227f83c29" y="81.77684"/>
      </g>
     </g>
     <g id="text_13">
      <!-- 2 -->
      <g transform="translate(58.6375 85.576059)scale(0.1 -0.1)">
       <use xlink:href="#DejaVuSans-32"/>
      </g>
     </g>
    </g>
    <g id="ytick_7">
     <g id="line2d_14">
      <g>
       <use style="stroke:#000000;stroke-width:0.8;" x="72" xlink:href="#m5227f83c29" y="51.868687"/>
      </g>
     </g>
     <g id="text_14">
      <!-- 3 -->
      <g transform="translate(58.6375 55.667906)scale(0.1 -0.1)">
       <use xlink:href="#DejaVuSans-33"/>
      </g>
     </g>
    </g>
   </g>
   <g id="line2d_15">
    <path clip-path="url(#p0998fe19d7)" d="M 92.290909 143.736425 
L 92.537158 147.131135 
L 92.290909 147.131135 
L 92.783407 152.238502 
L 93.029656 147.131135 
L 93.275905 145.867849 
L 93.522154 145.867849 
L 93.768402 139.722661 
L 94.014651 139.074654 
L 94.2609 135.14788 
L 94.014651 135.14788 
L 94.507149 135.14788 
L 94.753398 134.536273 
L 94.999647 135.363593 
L 95.245896 144.008377 
L 95.492145 148.441901 
L 95.738394 148.441901 
L 95.984643 143.142852 
L 96.230891 142.641675 
L 96.47714 142.641675 
L 96.723389 143.142852 
L 97.215887 151.693385 
L 97.462136 151.693385 
L 97.708385 155.092161 
L 98.200883 155.098612 
L 98.447132 145.417014 
L 98.69338 130.684449 
L 98.939629 129.609286 
L 99.185878 129.609286 
L 99.432127 130.684449 
L 99.678376 151.270644 
L 99.924625 151.270644 
L 100.170874 153.43855 
L 100.417123 153.43855 
L 100.663372 154.571358 
L 100.90962 154.820748 
L 101.155869 162.968974 
L 101.402118 154.820748 
L 101.648367 154.571358 
L 101.894616 156.56135 
L 102.140865 148.299494 
L 102.387114 150.740513 
L 102.633363 147.933225 
L 102.879612 147.200751 
L 103.125861 147.200751 
L 103.372109 147.933225 
L 103.864607 124.187519 
L 104.110856 132.761133 
L 104.357105 124.187519 
L 104.603354 127.477188 
L 104.849603 134.614345 
L 105.095852 127.477188 
L 105.342101 127.477188 
L 105.58835 136.039069 
L 105.834598 136.039069 
L 106.080847 138.649063 
L 106.327096 138.649063 
L 106.573345 143.445876 
L 106.819594 143.445876 
L 107.065843 140.689891 
L 107.80459 140.689891 
L 108.050838 143.322364 
L 108.297087 151.019366 
L 108.543336 151.214629 
L 108.789585 151.832011 
L 109.035834 151.832011 
L 109.282083 151.214629 
L 109.528332 142.864225 
L 109.774581 142.864225 
L 110.02083 139.60441 
L 110.267079 142.864225 
L 110.513327 137.137188 
L 110.759576 137.032019 
L 111.005825 141.65137 
L 111.744572 141.745734 
L 111.990821 142.858959 
L 112.23707 142.858959 
L 112.729568 138.987834 
L 112.975816 138.987834 
L 113.222065 143.365509 
L 113.714563 143.365509 
L 113.960812 135.14788 
L 114.45331 132.648948 
L 114.699559 133.74591 
L 114.945808 133.74591 
L 115.192056 128.466914 
L 115.438305 127.273163 
L 115.930803 127.273163 
L 116.177052 133.849114 
L 116.66955 133.849114 
L 116.915799 141.400171 
L 117.162048 141.400171 
L 117.408297 131.245631 
L 117.654545 138.17869 
L 117.900794 135.285102 
L 118.147043 137.757824 
L 118.393292 137.757824 
L 118.639541 136.080048 
L 119.132039 136.080048 
L 119.624537 144.285739 
L 119.870786 144.285739 
L 120.117034 148.559154 
L 120.363283 140.922301 
L 120.609532 141.057146 
L 120.855781 140.922301 
L 121.10203 133.49969 
L 121.594528 133.49969 
L 121.840777 135.485545 
L 122.087026 135.485545 
L 122.333274 128.761225 
L 122.579523 144.261791 
L 122.825772 140.5175 
L 123.072021 140.5175 
L 123.564519 148.524076 
L 123.810768 146.626606 
L 124.795763 146.626606 
L 125.042012 140.612525 
L 125.288261 151.80494 
L 125.53451 151.80494 
L 125.288261 151.80494 
L 125.780759 152.967344 
L 125.53451 152.967344 
L 126.027008 127.47936 
L 126.273257 129.588147 
L 126.765755 129.588147 
L 127.012004 129.9166 
L 127.258252 148.219569 
L 127.504501 137.426 
L 127.75075 137.426 
L 127.996999 144.931821 
L 127.75075 144.931821 
L 128.735746 144.931821 
L 128.981995 135.303101 
L 129.228244 134.944394 
L 129.474492 129.238803 
L 129.96699 129.238803 
L 130.213239 133.756357 
L 130.459488 135.14788 
L 130.705737 137.913013 
L 130.951986 137.913013 
L 131.444484 150.78043 
L 131.690733 145.824176 
L 131.936981 145.824176 
L 132.18323 125.992968 
L 132.921977 125.992968 
L 133.168226 130.604888 
L 133.414475 139.510007 
L 133.660724 153.66915 
L 133.906973 139.510007 
L 134.39947 139.510007 
L 134.645719 129.903168 
L 134.891968 142.034094 
L 135.384466 142.034094 
L 135.630715 144.292605 
L 135.876964 142.034094 
L 136.123213 144.292605 
L 136.615711 144.292605 
L 136.861959 132.551558 
L 137.108208 146.735365 
L 137.600706 146.735365 
L 137.354457 146.735365 
L 138.093204 131.122359 
L 138.339453 132.776296 
L 138.585702 132.776296 
L 139.324448 140.569707 
L 139.570697 142.41884 
L 140.063195 142.41884 
L 140.309444 143.938731 
L 140.555693 144.537194 
L 141.048191 144.537194 
L 141.29444 143.938731 
L 141.540688 128.650955 
L 141.786937 128.422749 
L 142.279435 128.422749 
L 142.525684 125.52435 
L 142.771933 125.52435 
L 143.018182 133.674187 
L 143.264431 133.674187 
L 143.51068 134.028715 
L 143.264431 133.674187 
L 143.756929 134.028715 
L 144.249426 134.028715 
L 144.495675 144.570522 
L 144.741924 133.932695 
L 145.480671 133.932695 
L 145.72692 134.6011 
L 145.973169 132.536652 
L 146.219417 114.848379 
L 146.465666 114.848379 
L 146.711915 115.259715 
L 146.958164 115.259715 
L 147.204413 124.187519 
L 147.450662 124.300135 
L 147.696911 137.395758 
L 148.189409 149.662148 
L 148.435658 149.662148 
L 148.681906 143.841898 
L 148.928155 149.662148 
L 149.174404 143.208525 
L 149.420653 142.879459 
L 149.666902 141.606797 
L 149.913151 141.606797 
L 150.405649 135.82828 
L 150.651898 135.680363 
L 150.898147 135.82828 
L 150.651898 135.82828 
L 151.144395 135.82828 
L 151.390644 147.284099 
L 152.37564 147.330435 
L 152.621889 150.929504 
L 152.868138 150.929504 
L 153.360635 143.885655 
L 153.853133 141.450778 
L 154.099382 141.450778 
L 154.345631 139.875323 
L 154.59188 139.875323 
L 154.838129 145.2268 
L 155.084378 147.430337 
L 155.330627 145.2268 
L 155.576876 147.430337 
L 155.823124 137.547862 
L 156.069373 137.547862 
L 156.315622 143.716634 
L 156.80812 143.716634 
L 157.054369 144.094857 
L 157.300618 144.094857 
L 157.546867 137.737335 
L 157.793116 141.84861 
L 158.039365 134.877722 
L 158.285613 134.642504 
L 158.531862 134.642504 
L 158.778111 134.877722 
L 159.02436 134.877722 
L 159.270609 140.194613 
L 159.516858 140.194613 
L 159.763107 144.763887 
L 160.009356 140.194613 
L 159.516858 133.631149 
L 160.255605 132.869775 
L 160.501853 132.947867 
L 160.748102 132.869775 
L 160.994351 129.134956 
L 161.2406 129.134956 
L 161.486849 128.449717 
L 161.733098 128.449717 
L 161.979347 134.738215 
L 162.225596 134.738215 
L 162.471845 133.993595 
L 162.964342 133.993595 
L 163.210591 116.855596 
L 163.45684 136.076676 
L 164.195587 136.076676 
L 164.441836 138.850659 
L 164.688085 138.850659 
L 164.934334 138.201383 
L 165.180583 140.535346 
L 165.426831 138.201383 
L 165.919329 138.201383 
L 166.411827 102.955759 
L 166.658076 116.965849 
L 166.904325 119.832838 
L 167.150574 119.832838 
L 167.396823 120.659041 
L 167.643071 135.991304 
L 167.88932 138.317406 
L 168.381818 138.317406 
L 168.628067 129.943422 
L 169.120565 129.943422 
L 169.366814 135.724856 
L 169.613063 146.572861 
L 169.859312 146.572861 
L 170.10556 137.786615 
L 170.844307 137.786615 
L 171.090556 138.281881 
L 171.583054 138.281881 
L 171.829303 138.753703 
L 172.075552 142.30685 
L 172.568049 142.30685 
L 172.814298 130.478286 
L 173.060547 130.478286 
L 173.306796 136.737759 
L 173.553045 138.653063 
L 173.799294 138.653063 
L 174.045543 136.737759 
L 174.291792 136.10933 
L 174.538041 127.71627 
L 174.784289 127.71627 
L 175.030538 136.10933 
L 175.276787 136.990871 
L 175.523036 149.188093 
L 176.015534 149.188093 
L 176.261783 141.280967 
L 176.508032 137.378479 
L 177.00053 133.49969 
L 177.739276 133.49969 
L 177.985525 137.351296 
L 178.231774 137.741923 
L 178.478023 148.070567 
L 178.724272 148.070567 
L 178.970521 140.183568 
L 179.21677 148.070567 
L 179.463019 140.183568 
L 179.709267 136.259405 
L 180.201765 136.259405 
L 180.448014 134.942165 
L 180.694263 134.942165 
L 180.940512 136.830167 
L 181.186761 136.830167 
L 181.43301 134.942165 
L 181.679259 145.094831 
L 181.925508 143.609371 
L 182.171756 134.256182 
L 182.418005 134.256182 
L 182.664254 131.166805 
L 182.910503 129.494807 
L 183.64925 129.494807 
L 183.403001 119.982025 
L 183.895499 119.982025 
L 184.141748 117.499598 
L 184.387996 102.804734 
L 183.64925 102.804734 
L 185.126743 102.804734 
L 185.372992 116.596683 
L 185.619241 116.596683 
L 185.86549 119.498116 
L 186.111739 119.498116 
L 186.357988 126.644789 
L 186.604237 129.609286 
L 186.850485 129.950106 
L 187.096734 132.605798 
L 187.342983 132.605798 
L 187.589232 140.397273 
L 188.08173 140.397273 
L 188.327979 133.603201 
L 188.820477 133.603201 
L 189.312974 140.435752 
L 189.559223 140.435752 
L 190.051721 134.659347 
L 190.29797 133.406557 
L 190.544219 132.835406 
L 190.790468 132.835406 
L 191.036717 133.406557 
L 191.282966 132.835406 
L 191.529214 132.835406 
L 191.775463 134.803784 
L 192.021712 135.503044 
L 192.267961 135.503044 
L 192.51421 136.551233 
L 192.760459 136.551233 
L 193.006708 130.174181 
L 193.252957 129.371928 
L 193.499206 115.458052 
L 193.991703 115.458052 
L 194.484201 120.226377 
L 194.73045 126.501057 
L 195.222948 121.131607 
L 195.469197 124.028531 
L 195.715446 124.028531 
L 195.961695 123.51308 
L 196.207944 121.131607 
L 196.454192 120.340665 
L 196.700441 120.340665 
L 196.94669 123.51308 
L 197.192939 128.688855 
L 197.439188 128.688855 
L 197.931686 126.74414 
L 198.177935 126.604284 
L 197.685437 123.914941 
L 198.424184 123.914941 
L 198.670432 124.81209 
L 198.916681 124.81209 
L 199.16293 125.613663 
L 199.409179 125.613663 
L 199.655428 127.274494 
L 199.901677 127.274494 
L 200.147926 131.706447 
L 200.640424 133.179364 
L 200.886673 133.179364 
L 201.132921 138.965641 
L 201.625419 138.965641 
L 201.871668 133.893323 
L 202.364166 132.123985 
L 202.610415 132.123985 
L 203.102913 121.289183 
L 202.856664 118.636895 
L 203.349162 118.636895 
L 203.59541 121.289183 
L 203.841659 115.586817 
L 204.087908 122.978379 
L 204.334157 122.978379 
L 204.580406 129.492475 
L 205.319153 129.492475 
L 205.565402 132.987624 
L 205.81165 132.987624 
L 206.057899 133.253626 
L 206.304148 133.253626 
L 205.81165 132.737312 
L 206.550397 125.991883 
L 206.796646 122.246621 
L 207.042895 122.246621 
L 207.289144 125.855246 
L 207.535393 125.991883 
L 207.781642 128.97071 
L 208.274139 132.620568 
L 208.520388 139.29753 
L 208.766637 139.29753 
L 209.012886 136.120076 
L 209.259135 136.120076 
L 209.505384 135.39099 
L 209.751633 135.917119 
L 209.997882 135.39099 
L 210.244131 135.39099 
L 210.49038 138.679852 
L 210.736628 138.679852 
L 210.982877 140.136461 
L 211.229126 132.853701 
L 211.475375 131.623443 
L 211.721624 131.258094 
L 211.967873 131.623443 
L 212.214122 130.878242 
L 212.460371 132.045995 
L 212.70662 130.946397 
L 212.952868 132.021114 
L 213.937864 132.021114 
L 214.184113 133.039146 
L 214.430362 133.039146 
L 214.676611 133.822098 
L 214.92286 133.039146 
L 215.169109 133.039146 
L 215.907855 122.758572 
L 216.154104 124.835432 
L 216.400353 124.835432 
L 216.646602 136.720551 
L 217.1391 136.720551 
L 217.385349 134.050822 
L 217.631598 133.546278 
L 217.877846 132.474107 
L 218.370344 132.388476 
L 218.616593 132.388476 
L 218.862842 130.645901 
L 219.109091 137.558144 
L 219.35534 137.558144 
L 219.601589 136.914061 
L 219.847838 127.709273 
L 220.094086 129.10292 
L 219.847838 129.10292 
L 220.340335 129.10292 
L 220.586584 130.173068 
L 221.079082 130.173068 
L 221.325331 132.6982 
L 221.57158 130.018546 
L 221.817829 130.018546 
L 222.064078 138.322565 
L 222.310327 138.322565 
L 222.556575 133.851443 
L 222.802824 134.783609 
L 223.049073 133.851443 
L 223.295322 131.518629 
L 223.541571 131.518629 
L 223.78782 135.420476 
L 224.526567 135.420476 
L 224.772816 134.68615 
L 225.019064 134.68615 
L 225.511562 136.267458 
L 225.757811 135.65147 
L 226.250309 135.65147 
L 226.496558 131.765091 
L 226.742807 130.83896 
L 227.235305 130.83896 
L 227.481553 120.936394 
L 227.727802 131.454742 
L 228.466549 131.454742 
L 228.712798 132.289806 
L 228.959047 125.064548 
L 229.205296 128.233126 
L 229.451545 128.233126 
L 229.697793 125.064548 
L 229.944042 125.064548 
L 230.190291 128.233126 
L 230.43654 133.837982 
L 230.682789 135.131929 
L 230.929038 135.131929 
L 231.175287 133.837982 
L 231.421536 133.837982 
L 231.667785 135.131929 
L 231.914034 137.388296 
L 232.160282 137.388296 
L 232.406531 138.961202 
L 233.145278 134.848568 
L 233.391527 135.170294 
L 233.884025 135.170294 
L 234.130274 134.848568 
L 234.86902 134.844182 
L 235.115269 137.791391 
L 235.361518 137.97418 
L 235.607767 137.97418 
L 235.854016 137.791391 
L 236.100265 135.821834 
L 236.346514 135.170294 
L 236.839011 135.170294 
L 237.08526 132.875641 
L 237.331509 132.875641 
L 237.577758 132.383389 
L 237.331509 130.596999 
L 238.070256 130.596999 
L 238.316505 132.361982 
L 238.562754 132.384435 
L 238.809003 133.097895 
L 239.793998 133.097895 
L 240.040247 136.378628 
L 240.286496 136.378628 
L 240.532745 135.60687 
L 240.778994 135.60687 
L 241.025243 136.378628 
L 241.271492 141.446464 
L 241.517741 141.446464 
L 241.763989 144.01719 
L 241.517741 144.01719 
L 242.010238 141.446464 
L 242.256487 141.261028 
L 242.502736 125.780568 
L 242.748985 124.938084 
L 243.241483 124.938084 
L 243.733981 123.706392 
L 243.980229 132.318652 
L 244.226478 129.726559 
L 244.472727 129.726559 
L 244.718976 132.347351 
L 244.965225 136.550009 
L 245.211474 137.388296 
L 245.703972 137.388296 
L 245.950221 130.18344 
L 246.442718 124.939786 
L 246.688967 124.587739 
L 246.935216 124.939786 
L 247.181465 123.992046 
L 247.427714 124.939786 
L 247.673963 128.661152 
L 247.920212 129.688155 
L 248.41271 129.688155 
L 248.658959 129.465057 
L 248.905207 129.688155 
L 249.151456 130.344076 
L 249.397705 129.465057 
L 249.643954 129.465057 
L 249.890203 131.380406 
L 250.136452 131.738724 
L 250.382701 128.669774 
L 250.62895 130.087817 
L 250.875199 136.566957 
L 251.121447 134.795693 
L 251.367696 134.795693 
L 251.613945 136.566957 
L 251.367696 136.846921 
L 251.860194 134.795693 
L 252.106443 130.962355 
L 252.352692 130.962355 
L 252.84519 125.332872 
L 253.091439 128.233126 
L 253.337688 128.233126 
L 253.583936 130.302551 
L 253.830185 130.302551 
L 254.076434 131.22289 
L 254.322683 131.22289 
L 254.568932 129.0633 
L 254.815181 128.899049 
L 255.06143 129.0633 
L 255.307679 129.0633 
L 255.800177 140.220126 
L 256.046425 140.220126 
L 256.292674 137.087824 
L 256.538923 144.2878 
L 257.031421 130.850464 
L 257.27767 134.174008 
L 257.523919 133.870498 
L 258.262665 133.870498 
L 258.508914 131.256592 
L 258.755163 131.256592 
L 259.001412 130.580525 
L 259.247661 130.580525 
L 259.49391 131.896088 
L 259.740159 135.309055 
L 259.986408 136.939137 
L 260.232657 136.939137 
L 260.478906 135.42492 
L 260.725154 135.309055 
L 260.971403 130.685341 
L 261.217652 129.948443 
L 261.463901 125.139161 
L 261.956399 125.139161 
L 262.202648 128.854047 
L 262.448897 128.854047 
L 262.695146 143.638702 
L 262.941395 143.638702 
L 263.187643 131.952923 
L 263.433892 131.763196 
L 263.680141 131.763196 
L 263.92639 130.529294 
L 264.172639 131.628218 
L 264.418888 131.628218 
L 264.665137 127.047885 
L 264.911386 131.628218 
L 265.157635 131.628218 
L 265.403883 136.263457 
L 265.650132 127.047885 
L 265.896381 136.263457 
L 266.14263 130.984956 
L 266.388879 130.984956 
L 266.635128 133.216308 
L 267.127626 133.216308 
L 267.373875 132.383389 
L 267.866372 139.724943 
L 268.112621 139.724943 
L 268.35887 133.779498 
L 268.605119 131.533568 
L 269.097617 131.41501 
L 268.851368 131.41501 
L 269.343866 133.503367 
L 269.590115 133.503367 
L 269.836364 134.777377 
L 270.082613 133.503367 
L 270.328861 133.503367 
L 270.57511 134.365865 
L 270.821359 136.060886 
L 271.067608 139.362472 
L 271.313857 139.362472 
L 271.560106 134.365865 
L 271.806355 137.980906 
L 272.052604 131.961319 
L 272.545102 131.961319 
L 272.79135 133.307952 
L 273.037599 126.564598 
L 273.283848 133.307952 
L 273.530097 124.648358 
L 273.776346 124.648358 
L 274.022595 129.701557 
L 274.761342 129.701557 
L 275.00759 130.344076 
L 275.500088 127.012502 
L 275.746337 128.52513 
L 275.992586 127.012502 
L 276.238835 123.754287 
L 276.977582 123.706392 
L 277.223831 123.706392 
L 276.977582 123.706392 
L 277.470079 126.34783 
L 277.716328 122.025073 
L 277.962577 126.34783 
L 278.208826 126.34783 
L 278.701324 129.948443 
L 278.947573 135.567803 
L 279.193822 135.567803 
L 279.440071 135.837408 
L 279.68632 135.837408 
L 279.932568 135.012564 
L 280.178817 136.706335 
L 280.425066 136.706335 
L 280.671315 135.602567 
L 280.917564 125.113837 
L 281.163813 135.602567 
L 280.917564 125.113837 
L 281.410062 124.187519 
L 282.148808 124.187519 
L 282.395057 124.768132 
L 282.148808 126.840652 
L 282.887555 126.840652 
L 283.133804 121.240237 
L 283.626302 121.240237 
L 283.872551 122.826867 
L 284.857546 122.826867 
L 285.103795 121.458465 
L 285.350044 130.755389 
L 285.596293 130.755389 
L 285.842542 121.458465 
L 286.088791 121.458465 
L 286.33504 117.527212 
L 286.581289 116.54051 
L 286.827538 117.527212 
L 287.073786 122.208904 
L 287.320035 124.187519 
L 287.566284 124.187519 
L 287.812533 126.960321 
L 288.797529 126.960321 
L 289.043778 130.636062 
L 289.290026 124.798585 
L 289.536275 123.706392 
L 289.782524 124.798585 
L 290.028773 124.798585 
L 290.275022 129.294245 
L 290.521271 131.184119 
L 290.76752 131.184119 
L 291.013769 136.933422 
L 291.260018 146.957562 
L 291.506267 146.957562 
L 291.752515 132.59278 
L 291.998764 132.59278 
L 292.245013 131.140883 
L 292.491262 125.398685 
L 292.737511 122.362783 
L 292.98376 121.122878 
L 293.230009 121.122878 
L 293.476258 122.362783 
L 293.722507 146.153899 
L 293.968756 146.153899 
L 294.215004 141.961647 
L 294.461253 123.848521 
L 294.707502 123.706392 
L 295.2 123.706392 
L 295.446249 123.848521 
L 295.692498 121.701293 
L 295.938747 125.257873 
L 296.184996 126.040722 
L 296.431244 128.448309 
L 296.923742 128.448309 
L 296.677493 124.887292 
L 297.169991 124.196507 
L 297.41624 124.196507 
L 297.662489 123.981392 
L 297.908738 124.196507 
L 298.154987 132.781215 
L 299.63248 132.831688 
L 299.878729 133.277519 
L 300.124978 133.277519 
L 300.371227 130.397321 
L 300.617476 133.277519 
L 299.878729 133.277519 
L 300.863725 130.397321 
L 301.109974 132.592396 
L 301.356222 146.130001 
L 301.602471 132.592396 
L 301.84872 130.094734 
L 302.587467 130.094734 
L 302.833716 130.456248 
L 303.326214 134.41194 
L 303.818711 140.504926 
L 304.06496 137.388296 
L 304.311209 210.808014 
L 304.557458 142.965608 
L 304.803707 135.183392 
L 305.049956 138.311672 
L 305.296205 135.183392 
L 305.788703 135.183392 
L 306.034951 134.715289 
L 306.2812 132.837373 
L 306.527449 128.970246 
L 307.019947 128.970246 
L 307.266196 130.54382 
L 307.512445 130.54382 
L 307.758694 130.692666 
L 308.004943 130.692666 
L 308.49744 132.553534 
L 308.989938 128.976113 
L 309.236187 132.383389 
L 309.482436 132.383389 
L 309.974934 125.712053 
L 310.221183 132.383389 
L 310.467432 125.712053 
L 310.71368 125.712053 
L 310.959929 129.476221 
L 311.206178 130.703711 
L 311.452427 129.476221 
L 311.698676 130.703711 
L 311.944925 131.351927 
L 312.191174 132.474386 
L 312.437423 131.351927 
L 312.683672 131.351927 
L 312.929921 126.227678 
L 313.176169 108.600886 
L 313.422418 108.600886 
L 313.668667 106.540774 
L 314.161165 125.494453 
L 314.407414 125.494453 
L 314.653663 126.265455 
L 314.899912 126.265455 
L 315.146161 132.207857 
L 315.39241 130.086984 
L 315.638658 131.387833 
L 315.884907 130.086984 
L 316.131156 130.086984 
L 316.377405 128.385045 
L 316.623654 128.385045 
L 316.131156 125.695187 
L 316.869903 125.695187 
L 317.116152 135.617025 
L 317.854898 135.617025 
L 318.101147 125.858828 
L 318.347396 125.638274 
L 318.839894 125.638274 
L 319.086143 126.957132 
L 319.332392 126.957132 
L 319.578641 127.537849 
L 319.82489 126.957132 
L 320.071139 126.957132 
L 320.317387 127.923851 
L 320.563636 128.245284 
L 321.056134 128.245284 
L 321.302383 130.948189 
L 321.548632 130.948189 
L 321.794881 131.27327 
L 322.04113 132.982593 
L 322.779876 132.982593 
L 323.026125 129.609286 
L 323.272374 131.058483 
L 323.764872 131.058483 
L 324.011121 131.206404 
L 324.25737 134.344553 
L 324.503619 131.206404 
L 324.996117 131.206404 
L 325.242365 130.833738 
L 324.996117 130.833738 
L 325.488614 127.786042 
L 325.981112 127.786042 
L 326.227361 134.190363 
L 326.47361 133.341036 
L 326.227361 133.341036 
L 326.719859 133.341036 
L 326.966108 128.683655 
L 327.212357 127.293717 
L 327.704854 127.293717 
L 327.212357 128.677459 
L 327.951103 134.899304 
L 328.197352 128.677459 
L 328.443601 126.355734 
L 328.936099 126.355734 
L 329.182348 136.173956 
L 329.428597 136.173956 
L 329.674846 136.602106 
L 329.921094 136.173956 
L 329.428597 136.602106 
L 329.921094 133.146969 
L 330.167343 135.260507 
L 330.413592 128.606001 
L 330.659841 135.260507 
L 330.90609 126.806994 
L 331.152339 135.260507 
L 332.876081 135.227149 
L 333.12233 131.291125 
L 333.368579 131.291125 
L 333.614828 130.76301 
L 333.861077 130.76301 
L 334.107326 133.676119 
L 334.353575 133.676119 
L 334.599823 138.222669 
L 334.846072 133.676119 
L 335.092321 138.222669 
L 335.33857 132.373153 
L 335.584819 134.926515 
L 335.831068 131.430941 
L 336.077317 134.926515 
L 336.323566 134.926515 
L 336.569815 132.395966 
L 336.816064 131.160381 
L 337.062312 126.747212 
L 337.308561 126.747212 
L 337.55481 131.160381 
L 337.801059 130.728013 
L 338.047308 130.728013 
L 338.293557 134.242118 
L 338.539806 134.242118 
L 338.786055 130.728013 
L 339.032304 132.058434 
L 339.524801 132.058434 
L 339.77105 130.400215 
L 340.017299 132.058434 
L 340.263548 139.208008 
L 340.509797 139.670267 
L 340.756046 139.208008 
L 341.002295 139.125392 
L 341.248544 138.776922 
L 341.494793 138.776922 
L 341.741041 137.357464 
L 341.98729 159.610217 
L 342.233539 246.24 
L 342.479788 246.24 
L 342.726037 142.727426 
L 342.972286 133.977723 
L 343.218535 133.651609 
L 343.464784 133.651609 
L 343.711033 133.977723 
L 343.957282 133.977723 
L 344.20353 133.651609 
L 344.449779 135.23341 
L 344.696028 145.289983 
L 344.942277 148.01274 
L 345.188526 145.289983 
L 344.942277 145.289983 
L 345.434775 132.344252 
L 345.681024 132.344252 
L 345.927273 127.923851 
L 346.173522 129.405523 
L 346.419771 132.163178 
L 346.666019 129.405523 
L 346.912268 129.405523 
L 347.158517 128.534163 
L 347.404766 124.690579 
L 348.143513 124.648358 
L 348.389762 134.726169 
L 348.636011 109.838865 
L 348.882259 138.217731 
L 349.374757 128.08574 
L 349.621006 128.08574 
L 349.867255 131.86099 
L 350.113504 131.86099 
L 350.359753 134.264191 
L 350.606002 134.264191 
L 350.852251 135.338918 
L 351.0985 134.264191 
L 351.344748 131.863279 
L 352.083495 131.863279 
L 351.837246 133.955861 
L 352.329744 134.448919 
L 352.575993 134.448919 
L 352.822242 135.194951 
L 353.068491 134.448919 
L 353.31474 136.381564 
L 353.560989 133.787055 
L 353.807237 133.787055 
L 354.053486 143.87623 
L 354.299735 132.553725 
L 354.545984 135.170294 
L 354.792233 143.87623 
L 354.053486 135.170294 
L 355.038482 135.170294 
L 355.284731 148.307282 
L 355.777229 148.307282 
L 356.023477 138.904965 
L 356.762224 138.904965 
L 357.008473 138.256568 
L 357.254722 128.683655 
L 357.500971 128.233126 
L 357.74722 128.683655 
L 357.993469 128.683655 
L 358.239718 130.882862 
L 358.485966 134.246194 
L 358.732215 130.882862 
L 358.978464 130.882862 
L 358.239718 130.882862 
L 359.224713 127.109432 
L 359.470962 127.109432 
L 359.717211 133.080324 
L 359.96346 127.109432 
L 360.209709 127.208054 
L 360.455958 131.179007 
L 360.209709 131.179007 
L 360.702207 131.179007 
L 360.948455 137.233077 
L 361.933451 137.233077 
L 362.1797 137.027758 
L 362.425949 139.348837 
L 362.672198 137.027758 
L 362.918447 137.027758 
L 363.164695 130.882798 
L 363.410944 139.546381 
L 363.657193 139.546381 
L 363.903442 136.076689 
L 364.149691 136.076689 
L 364.39594 129.71113 
L 364.642189 130.162308 
L 364.888438 130.162308 
L 365.134687 121.194679 
L 365.380936 126.132285 
L 365.627184 126.132285 
L 365.873433 133.217171 
L 366.119682 135.147224 
L 366.365931 135.147224 
L 366.61218 135.563204 
L 366.858429 135.563204 
L 367.104678 135.219023 
L 367.350927 133.479861 
L 367.843425 133.479861 
L 368.089673 134.31314 
L 367.843425 138.716961 
L 368.335922 139.553233 
L 368.582171 144.682209 
L 368.82842 139.553233 
L 369.074669 137.869491 
L 369.320918 130.174838 
L 369.567167 130.174838 
L 369.813416 135.432405 
L 370.305914 135.432405 
L 370.552162 139.109731 
L 370.798411 132.218254 
L 371.290909 132.218254 
L 371.537158 133.345973 
L 371.783407 133.345973 
L 372.029656 141.421582 
L 372.275905 141.421582 
L 372.522154 135.406839 
L 372.768402 135.406839 
L 373.014651 134.527319 
L 373.2609 130.633072 
L 373.753398 130.70753 
L 373.999647 135.432344 
L 374.245896 135.432344 
L 374.492145 132.045995 
L 374.984643 132.045995 
L 375.230891 131.590902 
L 375.723389 131.590902 
L 375.969638 125.142294 
L 376.215887 134.723966 
L 376.708385 134.723966 
L 376.954634 133.851443 
L 377.200883 130.47332 
L 378.185878 130.47332 
L 378.432127 134.86306 
L 378.678376 133.371719 
L 378.924625 130.168851 
L 379.170874 130.168851 
L 379.417123 129.470357 
L 379.663372 129.470357 
L 379.90962 134.293545 
L 380.155869 130.47332 
L 380.402118 132.272643 
L 379.663372 130.47332 
L 381.140865 130.47332 
L 381.387114 125.880084 
L 381.633363 130.47332 
L 381.879612 126.077154 
L 382.125861 126.077154 
L 382.372109 129.918414 
L 382.618358 131.435903 
L 383.110856 131.435903 
L 383.357105 132.075703 
L 383.603354 138.710788 
L 383.849603 132.075703 
L 384.095852 138.710788 
L 384.342101 135.593724 
L 384.58835 130.642137 
L 384.834598 133.48423 
L 385.080847 130.988892 
L 385.327096 133.48423 
L 385.080847 133.48423 
L 385.819594 137.494863 
L 386.312092 137.494863 
L 386.558341 144.817764 
L 386.80459 130.320032 
L 387.050838 135.14788 
L 387.297087 128.669365 
L 387.543336 127.22268 
L 387.789585 124.921096 
L 388.035834 127.506555 
L 388.528332 95.330714 
L 389.02083 95.330714 
L 389.267079 116.408969 
L 389.513327 120.464184 
L 389.759576 122.377 
L 390.252074 131.412263 
L 390.498323 131.412263 
L 390.744572 136.489454 
L 390.990821 135.259566 
L 391.975816 135.259566 
L 392.222065 135.104256 
L 392.468314 129.484916 
L 393.207061 129.484916 
L 393.45331 126.528107 
L 393.699559 133.274921 
L 394.192056 138.582912 
L 394.438305 139.862676 
L 395.177052 139.862676 
L 395.423301 131.606341 
L 395.66955 131.162052 
L 396.408297 131.162052 
L 396.654545 129.33717 
L 396.900794 132.530574 
L 397.147043 133.75512 
L 397.393292 133.944059 
L 397.639541 135.336391 
L 398.378288 135.336391 
L 398.624537 137.70072 
L 398.378288 138.598886 
L 398.870786 138.598886 
L 399.117034 137.271928 
L 399.363283 131.426573 
L 399.609532 131.426573 
L 400.10203 129.757856 
L 400.348279 129.757856 
L 400.594528 130.069293 
L 400.840777 130.069293 
L 401.087026 130.476527 
L 401.333274 132.595193 
L 401.579523 133.651609 
L 401.825772 136.819062 
L 402.072021 136.819062 
L 402.31827 139.151016 
L 402.810768 130.47332 
L 403.303266 149.719425 
L 403.549515 149.719425 
L 404.288261 136.676523 
L 404.53451 133.975614 
L 404.780759 139.424615 
L 405.027008 140.770169 
L 405.273257 139.103522 
L 405.519506 139.103522 
L 405.765755 135.97434 
L 406.012004 135.97434 
L 406.258252 132.493934 
L 406.504501 131.370172 
L 406.75075 131.370172 
L 406.996999 137.363138 
L 407.243248 137.363138 
L 407.489497 138.860595 
L 407.981995 138.878931 
L 408.228244 130.96174 
L 408.474492 132.875467 
L 409.213239 132.875467 
L 409.459488 131.731297 
L 410.444484 131.731297 
L 410.690733 135.143201 
L 410.936981 135.143201 
L 411.18323 146.361663 
L 411.429479 135.143201 
L 411.675728 135.591357 
L 411.921977 138.347853 
L 412.660724 138.347853 
L 412.906973 136.168671 
L 413.153222 131.098106 
L 413.39947 130.325955 
L 413.645719 131.098106 
L 415.615711 131.059722 
L 415.861959 138.826862 
L 416.108208 138.826862 
L 416.354457 139.622394 
L 416.600706 139.195574 
L 416.846955 139.622394 
L 417.093204 156.736795 
L 417.339453 156.736795 
L 417.585702 246.24 
L 417.831951 149.882807 
L 419.063195 149.940025 
L 419.309444 149.435214 
L 419.555693 148.162279 
L 419.801942 148.162279 
L 420.048191 136.966166 
L 420.29444 133.811675 
L 420.540688 133.811675 
L 420.786937 134.893524 
L 421.033186 134.893524 
L 421.279435 142.059327 
L 422.018182 142.059327 
L 422.264431 140.277923 
L 422.51068 140.277923 
L 422.756929 156.408435 
L 423.003177 159.413869 
L 423.249426 159.947729 
L 423.495675 160.03413 
L 423.741924 159.947729 
L 423.988173 148.650788 
L 424.480671 148.650788 
L 424.72692 153.677989 
L 425.219417 153.677989 
L 425.465666 152.453757 
L 425.711915 146.247554 
L 425.958164 152.453757 
L 426.204413 143.144104 
L 426.450662 182.531368 
L 426.696911 153.777541 
L 426.94316 159.451372 
L 427.189409 153.777541 
L 427.435658 153.777541 
L 427.681906 145.055302 
L 427.928155 145.055302 
L 428.174404 137.241354 
L 428.420653 145.055302 
L 428.666902 157.050486 
L 428.913151 157.050486 
L 429.1594 152.505956 
L 429.405649 152.505956 
L 429.651898 150.100933 
L 429.898147 138.542192 
L 430.144395 138.542192 
L 430.390644 148.548411 
L 430.636893 138.542192 
L 430.883142 148.548411 
L 431.129391 148.548411 
L 431.621889 134.318152 
L 431.868138 139.902741 
L 432.114387 148.041425 
L 432.606884 148.041425 
L 433.099382 131.811012 
L 433.345631 140.171892 
L 433.59188 130.955175 
L 433.838129 129.259289 
L 434.084378 129.259289 
L 434.330627 134.06909 
L 434.576876 134.06909 
L 434.823124 139.548233 
L 435.069373 139.548233 
L 435.315622 133.074613 
L 435.561871 132.36104 
L 435.80812 133.074613 
L 436.054369 133.074613 
L 436.300618 137.388296 
L 436.793116 137.388296 
L 437.285613 151.160856 
L 437.531862 153.440585 
L 437.778111 153.440585 
L 438.02436 155.416966 
L 438.270609 158.55267 
L 438.516858 155.416966 
L 438.763107 158.55267 
L 439.009356 158.55267 
L 439.255605 135.988365 
L 439.501853 134.995445 
L 439.748102 134.995445 
L 439.994351 139.769223 
L 440.2406 139.769223 
L 440.486849 141.450442 
L 440.733098 144.418169 
L 441.225596 144.418169 
L 441.471845 144.071216 
L 441.718094 141.935285 
L 441.964342 144.071216 
L 442.210591 141.935285 
L 442.45684 141.935285 
L 442.703089 139.365297 
L 442.949338 143.202868 
L 443.195587 143.202868 
L 443.441836 146.124802 
L 443.688085 141.514097 
L 444.180583 138.081739 
L 444.919329 138.081739 
L 445.165578 138.304973 
L 445.411827 145.434169 
L 445.658076 148.283285 
L 446.396823 148.283285 
L 446.643071 146.777266 
L 446.88932 133.621779 
L 447.135569 133.621779 
L 447.381818 133.39559 
L 447.874316 133.39559 
L 448.120565 130.355124 
L 448.859312 130.355124 
L 449.10556 135.61064 
L 449.351809 136.569543 
L 449.598058 138.681899 
L 449.844307 138.681899 
L 450.090556 138.837711 
L 450.336805 143.677201 
L 450.583054 143.677201 
L 450.829303 149.529487 
L 451.075552 143.677201 
L 451.321801 143.677201 
L 451.568049 145.590391 
L 451.814298 146.166618 
L 452.060547 145.590391 
L 452.306796 146.166618 
L 452.553045 151.207888 
L 452.799294 151.207888 
L 453.045543 151.847388 
L 453.291792 148.710705 
L 453.538041 147.848975 
L 453.784289 140.466154 
L 454.030538 140.466154 
L 454.276787 139.947263 
L 454.523036 135.303833 
L 454.769285 135.303833 
L 455.015534 133.946298 
L 455.261783 134.421962 
L 455.508032 133.612558 
L 455.754281 134.421962 
L 456.00053 134.421962 
L 456.246778 133.612558 
L 456.493027 133.612558 
L 456.739276 137.715719 
L 456.985525 138.667229 
L 457.231774 142.187116 
L 457.724272 141.92182 
L 457.970521 146.208198 
L 458.21677 141.92182 
L 458.463019 141.92182 
L 458.955516 151.544818 
L 459.448014 151.544818 
L 459.694263 149.799216 
L 459.940512 149.4804 
L 460.43301 149.4804 
L 460.679259 158.774626 
L 460.925508 158.774626 
L 461.171756 147.330614 
L 461.418005 147.330614 
L 461.664254 140.729219 
L 461.910503 140.729219 
L 462.156752 141.860602 
L 462.403001 137.477972 
L 463.141748 137.477972 
L 463.387996 138.746554 
L 463.634245 147.395485 
L 463.880494 147.395485 
L 464.126743 153.572919 
L 464.372992 153.572919 
L 464.619241 135.986381 
L 464.86549 135.196258 
L 465.111739 135.196258 
L 465.357988 126.736633 
L 465.604237 126.581868 
L 465.850485 126.581868 
L 466.096734 128.266384 
L 466.342983 128.266384 
L 466.589232 131.144951 
L 466.835481 137.186178 
L 467.08173 139.084285 
L 467.327979 137.186178 
L 467.574228 131.144951 
L 467.820477 148.618417 
L 468.066726 134.323246 
L 468.312974 134.323246 
L 468.559223 140.174077 
L 468.805472 140.174077 
L 469.051721 139.216783 
L 469.790468 139.216783 
L 470.036717 138.659557 
L 470.282966 137.388296 
L 470.529214 138.659557 
L 470.775463 141.491878 
L 471.51421 141.491878 
L 472.006708 129.198811 
L 472.499206 129.198811 
L 472.745455 130.755235 
L 472.991703 130.755235 
L 473.237952 145.869663 
L 473.484201 145.869663 
L 473.73045 153.087425 
L 473.976699 153.087425 
L 474.222948 142.349224 
L 474.469197 140.444117 
L 474.715446 132.931446 
L 474.961695 132.776446 
L 475.207944 130.728013 
L 475.454192 130.728013 
L 475.700441 138.64731 
L 475.94669 138.64731 
L 476.439188 153.535706 
L 476.685437 153.535706 
L 476.931686 147.887818 
L 477.177935 147.887818 
L 477.424184 134.854278 
L 477.670432 137.066565 
L 478.16293 137.066565 
L 478.409179 140.17615 
L 479.147926 140.159471 
L 479.394175 139.215682 
L 479.640424 133.005272 
L 479.886673 133.005272 
L 480.132921 136.410448 
L 480.37917 133.156999 
L 480.625419 133.156999 
L 480.871668 132.293962 
L 481.117917 132.293962 
L 481.364166 131.606508 
L 481.610415 131.606508 
L 481.856664 134.840295 
L 482.102913 134.840295 
L 482.349162 133.87054 
L 482.841659 133.87054 
L 483.087908 135.312445 
L 483.334157 135.312445 
L 483.580406 140.008032 
L 483.826655 137.634867 
L 484.319153 137.634867 
L 484.565402 145.010197 
L 484.81165 145.010197 
L 485.057899 149.054226 
L 485.304148 149.054226 
L 485.550397 138.576804 
L 485.796646 137.182581 
L 486.042895 137.182581 
L 486.289144 142.5873 
L 486.535393 142.5873 
L 486.781642 131.888305 
L 487.027891 131.888305 
L 487.274139 130.728013 
L 487.520388 131.888305 
L 487.766637 135.2111 
L 488.012886 140.891307 
L 488.259135 141.637194 
L 488.505384 141.637194 
L 488.751633 140.891307 
L 488.997882 138.394934 
L 489.49038 138.394934 
L 489.982877 144.078015 
L 490.229126 141.28566 
L 490.475375 142.428488 
L 490.967873 142.428488 
L 491.460371 142.544241 
L 491.70662 144.885494 
L 491.952868 144.885494 
L 492.199117 142.448593 
L 492.445366 136.088414 
L 493.184113 136.088414 
L 493.430362 131.604854 
L 493.676611 143.200526 
L 494.415357 143.200526 
L 494.661606 132.317854 
L 495.400353 132.317854 
L 495.646602 125.991118 
L 495.892851 125.991118 
L 496.1391 128.510633 
L 496.385349 128.510633 
L 496.877846 130.218432 
L 497.124095 136.448927 
L 497.616593 136.448927 
L 497.862842 141.863641 
L 498.109091 152.40186 
L 498.109091 152.40186 
" style="fill:none;stroke:#1f77b4;stroke-linecap:square;stroke-width:1.5;"/>
   </g>
   <g id="line2d_16">
    <path clip-path="url(#p0998fe19d7)" d="M 92.290909 97.956603 
L 92.537158 99.37441 
L 92.290909 95.147051 
L 93.029656 85.52706 
L 93.275905 89.947256 
L 93.522154 90.916021 
L 93.768402 77.512645 
L 94.014651 82.824086 
L 94.2609 75.651958 
L 94.014651 81.399529 
L 94.507149 85.635723 
L 94.753398 82.551707 
L 94.999647 81.246884 
L 95.492145 99.524396 
L 95.738394 100.225283 
L 95.984643 103.530642 
L 96.230891 105.295016 
L 96.47714 113.014444 
L 96.723389 102.447751 
L 96.969638 111.075992 
L 97.462136 87.92332 
L 97.708385 89.786702 
L 97.954634 77.304119 
L 98.200883 82.666839 
L 98.447132 75.606499 
L 98.69338 87.57827 
L 98.939629 89.586446 
L 99.432127 97.064428 
L 99.678376 96.880548 
L 99.924625 104.392232 
L 100.170874 102.566559 
L 100.90962 126.241157 
L 101.155869 104.430784 
L 101.402118 102.583294 
L 101.648367 99.310887 
L 101.894616 100.112172 
L 102.387114 116.034588 
L 102.633363 90.490531 
L 102.879612 91.205867 
L 103.125861 93.664279 
L 103.372109 77.961623 
L 103.864607 91.826578 
L 104.357105 95.299338 
L 104.603354 101.706365 
L 104.849603 101.330989 
L 105.095852 107.886798 
L 105.342101 117.835757 
L 105.58835 90.60874 
L 105.834598 84.292565 
L 106.080847 90.119667 
L 106.327096 84.140226 
L 107.065843 99.387028 
L 107.312092 100.15261 
L 107.558341 107.21986 
L 107.80459 103.720222 
L 108.050838 102.270333 
L 108.297087 99.188358 
L 108.789585 114.582375 
L 109.035834 106.066213 
L 109.282083 79.212499 
L 109.528332 76.485833 
L 109.774581 83.003083 
L 110.02083 75.703229 
L 110.759576 93.778 
L 111.005825 96.881051 
L 111.252074 96.789826 
L 111.498323 98.710858 
L 111.744572 106.004674 
L 111.990821 108.847539 
L 112.23707 101.402063 
L 112.483319 98.838961 
L 112.729568 89.430569 
L 112.975816 93.957754 
L 113.222065 88.068774 
L 113.468314 90.29452 
L 113.714563 94.563875 
L 113.960812 91.654177 
L 114.207061 94.636619 
L 114.45331 89.870809 
L 114.699559 98.792417 
L 114.945808 103.271466 
L 115.192056 93.276868 
L 115.438305 91.329752 
L 115.684554 60.885867 
L 115.930803 69.308724 
L 116.177052 85.882121 
L 116.423301 92.170757 
L 116.66955 75.962087 
L 116.915799 82.569063 
L 117.408297 85.682439 
L 117.654545 91.195156 
L 118.147043 106.984923 
L 118.393292 100.931139 
L 118.639541 97.635068 
L 118.88579 97.158725 
L 119.132039 61.113185 
L 119.870786 83.676666 
L 120.363283 92.041329 
L 120.609532 93.639061 
L 120.855781 81.866669 
L 121.10203 87.133423 
L 121.594528 57.301902 
L 122.087026 71.295805 
L 122.333274 76.81639 
L 122.579523 66.16407 
L 123.072021 79.865479 
L 123.31827 76.250806 
L 123.564519 85.223277 
L 123.810768 89.733052 
L 124.057017 98.348512 
L 124.303266 99.553928 
L 124.795763 100.240859 
L 125.042012 107.549341 
L 125.288261 103.845069 
L 125.53451 89.914365 
L 125.288261 86.220696 
L 125.53451 90.430769 
L 126.027008 93.190471 
L 126.273257 100.199675 
L 126.519506 98.331892 
L 126.765755 106.215845 
L 127.012004 100.604798 
L 127.258252 98.581796 
L 127.504501 97.60644 
L 127.75075 97.144919 
L 127.996999 98.91552 
L 127.75075 99.900412 
L 128.243248 100.422357 
L 128.489497 108.545554 
L 128.981995 99.91938 
L 129.228244 74.933295 
L 129.720741 88.659809 
L 129.96699 96.846556 
L 130.213239 97.828648 
L 130.459488 105.01133 
L 130.705737 98.31548 
L 130.951986 99.573319 
L 131.198235 106.395421 
L 131.444484 100.662818 
L 131.690733 98.530424 
L 131.936981 105.530644 
L 132.18323 95.945067 
L 132.675728 111.319139 
L 132.921977 105.137355 
L 133.168226 111.352781 
L 133.414475 105.147797 
L 133.660724 113.680968 
L 133.906973 102.592563 
L 134.153222 101.753921 
L 134.39947 109.318578 
L 134.645719 123.274844 
L 134.891968 104.123648 
L 135.138217 99.888041 
L 135.384466 100.415916 
L 135.630715 107.486971 
L 135.876964 103.821587 
L 136.123213 110.944875 
L 136.369462 105.019929 
L 136.615711 111.257955 
L 136.861959 83.977167 
L 137.354457 97.355719 
L 137.600706 91.647834 
L 137.354457 95.488698 
L 137.846955 103.658669 
L 138.093204 99.718318 
L 138.339453 101.199488 
L 138.831951 113.700828 
L 139.078199 102.59679 
L 139.324448 98.947096 
L 139.570697 99.917435 
L 139.816946 104.075012 
L 140.309444 98.672215 
L 140.555693 107.525143 
L 141.048191 101.015515 
L 141.540688 112.15133 
L 141.786937 75.404934 
L 142.525684 92.443389 
L 142.771933 73.992868 
L 143.018182 80.911378 
L 143.264431 94.925565 
L 143.51068 94.279905 
L 143.264431 102.195124 
L 143.756929 109.005253 
L 144.003177 101.446322 
L 144.249426 109.66016 
L 144.495675 75.324082 
L 144.988173 96.487787 
L 145.480671 103.529322 
L 145.72692 91.85932 
L 145.973169 65.88103 
L 146.465666 81.800503 
L 146.711915 78.453307 
L 146.958164 86.240164 
L 147.204413 84.577274 
L 147.696911 92.462253 
L 147.94316 101.324956 
L 148.189409 104.814526 
L 148.681906 116.12034 
L 148.928155 119.537449 
L 149.420653 82.678209 
L 149.913151 91.55647 
L 150.405649 96.942539 
L 150.651898 81.794468 
L 150.898147 85.739376 
L 150.651898 88.276555 
L 151.144395 92.411936 
L 151.883142 111.561492 
L 152.621889 127.77663 
L 152.868138 108.417237 
L 153.114387 101.279331 
L 153.360635 108.22757 
L 153.606884 94.28917 
L 153.853133 97.203266 
L 154.099382 91.598518 
L 154.345631 88.867983 
L 154.59188 90.754586 
L 154.838129 98.210062 
L 155.084378 91.917014 
L 155.330627 93.686931 
L 155.576876 96.823156 
L 155.823124 87.918115 
L 156.069373 95.344324 
L 156.315622 96.004121 
L 156.561871 104.669795 
L 156.80812 99.10659 
L 157.300618 116.350174 
L 157.546867 84.237614 
L 157.793116 92.932829 
L 158.039365 44.64 
L 158.531862 58.448141 
L 159.02436 72.38216 
L 159.516858 85.84936 
L 160.009356 73.336227 
L 159.516858 69.836821 
L 160.255605 62.46259 
L 160.748102 65.56643 
L 161.486849 87.293536 
L 162.225596 99.070626 
L 162.471845 100.218076 
L 162.718094 108.233893 
L 162.964342 75.27059 
L 163.210591 63.839349 
L 163.45684 62.630434 
L 163.949338 48.572454 
L 164.688085 60.842816 
L 165.180583 78.445532 
L 165.426831 79.435915 
L 165.67308 73.839235 
L 165.919329 78.289793 
L 166.165578 78.958075 
L 166.411827 80.295035 
L 166.904325 92.897031 
L 167.396823 95.639371 
L 167.643071 96.158496 
L 168.135569 89.273609 
L 168.381818 54.43726 
L 169.120565 78.338138 
L 169.366814 71.32161 
L 170.10556 94.863581 
L 170.351809 78.341922 
L 170.598058 80.225543 
L 171.090556 98.054997 
L 171.336805 74.673923 
L 171.583054 77.394942 
L 171.829303 83.749185 
L 172.075552 82.870678 
L 172.321801 54.157161 
L 172.814298 69.733291 
L 173.060547 62.433165 
L 173.799294 85.978754 
L 174.045543 79.912932 
L 174.784289 97.607897 
L 175.030538 98.516422 
L 175.276787 105.65396 
L 175.523036 98.426724 
L 176.015534 76.824208 
L 176.261783 73.734092 
L 176.508032 82.262319 
L 176.754281 84.697067 
L 177.00053 89.358539 
L 177.246778 97.009577 
L 177.493027 83.73272 
L 177.739276 92.073003 
L 178.231774 95.379314 
L 178.478023 104.113794 
L 178.724272 99.884484 
L 179.21677 81.608877 
L 179.463019 87.075769 
L 179.709267 80.246919 
L 180.201765 90.295634 
L 180.448014 73.824897 
L 181.186761 91.593631 
L 181.43301 96.274624 
L 181.679259 94.178389 
L 182.171756 106.497081 
L 182.418005 100.695424 
L 182.664254 103.429983 
L 182.910503 99.633426 
L 183.156752 102.986361 
L 183.403001 92.291086 
L 183.64925 94.309048 
L 183.403001 95.496139 
L 183.895499 101.815529 
L 184.141748 90.698615 
L 184.387996 94.220351 
L 184.634245 91.729268 
L 183.64925 93.97798 
L 184.880494 97.590203 
L 185.126743 91.722923 
L 185.372992 89.554017 
L 185.619241 92.641376 
L 185.86549 100.496649 
L 186.111739 100.022998 
L 186.357988 98.255091 
L 186.604237 97.974008 
L 186.850485 98.936386 
L 187.096734 98.82598 
L 187.342983 74.614471 
L 187.835481 86.907116 
L 188.327979 94.089948 
L 188.574228 102.44423 
L 188.820477 99.256663 
L 189.066726 74.769125 
L 189.559223 88.613978 
L 189.805472 73.574733 
L 190.544219 93.938156 
L 190.790468 95.245468 
L 191.036717 103.631175 
L 191.282966 99.708162 
L 191.529214 104.869584 
L 191.775463 100.152313 
L 192.021712 88.477053 
L 193.006708 100.982009 
L 193.252957 97.120246 
L 193.499206 96.502997 
L 193.991703 96.649898 
L 194.237952 104.597175 
L 194.484201 85.268652 
L 194.976699 92.158014 
L 195.222948 74.071318 
L 195.715446 87.58069 
L 196.207944 94.971319 
L 196.454192 92.778199 
L 196.700441 74.146772 
L 196.94669 81.499264 
L 197.192939 73.677666 
L 197.931686 93.014519 
L 198.177935 94.726653 
L 197.685437 98.169859 
L 198.424184 97.413745 
L 198.670432 77.240333 
L 199.16293 92.744307 
L 199.409179 94.571823 
L 199.901677 107.260094 
L 200.147926 103.735573 
L 200.394175 96.178887 
L 200.640424 96.436456 
L 201.132921 110.750145 
L 201.37917 98.51558 
L 201.625419 102.344392 
L 201.871668 108.026126 
L 202.117917 100.93248 
L 202.364166 108.698922 
L 202.610415 91.861061 
L 202.856664 97.606089 
L 203.102913 97.506153 
L 202.856664 97.096429 
L 203.349162 94.495095 
L 203.59541 95.550468 
L 203.841659 100.864426 
L 204.087908 98.615584 
L 204.580406 112.311777 
L 204.826655 102.288694 
L 205.072904 101.6106 
L 205.319153 108.775526 
L 205.565402 91.896966 
L 205.81165 88.310654 
L 206.304148 91.839203 
L 205.81165 93.569014 
L 206.550397 96.747972 
L 206.796646 77.913791 
L 207.289144 91.427223 
L 207.535393 93.797567 
L 207.781642 100.346911 
L 208.027891 98.395445 
L 208.274139 78.097423 
L 209.012886 97.730279 
L 209.259135 97.20453 
L 209.505384 73.15775 
L 209.751633 78.490901 
L 209.997882 64.389061 
L 210.49038 73.215879 
L 210.736628 63.334416 
L 210.982877 71.849266 
L 211.475375 92.696692 
L 211.967873 95.577182 
L 212.460371 108.877216 
L 212.70662 113.169608 
L 212.952868 102.481984 
L 213.445366 115.649111 
L 213.691615 102.98736 
L 213.937864 97.129406 
L 214.430362 96.80545 
L 214.92286 96.725708 
L 215.169109 98.082458 
L 215.415357 97.372443 
L 215.661606 101.651836 
L 215.907855 90.663664 
L 216.400353 98.769932 
L 216.646602 97.693364 
L 216.892851 104.671982 
L 217.1391 100.083259 
L 217.385349 107.206768 
L 217.631598 100.918249 
L 217.877846 107.552643 
L 218.124095 101.023839 
L 218.616593 98.682381 
L 218.862842 103.706574 
L 219.109091 99.735983 
L 219.35534 98.129064 
L 219.601589 103.981985 
L 219.847838 99.83674 
L 220.094086 87.030443 
L 219.847838 90.98521 
L 220.340335 83.436035 
L 220.586584 91.358194 
L 220.832833 93.756099 
L 221.325331 105.805675 
L 221.57158 100.470228 
L 221.817829 98.448359 
L 222.310327 97.544377 
L 222.556575 81.983659 
L 222.802824 87.360237 
L 223.049073 95.327186 
L 223.295322 71.964598 
L 223.541571 80.819134 
L 223.78782 97.416656 
L 224.034069 104.477075 
L 224.280318 107.698446 
L 224.526567 88.180065 
L 224.772816 86.167451 
L 225.019064 90.393931 
L 225.265313 73.838681 
L 225.511562 82.505164 
L 225.757811 72.403939 
L 226.496558 93.238992 
L 226.742807 76.96693 
L 226.989056 85.123546 
L 227.727802 95.104901 
L 227.974051 74.526034 
L 228.2203 79.508778 
L 228.466549 74.257038 
L 228.712798 72.779069 
L 228.959047 79.870558 
L 229.697793 90.044369 
L 229.944042 98.365513 
L 230.190291 97.505673 
L 230.43654 97.783675 
L 230.682789 81.272955 
L 230.929038 84.508534 
L 231.421536 101.114817 
L 231.667785 98.720289 
L 231.914034 97.670493 
L 232.406531 112.861083 
L 232.65278 105.597067 
L 232.899029 111.923003 
L 233.145278 102.197801 
L 233.391527 107.131351 
L 233.884025 104.431734 
L 234.130274 90.437561 
L 234.622771 94.829114 
L 234.86902 84.581085 
L 235.361518 98.686715 
L 235.607767 82.740259 
L 236.100265 98.131266 
L 236.346514 97.395526 
L 236.592763 101.92061 
L 236.839011 109.278219 
L 237.08526 104.468337 
L 237.331509 87.415462 
L 237.577758 95.674686 
L 237.331509 96.176862 
L 237.824007 96.435423 
L 238.070256 103.176249 
L 238.316505 99.538132 
L 238.562754 87.318596 
L 238.809003 93.648563 
L 239.055252 94.732562 
L 239.3015 87.175703 
L 239.547749 95.968428 
L 239.793998 95.392228 
L 240.040247 102.152243 
L 240.286496 74.967621 
L 241.763989 114.253614 
L 241.517741 115.735209 
L 242.010238 97.114833 
L 242.256487 82.49777 
L 242.502736 77.517956 
L 242.995234 89.784826 
L 243.487732 96.243315 
L 243.733981 102.546485 
L 243.980229 99.296569 
L 244.226478 85.277155 
L 244.965225 107.647892 
L 245.211474 115.397824 
L 245.457723 92.237667 
L 245.703972 94.277823 
L 245.950221 101.53281 
L 246.19647 100.852788 
L 246.442718 77.415976 
L 246.688967 77.497592 
L 246.935216 85.996626 
L 247.181465 89.431528 
L 247.427714 97.3663 
L 247.920212 96.862818 
L 248.166461 102.748694 
L 248.41271 99.374919 
L 248.658959 104.909225 
L 248.905207 83.763117 
L 249.643954 97.469071 
L 250.136452 105.110629 
L 250.382701 100.235625 
L 250.62895 103.372938 
L 250.875199 107.979798 
L 251.367696 99.273353 
L 251.613945 105.192 
L 251.367696 109.615243 
L 251.860194 103.017497 
L 252.106443 94.618828 
L 252.352692 98.345326 
L 252.598941 85.147659 
L 252.84519 79.154651 
L 253.337688 94.882906 
L 253.583936 95.759348 
L 253.830185 100.582166 
L 254.076434 98.496142 
L 254.322683 99.672525 
L 254.568932 74.800224 
L 255.307679 95.826085 
L 255.553928 101.901468 
L 255.800177 99.04163 
L 256.046425 100.393001 
L 256.292674 92.551138 
L 256.538923 100.593828 
L 256.785172 97.568951 
L 257.031421 99.156804 
L 257.27767 97.869983 
L 257.523919 105.264597 
L 257.770168 102.938372 
L 257.523919 82.211695 
L 258.508914 98.610418 
L 258.755163 79.83741 
L 259.001412 83.181222 
L 259.247661 91.181562 
L 259.49391 73.945944 
L 259.986408 87.709121 
L 260.478906 101.626809 
L 260.725154 98.930741 
L 260.971403 69.818265 
L 261.463901 83.65314 
L 261.956399 92.030125 
L 262.202648 87.916822 
L 262.448897 92.867348 
L 262.941395 106.197868 
L 263.187643 100.59896 
L 263.433892 85.489438 
L 263.680141 89.920809 
L 263.92639 96.745732 
L 264.172639 96.722463 
L 264.418888 80.450393 
L 264.665137 86.18417 
L 264.911386 65.40816 
L 265.403883 80.313145 
L 265.650132 71.866635 
L 265.896381 69.082505 
L 266.388879 87.365504 
L 266.635128 73.370502 
L 267.127626 88.283935 
L 267.373875 92.746048 
L 267.620124 99.446571 
L 267.866372 88.330281 
L 268.35887 93.129825 
L 268.605119 95.78622 
L 268.851368 96.234707 
L 269.097617 84.652223 
L 269.343866 89.326421 
L 269.590115 77.605818 
L 270.328861 99.098975 
L 270.57511 76.206783 
L 270.821359 79.818914 
L 271.067608 88.393724 
L 271.313857 91.893642 
L 271.806355 107.431142 
L 272.052604 100.986969 
L 272.298853 83.052789 
L 272.545102 87.993489 
L 272.79135 80.326039 
L 273.530097 101.981785 
L 273.776346 108.183069 
L 274.022595 106.00528 
L 274.268844 100.536071 
L 274.515093 106.860655 
L 274.761342 100.81062 
L 275.00759 98.592931 
L 275.253839 112.013474 
L 275.500088 92.63502 
L 275.746337 98.750177 
L 275.992586 101.466209 
L 276.238835 97.30391 
L 276.485084 96.998054 
L 276.731333 93.190503 
L 276.977582 84.027953 
L 277.223831 88.525239 
L 276.977582 82.710878 
L 277.470079 87.580598 
L 277.716328 91.355633 
L 277.962577 86.140377 
L 278.208826 93.022135 
L 278.455075 96.396063 
L 278.701324 77.869247 
L 278.947573 86.512532 
L 279.193822 102.146197 
L 279.440071 65.756926 
L 279.68632 74.502002 
L 279.932568 76.218556 
L 280.178817 85.193879 
L 280.425066 72.974232 
L 281.163813 94.750469 
L 280.917564 66.057613 
L 281.90256 69.877361 
L 282.148808 68.242771 
L 282.395057 76.040687 
L 282.148808 70.609369 
L 282.641306 78.217925 
L 282.887555 71.286475 
L 283.133804 78.572394 
L 283.626302 69.895179 
L 283.872551 62.479102 
L 284.611297 86.097225 
L 284.857546 95.056693 
L 285.103795 80.179412 
L 285.350044 85.973003 
L 285.596293 86.605357 
L 286.581289 98.950421 
L 286.827538 97.776119 
L 287.812533 78.337994 
L 288.058782 84.407556 
L 288.305031 86.981146 
L 289.043778 96.62511 
L 289.290026 99.737517 
L 289.536275 98.129742 
L 289.782524 105.219083 
L 290.028773 100.272781 
L 290.275022 108.458442 
L 290.76752 101.291209 
L 291.013769 108.23771 
L 291.260018 74.079499 
L 291.506267 71.699899 
L 291.752515 78.933898 
L 291.998764 64.462803 
L 292.245013 65.574844 
L 292.491262 69.704425 
L 293.476258 98.276639 
L 293.722507 103.011981 
L 293.968756 99.475818 
L 294.215004 82.164208 
L 294.707502 92.186065 
L 295.446249 97.896658 
L 295.692498 79.470316 
L 296.184996 89.869034 
L 296.677493 96.277862 
L 296.923742 101.029697 
L 296.677493 98.684827 
L 297.41624 94.072309 
L 297.908738 96.819037 
L 298.154987 98.727784 
L 298.401236 74.728222 
L 299.139982 95.627954 
L 299.386231 101.108905 
L 299.63248 98.71783 
L 299.878729 94.360726 
L 300.124978 101.19681 
L 300.371227 98.754321 
L 300.617476 104.891754 
L 299.878729 75.120826 
L 300.863725 81.328842 
L 301.109974 86.861932 
L 301.602471 90.870729 
L 301.84872 96.052933 
L 302.094969 67.804405 
L 303.326214 102.955723 
L 304.06496 75.015755 
L 304.311209 77.158407 
L 304.557458 84.545781 
L 304.803707 83.444545 
L 305.049956 75.442633 
L 305.296205 83.390633 
L 305.788703 64.886264 
L 306.527449 84.317121 
L 306.773698 70.446448 
L 307.512445 91.777381 
L 308.004943 59.514578 
L 308.743689 83.37046 
L 308.989938 65.094669 
L 309.482436 82.125071 
L 309.728685 82.041649 
L 310.221183 97.952705 
L 310.467432 97.310856 
L 310.959929 64.615775 
L 311.206178 71.589044 
L 311.452427 62.935651 
L 311.944925 77.561625 
L 312.191174 64.227427 
L 312.437423 65.446108 
L 312.683672 73.328056 
L 312.929921 76.9432 
L 313.176169 85.819476 
L 313.422418 69.389873 
L 313.668667 80.661985 
L 314.161165 91.298511 
L 314.407414 93.720174 
L 314.653663 92.486534 
L 315.146161 96.308258 
L 315.39241 86.574964 
L 315.638658 94.883651 
L 315.884907 78.136516 
L 316.131156 74.92877 
L 316.377405 75.354344 
L 316.623654 66.38855 
L 316.131156 71.617383 
L 316.869903 76.547681 
L 317.362401 89.141161 
L 317.60865 92.378042 
L 317.854898 98.035035 
L 318.101147 97.349971 
L 318.347396 97.020529 
L 318.593645 102.355065 
L 318.839894 99.22171 
L 319.086143 78.654648 
L 319.578641 93.598198 
L 319.82489 81.858404 
L 320.071139 89.715885 
L 320.317387 92.743792 
L 320.563636 100.955279 
L 321.056134 97.16098 
L 321.302383 84.068124 
L 321.548632 89.943585 
L 321.794881 92.887065 
L 322.04113 81.711216 
L 322.533628 91.068606 
L 323.026125 95.046866 
L 323.272374 93.898441 
L 323.518623 96.002521 
L 323.764872 94.552397 
L 324.011121 95.581513 
L 324.25737 102.546537 
L 324.503619 99.296589 
L 324.996117 107.736493 
L 325.488614 89.791996 
L 325.734863 65.730274 
L 326.227361 79.984005 
L 326.47361 87.626438 
L 326.227361 92.646317 
L 326.719859 94.515335 
L 326.966108 82.038976 
L 327.212357 76.060301 
L 327.704854 83.278545 
L 327.212357 76.438826 
L 327.951103 82.624769 
L 328.197352 87.84222 
L 328.443601 95.509197 
L 328.68985 98.506002 
L 328.936099 88.670692 
L 329.428597 95.648349 
L 329.674846 96.163167 
L 329.921094 100.637357 
L 329.428597 98.519615 
L 329.921094 102.254628 
L 330.167343 109.378203 
L 330.413592 101.549452 
L 330.659841 105.324274 
L 330.90609 102.963285 
L 331.152339 83.2853 
L 331.644837 91.853563 
L 331.891086 94.051731 
L 332.137335 75.878009 
L 332.383583 83.918628 
L 332.629832 72.71532 
L 332.876081 80.320879 
L 333.12233 71.868653 
L 333.368579 80.517858 
L 333.614828 67.038633 
L 334.353575 89.558129 
L 334.846072 95.846732 
L 335.092321 100.71748 
L 335.584819 79.192783 
L 336.323566 101.665644 
L 336.569815 98.946504 
L 337.062312 74.888888 
L 337.308561 79.222139 
L 337.55481 86.411932 
L 337.801059 87.038098 
L 338.047308 92.839041 
L 338.293557 65.49489 
L 338.539806 66.126824 
L 339.032304 80.875794 
L 339.278553 83.843299 
L 339.524801 90.771203 
L 340.509797 100.469322 
L 340.756046 108.09384 
L 341.002295 104.047098 
L 341.248544 108.533491 
L 341.494793 104.206357 
L 341.741041 105.15939 
L 342.233539 102.95422 
L 342.479788 105.446541 
L 342.726037 83.536129 
L 342.972286 91.919479 
L 343.218535 95.670626 
L 343.464784 96.174751 
L 343.711033 99.216282 
L 343.957282 88.28101 
L 344.449779 94.031694 
L 344.942277 108.700045 
L 345.188526 112.128754 
L 344.942277 115.189189 
L 345.927273 98.506487 
L 346.173522 99.678187 
L 346.419771 99.083366 
L 346.666019 98.92233 
L 346.912268 97.76328 
L 347.158517 82.691619 
L 347.404766 77.23609 
L 347.651015 54.184646 
L 348.143513 71.66509 
L 348.389762 69.000799 
L 349.374757 96.577942 
L 349.621006 77.589202 
L 350.359753 95.647545 
L 350.606002 96.162749 
L 351.0985 99.588838 
L 351.344748 94.880815 
L 351.590997 93.042656 
L 352.083495 104.170169 
L 351.837246 107.12975 
L 352.575993 98.628209 
L 352.822242 102.326915 
L 353.31474 76.964545 
L 353.560989 83.397127 
L 353.807237 93.230058 
L 354.053486 90.170493 
L 354.299735 96.19849 
L 354.545984 82.344611 
L 354.053486 84.746633 
L 355.038482 92.831073 
L 355.53098 62.309529 
L 356.023477 81.622543 
L 356.762224 94.279836 
L 357.008473 95.433285 
L 357.254722 74.436033 
L 357.500971 74.159283 
L 357.74722 80.650383 
L 357.993469 71.953796 
L 358.239718 73.732634 
L 358.732215 88.743615 
L 358.978464 75.997209 
L 358.239718 80.571752 
L 359.224713 83.65143 
L 359.470962 76.665447 
L 359.717211 83.808364 
L 359.96346 72.691972 
L 360.455958 82.057135 
L 360.209709 90.522377 
L 360.702207 89.032454 
L 361.440953 99.392641 
L 361.687202 107.59448 
L 361.933451 109.67382 
L 362.1797 101.629684 
L 362.425949 83.131851 
L 362.918447 97.105404 
L 363.164695 96.900732 
L 363.410944 105.469412 
L 363.657193 75.149407 
L 363.903442 77.712253 
L 364.39594 88.861114 
L 364.642189 90.083357 
L 365.380936 97.482046 
L 365.627184 97.084744 
L 365.873433 107.361426 
L 366.119682 100.965705 
L 366.365931 83.050114 
L 366.858429 85.166431 
L 367.350927 96.205411 
L 367.597176 103.52743 
L 367.843425 80.752353 
L 368.335922 70.68053 
L 368.82842 87.689984 
L 369.074669 91.428671 
L 369.320918 79.530221 
L 369.567167 76.122878 
L 369.813416 81.515132 
L 370.059665 64.852754 
L 370.305914 70.387531 
L 370.798411 87.41683 
L 371.04466 85.903764 
L 371.290909 75.93025 
L 371.537158 84.083113 
L 371.783407 65.580269 
L 372.275905 74.228292 
L 372.768402 87.99084 
L 373.014651 92.921486 
L 373.2609 94.6735 
L 373.507149 101.250516 
L 374.245896 95.937434 
L 374.492145 96.78832 
L 374.984643 110.302002 
L 375.230891 101.795799 
L 375.47714 109.630935 
L 375.723389 76.482537 
L 375.969638 74.709594 
L 376.215887 81.09806 
L 376.462136 94.642415 
L 376.708385 95.630156 
L 376.954634 98.026051 
L 377.200883 78.261145 
L 377.447132 74.514925 
L 377.939629 87.848753 
L 378.678376 97.767622 
L 378.924625 81.510428 
L 379.170874 74.770727 
L 379.417123 87.965801 
L 379.663372 91.611925 
L 380.155869 91.468534 
L 380.402118 65.854213 
L 379.663372 73.701917 
L 380.648367 76.913379 
L 381.140865 64.108912 
L 381.387114 71.925088 
L 381.633363 86.908905 
L 381.879612 81.744371 
L 382.125861 90.235738 
L 382.372109 93.069526 
L 382.618358 76.638404 
L 383.110856 87.922191 
L 383.603354 86.843279 
L 383.849603 73.280107 
L 384.342101 88.228263 
L 384.58835 92.211083 
L 384.834598 98.901678 
L 385.080847 97.753831 
L 385.327096 99.26094 
L 385.080847 82.680089 
L 385.573345 72.443918 
L 386.065843 89.442303 
L 386.80459 97.478429 
L 387.050838 82.127194 
L 387.543336 92.492782 
L 388.035834 79.159931 
L 388.282083 80.591872 
L 388.528332 82.815417 
L 389.02083 64.545138 
L 389.513327 77.856982 
L 390.252074 95.900004 
L 390.498323 96.293474 
L 390.744572 90.354722 
L 391.483319 97.520569 
L 391.729568 105.138732 
L 391.975816 79.587604 
L 392.468314 92.711392 
L 392.714563 100.451045 
L 392.960812 77.300198 
L 393.945808 109.072187 
L 394.192056 101.464989 
L 394.684554 113.909974 
L 394.930803 57.701807 
L 395.177052 61.427747 
L 395.423301 70.333693 
L 395.66955 70.430369 
L 396.162048 86.816638 
L 396.408297 73.275415 
L 396.654545 69.632744 
L 396.900794 62.404427 
L 397.639541 86.192073 
L 397.88579 91.582881 
L 398.132039 92.115382 
L 398.378288 99.5082 
L 398.624537 98.027933 
L 398.378288 104.575699 
L 398.624537 100.049364 
L 398.870786 77.075238 
L 399.363283 92.523036 
L 399.609532 94.444013 
L 399.855781 97.299944 
L 400.10203 96.996117 
L 400.348279 80.947232 
L 400.840777 95.119191 
L 401.087026 90.884354 
L 401.579523 94.984002 
L 402.072021 108.956304 
L 402.31827 114.456545 
L 402.564519 90.373662 
L 402.810768 98.51287 
L 403.303266 74.711157 
L 403.549515 82.341537 
L 404.042012 111.492303 
L 404.288261 105.190902 
L 404.53451 105.879647 
L 404.780759 100.494708 
L 405.273257 105.476669 
L 405.519506 110.717398 
L 405.765755 101.902428 
L 406.258252 110.428917 
L 406.504501 101.828646 
L 406.75075 107.607657 
L 406.996999 101.040454 
L 407.243248 108.830423 
L 407.489497 91.498896 
L 407.735746 93.317943 
L 407.981995 96.587067 
L 408.228244 97.016736 
L 408.720741 96.777886 
L 408.96699 80.573626 
L 409.459488 92.936047 
L 409.705737 103.171435 
L 410.198235 111.578576 
L 410.444484 105.217397 
L 410.690733 104.957573 
L 410.936981 110.335918 
L 411.429479 95.609752 
L 411.675728 99.376317 
L 412.168226 81.476317 
L 412.414475 89.576075 
L 412.660724 90.76041 
L 412.906973 93.393319 
L 413.645719 108.120204 
L 414.138217 99.863858 
L 414.384466 98.757976 
L 414.876964 108.351711 
L 415.123213 108.071492 
L 415.369462 114.460251 
L 415.615711 102.754617 
L 415.861959 83.262202 
L 416.108208 84.007636 
L 416.354457 92.652822 
L 416.600706 89.891236 
L 416.846955 96.742495 
L 417.339453 98.683399 
L 417.585702 106.391483 
L 417.831951 66.486729 
L 418.078199 83.513866 
L 418.324448 91.281921 
L 418.570697 106.079182 
L 418.816946 100.560278 
L 419.063195 98.486817 
L 419.309444 104.59722 
L 419.555693 101.510492 
L 419.801942 101.235473 
L 420.048191 98.770324 
L 420.29444 99.008493 
L 420.786937 97.802613 
L 421.033186 103.258535 
L 421.279435 98.055096 
L 421.525684 105.220352 
L 421.771933 83.245609 
L 422.51068 100.444451 
L 422.756929 97.539228 
L 423.003177 106.075653 
L 423.249426 75.17813 
L 423.495675 84.030029 
L 423.741924 88.877573 
L 424.234422 107.905093 
L 424.480671 115.071568 
L 424.72692 107.919968 
L 424.973169 107.717352 
L 425.219417 114.751305 
L 425.465666 112.605193 
L 425.711915 117.667652 
L 425.958164 116.724583 
L 426.204413 103.183531 
L 426.696911 119.672845 
L 426.94316 103.657028 
L 427.189409 109.911666 
L 427.435658 104.683568 
L 427.681906 102.692325 
L 427.928155 109.188256 
L 428.174404 104.437206 
L 428.420653 112.733713 
L 428.666902 112.438925 
L 428.913151 87.438552 
L 429.1594 91.260484 
L 429.405649 99.41137 
L 429.651898 100.165514 
L 429.898147 97.073011 
L 430.390644 108.714556 
L 430.636893 84.124735 
L 431.129391 89.98806 
L 431.37564 81.041834 
L 431.621889 89.547232 
L 431.868138 80.929728 
L 432.114387 86.555296 
L 432.360635 73.228962 
L 432.606884 81.336755 
L 432.853133 95.15082 
L 433.099382 92.777322 
L 433.345631 78.511952 
L 433.59188 81.575209 
L 433.838129 90.998545 
L 434.084378 93.538623 
L 434.330627 101.346535 
L 434.576876 101.154954 
L 435.069373 85.574749 
L 435.315622 89.980749 
L 435.561871 97.200304 
L 435.80812 96.947354 
L 436.054369 98.801944 
L 436.300618 104.620604 
L 436.546867 66.442864 
L 436.793116 71.865266 
L 437.285613 90.72891 
L 437.531862 93.374021 
L 438.270609 116.453623 
L 438.516858 103.135353 
L 438.763107 108.157417 
L 439.009356 75.267559 
L 439.501853 91.658244 
L 439.748102 95.495693 
L 439.994351 97.307205 
L 440.2406 91.632183 
L 440.486849 97.407918 
L 440.733098 97.048744 
L 440.979347 104.362236 
L 441.225596 102.55352 
L 441.471845 86.281458 
L 441.964342 101.040392 
L 442.210591 78.824857 
L 442.703089 94.851045 
L 443.195587 96.453311 
L 443.688085 96.637317 
L 443.934334 96.668239 
L 444.180583 82.424249 
L 444.426831 87.692106 
L 444.919329 104.729451 
L 445.165578 100.103412 
L 445.411827 108.067274 
L 445.658076 101.177357 
L 445.904325 90.557752 
L 446.150574 90.987847 
L 446.643071 96.724396 
L 446.88932 96.71181 
L 447.135569 91.436862 
L 447.628067 96.897141 
L 447.874316 103.309771 
L 448.120565 99.588423 
L 448.366814 66.281293 
L 448.613063 70.352581 
L 448.859312 62.606691 
L 450.336805 110.468232 
L 450.583054 101.838773 
L 450.829303 100.669928 
L 451.321801 96.411652 
L 451.568049 95.859942 
L 452.060547 96.484274 
L 452.306796 88.249555 
L 452.799294 94.019442 
L 453.291792 78.508036 
L 453.784289 90.398429 
L 454.276787 95.5696 
L 454.769285 111.344406 
L 455.015534 107.757895 
L 455.261783 83.500639 
L 455.508032 89.495477 
L 455.754281 88.564593 
L 456.246778 71.958679 
L 456.739276 87.913335 
L 456.985525 91.577167 
L 457.231774 102.578764 
L 457.478023 74.993521 
L 457.970521 90.427411 
L 458.709267 111.78333 
L 459.201765 116.090382 
L 459.448014 84.226546 
L 459.694263 92.844077 
L 459.940512 94.62915 
L 460.186761 103.418969 
L 460.43301 99.629313 
L 461.171756 116.304154 
L 461.418005 95.033356 
L 461.910503 108.825624 
L 462.156752 113.189205 
L 462.403001 112.694185 
L 462.895499 90.8157 
L 463.387996 105.96804 
L 463.634245 105.795296 
L 463.880494 75.165006 
L 464.126743 78.329525 
L 464.619241 94.434309 
L 464.86549 97.293898 
L 465.111739 95.498921 
L 465.357988 74.442535 
L 465.604237 81.293376 
L 465.850485 78.254991 
L 466.096734 64.541264 
L 466.589232 81.891379 
L 467.08173 90.482196 
L 467.327979 73.850983 
L 468.066726 96.793861 
L 468.312974 75.040005 
L 468.805472 87.219421 
L 469.051721 80.289211 
L 469.29797 88.556608 
L 469.544219 65.629029 
L 470.282966 88.970409 
L 470.775463 95.902354 
L 471.021712 91.571817 
L 471.267961 93.884145 
L 471.51421 99.885993 
L 471.760459 98.195127 
L 472.006708 98.86528 
L 472.252957 97.737159 
L 472.499206 82.425933 
L 472.745455 90.906544 
L 472.991703 93.48261 
L 473.237952 74.691428 
L 474.469197 109.442114 
L 474.715446 101.566911 
L 475.207944 111.389648 
L 475.454192 102.06968 
L 475.700441 103.707145 
L 475.94669 99.736193 
L 476.439188 113.904008 
L 476.685437 102.639734 
L 476.931686 109.199823 
L 477.177935 87.125109 
L 477.424184 88.316606 
L 477.916681 94.755145 
L 478.16293 95.690852 
L 478.655428 100.177165 
L 478.901677 98.32214 
L 479.147926 97.485358 
L 479.394175 97.08635 
L 479.640424 98.881927 
L 479.886673 97.744787 
L 480.132921 98.953627 
L 480.37917 97.777583 
L 480.625419 97.227222 
L 481.117917 96.829234 
L 481.364166 96.764072 
L 482.102913 112.603982 
L 482.349162 116.609289 
L 482.59541 106.56268 
L 482.841659 110.740779 
L 483.087908 117.745353 
L 483.334157 103.357752 
L 483.580406 102.106988 
L 483.826655 86.899463 
L 484.072904 90.896267 
L 484.319153 99.639591 
L 484.565402 98.086388 
L 484.81165 88.029133 
L 485.304148 101.542601 
L 485.550397 101.251181 
L 485.796646 83.576922 
L 486.042895 91.821051 
L 486.289144 95.297532 
L 486.535393 106.693493 
L 486.781642 109.331559 
L 487.027891 104.486729 
L 487.766637 99.3203 
L 488.012886 97.943766 
L 488.259135 91.83441 
L 488.751633 95.301895 
L 489.244131 96.922736 
L 489.49038 87.7515 
L 489.736628 95.265511 
L 489.982877 93.609402 
L 490.475375 103.287035 
L 490.967873 97.082615 
L 491.214122 104.372783 
L 491.460371 102.558106 
L 491.70662 99.301092 
L 491.952868 91.431976 
L 492.199117 95.343239 
L 492.445366 93.051331 
L 492.691615 78.176663 
L 492.937864 73.310869 
L 493.184113 81.373687 
L 493.430362 94.754444 
L 493.676611 100.333753 
L 493.92286 74.756729 
L 494.415357 83.095531 
L 494.907855 73.632275 
L 495.154104 76.320111 
L 495.646602 84.186938 
L 495.892851 85.862424 
L 496.385349 93.036083 
L 496.631598 96.441435 
L 496.877846 96.569696 
L 497.124095 99.921766 
L 497.370344 79.764801 
L 497.616593 83.380547 
L 498.109091 86.957711 
L 498.109091 86.957711 
" style="fill:none;stroke:#ff7f0e;stroke-linecap:square;stroke-width:1.5;"/>
   </g>
   <g id="patch_3">
    <path d="M 72 256.32 
L 72 34.56 
" style="fill:none;stroke:#000000;stroke-linecap:square;stroke-linejoin:miter;stroke-width:0.8;"/>
   </g>
   <g id="patch_4">
    <path d="M 518.4 256.32 
L 518.4 34.56 
" style="fill:none;stroke:#000000;stroke-linecap:square;stroke-linejoin:miter;stroke-width:0.8;"/>
   </g>
   <g id="patch_5">
    <path d="M 72 256.32 
L 518.4 256.32 
" style="fill:none;stroke:#000000;stroke-linecap:square;stroke-linejoin:miter;stroke-width:0.8;"/>
   </g>
   <g id="patch_6">
    <path d="M 72 34.56 
L 518.4 34.56 
" style="fill:none;stroke:#000000;stroke-linecap:square;stroke-linejoin:miter;stroke-width:0.8;"/>
   </g>
  </g>
 </g>
 <defs>
  <clipPath id="p0998fe19d7">
   <rect height="221.76" width="446.4" x="72" y="34.56"/>
  </clipPath>
 </defs>
</svg>
