<?xml version="1.0" encoding="utf-8" standalone="no"?>
<!DOCTYPE svg PUBLIC "-//W3C//DTD SVG 1.1//EN"
  "http://www.w3.org/Graphics/SVG/1.1/DTD/svg11.dtd">
<svg height="345.6pt" version="1.1" viewBox="0 0 460.8 345.6" width="460.8pt" xmlns="http://www.w3.org/2000/svg" xmlns:xlink="http://www.w3.org/1999/xlink">
 <metadata>
  <rdf:RDF xmlns:cc="http://creativecommons.org/ns#" xmlns:dc="http://purl.org/dc/elements/1.1/" xmlns:rdf="http://www.w3.org/1999/02/22-rdf-syntax-ns#">
   <cc:Work>
    <dc:type rdf:resource="http://purl.org/dc/dcmitype/StillImage"/>
    <dc:date>2022-01-06T21:58:35.325457</dc:date>
    <dc:format>image/svg+xml</dc:format>
    <dc:creator>
     <cc:Agent>
      <dc:title>Matplotlib v3.4.3, https://matplotlib.org/</dc:title>
     </cc:Agent>
    </dc:creator>
   </cc:Work>
  </rdf:RDF>
 </metadata>
 <defs>
  <style type="text/css">*{stroke-linecap:butt;stroke-linejoin:round;}</style>
 </defs>
 <g id="figure_1">
  <g id="patch_1">
   <path d="M 0 345.6 
L 460.8 345.6 
L 460.8 0 
L 0 0 
z
" style="fill:#ffffff;"/>
  </g>
  <g id="axes_1">
   <g id="patch_2">
    <path d="M 57.6 307.584 
L 414.72 307.584 
L 414.72 41.472 
L 57.6 41.472 
z
" style="fill:#ffffff;"/>
   </g>
   <g id="matplotlib.axis_1">
    <g id="xtick_1">
     <g id="line2d_1">
      <defs>
       <path d="M 0 0 
L 0 3.5 
" id="m7fc03a4591" style="stroke:#000000;stroke-width:0.8;"/>
      </defs>
      <g>
       <use style="stroke:#000000;stroke-width:0.8;" x="73.832727" xlink:href="#m7fc03a4591" y="307.584"/>
      </g>
     </g>
     <g id="text_1">
      <!-- 39000 -->
      <g transform="translate(57.926477 322.182437)scale(0.1 -0.1)">
       <defs>
        <path d="M 2597 2516 
Q 3050 2419 3304 2112 
Q 3559 1806 3559 1356 
Q 3559 666 3084 287 
Q 2609 -91 1734 -91 
Q 1441 -91 1130 -33 
Q 819 25 488 141 
L 488 750 
Q 750 597 1062 519 
Q 1375 441 1716 441 
Q 2309 441 2620 675 
Q 2931 909 2931 1356 
Q 2931 1769 2642 2001 
Q 2353 2234 1838 2234 
L 1294 2234 
L 1294 2753 
L 1863 2753 
Q 2328 2753 2575 2939 
Q 2822 3125 2822 3475 
Q 2822 3834 2567 4026 
Q 2313 4219 1838 4219 
Q 1578 4219 1281 4162 
Q 984 4106 628 3988 
L 628 4550 
Q 988 4650 1302 4700 
Q 1616 4750 1894 4750 
Q 2613 4750 3031 4423 
Q 3450 4097 3450 3541 
Q 3450 3153 3228 2886 
Q 3006 2619 2597 2516 
z
" id="DejaVuSans-33" transform="scale(0.015625)"/>
        <path d="M 703 97 
L 703 672 
Q 941 559 1184 500 
Q 1428 441 1663 441 
Q 2288 441 2617 861 
Q 2947 1281 2994 2138 
Q 2813 1869 2534 1725 
Q 2256 1581 1919 1581 
Q 1219 1581 811 2004 
Q 403 2428 403 3163 
Q 403 3881 828 4315 
Q 1253 4750 1959 4750 
Q 2769 4750 3195 4129 
Q 3622 3509 3622 2328 
Q 3622 1225 3098 567 
Q 2575 -91 1691 -91 
Q 1453 -91 1209 -44 
Q 966 3 703 97 
z
M 1959 2075 
Q 2384 2075 2632 2365 
Q 2881 2656 2881 3163 
Q 2881 3666 2632 3958 
Q 2384 4250 1959 4250 
Q 1534 4250 1286 3958 
Q 1038 3666 1038 3163 
Q 1038 2656 1286 2365 
Q 1534 2075 1959 2075 
z
" id="DejaVuSans-39" transform="scale(0.015625)"/>
        <path d="M 2034 4250 
Q 1547 4250 1301 3770 
Q 1056 3291 1056 2328 
Q 1056 1369 1301 889 
Q 1547 409 2034 409 
Q 2525 409 2770 889 
Q 3016 1369 3016 2328 
Q 3016 3291 2770 3770 
Q 2525 4250 2034 4250 
z
M 2034 4750 
Q 2819 4750 3233 4129 
Q 3647 3509 3647 2328 
Q 3647 1150 3233 529 
Q 2819 -91 2034 -91 
Q 1250 -91 836 529 
Q 422 1150 422 2328 
Q 422 3509 836 4129 
Q 1250 4750 2034 4750 
z
" id="DejaVuSans-30" transform="scale(0.015625)"/>
       </defs>
       <use xlink:href="#DejaVuSans-33"/>
       <use x="63.623047" xlink:href="#DejaVuSans-39"/>
       <use x="127.246094" xlink:href="#DejaVuSans-30"/>
       <use x="190.869141" xlink:href="#DejaVuSans-30"/>
       <use x="254.492188" xlink:href="#DejaVuSans-30"/>
      </g>
     </g>
    </g>
    <g id="xtick_2">
     <g id="line2d_2">
      <g>
       <use style="stroke:#000000;stroke-width:0.8;" x="123.082507" xlink:href="#m7fc03a4591" y="307.584"/>
      </g>
     </g>
     <g id="text_2">
      <!-- 39250 -->
      <g transform="translate(107.176257 322.182437)scale(0.1 -0.1)">
       <defs>
        <path d="M 1228 531 
L 3431 531 
L 3431 0 
L 469 0 
L 469 531 
Q 828 903 1448 1529 
Q 2069 2156 2228 2338 
Q 2531 2678 2651 2914 
Q 2772 3150 2772 3378 
Q 2772 3750 2511 3984 
Q 2250 4219 1831 4219 
Q 1534 4219 1204 4116 
Q 875 4013 500 3803 
L 500 4441 
Q 881 4594 1212 4672 
Q 1544 4750 1819 4750 
Q 2544 4750 2975 4387 
Q 3406 4025 3406 3419 
Q 3406 3131 3298 2873 
Q 3191 2616 2906 2266 
Q 2828 2175 2409 1742 
Q 1991 1309 1228 531 
z
" id="DejaVuSans-32" transform="scale(0.015625)"/>
        <path d="M 691 4666 
L 3169 4666 
L 3169 4134 
L 1269 4134 
L 1269 2991 
Q 1406 3038 1543 3061 
Q 1681 3084 1819 3084 
Q 2600 3084 3056 2656 
Q 3513 2228 3513 1497 
Q 3513 744 3044 326 
Q 2575 -91 1722 -91 
Q 1428 -91 1123 -41 
Q 819 9 494 109 
L 494 744 
Q 775 591 1075 516 
Q 1375 441 1709 441 
Q 2250 441 2565 725 
Q 2881 1009 2881 1497 
Q 2881 1984 2565 2268 
Q 2250 2553 1709 2553 
Q 1456 2553 1204 2497 
Q 953 2441 691 2322 
L 691 4666 
z
" id="DejaVuSans-35" transform="scale(0.015625)"/>
       </defs>
       <use xlink:href="#DejaVuSans-33"/>
       <use x="63.623047" xlink:href="#DejaVuSans-39"/>
       <use x="127.246094" xlink:href="#DejaVuSans-32"/>
       <use x="190.869141" xlink:href="#DejaVuSans-35"/>
       <use x="254.492188" xlink:href="#DejaVuSans-30"/>
      </g>
     </g>
    </g>
    <g id="xtick_3">
     <g id="line2d_3">
      <g>
       <use style="stroke:#000000;stroke-width:0.8;" x="172.332286" xlink:href="#m7fc03a4591" y="307.584"/>
      </g>
     </g>
     <g id="text_3">
      <!-- 39500 -->
      <g transform="translate(156.426036 322.182437)scale(0.1 -0.1)">
       <use xlink:href="#DejaVuSans-33"/>
       <use x="63.623047" xlink:href="#DejaVuSans-39"/>
       <use x="127.246094" xlink:href="#DejaVuSans-35"/>
       <use x="190.869141" xlink:href="#DejaVuSans-30"/>
       <use x="254.492188" xlink:href="#DejaVuSans-30"/>
      </g>
     </g>
    </g>
    <g id="xtick_4">
     <g id="line2d_4">
      <g>
       <use style="stroke:#000000;stroke-width:0.8;" x="221.582065" xlink:href="#m7fc03a4591" y="307.584"/>
      </g>
     </g>
     <g id="text_4">
      <!-- 39750 -->
      <g transform="translate(205.675815 322.182437)scale(0.1 -0.1)">
       <defs>
        <path d="M 525 4666 
L 3525 4666 
L 3525 4397 
L 1831 0 
L 1172 0 
L 2766 4134 
L 525 4134 
L 525 4666 
z
" id="DejaVuSans-37" transform="scale(0.015625)"/>
       </defs>
       <use xlink:href="#DejaVuSans-33"/>
       <use x="63.623047" xlink:href="#DejaVuSans-39"/>
       <use x="127.246094" xlink:href="#DejaVuSans-37"/>
       <use x="190.869141" xlink:href="#DejaVuSans-35"/>
       <use x="254.492188" xlink:href="#DejaVuSans-30"/>
      </g>
     </g>
    </g>
    <g id="xtick_5">
     <g id="line2d_5">
      <g>
       <use style="stroke:#000000;stroke-width:0.8;" x="270.831845" xlink:href="#m7fc03a4591" y="307.584"/>
      </g>
     </g>
     <g id="text_5">
      <!-- 40000 -->
      <g transform="translate(254.925595 322.182437)scale(0.1 -0.1)">
       <defs>
        <path d="M 2419 4116 
L 825 1625 
L 2419 1625 
L 2419 4116 
z
M 2253 4666 
L 3047 4666 
L 3047 1625 
L 3713 1625 
L 3713 1100 
L 3047 1100 
L 3047 0 
L 2419 0 
L 2419 1100 
L 313 1100 
L 313 1709 
L 2253 4666 
z
" id="DejaVuSans-34" transform="scale(0.015625)"/>
       </defs>
       <use xlink:href="#DejaVuSans-34"/>
       <use x="63.623047" xlink:href="#DejaVuSans-30"/>
       <use x="127.246094" xlink:href="#DejaVuSans-30"/>
       <use x="190.869141" xlink:href="#DejaVuSans-30"/>
       <use x="254.492188" xlink:href="#DejaVuSans-30"/>
      </g>
     </g>
    </g>
    <g id="xtick_6">
     <g id="line2d_6">
      <g>
       <use style="stroke:#000000;stroke-width:0.8;" x="320.081624" xlink:href="#m7fc03a4591" y="307.584"/>
      </g>
     </g>
     <g id="text_6">
      <!-- 40250 -->
      <g transform="translate(304.175374 322.182437)scale(0.1 -0.1)">
       <use xlink:href="#DejaVuSans-34"/>
       <use x="63.623047" xlink:href="#DejaVuSans-30"/>
       <use x="127.246094" xlink:href="#DejaVuSans-32"/>
       <use x="190.869141" xlink:href="#DejaVuSans-35"/>
       <use x="254.492188" xlink:href="#DejaVuSans-30"/>
      </g>
     </g>
    </g>
    <g id="xtick_7">
     <g id="line2d_7">
      <g>
       <use style="stroke:#000000;stroke-width:0.8;" x="369.331403" xlink:href="#m7fc03a4591" y="307.584"/>
      </g>
     </g>
     <g id="text_7">
      <!-- 40500 -->
      <g transform="translate(353.425153 322.182437)scale(0.1 -0.1)">
       <use xlink:href="#DejaVuSans-34"/>
       <use x="63.623047" xlink:href="#DejaVuSans-30"/>
       <use x="127.246094" xlink:href="#DejaVuSans-35"/>
       <use x="190.869141" xlink:href="#DejaVuSans-30"/>
       <use x="254.492188" xlink:href="#DejaVuSans-30"/>
      </g>
     </g>
    </g>
   </g>
   <g id="matplotlib.axis_2">
    <g id="ytick_1">
     <g id="line2d_8">
      <defs>
       <path d="M 0 0 
L -3.5 0 
" id="m9026d68219" style="stroke:#000000;stroke-width:0.8;"/>
      </defs>
      <g>
       <use style="stroke:#000000;stroke-width:0.8;" x="57.6" xlink:href="#m9026d68219" y="307.584"/>
      </g>
     </g>
     <g id="text_8">
      <!-- 0 -->
      <g transform="translate(44.2375 311.383219)scale(0.1 -0.1)">
       <use xlink:href="#DejaVuSans-30"/>
      </g>
     </g>
    </g>
    <g id="ytick_2">
     <g id="line2d_9">
      <g>
       <use style="stroke:#000000;stroke-width:0.8;" x="57.6" xlink:href="#m9026d68219" y="263.232"/>
      </g>
     </g>
     <g id="text_9">
      <!-- 2 -->
      <g transform="translate(44.2375 267.031219)scale(0.1 -0.1)">
       <use xlink:href="#DejaVuSans-32"/>
      </g>
     </g>
    </g>
    <g id="ytick_3">
     <g id="line2d_10">
      <g>
       <use style="stroke:#000000;stroke-width:0.8;" x="57.6" xlink:href="#m9026d68219" y="218.88"/>
      </g>
     </g>
     <g id="text_10">
      <!-- 4 -->
      <g transform="translate(44.2375 222.679219)scale(0.1 -0.1)">
       <use xlink:href="#DejaVuSans-34"/>
      </g>
     </g>
    </g>
    <g id="ytick_4">
     <g id="line2d_11">
      <g>
       <use style="stroke:#000000;stroke-width:0.8;" x="57.6" xlink:href="#m9026d68219" y="174.528"/>
      </g>
     </g>
     <g id="text_11">
      <!-- 6 -->
      <g transform="translate(44.2375 178.327219)scale(0.1 -0.1)">
       <defs>
        <path d="M 2113 2584 
Q 1688 2584 1439 2293 
Q 1191 2003 1191 1497 
Q 1191 994 1439 701 
Q 1688 409 2113 409 
Q 2538 409 2786 701 
Q 3034 994 3034 1497 
Q 3034 2003 2786 2293 
Q 2538 2584 2113 2584 
z
M 3366 4563 
L 3366 3988 
Q 3128 4100 2886 4159 
Q 2644 4219 2406 4219 
Q 1781 4219 1451 3797 
Q 1122 3375 1075 2522 
Q 1259 2794 1537 2939 
Q 1816 3084 2150 3084 
Q 2853 3084 3261 2657 
Q 3669 2231 3669 1497 
Q 3669 778 3244 343 
Q 2819 -91 2113 -91 
Q 1303 -91 875 529 
Q 447 1150 447 2328 
Q 447 3434 972 4092 
Q 1497 4750 2381 4750 
Q 2619 4750 2861 4703 
Q 3103 4656 3366 4563 
z
" id="DejaVuSans-36" transform="scale(0.015625)"/>
       </defs>
       <use xlink:href="#DejaVuSans-36"/>
      </g>
     </g>
    </g>
    <g id="ytick_5">
     <g id="line2d_12">
      <g>
       <use style="stroke:#000000;stroke-width:0.8;" x="57.6" xlink:href="#m9026d68219" y="130.176"/>
      </g>
     </g>
     <g id="text_12">
      <!-- 8 -->
      <g transform="translate(44.2375 133.975219)scale(0.1 -0.1)">
       <defs>
        <path d="M 2034 2216 
Q 1584 2216 1326 1975 
Q 1069 1734 1069 1313 
Q 1069 891 1326 650 
Q 1584 409 2034 409 
Q 2484 409 2743 651 
Q 3003 894 3003 1313 
Q 3003 1734 2745 1975 
Q 2488 2216 2034 2216 
z
M 1403 2484 
Q 997 2584 770 2862 
Q 544 3141 544 3541 
Q 544 4100 942 4425 
Q 1341 4750 2034 4750 
Q 2731 4750 3128 4425 
Q 3525 4100 3525 3541 
Q 3525 3141 3298 2862 
Q 3072 2584 2669 2484 
Q 3125 2378 3379 2068 
Q 3634 1759 3634 1313 
Q 3634 634 3220 271 
Q 2806 -91 2034 -91 
Q 1263 -91 848 271 
Q 434 634 434 1313 
Q 434 1759 690 2068 
Q 947 2378 1403 2484 
z
M 1172 3481 
Q 1172 3119 1398 2916 
Q 1625 2713 2034 2713 
Q 2441 2713 2670 2916 
Q 2900 3119 2900 3481 
Q 2900 3844 2670 4047 
Q 2441 4250 2034 4250 
Q 1625 4250 1398 4047 
Q 1172 3844 1172 3481 
z
" id="DejaVuSans-38" transform="scale(0.015625)"/>
       </defs>
       <use xlink:href="#DejaVuSans-38"/>
      </g>
     </g>
    </g>
    <g id="ytick_6">
     <g id="line2d_13">
      <g>
       <use style="stroke:#000000;stroke-width:0.8;" x="57.6" xlink:href="#m9026d68219" y="85.824"/>
      </g>
     </g>
     <g id="text_13">
      <!-- 10 -->
      <g transform="translate(37.875 89.623219)scale(0.1 -0.1)">
       <defs>
        <path d="M 794 531 
L 1825 531 
L 1825 4091 
L 703 3866 
L 703 4441 
L 1819 4666 
L 2450 4666 
L 2450 531 
L 3481 531 
L 3481 0 
L 794 0 
L 794 531 
z
" id="DejaVuSans-31" transform="scale(0.015625)"/>
       </defs>
       <use xlink:href="#DejaVuSans-31"/>
       <use x="63.623047" xlink:href="#DejaVuSans-30"/>
      </g>
     </g>
    </g>
    <g id="ytick_7">
     <g id="line2d_14">
      <g>
       <use style="stroke:#000000;stroke-width:0.8;" x="57.6" xlink:href="#m9026d68219" y="41.472"/>
      </g>
     </g>
     <g id="text_14">
      <!-- 12 -->
      <g transform="translate(37.875 45.271219)scale(0.1 -0.1)">
       <use xlink:href="#DejaVuSans-31"/>
       <use x="63.623047" xlink:href="#DejaVuSans-32"/>
      </g>
     </g>
    </g>
   </g>
   <g id="line2d_15">
    <path clip-path="url(#p77ee2ee694)" d="M 77.050305 -1 
L 77.181712 107.39875 
L 77.266655 -1 
M 77.50724 -1 
L 77.575711 75.178942 
L 77.601829 -1 
M 80.272529 -1 
L 80.530697 164.697762 
L 80.727696 235.275776 
L 80.875305 -1 
M 81.690029 -1 
L 81.909691 148.929844 
L 81.93998 -1 
M 84.065066 -1 
L 84.27368 169.473044 
L 84.307761 -1 
M 86.866116 -1 
L 87.031668 130.162104 
L 87.188875 -1 
M 89.497281 -1 
L 89.592657 31.681608 
L 89.622807 -1 
M 100.030461 -1 
L 100.03361 2.681049 
L 100.040817 -1 
M 102.770571 -1 
L 102.791598 25.191889 
L 102.837718 -1 
M 106.063107 -1 
L 106.140583 79.488988 
L 106.254636 -1 
M 106.420177 -1 
L 106.534581 80.079004 
L 106.649227 -1 
M 106.796529 -1 
L 106.928579 117.41208 
L 107.019557 -1 
M 107.479754 -1 
L 107.716575 216.724897 
L 107.856717 -1 
M 108.502605 -1 
L 108.504572 1.213462 
L 108.508937 -1 
M 108.813771 -1 
L 108.89857 72.821046 
L 109.005745 -1 
M 109.181839 -1 
L 109.292568 78.412018 
L 109.302091 -1 
M 110.852523 -1 
L 111.06556 117.702637 
L 111.15671 -1 
M 112.4425 -1 
L 112.444554 2.112499 
L 112.450724 -1 
M 113.069833 -1 
L 113.232551 93.644536 
L 113.238022 -1 
M 114.930024 -1 
L 115.005543 35.011402 
L 115.038508 -1 
M 115.356959 -1 
L 115.399541 48.413894 
L 115.402417 -1 
M 118.643081 -1 
L 118.945525 149.97382 
L 119.142524 186.431922 
L 119.216106 -1 
M 121.342307 -1 
L 121.703513 153.297723 
L 122.097511 243.337707 
L 122.316567 -1 
M 122.670037 -1 
L 122.688508 18.193298 
L 122.695298 -1 
M 125.655911 -1 
L 125.840494 152.738134 
L 125.858522 -1 
M 130.159048 -1 
L 130.174475 18.33414 
L 130.175605 -1 
M 160.825242 -1 
L 160.906337 69.27497 
L 160.94346 -1 
M 161.479415 -1 
L 161.497335 13.670198 
L 161.510868 -1 
M 161.865881 -1 
L 161.891333 28.506665 
L 161.899175 -1 
M 163.52451 -1 
L 163.664325 96.270982 
L 163.742273 -1 
M 164.225274 -1 
L 164.255322 30.147717 
L 164.263614 -1 
M 169.929199 -1 
L 170.165296 109.775903 
L 170.251693 -1 
M 170.51751 -1 
L 170.756293 144.150847 
L 170.862288 -1 
M 174.298633 -1 
L 174.302277 2.758551 
L 174.305996 -1 
M 179.407626 -1 
L 179.424254 6.161143 
L 179.425594 -1 
M 185.786964 -1 
L 185.925225 105.021137 
L 186.062823 -1 
M 186.188222 -1 
L 186.319223 89.850536 
L 186.39299 -1 
M 189.430837 -1 
L 189.471209 40.679821 
L 189.53985 -1 
M 193.125115 -1 
L 193.411192 125.614092 
L 193.214192 145.2306 
L 193.325313 -1 
M 195.964901 -1 
L 196.169179 140.958258 
L 196.203098 -1 
M 200.678792 -1 
L 200.700159 12.620005 
L 200.717441 -1 
M 201.184741 -1 
L 201.094157 47.516105 
L 201.205206 -1 
M 217.444445 -1 
L 217.445084 -0.106212 
L 217.445975 -1 
M 219.000899 -1 
L 219.021077 17.200128 
L 219.088717 -1 
M 220.156583 -1 
L 220.203071 91.361828 
L 220.227494 -1 
M 232.200846 -1 
L 232.220018 23.29164 
L 232.265736 -1 
M 232.792305 -1 
L 232.811015 18.419122 
L 232.812043 -1 
M 259.979214 -1 
L 259.996893 7.042755 
L 260.002374 -1 
M 264.089355 -1 
L 264.133875 42.726463 
L 264.173197 -1 
M 272.59117 -1 
L 272.604837 15.198438 
L 272.634693 -1 
M 272.95503 -1 
L 272.998835 24.92951 
L 273.044547 -1 
M 275.916221 -1 
L 275.953822 28.530786 
L 276.150821 93.272372 
L 275.953822 138.26022 
L 276.279622 -1 
M 289.346272 -1 
L 289.349762 3.738796 
L 289.546761 48.686303 
L 289.590844 -1 
M 299.921663 -1 
L 299.987714 60.909377 
L 300.04117 -1 
M 300.336986 -1 
L 300.381712 47.830104 
L 300.384842 -1 
M 315.119412 -1 
L 315.156646 36.412405 
L 315.190783 -1 
M 315.5174 -1 
L 315.550644 35.235678 
L 315.747643 120.735584 
L 315.749361 -1 
M 321.616171 -1 
L 321.854616 128.434987 
L 321.881042 -1 
M 323.178476 -1 
L 323.23361 82.509686 
L 323.350672 -1 
M 324.300014 -1 
L 324.415605 68.673396 
L 324.474758 -1 
M 324.885464 -1 
L 325.006602 63.30789 
L 325.061839 -1 
M 325.394755 -1 
L 325.4006 4.046902 
L 325.405578 -1 
M 325.766551 -1 
L 325.794598 31.317804 
L 325.802836 -1 
M 327.974471 -1 
L 328.158588 83.999684 
L 328.27711 -1 
M 328.651944 -1 
L 328.749585 61.55264 
L 328.80352 -1 
M 330.892773 -1 
L 330.916575 15.791304 
L 330.947439 -1 
M 331.870731 -1 
L 331.901571 20.945963 
L 332.09857 14.694939 
L 332.295569 128.486086 
L 332.392953 -1 
M 339.376478 -1 
L 339.584537 136.719942 
L 339.781536 11.258211 
L 339.978535 6.59954 
L 340.175534 132.454649 
L 340.372533 100.990968 
L 340.569532 167.673984 
L 340.766531 157.137874 
L 340.879296 -1 
M 341.074568 -1 
L 341.357529 187.68825 
L 341.485028 -1 
M 341.683391 -1 
L 341.751527 53.383938 
L 341.836574 -1 
M 342.297539 -1 
L 342.342524 38.824796 
L 342.408623 -1 
M 342.624474 -1 
L 342.736523 103.025034 
L 342.933522 98.329421 
L 342.949497 -1 
M 344.277883 -1 
L 344.312515 28.842365 
L 344.316255 -1 
M 350.387537 -1 
L 350.616487 153.966482 
L 350.727628 -1 
M 350.985203 -1 
L 351.010485 16.626091 
L 351.011516 -1 
M 356.317066 -1 
L 356.329462 14.599822 
L 356.344453 -1 
M 360.205731 -1 
L 360.269444 64.04615 
L 360.325225 -1 
M 363.694049 -1 
L 363.815428 79.932261 
L 364.013452 -1 
M 366.845373 -1 
L 366.967414 87.496562 
L 367.361412 149.609881 
L 367.379089 -1 
M 368.618806 -1 
L 368.937405 152.188544 
L 368.984281 -1 
M 369.490864 -1 
L 369.725402 110.074123 
L 369.922401 102.401576 
L 370.004241 -1 
M 379.533868 -1 
L 379.575357 44.026475 
L 379.61573 -1 
M 379.967881 -1 
L 380.166355 80.723827 
L 380.233983 -1 
M 380.940043 -1 
L 380.954351 18.409467 
L 381.15135 120.649746 
L 381.244229 -1 
M 381.500615 -1 
L 381.545349 39.064014 
L 381.551922 -1 
M 385.450406 -1 
L 385.68233 100.971708 
L 385.879329 155.79653 
L 386.053666 -1 
M 386.120703 -1 
L 386.470327 168.508432 
L 386.588762 -1 
M 389.284544 -1 
L 389.425313 41.773625 
L 389.495435 -1 
L 389.495435 -1 
" style="fill:none;stroke:#1f77b4;stroke-linecap:square;stroke-width:1.5;"/>
   </g>
   <g id="line2d_16">
    <path clip-path="url(#p77ee2ee694)" d="M 73.832727 288.781259 
L 74.029726 293.10573 
L 73.832727 293.10573 
L 74.226726 297.812791 
L 74.423725 293.10573 
L 74.620724 291.626843 
L 74.817723 291.626843 
L 75.014722 281.97314 
L 75.211721 280.663027 
L 75.40872 271.160207 
L 75.211721 271.160207 
L 75.605719 271.160207 
L 75.802718 269.404108 
L 75.999718 271.760115 
L 76.196717 289.170843 
L 76.393716 294.495487 
L 76.590715 294.495487 
L 76.787714 287.90207 
L 76.984713 287.127803 
L 77.181712 287.127803 
L 77.378711 287.90207 
L 77.575711 294.702743 
L 77.77271 297.393989 
L 77.969709 297.393989 
L 78.166708 299.740061 
L 78.560706 299.743956 
L 78.757705 291.06326 
L 78.954704 256.224223 
L 79.151703 251.792 
L 79.348703 251.792 
L 79.545702 256.224223 
L 79.742701 297.056886 
L 79.9397 297.056886 
L 80.136699 298.675105 
L 80.333698 298.675105 
L 80.530697 299.419162 
L 80.727696 299.574432 
L 80.924695 303.306722 
L 81.121695 299.574432 
L 81.318694 299.419162 
L 81.515693 300.578957 
L 81.712692 294.351199 
L 81.909691 296.618345 
L 82.10669 293.972744 
L 82.303689 293.183121 
L 82.500688 293.183121 
L 82.697688 293.972744 
L 83.091686 222.890025 
L 83.288685 263.812872 
L 83.485684 222.890025 
L 83.879682 269.632907 
L 84.076681 241.839395 
L 84.27368 241.839395 
L 84.47068 273.575487 
L 84.667679 273.575487 
L 84.864678 279.766334 
L 85.061677 279.766334 
L 85.258676 288.355922 
L 85.455675 288.355922 
L 85.652674 283.81099 
L 86.243672 283.81099 
L 86.440671 288.17221 
L 86.63767 296.851252 
L 86.834669 297.011391 
L 87.031668 297.502165 
L 87.228667 297.502165 
L 87.425666 297.011391 
L 87.622665 287.475309 
L 87.819665 287.475309 
L 88.016664 281.738915 
L 88.213663 287.475309 
L 88.410662 276.332471 
L 88.607661 276.078405 
L 88.80466 285.507183 
L 89.198658 285.507183 
L 89.395658 285.666989 
L 89.592657 287.467155 
L 89.789656 287.467155 
L 90.183654 280.482481 
L 90.380653 280.482481 
L 90.577652 288.236582 
L 90.97165 288.236582 
L 91.16865 271.160207 
L 91.562648 263.433188 
L 91.759647 267.008767 
L 91.956646 267.008767 
L 92.153645 246.66287 
L 92.350644 240.798549 
L 92.744643 240.798549 
L 92.941642 267.32988 
L 93.33564 267.32988 
L 93.532639 285.076076 
L 93.729638 285.076076 
L 93.926637 258.395951 
L 94.123636 278.740503 
L 94.320635 271.542982 
L 94.517635 277.790613 
L 94.714634 277.790613 
L 94.911633 273.682611 
L 95.305631 273.682611 
L 95.699629 289.559863 
L 95.896628 289.559863 
L 96.093628 294.613107 
L 96.290627 284.232575 
L 96.487626 284.473746 
L 96.684625 284.232575 
L 96.881624 266.232282 
L 97.275622 266.232282 
L 97.472621 272.09489 
L 97.66962 272.09489 
L 97.86662 248.027735 
L 98.063619 289.526601 
L 98.260618 283.493369 
L 98.457617 283.493369 
L 98.851615 294.578031 
L 99.048614 292.532287 
L 99.836611 292.532287 
L 100.03361 283.668969 
L 100.230609 297.481131 
L 100.427608 297.481131 
L 100.230609 297.481131 
L 100.624607 298.345979 
L 100.427608 298.345979 
L 100.821606 241.850385 
L 101.018605 251.701127 
L 101.412604 251.701127 
L 101.609603 253.096526 
L 101.806602 294.269522 
L 102.003601 277.019687 
L 102.2006 277.019687 
L 102.397599 290.434468 
L 102.2006 290.434468 
L 102.988597 290.434468 
L 103.185596 271.592889 
L 103.382595 270.585095 
L 103.579594 250.177734 
L 103.973592 250.177734 
L 104.170591 267.041387 
L 104.36759 271.160207 
L 104.56459 278.14446 
L 104.761589 278.14446 
L 105.155587 296.651992 
L 105.352586 291.5731 
L 105.549585 291.5731 
L 105.746584 233.880849 
L 106.337582 233.880849 
L 106.928579 298.831874 
L 107.125578 281.550388 
L 107.519576 281.550388 
L 107.716575 253.040149 
L 107.913575 286.148196 
L 108.307573 286.148196 
L 108.504572 289.569388 
L 108.701571 286.148196 
L 108.89857 289.569388 
L 109.292568 289.569388 
L 109.489568 263.100903 
L 109.686567 292.657791 
L 110.080565 292.657791 
L 109.883566 292.657791 
L 110.474563 257.926907 
L 110.671562 263.863941 
L 110.868561 263.863941 
L 111.26256 277.218409 
L 111.656558 286.773835 
L 112.050556 286.773835 
L 112.247555 289.071847 
L 112.444554 289.90544 
L 112.838553 289.90544 
L 113.035552 289.071847 
L 113.232551 247.519977 
L 113.42955 246.455374 
L 113.626549 246.376328 
L 113.823548 246.455374 
L 114.020547 231.173217 
L 114.217546 231.173217 
L 114.414545 266.784095 
L 114.611545 266.784095 
L 114.808544 267.882652 
L 114.611545 266.784095 
L 115.005543 267.882652 
L 115.399541 267.882652 
L 115.59654 289.950742 
L 115.793539 267.588076 
L 116.384537 267.588076 
L 116.581536 269.594188 
L 116.778535 263.049825 
L 116.975534 133.758614 
L 117.172533 133.758614 
L 117.369532 139.177105 
L 117.566531 139.177105 
L 117.76353 222.890025 
L 117.96053 223.621163 
L 118.157529 276.948441 
L 118.551527 295.669098 
L 118.748526 295.669098 
L 118.945525 288.933323 
L 119.142524 295.669098 
L 119.339523 288.001331 
L 119.536523 287.49888 
L 119.733522 285.431294 
L 119.930521 285.431294 
L 120.324519 273.019082 
L 120.521518 272.623209 
L 120.718517 273.019082 
L 120.521518 273.019082 
L 120.915516 273.019082 
L 121.112515 293.275233 
L 121.900512 293.326187 
L 122.097511 296.776741 
L 122.29451 296.776741 
L 122.885508 286.783677 
L 123.082507 285.163599 
L 123.279506 285.163599 
L 123.476505 282.272388 
L 123.673504 282.272388 
L 123.870503 290.819544 
L 124.067502 293.435427 
L 124.264501 290.819544 
L 124.4615 293.435427 
L 124.6585 277.305098 
L 124.855499 277.305098 
L 125.052498 288.752587 
L 125.446496 288.752587 
L 125.643495 289.29303 
L 125.840494 289.29303 
L 126.037493 277.743579 
L 126.234492 285.839893 
L 126.431492 270.394692 
L 126.628491 269.715092 
L 126.82549 269.715092 
L 127.022489 270.394692 
L 127.219488 270.394692 
L 127.416487 282.887004 
L 127.613486 282.887004 
L 127.810485 290.211302 
L 128.007485 282.887004 
L 127.613486 266.648683 
L 128.204484 264.177456 
L 128.401483 264.437641 
L 128.598482 264.177456 
L 128.795481 249.71693 
L 128.99248 249.71693 
L 129.189479 246.582161 
L 129.386478 246.582161 
L 129.583477 269.993109 
L 129.780477 269.993109 
L 129.977476 267.775162 
L 130.371474 267.775162 
L 130.568473 158.647729 
L 130.765472 273.67381 
L 131.35647 273.67381 
L 131.553469 280.194747 
L 131.750468 280.194747 
L 131.947467 278.790851 
L 132.144466 283.526446 
L 132.341465 278.790851 
L 132.735463 278.790851 
L 132.932462 159.906579 
L 133.04307 -1 
M 133.215853 -1 
L 133.326461 159.906579 
L 133.52346 189.156019 
L 133.720459 189.156019 
L 133.917458 196.454426 
L 134.114457 273.450194 
L 134.311456 279.046899 
L 134.705455 279.046899 
L 134.902454 253.208926 
L 135.296452 253.208926 
L 135.69045 292.469877 
L 135.887449 292.469877 
L 136.084448 277.85658 
L 136.675446 277.85658 
L 136.872445 278.968742 
L 137.266443 278.968742 
L 137.463442 279.989535 
L 137.660441 286.593634 
L 138.05444 286.593634 
L 138.251439 255.402528 
L 138.448438 255.402528 
L 138.645437 275.356512 
L 138.842436 279.7749 
L 139.039435 279.7749 
L 139.236434 275.356512 
L 139.433433 273.758953 
L 139.630432 243.03846 
L 139.827432 243.03846 
L 140.024431 273.758953 
L 140.22143 275.978439 
L 140.418429 295.226209 
L 140.812427 295.226209 
L 141.206425 276.907659 
L 141.600424 266.232282 
L 141.797423 266.232282 
L 141.994422 266.028411 
L 142.191421 266.232282 
L 142.38842 276.843394 
L 142.585419 277.754117 
L 142.782418 294.115907 
L 142.979417 294.115907 
L 143.176417 282.865994 
L 143.373416 294.115907 
L 143.767414 274.147518 
L 144.161412 274.147518 
L 144.358411 270.578745 
L 144.55541 270.578745 
L 144.75241 275.584977 
L 144.949409 275.584977 
L 145.146408 270.578745 
L 145.343407 290.648349 
L 145.540406 288.596433 
L 145.737405 268.571864 
L 145.934404 268.571864 
L 146.328402 251.298096 
L 146.9194 251.298096 
L 146.722401 190.50847 
L 147.116399 190.50847 
L 147.313398 165.852032 
L 147.423844 -1 
M 148.19102 -1 
L 148.298394 155.649138 
L 148.495393 155.649138 
L 148.692392 186.064502 
L 148.889391 186.064502 
L 149.08639 237.488203 
L 149.283389 251.792 
L 149.480388 253.236898 
L 149.677387 263.286272 
L 149.874387 263.286272 
L 150.071386 283.269349 
L 150.465384 283.269349 
L 150.662383 266.560511 
L 151.056381 266.560511 
L 151.45038 283.341272 
L 151.647379 283.341272 
L 152.041377 269.764166 
L 152.435375 264.062451 
L 152.632374 264.062451 
L 152.829373 265.934717 
L 153.026372 264.062451 
L 153.223372 264.062451 
L 153.420371 270.182392 
L 153.61737 272.142669 
L 153.814369 272.142669 
L 154.011368 274.890374 
L 154.208367 274.890374 
L 154.405366 254.16641 
L 154.602365 250.763091 
L 154.799365 141.72909 
L 155.193363 141.72909 
L 155.78436 236.708235 
L 156.178358 200.424896 
L 156.375357 221.846977 
L 156.572357 221.846977 
L 156.769356 218.376198 
L 156.966355 200.424896 
L 157.163354 193.696838 
L 157.360353 193.696838 
L 157.754351 247.694983 
L 157.95135 247.694983 
L 158.542348 237.269277 
L 158.14835 221.093907 
L 158.739347 221.093907 
L 158.936346 226.866155 
L 159.133345 226.866155 
L 159.330344 231.696823 
L 159.527343 231.696823 
L 159.724342 240.805392 
L 159.921342 240.805392 
L 160.118341 260.110429 
L 160.512339 265.199809 
L 160.709338 265.199809 
L 160.906337 280.436136 
L 161.300335 280.436136 
L 161.497335 267.466657 
L 161.694334 265.192347 
L 161.891333 261.612229 
L 162.088332 261.612229 
L 162.285331 242.137873 
L 162.48233 201.717048 
L 162.285331 177.734139 
L 162.679329 177.734139 
L 162.876328 201.717048 
L 163.073327 143.365156 
L 163.270327 214.627244 
L 163.467326 214.627244 
L 163.664325 251.287991 
L 164.255322 251.287991 
L 164.452321 264.569502 
L 164.64932 264.569502 
L 164.84632 265.441444 
L 165.043319 265.441444 
L 164.64932 263.732525 
L 165.240318 233.874693 
L 165.437317 209.240021 
L 165.634316 209.240021 
L 165.831315 233.095214 
L 166.028314 233.874693 
L 166.422312 255.732393 
L 166.619312 263.336615 
L 166.816311 281.121021 
L 167.01331 281.121021 
L 167.210309 273.786923 
L 167.407308 273.786923 
L 167.604307 271.835598 
L 167.801306 273.254686 
L 167.998305 271.835598 
L 168.195305 271.835598 
L 168.392304 279.832197 
L 168.589303 279.832197 
L 168.786302 282.776187 
L 168.983301 264.123706 
L 169.1803 259.806084 
L 169.377299 258.443125 
L 169.574298 259.806084 
L 169.771297 256.984816 
L 169.968297 261.335368 
L 170.165296 257.249621 
L 170.362295 261.246695 
L 171.150291 261.246695 
L 171.34729 264.739788 
L 171.544289 264.739788 
L 171.741289 267.246067 
L 171.938288 264.739788 
L 172.135287 264.739788 
L 172.332286 251.013214 
L 172.726284 213.040788 
L 172.923283 227.011084 
L 173.120282 227.011084 
L 173.317282 275.313788 
L 173.71128 275.313788 
L 173.908279 267.950167 
L 174.105278 266.380333 
L 174.302277 262.834866 
L 174.499276 262.538876 
L 174.893274 262.538876 
L 175.090274 256.071574 
L 175.287273 277.329058 
L 175.484272 277.329058 
L 175.681271 275.790987 
L 175.87827 243.003681 
L 176.075269 249.574031 
L 175.87827 249.574031 
L 176.272268 249.574031 
L 176.469267 254.161835 
L 176.863266 254.161835 
L 177.060265 263.600282 
L 177.257264 253.522504 
L 177.454263 253.522504 
L 177.651262 279.058232 
L 177.848261 279.058232 
L 178.04526 267.337099 
L 178.242259 270.124252 
L 178.439259 267.337099 
L 178.636258 259.418984 
L 178.833257 259.418984 
L 179.030256 271.916658 
L 179.621253 271.916658 
L 179.818252 269.842126 
L 180.015252 269.842126 
L 180.40925 274.168242 
L 180.606249 272.545356 
L 181.000247 272.545356 
L 181.197246 260.324287 
L 181.394245 256.831558 
L 181.788244 256.831558 
L 181.985243 198.802221 
L 182.182242 259.181495 
L 182.773239 259.181495 
L 182.970238 262.195391 
L 183.167237 228.41987 
L 183.364237 245.556424 
L 183.561236 245.556424 
L 183.758235 228.41987 
L 183.955234 228.41987 
L 184.546231 271.115449 
L 184.74323 271.115449 
L 184.940229 267.295366 
L 185.137229 267.295366 
L 185.925225 280.426857 
L 186.122224 276.930837 
L 186.319223 271.223007 
L 186.516222 270.311127 
L 186.713222 271.223007 
L 187.10722 271.223007 
L 187.304219 270.311127 
L 187.895216 270.298538 
L 188.092215 277.867508 
L 188.289214 278.282769 
L 188.486214 278.282769 
L 188.683213 277.867508 
L 188.880212 273.001924 
L 189.077211 271.223007 
L 189.471209 271.223007 
L 189.668208 264.197053 
L 189.865207 264.197053 
L 190.062207 262.521231 
L 189.865207 255.877269 
L 190.456205 255.877269 
L 190.653204 262.446903 
L 190.850203 262.524862 
L 191.047202 264.933134 
L 191.835199 264.933134 
L 192.032198 274.453023 
L 192.229197 274.453023 
L 192.426196 272.424838 
L 192.623195 272.424838 
L 192.820194 274.453023 
L 193.017193 285.156152 
L 193.214192 285.156152 
L 193.411192 289.183332 
L 193.214192 289.183332 
L 193.608191 285.156152 
L 193.80519 284.833664 
L 194.002189 232.665721 
L 194.199188 227.645341 
L 194.593186 227.645341 
L 194.987184 219.694026 
L 195.184184 262.296077 
L 195.381183 252.29346 
L 195.578182 252.29346 
L 196.169179 276.930837 
L 196.563177 276.930837 
L 196.957176 239.333592 
L 197.154175 227.655814 
L 197.351174 225.459852 
L 197.548173 227.655814 
L 197.745172 221.605814 
L 197.942171 227.655814 
L 198.13917 247.567112 
L 198.336169 252.129744 
L 198.730168 252.129744 
L 198.927167 251.169034 
L 199.124166 252.129744 
L 199.321165 254.86056 
L 199.518164 251.169034 
L 199.715163 251.169034 
L 199.912162 258.903693 
L 200.109162 260.228254 
L 200.306161 247.606939 
L 200.50316 253.810052 
L 200.700159 274.929929 
L 200.897158 270.159087 
L 201.094157 270.159087 
L 201.291156 274.929929 
L 201.094157 275.626223 
L 201.488155 270.159087 
L 201.685154 257.311425 
L 201.882154 257.311425 
L 202.276152 230.038457 
L 202.473151 245.556424 
L 202.67015 245.556424 
L 202.867149 254.69174 
L 203.064148 254.69174 
L 203.261147 258.309757 
L 203.458147 258.309757 
L 203.655146 249.396811 
L 203.852145 248.656336 
L 204.049144 249.396811 
L 204.246143 249.396811 
L 204.443142 273.458396 
L 204.640141 282.935467 
L 204.83714 282.935467 
L 205.034139 276.213474 
L 205.231139 289.562722 
L 205.625137 256.87649 
L 205.822136 268.324275 
L 206.019135 267.396098 
L 206.610132 267.396098 
L 206.807132 258.437441 
L 207.004131 258.437441 
L 207.20113 255.81165 
L 207.398129 255.81165 
L 207.595128 260.798516 
L 207.792127 271.609383 
L 207.989126 275.852306 
L 208.186125 275.852306 
L 208.383124 271.928861 
L 208.580124 271.609383 
L 208.777123 256.227753 
L 208.974122 253.229938 
L 209.171121 228.873316 
L 209.565119 228.873316 
L 209.762118 248.451821 
L 209.959117 248.451821 
L 210.156117 288.639262 
L 210.353116 288.639262 
L 210.550115 261.002788 
L 210.747114 260.317389 
L 210.944113 260.317389 
L 211.141112 255.607047 
L 211.338111 259.823646 
L 211.53511 259.823646 
L 211.732109 239.630133 
L 211.929109 259.823646 
L 212.126108 259.823646 
L 212.323107 274.157948 
L 212.520106 239.630133 
L 212.717105 274.157948 
L 212.914104 257.398823 
L 213.111103 257.398823 
L 213.308102 265.320191 
L 213.702101 265.320191 
L 213.8991 262.521231 
L 214.293098 281.977638 
L 214.490097 281.977638 
L 214.884095 259.474345 
L 215.081094 259.03321 
L 215.278094 259.03321 
L 215.081094 259.03321 
L 215.475093 266.243987 
L 215.672092 266.243987 
L 215.869091 270.106277 
L 216.06609 266.243987 
L 216.263089 266.243987 
L 216.460088 268.89991 
L 216.657087 273.632561 
L 216.854086 281.253 
L 217.051086 281.253 
L 217.248085 268.89991 
L 217.445084 278.297939 
L 217.642083 261.032885 
L 218.036081 261.032885 
L 218.23308 265.617335 
L 218.430079 237.054107 
L 218.627079 265.617335 
L 218.824078 225.842233 
L 219.021077 225.842233 
L 219.218076 252.186928 
L 219.809073 252.186928 
L 220.006072 254.86056 
L 220.400071 239.444771 
L 220.59707 246.935304 
L 220.794069 239.444771 
L 220.991068 220.017511 
L 221.188067 219.694026 
L 221.385066 220.017511 
L 221.582065 219.694026 
L 221.779064 219.694026 
L 221.582065 219.694026 
L 221.976064 235.867186 
L 222.173063 207.548207 
L 222.370062 235.867186 
L 222.567061 235.867186 
L 222.961059 253.229938 
L 223.158058 272.31893 
L 223.355057 272.31893 
L 223.552056 273.043365 
L 223.749056 273.043365 
L 223.946055 270.778769 
L 224.143054 275.27845 
L 224.340053 275.27845 
L 224.537052 272.413189 
L 224.734051 228.719703 
L 224.93105 272.413189 
L 224.734051 228.719703 
L 225.128049 222.890025 
L 225.719047 222.890025 
L 225.916046 226.592525 
L 225.719047 238.537262 
L 226.310044 238.537262 
L 226.507043 201.317358 
L 226.901041 201.317358 
L 227.098041 213.536586 
L 227.886037 213.536586 
L 228.083036 203.087835 
L 228.280035 256.503965 
L 228.477034 256.503965 
L 228.674034 203.087835 
L 228.871033 203.087835 
L 229.068032 166.153021 
L 229.265031 154.990648 
L 229.46203 166.153021 
L 229.659029 208.954036 
L 229.856028 222.890025 
L 230.053027 222.890025 
L 230.250026 239.170481 
L 231.038023 239.170481 
L 231.235022 256.032539 
L 231.432021 226.782186 
L 231.62902 219.694026 
L 231.826019 226.782186 
L 232.023019 226.782186 
L 232.220018 250.422243 
L 232.417017 258.162455 
L 232.614016 258.162455 
L 233.008014 292.910956 
L 233.205013 292.910956 
L 233.402012 263.241851 
L 233.599011 263.241851 
L 233.796011 257.997676 
L 234.190009 210.115601 
L 234.387008 200.35286 
L 234.584007 200.35286 
L 234.781006 210.115601 
L 234.978005 291.974419 
L 235.175004 291.974419 
L 235.372004 286.028301 
L 235.569003 220.650501 
L 235.766002 219.694026 
L 236.16 219.694026 
L 236.356999 220.650501 
L 236.553998 205.023247 
L 236.750997 229.589411 
L 236.947996 234.15132 
L 237.144996 246.575548 
L 237.538994 246.575548 
L 237.341995 227.332138 
L 237.735993 222.948609 
L 237.932992 222.948609 
L 238.129991 221.535259 
L 238.32699 222.948609 
L 238.523989 263.880495 
L 239.311986 263.880495 
L 239.508985 264.04999 
L 239.705984 264.04999 
L 239.902983 265.518892 
L 240.099982 265.518892 
L 240.296981 255.076245 
L 240.493981 265.518892 
L 239.902983 265.518892 
L 240.69098 255.076245 
L 240.887979 263.24054 
L 241.084978 291.945673 
L 241.281977 263.24054 
L 241.478976 253.838679 
L 242.069974 253.838679 
L 242.266973 255.313921 
L 243.054969 283.470037 
L 243.251968 276.930837 
L 243.448967 307.476444 
L 243.842966 271.259654 
L 244.039965 279.034298 
L 244.236964 271.259654 
L 244.630962 271.259654 
L 244.827961 269.926703 
L 245.02496 264.069038 
L 245.221959 248.978459 
L 245.418959 248.905349 
L 245.615958 248.978459 
L 245.812957 255.665142 
L 246.009956 255.665142 
L 246.206955 256.256705 
L 246.403954 256.256705 
L 246.797952 263.107669 
L 247.191951 249.004923 
L 247.38895 262.521231 
L 247.585949 262.521231 
L 247.979947 232.269492 
L 248.176946 262.521231 
L 248.373945 232.269492 
L 248.570944 232.269492 
L 248.767944 251.217501 
L 248.964943 256.300334 
L 249.161942 251.217501 
L 249.55594 258.796843 
L 249.752939 262.835825 
L 249.949938 258.796843 
L 250.146937 258.796843 
L 250.343936 235.200702 
L 250.540936 26.39232 
L 250.737935 26.39232 
L 250.84959 -1 
M 250.959968 -1 
L 251.328932 230.997143 
L 251.525931 230.997143 
L 251.72293 235.410915 
L 251.919929 235.410915 
L 252.116929 261.908122 
L 252.313928 253.806602 
L 252.510927 258.931521 
L 252.707926 253.806602 
L 252.904925 253.806602 
L 253.101924 246.277674 
L 253.298923 246.277674 
L 252.904925 232.171632 
L 253.495922 232.171632 
L 253.692921 272.452314 
L 253.889921 272.452314 
L 254.08692 272.607517 
L 254.283919 272.452314 
L 254.480918 233.115751 
L 254.677917 231.840474 
L 255.071915 231.840474 
L 255.268914 239.153679 
L 255.465914 239.153679 
L 255.662913 242.14572 
L 255.859912 239.153679 
L 256.056911 239.153679 
L 256.25391 244.061783 
L 256.450909 245.614454 
L 256.844907 245.614454 
L 257.041906 257.256568 
L 257.238906 257.256568 
L 257.435905 258.500506 
L 257.632904 264.552838 
L 258.223901 264.552838 
L 258.4209 251.792 
L 258.617899 257.682108 
L 259.011898 257.682108 
L 259.208897 258.247177 
L 259.405896 268.836386 
L 259.602895 258.247177 
L 259.996893 258.247177 
L 260.193892 256.811152 
L 259.996893 256.811152 
L 260.390891 243.384246 
L 260.78489 243.384246 
L 260.981889 268.373676 
L 261.178888 265.724092 
L 260.981889 265.724092 
L 261.375887 265.724092 
L 261.572886 247.671 
L 261.769885 240.904149 
L 262.163883 240.904149 
L 261.769885 247.642414 
L 262.360883 270.456434 
L 262.754881 235.910809 
L 263.148879 235.910809 
L 263.345878 273.926828 
L 263.542877 273.926828 
L 263.739876 275.018173 
L 263.936876 273.926828 
L 263.542877 275.018173 
L 263.936876 265.093971 
L 264.133875 271.474671 
L 264.330874 247.311741 
L 264.527873 271.474671 
L 264.724872 238.358115 
L 264.921871 271.474671 
L 266.300865 271.381816 
L 266.497864 258.567932 
L 266.694863 258.567932 
L 266.891862 256.533925 
L 267.088861 256.533925 
L 267.285861 266.790165 
L 267.48286 266.790165 
L 267.679859 278.837997 
L 267.876858 266.790165 
L 268.073857 278.837997 
L 268.270856 262.485707 
L 268.467855 270.534132 
L 268.664854 259.092721 
L 268.861853 270.534132 
L 269.058853 270.534132 
L 269.452851 258.072053 
L 269.64985 238.038765 
L 269.846849 238.038765 
L 270.043848 258.072053 
L 270.240847 256.396194 
L 270.437846 256.396194 
L 270.634846 268.5296 
L 270.831845 268.5296 
L 271.028844 256.396194 
L 271.225843 261.379641 
L 271.619841 261.379641 
L 271.81684 255.087946 
L 272.013839 261.379641 
L 272.210838 280.938003 
L 272.407838 281.869622 
L 272.604837 280.938003 
L 272.801836 280.767981 
L 272.998835 280.038819 
L 273.195834 280.038819 
L 273.392833 276.857987 
L 273.589832 302.044509 
L 273.786831 307.57697 
L 273.983831 307.57697 
L 274.377829 267.726486 
L 274.574828 266.713116 
L 274.771827 266.713116 
L 274.968826 267.726486 
L 275.165825 267.726486 
L 275.362824 266.713116 
L 275.559823 271.399262 
L 275.756823 290.900895 
L 275.953822 294.055814 
L 276.150821 290.900895 
L 275.953822 290.900895 
L 276.34782 262.385247 
L 276.544819 262.385247 
L 276.741818 244.061783 
L 276.938817 250.909867 
L 277.135816 261.750736 
L 277.332816 250.909867 
L 277.529815 250.909867 
L 277.726814 246.977469 
L 277.923813 226.1075 
L 278.120812 225.842233 
L 278.51481 225.842233 
L 278.711809 269.958231 
L 278.908808 51.9552 
L 279.105808 278.827066 
L 279.499806 244.848586 
L 279.696805 244.848586 
L 279.893804 260.671927 
L 280.090803 260.671927 
L 280.287802 268.595913 
L 280.484801 268.595913 
L 280.681801 271.691996 
L 280.8788 268.595913 
L 281.075799 260.68019 
L 281.666796 260.68019 
L 281.469797 267.659345 
L 281.863795 269.146475 
L 282.060794 269.146475 
L 282.257793 271.291966 
L 282.454793 269.146475 
L 282.651792 274.46051 
L 282.848791 267.137094 
L 283.04579 267.137094 
L 283.242789 288.982554 
L 283.439788 263.108322 
L 283.636787 271.223007 
L 283.833786 288.982554 
L 283.242789 271.223007 
L 284.030786 271.223007 
L 284.227785 294.359132 
L 284.621783 294.359132 
L 284.818782 280.309023 
L 285.409779 280.309023 
L 285.606778 278.912923 
L 285.803778 247.671 
L 286.000777 245.556424 
L 286.197776 247.671 
L 286.394775 247.671 
L 286.788773 268.541855 
L 286.985772 257.002812 
L 287.182771 257.002812 
L 286.591774 257.002812 
L 287.379771 239.951365 
L 287.57677 239.951365 
L 287.773769 264.875399 
L 287.970768 239.951365 
L 288.167767 240.462938 
L 288.364766 258.143002 
L 288.167767 258.143002 
L 288.561765 258.143002 
L 288.758764 276.562331 
L 289.546761 276.562331 
L 289.74376 276.068069 
L 289.940759 281.225344 
L 290.137758 276.068069 
L 290.334757 276.068069 
L 290.531756 257.002562 
L 290.728756 281.623191 
L 290.925755 281.623191 
L 291.122754 273.673844 
L 291.319753 273.673844 
L 291.516752 252.227745 
L 291.713751 254.117561 
L 291.91075 254.117561 
L 292.107749 200.943981 
L 292.304748 234.667148 
L 292.501748 234.667148 
L 292.698747 265.322999 
L 292.895746 271.158368 
L 293.092745 271.158368 
L 293.289744 272.306441 
L 293.486743 272.306441 
L 293.683742 271.359161 
L 293.880741 266.169106 
L 294.27474 266.169106 
L 294.471739 268.742564 
L 294.27474 279.911369 
L 294.668738 281.636882 
L 294.865737 290.101715 
L 295.062736 281.636882 
L 295.259735 278.045652 
L 295.456734 254.169113 
L 295.653733 254.169113 
L 295.850733 271.949399 
L 296.244731 271.949399 
L 296.44173 280.73563 
L 296.638729 261.94467 
L 297.032727 261.94467 
L 297.229726 265.74 
L 297.426726 265.74 
L 297.623725 285.113147 
L 297.820724 285.113147 
L 298.017723 271.879193 
L 298.214722 271.879193 
L 298.411721 269.377781 
L 298.60872 256.020671 
L 298.805719 256.020671 
L 299.002718 256.31541 
L 299.199718 271.949233 
L 299.396717 271.949233 
L 299.593716 261.335368 
L 299.987714 261.335368 
L 300.184713 259.686237 
L 300.578711 259.686237 
L 300.775711 228.892299 
L 300.97271 269.95185 
L 301.366708 269.95185 
L 301.563707 267.337099 
L 301.760706 255.382574 
L 302.548703 255.382574 
L 302.745702 270.352689 
L 302.942701 265.822859 
L 303.1397 254.144485 
L 303.336699 254.144485 
L 303.533698 251.192047 
L 303.730697 251.192047 
L 303.927696 268.683923 
L 304.124695 255.382574 
L 304.321695 262.135376 
L 303.730697 255.382574 
L 304.912692 255.382574 
L 305.109691 233.23752 
L 305.30669 255.382574 
L 305.503689 234.357 
L 305.700688 234.357 
L 305.897688 253.104136 
L 306.094687 259.111242 
L 306.488685 259.111242 
L 306.685684 261.441028 
L 306.882683 279.898213 
L 307.079682 261.441028 
L 307.276681 279.898213 
L 307.47368 272.389236 
L 307.67068 256.056645 
L 307.867679 266.183035 
L 308.064678 257.414027 
L 308.261677 266.183035 
L 308.064678 266.183035 
L 308.655675 277.181301 
L 309.049673 277.181301 
L 309.246673 290.283214 
L 309.443672 254.762876 
L 309.640671 271.160207 
L 309.83767 247.605051 
L 310.034669 240.538478 
L 310.231668 227.540724 
L 310.428667 241.98787 
L 310.627294 -1 
M 311.365135 -1 
L 311.413663 153.437467 
L 311.610662 194.774723 
L 311.807661 210.222223 
L 312.201659 259.02294 
L 312.398658 259.02294 
L 312.595658 274.734505 
L 312.792657 271.472055 
L 313.580653 271.472055 
L 313.777652 271.037669 
L 313.974651 251.255221 
L 314.565649 251.255221 
L 314.762648 236.855683 
L 314.959647 265.510478 
L 315.353645 279.624301 
L 315.550644 282.24773 
L 316.141642 282.24773 
L 316.338641 259.743137 
L 316.53564 258.078423 
L 317.126637 258.078423 
L 317.323636 250.610838 
L 317.520635 263.02898 
L 317.717635 267.037527 
L 317.914634 267.623053 
L 318.111633 271.685014 
L 318.70263 271.685014 
L 318.899629 277.659342 
L 318.70263 279.658665 
L 319.096628 279.658665 
L 319.293628 276.654981 
L 319.490627 259.076414 
L 319.687626 259.076414 
L 320.081624 252.426524 
L 320.278623 252.426524 
L 320.475622 253.733307 
L 320.672621 253.733307 
L 320.86962 255.395463 
L 321.460618 275.557605 
L 321.657617 275.557605 
L 321.854616 280.820832 
L 322.248614 255.382574 
L 322.642613 295.721523 
L 322.839612 295.721523 
L 323.036611 290.734328 
L 323.627608 267.720014 
L 323.824607 281.378675 
L 324.021606 283.957467 
L 324.218605 280.722793 
L 324.415605 280.722793 
L 324.612604 273.405585 
L 324.809603 273.405585 
L 325.006602 262.903119 
L 325.203601 258.865322 
L 325.4006 258.865322 
L 325.597599 276.871407 
L 325.794598 276.871407 
L 325.991598 280.215692 
L 326.385596 280.254299 
L 326.582595 257.309044 
L 326.779594 264.196472 
L 327.370591 264.196472 
L 327.56759 260.201167 
L 328.355587 260.201167 
L 328.552586 271.147084 
L 328.749585 271.147084 
L 328.946584 292.222116 
L 329.143583 271.147084 
L 329.340583 272.382819 
L 329.537582 279.113714 
L 330.128579 279.113714 
L 330.325578 273.913131 
L 330.522577 257.8341 
L 330.719576 254.786954 
L 330.916575 257.8341 
L 331.310574 257.8341 
L 331.507573 258.040885 
L 331.901571 258.040885 
L 332.09857 257.686864 
L 332.295569 258.040885 
L 332.492568 257.686864 
L 332.689568 280.144522 
L 332.886567 280.144522 
L 333.083566 281.774673 
L 333.280565 280.912485 
L 333.477564 281.774673 
L 333.674563 300.672939 
L 333.871562 300.672939 
L 334.068561 307.57697 
L 334.26556 295.869801 
L 335.250556 295.921291 
L 335.447555 295.4591 
L 335.644554 294.210667 
L 335.841553 294.210667 
L 336.235552 267.213685 
L 336.432551 267.213685 
L 336.62955 270.439909 
L 336.826549 270.439909 
L 337.023548 286.189796 
L 337.614545 286.189796 
L 337.811545 283.044902 
L 338.008544 283.044902 
L 338.205543 300.496001 
L 338.402542 301.960135 
L 338.599541 302.186596 
L 338.993539 302.186596 
L 339.190538 294.704292 
L 339.584537 294.704292 
L 339.781536 298.837827 
L 340.175534 298.837827 
L 340.372533 297.973387 
L 340.569532 292.086565 
L 340.766531 297.973387 
L 340.96353 287.903967 
L 341.16053 306.635396 
L 341.357529 298.904605 
L 341.554528 301.97635 
L 341.751527 298.904605 
L 341.948526 298.904605 
L 342.145525 290.596729 
L 342.342524 290.596729 
L 342.539523 276.582093 
L 342.933522 300.837846 
L 343.130521 300.837846 
L 343.32752 298.011932 
L 343.524519 298.011932 
L 343.721518 296.064878 
L 343.918517 279.53651 
L 344.115516 279.53651 
L 344.312515 294.602375 
L 344.509515 279.53651 
L 344.706514 294.602375 
L 344.903513 294.602375 
L 345.297511 268.757548 
L 345.691509 294.085656 
L 346.085508 294.085656 
L 346.282507 282.843765 
L 346.479506 260.491072 
L 346.676505 282.843765 
L 346.873504 257.283626 
L 347.070503 250.268203 
L 347.267502 250.268203 
L 347.464501 268.005871 
L 347.6615 268.005871 
L 347.8585 281.626893 
L 348.055499 281.626893 
L 348.252498 264.856615 
L 348.449497 262.44363 
L 348.646496 264.856615 
L 348.843495 264.856615 
L 349.040494 276.930837 
L 349.434492 276.930837 
L 349.828491 296.96753 
L 350.02549 298.676501 
L 350.222489 298.676501 
L 350.616487 301.57462 
L 350.813486 299.933777 
L 351.010485 301.57462 
L 351.207485 301.57462 
L 351.404484 273.442472 
L 351.601483 270.730229 
L 351.798482 270.730229 
L 351.995481 282.064783 
L 352.19248 282.064783 
L 352.783477 289.742696 
L 352.980477 289.742696 
L 353.177476 289.259708 
L 353.374475 285.984507 
L 353.571474 289.259708 
L 353.768473 285.984507 
L 353.965472 285.984507 
L 354.162471 281.258726 
L 354.35947 287.9928 
L 354.55647 287.9928 
L 354.753469 291.939413 
L 355.147467 281.326728 
L 355.344466 278.524406 
L 355.935463 278.524406 
L 356.132462 279.01957 
L 356.329462 291.085065 
L 356.526461 294.334676 
L 357.117458 294.334676 
L 357.314457 292.705864 
L 357.511456 266.619145 
L 357.708455 266.619145 
L 357.905455 265.899537 
L 358.299453 265.899537 
L 358.496452 254.905389 
L 358.693451 254.830128 
L 359.087449 254.905389 
L 359.284448 272.43504 
L 359.481447 274.936428 
L 359.678447 279.83657 
L 359.875446 279.83657 
L 360.072445 280.167431 
L 360.269444 288.695331 
L 360.466443 288.695331 
L 360.663442 295.546783 
L 360.860441 288.695331 
L 361.05744 288.695331 
L 361.25444 291.282314 
L 361.451439 291.989698 
L 361.648438 291.282314 
L 361.845437 291.989698 
L 362.042436 297.005902 
L 362.239435 297.005902 
L 362.436434 297.514093 
L 362.633433 294.763568 
L 362.830432 293.88417 
L 363.027432 283.39795 
L 363.224431 283.39795 
L 363.42143 282.412189 
L 363.618429 271.594918 
L 363.815428 271.594918 
L 364.012427 267.629941 
L 364.209426 269.066619 
L 364.406425 266.590052 
L 364.603425 269.066619 
L 364.800424 269.066619 
L 364.997423 266.590052 
L 365.194422 266.590052 
L 365.391421 277.693879 
L 365.58842 279.805212 
L 365.785419 286.399247 
L 366.179417 285.962105 
L 366.376417 292.039537 
L 366.573416 285.962105 
L 366.770415 285.962105 
L 367.164413 297.276767 
L 367.558411 297.276767 
L 367.75541 295.79417 
L 367.95241 295.501207 
L 368.346408 295.501207 
L 368.543407 301.676436 
L 368.740406 301.676436 
L 368.937405 293.326383 
L 369.134404 293.326383 
L 369.331403 283.882861 
L 369.528402 283.882861 
L 369.725402 285.859958 
L 369.922401 277.141738 
L 370.513398 277.141738 
L 370.710397 279.974345 
L 370.907396 293.397412 
L 371.104395 293.397412 
L 371.301395 298.766792 
L 371.498394 298.766792 
L 371.695393 273.437254 
L 371.892392 271.295616 
L 372.089391 271.295616 
L 372.28639 237.982099 
L 372.483389 237.147822 
L 372.680388 237.147822 
L 372.877387 245.715041 
L 373.074387 245.715041 
L 373.665384 280.682982 
L 373.862383 276.450118 
L 374.059382 258.013204 
L 374.256381 294.672154 
L 374.45338 268.772772 
L 374.65038 268.772772 
L 374.847379 282.847925 
L 375.044378 282.847925 
L 375.241377 280.956 
L 375.832374 280.956 
L 376.029373 279.7888 
L 376.226372 276.930837 
L 376.423372 279.7888 
L 376.620371 285.23443 
L 377.211368 285.23443 
L 377.605366 250.000712 
L 377.999365 250.000712 
L 378.196364 256.503361 
L 378.393363 256.503361 
L 378.590362 291.629071 
L 378.787361 291.629071 
L 378.98436 298.43099 
L 379.181359 298.43099 
L 379.378358 286.662 
L 379.575357 283.356881 
L 379.772357 264.383058 
L 379.969356 263.864445 
L 380.166355 256.396194 
L 380.363354 256.396194 
L 380.560353 279.762581 
L 380.757352 279.762581 
L 381.15135 298.741494 
L 381.34835 298.741494 
L 381.545349 293.925078 
L 381.742348 293.925078 
L 381.939347 270.327507 
L 382.136346 276.162088 
L 382.530344 276.162088 
L 382.727343 282.851873 
L 383.318341 282.820095 
L 383.51534 280.953742 
L 383.712339 264.627908 
L 383.909338 264.627908 
L 384.106337 274.534086 
L 384.303336 265.126766 
L 384.500335 265.126766 
L 384.697335 262.209911 
L 384.894334 262.209911 
L 385.091333 259.743753 
L 385.288332 259.743753 
L 385.485331 270.287379 
L 385.68233 270.287379 
L 385.879329 267.396229 
L 386.273327 267.396229 
L 386.470327 271.618771 
L 386.667326 271.618771 
L 386.864325 282.529682 
L 387.061324 277.507241 
L 387.455322 277.507241 
L 387.652321 290.537637 
L 387.84932 290.537637 
L 388.04632 295.098188 
L 388.243319 295.098188 
L 388.440318 279.611152 
L 388.637317 276.441497 
L 388.834316 276.441497 
L 389.031315 287.041989 
L 389.228314 287.041989 
L 389.425313 260.770473 
L 389.622312 260.770473 
L 389.819312 256.396194 
L 390.016311 260.770473 
L 390.410309 284.176789 
L 390.607308 285.483076 
L 390.804307 285.483076 
L 391.001306 284.176789 
L 391.198305 279.216722 
L 391.592304 279.216722 
L 391.986302 289.269298 
L 392.183301 284.876768 
L 392.3803 286.789286 
L 392.774298 286.789286 
L 392.971297 286.973777 
L 393.168297 286.973777 
L 393.365296 290.373192 
L 393.562295 290.373192 
L 393.759294 286.821448 
L 393.956293 273.704439 
L 394.54729 273.704439 
L 394.744289 259.73766 
L 394.941289 287.989268 
L 395.532286 287.989268 
L 395.729285 262.293295 
L 396.320282 262.293295 
L 396.517282 233.87035 
L 396.714281 233.87035 
L 396.91128 246.867576 
L 397.108279 246.867576 
L 397.502277 254.348086 
L 397.699276 274.63185 
L 398.093274 274.63185 
L 398.487273 297.934911 
L 398.487273 297.934911 
" style="fill:none;stroke:#ff7f0e;stroke-linecap:square;stroke-width:1.5;"/>
   </g>
   <g id="patch_3">
    <path d="M 57.6 307.584 
L 57.6 41.472 
" style="fill:none;stroke:#000000;stroke-linecap:square;stroke-linejoin:miter;stroke-width:0.8;"/>
   </g>
   <g id="patch_4">
    <path d="M 414.72 307.584 
L 414.72 41.472 
" style="fill:none;stroke:#000000;stroke-linecap:square;stroke-linejoin:miter;stroke-width:0.8;"/>
   </g>
   <g id="patch_5">
    <path d="M 57.6 307.584 
L 414.72 307.584 
" style="fill:none;stroke:#000000;stroke-linecap:square;stroke-linejoin:miter;stroke-width:0.8;"/>
   </g>
   <g id="patch_6">
    <path d="M 57.6 41.472 
L 414.72 41.472 
" style="fill:none;stroke:#000000;stroke-linecap:square;stroke-linejoin:miter;stroke-width:0.8;"/>
   </g>
  </g>
 </g>
 <defs>
  <clipPath id="p77ee2ee694">
   <rect height="266.112" width="357.12" x="57.6" y="41.472"/>
  </clipPath>
 </defs>
</svg>
