<?xml version="1.0" encoding="utf-8" standalone="no"?>
<!DOCTYPE svg PUBLIC "-//W3C//DTD SVG 1.1//EN"
  "http://www.w3.org/Graphics/SVG/1.1/DTD/svg11.dtd">
<svg height="720pt" version="1.1" viewBox="0 0 1440 720" width="1440pt" xmlns="http://www.w3.org/2000/svg" xmlns:xlink="http://www.w3.org/1999/xlink">
 <metadata>
  <rdf:RDF xmlns:cc="http://creativecommons.org/ns#" xmlns:dc="http://purl.org/dc/elements/1.1/" xmlns:rdf="http://www.w3.org/1999/02/22-rdf-syntax-ns#">
   <cc:Work>
    <dc:type rdf:resource="http://purl.org/dc/dcmitype/StillImage"/>
    <dc:date>2022-01-06T21:34:55.541615</dc:date>
    <dc:format>image/svg+xml</dc:format>
    <dc:creator>
     <cc:Agent>
      <dc:title>Matplotlib v3.4.3, https://matplotlib.org/</dc:title>
     </cc:Agent>
    </dc:creator>
   </cc:Work>
  </rdf:RDF>
 </metadata>
 <defs>
  <style type="text/css">*{stroke-linecap:butt;stroke-linejoin:round;}</style>
 </defs>
 <g id="figure_1">
  <g id="patch_1">
   <path d="M 0 720 
L 1440 720 
L 1440 0 
L 0 0 
z
" style="fill:#ffffff;"/>
  </g>
  <g id="axes_1">
   <g id="patch_2">
    <path d="M 180 640.8 
L 1296 640.8 
L 1296 86.4 
L 180 86.4 
z
" style="fill:#ffffff;"/>
   </g>
   <g id="matplotlib.axis_1">
    <g id="xtick_1">
     <g id="line2d_1">
      <defs>
       <path d="M 0 0 
L 0 3.5 
" id="mffad8e4cf1" style="stroke:#000000;stroke-width:0.8;"/>
      </defs>
      <g>
       <use style="stroke:#000000;stroke-width:0.8;" x="230.727273" xlink:href="#mffad8e4cf1" y="640.8"/>
      </g>
     </g>
     <g id="text_1">
      <!-- 39000 -->
      <g transform="translate(214.821023 655.398438)scale(0.1 -0.1)">
       <defs>
        <path d="M 2597 2516 
Q 3050 2419 3304 2112 
Q 3559 1806 3559 1356 
Q 3559 666 3084 287 
Q 2609 -91 1734 -91 
Q 1441 -91 1130 -33 
Q 819 25 488 141 
L 488 750 
Q 750 597 1062 519 
Q 1375 441 1716 441 
Q 2309 441 2620 675 
Q 2931 909 2931 1356 
Q 2931 1769 2642 2001 
Q 2353 2234 1838 2234 
L 1294 2234 
L 1294 2753 
L 1863 2753 
Q 2328 2753 2575 2939 
Q 2822 3125 2822 3475 
Q 2822 3834 2567 4026 
Q 2313 4219 1838 4219 
Q 1578 4219 1281 4162 
Q 984 4106 628 3988 
L 628 4550 
Q 988 4650 1302 4700 
Q 1616 4750 1894 4750 
Q 2613 4750 3031 4423 
Q 3450 4097 3450 3541 
Q 3450 3153 3228 2886 
Q 3006 2619 2597 2516 
z
" id="DejaVuSans-33" transform="scale(0.015625)"/>
        <path d="M 703 97 
L 703 672 
Q 941 559 1184 500 
Q 1428 441 1663 441 
Q 2288 441 2617 861 
Q 2947 1281 2994 2138 
Q 2813 1869 2534 1725 
Q 2256 1581 1919 1581 
Q 1219 1581 811 2004 
Q 403 2428 403 3163 
Q 403 3881 828 4315 
Q 1253 4750 1959 4750 
Q 2769 4750 3195 4129 
Q 3622 3509 3622 2328 
Q 3622 1225 3098 567 
Q 2575 -91 1691 -91 
Q 1453 -91 1209 -44 
Q 966 3 703 97 
z
M 1959 2075 
Q 2384 2075 2632 2365 
Q 2881 2656 2881 3163 
Q 2881 3666 2632 3958 
Q 2384 4250 1959 4250 
Q 1534 4250 1286 3958 
Q 1038 3666 1038 3163 
Q 1038 2656 1286 2365 
Q 1534 2075 1959 2075 
z
" id="DejaVuSans-39" transform="scale(0.015625)"/>
        <path d="M 2034 4250 
Q 1547 4250 1301 3770 
Q 1056 3291 1056 2328 
Q 1056 1369 1301 889 
Q 1547 409 2034 409 
Q 2525 409 2770 889 
Q 3016 1369 3016 2328 
Q 3016 3291 2770 3770 
Q 2525 4250 2034 4250 
z
M 2034 4750 
Q 2819 4750 3233 4129 
Q 3647 3509 3647 2328 
Q 3647 1150 3233 529 
Q 2819 -91 2034 -91 
Q 1250 -91 836 529 
Q 422 1150 422 2328 
Q 422 3509 836 4129 
Q 1250 4750 2034 4750 
z
" id="DejaVuSans-30" transform="scale(0.015625)"/>
       </defs>
       <use xlink:href="#DejaVuSans-33"/>
       <use x="63.623047" xlink:href="#DejaVuSans-39"/>
       <use x="127.246094" xlink:href="#DejaVuSans-30"/>
       <use x="190.869141" xlink:href="#DejaVuSans-30"/>
       <use x="254.492188" xlink:href="#DejaVuSans-30"/>
      </g>
     </g>
    </g>
    <g id="xtick_2">
     <g id="line2d_2">
      <g>
       <use style="stroke:#000000;stroke-width:0.8;" x="384.632833" xlink:href="#mffad8e4cf1" y="640.8"/>
      </g>
     </g>
     <g id="text_2">
      <!-- 39250 -->
      <g transform="translate(368.726583 655.398438)scale(0.1 -0.1)">
       <defs>
        <path d="M 1228 531 
L 3431 531 
L 3431 0 
L 469 0 
L 469 531 
Q 828 903 1448 1529 
Q 2069 2156 2228 2338 
Q 2531 2678 2651 2914 
Q 2772 3150 2772 3378 
Q 2772 3750 2511 3984 
Q 2250 4219 1831 4219 
Q 1534 4219 1204 4116 
Q 875 4013 500 3803 
L 500 4441 
Q 881 4594 1212 4672 
Q 1544 4750 1819 4750 
Q 2544 4750 2975 4387 
Q 3406 4025 3406 3419 
Q 3406 3131 3298 2873 
Q 3191 2616 2906 2266 
Q 2828 2175 2409 1742 
Q 1991 1309 1228 531 
z
" id="DejaVuSans-32" transform="scale(0.015625)"/>
        <path d="M 691 4666 
L 3169 4666 
L 3169 4134 
L 1269 4134 
L 1269 2991 
Q 1406 3038 1543 3061 
Q 1681 3084 1819 3084 
Q 2600 3084 3056 2656 
Q 3513 2228 3513 1497 
Q 3513 744 3044 326 
Q 2575 -91 1722 -91 
Q 1428 -91 1123 -41 
Q 819 9 494 109 
L 494 744 
Q 775 591 1075 516 
Q 1375 441 1709 441 
Q 2250 441 2565 725 
Q 2881 1009 2881 1497 
Q 2881 1984 2565 2268 
Q 2250 2553 1709 2553 
Q 1456 2553 1204 2497 
Q 953 2441 691 2322 
L 691 4666 
z
" id="DejaVuSans-35" transform="scale(0.015625)"/>
       </defs>
       <use xlink:href="#DejaVuSans-33"/>
       <use x="63.623047" xlink:href="#DejaVuSans-39"/>
       <use x="127.246094" xlink:href="#DejaVuSans-32"/>
       <use x="190.869141" xlink:href="#DejaVuSans-35"/>
       <use x="254.492188" xlink:href="#DejaVuSans-30"/>
      </g>
     </g>
    </g>
    <g id="xtick_3">
     <g id="line2d_3">
      <g>
       <use style="stroke:#000000;stroke-width:0.8;" x="538.538394" xlink:href="#mffad8e4cf1" y="640.8"/>
      </g>
     </g>
     <g id="text_3">
      <!-- 39500 -->
      <g transform="translate(522.632144 655.398438)scale(0.1 -0.1)">
       <use xlink:href="#DejaVuSans-33"/>
       <use x="63.623047" xlink:href="#DejaVuSans-39"/>
       <use x="127.246094" xlink:href="#DejaVuSans-35"/>
       <use x="190.869141" xlink:href="#DejaVuSans-30"/>
       <use x="254.492188" xlink:href="#DejaVuSans-30"/>
      </g>
     </g>
    </g>
    <g id="xtick_4">
     <g id="line2d_4">
      <g>
       <use style="stroke:#000000;stroke-width:0.8;" x="692.443954" xlink:href="#mffad8e4cf1" y="640.8"/>
      </g>
     </g>
     <g id="text_4">
      <!-- 39750 -->
      <g transform="translate(676.537704 655.398438)scale(0.1 -0.1)">
       <defs>
        <path d="M 525 4666 
L 3525 4666 
L 3525 4397 
L 1831 0 
L 1172 0 
L 2766 4134 
L 525 4134 
L 525 4666 
z
" id="DejaVuSans-37" transform="scale(0.015625)"/>
       </defs>
       <use xlink:href="#DejaVuSans-33"/>
       <use x="63.623047" xlink:href="#DejaVuSans-39"/>
       <use x="127.246094" xlink:href="#DejaVuSans-37"/>
       <use x="190.869141" xlink:href="#DejaVuSans-35"/>
       <use x="254.492188" xlink:href="#DejaVuSans-30"/>
      </g>
     </g>
    </g>
    <g id="xtick_5">
     <g id="line2d_5">
      <g>
       <use style="stroke:#000000;stroke-width:0.8;" x="846.349515" xlink:href="#mffad8e4cf1" y="640.8"/>
      </g>
     </g>
     <g id="text_5">
      <!-- 40000 -->
      <g transform="translate(830.443265 655.398438)scale(0.1 -0.1)">
       <defs>
        <path d="M 2419 4116 
L 825 1625 
L 2419 1625 
L 2419 4116 
z
M 2253 4666 
L 3047 4666 
L 3047 1625 
L 3713 1625 
L 3713 1100 
L 3047 1100 
L 3047 0 
L 2419 0 
L 2419 1100 
L 313 1100 
L 313 1709 
L 2253 4666 
z
" id="DejaVuSans-34" transform="scale(0.015625)"/>
       </defs>
       <use xlink:href="#DejaVuSans-34"/>
       <use x="63.623047" xlink:href="#DejaVuSans-30"/>
       <use x="127.246094" xlink:href="#DejaVuSans-30"/>
       <use x="190.869141" xlink:href="#DejaVuSans-30"/>
       <use x="254.492188" xlink:href="#DejaVuSans-30"/>
      </g>
     </g>
    </g>
    <g id="xtick_6">
     <g id="line2d_6">
      <g>
       <use style="stroke:#000000;stroke-width:0.8;" x="1000.255075" xlink:href="#mffad8e4cf1" y="640.8"/>
      </g>
     </g>
     <g id="text_6">
      <!-- 40250 -->
      <g transform="translate(984.348825 655.398438)scale(0.1 -0.1)">
       <use xlink:href="#DejaVuSans-34"/>
       <use x="63.623047" xlink:href="#DejaVuSans-30"/>
       <use x="127.246094" xlink:href="#DejaVuSans-32"/>
       <use x="190.869141" xlink:href="#DejaVuSans-35"/>
       <use x="254.492188" xlink:href="#DejaVuSans-30"/>
      </g>
     </g>
    </g>
    <g id="xtick_7">
     <g id="line2d_7">
      <g>
       <use style="stroke:#000000;stroke-width:0.8;" x="1154.160635" xlink:href="#mffad8e4cf1" y="640.8"/>
      </g>
     </g>
     <g id="text_7">
      <!-- 40500 -->
      <g transform="translate(1138.254385 655.398438)scale(0.1 -0.1)">
       <use xlink:href="#DejaVuSans-34"/>
       <use x="63.623047" xlink:href="#DejaVuSans-30"/>
       <use x="127.246094" xlink:href="#DejaVuSans-35"/>
       <use x="190.869141" xlink:href="#DejaVuSans-30"/>
       <use x="254.492188" xlink:href="#DejaVuSans-30"/>
      </g>
     </g>
    </g>
   </g>
   <g id="matplotlib.axis_2">
    <g id="ytick_1">
     <g id="line2d_8">
      <defs>
       <path d="M 0 0 
L -3.5 0 
" id="m9ea98947d9" style="stroke:#000000;stroke-width:0.8;"/>
      </defs>
      <g>
       <use style="stroke:#000000;stroke-width:0.8;" x="180" xlink:href="#m9ea98947d9" y="578.29401"/>
      </g>
     </g>
     <g id="text_8">
      <!-- −3 -->
      <g transform="translate(158.257812 582.093229)scale(0.1 -0.1)">
       <defs>
        <path d="M 678 2272 
L 4684 2272 
L 4684 1741 
L 678 1741 
L 678 2272 
z
" id="DejaVuSans-2212" transform="scale(0.015625)"/>
       </defs>
       <use xlink:href="#DejaVuSans-2212"/>
       <use x="83.789062" xlink:href="#DejaVuSans-33"/>
      </g>
     </g>
    </g>
    <g id="ytick_2">
     <g id="line2d_9">
      <g>
       <use style="stroke:#000000;stroke-width:0.8;" x="180" xlink:href="#m9ea98947d9" y="503.523628"/>
      </g>
     </g>
     <g id="text_9">
      <!-- −2 -->
      <g transform="translate(158.257812 507.322847)scale(0.1 -0.1)">
       <use xlink:href="#DejaVuSans-2212"/>
       <use x="83.789062" xlink:href="#DejaVuSans-32"/>
      </g>
     </g>
    </g>
    <g id="ytick_3">
     <g id="line2d_10">
      <g>
       <use style="stroke:#000000;stroke-width:0.8;" x="180" xlink:href="#m9ea98947d9" y="428.753246"/>
      </g>
     </g>
     <g id="text_10">
      <!-- −1 -->
      <g transform="translate(158.257812 432.552465)scale(0.1 -0.1)">
       <defs>
        <path d="M 794 531 
L 1825 531 
L 1825 4091 
L 703 3866 
L 703 4441 
L 1819 4666 
L 2450 4666 
L 2450 531 
L 3481 531 
L 3481 0 
L 794 0 
L 794 531 
z
" id="DejaVuSans-31" transform="scale(0.015625)"/>
       </defs>
       <use xlink:href="#DejaVuSans-2212"/>
       <use x="83.789062" xlink:href="#DejaVuSans-31"/>
      </g>
     </g>
    </g>
    <g id="ytick_4">
     <g id="line2d_11">
      <g>
       <use style="stroke:#000000;stroke-width:0.8;" x="180" xlink:href="#m9ea98947d9" y="353.982864"/>
      </g>
     </g>
     <g id="text_11">
      <!-- 0 -->
      <g transform="translate(166.6375 357.782083)scale(0.1 -0.1)">
       <use xlink:href="#DejaVuSans-30"/>
      </g>
     </g>
    </g>
    <g id="ytick_5">
     <g id="line2d_12">
      <g>
       <use style="stroke:#000000;stroke-width:0.8;" x="180" xlink:href="#m9ea98947d9" y="279.212482"/>
      </g>
     </g>
     <g id="text_12">
      <!-- 1 -->
      <g transform="translate(166.6375 283.011701)scale(0.1 -0.1)">
       <use xlink:href="#DejaVuSans-31"/>
      </g>
     </g>
    </g>
    <g id="ytick_6">
     <g id="line2d_13">
      <g>
       <use style="stroke:#000000;stroke-width:0.8;" x="180" xlink:href="#m9ea98947d9" y="204.4421"/>
      </g>
     </g>
     <g id="text_13">
      <!-- 2 -->
      <g transform="translate(166.6375 208.241319)scale(0.1 -0.1)">
       <use xlink:href="#DejaVuSans-32"/>
      </g>
     </g>
    </g>
    <g id="ytick_7">
     <g id="line2d_14">
      <g>
       <use style="stroke:#000000;stroke-width:0.8;" x="180" xlink:href="#m9ea98947d9" y="129.671718"/>
      </g>
     </g>
     <g id="text_14">
      <!-- 3 -->
      <g transform="translate(166.6375 133.470937)scale(0.1 -0.1)">
       <use xlink:href="#DejaVuSans-33"/>
      </g>
     </g>
    </g>
   </g>
   <g id="line2d_15">
    <path clip-path="url(#p5ee4a18498)" d="M 230.727273 359.341062 
L 231.342895 367.827836 
L 230.727273 367.827836 
L 231.958517 380.596254 
L 232.574139 367.827836 
L 233.189762 364.669622 
L 233.805384 364.669622 
L 234.421006 349.306653 
L 235.036628 347.686634 
L 235.652251 337.869701 
L 235.036628 337.869701 
L 236.267873 337.869701 
L 236.883495 336.340682 
L 237.499117 338.408981 
L 238.11474 360.020943 
L 238.730362 371.104752 
L 239.345984 371.104752 
L 239.961606 357.857131 
L 240.577229 356.604187 
L 241.192851 356.604187 
L 241.808473 357.857131 
L 242.424095 371.623064 
L 243.039718 379.233463 
L 243.65534 379.233463 
L 244.270962 387.730402 
L 245.502207 387.746529 
L 246.117829 363.542536 
L 246.733451 326.711121 
L 247.349073 324.023216 
L 247.964695 324.023216 
L 248.580318 326.711121 
L 249.19594 378.176609 
L 249.811562 378.176609 
L 250.427184 383.596374 
L 251.042807 383.596374 
L 251.658429 386.428396 
L 252.274051 387.051871 
L 252.889673 407.422434 
L 253.505296 387.051871 
L 254.120918 386.428396 
L 254.73654 391.403375 
L 255.352162 370.748735 
L 255.967785 376.851283 
L 256.583407 369.833064 
L 257.199029 368.001878 
L 257.814651 368.001878 
L 258.430274 369.833064 
L 259.045896 331.902832 
L 259.661518 310.468797 
L 260.27714 331.902832 
L 260.892763 310.468797 
L 261.508385 318.692971 
L 262.124007 336.535863 
L 262.739629 318.692971 
L 263.355252 318.692971 
L 263.970874 340.097673 
L 264.586496 340.097673 
L 265.202118 346.622656 
L 265.817741 346.622656 
L 266.433363 358.614691 
L 267.048985 358.614691 
L 267.664607 351.724727 
L 269.511474 351.724727 
L 270.127096 358.305911 
L 270.742718 377.548415 
L 271.358341 378.036573 
L 271.973963 379.580028 
L 272.589585 379.580028 
L 273.205207 378.036573 
L 273.82083 357.160562 
L 274.436452 357.160562 
L 275.052074 349.011026 
L 275.667696 357.160562 
L 276.283319 342.84297 
L 276.898941 342.580047 
L 277.514563 354.128425 
L 278.745808 354.128425 
L 279.36143 354.364334 
L 279.977052 357.147397 
L 280.592674 357.147397 
L 281.823919 347.469584 
L 282.439541 347.469584 
L 283.055163 358.413773 
L 284.286408 358.413773 
L 284.90203 337.869701 
L 285.517652 334.364775 
L 286.133274 331.622371 
L 286.748897 334.364775 
L 287.364519 334.364775 
L 287.980141 321.167285 
L 288.595763 318.182906 
L 289.827008 318.182906 
L 290.44263 334.622784 
L 291.673875 334.622784 
L 292.289497 353.500428 
L 292.905119 353.500428 
L 293.520741 328.114078 
L 294.136364 345.446726 
L 294.751986 338.212756 
L 295.367608 344.39456 
L 295.98323 344.39456 
L 296.598853 340.20012 
L 297.830097 340.20012 
L 299.061342 360.714347 
L 299.676964 360.714347 
L 300.292586 371.397884 
L 300.908208 352.305752 
L 301.523831 352.642866 
L 302.139453 352.305752 
L 302.755075 333.749226 
L 303.98632 333.749226 
L 304.601942 338.713863 
L 305.217564 338.713863 
L 305.833186 321.903063 
L 306.448808 360.654477 
L 307.064431 351.293751 
L 307.680053 351.293751 
L 308.295675 363.787359 
L 308.911297 371.310189 
L 309.52692 366.566516 
L 311.989409 366.566516 
L 312.605031 351.531312 
L 313.220653 379.512351 
L 313.836275 379.512351 
L 313.220653 379.512351 
L 314.451898 382.418361 
L 313.836275 382.418361 
L 315.06752 318.698399 
L 315.683142 323.970368 
L 316.914387 323.970368 
L 317.530009 324.7915 
L 318.145631 370.548921 
L 318.761253 343.565 
L 319.376876 343.565 
L 319.992498 362.329553 
L 319.376876 362.329553 
L 321.839365 362.329553 
L 322.454987 338.257753 
L 323.070609 337.360985 
L 323.686231 323.097007 
L 324.917476 323.097007 
L 325.533098 334.390892 
L 326.14872 337.869701 
L 326.764342 344.782532 
L 327.379965 344.782532 
L 328.611209 376.951074 
L 329.226831 364.560441 
L 329.842454 364.560441 
L 330.458076 314.98242 
L 332.304943 314.98242 
L 332.920565 326.512221 
L 333.536187 348.775016 
L 334.151809 384.172874 
L 334.767432 348.775016 
L 335.998676 348.775016 
L 336.614298 324.75792 
L 337.229921 355.085236 
L 338.461165 355.085236 
L 339.076787 360.731512 
L 339.69241 355.085236 
L 340.308032 360.731512 
L 341.539276 360.731512 
L 342.154898 331.378896 
L 342.770521 366.838412 
L 344.001765 366.838412 
L 343.386143 366.838412 
L 345.23301 327.805897 
L 345.848632 331.940741 
L 346.464254 331.940741 
L 347.079876 339.269112 
L 347.695499 343.776818 
L 348.311121 351.424268 
L 348.926743 356.047101 
L 350.157988 356.047101 
L 350.77361 359.846827 
L 351.389232 361.342985 
L 352.620477 361.342985 
L 353.236099 359.846827 
L 353.851721 321.627387 
L 354.467343 321.056872 
L 355.698588 321.056872 
L 356.31421 313.810874 
L 356.929832 313.810874 
L 357.545455 334.185466 
L 358.161077 334.185466 
L 358.776699 335.071786 
L 358.161077 334.185466 
L 359.392321 335.071786 
L 360.623566 335.071786 
L 361.239188 361.426305 
L 361.85481 334.831738 
L 363.701677 334.831738 
L 364.317299 336.50275 
L 364.932921 331.34163 
L 365.548544 287.120946 
L 366.164166 287.120946 
L 366.779788 288.149288 
L 367.39541 288.149288 
L 368.011033 310.468797 
L 368.626655 310.750338 
L 369.242277 343.489395 
L 370.473522 374.155371 
L 371.089144 374.155371 
L 371.704766 359.604746 
L 372.320388 374.155371 
L 372.936011 358.021313 
L 373.551633 357.198647 
L 374.167255 354.016992 
L 374.782877 354.016992 
L 376.014122 339.5707 
L 376.629744 339.200907 
L 377.245366 339.5707 
L 376.629744 339.5707 
L 377.860989 339.5707 
L 378.476611 368.210248 
L 380.323477 368.210248 
L 380.9391 368.326088 
L 381.554722 377.32376 
L 382.170344 377.32376 
L 383.401589 359.714139 
L 384.017211 356.062463 
L 384.632833 353.626945 
L 385.248455 353.626945 
L 385.864078 349.688308 
L 386.4797 349.688308 
L 387.095322 363.066999 
L 387.710944 368.575842 
L 388.326567 363.066999 
L 388.942189 368.575842 
L 389.557811 343.869654 
L 390.173433 343.869654 
L 390.789056 359.291584 
L 392.0203 359.291584 
L 392.635922 360.237143 
L 393.251545 360.237143 
L 393.867167 344.343337 
L 394.482789 354.621525 
L 395.098411 337.194305 
L 395.714034 336.60626 
L 396.329656 336.60626 
L 396.945278 337.194305 
L 397.5609 337.194305 
L 398.176523 350.486533 
L 398.792145 350.486533 
L 399.407767 361.909717 
L 400.023389 350.486533 
L 398.792145 334.077871 
L 400.639011 332.174437 
L 401.254634 332.369667 
L 401.870256 332.174437 
L 402.485878 322.83739 
L 403.1015 322.83739 
L 403.717123 321.124294 
L 404.332745 321.124294 
L 404.948367 336.845537 
L 405.563989 336.845537 
L 406.179612 334.983988 
L 407.410856 334.983988 
L 408.026478 292.13899 
L 408.642101 340.191691 
L 410.488967 340.191691 
L 411.10459 347.126646 
L 411.720212 347.126646 
L 412.335834 345.503457 
L 412.951456 351.338366 
L 413.567079 345.503457 
L 414.798323 345.503457 
L 415.413945 292.414622 
L 416.029568 257.389398 
L 416.64519 292.414622 
L 417.260812 299.582094 
L 417.876434 299.582094 
L 418.492056 301.647602 
L 419.107679 339.97826 
L 419.723301 345.793516 
L 420.954545 345.793516 
L 421.570168 324.858555 
L 422.801412 324.858555 
L 423.417034 339.312141 
L 424.032657 366.432152 
L 424.648279 366.432152 
L 425.263901 344.466538 
L 427.110768 344.466538 
L 427.72639 345.704702 
L 428.957635 345.704702 
L 429.573257 346.884257 
L 430.188879 355.767126 
L 431.420124 355.767126 
L 432.035746 326.195715 
L 432.651368 326.195715 
L 433.26699 341.844398 
L 433.882613 346.632658 
L 434.498235 346.632658 
L 435.113857 341.844398 
L 435.729479 340.273326 
L 436.345102 319.290676 
L 436.960724 319.290676 
L 437.576346 340.273326 
L 438.191968 342.477176 
L 438.80759 372.970233 
L 440.038835 372.970233 
L 440.654457 353.202417 
L 441.270079 343.446197 
L 442.501324 333.749226 
L 443.116946 333.749226 
L 443.732568 333.589525 
L 444.348191 333.749226 
L 444.963813 343.37824 
L 445.579435 344.354807 
L 446.195057 370.176416 
L 446.81068 370.176416 
L 447.426302 350.458919 
L 448.041924 370.176416 
L 448.657546 350.458919 
L 449.273169 340.648512 
L 450.504413 340.648512 
L 451.120035 337.355413 
L 451.735658 337.355413 
L 452.35128 342.075419 
L 452.966902 342.075419 
L 453.582524 337.355413 
L 454.198147 362.737078 
L 454.813769 359.023427 
L 455.429391 335.640455 
L 456.045013 335.640455 
L 456.660635 327.917012 
L 457.276258 323.737016 
L 459.123124 323.737016 
L 458.507502 299.955063 
L 459.738747 299.955063 
L 460.354369 293.748996 
L 460.969991 257.011836 
L 459.123124 257.011836 
L 462.816858 257.011836 
L 463.43248 291.491706 
L 464.048102 291.491706 
L 464.663725 298.745291 
L 465.279347 298.745291 
L 465.894969 316.611972 
L 466.510591 324.023216 
L 467.126214 324.875265 
L 467.741836 331.514496 
L 468.357458 331.514496 
L 468.97308 350.993183 
L 470.204325 350.993183 
L 470.819947 334.008003 
L 472.051192 334.008003 
L 473.282436 351.08938 
L 473.898058 351.08938 
L 474.51368 342.613742 
L 475.129303 336.648368 
L 475.744925 333.516392 
L 476.360547 332.088516 
L 476.976169 332.088516 
L 477.591792 333.516392 
L 478.207414 332.088516 
L 478.823036 332.088516 
L 479.438658 337.009459 
L 480.054281 338.75761 
L 480.669903 338.75761 
L 481.285525 341.378083 
L 481.901147 341.378083 
L 482.51677 325.435452 
L 483.132392 323.429819 
L 483.748014 288.645131 
L 484.979259 288.645131 
L 485.594881 296.226683 
L 486.210503 300.565943 
L 486.826125 316.252642 
L 488.05737 302.829017 
L 488.672992 310.071327 
L 489.288614 310.071327 
L 489.904237 308.782701 
L 490.519859 302.829017 
L 491.135481 300.851662 
L 491.751103 300.851662 
L 492.366726 308.782701 
L 492.982348 321.722138 
L 493.59797 321.722138 
L 494.213592 319.653789 
L 494.829214 316.860351 
L 495.444837 316.510711 
L 494.213592 309.787351 
L 496.060459 309.787351 
L 496.676081 312.030224 
L 497.291703 312.030224 
L 497.907326 314.034157 
L 498.522948 314.034157 
L 499.13857 318.186234 
L 499.754192 318.186234 
L 500.369815 329.266117 
L 500.985437 330.77552 
L 501.601059 332.948409 
L 502.216681 332.948409 
L 502.832304 347.414103 
L 504.063548 347.414103 
L 504.67917 334.733308 
L 505.294793 332.942693 
L 505.910415 330.309962 
L 506.526037 330.309962 
L 507.141659 318.840729 
L 507.757282 303.222957 
L 507.141659 296.592239 
L 508.372904 296.592239 
L 508.988526 303.222957 
L 509.604148 288.967043 
L 510.219771 307.445947 
L 510.835393 307.445947 
L 511.451015 323.731187 
L 513.297882 323.731187 
L 513.913504 332.469059 
L 514.529126 332.469059 
L 515.144748 333.134066 
L 515.760371 333.134066 
L 514.529126 331.84328 
L 516.375993 314.979708 
L 516.991615 305.616554 
L 517.607237 305.616554 
L 518.22286 314.638115 
L 518.838482 314.979708 
L 519.454104 322.426776 
L 520.069726 326.40164 
L 520.685349 331.551421 
L 521.300971 348.243825 
L 521.916593 348.243825 
L 522.532215 340.300189 
L 523.147838 340.300189 
L 523.76346 338.477474 
L 524.379082 339.792799 
L 524.994704 338.477474 
L 525.610327 338.477474 
L 526.225949 346.699631 
L 526.841571 346.699631 
L 527.457193 350.341153 
L 528.072816 332.134252 
L 528.688438 329.058607 
L 529.30406 328.145235 
L 529.919682 329.058607 
L 530.535305 327.195605 
L 531.150927 330.114986 
L 531.766549 327.365992 
L 532.382171 330.052786 
L 534.84466 330.052786 
L 535.460282 332.597866 
L 536.075905 332.597866 
L 536.691527 334.555244 
L 537.307149 332.597866 
L 537.922771 332.597866 
L 538.538394 323.573077 
L 539.154016 312.08858 
L 539.769638 306.89643 
L 540.38526 312.08858 
L 541.000883 312.08858 
L 541.616505 341.801378 
L 542.847749 341.801378 
L 543.463372 335.127055 
L 544.078994 333.865694 
L 544.694616 331.185269 
L 545.310238 330.971189 
L 546.541483 330.971189 
L 547.157105 326.614752 
L 547.772727 343.89536 
L 548.38835 343.89536 
L 549.003972 342.285152 
L 549.619594 319.273184 
L 550.235216 322.7573 
L 549.619594 322.7573 
L 550.850838 322.7573 
L 551.466461 325.432671 
L 552.697705 325.432671 
L 553.313327 331.745501 
L 553.92895 325.046364 
L 554.544572 325.046364 
L 555.160194 345.806414 
L 555.775816 345.806414 
L 556.391439 334.628608 
L 557.007061 336.959022 
L 557.622683 334.628608 
L 558.238305 328.796573 
L 558.853928 328.796573 
L 559.46955 338.55119 
L 561.316417 338.55119 
L 561.932039 336.715374 
L 562.547661 336.715374 
L 563.163283 339.128676 
L 563.778906 340.668645 
L 564.394528 339.128676 
L 565.625772 339.128676 
L 566.241395 329.412729 
L 566.857017 327.097399 
L 568.088261 327.097399 
L 568.703883 302.340984 
L 569.319506 328.636855 
L 571.166372 328.636855 
L 571.781995 330.724516 
L 572.397617 312.661369 
L 573.013239 320.582815 
L 573.628861 320.582815 
L 574.244484 312.661369 
L 574.860106 312.661369 
L 575.475728 320.582815 
L 576.09135 334.594954 
L 576.706973 337.829823 
L 577.322595 337.829823 
L 577.938217 334.594954 
L 578.553839 334.594954 
L 579.169462 337.829823 
L 579.785084 343.470741 
L 580.400706 343.470741 
L 581.016328 347.403006 
L 581.631951 343.470741 
L 582.247573 337.925736 
L 582.863195 337.121421 
L 583.478817 337.925736 
L 584.710062 337.925736 
L 585.325684 337.121421 
L 587.172551 337.110456 
L 587.788173 344.478478 
L 588.403795 344.935449 
L 589.019417 344.935449 
L 589.63504 344.478478 
L 590.250662 339.554585 
L 590.866284 337.925736 
L 592.097529 337.925736 
L 592.713151 332.189101 
L 593.328773 332.189101 
L 593.944395 330.958472 
L 593.328773 326.492496 
L 595.17564 326.492496 
L 595.791262 330.904955 
L 596.406884 330.961088 
L 597.022507 332.744738 
L 599.484996 332.744738 
L 600.100618 340.946571 
L 600.71624 340.946571 
L 601.331862 339.017176 
L 601.947485 339.017176 
L 602.563107 340.946571 
L 603.178729 353.616161 
L 603.794351 353.616161 
L 604.409974 360.042976 
L 603.794351 360.042976 
L 605.025596 353.616161 
L 605.641218 353.152569 
L 606.25684 314.451421 
L 606.872462 312.345209 
L 608.103707 312.345209 
L 608.719329 311.101631 
L 609.334951 309.265979 
L 609.950574 330.796629 
L 610.566196 324.316398 
L 611.181818 324.316398 
L 611.79744 330.868379 
L 612.413063 341.375022 
L 613.028685 343.470741 
L 614.259929 343.470741 
L 614.875552 325.4586 
L 615.491174 317.478316 
L 616.106796 312.349464 
L 616.722418 311.469347 
L 617.338041 312.349464 
L 617.953663 309.980116 
L 618.569285 312.349464 
L 619.184907 321.652879 
L 619.80053 324.220389 
L 621.031774 324.220389 
L 621.647396 323.662643 
L 622.263019 324.220389 
L 622.878641 325.860189 
L 623.494263 323.662643 
L 624.109885 323.662643 
L 624.725508 328.451015 
L 625.34113 329.346811 
L 625.956752 321.674435 
L 626.572374 325.219542 
L 627.187996 341.417393 
L 627.803619 336.989233 
L 628.419241 336.989233 
L 629.034863 341.417393 
L 628.419241 342.117301 
L 629.650485 336.989233 
L 630.266108 327.405887 
L 630.88173 327.405887 
L 632.112974 313.332179 
L 632.728597 320.582815 
L 633.344219 320.582815 
L 633.959841 325.756378 
L 634.575463 325.756378 
L 635.191086 328.057225 
L 635.806708 328.057225 
L 636.42233 322.658249 
L 637.037952 322.247622 
L 637.653575 322.658249 
L 638.269197 322.658249 
L 638.884819 339.986063 
L 639.500441 350.550316 
L 640.116064 350.550316 
L 640.731686 342.71956 
L 641.347308 360.719499 
L 642.578553 327.12616 
L 643.194175 335.435021 
L 643.809797 334.676245 
L 645.656664 334.676245 
L 646.272286 328.14148 
L 646.887908 328.14148 
L 647.50353 326.451313 
L 648.119153 326.451313 
L 648.734775 329.740219 
L 649.350397 338.272637 
L 649.966019 342.347842 
L 650.581642 342.347842 
L 651.197264 338.562301 
L 651.812886 338.272637 
L 652.428508 326.713353 
L 653.044131 324.871106 
L 653.659753 312.847903 
L 654.890997 312.847903 
L 655.50662 322.135118 
L 656.122242 322.135118 
L 656.737864 359.096755 
L 657.353486 359.096755 
L 657.969109 329.882308 
L 658.584731 329.407989 
L 659.200353 329.407989 
L 659.815975 326.323236 
L 660.431598 329.070545 
L 661.04722 329.070545 
L 661.662842 317.619712 
L 662.278464 329.070545 
L 662.894086 329.070545 
L 663.509709 340.658642 
L 664.125331 317.619712 
L 664.740953 340.658642 
L 665.356575 327.46239 
L 665.972198 327.46239 
L 666.58782 333.04077 
L 667.819064 333.04077 
L 668.434687 330.958472 
L 669.050309 342.088149 
L 669.665931 349.312358 
L 670.281553 349.312358 
L 670.897176 334.448746 
L 671.512798 328.833919 
L 672.12842 328.537525 
L 672.744042 328.537525 
L 672.12842 328.537525 
L 673.359665 333.758418 
L 673.975287 333.758418 
L 674.590909 336.943443 
L 675.206531 333.758418 
L 675.822154 333.758418 
L 676.437776 335.914663 
L 677.053398 340.152215 
L 677.66902 348.406179 
L 678.284643 348.406179 
L 678.900265 335.914663 
L 679.515887 344.952265 
L 680.131509 329.903296 
L 681.362754 329.903296 
L 681.978376 333.26988 
L 682.593998 316.411494 
L 683.20962 333.26988 
L 683.825243 311.620896 
L 684.440865 311.620896 
L 685.056487 324.253891 
L 686.903354 324.253891 
L 687.518976 325.860189 
L 688.750221 317.531256 
L 689.365843 321.312824 
L 689.981465 317.531256 
L 690.597087 309.385717 
L 691.21271 309.265979 
L 691.828332 309.385717 
L 692.443954 309.265979 
L 693.059576 309.265979 
L 692.443954 309.265979 
L 693.675199 315.869576 
L 694.290821 305.062681 
L 694.906443 315.869576 
L 695.522065 315.869576 
L 696.137688 319.903778 
L 696.75331 324.871106 
L 697.368932 338.919508 
L 697.984554 338.919508 
L 698.600177 339.593521 
L 699.215799 339.593521 
L 699.831421 337.531411 
L 700.447043 341.765838 
L 701.062665 341.765838 
L 701.678288 339.006418 
L 702.29391 312.784591 
L 702.909532 339.006418 
L 702.29391 312.784591 
L 703.525154 310.468797 
L 705.372021 310.468797 
L 705.987643 311.92033 
L 705.372021 317.101629 
L 707.218888 317.101629 
L 707.83451 303.100592 
L 709.065755 303.100592 
L 709.681377 307.067168 
L 712.143866 307.067168 
L 712.759488 303.646161 
L 713.37511 326.888473 
L 713.990733 326.888473 
L 714.606355 303.646161 
L 715.221977 303.646161 
L 715.837599 293.818029 
L 716.453222 291.351274 
L 717.068844 293.818029 
L 717.684466 305.522261 
L 718.300088 310.468797 
L 718.915711 310.468797 
L 719.531333 317.400803 
L 721.993822 317.400803 
L 722.609444 326.590154 
L 723.225066 311.996461 
L 723.840688 309.265979 
L 724.456311 311.996461 
L 725.071933 311.996461 
L 725.687555 323.235612 
L 726.303177 327.960296 
L 726.9188 327.960296 
L 727.534422 342.333556 
L 728.150044 367.393904 
L 728.765666 367.393904 
L 729.381289 331.481949 
L 729.996911 331.481949 
L 730.612533 327.852209 
L 731.228155 313.496712 
L 731.843778 305.906958 
L 732.4594 302.807195 
L 733.075022 302.807195 
L 733.690644 305.906958 
L 734.306267 365.384747 
L 734.921889 365.384747 
L 735.537511 354.904117 
L 736.153133 309.621301 
L 736.768756 309.265979 
L 738 309.265979 
L 738.615622 309.621301 
L 739.231244 304.253234 
L 739.846867 313.144682 
L 740.462489 315.101805 
L 741.078111 321.120773 
L 742.309356 321.120773 
L 741.693733 312.21823 
L 742.924978 310.491266 
L 743.5406 310.491266 
L 744.156222 309.953479 
L 744.771845 310.491266 
L 745.387467 331.953038 
L 747.849956 331.953038 
L 748.465578 332.07922 
L 749.0812 332.07922 
L 749.696823 333.193798 
L 750.312445 333.193798 
L 750.928067 325.993301 
L 751.543689 333.193798 
L 749.696823 333.193798 
L 752.159312 325.993301 
L 752.774934 331.48099 
L 753.390556 365.325003 
L 754.006178 331.48099 
L 754.621801 325.236834 
L 756.468667 325.236834 
L 757.084289 326.140621 
L 757.699912 330.488101 
L 758.315534 336.029849 
L 759.546778 351.262315 
L 760.162401 343.470741 
L 760.778023 527.020036 
L 761.393645 357.414019 
L 762.009267 337.95848 
L 762.62489 345.77918 
L 763.240512 337.95848 
L 764.471756 337.95848 
L 765.087379 336.788223 
L 765.703001 332.093431 
L 766.318623 322.425616 
L 767.549868 322.425616 
L 768.16549 326.359551 
L 768.781112 326.359551 
L 769.396734 326.731665 
L 770.012357 326.731665 
L 770.627979 329.5765 
L 771.243601 331.383835 
L 772.474846 322.440283 
L 773.090468 330.958472 
L 773.70609 330.958472 
L 774.937335 314.280133 
L 775.552957 330.958472 
L 776.168579 314.280133 
L 776.784201 314.280133 
L 777.399823 323.690552 
L 778.015446 326.759279 
L 778.631068 323.690552 
L 779.24669 326.759279 
L 779.862312 328.379818 
L 780.477935 331.185964 
L 781.093557 328.379818 
L 781.709179 328.379818 
L 782.324801 315.569195 
L 782.940424 271.502216 
L 783.556046 271.502216 
L 784.171668 266.351936 
L 785.402913 313.736133 
L 786.018535 313.736133 
L 786.634157 315.663637 
L 787.249779 315.663637 
L 787.865402 330.519642 
L 788.481024 325.217459 
L 789.096646 328.469583 
L 789.712268 325.217459 
L 790.327891 325.217459 
L 790.943513 320.962613 
L 791.559135 320.962613 
L 790.327891 314.237967 
L 792.174757 314.237967 
L 792.79038 339.042562 
L 793.406002 339.042562 
L 794.021624 339.186335 
L 794.637246 339.042562 
L 795.252868 314.647069 
L 795.868491 314.095684 
L 797.099735 314.095684 
L 797.715357 317.392829 
L 798.33098 317.392829 
L 798.946602 318.844623 
L 799.562224 317.392829 
L 800.177846 317.392829 
L 800.793469 319.809627 
L 801.409091 320.613209 
L 802.640335 320.613209 
L 803.255958 327.370474 
L 803.87158 327.370474 
L 804.487202 328.183175 
L 805.102824 332.456482 
L 806.949691 332.456482 
L 807.565313 324.023216 
L 808.180936 327.646209 
L 809.41218 327.646209 
L 810.027802 328.01601 
L 810.643425 335.861383 
L 811.259047 328.01601 
L 812.490291 328.01601 
L 813.105914 327.084345 
L 812.490291 327.084345 
L 813.721536 319.465106 
L 814.95278 319.465106 
L 815.568402 335.475908 
L 816.184025 333.35259 
L 815.568402 333.35259 
L 816.799647 333.35259 
L 817.415269 321.709137 
L 818.030891 318.234291 
L 819.262136 318.234291 
L 818.030891 321.693647 
L 819.877758 337.248261 
L 820.49338 321.693647 
L 821.109003 315.889334 
L 822.340247 315.889334 
L 822.955869 340.434889 
L 823.571492 340.434889 
L 824.187114 341.505266 
L 824.802736 340.434889 
L 823.571492 341.505266 
L 824.802736 332.867423 
L 825.418358 338.151267 
L 826.033981 321.515003 
L 826.649603 338.151267 
L 827.265225 317.017486 
L 827.880847 338.151267 
L 832.190203 338.067872 
L 832.805825 328.227813 
L 833.421447 328.227813 
L 834.03707 326.907524 
L 834.652692 326.907524 
L 835.268314 334.190298 
L 835.883936 334.190298 
L 836.499559 345.556672 
L 837.115181 334.190298 
L 837.730803 345.556672 
L 838.346425 330.932884 
L 838.962048 337.316288 
L 839.57767 328.577352 
L 840.193292 337.316288 
L 840.808914 337.316288 
L 841.424537 330.989916 
L 842.040159 327.900952 
L 842.655781 316.86803 
L 843.271403 316.86803 
L 843.887026 327.900952 
L 844.502648 326.820033 
L 845.11827 326.820033 
L 845.733892 335.605295 
L 846.349515 335.605295 
L 846.965137 326.820033 
L 847.580759 330.146086 
L 848.812004 330.146086 
L 849.427626 326.000539 
L 850.043248 330.146086 
L 850.65887 348.020019 
L 851.274492 349.175667 
L 851.890115 348.020019 
L 852.505737 347.813479 
L 853.121359 346.942304 
L 853.736981 346.942304 
L 854.352604 343.393659 
L 854.968226 399.025543 
L 855.583848 615.6 
L 856.19947 615.6 
L 856.815093 356.818564 
L 857.430715 334.944306 
L 858.046337 334.129024 
L 858.661959 334.129024 
L 859.277582 334.944306 
L 859.893204 334.944306 
L 860.508826 334.129024 
L 861.124448 338.083524 
L 861.740071 363.224956 
L 862.355693 370.031851 
L 862.971315 363.224956 
L 862.355693 363.224956 
L 863.586937 330.860629 
L 864.20256 330.860629 
L 864.818182 319.809627 
L 865.433804 323.513808 
L 866.049426 330.407944 
L 866.665049 323.513808 
L 867.280671 323.513808 
L 867.896293 321.335408 
L 868.511915 311.726446 
L 869.74316 311.620896 
L 870.358782 311.620896 
L 870.974404 336.815422 
L 871.590026 274.597163 
L 872.205649 345.544326 
L 872.821271 329.652476 
L 873.436893 320.21435 
L 874.052515 320.21435 
L 874.668138 329.652476 
L 875.28376 329.652476 
L 875.899382 335.660478 
L 876.515004 335.660478 
L 877.130627 338.347294 
L 877.746249 335.660478 
L 878.361871 329.658196 
L 880.208738 329.658196 
L 879.593116 334.889652 
L 880.82436 336.122298 
L 881.439982 336.122298 
L 882.055605 337.987378 
L 882.671227 336.122298 
L 883.286849 340.95391 
L 883.902471 334.467638 
L 884.518094 334.467638 
L 885.133716 359.690574 
L 885.749338 331.384312 
L 886.36496 337.925736 
L 886.980583 359.690574 
L 885.133716 337.925736 
L 887.596205 337.925736 
L 888.211827 370.768206 
L 889.443071 370.768206 
L 890.058694 347.262413 
L 891.90556 347.262413 
L 892.521183 345.641421 
L 893.136805 321.709137 
L 893.752427 320.582815 
L 894.368049 321.709137 
L 894.983672 321.709137 
L 895.599294 327.207156 
L 896.214916 335.615485 
L 896.830538 327.207156 
L 897.446161 327.207156 
L 895.599294 327.207156 
L 898.061783 317.77358 
L 898.677405 317.77358 
L 899.293027 332.700811 
L 899.90865 317.77358 
L 900.524272 318.020134 
L 901.139894 327.947517 
L 900.524272 327.947517 
L 901.755516 327.947517 
L 902.371139 343.082693 
L 904.833628 343.082693 
L 905.44925 342.569395 
L 906.064872 348.372091 
L 906.680494 342.569395 
L 907.296117 342.569395 
L 907.911739 327.206995 
L 908.527361 348.865952 
L 909.142983 348.865952 
L 909.758605 340.191723 
L 910.374228 340.191723 
L 910.98985 324.277826 
L 911.605472 325.40577 
L 912.221094 325.40577 
L 912.836717 302.986697 
L 913.452339 315.330712 
L 914.067961 315.330712 
L 914.683583 333.042928 
L 915.299206 337.868061 
L 915.914828 337.868061 
L 916.53045 338.90801 
L 917.146072 338.90801 
L 917.761695 338.047557 
L 918.377317 333.699653 
L 919.608561 333.699653 
L 920.224184 335.782851 
L 919.608561 346.792403 
L 920.839806 348.883082 
L 921.455428 361.705524 
L 922.07105 348.883082 
L 922.686673 344.673728 
L 923.302295 325.437095 
L 923.917917 325.437095 
L 924.533539 338.581011 
L 925.764784 338.581011 
L 926.380406 347.774327 
L 926.996028 330.545636 
L 928.227273 330.545636 
L 928.842895 333.364933 
L 929.458517 333.364933 
L 930.074139 353.553956 
L 930.689762 353.553956 
L 931.305384 338.517098 
L 931.921006 338.517098 
L 932.536628 336.318298 
L 933.152251 326.582679 
L 933.767873 326.582679 
L 934.383495 326.768826 
L 934.999117 338.58086 
L 935.61474 338.58086 
L 936.230362 330.114986 
L 937.461606 330.114986 
L 938.077229 328.977255 
L 939.308473 328.977255 
L 939.924095 312.855735 
L 940.539718 336.809915 
L 941.770962 336.809915 
L 942.386584 334.628608 
L 943.002207 326.1833 
L 945.464695 326.1833 
L 946.080318 337.15765 
L 946.69594 333.429298 
L 947.311562 325.422127 
L 947.927184 325.422127 
L 948.542807 323.675892 
L 949.158429 323.675892 
L 949.774051 335.733863 
L 950.389673 326.1833 
L 951.005296 330.681607 
L 949.158429 326.1833 
L 952.852162 326.1833 
L 953.467785 314.70021 
L 954.083407 326.1833 
L 954.699029 315.192885 
L 955.314651 315.192885 
L 955.930274 324.796036 
L 956.545896 328.589757 
L 957.77714 328.589757 
L 958.392763 330.189257 
L 959.008385 346.776969 
L 959.624007 330.189257 
L 960.239629 346.776969 
L 960.855252 338.984311 
L 961.470874 326.605342 
L 962.086496 333.710576 
L 962.702118 327.472229 
L 963.317741 333.710576 
L 962.702118 333.710576 
L 963.933363 339.965202 
L 964.548985 343.737158 
L 965.780229 343.737158 
L 966.395852 362.044411 
L 967.011474 325.800081 
L 967.627096 337.869701 
L 968.242718 321.673413 
L 968.858341 318.0567 
L 969.473963 312.30274 
L 970.089585 318.766388 
L 970.705207 268.900532 
L 971.32083 238.326785 
L 972.552074 238.326785 
L 973.167696 291.022423 
L 973.783319 301.16046 
L 974.398941 305.942499 
L 975.630185 328.530656 
L 976.245808 328.530656 
L 976.86143 341.223636 
L 977.477052 338.148915 
L 979.939541 338.148915 
L 980.555163 337.760639 
L 981.170786 323.71229 
L 983.017652 323.71229 
L 983.633274 316.320267 
L 984.248897 333.187303 
L 984.864519 340.713855 
L 985.480141 346.457279 
L 986.095763 349.65669 
L 987.94263 349.65669 
L 988.558252 329.015853 
L 989.173875 327.905129 
L 991.020741 327.905129 
L 991.636364 323.342926 
L 992.251986 331.326435 
L 992.867608 334.3878 
L 993.48323 334.860148 
L 994.098853 338.340977 
L 995.945719 338.340977 
L 996.561342 344.2518 
L 995.945719 346.497214 
L 997.176964 346.497214 
L 997.792586 343.17982 
L 998.408208 328.566434 
L 999.023831 328.566434 
L 999.639453 325.862459 
L 1000.255075 324.394641 
L 1000.870697 324.394641 
L 1001.48632 325.173232 
L 1002.101942 325.173232 
L 1002.717564 326.191318 
L 1003.333186 331.487982 
L 1003.948808 334.129024 
L 1004.564431 342.047654 
L 1005.180053 342.047654 
L 1005.795675 347.877541 
L 1006.411297 334.129024 
L 1007.02692 326.1833 
L 1007.642542 347.877541 
L 1008.258164 374.298563 
L 1008.873786 374.298563 
L 1009.489409 362.902355 
L 1010.105031 348.561538 
L 1011.336275 334.939034 
L 1011.951898 348.561538 
L 1012.56752 351.925423 
L 1013.183142 347.758805 
L 1013.798764 347.758805 
L 1014.414387 339.93585 
L 1015.030009 339.93585 
L 1015.645631 331.234834 
L 1016.261253 328.42543 
L 1016.876876 328.42543 
L 1017.492498 343.407844 
L 1018.10812 343.407844 
L 1018.723742 347.151488 
L 1019.954987 347.197327 
L 1020.570609 327.404349 
L 1021.186231 332.188666 
L 1023.033098 332.188666 
L 1023.64872 329.328242 
L 1026.111209 329.328242 
L 1026.726831 337.858003 
L 1027.342454 337.858003 
L 1027.958076 365.904159 
L 1028.573698 337.858003 
L 1029.18932 338.978391 
L 1029.804943 345.869633 
L 1031.651809 345.869633 
L 1032.267432 340.421677 
L 1032.883054 327.745264 
L 1033.498676 325.814886 
L 1034.114298 327.745264 
L 1035.345543 327.745264 
L 1035.961165 327.880517 
L 1037.19241 327.880517 
L 1037.808032 327.649304 
L 1038.423654 327.880517 
L 1039.039276 327.649304 
L 1039.654898 347.067155 
L 1040.270521 347.067155 
L 1040.886143 349.055985 
L 1041.501765 347.988936 
L 1042.117387 349.055985 
L 1042.73301 391.841988 
L 1043.348632 391.841988 
L 1043.964254 615.6 
L 1044.579876 374.707018 
L 1045.811121 374.707018 
L 1046.426743 374.850063 
L 1047.657988 374.850063 
L 1048.27361 373.588035 
L 1048.889232 370.405697 
L 1049.504854 370.405697 
L 1050.120477 342.415416 
L 1050.736099 334.529187 
L 1051.351721 334.529187 
L 1051.967343 337.233811 
L 1052.582966 337.233811 
L 1053.198588 355.148317 
L 1055.045455 355.148317 
L 1055.661077 350.694808 
L 1056.276699 350.694808 
L 1056.892321 391.021087 
L 1057.507944 398.534672 
L 1058.123566 399.869322 
L 1058.739188 400.085324 
L 1059.35481 399.869322 
L 1059.970432 371.62697 
L 1061.201677 371.62697 
L 1061.817299 384.194971 
L 1063.048544 384.194971 
L 1063.664166 381.134393 
L 1064.279788 365.618884 
L 1064.89541 381.134393 
L 1065.511033 357.860261 
L 1066.126655 456.328419 
L 1066.742277 384.443851 
L 1067.357899 398.62843 
L 1067.973522 384.443851 
L 1068.589144 384.443851 
L 1069.204766 362.638255 
L 1069.820388 362.638255 
L 1070.436011 343.103385 
L 1071.051633 362.638255 
L 1071.667255 392.626214 
L 1072.282877 392.626214 
L 1072.8985 381.26489 
L 1073.514122 381.26489 
L 1074.129744 375.252333 
L 1074.745366 346.355479 
L 1075.360989 346.355479 
L 1075.976611 371.371028 
L 1076.592233 346.355479 
L 1077.207855 371.371028 
L 1077.823477 371.371028 
L 1078.4391 349.756853 
L 1079.054722 335.795381 
L 1079.670344 349.756853 
L 1080.285966 370.103562 
L 1081.517211 370.103562 
L 1082.748455 329.52753 
L 1083.364078 350.42973 
L 1083.9797 327.387936 
L 1084.595322 323.148222 
L 1085.210944 323.148222 
L 1085.826567 335.172726 
L 1086.442189 335.172726 
L 1087.057811 348.870583 
L 1087.673433 348.870583 
L 1088.289056 332.686532 
L 1088.904678 330.9026 
L 1089.5203 332.686532 
L 1090.135922 332.686532 
L 1090.751545 343.470741 
L 1091.982789 343.470741 
L 1093.214034 377.90214 
L 1093.829656 383.601462 
L 1094.445278 383.601462 
L 1095.0609 388.542415 
L 1095.676523 396.381675 
L 1096.292145 388.542415 
L 1096.907767 396.381675 
L 1097.523389 396.381675 
L 1098.139011 339.970914 
L 1098.754634 337.488613 
L 1099.370256 337.488613 
L 1099.985878 349.423058 
L 1100.6015 349.423058 
L 1101.217123 353.626106 
L 1101.832745 361.045422 
L 1103.063989 361.045422 
L 1103.679612 360.17804 
L 1104.295234 354.838212 
L 1104.910856 360.17804 
L 1105.526478 354.838212 
L 1106.142101 354.838212 
L 1106.757723 348.413241 
L 1107.373345 358.007169 
L 1107.988967 358.007169 
L 1108.60459 365.312006 
L 1109.220212 353.785242 
L 1109.835834 348.497232 
L 1110.451456 345.204348 
L 1112.298323 345.204348 
L 1112.913945 345.762433 
L 1113.529568 363.585422 
L 1114.14519 370.708214 
L 1115.992056 370.708214 
L 1116.607679 366.943165 
L 1117.223301 334.054448 
L 1117.838923 334.054448 
L 1118.454545 333.488976 
L 1119.68579 333.488976 
L 1120.301412 325.887811 
L 1121.532657 325.887811 
L 1122.148279 325.887811 
L 1122.763901 339.0266 
L 1123.379523 341.423857 
L 1123.995146 346.704748 
L 1124.610768 346.704748 
L 1125.22639 347.094277 
L 1125.842012 359.193003 
L 1126.457635 359.193003 
L 1127.073257 373.823717 
L 1127.688879 359.193003 
L 1128.304501 359.193003 
L 1128.920124 363.975977 
L 1129.535746 365.416546 
L 1130.151368 363.975977 
L 1130.76699 365.416546 
L 1131.382613 378.019719 
L 1131.998235 378.019719 
L 1132.613857 379.618471 
L 1133.229479 371.776762 
L 1133.845102 369.622438 
L 1134.460724 351.165386 
L 1135.076346 351.165386 
L 1135.691968 349.868157 
L 1136.30759 338.259583 
L 1136.923213 338.259583 
L 1137.538835 334.865746 
L 1138.154457 336.054905 
L 1138.770079 334.031395 
L 1139.385702 336.054905 
L 1140.001324 336.054905 
L 1140.616946 334.031395 
L 1141.232568 334.031395 
L 1141.848191 344.289299 
L 1142.463813 346.668072 
L 1143.079435 355.46779 
L 1144.31068 354.804551 
L 1144.926302 365.520494 
L 1145.541924 354.804551 
L 1146.157546 354.804551 
L 1146.773169 365.520494 
L 1147.388791 378.862044 
L 1148.620035 378.862044 
L 1149.235658 374.498039 
L 1149.85128 373.701 
L 1151.082524 373.701 
L 1151.698147 396.936564 
L 1152.313769 396.936564 
L 1152.929391 368.326535 
L 1153.545013 368.326535 
L 1154.160635 351.823046 
L 1154.776258 351.823046 
L 1155.39188 354.651504 
L 1156.007502 343.69493 
L 1157.854369 343.69493 
L 1158.469991 346.866386 
L 1159.085613 368.488712 
L 1159.701236 368.488712 
L 1160.316858 383.932298 
L 1160.93248 383.932298 
L 1161.548102 339.965952 
L 1162.163725 337.990644 
L 1162.779347 337.990644 
L 1163.394969 316.841583 
L 1164.010591 316.45467 
L 1164.626214 316.45467 
L 1165.241836 320.66596 
L 1165.857458 320.66596 
L 1166.47308 327.862379 
L 1167.088703 342.965444 
L 1167.704325 347.710713 
L 1168.319947 342.965444 
L 1168.935569 327.862379 
L 1169.551192 371.546043 
L 1170.166814 335.808116 
L 1170.782436 335.808116 
L 1171.398058 350.435191 
L 1172.01368 350.435191 
L 1172.629303 348.041958 
L 1174.476169 348.041958 
L 1175.091792 346.648892 
L 1175.707414 343.470741 
L 1176.323036 346.648892 
L 1176.938658 353.729695 
L 1178.785525 353.729695 
L 1179.401147 334.741742 
L 1180.01677 322.997027 
L 1181.248014 322.997027 
L 1181.863636 326.888089 
L 1182.479259 326.888089 
L 1183.094881 364.674157 
L 1183.710503 364.674157 
L 1184.326125 382.718563 
L 1184.941748 382.718563 
L 1185.55737 355.873061 
L 1186.172992 351.110293 
L 1186.788614 332.328614 
L 1187.404237 331.941115 
L 1188.019859 326.820033 
L 1188.635481 326.820033 
L 1189.251103 346.618275 
L 1189.866726 346.618275 
L 1191.09797 383.839266 
L 1191.713592 383.839266 
L 1192.329214 369.719546 
L 1192.944837 369.719546 
L 1193.560459 337.135695 
L 1194.176081 342.666412 
L 1195.407326 342.666412 
L 1196.022948 350.440374 
L 1197.869815 350.398677 
L 1198.485437 348.039204 
L 1199.101059 332.513181 
L 1199.716681 332.513181 
L 1200.332304 341.02612 
L 1200.947926 332.892496 
L 1201.563548 332.892496 
L 1202.17917 330.734905 
L 1202.794793 330.734905 
L 1203.410415 329.016271 
L 1204.026037 329.016271 
L 1204.641659 337.100738 
L 1205.257282 337.100738 
L 1205.872904 334.676351 
L 1207.104148 334.676351 
L 1207.719771 338.281112 
L 1208.335393 338.281112 
L 1208.951015 350.020081 
L 1209.566637 344.087167 
L 1210.797882 344.087167 
L 1211.413504 362.525492 
L 1212.029126 362.525492 
L 1212.644748 372.635565 
L 1213.260371 372.635565 
L 1213.875993 346.442011 
L 1214.491615 342.956453 
L 1215.107237 342.956453 
L 1215.72286 356.468251 
L 1216.338482 356.468251 
L 1216.954104 329.720761 
L 1217.569726 329.720761 
L 1218.185349 326.820033 
L 1218.800971 329.720761 
L 1219.416593 338.02775 
L 1220.032215 352.228268 
L 1220.647838 354.092985 
L 1221.26346 354.092985 
L 1221.879082 352.228268 
L 1222.494704 345.987334 
L 1223.725949 345.987334 
L 1224.957193 360.195038 
L 1225.572816 353.214151 
L 1226.188438 356.071221 
L 1227.419682 356.071221 
L 1228.035305 356.360601 
L 1228.650927 356.360601 
L 1229.266549 362.213735 
L 1229.882171 362.213735 
L 1230.497793 356.121482 
L 1231.113416 340.221034 
L 1232.960282 340.221034 
L 1233.575905 329.012136 
L 1234.191527 358.001315 
L 1236.038394 358.001315 
L 1236.654016 330.794635 
L 1238.500883 330.794635 
L 1239.116505 314.977795 
L 1239.732127 314.977795 
L 1240.347749 321.276581 
L 1240.963372 321.276581 
L 1242.194616 325.54608 
L 1242.810238 341.122318 
L 1244.041483 341.122318 
L 1244.657105 354.659102 
L 1245.272727 381.00465 
L 1245.272727 381.00465 
" style="fill:none;stroke:#1f77b4;stroke-linecap:square;stroke-width:1.5;"/>
   </g>
   <g id="line2d_16">
    <path clip-path="url(#p5ee4a18498)" d="M 230.727273 244.891507 
L 231.342895 248.436024 
L 230.727273 237.867628 
L 232.574139 213.817649 
L 233.189762 224.868141 
L 233.805384 227.290053 
L 234.421006 193.781613 
L 235.036628 207.060216 
L 235.652251 189.129894 
L 235.036628 203.498822 
L 236.267873 214.089306 
L 236.883495 206.379268 
L 237.499117 203.11721 
L 238.730362 248.81099 
L 239.345984 250.563207 
L 239.961606 258.826604 
L 240.577229 263.23754 
L 241.192851 282.536111 
L 241.808473 256.119379 
L 242.424095 277.689981 
L 243.65534 219.808301 
L 244.270962 224.466756 
L 244.886584 193.260297 
L 245.502207 206.667098 
L 246.117829 189.016247 
L 246.733451 218.945674 
L 247.349073 223.966116 
L 247.964695 235.17 
L 248.580318 242.661069 
L 249.19594 242.201371 
L 249.811562 260.980579 
L 250.427184 256.416398 
L 252.274051 315.602892 
L 252.889673 261.076961 
L 253.505296 256.458235 
L 254.120918 248.277217 
L 254.73654 250.28043 
L 255.967785 290.08647 
L 256.583407 226.226327 
L 257.199029 228.014667 
L 257.814651 234.160697 
L 258.430274 194.904058 
L 259.045896 216.287219 
L 259.661518 229.566446 
L 260.27714 235.08936 
L 260.892763 238.248345 
L 261.508385 254.265911 
L 262.124007 253.327472 
L 262.739629 269.716994 
L 263.355252 294.589391 
L 263.970874 226.52185 
L 264.586496 210.731413 
L 265.202118 225.299168 
L 265.817741 210.350566 
L 267.664607 248.46757 
L 268.280229 250.381524 
L 268.895852 268.049649 
L 269.511474 259.300556 
L 270.127096 255.675832 
L 270.742718 247.970896 
L 271.973963 286.455937 
L 272.589585 265.165533 
L 273.205207 198.031247 
L 273.82083 191.214582 
L 274.436452 207.507706 
L 275.052074 189.258073 
L 275.667696 205.883638 
L 276.898941 234.445 
L 277.514563 242.202629 
L 278.130185 241.974564 
L 278.745808 246.777144 
L 279.36143 265.011686 
L 279.977052 272.118848 
L 280.592674 253.505157 
L 281.208297 247.097404 
L 281.823919 223.576423 
L 282.439541 234.894386 
L 283.055163 220.171935 
L 283.670786 225.7363 
L 284.286408 236.409687 
L 284.90203 229.135441 
L 285.517652 236.591547 
L 286.133274 224.677024 
L 286.748897 246.981042 
L 287.364519 258.178665 
L 287.980141 233.192171 
L 288.595763 228.32438 
L 289.211386 152.214666 
L 289.827008 173.271811 
L 290.44263 214.705301 
L 291.058252 230.426894 
L 291.673875 189.905216 
L 292.289497 206.422658 
L 292.905119 211.39916 
L 293.520741 214.206098 
L 294.136364 227.987891 
L 295.367608 267.462306 
L 295.98323 252.327848 
L 296.598853 244.087669 
L 297.214475 242.896814 
L 297.830097 152.782962 
L 299.676964 209.191665 
L 300.292586 221.550031 
L 300.908208 230.103324 
L 301.523831 234.097652 
L 302.139453 204.666673 
L 302.755075 217.833556 
L 303.370697 171.106644 
L 303.98632 143.254755 
L 304.601942 164.96704 
L 305.833186 192.040975 
L 306.448808 165.410176 
L 307.680053 199.663697 
L 308.295675 190.627016 
L 308.911297 213.058192 
L 309.52692 224.33263 
L 310.142542 245.871279 
L 310.758164 248.884819 
L 311.989409 250.602147 
L 312.605031 268.873352 
L 313.220653 259.612673 
L 313.836275 224.785912 
L 313.220653 215.551741 
L 313.836275 226.076923 
L 315.06752 232.976177 
L 315.683142 250.499186 
L 316.298764 245.82973 
L 316.914387 265.539613 
L 317.530009 251.511994 
L 318.145631 246.454491 
L 318.761253 244.016099 
L 319.376876 242.862298 
L 319.992498 247.2888 
L 319.376876 249.751031 
L 320.60812 251.055894 
L 321.223742 271.363884 
L 322.454987 249.79845 
L 323.070609 187.333238 
L 323.686231 209.32774 
L 324.301853 221.649523 
L 324.917476 242.11639 
L 325.533098 244.571621 
L 326.14872 262.528326 
L 326.764342 245.788699 
L 327.379965 248.933299 
L 327.995587 265.988552 
L 328.611209 251.657045 
L 329.226831 246.326059 
L 329.842454 263.826611 
L 330.458076 239.862668 
L 331.68932 278.297848 
L 332.304943 262.843387 
L 332.920565 278.381953 
L 333.536187 262.869492 
L 334.151809 284.20242 
L 334.767432 256.481408 
L 335.383054 254.384802 
L 335.998676 273.296446 
L 336.614298 308.187109 
L 337.229921 260.309121 
L 337.845543 249.720102 
L 338.461165 251.039791 
L 339.076787 268.717428 
L 339.69241 259.553967 
L 340.308032 277.362188 
L 340.923654 262.549823 
L 341.539276 278.144888 
L 342.154898 209.942918 
L 342.770521 230.599551 
L 343.386143 243.389298 
L 344.001765 229.119584 
L 343.386143 238.721745 
L 344.617387 259.146673 
L 345.23301 249.295796 
L 345.848632 252.99872 
L 346.464254 270.291603 
L 347.079876 284.252071 
L 347.695499 256.491974 
L 348.311121 247.36774 
L 348.926743 249.793587 
L 349.542365 260.18753 
L 350.157988 252.498763 
L 350.77361 246.680538 
L 351.389232 268.812858 
L 352.620477 252.538787 
L 353.851721 280.378325 
L 354.467343 188.512335 
L 355.698588 223.107927 
L 356.31421 231.108473 
L 356.929832 184.98217 
L 357.545455 202.278444 
L 358.161077 237.313911 
L 358.776699 235.699762 
L 358.161077 255.487809 
L 359.392321 272.513132 
L 360.007944 253.615805 
L 360.623566 274.150401 
L 361.239188 188.310204 
L 362.470432 241.219468 
L 363.086055 251.205327 
L 363.701677 258.823306 
L 364.317299 229.648301 
L 364.932921 164.702574 
L 366.164166 204.501257 
L 366.779788 196.133267 
L 367.39541 215.600409 
L 368.011033 211.443185 
L 368.626655 223.181678 
L 369.242277 231.155632 
L 369.857899 253.31239 
L 370.473522 262.036316 
L 371.089144 277.953541 
L 371.704766 290.300851 
L 372.320388 298.843621 
L 372.936011 245.672244 
L 373.551633 206.695522 
L 374.167255 219.70532 
L 374.782877 228.891175 
L 375.3985 234.687435 
L 376.014122 242.356346 
L 376.629744 204.486169 
L 377.245366 214.348439 
L 376.629744 220.691386 
L 377.860989 231.029841 
L 379.092233 266.750678 
L 380.323477 290.992998 
L 381.554722 319.441575 
L 382.170344 271.043093 
L 382.785966 253.198327 
L 383.401589 270.568924 
L 384.017211 235.722925 
L 384.632833 243.008166 
L 385.248455 228.996295 
L 385.864078 222.169958 
L 386.4797 226.886465 
L 387.095322 245.525154 
L 387.710944 229.792534 
L 388.326567 234.217328 
L 388.942189 242.057889 
L 389.557811 219.795288 
L 390.173433 238.360811 
L 390.789056 240.010303 
L 391.404678 261.674486 
L 392.0203 247.766474 
L 392.635922 267.413306 
L 393.251545 290.875435 
L 393.867167 210.594035 
L 394.482789 232.332072 
L 395.098411 111.6 
L 395.714034 133.52339 
L 396.329656 146.120353 
L 396.945278 161.045546 
L 398.176523 200.053298 
L 398.792145 214.623399 
L 400.023389 183.340567 
L 398.792145 174.592053 
L 400.639011 156.156475 
L 401.254634 161.118397 
L 401.870256 163.916075 
L 402.485878 185.164159 
L 403.717123 218.23384 
L 404.332745 227.907479 
L 404.948367 234.095894 
L 405.563989 247.676565 
L 406.179612 250.545191 
L 406.795234 270.584732 
L 407.410856 188.176475 
L 408.026478 159.598371 
L 408.642101 156.576086 
L 409.873345 121.431134 
L 410.488967 132.558634 
L 411.10459 139.981933 
L 411.720212 152.107039 
L 412.951456 196.113829 
L 413.567079 198.589789 
L 414.182701 184.598087 
L 414.798323 195.724483 
L 415.413945 197.395187 
L 416.029568 200.737588 
L 417.260812 232.242578 
L 417.876434 236.648754 
L 418.492056 239.098427 
L 419.107679 240.39624 
L 420.338923 223.184023 
L 420.954545 136.093151 
L 422.18579 177.548609 
L 422.801412 195.845345 
L 423.417034 178.304025 
L 424.648279 221.584511 
L 425.263901 237.158951 
L 425.879523 195.854806 
L 426.495146 200.563858 
L 427.72639 245.137492 
L 428.342012 186.684807 
L 428.957635 193.487355 
L 429.573257 209.372963 
L 430.188879 207.176695 
L 430.804501 135.392903 
L 431.420124 156.935895 
L 432.035746 174.333228 
L 432.651368 156.082913 
L 434.498235 214.946884 
L 435.113857 199.782331 
L 436.960724 244.019742 
L 437.576346 246.291055 
L 438.191968 264.1349 
L 438.80759 246.066811 
L 439.423213 215.592778 
L 440.038835 192.06052 
L 440.654457 184.335231 
L 441.270079 205.655798 
L 441.885702 211.742667 
L 442.501324 223.396347 
L 443.116946 242.523941 
L 443.732568 209.3318 
L 444.348191 230.182507 
L 444.963813 235.453087 
L 445.579435 238.448285 
L 446.195057 260.284486 
L 446.81068 249.71121 
L 447.426302 231.025322 
L 448.041924 204.022192 
L 448.657546 217.689422 
L 449.273169 200.617297 
L 449.888791 215.064249 
L 450.504413 225.739086 
L 451.120035 184.562243 
L 452.35128 219.845444 
L 452.966902 228.984077 
L 453.582524 240.68656 
L 454.198147 235.445973 
L 454.813769 254.342069 
L 455.429391 266.242703 
L 456.045013 251.738559 
L 456.660635 258.574957 
L 457.276258 249.083564 
L 457.89188 257.465902 
L 458.507502 230.727714 
L 459.123124 235.772621 
L 458.507502 238.740347 
L 459.738747 254.538822 
L 460.354369 226.746536 
L 460.969991 235.550878 
L 461.585613 229.323169 
L 459.123124 234.94495 
L 462.201236 243.975508 
L 462.816858 229.307307 
L 463.43248 223.885042 
L 464.048102 231.60344 
L 464.663725 251.241623 
L 465.279347 250.057496 
L 465.894969 245.637726 
L 466.510591 244.935019 
L 467.126214 247.340965 
L 467.741836 247.064951 
L 468.357458 186.536177 
L 468.97308 203.469738 
L 469.588703 217.267791 
L 470.204325 227.253681 
L 470.819947 235.22487 
L 471.435569 256.110576 
L 472.051192 248.141659 
L 472.666814 186.922812 
L 473.282436 209.171045 
L 473.898058 221.534945 
L 474.51368 183.936833 
L 475.129303 201.386004 
L 475.744925 215.662402 
L 476.360547 234.84539 
L 476.976169 238.11367 
L 477.591792 259.077939 
L 478.207414 249.270405 
L 478.823036 262.173961 
L 479.438658 250.380782 
L 480.054281 221.192631 
L 481.901147 247.571202 
L 482.51677 252.455022 
L 483.132392 242.800615 
L 483.748014 241.257493 
L 484.363636 241.501865 
L 484.979259 241.624744 
L 485.594881 261.492938 
L 486.210503 213.171631 
L 487.441748 230.395035 
L 488.05737 185.178295 
L 488.672992 206.888315 
L 489.288614 218.951725 
L 490.519859 237.428298 
L 491.135481 231.945499 
L 491.751103 185.366931 
L 492.366726 203.74816 
L 492.982348 184.194165 
L 493.59797 201.606087 
L 494.829214 232.536297 
L 495.444837 236.816632 
L 494.213592 245.424648 
L 496.060459 243.534363 
L 496.676081 193.100832 
L 497.907326 231.860768 
L 498.522948 236.429557 
L 499.754192 268.150234 
L 500.369815 259.338933 
L 500.985437 240.447218 
L 501.601059 241.09114 
L 502.832304 276.875363 
L 503.447926 246.28895 
L 504.063548 255.86098 
L 504.67917 270.065315 
L 505.294793 252.331199 
L 505.910415 271.747306 
L 506.526037 229.652653 
L 507.141659 244.015222 
L 507.757282 243.765382 
L 507.141659 242.741073 
L 508.372904 236.237737 
L 508.988526 238.876169 
L 509.604148 252.161066 
L 510.219771 246.53896 
L 511.451015 280.779442 
L 512.066637 255.721736 
L 512.682259 254.026501 
L 513.297882 271.938816 
L 513.913504 229.742415 
L 514.529126 220.776636 
L 515.760371 229.598006 
L 514.529126 233.922535 
L 516.375993 241.869929 
L 516.991615 194.784476 
L 518.22286 228.568057 
L 518.838482 234.493917 
L 519.454104 250.867276 
L 520.069726 245.988613 
L 520.685349 195.243559 
L 521.300971 212.599704 
L 521.916593 224.007558 
L 522.532215 244.325697 
L 523.147838 243.011324 
L 523.76346 182.894375 
L 524.379082 196.227252 
L 524.994704 160.972652 
L 526.225949 183.039698 
L 526.841571 158.336041 
L 527.457193 179.623164 
L 528.072816 212.734655 
L 528.688438 231.741729 
L 529.30406 236.360992 
L 529.919682 238.942955 
L 531.150927 272.193039 
L 531.766549 282.92402 
L 532.382171 256.204959 
L 533.613416 289.122777 
L 534.229038 257.468401 
L 534.84466 242.823515 
L 535.460282 242.281351 
L 536.075905 242.013626 
L 537.307149 241.81427 
L 537.922771 245.206145 
L 538.538394 243.431107 
L 539.154016 254.12959 
L 539.769638 226.65916 
L 541.000883 246.924829 
L 541.616505 244.233409 
L 542.232127 261.679956 
L 542.847749 250.208146 
L 543.463372 268.01692 
L 544.078994 252.295621 
L 544.694616 268.881607 
L 545.310238 252.559596 
L 546.541483 246.705952 
L 547.157105 259.266435 
L 547.772727 249.339957 
L 548.38835 245.322659 
L 549.003972 259.954962 
L 549.619594 249.591851 
L 550.235216 217.576108 
L 549.619594 227.463025 
L 550.850838 208.590087 
L 551.466461 228.395486 
L 552.082083 234.390247 
L 552.697705 251.041207 
L 553.313327 264.514187 
L 553.92895 251.175569 
L 554.544572 246.120897 
L 555.775816 243.860942 
L 556.391439 204.959146 
L 557.007061 218.400593 
L 557.622683 238.317964 
L 558.238305 179.911494 
L 558.853928 202.047835 
L 559.46955 243.54164 
L 560.085172 261.192688 
L 560.700794 269.246116 
L 561.316417 220.450162 
L 561.932039 215.418627 
L 562.547661 225.984828 
L 563.163283 184.596704 
L 563.778906 206.26291 
L 564.394528 181.009848 
L 565.01015 200.102313 
L 565.625772 214.661777 
L 566.241395 233.097479 
L 566.857017 192.417324 
L 567.472639 212.808864 
L 568.088261 222.28691 
L 568.703883 234.212606 
L 569.319506 237.762253 
L 569.935128 186.315085 
L 570.55075 198.771946 
L 571.166372 185.642596 
L 571.781995 181.947674 
L 572.397617 199.676395 
L 573.013239 207.811407 
L 573.628861 214.163705 
L 574.244484 225.110924 
L 574.860106 245.913782 
L 575.475728 243.764182 
L 576.09135 244.459188 
L 576.706973 203.182387 
L 577.322595 211.271335 
L 578.553839 252.787044 
L 579.169462 246.800723 
L 579.785084 244.176233 
L 581.016328 282.152707 
L 581.631951 263.992668 
L 582.247573 279.807507 
L 582.863195 255.494501 
L 583.478817 267.828376 
L 584.710062 261.079334 
L 585.325684 226.093904 
L 585.941306 232.986676 
L 586.556929 237.072784 
L 587.172551 211.452712 
L 587.788173 225.862633 
L 588.403795 246.716787 
L 589.019417 206.850647 
L 590.250662 245.328165 
L 590.866284 243.488814 
L 591.481906 254.801525 
L 592.097529 273.195548 
L 592.713151 261.170843 
L 593.328773 218.538654 
L 593.944395 239.186715 
L 593.328773 240.442154 
L 594.560018 241.088557 
L 595.17564 257.940623 
L 595.791262 248.845331 
L 596.406884 218.29649 
L 597.022507 234.121407 
L 597.638129 236.831404 
L 598.253751 217.939257 
L 598.869373 239.921071 
L 599.484996 238.480571 
L 600.100618 255.380607 
L 600.71624 187.419054 
L 601.947485 223.964226 
L 603.178729 262.488892 
L 604.409974 285.634035 
L 603.794351 289.338024 
L 605.025596 242.787082 
L 605.641218 206.244424 
L 606.25684 193.794891 
L 606.872462 213.241277 
L 607.488085 224.462065 
L 608.719329 240.608287 
L 609.334951 256.366213 
L 609.950574 248.241422 
L 610.566196 213.192888 
L 611.79744 255.196479 
L 612.413063 269.119729 
L 613.028685 288.494561 
L 613.644307 230.594167 
L 614.259929 235.694557 
L 614.875552 253.832025 
L 615.491174 252.13197 
L 616.106796 193.539941 
L 616.722418 193.743979 
L 617.338041 214.991564 
L 617.953663 223.578819 
L 618.569285 243.415749 
L 619.184907 242.571215 
L 619.80053 242.157044 
L 620.416152 256.871736 
L 621.031774 248.437298 
L 621.647396 262.273062 
L 622.263019 209.407792 
L 622.878641 221.708001 
L 623.494263 236.791454 
L 624.109885 243.672677 
L 625.34113 262.776572 
L 625.956752 250.589063 
L 626.572374 258.432346 
L 627.187996 269.949494 
L 627.803619 256.217343 
L 628.419241 248.183383 
L 629.034863 262.979999 
L 628.419241 274.038108 
L 629.650485 257.543743 
L 630.266108 236.54707 
L 630.88173 245.863315 
L 631.497352 212.869148 
L 632.112974 197.886627 
L 632.728597 214.841278 
L 633.344219 237.207265 
L 633.959841 239.39837 
L 634.575463 251.455414 
L 635.191086 246.240355 
L 635.806708 249.181312 
L 636.42233 187.00056 
L 637.653575 226.575611 
L 638.884819 254.75367 
L 639.500441 247.604074 
L 640.116064 250.982503 
L 640.731686 231.377844 
L 641.347308 251.48457 
L 641.96293 243.922378 
L 642.578553 247.892009 
L 643.194175 244.674958 
L 643.809797 263.161492 
L 644.425419 257.34593 
L 643.809797 205.529238 
L 645.041041 224.360787 
L 645.656664 231.904328 
L 646.272286 246.526046 
L 646.887908 199.593525 
L 647.50353 207.953056 
L 648.119153 227.953905 
L 648.734775 184.86486 
L 649.350397 206.117347 
L 649.966019 219.272803 
L 651.197264 254.067022 
L 651.812886 247.326852 
L 652.428508 174.545663 
L 653.659753 209.132849 
L 654.275375 221.506993 
L 654.890997 230.075313 
L 655.50662 219.792055 
L 656.122242 232.168369 
L 656.737864 251.887069 
L 657.353486 265.494671 
L 657.969109 251.497399 
L 658.584731 213.723595 
L 659.200353 224.802022 
L 659.815975 241.864329 
L 660.431598 241.806157 
L 661.04722 201.125983 
L 661.662842 215.460424 
L 662.278464 163.520401 
L 663.509709 200.782863 
L 664.125331 179.666587 
L 664.740953 172.706264 
L 665.356575 192.53864 
L 665.972198 218.41376 
L 666.58782 183.426255 
L 667.203442 204.977641 
L 667.819064 220.709839 
L 668.434687 231.86512 
L 669.050309 248.616429 
L 669.665931 220.825703 
L 670.281553 225.832088 
L 671.512798 239.46555 
L 672.12842 240.586768 
L 672.744042 211.630557 
L 673.359665 223.316051 
L 673.975287 194.014545 
L 675.822154 247.747437 
L 676.437776 190.516958 
L 677.053398 199.547286 
L 677.66902 220.98431 
L 678.284643 229.734105 
L 679.515887 268.577856 
L 680.131509 252.467422 
L 680.747132 207.631972 
L 681.362754 219.983722 
L 681.978376 200.815098 
L 683.20962 240.583632 
L 684.440865 270.457672 
L 685.056487 265.0132 
L 685.672109 251.340179 
L 686.287732 267.151637 
L 686.903354 252.026551 
L 687.518976 246.482327 
L 688.134598 280.033684 
L 688.750221 231.58755 
L 689.365843 246.875442 
L 689.981465 253.665523 
L 690.597087 243.259774 
L 691.21271 242.495136 
L 691.828332 232.976259 
L 692.443954 210.069882 
L 693.059576 221.313098 
L 692.443954 206.777195 
L 693.675199 218.951494 
L 694.290821 228.389083 
L 694.906443 215.350943 
L 695.522065 232.555337 
L 696.137688 240.990157 
L 696.75331 194.673117 
L 697.368932 216.281329 
L 697.984554 255.365493 
L 698.600177 164.392315 
L 699.215799 186.255004 
L 699.831421 190.54639 
L 700.447043 212.984696 
L 701.062665 182.43558 
L 702.909532 236.876173 
L 702.29391 165.144032 
L 704.140777 173.144933 
L 704.756399 174.693402 
L 705.372021 170.606928 
L 705.987643 190.101718 
L 705.372021 176.523424 
L 706.603266 195.544811 
L 707.218888 178.216186 
L 707.83451 196.430986 
L 709.065755 174.737947 
L 709.681377 156.197755 
L 710.912621 193.864336 
L 712.143866 237.641732 
L 712.759488 200.448531 
L 713.37511 214.932508 
L 713.990733 216.513394 
L 715.221977 231.3569 
L 715.837599 240.20818 
L 716.453222 247.376053 
L 717.068844 244.440297 
L 718.915711 203.760408 
L 719.531333 195.844985 
L 720.146955 211.018891 
L 720.762577 217.452865 
L 721.378199 226.835026 
L 721.993822 233.442866 
L 723.225066 249.343793 
L 723.840688 245.324354 
L 724.456311 263.047708 
L 725.071933 250.681953 
L 725.687555 271.146106 
L 726.9188 253.228023 
L 727.534422 270.594274 
L 728.150044 185.198747 
L 728.765666 179.249748 
L 729.381289 197.334744 
L 729.996911 161.157006 
L 730.612533 163.937111 
L 731.228155 174.261062 
L 733.690644 245.691597 
L 734.306267 257.529953 
L 734.921889 248.689545 
L 735.537511 205.410521 
L 736.768756 230.465163 
L 737.384378 235.619023 
L 738 238.539165 
L 738.615622 244.741645 
L 739.231244 198.67579 
L 739.846867 213.539707 
L 740.462489 224.672585 
L 741.693733 240.694654 
L 742.309356 252.574243 
L 741.693733 246.712066 
L 742.924978 237.804646 
L 743.5406 235.180772 
L 744.156222 238.298688 
L 744.771845 242.047593 
L 745.387467 246.819459 
L 746.003089 186.820555 
L 746.618711 206.467194 
L 747.234334 219.534746 
L 747.849956 239.069884 
L 748.465578 252.772264 
L 749.0812 246.794576 
L 749.696823 235.901815 
L 750.312445 252.992026 
L 750.928067 246.885802 
L 751.543689 262.229385 
L 749.696823 187.802064 
L 752.159312 203.322105 
L 752.774934 217.154831 
L 754.006178 227.176823 
L 754.621801 240.132333 
L 755.237423 169.511012 
L 755.853045 188.68555 
L 756.468667 203.830497 
L 757.699912 244.297255 
L 758.315534 257.389306 
L 760.162401 187.539388 
L 760.778023 192.896019 
L 761.393645 211.364453 
L 762.009267 208.611362 
L 762.62489 188.606582 
L 763.240512 208.476582 
L 763.856134 181.252239 
L 764.471756 162.215661 
L 765.703001 195.2372 
L 766.318623 210.792803 
L 766.934245 176.11612 
L 768.781112 229.443453 
L 770.012357 148.786444 
L 771.243601 192.330121 
L 771.859223 208.42615 
L 772.474846 162.736673 
L 773.70609 205.312677 
L 774.321712 205.104122 
L 774.937335 222.555494 
L 775.552957 244.881763 
L 776.168579 243.27714 
L 777.399823 161.539437 
L 778.015446 178.97261 
L 778.631068 157.339127 
L 779.862312 193.904061 
L 780.477935 160.568567 
L 781.093557 163.61527 
L 781.709179 183.32014 
L 782.324801 192.358 
L 782.940424 214.54869 
L 783.556046 173.474683 
L 784.171668 201.654962 
L 785.402913 228.246277 
L 786.018535 234.300435 
L 786.634157 231.216334 
L 787.865402 240.770644 
L 788.481024 216.437409 
L 789.096646 237.209128 
L 789.712268 195.34129 
L 790.327891 187.321926 
L 790.943513 188.385859 
L 791.559135 165.971375 
L 790.327891 179.043458 
L 792.174757 191.369201 
L 792.79038 210.986016 
L 793.406002 222.852901 
L 794.021624 230.945104 
L 794.637246 245.087588 
L 795.252868 243.374928 
L 795.868491 242.551322 
L 796.484113 255.887663 
L 797.099735 248.054274 
L 797.715357 196.636619 
L 798.946602 233.995494 
L 799.562224 204.646011 
L 800.177846 224.289712 
L 800.793469 231.859479 
L 801.409091 252.388198 
L 802.024713 246.634278 
L 802.640335 242.902451 
L 803.255958 210.17031 
L 803.87158 224.858962 
L 804.487202 232.217663 
L 805.102824 204.278041 
L 805.718447 217.884108 
L 806.334069 227.671516 
L 806.949691 233.952937 
L 807.565313 237.617165 
L 808.180936 234.746103 
L 808.796558 240.006303 
L 809.41218 236.380992 
L 810.027802 238.953781 
L 810.643425 256.366343 
L 811.259047 248.241473 
L 811.874669 260.866806 
L 812.490291 269.341231 
L 813.721536 224.47999 
L 814.337158 164.325685 
L 814.95278 178.907289 
L 816.184025 219.066096 
L 815.568402 231.615793 
L 816.799647 236.288339 
L 817.415269 205.09744 
L 818.030891 190.150752 
L 819.262136 208.196363 
L 818.030891 191.097064 
L 819.877758 206.561923 
L 820.49338 219.60555 
L 821.109003 238.772994 
L 821.724625 246.265006 
L 822.340247 221.67673 
L 823.571492 239.120872 
L 824.187114 240.407918 
L 824.802736 251.593393 
L 823.571492 246.299037 
L 824.802736 255.636571 
L 825.418358 273.445508 
L 826.033981 253.87363 
L 826.649603 263.310686 
L 827.265225 257.408212 
L 827.880847 208.213251 
L 828.49647 220.831374 
L 829.112092 229.633908 
L 829.727714 235.129328 
L 830.343336 189.695024 
L 830.958959 209.796569 
L 831.574581 181.788301 
L 832.190203 200.802199 
L 832.805825 179.671632 
L 833.421447 201.294644 
L 834.03707 167.596583 
L 835.883936 223.895322 
L 837.115181 239.616829 
L 837.730803 251.793701 
L 838.346425 217.39445 
L 838.962048 197.981957 
L 840.193292 237.313666 
L 840.808914 254.164109 
L 841.424537 247.366261 
L 842.040159 219.891329 
L 842.655781 187.222219 
L 843.271403 198.055348 
L 843.887026 216.029831 
L 844.502648 217.595244 
L 845.11827 232.097603 
L 845.733892 163.737224 
L 846.349515 165.317061 
L 847.580759 202.189486 
L 848.196381 209.608248 
L 848.812004 226.928009 
L 849.427626 233.499818 
L 850.043248 237.362763 
L 850.65887 245.308678 
L 851.274492 251.173305 
L 851.890115 270.2346 
L 852.505737 260.117746 
L 853.121359 271.333727 
L 853.736981 260.515892 
L 854.352604 262.898475 
L 855.583848 257.38555 
L 856.19947 263.616352 
L 856.815093 208.840323 
L 857.430715 229.798698 
L 858.046337 239.176564 
L 858.661959 240.436878 
L 859.277582 248.040705 
L 859.893204 220.702525 
L 860.508826 229.549365 
L 861.124448 235.079236 
L 861.740071 257.426128 
L 862.355693 271.750113 
L 862.971315 280.321886 
L 862.355693 287.972973 
L 863.586937 265.552525 
L 864.20256 251.516185 
L 864.818182 246.266218 
L 865.433804 249.195467 
L 866.049426 247.708415 
L 866.665049 247.305826 
L 867.280671 244.4082 
L 867.896293 206.729049 
L 868.511915 193.090226 
L 869.127538 135.461614 
L 870.358782 179.162726 
L 870.974404 172.501997 
L 872.821271 227.413924 
L 873.436893 241.444856 
L 874.052515 193.973005 
L 875.28376 225.909193 
L 875.899382 239.118862 
L 876.515004 240.406873 
L 877.130627 245.859163 
L 877.746249 248.972094 
L 878.361871 237.202037 
L 878.977493 232.606641 
L 879.593116 249.325445 
L 880.208738 260.425422 
L 879.593116 267.824375 
L 881.439982 246.570523 
L 882.055605 255.817286 
L 882.671227 215.137146 
L 883.286849 192.411362 
L 883.902471 208.492818 
L 884.518094 233.075146 
L 885.133716 225.426233 
L 885.749338 240.496225 
L 886.36496 205.861527 
L 885.133716 211.866583 
L 887.596205 232.077683 
L 888.827449 155.773821 
L 889.443071 177.104785 
L 890.058694 204.056357 
L 891.90556 235.699589 
L 892.521183 238.583214 
L 893.136805 186.090082 
L 893.752427 185.398208 
L 894.368049 201.625958 
L 894.983672 179.884489 
L 895.599294 184.331585 
L 896.830538 221.859037 
L 897.446161 189.993023 
L 895.599294 201.429381 
L 898.061783 209.128575 
L 898.677405 191.663616 
L 899.293027 209.520911 
L 899.90865 181.729929 
L 900.524272 195.345579 
L 901.139894 205.142837 
L 900.524272 226.305942 
L 901.755516 222.581135 
L 902.371139 230.770505 
L 902.986761 235.797605 
L 903.602383 248.481603 
L 904.218005 268.986199 
L 904.833628 274.18455 
L 905.44925 254.07421 
L 906.064872 207.829626 
L 907.296117 242.76351 
L 907.911739 242.251831 
L 908.527361 263.673531 
L 909.142983 187.873518 
L 909.758605 194.280632 
L 910.374228 210.018422 
L 910.98985 222.152785 
L 911.605472 225.208392 
L 912.836717 239.158142 
L 913.452339 243.705114 
L 914.067961 242.711861 
L 914.683583 268.403564 
L 915.299206 252.414261 
L 915.914828 207.625285 
L 917.146072 212.916077 
L 917.761695 224.232012 
L 918.992939 258.818575 
L 919.608561 201.880882 
L 920.839806 176.701325 
L 921.455428 203.099932 
L 922.07105 219.224961 
L 922.686673 228.571678 
L 923.302295 198.825552 
L 923.917917 190.307195 
L 924.533539 203.787829 
L 925.149162 162.131886 
L 925.764784 175.968827 
L 926.996028 218.542074 
L 927.61165 214.759409 
L 928.227273 189.825624 
L 928.842895 210.207782 
L 929.458517 163.950673 
L 930.689762 185.57073 
L 931.305384 207.060169 
L 932.536628 232.303714 
L 933.152251 236.683751 
L 933.767873 253.126289 
L 934.999117 243.607836 
L 935.61474 239.843585 
L 936.230362 241.970801 
L 937.461606 275.755005 
L 938.077229 254.489497 
L 938.692851 274.077338 
L 939.308473 191.206343 
L 939.924095 186.773985 
L 940.539718 202.745151 
L 941.15534 236.606039 
L 941.770962 239.075389 
L 942.386584 245.065127 
L 943.002207 195.652863 
L 943.617829 186.287313 
L 944.849073 219.621882 
L 946.080318 238.00788 
L 946.69594 244.419056 
L 947.311562 203.776071 
L 947.927184 186.926816 
L 948.542807 219.914502 
L 949.158429 229.029812 
L 950.389673 228.671334 
L 951.005296 164.635532 
L 949.158429 184.254793 
L 951.620918 192.283446 
L 952.852162 160.272281 
L 953.467785 179.812721 
L 954.083407 217.272262 
L 954.699029 204.360926 
L 955.314651 225.589346 
L 955.930274 232.673815 
L 956.545896 191.596011 
L 957.77714 219.805476 
L 959.008385 217.108198 
L 959.624007 183.200268 
L 960.239629 204.806251 
L 960.855252 220.570659 
L 961.470874 230.527706 
L 962.086496 247.254195 
L 962.702118 244.384578 
L 963.317741 248.152351 
L 962.702118 206.700223 
L 963.933363 181.109794 
L 965.164607 223.605757 
L 966.395852 240.253573 
L 967.011474 243.696072 
L 967.627096 205.317984 
L 968.242718 220.98581 
L 968.858341 231.231954 
L 969.473963 216.713696 
L 970.089585 197.899827 
L 970.705207 201.47968 
L 971.32083 207.038542 
L 971.936452 188.174301 
L 972.552074 161.362846 
L 973.167696 181.961472 
L 973.783319 194.642456 
L 974.398941 212.086096 
L 975.014563 223.641825 
L 975.630185 239.75001 
L 976.245808 240.733684 
L 976.86143 225.886805 
L 977.477052 232.858484 
L 978.092674 237.000031 
L 978.708297 243.801422 
L 979.323919 262.846831 
L 979.939541 198.96901 
L 980.555163 212.848993 
L 981.786408 251.127612 
L 982.40203 193.250496 
L 984.864519 272.680468 
L 985.480141 253.662472 
L 986.095763 272.539862 
L 986.711386 284.774934 
L 987.327008 144.254519 
L 987.94263 153.569368 
L 988.558252 175.834233 
L 989.173875 176.075923 
L 990.405119 217.041595 
L 991.020741 183.188538 
L 991.636364 174.081861 
L 992.251986 156.011068 
L 993.48323 196.248899 
L 994.098853 215.480182 
L 994.714475 228.957202 
L 995.330097 230.288455 
L 995.945719 248.770499 
L 996.561342 245.069832 
L 995.945719 261.439248 
L 996.561342 250.123409 
L 997.176964 192.688094 
L 998.408208 231.307589 
L 999.023831 236.110031 
L 999.639453 243.249859 
L 1000.255075 242.490294 
L 1000.870697 202.36808 
L 1001.48632 218.575988 
L 1002.101942 237.797978 
L 1002.717564 227.210886 
L 1003.333186 233.672691 
L 1003.948808 237.460006 
L 1004.564431 256.972075 
L 1005.795675 286.141363 
L 1006.411297 225.934155 
L 1007.02692 246.282175 
L 1008.258164 186.777892 
L 1008.873786 205.853843 
L 1009.489409 251.323004 
L 1010.105031 278.730757 
L 1010.720653 262.977256 
L 1011.336275 264.699118 
L 1011.951898 251.23677 
L 1013.183142 263.691672 
L 1013.798764 276.793495 
L 1014.414387 254.756071 
L 1015.030009 264.500421 
L 1015.645631 276.072292 
L 1016.261253 254.571616 
L 1016.876876 269.019143 
L 1017.492498 252.601135 
L 1018.10812 272.076058 
L 1018.723742 228.747239 
L 1019.339365 233.294858 
L 1019.954987 241.467668 
L 1020.570609 242.541839 
L 1021.186231 242.142539 
L 1021.801853 241.944716 
L 1022.417476 201.434064 
L 1023.033098 215.238334 
L 1023.64872 232.340117 
L 1024.264342 257.928587 
L 1025.495587 278.94644 
L 1026.111209 263.043492 
L 1026.726831 262.393932 
L 1027.342454 275.839796 
L 1027.958076 254.511501 
L 1028.573698 239.02438 
L 1029.18932 248.440792 
L 1029.804943 229.53008 
L 1030.420565 203.690791 
L 1031.036187 223.940188 
L 1031.651809 226.901026 
L 1032.267432 233.483298 
L 1033.498676 257.651993 
L 1034.114298 270.30051 
L 1035.345543 249.659644 
L 1035.961165 246.89494 
L 1037.19241 270.879278 
L 1037.808032 270.178729 
L 1038.423654 286.150627 
L 1039.039276 256.886544 
L 1039.654898 208.155505 
L 1040.270521 210.019089 
L 1040.886143 231.632055 
L 1041.501765 224.728089 
L 1042.117387 241.856238 
L 1043.348632 246.708498 
L 1043.964254 265.978707 
L 1044.579876 166.216823 
L 1045.195499 208.784666 
L 1045.811121 228.204802 
L 1046.426743 265.197956 
L 1047.042365 251.400695 
L 1047.657988 246.217043 
L 1048.27361 261.49305 
L 1048.889232 253.776229 
L 1049.504854 253.088683 
L 1050.120477 246.925811 
L 1050.736099 247.521233 
L 1051.967343 244.506532 
L 1052.582966 258.146337 
L 1053.198588 245.13774 
L 1053.81421 263.050879 
L 1054.429832 208.114023 
L 1055.045455 222.312097 
L 1055.661077 230.597144 
L 1056.276699 251.111127 
L 1056.892321 243.848071 
L 1057.507944 265.189133 
L 1058.123566 187.945325 
L 1058.739188 210.075072 
L 1059.35481 222.193933 
L 1059.970432 252.234454 
L 1061.201677 287.678919 
L 1061.817299 269.79992 
L 1062.432921 269.293379 
L 1063.048544 286.878261 
L 1063.664166 281.512983 
L 1064.279788 294.169131 
L 1064.89541 291.811456 
L 1065.511033 257.958828 
L 1066.742277 299.182113 
L 1067.357899 259.142569 
L 1067.973522 274.779164 
L 1068.589144 261.70892 
L 1069.204766 256.730812 
L 1069.820388 272.970641 
L 1070.436011 261.093015 
L 1071.051633 281.834283 
L 1071.667255 281.097312 
L 1072.282877 218.596381 
L 1072.8985 228.151211 
L 1073.514122 248.528424 
L 1074.129744 250.413784 
L 1074.745366 242.682526 
L 1075.976611 271.78639 
L 1076.592233 210.311837 
L 1077.823477 224.97015 
L 1078.4391 202.604586 
L 1079.054722 223.86808 
L 1079.670344 202.324319 
L 1080.285966 216.388241 
L 1080.901589 183.072404 
L 1081.517211 203.341888 
L 1082.132833 237.877051 
L 1082.748455 231.943305 
L 1083.364078 196.27988 
L 1083.9797 203.938024 
L 1084.595322 227.496363 
L 1085.210944 233.846558 
L 1085.826567 253.366337 
L 1086.442189 252.887385 
L 1087.673433 213.936873 
L 1088.289056 224.951872 
L 1088.904678 243.00076 
L 1089.5203 242.368385 
L 1090.135922 247.004859 
L 1090.751545 261.55151 
L 1091.367167 166.107159 
L 1091.982789 179.663166 
L 1093.214034 226.822275 
L 1093.829656 233.435052 
L 1095.676523 291.134057 
L 1096.292145 257.838382 
L 1096.907767 270.393543 
L 1097.523389 188.168898 
L 1098.754634 229.145609 
L 1099.370256 238.739232 
L 1099.985878 243.268012 
L 1100.6015 229.080457 
L 1101.217123 243.519795 
L 1101.832745 242.621861 
L 1102.448367 260.905591 
L 1103.063989 256.383799 
L 1103.679612 215.703645 
L 1104.910856 252.60098 
L 1105.526478 197.062142 
L 1106.757723 237.127611 
L 1107.373345 239.355739 
L 1107.988967 241.133276 
L 1108.60459 241.439228 
L 1109.835834 241.670598 
L 1110.451456 206.060623 
L 1111.067079 219.230265 
L 1112.298323 261.823627 
L 1112.913945 250.25853 
L 1113.529568 270.168185 
L 1114.14519 252.943392 
L 1114.760812 226.394381 
L 1115.376434 227.469617 
L 1115.992056 233.830294 
L 1116.607679 241.81099 
L 1117.223301 241.779524 
L 1117.838923 228.592154 
L 1118.454545 234.508376 
L 1119.070168 242.242853 
L 1119.68579 258.274427 
L 1120.301412 248.971058 
L 1120.917034 165.703232 
L 1121.532657 175.881452 
L 1122.148279 156.516728 
L 1125.842012 276.17058 
L 1126.457635 254.596933 
L 1127.073257 251.67482 
L 1128.304501 241.02913 
L 1128.920124 239.649854 
L 1129.535746 240.682027 
L 1130.151368 241.210684 
L 1130.76699 220.623888 
L 1131.382613 229.497712 
L 1131.998235 235.048604 
L 1133.229479 196.270091 
L 1134.460724 225.996071 
L 1135.691968 238.924 
L 1136.30759 263.56923 
L 1136.923213 278.361015 
L 1137.538835 269.394739 
L 1138.154457 208.751599 
L 1138.770079 223.738692 
L 1139.385702 221.411482 
L 1140.616946 179.896697 
L 1141.232568 202.189231 
L 1141.848191 219.783338 
L 1142.463813 228.942917 
L 1143.079435 256.446911 
L 1143.695057 187.483803 
L 1144.31068 204.396736 
L 1145.541924 246.423426 
L 1146.773169 279.458324 
L 1148.004413 290.225955 
L 1148.620035 210.566365 
L 1149.235658 232.110192 
L 1149.85128 236.572876 
L 1150.466902 258.547423 
L 1151.082524 249.073283 
L 1151.698147 264.319558 
L 1152.929391 290.760386 
L 1153.545013 237.58339 
L 1154.160635 256.564494 
L 1154.776258 272.06406 
L 1155.39188 282.973013 
L 1156.007502 281.735463 
L 1157.238747 227.03925 
L 1158.469991 264.920101 
L 1159.085613 264.488241 
L 1159.701236 187.912515 
L 1160.316858 195.823813 
L 1161.548102 236.085773 
L 1162.163725 243.234746 
L 1162.779347 238.747301 
L 1163.394969 186.106338 
L 1164.010591 203.23344 
L 1164.626214 195.637478 
L 1165.241836 161.353161 
L 1166.47308 204.728447 
L 1167.704325 226.205489 
L 1168.319947 184.627457 
L 1168.935569 201.976085 
L 1169.551192 216.119417 
L 1170.166814 241.984652 
L 1170.782436 187.600013 
L 1171.398058 204.494525 
L 1172.01368 218.048552 
L 1172.629303 200.723028 
L 1173.244925 221.391521 
L 1173.860547 164.072572 
L 1175.707414 222.426023 
L 1176.938658 239.755885 
L 1177.554281 228.929542 
L 1178.169903 234.710362 
L 1178.785525 249.714982 
L 1179.401147 245.487818 
L 1180.01677 247.163201 
L 1180.632392 244.342897 
L 1181.248014 206.064833 
L 1181.863636 227.26636 
L 1182.479259 233.706524 
L 1183.094881 186.728571 
L 1183.710503 203.759877 
L 1184.326125 217.489436 
L 1184.941748 239.112738 
L 1185.55737 254.317317 
L 1186.172992 273.605286 
L 1186.788614 253.917277 
L 1187.404237 268.62262 
L 1188.019859 278.474121 
L 1188.635481 255.174199 
L 1189.251103 259.267861 
L 1189.866726 249.340482 
L 1190.482348 270.59319 
L 1191.09797 284.76002 
L 1191.713592 256.599334 
L 1192.329214 272.999557 
L 1192.944837 217.812771 
L 1193.560459 220.791515 
L 1194.791703 236.887864 
L 1195.407326 239.227131 
L 1196.63857 250.442911 
L 1197.254192 245.805349 
L 1197.869815 243.713394 
L 1198.485437 242.715876 
L 1199.101059 247.204817 
L 1199.716681 244.361968 
L 1200.332304 247.384068 
L 1200.947926 244.443958 
L 1201.563548 243.068055 
L 1202.17917 242.401366 
L 1202.794793 242.073085 
L 1203.410415 241.910181 
L 1204.641659 271.718643 
L 1205.872904 291.523223 
L 1206.488526 266.406699 
L 1207.104148 276.851947 
L 1207.719771 294.363382 
L 1208.335393 258.394379 
L 1208.951015 255.26747 
L 1209.566637 217.248658 
L 1210.182259 227.240669 
L 1210.797882 249.098978 
L 1211.413504 245.215971 
L 1212.029126 220.072833 
L 1212.644748 239.14772 
L 1213.260371 253.856502 
L 1213.875993 253.127954 
L 1214.491615 208.942306 
L 1215.107237 229.552627 
L 1215.72286 238.24383 
L 1216.338482 266.733732 
L 1216.954104 273.328897 
L 1217.569726 261.216821 
L 1218.185349 256.518819 
L 1220.032215 244.859415 
L 1220.647838 229.586025 
L 1221.26346 235.100963 
L 1221.879082 238.254738 
L 1222.494704 239.95446 
L 1223.110327 242.306841 
L 1223.725949 219.378751 
L 1224.341571 238.163777 
L 1224.957193 234.023504 
L 1225.572816 248.605143 
L 1226.188438 258.217587 
L 1226.80406 248.949706 
L 1227.419682 242.706539 
L 1228.035305 260.931956 
L 1228.650927 256.395265 
L 1229.266549 248.25273 
L 1229.882171 228.57994 
L 1230.497793 238.358098 
L 1231.113416 232.628327 
L 1231.729038 195.441658 
L 1232.34466 183.277174 
L 1232.960282 203.434218 
L 1233.575905 236.88611 
L 1234.191527 250.834383 
L 1234.807149 186.891821 
L 1235.422771 198.95439 
L 1236.038394 207.738826 
L 1236.654016 194.299771 
L 1237.269638 184.080686 
L 1237.88526 190.800279 
L 1238.500883 202.515098 
L 1239.116505 210.467345 
L 1239.732127 214.656061 
L 1240.347749 225.455013 
L 1240.963372 232.590208 
L 1241.578994 241.103588 
L 1242.194616 241.42424 
L 1242.810238 249.804416 
L 1243.425861 199.412003 
L 1244.041483 208.451367 
L 1245.272727 217.394277 
L 1245.272727 217.394277 
" style="fill:none;stroke:#ff7f0e;stroke-linecap:square;stroke-width:1.5;"/>
   </g>
   <g id="patch_3">
    <path d="M 180 640.8 
L 180 86.4 
" style="fill:none;stroke:#000000;stroke-linecap:square;stroke-linejoin:miter;stroke-width:0.8;"/>
   </g>
   <g id="patch_4">
    <path d="M 1296 640.8 
L 1296 86.4 
" style="fill:none;stroke:#000000;stroke-linecap:square;stroke-linejoin:miter;stroke-width:0.8;"/>
   </g>
   <g id="patch_5">
    <path d="M 180 640.8 
L 1296 640.8 
" style="fill:none;stroke:#000000;stroke-linecap:square;stroke-linejoin:miter;stroke-width:0.8;"/>
   </g>
   <g id="patch_6">
    <path d="M 180 86.4 
L 1296 86.4 
" style="fill:none;stroke:#000000;stroke-linecap:square;stroke-linejoin:miter;stroke-width:0.8;"/>
   </g>
  </g>
 </g>
 <defs>
  <clipPath id="p5ee4a18498">
   <rect height="554.4" width="1116" x="180" y="86.4"/>
  </clipPath>
 </defs>
</svg>
