<?xml version="1.0" encoding="utf-8" standalone="no"?>
<!DOCTYPE svg PUBLIC "-//W3C//DTD SVG 1.1//EN"
  "http://www.w3.org/Graphics/SVG/1.1/DTD/svg11.dtd">
<svg height="288pt" version="1.1" viewBox="0 0 576 288" width="576pt" xmlns="http://www.w3.org/2000/svg" xmlns:xlink="http://www.w3.org/1999/xlink">
 <metadata>
  <rdf:RDF xmlns:cc="http://creativecommons.org/ns#" xmlns:dc="http://purl.org/dc/elements/1.1/" xmlns:rdf="http://www.w3.org/1999/02/22-rdf-syntax-ns#">
   <cc:Work>
    <dc:type rdf:resource="http://purl.org/dc/dcmitype/StillImage"/>
    <dc:date>2022-01-06T21:21:52.671811</dc:date>
    <dc:format>image/svg+xml</dc:format>
    <dc:creator>
     <cc:Agent>
      <dc:title>Matplotlib v3.4.3, https://matplotlib.org/</dc:title>
     </cc:Agent>
    </dc:creator>
   </cc:Work>
  </rdf:RDF>
 </metadata>
 <defs>
  <style type="text/css">*{stroke-linecap:butt;stroke-linejoin:round;}</style>
 </defs>
 <g id="figure_1">
  <g id="patch_1">
   <path d="M 0 288 
L 576 288 
L 576 0 
L 0 0 
z
" style="fill:#ffffff;"/>
  </g>
  <g id="axes_1">
   <g id="patch_2">
    <path d="M 72 256.32 
L 518.4 256.32 
L 518.4 34.56 
L 72 34.56 
z
" style="fill:#ffffff;"/>
   </g>
   <g id="matplotlib.axis_1">
    <g id="xtick_1">
     <g id="line2d_1">
      <defs>
       <path d="M 0 0 
L 0 3.5 
" id="m97eef93e3e" style="stroke:#000000;stroke-width:0.8;"/>
      </defs>
      <g>
       <use style="stroke:#000000;stroke-width:0.8;" x="92.290909" xlink:href="#m97eef93e3e" y="256.32"/>
      </g>
     </g>
     <g id="text_1">
      <!-- 39000 -->
      <g transform="translate(76.384659 270.918437)scale(0.1 -0.1)">
       <defs>
        <path d="M 2597 2516 
Q 3050 2419 3304 2112 
Q 3559 1806 3559 1356 
Q 3559 666 3084 287 
Q 2609 -91 1734 -91 
Q 1441 -91 1130 -33 
Q 819 25 488 141 
L 488 750 
Q 750 597 1062 519 
Q 1375 441 1716 441 
Q 2309 441 2620 675 
Q 2931 909 2931 1356 
Q 2931 1769 2642 2001 
Q 2353 2234 1838 2234 
L 1294 2234 
L 1294 2753 
L 1863 2753 
Q 2328 2753 2575 2939 
Q 2822 3125 2822 3475 
Q 2822 3834 2567 4026 
Q 2313 4219 1838 4219 
Q 1578 4219 1281 4162 
Q 984 4106 628 3988 
L 628 4550 
Q 988 4650 1302 4700 
Q 1616 4750 1894 4750 
Q 2613 4750 3031 4423 
Q 3450 4097 3450 3541 
Q 3450 3153 3228 2886 
Q 3006 2619 2597 2516 
z
" id="DejaVuSans-33" transform="scale(0.015625)"/>
        <path d="M 703 97 
L 703 672 
Q 941 559 1184 500 
Q 1428 441 1663 441 
Q 2288 441 2617 861 
Q 2947 1281 2994 2138 
Q 2813 1869 2534 1725 
Q 2256 1581 1919 1581 
Q 1219 1581 811 2004 
Q 403 2428 403 3163 
Q 403 3881 828 4315 
Q 1253 4750 1959 4750 
Q 2769 4750 3195 4129 
Q 3622 3509 3622 2328 
Q 3622 1225 3098 567 
Q 2575 -91 1691 -91 
Q 1453 -91 1209 -44 
Q 966 3 703 97 
z
M 1959 2075 
Q 2384 2075 2632 2365 
Q 2881 2656 2881 3163 
Q 2881 3666 2632 3958 
Q 2384 4250 1959 4250 
Q 1534 4250 1286 3958 
Q 1038 3666 1038 3163 
Q 1038 2656 1286 2365 
Q 1534 2075 1959 2075 
z
" id="DejaVuSans-39" transform="scale(0.015625)"/>
        <path d="M 2034 4250 
Q 1547 4250 1301 3770 
Q 1056 3291 1056 2328 
Q 1056 1369 1301 889 
Q 1547 409 2034 409 
Q 2525 409 2770 889 
Q 3016 1369 3016 2328 
Q 3016 3291 2770 3770 
Q 2525 4250 2034 4250 
z
M 2034 4750 
Q 2819 4750 3233 4129 
Q 3647 3509 3647 2328 
Q 3647 1150 3233 529 
Q 2819 -91 2034 -91 
Q 1250 -91 836 529 
Q 422 1150 422 2328 
Q 422 3509 836 4129 
Q 1250 4750 2034 4750 
z
" id="DejaVuSans-30" transform="scale(0.015625)"/>
       </defs>
       <use xlink:href="#DejaVuSans-33"/>
       <use x="63.623047" xlink:href="#DejaVuSans-39"/>
       <use x="127.246094" xlink:href="#DejaVuSans-30"/>
       <use x="190.869141" xlink:href="#DejaVuSans-30"/>
       <use x="254.492188" xlink:href="#DejaVuSans-30"/>
      </g>
     </g>
    </g>
    <g id="xtick_2">
     <g id="line2d_2">
      <g>
       <use style="stroke:#000000;stroke-width:0.8;" x="153.853133" xlink:href="#m97eef93e3e" y="256.32"/>
      </g>
     </g>
     <g id="text_2">
      <!-- 39250 -->
      <g transform="translate(137.946883 270.918437)scale(0.1 -0.1)">
       <defs>
        <path d="M 1228 531 
L 3431 531 
L 3431 0 
L 469 0 
L 469 531 
Q 828 903 1448 1529 
Q 2069 2156 2228 2338 
Q 2531 2678 2651 2914 
Q 2772 3150 2772 3378 
Q 2772 3750 2511 3984 
Q 2250 4219 1831 4219 
Q 1534 4219 1204 4116 
Q 875 4013 500 3803 
L 500 4441 
Q 881 4594 1212 4672 
Q 1544 4750 1819 4750 
Q 2544 4750 2975 4387 
Q 3406 4025 3406 3419 
Q 3406 3131 3298 2873 
Q 3191 2616 2906 2266 
Q 2828 2175 2409 1742 
Q 1991 1309 1228 531 
z
" id="DejaVuSans-32" transform="scale(0.015625)"/>
        <path d="M 691 4666 
L 3169 4666 
L 3169 4134 
L 1269 4134 
L 1269 2991 
Q 1406 3038 1543 3061 
Q 1681 3084 1819 3084 
Q 2600 3084 3056 2656 
Q 3513 2228 3513 1497 
Q 3513 744 3044 326 
Q 2575 -91 1722 -91 
Q 1428 -91 1123 -41 
Q 819 9 494 109 
L 494 744 
Q 775 591 1075 516 
Q 1375 441 1709 441 
Q 2250 441 2565 725 
Q 2881 1009 2881 1497 
Q 2881 1984 2565 2268 
Q 2250 2553 1709 2553 
Q 1456 2553 1204 2497 
Q 953 2441 691 2322 
L 691 4666 
z
" id="DejaVuSans-35" transform="scale(0.015625)"/>
       </defs>
       <use xlink:href="#DejaVuSans-33"/>
       <use x="63.623047" xlink:href="#DejaVuSans-39"/>
       <use x="127.246094" xlink:href="#DejaVuSans-32"/>
       <use x="190.869141" xlink:href="#DejaVuSans-35"/>
       <use x="254.492188" xlink:href="#DejaVuSans-30"/>
      </g>
     </g>
    </g>
    <g id="xtick_3">
     <g id="line2d_3">
      <g>
       <use style="stroke:#000000;stroke-width:0.8;" x="215.415357" xlink:href="#m97eef93e3e" y="256.32"/>
      </g>
     </g>
     <g id="text_3">
      <!-- 39500 -->
      <g transform="translate(199.509107 270.918437)scale(0.1 -0.1)">
       <use xlink:href="#DejaVuSans-33"/>
       <use x="63.623047" xlink:href="#DejaVuSans-39"/>
       <use x="127.246094" xlink:href="#DejaVuSans-35"/>
       <use x="190.869141" xlink:href="#DejaVuSans-30"/>
       <use x="254.492188" xlink:href="#DejaVuSans-30"/>
      </g>
     </g>
    </g>
    <g id="xtick_4">
     <g id="line2d_4">
      <g>
       <use style="stroke:#000000;stroke-width:0.8;" x="276.977582" xlink:href="#m97eef93e3e" y="256.32"/>
      </g>
     </g>
     <g id="text_4">
      <!-- 39750 -->
      <g transform="translate(261.071332 270.918437)scale(0.1 -0.1)">
       <defs>
        <path d="M 525 4666 
L 3525 4666 
L 3525 4397 
L 1831 0 
L 1172 0 
L 2766 4134 
L 525 4134 
L 525 4666 
z
" id="DejaVuSans-37" transform="scale(0.015625)"/>
       </defs>
       <use xlink:href="#DejaVuSans-33"/>
       <use x="63.623047" xlink:href="#DejaVuSans-39"/>
       <use x="127.246094" xlink:href="#DejaVuSans-37"/>
       <use x="190.869141" xlink:href="#DejaVuSans-35"/>
       <use x="254.492188" xlink:href="#DejaVuSans-30"/>
      </g>
     </g>
    </g>
    <g id="xtick_5">
     <g id="line2d_5">
      <g>
       <use style="stroke:#000000;stroke-width:0.8;" x="338.539806" xlink:href="#m97eef93e3e" y="256.32"/>
      </g>
     </g>
     <g id="text_5">
      <!-- 40000 -->
      <g transform="translate(322.633556 270.918437)scale(0.1 -0.1)">
       <defs>
        <path d="M 2419 4116 
L 825 1625 
L 2419 1625 
L 2419 4116 
z
M 2253 4666 
L 3047 4666 
L 3047 1625 
L 3713 1625 
L 3713 1100 
L 3047 1100 
L 3047 0 
L 2419 0 
L 2419 1100 
L 313 1100 
L 313 1709 
L 2253 4666 
z
" id="DejaVuSans-34" transform="scale(0.015625)"/>
       </defs>
       <use xlink:href="#DejaVuSans-34"/>
       <use x="63.623047" xlink:href="#DejaVuSans-30"/>
       <use x="127.246094" xlink:href="#DejaVuSans-30"/>
       <use x="190.869141" xlink:href="#DejaVuSans-30"/>
       <use x="254.492188" xlink:href="#DejaVuSans-30"/>
      </g>
     </g>
    </g>
    <g id="xtick_6">
     <g id="line2d_6">
      <g>
       <use style="stroke:#000000;stroke-width:0.8;" x="400.10203" xlink:href="#m97eef93e3e" y="256.32"/>
      </g>
     </g>
     <g id="text_6">
      <!-- 40250 -->
      <g transform="translate(384.19578 270.918437)scale(0.1 -0.1)">
       <use xlink:href="#DejaVuSans-34"/>
       <use x="63.623047" xlink:href="#DejaVuSans-30"/>
       <use x="127.246094" xlink:href="#DejaVuSans-32"/>
       <use x="190.869141" xlink:href="#DejaVuSans-35"/>
       <use x="254.492188" xlink:href="#DejaVuSans-30"/>
      </g>
     </g>
    </g>
    <g id="xtick_7">
     <g id="line2d_7">
      <g>
       <use style="stroke:#000000;stroke-width:0.8;" x="461.664254" xlink:href="#m97eef93e3e" y="256.32"/>
      </g>
     </g>
     <g id="text_7">
      <!-- 40500 -->
      <g transform="translate(445.758004 270.918437)scale(0.1 -0.1)">
       <use xlink:href="#DejaVuSans-34"/>
       <use x="63.623047" xlink:href="#DejaVuSans-30"/>
       <use x="127.246094" xlink:href="#DejaVuSans-35"/>
       <use x="190.869141" xlink:href="#DejaVuSans-30"/>
       <use x="254.492188" xlink:href="#DejaVuSans-30"/>
      </g>
     </g>
    </g>
   </g>
   <g id="matplotlib.axis_2">
    <g id="ytick_1">
     <g id="line2d_8">
      <defs>
       <path d="M 0 0 
L -3.5 0 
" id="m0b654d412a" style="stroke:#000000;stroke-width:0.8;"/>
      </defs>
      <g>
       <use style="stroke:#000000;stroke-width:0.8;" x="72" xlink:href="#m0b654d412a" y="246.240037"/>
      </g>
     </g>
     <g id="text_8">
      <!-- 0 -->
      <g transform="translate(58.6375 250.039255)scale(0.1 -0.1)">
       <use xlink:href="#DejaVuSans-30"/>
      </g>
     </g>
    </g>
    <g id="ytick_2">
     <g id="line2d_9">
      <g>
       <use style="stroke:#000000;stroke-width:0.8;" x="72" xlink:href="#m0b654d412a" y="217.350911"/>
      </g>
     </g>
     <g id="text_9">
      <!-- 250 -->
      <g transform="translate(45.9125 221.150129)scale(0.1 -0.1)">
       <use xlink:href="#DejaVuSans-32"/>
       <use x="63.623047" xlink:href="#DejaVuSans-35"/>
       <use x="127.246094" xlink:href="#DejaVuSans-30"/>
      </g>
     </g>
    </g>
    <g id="ytick_3">
     <g id="line2d_10">
      <g>
       <use style="stroke:#000000;stroke-width:0.8;" x="72" xlink:href="#m0b654d412a" y="188.461785"/>
      </g>
     </g>
     <g id="text_10">
      <!-- 500 -->
      <g transform="translate(45.9125 192.261003)scale(0.1 -0.1)">
       <use xlink:href="#DejaVuSans-35"/>
       <use x="63.623047" xlink:href="#DejaVuSans-30"/>
       <use x="127.246094" xlink:href="#DejaVuSans-30"/>
      </g>
     </g>
    </g>
    <g id="ytick_4">
     <g id="line2d_11">
      <g>
       <use style="stroke:#000000;stroke-width:0.8;" x="72" xlink:href="#m0b654d412a" y="159.572658"/>
      </g>
     </g>
     <g id="text_11">
      <!-- 750 -->
      <g transform="translate(45.9125 163.371877)scale(0.1 -0.1)">
       <use xlink:href="#DejaVuSans-37"/>
       <use x="63.623047" xlink:href="#DejaVuSans-35"/>
       <use x="127.246094" xlink:href="#DejaVuSans-30"/>
      </g>
     </g>
    </g>
    <g id="ytick_5">
     <g id="line2d_12">
      <g>
       <use style="stroke:#000000;stroke-width:0.8;" x="72" xlink:href="#m0b654d412a" y="130.683532"/>
      </g>
     </g>
     <g id="text_12">
      <!-- 1000 -->
      <g transform="translate(39.55 134.482751)scale(0.1 -0.1)">
       <defs>
        <path d="M 794 531 
L 1825 531 
L 1825 4091 
L 703 3866 
L 703 4441 
L 1819 4666 
L 2450 4666 
L 2450 531 
L 3481 531 
L 3481 0 
L 794 0 
L 794 531 
z
" id="DejaVuSans-31" transform="scale(0.015625)"/>
       </defs>
       <use xlink:href="#DejaVuSans-31"/>
       <use x="63.623047" xlink:href="#DejaVuSans-30"/>
       <use x="127.246094" xlink:href="#DejaVuSans-30"/>
       <use x="190.869141" xlink:href="#DejaVuSans-30"/>
      </g>
     </g>
    </g>
    <g id="ytick_6">
     <g id="line2d_13">
      <g>
       <use style="stroke:#000000;stroke-width:0.8;" x="72" xlink:href="#m0b654d412a" y="101.794406"/>
      </g>
     </g>
     <g id="text_13">
      <!-- 1250 -->
      <g transform="translate(39.55 105.593625)scale(0.1 -0.1)">
       <use xlink:href="#DejaVuSans-31"/>
       <use x="63.623047" xlink:href="#DejaVuSans-32"/>
       <use x="127.246094" xlink:href="#DejaVuSans-35"/>
       <use x="190.869141" xlink:href="#DejaVuSans-30"/>
      </g>
     </g>
    </g>
    <g id="ytick_7">
     <g id="line2d_14">
      <g>
       <use style="stroke:#000000;stroke-width:0.8;" x="72" xlink:href="#m0b654d412a" y="72.90528"/>
      </g>
     </g>
     <g id="text_14">
      <!-- 1500 -->
      <g transform="translate(39.55 76.704499)scale(0.1 -0.1)">
       <use xlink:href="#DejaVuSans-31"/>
       <use x="63.623047" xlink:href="#DejaVuSans-35"/>
       <use x="127.246094" xlink:href="#DejaVuSans-30"/>
       <use x="190.869141" xlink:href="#DejaVuSans-30"/>
      </g>
     </g>
    </g>
    <g id="ytick_8">
     <g id="line2d_15">
      <g>
       <use style="stroke:#000000;stroke-width:0.8;" x="72" xlink:href="#m0b654d412a" y="44.016154"/>
      </g>
     </g>
     <g id="text_15">
      <!-- 1750 -->
      <g transform="translate(39.55 47.815373)scale(0.1 -0.1)">
       <use xlink:href="#DejaVuSans-31"/>
       <use x="63.623047" xlink:href="#DejaVuSans-37"/>
       <use x="127.246094" xlink:href="#DejaVuSans-35"/>
       <use x="190.869141" xlink:href="#DejaVuSans-30"/>
      </g>
     </g>
    </g>
   </g>
   <g id="line2d_16">
    <path clip-path="url(#pf2140c76e5)" d="M 92.290909 246.142058 
L 93.522154 246.156886 
L 94.507149 246.050237 
L 94.999647 246.053363 
L 95.492145 246.171834 
L 98.447132 246.153949 
L 98.69338 245.972407 
L 99.432127 245.972407 
L 99.678376 246.185181 
L 103.372109 246.16911 
L 103.864607 245.798706 
L 104.110856 246.01195 
L 104.357105 245.798706 
L 104.849603 246.042278 
L 105.095852 245.897449 
L 105.342101 245.897449 
L 105.58835 246.062822 
L 108.050838 246.138884 
L 108.789585 246.187501 
L 110.513327 246.077189 
L 114.945808 246.028604 
L 115.438305 245.892026 
L 115.930803 245.892026 
L 116.177052 246.030277 
L 119.378288 246.112279 
L 120.117034 246.172447 
L 121.10203 246.024558 
L 122.333274 245.929696 
L 122.579523 246.145942 
L 123.31827 246.154596 
L 124.795763 246.161604 
L 125.042012 246.115418 
L 125.53451 246.187392 
L 125.288261 246.187392 
L 125.780759 246.191898 
L 125.53451 246.191898 
L 126.027008 245.897507 
L 126.765755 245.948838 
L 127.012004 245.956109 
L 127.258252 246.170656 
L 127.75075 246.08077 
L 128.243248 246.150672 
L 129.228244 246.04724 
L 129.720741 245.940899 
L 130.459488 246.050237 
L 131.936981 246.156606 
L 132.18323 245.855978 
L 132.921977 245.855978 
L 133.660724 246.19443 
L 134.153222 246.104379 
L 134.39947 246.104379 
L 134.645719 245.955815 
L 134.891968 246.128337 
L 136.615711 246.146165 
L 136.861959 246.00824 
L 137.108208 246.162258 
L 137.846955 246.058242 
L 138.339453 246.012217 
L 139.324448 246.115007 
L 141.29444 246.143572 
L 141.540688 245.92705 
L 142.771933 245.841869 
L 143.018182 246.027433 
L 144.249426 246.033158 
L 144.495675 246.148152 
L 144.988173 246.031623 
L 145.973169 246.007974 
L 146.219417 245.334253 
L 146.958164 245.362488 
L 147.204413 245.798706 
L 147.450662 245.802516 
L 147.696911 246.080398 
L 148.435658 246.177949 
L 149.420653 246.135375 
L 151.144395 246.059923 
L 151.636893 246.165475 
L 157.793116 246.126731 
L 158.285613 246.042706 
L 161.2406 245.938498 
L 161.733098 245.922163 
L 162.225596 246.044155 
L 162.964342 246.032598 
L 163.210591 245.463947 
L 163.45684 246.063335 
L 165.919329 246.089999 
L 166.165578 245.470507 
L 166.411827 243.977152 
L 166.658076 245.470507 
L 166.904325 245.622922 
L 167.396823 245.660954 
L 167.643071 246.062169 
L 168.381818 246.091333 
L 168.628067 245.956695 
L 169.366814 246.058483 
L 169.859312 246.161279 
L 170.351809 246.085131 
L 172.568049 246.130658 
L 172.814298 245.968125 
L 173.306796 246.072103 
L 174.291792 246.063778 
L 174.538041 245.903697 
L 174.784289 245.903697 
L 175.030538 246.063778 
L 176.754281 246.05309 
L 177.739276 246.024558 
L 178.724272 246.169856 
L 178.970521 246.111234 
L 179.21677 246.169856 
L 179.955516 246.065803 
L 182.664254 245.982163 
L 183.64925 245.946737 
L 183.403001 245.62997 
L 183.895499 245.62997 
L 184.141748 245.501488 
L 184.387996 243.950687 
L 183.64925 243.950687 
L 185.126743 243.950687 
L 185.372992 245.448322 
L 185.619241 245.448322 
L 185.86549 245.606813 
L 186.111739 245.606813 
L 186.357988 245.874776 
L 187.096734 246.009206 
L 193.252957 245.94395 
L 193.499206 245.375786 
L 193.991703 245.375786 
L 194.73045 245.870711 
L 195.222948 245.681643 
L 195.715446 245.793271 
L 196.94669 245.775185 
L 197.192939 245.927962 
L 198.177935 245.873635 
L 197.685437 245.789347 
L 199.901677 245.892061 
L 200.394175 246.003893 
L 202.117917 246.019139 
L 202.856664 245.899005 
L 203.102913 245.688377 
L 202.856664 245.563404 
L 203.349162 245.563404 
L 203.59541 245.688377 
L 203.841659 245.384312 
L 204.087908 245.75565 
L 204.334157 245.75565 
L 204.580406 245.946685 
L 206.550397 245.855946 
L 206.796646 245.727578 
L 207.042895 245.727578 
L 207.535393 245.855946 
L 208.520388 246.102141 
L 211.475375 245.991072 
L 214.430362 246.016781 
L 215.169109 246.016781 
L 216.154104 245.820181 
L 216.400353 245.820181 
L 216.646602 246.07188 
L 219.601589 246.074367 
L 219.847838 245.903516 
L 220.832833 245.96166 
L 221.817829 245.958329 
L 222.064078 246.091392 
L 226.496558 245.993772 
L 227.235305 245.975572 
L 227.481553 245.673188 
L 227.727802 245.987817 
L 228.712798 246.003522 
L 228.959047 245.827522 
L 229.451545 245.916818 
L 229.944042 245.827522 
L 230.682789 246.050003 
L 242.256487 246.121487 
L 242.502736 245.849646 
L 243.733981 245.782052 
L 243.980229 246.004047 
L 244.472727 245.951924 
L 245.457723 246.080307 
L 245.703972 246.080307 
L 246.442718 245.82354 
L 247.427714 245.82354 
L 247.920212 245.951071 
L 250.62895 245.959827 
L 250.875199 246.06988 
L 253.337688 245.916818 
L 254.076434 245.983274 
L 255.553928 246.062212 
L 256.046425 246.111596 
L 257.27767 246.035459 
L 261.217652 245.956804 
L 261.463901 245.829885 
L 262.448897 245.931906 
L 262.695146 246.141318 
L 262.941395 246.141318 
L 263.187643 245.997307 
L 267.373875 246.00522 
L 268.112621 246.106605 
L 268.851368 245.987044 
L 270.821359 246.06312 
L 271.313857 246.102829 
L 272.052604 245.997464 
L 272.79135 246.021353 
L 273.037599 245.872514 
L 273.283848 246.021353 
L 273.530097 245.81409 
L 273.776346 245.81409 
L 274.022595 245.951369 
L 275.992586 245.884971 
L 276.485084 245.782052 
L 278.208826 245.866329 
L 279.68632 246.060049 
L 280.671315 246.056766 
L 280.917564 245.829084 
L 281.163813 246.056766 
L 280.917564 245.829084 
L 282.395057 245.818 
L 282.148808 245.880242 
L 282.887555 245.880242 
L 283.133804 245.686294 
L 285.103795 245.69552 
L 285.350044 245.973865 
L 285.596293 245.973865 
L 285.842542 245.69552 
L 286.088791 245.69552 
L 286.581289 245.444891 
L 286.827538 245.503057 
L 287.073786 245.726088 
L 287.812533 245.883542 
L 290.76752 245.982507 
L 291.506267 246.163577 
L 291.752515 246.008975 
L 292.245013 245.981648 
L 292.737511 245.73214 
L 293.230009 245.681268 
L 293.476258 245.73214 
L 293.722507 246.158697 
L 294.215004 246.127712 
L 294.461253 245.787036 
L 296.184996 245.857388 
L 296.677493 245.922129 
L 296.923742 245.922129 
L 296.677493 245.821854 
L 297.908738 245.799012 
L 298.154987 246.012303 
L 301.109974 246.008968 
L 301.356222 246.158547 
L 301.84872 245.959976 
L 303.326214 246.039172 
L 304.557458 246.136067 
L 304.803707 246.050755 
L 305.296205 246.050755 
L 306.2812 246.013285 
L 306.773698 245.934269 
L 312.929921 245.862856 
L 313.176169 244.77478 
L 313.422418 244.77478 
L 313.668667 244.522939 
L 314.161165 245.840952 
L 314.899912 245.863951 
L 315.146161 246.002025 
L 315.884907 245.959809 
L 316.623654 245.920577 
L 316.131156 245.847072 
L 317.854898 246.05697 
L 318.101147 245.851991 
L 320.071139 245.883454 
L 322.287379 246.015806 
L 326.966108 245.927837 
L 327.704854 245.892576 
L 327.212357 245.927688 
L 327.951103 246.046569 
L 328.443601 245.866556 
L 328.936099 245.866556 
L 329.182348 246.064653 
L 330.167343 246.051875 
L 330.413592 245.925965 
L 330.659841 246.051875 
L 330.90609 245.879309 
L 331.152339 246.051875 
L 336.816064 245.982036 
L 337.308561 245.877645 
L 337.801059 245.973303 
L 340.017299 245.999271 
L 340.509797 246.106042 
L 341.741041 246.079927 
L 342.233539 246.24 
L 342.726037 246.134143 
L 343.218535 246.027063 
L 344.449779 246.051482 
L 344.942277 246.169543 
L 345.188526 246.153103 
L 344.942277 246.153103 
L 345.927273 245.90903 
L 346.912268 245.944714 
L 348.143513 245.81409 
L 348.389762 246.043973 
L 348.636011 244.907985 
L 348.882259 246.090188 
L 349.621006 245.91313 
L 350.113504 245.995583 
L 350.852251 246.053008 
L 352.575993 246.039743 
L 356.269726 246.09791 
L 357.008473 246.090635 
L 357.254722 245.927837 
L 358.239718 245.976464 
L 358.485966 246.036593 
L 358.978464 245.976464 
L 358.239718 245.976464 
L 362.1797 246.075811 
L 362.918447 246.075811 
L 363.164695 245.976463 
L 363.410944 246.104758 
L 364.149691 246.063335 
L 364.642189 245.961429 
L 364.888438 245.961429 
L 365.134687 245.684348 
L 365.380936 245.860076 
L 365.627184 245.860076 
L 366.119682 246.050227 
L 375.723389 245.990447 
L 375.969638 245.829984 
L 376.215887 246.04394 
L 381.140865 245.968021 
L 381.387114 245.852626 
L 381.633363 245.968021 
L 382.125861 245.858459 
L 382.618358 245.987451 
L 386.312092 246.081612 
L 386.558341 246.149884 
L 386.80459 245.964792 
L 387.050838 246.050237 
L 387.543336 245.89067 
L 387.789585 245.822941 
L 388.035834 245.898223 
L 388.282083 244.652553 
L 388.528332 242.16988 
L 389.02083 242.16988 
L 389.267079 245.436797 
L 389.759576 245.732696 
L 390.252074 245.986991 
L 393.207061 245.946514 
L 393.45331 245.87148 
L 393.945808 246.066153 
L 395.177052 246.108012 
L 395.66955 245.982069 
L 398.624537 246.084103 
L 398.378288 246.094521 
L 401.579523 246.027063 
L 402.31827 246.100577 
L 402.810768 245.968021 
L 403.303266 246.178223 
L 404.288261 246.071309 
L 404.780759 246.103484 
L 406.012004 246.061937 
L 406.75075 245.986169 
L 407.243248 246.079997 
L 407.981995 246.097625 
L 408.228244 245.97806 
L 409.213239 246.013949 
L 410.444484 245.99313 
L 411.18323 246.159988 
L 411.675728 246.056607 
L 412.660724 246.091681 
L 414.630715 245.981873 
L 415.615711 245.980029 
L 416.108208 246.097053 
L 419.801942 246.17035 
L 420.29444 246.029672 
L 422.51068 246.112166 
L 423.003177 246.210731 
L 427.928155 246.151518 
L 428.174404 246.078489 
L 428.913151 246.204883 
L 431.868138 246.108419 
L 432.360635 246.169698 
L 432.853133 246.111118 
L 433.099382 245.994641 
L 433.345631 246.111118 
L 433.838129 245.941371 
L 434.576876 246.0338 
L 435.069373 246.104777 
L 435.561871 246.004816 
L 439.009356 246.208722 
L 439.255605 246.062129 
L 440.2406 246.107059 
L 442.210591 246.127484 
L 447.874316 246.022824 
L 448.366814 245.965142 
L 449.351809 246.069914 
L 451.075552 246.14161 
L 455.261783 246.039327 
L 456.493027 246.026422 
L 457.231774 246.129645 
L 465.111739 246.050942 
L 465.357988 245.877349 
L 466.342983 245.917645 
L 467.327979 246.077802 
L 467.574228 245.981729 
L 467.820477 246.172755 
L 468.066726 246.037796 
L 472.991703 245.973861 
L 473.237952 246.156897 
L 474.469197 246.113792 
L 474.961695 246.012219 
L 475.454192 245.973303 
L 475.94669 246.095063 
L 476.685437 246.193959 
L 478.409179 246.11116 
L 481.117917 246.003598 
L 482.59541 246.030623 
L 484.319153 246.08331 
L 485.057899 246.174975 
L 486.535393 246.132995 
L 486.781642 245.996097 
L 487.766637 246.051158 
L 488.259135 246.124871 
L 493.184113 246.063494 
L 493.430362 245.990715 
L 493.676611 246.137931 
L 494.415357 246.137931 
L 494.661606 246.004032 
L 495.400353 246.004032 
L 495.646602 245.855924 
L 496.877846 245.962631 
L 497.370344 246.068327 
L 497.862842 246.126862 
L 498.109091 246.189756 
L 498.109091 246.189756 
" style="fill:none;stroke:#1f77b4;stroke-linecap:square;stroke-width:1.5;"/>
   </g>
   <g id="line2d_17">
    <path clip-path="url(#pf2140c76e5)" d="M 92.290909 242.914875 
L 92.537158 243.258725 
L 92.290909 242.111919 
L 93.029656 237.582324 
L 93.275905 240.07961 
L 93.522154 240.522361 
L 93.768402 230.193891 
L 94.014651 235.579502 
L 94.2609 227.722461 
L 94.014651 234.343787 
L 94.507149 237.65445 
L 94.753398 235.353589 
L 94.999647 234.203159 
L 95.245896 240.169533 
L 95.492145 243.292953 
L 95.738394 243.447764 
L 95.984643 244.075122 
L 96.230891 244.350098 
L 96.47714 245.196895 
L 96.723389 243.886895 
L 96.969638 245.029001 
L 97.462136 239.040865 
L 97.708385 240.002989 
L 97.954634 229.934205 
L 98.200883 235.449659 
L 98.447132 227.65754 
L 98.69338 238.847056 
L 98.939629 239.906085 
L 99.185878 241.75433 
L 99.432127 242.678452 
L 99.678376 242.627674 
L 99.924625 244.214067 
L 100.170874 243.908321 
L 100.417123 244.957957 
L 100.90962 245.863247 
L 101.155869 244.220071 
L 101.402118 243.911323 
L 101.648367 243.244109 
L 101.894616 243.423342 
L 102.140865 244.789168 
L 102.387114 245.413309 
L 102.633363 240.331961 
L 102.879612 240.648537 
L 103.125861 241.612716 
L 103.372109 230.739068 
L 103.618358 238.216341 
L 103.864607 240.909458 
L 104.110856 241.743177 
L 104.357105 242.160036 
L 104.603354 243.748675 
L 104.849603 243.675625 
L 105.342101 245.520357 
L 105.834598 236.719107 
L 106.080847 240.160841 
L 106.327096 236.606785 
L 106.819594 241.597208 
L 107.065843 243.26162 
L 107.312092 243.432097 
L 107.558341 244.610406 
L 108.297087 243.215714 
L 108.789585 245.315512 
L 109.035834 244.459044 
L 109.282083 232.162232 
L 109.528332 228.873912 
L 109.774581 235.725404 
L 110.02083 227.795412 
L 110.267079 235.186154 
L 110.759576 241.653053 
L 111.005825 242.627814 
L 111.252074 242.602355 
L 111.498323 243.102465 
L 111.744572 244.450586 
L 111.990821 244.802342 
L 112.23707 243.689619 
L 112.483319 243.133257 
L 112.729568 239.829615 
L 112.975816 241.716095 
L 113.222065 239.121034 
L 113.468314 240.242129 
L 113.714563 241.922352 
L 113.960812 240.838234 
L 114.207061 241.946465 
L 114.45331 240.043245 
L 114.699559 243.122104 
L 114.945808 244.03149 
L 115.192056 241.472622 
L 115.438305 240.701614 
L 115.684554 188.523708 
L 116.177052 237.815782 
L 116.423301 241.048852 
L 116.66955 228.159357 
L 116.915799 235.368126 
L 117.162048 236.912891 
L 117.408297 237.685274 
L 117.900794 243.282714 
L 118.147043 244.580662 
L 118.639541 242.831535 
L 118.88579 242.704215 
L 119.132039 189.525008 
L 119.378288 215.245061 
L 119.624537 228.910978 
L 119.870786 236.256777 
L 120.117034 239.416836 
L 120.363283 240.996866 
L 120.609532 241.603724 
L 120.855781 234.764027 
L 121.10203 238.589475 
L 121.348279 213.982432 
L 121.594528 170.184461 
L 121.840777 207.268737 
L 122.333274 229.310288 
L 122.579523 207.796949 
L 123.072021 232.852456 
L 123.31827 228.556823 
L 123.564519 237.377452 
L 124.057017 243.013705 
L 124.303266 243.299646 
L 124.795763 243.45111 
L 125.042012 244.651224 
L 125.288261 244.126899 
L 125.53451 240.06399 
L 125.288261 238.032535 
L 125.53451 240.304715 
L 126.027008 241.440805 
L 126.273257 243.442254 
L 126.519506 243.009574 
L 126.765755 244.479443 
L 127.012004 243.528169 
L 127.504501 242.824015 
L 127.75075 242.700455 
L 127.996999 243.151515 
L 127.75075 243.377045 
L 128.243248 243.48981 
L 128.489497 244.768525 
L 128.981995 243.381223 
L 129.228244 226.669033 
L 129.474492 236.298524 
L 129.96699 242.618208 
L 130.213239 242.881957 
L 130.459488 244.308366 
L 130.705737 243.00549 
L 130.951986 243.304032 
L 131.198235 244.503616 
L 131.444484 243.540256 
L 131.690733 243.058576 
L 131.936981 244.384074 
L 132.18323 242.357909 
L 132.675728 245.051461 
L 132.921977 244.327018 
L 133.168226 245.054535 
L 133.414475 244.328555 
L 133.660724 245.249073 
L 133.906973 243.912984 
L 134.153222 243.75778 
L 134.645719 245.766581 
L 134.891968 244.171738 
L 135.138217 243.374317 
L 135.384466 243.488446 
L 135.630715 244.643576 
L 135.876964 244.123076 
L 136.123213 245.016715 
L 136.369462 244.309645 
L 136.615711 245.045849 
L 136.861959 236.48509 
L 137.108208 241.07638 
L 137.354457 242.757436 
L 137.600706 240.835595 
L 137.354457 242.219085 
L 137.846955 244.096356 
L 138.093204 243.336626 
L 138.339453 243.649531 
L 138.585702 244.719122 
L 138.831951 245.250587 
L 139.324448 243.159014 
L 139.570697 243.380795 
L 139.816946 244.163979 
L 140.309444 243.093117 
L 140.555693 244.648261 
L 141.048191 243.612578 
L 141.540688 245.125223 
L 141.786937 227.366924 
L 142.279435 239.736458 
L 142.525684 241.156677 
L 142.771933 225.199494 
L 143.264431 242.040923 
L 143.51068 241.826917 
L 143.264431 243.84068 
L 143.756929 244.819693 
L 144.003177 243.698294 
L 144.249426 244.889532 
L 144.495675 227.249078 
L 144.741924 238.19547 
L 144.988173 242.516775 
L 145.480671 244.074902 
L 145.72692 240.922878 
L 145.973169 206.950045 
L 146.465666 234.705419 
L 146.711915 231.314875 
L 146.958164 238.044827 
L 147.204413 236.925529 
L 147.450662 239.751212 
L 147.696911 241.164054 
L 147.94316 243.674434 
L 148.681906 245.418749 
L 148.928155 245.608728 
L 149.174404 242.993869 
L 149.420653 235.4591 
L 149.666902 239.017998 
L 149.913151 240.797447 
L 150.405649 242.644873 
L 150.651898 234.700058 
L 150.898147 237.722691 
L 150.651898 239.234008 
L 151.144395 241.144352 
L 151.390644 243.353015 
L 151.636893 244.543895 
L 152.129391 245.436069 
L 152.621889 245.905257 
L 153.114387 243.665406 
L 153.360635 244.732056 
L 153.606884 241.830064 
L 153.853133 242.716319 
L 154.345631 239.545862 
L 154.59188 240.450855 
L 154.838129 242.979132 
L 155.084378 240.946443 
L 155.576876 242.611677 
L 155.823124 239.03798 
L 156.069373 242.174142 
L 156.315622 242.375519 
L 156.561871 244.256901 
L 156.80812 243.196615 
L 157.300618 245.433153 
L 157.546867 236.678742 
L 157.793116 241.34466 
L 158.039365 44.64 
L 158.285613 143.608448 
L 158.778111 202.266433 
L 159.02436 222.421664 
L 159.270609 233.01212 
L 159.516858 237.794508 
L 160.009356 224.108468 
L 159.516858 217.265448 
L 160.255605 195.121331 
L 160.501853 202.364978 
L 160.748102 205.986801 
L 160.994351 225.317084 
L 161.486849 238.683204 
L 161.733098 240.63005 
L 161.979347 241.603473 
L 162.225596 243.188177 
L 162.471845 243.446214 
L 162.718094 244.73279 
L 162.964342 227.170707 
L 163.210591 200.262366 
L 163.45684 195.777642 
L 163.949338 97.301778 
L 164.195587 140.513507 
L 164.688085 188.332094 
L 164.934334 216.701522 
L 165.180583 231.305938 
L 165.426831 232.402307 
L 165.67308 224.949149 
L 165.919329 231.125799 
L 166.165578 231.883761 
L 166.411827 233.287955 
L 166.658076 238.549514 
L 166.904325 241.33115 
L 167.150574 241.954023 
L 167.643071 242.421177 
L 168.135569 239.75168 
L 168.381818 151.417329 
L 168.628067 196.997112 
L 168.874316 219.787004 
L 169.120565 231.18195 
L 169.366814 220.395287 
L 169.613063 233.281659 
L 169.859312 239.424077 
L 170.10556 242.020837 
L 170.351809 231.186336 
L 170.598058 233.218475 
L 170.844307 239.651647 
L 171.090556 242.939969 
L 171.336805 226.274297 
L 171.583054 230.047823 
L 171.829303 236.312359 
L 172.075552 235.617673 
L 172.321801 149.350325 
L 172.568049 196.333702 
L 172.814298 217.03358 
L 173.060547 195.005397 
L 173.306796 218.791146 
L 173.799294 237.878223 
L 174.045543 232.901277 
L 174.538041 240.396891 
L 174.784289 242.824398 
L 175.030538 243.055144 
L 175.276787 244.40161 
L 175.523036 243.033074 
L 175.769285 238.042901 
L 176.015534 229.320475 
L 176.261783 224.776105 
L 176.508032 235.108322 
L 176.754281 237.011038 
L 177.246778 242.66338 
L 177.493027 236.299767 
L 177.739276 241.009635 
L 177.985525 241.793265 
L 178.231774 242.18508 
L 178.478023 244.170168 
L 178.724272 243.373532 
L 178.970521 241.143643 
L 179.21677 234.533987 
L 179.463019 238.555441 
L 179.709267 233.239886 
L 179.955516 237.908391 
L 180.201765 240.242643 
L 180.448014 224.925634 
L 180.940512 239.049095 
L 181.43301 242.455168 
L 181.679259 241.792291 
L 181.925508 243.754511 
L 182.171756 244.517153 
L 182.418005 243.547024 
L 182.664254 244.058279 
L 182.910503 243.317587 
L 183.156752 243.982477 
L 183.403001 241.09672 
L 183.64925 241.836808 
L 183.403001 242.221388 
L 183.895499 243.769525 
L 184.141748 240.425855 
L 184.387996 241.806637 
L 184.634245 240.869372 
L 183.64925 241.723134 
L 184.880494 242.819742 
L 185.126743 240.866748 
L 185.372992 239.890251 
L 185.619241 241.233573 
L 185.86549 243.505495 
L 186.111739 243.403938 
L 186.357988 242.990417 
L 186.604237 242.919328 
L 186.850485 243.156473 
L 187.096734 243.130151 
L 187.342983 226.182702 
L 187.589232 234.333127 
L 187.835481 238.455011 
L 188.574228 243.886257 
L 188.820477 243.231576 
L 189.066726 226.420101 
L 189.312974 236.250435 
L 189.559223 239.413665 
L 189.805472 224.511145 
L 190.051721 233.54402 
L 190.544219 241.709264 
L 190.790468 242.14308 
L 191.036717 244.091813 
L 191.282966 243.334354 
L 191.529214 244.287171 
L 191.775463 243.432033 
L 192.021712 239.341323 
L 192.51421 242.006903 
L 192.760459 243.178258 
L 193.006708 243.605792 
L 193.252957 242.693725 
L 193.499206 242.521132 
L 193.991703 242.562955 
L 194.237952 244.245782 
L 194.484201 237.408359 
L 194.976699 241.043756 
L 195.222948 225.32619 
L 195.469197 235.522918 
L 195.961695 240.712665 
L 196.207944 242.055689 
L 196.454192 241.286034 
L 196.700441 225.447329 
L 196.94669 234.434783 
L 197.192939 224.682658 
L 197.439188 233.629777 
L 197.931686 241.375351 
L 198.177935 241.976123 
L 197.685437 242.969023 
L 198.424184 242.772959 
L 198.670432 229.853933 
L 198.916681 237.581796 
L 199.16293 241.27309 
L 199.409179 241.924993 
L 199.901677 244.615446 
L 200.147926 244.10901 
L 200.394175 242.427168 
L 200.640424 242.502032 
L 201.132921 244.998237 
L 201.37917 243.054938 
L 201.871668 244.708487 
L 202.117917 243.595728 
L 202.364166 244.785798 
L 202.610415 240.923591 
L 202.856664 242.823922 
L 203.102913 242.797538 
L 202.856664 242.687217 
L 203.349162 241.899428 
L 203.59541 242.238162 
L 203.841659 243.581837 
L 204.087908 243.079366 
L 204.334157 244.424734 
L 204.580406 245.13891 
L 204.826655 243.857903 
L 205.072904 243.730239 
L 205.319153 244.794349 
L 205.565402 240.938266 
L 205.81165 239.252377 
L 206.304148 240.914636 
L 205.81165 241.578653 
L 206.550397 242.590614 
L 206.796646 230.681879 
L 207.289144 240.743019 
L 207.535393 241.659957 
L 207.781642 243.473789 
L 208.027891 243.025342 
L 208.274139 230.900287 
L 208.520388 237.251431 
L 209.012886 242.856429 
L 209.259135 242.716662 
L 209.505384 223.802267 
L 209.751633 231.35801 
L 209.997882 202.167612 
L 210.49038 223.902458 
L 210.736628 198.439835 
L 211.229126 237.288709 
L 211.475375 241.254849 
L 211.721624 241.915872 
L 211.967873 242.246384 
L 212.214122 243.931011 
L 212.460371 244.805623 
L 212.70662 245.209282 
L 212.952868 243.893089 
L 213.445366 245.388406 
L 213.937864 242.696225 
L 214.676611 242.591812 
L 214.92286 242.584354 
L 215.169109 242.946939 
L 215.415357 242.761917 
L 215.661606 243.738194 
L 215.907855 240.410189 
L 216.400353 243.116702 
L 216.646602 242.846799 
L 216.892851 244.257235 
L 217.1391 243.417065 
L 217.385349 244.608762 
L 217.631598 243.592829 
L 217.877846 244.651627 
L 218.124095 243.614261 
L 218.616593 243.095578 
L 218.862842 244.104247 
L 219.109091 243.340571 
L 219.35534 242.958733 
L 219.601589 244.149057 
L 219.847838 243.362976 
L 220.094086 238.528579 
L 219.847838 240.552737 
L 220.340335 236.070104 
L 220.586584 240.713728 
L 220.832833 241.645312 
L 221.079082 243.488566 
L 221.325331 244.422959 
L 221.57158 243.499927 
L 221.817829 243.038411 
L 222.310327 242.807653 
L 222.556575 234.866926 
L 223.049073 242.168774 
L 223.295322 221.643522 
L 223.78782 242.773736 
L 224.034069 244.227257 
L 224.280318 244.669358 
L 224.526567 239.181769 
L 224.772816 237.998821 
L 225.019064 240.287858 
L 225.265313 224.948242 
L 225.511562 235.31451 
L 225.757811 222.461567 
L 226.00406 233.032071 
L 226.496558 241.4587 
L 226.742807 229.505368 
L 226.989056 237.309142 
L 227.481553 241.620107 
L 227.727802 242.098501 
L 227.974051 226.045673 
L 228.2203 232.479714 
L 228.466549 225.623096 
L 228.712798 223.138485 
L 228.959047 232.85769 
L 229.451545 237.674098 
L 229.944042 243.017925 
L 230.190291 242.79741 
L 230.43654 242.87031 
L 230.682789 234.227295 
L 230.929038 236.876104 
L 231.175287 241.286794 
L 231.421536 243.632589 
L 231.667785 243.104742 
L 231.914034 242.840819 
L 232.160282 244.397336 
L 232.406531 245.184506 
L 232.65278 244.39354 
L 232.899029 245.105453 
L 233.145278 243.841174 
L 233.391527 244.599263 
L 233.884025 244.220219 
L 234.130274 240.307818 
L 234.376523 241.442357 
L 234.622771 242.009626 
L 234.86902 236.928261 
L 235.361518 243.096628 
L 235.607767 235.510479 
L 236.100265 242.95929 
L 236.346514 242.768093 
L 236.839011 244.849231 
L 237.08526 244.225903 
L 237.331509 238.753807 
L 237.577758 242.276251 
L 237.331509 242.426573 
L 237.824007 242.501734 
L 238.070256 244.015241 
L 238.316505 243.296068 
L 238.562754 238.69777 
L 238.809003 241.607114 
L 239.055252 241.978063 
L 239.3015 238.614338 
L 239.547749 242.364885 
L 239.793998 242.18911 
L 240.040247 243.832746 
L 240.286496 226.720685 
L 240.778994 239.905716 
L 241.025243 242.93126 
L 241.271492 244.306019 
L 241.763989 245.291813 
L 241.517741 245.394032 
L 242.010238 242.692247 
L 242.502736 230.200451 
L 242.748985 237.427281 
L 242.995234 240.002088 
L 243.733981 243.904715 
L 243.980229 243.240805 
L 244.226478 237.414138 
L 244.472727 241.662246 
L 244.718976 243.819057 
L 245.211474 245.37177 
L 245.457723 241.075524 
L 245.703972 241.82621 
L 245.950221 243.715163 
L 246.19647 243.579454 
L 246.442718 230.074024 
L 246.688967 230.175284 
L 246.935216 237.889721 
L 247.181465 239.830088 
L 247.427714 242.760272 
L 247.920212 242.62274 
L 248.166461 243.940789 
L 248.41271 243.258842 
L 248.658959 244.293122 
L 248.905207 236.323002 
L 249.397705 241.972816 
L 250.136452 244.323077 
L 250.382701 243.449986 
L 250.875199 244.703014 
L 251.367696 243.23544 
L 251.613945 244.335049 
L 251.367696 244.884854 
L 251.860194 243.987882 
L 252.106443 241.94058 
L 252.352692 243.012914 
L 252.84519 232.099395 
L 253.337688 242.02711 
L 253.583936 242.302003 
L 253.830185 243.52344 
L 254.076434 243.050168 
L 254.322683 243.326371 
L 254.568932 226.467498 
L 255.06143 240.39517 
L 255.553928 243.785817 
L 255.800177 243.181356 
L 256.046425 243.483587 
L 256.292674 241.198671 
L 256.538923 243.525878 
L 256.785172 242.814141 
L 257.031421 243.208358 
L 257.27767 242.892627 
L 257.523919 244.345667 
L 257.770168 243.974121 
L 257.523919 235.064852 
L 258.016417 239.982602 
L 258.508914 243.078109 
L 258.755163 232.823495 
L 259.001412 235.868624 
L 259.247661 240.638064 
L 259.49391 225.123345 
L 259.740159 235.265425 
L 260.232657 241.999147 
L 260.478906 243.733369 
L 260.725154 243.155132 
L 260.971403 217.224025 
L 261.217652 229.90046 
L 261.463901 236.238678 
L 261.71015 239.407787 
L 261.956399 240.992341 
L 262.202648 239.037262 
L 262.695146 243.559313 
L 262.941395 244.477004 
L 263.187643 243.52695 
L 263.433892 237.557211 
L 263.92639 242.589985 
L 264.172639 242.58344 
L 264.418888 233.441949 
L 264.665137 238.009422 
L 264.911386 205.493318 
L 265.157635 224.035107 
L 265.403883 233.306001 
L 265.650132 221.457313 
L 265.896381 215.532969 
L 266.388879 238.724958 
L 266.635128 224.166792 
L 266.881377 234.873401 
L 267.127626 239.237988 
L 267.620124 243.275242 
L 267.866372 239.262928 
L 268.605119 242.310141 
L 268.851368 242.443518 
L 269.097617 236.97912 
L 269.343866 239.778008 
L 269.590115 230.308582 
L 270.082613 240.833386 
L 270.328861 243.19483 
L 270.57511 228.496788 
L 270.821359 232.804376 
L 271.067608 239.296923 
L 271.806355 244.636699 
L 272.052604 243.606797 
L 272.298853 235.765564 
L 272.545102 239.079651 
L 272.79135 233.318834 
L 273.037599 239.270666 
L 273.283848 242.443152 
L 273.776346 244.726881 
L 274.022595 244.450669 
L 274.268844 243.513782 
L 274.515093 244.56471 
L 274.761342 243.570803 
L 275.00759 243.073849 
L 275.253839 245.113329 
L 275.500088 241.231123 
L 275.746337 243.111948 
L 275.992586 243.702183 
L 276.238835 242.743517 
L 276.485084 242.660206 
L 276.731333 241.440818 
L 276.977582 236.523156 
L 277.223831 239.366869 
L 276.977582 235.486182 
L 277.716328 240.712638 
L 277.962577 237.981626 
L 278.208826 241.378203 
L 278.455075 242.490389 
L 278.701324 230.628433 
L 279.193822 243.831625 
L 279.440071 206.572848 
L 279.68632 226.008275 
L 279.932568 228.512863 
L 280.178817 237.357371 
L 280.425066 223.482998 
L 280.671315 233.029947 
L 281.163813 241.983935 
L 280.917564 207.480574 
L 281.656311 215.945002 
L 281.90256 217.35574 
L 282.148808 213.482182 
L 282.395057 228.268439 
L 282.148808 218.938532 
L 282.641306 231.041939 
L 282.887555 220.325282 
L 283.133804 231.451089 
L 283.626302 217.395335 
L 283.872551 195.186274 
L 284.365049 230.234716 
L 284.611297 237.954144 
L 284.857546 242.083102 
L 285.103795 233.172146 
L 285.350044 237.874521 
L 285.596293 238.272033 
L 286.33504 242.398996 
L 286.581289 243.159803 
L 286.827538 242.868349 
L 287.812533 231.181783 
L 288.058782 236.803024 
L 288.797529 241.509286 
L 289.290026 243.340914 
L 289.536275 242.958905 
L 289.782524 244.339017 
L 290.028773 243.457956 
L 290.275022 244.758623 
L 290.76752 243.667759 
L 291.013769 244.733233 
L 291.260018 225.339358 
L 291.506267 221.137133 
L 291.752515 231.857014 
L 291.998764 202.417114 
L 292.245013 206.012869 
L 292.98376 236.174822 
L 293.230009 241.194884 
L 293.722507 243.986926 
L 293.968756 243.28191 
L 294.215004 235.023921 
L 294.707502 241.054966 
L 294.953751 241.815931 
L 295.2 242.196413 
L 295.446249 242.899494 
L 295.692498 232.438907 
L 295.938747 237.507901 
L 296.184996 240.042398 
L 296.923742 243.615446 
L 296.677493 243.09617 
L 297.41624 241.755818 
L 298.154987 243.106551 
L 298.401236 226.357588 
L 298.647485 235.383027 
L 299.139982 242.261964 
L 299.386231 243.631402 
L 299.63248 243.104149 
L 299.878729 241.854292 
L 300.124978 243.648997 
L 300.371227 243.112946 
L 300.617476 244.290501 
L 299.878729 226.949563 
L 300.863725 234.27887 
L 301.109974 238.427883 
L 301.602471 240.502389 
L 301.84872 242.390014 
L 302.094969 212.357764 
L 302.341218 227.467329 
L 302.833716 239.707388 
L 303.079965 242.853464 
L 303.326214 243.977146 
L 304.06496 226.792885 
L 304.311209 229.750255 
L 304.557458 236.902917 
L 304.803707 236.076765 
L 305.049956 227.421621 
L 305.296205 236.034494 
L 305.788703 203.822777 
L 306.034951 221.597212 
L 306.527449 236.737089 
L 306.773698 218.593931 
L 307.266196 238.175884 
L 307.512445 240.889229 
L 307.758694 227.848439 
L 308.004943 182.09712 
L 308.251192 212.849847 
L 308.49744 229.460368 
L 308.743689 236.018632 
L 308.989938 204.497922 
L 309.236187 224.572644 
L 309.482436 234.990074 
L 309.728685 234.917589 
L 310.221183 242.913877 
L 310.467432 242.745386 
L 310.71368 232.883173 
L 310.959929 202.930193 
L 311.206178 220.921974 
L 311.452427 196.949593 
L 311.944925 230.254285 
L 312.191174 201.615749 
L 312.437423 205.612187 
L 312.683672 224.094541 
L 312.929921 229.474767 
L 313.176169 237.775055 
L 313.422418 216.251084 
L 313.668667 233.648743 
L 314.161165 240.688277 
L 314.407414 241.632586 
L 314.653663 241.173534 
L 315.146161 242.464956 
L 315.39241 238.253366 
L 315.638658 242.027352 
L 315.884907 230.946386 
L 316.131156 226.662214 
L 316.377405 227.293272 
L 316.623654 208.455628 
L 316.131156 220.977152 
L 316.869903 228.956405 
L 317.116152 236.793465 
L 317.362401 239.68518 
L 317.854898 242.934894 
L 318.347396 242.666395 
L 318.593645 243.870044 
L 318.839894 243.22347 
L 319.086143 231.544445 
L 319.332392 238.033692 
L 319.578641 241.589115 
L 319.82489 234.756723 
L 320.071139 239.968891 
L 320.317387 241.272893 
L 320.563636 243.600365 
L 321.056134 242.704829 
L 321.302383 236.553161 
L 321.548632 240.077868 
L 321.794881 241.327382 
L 322.04113 234.625856 
L 322.287379 238.601376 
L 322.533628 240.589136 
L 322.779876 241.583016 
L 323.026125 242.079955 
L 323.272374 241.695389 
L 323.518623 242.375043 
L 323.764872 241.918535 
L 324.011121 242.247715 
L 324.25737 243.904724 
L 324.503619 243.24081 
L 324.749868 244.206956 
L 324.996117 244.673952 
L 325.242365 243.167531 
L 325.488614 240.005531 
L 325.734863 206.491372 
L 326.227361 232.974064 
L 326.47361 238.874422 
L 326.227361 241.235477 
L 326.719859 241.906186 
L 327.212357 228.295556 
L 327.704854 235.946045 
L 327.212357 228.810949 
L 327.951103 235.414653 
L 328.443601 242.225426 
L 328.68985 243.052588 
L 328.936099 239.443407 
L 329.428597 242.268205 
L 329.674846 242.42255 
L 329.921094 243.534958 
L 329.428597 243.055927 
L 329.921094 243.851647 
L 330.167343 244.859895 
L 330.413592 243.718395 
L 330.659841 244.35435 
L 330.90609 243.978463 
L 331.152339 235.951397 
L 331.398588 239.264146 
L 331.644837 240.920521 
L 331.891086 241.748708 
L 332.137335 228.041942 
L 332.383583 236.441026 
L 332.629832 223.024825 
L 332.876081 233.3137 
L 333.12233 221.461162 
L 333.368579 233.50825 
L 333.614828 210.300154 
L 333.861077 226.438525 
L 334.107326 235.194549 
L 334.353575 239.892261 
L 335.092321 243.551594 
L 335.584819 232.140847 
L 335.831068 238.64097 
L 336.077317 242.040891 
L 336.323566 243.740852 
L 336.569815 243.158874 
L 336.816064 239.059249 
L 337.062312 226.602007 
L 337.55481 238.152489 
L 337.801059 238.533122 
L 338.047308 241.309185 
L 338.293557 205.764484 
L 338.539806 207.686554 
L 338.786055 225.131725 
L 339.032304 233.85431 
L 339.278553 236.384032 
L 339.524801 240.458257 
L 339.77105 241.517576 
L 340.017299 242.047236 
L 340.756046 244.71645 
L 341.002295 244.159513 
L 341.248544 244.767158 
L 341.494793 244.184866 
L 341.741041 244.33026 
L 342.233539 243.976884 
L 342.479788 244.372017 
L 342.726037 236.148174 
L 342.972286 240.947448 
L 343.218535 242.275011 
L 343.464784 242.425953 
L 343.711033 243.222209 
L 343.957282 239.236411 
L 344.20353 240.906653 
L 344.449779 241.741774 
L 344.696028 243.97971 
L 344.942277 244.785923 
L 345.188526 245.123284 
L 344.942277 245.357711 
L 345.434775 244.480143 
L 345.681024 243.528519 
L 345.927273 243.052707 
L 346.173522 243.327641 
L 346.912268 242.865015 
L 347.404766 229.84858 
L 347.651015 149.555125 
L 347.897264 197.231555 
L 348.143513 221.06977 
L 348.389762 215.339198 
L 348.882259 236.679796 
L 349.128508 240.544131 
L 349.374757 242.542528 
L 349.621006 230.288189 
L 349.867255 236.945382 
L 350.359753 242.267959 
L 350.606002 242.422427 
L 350.852251 243.012501 
L 351.0985 243.307538 
L 351.344748 242.026431 
L 351.590997 241.385878 
L 351.837246 243.339275 
L 352.083495 244.179132 
L 351.837246 244.599061 
L 352.329744 243.587978 
L 352.575993 243.082437 
L 352.822242 243.864902 
L 353.31474 229.502295 
L 353.807237 241.45541 
L 354.053486 240.184582 
L 354.299735 242.432918 
L 354.545984 235.178624 
L 354.053486 237.046189 
L 355.038482 241.306159 
L 355.53098 194.515386 
L 356.023477 234.546297 
L 356.762224 241.826894 
L 357.008473 242.201895 
L 357.254722 225.90526 
L 357.500971 225.467347 
L 357.74722 233.637491 
L 357.993469 221.623058 
L 358.239718 224.773694 
L 358.732215 239.481457 
L 358.978464 228.208182 
L 358.239718 233.560968 
L 359.224713 236.237361 
L 359.470962 229.112401 
L 359.717211 236.357488 
L 359.96346 222.983056 
L 360.209709 230.948405 
L 360.455958 234.93108 
L 360.209709 240.346428 
L 360.702207 239.630091 
L 360.948455 241.103493 
L 361.194704 241.840194 
L 361.687202 244.656735 
L 361.933451 244.890951 
L 362.1797 243.733923 
L 362.425949 235.829127 
L 362.918447 242.689671 
L 363.164695 242.633283 
L 363.410944 244.375304 
L 363.657193 226.991964 
L 363.903442 230.438595 
L 364.149691 236.507745 
L 364.39594 239.54232 
L 364.642189 240.143823 
L 365.134687 242.272761 
L 365.380936 242.791143 
L 365.627184 242.684019 
L 365.873433 244.628071 
L 366.119682 243.602483 
L 366.365931 235.763407 
L 366.858429 237.338581 
L 367.597176 244.074586 
L 367.843425 233.73604 
L 368.335922 219.087696 
L 368.582171 234.196753 
L 368.82842 238.910369 
L 369.074669 240.743632 
L 369.320918 232.502411 
L 369.567167 228.3818 
L 369.813416 234.449195 
L 370.059665 203.713204 
L 370.552162 231.639168 
L 370.798411 238.754595 
L 371.04466 237.829808 
L 371.290909 228.114986 
L 371.537158 236.564333 
L 371.783407 206.029666 
L 372.522154 235.579487 
L 373.014651 241.340383 
L 373.2609 241.958639 
L 373.507149 243.659688 
L 374.245896 242.355627 
L 374.492145 242.601933 
L 374.984643 244.954644 
L 375.230891 243.76577 
L 375.47714 244.88649 
L 375.723389 228.869505 
L 375.969638 226.329054 
L 376.462136 241.948381 
L 376.708385 242.262638 
L 376.954634 242.932607 
L 377.200883 231.092427 
L 377.447132 226.028395 
L 377.939629 238.999417 
L 378.432127 242.129711 
L 378.678376 242.866143 
L 379.170874 226.422544 
L 379.417123 239.064371 
L 379.663372 240.820633 
L 380.155869 240.760475 
L 380.402118 206.868844 
L 379.663372 224.72287 
L 380.648367 229.436232 
L 381.140865 201.206722 
L 381.633363 238.456083 
L 381.879612 234.655464 
L 382.125861 240.214923 
L 382.372109 241.395909 
L 382.618358 229.076705 
L 383.110856 239.040239 
L 383.603354 238.416656 
L 383.849603 224.01264 
L 384.095852 234.813249 
L 384.342101 239.207912 
L 384.834598 243.148222 
L 385.080847 242.862559 
L 385.327096 243.232567 
L 385.080847 235.46066 
L 385.573345 222.534643 
L 385.819594 233.967896 
L 386.065843 239.835403 
L 386.558341 242.404362 
L 386.80459 242.790182 
L 387.050838 234.991913 
L 387.297087 239.297244 
L 387.543336 241.17597 
L 387.789585 238.321031 
L 388.035834 232.105142 
L 388.528332 235.572384 
L 388.774581 227.169431 
L 389.02083 202.694025 
L 389.267079 223.1483 
L 389.759576 237.10813 
L 390.252074 242.344417 
L 390.498323 242.460656 
L 390.744572 240.269864 
L 390.990821 241.42338 
L 391.483319 242.801356 
L 391.729568 244.327221 
L 391.975816 232.562968 
L 392.468314 241.260488 
L 392.714563 243.495877 
L 392.960812 229.929283 
L 393.207061 237.497641 
L 393.45331 241.58992 
L 393.699559 243.795528 
L 393.945808 244.826994 
L 394.192056 243.701945 
L 394.438305 244.820862 
L 394.684554 245.266392 
L 394.930803 172.49039 
L 395.177052 190.882018 
L 395.423301 218.352894 
L 395.66955 218.559686 
L 395.915799 231.917869 
L 396.162048 238.400593 
L 396.408297 224.004609 
L 396.654545 216.806617 
L 396.900794 194.891915 
L 397.147043 220.15896 
L 397.639541 238.014429 
L 397.88579 240.808502 
L 398.132039 241.026673 
L 398.378288 243.289276 
L 398.624537 242.933086 
L 398.378288 244.242482 
L 398.624537 243.409689 
L 398.870786 229.644329 
L 399.117034 237.20972 
L 399.363283 241.187752 
L 399.855781 242.742449 
L 400.10203 242.659672 
L 400.348279 233.922243 
L 400.840777 242.103055 
L 401.087026 240.508405 
L 401.333274 241.54265 
L 401.579523 242.059773 
L 401.825772 243.947882 
L 402.31827 245.306512 
L 402.564519 240.278563 
L 402.810768 243.054273 
L 403.303266 226.331449 
L 403.795763 243.51234 
L 404.042012 245.067201 
L 404.288261 244.334888 
L 404.53451 244.433278 
L 404.780759 243.505087 
L 405.519506 244.995102 
L 405.765755 243.785999 
L 406.258252 244.967143 
L 406.504501 243.772019 
L 406.75075 244.658341 
L 406.996999 243.617618 
L 407.243248 244.800446 
L 407.489497 240.773268 
L 407.735746 241.487674 
L 407.981995 242.545125 
L 408.228244 242.665351 
L 408.720741 242.599009 
L 408.96699 233.562797 
L 409.459488 241.345873 
L 409.705737 244.014416 
L 410.198235 245.074965 
L 410.444484 244.33877 
L 410.690733 244.300355 
L 410.936981 244.957996 
L 411.429479 242.256385 
L 411.675728 243.259163 
L 411.921977 240.903485 
L 412.168226 234.413908 
L 412.414475 239.901026 
L 412.660724 240.45345 
L 413.645719 244.71954 
L 414.384466 243.113826 
L 414.876964 244.7464 
L 415.123213 244.713826 
L 415.369462 245.306779 
L 415.615711 243.941837 
L 415.861959 235.933084 
L 416.108208 236.507945 
L 416.354457 241.237983 
L 416.600706 240.052983 
L 416.846955 242.589075 
L 417.339453 243.095825 
L 417.585702 244.503089 
L 417.831951 208.740151 
L 418.078199 236.130862 
L 418.570697 244.460821 
L 418.816946 243.518858 
L 419.063195 243.047877 
L 419.309444 244.245789 
L 419.555693 243.71082 
L 419.801942 243.656698 
L 420.048191 243.116797 
L 420.29444 243.173543 
L 420.786937 242.875219 
L 421.033186 244.02929 
L 421.279435 242.939994 
L 421.525684 244.339203 
L 421.771933 235.919909 
L 422.018182 239.575099 
L 422.264431 241.075997 
L 422.51068 243.494484 
L 422.756929 242.806293 
L 423.003177 244.460337 
L 423.249426 227.034481 
L 423.495675 236.524709 
L 424.234422 244.694149 
L 424.480671 245.349684 
L 424.72692 244.695918 
L 424.973169 244.671642 
L 425.219417 245.327458 
L 425.465666 245.163505 
L 425.711915 245.510982 
L 425.958164 245.45608 
L 426.204413 244.016488 
L 426.450662 245.108581 
L 426.696911 245.615274 
L 426.94316 244.096085 
L 427.189409 244.91543 
L 427.435658 244.259003 
L 427.681906 243.930789 
L 427.928155 244.839564 
L 428.174404 244.22107 
L 428.420653 245.174104 
L 428.666902 245.149636 
L 428.913151 238.767104 
L 429.405649 243.267196 
L 429.651898 243.434886 
L 429.898147 242.680805 
L 430.390644 244.787547 
L 430.636893 236.595289 
L 431.129391 240.098932 
L 431.37564 234.011631 
L 431.621889 239.886933 
L 431.868138 233.905632 
L 432.114387 238.241264 
L 432.360635 223.924944 
L 432.853133 242.113117 
L 433.099382 241.285699 
L 433.345631 231.38211 
L 433.59188 234.503605 
L 433.838129 240.558573 
L 434.084378 241.567734 
L 434.330627 243.678692 
L 434.576876 243.640634 
L 435.069373 237.614053 
L 435.561871 242.715516 
L 435.80812 242.646206 
L 436.054369 243.12439 
L 436.300618 244.249376 
L 436.546867 208.613295 
L 437.039365 234.902932 
L 437.285613 240.4394 
L 437.531862 241.508148 
L 438.02436 244.825018 
L 438.270609 245.439554 
L 438.516858 244.008225 
L 438.763107 244.723889 
L 439.009356 227.166257 
L 439.501853 240.839925 
L 439.748102 242.22125 
L 439.994351 242.744404 
L 440.2406 240.829079 
L 440.486849 242.771403 
L 440.733098 242.674149 
L 440.979347 244.209383 
L 441.225596 243.905979 
L 441.471845 238.07084 
L 441.718094 241.842349 
L 441.964342 243.617606 
L 442.210591 231.735762 
L 442.45684 238.770327 
L 442.703089 242.016763 
L 443.195587 242.506879 
L 443.934334 242.568143 
L 444.180583 235.246237 
L 444.67308 242.383005 
L 444.919329 244.265988 
L 445.165578 243.421442 
L 445.411827 244.713331 
L 445.658076 243.645113 
L 445.904325 240.362458 
L 446.150574 240.553891 
L 446.643071 242.583984 
L 446.88932 242.58044 
L 447.135569 240.747097 
L 447.628067 242.632286 
L 447.874316 244.037994 
L 448.120565 243.307445 
L 448.366814 208.142329 
L 448.613063 218.393417 
L 448.859312 195.685315 
L 449.351809 232.15787 
L 449.598058 238.906682 
L 450.090556 243.922975 
L 450.336805 244.97099 
L 450.583054 243.773943 
L 450.829303 243.541733 
L 451.568049 242.332383 
L 452.060547 242.515767 
L 452.306796 239.21943 
L 452.553045 240.898163 
L 452.799294 241.737529 
L 453.291792 231.37763 
L 453.784289 240.289919 
L 454.276787 242.244052 
L 454.523036 244.369304 
L 454.769285 245.05377 
L 455.015534 244.67653 
L 455.261783 236.120562 
L 455.508032 239.861569 
L 455.754281 239.387661 
L 456.00053 233.655996 
L 456.246778 221.63231 
L 456.493027 233.854213 
L 456.739276 239.035328 
L 456.985525 240.806112 
L 457.231774 243.910511 
L 457.478023 226.759568 
L 457.970521 240.303181 
L 458.21677 243.068101 
L 458.709267 245.093187 
L 459.201765 245.416852 
L 459.448014 236.670591 
L 459.694263 241.311096 
L 459.940512 241.943996 
L 460.186761 244.056429 
L 460.43301 243.316662 
L 460.679259 244.412035 
L 461.171756 245.430289 
L 461.418005 242.075626 
L 461.664254 243.918931 
L 461.910503 244.799914 
L 462.156752 245.210836 
L 462.403001 245.170855 
L 462.64925 243.873875 
L 462.895499 240.47803 
L 463.141748 243.09738 
L 463.387996 244.445532 
L 463.634245 244.421506 
L 463.880494 227.015066 
L 464.126743 231.171962 
L 464.372992 238.43652 
L 464.619241 241.879067 
L 464.86549 242.740821 
L 465.111739 242.222248 
L 465.357988 225.915437 
L 465.604237 234.246166 
L 465.850485 231.085248 
L 466.096734 202.681035 
L 466.342983 224.145671 
L 466.589232 234.785838 
L 467.08173 240.328168 
L 467.327979 224.968397 
L 467.574228 233.772646 
L 468.066726 242.603485 
L 468.312974 226.829159 
L 468.559223 234.703027 
L 468.805472 238.639961 
L 469.051721 233.282146 
L 469.29797 239.383448 
L 469.544219 206.18033 
L 469.790468 224.378613 
L 470.282966 239.598442 
L 470.775463 242.345122 
L 471.021712 240.803873 
L 471.267961 241.690384 
L 471.51421 243.373865 
L 471.760459 242.97538 
L 472.006708 243.139546 
L 472.252957 242.858221 
L 472.499206 235.247662 
L 472.745455 240.518188 
L 472.991703 241.547542 
L 473.237952 226.301187 
L 473.484201 234.439041 
L 473.976699 242.26721 
L 474.469197 244.86667 
L 474.715446 243.721783 
L 474.961695 244.638908 
L 475.207944 245.057895 
L 475.454192 243.817395 
L 475.700441 244.104341 
L 475.94669 243.340618 
L 476.192939 244.733182 
L 476.439188 245.265944 
L 476.685437 243.92142 
L 476.931686 244.840811 
L 477.177935 238.584577 
L 477.424184 239.255578 
L 477.916681 241.985467 
L 478.16293 242.281181 
L 478.655428 243.437401 
L 479.147926 242.792022 
L 479.394175 242.684459 
L 479.640424 243.143517 
L 479.886673 242.860206 
L 480.132921 243.160563 
L 480.625419 242.722812 
L 481.364166 242.595135 
L 481.856664 244.784514 
L 482.349162 245.44909 
L 482.59541 244.525833 
L 483.087908 245.51533 
L 483.334157 244.046113 
L 483.580406 243.824344 
L 483.826655 238.450423 
L 484.319153 243.318974 
L 484.565402 242.947935 
L 484.81165 239.099274 
L 485.057899 242.271488 
L 485.304148 243.717065 
L 485.550397 243.65982 
L 485.796646 236.179819 
L 486.042895 240.907189 
L 486.289144 242.159469 
L 486.535393 244.54301 
L 486.781642 244.85493 
L 487.027891 244.228753 
L 488.012886 242.911588 
L 488.259135 240.912671 
L 488.505384 241.744783 
L 488.997882 242.368867 
L 489.244131 242.639388 
L 489.49038 238.945 
L 489.736628 242.149397 
L 489.982877 241.593125 
L 490.229126 243.274212 
L 490.475375 244.034136 
L 490.967873 242.683436 
L 491.214122 244.211031 
L 491.460371 243.906803 
L 491.70662 243.241849 
L 491.952868 240.745031 
L 492.199117 242.173803 
L 492.445366 241.389119 
L 492.937864 224.06522 
L 493.430362 241.985237 
L 493.676611 243.470985 
L 493.92286 226.401176 
L 494.169109 232.556809 
L 494.415357 235.799975 
L 494.907855 224.607192 
L 495.646602 236.641366 
L 495.892851 237.802998 
L 496.1391 240.189947 
L 496.631598 242.503464 
L 496.877846 242.54018 
L 497.124095 243.381748 
L 497.370344 232.748285 
L 497.616593 236.026566 
L 498.109091 238.485277 
L 498.109091 238.485277 
" style="fill:none;stroke:#ff7f0e;stroke-linecap:square;stroke-width:1.5;"/>
   </g>
   <g id="patch_3">
    <path d="M 72 256.32 
L 72 34.56 
" style="fill:none;stroke:#000000;stroke-linecap:square;stroke-linejoin:miter;stroke-width:0.8;"/>
   </g>
   <g id="patch_4">
    <path d="M 518.4 256.32 
L 518.4 34.56 
" style="fill:none;stroke:#000000;stroke-linecap:square;stroke-linejoin:miter;stroke-width:0.8;"/>
   </g>
   <g id="patch_5">
    <path d="M 72 256.32 
L 518.4 256.32 
" style="fill:none;stroke:#000000;stroke-linecap:square;stroke-linejoin:miter;stroke-width:0.8;"/>
   </g>
   <g id="patch_6">
    <path d="M 72 34.56 
L 518.4 34.56 
" style="fill:none;stroke:#000000;stroke-linecap:square;stroke-linejoin:miter;stroke-width:0.8;"/>
   </g>
  </g>
 </g>
 <defs>
  <clipPath id="pf2140c76e5">
   <rect height="221.76" width="446.4" x="72" y="34.56"/>
  </clipPath>
 </defs>
</svg>
