<?xml version="1.0" encoding="utf-8" standalone="no"?>
<!DOCTYPE svg PUBLIC "-//W3C//DTD SVG 1.1//EN"
  "http://www.w3.org/Graphics/SVG/1.1/DTD/svg11.dtd">
<svg height="345.6pt" version="1.1" viewBox="0 0 460.8 345.6" width="460.8pt" xmlns="http://www.w3.org/2000/svg" xmlns:xlink="http://www.w3.org/1999/xlink">
 <metadata>
  <rdf:RDF xmlns:cc="http://creativecommons.org/ns#" xmlns:dc="http://purl.org/dc/elements/1.1/" xmlns:rdf="http://www.w3.org/1999/02/22-rdf-syntax-ns#">
   <cc:Work>
    <dc:type rdf:resource="http://purl.org/dc/dcmitype/StillImage"/>
    <dc:date>2022-01-06T21:55:26.484835</dc:date>
    <dc:format>image/svg+xml</dc:format>
    <dc:creator>
     <cc:Agent>
      <dc:title>Matplotlib v3.4.3, https://matplotlib.org/</dc:title>
     </cc:Agent>
    </dc:creator>
   </cc:Work>
  </rdf:RDF>
 </metadata>
 <defs>
  <style type="text/css">*{stroke-linecap:butt;stroke-linejoin:round;}</style>
 </defs>
 <g id="figure_1">
  <g id="patch_1">
   <path d="M 0 345.6 
L 460.8 345.6 
L 460.8 0 
L 0 0 
z
" style="fill:#ffffff;"/>
  </g>
  <g id="axes_1">
   <g id="patch_2">
    <path d="M 57.6 307.584 
L 414.72 307.584 
L 414.72 41.472 
L 57.6 41.472 
z
" style="fill:#ffffff;"/>
   </g>
   <g id="matplotlib.axis_1">
    <g id="xtick_1">
     <g id="line2d_1">
      <defs>
       <path d="M 0 0 
L 0 3.5 
" id="maa4a92fd88" style="stroke:#000000;stroke-width:0.8;"/>
      </defs>
      <g>
       <use style="stroke:#000000;stroke-width:0.8;" x="73.832727" xlink:href="#maa4a92fd88" y="307.584"/>
      </g>
     </g>
     <g id="text_1">
      <!-- 39000 -->
      <g transform="translate(57.926477 322.182437)scale(0.1 -0.1)">
       <defs>
        <path d="M 2597 2516 
Q 3050 2419 3304 2112 
Q 3559 1806 3559 1356 
Q 3559 666 3084 287 
Q 2609 -91 1734 -91 
Q 1441 -91 1130 -33 
Q 819 25 488 141 
L 488 750 
Q 750 597 1062 519 
Q 1375 441 1716 441 
Q 2309 441 2620 675 
Q 2931 909 2931 1356 
Q 2931 1769 2642 2001 
Q 2353 2234 1838 2234 
L 1294 2234 
L 1294 2753 
L 1863 2753 
Q 2328 2753 2575 2939 
Q 2822 3125 2822 3475 
Q 2822 3834 2567 4026 
Q 2313 4219 1838 4219 
Q 1578 4219 1281 4162 
Q 984 4106 628 3988 
L 628 4550 
Q 988 4650 1302 4700 
Q 1616 4750 1894 4750 
Q 2613 4750 3031 4423 
Q 3450 4097 3450 3541 
Q 3450 3153 3228 2886 
Q 3006 2619 2597 2516 
z
" id="DejaVuSans-33" transform="scale(0.015625)"/>
        <path d="M 703 97 
L 703 672 
Q 941 559 1184 500 
Q 1428 441 1663 441 
Q 2288 441 2617 861 
Q 2947 1281 2994 2138 
Q 2813 1869 2534 1725 
Q 2256 1581 1919 1581 
Q 1219 1581 811 2004 
Q 403 2428 403 3163 
Q 403 3881 828 4315 
Q 1253 4750 1959 4750 
Q 2769 4750 3195 4129 
Q 3622 3509 3622 2328 
Q 3622 1225 3098 567 
Q 2575 -91 1691 -91 
Q 1453 -91 1209 -44 
Q 966 3 703 97 
z
M 1959 2075 
Q 2384 2075 2632 2365 
Q 2881 2656 2881 3163 
Q 2881 3666 2632 3958 
Q 2384 4250 1959 4250 
Q 1534 4250 1286 3958 
Q 1038 3666 1038 3163 
Q 1038 2656 1286 2365 
Q 1534 2075 1959 2075 
z
" id="DejaVuSans-39" transform="scale(0.015625)"/>
        <path d="M 2034 4250 
Q 1547 4250 1301 3770 
Q 1056 3291 1056 2328 
Q 1056 1369 1301 889 
Q 1547 409 2034 409 
Q 2525 409 2770 889 
Q 3016 1369 3016 2328 
Q 3016 3291 2770 3770 
Q 2525 4250 2034 4250 
z
M 2034 4750 
Q 2819 4750 3233 4129 
Q 3647 3509 3647 2328 
Q 3647 1150 3233 529 
Q 2819 -91 2034 -91 
Q 1250 -91 836 529 
Q 422 1150 422 2328 
Q 422 3509 836 4129 
Q 1250 4750 2034 4750 
z
" id="DejaVuSans-30" transform="scale(0.015625)"/>
       </defs>
       <use xlink:href="#DejaVuSans-33"/>
       <use x="63.623047" xlink:href="#DejaVuSans-39"/>
       <use x="127.246094" xlink:href="#DejaVuSans-30"/>
       <use x="190.869141" xlink:href="#DejaVuSans-30"/>
       <use x="254.492188" xlink:href="#DejaVuSans-30"/>
      </g>
     </g>
    </g>
    <g id="xtick_2">
     <g id="line2d_2">
      <g>
       <use style="stroke:#000000;stroke-width:0.8;" x="123.082507" xlink:href="#maa4a92fd88" y="307.584"/>
      </g>
     </g>
     <g id="text_2">
      <!-- 39250 -->
      <g transform="translate(107.176257 322.182437)scale(0.1 -0.1)">
       <defs>
        <path d="M 1228 531 
L 3431 531 
L 3431 0 
L 469 0 
L 469 531 
Q 828 903 1448 1529 
Q 2069 2156 2228 2338 
Q 2531 2678 2651 2914 
Q 2772 3150 2772 3378 
Q 2772 3750 2511 3984 
Q 2250 4219 1831 4219 
Q 1534 4219 1204 4116 
Q 875 4013 500 3803 
L 500 4441 
Q 881 4594 1212 4672 
Q 1544 4750 1819 4750 
Q 2544 4750 2975 4387 
Q 3406 4025 3406 3419 
Q 3406 3131 3298 2873 
Q 3191 2616 2906 2266 
Q 2828 2175 2409 1742 
Q 1991 1309 1228 531 
z
" id="DejaVuSans-32" transform="scale(0.015625)"/>
        <path d="M 691 4666 
L 3169 4666 
L 3169 4134 
L 1269 4134 
L 1269 2991 
Q 1406 3038 1543 3061 
Q 1681 3084 1819 3084 
Q 2600 3084 3056 2656 
Q 3513 2228 3513 1497 
Q 3513 744 3044 326 
Q 2575 -91 1722 -91 
Q 1428 -91 1123 -41 
Q 819 9 494 109 
L 494 744 
Q 775 591 1075 516 
Q 1375 441 1709 441 
Q 2250 441 2565 725 
Q 2881 1009 2881 1497 
Q 2881 1984 2565 2268 
Q 2250 2553 1709 2553 
Q 1456 2553 1204 2497 
Q 953 2441 691 2322 
L 691 4666 
z
" id="DejaVuSans-35" transform="scale(0.015625)"/>
       </defs>
       <use xlink:href="#DejaVuSans-33"/>
       <use x="63.623047" xlink:href="#DejaVuSans-39"/>
       <use x="127.246094" xlink:href="#DejaVuSans-32"/>
       <use x="190.869141" xlink:href="#DejaVuSans-35"/>
       <use x="254.492188" xlink:href="#DejaVuSans-30"/>
      </g>
     </g>
    </g>
    <g id="xtick_3">
     <g id="line2d_3">
      <g>
       <use style="stroke:#000000;stroke-width:0.8;" x="172.332286" xlink:href="#maa4a92fd88" y="307.584"/>
      </g>
     </g>
     <g id="text_3">
      <!-- 39500 -->
      <g transform="translate(156.426036 322.182437)scale(0.1 -0.1)">
       <use xlink:href="#DejaVuSans-33"/>
       <use x="63.623047" xlink:href="#DejaVuSans-39"/>
       <use x="127.246094" xlink:href="#DejaVuSans-35"/>
       <use x="190.869141" xlink:href="#DejaVuSans-30"/>
       <use x="254.492188" xlink:href="#DejaVuSans-30"/>
      </g>
     </g>
    </g>
    <g id="xtick_4">
     <g id="line2d_4">
      <g>
       <use style="stroke:#000000;stroke-width:0.8;" x="221.582065" xlink:href="#maa4a92fd88" y="307.584"/>
      </g>
     </g>
     <g id="text_4">
      <!-- 39750 -->
      <g transform="translate(205.675815 322.182437)scale(0.1 -0.1)">
       <defs>
        <path d="M 525 4666 
L 3525 4666 
L 3525 4397 
L 1831 0 
L 1172 0 
L 2766 4134 
L 525 4134 
L 525 4666 
z
" id="DejaVuSans-37" transform="scale(0.015625)"/>
       </defs>
       <use xlink:href="#DejaVuSans-33"/>
       <use x="63.623047" xlink:href="#DejaVuSans-39"/>
       <use x="127.246094" xlink:href="#DejaVuSans-37"/>
       <use x="190.869141" xlink:href="#DejaVuSans-35"/>
       <use x="254.492188" xlink:href="#DejaVuSans-30"/>
      </g>
     </g>
    </g>
    <g id="xtick_5">
     <g id="line2d_5">
      <g>
       <use style="stroke:#000000;stroke-width:0.8;" x="270.831845" xlink:href="#maa4a92fd88" y="307.584"/>
      </g>
     </g>
     <g id="text_5">
      <!-- 40000 -->
      <g transform="translate(254.925595 322.182437)scale(0.1 -0.1)">
       <defs>
        <path d="M 2419 4116 
L 825 1625 
L 2419 1625 
L 2419 4116 
z
M 2253 4666 
L 3047 4666 
L 3047 1625 
L 3713 1625 
L 3713 1100 
L 3047 1100 
L 3047 0 
L 2419 0 
L 2419 1100 
L 313 1100 
L 313 1709 
L 2253 4666 
z
" id="DejaVuSans-34" transform="scale(0.015625)"/>
       </defs>
       <use xlink:href="#DejaVuSans-34"/>
       <use x="63.623047" xlink:href="#DejaVuSans-30"/>
       <use x="127.246094" xlink:href="#DejaVuSans-30"/>
       <use x="190.869141" xlink:href="#DejaVuSans-30"/>
       <use x="254.492188" xlink:href="#DejaVuSans-30"/>
      </g>
     </g>
    </g>
    <g id="xtick_6">
     <g id="line2d_6">
      <g>
       <use style="stroke:#000000;stroke-width:0.8;" x="320.081624" xlink:href="#maa4a92fd88" y="307.584"/>
      </g>
     </g>
     <g id="text_6">
      <!-- 40250 -->
      <g transform="translate(304.175374 322.182437)scale(0.1 -0.1)">
       <use xlink:href="#DejaVuSans-34"/>
       <use x="63.623047" xlink:href="#DejaVuSans-30"/>
       <use x="127.246094" xlink:href="#DejaVuSans-32"/>
       <use x="190.869141" xlink:href="#DejaVuSans-35"/>
       <use x="254.492188" xlink:href="#DejaVuSans-30"/>
      </g>
     </g>
    </g>
    <g id="xtick_7">
     <g id="line2d_7">
      <g>
       <use style="stroke:#000000;stroke-width:0.8;" x="369.331403" xlink:href="#maa4a92fd88" y="307.584"/>
      </g>
     </g>
     <g id="text_7">
      <!-- 40500 -->
      <g transform="translate(353.425153 322.182437)scale(0.1 -0.1)">
       <use xlink:href="#DejaVuSans-34"/>
       <use x="63.623047" xlink:href="#DejaVuSans-30"/>
       <use x="127.246094" xlink:href="#DejaVuSans-35"/>
       <use x="190.869141" xlink:href="#DejaVuSans-30"/>
       <use x="254.492188" xlink:href="#DejaVuSans-30"/>
      </g>
     </g>
    </g>
   </g>
   <g id="matplotlib.axis_2">
    <g id="ytick_1">
     <g id="line2d_8">
      <defs>
       <path d="M 0 0 
L -3.5 0 
" id="m8d3caba2a1" style="stroke:#000000;stroke-width:0.8;"/>
      </defs>
      <g>
       <use style="stroke:#000000;stroke-width:0.8;" x="57.6" xlink:href="#m8d3caba2a1" y="307.584"/>
      </g>
     </g>
     <g id="text_8">
      <!-- 0 -->
      <g transform="translate(44.2375 311.383219)scale(0.1 -0.1)">
       <use xlink:href="#DejaVuSans-30"/>
      </g>
     </g>
    </g>
    <g id="ytick_2">
     <g id="line2d_9">
      <g>
       <use style="stroke:#000000;stroke-width:0.8;" x="57.6" xlink:href="#m8d3caba2a1" y="254.3616"/>
      </g>
     </g>
     <g id="text_9">
      <!-- 2 -->
      <g transform="translate(44.2375 258.160819)scale(0.1 -0.1)">
       <use xlink:href="#DejaVuSans-32"/>
      </g>
     </g>
    </g>
    <g id="ytick_3">
     <g id="line2d_10">
      <g>
       <use style="stroke:#000000;stroke-width:0.8;" x="57.6" xlink:href="#m8d3caba2a1" y="201.1392"/>
      </g>
     </g>
     <g id="text_10">
      <!-- 4 -->
      <g transform="translate(44.2375 204.938419)scale(0.1 -0.1)">
       <use xlink:href="#DejaVuSans-34"/>
      </g>
     </g>
    </g>
    <g id="ytick_4">
     <g id="line2d_11">
      <g>
       <use style="stroke:#000000;stroke-width:0.8;" x="57.6" xlink:href="#m8d3caba2a1" y="147.9168"/>
      </g>
     </g>
     <g id="text_11">
      <!-- 6 -->
      <g transform="translate(44.2375 151.716019)scale(0.1 -0.1)">
       <defs>
        <path d="M 2113 2584 
Q 1688 2584 1439 2293 
Q 1191 2003 1191 1497 
Q 1191 994 1439 701 
Q 1688 409 2113 409 
Q 2538 409 2786 701 
Q 3034 994 3034 1497 
Q 3034 2003 2786 2293 
Q 2538 2584 2113 2584 
z
M 3366 4563 
L 3366 3988 
Q 3128 4100 2886 4159 
Q 2644 4219 2406 4219 
Q 1781 4219 1451 3797 
Q 1122 3375 1075 2522 
Q 1259 2794 1537 2939 
Q 1816 3084 2150 3084 
Q 2853 3084 3261 2657 
Q 3669 2231 3669 1497 
Q 3669 778 3244 343 
Q 2819 -91 2113 -91 
Q 1303 -91 875 529 
Q 447 1150 447 2328 
Q 447 3434 972 4092 
Q 1497 4750 2381 4750 
Q 2619 4750 2861 4703 
Q 3103 4656 3366 4563 
z
" id="DejaVuSans-36" transform="scale(0.015625)"/>
       </defs>
       <use xlink:href="#DejaVuSans-36"/>
      </g>
     </g>
    </g>
    <g id="ytick_5">
     <g id="line2d_12">
      <g>
       <use style="stroke:#000000;stroke-width:0.8;" x="57.6" xlink:href="#m8d3caba2a1" y="94.6944"/>
      </g>
     </g>
     <g id="text_12">
      <!-- 8 -->
      <g transform="translate(44.2375 98.493619)scale(0.1 -0.1)">
       <defs>
        <path d="M 2034 2216 
Q 1584 2216 1326 1975 
Q 1069 1734 1069 1313 
Q 1069 891 1326 650 
Q 1584 409 2034 409 
Q 2484 409 2743 651 
Q 3003 894 3003 1313 
Q 3003 1734 2745 1975 
Q 2488 2216 2034 2216 
z
M 1403 2484 
Q 997 2584 770 2862 
Q 544 3141 544 3541 
Q 544 4100 942 4425 
Q 1341 4750 2034 4750 
Q 2731 4750 3128 4425 
Q 3525 4100 3525 3541 
Q 3525 3141 3298 2862 
Q 3072 2584 2669 2484 
Q 3125 2378 3379 2068 
Q 3634 1759 3634 1313 
Q 3634 634 3220 271 
Q 2806 -91 2034 -91 
Q 1263 -91 848 271 
Q 434 634 434 1313 
Q 434 1759 690 2068 
Q 947 2378 1403 2484 
z
M 1172 3481 
Q 1172 3119 1398 2916 
Q 1625 2713 2034 2713 
Q 2441 2713 2670 2916 
Q 2900 3119 2900 3481 
Q 2900 3844 2670 4047 
Q 2441 4250 2034 4250 
Q 1625 4250 1398 4047 
Q 1172 3844 1172 3481 
z
" id="DejaVuSans-38" transform="scale(0.015625)"/>
       </defs>
       <use xlink:href="#DejaVuSans-38"/>
      </g>
     </g>
    </g>
    <g id="ytick_6">
     <g id="line2d_13">
      <g>
       <use style="stroke:#000000;stroke-width:0.8;" x="57.6" xlink:href="#m8d3caba2a1" y="41.472"/>
      </g>
     </g>
     <g id="text_13">
      <!-- 10 -->
      <g transform="translate(37.875 45.271219)scale(0.1 -0.1)">
       <defs>
        <path d="M 794 531 
L 1825 531 
L 1825 4091 
L 703 3866 
L 703 4441 
L 1819 4666 
L 2450 4666 
L 2450 531 
L 3481 531 
L 3481 0 
L 794 0 
L 794 531 
z
" id="DejaVuSans-31" transform="scale(0.015625)"/>
       </defs>
       <use xlink:href="#DejaVuSans-31"/>
       <use x="63.623047" xlink:href="#DejaVuSans-30"/>
      </g>
     </g>
    </g>
   </g>
   <g id="line2d_14">
    <path clip-path="url(#p130ee2133b)" d="M 73.832727 309.491013 
L 74.029726 312.511504 
L 73.832727 312.511504 
L 74.226726 317.055855 
L 74.423725 312.511504 
L 74.620724 311.387477 
L 74.817723 311.387477 
L 75.014722 305.91971 
L 75.211721 305.343136 
L 75.40872 301.849234 
L 75.211721 301.849234 
L 75.605719 301.849234 
L 75.802718 301.305048 
L 75.999718 302.041167 
L 76.393716 313.677776 
L 76.590715 313.677776 
L 76.787714 308.962873 
L 76.984713 308.516944 
L 77.181712 308.516944 
L 77.378711 308.962873 
L 77.77271 316.57083 
L 77.969709 316.57083 
L 78.166708 319.594939 
L 78.560706 319.600678 
L 79.151703 296.921192 
L 79.348703 296.921192 
L 79.545702 297.877833 
L 79.742701 316.19469 
L 79.9397 316.19469 
L 80.136699 318.123615 
L 80.333698 318.123615 
L 80.530697 319.131548 
L 80.727696 319.353446 
L 80.924695 326.603444 
L 81.121695 319.353446 
L 81.318694 319.131548 
L 81.515693 320.902171 
L 81.712692 313.551068 
L 81.909691 315.722999 
L 82.10669 313.225175 
L 82.303689 312.573446 
L 82.500688 312.573446 
L 82.697688 313.225175 
L 83.091686 292.097098 
L 83.288685 299.725592 
L 83.485684 292.097098 
L 83.682683 295.024128 
L 83.879682 301.374514 
L 84.076681 295.024128 
L 84.27368 295.024128 
L 84.47068 302.642182 
L 84.667679 302.642182 
L 84.864678 304.964461 
L 85.061677 304.964461 
L 85.258676 309.232493 
L 85.455675 309.232493 
L 85.652674 306.780316 
L 86.243672 306.780316 
L 86.440671 309.122597 
L 86.63767 315.971112 
L 86.834669 316.14485 
L 87.031668 316.694175 
L 87.228667 316.694175 
L 87.425666 316.14485 
L 87.622665 308.71496 
L 87.819665 308.71496 
L 88.016664 305.814495 
L 88.213663 308.71496 
L 88.410662 303.619249 
L 88.607661 303.525673 
L 88.80466 307.635806 
L 89.395658 307.719767 
L 89.592657 308.710275 
L 89.789656 308.710275 
L 90.183654 305.265887 
L 90.380653 305.265887 
L 90.577652 309.160985 
L 90.97165 309.160985 
L 91.16865 301.849234 
L 91.562648 299.625775 
L 91.759647 300.601812 
L 91.956646 300.601812 
L 92.153645 295.904751 
L 92.350644 294.842593 
L 92.744643 294.842593 
L 92.941642 300.693638 
L 93.33564 300.693638 
L 93.532639 307.412298 
L 93.729638 307.412298 
L 93.926637 298.377153 
L 94.123636 304.54594 
L 94.320635 301.97133 
L 94.517635 304.171469 
L 94.714634 304.171469 
L 94.911633 302.678644 
L 95.305631 302.678644 
L 95.699629 309.979773 
L 95.896628 309.979773 
L 96.093628 313.782104 
L 96.290627 306.987106 
L 96.487626 307.107087 
L 96.684625 306.987106 
L 96.881624 300.382734 
L 97.275622 300.382734 
L 97.472621 302.149676 
L 97.66962 302.149676 
L 97.86662 296.166618 
L 98.063619 309.958464 
L 98.260618 306.626929 
L 98.457617 306.626929 
L 98.851615 313.750892 
L 99.048614 312.062592 
L 99.836611 312.062592 
L 100.03361 306.711479 
L 100.230609 316.670088 
L 100.427608 316.670088 
L 100.230609 316.670088 
L 100.624607 317.704353 
L 100.427608 317.704353 
L 100.821606 295.02606 
L 101.018605 296.902384 
L 101.412604 296.902384 
L 101.609603 297.194629 
L 101.806602 313.479953 
L 102.003601 303.876224 
L 102.2006 303.876224 
L 102.397599 310.554633 
L 102.2006 310.554633 
L 102.988597 310.554633 
L 103.185596 301.987344 
L 103.382595 301.66818 
L 103.579594 296.59155 
L 103.973592 296.59155 
L 104.170591 300.611107 
L 104.36759 301.849234 
L 104.56459 304.30955 
L 104.761589 304.30955 
L 105.155587 315.758515 
L 105.352586 311.348619 
L 105.549585 311.348619 
L 105.746584 293.703522 
L 106.337582 293.703522 
L 106.534581 297.807043 
L 106.73158 305.730498 
L 106.928579 318.328795 
L 107.125578 305.730498 
L 107.519576 305.730498 
L 107.716575 297.182678 
L 107.913575 307.97634 
L 108.307573 307.97634 
L 108.504572 309.985882 
L 108.701571 307.97634 
L 108.89857 309.985882 
L 109.292568 309.985882 
L 109.489568 299.53912 
L 109.686567 312.159362 
L 110.080565 312.159362 
L 109.883566 312.159362 
L 110.474563 298.26747 
L 110.671562 299.739084 
L 110.868561 299.739084 
L 111.459559 306.673381 
L 111.656558 308.318674 
L 112.050556 308.318674 
L 112.247555 309.671017 
L 112.444554 310.203509 
L 112.838553 310.203509 
L 113.035552 309.671017 
L 113.232551 296.068503 
L 113.42955 295.865454 
L 113.823548 295.865454 
L 114.020547 293.286562 
L 114.217546 293.286562 
L 114.414545 300.537995 
L 114.611545 300.537995 
L 114.808544 300.853441 
L 114.611545 300.537995 
L 115.005543 300.853441 
L 115.399541 300.853441 
L 115.59654 310.233163 
L 115.793539 300.768006 
L 116.384537 300.768006 
L 116.581536 301.362729 
L 116.778535 299.525857 
L 116.975534 283.787467 
L 117.172533 283.787467 
L 117.369532 284.15346 
L 117.566531 284.15346 
L 117.76353 292.097098 
L 117.96053 292.197301 
L 118.354528 309.584859 
L 118.551527 314.763509 
L 118.748526 314.763509 
L 118.945525 309.584859 
L 119.142524 314.763509 
L 119.339523 309.021306 
L 119.536523 308.728515 
L 119.733522 307.596146 
L 119.930521 307.596146 
L 120.324519 302.45463 
L 120.521518 302.323018 
L 120.915516 302.45463 
L 121.112515 312.647606 
L 121.900512 312.688834 
L 122.097511 315.891156 
L 122.29451 315.891156 
L 122.688508 309.623793 
L 123.082507 307.457326 
L 123.279506 307.457326 
L 123.476505 306.055543 
L 123.673504 306.055543 
L 123.870503 310.817095 
L 124.067502 312.777723 
L 124.264501 310.817095 
L 124.4615 312.777723 
L 124.6585 303.984651 
L 124.855499 303.984651 
L 125.052498 309.473403 
L 125.446496 309.473403 
L 125.643495 309.809933 
L 125.840494 309.809933 
L 126.037493 304.153238 
L 126.234492 307.811303 
L 126.431492 301.608857 
L 126.628491 301.399569 
L 126.82549 301.399569 
L 127.022489 301.608857 
L 127.219488 301.608857 
L 127.416487 306.339636 
L 127.613486 306.339636 
L 127.810485 310.405212 
L 128.007485 306.339636 
L 127.613486 300.499701 
L 128.204484 299.822258 
L 128.401483 299.891742 
L 128.598482 299.822258 
L 128.795481 296.49915 
L 128.99248 296.49915 
L 129.189479 295.88945 
L 129.386478 295.88945 
L 129.583477 301.484729 
L 129.780477 301.484729 
L 129.977476 300.822193 
L 130.371474 300.822193 
L 130.568473 285.573417 
L 130.765472 302.675644 
L 131.35647 302.675644 
L 131.553469 305.143833 
L 131.750468 305.143833 
L 131.947467 304.566131 
L 132.144466 306.642808 
L 132.341465 304.566131 
L 132.735463 304.566131 
L 133.129462 273.205842 
L 133.326461 285.671516 
L 133.52346 288.22246 
L 133.720459 288.22246 
L 133.917458 288.957585 
L 134.114457 302.599682 
L 134.311456 304.669365 
L 134.705455 304.669365 
L 134.902454 297.218494 
L 135.296452 297.218494 
L 135.493451 302.362607 
L 135.69045 312.014771 
L 135.887449 312.014771 
L 136.084448 304.197086 
L 136.675446 304.197086 
L 136.872445 304.637755 
L 137.266443 304.637755 
L 137.463442 305.057566 
L 137.660441 308.219029 
L 138.05444 308.219029 
L 138.251439 297.694397 
L 138.448438 297.694397 
L 138.645437 303.263852 
L 138.842436 304.96802 
L 139.039435 304.96802 
L 139.236434 303.263852 
L 139.433433 302.704698 
L 139.630432 295.236855 
L 139.827432 295.236855 
L 140.024431 302.704698 
L 140.22143 303.489061 
L 140.418429 314.341712 
L 140.812427 314.341712 
L 141.206425 303.833941 
L 141.600424 300.382734 
L 142.191421 300.382734 
L 142.38842 303.809755 
L 142.585419 304.15732 
L 142.782418 313.347376 
L 142.979417 313.347376 
L 143.176417 306.329808 
L 143.373416 313.347376 
L 143.767414 302.838229 
L 144.161412 302.838229 
L 144.358411 301.666196 
L 144.55541 301.666196 
L 144.75241 303.346073 
L 144.949409 303.346073 
L 145.146408 301.666196 
L 145.343407 310.699674 
L 145.540406 309.377965 
L 145.737405 301.055833 
L 145.934404 301.055833 
L 146.328402 296.819332 
L 146.9194 296.819332 
L 146.722401 288.355201 
L 147.116399 288.355201 
L 147.313398 286.146427 
L 147.510397 273.071465 
L 146.9194 273.071465 
L 148.101395 273.071465 
L 148.298394 285.343045 
L 148.495393 285.343045 
L 148.692392 287.924637 
L 148.889391 287.924637 
L 149.08639 294.283489 
L 149.283389 296.921192 
L 149.480388 297.224441 
L 149.677387 299.587381 
L 149.874387 299.587381 
L 150.071386 306.519956 
L 150.465384 306.519956 
L 150.662383 300.474834 
L 151.056381 300.474834 
L 151.45038 306.554193 
L 151.647379 306.554193 
L 152.041377 301.414555 
L 152.435375 299.791678 
L 152.632374 299.791678 
L 152.829373 300.299867 
L 153.026372 299.791678 
L 153.223372 299.791678 
L 153.420371 301.54307 
L 153.61737 302.165246 
L 153.814369 302.165246 
L 154.011368 303.097887 
L 154.208367 303.097887 
L 154.405366 297.423815 
L 154.602365 296.709999 
L 154.799365 284.329933 
L 155.193363 284.329933 
L 155.587361 288.572617 
L 155.78436 294.155601 
L 156.178358 289.378058 
L 156.375357 291.955636 
L 156.572357 291.955636 
L 156.769356 291.497007 
L 156.966355 289.378058 
L 157.163354 288.674306 
L 157.360353 288.674306 
L 157.557352 291.497007 
L 157.754351 296.102226 
L 157.95135 296.102226 
L 158.542348 294.24745 
L 158.14835 291.854568 
L 158.739347 291.854568 
L 158.936346 292.652819 
L 159.133345 292.652819 
L 159.330344 293.36603 
L 159.527343 293.36603 
L 159.724342 294.843778 
L 159.921342 294.843778 
L 160.118341 298.78717 
L 160.709338 300.097719 
L 160.906337 305.246141 
L 161.300335 305.246141 
L 161.497335 300.732974 
L 162.088332 299.158681 
L 162.48233 289.518263 
L 162.285331 287.158353 
L 162.679329 287.158353 
L 162.876328 289.518263 
L 163.073327 284.444503 
L 163.270327 291.021249 
L 163.467326 291.021249 
L 163.664325 296.817258 
L 164.255322 296.817258 
L 164.452321 299.927116 
L 164.64932 299.927116 
L 164.84632 300.163795 
L 165.043319 300.163795 
L 164.64932 299.704397 
L 165.240318 293.702557 
L 165.437317 290.370158 
L 165.634316 290.370158 
L 165.831315 293.580982 
L 166.028314 293.702557 
L 166.422312 297.767687 
L 166.619312 299.600523 
L 166.816311 305.541443 
L 167.01331 305.541443 
L 167.210309 302.714259 
L 167.407308 302.714259 
L 167.604307 302.065544 
L 167.801306 302.533676 
L 167.998305 302.065544 
L 168.195305 302.065544 
L 168.392304 304.991856 
L 168.589303 304.991856 
L 168.786302 306.287895 
L 168.983301 299.807956 
L 169.1803 298.713317 
L 169.377299 298.388242 
L 169.574298 298.713317 
L 169.771297 298.050263 
L 169.968297 299.089288 
L 170.165296 298.110905 
L 170.362295 299.06715 
L 171.150291 299.06715 
L 171.34729 299.972959 
L 171.544289 299.972959 
L 171.741289 300.669601 
L 171.938288 299.972959 
L 172.135287 299.972959 
L 172.726284 290.825673 
L 172.923283 292.673588 
L 173.120282 292.673588 
L 173.317282 303.248541 
L 173.71128 303.248541 
L 173.908279 300.873111 
L 174.105278 300.424186 
L 174.302277 299.470207 
L 174.696275 299.394015 
L 174.893274 299.394015 
L 175.090274 297.843535 
L 175.287273 303.9938 
L 175.484272 303.9938 
L 175.681271 303.420718 
L 175.87827 295.230629 
L 176.075269 296.470646 
L 175.87827 296.470646 
L 176.272268 296.470646 
L 176.469267 297.422825 
L 176.863266 297.422825 
L 177.060265 299.669597 
L 177.257264 297.285337 
L 177.454263 297.285337 
L 177.651262 304.673955 
L 177.848261 304.673955 
L 178.04526 300.695711 
L 178.242259 301.525119 
L 178.439259 300.695711 
L 178.636258 298.620057 
L 178.833257 298.620057 
L 179.030256 302.09178 
L 179.621253 302.09178 
L 179.818252 301.438403 
L 180.015252 301.438403 
L 180.40925 302.845394 
L 180.606249 302.297311 
L 181.000247 302.297311 
L 181.197246 298.83935 
L 181.394245 298.015312 
L 181.788244 298.015312 
L 181.985243 289.204364 
L 182.182242 298.563212 
L 182.773239 298.563212 
L 182.970238 299.306223 
L 183.167237 292.877447 
L 183.364237 295.696734 
L 183.561236 295.696734 
L 183.758235 292.877447 
L 183.955234 292.877447 
L 184.152233 295.696734 
L 184.349232 300.683734 
L 184.546231 301.835042 
L 184.74323 301.835042 
L 184.940229 300.683734 
L 185.137229 300.683734 
L 185.334228 301.835042 
L 185.531227 303.842676 
L 185.728226 303.842676 
L 185.925225 305.242191 
L 186.516222 301.582917 
L 186.713222 301.869178 
L 187.10722 301.869178 
L 187.304219 301.582917 
L 187.895216 301.579015 
L 188.092215 304.201335 
L 188.289214 304.363974 
L 188.486214 304.363974 
L 188.683213 304.201335 
L 188.880212 302.448894 
L 189.077211 301.869178 
L 189.471209 301.869178 
L 189.668208 299.827477 
L 189.865207 299.827477 
L 190.062207 299.389489 
L 189.865207 297.800023 
L 190.456205 297.800023 
L 190.653204 299.370442 
L 190.850203 299.39042 
L 191.047202 300.025231 
L 191.835199 300.025231 
L 192.032198 302.94431 
L 192.229197 302.94431 
L 192.426196 302.257627 
L 192.623195 302.257627 
L 192.820194 302.94431 
L 193.017193 307.453488 
L 193.214192 307.453488 
L 193.411192 309.740828 
L 193.214192 309.740828 
L 193.608191 307.453488 
L 193.80519 307.288493 
L 194.002189 293.514537 
L 194.199188 292.764924 
L 194.593186 292.764924 
L 194.987184 291.669009 
L 195.184184 299.331888 
L 195.381183 297.025538 
L 195.578182 297.025538 
L 195.775181 299.357424 
L 195.97218 303.096798 
L 196.169179 303.842676 
L 196.563177 303.842676 
L 196.957176 294.591826 
L 197.154175 292.766438 
L 197.351174 292.4532 
L 197.548173 292.766438 
L 197.745172 291.923174 
L 197.942171 292.766438 
L 198.13917 296.077576 
L 198.336169 296.991367 
L 198.730168 296.991367 
L 198.927167 296.792863 
L 199.124166 296.991367 
L 199.321165 297.574981 
L 199.518164 296.792863 
L 199.715163 296.792863 
L 199.912162 298.497071 
L 200.109162 298.81589 
L 200.306161 296.085248 
L 200.50316 297.346972 
L 200.700159 303.111878 
L 200.897158 301.535871 
L 201.094157 301.535871 
L 201.291156 303.111878 
L 201.094157 303.360979 
L 201.488155 301.535871 
L 201.685154 298.125104 
L 201.882154 298.125104 
L 202.276152 293.116192 
L 202.473151 295.696734 
L 202.67015 295.696734 
L 202.867149 297.538035 
L 203.064148 297.538035 
L 203.261147 298.356919 
L 203.458147 298.356919 
L 203.655146 296.435393 
L 203.852145 296.289248 
L 204.049144 296.435393 
L 204.246143 296.435393 
L 204.640141 306.362337 
L 204.83714 306.362337 
L 205.034139 303.575326 
L 205.231139 309.981606 
L 205.625137 298.025548 
L 205.822136 300.982718 
L 206.019135 300.712666 
L 206.610132 300.712666 
L 206.807132 298.386906 
L 207.004131 298.386906 
L 207.20113 297.785366 
L 207.398129 297.785366 
L 207.595128 298.955906 
L 207.989126 303.44303 
L 208.186125 303.44303 
L 208.383124 302.095735 
L 208.580124 301.992642 
L 208.777123 297.878627 
L 208.974122 297.222961 
L 209.171121 292.943836 
L 209.565119 292.943836 
L 209.762118 296.249208 
L 209.959117 296.249208 
L 210.156117 309.404062 
L 210.353116 309.404062 
L 210.550115 299.006476 
L 210.747114 298.837664 
L 210.944113 298.837664 
L 211.141112 297.739783 
L 211.338111 298.717565 
L 211.53511 298.717565 
L 211.732109 294.642149 
L 211.929109 298.717565 
L 212.126108 298.717565 
L 212.323107 302.841834 
L 212.520106 294.642149 
L 212.717105 302.841834 
L 212.914104 298.145214 
L 213.111103 298.145214 
L 213.308102 300.130591 
L 213.702101 300.130591 
L 213.8991 299.389489 
L 214.293098 305.92174 
L 214.490097 305.92174 
L 214.687096 300.631697 
L 214.884095 298.633349 
L 215.278094 298.52786 
L 215.081094 298.52786 
L 215.475093 300.386006 
L 215.672092 300.386006 
L 215.869091 301.519574 
L 216.06609 300.386006 
L 216.263089 300.386006 
L 216.460088 301.153426 
L 216.657087 302.661594 
L 216.854086 305.599226 
L 217.051086 305.599226 
L 217.248085 301.153426 
L 217.445084 304.369959 
L 217.642083 299.013946 
L 218.036081 299.013946 
L 218.23308 300.212132 
L 218.430079 294.212138 
L 218.627079 300.212132 
L 218.824078 292.507137 
L 219.021077 292.507137 
L 219.218076 297.003291 
L 219.809073 297.003291 
L 220.006072 297.574981 
L 220.400071 294.610667 
L 220.59707 295.956549 
L 220.794069 294.610667 
L 220.991068 291.711624 
L 221.582065 291.669009 
L 221.779064 291.669009 
L 221.582065 291.669009 
L 221.976064 294.019266 
L 222.173063 290.173031 
L 222.370062 294.019266 
L 222.567061 294.019266 
L 222.961059 297.222961 
L 223.158058 302.222867 
L 223.355057 302.222867 
L 223.552056 302.462752 
L 223.749056 302.462752 
L 223.946055 301.728835 
L 224.143054 303.235891 
L 224.340053 303.235891 
L 224.537052 302.253799 
L 224.734051 292.921303 
L 224.93105 302.253799 
L 224.734051 292.921303 
L 225.128049 292.097098 
L 225.719047 292.097098 
L 225.916046 292.613707 
L 225.719047 294.457761 
L 226.310044 294.457761 
L 226.507043 289.474713 
L 226.901041 289.474713 
L 227.098041 290.886439 
L 227.886037 290.886439 
L 228.083036 289.668884 
L 228.280035 297.940953 
L 228.477034 297.940953 
L 228.674034 289.668884 
L 228.871033 289.668884 
L 229.068032 286.170996 
L 229.265031 285.293064 
L 229.46203 286.170996 
L 229.659029 290.336598 
L 229.856028 292.097098 
L 230.053027 292.097098 
L 230.250026 294.564238 
L 231.038023 294.564238 
L 231.235022 297.83478 
L 231.432021 292.640803 
L 231.62902 291.669009 
L 231.826019 292.640803 
L 232.023019 292.640803 
L 232.220018 296.64088 
L 232.417017 298.322422 
L 232.614016 298.322422 
L 232.811015 303.437946 
L 233.008014 312.357065 
L 233.205013 312.357065 
L 233.402012 299.575798 
L 233.599011 299.575798 
L 233.796011 298.283953 
L 234.190009 290.473514 
L 234.387008 289.370291 
L 234.584007 289.370291 
L 234.781006 290.473514 
L 234.978005 311.641994 
L 235.175004 311.641994 
L 235.372004 307.911879 
L 235.569003 291.79547 
L 235.963001 291.669009 
L 236.16 291.669009 
L 236.356999 291.79547 
L 236.553998 289.884944 
L 236.750997 293.049461 
L 236.947996 293.746012 
L 237.144996 295.888197 
L 237.538994 295.888197 
L 237.341995 292.719731 
L 237.735993 292.105095 
L 237.932992 292.105095 
L 238.129991 291.913694 
L 238.32699 292.105095 
L 238.523989 299.743461 
L 239.705984 299.78837 
L 239.902983 300.185054 
L 240.099982 300.185054 
L 240.296981 297.622357 
L 240.493981 300.185054 
L 239.902983 300.185054 
L 240.69098 297.622357 
L 240.887979 299.575456 
L 241.084978 311.620731 
L 241.281977 299.575456 
L 241.478976 297.353126 
L 242.069974 297.353126 
L 242.266973 297.674789 
L 242.660971 301.194421 
L 243.054969 306.615741 
L 243.251968 303.842676 
L 243.380908 346.6 
M 243.522622 346.6 
L 243.645966 308.805167 
L 243.842966 301.880832 
L 244.039965 304.664263 
L 244.236964 301.880832 
L 244.630962 301.880832 
L 244.827961 301.464331 
L 245.02496 299.793428 
L 245.221959 296.352598 
L 245.615958 296.352598 
L 245.812957 297.752707 
L 246.009956 297.752707 
L 246.403954 297.885145 
L 246.797952 299.540878 
L 247.191951 296.357818 
L 247.38895 299.389489 
L 247.585949 299.389489 
L 247.979947 293.453574 
L 248.176946 299.389489 
L 248.373945 293.453574 
L 248.570944 293.453574 
L 248.767944 296.802796 
L 248.964943 297.894973 
L 249.161942 296.802796 
L 249.752939 299.470455 
L 249.949938 298.471732 
L 250.146937 298.471732 
L 250.343936 293.912359 
L 250.540936 278.228673 
L 250.737935 278.228673 
L 250.934934 276.395659 
L 251.328932 293.259962 
L 251.525931 293.259962 
L 251.72293 293.945971 
L 251.919929 293.945971 
L 252.116929 299.233307 
L 252.313928 297.34623 
L 252.510927 298.50368 
L 252.707926 297.34623 
L 252.904925 297.34623 
L 253.101924 295.831907 
L 253.298923 295.831907 
L 252.904925 293.438567 
L 253.495922 293.438567 
L 253.692921 302.266662 
L 254.283919 302.266662 
L 254.480918 293.584169 
L 254.677917 293.387928 
L 255.071915 293.387928 
L 255.268914 294.5614 
L 255.465914 294.5614 
L 255.662913 295.078102 
L 255.859912 294.5614 
L 256.056911 294.5614 
L 256.25391 295.421552 
L 256.450909 295.707552 
L 256.844907 295.707552 
L 257.041906 298.1125 
L 257.238906 298.1125 
L 257.435905 298.401745 
L 257.632904 299.922639 
L 258.223901 299.922639 
L 258.4209 296.921192 
L 258.617899 298.210636 
L 259.011898 298.210636 
L 259.208897 298.342251 
L 259.405896 301.134463 
L 259.602895 298.342251 
L 259.996893 298.342251 
L 260.193892 298.010666 
L 259.996893 298.010666 
L 260.390891 295.298936 
L 260.78489 295.298936 
L 260.981889 300.99727 
L 261.178888 300.241569 
L 260.981889 300.241569 
L 261.375887 300.241569 
L 261.572886 296.097599 
L 261.769885 294.860882 
L 262.163883 294.860882 
L 261.769885 296.092086 
L 262.360883 301.62806 
L 262.557882 296.092086 
L 262.754881 294.026298 
L 263.148879 294.026298 
L 263.345878 302.762199 
L 263.542877 302.762199 
L 263.739876 303.143152 
L 263.936876 302.762199 
L 263.542877 303.143152 
L 263.936876 300.068896 
L 264.133875 301.949446 
L 264.330874 296.028505 
L 264.527873 301.949446 
L 264.724872 294.427814 
L 264.921871 301.949446 
L 266.300865 301.919764 
L 266.497864 298.417632 
L 266.694863 298.417632 
L 266.891862 297.947734 
L 267.088861 297.947734 
L 267.285861 300.539714 
L 267.48286 300.539714 
L 267.679859 304.585071 
L 267.876858 300.539714 
L 268.073857 304.585071 
L 268.270856 299.380382 
L 268.467855 301.652272 
L 268.664854 298.542035 
L 268.861853 301.652272 
L 269.058853 301.652272 
L 269.64985 294.374622 
L 269.846849 294.374622 
L 270.043848 298.3013 
L 270.240847 297.916595 
L 270.437846 297.916595 
L 270.634846 301.043319 
L 270.831845 301.043319 
L 271.028844 297.916595 
L 271.225843 299.100356 
L 271.619841 299.100356 
L 271.81684 297.624933 
L 272.013839 299.100356 
L 272.210838 305.46179 
L 272.407838 305.873091 
L 272.604837 305.46179 
L 272.801836 305.388281 
L 272.998835 305.078225 
L 273.195834 305.078225 
L 273.392833 303.815242 
L 273.589832 323.614943 
L 273.648577 346.6 
M 274.099536 346.6 
L 274.18083 308.593242 
L 274.377829 300.80807 
L 274.574828 300.517906 
L 274.771827 300.517906 
L 274.968826 300.80807 
L 275.165825 300.80807 
L 275.362824 300.517906 
L 275.559823 301.925335 
L 275.756823 310.873313 
L 275.953822 313.295925 
L 276.150821 310.873313 
L 275.953822 310.873313 
L 276.34782 299.354666 
L 276.544819 299.354666 
L 276.741818 295.421552 
L 276.938817 296.739891 
L 277.135816 299.193553 
L 277.332816 296.739891 
L 277.529815 296.739891 
L 277.726814 295.964586 
L 277.923813 292.544703 
L 278.51481 292.507137 
L 278.711809 301.474011 
L 278.908808 279.330182 
L 279.105808 304.580677 
L 279.499806 295.565596 
L 279.696805 295.565596 
L 279.893804 298.924678 
L 280.090803 298.924678 
L 280.287802 301.06296 
L 280.484801 301.06296 
L 280.681801 302.019213 
L 280.8788 301.06296 
L 281.075799 298.926714 
L 281.666796 298.926714 
L 281.469797 300.788618 
L 281.863795 301.227324 
L 282.060794 301.227324 
L 282.257793 301.891117 
L 282.454793 301.227324 
L 282.651792 302.946922 
L 282.848791 300.638421 
L 283.04579 300.638421 
L 283.242789 309.615406 
L 283.439788 299.541048 
L 283.636787 301.869178 
L 283.833786 309.615406 
L 283.242789 301.869178 
L 284.030786 301.869178 
L 284.227785 313.557998 
L 284.621783 313.557998 
L 284.818782 305.192154 
L 285.409779 305.192154 
L 285.606778 304.615233 
L 285.803778 296.097599 
L 286.000777 295.696734 
L 286.197776 296.097599 
L 286.394775 296.097599 
L 286.788773 301.046946 
L 286.985772 298.054375 
L 287.182771 298.054375 
L 286.591774 298.054375 
L 287.379771 294.696912 
L 287.57677 294.696912 
L 287.773769 300.009597 
L 287.970768 294.696912 
L 288.167767 294.784662 
L 288.364766 298.317873 
L 288.167767 298.317873 
L 288.561765 298.317873 
L 288.758764 303.704568 
L 289.546761 303.704568 
L 289.74376 303.521882 
L 289.940759 305.587094 
L 290.137758 303.521882 
L 290.334757 303.521882 
L 290.531756 298.054317 
L 290.728756 305.762862 
L 290.925755 305.762862 
L 291.122754 302.675655 
L 291.319753 302.675655 
L 291.516752 297.01181 
L 291.713751 297.413251 
L 291.91075 297.413251 
L 292.107749 289.434177 
L 292.304748 293.827481 
L 292.501748 293.827481 
L 292.698747 300.131359 
L 292.895746 301.848651 
L 293.092745 301.848651 
L 293.289744 302.218775 
L 293.486743 302.218775 
L 293.683742 301.912534 
L 293.880741 300.365091 
L 294.27474 300.365091 
L 294.471739 301.106513 
L 294.27474 305.024874 
L 294.668738 305.768959 
L 294.865737 310.332538 
L 295.062736 305.768959 
L 295.259735 304.270826 
L 295.456734 297.4244 
L 295.653733 297.4244 
L 295.850733 302.102394 
L 296.244731 302.102394 
L 296.44173 305.374347 
L 296.638729 299.242558 
L 297.032727 299.242558 
L 297.229726 300.245962 
L 297.426726 300.245962 
L 297.623725 307.431349 
L 297.820724 307.431349 
L 298.017723 302.079647 
L 298.214722 302.079647 
L 298.411721 301.297081 
L 298.60872 297.83212 
L 299.002718 297.89837 
L 299.199718 302.10234 
L 299.396717 302.10234 
L 299.593716 299.089288 
L 299.987714 299.089288 
L 300.184713 298.684363 
L 300.578711 298.684363 
L 300.775711 292.946623 
L 300.97271 301.472051 
L 301.366708 301.472051 
L 301.563707 300.695711 
L 301.760706 297.689978 
L 302.548703 297.689978 
L 302.745702 301.595812 
L 302.942701 300.26887 
L 303.1397 297.419073 
L 303.336699 297.419073 
L 303.533698 296.797578 
L 303.730697 296.797578 
L 303.927696 301.089078 
L 304.124695 297.689978 
L 304.321695 299.290951 
L 303.730697 297.689978 
L 304.912692 297.689978 
L 305.109691 293.603082 
L 305.30669 297.689978 
L 305.503689 293.778428 
L 305.700688 293.778428 
L 305.897688 297.196243 
L 306.094687 298.54645 
L 306.488685 298.54645 
L 306.685684 299.115721 
L 306.882683 305.019381 
L 307.079682 299.115721 
L 307.276681 305.019381 
L 307.47368 302.24593 
L 307.67068 297.840186 
L 307.867679 300.368979 
L 308.064678 298.148716 
L 308.261677 300.368979 
L 308.064678 300.368979 
L 308.655675 303.937496 
L 309.049673 303.937496 
L 309.246673 310.45315 
L 309.443672 297.553589 
L 309.640671 301.849234 
L 309.83767 296.084884 
L 310.034669 294.797676 
L 310.231668 292.749809 
L 310.428667 295.050258 
L 310.822665 266.42135 
L 311.216664 266.42135 
L 311.413663 285.176024 
L 312.201659 298.525416 
L 312.398658 298.525416 
L 312.595658 303.042919 
L 312.792657 301.948608 
L 313.580653 301.948608 
L 313.777652 301.810419 
L 313.974651 296.810532 
L 314.565649 296.810532 
L 314.762648 294.179669 
L 315.156646 302.861485 
L 315.550644 306.04429 
L 316.141642 306.04429 
L 316.338641 298.6981 
L 316.53564 298.302787 
L 317.126637 298.302787 
L 317.323636 296.679073 
L 317.520635 299.520449 
L 317.717635 300.610006 
L 317.914634 300.778118 
L 318.111633 302.016964 
L 318.70263 302.016964 
L 318.899629 304.120659 
L 318.70263 304.919815 
L 319.096628 304.919815 
L 319.293628 303.739136 
L 319.490627 298.538149 
L 319.687626 298.538149 
L 320.081624 297.053385 
L 320.278623 297.053385 
L 320.475622 297.33049 
L 320.672621 297.33049 
L 320.86962 297.692832 
L 321.460618 303.336191 
L 321.657617 303.336191 
L 321.854616 305.411081 
L 322.248614 297.689978 
L 322.642613 314.814472 
L 322.839612 314.814472 
L 323.627608 300.806194 
L 323.824607 305.654519 
L 324.021606 306.851745 
L 324.218605 305.368822 
L 324.415605 305.368822 
L 324.612604 302.584588 
L 324.809603 302.584588 
L 325.006602 299.487848 
L 325.203601 298.487965 
L 325.4006 298.487965 
L 325.597599 303.820291 
L 325.794598 303.820291 
L 325.991598 305.152675 
L 326.385596 305.168989 
L 326.582595 298.124557 
L 326.779594 299.827322 
L 327.370591 299.827322 
L 327.56759 298.809281 
L 328.355587 298.809281 
L 328.552586 301.845071 
L 328.749585 301.845071 
L 328.946584 311.826856 
L 329.143583 301.845071 
L 329.340583 302.243824 
L 329.537582 304.696455 
L 330.128579 304.696455 
L 330.325578 302.757497 
L 330.522577 298.24589 
L 330.719576 297.558858 
L 330.916575 298.24589 
L 332.492568 298.211738 
L 332.689568 305.12266 
L 332.886567 305.12266 
L 333.083566 305.830496 
L 333.280565 305.450727 
L 333.477564 305.830496 
L 333.674563 321.058275 
L 333.871562 321.058275 
L 333.934745 346.6 
M 334.192859 346.6 
L 334.26556 314.959843 
L 335.250556 315.010754 
L 335.447555 314.561591 
L 335.644554 313.428979 
L 335.841553 313.428979 
L 336.038553 303.46708 
L 336.235552 300.660327 
L 336.432551 300.660327 
L 336.62955 301.622918 
L 336.826549 301.622918 
L 337.023548 307.998791 
L 337.614545 307.998791 
L 337.811545 306.413762 
L 338.008544 306.413762 
L 338.205543 320.766112 
L 338.402542 323.440239 
L 338.599541 323.915249 
L 338.79654 323.992125 
L 338.993539 323.915249 
L 339.190538 313.863636 
L 339.584537 313.863636 
L 339.781536 318.336659 
L 340.175534 318.336659 
L 340.372533 317.247382 
L 340.569532 311.725325 
L 340.766531 317.247382 
L 340.96353 308.963987 
L 341.16053 344.009359 
L 341.357529 318.425237 
L 341.554528 323.473608 
L 341.751527 318.425237 
L 341.948526 318.425237 
L 342.145525 310.664502 
L 342.342524 310.664502 
L 342.539523 303.711932 
L 343.130521 321.337386 
L 343.32752 317.293827 
L 343.524519 317.293827 
L 343.721518 315.153924 
L 343.918517 304.869371 
L 344.115516 304.869371 
L 344.312515 313.772545 
L 344.509515 304.869371 
L 344.706514 313.772545 
L 344.903513 313.772545 
L 345.297511 301.110972 
L 345.888508 313.321447 
L 346.085508 313.321447 
L 346.479506 298.880209 
L 346.676505 306.31942 
L 346.873504 298.118715 
L 347.070503 296.609777 
L 347.267502 296.609777 
L 347.464501 300.889366 
L 347.6615 300.889366 
L 347.8585 305.76451 
L 348.055499 305.76451 
L 348.252498 300.004515 
L 348.449497 299.369604 
L 348.646496 300.004515 
L 348.843495 300.004515 
L 349.040494 303.842676 
L 349.434492 303.842676 
L 349.828491 316.097005 
L 350.02549 318.125426 
L 350.222489 318.125426 
L 350.419488 319.883939 
L 350.616487 322.673975 
L 350.813486 319.883939 
L 351.010485 322.673975 
L 351.207485 322.673975 
L 351.404484 302.597068 
L 351.601483 301.713603 
L 351.798482 301.713603 
L 351.995481 305.961139 
L 352.19248 305.961139 
L 352.389479 307.457028 
L 352.586478 310.097604 
L 352.980477 310.097604 
L 353.177476 309.788898 
L 353.374475 307.888423 
L 353.571474 309.788898 
L 353.768473 307.888423 
L 353.965472 307.888423 
L 354.162471 305.60174 
L 354.35947 309.016273 
L 354.55647 309.016273 
L 354.753469 311.616105 
L 355.147467 305.631632 
L 355.344466 304.459677 
L 355.935463 304.459677 
L 356.132462 304.658302 
L 356.329462 311.001604 
L 356.526461 313.536646 
L 357.117458 313.536646 
L 357.314457 312.196644 
L 357.511456 300.491364 
L 357.708455 300.491364 
L 357.905455 300.29011 
L 358.299453 300.29011 
L 358.496452 297.584812 
L 359.087449 297.584812 
L 359.284448 302.260981 
L 359.481447 303.114179 
L 359.678447 304.993678 
L 359.875446 304.993678 
L 360.072445 305.132313 
L 360.269444 309.438318 
L 360.466443 309.438318 
L 360.663442 314.645471 
L 360.860441 309.438318 
L 361.05744 309.438318 
L 361.25444 311.140605 
L 361.451439 311.653312 
L 361.648438 311.140605 
L 361.845437 311.653312 
L 362.042436 316.138852 
L 362.239435 316.138852 
L 362.436434 316.707857 
L 362.633433 313.916948 
L 362.830432 313.150212 
L 363.027432 306.581244 
L 363.224431 306.581244 
L 363.42143 306.119553 
L 363.618429 301.987996 
L 363.815428 301.987996 
L 364.012427 300.78011 
L 364.209426 301.203338 
L 364.406425 300.48316 
L 364.603425 301.203338 
L 364.800424 301.203338 
L 364.997423 300.48316 
L 365.194422 300.48316 
L 365.391421 304.134005 
L 365.58842 304.980624 
L 365.785419 308.112493 
L 366.179417 307.876443 
L 366.376417 311.690307 
L 366.573416 307.876443 
L 366.770415 307.876443 
L 367.164413 316.43864 
L 367.558411 316.43864 
L 367.75541 314.885466 
L 367.95241 314.601796 
L 368.346408 314.601796 
L 368.543407 322.871464 
L 368.740406 322.871464 
L 368.937405 312.688993 
L 369.134404 312.688993 
L 369.331403 306.815309 
L 369.528402 306.815309 
L 369.725402 307.821973 
L 369.922401 303.922466 
L 370.513398 303.922466 
L 370.710397 305.051205 
L 370.907396 312.746713 
L 371.104395 312.746713 
L 371.301395 318.243172 
L 371.498394 318.243172 
L 371.695393 302.595302 
L 371.892392 301.892279 
L 372.089391 301.892279 
L 372.28639 294.365209 
L 372.483389 294.227504 
L 372.680388 294.227504 
L 372.877387 295.726326 
L 373.074387 295.726326 
L 373.271386 298.287572 
L 373.468385 303.662838 
L 373.665384 305.351706 
L 373.862383 303.662838 
L 374.059382 298.287572 
L 374.256381 313.834834 
L 374.45338 301.115505 
L 374.65038 301.115505 
L 374.847379 306.321363 
L 375.044378 306.321363 
L 375.241377 305.469598 
L 375.832374 305.469598 
L 376.029373 304.973798 
L 376.226372 303.842676 
L 376.423372 304.973798 
L 376.620371 307.493896 
L 377.211368 307.493896 
L 377.605366 296.555966 
L 377.999365 296.555966 
L 378.196364 297.940817 
L 378.393363 297.940817 
L 378.590362 311.389091 
L 378.787361 311.389091 
L 378.98436 317.811197 
L 379.181359 317.811197 
L 379.378358 308.256732 
L 379.575357 306.561636 
L 379.772357 299.87713 
L 379.969356 299.739217 
L 380.166355 297.916595 
L 380.363354 297.916595 
L 380.560353 304.962901 
L 380.757352 304.962901 
L 381.15135 318.210061 
L 381.34835 318.210061 
L 381.545349 313.184774 
L 381.742348 313.184774 
L 381.939347 301.587997 
L 382.136346 303.556411 
L 382.530344 303.556411 
L 382.727343 306.323208 
L 383.318341 306.308368 
L 383.51534 305.468618 
L 383.712339 299.942819 
L 383.909338 299.942819 
L 384.106337 302.972622 
L 384.303336 300.077819 
L 384.500335 300.077819 
L 384.697335 299.30992 
L 384.894334 299.30992 
L 385.091333 298.698249 
L 385.288332 298.698249 
L 385.485331 301.575556 
L 385.68233 301.575556 
L 385.879329 300.712703 
L 386.273327 300.712703 
L 386.470327 301.995658 
L 386.667326 301.995658 
L 386.864325 306.173623 
L 387.061324 304.062066 
L 387.455322 304.062066 
L 387.652321 310.624369 
L 387.84932 310.624369 
L 388.04632 314.222601 
L 388.243319 314.222601 
L 388.440318 304.900168 
L 388.637317 303.659638 
L 388.834316 303.659638 
L 389.031315 308.468563 
L 389.228314 308.468563 
L 389.425313 298.948981 
L 389.622312 298.948981 
L 389.819312 297.916595 
L 390.016311 298.948981 
L 390.21331 301.905485 
L 390.410309 306.959529 
L 390.607308 307.623193 
L 390.804307 307.623193 
L 391.001306 306.959529 
L 391.198305 304.738346 
L 391.592304 304.738346 
L 391.986302 309.794948 
L 392.183301 307.31041 
L 392.3803 308.327258 
L 393.168297 308.43025 
L 393.365296 310.513413 
L 393.562295 310.513413 
L 393.759294 308.345146 
L 393.956293 302.686087 
L 394.54729 302.686087 
L 394.744289 298.696777 
L 394.941289 309.014189 
L 395.532286 309.014189 
L 395.729285 299.331179 
L 396.320282 299.331179 
L 396.517282 293.701876 
L 396.714281 293.701876 
L 396.91128 295.94365 
L 397.108279 295.94365 
L 397.502277 297.463188 
L 397.699276 303.006859 
L 398.093274 303.006859 
L 398.290274 307.824677 
L 398.487273 317.201206 
L 398.487273 317.201206 
" style="fill:none;stroke:#1f77b4;stroke-linecap:square;stroke-width:1.5;"/>
   </g>
   <g id="line2d_15">
    <path clip-path="url(#p130ee2133b)" d="M 73.832727 268.757772 
L 74.029726 270.019285 
L 73.832727 266.257934 
L 74.423725 257.698411 
L 74.620724 261.631343 
L 74.817723 262.493315 
L 75.014722 250.567473 
L 75.211721 255.293402 
L 75.40872 248.9119 
L 75.211721 254.025882 
L 75.605719 257.795095 
L 75.802718 255.051049 
L 75.999718 253.890064 
L 76.393716 270.152738 
L 76.590715 270.776362 
L 76.984713 275.287228 
L 77.181712 282.155698 
L 77.378711 272.753834 
L 77.575711 280.430933 
L 77.969709 259.830517 
L 78.166708 261.488488 
L 78.363707 250.381933 
L 78.560706 255.153489 
L 78.757705 248.871452 
L 78.954704 259.523504 
L 79.151703 261.310307 
L 79.545702 267.963946 
L 79.742701 267.800337 
L 79.9397 274.483963 
L 80.136699 272.859545 
L 80.727696 293.924352 
L 80.924695 274.518266 
L 81.121695 272.874435 
L 81.318694 269.962765 
L 81.515693 270.67572 
L 81.909691 284.842914 
L 82.10669 262.114729 
L 82.303689 262.751209 
L 82.500688 264.938616 
L 82.697688 250.966957 
L 83.091686 263.303496 
L 83.485684 266.393433 
L 83.682683 272.094175 
L 83.879682 271.760179 
L 84.27368 286.445529 
L 84.47068 262.219907 
L 84.667679 256.600002 
L 84.864678 261.784748 
L 85.061677 256.464456 
L 85.652674 270.030513 
L 85.849673 270.7117 
L 86.046673 276.999885 
L 86.243672 273.886033 
L 86.440671 272.595974 
L 86.63767 269.853743 
L 87.031668 283.550787 
L 87.228667 275.973412 
L 87.425666 252.079941 
L 87.622665 249.653852 
L 87.819665 255.452667 
L 88.016664 248.957519 
L 88.607661 265.039801 
L 88.80466 267.800785 
L 89.001659 267.719615 
L 89.198658 269.428881 
L 89.395658 275.918657 
L 89.592657 278.448136 
L 89.789656 271.823418 
L 89.986655 269.542863 
L 90.183654 261.171613 
L 90.380653 265.19974 
L 90.577652 259.959937 
L 90.774651 261.940326 
L 90.97165 265.739044 
L 91.16865 263.150099 
L 91.365649 265.803769 
L 91.562648 261.563323 
L 91.956646 273.486746 
L 92.153645 264.593912 
L 92.350644 262.861438 
L 92.547643 235.773562 
L 92.744643 243.267919 
L 92.941642 258.014331 
L 93.138641 263.609734 
L 93.33564 249.187841 
L 93.532639 255.066492 
L 93.926637 257.836662 
L 94.320635 270.112653 
L 94.517635 276.790846 
L 94.911633 268.471681 
L 95.108632 268.047849 
L 95.305631 235.975822 
L 96.093628 260.450409 
L 96.487626 264.916178 
L 96.684625 254.441527 
L 96.881624 259.127695 
L 97.275622 232.584679 
L 97.66962 245.035951 
L 97.86662 249.94797 
L 98.063619 240.469918 
L 98.457617 252.66094 
L 98.654616 249.444734 
L 99.245613 269.106478 
L 99.442613 270.179014 
L 99.836611 270.790221 
L 100.03361 277.293045 
L 100.230609 273.997117 
L 100.427608 261.602077 
L 100.230609 258.315584 
L 100.427608 262.061555 
L 100.821606 264.517039 
L 101.018605 270.753576 
L 101.215605 269.091691 
L 101.412604 276.106549 
L 101.609603 271.11404 
L 102.003601 268.446209 
L 102.2006 268.035565 
L 102.397599 269.610982 
L 102.2006 270.487304 
L 102.594598 270.951712 
L 102.791598 278.17944 
L 103.185596 270.50418 
L 103.382595 248.27246 
L 103.973592 267.770092 
L 104.170591 268.643922 
L 104.36759 275.034815 
L 104.56459 269.077087 
L 104.761589 270.196268 
L 104.958588 276.266329 
L 105.155587 271.165665 
L 105.352586 269.268337 
L 105.549585 275.496882 
L 105.746584 266.96798 
L 106.140583 280.647276 
L 106.337582 275.146947 
L 106.534581 280.67721 
L 106.73158 275.156238 
L 106.928579 282.748747 
L 107.125578 272.882683 
L 107.322577 272.136489 
L 107.519576 278.867249 
L 107.716575 291.285033 
L 107.913575 274.244987 
L 108.110574 270.476296 
L 108.307573 270.945981 
L 108.504572 277.237551 
L 108.701571 273.976224 
L 108.89857 280.31427 
L 109.095569 275.042466 
L 109.292568 280.592837 
L 109.489568 256.319372 
L 109.883566 268.223127 
L 110.080565 263.144456 
L 109.883566 266.561919 
L 110.277564 273.831265 
L 110.474563 270.325283 
L 110.671562 271.643174 
L 111.06556 282.766418 
L 111.26256 272.886443 
L 111.459559 269.639077 
L 111.656558 270.502449 
L 111.853557 274.201712 
L 112.247555 269.394498 
L 112.444554 277.271515 
L 112.838553 271.479482 
L 113.232551 281.38773 
L 113.42955 248.692107 
L 114.020547 263.852312 
L 114.217546 247.435701 
L 114.414545 253.591543 
L 114.611545 266.060863 
L 114.808544 265.486378 
L 114.611545 272.529055 
L 115.005543 278.588464 
L 115.202542 271.862798 
L 115.399541 279.171177 
L 115.59654 248.620168 
L 115.990538 267.450872 
L 116.384537 273.716177 
L 116.581536 263.332629 
L 116.778535 240.218079 
L 117.172533 254.382654 
L 117.369532 251.404439 
L 117.566531 258.332905 
L 117.76353 256.853326 
L 118.157529 263.869096 
L 118.354528 271.754811 
L 118.551527 274.859706 
L 118.945525 284.919213 
L 119.142524 287.959633 
L 119.536523 255.163606 
L 119.930521 263.063164 
L 120.324519 267.855494 
L 120.521518 254.377284 
L 120.718517 257.887322 
L 120.521518 260.144812 
L 120.915516 263.824327 
L 121.506514 280.862914 
L 122.097511 295.290561 
L 122.29451 278.065268 
L 122.491509 271.714216 
L 122.688508 277.896509 
L 122.885508 265.494622 
L 123.082507 268.08748 
L 123.476505 260.671044 
L 123.673504 262.349676 
L 123.870503 268.98329 
L 124.067502 263.383962 
L 124.264501 264.958771 
L 124.4615 267.749271 
L 124.6585 259.825886 
L 124.855499 266.43346 
L 125.052498 267.020524 
L 125.249497 274.730929 
L 125.446496 269.780989 
L 125.840494 285.123711 
L 126.037493 256.551108 
L 126.234492 264.287798 
L 126.431492 221.318574 
L 126.82549 233.604562 
L 127.219488 246.002552 
L 127.613486 257.985182 
L 128.007485 246.851446 
L 127.613486 243.7378 
L 128.204484 237.176474 
L 128.598482 239.938159 
L 129.189479 259.270158 
L 129.780477 269.748989 
L 129.977476 270.76995 
L 130.174475 277.902135 
L 130.371474 248.572572 
L 130.568473 238.401464 
L 130.765472 237.325816 
L 131.15947 224.81753 
L 131.750468 235.735257 
L 132.144466 251.397521 
L 132.341465 252.278729 
L 132.538464 247.299004 
L 132.735463 251.258951 
L 132.932462 251.853564 
L 133.129462 253.043143 
L 133.52346 264.255946 
L 133.917458 266.695982 
L 134.114457 267.157881 
L 134.508455 261.031956 
L 134.705455 230.035824 
L 135.296452 251.301966 
L 135.493451 245.058912 
L 136.084448 266.005712 
L 136.281447 251.305334 
L 136.478447 252.981312 
L 136.872445 268.845319 
L 137.069444 248.041679 
L 137.266443 250.462745 
L 137.463442 256.116522 
L 137.660441 255.334858 
L 137.85744 229.786602 
L 138.251439 243.645683 
L 138.448438 237.150293 
L 139.039435 258.100312 
L 139.236434 252.703162 
L 139.827432 268.447506 
L 140.024431 269.255879 
L 140.22143 275.606604 
L 140.418429 269.176069 
L 140.812427 249.954926 
L 141.009426 247.205452 
L 141.206425 254.793562 
L 141.403425 256.959913 
L 141.600424 261.107523 
L 141.797423 267.915142 
L 141.994422 256.101872 
L 142.191421 263.522756 
L 142.585419 266.464593 
L 142.782418 274.23622 
L 142.979417 270.473131 
L 143.373416 254.212152 
L 143.570415 259.076396 
L 143.767414 253.000331 
L 144.161412 261.941317 
L 144.358411 247.286247 
L 144.949409 263.096228 
L 145.146408 267.261207 
L 145.343407 265.396053 
L 145.737405 276.356782 
L 145.934404 271.194676 
L 146.131403 273.627789 
L 146.328402 270.249748 
L 146.525402 273.23307 
L 146.722401 263.716798 
L 146.9194 265.512309 
L 146.722401 266.568539 
L 147.116399 272.191305 
L 147.313398 262.299874 
L 147.510397 265.433389 
L 147.707396 263.216912 
L 146.9194 265.217736 
L 147.904395 268.431762 
L 148.101395 263.211267 
L 148.298394 261.281452 
L 148.495393 264.028474 
L 148.692392 271.017814 
L 148.889391 270.596376 
L 149.08639 269.023355 
L 149.283389 268.773258 
L 149.480388 269.629548 
L 149.677387 269.531312 
L 149.874387 247.988781 
L 150.268385 258.926335 
L 150.662383 265.317361 
L 150.859382 272.750702 
L 151.056381 269.914519 
L 151.25338 248.126387 
L 151.647379 260.44504 
L 151.844378 247.06366 
L 152.435375 265.182302 
L 152.632374 266.345501 
L 152.829373 273.806803 
L 153.026372 270.316246 
L 153.223372 274.908694 
L 153.420371 270.711435 
L 153.61737 260.323208 
L 154.405366 271.449669 
L 154.602365 268.013611 
L 154.799365 267.464406 
L 155.193363 267.595112 
L 155.390362 274.666315 
L 155.587361 257.468489 
L 155.981359 263.598396 
L 156.178358 247.505503 
L 156.572357 259.525657 
L 156.966355 266.101574 
L 157.163354 264.150214 
L 157.360353 247.57264 
L 157.557352 254.114623 
L 157.754351 247.155246 
L 158.345349 264.360483 
L 158.542348 265.883878 
L 158.14835 268.947519 
L 158.739347 268.274757 
L 158.936346 250.325179 
L 159.330344 264.120058 
L 159.527343 265.746116 
L 159.921342 277.035684 
L 160.118341 273.899692 
L 160.31534 267.176024 
L 160.512339 267.4052 
L 160.906337 280.141006 
L 161.103336 269.25513 
L 161.497335 277.717272 
L 161.694334 271.4056 
L 161.891333 278.315902 
L 162.088332 263.334178 
L 162.285331 268.445897 
L 162.48233 268.356978 
L 162.285331 267.99242 
L 162.679329 265.677846 
L 162.876328 266.616879 
L 163.073327 271.345049 
L 163.270327 269.34411 
L 163.664325 281.53049 
L 163.861324 272.612311 
L 164.058323 272.008968 
L 164.255322 278.384061 
L 164.452321 263.366125 
L 164.64932 260.175153 
L 165.043319 263.314729 
L 164.64932 264.853853 
L 165.240318 267.682375 
L 165.437317 250.924397 
L 166.225313 270.884582 
L 166.422312 269.148238 
L 166.619312 251.087787 
L 167.210309 268.556397 
L 167.407308 268.088604 
L 167.604307 246.692643 
L 167.801306 251.437889 
L 167.998305 238.890579 
L 168.392304 246.744365 
L 168.589303 237.952194 
L 169.377299 265.721714 
L 169.574298 266.640649 
L 170.165296 282.293757 
L 170.362295 272.784293 
L 170.756293 284.49993 
L 171.150291 268.021762 
L 171.544289 267.733517 
L 171.938288 267.662566 
L 172.135287 268.869753 
L 172.332286 268.238007 
L 172.529285 272.045657 
L 172.726284 262.268777 
L 173.120282 269.481443 
L 173.317282 268.523551 
L 173.514281 274.732875 
L 173.71128 270.649994 
L 173.908279 276.988236 
L 174.105278 271.392938 
L 174.302277 277.295983 
L 174.499276 271.486888 
L 174.893274 269.403543 
L 175.090274 273.87389 
L 175.287273 270.341 
L 175.484272 268.911221 
L 175.681271 274.11894 
L 175.87827 270.430651 
L 176.075269 259.036067 
L 175.87827 262.554877 
L 176.272268 255.837892 
L 176.469267 262.886745 
L 176.666267 265.020314 
L 177.060265 275.741594 
L 177.257264 270.994305 
L 177.454263 269.195319 
L 177.848261 268.390988 
L 178.04526 254.54562 
L 178.439259 266.418211 
L 178.636258 245.631019 
L 178.833257 253.509467 
L 179.030256 268.277347 
L 179.424254 277.425714 
L 179.621253 260.05896 
L 179.818252 258.268208 
L 180.015252 262.028778 
L 180.212251 247.298512 
L 180.40925 255.009636 
L 180.606249 246.021929 
L 181.197246 264.560211 
L 181.394245 250.081915 
L 181.788244 260.712668 
L 181.985243 264.957091 
L 182.182242 266.22043 
L 182.379241 247.910093 
L 182.57624 252.34356 
L 182.773239 247.670751 
L 182.970238 246.355707 
L 183.364237 255.560755 
L 183.561236 257.821574 
L 183.758235 261.717751 
L 183.955234 269.121605 
L 184.152233 268.356551 
L 184.349232 268.603907 
L 184.546231 253.913261 
L 184.74323 256.792163 
L 185.137229 271.567838 
L 185.531227 268.503202 
L 185.925225 282.019243 
L 186.122224 275.555982 
L 186.319223 281.184573 
L 186.516222 272.531437 
L 186.713222 276.921133 
L 187.10722 274.51911 
L 187.304219 262.067599 
L 187.698217 265.975044 
L 187.895216 256.856716 
L 188.289214 269.407399 
L 188.486214 255.218815 
L 188.880212 268.913181 
L 189.077211 268.258545 
L 189.27421 272.284803 
L 189.471209 278.831339 
L 189.668208 274.551679 
L 189.865207 259.378643 
L 190.062207 266.727404 
L 189.865207 267.174222 
L 190.259206 267.404281 
L 190.456205 273.402026 
L 190.653204 270.16496 
L 190.850203 259.292455 
L 191.047202 264.924632 
L 191.244201 265.889136 
L 191.4412 259.165314 
L 191.638199 266.988765 
L 191.835199 266.476083 
L 192.032198 272.490901 
L 192.229197 248.303002 
L 193.411192 283.258267 
L 193.214192 284.576537 
L 193.608191 268.008795 
L 193.80519 255.003057 
L 194.002189 250.572198 
L 194.396187 261.486818 
L 194.790185 267.233349 
L 194.987184 272.841684 
L 195.184184 269.950025 
L 195.381183 257.476055 
L 196.169179 284.276344 
L 196.366178 263.669268 
L 196.563177 265.484525 
L 196.760177 271.939752 
L 196.957176 271.334693 
L 197.154175 250.48146 
L 197.351174 250.554079 
L 197.548173 258.116214 
L 197.745172 261.172466 
L 197.942171 268.232541 
L 198.336169 267.784561 
L 198.533169 273.021603 
L 198.730168 270.019739 
L 198.927167 274.943965 
L 199.124166 256.128918 
L 199.715163 268.323983 
L 200.109162 275.123167 
L 200.306161 270.785564 
L 200.700159 277.67605 
L 201.094157 269.929369 
L 201.291156 275.195568 
L 201.094157 279.131211 
L 201.685154 265.787939 
L 201.882154 269.103644 
L 202.276152 252.02847 
L 202.867149 266.802733 
L 203.064148 271.093903 
L 203.261147 269.237834 
L 203.458147 270.284537 
L 203.655146 248.154058 
L 204.443142 272.267771 
L 204.640141 269.723189 
L 204.83714 270.925591 
L 205.034139 263.948183 
L 205.231139 271.10428 
L 205.428138 268.412853 
L 205.625137 269.825667 
L 205.822136 268.680701 
L 206.019135 275.260162 
L 206.216134 273.190371 
L 206.019135 254.748518 
L 206.807132 269.339513 
L 207.004131 252.635965 
L 207.20113 255.611169 
L 207.398129 262.729584 
L 207.595128 247.39395 
L 208.186125 265.946452 
L 208.383124 272.023389 
L 208.580124 269.624525 
L 208.777123 243.72129 
L 209.36812 260.435091 
L 209.565119 263.484605 
L 209.762118 259.824735 
L 209.959117 264.229535 
L 210.353116 276.090554 
L 210.550115 271.108846 
L 210.747114 257.664936 
L 211.141112 267.680382 
L 211.338111 267.659678 
L 211.53511 253.181375 
L 211.732109 258.283084 
L 211.929109 239.797337 
L 212.323107 253.059257 
L 212.520106 245.543855 
L 212.717105 243.066637 
L 213.111103 259.334192 
L 213.308102 246.881942 
L 213.702101 260.15138 
L 214.096099 270.083492 
L 214.293098 260.192617 
L 214.687096 264.463078 
L 214.884095 266.826643 
L 215.081094 267.225691 
L 215.278094 256.920012 
L 215.475093 261.078946 
L 215.672092 250.650375 
L 216.263089 269.774213 
L 216.460088 249.405564 
L 216.657087 252.619508 
L 216.854086 260.249066 
L 217.051086 263.363167 
L 217.445084 277.187877 
L 217.642083 271.454083 
L 217.839082 255.496893 
L 218.036081 259.892951 
L 218.23308 253.070729 
L 219.021077 277.856914 
L 219.218076 275.919195 
L 219.415075 271.05289 
L 219.612074 276.680277 
L 219.809073 271.297174 
L 220.006072 269.323954 
L 220.203071 281.26507 
L 220.400071 264.022819 
L 220.794069 271.880493 
L 220.991068 268.177029 
L 221.188067 267.90489 
L 221.385066 264.517068 
L 221.582065 256.364559 
L 221.779064 260.366083 
L 221.582065 255.192674 
L 222.173063 262.884466 
L 222.370062 258.244118 
L 222.76406 267.369259 
L 222.961059 250.884764 
L 223.158058 258.575248 
L 223.355057 272.485522 
L 223.552056 240.107656 
L 223.749056 247.88871 
L 223.946055 249.416039 
L 224.143054 257.401958 
L 224.340053 246.529356 
L 224.93105 265.905069 
L 224.734051 240.375196 
L 225.522048 243.773871 
L 225.719047 242.319472 
L 225.916046 249.257777 
L 225.719047 244.425186 
L 226.113045 251.195005 
L 226.310044 245.02765 
L 226.507043 251.510399 
L 227.098041 237.191166 
L 227.886037 266.177536 
L 228.083036 252.940266 
L 228.280035 258.095195 
L 228.477034 258.657841 
L 229.265031 269.642036 
L 229.46203 268.597184 
L 230.250026 251.301838 
L 230.447026 256.702317 
L 231.038023 264.683136 
L 231.432021 270.342365 
L 231.62902 268.911824 
L 231.826019 275.219666 
L 232.023019 270.818624 
L 232.220018 278.101931 
L 232.614016 271.724785 
L 232.811015 277.905531 
L 233.008014 247.512782 
L 233.205013 245.3955 
L 233.402012 251.832052 
L 233.599011 238.956191 
L 233.796011 239.945646 
L 233.99301 243.619999 
L 234.978005 273.255866 
L 235.175004 270.109515 
L 235.372004 254.706266 
L 235.766002 263.623355 
L 236.356999 268.704435 
L 236.553998 252.309338 
L 236.947996 261.561744 
L 237.341995 267.264088 
L 237.538994 271.492101 
L 237.341995 269.405719 
L 237.932992 265.301666 
L 238.32699 267.745607 
L 238.523989 269.443941 
L 238.720989 248.089993 
L 239.311986 266.685823 
L 239.508985 271.562577 
L 239.705984 269.435085 
L 239.902983 265.55829 
L 240.099982 271.640792 
L 240.296981 269.467552 
L 240.493981 274.92842 
L 239.902983 248.439318 
L 240.69098 253.962987 
L 240.887979 258.886132 
L 241.281977 262.453016 
L 241.478976 267.063955 
L 241.675975 241.929429 
L 242.660971 273.205809 
L 243.251968 248.34583 
L 243.448967 250.252285 
L 243.645966 256.825304 
L 243.842966 255.845464 
L 244.039965 248.72565 
L 244.236964 255.797495 
L 244.630962 239.332972 
L 245.221959 256.621851 
L 245.418959 244.280224 
L 246.009956 263.259722 
L 246.403954 234.553439 
L 246.994951 255.779546 
L 247.191951 239.518404 
L 247.585949 254.671443 
L 247.782948 254.597217 
L 248.176946 268.754304 
L 248.373945 268.183209 
L 248.767944 239.0923 
L 248.964943 245.296865 
L 249.161942 237.597387 
L 249.55594 250.611053 
L 249.752939 238.746762 
L 249.949938 239.831101 
L 250.540936 257.958592 
L 250.737935 243.340122 
L 251.131933 258.429189 
L 251.525931 264.988349 
L 251.72293 263.890701 
L 252.116929 267.291133 
L 252.313928 258.630798 
L 252.510927 266.02357 
L 252.707926 251.122571 
L 252.904925 248.268434 
L 253.101924 248.647093 
L 253.298923 240.669652 
L 252.904925 245.32208 
L 253.495922 249.708882 
L 253.889921 260.914108 
L 254.08692 263.794168 
L 254.283919 268.827558 
L 254.677917 267.924887 
L 254.874916 272.671366 
L 255.071915 269.883418 
L 255.268914 251.583585 
L 255.662913 264.879819 
L 255.859912 254.434173 
L 256.056911 261.425477 
L 256.25391 264.1196 
L 256.450909 271.425886 
L 256.844907 268.049855 
L 257.041906 256.400302 
L 257.435905 264.247079 
L 257.632904 254.30321 
L 258.026902 262.62908 
L 258.4209 266.168792 
L 258.617899 265.146965 
L 258.814898 267.0191 
L 259.011898 265.728832 
L 259.208897 266.644502 
L 259.405896 272.841731 
L 259.602895 269.950044 
L 259.996893 277.459566 
L 260.390891 261.493198 
L 260.587891 240.083942 
L 260.981889 252.7664 
L 261.178888 259.566362 
L 260.981889 264.03287 
L 261.375887 265.695856 
L 261.769885 249.275229 
L 262.163883 255.697763 
L 261.769885 249.612026 
L 262.360883 255.116057 
L 262.95188 269.246608 
L 263.148879 260.495502 
L 263.542877 266.70397 
L 263.739876 267.162037 
L 263.936876 271.143011 
L 263.542877 269.258719 
L 263.936876 272.582001 
L 264.133875 278.920301 
L 264.330874 271.95456 
L 264.527873 275.313261 
L 264.724872 273.212537 
L 264.921871 255.703774 
L 265.315869 263.327506 
L 265.512868 265.283357 
L 265.709868 249.113032 
L 265.906867 256.267286 
L 266.103866 246.298985 
L 266.300865 253.066139 
L 266.497864 245.545651 
L 266.694863 253.241403 
L 266.891862 241.248073 
L 267.48286 261.285111 
L 267.876858 266.880484 
L 268.073857 271.214301 
L 268.467855 252.062399 
L 269.058853 272.057943 
L 269.255852 269.638551 
L 269.64985 248.232947 
L 269.846849 252.088519 
L 270.043848 258.485739 
L 270.240847 259.042878 
L 270.437846 264.204349 
L 270.634846 239.874506 
L 270.831845 240.436778 
L 271.225843 253.559882 
L 271.422842 256.200261 
L 271.619841 262.364461 
L 272.407838 270.993499 
L 272.604837 277.777521 
L 272.801836 274.176876 
L 272.998835 278.168707 
L 273.195834 274.318578 
L 273.392833 275.166553 
L 273.786831 273.204472 
L 273.983831 275.422049 
L 274.18083 255.926952 
L 274.574828 266.723791 
L 274.771827 267.172344 
L 274.968826 269.878589 
L 275.165825 260.148777 
L 275.559823 265.265529 
L 275.953822 278.316901 
L 276.150821 281.367643 
L 275.953822 284.090708 
L 276.741818 269.247039 
L 276.938817 270.289575 
L 277.135816 269.760325 
L 277.332816 269.617041 
L 277.529815 268.58576 
L 277.726814 255.175538 
L 277.923813 250.321404 
L 278.120812 229.811057 
L 278.51481 245.364528 
L 278.711809 242.993937 
L 279.499806 267.531089 
L 279.696805 250.63559 
L 280.287802 266.703255 
L 280.484801 267.161665 
L 280.8788 270.210076 
L 281.075799 266.021046 
L 281.272798 264.385519 
L 281.666796 274.286379 
L 281.469797 276.919708 
L 282.060794 269.355343 
L 282.257793 272.646318 
L 282.651792 250.079792 
L 283.04579 264.552262 
L 283.242789 261.829971 
L 283.439788 267.193466 
L 283.636787 254.866782 
L 283.242789 257.004015 
L 284.030786 264.197259 
L 284.424784 237.040286 
L 284.818782 254.224312 
L 285.409779 265.486316 
L 285.606778 266.512615 
L 285.803778 247.830014 
L 286.000777 247.583772 
L 286.197776 253.359319 
L 286.394775 245.621408 
L 286.591774 247.204154 
L 286.985772 260.560386 
L 287.182771 249.219092 
L 286.591774 253.289356 
L 287.379771 256.029543 
L 287.57677 249.813666 
L 287.773769 256.169177 
L 287.970768 246.27821 
L 288.364766 254.610996 
L 288.167767 262.143064 
L 288.561765 260.817385 
L 289.152763 270.035507 
L 289.349762 277.333208 
L 289.546761 279.183331 
L 289.74376 272.025947 
L 289.940759 255.56724 
L 290.334757 268.000406 
L 290.531756 267.818296 
L 290.728756 275.4424 
L 290.925755 248.464748 
L 291.122754 250.745076 
L 291.516752 260.664932 
L 291.713751 261.75244 
L 292.304748 268.335528 
L 292.501748 267.982023 
L 292.698747 277.125845 
L 292.895746 271.435162 
L 293.092745 255.494513 
L 293.486743 257.377536 
L 293.880741 267.199625 
L 294.077741 273.714494 
L 294.27474 253.450048 
L 294.668738 244.488502 
L 295.062736 259.622903 
L 295.259735 262.949452 
L 295.456734 252.362639 
L 295.653733 249.330908 
L 295.850733 254.128741 
L 296.047732 239.303156 
L 296.44173 251.65832 
L 296.638729 259.37986 
L 296.835728 258.033588 
L 297.032727 249.159514 
L 297.229726 256.413639 
L 297.426726 239.950473 
L 297.820724 247.645173 
L 298.214722 259.890594 
L 298.411721 264.277705 
L 298.60872 265.836585 
L 298.805719 271.688577 
L 299.396717 266.961188 
L 299.593716 267.718276 
L 299.987714 279.742265 
L 300.184713 272.173751 
L 300.381712 279.145173 
L 300.578711 249.650919 
L 300.775711 248.073419 
L 300.97271 253.757646 
L 301.169709 265.808927 
L 301.366708 266.687782 
L 301.563707 268.819564 
L 301.760706 251.233461 
L 301.957705 247.900209 
L 302.548703 263.043453 
L 302.942701 268.589624 
L 303.1397 254.124556 
L 303.336699 248.127812 
L 303.533698 259.868315 
L 303.730697 263.112505 
L 304.124695 262.984921 
L 304.321695 240.194218 
L 303.730697 247.176824 
L 304.518694 250.034267 
L 304.912692 238.641313 
L 305.109691 245.595865 
L 305.30669 258.927927 
L 305.503689 254.33271 
L 305.700688 261.888024 
L 305.897688 264.409426 
L 306.094687 249.789604 
L 306.488685 259.829512 
L 306.882683 258.869535 
L 307.079682 246.801512 
L 307.47368 260.101845 
L 307.67068 263.645614 
L 307.867679 269.598666 
L 308.064678 268.577353 
L 308.261677 269.918324 
L 308.064678 255.165279 
L 308.458676 246.057501 
L 308.852674 261.182054 
L 309.443672 268.33231 
L 309.640671 254.673332 
L 310.034669 263.89626 
L 310.428667 252.033168 
L 310.822665 255.285688 
L 311.216664 239.029451 
L 311.807661 257.082141 
L 312.398658 267.277979 
L 312.595658 261.993891 
L 313.186655 268.369804 
L 313.383654 275.148173 
L 313.580653 252.413697 
L 313.974651 264.090772 
L 314.17165 270.977236 
L 314.36865 250.378445 
L 315.156646 278.648019 
L 315.353645 271.879408 
L 315.747643 282.952508 
L 315.944643 232.940501 
L 316.141642 236.255708 
L 316.338641 244.179899 
L 316.53564 244.265918 
L 316.929638 258.845831 
L 317.126637 246.797337 
L 317.323636 243.55622 
L 317.520635 237.124723 
L 318.111633 258.290115 
L 318.308632 263.086663 
L 318.505631 263.560463 
L 318.70263 270.138327 
L 318.899629 268.821238 
L 318.70263 274.647206 
L 318.899629 270.619835 
L 319.096628 250.178283 
L 319.490627 263.923179 
L 319.884625 268.1735 
L 320.081624 267.903166 
L 320.278623 253.623445 
L 320.672621 266.233145 
L 320.86962 262.465139 
L 321.263619 266.112858 
L 321.854616 283.438828 
L 322.051615 262.010743 
L 322.248614 269.252718 
L 322.642613 248.074809 
L 322.839612 254.864047 
L 323.23361 280.801351 
L 323.430609 275.194591 
L 323.627608 275.807412 
L 323.824607 271.016087 
L 324.218605 275.448856 
L 324.415605 280.111869 
L 324.612604 272.268625 
L 325.006602 279.855189 
L 325.203601 272.202977 
L 325.4006 277.344933 
L 325.597599 271.501672 
L 325.794598 278.432906 
L 325.991598 263.011936 
L 326.188597 264.630459 
L 326.385596 267.539208 
L 326.582595 267.921512 
L 326.976593 267.708992 
L 327.173592 253.291023 
L 327.56759 264.290661 
L 327.76459 273.397742 
L 328.158588 280.878114 
L 328.355587 275.218165 
L 328.552586 274.986983 
L 328.749585 279.772442 
L 329.143583 266.669628 
L 329.340583 270.020982 
L 329.734581 254.094205 
L 329.93158 261.301079 
L 330.128579 262.354858 
L 330.325578 264.697526 
L 330.916575 277.800979 
L 331.310574 270.454779 
L 331.507573 269.470805 
L 331.901571 278.006966 
L 332.09857 277.757636 
L 332.295569 283.442125 
L 332.492568 273.026873 
L 332.689568 255.683222 
L 332.886567 256.346482 
L 333.083566 264.038658 
L 333.280565 261.581498 
L 333.477564 267.677502 
L 333.871562 269.404449 
L 334.068561 276.262825 
L 334.26556 240.757009 
L 334.659559 262.818879 
L 334.856558 275.984951 
L 335.053557 271.074428 
L 335.250556 269.229537 
L 335.447555 274.666354 
L 335.644554 271.919894 
L 335.841553 271.675193 
L 336.038553 269.481792 
L 336.235552 269.693706 
L 336.62955 268.620757 
L 336.826549 273.47524 
L 337.023548 268.845407 
L 337.220547 275.220794 
L 337.417546 255.668458 
L 338.008544 270.971369 
L 338.205543 268.386407 
L 338.402542 275.981811 
L 338.599541 248.490305 
L 339.584537 283.986053 
L 339.781536 277.622816 
L 339.978535 277.442535 
L 340.175534 283.701094 
L 340.372533 281.791561 
L 340.569532 286.295956 
L 340.766531 285.456846 
L 340.96353 273.408505 
L 341.357529 288.080104 
L 341.554528 273.829805 
L 341.751527 279.394957 
L 341.948526 274.743184 
L 342.145525 272.971447 
L 342.342524 278.751293 
L 342.539523 274.52398 
L 342.736523 281.905914 
L 342.933522 281.643622 
L 343.130521 259.399188 
L 343.32752 262.799806 
L 343.524519 270.052171 
L 343.721518 270.723181 
L 343.918517 267.971583 
L 344.312515 278.329812 
L 344.509515 256.450672 
L 344.903513 261.667649 
L 345.100512 253.707618 
L 345.297511 261.275416 
L 345.49451 253.60787 
L 345.691509 258.613299 
L 345.888508 246.756005 
L 346.085508 253.970028 
L 346.282507 266.261287 
L 346.479506 264.149434 
L 346.676505 251.45662 
L 346.873504 254.182196 
L 347.070503 262.566742 
L 347.267502 264.826812 
L 347.464501 271.774012 
L 347.6615 271.60355 
L 348.055499 257.740843 
L 348.252498 261.661143 
L 348.449497 268.084844 
L 348.646496 267.859778 
L 348.843495 269.509926 
L 349.040494 274.687161 
L 349.237493 240.717979 
L 349.434492 245.542638 
L 349.828491 262.32683 
L 350.02549 264.680355 
L 350.616487 285.215755 
L 350.813486 273.365637 
L 351.010485 277.83409 
L 351.207485 248.569876 
L 351.798482 266.568142 
L 351.995481 268.179961 
L 352.19248 263.13053 
L 352.389479 268.269572 
L 352.586478 267.949992 
L 352.783477 274.457274 
L 352.980477 272.847943 
L 353.177476 258.369647 
L 353.571474 271.501617 
L 353.768473 251.735031 
L 354.162471 265.994558 
L 354.55647 267.420196 
L 354.950468 267.583918 
L 355.147467 267.611432 
L 355.344466 254.937641 
L 355.541465 259.624791 
L 355.935463 274.784008 
L 356.132462 270.667925 
L 356.329462 277.753884 
L 356.72346 262.17454 
L 356.920459 262.557223 
L 357.314457 267.661398 
L 357.511456 267.6502 
L 357.708455 262.95674 
L 358.102454 267.815101 
L 358.299453 273.520828 
L 358.496452 270.209707 
L 358.693451 240.574219 
L 358.89045 244.196705 
L 359.087449 237.30469 
L 360.269444 279.89017 
L 360.466443 272.211988 
L 360.663442 271.171991 
L 361.05744 267.38313 
L 361.25444 266.892238 
L 361.648438 267.447746 
L 361.845437 260.120789 
L 362.239435 265.254627 
L 362.633433 251.453136 
L 363.027432 262.03278 
L 363.42143 266.633902 
L 363.815428 280.669758 
L 364.012427 277.47861 
L 364.209426 255.895375 
L 364.406425 261.229366 
L 364.603425 260.401099 
L 364.997423 245.625753 
L 365.391421 259.821633 
L 365.58842 263.081579 
L 365.785419 272.870405 
L 365.982418 248.326047 
L 366.967414 281.060297 
L 367.361412 284.892557 
L 367.558411 256.541261 
L 367.75541 264.20883 
L 367.95241 265.797124 
L 368.149409 273.617989 
L 368.346408 270.246089 
L 368.937405 285.082764 
L 369.134404 266.156772 
L 369.528402 278.428636 
L 369.725402 282.311194 
L 369.922401 281.870743 
L 370.316399 262.404053 
L 370.710397 275.886061 
L 370.907396 275.73236 
L 371.104395 248.478627 
L 371.301395 251.294303 
L 371.695393 265.623761 
L 371.892392 268.168121 
L 372.089391 266.571014 
L 372.28639 247.835799 
L 372.483389 253.931431 
L 372.680388 251.227985 
L 372.877387 239.026004 
L 373.271386 254.463512 
L 373.665384 262.107313 
L 373.862383 247.309457 
L 374.45338 267.723206 
L 374.65038 248.367406 
L 375.044378 259.204213 
L 375.241377 253.037961 
L 375.438376 260.393994 
L 375.635375 239.993857 
L 376.226372 260.762179 
L 376.620371 266.929975 
L 376.81737 263.076819 
L 377.014369 265.134245 
L 377.211368 270.474473 
L 377.408367 268.970002 
L 377.605366 269.56628 
L 377.802365 268.562518 
L 377.999365 254.93914 
L 378.196364 262.484883 
L 378.393363 264.776973 
L 378.590362 248.057255 
L 379.575357 278.977167 
L 379.772357 271.970094 
L 380.166355 280.710013 
L 380.363354 272.41744 
L 380.560353 273.874397 
L 380.757352 270.341187 
L 381.15135 282.9472 
L 381.34835 272.924653 
L 381.545349 278.761585 
L 381.742348 259.120297 
L 381.939347 260.180449 
L 382.333345 265.90923 
L 382.530344 266.741788 
L 382.924342 270.733548 
L 383.318341 268.338475 
L 383.51534 267.983452 
L 383.712339 269.581092 
L 383.909338 268.569306 
L 384.106337 269.644888 
L 384.500335 268.108795 
L 384.894334 267.754679 
L 385.091333 267.696701 
L 385.68233 281.790484 
L 385.879329 285.354262 
L 386.076328 276.41515 
L 386.273327 280.132672 
L 386.470327 286.365091 
L 386.667326 273.56352 
L 386.864325 272.450635 
L 387.061324 258.919526 
L 387.258323 262.475739 
L 387.455322 270.255234 
L 387.652321 268.87325 
L 387.84932 259.924666 
L 388.243319 271.948464 
L 388.440318 271.689169 
L 388.637317 255.963249 
L 388.834316 263.298578 
L 389.031315 266.391826 
L 389.228314 276.531543 
L 389.425313 278.878799 
L 389.622312 274.568043 
L 390.410309 268.74635 
L 390.607308 263.310464 
L 391.001306 266.395708 
L 391.395305 267.837874 
L 391.592304 259.677638 
L 391.789303 266.363335 
L 391.986302 264.889788 
L 392.3803 273.500599 
L 392.774298 267.980129 
L 392.971297 274.466658 
L 393.168297 272.852024 
L 393.365296 269.95405 
L 393.562295 262.952393 
L 393.759294 266.432495 
L 393.956293 264.393237 
L 394.153292 251.158292 
L 394.350291 246.828884 
L 394.54729 254.002889 
L 394.744289 265.908606 
L 394.941289 270.872875 
L 395.138288 248.115357 
L 395.532286 255.534923 
L 395.926284 247.114858 
L 396.123283 249.506399 
L 396.517282 256.506019 
L 396.714281 257.996806 
L 397.305278 267.40963 
L 397.502277 267.523752 
L 397.699276 270.506304 
L 397.896275 252.57136 
L 398.093274 255.788521 
L 398.487273 258.971353 
L 398.487273 258.971353 
" style="fill:none;stroke:#ff7f0e;stroke-linecap:square;stroke-width:1.5;"/>
   </g>
   <g id="patch_3">
    <path d="M 57.6 307.584 
L 57.6 41.472 
" style="fill:none;stroke:#000000;stroke-linecap:square;stroke-linejoin:miter;stroke-width:0.8;"/>
   </g>
   <g id="patch_4">
    <path d="M 414.72 307.584 
L 414.72 41.472 
" style="fill:none;stroke:#000000;stroke-linecap:square;stroke-linejoin:miter;stroke-width:0.8;"/>
   </g>
   <g id="patch_5">
    <path d="M 57.6 307.584 
L 414.72 307.584 
" style="fill:none;stroke:#000000;stroke-linecap:square;stroke-linejoin:miter;stroke-width:0.8;"/>
   </g>
   <g id="patch_6">
    <path d="M 57.6 41.472 
L 414.72 41.472 
" style="fill:none;stroke:#000000;stroke-linecap:square;stroke-linejoin:miter;stroke-width:0.8;"/>
   </g>
  </g>
 </g>
 <defs>
  <clipPath id="p130ee2133b">
   <rect height="266.112" width="357.12" x="57.6" y="41.472"/>
  </clipPath>
 </defs>
</svg>
