<?xml version="1.0" encoding="utf-8" standalone="no"?>
<!DOCTYPE svg PUBLIC "-//W3C//DTD SVG 1.1//EN"
  "http://www.w3.org/Graphics/SVG/1.1/DTD/svg11.dtd">
<svg height="345.6pt" version="1.1" viewBox="0 0 460.8 345.6" width="460.8pt" xmlns="http://www.w3.org/2000/svg" xmlns:xlink="http://www.w3.org/1999/xlink">
 <metadata>
  <rdf:RDF xmlns:cc="http://creativecommons.org/ns#" xmlns:dc="http://purl.org/dc/elements/1.1/" xmlns:rdf="http://www.w3.org/1999/02/22-rdf-syntax-ns#">
   <cc:Work>
    <dc:type rdf:resource="http://purl.org/dc/dcmitype/StillImage"/>
    <dc:date>2022-01-06T22:06:49.857676</dc:date>
    <dc:format>image/svg+xml</dc:format>
    <dc:creator>
     <cc:Agent>
      <dc:title>Matplotlib v3.4.3, https://matplotlib.org/</dc:title>
     </cc:Agent>
    </dc:creator>
   </cc:Work>
  </rdf:RDF>
 </metadata>
 <defs>
  <style type="text/css">*{stroke-linecap:butt;stroke-linejoin:round;}</style>
 </defs>
 <g id="figure_1">
  <g id="patch_1">
   <path d="M 0 345.6 
L 460.8 345.6 
L 460.8 0 
L 0 0 
z
" style="fill:#ffffff;"/>
  </g>
  <g id="axes_1">
   <g id="patch_2">
    <path d="M 57.6 307.584 
L 414.72 307.584 
L 414.72 41.472 
L 57.6 41.472 
z
" style="fill:#ffffff;"/>
   </g>
   <g id="matplotlib.axis_1">
    <g id="xtick_1">
     <g id="line2d_1">
      <defs>
       <path d="M 0 0 
L 0 3.5 
" id="mdca4adb076" style="stroke:#000000;stroke-width:0.8;"/>
      </defs>
      <g>
       <use style="stroke:#000000;stroke-width:0.8;" x="73.832727" xlink:href="#mdca4adb076" y="307.584"/>
      </g>
     </g>
     <g id="text_1">
      <!-- 39000 -->
      <g transform="translate(57.926477 322.182437)scale(0.1 -0.1)">
       <defs>
        <path d="M 2597 2516 
Q 3050 2419 3304 2112 
Q 3559 1806 3559 1356 
Q 3559 666 3084 287 
Q 2609 -91 1734 -91 
Q 1441 -91 1130 -33 
Q 819 25 488 141 
L 488 750 
Q 750 597 1062 519 
Q 1375 441 1716 441 
Q 2309 441 2620 675 
Q 2931 909 2931 1356 
Q 2931 1769 2642 2001 
Q 2353 2234 1838 2234 
L 1294 2234 
L 1294 2753 
L 1863 2753 
Q 2328 2753 2575 2939 
Q 2822 3125 2822 3475 
Q 2822 3834 2567 4026 
Q 2313 4219 1838 4219 
Q 1578 4219 1281 4162 
Q 984 4106 628 3988 
L 628 4550 
Q 988 4650 1302 4700 
Q 1616 4750 1894 4750 
Q 2613 4750 3031 4423 
Q 3450 4097 3450 3541 
Q 3450 3153 3228 2886 
Q 3006 2619 2597 2516 
z
" id="DejaVuSans-33" transform="scale(0.015625)"/>
        <path d="M 703 97 
L 703 672 
Q 941 559 1184 500 
Q 1428 441 1663 441 
Q 2288 441 2617 861 
Q 2947 1281 2994 2138 
Q 2813 1869 2534 1725 
Q 2256 1581 1919 1581 
Q 1219 1581 811 2004 
Q 403 2428 403 3163 
Q 403 3881 828 4315 
Q 1253 4750 1959 4750 
Q 2769 4750 3195 4129 
Q 3622 3509 3622 2328 
Q 3622 1225 3098 567 
Q 2575 -91 1691 -91 
Q 1453 -91 1209 -44 
Q 966 3 703 97 
z
M 1959 2075 
Q 2384 2075 2632 2365 
Q 2881 2656 2881 3163 
Q 2881 3666 2632 3958 
Q 2384 4250 1959 4250 
Q 1534 4250 1286 3958 
Q 1038 3666 1038 3163 
Q 1038 2656 1286 2365 
Q 1534 2075 1959 2075 
z
" id="DejaVuSans-39" transform="scale(0.015625)"/>
        <path d="M 2034 4250 
Q 1547 4250 1301 3770 
Q 1056 3291 1056 2328 
Q 1056 1369 1301 889 
Q 1547 409 2034 409 
Q 2525 409 2770 889 
Q 3016 1369 3016 2328 
Q 3016 3291 2770 3770 
Q 2525 4250 2034 4250 
z
M 2034 4750 
Q 2819 4750 3233 4129 
Q 3647 3509 3647 2328 
Q 3647 1150 3233 529 
Q 2819 -91 2034 -91 
Q 1250 -91 836 529 
Q 422 1150 422 2328 
Q 422 3509 836 4129 
Q 1250 4750 2034 4750 
z
" id="DejaVuSans-30" transform="scale(0.015625)"/>
       </defs>
       <use xlink:href="#DejaVuSans-33"/>
       <use x="63.623047" xlink:href="#DejaVuSans-39"/>
       <use x="127.246094" xlink:href="#DejaVuSans-30"/>
       <use x="190.869141" xlink:href="#DejaVuSans-30"/>
       <use x="254.492188" xlink:href="#DejaVuSans-30"/>
      </g>
     </g>
    </g>
    <g id="xtick_2">
     <g id="line2d_2">
      <g>
       <use style="stroke:#000000;stroke-width:0.8;" x="123.082507" xlink:href="#mdca4adb076" y="307.584"/>
      </g>
     </g>
     <g id="text_2">
      <!-- 39250 -->
      <g transform="translate(107.176257 322.182437)scale(0.1 -0.1)">
       <defs>
        <path d="M 1228 531 
L 3431 531 
L 3431 0 
L 469 0 
L 469 531 
Q 828 903 1448 1529 
Q 2069 2156 2228 2338 
Q 2531 2678 2651 2914 
Q 2772 3150 2772 3378 
Q 2772 3750 2511 3984 
Q 2250 4219 1831 4219 
Q 1534 4219 1204 4116 
Q 875 4013 500 3803 
L 500 4441 
Q 881 4594 1212 4672 
Q 1544 4750 1819 4750 
Q 2544 4750 2975 4387 
Q 3406 4025 3406 3419 
Q 3406 3131 3298 2873 
Q 3191 2616 2906 2266 
Q 2828 2175 2409 1742 
Q 1991 1309 1228 531 
z
" id="DejaVuSans-32" transform="scale(0.015625)"/>
        <path d="M 691 4666 
L 3169 4666 
L 3169 4134 
L 1269 4134 
L 1269 2991 
Q 1406 3038 1543 3061 
Q 1681 3084 1819 3084 
Q 2600 3084 3056 2656 
Q 3513 2228 3513 1497 
Q 3513 744 3044 326 
Q 2575 -91 1722 -91 
Q 1428 -91 1123 -41 
Q 819 9 494 109 
L 494 744 
Q 775 591 1075 516 
Q 1375 441 1709 441 
Q 2250 441 2565 725 
Q 2881 1009 2881 1497 
Q 2881 1984 2565 2268 
Q 2250 2553 1709 2553 
Q 1456 2553 1204 2497 
Q 953 2441 691 2322 
L 691 4666 
z
" id="DejaVuSans-35" transform="scale(0.015625)"/>
       </defs>
       <use xlink:href="#DejaVuSans-33"/>
       <use x="63.623047" xlink:href="#DejaVuSans-39"/>
       <use x="127.246094" xlink:href="#DejaVuSans-32"/>
       <use x="190.869141" xlink:href="#DejaVuSans-35"/>
       <use x="254.492188" xlink:href="#DejaVuSans-30"/>
      </g>
     </g>
    </g>
    <g id="xtick_3">
     <g id="line2d_3">
      <g>
       <use style="stroke:#000000;stroke-width:0.8;" x="172.332286" xlink:href="#mdca4adb076" y="307.584"/>
      </g>
     </g>
     <g id="text_3">
      <!-- 39500 -->
      <g transform="translate(156.426036 322.182437)scale(0.1 -0.1)">
       <use xlink:href="#DejaVuSans-33"/>
       <use x="63.623047" xlink:href="#DejaVuSans-39"/>
       <use x="127.246094" xlink:href="#DejaVuSans-35"/>
       <use x="190.869141" xlink:href="#DejaVuSans-30"/>
       <use x="254.492188" xlink:href="#DejaVuSans-30"/>
      </g>
     </g>
    </g>
    <g id="xtick_4">
     <g id="line2d_4">
      <g>
       <use style="stroke:#000000;stroke-width:0.8;" x="221.582065" xlink:href="#mdca4adb076" y="307.584"/>
      </g>
     </g>
     <g id="text_4">
      <!-- 39750 -->
      <g transform="translate(205.675815 322.182437)scale(0.1 -0.1)">
       <defs>
        <path d="M 525 4666 
L 3525 4666 
L 3525 4397 
L 1831 0 
L 1172 0 
L 2766 4134 
L 525 4134 
L 525 4666 
z
" id="DejaVuSans-37" transform="scale(0.015625)"/>
       </defs>
       <use xlink:href="#DejaVuSans-33"/>
       <use x="63.623047" xlink:href="#DejaVuSans-39"/>
       <use x="127.246094" xlink:href="#DejaVuSans-37"/>
       <use x="190.869141" xlink:href="#DejaVuSans-35"/>
       <use x="254.492188" xlink:href="#DejaVuSans-30"/>
      </g>
     </g>
    </g>
    <g id="xtick_5">
     <g id="line2d_5">
      <g>
       <use style="stroke:#000000;stroke-width:0.8;" x="270.831845" xlink:href="#mdca4adb076" y="307.584"/>
      </g>
     </g>
     <g id="text_5">
      <!-- 40000 -->
      <g transform="translate(254.925595 322.182437)scale(0.1 -0.1)">
       <defs>
        <path d="M 2419 4116 
L 825 1625 
L 2419 1625 
L 2419 4116 
z
M 2253 4666 
L 3047 4666 
L 3047 1625 
L 3713 1625 
L 3713 1100 
L 3047 1100 
L 3047 0 
L 2419 0 
L 2419 1100 
L 313 1100 
L 313 1709 
L 2253 4666 
z
" id="DejaVuSans-34" transform="scale(0.015625)"/>
       </defs>
       <use xlink:href="#DejaVuSans-34"/>
       <use x="63.623047" xlink:href="#DejaVuSans-30"/>
       <use x="127.246094" xlink:href="#DejaVuSans-30"/>
       <use x="190.869141" xlink:href="#DejaVuSans-30"/>
       <use x="254.492188" xlink:href="#DejaVuSans-30"/>
      </g>
     </g>
    </g>
    <g id="xtick_6">
     <g id="line2d_6">
      <g>
       <use style="stroke:#000000;stroke-width:0.8;" x="320.081624" xlink:href="#mdca4adb076" y="307.584"/>
      </g>
     </g>
     <g id="text_6">
      <!-- 40250 -->
      <g transform="translate(304.175374 322.182437)scale(0.1 -0.1)">
       <use xlink:href="#DejaVuSans-34"/>
       <use x="63.623047" xlink:href="#DejaVuSans-30"/>
       <use x="127.246094" xlink:href="#DejaVuSans-32"/>
       <use x="190.869141" xlink:href="#DejaVuSans-35"/>
       <use x="254.492188" xlink:href="#DejaVuSans-30"/>
      </g>
     </g>
    </g>
    <g id="xtick_7">
     <g id="line2d_7">
      <g>
       <use style="stroke:#000000;stroke-width:0.8;" x="369.331403" xlink:href="#mdca4adb076" y="307.584"/>
      </g>
     </g>
     <g id="text_7">
      <!-- 40500 -->
      <g transform="translate(353.425153 322.182437)scale(0.1 -0.1)">
       <use xlink:href="#DejaVuSans-34"/>
       <use x="63.623047" xlink:href="#DejaVuSans-30"/>
       <use x="127.246094" xlink:href="#DejaVuSans-35"/>
       <use x="190.869141" xlink:href="#DejaVuSans-30"/>
       <use x="254.492188" xlink:href="#DejaVuSans-30"/>
      </g>
     </g>
    </g>
    <g id="text_8">
     <!-- Block Height -->
     <g transform="translate(204.518594 335.860562)scale(0.1 -0.1)">
      <defs>
       <path d="M 1259 2228 
L 1259 519 
L 2272 519 
Q 2781 519 3026 730 
Q 3272 941 3272 1375 
Q 3272 1813 3026 2020 
Q 2781 2228 2272 2228 
L 1259 2228 
z
M 1259 4147 
L 1259 2741 
L 2194 2741 
Q 2656 2741 2882 2914 
Q 3109 3088 3109 3444 
Q 3109 3797 2882 3972 
Q 2656 4147 2194 4147 
L 1259 4147 
z
M 628 4666 
L 2241 4666 
Q 2963 4666 3353 4366 
Q 3744 4066 3744 3513 
Q 3744 3084 3544 2831 
Q 3344 2578 2956 2516 
Q 3422 2416 3680 2098 
Q 3938 1781 3938 1306 
Q 3938 681 3513 340 
Q 3088 0 2303 0 
L 628 0 
L 628 4666 
z
" id="DejaVuSans-42" transform="scale(0.015625)"/>
       <path d="M 603 4863 
L 1178 4863 
L 1178 0 
L 603 0 
L 603 4863 
z
" id="DejaVuSans-6c" transform="scale(0.015625)"/>
       <path d="M 1959 3097 
Q 1497 3097 1228 2736 
Q 959 2375 959 1747 
Q 959 1119 1226 758 
Q 1494 397 1959 397 
Q 2419 397 2687 759 
Q 2956 1122 2956 1747 
Q 2956 2369 2687 2733 
Q 2419 3097 1959 3097 
z
M 1959 3584 
Q 2709 3584 3137 3096 
Q 3566 2609 3566 1747 
Q 3566 888 3137 398 
Q 2709 -91 1959 -91 
Q 1206 -91 779 398 
Q 353 888 353 1747 
Q 353 2609 779 3096 
Q 1206 3584 1959 3584 
z
" id="DejaVuSans-6f" transform="scale(0.015625)"/>
       <path d="M 3122 3366 
L 3122 2828 
Q 2878 2963 2633 3030 
Q 2388 3097 2138 3097 
Q 1578 3097 1268 2742 
Q 959 2388 959 1747 
Q 959 1106 1268 751 
Q 1578 397 2138 397 
Q 2388 397 2633 464 
Q 2878 531 3122 666 
L 3122 134 
Q 2881 22 2623 -34 
Q 2366 -91 2075 -91 
Q 1284 -91 818 406 
Q 353 903 353 1747 
Q 353 2603 823 3093 
Q 1294 3584 2113 3584 
Q 2378 3584 2631 3529 
Q 2884 3475 3122 3366 
z
" id="DejaVuSans-63" transform="scale(0.015625)"/>
       <path d="M 581 4863 
L 1159 4863 
L 1159 1991 
L 2875 3500 
L 3609 3500 
L 1753 1863 
L 3688 0 
L 2938 0 
L 1159 1709 
L 1159 0 
L 581 0 
L 581 4863 
z
" id="DejaVuSans-6b" transform="scale(0.015625)"/>
       <path id="DejaVuSans-20" transform="scale(0.015625)"/>
       <path d="M 628 4666 
L 1259 4666 
L 1259 2753 
L 3553 2753 
L 3553 4666 
L 4184 4666 
L 4184 0 
L 3553 0 
L 3553 2222 
L 1259 2222 
L 1259 0 
L 628 0 
L 628 4666 
z
" id="DejaVuSans-48" transform="scale(0.015625)"/>
       <path d="M 3597 1894 
L 3597 1613 
L 953 1613 
Q 991 1019 1311 708 
Q 1631 397 2203 397 
Q 2534 397 2845 478 
Q 3156 559 3463 722 
L 3463 178 
Q 3153 47 2828 -22 
Q 2503 -91 2169 -91 
Q 1331 -91 842 396 
Q 353 884 353 1716 
Q 353 2575 817 3079 
Q 1281 3584 2069 3584 
Q 2775 3584 3186 3129 
Q 3597 2675 3597 1894 
z
M 3022 2063 
Q 3016 2534 2758 2815 
Q 2500 3097 2075 3097 
Q 1594 3097 1305 2825 
Q 1016 2553 972 2059 
L 3022 2063 
z
" id="DejaVuSans-65" transform="scale(0.015625)"/>
       <path d="M 603 3500 
L 1178 3500 
L 1178 0 
L 603 0 
L 603 3500 
z
M 603 4863 
L 1178 4863 
L 1178 4134 
L 603 4134 
L 603 4863 
z
" id="DejaVuSans-69" transform="scale(0.015625)"/>
       <path d="M 2906 1791 
Q 2906 2416 2648 2759 
Q 2391 3103 1925 3103 
Q 1463 3103 1205 2759 
Q 947 2416 947 1791 
Q 947 1169 1205 825 
Q 1463 481 1925 481 
Q 2391 481 2648 825 
Q 2906 1169 2906 1791 
z
M 3481 434 
Q 3481 -459 3084 -895 
Q 2688 -1331 1869 -1331 
Q 1566 -1331 1297 -1286 
Q 1028 -1241 775 -1147 
L 775 -588 
Q 1028 -725 1275 -790 
Q 1522 -856 1778 -856 
Q 2344 -856 2625 -561 
Q 2906 -266 2906 331 
L 2906 616 
Q 2728 306 2450 153 
Q 2172 0 1784 0 
Q 1141 0 747 490 
Q 353 981 353 1791 
Q 353 2603 747 3093 
Q 1141 3584 1784 3584 
Q 2172 3584 2450 3431 
Q 2728 3278 2906 2969 
L 2906 3500 
L 3481 3500 
L 3481 434 
z
" id="DejaVuSans-67" transform="scale(0.015625)"/>
       <path d="M 3513 2113 
L 3513 0 
L 2938 0 
L 2938 2094 
Q 2938 2591 2744 2837 
Q 2550 3084 2163 3084 
Q 1697 3084 1428 2787 
Q 1159 2491 1159 1978 
L 1159 0 
L 581 0 
L 581 4863 
L 1159 4863 
L 1159 2956 
Q 1366 3272 1645 3428 
Q 1925 3584 2291 3584 
Q 2894 3584 3203 3211 
Q 3513 2838 3513 2113 
z
" id="DejaVuSans-68" transform="scale(0.015625)"/>
       <path d="M 1172 4494 
L 1172 3500 
L 2356 3500 
L 2356 3053 
L 1172 3053 
L 1172 1153 
Q 1172 725 1289 603 
Q 1406 481 1766 481 
L 2356 481 
L 2356 0 
L 1766 0 
Q 1100 0 847 248 
Q 594 497 594 1153 
L 594 3053 
L 172 3053 
L 172 3500 
L 594 3500 
L 594 4494 
L 1172 4494 
z
" id="DejaVuSans-74" transform="scale(0.015625)"/>
      </defs>
      <use xlink:href="#DejaVuSans-42"/>
      <use x="68.603516" xlink:href="#DejaVuSans-6c"/>
      <use x="96.386719" xlink:href="#DejaVuSans-6f"/>
      <use x="157.568359" xlink:href="#DejaVuSans-63"/>
      <use x="212.548828" xlink:href="#DejaVuSans-6b"/>
      <use x="270.458984" xlink:href="#DejaVuSans-20"/>
      <use x="302.246094" xlink:href="#DejaVuSans-48"/>
      <use x="377.441406" xlink:href="#DejaVuSans-65"/>
      <use x="438.964844" xlink:href="#DejaVuSans-69"/>
      <use x="466.748047" xlink:href="#DejaVuSans-67"/>
      <use x="530.224609" xlink:href="#DejaVuSans-68"/>
      <use x="593.603516" xlink:href="#DejaVuSans-74"/>
     </g>
    </g>
   </g>
   <g id="matplotlib.axis_2">
    <g id="ytick_1">
     <g id="line2d_8">
      <defs>
       <path d="M 0 0 
L -3.5 0 
" id="mafd6afc3f9" style="stroke:#000000;stroke-width:0.8;"/>
      </defs>
      <g>
       <use style="stroke:#000000;stroke-width:0.8;" x="57.6" xlink:href="#mafd6afc3f9" y="307.584"/>
      </g>
     </g>
     <g id="text_9">
      <!-- 0 -->
      <g transform="translate(44.2375 311.383219)scale(0.1 -0.1)">
       <use xlink:href="#DejaVuSans-30"/>
      </g>
     </g>
    </g>
    <g id="ytick_2">
     <g id="line2d_9">
      <g>
       <use style="stroke:#000000;stroke-width:0.8;" x="57.6" xlink:href="#mafd6afc3f9" y="254.3616"/>
      </g>
     </g>
     <g id="text_10">
      <!-- 2 -->
      <g transform="translate(44.2375 258.160819)scale(0.1 -0.1)">
       <use xlink:href="#DejaVuSans-32"/>
      </g>
     </g>
    </g>
    <g id="ytick_3">
     <g id="line2d_10">
      <g>
       <use style="stroke:#000000;stroke-width:0.8;" x="57.6" xlink:href="#mafd6afc3f9" y="201.1392"/>
      </g>
     </g>
     <g id="text_11">
      <!-- 4 -->
      <g transform="translate(44.2375 204.938419)scale(0.1 -0.1)">
       <use xlink:href="#DejaVuSans-34"/>
      </g>
     </g>
    </g>
    <g id="ytick_4">
     <g id="line2d_11">
      <g>
       <use style="stroke:#000000;stroke-width:0.8;" x="57.6" xlink:href="#mafd6afc3f9" y="147.9168"/>
      </g>
     </g>
     <g id="text_12">
      <!-- 6 -->
      <g transform="translate(44.2375 151.716019)scale(0.1 -0.1)">
       <defs>
        <path d="M 2113 2584 
Q 1688 2584 1439 2293 
Q 1191 2003 1191 1497 
Q 1191 994 1439 701 
Q 1688 409 2113 409 
Q 2538 409 2786 701 
Q 3034 994 3034 1497 
Q 3034 2003 2786 2293 
Q 2538 2584 2113 2584 
z
M 3366 4563 
L 3366 3988 
Q 3128 4100 2886 4159 
Q 2644 4219 2406 4219 
Q 1781 4219 1451 3797 
Q 1122 3375 1075 2522 
Q 1259 2794 1537 2939 
Q 1816 3084 2150 3084 
Q 2853 3084 3261 2657 
Q 3669 2231 3669 1497 
Q 3669 778 3244 343 
Q 2819 -91 2113 -91 
Q 1303 -91 875 529 
Q 447 1150 447 2328 
Q 447 3434 972 4092 
Q 1497 4750 2381 4750 
Q 2619 4750 2861 4703 
Q 3103 4656 3366 4563 
z
" id="DejaVuSans-36" transform="scale(0.015625)"/>
       </defs>
       <use xlink:href="#DejaVuSans-36"/>
      </g>
     </g>
    </g>
    <g id="ytick_5">
     <g id="line2d_12">
      <g>
       <use style="stroke:#000000;stroke-width:0.8;" x="57.6" xlink:href="#mafd6afc3f9" y="94.6944"/>
      </g>
     </g>
     <g id="text_13">
      <!-- 8 -->
      <g transform="translate(44.2375 98.493619)scale(0.1 -0.1)">
       <defs>
        <path d="M 2034 2216 
Q 1584 2216 1326 1975 
Q 1069 1734 1069 1313 
Q 1069 891 1326 650 
Q 1584 409 2034 409 
Q 2484 409 2743 651 
Q 3003 894 3003 1313 
Q 3003 1734 2745 1975 
Q 2488 2216 2034 2216 
z
M 1403 2484 
Q 997 2584 770 2862 
Q 544 3141 544 3541 
Q 544 4100 942 4425 
Q 1341 4750 2034 4750 
Q 2731 4750 3128 4425 
Q 3525 4100 3525 3541 
Q 3525 3141 3298 2862 
Q 3072 2584 2669 2484 
Q 3125 2378 3379 2068 
Q 3634 1759 3634 1313 
Q 3634 634 3220 271 
Q 2806 -91 2034 -91 
Q 1263 -91 848 271 
Q 434 634 434 1313 
Q 434 1759 690 2068 
Q 947 2378 1403 2484 
z
M 1172 3481 
Q 1172 3119 1398 2916 
Q 1625 2713 2034 2713 
Q 2441 2713 2670 2916 
Q 2900 3119 2900 3481 
Q 2900 3844 2670 4047 
Q 2441 4250 2034 4250 
Q 1625 4250 1398 4047 
Q 1172 3844 1172 3481 
z
" id="DejaVuSans-38" transform="scale(0.015625)"/>
       </defs>
       <use xlink:href="#DejaVuSans-38"/>
      </g>
     </g>
    </g>
    <g id="ytick_6">
     <g id="line2d_13">
      <g>
       <use style="stroke:#000000;stroke-width:0.8;" x="57.6" xlink:href="#mafd6afc3f9" y="41.472"/>
      </g>
     </g>
     <g id="text_14">
      <!-- 10 -->
      <g transform="translate(37.875 45.271219)scale(0.1 -0.1)">
       <defs>
        <path d="M 794 531 
L 1825 531 
L 1825 4091 
L 703 3866 
L 703 4441 
L 1819 4666 
L 2450 4666 
L 2450 531 
L 3481 531 
L 3481 0 
L 794 0 
L 794 531 
z
" id="DejaVuSans-31" transform="scale(0.015625)"/>
       </defs>
       <use xlink:href="#DejaVuSans-31"/>
       <use x="63.623047" xlink:href="#DejaVuSans-30"/>
      </g>
     </g>
    </g>
    <g id="text_15">
     <!-- Estimated fee for "stack-stx" -->
     <g transform="translate(31.795312 246.543625)rotate(-90)scale(0.1 -0.1)">
      <defs>
       <path d="M 628 4666 
L 3578 4666 
L 3578 4134 
L 1259 4134 
L 1259 2753 
L 3481 2753 
L 3481 2222 
L 1259 2222 
L 1259 531 
L 3634 531 
L 3634 0 
L 628 0 
L 628 4666 
z
" id="DejaVuSans-45" transform="scale(0.015625)"/>
       <path d="M 2834 3397 
L 2834 2853 
Q 2591 2978 2328 3040 
Q 2066 3103 1784 3103 
Q 1356 3103 1142 2972 
Q 928 2841 928 2578 
Q 928 2378 1081 2264 
Q 1234 2150 1697 2047 
L 1894 2003 
Q 2506 1872 2764 1633 
Q 3022 1394 3022 966 
Q 3022 478 2636 193 
Q 2250 -91 1575 -91 
Q 1294 -91 989 -36 
Q 684 19 347 128 
L 347 722 
Q 666 556 975 473 
Q 1284 391 1588 391 
Q 1994 391 2212 530 
Q 2431 669 2431 922 
Q 2431 1156 2273 1281 
Q 2116 1406 1581 1522 
L 1381 1569 
Q 847 1681 609 1914 
Q 372 2147 372 2553 
Q 372 3047 722 3315 
Q 1072 3584 1716 3584 
Q 2034 3584 2315 3537 
Q 2597 3491 2834 3397 
z
" id="DejaVuSans-73" transform="scale(0.015625)"/>
       <path d="M 3328 2828 
Q 3544 3216 3844 3400 
Q 4144 3584 4550 3584 
Q 5097 3584 5394 3201 
Q 5691 2819 5691 2113 
L 5691 0 
L 5113 0 
L 5113 2094 
Q 5113 2597 4934 2840 
Q 4756 3084 4391 3084 
Q 3944 3084 3684 2787 
Q 3425 2491 3425 1978 
L 3425 0 
L 2847 0 
L 2847 2094 
Q 2847 2600 2669 2842 
Q 2491 3084 2119 3084 
Q 1678 3084 1418 2786 
Q 1159 2488 1159 1978 
L 1159 0 
L 581 0 
L 581 3500 
L 1159 3500 
L 1159 2956 
Q 1356 3278 1631 3431 
Q 1906 3584 2284 3584 
Q 2666 3584 2933 3390 
Q 3200 3197 3328 2828 
z
" id="DejaVuSans-6d" transform="scale(0.015625)"/>
       <path d="M 2194 1759 
Q 1497 1759 1228 1600 
Q 959 1441 959 1056 
Q 959 750 1161 570 
Q 1363 391 1709 391 
Q 2188 391 2477 730 
Q 2766 1069 2766 1631 
L 2766 1759 
L 2194 1759 
z
M 3341 1997 
L 3341 0 
L 2766 0 
L 2766 531 
Q 2569 213 2275 61 
Q 1981 -91 1556 -91 
Q 1019 -91 701 211 
Q 384 513 384 1019 
Q 384 1609 779 1909 
Q 1175 2209 1959 2209 
L 2766 2209 
L 2766 2266 
Q 2766 2663 2505 2880 
Q 2244 3097 1772 3097 
Q 1472 3097 1187 3025 
Q 903 2953 641 2809 
L 641 3341 
Q 956 3463 1253 3523 
Q 1550 3584 1831 3584 
Q 2591 3584 2966 3190 
Q 3341 2797 3341 1997 
z
" id="DejaVuSans-61" transform="scale(0.015625)"/>
       <path d="M 2906 2969 
L 2906 4863 
L 3481 4863 
L 3481 0 
L 2906 0 
L 2906 525 
Q 2725 213 2448 61 
Q 2172 -91 1784 -91 
Q 1150 -91 751 415 
Q 353 922 353 1747 
Q 353 2572 751 3078 
Q 1150 3584 1784 3584 
Q 2172 3584 2448 3432 
Q 2725 3281 2906 2969 
z
M 947 1747 
Q 947 1113 1208 752 
Q 1469 391 1925 391 
Q 2381 391 2643 752 
Q 2906 1113 2906 1747 
Q 2906 2381 2643 2742 
Q 2381 3103 1925 3103 
Q 1469 3103 1208 2742 
Q 947 2381 947 1747 
z
" id="DejaVuSans-64" transform="scale(0.015625)"/>
       <path d="M 2375 4863 
L 2375 4384 
L 1825 4384 
Q 1516 4384 1395 4259 
Q 1275 4134 1275 3809 
L 1275 3500 
L 2222 3500 
L 2222 3053 
L 1275 3053 
L 1275 0 
L 697 0 
L 697 3053 
L 147 3053 
L 147 3500 
L 697 3500 
L 697 3744 
Q 697 4328 969 4595 
Q 1241 4863 1831 4863 
L 2375 4863 
z
" id="DejaVuSans-66" transform="scale(0.015625)"/>
       <path d="M 2631 2963 
Q 2534 3019 2420 3045 
Q 2306 3072 2169 3072 
Q 1681 3072 1420 2755 
Q 1159 2438 1159 1844 
L 1159 0 
L 581 0 
L 581 3500 
L 1159 3500 
L 1159 2956 
Q 1341 3275 1631 3429 
Q 1922 3584 2338 3584 
Q 2397 3584 2469 3576 
Q 2541 3569 2628 3553 
L 2631 2963 
z
" id="DejaVuSans-72" transform="scale(0.015625)"/>
       <path d="M 1147 4666 
L 1147 2931 
L 616 2931 
L 616 4666 
L 1147 4666 
z
M 2328 4666 
L 2328 2931 
L 1797 2931 
L 1797 4666 
L 2328 4666 
z
" id="DejaVuSans-22" transform="scale(0.015625)"/>
       <path d="M 313 2009 
L 1997 2009 
L 1997 1497 
L 313 1497 
L 313 2009 
z
" id="DejaVuSans-2d" transform="scale(0.015625)"/>
       <path d="M 3513 3500 
L 2247 1797 
L 3578 0 
L 2900 0 
L 1881 1375 
L 863 0 
L 184 0 
L 1544 1831 
L 300 3500 
L 978 3500 
L 1906 2253 
L 2834 3500 
L 3513 3500 
z
" id="DejaVuSans-78" transform="scale(0.015625)"/>
      </defs>
      <use xlink:href="#DejaVuSans-45"/>
      <use x="63.183594" xlink:href="#DejaVuSans-73"/>
      <use x="115.283203" xlink:href="#DejaVuSans-74"/>
      <use x="154.492188" xlink:href="#DejaVuSans-69"/>
      <use x="182.275391" xlink:href="#DejaVuSans-6d"/>
      <use x="279.6875" xlink:href="#DejaVuSans-61"/>
      <use x="340.966797" xlink:href="#DejaVuSans-74"/>
      <use x="380.175781" xlink:href="#DejaVuSans-65"/>
      <use x="441.699219" xlink:href="#DejaVuSans-64"/>
      <use x="505.175781" xlink:href="#DejaVuSans-20"/>
      <use x="536.962891" xlink:href="#DejaVuSans-66"/>
      <use x="572.167969" xlink:href="#DejaVuSans-65"/>
      <use x="633.691406" xlink:href="#DejaVuSans-65"/>
      <use x="695.214844" xlink:href="#DejaVuSans-20"/>
      <use x="727.001953" xlink:href="#DejaVuSans-66"/>
      <use x="762.207031" xlink:href="#DejaVuSans-6f"/>
      <use x="823.388672" xlink:href="#DejaVuSans-72"/>
      <use x="864.501953" xlink:href="#DejaVuSans-20"/>
      <use x="896.289062" xlink:href="#DejaVuSans-22"/>
      <use x="942.285156" xlink:href="#DejaVuSans-73"/>
      <use x="994.384766" xlink:href="#DejaVuSans-74"/>
      <use x="1033.59375" xlink:href="#DejaVuSans-61"/>
      <use x="1094.873047" xlink:href="#DejaVuSans-63"/>
      <use x="1149.853516" xlink:href="#DejaVuSans-6b"/>
      <use x="1207.763672" xlink:href="#DejaVuSans-2d"/>
      <use x="1243.847656" xlink:href="#DejaVuSans-73"/>
      <use x="1295.947266" xlink:href="#DejaVuSans-74"/>
      <use x="1335.15625" xlink:href="#DejaVuSans-78"/>
      <use x="1394.335938" xlink:href="#DejaVuSans-22"/>
     </g>
    </g>
   </g>
   <g id="line2d_14">
    <path clip-path="url(#p3868d96056)" d="M 77.112652 -1 
L 77.181712 67.3617 
L 77.226353 -1 
M 77.553466 -1 
L 77.575711 28.697931 
L 77.584196 -1 
M 80.322828 -1 
L 80.530697 136.120515 
L 80.727696 220.814131 
L 80.843174 -1 
M 81.747687 -1 
L 81.909691 117.199013 
L 81.92959 -1 
M 84.126163 -1 
L 84.27368 141.850853 
L 84.297479 -1 
M 86.931032 -1 
L 87.031668 94.677724 
L 87.127232 -1 
M 106.112612 -1 
L 106.140583 33.869986 
L 106.181758 -1 
M 106.492746 -1 
L 106.534581 34.578004 
L 106.576504 -1 
M 106.853883 -1 
L 106.928579 79.377695 
L 106.980042 -1 
M 107.529608 -1 
L 107.716575 198.553076 
L 107.823613 -1 
M 108.87285 -1 
L 108.89857 25.868455 
L 108.931077 -1 
M 109.253552 -1 
L 109.292568 32.577622 
L 109.295924 -1 
M 110.935623 -1 
L 111.06556 79.726365 
L 111.117217 -1 
M 113.158255 -1 
L 113.232551 50.856643 
L 113.235049 -1 
M 118.712557 -1 
L 118.945525 118.451784 
L 119.142524 162.201507 
L 119.195916 -1 
M 121.442009 -1 
L 121.703513 122.440468 
L 122.097511 230.488448 
L 122.269508 -1 
M 125.71766 -1 
L 125.840494 121.76896 
L 125.852491 -1 
M 160.884591 -1 
L 160.906337 21.613164 
L 160.916292 -1 
M 163.598435 -1 
L 163.664325 54.008379 
L 163.701059 -1 
M 170.014376 -1 
L 170.165296 70.214283 
L 170.211581 -1 
M 170.583705 -1 
L 170.756293 111.464216 
L 170.824731 -1 
M 185.854034 -1 
L 185.925225 64.508565 
L 185.996074 -1 
M 186.262382 -1 
L 186.319223 46.303843 
L 186.351231 -1 
M 193.21383 -1 
L 193.411192 89.220111 
L 193.214192 112.759919 
L 193.286231 -1 
M 196.038021 -1 
L 196.169179 107.63311 
L 196.19081 -1 
M 220.182469 -1 
L 220.203071 48.117394 
L 220.213895 -1 
M 276.02046 -1 
L 276.150821 50.410046 
L 275.953822 104.395464 
L 276.1593 -1 
M 299.976534 -1 
L 299.987714 11.574452 
L 299.996762 -1 
M 315.585655 -1 
L 315.747643 83.3659 
L 315.748635 -1 
M 321.691923 -1 
L 321.854616 92.605185 
L 321.870542 -1 
M 323.212431 -1 
L 323.23361 37.494823 
L 323.278577 -1 
M 324.385339 -1 
L 324.415605 20.891275 
L 324.431093 -1 
M 324.982345 -1 
L 325.006602 14.452668 
L 325.017663 -1 
M 328.085874 -1 
L 328.158588 39.282821 
L 328.205396 -1 
M 328.732224 -1 
L 328.749585 12.346369 
L 328.759175 -1 
M 332.160437 -1 
L 332.295569 92.666503 
L 332.354273 -1 
M 339.449412 -1 
L 339.584537 102.547131 
L 339.720027 -1 
M 340.047143 -1 
L 340.175534 97.428778 
L 340.372533 59.672362 
L 340.569532 139.691981 
L 340.766531 127.048648 
L 340.842622 -1 
M 341.122912 -1 
L 341.357529 163.709099 
L 341.450276 -1 
M 341.747827 -1 
L 341.751527 2.543926 
L 341.756145 -1 
M 342.679872 -1 
L 342.736523 62.11324 
L 342.933522 56.478505 
L 342.941225 -1 
M 350.443538 -1 
L 350.616487 123.242978 
L 350.690742 -1 
M 360.256107 -1 
L 360.269444 15.33858 
L 360.28112 -1 
M 363.771183 -1 
L 363.815428 34.401914 
L 363.895707 -1 
M 366.916298 -1 
L 366.967414 43.479075 
L 367.361412 118.015057 
L 367.373053 -1 
M 368.710653 -1 
L 368.937405 121.109452 
L 368.968543 -1 
M 369.576404 -1 
L 369.725402 70.572147 
L 369.922401 61.365091 
L 369.963535 -1 
M 380.092135 -1 
L 380.166355 35.351792 
L 380.191423 -1 
M 381.016051 -1 
L 381.15135 83.262895 
L 381.204962 -1 
M 385.545398 -1 
L 385.879329 125.439036 
L 385.996482 -1 
M 386.232675 -1 
L 386.470327 140.693319 
L 386.552827 -1 
L 386.552827 -1 
" style="fill:none;stroke:#1f77b4;stroke-linecap:square;stroke-width:1.5;"/>
   </g>
   <g id="line2d_15">
    <path clip-path="url(#p3868d96056)" d="M 73.832727 285.02071 
L 74.029726 290.210076 
L 73.832727 290.210076 
L 74.226726 295.85855 
L 74.423725 290.210076 
L 74.620724 288.435411 
L 74.817723 288.435411 
L 75.014722 276.850968 
L 75.211721 275.278832 
L 75.40872 263.875449 
L 75.211721 263.875449 
L 75.605719 263.875449 
L 75.802718 261.76813 
L 75.999718 264.595338 
L 76.196717 285.488212 
L 76.393716 291.877785 
L 76.590715 291.877785 
L 76.787714 283.965684 
L 76.984713 283.036563 
L 77.181712 283.036563 
L 77.378711 283.965684 
L 77.575711 292.126492 
L 77.77271 295.355987 
L 77.969709 295.355987 
L 78.166708 298.171273 
L 78.560706 298.175947 
L 78.757705 287.759112 
L 78.954704 245.952268 
L 79.151703 240.6336 
L 79.348703 240.6336 
L 79.545702 245.952268 
L 79.742701 294.951464 
L 79.9397 294.951464 
L 80.136699 296.893326 
L 80.333698 296.893326 
L 80.530697 297.786194 
L 80.727696 297.972519 
L 80.924695 302.451267 
L 81.121695 297.972519 
L 81.318694 297.786194 
L 81.515693 299.177948 
L 81.712692 291.704639 
L 81.909691 294.425214 
L 82.10669 291.250492 
L 82.303689 290.302945 
L 82.500688 290.302945 
L 82.697688 291.250492 
L 83.091686 205.95123 
L 83.288685 255.058646 
L 83.485684 205.95123 
L 83.879682 262.042688 
L 84.076681 228.690475 
L 84.27368 228.690475 
L 84.47068 266.773784 
L 84.667679 266.773784 
L 84.864678 274.2028 
L 85.061677 274.2028 
L 85.258676 284.510307 
L 85.455675 284.510307 
L 85.652674 279.056388 
L 86.243672 279.056388 
L 86.440671 284.289852 
L 86.63767 294.704702 
L 86.834669 294.896869 
L 87.031668 295.485798 
L 87.228667 295.485798 
L 87.425666 294.896869 
L 87.622665 283.453571 
L 87.819665 283.453571 
L 88.016664 276.569898 
L 88.213663 283.453571 
L 88.410662 270.082165 
L 88.607661 269.777286 
L 88.80466 281.09182 
L 89.198658 281.09182 
L 89.395658 281.283587 
L 89.592657 283.443786 
L 89.789656 283.443786 
L 90.183654 275.062177 
L 90.380653 275.062177 
L 90.577652 284.367099 
L 90.97165 284.367099 
L 91.16865 263.875449 
L 91.562648 254.603025 
L 91.759647 258.89372 
L 91.956646 258.89372 
L 92.153645 234.478644 
L 92.350644 227.441459 
L 92.744643 227.441459 
L 92.941642 259.279056 
L 93.33564 259.279056 
L 93.532639 280.574491 
L 93.729638 280.574491 
L 93.926637 248.558341 
L 94.123636 272.971803 
L 94.320635 264.334778 
L 94.517635 271.831936 
L 94.714634 271.831936 
L 94.911633 266.902333 
L 95.305631 266.902333 
L 95.699629 285.955036 
L 95.896628 285.955036 
L 96.093628 292.018929 
L 96.290627 279.56229 
L 96.487626 279.851695 
L 96.684625 279.56229 
L 96.881624 257.961939 
L 97.275622 257.961939 
L 97.472621 264.997068 
L 97.66962 264.997068 
L 97.86662 236.116482 
L 98.063619 285.915121 
L 98.260618 278.675243 
L 98.457617 278.675243 
L 98.851615 291.976837 
L 99.048614 289.521944 
L 99.836611 289.521944 
L 100.03361 278.885963 
L 100.230609 295.460557 
L 100.427608 295.460557 
L 100.230609 295.460557 
L 100.624607 296.498375 
L 100.427608 296.498375 
L 100.821606 228.703663 
L 101.018605 240.524552 
L 101.412604 240.524552 
L 101.609603 242.199031 
L 101.806602 291.606627 
L 102.003601 270.906824 
L 102.2006 270.906824 
L 102.397599 287.004562 
L 102.2006 287.004562 
L 102.988597 287.004562 
L 103.185596 264.394667 
L 103.382595 263.185314 
L 103.579594 238.69648 
L 103.973592 238.69648 
L 104.170591 258.932865 
L 104.36759 263.875449 
L 104.56459 272.256552 
L 104.761589 272.256552 
L 105.155587 294.46559 
L 105.352586 288.37092 
L 105.549585 288.37092 
L 105.746584 219.140218 
L 106.337582 219.140218 
L 106.928579 297.081448 
L 107.125578 276.343666 
L 107.519576 276.343666 
L 107.716575 242.131379 
L 107.913575 281.861035 
L 108.307573 281.861035 
L 108.504572 285.966466 
L 108.701571 281.861035 
L 108.89857 285.966466 
L 109.292568 285.966466 
L 109.489568 254.204284 
L 109.686567 289.672549 
L 110.080565 289.672549 
L 109.883566 289.672549 
L 110.474563 247.995488 
L 110.671562 255.11993 
L 110.868561 255.11993 
L 111.26256 271.145291 
L 111.656558 282.611802 
L 112.050556 282.611802 
L 112.247555 285.369416 
L 112.444554 286.369728 
L 112.838553 286.369728 
L 113.035552 285.369416 
L 113.232551 235.507173 
L 113.42955 234.229649 
L 113.626549 234.134794 
L 113.823548 234.229649 
L 114.020547 215.891061 
L 114.217546 215.891061 
L 114.414545 258.624115 
L 114.611545 258.624115 
L 114.808544 259.942382 
L 114.611545 258.624115 
L 115.005543 259.942382 
L 115.399541 259.942382 
L 115.59654 286.424091 
L 115.793539 259.588892 
L 116.384537 259.588892 
L 116.581536 261.996225 
L 116.778535 254.14299 
L 116.975534 98.993537 
L 117.172533 98.993537 
L 117.369532 105.495726 
L 117.566531 105.495726 
L 117.76353 205.95123 
L 117.96053 206.828596 
L 118.157529 270.821329 
L 118.551527 293.286118 
L 118.748526 293.286118 
L 118.945525 285.203188 
L 119.142524 293.286118 
L 119.339523 284.084798 
L 119.536523 283.481856 
L 119.733522 281.000753 
L 119.930521 281.000753 
L 120.324519 266.106099 
L 120.521518 265.631051 
L 120.718517 266.106099 
L 120.521518 266.106099 
L 120.915516 266.106099 
L 121.112515 290.41348 
L 121.900512 290.474624 
L 122.097511 294.61529 
L 122.29451 294.61529 
L 122.885508 282.623612 
L 123.082507 280.679519 
L 123.279506 280.679519 
L 123.476505 277.210066 
L 123.673504 277.210066 
L 123.870503 287.466653 
L 124.067502 290.605712 
L 124.264501 287.466653 
L 124.4615 290.605712 
L 124.6585 271.249318 
L 124.855499 271.249318 
L 125.052498 284.986304 
L 125.446496 284.986304 
L 125.643495 285.634836 
L 125.840494 285.634836 
L 126.037493 271.775494 
L 126.234492 281.491071 
L 126.431492 262.956831 
L 126.628491 262.14131 
L 126.82549 262.14131 
L 127.022489 262.956831 
L 127.219488 262.956831 
L 127.416487 277.947605 
L 127.613486 277.947605 
L 127.810485 286.736763 
L 128.007485 277.947605 
L 127.613486 258.46162 
L 128.204484 255.496147 
L 128.401483 255.808369 
L 128.598482 255.496147 
L 128.795481 238.143516 
L 128.99248 238.143516 
L 129.189479 234.381794 
L 129.386478 234.381794 
L 129.583477 262.47493 
L 129.780477 262.47493 
L 129.977476 259.813395 
L 130.371474 259.813395 
L 130.568473 128.860475 
L 130.765472 266.891772 
L 131.35647 266.891772 
L 131.553469 274.716896 
L 131.750468 274.716896 
L 131.947467 273.032221 
L 132.144466 278.714935 
L 132.341465 273.032221 
L 132.735463 273.032221 
L 133.007717 -1 
M 133.251206 -1 
L 133.326461 130.371094 
L 133.52346 165.470423 
L 133.720459 165.470423 
L 133.917458 174.228512 
L 134.114457 266.623433 
L 134.311456 273.339479 
L 134.705455 273.339479 
L 134.902454 242.333911 
L 135.296452 242.333911 
L 135.69045 289.447052 
L 135.887449 289.447052 
L 136.084448 271.911096 
L 136.675446 271.911096 
L 136.872445 273.24569 
L 137.266443 273.24569 
L 137.463442 274.470642 
L 137.660441 282.395561 
L 138.05444 282.395561 
L 138.251439 244.966234 
L 138.448438 244.966234 
L 138.645437 268.911014 
L 138.842436 274.21308 
L 139.039435 274.21308 
L 139.236434 268.911014 
L 139.433433 266.993943 
L 139.630432 230.129352 
L 139.827432 230.129352 
L 140.024431 266.993943 
L 140.22143 269.657327 
L 140.418429 292.754651 
L 140.812427 292.754651 
L 141.206425 270.772391 
L 141.600424 257.961939 
L 141.797423 257.961939 
L 141.994422 257.717293 
L 142.191421 257.961939 
L 142.38842 270.695273 
L 142.585419 271.788141 
L 142.782418 291.422288 
L 142.979417 291.422288 
L 143.176417 277.922392 
L 143.373416 291.422288 
L 143.767414 267.460222 
L 144.161412 267.460222 
L 144.358411 263.177694 
L 144.55541 263.177694 
L 144.75241 269.185172 
L 144.949409 269.185172 
L 145.146408 263.177694 
L 145.343407 287.261218 
L 145.540406 284.79892 
L 145.737405 260.769437 
L 145.934404 260.769437 
L 146.328402 240.040916 
L 146.9194 240.040916 
L 146.722401 167.093364 
L 147.116399 167.093364 
L 147.313398 137.505638 
L 147.3898 -1 
M 148.226273 -1 
L 148.298394 125.262166 
L 148.495393 125.262166 
L 148.692392 161.760603 
L 148.889391 161.760603 
L 149.08639 223.469043 
L 149.283389 240.6336 
L 149.480388 242.367478 
L 149.677387 254.426726 
L 149.874387 254.426726 
L 150.071386 278.406418 
L 150.465384 278.406418 
L 150.662383 258.355813 
L 151.056381 258.355813 
L 151.45038 278.492727 
L 151.647379 278.492727 
L 152.041377 262.200199 
L 152.435375 255.358141 
L 152.632374 255.358141 
L 152.829373 257.60486 
L 153.026372 255.358141 
L 153.223372 255.358141 
L 153.420371 262.70207 
L 153.61737 265.054403 
L 153.814369 265.054403 
L 154.011368 268.351649 
L 154.208367 268.351649 
L 154.405366 243.482892 
L 154.602365 239.398909 
L 154.799365 108.558108 
L 155.193363 108.558108 
L 155.78436 222.533083 
L 156.178358 178.993075 
L 156.375357 204.699573 
L 156.572357 204.699573 
L 156.769356 200.534637 
L 156.966355 178.993075 
L 157.163354 170.919405 
L 157.360353 170.919405 
L 157.754351 235.71718 
L 157.95135 235.71718 
L 158.542348 223.206332 
L 158.14835 203.795889 
L 158.739347 203.795889 
L 158.936346 210.722586 
L 159.133345 210.722586 
L 159.330344 216.519388 
L 159.527343 216.519388 
L 159.724342 227.449671 
L 159.921342 227.449671 
L 160.118341 250.615714 
L 160.512339 256.722971 
L 160.709338 256.722971 
L 160.906337 275.006564 
L 161.300335 275.006564 
L 161.497335 259.443188 
L 161.694334 256.714016 
L 161.891333 252.417875 
L 162.088332 252.417875 
L 162.285331 229.048647 
L 162.48233 180.543658 
L 162.285331 151.764167 
L 162.679329 151.764167 
L 162.876328 180.543658 
L 163.073327 110.521387 
L 163.270327 196.035893 
L 163.467326 196.035893 
L 163.664325 240.028789 
L 164.255322 240.028789 
L 164.452321 255.966602 
L 164.64932 255.966602 
L 164.84632 257.012932 
L 165.043319 257.012932 
L 164.64932 254.962231 
L 165.240318 219.132832 
L 165.437317 189.571225 
L 165.634316 189.571225 
L 165.831315 218.197457 
L 166.028314 219.132832 
L 166.422312 245.362072 
L 166.619312 254.487138 
L 166.816311 275.828425 
L 167.01331 275.828425 
L 167.210309 267.027508 
L 167.407308 267.027508 
L 167.604307 264.685917 
L 167.801306 266.388824 
L 167.998305 264.685917 
L 168.195305 264.685917 
L 168.392304 274.281836 
L 168.589303 274.281836 
L 168.786302 277.814625 
L 168.983301 255.431647 
L 169.1803 250.250501 
L 169.377299 248.61495 
L 169.574298 250.250501 
L 169.771297 246.864979 
L 169.968297 252.085642 
L 170.165296 247.182746 
L 170.362295 251.979234 
L 171.150291 251.979234 
L 171.34729 256.170946 
L 171.544289 256.170946 
L 171.741289 259.178481 
L 171.938288 256.170946 
L 172.135287 256.170946 
L 172.332286 239.699056 
L 172.726284 194.132145 
L 172.923283 210.8965 
L 173.120282 210.8965 
L 173.317282 268.859746 
L 173.71128 268.859746 
L 173.908279 260.0234 
L 174.105278 258.139599 
L 174.302277 253.88504 
L 174.499276 253.529851 
L 174.893274 253.529851 
L 175.090274 245.769088 
L 175.287273 271.27807 
L 175.484272 271.27807 
L 175.681271 269.432385 
L 175.87827 230.087617 
L 176.075269 237.972037 
L 175.87827 237.972037 
L 176.272268 237.972037 
L 176.469267 243.477402 
L 176.863266 243.477402 
L 177.060265 254.803539 
L 177.257264 242.710205 
L 177.454263 242.710205 
L 177.651262 273.353078 
L 177.848261 273.353078 
L 178.04526 259.287719 
L 178.242259 262.632303 
L 178.439259 259.287719 
L 178.636258 249.785981 
L 178.833257 249.785981 
L 179.030256 264.78319 
L 179.621253 264.78319 
L 179.818252 262.293752 
L 180.015252 262.293752 
L 180.40925 267.485091 
L 180.606249 265.537628 
L 181.000247 265.537628 
L 181.197246 250.872345 
L 181.394245 246.68107 
L 181.788244 246.68107 
L 181.985243 177.045865 
L 182.182242 249.500994 
L 182.773239 249.500994 
L 182.970238 253.117669 
L 183.167237 212.587044 
L 183.364237 233.150908 
L 183.561236 233.150908 
L 183.758235 212.587044 
L 183.955234 212.587044 
L 184.546231 263.821739 
L 184.74323 263.821739 
L 184.940229 259.237639 
L 185.137229 259.237639 
L 185.925225 274.995428 
L 186.122224 270.800205 
L 186.319223 263.950808 
L 186.516222 262.856552 
L 186.713222 263.950808 
L 187.10722 263.950808 
L 187.304219 262.856552 
L 187.895216 262.841446 
L 188.092215 271.92421 
L 188.289214 272.422523 
L 188.486214 272.422523 
L 188.683213 271.92421 
L 188.880212 266.085509 
L 189.077211 263.950808 
L 189.471209 263.950808 
L 189.668208 255.519663 
L 189.865207 255.519663 
L 190.062207 253.508677 
L 189.865207 245.535923 
L 190.456205 245.535923 
L 190.653204 253.419483 
L 190.850203 253.513034 
L 191.047202 256.402961 
L 191.835199 256.402961 
L 192.032198 267.826828 
L 192.229197 267.826828 
L 192.426196 265.393005 
L 192.623195 265.393005 
L 192.820194 267.826828 
L 193.017193 280.670582 
L 193.214192 280.670582 
L 193.411192 285.503199 
L 193.214192 285.503199 
L 193.608191 280.670582 
L 193.80519 280.283597 
L 194.002189 217.682066 
L 194.199188 211.657609 
L 194.593186 211.657609 
L 194.987184 202.116031 
L 195.184184 253.238492 
L 195.381183 241.235352 
L 195.578182 241.235352 
L 196.169179 270.800205 
L 196.563177 270.800205 
L 196.957176 225.683511 
L 197.154175 211.670177 
L 197.351174 209.035023 
L 197.548173 211.670177 
L 197.745172 204.410177 
L 197.942171 211.670177 
L 198.13917 235.563734 
L 198.336169 241.038893 
L 198.730168 241.038893 
L 198.927167 239.886041 
L 199.124166 241.038893 
L 199.321165 244.315872 
L 199.518164 239.886041 
L 199.715163 239.886041 
L 199.912162 249.167632 
L 200.109162 250.757105 
L 200.306161 235.611527 
L 200.50316 243.055262 
L 200.700159 268.399115 
L 200.897158 262.674105 
L 201.094157 262.674105 
L 201.291156 268.399115 
L 201.094157 269.234667 
L 201.488155 262.674105 
L 201.685154 247.25691 
L 201.882154 247.25691 
L 202.276152 214.529349 
L 202.473151 233.150908 
L 202.67015 233.150908 
L 202.867149 244.113287 
L 203.064148 244.113287 
L 203.261147 248.454908 
L 203.458147 248.454908 
L 203.655146 237.759373 
L 203.852145 236.870803 
L 204.049144 237.759373 
L 204.246143 237.759373 
L 204.443142 266.633275 
L 204.640141 278.005761 
L 204.83714 278.005761 
L 205.034139 269.939369 
L 205.231139 285.958467 
L 205.625137 246.734987 
L 205.822136 260.47233 
L 206.019135 259.358517 
L 206.610132 259.358517 
L 206.807132 248.608129 
L 207.004131 248.608129 
L 207.20113 245.45718 
L 207.398129 245.45718 
L 207.595128 251.441419 
L 207.792127 264.414459 
L 207.989126 269.505967 
L 208.186125 269.505967 
L 208.383124 264.797833 
L 208.580124 264.414459 
L 208.777123 245.956503 
L 208.974122 242.359126 
L 209.171121 213.13118 
L 209.565119 213.13118 
L 209.762118 236.625385 
L 209.959117 236.625385 
L 210.156117 284.850314 
L 210.353116 284.850314 
L 210.550115 251.686545 
L 210.747114 250.864067 
L 210.944113 250.864067 
L 211.141112 245.211656 
L 211.338111 250.271575 
L 211.53511 250.271575 
L 211.732109 226.039359 
L 211.929109 250.271575 
L 212.126108 250.271575 
L 212.323107 267.472738 
L 212.520106 226.039359 
L 212.717105 267.472738 
L 212.914104 247.361788 
L 213.111103 247.361788 
L 213.308102 256.867429 
L 213.702101 256.867429 
L 213.8991 253.508677 
L 214.293098 276.856366 
L 214.490097 276.856366 
L 214.884095 249.852415 
L 215.081094 249.323052 
L 215.278094 249.323052 
L 215.081094 249.323052 
L 215.475093 257.975984 
L 215.672092 257.975984 
L 215.869091 262.610732 
L 216.06609 257.975984 
L 216.263089 257.975984 
L 216.460088 261.163092 
L 216.657087 266.842274 
L 216.854086 275.9868 
L 217.051086 275.9868 
L 217.248085 261.163092 
L 217.445084 272.440726 
L 217.642083 251.722662 
L 218.036081 251.722662 
L 218.23308 257.224002 
L 218.430079 222.948128 
L 218.627079 257.224002 
L 218.824078 209.493879 
L 219.021077 209.493879 
L 219.218076 241.107514 
L 219.809073 241.107514 
L 220.006072 244.315872 
L 220.400071 225.816925 
L 220.59707 234.805564 
L 220.794069 225.816925 
L 220.991068 202.504213 
L 221.188067 202.116031 
L 221.385066 202.504213 
L 221.582065 202.116031 
L 221.779064 202.116031 
L 221.582065 202.116031 
L 221.976064 221.523823 
L 222.173063 187.541048 
L 222.370062 221.523823 
L 222.567061 221.523823 
L 222.961059 242.359126 
L 223.158058 265.265916 
L 223.355057 265.265916 
L 223.552056 266.135238 
L 223.749056 266.135238 
L 223.946055 263.417723 
L 224.143054 268.81734 
L 224.340053 268.81734 
L 224.537052 265.379026 
L 224.734051 212.946844 
L 224.93105 265.379026 
L 224.734051 212.946844 
L 225.128049 205.95123 
L 225.719047 205.95123 
L 225.916046 210.39423 
L 225.719047 224.727915 
L 226.310044 224.727915 
L 226.507043 180.06403 
L 226.901041 180.06403 
L 227.098041 194.727103 
L 227.886037 194.727103 
L 228.083036 182.188601 
L 228.280035 246.287958 
L 228.477034 246.287958 
L 228.674034 182.188601 
L 228.871033 182.188601 
L 229.068032 137.866825 
L 229.265031 124.471978 
L 229.46203 137.866825 
L 229.659029 189.228043 
L 229.856028 205.95123 
L 230.053027 205.95123 
L 230.250026 225.487778 
L 231.038023 225.487778 
L 231.235022 245.722246 
L 231.432021 210.621824 
L 231.62902 202.116031 
L 231.826019 210.621824 
L 232.023019 210.621824 
L 232.220018 238.989892 
L 232.417017 248.278147 
L 232.614016 248.278147 
L 233.008014 289.976347 
L 233.205013 289.976347 
L 233.402012 254.373421 
L 233.599011 254.373421 
L 233.796011 248.080412 
L 234.190009 190.621921 
L 234.387008 178.906632 
L 234.584007 178.906632 
L 234.781006 190.621921 
L 234.978005 288.852503 
L 235.175004 288.852503 
L 235.372004 281.717161 
L 235.569003 203.263801 
L 235.766002 202.116031 
L 236.16 202.116031 
L 236.356999 203.263801 
L 236.553998 184.511097 
L 236.750997 213.990493 
L 236.947996 219.464784 
L 237.144996 234.373857 
L 237.538994 234.373857 
L 237.341995 211.281766 
L 237.735993 206.02153 
L 237.932992 206.02153 
L 238.129991 204.32551 
L 238.32699 206.02153 
L 238.523989 255.139794 
L 239.311986 255.139794 
L 239.508985 255.343188 
L 239.705984 255.343188 
L 239.902983 257.105871 
L 240.099982 257.105871 
L 240.296981 244.574693 
L 240.493981 257.105871 
L 239.902983 257.105871 
L 240.69098 244.574693 
L 240.887979 254.371849 
L 241.084978 288.818008 
L 241.281977 254.371849 
L 241.478976 243.089615 
L 242.069974 243.089615 
L 242.266973 244.859905 
L 243.054969 278.647244 
L 243.251968 270.800205 
L 243.448967 307.454932 
L 243.842966 263.994785 
L 244.039965 273.324358 
L 244.236964 263.994785 
L 244.630962 263.994785 
L 244.827961 262.395243 
L 245.02496 255.366045 
L 245.221959 237.257351 
L 245.418959 237.169619 
L 245.615958 237.257351 
L 245.812957 245.28137 
L 246.009956 245.28137 
L 246.206955 245.991246 
L 246.403954 245.991246 
L 246.797952 254.212402 
L 247.191951 237.289108 
L 247.38895 253.508677 
L 247.585949 253.508677 
L 247.979947 217.20659 
L 248.176946 253.508677 
L 248.373945 217.20659 
L 248.570944 217.20659 
L 248.767944 239.944201 
L 248.964943 246.043601 
L 249.161942 239.944201 
L 249.55594 249.039412 
L 249.752939 253.88619 
L 249.949938 249.039412 
L 250.146937 249.039412 
L 250.343936 220.724042 
L 250.518257 -1 
M 251.021462 -1 
L 251.328932 215.679772 
L 251.525931 215.679772 
L 251.72293 220.976298 
L 251.919929 220.976298 
L 252.116929 252.772946 
L 252.313928 243.051123 
L 252.510927 249.201025 
L 252.707926 243.051123 
L 252.904925 243.051123 
L 253.101924 234.016409 
L 253.298923 234.016409 
L 252.904925 217.089158 
L 253.495922 217.089158 
L 253.692921 265.425977 
L 253.889921 265.425977 
L 254.08692 265.61222 
L 254.283919 265.425977 
L 254.480918 218.222102 
L 254.677917 216.691769 
L 255.071915 216.691769 
L 255.268914 225.467614 
L 255.465914 225.467614 
L 255.662913 229.058064 
L 255.859912 225.467614 
L 256.056911 225.467614 
L 256.25391 231.35734 
L 256.450909 233.220545 
L 256.844907 233.220545 
L 257.041906 247.191082 
L 257.238906 247.191082 
L 257.435905 248.683808 
L 257.632904 255.946605 
L 258.223901 255.946605 
L 258.4209 240.6336 
L 258.617899 247.70173 
L 259.011898 247.70173 
L 259.208897 248.379813 
L 259.405896 261.086863 
L 259.602895 248.379813 
L 259.996893 248.379813 
L 260.193892 246.656582 
L 259.996893 246.656582 
L 260.390891 230.544295 
L 260.78489 230.544295 
L 260.981889 260.531612 
L 261.178888 257.352111 
L 260.981889 257.352111 
L 261.375887 257.352111 
L 261.572886 235.6884 
L 261.769885 227.568178 
L 262.163883 227.568178 
L 261.769885 235.654097 
L 262.360883 263.030921 
L 262.754881 221.576171 
L 263.148879 221.576171 
L 263.345878 267.195393 
L 263.542877 267.195393 
L 263.739876 268.505008 
L 263.936876 267.195393 
L 263.542877 268.505008 
L 263.936876 256.595965 
L 264.133875 264.252805 
L 264.330874 235.257289 
L 264.527873 264.252805 
L 264.724872 224.512938 
L 264.921871 264.252805 
L 265.315869 264.253514 
L 265.709868 264.141379 
L 266.300865 264.141379 
L 266.497864 248.764719 
L 266.694863 248.764719 
L 266.891862 246.323911 
L 267.088861 246.323911 
L 267.285861 258.631398 
L 267.48286 258.631398 
L 267.679859 273.088796 
L 267.876858 258.631398 
L 268.073857 273.088796 
L 268.270856 253.466049 
L 268.467855 263.124158 
L 268.664854 249.394466 
L 268.861853 263.124158 
L 269.058853 263.124158 
L 269.452851 248.169664 
L 269.64985 224.129718 
L 269.846849 224.129718 
L 270.043848 248.169664 
L 270.240847 246.158633 
L 270.437846 246.158633 
L 270.634846 260.71872 
L 270.831845 260.71872 
L 271.028844 246.158633 
L 271.225843 252.138769 
L 271.619841 252.138769 
L 271.81684 244.588735 
L 272.013839 252.138769 
L 272.210838 275.608804 
L 272.407838 276.726747 
L 272.604837 275.608804 
L 272.801836 275.404778 
L 272.998835 274.529783 
L 273.195834 274.529783 
L 273.392833 270.712785 
L 273.589832 300.936611 
L 273.786831 307.575564 
L 273.983831 307.575564 
L 274.377829 259.754983 
L 274.574828 258.53894 
L 274.771827 258.53894 
L 274.968826 259.754983 
L 275.165825 259.754983 
L 275.362824 258.53894 
L 275.559823 264.162315 
L 275.756823 287.564274 
L 275.953822 291.350176 
L 276.150821 287.564274 
L 275.953822 287.564274 
L 276.34782 253.345496 
L 276.544819 253.345496 
L 276.741818 231.35734 
L 276.938817 239.57504 
L 277.135816 252.584083 
L 277.332816 239.57504 
L 277.529815 239.57504 
L 277.726814 234.856163 
L 277.923813 209.8122 
L 278.120812 209.493879 
L 278.51481 209.493879 
L 278.711809 262.433077 
L 278.908808 0.82944 
L 279.105808 273.075679 
L 279.499806 232.301503 
L 279.696805 232.301503 
L 279.893804 251.289512 
L 280.090803 251.289512 
L 280.287802 260.798295 
L 280.484801 260.798295 
L 280.681801 264.513596 
L 280.8788 260.798295 
L 281.075799 251.299428 
L 281.666796 251.299428 
L 281.469797 259.674415 
L 281.863795 261.45897 
L 282.060794 261.45897 
L 282.257793 264.033559 
L 282.454793 261.45897 
L 282.651792 267.835812 
L 282.848791 259.047713 
L 283.04579 259.047713 
L 283.242789 285.262265 
L 283.439788 254.213187 
L 283.636787 263.950808 
L 283.833786 285.262265 
L 283.242789 263.950808 
L 284.030786 263.950808 
L 284.227785 291.714158 
L 284.621783 291.714158 
L 284.818782 274.854027 
L 285.409779 274.854027 
L 285.606778 273.178707 
L 285.803778 235.6884 
L 286.000777 233.150908 
L 286.197776 235.6884 
L 286.394775 235.6884 
L 286.788773 260.733425 
L 286.985772 246.886574 
L 287.182771 246.886574 
L 286.591774 246.886574 
L 287.379771 226.424838 
L 287.57677 226.424838 
L 287.773769 256.333679 
L 287.970768 226.424838 
L 288.167767 227.038726 
L 288.364766 248.254803 
L 288.167767 248.254803 
L 288.561765 248.254803 
L 288.758764 270.357998 
L 289.546761 270.357998 
L 289.74376 269.764883 
L 289.940759 275.953613 
L 290.137758 269.764883 
L 290.334757 269.764883 
L 290.531756 246.886274 
L 290.728756 276.431029 
L 290.925755 276.431029 
L 291.122754 266.891813 
L 291.319753 266.891813 
L 291.516752 241.156494 
L 291.713751 243.424273 
L 291.91075 243.424273 
L 292.107749 179.615977 
L 292.304748 220.083777 
L 292.501748 220.083777 
L 292.698747 256.870799 
L 292.895746 263.873241 
L 293.092745 263.873241 
L 293.289744 265.250929 
L 293.486743 265.250929 
L 293.683742 264.114193 
L 293.880741 257.886128 
L 294.27474 257.886128 
L 294.471739 260.974277 
L 294.27474 274.376842 
L 294.668738 276.447458 
L 294.865737 286.605257 
L 295.062736 276.447458 
L 295.259735 272.137982 
L 295.456734 243.486136 
L 295.653733 243.486136 
L 295.850733 264.822479 
L 296.244731 264.822479 
L 296.44173 275.365956 
L 296.638729 252.816804 
L 297.032727 252.816804 
L 297.229726 257.3712 
L 297.426726 257.3712 
L 297.623725 280.618977 
L 297.820724 280.618977 
L 298.017723 264.738231 
L 298.214722 264.738231 
L 298.411721 261.736537 
L 298.60872 245.708005 
L 298.805719 245.708005 
L 299.002718 246.061692 
L 299.199718 264.82228 
L 299.396717 264.82228 
L 299.593716 252.085642 
L 299.987714 252.085642 
L 300.184713 250.106684 
L 300.578711 250.106684 
L 300.775711 213.153958 
L 300.97271 262.42542 
L 301.366708 262.42542 
L 301.563707 259.287719 
L 301.760706 244.942289 
L 302.548703 244.942289 
L 302.745702 262.906427 
L 302.942701 257.470631 
L 303.1397 243.456582 
L 303.336699 243.456582 
L 303.533698 239.913657 
L 303.730697 239.913657 
L 303.927696 260.903907 
L 304.124695 244.942289 
L 304.321695 253.045651 
L 303.730697 244.942289 
L 304.912692 244.942289 
L 305.109691 218.368224 
L 305.30669 244.942289 
L 305.503689 219.7116 
L 305.700688 219.7116 
L 305.897688 242.208163 
L 306.094687 249.416691 
L 306.488685 249.416691 
L 306.685684 252.212433 
L 306.882683 274.361056 
L 307.079682 252.212433 
L 307.276681 274.361056 
L 307.47368 265.350283 
L 307.67068 245.751175 
L 307.867679 257.902842 
L 308.064678 247.380033 
L 308.261677 257.902842 
L 308.064678 257.902842 
L 308.655675 271.100761 
L 309.049673 271.100761 
L 309.246673 286.823057 
L 309.443672 244.198651 
L 309.640671 263.875449 
L 309.83767 235.609261 
L 310.034669 227.129373 
L 310.231668 211.532069 
L 310.428667 228.868644 
L 310.586527 -1 
M 311.381296 -1 
L 311.413663 122.60816 
L 311.610662 172.212868 
L 311.807661 190.749868 
L 312.201659 249.310728 
L 312.398658 249.310728 
L 312.595658 268.164606 
L 312.792657 264.249666 
L 313.580653 264.249666 
L 313.777652 263.728403 
L 313.974651 239.989465 
L 314.565649 239.989465 
L 314.762648 222.710019 
L 314.959647 257.095774 
L 315.353645 274.032361 
L 315.550644 277.180476 
L 316.141642 277.180476 
L 316.338641 250.174964 
L 316.53564 248.177307 
L 317.126637 248.177307 
L 317.323636 239.216206 
L 317.520635 254.117976 
L 317.717635 258.928232 
L 317.914634 259.630864 
L 318.111633 264.505217 
L 318.70263 264.505217 
L 318.899629 271.674411 
L 318.70263 274.073598 
L 319.096628 274.073598 
L 319.293628 270.469177 
L 319.490627 249.374897 
L 319.687626 249.374897 
L 320.081624 241.395029 
L 320.278623 241.395029 
L 320.475622 242.963169 
L 320.672621 242.963169 
L 320.86962 244.957756 
L 321.460618 269.152326 
L 321.657617 269.152326 
L 321.854616 275.468199 
L 322.248614 244.942289 
L 322.642613 293.349028 
L 322.839612 293.349028 
L 323.036611 287.364394 
L 323.627608 259.747217 
L 323.824607 276.13761 
L 324.021606 279.23216 
L 324.218605 275.350552 
L 324.415605 275.350552 
L 324.612604 266.569902 
L 324.809603 266.569902 
L 325.006602 253.966942 
L 325.203601 249.121587 
L 325.4006 249.121587 
L 325.597599 270.728888 
L 325.794598 270.728888 
L 325.991598 274.742031 
L 326.385596 274.788359 
L 326.582595 247.254052 
L 326.779594 255.518966 
L 327.370591 255.518966 
L 327.56759 250.7246 
L 328.355587 250.7246 
L 328.552586 263.859701 
L 328.749585 263.859701 
L 328.946584 289.149739 
L 329.143583 263.859701 
L 329.340583 265.342583 
L 329.537582 273.419657 
L 330.128579 273.419657 
L 330.325578 267.178957 
L 330.522577 247.88412 
L 330.719576 244.227544 
L 330.916575 247.88412 
L 331.310574 247.88412 
L 331.507573 248.132262 
L 331.901571 248.132262 
L 332.09857 247.707437 
L 332.295569 248.132262 
L 332.492568 247.707437 
L 332.689568 274.656626 
L 332.886567 274.656626 
L 333.083566 276.612808 
L 333.280565 275.578182 
L 333.477564 276.612808 
L 333.674563 299.290727 
L 333.871562 299.290727 
L 334.068561 307.575564 
L 334.26556 293.526961 
L 335.250556 293.588749 
L 335.447555 293.03412 
L 335.644554 291.536001 
L 335.841553 291.536001 
L 336.235552 259.139622 
L 336.432551 259.139622 
L 336.62955 263.011091 
L 336.826549 263.011091 
L 337.023548 281.910956 
L 337.614545 281.910956 
L 337.811545 278.137083 
L 338.008544 278.137083 
L 338.205543 299.078401 
L 338.402542 300.835362 
L 338.599541 301.107116 
L 338.993539 301.107116 
L 339.190538 292.128351 
L 339.584537 292.128351 
L 339.781536 297.088593 
L 340.175534 297.088593 
L 340.372533 296.051265 
L 340.569532 288.987078 
L 340.766531 296.051265 
L 340.96353 283.96796 
L 341.16053 306.445675 
L 341.357529 297.168726 
L 341.554528 300.854819 
L 341.751527 297.168726 
L 341.948526 297.168726 
L 342.145525 287.199275 
L 342.342524 287.199275 
L 342.539523 270.381711 
L 342.933522 299.488615 
L 343.130521 299.488615 
L 343.32752 296.097519 
L 343.524519 296.097519 
L 343.721518 293.761053 
L 343.918517 273.927012 
L 344.115516 273.927012 
L 344.312515 292.006051 
L 344.509515 273.927012 
L 344.706514 292.006051 
L 344.903513 292.006051 
L 345.297511 260.992258 
L 345.691509 291.385987 
L 346.085508 291.385987 
L 346.282507 277.895718 
L 346.479506 251.072486 
L 346.676505 277.895718 
L 346.873504 247.223551 
L 347.070503 238.805043 
L 347.267502 238.805043 
L 347.464501 260.090245 
L 347.6615 260.090245 
L 347.8585 276.435472 
L 348.055499 276.435472 
L 348.252498 256.311137 
L 348.449497 253.415556 
L 348.646496 256.311137 
L 348.843495 256.311137 
L 349.040494 270.800205 
L 349.434492 270.800205 
L 349.828491 294.844236 
L 350.02549 296.895001 
L 350.222489 296.895001 
L 350.616487 300.372744 
L 350.813486 298.403732 
L 351.010485 300.372744 
L 351.207485 300.372744 
L 351.404484 266.614166 
L 351.601483 263.359475 
L 351.798482 263.359475 
L 351.995481 276.96094 
L 352.19248 276.96094 
L 352.783477 286.174436 
L 352.980477 286.174436 
L 353.177476 285.59485 
L 353.374475 281.664608 
L 353.571474 285.59485 
L 353.768473 281.664608 
L 353.965472 281.664608 
L 354.162471 275.993671 
L 354.35947 284.07456 
L 354.55647 284.07456 
L 354.753469 288.810496 
L 355.147467 276.075274 
L 355.344466 272.712487 
L 355.935463 272.712487 
L 356.132462 273.306684 
L 356.329462 287.785278 
L 356.526461 291.684811 
L 357.117458 291.684811 
L 357.314457 289.730237 
L 357.511456 258.426174 
L 357.708455 258.426174 
L 357.905455 257.562644 
L 358.299453 257.562644 
L 358.496452 244.369666 
L 358.693451 244.279353 
L 359.087449 244.369666 
L 359.284448 265.405248 
L 359.481447 268.406914 
L 359.678447 274.287084 
L 359.875446 274.287084 
L 360.072445 274.684117 
L 360.269444 284.917597 
L 360.466443 284.917597 
L 360.663442 293.139339 
L 360.860441 284.917597 
L 361.05744 284.917597 
L 361.25444 288.021977 
L 361.451439 288.870837 
L 361.648438 288.021977 
L 361.845437 288.870837 
L 362.042436 294.890282 
L 362.239435 294.890282 
L 362.436434 295.500112 
L 362.633433 292.199482 
L 362.830432 291.144204 
L 363.027432 278.560739 
L 363.224431 278.560739 
L 363.42143 277.377827 
L 363.618429 264.397101 
L 363.815428 264.397101 
L 364.012427 259.639129 
L 364.209426 261.363143 
L 364.406425 258.391263 
L 364.603425 261.363143 
L 364.800424 261.363143 
L 364.997423 258.391263 
L 365.194422 258.391263 
L 365.391421 271.715855 
L 365.58842 274.249454 
L 365.785419 282.162296 
L 366.179417 281.637727 
L 366.376417 288.930644 
L 366.573416 281.637727 
L 366.770415 281.637727 
L 367.164413 295.21532 
L 367.558411 295.21532 
L 367.75541 293.436205 
L 367.95241 293.084648 
L 368.346408 293.084648 
L 368.543407 300.494923 
L 368.740406 300.494923 
L 368.937405 290.474859 
L 369.134404 290.474859 
L 369.331403 279.142633 
L 369.528402 279.142633 
L 369.725402 281.515149 
L 369.922401 271.053285 
L 370.513398 271.053285 
L 370.710397 274.452413 
L 370.907396 290.560094 
L 371.104395 290.560094 
L 371.301395 297.00335 
L 371.498394 297.00335 
L 371.695393 266.607905 
L 371.892392 264.037939 
L 372.089391 264.037939 
L 372.28639 224.061719 
L 372.483389 223.060586 
L 372.680388 223.060586 
L 372.877387 233.34125 
L 373.074387 233.34125 
L 373.665384 275.302778 
L 373.862383 270.223342 
L 374.059382 248.099045 
L 374.256381 292.089784 
L 374.45338 261.010527 
L 374.65038 261.010527 
L 374.847379 277.90071 
L 375.044378 277.90071 
L 375.241377 275.6304 
L 375.832374 275.6304 
L 376.029373 274.229759 
L 376.226372 270.800205 
L 376.423372 274.229759 
L 376.620371 280.764516 
L 377.211368 280.764516 
L 377.605366 238.484054 
L 377.999365 238.484054 
L 378.196364 246.287234 
L 378.393363 246.287234 
L 378.590362 288.438085 
L 378.787361 288.438085 
L 378.98436 296.600388 
L 379.181359 296.600388 
L 379.378358 282.4776 
L 379.575357 278.511457 
L 379.772357 255.74287 
L 379.969356 255.120534 
L 380.166355 246.158633 
L 380.363354 246.158633 
L 380.560353 274.198297 
L 380.757352 274.198297 
L 381.15135 296.972993 
L 381.34835 296.972993 
L 381.545349 291.193293 
L 381.742348 291.193293 
L 381.939347 262.876209 
L 382.136346 269.877705 
L 382.530344 269.877705 
L 382.727343 277.905447 
L 383.318341 277.867314 
L 383.51534 275.62769 
L 383.712339 256.03669 
L 383.909338 256.03669 
L 384.106337 267.924103 
L 384.303336 256.63532 
L 384.500335 256.63532 
L 384.697335 253.135093 
L 384.894334 253.135093 
L 385.091333 250.175704 
L 385.288332 250.175704 
L 385.485331 262.828055 
L 385.68233 262.828055 
L 385.879329 259.358675 
L 386.273327 259.358675 
L 386.470327 264.425725 
L 386.667326 264.425725 
L 386.864325 277.518818 
L 387.061324 271.49189 
L 387.455322 271.49189 
L 387.652321 287.128365 
L 387.84932 287.128365 
L 388.04632 292.601026 
L 388.243319 292.601026 
L 388.440318 274.016582 
L 388.637317 270.212996 
L 388.834316 270.212996 
L 389.031315 282.933587 
L 389.228314 282.933587 
L 389.425313 251.407768 
L 389.622312 251.407768 
L 389.819312 246.158633 
L 390.016311 251.407768 
L 390.410309 279.495347 
L 390.607308 281.062891 
L 390.804307 281.062891 
L 391.001306 279.495347 
L 391.198305 273.543266 
L 391.592304 273.543266 
L 391.986302 285.606357 
L 392.183301 280.335321 
L 392.3803 282.630343 
L 392.774298 282.630343 
L 392.971297 282.851732 
L 393.168297 282.851732 
L 393.365296 286.931031 
L 393.562295 286.931031 
L 393.759294 282.668937 
L 393.956293 266.928526 
L 394.54729 266.928526 
L 394.744289 250.168392 
L 394.941289 284.070321 
L 395.532286 284.070321 
L 395.729285 253.235154 
L 396.320282 253.235154 
L 396.517282 219.12762 
L 396.714281 219.12762 
L 396.91128 234.724291 
L 397.108279 234.724291 
L 397.502277 243.700903 
L 397.699276 268.04142 
L 398.093274 268.04142 
L 398.487273 296.005094 
L 398.487273 296.005094 
" style="fill:none;stroke:#ff7f0e;stroke-linecap:square;stroke-width:1.5;"/>
   </g>
   <g id="patch_3">
    <path d="M 57.6 307.584 
L 57.6 41.472 
" style="fill:none;stroke:#000000;stroke-linecap:square;stroke-linejoin:miter;stroke-width:0.8;"/>
   </g>
   <g id="patch_4">
    <path d="M 414.72 307.584 
L 414.72 41.472 
" style="fill:none;stroke:#000000;stroke-linecap:square;stroke-linejoin:miter;stroke-width:0.8;"/>
   </g>
   <g id="patch_5">
    <path d="M 57.6 307.584 
L 414.72 307.584 
" style="fill:none;stroke:#000000;stroke-linecap:square;stroke-linejoin:miter;stroke-width:0.8;"/>
   </g>
   <g id="patch_6">
    <path d="M 57.6 41.472 
L 414.72 41.472 
" style="fill:none;stroke:#000000;stroke-linecap:square;stroke-linejoin:miter;stroke-width:0.8;"/>
   </g>
   <g id="text_16">
    <!-- New vs. Old Fee Estimator -->
    <g transform="translate(157.210312 35.472)scale(0.12 -0.12)">
     <defs>
      <path d="M 628 4666 
L 1478 4666 
L 3547 763 
L 3547 4666 
L 4159 4666 
L 4159 0 
L 3309 0 
L 1241 3903 
L 1241 0 
L 628 0 
L 628 4666 
z
" id="DejaVuSans-4e" transform="scale(0.015625)"/>
      <path d="M 269 3500 
L 844 3500 
L 1563 769 
L 2278 3500 
L 2956 3500 
L 3675 769 
L 4391 3500 
L 4966 3500 
L 4050 0 
L 3372 0 
L 2619 2869 
L 1863 0 
L 1184 0 
L 269 3500 
z
" id="DejaVuSans-77" transform="scale(0.015625)"/>
      <path d="M 191 3500 
L 800 3500 
L 1894 563 
L 2988 3500 
L 3597 3500 
L 2284 0 
L 1503 0 
L 191 3500 
z
" id="DejaVuSans-76" transform="scale(0.015625)"/>
      <path d="M 684 794 
L 1344 794 
L 1344 0 
L 684 0 
L 684 794 
z
" id="DejaVuSans-2e" transform="scale(0.015625)"/>
      <path d="M 2522 4238 
Q 1834 4238 1429 3725 
Q 1025 3213 1025 2328 
Q 1025 1447 1429 934 
Q 1834 422 2522 422 
Q 3209 422 3611 934 
Q 4013 1447 4013 2328 
Q 4013 3213 3611 3725 
Q 3209 4238 2522 4238 
z
M 2522 4750 
Q 3503 4750 4090 4092 
Q 4678 3434 4678 2328 
Q 4678 1225 4090 567 
Q 3503 -91 2522 -91 
Q 1538 -91 948 565 
Q 359 1222 359 2328 
Q 359 3434 948 4092 
Q 1538 4750 2522 4750 
z
" id="DejaVuSans-4f" transform="scale(0.015625)"/>
      <path d="M 628 4666 
L 3309 4666 
L 3309 4134 
L 1259 4134 
L 1259 2759 
L 3109 2759 
L 3109 2228 
L 1259 2228 
L 1259 0 
L 628 0 
L 628 4666 
z
" id="DejaVuSans-46" transform="scale(0.015625)"/>
     </defs>
     <use xlink:href="#DejaVuSans-4e"/>
     <use x="74.804688" xlink:href="#DejaVuSans-65"/>
     <use x="136.328125" xlink:href="#DejaVuSans-77"/>
     <use x="218.115234" xlink:href="#DejaVuSans-20"/>
     <use x="249.902344" xlink:href="#DejaVuSans-76"/>
     <use x="309.082031" xlink:href="#DejaVuSans-73"/>
     <use x="361.181641" xlink:href="#DejaVuSans-2e"/>
     <use x="392.96875" xlink:href="#DejaVuSans-20"/>
     <use x="424.755859" xlink:href="#DejaVuSans-4f"/>
     <use x="503.466797" xlink:href="#DejaVuSans-6c"/>
     <use x="531.25" xlink:href="#DejaVuSans-64"/>
     <use x="594.726562" xlink:href="#DejaVuSans-20"/>
     <use x="626.513672" xlink:href="#DejaVuSans-46"/>
     <use x="678.533203" xlink:href="#DejaVuSans-65"/>
     <use x="740.056641" xlink:href="#DejaVuSans-65"/>
     <use x="801.580078" xlink:href="#DejaVuSans-20"/>
     <use x="833.367188" xlink:href="#DejaVuSans-45"/>
     <use x="896.550781" xlink:href="#DejaVuSans-73"/>
     <use x="948.650391" xlink:href="#DejaVuSans-74"/>
     <use x="987.859375" xlink:href="#DejaVuSans-69"/>
     <use x="1015.642578" xlink:href="#DejaVuSans-6d"/>
     <use x="1113.054688" xlink:href="#DejaVuSans-61"/>
     <use x="1174.333984" xlink:href="#DejaVuSans-74"/>
     <use x="1213.542969" xlink:href="#DejaVuSans-6f"/>
     <use x="1274.724609" xlink:href="#DejaVuSans-72"/>
    </g>
   </g>
   <g id="legend_1">
    <g id="patch_7">
     <path d="M 355.05125 190.706125 
L 407.72 190.706125 
Q 409.72 190.706125 409.72 188.706125 
L 409.72 160.349875 
Q 409.72 158.349875 407.72 158.349875 
L 355.05125 158.349875 
Q 353.05125 158.349875 353.05125 160.349875 
L 353.05125 188.706125 
Q 353.05125 190.706125 355.05125 190.706125 
z
" style="fill:#ffffff;opacity:0.8;stroke:#cccccc;stroke-linejoin:miter;"/>
    </g>
    <g id="line2d_16">
     <path d="M 357.05125 166.448312 
L 377.05125 166.448312 
" style="fill:none;stroke:#1f77b4;stroke-linecap:square;stroke-width:1.5;"/>
    </g>
    <g id="line2d_17"/>
    <g id="text_17">
     <!-- old -->
     <g transform="translate(385.05125 169.948312)scale(0.1 -0.1)">
      <use xlink:href="#DejaVuSans-6f"/>
      <use x="61.181641" xlink:href="#DejaVuSans-6c"/>
      <use x="88.964844" xlink:href="#DejaVuSans-64"/>
     </g>
    </g>
    <g id="line2d_18">
     <path d="M 357.05125 181.126437 
L 377.05125 181.126437 
" style="fill:none;stroke:#ff7f0e;stroke-linecap:square;stroke-width:1.5;"/>
    </g>
    <g id="line2d_19"/>
    <g id="text_18">
     <!-- new -->
     <g transform="translate(385.05125 184.626437)scale(0.1 -0.1)">
      <defs>
       <path d="M 3513 2113 
L 3513 0 
L 2938 0 
L 2938 2094 
Q 2938 2591 2744 2837 
Q 2550 3084 2163 3084 
Q 1697 3084 1428 2787 
Q 1159 2491 1159 1978 
L 1159 0 
L 581 0 
L 581 3500 
L 1159 3500 
L 1159 2956 
Q 1366 3272 1645 3428 
Q 1925 3584 2291 3584 
Q 2894 3584 3203 3211 
Q 3513 2838 3513 2113 
z
" id="DejaVuSans-6e" transform="scale(0.015625)"/>
      </defs>
      <use xlink:href="#DejaVuSans-6e"/>
      <use x="63.378906" xlink:href="#DejaVuSans-65"/>
      <use x="124.902344" xlink:href="#DejaVuSans-77"/>
     </g>
    </g>
   </g>
  </g>
 </g>
 <defs>
  <clipPath id="p3868d96056">
   <rect height="266.112" width="357.12" x="57.6" y="41.472"/>
  </clipPath>
 </defs>
</svg>
