<?xml version="1.0" encoding="utf-8" standalone="no"?>
<!DOCTYPE svg PUBLIC "-//W3C//DTD SVG 1.1//EN"
  "http://www.w3.org/Graphics/SVG/1.1/DTD/svg11.dtd">
<svg height="345.6pt" version="1.1" viewBox="0 0 460.8 345.6" width="460.8pt" xmlns="http://www.w3.org/2000/svg" xmlns:xlink="http://www.w3.org/1999/xlink">
 <metadata>
  <rdf:RDF xmlns:cc="http://creativecommons.org/ns#" xmlns:dc="http://purl.org/dc/elements/1.1/" xmlns:rdf="http://www.w3.org/1999/02/22-rdf-syntax-ns#">
   <cc:Work>
    <dc:type rdf:resource="http://purl.org/dc/dcmitype/StillImage"/>
    <dc:date>2022-01-07T02:37:34.811047</dc:date>
    <dc:format>image/svg+xml</dc:format>
    <dc:creator>
     <cc:Agent>
      <dc:title>Matplotlib v3.4.3, https://matplotlib.org/</dc:title>
     </cc:Agent>
    </dc:creator>
   </cc:Work>
  </rdf:RDF>
 </metadata>
 <defs>
  <style type="text/css">*{stroke-linecap:butt;stroke-linejoin:round;}</style>
 </defs>
 <g id="figure_1">
  <g id="patch_1">
   <path d="M 0 345.6 
L 460.8 345.6 
L 460.8 0 
L 0 0 
z
" style="fill:#ffffff;"/>
  </g>
  <g id="axes_1">
   <g id="patch_2">
    <path d="M 57.6 307.584 
L 414.72 307.584 
L 414.72 41.472 
L 57.6 41.472 
z
" style="fill:#ffffff;"/>
   </g>
   <g id="matplotlib.axis_1">
    <g id="xtick_1">
     <g id="line2d_1">
      <defs>
       <path d="M 0 0 
L 0 3.5 
" id="ma77005c40c" style="stroke:#000000;stroke-width:0.8;"/>
      </defs>
      <g>
       <use style="stroke:#000000;stroke-width:0.8;" x="73.832727" xlink:href="#ma77005c40c" y="307.584"/>
      </g>
     </g>
     <g id="text_1">
      <!-- 39000 -->
      <g transform="translate(57.926477 322.182437)scale(0.1 -0.1)">
       <defs>
        <path d="M 2597 2516 
Q 3050 2419 3304 2112 
Q 3559 1806 3559 1356 
Q 3559 666 3084 287 
Q 2609 -91 1734 -91 
Q 1441 -91 1130 -33 
Q 819 25 488 141 
L 488 750 
Q 750 597 1062 519 
Q 1375 441 1716 441 
Q 2309 441 2620 675 
Q 2931 909 2931 1356 
Q 2931 1769 2642 2001 
Q 2353 2234 1838 2234 
L 1294 2234 
L 1294 2753 
L 1863 2753 
Q 2328 2753 2575 2939 
Q 2822 3125 2822 3475 
Q 2822 3834 2567 4026 
Q 2313 4219 1838 4219 
Q 1578 4219 1281 4162 
Q 984 4106 628 3988 
L 628 4550 
Q 988 4650 1302 4700 
Q 1616 4750 1894 4750 
Q 2613 4750 3031 4423 
Q 3450 4097 3450 3541 
Q 3450 3153 3228 2886 
Q 3006 2619 2597 2516 
z
" id="DejaVuSans-33" transform="scale(0.015625)"/>
        <path d="M 703 97 
L 703 672 
Q 941 559 1184 500 
Q 1428 441 1663 441 
Q 2288 441 2617 861 
Q 2947 1281 2994 2138 
Q 2813 1869 2534 1725 
Q 2256 1581 1919 1581 
Q 1219 1581 811 2004 
Q 403 2428 403 3163 
Q 403 3881 828 4315 
Q 1253 4750 1959 4750 
Q 2769 4750 3195 4129 
Q 3622 3509 3622 2328 
Q 3622 1225 3098 567 
Q 2575 -91 1691 -91 
Q 1453 -91 1209 -44 
Q 966 3 703 97 
z
M 1959 2075 
Q 2384 2075 2632 2365 
Q 2881 2656 2881 3163 
Q 2881 3666 2632 3958 
Q 2384 4250 1959 4250 
Q 1534 4250 1286 3958 
Q 1038 3666 1038 3163 
Q 1038 2656 1286 2365 
Q 1534 2075 1959 2075 
z
" id="DejaVuSans-39" transform="scale(0.015625)"/>
        <path d="M 2034 4250 
Q 1547 4250 1301 3770 
Q 1056 3291 1056 2328 
Q 1056 1369 1301 889 
Q 1547 409 2034 409 
Q 2525 409 2770 889 
Q 3016 1369 3016 2328 
Q 3016 3291 2770 3770 
Q 2525 4250 2034 4250 
z
M 2034 4750 
Q 2819 4750 3233 4129 
Q 3647 3509 3647 2328 
Q 3647 1150 3233 529 
Q 2819 -91 2034 -91 
Q 1250 -91 836 529 
Q 422 1150 422 2328 
Q 422 3509 836 4129 
Q 1250 4750 2034 4750 
z
" id="DejaVuSans-30" transform="scale(0.015625)"/>
       </defs>
       <use xlink:href="#DejaVuSans-33"/>
       <use x="63.623047" xlink:href="#DejaVuSans-39"/>
       <use x="127.246094" xlink:href="#DejaVuSans-30"/>
       <use x="190.869141" xlink:href="#DejaVuSans-30"/>
       <use x="254.492188" xlink:href="#DejaVuSans-30"/>
      </g>
     </g>
    </g>
    <g id="xtick_2">
     <g id="line2d_2">
      <g>
       <use style="stroke:#000000;stroke-width:0.8;" x="123.082507" xlink:href="#ma77005c40c" y="307.584"/>
      </g>
     </g>
     <g id="text_2">
      <!-- 39250 -->
      <g transform="translate(107.176257 322.182437)scale(0.1 -0.1)">
       <defs>
        <path d="M 1228 531 
L 3431 531 
L 3431 0 
L 469 0 
L 469 531 
Q 828 903 1448 1529 
Q 2069 2156 2228 2338 
Q 2531 2678 2651 2914 
Q 2772 3150 2772 3378 
Q 2772 3750 2511 3984 
Q 2250 4219 1831 4219 
Q 1534 4219 1204 4116 
Q 875 4013 500 3803 
L 500 4441 
Q 881 4594 1212 4672 
Q 1544 4750 1819 4750 
Q 2544 4750 2975 4387 
Q 3406 4025 3406 3419 
Q 3406 3131 3298 2873 
Q 3191 2616 2906 2266 
Q 2828 2175 2409 1742 
Q 1991 1309 1228 531 
z
" id="DejaVuSans-32" transform="scale(0.015625)"/>
        <path d="M 691 4666 
L 3169 4666 
L 3169 4134 
L 1269 4134 
L 1269 2991 
Q 1406 3038 1543 3061 
Q 1681 3084 1819 3084 
Q 2600 3084 3056 2656 
Q 3513 2228 3513 1497 
Q 3513 744 3044 326 
Q 2575 -91 1722 -91 
Q 1428 -91 1123 -41 
Q 819 9 494 109 
L 494 744 
Q 775 591 1075 516 
Q 1375 441 1709 441 
Q 2250 441 2565 725 
Q 2881 1009 2881 1497 
Q 2881 1984 2565 2268 
Q 2250 2553 1709 2553 
Q 1456 2553 1204 2497 
Q 953 2441 691 2322 
L 691 4666 
z
" id="DejaVuSans-35" transform="scale(0.015625)"/>
       </defs>
       <use xlink:href="#DejaVuSans-33"/>
       <use x="63.623047" xlink:href="#DejaVuSans-39"/>
       <use x="127.246094" xlink:href="#DejaVuSans-32"/>
       <use x="190.869141" xlink:href="#DejaVuSans-35"/>
       <use x="254.492188" xlink:href="#DejaVuSans-30"/>
      </g>
     </g>
    </g>
    <g id="xtick_3">
     <g id="line2d_3">
      <g>
       <use style="stroke:#000000;stroke-width:0.8;" x="172.332286" xlink:href="#ma77005c40c" y="307.584"/>
      </g>
     </g>
     <g id="text_3">
      <!-- 39500 -->
      <g transform="translate(156.426036 322.182437)scale(0.1 -0.1)">
       <use xlink:href="#DejaVuSans-33"/>
       <use x="63.623047" xlink:href="#DejaVuSans-39"/>
       <use x="127.246094" xlink:href="#DejaVuSans-35"/>
       <use x="190.869141" xlink:href="#DejaVuSans-30"/>
       <use x="254.492188" xlink:href="#DejaVuSans-30"/>
      </g>
     </g>
    </g>
    <g id="xtick_4">
     <g id="line2d_4">
      <g>
       <use style="stroke:#000000;stroke-width:0.8;" x="221.582065" xlink:href="#ma77005c40c" y="307.584"/>
      </g>
     </g>
     <g id="text_4">
      <!-- 39750 -->
      <g transform="translate(205.675815 322.182437)scale(0.1 -0.1)">
       <defs>
        <path d="M 525 4666 
L 3525 4666 
L 3525 4397 
L 1831 0 
L 1172 0 
L 2766 4134 
L 525 4134 
L 525 4666 
z
" id="DejaVuSans-37" transform="scale(0.015625)"/>
       </defs>
       <use xlink:href="#DejaVuSans-33"/>
       <use x="63.623047" xlink:href="#DejaVuSans-39"/>
       <use x="127.246094" xlink:href="#DejaVuSans-37"/>
       <use x="190.869141" xlink:href="#DejaVuSans-35"/>
       <use x="254.492188" xlink:href="#DejaVuSans-30"/>
      </g>
     </g>
    </g>
    <g id="xtick_5">
     <g id="line2d_5">
      <g>
       <use style="stroke:#000000;stroke-width:0.8;" x="270.831845" xlink:href="#ma77005c40c" y="307.584"/>
      </g>
     </g>
     <g id="text_5">
      <!-- 40000 -->
      <g transform="translate(254.925595 322.182437)scale(0.1 -0.1)">
       <defs>
        <path d="M 2419 4116 
L 825 1625 
L 2419 1625 
L 2419 4116 
z
M 2253 4666 
L 3047 4666 
L 3047 1625 
L 3713 1625 
L 3713 1100 
L 3047 1100 
L 3047 0 
L 2419 0 
L 2419 1100 
L 313 1100 
L 313 1709 
L 2253 4666 
z
" id="DejaVuSans-34" transform="scale(0.015625)"/>
       </defs>
       <use xlink:href="#DejaVuSans-34"/>
       <use x="63.623047" xlink:href="#DejaVuSans-30"/>
       <use x="127.246094" xlink:href="#DejaVuSans-30"/>
       <use x="190.869141" xlink:href="#DejaVuSans-30"/>
       <use x="254.492188" xlink:href="#DejaVuSans-30"/>
      </g>
     </g>
    </g>
    <g id="xtick_6">
     <g id="line2d_6">
      <g>
       <use style="stroke:#000000;stroke-width:0.8;" x="320.081624" xlink:href="#ma77005c40c" y="307.584"/>
      </g>
     </g>
     <g id="text_6">
      <!-- 40250 -->
      <g transform="translate(304.175374 322.182437)scale(0.1 -0.1)">
       <use xlink:href="#DejaVuSans-34"/>
       <use x="63.623047" xlink:href="#DejaVuSans-30"/>
       <use x="127.246094" xlink:href="#DejaVuSans-32"/>
       <use x="190.869141" xlink:href="#DejaVuSans-35"/>
       <use x="254.492188" xlink:href="#DejaVuSans-30"/>
      </g>
     </g>
    </g>
    <g id="xtick_7">
     <g id="line2d_7">
      <g>
       <use style="stroke:#000000;stroke-width:0.8;" x="369.331403" xlink:href="#ma77005c40c" y="307.584"/>
      </g>
     </g>
     <g id="text_7">
      <!-- 40500 -->
      <g transform="translate(353.425153 322.182437)scale(0.1 -0.1)">
       <use xlink:href="#DejaVuSans-34"/>
       <use x="63.623047" xlink:href="#DejaVuSans-30"/>
       <use x="127.246094" xlink:href="#DejaVuSans-35"/>
       <use x="190.869141" xlink:href="#DejaVuSans-30"/>
       <use x="254.492188" xlink:href="#DejaVuSans-30"/>
      </g>
     </g>
    </g>
    <g id="text_8">
     <!-- Block Height -->
     <g transform="translate(204.518594 335.860562)scale(0.1 -0.1)">
      <defs>
       <path d="M 1259 2228 
L 1259 519 
L 2272 519 
Q 2781 519 3026 730 
Q 3272 941 3272 1375 
Q 3272 1813 3026 2020 
Q 2781 2228 2272 2228 
L 1259 2228 
z
M 1259 4147 
L 1259 2741 
L 2194 2741 
Q 2656 2741 2882 2914 
Q 3109 3088 3109 3444 
Q 3109 3797 2882 3972 
Q 2656 4147 2194 4147 
L 1259 4147 
z
M 628 4666 
L 2241 4666 
Q 2963 4666 3353 4366 
Q 3744 4066 3744 3513 
Q 3744 3084 3544 2831 
Q 3344 2578 2956 2516 
Q 3422 2416 3680 2098 
Q 3938 1781 3938 1306 
Q 3938 681 3513 340 
Q 3088 0 2303 0 
L 628 0 
L 628 4666 
z
" id="DejaVuSans-42" transform="scale(0.015625)"/>
       <path d="M 603 4863 
L 1178 4863 
L 1178 0 
L 603 0 
L 603 4863 
z
" id="DejaVuSans-6c" transform="scale(0.015625)"/>
       <path d="M 1959 3097 
Q 1497 3097 1228 2736 
Q 959 2375 959 1747 
Q 959 1119 1226 758 
Q 1494 397 1959 397 
Q 2419 397 2687 759 
Q 2956 1122 2956 1747 
Q 2956 2369 2687 2733 
Q 2419 3097 1959 3097 
z
M 1959 3584 
Q 2709 3584 3137 3096 
Q 3566 2609 3566 1747 
Q 3566 888 3137 398 
Q 2709 -91 1959 -91 
Q 1206 -91 779 398 
Q 353 888 353 1747 
Q 353 2609 779 3096 
Q 1206 3584 1959 3584 
z
" id="DejaVuSans-6f" transform="scale(0.015625)"/>
       <path d="M 3122 3366 
L 3122 2828 
Q 2878 2963 2633 3030 
Q 2388 3097 2138 3097 
Q 1578 3097 1268 2742 
Q 959 2388 959 1747 
Q 959 1106 1268 751 
Q 1578 397 2138 397 
Q 2388 397 2633 464 
Q 2878 531 3122 666 
L 3122 134 
Q 2881 22 2623 -34 
Q 2366 -91 2075 -91 
Q 1284 -91 818 406 
Q 353 903 353 1747 
Q 353 2603 823 3093 
Q 1294 3584 2113 3584 
Q 2378 3584 2631 3529 
Q 2884 3475 3122 3366 
z
" id="DejaVuSans-63" transform="scale(0.015625)"/>
       <path d="M 581 4863 
L 1159 4863 
L 1159 1991 
L 2875 3500 
L 3609 3500 
L 1753 1863 
L 3688 0 
L 2938 0 
L 1159 1709 
L 1159 0 
L 581 0 
L 581 4863 
z
" id="DejaVuSans-6b" transform="scale(0.015625)"/>
       <path id="DejaVuSans-20" transform="scale(0.015625)"/>
       <path d="M 628 4666 
L 1259 4666 
L 1259 2753 
L 3553 2753 
L 3553 4666 
L 4184 4666 
L 4184 0 
L 3553 0 
L 3553 2222 
L 1259 2222 
L 1259 0 
L 628 0 
L 628 4666 
z
" id="DejaVuSans-48" transform="scale(0.015625)"/>
       <path d="M 3597 1894 
L 3597 1613 
L 953 1613 
Q 991 1019 1311 708 
Q 1631 397 2203 397 
Q 2534 397 2845 478 
Q 3156 559 3463 722 
L 3463 178 
Q 3153 47 2828 -22 
Q 2503 -91 2169 -91 
Q 1331 -91 842 396 
Q 353 884 353 1716 
Q 353 2575 817 3079 
Q 1281 3584 2069 3584 
Q 2775 3584 3186 3129 
Q 3597 2675 3597 1894 
z
M 3022 2063 
Q 3016 2534 2758 2815 
Q 2500 3097 2075 3097 
Q 1594 3097 1305 2825 
Q 1016 2553 972 2059 
L 3022 2063 
z
" id="DejaVuSans-65" transform="scale(0.015625)"/>
       <path d="M 603 3500 
L 1178 3500 
L 1178 0 
L 603 0 
L 603 3500 
z
M 603 4863 
L 1178 4863 
L 1178 4134 
L 603 4134 
L 603 4863 
z
" id="DejaVuSans-69" transform="scale(0.015625)"/>
       <path d="M 2906 1791 
Q 2906 2416 2648 2759 
Q 2391 3103 1925 3103 
Q 1463 3103 1205 2759 
Q 947 2416 947 1791 
Q 947 1169 1205 825 
Q 1463 481 1925 481 
Q 2391 481 2648 825 
Q 2906 1169 2906 1791 
z
M 3481 434 
Q 3481 -459 3084 -895 
Q 2688 -1331 1869 -1331 
Q 1566 -1331 1297 -1286 
Q 1028 -1241 775 -1147 
L 775 -588 
Q 1028 -725 1275 -790 
Q 1522 -856 1778 -856 
Q 2344 -856 2625 -561 
Q 2906 -266 2906 331 
L 2906 616 
Q 2728 306 2450 153 
Q 2172 0 1784 0 
Q 1141 0 747 490 
Q 353 981 353 1791 
Q 353 2603 747 3093 
Q 1141 3584 1784 3584 
Q 2172 3584 2450 3431 
Q 2728 3278 2906 2969 
L 2906 3500 
L 3481 3500 
L 3481 434 
z
" id="DejaVuSans-67" transform="scale(0.015625)"/>
       <path d="M 3513 2113 
L 3513 0 
L 2938 0 
L 2938 2094 
Q 2938 2591 2744 2837 
Q 2550 3084 2163 3084 
Q 1697 3084 1428 2787 
Q 1159 2491 1159 1978 
L 1159 0 
L 581 0 
L 581 4863 
L 1159 4863 
L 1159 2956 
Q 1366 3272 1645 3428 
Q 1925 3584 2291 3584 
Q 2894 3584 3203 3211 
Q 3513 2838 3513 2113 
z
" id="DejaVuSans-68" transform="scale(0.015625)"/>
       <path d="M 1172 4494 
L 1172 3500 
L 2356 3500 
L 2356 3053 
L 1172 3053 
L 1172 1153 
Q 1172 725 1289 603 
Q 1406 481 1766 481 
L 2356 481 
L 2356 0 
L 1766 0 
Q 1100 0 847 248 
Q 594 497 594 1153 
L 594 3053 
L 172 3053 
L 172 3500 
L 594 3500 
L 594 4494 
L 1172 4494 
z
" id="DejaVuSans-74" transform="scale(0.015625)"/>
      </defs>
      <use xlink:href="#DejaVuSans-42"/>
      <use x="68.603516" xlink:href="#DejaVuSans-6c"/>
      <use x="96.386719" xlink:href="#DejaVuSans-6f"/>
      <use x="157.568359" xlink:href="#DejaVuSans-63"/>
      <use x="212.548828" xlink:href="#DejaVuSans-6b"/>
      <use x="270.458984" xlink:href="#DejaVuSans-20"/>
      <use x="302.246094" xlink:href="#DejaVuSans-48"/>
      <use x="377.441406" xlink:href="#DejaVuSans-65"/>
      <use x="438.964844" xlink:href="#DejaVuSans-69"/>
      <use x="466.748047" xlink:href="#DejaVuSans-67"/>
      <use x="530.224609" xlink:href="#DejaVuSans-68"/>
      <use x="593.603516" xlink:href="#DejaVuSans-74"/>
     </g>
    </g>
   </g>
   <g id="matplotlib.axis_2">
    <g id="ytick_1">
     <g id="line2d_8">
      <defs>
       <path d="M 0 0 
L -3.5 0 
" id="m1b71806b63" style="stroke:#000000;stroke-width:0.8;"/>
      </defs>
      <g>
       <use style="stroke:#000000;stroke-width:0.8;" x="57.6" xlink:href="#m1b71806b63" y="307.584"/>
      </g>
     </g>
     <g id="text_9">
      <!-- 0.0 -->
      <g transform="translate(34.696875 311.383219)scale(0.1 -0.1)">
       <defs>
        <path d="M 684 794 
L 1344 794 
L 1344 0 
L 684 0 
L 684 794 
z
" id="DejaVuSans-2e" transform="scale(0.015625)"/>
       </defs>
       <use xlink:href="#DejaVuSans-30"/>
       <use x="63.623047" xlink:href="#DejaVuSans-2e"/>
       <use x="95.410156" xlink:href="#DejaVuSans-30"/>
      </g>
     </g>
    </g>
    <g id="ytick_2">
     <g id="line2d_9">
      <g>
       <use style="stroke:#000000;stroke-width:0.8;" x="57.6" xlink:href="#m1b71806b63" y="274.32"/>
      </g>
     </g>
     <g id="text_10">
      <!-- 2.5 -->
      <g transform="translate(34.696875 278.119219)scale(0.1 -0.1)">
       <use xlink:href="#DejaVuSans-32"/>
       <use x="63.623047" xlink:href="#DejaVuSans-2e"/>
       <use x="95.410156" xlink:href="#DejaVuSans-35"/>
      </g>
     </g>
    </g>
    <g id="ytick_3">
     <g id="line2d_10">
      <g>
       <use style="stroke:#000000;stroke-width:0.8;" x="57.6" xlink:href="#m1b71806b63" y="241.056"/>
      </g>
     </g>
     <g id="text_11">
      <!-- 5.0 -->
      <g transform="translate(34.696875 244.855219)scale(0.1 -0.1)">
       <use xlink:href="#DejaVuSans-35"/>
       <use x="63.623047" xlink:href="#DejaVuSans-2e"/>
       <use x="95.410156" xlink:href="#DejaVuSans-30"/>
      </g>
     </g>
    </g>
    <g id="ytick_4">
     <g id="line2d_11">
      <g>
       <use style="stroke:#000000;stroke-width:0.8;" x="57.6" xlink:href="#m1b71806b63" y="207.792"/>
      </g>
     </g>
     <g id="text_12">
      <!-- 7.5 -->
      <g transform="translate(34.696875 211.591219)scale(0.1 -0.1)">
       <use xlink:href="#DejaVuSans-37"/>
       <use x="63.623047" xlink:href="#DejaVuSans-2e"/>
       <use x="95.410156" xlink:href="#DejaVuSans-35"/>
      </g>
     </g>
    </g>
    <g id="ytick_5">
     <g id="line2d_12">
      <g>
       <use style="stroke:#000000;stroke-width:0.8;" x="57.6" xlink:href="#m1b71806b63" y="174.528"/>
      </g>
     </g>
     <g id="text_13">
      <!-- 10.0 -->
      <g transform="translate(28.334375 178.327219)scale(0.1 -0.1)">
       <defs>
        <path d="M 794 531 
L 1825 531 
L 1825 4091 
L 703 3866 
L 703 4441 
L 1819 4666 
L 2450 4666 
L 2450 531 
L 3481 531 
L 3481 0 
L 794 0 
L 794 531 
z
" id="DejaVuSans-31" transform="scale(0.015625)"/>
       </defs>
       <use xlink:href="#DejaVuSans-31"/>
       <use x="63.623047" xlink:href="#DejaVuSans-30"/>
       <use x="127.246094" xlink:href="#DejaVuSans-2e"/>
       <use x="159.033203" xlink:href="#DejaVuSans-30"/>
      </g>
     </g>
    </g>
    <g id="ytick_6">
     <g id="line2d_13">
      <g>
       <use style="stroke:#000000;stroke-width:0.8;" x="57.6" xlink:href="#m1b71806b63" y="141.264"/>
      </g>
     </g>
     <g id="text_14">
      <!-- 12.5 -->
      <g transform="translate(28.334375 145.063219)scale(0.1 -0.1)">
       <use xlink:href="#DejaVuSans-31"/>
       <use x="63.623047" xlink:href="#DejaVuSans-32"/>
       <use x="127.246094" xlink:href="#DejaVuSans-2e"/>
       <use x="159.033203" xlink:href="#DejaVuSans-35"/>
      </g>
     </g>
    </g>
    <g id="ytick_7">
     <g id="line2d_14">
      <g>
       <use style="stroke:#000000;stroke-width:0.8;" x="57.6" xlink:href="#m1b71806b63" y="108"/>
      </g>
     </g>
     <g id="text_15">
      <!-- 15.0 -->
      <g transform="translate(28.334375 111.799219)scale(0.1 -0.1)">
       <use xlink:href="#DejaVuSans-31"/>
       <use x="63.623047" xlink:href="#DejaVuSans-35"/>
       <use x="127.246094" xlink:href="#DejaVuSans-2e"/>
       <use x="159.033203" xlink:href="#DejaVuSans-30"/>
      </g>
     </g>
    </g>
    <g id="ytick_8">
     <g id="line2d_15">
      <g>
       <use style="stroke:#000000;stroke-width:0.8;" x="57.6" xlink:href="#m1b71806b63" y="74.736"/>
      </g>
     </g>
     <g id="text_16">
      <!-- 17.5 -->
      <g transform="translate(28.334375 78.535219)scale(0.1 -0.1)">
       <use xlink:href="#DejaVuSans-31"/>
       <use x="63.623047" xlink:href="#DejaVuSans-37"/>
       <use x="127.246094" xlink:href="#DejaVuSans-2e"/>
       <use x="159.033203" xlink:href="#DejaVuSans-35"/>
      </g>
     </g>
    </g>
    <g id="ytick_9">
     <g id="line2d_16">
      <g>
       <use style="stroke:#000000;stroke-width:0.8;" x="57.6" xlink:href="#m1b71806b63" y="41.472"/>
      </g>
     </g>
     <g id="text_17">
      <!-- 20.0 -->
      <g transform="translate(28.334375 45.271219)scale(0.1 -0.1)">
       <use xlink:href="#DejaVuSans-32"/>
       <use x="63.623047" xlink:href="#DejaVuSans-30"/>
       <use x="127.246094" xlink:href="#DejaVuSans-2e"/>
       <use x="159.033203" xlink:href="#DejaVuSans-30"/>
      </g>
     </g>
    </g>
    <g id="text_18">
     <!-- Estimated fee for "stack-stx" -->
     <g transform="translate(22.254687 246.543625)rotate(-90)scale(0.1 -0.1)">
      <defs>
       <path d="M 628 4666 
L 3578 4666 
L 3578 4134 
L 1259 4134 
L 1259 2753 
L 3481 2753 
L 3481 2222 
L 1259 2222 
L 1259 531 
L 3634 531 
L 3634 0 
L 628 0 
L 628 4666 
z
" id="DejaVuSans-45" transform="scale(0.015625)"/>
       <path d="M 2834 3397 
L 2834 2853 
Q 2591 2978 2328 3040 
Q 2066 3103 1784 3103 
Q 1356 3103 1142 2972 
Q 928 2841 928 2578 
Q 928 2378 1081 2264 
Q 1234 2150 1697 2047 
L 1894 2003 
Q 2506 1872 2764 1633 
Q 3022 1394 3022 966 
Q 3022 478 2636 193 
Q 2250 -91 1575 -91 
Q 1294 -91 989 -36 
Q 684 19 347 128 
L 347 722 
Q 666 556 975 473 
Q 1284 391 1588 391 
Q 1994 391 2212 530 
Q 2431 669 2431 922 
Q 2431 1156 2273 1281 
Q 2116 1406 1581 1522 
L 1381 1569 
Q 847 1681 609 1914 
Q 372 2147 372 2553 
Q 372 3047 722 3315 
Q 1072 3584 1716 3584 
Q 2034 3584 2315 3537 
Q 2597 3491 2834 3397 
z
" id="DejaVuSans-73" transform="scale(0.015625)"/>
       <path d="M 3328 2828 
Q 3544 3216 3844 3400 
Q 4144 3584 4550 3584 
Q 5097 3584 5394 3201 
Q 5691 2819 5691 2113 
L 5691 0 
L 5113 0 
L 5113 2094 
Q 5113 2597 4934 2840 
Q 4756 3084 4391 3084 
Q 3944 3084 3684 2787 
Q 3425 2491 3425 1978 
L 3425 0 
L 2847 0 
L 2847 2094 
Q 2847 2600 2669 2842 
Q 2491 3084 2119 3084 
Q 1678 3084 1418 2786 
Q 1159 2488 1159 1978 
L 1159 0 
L 581 0 
L 581 3500 
L 1159 3500 
L 1159 2956 
Q 1356 3278 1631 3431 
Q 1906 3584 2284 3584 
Q 2666 3584 2933 3390 
Q 3200 3197 3328 2828 
z
" id="DejaVuSans-6d" transform="scale(0.015625)"/>
       <path d="M 2194 1759 
Q 1497 1759 1228 1600 
Q 959 1441 959 1056 
Q 959 750 1161 570 
Q 1363 391 1709 391 
Q 2188 391 2477 730 
Q 2766 1069 2766 1631 
L 2766 1759 
L 2194 1759 
z
M 3341 1997 
L 3341 0 
L 2766 0 
L 2766 531 
Q 2569 213 2275 61 
Q 1981 -91 1556 -91 
Q 1019 -91 701 211 
Q 384 513 384 1019 
Q 384 1609 779 1909 
Q 1175 2209 1959 2209 
L 2766 2209 
L 2766 2266 
Q 2766 2663 2505 2880 
Q 2244 3097 1772 3097 
Q 1472 3097 1187 3025 
Q 903 2953 641 2809 
L 641 3341 
Q 956 3463 1253 3523 
Q 1550 3584 1831 3584 
Q 2591 3584 2966 3190 
Q 3341 2797 3341 1997 
z
" id="DejaVuSans-61" transform="scale(0.015625)"/>
       <path d="M 2906 2969 
L 2906 4863 
L 3481 4863 
L 3481 0 
L 2906 0 
L 2906 525 
Q 2725 213 2448 61 
Q 2172 -91 1784 -91 
Q 1150 -91 751 415 
Q 353 922 353 1747 
Q 353 2572 751 3078 
Q 1150 3584 1784 3584 
Q 2172 3584 2448 3432 
Q 2725 3281 2906 2969 
z
M 947 1747 
Q 947 1113 1208 752 
Q 1469 391 1925 391 
Q 2381 391 2643 752 
Q 2906 1113 2906 1747 
Q 2906 2381 2643 2742 
Q 2381 3103 1925 3103 
Q 1469 3103 1208 2742 
Q 947 2381 947 1747 
z
" id="DejaVuSans-64" transform="scale(0.015625)"/>
       <path d="M 2375 4863 
L 2375 4384 
L 1825 4384 
Q 1516 4384 1395 4259 
Q 1275 4134 1275 3809 
L 1275 3500 
L 2222 3500 
L 2222 3053 
L 1275 3053 
L 1275 0 
L 697 0 
L 697 3053 
L 147 3053 
L 147 3500 
L 697 3500 
L 697 3744 
Q 697 4328 969 4595 
Q 1241 4863 1831 4863 
L 2375 4863 
z
" id="DejaVuSans-66" transform="scale(0.015625)"/>
       <path d="M 2631 2963 
Q 2534 3019 2420 3045 
Q 2306 3072 2169 3072 
Q 1681 3072 1420 2755 
Q 1159 2438 1159 1844 
L 1159 0 
L 581 0 
L 581 3500 
L 1159 3500 
L 1159 2956 
Q 1341 3275 1631 3429 
Q 1922 3584 2338 3584 
Q 2397 3584 2469 3576 
Q 2541 3569 2628 3553 
L 2631 2963 
z
" id="DejaVuSans-72" transform="scale(0.015625)"/>
       <path d="M 1147 4666 
L 1147 2931 
L 616 2931 
L 616 4666 
L 1147 4666 
z
M 2328 4666 
L 2328 2931 
L 1797 2931 
L 1797 4666 
L 2328 4666 
z
" id="DejaVuSans-22" transform="scale(0.015625)"/>
       <path d="M 313 2009 
L 1997 2009 
L 1997 1497 
L 313 1497 
L 313 2009 
z
" id="DejaVuSans-2d" transform="scale(0.015625)"/>
       <path d="M 3513 3500 
L 2247 1797 
L 3578 0 
L 2900 0 
L 1881 1375 
L 863 0 
L 184 0 
L 1544 1831 
L 300 3500 
L 978 3500 
L 1906 2253 
L 2834 3500 
L 3513 3500 
z
" id="DejaVuSans-78" transform="scale(0.015625)"/>
      </defs>
      <use xlink:href="#DejaVuSans-45"/>
      <use x="63.183594" xlink:href="#DejaVuSans-73"/>
      <use x="115.283203" xlink:href="#DejaVuSans-74"/>
      <use x="154.492188" xlink:href="#DejaVuSans-69"/>
      <use x="182.275391" xlink:href="#DejaVuSans-6d"/>
      <use x="279.6875" xlink:href="#DejaVuSans-61"/>
      <use x="340.966797" xlink:href="#DejaVuSans-74"/>
      <use x="380.175781" xlink:href="#DejaVuSans-65"/>
      <use x="441.699219" xlink:href="#DejaVuSans-64"/>
      <use x="505.175781" xlink:href="#DejaVuSans-20"/>
      <use x="536.962891" xlink:href="#DejaVuSans-66"/>
      <use x="572.167969" xlink:href="#DejaVuSans-65"/>
      <use x="633.691406" xlink:href="#DejaVuSans-65"/>
      <use x="695.214844" xlink:href="#DejaVuSans-20"/>
      <use x="727.001953" xlink:href="#DejaVuSans-66"/>
      <use x="762.207031" xlink:href="#DejaVuSans-6f"/>
      <use x="823.388672" xlink:href="#DejaVuSans-72"/>
      <use x="864.501953" xlink:href="#DejaVuSans-20"/>
      <use x="896.289062" xlink:href="#DejaVuSans-22"/>
      <use x="942.285156" xlink:href="#DejaVuSans-73"/>
      <use x="994.384766" xlink:href="#DejaVuSans-74"/>
      <use x="1033.59375" xlink:href="#DejaVuSans-61"/>
      <use x="1094.873047" xlink:href="#DejaVuSans-63"/>
      <use x="1149.853516" xlink:href="#DejaVuSans-6b"/>
      <use x="1207.763672" xlink:href="#DejaVuSans-2d"/>
      <use x="1243.847656" xlink:href="#DejaVuSans-73"/>
      <use x="1295.947266" xlink:href="#DejaVuSans-74"/>
      <use x="1335.15625" xlink:href="#DejaVuSans-78"/>
      <use x="1394.335938" xlink:href="#DejaVuSans-22"/>
     </g>
    </g>
   </g>
   <g id="line2d_17">
    <path clip-path="url(#pf76982b0ef)" d="M 76.625973 -1 
L 77.181712 187.47285 
L 77.378711 36.634665 
L 77.575711 168.140965 
L 77.672363 -1 
M 79.858483 -1 
L 79.9397 74.306401 
L 80.136699 39.101693 
L 80.530697 221.852257 
L 80.727696 264.199066 
L 80.924695 74.997773 
L 81.121695 39.447379 
L 81.225412 -1 
M 81.53541 -1 
L 81.909691 212.391506 
L 81.98154 -1 
M 83.659292 -1 
L 83.682683 20.719453 
L 83.879682 12.308219 
L 84.27368 224.717427 
L 84.348888 -1 
M 85.871065 -1 
L 86.046673 119.942318 
L 86.531485 -1 
M 86.690397 -1 
L 87.031668 201.130862 
L 87.228667 102.513924 
L 87.24307 -1 
M 89.265524 -1 
L 89.395658 101.54004 
L 89.592657 142.042565 
L 89.835536 -1 
M 91.854518 -1 
L 91.956646 53.283851 
L 91.992941 -1 
M 94.362728 -1 
L 94.517635 116.517477 
L 94.723765 -1 
M 99.854493 -1 
L 100.03361 124.64223 
L 100.230609 64.269608 
L 100.258094 -1 
M 101.289381 -1 
L 101.412604 104.862766 
L 101.603002 -1 
M 102.605419 -1 
L 102.791598 138.148734 
L 103.141798 -1 
M 104.264241 -1 
L 104.36759 85.16441 
L 104.480739 -1 
M 104.803632 -1 
L 104.958588 107.646154 
L 105.15154 -1 
M 105.427116 -1 
L 105.549585 93.881594 
L 105.629703 -1 
M 105.892133 -1 
L 106.140583 170.726993 
L 106.337582 87.311989 
L 106.534581 171.081002 
L 106.73158 87.488994 
L 106.928579 193.480848 
L 107.125578 39.638664 
L 107.322577 21.767825 
L 107.716575 253.068538 
L 108.06469 -1 
M 108.319784 -1 
L 108.504572 123.761677 
L 108.701571 63.829332 
L 108.89857 166.726227 
L 109.095569 85.311606 
L 109.292568 170.080811 
L 109.32676 -1 
M 110.165004 -1 
L 110.277564 60.752711 
L 110.41663 -1 
M 110.615224 -1 
L 110.671562 9.303644 
L 111.06556 193.655182 
L 111.354881 -1 
M 111.701646 -1 
L 111.853557 68.539093 
L 112.069367 -1 
M 112.306704 -1 
L 112.444554 124.301099 
L 112.838553 5.04879 
L 113.232551 179.220321 
L 113.249914 -1 
M 114.638998 -1 
L 114.611545 31.313267 
L 115.005543 144.040441 
L 115.202542 14.918461 
L 115.399541 152.081936 
L 115.414388 -1 
M 116.207362 -1 
L 116.384537 58.282432 
L 116.416715 -1 
M 118.345551 -1 
L 118.354528 12.171047 
L 118.945525 213.017892 
L 119.142524 234.892753 
L 119.296869 -1 
M 121.146763 -1 
L 121.506514 173.256853 
L 121.900512 249.8365 
L 122.097511 269.036224 
L 122.491509 11.131542 
L 122.688508 133.949579 
L 122.768069 -1 
M 125.176529 -1 
L 125.249497 79.238465 
L 125.378971 -1 
M 125.498319 -1 
L 125.840494 214.67648 
L 125.882645 -1 
M 129.994905 -1 
L 130.174475 134.034084 
L 130.18763 -1 
M 140.098302 -1 
L 140.22143 95.900864 
L 140.342572 -1 
M 142.72187 -1 
L 142.782418 69.251771 
L 142.933295 -1 
M 145.520882 -1 
L 145.540406 21.391453 
L 145.737405 109.204896 
L 145.93176 -1 
M 145.939422 -1 
L 146.131403 56.368463 
L 146.263917 -1 
M 146.40024 -1 
L 146.525402 47.640297 
L 146.554239 -1 
M 147.063087 -1 
L 147.116399 23.120274 
L 147.128741 -1 
M 150.829131 -1 
L 150.859382 36.561208 
L 150.957542 -1 
M 152.775617 -1 
L 152.829373 60.22969 
L 152.967675 -1 
M 153.073035 -1 
L 153.223372 82.723896 
L 153.39088 -1 
M 154.384287 -1 
L 154.405366 4.267375 
L 154.415247 -1 
M 155.310087 -1 
L 155.390362 77.958243 
L 155.410119 -1 
M 159.71503 -1 
L 159.921342 120.52265 
L 160.118341 62.209818 
L 160.182643 -1 
M 160.642069 -1 
L 160.906337 164.598582 
L 161.052132 -1 
M 161.225706 -1 
L 161.497335 131.235719 
L 161.694334 3.108567 
L 161.891333 140.137599 
L 161.953855 -1 
M 163.070133 -1 
L 163.073327 1.509132 
L 163.081871 -1 
M 163.340711 -1 
L 163.664325 180.796189 
L 163.861324 33.296335 
L 164.058323 18.59666 
L 164.255322 141.12223 
L 164.31838 -1 
M 169.727917 -1 
L 169.968297 142.420355 
L 170.165296 188.899142 
L 170.362295 37.347811 
L 170.756293 209.524108 
L 171.018009 -1 
M 172.493337 -1 
L 172.529285 19.512644 
L 172.53983 -1 
M 173.416903 -1 
L 173.514281 79.276922 
L 173.677754 -1 
M 173.734916 -1 
L 173.908279 119.753099 
L 174.105278 2.77479 
L 174.302277 124.688731 
L 174.540459 -1 
M 174.983988 -1 
L 175.090274 61.661384 
L 175.230657 -1 
M 175.583789 -1 
L 175.681271 66.820904 
L 175.828883 -1 
M 176.878336 -1 
L 177.060265 98.359003 
L 177.244433 -1 
M 179.136826 -1 
L 179.227255 75.825199 
L 179.424254 126.730286 
L 179.464077 -1 
M 185.131136 -1 
L 185.137229 7.352906 
L 185.164303 -1 
M 185.622255 -1 
L 185.925225 186.046282 
L 186.122224 94.971634 
L 186.319223 176.943922 
L 186.516222 31.370201 
L 186.713222 118.659327 
L 187.10722 75.014767 
L 187.140461 -1 
M 189.229965 -1 
L 189.471209 147.441493 
L 189.668208 75.669239 
L 189.69218 -1 
M 190.396956 -1 
L 190.456205 51.412828 
L 190.580894 -1 
M 191.999513 -1 
L 192.032198 30.399701 
L 192.035337 -1 
M 192.910297 -1 
L 193.017193 84.894147 
L 193.411192 198.402055 
L 193.214192 210.17196 
L 193.481641 -1 
M 194.940636 -1 
L 194.987184 38.686441 
L 195.089457 -1 
M 195.751523 -1 
L 195.775181 28.823519 
L 196.169179 207.608555 
L 196.252254 -1 
M 196.743999 -1 
L 196.760177 16.860731 
L 196.957459 -1 
M 198.476262 -1 
L 198.533169 42.840166 
L 198.643157 -1 
M 198.787538 -1 
L 198.927167 83.40909 
L 198.945286 -1 
M 199.913358 -1 
L 200.109162 86.858289 
L 200.281328 -1 
M 200.342376 -1 
L 200.700159 130.605603 
L 200.997053 -1 
M 201.152311 -1 
L 201.291156 88.23673 
L 201.094157 151.543263 
L 201.529323 -1 
M 204.412754 -1 
L 204.443142 24.996164 
L 204.516723 -1 
M 205.912623 -1 
L 206.019135 89.459277 
L 206.216134 46.678131 
L 206.206978 -1 
M 208.363436 -1 
L 208.383124 18.957054 
L 208.442174 -1 
M 210.156274 -1 
L 210.353116 104.582003 
L 210.543252 -1 
M 217.297467 -1 
L 217.445084 122.969873 
L 217.643258 -1 
M 218.789126 -1 
L 219.021077 133.353677 
L 219.218076 101.549649 
L 219.405347 -1 
M 219.423747 -1 
L 219.612074 114.680732 
L 219.813337 -1 
M 220.053035 -1 
L 220.203071 177.850697 
L 220.281891 -1 
M 220.746628 -1 
L 220.794069 15.36622 
L 220.823277 -1 
M 223.345532 -1 
L 223.355057 30.270658 
L 223.356493 -1 
M 231.714828 -1 
L 231.826019 88.693624 
L 232.000192 -1 
M 232.038481 -1 
L 232.220018 137.008584 
L 232.614016 11.402532 
L 232.811015 134.085073 
L 232.822932 -1 
M 234.893157 -1 
L 234.978005 48.152521 
L 235.097286 -1 
M 237.52958 -1 
L 237.538994 5.37895 
L 237.517977 -1 
M 239.49872 -1 
L 239.508985 7.216222 
L 239.535646 -1 
M 240.090218 -1 
L 240.099982 9.242149 
L 240.132672 -1 
M 240.371779 -1 
L 240.493981 83.10736 
L 240.469086 -1 
M 242.587847 -1 
L 242.660971 47.026415 
L 242.675316 -1 
M 254.824179 -1 
L 254.874916 34.694318 
L 254.969367 -1 
M 256.447496 -1 
L 256.450909 3.642538 
L 256.466431 -1 
M 259.364918 -1 
L 259.405896 38.687522 
L 259.50817 -1 
M 259.667988 -1 
L 259.996893 127.259253 
L 260.142562 -1 
M 263.79249 -1 
L 263.936876 32.576023 
L 264.133875 148.669478 
L 264.330874 17.232979 
L 264.527873 90.459149 
L 264.724872 47.178067 
L 264.735141 -1 
M 269.0379 -1 
L 269.058853 19.818708 
L 269.120055 -1 
M 272.417602 -1 
L 272.604837 132.152663 
L 272.801836 68.024824 
L 272.998835 137.991306 
L 273.195834 70.944146 
L 273.392833 87.685351 
L 273.786831 46.996276 
L 273.983831 92.493382 
L 274.003281 -1 
M 275.719881 -1 
L 275.756823 47.321702 
L 275.953822 140.152072 
L 276.150821 178.997023 
L 275.953822 205.989732 
L 276.34782 104.943359 
L 276.538293 -1 
M 281.521581 -1 
L 281.666796 70.28393 
L 281.469797 118.636045 
L 281.87468 -1 
M 282.181041 -1 
L 282.257793 34.102246 
L 282.267908 -1 
M 289.194759 -1 
L 289.349762 125.276878 
L 289.546761 152.245382 
L 289.748093 -1 
M 290.636561 -1 
L 290.728756 92.87179 
L 290.737995 -1 
M 292.590519 -1 
L 292.698747 121.976316 
L 292.896812 -1 
M 294.01592 -1 
L 294.077741 58.24611 
L 294.087545 -1 
M 298.79418 -1 
L 298.805719 10.473158 
L 298.850388 -1 
M 299.729453 -1 
L 299.987714 159.579226 
L 300.184713 22.687853 
L 300.381712 151.731662 
L 300.398027 -1 
M 313.284607 -1 
L 313.383654 87.335349 
L 313.396501 -1 
M 314.938614 -1 
L 315.156646 144.881043 
L 315.353645 15.338762 
L 315.550644 144.175007 
L 315.747643 195.47495 
L 315.752262 -1 
M 318.805303 -1 
L 318.70263 77.578265 
L 318.864062 -1 
M 321.420152 -1 
L 321.657617 143.422958 
L 321.854616 200.094592 
L 321.923044 -1 
M 323.042655 -1 
L 323.23361 172.539412 
L 323.430609 88.218199 
L 323.627608 99.547159 
L 323.812943 -1 
M 323.849461 -1 
L 324.415605 164.237637 
L 324.612604 25.017059 
L 325.006602 161.018334 
L 325.203601 23.407407 
L 325.4006 125.461741 
L 325.597599 5.629111 
L 325.794598 141.824282 
L 325.855276 -1 
M 327.731047 -1 
L 327.76459 51.317862 
L 328.158588 173.43341 
L 328.355587 88.665198 
L 328.552586 84.241969 
L 328.749585 159.965184 
L 328.973623 -1 
M 330.640298 -1 
L 330.916575 132.508382 
L 331.263053 -1 
M 331.605018 -1 
L 331.901571 135.601178 
L 332.09857 131.850563 
L 332.295569 200.125251 
L 332.50196 -1 
M 333.936547 -1 
L 334.068561 107.585531 
L 334.073756 -1 
M 334.809608 -1 
L 334.856558 102.71858 
L 335.044943 -1 
M 335.334783 -1 
L 335.447555 77.959033 
L 335.644554 16.360763 
L 335.841553 10.128875 
L 335.87682 -1 
M 336.746449 -1 
L 336.826549 53.030556 
L 336.911412 -1 
M 337.110847 -1 
L 337.220547 88.714996 
L 337.238778 -1 
M 338.295316 -1 
L 338.402542 102.662907 
L 338.41272 -1 
M 339.189182 -1 
L 339.190538 2.200087 
L 339.584537 205.065565 
L 339.781536 129.788527 
L 339.978535 126.993324 
L 340.175534 202.506389 
L 340.372533 183.628181 
L 340.569532 223.637991 
L 340.766531 217.316324 
L 340.96353 51.556402 
L 341.357529 235.64655 
L 341.554528 60.721515 
L 341.751527 155.063963 
L 342.145525 41.68873 
L 342.342524 146.328478 
L 342.539523 75.112732 
L 342.736523 184.84862 
L 342.933522 182.031253 
L 342.982585 -1 
M 344.060239 -1 
L 344.312515 140.339019 
L 344.342033 -1 
M 347.453429 -1 
L 347.464501 12.661414 
L 347.6615 8.2792 
L 347.666769 -1 
M 348.919784 -1 
L 349.040494 78.372058 
L 349.044305 -1 
M 350.215529 -1 
L 350.419488 144.653512 
L 350.616487 215.413489 
L 350.813486 50.604985 
L 351.010485 133.009254 
L 351.023544 -1 
M 352.700155 -1 
L 352.783477 73.767074 
L 352.980477 38.83203 
L 352.992156 -1 
M 353.565087 -1 
L 353.571474 5.627676 
L 353.572428 -1 
M 355.861607 -1 
L 355.935463 80.284816 
L 356.100132 -1 
M 356.153598 -1 
L 356.329462 131.793493 
L 356.531566 -1 
M 358.232472 -1 
L 358.299453 54.032684 
L 358.428336 -1 
M 360.038108 -1 
L 360.269444 161.46129 
L 360.466443 23.628885 
L 360.647906 -1 
M 363.543415 -1 
L 363.618429 92.181026 
L 363.815428 170.992957 
L 364.012427 127.556143 
L 364.038134 -1 
M 365.763179 -1 
L 365.785419 39.353857 
L 365.789445 -1 
M 366.649087 -1 
L 366.967414 175.531537 
L 367.361412 212.799529 
L 367.403235 -1 
M 368.103117 -1 
L 368.149409 56.155362 
L 368.281595 -1 
M 368.390179 -1 
L 368.740406 163.288204 
L 368.937405 214.346726 
L 369.047233 -1 
M 369.293048 -1 
L 369.528402 141.763027 
L 369.725402 189.078074 
L 369.922401 184.474546 
L 370.137606 -1 
M 370.581005 -1 
L 370.710397 100.958094 
L 370.907396 98.191761 
L 370.917146 -1 
M 379.352819 -1 
L 379.575357 149.449485 
L 379.772357 17.622983 
L 380.166355 171.467896 
L 380.363354 28.632188 
L 380.560353 61.672182 
L 380.700752 -1 
M 380.788393 -1 
L 380.954351 134.07928 
L 381.15135 195.423447 
L 381.34835 40.609964 
L 381.545349 146.472008 
L 381.585678 -1 
M 385.234326 -1 
L 385.485331 139.98973 
L 385.879329 216.511518 
L 386.076328 110.204252 
L 386.470327 224.138659 
L 386.667326 54.96757 
L 386.864325 29.432278 
L 386.874014 -1 
M 388.22192 -1 
L 388.243319 17.079784 
L 388.440318 10.488385 
L 388.442945 -1 
M 389.147072 -1 
L 389.228314 112.182112 
L 389.425313 148.097775 
L 389.819312 39.947183 
L 390.028628 -1 
M 392.257399 -1 
L 392.3803 53.588478 
L 392.508481 -1 
M 392.887346 -1 
L 392.971297 73.956841 
L 393.168297 38.926913 
L 393.271027 -1 
L 393.271027 -1 
" style="fill:none;stroke:#1f77b4;stroke-linecap:square;stroke-width:1.5;"/>
   </g>
   <g id="line2d_18">
    <path clip-path="url(#pf76982b0ef)" d="M 73.832727 296.302355 
L 74.029726 298.897038 
L 73.832727 298.897038 
L 74.226726 301.721275 
L 74.423725 298.897038 
L 74.620724 298.009706 
L 74.817723 298.009706 
L 75.014722 292.217484 
L 75.211721 291.431416 
L 75.40872 285.729724 
L 75.211721 285.729724 
L 75.605719 285.729724 
L 75.802718 284.676065 
L 75.999718 286.089669 
L 76.196717 296.536106 
L 76.393716 299.730892 
L 76.590715 299.730892 
L 76.787714 295.774842 
L 76.984713 295.310282 
L 77.181712 295.310282 
L 77.378711 295.774842 
L 77.575711 299.855246 
L 77.77271 301.469994 
L 77.969709 301.469994 
L 78.166708 302.877637 
L 78.560706 302.879973 
L 78.757705 297.671556 
L 78.954704 276.768134 
L 79.151703 274.1088 
L 79.348703 274.1088 
L 79.545702 276.768134 
L 79.742701 301.267732 
L 79.9397 301.267732 
L 80.136699 302.238663 
L 80.333698 302.238663 
L 80.530697 302.685097 
L 80.727696 302.778259 
L 80.924695 305.017633 
L 81.121695 302.778259 
L 81.318694 302.685097 
L 81.515693 303.380974 
L 81.712692 299.64432 
L 81.909691 301.004607 
L 82.10669 299.417246 
L 82.303689 298.943472 
L 82.500688 298.943472 
L 82.697688 299.417246 
L 83.091686 256.767615 
L 83.288685 281.321323 
L 83.485684 256.767615 
L 83.879682 284.813344 
L 84.076681 268.137237 
L 84.27368 268.137237 
L 84.47068 287.178892 
L 84.667679 287.178892 
L 84.864678 290.8934 
L 85.061677 290.8934 
L 85.258676 296.047153 
L 85.455675 296.047153 
L 85.652674 293.320194 
L 86.243672 293.320194 
L 86.440671 295.936926 
L 86.63767 301.144351 
L 86.834669 301.240434 
L 87.031668 301.534899 
L 87.228667 301.534899 
L 87.425666 301.240434 
L 87.622665 295.518785 
L 87.819665 295.518785 
L 88.016664 292.076949 
L 88.213663 295.518785 
L 88.410662 288.833083 
L 88.607661 288.680643 
L 88.80466 294.33791 
L 89.395658 294.433793 
L 89.592657 295.513893 
L 89.789656 295.513893 
L 90.183654 291.323088 
L 90.380653 291.323088 
L 90.577652 295.975549 
L 90.97165 295.975549 
L 91.16865 285.729724 
L 91.562648 281.093513 
L 91.759647 283.23886 
L 91.956646 283.23886 
L 92.153645 271.031322 
L 92.350644 267.51273 
L 92.744643 267.51273 
L 92.941642 283.431528 
L 93.33564 283.431528 
L 93.532639 294.079245 
L 93.729638 294.079245 
L 93.926637 278.071171 
L 94.123636 290.277902 
L 94.320635 285.959389 
L 94.517635 289.707968 
L 94.714634 289.707968 
L 94.911633 287.243167 
L 95.305631 287.243167 
L 95.699629 296.769518 
L 95.896628 296.769518 
L 96.093628 299.801464 
L 96.290627 293.573145 
L 96.487626 293.717848 
L 96.684625 293.573145 
L 96.881624 282.772969 
L 97.275622 282.772969 
L 97.472621 286.290534 
L 97.66962 286.290534 
L 97.86662 271.850241 
L 98.063619 296.74956 
L 98.260618 293.129622 
L 98.457617 293.129622 
L 98.851615 299.780418 
L 99.048614 298.552972 
L 99.836611 298.552972 
L 100.03361 293.234981 
L 100.230609 301.522279 
L 100.427608 301.522279 
L 100.230609 301.522279 
L 100.624607 302.041188 
L 100.427608 302.041188 
L 100.821606 268.143831 
L 101.018605 274.054276 
L 101.412604 274.054276 
L 101.609603 274.891515 
L 101.806602 299.595313 
L 102.003601 289.245412 
L 102.2006 289.245412 
L 102.397599 297.294281 
L 102.2006 297.294281 
L 102.988597 297.294281 
L 103.185596 285.989333 
L 103.382595 285.384657 
L 103.579594 273.14024 
L 103.973592 273.14024 
L 104.170591 283.258432 
L 104.36759 285.729724 
L 104.56459 289.920276 
L 104.761589 289.920276 
L 105.155587 301.024795 
L 105.352586 297.97746 
L 105.549585 297.97746 
L 105.746584 263.362109 
L 106.337582 263.362109 
L 106.928579 302.332724 
L 107.125578 291.963833 
L 107.519576 291.963833 
L 107.716575 274.85769 
L 107.913575 294.722517 
L 108.307573 294.722517 
L 108.504572 296.775233 
L 108.701571 294.722517 
L 108.89857 296.775233 
L 109.292568 296.775233 
L 109.489568 280.894142 
L 109.686567 298.628274 
L 110.080565 298.628274 
L 109.883566 298.628274 
L 110.474563 277.789744 
L 110.671562 281.351965 
L 110.868561 281.351965 
L 111.26256 289.364646 
L 111.656558 295.097901 
L 112.050556 295.097901 
L 112.247555 296.476708 
L 112.444554 296.976864 
L 112.838553 296.976864 
L 113.035552 296.476708 
L 113.232551 271.545586 
L 113.42955 270.906824 
L 113.823548 270.906824 
L 114.020547 261.73753 
L 114.217546 261.73753 
L 114.414545 283.104057 
L 114.611545 283.104057 
L 114.808544 283.763191 
L 114.611545 283.104057 
L 115.005543 283.763191 
L 115.399541 283.763191 
L 115.59654 297.004045 
L 115.793539 283.586446 
L 116.384537 283.586446 
L 116.581536 284.790113 
L 116.778535 280.863495 
L 116.975534 203.288769 
L 117.172533 203.288769 
L 117.369532 206.539863 
L 117.566531 206.539863 
L 117.76353 256.767615 
L 117.96053 257.206298 
L 118.157529 289.202665 
L 118.551527 300.435059 
L 118.748526 300.435059 
L 118.945525 296.393594 
L 119.142524 300.435059 
L 119.339523 295.834399 
L 119.536523 295.532928 
L 119.733522 294.292376 
L 119.930521 294.292376 
L 120.324519 286.845049 
L 120.521518 286.607526 
L 120.718517 286.845049 
L 120.521518 286.845049 
L 120.915516 286.845049 
L 121.112515 298.99874 
L 121.900512 299.029312 
L 122.097511 301.099645 
L 122.29451 301.099645 
L 122.885508 295.103806 
L 123.082507 294.13176 
L 123.279506 294.13176 
L 123.476505 292.397033 
L 123.673504 292.397033 
L 123.870503 297.525327 
L 124.067502 299.094856 
L 124.264501 297.525327 
L 124.4615 299.094856 
L 124.6585 289.416659 
L 124.855499 289.416659 
L 125.052498 296.285152 
L 125.446496 296.285152 
L 125.643495 296.609418 
L 125.840494 296.609418 
L 126.037493 289.679747 
L 126.234492 294.537536 
L 126.431492 285.270415 
L 126.628491 284.862655 
L 126.82549 284.862655 
L 127.022489 285.270415 
L 127.219488 285.270415 
L 127.416487 292.765803 
L 127.613486 292.765803 
L 127.810485 297.160381 
L 128.007485 292.765803 
L 127.613486 283.02281 
L 128.204484 281.540073 
L 128.401483 281.696185 
L 128.598482 281.540073 
L 128.795481 272.863758 
L 128.99248 272.863758 
L 129.189479 270.982897 
L 129.386478 270.982897 
L 129.583477 285.029465 
L 129.780477 285.029465 
L 129.977476 283.698697 
L 130.371474 283.698697 
L 130.568473 218.222237 
L 130.765472 287.237886 
L 131.35647 287.237886 
L 131.553469 291.150448 
L 131.750468 291.150448 
L 131.947467 290.30811 
L 132.144466 293.149467 
L 132.341465 290.30811 
L 132.735463 290.30811 
L 132.932462 218.977547 
L 133.129462 47.027152 
L 133.326461 218.977547 
L 133.52346 236.527212 
L 133.720459 236.527212 
L 133.917458 240.906256 
L 134.114457 287.103717 
L 134.311456 290.461739 
L 134.705455 290.461739 
L 134.902454 274.958955 
L 135.296452 274.958955 
L 135.69045 298.515526 
L 135.887449 298.515526 
L 136.084448 289.747548 
L 136.675446 289.747548 
L 136.872445 290.414845 
L 137.266443 290.414845 
L 137.463442 291.027321 
L 137.660441 294.989781 
L 138.05444 294.989781 
L 138.251439 276.275117 
L 138.448438 276.275117 
L 138.645437 288.247507 
L 138.842436 290.89854 
L 139.039435 290.89854 
L 139.236434 288.247507 
L 139.433433 287.288972 
L 139.630432 268.856676 
L 139.827432 268.856676 
L 140.024431 287.288972 
L 140.22143 288.620664 
L 140.418429 300.169326 
L 140.812427 300.169326 
L 141.206425 289.178196 
L 141.600424 282.772969 
L 141.797423 282.772969 
L 141.994422 282.650647 
L 142.191421 282.772969 
L 142.38842 289.139636 
L 142.585419 289.68607 
L 142.782418 299.503144 
L 142.979417 299.503144 
L 143.176417 292.753196 
L 143.373416 299.503144 
L 143.767414 287.522111 
L 144.161412 287.522111 
L 144.358411 285.380847 
L 144.55541 285.380847 
L 144.75241 288.384586 
L 144.949409 288.384586 
L 145.146408 285.380847 
L 145.343407 297.422609 
L 145.540406 296.19146 
L 145.737405 284.176719 
L 145.934404 284.176719 
L 146.328402 273.812458 
L 146.9194 273.812458 
L 146.722401 237.338682 
L 147.116399 237.338682 
L 147.313398 222.544819 
L 147.510397 43.97993 
L 146.9194 43.97993 
L 148.101395 43.97993 
L 148.298394 216.423083 
L 148.495393 216.423083 
L 148.692392 234.672301 
L 148.889391 234.672301 
L 149.08639 265.526522 
L 149.283389 274.1088 
L 149.480388 274.975739 
L 149.677387 281.005363 
L 149.874387 281.005363 
L 150.071386 292.995209 
L 150.465384 292.995209 
L 150.662383 282.969907 
L 151.056381 282.969907 
L 151.45038 293.038363 
L 151.647379 293.038363 
L 152.041377 284.8921 
L 152.435375 281.47107 
L 152.632374 281.47107 
L 152.829373 282.59443 
L 153.026372 281.47107 
L 153.223372 281.47107 
L 153.420371 285.143035 
L 153.61737 286.319201 
L 153.814369 286.319201 
L 154.011368 287.967825 
L 154.208367 287.967825 
L 154.405366 275.533446 
L 154.602365 273.491455 
L 154.799365 208.071054 
L 155.193363 208.071054 
L 155.78436 265.058541 
L 156.178358 243.288538 
L 156.375357 256.141786 
L 156.572357 256.141786 
L 156.769356 254.059319 
L 156.966355 243.288538 
L 157.163354 239.251703 
L 157.360353 239.251703 
L 157.754351 271.65059 
L 157.95135 271.65059 
L 158.542348 265.395166 
L 158.14835 255.689944 
L 158.739347 255.689944 
L 158.936346 259.153293 
L 159.133345 259.153293 
L 159.330344 262.051694 
L 159.527343 262.051694 
L 159.724342 267.516835 
L 159.921342 267.516835 
L 160.118341 279.099857 
L 160.512339 282.153486 
L 160.709338 282.153486 
L 160.906337 291.295282 
L 161.300335 291.295282 
L 161.497335 283.513594 
L 161.694334 282.149008 
L 161.891333 280.000938 
L 162.088332 280.000938 
L 162.285331 268.316324 
L 162.48233 244.063829 
L 162.285331 229.674083 
L 162.679329 229.674083 
L 162.876328 244.063829 
L 163.073327 209.052693 
L 163.270327 251.809946 
L 163.467326 251.809946 
L 163.664325 273.806394 
L 164.255322 273.806394 
L 164.452321 281.775301 
L 164.64932 281.775301 
L 164.84632 282.298466 
L 165.043319 282.298466 
L 164.64932 281.273115 
L 165.240318 263.358416 
L 165.437317 248.577612 
L 165.634316 248.577612 
L 165.831315 262.890728 
L 166.028314 263.358416 
L 166.422312 276.473036 
L 166.619312 281.035569 
L 166.816311 291.706213 
L 167.01331 291.706213 
L 167.210309 287.305754 
L 167.407308 287.305754 
L 167.604307 286.134959 
L 167.801306 286.986412 
L 167.998305 286.134959 
L 168.195305 286.134959 
L 168.392304 290.932918 
L 168.589303 290.932918 
L 168.786302 292.699312 
L 168.983301 281.507823 
L 169.1803 278.917251 
L 169.377299 278.099475 
L 169.574298 278.917251 
L 169.771297 277.22449 
L 169.968297 279.834821 
L 170.165296 277.383373 
L 170.362295 279.781617 
L 171.150291 279.781617 
L 171.34729 281.877473 
L 171.544289 281.877473 
L 171.741289 283.38124 
L 171.938288 281.877473 
L 172.135287 281.877473 
L 172.332286 273.641528 
L 172.726284 250.858073 
L 172.923283 259.24025 
L 173.120282 259.24025 
L 173.317282 288.221873 
L 173.71128 288.221873 
L 173.908279 283.8037 
L 174.105278 282.8618 
L 174.302277 280.73452 
L 174.499276 280.556925 
L 174.893274 280.556925 
L 175.090274 276.676544 
L 175.287273 289.431035 
L 175.484272 289.431035 
L 175.681271 288.508192 
L 175.87827 268.835808 
L 176.075269 272.778018 
L 175.87827 272.778018 
L 176.272268 272.778018 
L 176.469267 275.530701 
L 176.863266 275.530701 
L 177.060265 281.193769 
L 177.257264 275.147102 
L 177.454263 275.147102 
L 177.651262 290.468539 
L 177.848261 290.468539 
L 178.04526 283.43586 
L 178.242259 285.108151 
L 178.439259 283.43586 
L 178.636258 278.68499 
L 178.833257 278.68499 
L 179.030256 286.183595 
L 179.621253 286.183595 
L 179.818252 284.938876 
L 180.015252 284.938876 
L 180.40925 287.534545 
L 180.606249 286.560814 
L 181.000247 286.560814 
L 181.197246 279.228172 
L 181.394245 277.132535 
L 181.788244 277.132535 
L 181.985243 242.314933 
L 182.182242 278.542497 
L 182.773239 278.542497 
L 182.970238 280.350835 
L 183.167237 260.085522 
L 183.364237 270.367454 
L 183.561236 270.367454 
L 183.758235 260.085522 
L 183.955234 260.085522 
L 184.546231 285.70287 
L 184.74323 285.70287 
L 184.940229 283.41082 
L 185.137229 283.41082 
L 185.925225 291.289714 
L 186.122224 289.192102 
L 186.319223 285.767404 
L 186.516222 285.220276 
L 186.713222 285.767404 
L 187.10722 285.767404 
L 187.304219 285.220276 
L 187.895216 285.212723 
L 188.092215 289.754105 
L 188.289214 290.003261 
L 188.486214 290.003261 
L 188.683213 289.754105 
L 188.880212 286.834755 
L 189.077211 285.767404 
L 189.471209 285.767404 
L 189.668208 281.551832 
L 189.865207 281.551832 
L 190.062207 280.546338 
L 189.865207 276.559961 
L 190.456205 276.559961 
L 190.653204 280.501742 
L 190.850203 280.548517 
L 191.047202 281.99348 
L 191.835199 281.99348 
L 192.032198 287.705414 
L 192.229197 287.705414 
L 192.426196 286.488503 
L 192.623195 286.488503 
L 192.820194 287.705414 
L 193.017193 294.127291 
L 193.214192 294.127291 
L 193.411192 296.543599 
L 193.214192 296.543599 
L 193.608191 294.127291 
L 193.80519 293.933798 
L 194.002189 262.633033 
L 194.199188 259.620805 
L 194.593186 259.620805 
L 194.987184 254.850015 
L 195.184184 280.411246 
L 195.381183 274.409676 
L 195.578182 274.409676 
L 196.169179 289.192102 
L 196.563177 289.192102 
L 196.957176 266.633755 
L 197.154175 259.627089 
L 197.351174 258.309511 
L 197.548173 259.627089 
L 197.745172 255.997088 
L 197.942171 259.627089 
L 198.13917 271.573867 
L 198.336169 274.311446 
L 198.730168 274.311446 
L 198.927167 273.735021 
L 199.124166 274.311446 
L 199.321165 275.949936 
L 199.518164 273.735021 
L 199.715163 273.735021 
L 199.912162 278.375816 
L 200.109162 279.170553 
L 200.306161 271.597763 
L 200.50316 275.319631 
L 200.700159 287.991557 
L 200.897158 285.129052 
L 201.094157 285.129052 
L 201.291156 287.991557 
L 201.094157 288.409334 
L 201.488155 285.129052 
L 201.685154 277.420455 
L 201.882154 277.420455 
L 202.276152 261.056674 
L 202.473151 270.367454 
L 202.67015 270.367454 
L 202.867149 275.848644 
L 203.064148 275.848644 
L 203.261147 278.019454 
L 203.458147 278.019454 
L 203.655146 272.671686 
L 203.852145 272.227402 
L 204.049144 272.671686 
L 204.246143 272.671686 
L 204.443142 287.108637 
L 204.640141 292.79488 
L 204.83714 292.79488 
L 205.034139 288.761685 
L 205.231139 296.771233 
L 205.625137 277.159494 
L 205.822136 284.028165 
L 206.019135 283.471259 
L 206.610132 283.471259 
L 206.807132 278.096065 
L 207.004131 278.096065 
L 207.20113 276.52059 
L 207.398129 276.52059 
L 207.595128 279.512709 
L 207.792127 285.99923 
L 207.989126 288.544984 
L 208.186125 288.544984 
L 208.383124 286.190916 
L 208.580124 285.99923 
L 208.777123 276.770252 
L 208.974122 274.971563 
L 209.171121 260.35759 
L 209.565119 260.35759 
L 209.762118 272.104693 
L 209.959117 272.104693 
L 210.156117 296.217157 
L 210.353116 296.217157 
L 210.550115 279.635273 
L 210.747114 279.224033 
L 210.944113 279.224033 
L 211.141112 276.397828 
L 211.338111 278.927787 
L 211.53511 278.927787 
L 211.732109 266.81168 
L 211.929109 278.927787 
L 212.126108 278.927787 
L 212.323107 287.528369 
L 212.520106 266.81168 
L 212.717105 287.528369 
L 212.914104 277.472894 
L 213.111103 277.472894 
L 213.308102 282.225714 
L 213.702101 282.225714 
L 213.8991 280.546338 
L 214.293098 292.220183 
L 214.490097 292.220183 
L 214.884095 278.718207 
L 215.081094 278.453526 
L 215.278094 278.453526 
L 215.081094 278.453526 
L 215.475093 282.779992 
L 215.672092 282.779992 
L 215.869091 285.097366 
L 216.06609 282.779992 
L 216.263089 282.779992 
L 216.460088 284.373546 
L 216.657087 287.213137 
L 216.854086 291.7854 
L 217.051086 291.7854 
L 217.248085 284.373546 
L 217.445084 290.012363 
L 217.642083 279.653331 
L 218.036081 279.653331 
L 218.23308 282.404001 
L 218.430079 265.266064 
L 218.627079 282.404001 
L 218.824078 258.53894 
L 219.021077 258.53894 
L 219.218076 274.345757 
L 219.809073 274.345757 
L 220.006072 275.949936 
L 220.400071 266.700463 
L 220.59707 271.194782 
L 220.794069 266.700463 
L 220.991068 255.044106 
L 221.188067 254.850015 
L 221.385066 255.044106 
L 221.582065 254.850015 
L 221.779064 254.850015 
L 221.582065 254.850015 
L 221.976064 264.553911 
L 222.173063 247.562524 
L 222.370062 264.553911 
L 222.567061 264.553911 
L 222.961059 274.971563 
L 223.158058 286.424958 
L 223.355057 286.424958 
L 223.552056 286.859619 
L 223.749056 286.859619 
L 223.946055 285.500861 
L 224.143054 288.20067 
L 224.340053 288.20067 
L 224.537052 286.481513 
L 224.734051 260.265422 
L 224.93105 286.481513 
L 224.734051 260.265422 
L 225.128049 256.767615 
L 225.719047 256.767615 
L 225.916046 258.989115 
L 225.719047 266.155957 
L 226.310044 266.155957 
L 226.507043 243.824015 
L 226.901041 243.824015 
L 227.098041 251.155552 
L 227.886037 251.155552 
L 228.083036 244.886301 
L 228.280035 276.935979 
L 228.477034 276.935979 
L 228.674034 244.886301 
L 228.871033 244.886301 
L 229.068032 222.725412 
L 229.265031 216.027989 
L 229.46203 222.725412 
L 229.659029 248.406021 
L 229.856028 256.767615 
L 230.053027 256.767615 
L 230.250026 266.535889 
L 231.038023 266.535889 
L 231.235022 276.653123 
L 231.432021 259.102912 
L 231.62902 254.850015 
L 231.826019 259.102912 
L 232.023019 259.102912 
L 232.220018 273.286946 
L 232.417017 277.931073 
L 232.614016 277.931073 
L 233.008014 298.780174 
L 233.205013 298.780174 
L 233.402012 280.97871 
L 233.599011 280.97871 
L 233.796011 277.832206 
L 234.190009 249.102961 
L 234.387008 243.245316 
L 234.584007 243.245316 
L 234.781006 249.102961 
L 234.978005 298.218251 
L 235.175004 298.218251 
L 235.372004 294.65058 
L 235.569003 255.423901 
L 235.766002 254.850015 
L 236.16 254.850015 
L 236.356999 255.423901 
L 236.553998 246.047548 
L 236.750997 260.787246 
L 236.947996 263.524392 
L 237.144996 270.978929 
L 237.538994 270.978929 
L 237.341995 259.432883 
L 237.735993 256.802765 
L 237.932992 256.802765 
L 238.129991 255.954755 
L 238.32699 256.802765 
L 238.523989 281.361897 
L 239.705984 281.463594 
L 239.902983 282.344935 
L 240.099982 282.344935 
L 240.296981 276.079347 
L 240.493981 282.344935 
L 239.902983 282.344935 
L 240.69098 276.079347 
L 240.887979 280.977924 
L 241.084978 298.201004 
L 241.281977 280.977924 
L 241.478976 275.336807 
L 242.069974 275.336807 
L 242.266973 276.221952 
L 243.054969 293.115622 
L 243.251968 289.192102 
L 243.448967 307.519466 
L 243.842966 285.789392 
L 244.039965 290.454179 
L 244.236964 285.789392 
L 244.630962 285.789392 
L 244.827961 284.989622 
L 245.02496 281.475023 
L 245.221959 272.420676 
L 245.615958 272.420676 
L 245.812957 276.432685 
L 246.009956 276.432685 
L 246.206955 276.787623 
L 246.403954 276.787623 
L 246.797952 280.898201 
L 247.191951 272.436554 
L 247.38895 280.546338 
L 247.585949 280.546338 
L 247.979947 262.395295 
L 248.176946 280.546338 
L 248.373945 262.395295 
L 248.570944 262.395295 
L 248.767944 273.7641 
L 248.964943 276.813801 
L 249.161942 273.7641 
L 249.55594 278.311706 
L 249.752939 280.735095 
L 249.949938 278.311706 
L 250.146937 278.311706 
L 250.343936 264.154021 
L 250.540936 138.868992 
L 250.737935 138.868992 
L 250.934934 109.8711 
L 251.328932 261.631886 
L 251.525931 261.631886 
L 251.72293 264.280149 
L 251.919929 264.280149 
L 252.116929 280.178473 
L 252.313928 275.317561 
L 252.510927 278.392513 
L 252.707926 275.317561 
L 252.904925 275.317561 
L 253.101924 270.800205 
L 253.298923 270.800205 
L 252.904925 262.336579 
L 253.495922 262.336579 
L 253.692921 286.504989 
L 254.283919 286.504989 
L 254.480918 262.903051 
L 254.677917 262.137884 
L 255.071915 262.137884 
L 255.268914 266.525807 
L 255.465914 266.525807 
L 255.662913 268.321032 
L 255.859912 266.525807 
L 256.056911 266.525807 
L 256.25391 269.47067 
L 256.450909 270.402272 
L 256.844907 270.402272 
L 257.041906 277.387541 
L 257.238906 277.387541 
L 257.435905 278.133904 
L 257.632904 281.765303 
L 258.223901 281.765303 
L 258.4209 274.1088 
L 258.617899 277.642865 
L 259.011898 277.642865 
L 259.208897 277.981906 
L 259.405896 284.335432 
L 259.602895 277.981906 
L 259.996893 277.981906 
L 260.193892 277.120291 
L 259.996893 277.120291 
L 260.390891 269.064148 
L 260.78489 269.064148 
L 260.981889 284.057806 
L 261.178888 282.468055 
L 260.981889 282.468055 
L 261.375887 282.468055 
L 261.572886 271.6362 
L 261.769885 267.576089 
L 262.163883 267.576089 
L 261.769885 271.619048 
L 262.360883 285.30746 
L 262.754881 264.580085 
L 263.148879 264.580085 
L 263.345878 287.389697 
L 263.542877 287.389697 
L 263.739876 288.044504 
L 263.936876 287.389697 
L 263.542877 288.044504 
L 263.936876 282.089983 
L 264.133875 285.918403 
L 264.330874 271.420644 
L 264.527873 285.918403 
L 264.724872 266.048469 
L 264.921871 285.918403 
L 266.300865 285.862689 
L 266.497864 278.174359 
L 266.694863 278.174359 
L 266.891862 276.953955 
L 267.088861 276.953955 
L 267.285861 283.107699 
L 267.48286 283.107699 
L 267.679859 290.336398 
L 267.876858 283.107699 
L 268.073857 290.336398 
L 268.270856 280.525024 
L 268.467855 285.354079 
L 268.664854 278.489233 
L 268.861853 285.354079 
L 269.058853 285.354079 
L 269.452851 277.876832 
L 269.64985 265.856859 
L 269.846849 265.856859 
L 270.043848 277.876832 
L 270.240847 276.871317 
L 270.437846 276.871317 
L 270.634846 284.15136 
L 270.831845 284.15136 
L 271.028844 276.871317 
L 271.225843 279.861384 
L 271.619841 279.861384 
L 271.81684 276.086367 
L 272.013839 279.861384 
L 272.210838 291.596402 
L 272.407838 292.155373 
L 272.604837 291.596402 
L 272.801836 291.494389 
L 272.998835 291.056891 
L 273.195834 291.056891 
L 273.392833 289.148392 
L 273.589832 304.260306 
L 273.786831 307.579782 
L 273.983831 307.579782 
L 274.377829 283.669492 
L 274.574828 283.06147 
L 274.771827 283.06147 
L 274.968826 283.669492 
L 275.165825 283.669492 
L 275.362824 283.06147 
L 275.559823 285.873157 
L 275.756823 297.574137 
L 275.953822 299.467088 
L 276.150821 297.574137 
L 275.953822 297.574137 
L 276.34782 280.464748 
L 276.544819 280.464748 
L 276.741818 269.47067 
L 276.938817 273.57952 
L 277.135816 280.084042 
L 277.332816 273.57952 
L 277.529815 273.57952 
L 277.726814 271.220081 
L 277.923813 258.6981 
L 278.120812 258.53894 
L 278.51481 258.53894 
L 278.711809 285.008539 
L 278.908808 154.20672 
L 279.105808 290.32984 
L 279.499806 269.942751 
L 279.696805 269.942751 
L 279.893804 279.436756 
L 280.090803 279.436756 
L 280.287802 284.191148 
L 280.484801 284.191148 
L 280.681801 286.048798 
L 280.8788 284.191148 
L 281.075799 279.441714 
L 281.666796 279.441714 
L 281.469797 283.629207 
L 281.863795 284.521485 
L 282.060794 284.521485 
L 282.257793 285.808779 
L 282.454793 284.521485 
L 282.651792 287.709906 
L 282.848791 283.315856 
L 283.04579 283.315856 
L 283.242789 296.423133 
L 283.439788 280.898593 
L 283.636787 285.767404 
L 283.833786 296.423133 
L 283.242789 285.767404 
L 284.030786 285.767404 
L 284.227785 299.649079 
L 284.621783 299.649079 
L 284.818782 291.219014 
L 285.409779 291.219014 
L 285.606778 290.381354 
L 285.803778 271.6362 
L 286.000777 270.367454 
L 286.197776 271.6362 
L 286.394775 271.6362 
L 286.788773 284.158713 
L 286.985772 277.235287 
L 287.182771 277.235287 
L 286.591774 277.235287 
L 287.379771 267.004419 
L 287.57677 267.004419 
L 287.773769 281.95884 
L 287.970768 267.004419 
L 288.167767 267.311363 
L 288.364766 277.919401 
L 288.167767 277.919401 
L 288.561765 277.919401 
L 288.758764 288.970999 
L 289.546761 288.970999 
L 289.74376 288.674441 
L 289.940759 291.768807 
L 290.137758 288.674441 
L 290.334757 288.674441 
L 290.531756 277.235137 
L 290.728756 292.007514 
L 290.925755 292.007514 
L 291.122754 287.237906 
L 291.319753 287.237906 
L 291.516752 274.370247 
L 291.713751 275.504136 
L 291.91075 275.504136 
L 292.107749 243.599988 
L 292.304748 263.833889 
L 292.501748 263.833889 
L 292.698747 282.227399 
L 292.895746 285.728621 
L 293.092745 285.728621 
L 293.289744 286.417465 
L 293.486743 286.417465 
L 293.683742 285.849096 
L 293.880741 282.735064 
L 294.27474 282.735064 
L 294.471739 284.279138 
L 294.27474 290.980421 
L 294.668738 292.015729 
L 294.865737 297.094629 
L 295.062736 292.015729 
L 295.259735 289.860991 
L 295.456734 275.535068 
L 295.653733 275.535068 
L 295.850733 286.203239 
L 296.244731 286.203239 
L 296.44173 291.474978 
L 296.638729 280.200402 
L 297.032727 280.200402 
L 297.229726 282.4776 
L 297.426726 282.4776 
L 297.623725 294.101488 
L 297.820724 294.101488 
L 298.017723 286.161116 
L 298.214722 286.161116 
L 298.411721 284.660269 
L 298.60872 276.646003 
L 298.805719 276.646003 
L 299.002718 276.822846 
L 299.199718 286.20314 
L 299.396717 286.20314 
L 299.593716 279.834821 
L 299.987714 279.834821 
L 300.184713 278.845342 
L 300.578711 278.845342 
L 300.775711 260.368979 
L 300.97271 285.00471 
L 301.366708 285.00471 
L 301.563707 283.43586 
L 301.760706 276.263145 
L 302.548703 276.263145 
L 302.745702 285.245213 
L 302.942701 282.527316 
L 303.1397 275.520291 
L 303.336699 275.520291 
L 303.533698 273.748828 
L 303.730697 273.748828 
L 303.927696 284.243954 
L 304.124695 276.263145 
L 304.321695 280.314825 
L 303.730697 276.263145 
L 304.912692 276.263145 
L 305.109691 262.976112 
L 305.30669 276.263145 
L 305.503689 263.6478 
L 305.700688 263.6478 
L 305.897688 274.896081 
L 306.094687 278.500345 
L 306.488685 278.500345 
L 306.685684 279.898217 
L 306.882683 290.972528 
L 307.079682 279.898217 
L 307.276681 290.972528 
L 307.47368 286.467142 
L 307.67068 276.667587 
L 307.867679 282.743421 
L 308.064678 277.482016 
L 308.261677 282.743421 
L 308.064678 282.743421 
L 308.655675 289.34238 
L 309.049673 289.34238 
L 309.246673 297.203528 
L 309.443672 275.891326 
L 309.640671 285.729724 
L 309.83767 271.59663 
L 310.034669 267.356687 
L 310.231668 259.558035 
L 310.428667 268.226322 
L 310.712356 -1 
M 311.300492 -1 
L 311.413663 215.09608 
L 311.610662 239.898434 
L 311.807661 249.166934 
L 312.201659 278.447364 
L 312.398658 278.447364 
L 312.595658 287.874303 
L 312.792657 285.916833 
L 313.580653 285.916833 
L 313.777652 285.656201 
L 313.974651 273.786733 
L 314.565649 273.786733 
L 314.762648 265.14701 
L 314.959647 282.339887 
L 315.353645 290.808181 
L 315.550644 292.382238 
L 316.141642 292.382238 
L 316.338641 278.879482 
L 316.53564 277.880654 
L 317.126637 277.880654 
L 317.323636 273.400103 
L 317.520635 280.850988 
L 317.717635 283.256116 
L 317.914634 283.607432 
L 318.111633 286.044608 
L 318.70263 286.044608 
L 318.899629 289.629205 
L 318.70263 290.828799 
L 319.096628 290.828799 
L 319.293628 289.026588 
L 319.490627 278.479448 
L 319.687626 278.479448 
L 320.081624 274.489515 
L 320.278623 274.489515 
L 320.475622 275.273584 
L 320.672621 275.273584 
L 320.86962 276.270878 
L 321.460618 288.368163 
L 321.657617 288.368163 
L 321.854616 291.526099 
L 322.248614 276.263145 
L 322.642613 300.466514 
L 322.839612 300.466514 
L 323.036611 297.474197 
L 323.627608 283.665608 
L 323.824607 291.860805 
L 324.021606 293.40808 
L 324.218605 291.467276 
L 324.415605 291.467276 
L 324.612604 287.076951 
L 324.809603 287.076951 
L 325.006602 280.775471 
L 325.203601 278.352793 
L 325.4006 278.352793 
L 325.597599 289.156444 
L 325.794598 289.156444 
L 325.991598 291.163015 
L 326.385596 291.186179 
L 326.582595 277.419026 
L 326.779594 281.551483 
L 327.370591 281.551483 
L 327.56759 279.1543 
L 328.355587 279.1543 
L 328.552586 285.72185 
L 328.749585 285.72185 
L 328.946584 298.366869 
L 329.143583 285.72185 
L 329.340583 286.463292 
L 329.537582 290.501828 
L 330.128579 290.501828 
L 330.325578 287.381479 
L 330.522577 277.73406 
L 330.719576 275.905772 
L 330.916575 277.73406 
L 331.310574 277.73406 
L 331.704572 277.858131 
L 331.901571 277.858131 
L 332.09857 277.645719 
L 332.295569 277.858131 
L 332.492568 277.645719 
L 332.689568 291.120313 
L 332.886567 291.120313 
L 333.083566 292.098404 
L 333.280565 291.581091 
L 333.477564 292.098404 
L 333.674563 303.437364 
L 333.871562 303.437364 
L 334.068561 307.579782 
L 334.26556 300.555481 
L 335.250556 300.586374 
L 335.447555 300.30906 
L 335.644554 299.56 
L 335.841553 299.56 
L 336.235552 283.361811 
L 336.432551 283.361811 
L 336.62955 285.297545 
L 336.826549 285.297545 
L 337.023548 294.747478 
L 337.614545 294.747478 
L 337.811545 292.860541 
L 338.008544 292.860541 
L 338.205543 303.3312 
L 338.402542 304.209681 
L 338.79654 304.367028 
L 338.993539 304.345558 
L 339.190538 299.856175 
L 339.584537 299.856175 
L 339.781536 302.336296 
L 340.175534 302.336296 
L 340.372533 301.817632 
L 340.569532 298.285539 
L 340.766531 301.817632 
L 340.96353 295.77598 
L 341.16053 307.014837 
L 341.357529 302.376363 
L 341.554528 304.21941 
L 341.751527 302.376363 
L 341.948526 302.376363 
L 342.145525 297.391638 
L 342.342524 297.391638 
L 342.539523 288.982856 
L 342.933522 303.536308 
L 343.130521 303.536308 
L 343.32752 301.840759 
L 343.524519 301.840759 
L 343.721518 300.672527 
L 343.918517 290.755506 
L 344.115516 290.755506 
L 344.312515 299.795025 
L 344.509515 290.755506 
L 344.706514 299.795025 
L 344.903513 299.795025 
L 345.297511 284.288129 
L 345.691509 299.484994 
L 346.085508 299.484994 
L 346.282507 292.739859 
L 346.479506 279.328243 
L 346.676505 292.739859 
L 346.873504 277.403775 
L 347.070503 273.194522 
L 347.267502 273.194522 
L 347.464501 283.837123 
L 347.6615 283.837123 
L 347.8585 292.009736 
L 348.055499 292.009736 
L 348.252498 281.947569 
L 348.449497 280.499778 
L 348.646496 281.947569 
L 348.843495 281.947569 
L 349.040494 289.192102 
L 349.434492 289.192102 
L 349.828491 301.214118 
L 350.02549 302.2395 
L 350.222489 302.2395 
L 350.616487 303.978372 
L 350.813486 302.993866 
L 351.010485 303.978372 
L 351.207485 303.978372 
L 351.404484 287.099083 
L 351.601483 285.471737 
L 351.798482 285.471737 
L 351.995481 292.27247 
L 352.19248 292.27247 
L 352.783477 296.879218 
L 352.980477 296.879218 
L 353.177476 296.589425 
L 353.374475 294.624304 
L 353.571474 296.589425 
L 353.768473 294.624304 
L 353.965472 294.624304 
L 354.162471 291.788835 
L 354.35947 295.82928 
L 354.55647 295.82928 
L 354.753469 298.197248 
L 355.147467 291.829637 
L 355.344466 290.148244 
L 355.935463 290.148244 
L 356.132462 290.445342 
L 356.329462 297.684639 
L 356.526461 299.634406 
L 357.117458 299.634406 
L 357.314457 298.657118 
L 357.511456 283.005087 
L 357.708455 283.005087 
L 357.905455 282.573322 
L 358.299453 282.573322 
L 358.496452 275.976833 
L 358.89045 275.976833 
L 359.087449 275.976833 
L 359.284448 286.494624 
L 359.481447 287.995457 
L 359.678447 290.935542 
L 359.875446 290.935542 
L 360.072445 291.134058 
L 360.269444 296.250799 
L 360.466443 296.250799 
L 360.663442 300.36167 
L 360.860441 296.250799 
L 361.05744 296.250799 
L 361.25444 297.802988 
L 361.451439 298.227419 
L 361.648438 297.802988 
L 361.845437 298.227419 
L 362.042436 301.237141 
L 362.239435 301.237141 
L 362.436434 301.542056 
L 362.633433 299.891741 
L 362.830432 299.364102 
L 363.027432 293.07237 
L 363.224431 293.07237 
L 363.42143 292.480914 
L 363.618429 285.990551 
L 363.815428 285.990551 
L 364.012427 283.611565 
L 364.209426 284.473571 
L 364.406425 282.987631 
L 364.603425 284.473571 
L 364.800424 284.473571 
L 364.997423 282.987631 
L 365.194422 282.987631 
L 365.391421 289.649928 
L 365.58842 290.916727 
L 365.785419 294.873148 
L 366.179417 294.610863 
L 366.376417 298.257322 
L 366.573416 294.610863 
L 366.770415 294.610863 
L 367.164413 301.39966 
L 367.558411 301.39966 
L 367.75541 300.510102 
L 367.95241 300.334324 
L 368.346408 300.334324 
L 368.543407 304.039462 
L 368.740406 304.039462 
L 368.937405 299.02943 
L 369.134404 299.02943 
L 369.331403 293.363316 
L 369.528402 293.363316 
L 369.725402 294.549575 
L 369.922401 289.318643 
L 370.513398 289.318643 
L 370.710397 291.018207 
L 370.907396 299.072047 
L 371.104395 299.072047 
L 371.301395 302.293675 
L 371.498394 302.293675 
L 371.695393 287.095953 
L 371.892392 285.810969 
L 372.089391 285.810969 
L 372.28639 265.822859 
L 372.483389 265.322293 
L 372.680388 265.322293 
L 372.877387 270.462625 
L 373.074387 270.462625 
L 373.665384 291.443389 
L 373.862383 288.903671 
L 374.059382 277.841522 
L 374.256381 299.836892 
L 374.45338 284.297263 
L 374.65038 284.297263 
L 374.847379 292.742355 
L 375.044378 292.742355 
L 375.241377 291.6072 
L 375.832374 291.6072 
L 376.029373 290.90688 
L 376.226372 289.192102 
L 376.423372 290.90688 
L 376.620371 294.174258 
L 377.211368 294.174258 
L 377.605366 273.034027 
L 377.999365 273.034027 
L 378.196364 276.935617 
L 378.393363 276.935617 
L 378.590362 298.011043 
L 378.787361 298.011043 
L 378.98436 302.092194 
L 379.181359 302.092194 
L 379.378358 295.0308 
L 379.575357 293.047728 
L 379.772357 281.663435 
L 379.969356 281.352267 
L 380.166355 276.871317 
L 380.363354 276.871317 
L 380.560353 290.891148 
L 380.757352 290.891148 
L 381.15135 302.278497 
L 381.34835 302.278497 
L 381.545349 299.388647 
L 381.742348 299.388647 
L 381.939347 285.230104 
L 382.136346 288.730853 
L 382.530344 288.730853 
L 382.727343 292.744724 
L 383.318341 292.725657 
L 383.51534 291.605845 
L 383.712339 281.810345 
L 383.909338 281.810345 
L 384.106337 287.754052 
L 384.303336 282.10966 
L 384.500335 282.10966 
L 384.697335 280.359547 
L 384.894334 280.359547 
L 385.091333 278.879852 
L 385.288332 278.879852 
L 385.485331 285.206027 
L 385.68233 285.206027 
L 385.879329 283.471337 
L 386.273327 283.471337 
L 386.470327 286.004862 
L 386.667326 286.004862 
L 386.864325 292.551409 
L 387.061324 289.537945 
L 387.455322 289.537945 
L 387.652321 297.356182 
L 387.84932 297.356182 
L 388.04632 300.092513 
L 388.243319 300.092513 
L 388.440318 290.800291 
L 388.637317 288.898498 
L 388.834316 288.898498 
L 389.031315 295.258793 
L 389.228314 295.258793 
L 389.425313 279.495884 
L 389.622312 279.495884 
L 389.819312 276.871317 
L 390.016311 279.495884 
L 390.410309 293.539673 
L 390.607308 294.323446 
L 390.804307 294.323446 
L 391.001306 293.539673 
L 391.198305 290.563633 
L 391.592304 290.563633 
L 391.986302 296.595179 
L 392.183301 293.959661 
L 392.3803 295.107172 
L 393.168297 295.217866 
L 393.365296 297.257515 
L 393.562295 297.257515 
L 393.759294 295.126469 
L 393.956293 287.256263 
L 394.54729 287.256263 
L 394.744289 278.876196 
L 394.941289 295.827161 
L 395.532286 295.827161 
L 395.729285 280.409577 
L 396.320282 280.409577 
L 396.517282 263.35581 
L 396.714281 263.35581 
L 396.91128 271.154145 
L 397.108279 271.154145 
L 397.502277 275.642451 
L 397.699276 287.81271 
L 398.093274 287.81271 
L 398.487273 301.794547 
L 398.487273 301.794547 
" style="fill:none;stroke:#ff7f0e;stroke-linecap:square;stroke-width:1.5;"/>
   </g>
   <g id="patch_3">
    <path d="M 57.6 307.584 
L 57.6 41.472 
" style="fill:none;stroke:#000000;stroke-linecap:square;stroke-linejoin:miter;stroke-width:0.8;"/>
   </g>
   <g id="patch_4">
    <path d="M 414.72 307.584 
L 414.72 41.472 
" style="fill:none;stroke:#000000;stroke-linecap:square;stroke-linejoin:miter;stroke-width:0.8;"/>
   </g>
   <g id="patch_5">
    <path d="M 57.6 307.584 
L 414.72 307.584 
" style="fill:none;stroke:#000000;stroke-linecap:square;stroke-linejoin:miter;stroke-width:0.8;"/>
   </g>
   <g id="patch_6">
    <path d="M 57.6 41.472 
L 414.72 41.472 
" style="fill:none;stroke:#000000;stroke-linecap:square;stroke-linejoin:miter;stroke-width:0.8;"/>
   </g>
   <g id="text_19">
    <!-- high, cutoff -->
    <g transform="translate(201.915937 35.472)scale(0.12 -0.12)">
     <defs>
      <path d="M 750 794 
L 1409 794 
L 1409 256 
L 897 -744 
L 494 -744 
L 750 256 
L 750 794 
z
" id="DejaVuSans-2c" transform="scale(0.015625)"/>
      <path d="M 544 1381 
L 544 3500 
L 1119 3500 
L 1119 1403 
Q 1119 906 1312 657 
Q 1506 409 1894 409 
Q 2359 409 2629 706 
Q 2900 1003 2900 1516 
L 2900 3500 
L 3475 3500 
L 3475 0 
L 2900 0 
L 2900 538 
Q 2691 219 2414 64 
Q 2138 -91 1772 -91 
Q 1169 -91 856 284 
Q 544 659 544 1381 
z
M 1991 3584 
L 1991 3584 
z
" id="DejaVuSans-75" transform="scale(0.015625)"/>
     </defs>
     <use xlink:href="#DejaVuSans-68"/>
     <use x="63.378906" xlink:href="#DejaVuSans-69"/>
     <use x="91.162109" xlink:href="#DejaVuSans-67"/>
     <use x="154.638672" xlink:href="#DejaVuSans-68"/>
     <use x="218.017578" xlink:href="#DejaVuSans-2c"/>
     <use x="249.804688" xlink:href="#DejaVuSans-20"/>
     <use x="281.591797" xlink:href="#DejaVuSans-63"/>
     <use x="336.572266" xlink:href="#DejaVuSans-75"/>
     <use x="399.951172" xlink:href="#DejaVuSans-74"/>
     <use x="439.160156" xlink:href="#DejaVuSans-6f"/>
     <use x="500.341797" xlink:href="#DejaVuSans-66"/>
     <use x="535.546875" xlink:href="#DejaVuSans-66"/>
    </g>
   </g>
   <g id="legend_1">
    <g id="patch_7">
     <path d="M 209.825625 190.706125 
L 262.494375 190.706125 
Q 264.494375 190.706125 264.494375 188.706125 
L 264.494375 160.349875 
Q 264.494375 158.349875 262.494375 158.349875 
L 209.825625 158.349875 
Q 207.825625 158.349875 207.825625 160.349875 
L 207.825625 188.706125 
Q 207.825625 190.706125 209.825625 190.706125 
z
" style="fill:#ffffff;opacity:0.8;stroke:#cccccc;stroke-linejoin:miter;"/>
    </g>
    <g id="line2d_19">
     <path d="M 211.825625 166.448312 
L 231.825625 166.448312 
" style="fill:none;stroke:#1f77b4;stroke-linecap:square;stroke-width:1.5;"/>
    </g>
    <g id="line2d_20"/>
    <g id="text_20">
     <!-- old -->
     <g transform="translate(239.825625 169.948312)scale(0.1 -0.1)">
      <use xlink:href="#DejaVuSans-6f"/>
      <use x="61.181641" xlink:href="#DejaVuSans-6c"/>
      <use x="88.964844" xlink:href="#DejaVuSans-64"/>
     </g>
    </g>
    <g id="line2d_21">
     <path d="M 211.825625 181.126437 
L 231.825625 181.126437 
" style="fill:none;stroke:#ff7f0e;stroke-linecap:square;stroke-width:1.5;"/>
    </g>
    <g id="line2d_22"/>
    <g id="text_21">
     <!-- new -->
     <g transform="translate(239.825625 184.626437)scale(0.1 -0.1)">
      <defs>
       <path d="M 3513 2113 
L 3513 0 
L 2938 0 
L 2938 2094 
Q 2938 2591 2744 2837 
Q 2550 3084 2163 3084 
Q 1697 3084 1428 2787 
Q 1159 2491 1159 1978 
L 1159 0 
L 581 0 
L 581 3500 
L 1159 3500 
L 1159 2956 
Q 1366 3272 1645 3428 
Q 1925 3584 2291 3584 
Q 2894 3584 3203 3211 
Q 3513 2838 3513 2113 
z
" id="DejaVuSans-6e" transform="scale(0.015625)"/>
       <path d="M 269 3500 
L 844 3500 
L 1563 769 
L 2278 3500 
L 2956 3500 
L 3675 769 
L 4391 3500 
L 4966 3500 
L 4050 0 
L 3372 0 
L 2619 2869 
L 1863 0 
L 1184 0 
L 269 3500 
z
" id="DejaVuSans-77" transform="scale(0.015625)"/>
      </defs>
      <use xlink:href="#DejaVuSans-6e"/>
      <use x="63.378906" xlink:href="#DejaVuSans-65"/>
      <use x="124.902344" xlink:href="#DejaVuSans-77"/>
     </g>
    </g>
   </g>
  </g>
 </g>
 <defs>
  <clipPath id="pf76982b0ef">
   <rect height="266.112" width="357.12" x="57.6" y="41.472"/>
  </clipPath>
 </defs>
</svg>
