<?xml version="1.0" encoding="utf-8" standalone="no"?>
<!DOCTYPE svg PUBLIC "-//W3C//DTD SVG 1.1//EN"
  "http://www.w3.org/Graphics/SVG/1.1/DTD/svg11.dtd">
<svg height="432pt" version="1.1" viewBox="0 0 864 432" width="864pt" xmlns="http://www.w3.org/2000/svg" xmlns:xlink="http://www.w3.org/1999/xlink">
 <metadata>
  <rdf:RDF xmlns:cc="http://creativecommons.org/ns#" xmlns:dc="http://purl.org/dc/elements/1.1/" xmlns:rdf="http://www.w3.org/1999/02/22-rdf-syntax-ns#">
   <cc:Work>
    <dc:type rdf:resource="http://purl.org/dc/dcmitype/StillImage"/>
    <dc:date>2022-01-06T21:23:40.778824</dc:date>
    <dc:format>image/svg+xml</dc:format>
    <dc:creator>
     <cc:Agent>
      <dc:title>Matplotlib v3.4.3, https://matplotlib.org/</dc:title>
     </cc:Agent>
    </dc:creator>
   </cc:Work>
  </rdf:RDF>
 </metadata>
 <defs>
  <style type="text/css">*{stroke-linecap:butt;stroke-linejoin:round;}</style>
 </defs>
 <g id="figure_1">
  <g id="patch_1">
   <path d="M 0 432 
L 864 432 
L 864 0 
L 0 0 
z
" style="fill:#ffffff;"/>
  </g>
  <g id="axes_1">
   <g id="patch_2">
    <path d="M 108 384.48 
L 777.6 384.48 
L 777.6 51.84 
L 108 51.84 
z
" style="fill:#ffffff;"/>
   </g>
   <g id="matplotlib.axis_1">
    <g id="xtick_1">
     <g id="line2d_1">
      <defs>
       <path d="M 0 0 
L 0 3.5 
" id="mb35762aaf0" style="stroke:#000000;stroke-width:0.8;"/>
      </defs>
      <g>
       <use style="stroke:#000000;stroke-width:0.8;" x="138.436364" xlink:href="#mb35762aaf0" y="384.48"/>
      </g>
     </g>
     <g id="text_1">
      <!-- 39000 -->
      <g transform="translate(122.530114 399.078438)scale(0.1 -0.1)">
       <defs>
        <path d="M 2597 2516 
Q 3050 2419 3304 2112 
Q 3559 1806 3559 1356 
Q 3559 666 3084 287 
Q 2609 -91 1734 -91 
Q 1441 -91 1130 -33 
Q 819 25 488 141 
L 488 750 
Q 750 597 1062 519 
Q 1375 441 1716 441 
Q 2309 441 2620 675 
Q 2931 909 2931 1356 
Q 2931 1769 2642 2001 
Q 2353 2234 1838 2234 
L 1294 2234 
L 1294 2753 
L 1863 2753 
Q 2328 2753 2575 2939 
Q 2822 3125 2822 3475 
Q 2822 3834 2567 4026 
Q 2313 4219 1838 4219 
Q 1578 4219 1281 4162 
Q 984 4106 628 3988 
L 628 4550 
Q 988 4650 1302 4700 
Q 1616 4750 1894 4750 
Q 2613 4750 3031 4423 
Q 3450 4097 3450 3541 
Q 3450 3153 3228 2886 
Q 3006 2619 2597 2516 
z
" id="DejaVuSans-33" transform="scale(0.015625)"/>
        <path d="M 703 97 
L 703 672 
Q 941 559 1184 500 
Q 1428 441 1663 441 
Q 2288 441 2617 861 
Q 2947 1281 2994 2138 
Q 2813 1869 2534 1725 
Q 2256 1581 1919 1581 
Q 1219 1581 811 2004 
Q 403 2428 403 3163 
Q 403 3881 828 4315 
Q 1253 4750 1959 4750 
Q 2769 4750 3195 4129 
Q 3622 3509 3622 2328 
Q 3622 1225 3098 567 
Q 2575 -91 1691 -91 
Q 1453 -91 1209 -44 
Q 966 3 703 97 
z
M 1959 2075 
Q 2384 2075 2632 2365 
Q 2881 2656 2881 3163 
Q 2881 3666 2632 3958 
Q 2384 4250 1959 4250 
Q 1534 4250 1286 3958 
Q 1038 3666 1038 3163 
Q 1038 2656 1286 2365 
Q 1534 2075 1959 2075 
z
" id="DejaVuSans-39" transform="scale(0.015625)"/>
        <path d="M 2034 4250 
Q 1547 4250 1301 3770 
Q 1056 3291 1056 2328 
Q 1056 1369 1301 889 
Q 1547 409 2034 409 
Q 2525 409 2770 889 
Q 3016 1369 3016 2328 
Q 3016 3291 2770 3770 
Q 2525 4250 2034 4250 
z
M 2034 4750 
Q 2819 4750 3233 4129 
Q 3647 3509 3647 2328 
Q 3647 1150 3233 529 
Q 2819 -91 2034 -91 
Q 1250 -91 836 529 
Q 422 1150 422 2328 
Q 422 3509 836 4129 
Q 1250 4750 2034 4750 
z
" id="DejaVuSans-30" transform="scale(0.015625)"/>
       </defs>
       <use xlink:href="#DejaVuSans-33"/>
       <use x="63.623047" xlink:href="#DejaVuSans-39"/>
       <use x="127.246094" xlink:href="#DejaVuSans-30"/>
       <use x="190.869141" xlink:href="#DejaVuSans-30"/>
       <use x="254.492188" xlink:href="#DejaVuSans-30"/>
      </g>
     </g>
    </g>
    <g id="xtick_2">
     <g id="line2d_2">
      <g>
       <use style="stroke:#000000;stroke-width:0.8;" x="230.7797" xlink:href="#mb35762aaf0" y="384.48"/>
      </g>
     </g>
     <g id="text_2">
      <!-- 39250 -->
      <g transform="translate(214.87345 399.078438)scale(0.1 -0.1)">
       <defs>
        <path d="M 1228 531 
L 3431 531 
L 3431 0 
L 469 0 
L 469 531 
Q 828 903 1448 1529 
Q 2069 2156 2228 2338 
Q 2531 2678 2651 2914 
Q 2772 3150 2772 3378 
Q 2772 3750 2511 3984 
Q 2250 4219 1831 4219 
Q 1534 4219 1204 4116 
Q 875 4013 500 3803 
L 500 4441 
Q 881 4594 1212 4672 
Q 1544 4750 1819 4750 
Q 2544 4750 2975 4387 
Q 3406 4025 3406 3419 
Q 3406 3131 3298 2873 
Q 3191 2616 2906 2266 
Q 2828 2175 2409 1742 
Q 1991 1309 1228 531 
z
" id="DejaVuSans-32" transform="scale(0.015625)"/>
        <path d="M 691 4666 
L 3169 4666 
L 3169 4134 
L 1269 4134 
L 1269 2991 
Q 1406 3038 1543 3061 
Q 1681 3084 1819 3084 
Q 2600 3084 3056 2656 
Q 3513 2228 3513 1497 
Q 3513 744 3044 326 
Q 2575 -91 1722 -91 
Q 1428 -91 1123 -41 
Q 819 9 494 109 
L 494 744 
Q 775 591 1075 516 
Q 1375 441 1709 441 
Q 2250 441 2565 725 
Q 2881 1009 2881 1497 
Q 2881 1984 2565 2268 
Q 2250 2553 1709 2553 
Q 1456 2553 1204 2497 
Q 953 2441 691 2322 
L 691 4666 
z
" id="DejaVuSans-35" transform="scale(0.015625)"/>
       </defs>
       <use xlink:href="#DejaVuSans-33"/>
       <use x="63.623047" xlink:href="#DejaVuSans-39"/>
       <use x="127.246094" xlink:href="#DejaVuSans-32"/>
       <use x="190.869141" xlink:href="#DejaVuSans-35"/>
       <use x="254.492188" xlink:href="#DejaVuSans-30"/>
      </g>
     </g>
    </g>
    <g id="xtick_3">
     <g id="line2d_3">
      <g>
       <use style="stroke:#000000;stroke-width:0.8;" x="323.123036" xlink:href="#mb35762aaf0" y="384.48"/>
      </g>
     </g>
     <g id="text_3">
      <!-- 39500 -->
      <g transform="translate(307.216786 399.078438)scale(0.1 -0.1)">
       <use xlink:href="#DejaVuSans-33"/>
       <use x="63.623047" xlink:href="#DejaVuSans-39"/>
       <use x="127.246094" xlink:href="#DejaVuSans-35"/>
       <use x="190.869141" xlink:href="#DejaVuSans-30"/>
       <use x="254.492188" xlink:href="#DejaVuSans-30"/>
      </g>
     </g>
    </g>
    <g id="xtick_4">
     <g id="line2d_4">
      <g>
       <use style="stroke:#000000;stroke-width:0.8;" x="415.466372" xlink:href="#mb35762aaf0" y="384.48"/>
      </g>
     </g>
     <g id="text_4">
      <!-- 39750 -->
      <g transform="translate(399.560122 399.078438)scale(0.1 -0.1)">
       <defs>
        <path d="M 525 4666 
L 3525 4666 
L 3525 4397 
L 1831 0 
L 1172 0 
L 2766 4134 
L 525 4134 
L 525 4666 
z
" id="DejaVuSans-37" transform="scale(0.015625)"/>
       </defs>
       <use xlink:href="#DejaVuSans-33"/>
       <use x="63.623047" xlink:href="#DejaVuSans-39"/>
       <use x="127.246094" xlink:href="#DejaVuSans-37"/>
       <use x="190.869141" xlink:href="#DejaVuSans-35"/>
       <use x="254.492188" xlink:href="#DejaVuSans-30"/>
      </g>
     </g>
    </g>
    <g id="xtick_5">
     <g id="line2d_5">
      <g>
       <use style="stroke:#000000;stroke-width:0.8;" x="507.809709" xlink:href="#mb35762aaf0" y="384.48"/>
      </g>
     </g>
     <g id="text_5">
      <!-- 40000 -->
      <g transform="translate(491.903459 399.078438)scale(0.1 -0.1)">
       <defs>
        <path d="M 2419 4116 
L 825 1625 
L 2419 1625 
L 2419 4116 
z
M 2253 4666 
L 3047 4666 
L 3047 1625 
L 3713 1625 
L 3713 1100 
L 3047 1100 
L 3047 0 
L 2419 0 
L 2419 1100 
L 313 1100 
L 313 1709 
L 2253 4666 
z
" id="DejaVuSans-34" transform="scale(0.015625)"/>
       </defs>
       <use xlink:href="#DejaVuSans-34"/>
       <use x="63.623047" xlink:href="#DejaVuSans-30"/>
       <use x="127.246094" xlink:href="#DejaVuSans-30"/>
       <use x="190.869141" xlink:href="#DejaVuSans-30"/>
       <use x="254.492188" xlink:href="#DejaVuSans-30"/>
      </g>
     </g>
    </g>
    <g id="xtick_6">
     <g id="line2d_6">
      <g>
       <use style="stroke:#000000;stroke-width:0.8;" x="600.153045" xlink:href="#mb35762aaf0" y="384.48"/>
      </g>
     </g>
     <g id="text_6">
      <!-- 40250 -->
      <g transform="translate(584.246795 399.078438)scale(0.1 -0.1)">
       <use xlink:href="#DejaVuSans-34"/>
       <use x="63.623047" xlink:href="#DejaVuSans-30"/>
       <use x="127.246094" xlink:href="#DejaVuSans-32"/>
       <use x="190.869141" xlink:href="#DejaVuSans-35"/>
       <use x="254.492188" xlink:href="#DejaVuSans-30"/>
      </g>
     </g>
    </g>
    <g id="xtick_7">
     <g id="line2d_7">
      <g>
       <use style="stroke:#000000;stroke-width:0.8;" x="692.496381" xlink:href="#mb35762aaf0" y="384.48"/>
      </g>
     </g>
     <g id="text_7">
      <!-- 40500 -->
      <g transform="translate(676.590131 399.078438)scale(0.1 -0.1)">
       <use xlink:href="#DejaVuSans-34"/>
       <use x="63.623047" xlink:href="#DejaVuSans-30"/>
       <use x="127.246094" xlink:href="#DejaVuSans-35"/>
       <use x="190.869141" xlink:href="#DejaVuSans-30"/>
       <use x="254.492188" xlink:href="#DejaVuSans-30"/>
      </g>
     </g>
    </g>
   </g>
   <g id="matplotlib.axis_2">
    <g id="ytick_1">
     <g id="line2d_8">
      <defs>
       <path d="M 0 0 
L -3.5 0 
" id="m7f62f22c20" style="stroke:#000000;stroke-width:0.8;"/>
      </defs>
      <g>
       <use style="stroke:#000000;stroke-width:0.8;" x="108" xlink:href="#m7f62f22c20" y="369.360055"/>
      </g>
     </g>
     <g id="text_8">
      <!-- 0 -->
      <g transform="translate(94.6375 373.159274)scale(0.1 -0.1)">
       <use xlink:href="#DejaVuSans-30"/>
      </g>
     </g>
    </g>
    <g id="ytick_2">
     <g id="line2d_9">
      <g>
       <use style="stroke:#000000;stroke-width:0.8;" x="108" xlink:href="#m7f62f22c20" y="326.026366"/>
      </g>
     </g>
     <g id="text_9">
      <!-- 250 -->
      <g transform="translate(81.9125 329.825585)scale(0.1 -0.1)">
       <use xlink:href="#DejaVuSans-32"/>
       <use x="63.623047" xlink:href="#DejaVuSans-35"/>
       <use x="127.246094" xlink:href="#DejaVuSans-30"/>
      </g>
     </g>
    </g>
    <g id="ytick_3">
     <g id="line2d_10">
      <g>
       <use style="stroke:#000000;stroke-width:0.8;" x="108" xlink:href="#m7f62f22c20" y="282.692677"/>
      </g>
     </g>
     <g id="text_10">
      <!-- 500 -->
      <g transform="translate(81.9125 286.491896)scale(0.1 -0.1)">
       <use xlink:href="#DejaVuSans-35"/>
       <use x="63.623047" xlink:href="#DejaVuSans-30"/>
       <use x="127.246094" xlink:href="#DejaVuSans-30"/>
      </g>
     </g>
    </g>
    <g id="ytick_4">
     <g id="line2d_11">
      <g>
       <use style="stroke:#000000;stroke-width:0.8;" x="108" xlink:href="#m7f62f22c20" y="239.358988"/>
      </g>
     </g>
     <g id="text_11">
      <!-- 750 -->
      <g transform="translate(81.9125 243.158206)scale(0.1 -0.1)">
       <use xlink:href="#DejaVuSans-37"/>
       <use x="63.623047" xlink:href="#DejaVuSans-35"/>
       <use x="127.246094" xlink:href="#DejaVuSans-30"/>
      </g>
     </g>
    </g>
    <g id="ytick_5">
     <g id="line2d_12">
      <g>
       <use style="stroke:#000000;stroke-width:0.8;" x="108" xlink:href="#m7f62f22c20" y="196.025299"/>
      </g>
     </g>
     <g id="text_12">
      <!-- 1000 -->
      <g transform="translate(75.55 199.824517)scale(0.1 -0.1)">
       <defs>
        <path d="M 794 531 
L 1825 531 
L 1825 4091 
L 703 3866 
L 703 4441 
L 1819 4666 
L 2450 4666 
L 2450 531 
L 3481 531 
L 3481 0 
L 794 0 
L 794 531 
z
" id="DejaVuSans-31" transform="scale(0.015625)"/>
       </defs>
       <use xlink:href="#DejaVuSans-31"/>
       <use x="63.623047" xlink:href="#DejaVuSans-30"/>
       <use x="127.246094" xlink:href="#DejaVuSans-30"/>
       <use x="190.869141" xlink:href="#DejaVuSans-30"/>
      </g>
     </g>
    </g>
    <g id="ytick_6">
     <g id="line2d_13">
      <g>
       <use style="stroke:#000000;stroke-width:0.8;" x="108" xlink:href="#m7f62f22c20" y="152.69161"/>
      </g>
     </g>
     <g id="text_13">
      <!-- 1250 -->
      <g transform="translate(75.55 156.490828)scale(0.1 -0.1)">
       <use xlink:href="#DejaVuSans-31"/>
       <use x="63.623047" xlink:href="#DejaVuSans-32"/>
       <use x="127.246094" xlink:href="#DejaVuSans-35"/>
       <use x="190.869141" xlink:href="#DejaVuSans-30"/>
      </g>
     </g>
    </g>
    <g id="ytick_7">
     <g id="line2d_14">
      <g>
       <use style="stroke:#000000;stroke-width:0.8;" x="108" xlink:href="#m7f62f22c20" y="109.35792"/>
      </g>
     </g>
     <g id="text_14">
      <!-- 1500 -->
      <g transform="translate(75.55 113.157139)scale(0.1 -0.1)">
       <use xlink:href="#DejaVuSans-31"/>
       <use x="63.623047" xlink:href="#DejaVuSans-35"/>
       <use x="127.246094" xlink:href="#DejaVuSans-30"/>
       <use x="190.869141" xlink:href="#DejaVuSans-30"/>
      </g>
     </g>
    </g>
    <g id="ytick_8">
     <g id="line2d_15">
      <g>
       <use style="stroke:#000000;stroke-width:0.8;" x="108" xlink:href="#m7f62f22c20" y="66.024231"/>
      </g>
     </g>
     <g id="text_15">
      <!-- 1750 -->
      <g transform="translate(75.55 69.82345)scale(0.1 -0.1)">
       <use xlink:href="#DejaVuSans-31"/>
       <use x="63.623047" xlink:href="#DejaVuSans-37"/>
       <use x="127.246094" xlink:href="#DejaVuSans-35"/>
       <use x="190.869141" xlink:href="#DejaVuSans-30"/>
      </g>
     </g>
    </g>
   </g>
   <g id="line2d_16">
    <path clip-path="url(#p6582b67254)" d="M 138.436364 369.213087 
L 139.544484 369.246888 
L 141.021977 369.149632 
L 141.760724 369.075355 
L 142.49947 369.080044 
L 143.238217 369.257751 
L 147.670697 369.230924 
L 148.040071 368.95861 
L 149.148191 368.95861 
L 149.517564 369.277772 
L 155.058164 369.253665 
L 155.796911 368.69806 
L 156.166284 369.017926 
L 156.535658 368.69806 
L 157.274404 369.063417 
L 157.643778 368.846174 
L 158.013151 368.846174 
L 158.382524 369.094233 
L 159.490644 369.142623 
L 160.229391 369.209762 
L 161.706884 369.174237 
L 163.923124 369.277416 
L 165.031244 369.158041 
L 165.400618 369.202879 
L 166.139365 369.113797 
L 166.878111 369.187495 
L 170.571845 369.208829 
L 171.310591 369.042906 
L 173.896205 368.838038 
L 174.265578 369.045416 
L 175.004325 369.045416 
L 175.373698 369.184126 
L 175.743071 369.184126 
L 176.112445 368.975585 
L 176.481818 369.134605 
L 177.220565 369.12718 
L 179.806178 369.219172 
L 180.175552 369.25867 
L 180.914298 369.179418 
L 181.283672 369.177533 
L 181.653045 369.036837 
L 183.130538 369.082661 
L 183.499912 368.894544 
L 183.869285 369.218912 
L 184.608032 369.171755 
L 185.716152 369.242406 
L 188.671139 369.287848 
L 188.301765 369.287848 
L 189.040512 368.84626 
L 189.779259 368.923256 
L 190.518005 368.934163 
L 190.887379 369.255985 
L 191.256752 369.121154 
L 193.842365 369.07086 
L 194.211739 368.911349 
L 194.950485 368.911349 
L 195.689232 369.075355 
L 197.166726 369.274607 
L 197.905472 369.234909 
L 198.274846 368.783967 
L 199.382966 368.783967 
L 200.491086 369.291646 
L 200.860459 369.156568 
L 201.599206 369.156568 
L 201.968579 368.933723 
L 202.337952 369.192506 
L 204.923566 369.219247 
L 205.292939 369.012361 
L 205.662312 369.243387 
L 206.401059 369.243387 
L 206.031686 369.243387 
L 207.509179 369.018325 
L 208.617299 369.122708 
L 209.725419 369.197396 
L 211.941659 369.215358 
L 212.311033 368.890575 
L 214.157899 368.762804 
L 214.527273 369.04115 
L 216.374139 369.049736 
L 216.743513 369.222228 
L 217.112886 369.047434 
L 218.959753 369.011961 
L 219.329126 368.00138 
L 220.437246 368.043732 
L 220.80662 368.69806 
L 221.175993 368.703774 
L 221.545366 369.120598 
L 222.284113 369.266924 
L 224.869726 369.186902 
L 226.34722 369.089884 
L 225.977846 369.089884 
L 226.716593 369.089884 
L 227.085966 369.248213 
L 233.365313 369.249465 
L 233.734687 369.123385 
L 241.122154 369.020775 
L 241.8609 368.907747 
L 242.599647 368.883245 
L 242.96902 369.066232 
L 244.446514 369.048896 
L 244.815887 368.195921 
L 245.18526 369.095002 
L 248.878994 369.134998 
L 249.248367 368.205761 
L 249.617741 365.965728 
L 249.987114 368.205761 
L 250.356487 368.434384 
L 251.095234 368.49143 
L 251.464607 369.093254 
L 252.572727 369.137 
L 252.942101 368.935042 
L 253.680847 368.935042 
L 254.419594 369.241918 
L 254.788967 369.241918 
L 255.527714 369.127696 
L 258.852074 369.195987 
L 259.221447 368.952188 
L 259.590821 368.952188 
L 259.960194 369.108155 
L 261.068314 369.108155 
L 261.437688 369.095667 
L 261.807061 368.855546 
L 262.176434 368.855546 
L 262.545808 369.095667 
L 262.915181 369.113016 
L 263.284554 369.263462 
L 264.392674 369.182504 
L 265.870168 369.036837 
L 267.347661 369.126895 
L 267.717034 369.254784 
L 269.194528 369.166851 
L 269.933274 369.098705 
L 272.149515 369.07081 
L 272.518888 369.22768 
L 272.888261 369.211642 
L 273.257635 369.055124 
L 273.996381 368.973245 
L 275.104501 368.920106 
L 275.473875 368.920106 
L 275.104501 368.444955 
L 275.843248 368.444955 
L 276.212621 368.252232 
L 276.581995 365.926031 
L 275.473875 365.926031 
L 277.690115 365.926031 
L 278.059488 368.172483 
L 278.428861 368.172483 
L 278.798235 368.410219 
L 279.167608 368.410219 
L 279.536981 368.812164 
L 280.275728 368.935261 
L 281.753222 369.170004 
L 282.122595 369.170004 
L 282.491968 369.039402 
L 283.600088 369.114052 
L 284.338835 369.170566 
L 285.816328 369.019877 
L 289.879435 368.915924 
L 290.248808 368.06368 
L 290.987555 368.06368 
L 291.356929 368.333616 
L 291.726302 368.462009 
L 292.095675 368.806067 
L 292.834422 368.522465 
L 293.203795 368.689907 
L 293.942542 368.662778 
L 294.681289 368.469876 
L 295.050662 368.469876 
L 295.789409 368.891943 
L 297.266902 368.810452 
L 296.528155 368.684021 
L 299.113769 368.766896 
L 300.960635 369.028766 
L 301.330009 369.028766 
L 301.699382 369.147859 
L 302.807502 369.046485 
L 303.915622 369.000725 
L 304.284996 368.848507 
L 304.654369 368.532565 
L 304.284996 368.345107 
L 305.023742 368.345107 
L 305.393116 368.532565 
L 305.762489 368.076468 
L 306.131862 368.633475 
L 306.501236 368.633475 
L 306.870609 368.920027 
L 309.456222 369.030655 
L 308.717476 369.017298 
L 309.825596 368.783919 
L 310.194969 368.591367 
L 310.564342 368.591367 
L 310.933716 368.777827 
L 311.303089 368.783919 
L 312.041836 368.954766 
L 313.519329 369.095886 
L 317.213063 368.986607 
L 320.537423 368.997868 
L 323.123036 368.917879 
L 323.861783 368.621075 
L 324.60053 368.730271 
L 324.969903 369.107821 
L 327.92489 369.007968 
L 328.294263 368.957417 
L 328.663636 369.123573 
L 329.402383 369.111551 
L 329.771756 368.855274 
L 330.879876 368.94249 
L 332.726743 368.937493 
L 333.096117 369.137088 
L 334.57361 369.045472 
L 335.312357 368.983582 
L 336.051103 369.081268 
L 339.744837 368.990658 
L 340.852957 368.963358 
L 341.22233 368.509782 
L 341.591703 368.981725 
L 343.069197 369.005283 
L 343.43857 368.741283 
L 343.807944 368.875227 
L 344.177317 368.875227 
L 344.54669 368.741283 
L 344.916064 368.741283 
L 346.024184 369.075005 
L 356.366637 369.00783 
L 355.997264 368.955898 
L 356.736011 368.955898 
L 359.690997 369.026682 
L 360.429744 369.101093 
L 361.537864 369.101093 
L 362.276611 369.184752 
L 363.384731 369.182231 
L 363.754104 368.77447 
L 365.600971 368.673079 
L 365.970344 369.00607 
L 366.709091 368.927886 
L 367.817211 369.12046 
L 368.555958 369.12046 
L 369.294704 368.826588 
L 370.033451 368.718146 
L 371.510944 368.890944 
L 372.619064 368.926607 
L 374.835305 368.979554 
L 378.159665 368.967108 
L 378.898411 368.875227 
L 379.267785 368.753934 
L 379.637158 368.875227 
L 382.961518 368.905245 
L 383.700265 369.167394 
L 385.177758 369.114853 
L 385.547132 368.963709 
L 386.285878 369.045933 
L 391.826478 368.935206 
L 392.195852 368.744827 
L 392.934598 368.744827 
L 393.303972 368.897859 
L 393.673345 368.897859 
L 394.042718 369.211977 
L 394.412092 369.211977 
L 394.781465 368.995961 
L 396.628332 368.986745 
L 396.997705 368.828906 
L 397.367079 368.986745 
L 397.736452 368.986745 
L 398.105825 369.098786 
L 398.475199 368.828906 
L 398.844572 369.098786 
L 399.213945 368.967791 
L 401.060812 369.00783 
L 401.799559 369.159907 
L 402.168932 369.159907 
L 402.907679 368.984014 
L 405.862665 369.057688 
L 406.970786 369.154243 
L 407.340159 369.057688 
L 407.709532 369.131146 
L 408.078906 368.996196 
L 409.187026 369.03203 
L 409.556399 368.808771 
L 409.925772 369.03203 
L 410.295146 368.721135 
L 410.664519 368.721135 
L 411.033892 368.927054 
L 413.988879 368.827457 
L 414.358252 368.675607 
L 415.835746 368.673079 
L 415.466372 368.673079 
L 416.205119 368.799493 
L 416.574492 368.578143 
L 416.943866 368.799493 
L 417.682613 368.864982 
L 419.160106 369.090074 
L 421.006973 369.085149 
L 421.376346 368.743626 
L 421.745719 369.085149 
L 421.376346 368.743626 
L 423.223213 368.69806 
L 423.592586 368.726999 
L 423.223213 368.820363 
L 424.331333 368.820363 
L 424.700706 368.529441 
L 427.655693 368.543279 
L 428.025066 368.960797 
L 428.39444 368.960797 
L 428.763813 368.543279 
L 429.133186 368.543279 
L 429.50256 368.254585 
L 429.871933 368.167336 
L 430.241306 368.254585 
L 430.61068 368.589131 
L 431.7188 368.825313 
L 433.196293 368.825313 
L 433.565666 368.957112 
L 433.93504 368.728482 
L 434.673786 368.728482 
L 435.04316 368.728482 
L 435.412533 368.91326 
L 437.2594 369.245366 
L 437.628773 369.013462 
L 438.36752 368.972472 
L 439.106267 368.598211 
L 439.845013 368.521902 
L 440.214387 368.598211 
L 440.58376 369.238045 
L 441.322507 369.191569 
L 441.69188 368.680555 
L 443.538747 368.558407 
L 443.90812 368.750424 
L 445.385613 368.883193 
L 445.01624 368.732781 
L 446.863107 368.698517 
L 447.23248 369.018454 
L 451.66496 369.013452 
L 452.034334 369.237821 
L 452.403707 369.013452 
L 453.142454 368.939964 
L 454.619947 369.002691 
L 456.466814 369.359214 
L 457.20556 369.076132 
L 457.574934 369.136901 
L 458.31368 369.076132 
L 459.421801 369.019928 
L 459.791174 368.901975 
L 462.376787 368.992516 
L 463.115534 368.958864 
L 463.484907 368.902182 
L 464.223654 369.00783 
L 464.962401 368.771373 
L 465.331774 369.00783 
L 465.701147 368.771373 
L 466.070521 368.771373 
L 466.809267 368.959205 
L 467.548014 368.959205 
L 469.025508 368.978719 
L 469.394881 368.794284 
L 469.764254 367.16217 
L 470.133628 367.16217 
L 470.503001 366.784409 
L 470.872374 368.072232 
L 471.241748 368.761427 
L 472.349868 368.795927 
L 472.719241 369.003038 
L 473.457988 368.979772 
L 474.935481 368.880865 
L 474.196734 368.770608 
L 475.304854 368.770608 
L 475.674228 369.085454 
L 476.782348 369.085454 
L 477.151721 368.777987 
L 478.998588 368.825182 
L 481.214828 368.875681 
L 482.692321 368.976403 
L 483.800441 369.02371 
L 487.863548 368.963198 
L 487.494175 368.963198 
L 488.971668 368.858249 
L 489.341041 369.053574 
L 490.449162 368.891756 
L 491.557282 368.838864 
L 490.818535 368.891532 
L 491.926655 369.069854 
L 492.665402 368.799834 
L 493.404148 368.799834 
L 493.773522 369.09698 
L 495.251015 369.077813 
L 495.620388 368.888948 
L 495.989762 369.077813 
L 496.359135 368.818963 
L 496.728508 369.077813 
L 500.052868 368.97693 
L 500.791615 368.961031 
L 501.899735 369.135367 
L 502.269109 369.041197 
L 502.638482 369.135367 
L 503.007855 369.007552 
L 503.377229 369.070461 
L 503.746602 368.981031 
L 504.485349 369.070461 
L 505.962842 368.816467 
L 506.332215 368.973054 
L 507.070962 368.959955 
L 507.809709 369.054793 
L 508.179082 368.959955 
L 509.287202 368.998907 
L 510.025949 368.998907 
L 510.395322 369.151781 
L 512.611562 369.119891 
L 512.980936 369.316757 
L 513.719682 369.36 
L 514.458429 369.048516 
L 516.674669 369.077223 
L 517.044042 369.229654 
L 517.782789 369.229654 
L 517.413416 369.229654 
L 518.890909 368.863545 
L 519.999029 368.917072 
L 520.737776 368.886335 
L 521.107149 368.723208 
L 522.215269 368.721135 
L 522.584643 369.06596 
L 522.954016 367.361978 
L 523.323389 369.135281 
L 524.062136 368.869695 
L 524.431509 368.869695 
L 524.800883 368.993375 
L 530.710856 369.043909 
L 531.080229 369.21466 
L 531.449603 369.012419 
L 532.18835 369.21466 
L 531.080229 369.075846 
L 532.557723 369.075846 
L 532.927096 369.256685 
L 535.143336 369.146865 
L 535.51271 369.135953 
L 535.882083 368.891756 
L 536.990203 368.891756 
L 537.72895 369.054889 
L 538.467696 368.964696 
L 537.359576 368.964696 
L 539.206443 368.831416 
L 539.575816 369.026231 
L 539.94519 368.831416 
L 540.314563 368.835415 
L 540.683936 368.973608 
L 540.314563 368.973608 
L 541.05331 368.973608 
L 541.422683 369.11758 
L 544.37767 369.113716 
L 544.747043 368.964694 
L 545.116417 369.157137 
L 546.224537 369.095002 
L 546.59391 368.927373 
L 547.332657 368.942144 
L 547.70203 368.526522 
L 548.071403 368.790113 
L 548.440777 368.790113 
L 548.81015 369.029729 
L 549.91827 369.084314 
L 552.503883 369.157244 
L 552.873257 369.223408 
L 554.35075 368.942547 
L 554.720124 369.081523 
L 559.521977 369.061423 
L 560.260724 368.957019 
L 560.630097 368.959323 
L 560.99947 369.081522 
L 563.585084 368.985671 
L 563.954457 368.744975 
L 564.323831 369.06591 
L 565.431951 369.045472 
L 566.170697 368.952032 
L 567.278817 368.952032 
L 567.648191 369.069043 
L 569.495057 368.919277 
L 569.864431 369.055999 
L 570.233804 368.952032 
L 569.495057 368.952032 
L 570.972551 368.952032 
L 571.711297 368.952032 
L 572.080671 368.778939 
L 572.450044 368.952032 
L 572.819417 368.787689 
L 573.188791 368.787689 
L 573.927538 368.981176 
L 575.035658 368.999387 
L 575.405031 369.143654 
L 575.774404 368.999387 
L 576.143778 369.143654 
L 577.621271 368.96791 
L 578.729391 369.122418 
L 579.837511 369.224826 
L 580.206884 368.947188 
L 580.576258 369.075355 
L 580.945631 368.89124 
L 581.684378 368.734411 
L 582.053751 368.847334 
L 582.423124 366.978829 
L 582.792498 363.25482 
L 583.531244 363.25482 
L 583.900618 368.155196 
L 584.269991 368.478301 
L 584.639365 368.599044 
L 585.378111 368.980486 
L 585.747485 368.980486 
L 586.116858 369.103293 
L 587.963725 369.077792 
L 588.333098 369.074397 
L 588.702471 368.919771 
L 589.810591 368.919771 
L 590.179965 368.80722 
L 590.549338 369.031195 
L 591.657458 369.162019 
L 592.765578 369.162019 
L 593.134951 368.986115 
L 595.351192 369.011799 
L 597.198058 369.079457 
L 599.414298 368.980904 
L 600.891792 368.939141 
L 602.369285 369.040595 
L 603.477405 369.150865 
L 604.216152 368.952032 
L 604.954898 369.267334 
L 605.693645 369.228352 
L 606.801765 369.048465 
L 607.540512 369.175382 
L 610.126125 368.979254 
L 610.495499 369.119995 
L 611.972992 369.146437 
L 612.342365 368.96709 
L 613.450485 369.020924 
L 616.405472 369.075252 
L 616.774846 369.239982 
L 617.144219 369.075252 
L 619.360459 369.096873 
L 620.099206 368.947376 
L 621.946072 368.97281 
L 623.423566 368.970043 
L 623.792939 369.145579 
L 625.270432 369.158321 
L 625.639806 369.306036 
L 629.702913 369.255525 
L 630.441659 369.044508 
L 631.549779 369.069725 
L 631.919153 369.192831 
L 633.766019 369.168249 
L 634.135393 369.304653 
L 635.982259 369.259383 
L 641.892233 369.227277 
L 642.261606 369.117734 
L 643.000353 369.307325 
L 644.477846 369.270018 
L 644.84722 369.140827 
L 645.216593 369.140827 
L 645.585966 369.258586 
L 645.95534 369.140827 
L 646.324713 369.258586 
L 647.06346 369.162628 
L 647.432833 369.056575 
L 648.17158 369.254548 
L 649.2797 369.166677 
L 649.649073 368.991961 
L 650.018447 369.166677 
L 650.38782 368.966891 
L 651.126567 368.912056 
L 651.49594 369.0507 
L 655.189673 369.12046 
L 655.92842 369.277073 
L 658.514034 369.313084 
L 658.883407 369.093194 
L 659.622154 369.071994 
L 660.3609 369.160589 
L 662.207767 369.216826 
L 664.054634 369.154288 
L 665.162754 369.237772 
L 666.640247 369.132916 
L 668.117741 369.231094 
L 669.595234 369.256494 
L 669.964607 369.243763 
L 670.333981 369.03986 
L 675.135834 369.145758 
L 676.243954 369.265968 
L 676.982701 369.212415 
L 679.568314 369.281345 
L 684.739541 369.039633 
L 685.847661 369.194468 
L 690.649515 369.265612 
L 691.388261 369.31388 
L 692.496381 369.174799 
L 695.820741 369.249168 
L 696.559488 369.291137 
L 696.928861 369.093153 
L 697.667608 369.076413 
L 698.036981 368.816024 
L 699.514475 368.876467 
L 700.622595 369.149788 
L 701.361342 368.972594 
L 701.730715 369.259132 
L 702.100088 369.056694 
L 705.793822 369.142799 
L 706.901942 369.185364 
L 707.271315 369.185364 
L 708.010062 368.909965 
L 709.487555 368.960792 
L 709.856929 369.235346 
L 711.703795 369.170688 
L 712.073169 369.022382 
L 713.181289 368.959955 
L 713.550662 369.142594 
L 714.289409 369.23391 
L 715.028155 369.290939 
L 717.244395 369.114451 
L 718.352515 369.166492 
L 719.091262 369.151904 
L 719.460635 369.024296 
L 725.001236 369.078939 
L 725.370609 369.164222 
L 726.478729 369.124965 
L 727.217476 369.226815 
L 727.956222 369.262462 
L 728.694969 369.116635 
L 729.803089 369.199492 
L 730.172462 368.994145 
L 731.649956 369.076737 
L 732.388703 369.187307 
L 739.776169 369.095241 
L 740.145543 368.986073 
L 740.514916 369.206896 
L 741.623036 369.206896 
L 741.99241 369.006048 
L 743.10053 369.006048 
L 743.469903 368.783885 
L 744.578023 368.885476 
L 745.31677 368.943946 
L 745.686143 369.10249 
L 746.794263 369.190293 
L 747.163636 369.284635 
L 747.163636 369.284635 
" style="fill:none;stroke:#1f77b4;stroke-linecap:square;stroke-width:1.5;"/>
   </g>
   <g id="line2d_17">
    <path clip-path="url(#p6582b67254)" d="M 138.436364 364.372313 
L 138.805737 364.888088 
L 138.436364 363.167879 
L 139.544484 356.373486 
L 139.913857 360.119414 
L 140.28323 360.783542 
L 140.652604 345.290836 
L 141.021977 353.369253 
L 141.39135 341.583692 
L 141.021977 351.515681 
L 141.760724 356.481675 
L 142.130097 353.030384 
L 142.49947 351.304738 
L 142.868844 360.254299 
L 143.238217 364.93943 
L 143.60759 365.171646 
L 143.976964 366.112683 
L 144.346337 366.525147 
L 144.715711 367.795343 
L 145.085084 365.830343 
L 145.454457 367.543502 
L 146.193204 358.561297 
L 146.562577 360.004484 
L 146.931951 344.901307 
L 147.301324 353.174488 
L 147.670697 341.486309 
L 148.040071 358.270585 
L 148.409444 359.859127 
L 148.778817 362.631495 
L 149.148191 364.017679 
L 149.517564 363.941511 
L 149.886937 366.3211 
L 150.256311 365.862481 
L 150.625684 367.436936 
L 151.364431 368.794871 
L 151.733804 366.330107 
L 152.103177 365.866985 
L 152.472551 364.866164 
L 152.841924 365.135013 
L 153.211297 367.183752 
L 153.580671 368.119963 
L 153.950044 360.497941 
L 154.319417 360.972806 
L 154.688791 362.419074 
L 155.058164 346.108602 
L 155.427538 357.324511 
L 155.796911 361.364187 
L 156.166284 362.614765 
L 156.535658 363.240054 
L 156.905031 365.623012 
L 157.274404 365.513437 
L 158.013151 368.280535 
L 158.751898 355.07866 
L 159.121271 360.241261 
L 159.490644 354.910177 
L 159.860018 359.38776 
L 160.598764 364.89243 
L 160.968138 365.148146 
L 161.337511 366.915609 
L 161.706884 366.159736 
L 162.076258 365.781799 
L 162.445631 364.823571 
L 162.815004 366.753321 
L 163.184378 367.973268 
L 163.553751 366.688565 
L 163.923124 348.243348 
L 164.292498 343.310868 
L 164.661871 353.588105 
L 165.031244 341.693118 
L 165.400618 352.77923 
L 166.139365 362.479579 
L 166.508738 363.941721 
L 166.878111 363.903532 
L 167.247485 364.653697 
L 167.616858 366.675878 
L 167.986231 367.203513 
L 168.355605 365.534428 
L 168.724978 364.699886 
L 169.094351 359.744422 
L 169.463725 362.574142 
L 169.833098 358.68155 
L 170.202471 360.363193 
L 170.571845 362.883528 
L 170.941218 361.25735 
L 171.310591 362.919698 
L 171.679965 360.064868 
L 172.049338 364.683156 
L 172.418711 366.047235 
L 172.788085 362.208933 
L 173.157458 361.052421 
L 173.526831 282.785561 
L 174.265578 356.723673 
L 174.634951 361.573278 
L 175.004325 342.239036 
L 175.373698 353.05219 
L 175.743071 355.369337 
L 176.112445 356.527911 
L 176.851192 364.92407 
L 177.220565 366.870993 
L 177.959312 364.247303 
L 178.328685 364.056323 
L 178.698058 284.287512 
L 179.067432 322.867591 
L 179.436805 343.366467 
L 179.806178 354.385165 
L 180.175552 359.125254 
L 180.544925 361.495299 
L 180.914298 362.405585 
L 181.283672 352.146041 
L 181.653045 357.884213 
L 182.022418 320.973648 
L 182.391792 255.276691 
L 182.761165 310.903106 
L 183.130538 330.515835 
L 183.499912 343.965432 
L 183.869285 311.695424 
L 184.238658 334.877362 
L 184.608032 349.278684 
L 184.977405 342.835234 
L 185.346778 356.066179 
L 186.085525 364.520558 
L 186.454898 364.949469 
L 187.193645 365.176666 
L 187.563019 366.976835 
L 187.932392 366.190349 
L 188.301765 360.095985 
L 187.932392 357.048803 
L 188.301765 360.457073 
L 189.040512 362.161208 
L 189.409885 365.16338 
L 189.779259 364.514362 
L 190.148632 366.719164 
L 190.518005 365.292254 
L 190.887379 364.606701 
L 191.256752 364.236022 
L 191.626125 364.050683 
L 191.995499 364.727273 
L 191.626125 365.065567 
L 192.364872 365.234715 
L 192.734245 367.152787 
L 193.103619 366.278325 
L 193.472992 365.071834 
L 193.842365 340.003549 
L 194.211739 354.447785 
L 194.950485 363.927312 
L 195.319859 364.322936 
L 195.689232 366.46255 
L 196.058605 364.508235 
L 196.427979 364.956049 
L 196.797352 366.755424 
L 197.166726 365.310384 
L 197.536099 364.587863 
L 197.905472 366.57611 
L 198.274846 363.536863 
L 198.644219 365.977484 
L 199.013592 367.577191 
L 199.382966 366.490527 
L 199.752339 367.581803 
L 200.121712 366.492833 
L 200.491086 367.87361 
L 200.860459 365.869477 
L 201.229832 365.63667 
L 201.968579 368.649871 
L 202.337952 366.257607 
L 202.707326 365.061475 
L 203.076699 365.232669 
L 203.446072 366.965364 
L 203.815446 366.184613 
L 204.184819 367.525072 
L 204.554192 366.464467 
L 204.923566 367.568773 
L 205.292939 354.727635 
L 205.662312 361.61457 
L 206.031686 364.136154 
L 206.401059 361.253393 
L 206.031686 363.328628 
L 206.770432 366.144534 
L 207.139806 365.004938 
L 207.509179 365.474296 
L 207.878553 367.078684 
L 208.247926 367.875881 
L 208.617299 365.870612 
L 208.986673 364.738521 
L 209.356046 365.071192 
L 209.725419 366.245968 
L 210.464166 364.639675 
L 210.833539 366.972391 
L 211.572286 365.418867 
L 211.941659 366.79221 
L 212.311033 367.687835 
L 212.680406 341.050386 
L 213.049779 352.238323 
L 213.419153 359.604687 
L 213.788526 361.735015 
L 214.157899 337.79924 
L 214.896646 363.061385 
L 215.266019 362.740376 
L 214.896646 365.76102 
L 215.635393 367.22954 
L 216.004766 365.547441 
L 216.374139 367.334298 
L 216.743513 340.873618 
L 217.112886 357.293205 
L 217.482259 363.775162 
L 217.851633 365.253656 
L 218.221006 366.112353 
L 218.59038 361.384317 
L 218.959753 310.425068 
L 219.329126 337.145206 
L 219.6985 352.058128 
L 220.067873 346.972312 
L 220.437246 357.067241 
L 220.80662 355.388293 
L 221.175993 359.626818 
L 221.545366 361.746081 
L 221.91474 365.51165 
L 223.02286 368.128123 
L 223.392233 368.413091 
L 223.761606 364.490804 
L 224.13098 353.18865 
L 224.500353 358.526997 
L 224.869726 361.19617 
L 225.608473 363.967309 
L 225.977846 352.050087 
L 226.34722 356.584037 
L 225.977846 358.851012 
L 226.716593 361.716528 
L 227.085966 365.029522 
L 227.45534 366.815843 
L 228.194086 368.154104 
L 228.56346 368.607767 
L 228.932833 368.857885 
L 229.67158 365.498109 
L 230.040953 367.098084 
L 230.410327 362.745096 
L 230.7797 364.074479 
L 231.149073 361.222555 
L 231.518447 359.318792 
L 231.88782 360.676282 
L 232.257193 364.468698 
L 232.626567 361.419664 
L 232.99594 362.431169 
L 233.365313 363.917516 
L 233.734687 358.556969 
L 234.10406 363.261214 
L 234.473433 363.563278 
L 234.842807 366.385351 
L 235.21218 364.794923 
L 235.581553 366.867234 
L 235.950927 368.14973 
L 236.3203 355.018113 
L 236.689673 362.01699 
L 237.059047 66.96 
L 237.42842 215.412672 
L 238.167167 303.39965 
L 238.53654 333.632497 
L 238.905914 349.51818 
L 239.275287 356.691761 
L 240.014034 336.162702 
L 239.275287 325.898172 
L 240.383407 292.681996 
L 240.75278 303.547466 
L 241.122154 308.980202 
L 241.491527 337.975626 
L 241.8609 350.645749 
L 242.230274 358.024806 
L 242.599647 360.945074 
L 242.96902 362.405209 
L 243.338394 364.782265 
L 243.707767 365.169322 
L 244.07714 367.099185 
L 244.446514 340.756061 
L 244.815887 300.393549 
L 245.18526 293.666464 
L 245.924007 145.952667 
L 246.29338 210.77026 
L 247.032127 282.498141 
L 247.4015 325.052282 
L 247.770874 346.958907 
L 248.140247 348.60346 
L 248.50962 337.423723 
L 248.878994 346.688698 
L 249.248367 347.825642 
L 249.617741 349.931932 
L 249.987114 357.824271 
L 250.356487 361.996724 
L 250.725861 362.931034 
L 251.095234 363.398188 
L 251.464607 363.631766 
L 252.203354 359.627521 
L 252.572727 227.125993 
L 252.942101 295.495668 
L 253.311474 329.680506 
L 253.680847 346.772924 
L 254.050221 330.592931 
L 254.419594 349.922489 
L 254.788967 359.136116 
L 255.158341 363.031255 
L 255.527714 346.779504 
L 255.897087 349.827712 
L 256.266461 359.47747 
L 256.635834 364.409954 
L 257.005207 339.411445 
L 257.374581 345.071735 
L 257.743954 354.468539 
L 258.113327 353.42651 
L 258.482701 224.025488 
L 258.852074 294.500553 
L 259.221447 325.55037 
L 259.590821 292.508095 
L 259.960194 328.186719 
L 260.329568 345.189879 
L 260.698941 356.817335 
L 261.068314 349.351915 
L 261.437688 356.608629 
L 262.176434 364.236597 
L 262.545808 364.582716 
L 262.915181 366.602416 
L 263.284554 364.549611 
L 263.653928 357.064352 
L 264.023301 343.980712 
L 264.392674 337.164157 
L 264.762048 352.662483 
L 265.131421 355.516557 
L 265.870168 363.995071 
L 266.239541 354.44965 
L 266.608914 361.514453 
L 266.978288 362.689898 
L 267.347661 363.277621 
L 267.717034 366.255253 
L 268.086408 365.060298 
L 268.455781 361.715465 
L 268.825154 351.80098 
L 269.194528 357.833162 
L 269.563901 349.859829 
L 269.933274 356.862586 
L 270.302648 360.363965 
L 270.672021 337.388451 
L 271.041395 350.626897 
L 271.410768 358.573642 
L 272.149515 363.682751 
L 272.518888 362.688437 
L 272.888261 365.631766 
L 273.257635 366.77573 
L 273.627008 365.320537 
L 273.996381 366.087419 
L 274.365755 364.976381 
L 274.735128 365.973715 
L 275.104501 361.64508 
L 275.473875 362.755212 
L 275.104501 363.332082 
L 275.843248 365.654288 
L 276.212621 360.638782 
L 276.581995 362.709955 
L 276.951368 361.304058 
L 275.473875 362.584701 
L 277.320741 364.229613 
L 277.690115 361.300122 
L 278.059488 359.835377 
L 278.428861 361.85036 
L 278.798235 365.258243 
L 279.167608 365.105907 
L 279.536981 364.485625 
L 279.906355 364.378992 
L 280.275728 364.734709 
L 280.645102 364.695226 
L 281.014475 339.274053 
L 281.383848 351.499691 
L 281.753222 357.682517 
L 282.122595 360.77393 
L 282.491968 362.642855 
L 282.861342 365.829386 
L 283.230715 364.847365 
L 283.600088 339.630151 
L 283.969462 354.375653 
L 284.338835 359.120498 
L 284.708208 336.766718 
L 285.077582 350.31603 
L 285.816328 362.563896 
L 286.185702 363.214619 
L 286.555075 366.13772 
L 286.924448 365.001532 
L 287.293822 366.430757 
L 287.663195 365.14805 
L 288.032568 359.011985 
L 288.401942 361.438664 
L 289.140688 364.767388 
L 289.510062 365.408688 
L 289.879435 364.040588 
L 290.248808 363.781698 
L 290.987555 363.844432 
L 291.356929 366.368674 
L 291.726302 356.112538 
L 292.465049 361.565634 
L 292.834422 337.989286 
L 293.203795 353.284377 
L 293.573169 358.272651 
L 294.311915 363.083534 
L 294.681289 361.929051 
L 295.050662 338.170994 
L 295.420035 351.652174 
L 295.789409 337.023987 
L 296.158782 350.444665 
L 296.897529 362.063027 
L 297.266902 362.964185 
L 296.528155 364.453535 
L 297.636275 364.159439 
L 298.005649 344.7809 
L 298.375022 356.372694 
L 298.744395 361.909635 
L 299.113769 362.887489 
L 299.483142 365.461759 
L 299.852515 366.923169 
L 300.221889 366.163516 
L 300.591262 363.640751 
L 300.960635 363.753047 
L 301.330009 366.162992 
L 301.699382 367.497355 
L 302.068756 364.582407 
L 302.807502 367.06273 
L 303.176876 365.393592 
L 303.546249 367.178697 
L 303.915622 361.385386 
L 304.284996 364.235883 
L 304.654369 364.196306 
L 304.284996 364.030825 
L 305.023742 362.849142 
L 305.393116 363.357242 
L 305.762489 365.372755 
L 306.131862 364.619049 
L 306.501236 366.637101 
L 306.870609 367.708364 
L 307.239982 365.786854 
L 307.609356 365.595358 
L 307.978729 367.191524 
L 308.348102 361.4074 
L 308.717476 358.878565 
L 309.456222 361.371954 
L 308.717476 362.36798 
L 309.825596 363.885921 
L 310.194969 346.022819 
L 310.564342 354.944081 
L 310.933716 361.114529 
L 311.303089 362.489936 
L 311.672462 365.210683 
L 312.041836 364.538013 
L 312.411209 346.350431 
L 312.780583 355.877147 
L 313.519329 364.284643 
L 313.888703 364.074993 
L 314.258076 335.7034 
L 314.627449 347.037016 
L 314.996823 303.251418 
L 315.735569 335.853686 
L 316.104943 297.659753 
L 316.474316 332.136226 
L 316.843689 355.933064 
L 317.213063 361.882273 
L 317.582436 362.873808 
L 317.951809 363.369576 
L 318.321183 365.896516 
L 318.690556 367.208435 
L 319.059929 367.813923 
L 319.429303 365.839633 
L 319.798676 367.246451 
L 320.168049 368.082609 
L 320.906796 364.044338 
L 322.014916 363.887717 
L 322.384289 363.87653 
L 322.753663 364.420408 
L 323.123036 364.142876 
L 323.49241 365.607291 
L 323.861783 360.615283 
L 324.60053 364.675053 
L 324.969903 364.270198 
L 325.339276 366.385852 
L 325.70865 365.125598 
L 326.078023 366.913144 
L 326.447396 365.389243 
L 326.81677 366.977441 
L 327.186143 365.421392 
L 327.92489 364.643368 
L 328.294263 366.156371 
L 328.663636 365.010857 
L 329.03301 364.4381 
L 329.402383 366.223585 
L 329.771756 365.044464 
L 330.14113 357.792868 
L 329.771756 360.829106 
L 330.510503 354.105157 
L 330.879876 361.070592 
L 331.24925 362.467968 
L 331.618623 365.232849 
L 331.987996 366.634438 
L 332.35737 365.249891 
L 332.726743 364.557617 
L 333.46549 364.21148 
L 333.834863 352.300389 
L 334.57361 363.253161 
L 334.942983 332.465283 
L 335.68173 364.160604 
L 336.051103 366.340886 
L 336.420477 367.004037 
L 336.78985 358.772654 
L 337.159223 356.998232 
L 337.528597 360.431788 
L 337.89797 337.422362 
L 338.267343 352.971765 
L 338.636717 333.692351 
L 339.00609 349.548107 
L 339.744837 362.18805 
L 340.11421 344.258052 
L 340.483583 355.963713 
L 341.22233 362.430161 
L 341.591703 363.147752 
L 341.961077 339.06851 
L 342.33045 348.719571 
L 342.699823 338.434644 
L 343.069197 334.707728 
L 343.43857 349.286535 
L 343.807944 353.734926 
L 344.177317 356.511148 
L 344.916064 364.526888 
L 345.285437 364.196116 
L 345.65481 364.305465 
L 346.024184 351.340942 
L 346.393557 355.314156 
L 346.76293 361.930191 
L 347.132304 365.448883 
L 347.501677 364.657113 
L 347.87105 364.261228 
L 348.240424 366.596004 
L 348.609797 367.776758 
L 348.97917 366.59031 
L 349.348544 367.65818 
L 349.717917 365.761762 
L 350.08729 366.898895 
L 350.826037 366.330328 
L 351.19541 360.461728 
L 351.564784 362.163535 
L 351.934157 363.014439 
L 352.30353 355.392391 
L 353.042277 364.644941 
L 353.41165 353.265719 
L 353.781024 360.157609 
L 354.150397 364.438935 
L 354.519771 364.152139 
L 355.258517 367.273846 
L 355.627891 366.338854 
L 355.997264 358.130711 
L 356.366637 363.414376 
L 355.997264 363.63986 
L 356.736011 363.752601 
L 357.105384 366.022861 
L 357.474757 364.944102 
L 357.844131 358.046654 
L 358.213504 362.410671 
L 358.582877 362.967094 
L 358.952251 357.921507 
L 359.321624 363.547327 
L 359.690997 363.283665 
L 360.060371 365.749119 
L 360.429744 340.081028 
L 360.799117 351.973186 
L 361.168491 359.858574 
L 361.537864 364.39689 
L 361.907237 366.459029 
L 362.276611 367.351703 
L 362.645984 367.93772 
L 362.276611 368.091048 
L 363.015357 364.03837 
L 363.384731 352.962433 
L 363.754104 345.300676 
L 364.123477 356.140921 
L 364.492851 360.003132 
L 365.600971 365.857072 
L 365.970344 364.861207 
L 366.339718 356.121208 
L 366.709091 362.493369 
L 367.078464 365.728585 
L 367.817211 368.057654 
L 368.186584 361.613286 
L 368.555958 362.739315 
L 368.925331 365.572744 
L 369.294704 365.369181 
L 369.664078 345.111035 
L 370.033451 345.262925 
L 370.402824 356.834581 
L 370.772198 359.745132 
L 371.141571 364.140408 
L 371.880318 363.934109 
L 372.249691 365.911183 
L 372.619064 364.888263 
L 372.988438 366.439683 
L 373.357811 354.484503 
L 374.096558 362.959224 
L 375.204678 366.484616 
L 375.574051 365.17498 
L 376.312798 367.054521 
L 377.051545 364.853159 
L 377.420918 366.502573 
L 377.051545 367.327281 
L 377.790291 365.981823 
L 378.159665 362.91087 
L 378.529038 364.519371 
L 379.267785 348.149092 
L 380.006531 363.040665 
L 380.375905 363.453004 
L 380.745278 365.28516 
L 381.114651 364.575251 
L 381.484025 364.989557 
L 381.853398 339.701247 
L 382.222771 353.037523 
L 382.592145 360.592754 
L 383.330891 365.678726 
L 383.700265 364.772034 
L 384.069638 365.225381 
L 384.439011 361.798006 
L 384.808385 365.288817 
L 385.177758 364.221212 
L 385.547132 364.812537 
L 385.916505 364.33894 
L 386.285878 366.5185 
L 386.655252 365.961181 
L 386.285878 352.597278 
L 387.024625 359.973903 
L 387.393998 361.919623 
L 387.763372 364.617163 
L 388.132745 349.235242 
L 388.502118 353.802937 
L 388.871492 360.957097 
L 389.240865 337.685017 
L 389.610238 352.898137 
L 390.348985 362.998721 
L 390.718358 365.600053 
L 391.087732 364.732698 
L 391.457105 325.836038 
L 391.826478 344.850691 
L 392.195852 354.358017 
L 392.565225 359.11168 
L 392.934598 361.488512 
L 393.303972 358.555894 
L 394.042718 365.338969 
L 394.412092 366.715507 
L 394.781465 365.290425 
L 395.150838 356.335816 
L 395.889585 363.884977 
L 396.258959 363.87516 
L 396.628332 350.162924 
L 396.997705 357.014134 
L 397.367079 308.239976 
L 397.736452 336.05266 
L 398.105825 349.959001 
L 398.475199 332.185969 
L 398.844572 323.299453 
L 399.213945 344.351658 
L 399.583319 358.087438 
L 399.952692 336.250187 
L 400.322065 352.310102 
L 400.691439 358.856982 
L 401.430185 364.912863 
L 401.799559 358.894392 
L 402.907679 363.465212 
L 403.277052 363.665278 
L 403.646425 355.46868 
L 404.015799 359.667012 
L 404.385172 345.462873 
L 404.754545 355.213579 
L 405.123919 361.250079 
L 405.493292 364.792246 
L 405.862665 342.745182 
L 406.232039 349.206565 
L 406.601412 358.945385 
L 406.970786 361.405364 
L 407.340159 364.799803 
L 407.709532 366.955049 
L 408.078906 365.410196 
L 408.448279 353.648346 
L 408.817652 358.619477 
L 409.187026 349.978251 
L 409.556399 358.905998 
L 409.925772 363.664727 
L 410.295146 365.701419 
L 410.664519 367.090321 
L 411.033892 366.676004 
L 411.403266 365.270673 
L 411.772639 366.847065 
L 412.142012 365.356204 
L 412.511386 364.610774 
L 412.880759 367.669993 
L 413.250132 361.846684 
L 413.619506 364.667922 
L 413.988879 365.553275 
L 414.358252 364.115276 
L 414.727626 363.990309 
L 415.096999 362.161226 
L 415.466372 354.784734 
L 415.835746 359.050303 
L 415.466372 353.229272 
L 416.574492 361.068958 
L 416.943866 356.972439 
L 417.313239 362.067304 
L 417.682613 363.735583 
L 418.051986 345.94265 
L 418.790733 365.747438 
L 419.160106 309.859273 
L 419.529479 339.012413 
L 419.898853 342.769294 
L 420.268226 356.036056 
L 420.637599 335.224497 
L 421.006973 349.54492 
L 421.745719 362.975902 
L 421.376346 311.220861 
L 422.484466 323.917503 
L 422.853839 326.03361 
L 423.223213 320.223273 
L 423.592586 342.402659 
L 423.223213 328.407798 
L 423.961959 346.562909 
L 424.331333 330.487923 
L 424.700706 347.176633 
L 425.439453 326.093003 
L 425.808826 292.779411 
L 426.178199 325.300286 
L 426.547573 345.352074 
L 426.916946 356.931216 
L 427.28632 363.124652 
L 427.655693 349.758218 
L 428.025066 356.811781 
L 428.39444 357.408049 
L 429.133186 361.793127 
L 429.50256 363.598495 
L 429.871933 364.739704 
L 430.241306 364.302524 
L 431.7188 346.772674 
L 432.088173 355.204535 
L 433.196293 362.263929 
L 433.93504 365.011371 
L 434.304413 364.438357 
L 434.673786 366.508526 
L 435.04316 365.186934 
L 435.412533 367.137934 
L 436.15128 365.501639 
L 436.520653 367.099849 
L 436.890026 338.009037 
L 437.2594 331.705699 
L 437.628773 347.785521 
L 437.998147 303.62567 
L 438.36752 309.019304 
L 439.47564 354.262232 
L 439.845013 361.792326 
L 440.214387 364.493705 
L 440.58376 365.980388 
L 440.953133 364.922866 
L 441.322507 352.535882 
L 441.69188 358.200613 
L 442.061253 361.582449 
L 442.430627 362.723896 
L 442.8 363.29462 
L 443.169373 364.349241 
L 443.538747 348.65836 
L 443.90812 356.261852 
L 444.277493 360.063597 
L 445.385613 365.423168 
L 445.01624 364.644256 
L 446.12436 362.633727 
L 447.23248 364.659826 
L 447.601853 339.536382 
L 447.971227 353.07454 
L 448.709974 363.392946 
L 449.079347 365.447103 
L 449.44872 364.656223 
L 449.818094 362.781438 
L 450.187467 365.473495 
L 450.55684 364.669419 
L 450.926214 366.435752 
L 449.818094 340.424345 
L 451.295587 351.418306 
L 451.66496 357.641824 
L 452.403707 360.753584 
L 452.77308 363.585022 
L 453.142454 318.536645 
L 453.511827 341.200994 
L 454.250574 359.561082 
L 454.619947 364.280196 
L 454.98932 365.965718 
L 456.09744 340.189328 
L 456.466814 344.625382 
L 456.836187 355.354376 
L 457.20556 354.115148 
L 457.574934 341.132432 
L 457.944307 354.051741 
L 458.31368 333.957604 
L 458.683054 305.734166 
L 459.052427 332.395818 
L 459.421801 346.345925 
L 459.791174 355.105634 
L 460.160547 327.890896 
L 460.529921 345.87812 
L 460.899294 357.263826 
L 461.268667 361.333844 
L 461.638041 341.772658 
L 462.007414 273.14568 
L 462.376787 319.274771 
L 462.746161 344.190552 
L 463.115534 354.027947 
L 463.484907 306.746883 
L 463.854281 336.858967 
L 464.223654 352.485112 
L 464.593027 352.376383 
L 464.962401 359.437305 
L 465.331774 364.370816 
L 465.701147 364.11808 
L 466.070521 349.32476 
L 466.439894 304.39529 
L 466.809267 331.38296 
L 467.178641 295.42439 
L 467.548014 326.897511 
L 467.917387 345.381427 
L 468.286761 302.423623 
L 468.656134 308.41828 
L 469.025508 336.141812 
L 469.394881 344.212151 
L 469.764254 356.662582 
L 470.133628 324.376626 
L 470.503001 350.473114 
L 470.872374 357.169229 
L 471.241748 361.032415 
L 471.611121 362.448879 
L 471.980494 361.7603 
L 472.719241 363.697433 
L 473.088614 357.380049 
L 473.457988 363.041027 
L 473.827361 346.419579 
L 474.196734 339.993321 
L 474.566108 340.939908 
L 474.935481 312.683442 
L 474.196734 331.465728 
L 475.304854 343.434608 
L 475.674228 355.190197 
L 476.043601 359.52777 
L 476.782348 364.40234 
L 477.521094 363.999592 
L 477.890468 365.805066 
L 478.259841 364.835204 
L 478.629214 347.316667 
L 478.998588 357.050538 
L 479.367961 362.383672 
L 479.737335 352.135084 
L 480.106708 359.953336 
L 480.476081 361.90934 
L 480.845455 365.400548 
L 481.584201 364.057244 
L 481.953575 354.829742 
L 482.322948 360.116802 
L 482.692321 361.991073 
L 483.061695 351.938784 
L 483.431068 357.902064 
L 483.800441 360.883703 
L 484.169815 362.374523 
L 484.539188 363.119933 
L 484.908561 362.543084 
L 485.277935 363.562564 
L 485.647308 362.877802 
L 486.016681 363.371573 
L 486.386055 365.857086 
L 486.755428 364.861215 
L 487.124801 366.310434 
L 487.494175 367.010928 
L 487.863548 364.751297 
L 488.232921 360.008296 
L 488.602295 309.737058 
L 489.341041 349.461096 
L 489.710415 358.311633 
L 489.341041 361.853216 
L 490.079788 362.85928 
L 490.818535 342.443335 
L 491.557282 353.919067 
L 490.818535 343.216424 
L 491.926655 353.12198 
L 492.665402 363.338139 
L 493.034775 364.578882 
L 493.404148 359.16511 
L 494.142895 363.402308 
L 494.512268 363.633826 
L 494.881642 365.302438 
L 494.142895 364.58389 
L 494.881642 365.77747 
L 495.251015 367.289843 
L 495.620388 365.577593 
L 495.989762 366.531525 
L 496.359135 365.967694 
L 496.728508 353.927095 
L 497.097882 358.896219 
L 497.467255 361.380781 
L 497.836628 362.623062 
L 498.206002 342.062913 
L 498.575375 354.661539 
L 498.944748 334.537238 
L 499.314122 349.97055 
L 499.683495 332.191744 
L 500.052868 350.262375 
L 500.422242 315.450232 
L 500.791615 339.657787 
L 501.160989 352.791824 
L 501.530362 359.838392 
L 502.638482 365.32739 
L 503.377229 348.21127 
L 503.746602 357.961456 
L 504.115975 363.061337 
L 504.485349 365.611278 
L 504.854722 364.738311 
L 505.224095 358.588873 
L 505.593469 339.903011 
L 506.332215 357.228734 
L 506.701589 357.799683 
L 507.070962 361.963777 
L 507.440335 308.646726 
L 507.809709 311.529832 
L 508.179082 337.697587 
L 508.548455 350.781465 
L 508.917829 354.576048 
L 509.287202 360.687385 
L 509.656575 362.276364 
L 510.025949 363.070854 
L 510.395322 364.43598 
L 510.764695 365.249604 
L 511.134069 367.074675 
L 511.503442 366.239269 
L 511.872816 367.150736 
L 512.242189 366.277299 
L 512.611562 366.495391 
L 513.350309 365.965326 
L 513.719682 366.558026 
L 514.089056 354.222261 
L 514.458429 361.421172 
L 514.827802 363.412517 
L 515.197176 363.63893 
L 515.566549 364.833313 
L 515.935922 358.854616 
L 516.305296 361.35998 
L 516.674669 362.612661 
L 517.044042 365.969565 
L 517.413416 367.178885 
L 517.782789 367.684926 
L 517.413416 368.036566 
L 518.152162 366.720214 
L 518.521536 365.292779 
L 518.890909 364.579061 
L 519.260282 364.991462 
L 519.629656 364.786753 
L 519.999029 364.729701 
L 520.368402 364.297522 
L 521.107149 344.772871 
L 521.476523 224.332688 
L 521.845896 295.847333 
L 522.215269 331.604655 
L 522.584643 323.008796 
L 522.954016 342.77655 
L 523.323389 355.019694 
L 523.692763 360.816196 
L 524.062136 363.813792 
L 524.431509 345.432283 
L 524.800883 355.418073 
L 525.170256 360.410968 
L 525.539629 363.401939 
L 525.909003 363.633641 
L 526.278376 364.518752 
L 526.647749 364.961307 
L 527.017123 363.039647 
L 527.386496 362.078817 
L 527.755869 365.008913 
L 528.125243 366.268699 
L 527.755869 366.898592 
L 528.863989 364.623655 
L 529.233363 365.797353 
L 529.602736 356.89061 
L 529.972109 344.253443 
L 530.710856 362.183115 
L 531.080229 360.276873 
L 531.449603 363.649377 
L 531.818976 352.767936 
L 531.080229 355.569284 
L 532.557723 361.959238 
L 533.29647 291.773079 
L 533.665843 329.134453 
L 534.035216 351.819445 
L 534.773963 360.076819 
L 535.143336 362.740341 
L 535.51271 363.302842 
L 535.882083 338.85789 
L 536.251456 338.20102 
L 536.62083 350.456237 
L 536.990203 332.434587 
L 537.359576 337.160542 
L 537.72895 351.282202 
L 538.098323 359.222186 
L 538.467696 342.312273 
L 537.359576 350.341452 
L 538.83707 354.356042 
L 539.206443 343.668602 
L 539.575816 354.536232 
L 539.94519 334.474585 
L 540.314563 346.422608 
L 540.683936 352.39662 
L 540.314563 360.519643 
L 541.05331 359.445137 
L 541.422683 361.65524 
L 541.792056 362.760292 
L 542.530803 366.985103 
L 542.900177 367.336427 
L 543.26955 365.600885 
L 543.638923 353.743691 
L 544.008297 360.35737 
L 544.37767 364.034506 
L 544.747043 363.949924 
L 545.116417 366.562955 
L 545.48579 340.487946 
L 545.855163 345.657892 
L 546.224537 354.761618 
L 546.59391 359.31348 
L 546.963283 360.215734 
L 547.70203 363.409142 
L 548.071403 364.186714 
L 548.440777 364.026028 
L 548.81015 366.942106 
L 549.179523 365.403725 
L 549.548897 353.64511 
L 550.287643 356.007871 
L 551.02639 363.652419 
L 551.395763 366.11188 
L 551.765137 350.60406 
L 552.503883 328.631544 
L 552.873257 351.295129 
L 553.24263 358.365554 
L 553.612004 361.115448 
L 553.981377 348.753616 
L 554.35075 342.5727 
L 554.720124 351.673793 
L 555.089497 305.569806 
L 555.828244 347.458753 
L 556.197617 358.131893 
L 556.56699 356.744711 
L 556.936364 342.172478 
L 557.305737 354.8465 
L 557.67511 309.0445 
L 558.78323 353.36923 
L 559.152604 358.617287 
L 559.521977 362.010575 
L 559.89135 362.937959 
L 560.260724 365.489532 
L 561.368844 363.53344 
L 561.738217 363.9029 
L 562.10759 365.988706 
L 562.476964 367.431967 
L 562.846337 365.648655 
L 563.215711 367.329735 
L 563.585084 343.304257 
L 563.954457 339.49358 
L 564.693204 362.922571 
L 565.062577 363.393957 
L 565.431951 364.39891 
L 565.801324 346.63864 
L 566.170697 339.042592 
L 566.540071 351.453968 
L 566.909444 358.499125 
L 567.648191 363.194566 
L 568.017564 364.299214 
L 568.756311 339.633816 
L 569.125684 358.596557 
L 569.495057 361.23095 
L 570.233804 361.140712 
L 570.603177 310.303266 
L 569.495057 337.084304 
L 570.972551 344.154348 
L 571.711297 301.810084 
L 572.450044 357.684125 
L 572.819417 351.983195 
L 573.188791 360.322385 
L 573.558164 362.093864 
L 573.927538 343.615058 
L 574.296911 353.255373 
L 574.666284 358.560358 
L 575.405031 357.624984 
L 575.774404 336.018961 
L 576.143778 352.219874 
L 576.513151 358.811868 
L 577.251898 364.722333 
L 577.621271 364.293838 
L 577.990644 364.84885 
L 577.621271 353.190991 
L 578.360018 333.801964 
L 578.729391 350.951844 
L 579.098764 359.753105 
L 579.837511 363.606543 
L 580.206884 364.185273 
L 580.576258 352.487869 
L 580.945631 358.945866 
L 581.315004 361.763955 
L 581.684378 357.481547 
L 582.053751 348.157713 
L 582.423124 350.370889 
L 582.792498 353.358577 
L 583.161871 340.754147 
L 583.531244 304.041037 
L 583.900618 334.72245 
L 584.639365 355.662195 
L 585.378111 363.516626 
L 585.747485 363.690984 
L 586.116858 360.404795 
L 586.486231 362.135069 
L 586.855605 363.000206 
L 587.224978 364.202034 
L 587.594351 366.490831 
L 587.963725 348.844452 
L 588.702471 361.890732 
L 589.071845 365.243816 
L 589.441218 344.893924 
L 589.810591 356.246462 
L 590.179965 362.384879 
L 590.549338 365.693292 
L 590.918711 367.24049 
L 591.288085 365.552917 
L 591.657458 367.231293 
L 592.026831 367.899588 
L 592.396205 258.735586 
L 592.765578 286.323027 
L 593.134951 327.529341 
L 593.504325 327.839529 
L 593.873698 347.876804 
L 594.243071 357.60089 
L 594.612445 336.006914 
L 594.981818 325.209925 
L 595.351192 292.337872 
L 595.720565 330.23844 
L 596.089938 347.051892 
L 596.459312 357.021643 
L 596.828685 361.212753 
L 597.198058 361.540009 
L 597.567432 364.933914 
L 597.936805 364.399629 
L 597.567432 366.363723 
L 597.936805 365.114533 
L 598.306178 344.466494 
L 598.675552 355.814579 
L 599.044925 361.781628 
L 599.783672 364.113674 
L 600.153045 363.989509 
L 600.522418 350.883365 
L 600.891792 358.143614 
L 601.261165 363.154583 
L 601.630538 360.762607 
L 601.999912 362.313975 
L 602.369285 363.089659 
L 602.738658 365.921824 
L 603.108032 367.221496 
L 603.477405 367.959769 
L 603.846778 360.417844 
L 604.216152 364.58141 
L 604.954898 339.497173 
L 605.693645 365.26851 
L 606.063019 367.600802 
L 606.432392 366.502332 
L 606.801765 366.649917 
L 607.171139 365.25763 
L 607.909885 366.564518 
L 608.279259 367.492653 
L 608.648632 365.678998 
L 609.387379 367.450714 
L 609.756752 365.658029 
L 610.126125 366.987511 
L 610.495499 365.426427 
L 610.864872 367.200669 
L 611.234245 361.159903 
L 611.603619 362.231511 
L 611.972992 363.817687 
L 612.342365 363.998027 
L 613.081112 363.898514 
L 613.450485 350.344195 
L 614.189232 362.018809 
L 614.558605 366.021624 
L 615.297352 367.612448 
L 615.666726 366.508155 
L 616.036099 366.450533 
L 616.405472 367.436995 
L 617.144219 363.384578 
L 617.513592 364.888744 
L 617.882966 361.355227 
L 618.252339 351.620862 
L 618.621712 359.851538 
L 618.991086 360.680175 
L 619.360459 362.272759 
L 620.099206 365.993066 
L 620.468579 367.079309 
L 620.837952 366.241586 
L 621.207326 365.053465 
L 621.576699 364.670739 
L 622.315446 367.1196 
L 622.684819 367.07074 
L 623.054192 367.960168 
L 623.423566 365.912756 
L 623.792939 353.899626 
L 624.162312 354.761918 
L 624.531686 361.856975 
L 624.901059 360.079474 
L 625.270432 363.883613 
L 626.009179 364.643738 
L 626.378553 366.754634 
L 626.747926 313.110227 
L 627.117299 354.196293 
L 627.856046 366.691231 
L 628.225419 365.278287 
L 628.594793 364.571815 
L 628.964166 366.368684 
L 629.333539 365.566231 
L 629.702913 365.485047 
L 630.072286 364.675195 
L 630.441659 364.760315 
L 631.180406 364.312829 
L 631.549779 366.043935 
L 631.919153 364.409991 
L 632.288526 366.508804 
L 632.657899 353.879863 
L 633.027273 359.362649 
L 633.396646 361.613996 
L 633.766019 365.241726 
L 634.135393 364.209439 
L 634.504766 366.690506 
L 634.874139 340.551722 
L 635.243513 354.787063 
L 635.612886 359.326203 
L 635.982259 365.381757 
L 636.351633 367.041223 
L 636.721006 368.024526 
L 637.09038 367.043877 
L 637.459753 367.007463 
L 637.829126 367.991188 
L 638.1985 367.745257 
L 638.567873 368.266473 
L 638.937246 368.18412 
L 639.30662 366.024731 
L 639.675993 367.662872 
L 640.045366 368.422911 
L 640.41474 366.144127 
L 640.784113 367.373145 
L 641.153486 366.388504 
L 641.52286 365.896183 
L 641.892233 367.259346 
L 642.261606 366.331604 
L 642.63098 367.761156 
L 643.000353 367.724454 
L 643.369726 358.150655 
L 643.7391 361.007999 
L 644.108473 364.900795 
L 644.477846 365.152329 
L 644.84722 364.021208 
L 645.585966 367.181321 
L 645.95534 354.892933 
L 646.694086 360.148398 
L 647.06346 351.017447 
L 647.432833 359.8304 
L 647.802207 350.858448 
L 648.17158 357.361896 
L 648.540953 335.887416 
L 649.2797 363.169675 
L 649.649073 361.928549 
L 650.018447 347.073165 
L 650.38782 351.755408 
L 650.757193 360.837859 
L 651.126567 362.351601 
L 651.49594 365.518038 
L 651.865313 365.46095 
L 652.60406 356.421079 
L 653.342807 364.073274 
L 653.71218 363.969308 
L 654.081553 364.686585 
L 654.450927 366.374064 
L 654.8203 312.919942 
L 655.559047 352.354398 
L 655.92842 360.6591 
L 656.297793 362.262221 
L 656.667167 365.452787 
L 657.03654 367.237526 
L 657.405914 368.159331 
L 657.775287 366.012337 
L 658.14466 367.085834 
L 658.514034 340.749386 
L 658.883407 353.917611 
L 659.25278 361.259887 
L 659.622154 363.331875 
L 659.991527 364.116606 
L 660.3609 361.243619 
L 660.730274 364.157105 
L 661.099647 364.011224 
L 661.46902 366.314074 
L 661.838394 365.858968 
L 662.207767 357.10626 
L 662.57714 362.763524 
L 662.946514 365.426409 
L 663.315887 347.603643 
L 663.68526 358.15549 
L 664.054634 363.025144 
L 664.79338 363.760318 
L 665.9015 363.852215 
L 666.270874 352.869356 
L 667.00962 363.574507 
L 667.378994 366.398982 
L 667.748367 365.132163 
L 668.117741 367.069996 
L 668.487114 365.46767 
L 668.856487 360.543687 
L 669.225861 360.830837 
L 669.964607 363.875976 
L 670.333981 363.87066 
L 670.703354 361.120646 
L 671.442101 363.948428 
L 671.811474 366.05699 
L 672.180847 364.961167 
L 672.550221 312.213493 
L 672.919594 327.590125 
L 673.288967 293.527972 
L 673.658341 328.391396 
L 674.027714 348.236805 
L 674.397087 358.360022 
L 675.135834 365.884463 
L 675.505207 367.456485 
L 675.874581 365.660914 
L 676.243954 365.3126 
L 676.982701 363.74233 
L 677.352074 363.498575 
L 678.090821 363.773651 
L 678.460194 358.829145 
L 678.829568 361.347244 
L 679.198941 362.606294 
L 679.937688 347.066445 
L 680.307061 355.465894 
L 680.676434 360.434878 
L 681.415181 363.366078 
L 681.784554 366.553957 
L 682.153928 367.580656 
L 682.523301 367.014795 
L 682.892674 354.180843 
L 683.262048 359.792353 
L 683.631421 359.081492 
L 684.000794 350.483994 
L 684.370168 332.448466 
L 684.739541 350.781319 
L 685.108914 358.552993 
L 685.478288 361.209168 
L 685.847661 365.865766 
L 686.217034 340.139352 
L 686.955781 360.454771 
L 687.325154 364.602151 
L 687.694528 366.52321 
L 688.063901 367.639781 
L 688.802648 368.125278 
L 689.172021 355.005887 
L 689.541395 361.966644 
L 689.910768 362.915994 
L 690.280141 366.084643 
L 690.649515 364.974993 
L 691.018888 366.618053 
L 691.757635 368.145434 
L 692.127008 363.113439 
L 692.496381 365.878396 
L 692.865755 367.199871 
L 693.235128 367.816254 
L 693.604501 367.756283 
L 693.973875 365.810813 
L 694.343248 360.717044 
L 694.712621 364.64607 
L 695.081995 366.668297 
L 695.451368 366.63226 
L 695.820741 340.522598 
L 696.190115 346.757943 
L 696.559488 357.65478 
L 696.928861 362.818601 
L 697.298235 364.111232 
L 697.667608 363.333373 
L 698.036981 338.873155 
L 698.406355 351.369249 
L 698.775728 346.627873 
L 699.145102 304.021553 
L 699.514475 336.218506 
L 699.883848 352.178757 
L 700.622595 360.492253 
L 700.991968 337.452595 
L 701.361342 350.658969 
L 702.100088 363.905227 
L 702.469462 340.243738 
L 702.838835 352.054541 
L 703.208208 357.959942 
L 703.577582 349.923219 
L 703.946955 359.075172 
L 704.316328 309.270496 
L 704.685702 336.567919 
L 705.055075 350.216631 
L 705.424448 359.397663 
L 706.163195 363.517683 
L 706.532568 361.20581 
L 706.901942 362.535577 
L 707.271315 365.060797 
L 707.640688 364.46307 
L 708.010062 364.709319 
L 708.379435 364.287331 
L 708.748808 352.871493 
L 709.118182 360.777282 
L 709.487555 362.321313 
L 709.856929 339.451781 
L 710.226302 351.658562 
L 710.965049 363.400815 
L 711.703795 367.300004 
L 712.073169 365.582674 
L 712.442542 366.958362 
L 712.811915 367.586843 
L 713.181289 365.726093 
L 713.550662 366.156512 
L 713.920035 365.010927 
L 714.289409 367.099774 
L 714.658782 367.898917 
L 715.028155 365.88213 
L 715.397529 367.261216 
L 715.766902 357.876865 
L 716.136275 358.883367 
L 716.505649 361.374355 
L 716.875022 362.9782 
L 717.244395 363.421772 
L 717.983142 365.156101 
L 718.352515 364.510722 
L 718.721889 364.188033 
L 719.091262 364.026688 
L 719.460635 364.715275 
L 719.830009 364.290309 
L 720.199382 364.740844 
L 720.568756 364.303094 
L 721.307502 363.974781 
L 722.046249 363.892703 
L 722.415622 365.886706 
L 722.784996 367.17677 
L 723.523742 368.173635 
L 723.893116 366.788749 
L 724.631862 368.272996 
L 725.001236 366.069169 
L 725.370609 365.736516 
L 725.739982 357.675635 
L 726.109356 360.770489 
L 726.478729 364.978462 
L 726.848102 364.421902 
L 727.217476 358.648911 
L 727.586849 363.407232 
L 727.956222 365.575597 
L 728.325596 365.48973 
L 728.694969 354.269728 
L 729.064342 361.360783 
L 729.433716 363.239203 
L 729.803089 366.814515 
L 730.172462 367.282395 
L 730.541836 366.343129 
L 732.019329 364.367381 
L 732.388703 361.369006 
L 732.758076 362.617175 
L 733.127449 363.241259 
L 733.866196 363.959082 
L 734.235569 358.417501 
L 734.604943 363.224095 
L 734.974316 362.389687 
L 735.343689 364.911318 
L 735.713063 366.051204 
L 736.451809 364.025154 
L 736.821183 366.316546 
L 737.190556 365.860204 
L 737.559929 364.862774 
L 737.929303 361.117546 
L 738.298676 363.260704 
L 738.668049 362.083678 
L 739.037423 346.490375 
L 739.406796 336.09783 
L 740.145543 362.977855 
L 740.514916 365.206478 
L 740.884289 339.601764 
L 741.253663 348.835213 
L 741.623036 353.699963 
L 742.361783 336.910788 
L 742.731156 342.976386 
L 743.10053 350.966828 
L 743.469903 354.962049 
L 743.839276 356.704497 
L 744.20865 360.28492 
L 744.947396 363.755196 
L 745.31677 363.81027 
L 745.686143 365.072622 
L 746.055516 349.122428 
L 746.42489 354.039849 
L 747.163636 357.727915 
L 747.163636 357.727915 
" style="fill:none;stroke:#ff7f0e;stroke-linecap:square;stroke-width:1.5;"/>
   </g>
   <g id="patch_3">
    <path d="M 108 384.48 
L 108 51.84 
" style="fill:none;stroke:#000000;stroke-linecap:square;stroke-linejoin:miter;stroke-width:0.8;"/>
   </g>
   <g id="patch_4">
    <path d="M 777.6 384.48 
L 777.6 51.84 
" style="fill:none;stroke:#000000;stroke-linecap:square;stroke-linejoin:miter;stroke-width:0.8;"/>
   </g>
   <g id="patch_5">
    <path d="M 108 384.48 
L 777.6 384.48 
" style="fill:none;stroke:#000000;stroke-linecap:square;stroke-linejoin:miter;stroke-width:0.8;"/>
   </g>
   <g id="patch_6">
    <path d="M 108 51.84 
L 777.6 51.84 
" style="fill:none;stroke:#000000;stroke-linecap:square;stroke-linejoin:miter;stroke-width:0.8;"/>
   </g>
  </g>
 </g>
 <defs>
  <clipPath id="p6582b67254">
   <rect height="332.64" width="669.6" x="108" y="51.84"/>
  </clipPath>
 </defs>
</svg>
