<?xml version="1.0" encoding="utf-8" standalone="no"?>
<!DOCTYPE svg PUBLIC "-//W3C//DTD SVG 1.1//EN"
  "http://www.w3.org/Graphics/SVG/1.1/DTD/svg11.dtd">
<svg height="720pt" version="1.1" viewBox="0 0 1440 720" width="1440pt" xmlns="http://www.w3.org/2000/svg" xmlns:xlink="http://www.w3.org/1999/xlink">
 <metadata>
  <rdf:RDF xmlns:cc="http://creativecommons.org/ns#" xmlns:dc="http://purl.org/dc/elements/1.1/" xmlns:rdf="http://www.w3.org/1999/02/22-rdf-syntax-ns#">
   <cc:Work>
    <dc:type rdf:resource="http://purl.org/dc/dcmitype/StillImage"/>
    <dc:date>2022-01-06T21:34:55.625748</dc:date>
    <dc:format>image/svg+xml</dc:format>
    <dc:creator>
     <cc:Agent>
      <dc:title>Matplotlib v3.4.3, https://matplotlib.org/</dc:title>
     </cc:Agent>
    </dc:creator>
   </cc:Work>
  </rdf:RDF>
 </metadata>
 <defs>
  <style type="text/css">*{stroke-linecap:butt;stroke-linejoin:round;}</style>
 </defs>
 <g id="figure_1">
  <g id="patch_1">
   <path d="M 0 720 
L 1440 720 
L 1440 0 
L 0 0 
z
" style="fill:#ffffff;"/>
  </g>
  <g id="axes_1">
   <g id="patch_2">
    <path d="M 180 640.8 
L 1296 640.8 
L 1296 86.4 
L 180 86.4 
z
" style="fill:#ffffff;"/>
   </g>
   <g id="matplotlib.axis_1">
    <g id="xtick_1">
     <g id="line2d_1">
      <defs>
       <path d="M 0 0 
L 0 3.5 
" id="m77c06cf18e" style="stroke:#000000;stroke-width:0.8;"/>
      </defs>
      <g>
       <use style="stroke:#000000;stroke-width:0.8;" x="230.727273" xlink:href="#m77c06cf18e" y="640.8"/>
      </g>
     </g>
     <g id="text_1">
      <!-- 39000 -->
      <g transform="translate(214.821023 655.398438)scale(0.1 -0.1)">
       <defs>
        <path d="M 2597 2516 
Q 3050 2419 3304 2112 
Q 3559 1806 3559 1356 
Q 3559 666 3084 287 
Q 2609 -91 1734 -91 
Q 1441 -91 1130 -33 
Q 819 25 488 141 
L 488 750 
Q 750 597 1062 519 
Q 1375 441 1716 441 
Q 2309 441 2620 675 
Q 2931 909 2931 1356 
Q 2931 1769 2642 2001 
Q 2353 2234 1838 2234 
L 1294 2234 
L 1294 2753 
L 1863 2753 
Q 2328 2753 2575 2939 
Q 2822 3125 2822 3475 
Q 2822 3834 2567 4026 
Q 2313 4219 1838 4219 
Q 1578 4219 1281 4162 
Q 984 4106 628 3988 
L 628 4550 
Q 988 4650 1302 4700 
Q 1616 4750 1894 4750 
Q 2613 4750 3031 4423 
Q 3450 4097 3450 3541 
Q 3450 3153 3228 2886 
Q 3006 2619 2597 2516 
z
" id="DejaVuSans-33" transform="scale(0.015625)"/>
        <path d="M 703 97 
L 703 672 
Q 941 559 1184 500 
Q 1428 441 1663 441 
Q 2288 441 2617 861 
Q 2947 1281 2994 2138 
Q 2813 1869 2534 1725 
Q 2256 1581 1919 1581 
Q 1219 1581 811 2004 
Q 403 2428 403 3163 
Q 403 3881 828 4315 
Q 1253 4750 1959 4750 
Q 2769 4750 3195 4129 
Q 3622 3509 3622 2328 
Q 3622 1225 3098 567 
Q 2575 -91 1691 -91 
Q 1453 -91 1209 -44 
Q 966 3 703 97 
z
M 1959 2075 
Q 2384 2075 2632 2365 
Q 2881 2656 2881 3163 
Q 2881 3666 2632 3958 
Q 2384 4250 1959 4250 
Q 1534 4250 1286 3958 
Q 1038 3666 1038 3163 
Q 1038 2656 1286 2365 
Q 1534 2075 1959 2075 
z
" id="DejaVuSans-39" transform="scale(0.015625)"/>
        <path d="M 2034 4250 
Q 1547 4250 1301 3770 
Q 1056 3291 1056 2328 
Q 1056 1369 1301 889 
Q 1547 409 2034 409 
Q 2525 409 2770 889 
Q 3016 1369 3016 2328 
Q 3016 3291 2770 3770 
Q 2525 4250 2034 4250 
z
M 2034 4750 
Q 2819 4750 3233 4129 
Q 3647 3509 3647 2328 
Q 3647 1150 3233 529 
Q 2819 -91 2034 -91 
Q 1250 -91 836 529 
Q 422 1150 422 2328 
Q 422 3509 836 4129 
Q 1250 4750 2034 4750 
z
" id="DejaVuSans-30" transform="scale(0.015625)"/>
       </defs>
       <use xlink:href="#DejaVuSans-33"/>
       <use x="63.623047" xlink:href="#DejaVuSans-39"/>
       <use x="127.246094" xlink:href="#DejaVuSans-30"/>
       <use x="190.869141" xlink:href="#DejaVuSans-30"/>
       <use x="254.492188" xlink:href="#DejaVuSans-30"/>
      </g>
     </g>
    </g>
    <g id="xtick_2">
     <g id="line2d_2">
      <g>
       <use style="stroke:#000000;stroke-width:0.8;" x="384.632833" xlink:href="#m77c06cf18e" y="640.8"/>
      </g>
     </g>
     <g id="text_2">
      <!-- 39250 -->
      <g transform="translate(368.726583 655.398438)scale(0.1 -0.1)">
       <defs>
        <path d="M 1228 531 
L 3431 531 
L 3431 0 
L 469 0 
L 469 531 
Q 828 903 1448 1529 
Q 2069 2156 2228 2338 
Q 2531 2678 2651 2914 
Q 2772 3150 2772 3378 
Q 2772 3750 2511 3984 
Q 2250 4219 1831 4219 
Q 1534 4219 1204 4116 
Q 875 4013 500 3803 
L 500 4441 
Q 881 4594 1212 4672 
Q 1544 4750 1819 4750 
Q 2544 4750 2975 4387 
Q 3406 4025 3406 3419 
Q 3406 3131 3298 2873 
Q 3191 2616 2906 2266 
Q 2828 2175 2409 1742 
Q 1991 1309 1228 531 
z
" id="DejaVuSans-32" transform="scale(0.015625)"/>
        <path d="M 691 4666 
L 3169 4666 
L 3169 4134 
L 1269 4134 
L 1269 2991 
Q 1406 3038 1543 3061 
Q 1681 3084 1819 3084 
Q 2600 3084 3056 2656 
Q 3513 2228 3513 1497 
Q 3513 744 3044 326 
Q 2575 -91 1722 -91 
Q 1428 -91 1123 -41 
Q 819 9 494 109 
L 494 744 
Q 775 591 1075 516 
Q 1375 441 1709 441 
Q 2250 441 2565 725 
Q 2881 1009 2881 1497 
Q 2881 1984 2565 2268 
Q 2250 2553 1709 2553 
Q 1456 2553 1204 2497 
Q 953 2441 691 2322 
L 691 4666 
z
" id="DejaVuSans-35" transform="scale(0.015625)"/>
       </defs>
       <use xlink:href="#DejaVuSans-33"/>
       <use x="63.623047" xlink:href="#DejaVuSans-39"/>
       <use x="127.246094" xlink:href="#DejaVuSans-32"/>
       <use x="190.869141" xlink:href="#DejaVuSans-35"/>
       <use x="254.492188" xlink:href="#DejaVuSans-30"/>
      </g>
     </g>
    </g>
    <g id="xtick_3">
     <g id="line2d_3">
      <g>
       <use style="stroke:#000000;stroke-width:0.8;" x="538.538394" xlink:href="#m77c06cf18e" y="640.8"/>
      </g>
     </g>
     <g id="text_3">
      <!-- 39500 -->
      <g transform="translate(522.632144 655.398438)scale(0.1 -0.1)">
       <use xlink:href="#DejaVuSans-33"/>
       <use x="63.623047" xlink:href="#DejaVuSans-39"/>
       <use x="127.246094" xlink:href="#DejaVuSans-35"/>
       <use x="190.869141" xlink:href="#DejaVuSans-30"/>
       <use x="254.492188" xlink:href="#DejaVuSans-30"/>
      </g>
     </g>
    </g>
    <g id="xtick_4">
     <g id="line2d_4">
      <g>
       <use style="stroke:#000000;stroke-width:0.8;" x="692.443954" xlink:href="#m77c06cf18e" y="640.8"/>
      </g>
     </g>
     <g id="text_4">
      <!-- 39750 -->
      <g transform="translate(676.537704 655.398438)scale(0.1 -0.1)">
       <defs>
        <path d="M 525 4666 
L 3525 4666 
L 3525 4397 
L 1831 0 
L 1172 0 
L 2766 4134 
L 525 4134 
L 525 4666 
z
" id="DejaVuSans-37" transform="scale(0.015625)"/>
       </defs>
       <use xlink:href="#DejaVuSans-33"/>
       <use x="63.623047" xlink:href="#DejaVuSans-39"/>
       <use x="127.246094" xlink:href="#DejaVuSans-37"/>
       <use x="190.869141" xlink:href="#DejaVuSans-35"/>
       <use x="254.492188" xlink:href="#DejaVuSans-30"/>
      </g>
     </g>
    </g>
    <g id="xtick_5">
     <g id="line2d_5">
      <g>
       <use style="stroke:#000000;stroke-width:0.8;" x="846.349515" xlink:href="#m77c06cf18e" y="640.8"/>
      </g>
     </g>
     <g id="text_5">
      <!-- 40000 -->
      <g transform="translate(830.443265 655.398438)scale(0.1 -0.1)">
       <defs>
        <path d="M 2419 4116 
L 825 1625 
L 2419 1625 
L 2419 4116 
z
M 2253 4666 
L 3047 4666 
L 3047 1625 
L 3713 1625 
L 3713 1100 
L 3047 1100 
L 3047 0 
L 2419 0 
L 2419 1100 
L 313 1100 
L 313 1709 
L 2253 4666 
z
" id="DejaVuSans-34" transform="scale(0.015625)"/>
       </defs>
       <use xlink:href="#DejaVuSans-34"/>
       <use x="63.623047" xlink:href="#DejaVuSans-30"/>
       <use x="127.246094" xlink:href="#DejaVuSans-30"/>
       <use x="190.869141" xlink:href="#DejaVuSans-30"/>
       <use x="254.492188" xlink:href="#DejaVuSans-30"/>
      </g>
     </g>
    </g>
    <g id="xtick_6">
     <g id="line2d_6">
      <g>
       <use style="stroke:#000000;stroke-width:0.8;" x="1000.255075" xlink:href="#m77c06cf18e" y="640.8"/>
      </g>
     </g>
     <g id="text_6">
      <!-- 40250 -->
      <g transform="translate(984.348825 655.398438)scale(0.1 -0.1)">
       <use xlink:href="#DejaVuSans-34"/>
       <use x="63.623047" xlink:href="#DejaVuSans-30"/>
       <use x="127.246094" xlink:href="#DejaVuSans-32"/>
       <use x="190.869141" xlink:href="#DejaVuSans-35"/>
       <use x="254.492188" xlink:href="#DejaVuSans-30"/>
      </g>
     </g>
    </g>
    <g id="xtick_7">
     <g id="line2d_7">
      <g>
       <use style="stroke:#000000;stroke-width:0.8;" x="1154.160635" xlink:href="#m77c06cf18e" y="640.8"/>
      </g>
     </g>
     <g id="text_7">
      <!-- 40500 -->
      <g transform="translate(1138.254385 655.398438)scale(0.1 -0.1)">
       <use xlink:href="#DejaVuSans-34"/>
       <use x="63.623047" xlink:href="#DejaVuSans-30"/>
       <use x="127.246094" xlink:href="#DejaVuSans-35"/>
       <use x="190.869141" xlink:href="#DejaVuSans-30"/>
       <use x="254.492188" xlink:href="#DejaVuSans-30"/>
      </g>
     </g>
    </g>
   </g>
   <g id="matplotlib.axis_2">
    <g id="ytick_1">
     <g id="line2d_8">
      <defs>
       <path d="M 0 0 
L -3.5 0 
" id="mfa40b1586c" style="stroke:#000000;stroke-width:0.8;"/>
      </defs>
      <g>
       <use style="stroke:#000000;stroke-width:0.8;" x="180" xlink:href="#mfa40b1586c" y="615.616099"/>
      </g>
     </g>
     <g id="text_8">
      <!-- 0 -->
      <g transform="translate(166.6375 619.415317)scale(0.1 -0.1)">
       <use xlink:href="#DejaVuSans-30"/>
      </g>
     </g>
    </g>
    <g id="ytick_2">
     <g id="line2d_9">
      <g>
       <use style="stroke:#000000;stroke-width:0.8;" x="180" xlink:href="#mfa40b1586c" y="514.046821"/>
      </g>
     </g>
     <g id="text_9">
      <!-- 2 -->
      <g transform="translate(166.6375 517.84604)scale(0.1 -0.1)">
       <use xlink:href="#DejaVuSans-32"/>
      </g>
     </g>
    </g>
    <g id="ytick_3">
     <g id="line2d_10">
      <g>
       <use style="stroke:#000000;stroke-width:0.8;" x="180" xlink:href="#mfa40b1586c" y="412.477544"/>
      </g>
     </g>
     <g id="text_10">
      <!-- 4 -->
      <g transform="translate(166.6375 416.276763)scale(0.1 -0.1)">
       <use xlink:href="#DejaVuSans-34"/>
      </g>
     </g>
    </g>
    <g id="ytick_4">
     <g id="line2d_11">
      <g>
       <use style="stroke:#000000;stroke-width:0.8;" x="180" xlink:href="#mfa40b1586c" y="310.908267"/>
      </g>
     </g>
     <g id="text_11">
      <!-- 6 -->
      <g transform="translate(166.6375 314.707485)scale(0.1 -0.1)">
       <defs>
        <path d="M 2113 2584 
Q 1688 2584 1439 2293 
Q 1191 2003 1191 1497 
Q 1191 994 1439 701 
Q 1688 409 2113 409 
Q 2538 409 2786 701 
Q 3034 994 3034 1497 
Q 3034 2003 2786 2293 
Q 2538 2584 2113 2584 
z
M 3366 4563 
L 3366 3988 
Q 3128 4100 2886 4159 
Q 2644 4219 2406 4219 
Q 1781 4219 1451 3797 
Q 1122 3375 1075 2522 
Q 1259 2794 1537 2939 
Q 1816 3084 2150 3084 
Q 2853 3084 3261 2657 
Q 3669 2231 3669 1497 
Q 3669 778 3244 343 
Q 2819 -91 2113 -91 
Q 1303 -91 875 529 
Q 447 1150 447 2328 
Q 447 3434 972 4092 
Q 1497 4750 2381 4750 
Q 2619 4750 2861 4703 
Q 3103 4656 3366 4563 
z
" id="DejaVuSans-36" transform="scale(0.015625)"/>
       </defs>
       <use xlink:href="#DejaVuSans-36"/>
      </g>
     </g>
    </g>
    <g id="ytick_5">
     <g id="line2d_12">
      <g>
       <use style="stroke:#000000;stroke-width:0.8;" x="180" xlink:href="#mfa40b1586c" y="209.338989"/>
      </g>
     </g>
     <g id="text_12">
      <!-- 8 -->
      <g transform="translate(166.6375 213.138208)scale(0.1 -0.1)">
       <defs>
        <path d="M 2034 2216 
Q 1584 2216 1326 1975 
Q 1069 1734 1069 1313 
Q 1069 891 1326 650 
Q 1584 409 2034 409 
Q 2484 409 2743 651 
Q 3003 894 3003 1313 
Q 3003 1734 2745 1975 
Q 2488 2216 2034 2216 
z
M 1403 2484 
Q 997 2584 770 2862 
Q 544 3141 544 3541 
Q 544 4100 942 4425 
Q 1341 4750 2034 4750 
Q 2731 4750 3128 4425 
Q 3525 4100 3525 3541 
Q 3525 3141 3298 2862 
Q 3072 2584 2669 2484 
Q 3125 2378 3379 2068 
Q 3634 1759 3634 1313 
Q 3634 634 3220 271 
Q 2806 -91 2034 -91 
Q 1263 -91 848 271 
Q 434 634 434 1313 
Q 434 1759 690 2068 
Q 947 2378 1403 2484 
z
M 1172 3481 
Q 1172 3119 1398 2916 
Q 1625 2713 2034 2713 
Q 2441 2713 2670 2916 
Q 2900 3119 2900 3481 
Q 2900 3844 2670 4047 
Q 2441 4250 2034 4250 
Q 1625 4250 1398 4047 
Q 1172 3844 1172 3481 
z
" id="DejaVuSans-38" transform="scale(0.015625)"/>
       </defs>
       <use xlink:href="#DejaVuSans-38"/>
      </g>
     </g>
    </g>
    <g id="ytick_6">
     <g id="line2d_13">
      <g>
       <use style="stroke:#000000;stroke-width:0.8;" x="180" xlink:href="#mfa40b1586c" y="107.769712"/>
      </g>
     </g>
     <g id="text_13">
      <!-- 10 -->
      <g transform="translate(160.275 111.568931)scale(0.1 -0.1)">
       <defs>
        <path d="M 794 531 
L 1825 531 
L 1825 4091 
L 703 3866 
L 703 4441 
L 1819 4666 
L 2450 4666 
L 2450 531 
L 3481 531 
L 3481 0 
L 794 0 
L 794 531 
z
" id="DejaVuSans-31" transform="scale(0.015625)"/>
       </defs>
       <use xlink:href="#DejaVuSans-31"/>
       <use x="63.623047" xlink:href="#DejaVuSans-30"/>
      </g>
     </g>
    </g>
   </g>
   <g id="line2d_14">
    <path clip-path="url(#pcbc23143a1)" d="M 230.727273 572.556465 
L 231.342895 582.459816 
L 230.727273 582.459816 
L 231.958517 593.239326 
L 232.574139 582.459816 
L 233.189762 579.073058 
L 233.805384 579.073058 
L 234.421006 556.965382 
L 235.036628 553.96513 
L 235.652251 532.202988 
L 235.036628 532.202988 
L 236.267873 532.202988 
L 236.883495 528.181394 
L 237.499117 533.57682 
L 238.11474 573.448642 
L 238.730362 585.642461 
L 239.345984 585.642461 
L 239.961606 570.54306 
L 240.577229 568.769932 
L 241.192851 568.769932 
L 241.808473 570.54306 
L 242.424095 586.117092 
L 243.039718 592.280239 
L 243.65534 592.280239 
L 244.270962 597.652913 
L 245.502207 597.661832 
L 246.117829 577.782414 
L 246.733451 497.998507 
L 247.349073 487.848397 
L 247.964695 487.848397 
L 248.580318 497.998507 
L 249.19594 591.50825 
L 249.811562 591.50825 
L 250.427184 595.214087 
L 251.042807 595.214087 
L 251.658429 596.91803 
L 252.274051 597.273612 
L 252.889673 605.820824 
L 253.505296 597.273612 
L 254.120918 596.91803 
L 254.73654 599.574044 
L 255.352162 585.312031 
L 255.967785 590.503958 
L 256.583407 584.44534 
L 257.199029 582.637047 
L 257.814651 582.637047 
L 258.430274 584.44534 
L 259.045896 515.377059 
L 259.661518 421.660789 
L 260.27714 515.377059 
L 260.892763 421.660789 
L 261.508385 465.056215 
L 262.124007 528.705359 
L 262.739629 465.056215 
L 263.355252 465.056215 
L 263.970874 537.734152 
L 264.586496 537.734152 
L 265.202118 551.911638 
L 265.817741 551.911638 
L 266.433363 571.582415 
L 267.048985 571.582415 
L 267.664607 561.174192 
L 269.511474 561.174192 
L 270.127096 571.161701 
L 270.742718 591.037332 
L 271.358341 591.404061 
L 271.973963 592.527969 
L 272.589585 592.527969 
L 273.205207 591.404061 
L 273.82083 569.565747 
L 274.436452 569.565747 
L 275.052074 556.428991 
L 275.667696 569.565747 
L 276.283319 544.047845 
L 276.898941 543.466016 
L 277.514563 565.058597 
L 278.745808 565.058597 
L 279.36143 565.424564 
L 279.977052 569.547073 
L 280.592674 569.547073 
L 281.823919 553.551666 
L 282.439541 553.551666 
L 283.055163 571.309118 
L 284.286408 571.309118 
L 284.90203 532.202988 
L 286.133274 514.507555 
L 286.748897 522.69589 
L 287.364519 522.69589 
L 287.980141 476.10232 
L 288.595763 462.672602 
L 289.827008 462.672602 
L 290.44263 523.431262 
L 291.673875 523.431262 
L 292.289497 564.07133 
L 292.905119 564.07133 
L 293.520741 502.971921 
L 294.136364 549.56241 
L 294.751986 533.079569 
L 295.367608 547.387096 
L 295.98323 547.387096 
L 296.598853 537.979474 
L 297.830097 537.979474 
L 298.445719 559.469115 
L 299.061342 574.339526 
L 299.676964 574.339526 
L 300.292586 585.911819 
L 300.908208 562.139652 
L 301.523831 562.691951 
L 302.139453 562.139652 
L 302.755075 520.917684 
L 303.98632 520.917684 
L 304.601942 534.343479 
L 305.217564 534.343479 
L 305.833186 479.227959 
L 306.448808 574.263353 
L 307.064431 560.446818 
L 307.680053 560.446818 
L 308.295675 578.066586 
L 308.911297 585.831491 
L 309.52692 581.14659 
L 311.989409 581.14659 
L 312.605031 560.848953 
L 313.220653 592.479801 
L 313.836275 592.479801 
L 313.220653 592.479801 
L 314.451898 594.460366 
L 313.836275 594.460366 
L 315.06752 465.081383 
L 315.683142 487.64029 
L 316.914387 487.64029 
L 317.530009 490.835855 
L 318.145631 585.124985 
L 318.761253 545.621618 
L 319.376876 545.621618 
L 319.992498 576.342435 
L 319.376876 576.342435 
L 321.839365 576.342435 
L 322.454987 533.19386 
L 323.070609 530.885938 
L 323.686231 484.15161 
L 324.917476 484.15161 
L 325.533098 522.770593 
L 326.14872 532.202988 
L 326.764342 548.197429 
L 327.379965 548.197429 
L 327.995587 576.371431 
L 328.611209 590.581012 
L 329.226831 578.949983 
L 329.842454 578.949983 
L 330.458076 446.830569 
L 332.304943 446.830569 
L 334.151809 595.573098 
L 334.767432 555.997251 
L 335.998676 555.997251 
L 336.614298 490.706749 
L 337.229921 566.526562 
L 338.461165 566.526562 
L 339.076787 574.361339 
L 339.69241 566.526562 
L 340.308032 574.361339 
L 341.539276 574.361339 
L 342.154898 513.746601 
L 342.770521 581.434003 
L 344.001765 581.434003 
L 343.386143 581.434003 
L 344.617387 535.721357 
L 345.23301 501.897775 
L 345.848632 515.494013 
L 346.464254 515.494013 
L 347.079876 535.721357 
L 347.695499 546.076707 
L 348.311121 560.668117 
L 348.926743 567.95932 
L 350.157988 567.95932 
L 350.77361 573.221934 
L 351.389232 575.130921 
L 352.620477 575.130921 
L 353.236099 573.221934 
L 353.851721 478.065156 
L 354.467343 475.627138 
L 355.082966 475.446118 
L 355.698588 475.627138 
L 356.31421 440.629898 
L 356.929832 440.629898 
L 357.545455 522.181376 
L 358.161077 522.181376 
L 358.776699 524.697149 
L 358.161077 522.181376 
L 359.392321 524.697149 
L 360.623566 524.697149 
L 361.239188 575.234668 
L 361.85481 524.02255 
L 363.701677 524.02255 
L 364.317299 528.61669 
L 364.932921 513.629627 
L 365.548544 217.543434 
L 366.164166 217.543434 
L 366.779788 229.952168 
L 367.39541 229.952168 
L 368.011033 421.660789 
L 368.626655 423.335149 
L 369.242277 545.45846 
L 369.857899 572.904705 
L 370.473522 588.330115 
L 371.089144 588.330115 
L 371.704766 572.904705 
L 372.320388 588.330115 
L 372.936011 570.770376 
L 373.551633 569.619726 
L 374.167255 564.884805 
L 374.782877 564.884805 
L 375.3985 552.600705 
L 376.014122 536.459946 
L 376.629744 535.553368 
L 377.245366 536.459946 
L 376.629744 536.459946 
L 377.860989 536.459946 
L 378.476611 582.847991 
L 380.323477 582.847991 
L 380.9391 582.964679 
L 381.554722 590.866698 
L 382.170344 590.866698 
L 382.785966 582.964679 
L 383.401589 573.048348 
L 384.017211 567.981859 
L 384.632833 564.271765 
L 385.248455 564.271765 
L 385.864078 557.650683 
L 386.4797 557.650683 
L 387.095322 577.224287 
L 387.710944 583.214846 
L 388.326567 577.224287 
L 388.942189 583.214846 
L 389.557811 546.275231 
L 390.173433 546.275231 
L 390.789056 572.490805 
L 392.0203 572.490805 
L 392.635922 573.728459 
L 393.251545 573.728459 
L 393.867167 547.279382 
L 394.482789 565.820525 
L 395.098411 530.449903 
L 395.714034 528.893569 
L 396.329656 528.893569 
L 396.945278 530.449903 
L 397.5609 530.449903 
L 398.176523 559.058199 
L 398.792145 559.058199 
L 399.407767 575.831368 
L 400.023389 559.058199 
L 398.792145 521.871273 
L 400.639011 516.211983 
L 401.254634 516.807826 
L 401.870256 516.211983 
L 402.485878 483.096336 
L 403.1015 483.096336 
L 403.717123 475.91749 
L 404.332745 475.91749 
L 404.948367 529.530248 
L 405.563989 529.530248 
L 406.179612 524.45099 
L 407.410856 524.45099 
L 408.026478 274.541301 
L 408.642101 537.959319 
L 410.488967 537.959319 
L 411.10459 552.892735 
L 411.720212 552.892735 
L 412.335834 549.677711 
L 412.951456 560.522565 
L 413.567079 549.677711 
L 414.798323 549.677711 
L 415.413945 277.424158 
L 416.64519 277.424158 
L 417.260812 344.407486 
L 417.876434 344.407486 
L 418.492056 361.121364 
L 419.107679 537.447223 
L 419.723301 550.26408 
L 420.954545 550.26408 
L 421.570168 491.093258 
L 422.801412 491.093258 
L 424.032657 581.003667 
L 424.648279 581.003667 
L 425.263901 547.538163 
L 427.110768 547.538163 
L 427.72639 550.085095 
L 428.957635 550.085095 
L 429.573257 552.422785 
L 430.188879 567.546648 
L 431.420124 567.546648 
L 432.035746 496.116767 
L 432.651368 496.116767 
L 433.26699 541.812828 
L 433.882613 551.931255 
L 434.498235 551.931255 
L 435.113857 541.812828 
L 435.729479 538.154302 
L 436.345102 467.802159 
L 436.960724 467.802159 
L 437.576346 538.154302 
L 438.191968 543.237086 
L 438.80759 587.315867 
L 440.038835 587.315867 
L 440.654457 563.596106 
L 441.270079 545.365067 
L 442.501324 520.917684 
L 443.116946 520.917684 
L 443.732568 520.450804 
L 444.348191 520.917684 
L 444.963813 545.217895 
L 445.579435 547.303517 
L 446.195057 584.773194 
L 446.81068 584.773194 
L 447.426302 559.010082 
L 448.041924 584.773194 
L 448.657546 559.010082 
L 449.273169 539.044146 
L 450.504413 539.044146 
L 451.120035 530.871398 
L 451.735658 530.871398 
L 452.35128 542.336029 
L 452.966902 542.336029 
L 453.582524 530.871398 
L 454.198147 576.832236 
L 454.813769 572.133202 
L 455.429391 526.275496 
L 456.045013 526.275496 
L 456.660635 502.286235 
L 457.276258 486.717322 
L 459.123124 486.717322 
L 458.507502 347.504696 
L 459.738747 347.504696 
L 460.354369 291.039674 
L 463.43248 267.674313 
L 464.048102 267.674313 
L 464.663725 337.327688 
L 465.279347 337.327688 
L 465.894969 455.09167 
L 466.510591 487.848397 
L 467.126214 491.157318 
L 467.741836 514.171107 
L 468.357458 514.171107 
L 468.97308 559.933794 
L 470.204325 559.933794 
L 470.819947 521.669351 
L 472.051192 521.669351 
L 472.666814 543.540844 
L 473.282436 560.098504 
L 473.898058 560.098504 
L 475.129303 529.005953 
L 475.744925 520.236237 
L 476.360547 515.948614 
L 476.976169 515.948614 
L 477.591792 520.236237 
L 478.207414 515.948614 
L 478.823036 515.948614 
L 479.438658 529.96372 
L 480.054281 534.452896 
L 480.669903 534.452896 
L 481.285525 540.745339 
L 481.901147 540.745339 
L 482.51677 493.285966 
L 483.132392 485.49212 
L 483.748014 235.796398 
L 484.979259 235.796398 
L 485.594881 314.884063 
L 486.210503 352.501335 
L 486.826125 453.305488 
L 487.441748 419.272136 
L 488.05737 370.214025 
L 488.672992 419.272136 
L 489.288614 419.272136 
L 489.904237 411.3238 
L 490.519859 370.214025 
L 491.135481 354.806287 
L 491.751103 354.806287 
L 492.366726 411.3238 
L 492.982348 478.465933 
L 493.59797 478.465933 
L 494.213592 469.44584 
L 494.829214 456.314827 
L 495.444837 454.590313 
L 494.213592 417.547552 
L 496.060459 417.547552 
L 496.676081 430.766414 
L 497.291703 430.766414 
L 497.907326 441.828993 
L 498.522948 441.828993 
L 499.13857 462.688273 
L 499.754192 462.688273 
L 500.369815 506.898198 
L 500.985437 511.836047 
L 501.601059 518.553247 
L 502.216681 518.553247 
L 502.832304 553.445534 
L 504.063548 553.445534 
L 504.67917 523.74449 
L 505.294793 518.536157 
L 505.910415 510.33743 
L 506.526037 510.33743 
L 507.141659 465.73975 
L 507.757282 373.173148 
L 507.141659 318.250556 
L 508.372904 318.250556 
L 508.988526 373.173148 
L 509.604148 239.543107 
L 510.219771 402.738426 
L 510.835393 402.738426 
L 511.451015 486.694179 
L 513.297882 486.694179 
L 513.913504 517.109797 
L 514.529126 517.109797 
L 515.144748 519.106606 
L 515.760371 519.106606 
L 514.529126 515.193061 
L 516.375993 446.816472 
L 516.991615 390.401297 
L 517.607237 390.401297 
L 518.22286 445.031409 
L 518.838482 446.816472 
L 519.454104 481.40998 
L 520.685349 514.286397 
L 521.300971 555.013969 
L 521.916593 555.013969 
L 522.532215 538.218356 
L 523.147838 538.218356 
L 523.76346 533.749681 
L 524.379082 536.999496 
L 524.994704 533.749681 
L 525.610327 533.749681 
L 526.225949 552.062468 
L 526.841571 552.062468 
L 527.457193 558.80442 
L 528.072816 516.088892 
L 528.688438 506.201228 
L 529.30406 503.079952 
L 529.919682 506.201228 
L 530.535305 499.74032 
L 531.150927 509.703398 
L 531.766549 500.346743 
L 532.382171 509.50033 
L 534.84466 509.50033 
L 535.460282 517.499765 
L 536.075905 517.499765 
L 536.691527 523.239325 
L 537.307149 517.499765 
L 537.922771 517.499765 
L 538.538394 486.06492 
L 539.154016 431.098311 
L 539.769638 399.105327 
L 540.38526 431.098311 
L 541.000883 431.098311 
L 541.616505 541.714988 
L 542.847749 541.714988 
L 543.463372 524.851763 
L 544.078994 521.25673 
L 544.694616 513.137357 
L 545.310238 512.459517 
L 546.541483 512.459517 
L 547.157105 497.648929 
L 547.772727 546.330101 
L 548.38835 546.330101 
L 549.003972 542.807807 
L 549.619594 467.722512 
L 550.235216 482.769087 
L 549.619594 482.769087 
L 550.850838 482.769087 
L 551.466461 493.27549 
L 552.697705 493.27549 
L 553.313327 514.890215 
L 553.92895 491.811376 
L 554.544572 491.811376 
L 555.160194 550.290033 
L 555.775816 550.290033 
L 556.391439 523.447795 
L 557.007061 529.830576 
L 557.622683 523.447795 
L 558.238305 505.31474 
L 558.853928 505.31474 
L 559.46955 533.935315 
L 561.316417 533.935315 
L 561.932039 529.184487 
L 562.547661 529.184487 
L 563.163283 535.375079 
L 563.778906 539.091605 
L 564.394528 535.375079 
L 565.625772 535.375079 
L 566.241395 507.387949 
L 566.857017 499.389348 
L 568.088261 499.389348 
L 568.703883 366.497983 
L 569.319506 504.770874 
L 571.166372 504.770874 
L 571.781995 511.672912 
L 572.397617 434.324533 
L 573.013239 473.568477 
L 573.628861 473.568477 
L 574.244484 434.324533 
L 574.860106 434.324533 
L 575.475728 473.568477 
L 576.09135 523.352222 
L 576.706973 532.100489 
L 577.322595 532.100489 
L 577.938217 523.352222 
L 578.553839 523.352222 
L 579.169462 532.100489 
L 579.785084 545.418146 
L 580.400706 545.418146 
L 581.016328 553.424283 
L 581.631951 545.418146 
L 582.247573 532.346803 
L 582.863195 530.258532 
L 583.478817 532.346803 
L 584.710062 532.346803 
L 585.325684 530.258532 
L 587.172551 530.229704 
L 587.788173 547.563191 
L 588.403795 548.514167 
L 589.019417 548.514167 
L 589.63504 547.563191 
L 590.250662 536.420653 
L 590.866284 532.346803 
L 592.097529 532.346803 
L 592.713151 516.256862 
L 593.328773 516.256862 
L 593.944395 512.419109 
L 593.328773 497.203957 
L 595.17564 497.203957 
L 595.791262 512.248892 
L 596.406884 512.427423 
L 597.022507 517.942541 
L 599.484996 517.942541 
L 600.100618 539.743773 
L 600.71624 539.743773 
L 601.331862 535.099082 
L 601.947485 535.099082 
L 602.563107 539.743773 
L 603.178729 564.254709 
L 603.794351 564.254709 
L 604.409974 573.477243 
L 603.794351 573.477243 
L 605.025596 564.254709 
L 605.641218 563.516189 
L 606.25684 444.04784 
L 606.872462 432.550807 
L 608.103707 432.550807 
L 608.719329 425.404072 
L 609.334951 414.341721 
L 609.950574 511.90349 
L 610.566196 488.996776 
L 611.181818 488.996776 
L 611.79744 512.132396 
L 612.413063 540.738283 
L 613.028685 545.418146 
L 614.259929 545.418146 
L 614.875552 493.373141 
L 615.491174 459.317745 
L 616.106796 432.574792 
L 616.722418 427.54588 
L 617.338041 432.574792 
L 617.953663 418.719855 
L 618.569285 432.574792 
L 619.184907 478.173098 
L 619.80053 488.621854 
L 621.031774 488.621854 
L 621.647396 486.42176 
L 622.263019 488.621854 
L 622.878641 494.87562 
L 623.494263 486.42176 
L 624.109885 486.42176 
L 624.725508 504.134686 
L 625.34113 507.168027 
L 625.956752 478.264305 
L 626.572374 492.46988 
L 627.187996 540.835922 
L 627.803619 529.910351 
L 628.419241 529.910351 
L 629.034863 540.835922 
L 628.419241 542.430484 
L 629.650485 529.910351 
L 630.266108 500.488277 
L 630.88173 500.488277 
L 631.497352 473.568477 
L 632.112974 438.031215 
L 632.728597 473.568477 
L 633.344219 473.568477 
L 633.959841 494.489009 
L 634.575463 494.489009 
L 635.191086 502.77453 
L 635.806708 502.77453 
L 636.42233 482.363241 
L 637.037952 480.6675 
L 637.653575 482.363241 
L 638.269197 482.363241 
L 638.884819 537.466005 
L 639.500441 559.169182 
L 640.116064 559.169182 
L 640.731686 543.775333 
L 641.347308 574.346074 
L 641.96293 543.775333 
L 642.578553 499.492244 
L 643.194175 525.708497 
L 643.809797 523.582906 
L 645.656664 523.582906 
L 646.272286 503.066935 
L 646.887908 503.066935 
L 647.50353 497.053684 
L 648.119153 497.053684 
L 648.734775 508.473967 
L 649.350397 533.231632 
L 649.966019 542.948232 
L 650.581642 542.948232 
L 651.197264 533.963259 
L 651.812886 533.231632 
L 652.428508 498.00659 
L 653.044131 491.141379 
L 653.659753 435.362959 
L 654.890997 435.362959 
L 655.50662 480.199146 
L 656.122242 480.199146 
L 656.737864 572.231282 
L 657.353486 572.231282 
L 657.969109 508.941764 
L 658.584731 507.372152 
L 659.200353 507.372152 
L 659.815975 496.585129 
L 660.431598 506.241444 
L 661.04722 506.241444 
L 661.662842 459.996844 
L 662.278464 506.241444 
L 662.894086 506.241444 
L 663.509709 539.06803 
L 664.125331 459.996844 
L 664.740953 539.06803 
L 665.356575 500.688427 
L 665.972198 500.688427 
L 666.58782 518.828928 
L 667.819064 518.828928 
L 668.434687 512.419109 
L 669.050309 542.364752 
L 669.665931 556.975685 
L 670.281553 556.975685 
L 670.897176 522.935864 
L 671.512798 505.441522 
L 672.12842 504.43129 
L 672.744042 504.43129 
L 672.12842 504.43129 
L 673.359665 520.944489 
L 673.975287 520.944489 
L 674.590909 529.789411 
L 675.206531 520.944489 
L 675.822154 520.944489 
L 676.437776 527.026744 
L 677.053398 537.864857 
L 677.66902 555.31621 
L 678.284643 555.31621 
L 678.900265 527.026744 
L 679.515887 548.548907 
L 680.131509 509.010689 
L 681.362754 509.010689 
L 681.978376 519.50941 
L 682.593998 454.097559 
L 683.20962 519.50941 
L 683.825243 428.421558 
L 684.440865 428.421558 
L 685.056487 488.752811 
L 686.903354 488.752811 
L 687.518976 494.87562 
L 688.750221 459.572352 
L 689.365843 476.726212 
L 689.981465 459.572352 
L 690.597087 415.082525 
L 691.21271 414.341721 
L 691.828332 415.082525 
L 692.443954 414.341721 
L 693.059576 414.341721 
L 692.443954 414.341721 
L 693.675199 451.379423 
L 694.290821 386.526921 
L 694.906443 451.379423 
L 695.522065 451.379423 
L 696.75331 491.141379 
L 697.368932 534.856546 
L 697.984554 534.856546 
L 698.600177 536.515555 
L 699.215799 536.515555 
L 699.831421 531.329466 
L 700.447043 541.63406 
L 701.062665 541.63406 
L 701.678288 535.072405 
L 702.29391 435.011173 
L 702.909532 535.072405 
L 702.29391 435.011173 
L 703.525154 421.660789 
L 705.372021 421.660789 
L 705.987643 430.139782 
L 705.372021 457.494092 
L 707.218888 457.494092 
L 707.83451 372.257828 
L 709.065755 372.257828 
L 709.681377 400.24074 
L 712.143866 400.24074 
L 712.759488 376.312347 
L 713.37511 498.639137 
L 713.990733 498.639137 
L 714.606355 376.312347 
L 715.221977 376.312347 
L 715.837599 291.72896 
L 716.453222 266.166323 
L 717.068844 291.72896 
L 717.684466 389.74637 
L 718.300088 421.660789 
L 718.915711 421.660789 
L 719.531333 458.944209 
L 721.993822 458.944209 
L 722.609444 497.559536 
L 723.225066 430.574121 
L 723.840688 414.341721 
L 724.456311 430.574121 
L 725.071933 430.574121 
L 725.687555 484.711555 
L 726.303177 502.437199 
L 726.9188 502.437199 
L 728.150044 582.013771 
L 728.765666 582.013771 
L 729.381289 514.06938 
L 729.996911 514.06938 
L 730.612533 502.059843 
L 731.228155 438.928735 
L 731.843778 392.406438 
L 732.4594 370.049058 
L 733.075022 370.049058 
L 733.690644 392.406438 
L 734.306267 579.869033 
L 734.921889 579.869033 
L 735.537511 566.251993 
L 736.153133 416.532119 
L 736.768756 414.341721 
L 738 414.341721 
L 738.615622 416.532119 
L 739.231244 380.744581 
L 739.846867 437.002866 
L 740.462489 447.449968 
L 741.078111 475.902345 
L 742.309356 475.902345 
L 741.693733 431.83355 
L 742.924978 421.794951 
L 743.5406 421.794951 
L 744.156222 418.558278 
L 744.771845 421.794951 
L 745.387467 515.531922 
L 747.849956 515.531922 
L 748.465578 515.920078 
L 749.0812 515.920078 
L 749.696823 519.28397 
L 750.312445 519.28397 
L 750.928067 495.369553 
L 751.543689 519.28397 
L 749.696823 519.28397 
L 752.159312 495.369553 
L 752.774934 514.06638 
L 753.390556 579.803203 
L 754.006178 514.06638 
L 754.621801 492.535439 
L 756.468667 492.535439 
L 757.084289 495.913849 
L 758.315534 527.340432 
L 759.546778 560.393384 
L 760.162401 545.418146 
L 760.778023 615.369787 
L 762.009267 532.430727 
L 762.62489 550.235223 
L 763.240512 532.430727 
L 764.471756 532.430727 
L 765.087379 529.378173 
L 765.703001 515.963698 
L 766.318623 481.405186 
L 766.934245 481.237758 
L 767.549868 481.405186 
L 768.16549 496.718171 
L 768.781112 496.718171 
L 769.396734 498.072893 
L 770.012357 498.072893 
L 770.627979 507.932413 
L 771.243601 513.762094 
L 772.474846 481.46579 
L 773.090468 512.419109 
L 773.70609 512.419109 
L 774.321712 481.46579 
L 774.937335 443.140445 
L 775.552957 512.419109 
L 776.168579 443.140445 
L 776.784201 443.140445 
L 777.399823 486.532751 
L 778.015446 498.172807 
L 778.631068 486.532751 
L 779.24669 498.172807 
L 779.862312 503.889993 
L 780.477935 513.139552 
L 781.093557 503.889993 
L 781.709179 503.889993 
L 784.78729 238.302103 
L 785.402913 440.226675 
L 786.018535 440.226675 
L 786.634157 450.334531 
L 787.249779 450.334531 
L 787.865402 511.015045 
L 788.481024 492.461981 
L 789.096646 504.198415 
L 789.712268 492.461981 
L 790.327891 492.461981 
L 790.943513 475.220194 
L 791.559135 475.220194 
L 790.327891 442.916339 
L 792.174757 442.916339 
L 792.79038 535.162006 
L 793.406002 535.162006 
L 794.021624 535.517431 
L 794.637246 535.162006 
L 795.252868 445.078441 
L 795.868491 442.157963 
L 797.099735 442.157963 
L 797.715357 458.905729 
L 798.33098 458.905729 
L 798.946602 465.757721 
L 799.562224 458.905729 
L 800.177846 458.905729 
L 800.793469 470.145643 
L 801.409091 473.701371 
L 802.640335 473.701371 
L 803.255958 500.362652 
L 803.87158 500.362652 
L 804.487202 503.21136 
L 805.102824 517.071635 
L 806.949691 517.071635 
L 807.565313 487.848397 
L 808.180936 501.337169 
L 809.41218 501.337169 
L 810.027802 502.631218 
L 810.643425 526.881269 
L 811.259047 502.631218 
L 812.490291 502.631218 
L 813.105914 499.342616 
L 812.490291 499.342616 
L 813.721536 468.594034 
L 814.95278 468.594034 
L 815.568402 525.821631 
L 816.184025 519.753892 
L 815.568402 519.753892 
L 816.799647 519.753892 
L 817.415269 478.41101 
L 818.030891 462.914432 
L 819.262136 462.914432 
L 818.030891 478.345545 
L 819.877758 530.591296 
L 820.49338 478.345545 
L 821.109003 451.479324 
L 822.340247 451.479324 
L 822.955869 538.538748 
L 823.571492 538.538748 
L 824.187114 541.038008 
L 824.802736 538.538748 
L 823.571492 541.038008 
L 824.802736 518.310869 
L 825.418358 532.923132 
L 826.033981 477.58828 
L 826.649603 532.923132 
L 827.265225 457.083831 
L 827.880847 532.923132 
L 829.112092 532.924485 
L 829.727714 532.710487 
L 832.190203 532.710487 
L 832.805825 503.36577 
L 833.421447 503.36577 
L 834.03707 498.707748 
L 834.652692 498.707748 
L 835.268314 522.195276 
L 835.883936 522.195276 
L 836.499559 549.785679 
L 837.115181 522.195276 
L 837.730803 549.785679 
L 838.346425 512.337757 
L 838.962048 530.76923 
L 839.57767 504.567575 
L 840.193292 530.76923 
L 840.808914 530.76923 
L 841.424537 512.51899 
L 842.040159 502.230171 
L 842.655781 456.352497 
L 843.271403 456.352497 
L 843.887026 502.230171 
L 844.502648 498.392333 
L 845.11827 498.392333 
L 845.733892 526.178707 
L 846.349515 526.178707 
L 846.965137 498.392333 
L 847.580759 509.804785 
L 848.196381 509.889759 
L 848.812004 509.804785 
L 849.427626 495.39635 
L 850.043248 509.804785 
L 850.65887 554.594845 
L 851.274492 556.72832 
L 851.890115 554.594845 
L 852.505737 554.205483 
L 853.121359 552.535648 
L 853.736981 552.535648 
L 854.352604 545.251314 
L 854.968226 602.930266 
L 855.583848 615.6 
L 856.19947 615.6 
L 857.430715 524.339518 
L 858.046337 522.018829 
L 858.661959 522.018829 
L 859.277582 524.339518 
L 859.893204 524.339518 
L 860.508826 522.018829 
L 861.124448 532.75044 
L 861.740071 577.410585 
L 862.355693 584.635577 
L 862.971315 577.410585 
L 862.355693 577.410585 
L 863.586937 512.107696 
L 864.20256 512.107696 
L 864.818182 470.145643 
L 865.433804 485.828248 
L 866.049426 510.65462 
L 866.665049 485.828248 
L 867.280671 485.828248 
L 867.896293 476.822773 
L 868.511915 429.029041 
L 869.127538 428.421558 
L 870.358782 428.421558 
L 870.974404 529.450376 
L 872.205649 549.760647 
L 873.436893 471.947477 
L 874.052515 471.947477 
L 874.668138 508.184069 
L 875.28376 508.184069 
L 875.899382 526.330568 
L 876.515004 526.330568 
L 877.130627 533.420823 
L 877.746249 526.330568 
L 878.361871 508.202992 
L 880.208738 508.202992 
L 879.593116 524.185762 
L 880.82436 527.591395 
L 881.439982 527.591395 
L 882.055605 532.504724 
L 882.671227 527.591395 
L 883.286849 539.760919 
L 883.902471 522.989768 
L 884.518094 522.989768 
L 885.133716 573.017447 
L 885.749338 513.76359 
L 886.36496 532.346803 
L 886.980583 573.017447 
L 885.133716 532.346803 
L 887.596205 532.346803 
L 888.211827 585.330197 
L 889.443071 585.330197 
L 890.058694 553.154434 
L 891.90556 553.154434 
L 892.521183 549.957265 
L 893.136805 478.41101 
L 893.752427 473.568477 
L 894.368049 478.41101 
L 894.983672 478.41101 
L 895.599294 499.781531 
L 896.214916 526.206771 
L 896.830538 499.781531 
L 897.446161 499.781531 
L 895.599294 499.781531 
L 898.061783 460.732489 
L 898.677405 460.732489 
L 899.293027 517.810324 
L 899.90865 460.732489 
L 900.524272 461.904028 
L 901.139894 502.39265 
L 900.524272 502.39265 
L 901.755516 502.39265 
L 902.371139 544.574241 
L 904.833628 544.574241 
L 905.44925 543.442345 
L 906.064872 555.252877 
L 906.680494 543.442345 
L 907.296117 543.442345 
L 907.911739 499.780959 
L 908.527361 556.163974 
L 909.142983 556.163974 
L 909.758605 537.959397 
L 910.374228 537.959397 
L 910.98985 488.846283 
L 911.605472 493.174098 
L 912.221094 493.174098 
L 912.836717 371.402767 
L 913.452339 448.631251 
L 914.067961 448.631251 
L 914.683583 518.83536 
L 915.299206 532.198775 
L 915.914828 532.198775 
L 916.53045 534.827946 
L 917.146072 534.827946 
L 917.761695 532.658605 
L 918.377317 520.773007 
L 919.608561 520.773007 
L 920.224184 526.66641 
L 919.608561 552.243778 
L 920.839806 556.195328 
L 921.455428 575.580405 
L 922.07105 556.195328 
L 922.686673 547.971152 
L 923.302295 493.292157 
L 923.917917 493.292157 
L 924.533539 534.010294 
L 925.764784 534.010294 
L 926.380406 554.131396 
L 926.996028 511.098743 
L 928.227273 511.098743 
L 928.842895 519.790322 
L 929.458517 519.790322 
L 930.074139 564.156226 
L 930.689762 564.156226 
L 931.305384 533.849516 
L 931.921006 533.849516 
L 932.536628 528.121103 
L 933.152251 497.532358 
L 933.767873 497.532358 
L 934.383495 498.207332 
L 934.999117 534.009914 
L 935.61474 534.009914 
L 936.230362 509.703398 
L 937.461606 509.703398 
L 938.077229 505.926769 
L 939.308473 505.926769 
L 939.924095 435.406429 
L 940.539718 529.435762 
L 941.770962 529.435762 
L 942.386584 523.447795 
L 943.002207 496.071071 
L 945.464695 496.071071 
L 946.080318 530.353713 
L 946.69594 519.980076 
L 947.311562 493.235758 
L 947.927184 493.235758 
L 948.542807 486.474462 
L 949.158429 486.474462 
L 949.774051 526.532118 
L 950.389673 496.071071 
L 951.005296 511.535472 
L 949.158429 496.071071 
L 952.852162 496.071071 
L 953.467785 445.357299 
L 954.083407 496.071071 
L 954.699029 447.92099 
L 955.314651 447.92099 
L 955.930274 490.853282 
L 956.545896 504.609989 
L 957.77714 504.609989 
L 958.392763 509.945366 
L 959.008385 552.213651 
L 959.624007 509.945366 
L 960.239629 552.213651 
L 960.855252 535.017552 
L 961.470874 497.614742 
L 962.086496 520.804905 
L 962.702118 500.723245 
L 963.317741 520.804905 
L 962.702118 520.804905 
L 964.548985 545.991725 
L 965.780229 545.991725 
L 966.395852 575.996051 
L 967.011474 494.651917 
L 967.627096 532.202988 
L 968.242718 478.259981 
L 968.858341 462.077019 
L 969.473963 432.311227 
L 970.089585 465.396232 
L 973.167696 262.609425 
L 973.783319 357.274722 
L 974.398941 392.650611 
L 975.014563 462.715527 
L 975.630185 504.40777 
L 976.245808 504.40777 
L 976.86143 540.388386 
L 977.477052 532.917141 
L 979.939541 532.917141 
L 980.555163 531.922366 
L 981.170786 486.619134 
L 983.017652 486.619134 
L 983.633274 453.643153 
L 984.248897 519.264701 
L 984.864519 539.198074 
L 985.480141 551.586372 
L 986.095763 557.594214 
L 987.94263 557.594214 
L 988.558252 506.057073 
L 989.173875 502.244757 
L 991.020741 502.244757 
L 991.636364 485.143451 
L 992.251986 513.581892 
L 992.867608 522.761752 
L 993.48323 524.102649 
L 994.098853 533.404833 
L 995.945719 533.404833 
L 996.561342 547.086475 
L 995.945719 551.665069 
L 997.176964 551.665069 
L 997.792586 544.786415 
L 998.408208 504.53023 
L 999.023831 504.53023 
L 999.639453 494.884059 
L 1000.255075 489.301503 
L 1000.870697 489.301503 
L 1001.48632 492.29413 
L 1002.101942 492.29413 
L 1002.717564 496.100588 
L 1003.333186 514.088244 
L 1003.948808 522.018829 
L 1004.564431 542.273346 
L 1005.180053 542.273346 
L 1005.795675 554.326516 
L 1006.411297 522.018829 
L 1007.02692 496.071071 
L 1007.642542 554.326516 
L 1008.258164 588.450172 
L 1008.873786 588.450172 
L 1009.489409 577.029135 
L 1010.105031 555.604015 
L 1010.720653 541.46406 
L 1011.336275 524.324697 
L 1011.951898 555.604015 
L 1012.56752 561.509634 
L 1013.183142 554.101998 
L 1013.798764 554.101998 
L 1014.414387 537.345065 
L 1015.030009 537.345065 
L 1015.645631 513.293659 
L 1016.261253 504.046815 
L 1016.876876 504.046815 
L 1017.492498 545.282046 
L 1018.10812 545.282046 
L 1018.723742 552.940701 
L 1019.954987 553.029113 
L 1020.570609 500.482824 
L 1021.186231 516.255531 
L 1023.033098 516.255531 
L 1023.64872 507.105995 
L 1026.111209 507.105995 
L 1026.726831 532.172934 
L 1027.342454 532.172934 
L 1027.958076 580.436276 
L 1028.573698 532.172934 
L 1029.18932 535.002857 
L 1029.804943 550.417091 
L 1031.651809 550.417091 
L 1032.267432 538.507382 
L 1032.883054 501.685241 
L 1033.498676 494.707056 
L 1034.114298 501.685241 
L 1035.345543 501.685241 
L 1035.961165 502.158794 
L 1037.19241 502.158794 
L 1037.808032 501.348061 
L 1038.423654 502.158794 
L 1039.039276 501.348061 
L 1039.654898 552.777716 
L 1040.270521 552.777716 
L 1040.886143 556.51088 
L 1041.501765 554.536406 
L 1042.117387 556.51088 
L 1042.73301 599.789271 
L 1043.348632 599.789271 
L 1043.964254 615.6 
L 1044.579876 588.789739 
L 1045.811121 588.789739 
L 1046.426743 588.907653 
L 1047.657988 588.907653 
L 1048.27361 587.849203 
L 1048.889232 584.990202 
L 1049.504854 584.990202 
L 1050.120477 543.099295 
L 1050.736099 523.165167 
L 1051.351721 523.165167 
L 1051.967343 530.553452 
L 1052.582966 530.553452 
L 1053.198588 566.62183 
L 1055.045455 566.62183 
L 1055.661077 559.419796 
L 1056.276699 559.419796 
L 1056.892321 599.384069 
L 1057.507944 602.737043 
L 1058.123566 603.255656 
L 1058.739188 603.337603 
L 1059.35481 603.255656 
L 1059.970432 586.120639 
L 1061.201677 586.120639 
L 1061.817299 595.586733 
L 1063.048544 595.586733 
L 1063.664166 593.607103 
L 1064.279788 580.125855 
L 1064.89541 593.607103 
L 1065.511033 570.547404 
L 1066.126655 613.443726 
L 1066.742277 595.739658 
L 1067.357899 602.774175 
L 1067.973522 595.739658 
L 1068.589144 595.739658 
L 1069.204766 576.714025 
L 1069.820388 576.714025 
L 1070.436011 544.619496 
L 1071.051633 576.714025 
L 1071.667255 600.16692 
L 1072.282877 600.16692 
L 1072.8985 593.695373 
L 1073.514122 593.695373 
L 1074.129744 589.236478 
L 1074.745366 551.385325 
L 1075.360989 551.385325 
L 1075.976611 585.887243 
L 1076.592233 551.385325 
L 1077.207855 585.887243 
L 1077.823477 585.887243 
L 1079.054722 526.700724 
L 1080.285966 584.703918 
L 1081.517211 584.703918 
L 1082.132833 558.959177 
L 1082.748455 507.769898 
L 1083.364078 558.959177 
L 1083.9797 500.424615 
L 1084.595322 484.358791 
L 1085.210944 484.358791 
L 1085.826567 524.97933 
L 1086.442189 524.97933 
L 1087.057811 556.172453 
L 1087.673433 556.172453 
L 1088.289056 517.767306 
L 1088.904678 512.241396 
L 1089.5203 517.767306 
L 1090.135922 517.767306 
L 1090.751545 545.418146 
L 1091.982789 545.418146 
L 1092.598411 573.909543 
L 1093.214034 591.303617 
L 1093.829656 595.217283 
L 1094.445278 595.217283 
L 1095.0609 598.096536 
L 1095.676523 601.854185 
L 1096.292145 598.096536 
L 1096.907767 601.854185 
L 1097.523389 601.854185 
L 1098.139011 537.429538 
L 1098.754634 531.218306 
L 1099.370256 531.218306 
L 1099.985878 557.175253 
L 1100.6015 557.175253 
L 1101.217123 564.270437 
L 1101.832745 574.758227 
L 1103.063989 574.758227 
L 1103.679612 573.65215 
L 1104.295234 566.151702 
L 1104.910856 573.65215 
L 1105.526478 566.151702 
L 1106.142101 566.151702 
L 1106.757723 555.329323 
L 1107.373345 570.750839 
L 1107.988967 570.750839 
L 1108.60459 579.788867 
L 1109.220212 564.521449 
L 1109.835834 555.485054 
L 1110.451456 549.067534 
L 1112.298323 549.067534 
L 1112.913945 550.201496 
L 1113.529568 577.832348 
L 1114.14519 585.274192 
L 1115.992056 585.274192 
L 1116.607679 581.544094 
L 1117.223301 521.803627 
L 1117.838923 521.803627 
L 1118.454545 520.155673 
L 1119.68579 520.155673 
L 1120.301412 494.978281 
L 1120.917034 494.805928 
L 1121.532657 494.978281 
L 1122.148279 494.978281 
L 1122.763901 535.122446 
L 1123.379523 540.850805 
L 1123.995146 552.072483 
L 1124.610768 552.072483 
L 1125.22639 552.830178 
L 1125.842012 572.359685 
L 1126.457635 572.359685 
L 1127.073257 588.050004 
L 1127.688879 572.359685 
L 1128.304501 572.359685 
L 1128.920124 578.284062 
L 1129.535746 579.904022 
L 1130.151368 578.284062 
L 1130.76699 579.904022 
L 1131.382613 591.391491 
L 1131.998235 591.391491 
L 1132.613857 592.555287 
L 1133.229479 586.256386 
L 1133.845102 584.2425 
L 1134.460724 560.2283 
L 1135.076346 560.2283 
L 1135.691968 557.970838 
L 1136.30759 533.198506 
L 1136.923213 533.198506 
L 1137.538835 524.118424 
L 1138.154457 527.408519 
L 1138.770079 521.737003 
L 1139.385702 527.408519 
L 1140.001324 527.408519 
L 1140.616946 521.737003 
L 1141.232568 521.737003 
L 1141.848191 547.165567 
L 1142.463813 552.000672 
L 1143.079435 567.101487 
L 1144.31068 566.100402 
L 1144.926302 580.018158 
L 1145.541924 566.100402 
L 1146.157546 566.100402 
L 1147.388791 592.011791 
L 1148.620035 592.011791 
L 1149.235658 588.616539 
L 1149.85128 587.945631 
L 1151.082524 587.945631 
L 1151.698147 602.087352 
L 1152.313769 602.087352 
L 1152.929391 582.965127 
L 1153.545013 582.965127 
L 1154.160635 561.338781 
L 1154.776258 561.338781 
L 1155.39188 565.866476 
L 1156.007502 545.901123 
L 1157.854369 545.901123 
L 1158.469991 552.387997 
L 1159.085613 583.12779 
L 1159.701236 583.12779 
L 1160.316858 595.424056 
L 1160.93248 595.424056 
L 1161.548102 537.41759 
L 1162.163725 532.513082 
L 1162.779347 532.513082 
L 1163.394969 456.222728 
L 1164.010591 454.312173 
L 1164.626214 454.312173 
L 1165.241836 473.931724 
L 1165.857458 473.931724 
L 1166.47308 502.095402 
L 1167.088703 544.317266 
L 1167.704325 554.010828 
L 1168.319947 544.317266 
L 1168.935569 502.095402 
L 1169.551192 586.047039 
L 1170.166814 526.73559 
L 1170.782436 526.73559 
L 1171.398058 558.968705 
L 1172.01368 558.968705 
L 1172.629303 554.636059 
L 1174.476169 554.636059 
L 1175.091792 551.963086 
L 1175.707414 545.418146 
L 1176.323036 551.963086 
L 1176.938658 564.433972 
L 1178.785525 564.433972 
L 1180.01677 483.746218 
L 1181.248014 483.746218 
L 1181.863636 498.637754 
L 1182.479259 498.637754 
L 1183.094881 579.078161 
L 1183.710503 579.078161 
L 1184.326125 594.655046 
L 1184.941748 594.655046 
L 1185.55737 567.70321 
L 1186.172992 560.134249 
L 1186.788614 516.682828 
L 1187.404237 515.495165 
L 1188.019859 498.392333 
L 1188.635481 498.392333 
L 1189.251103 551.903042 
L 1189.866726 551.903042 
L 1190.482348 578.657395 
L 1191.09797 595.366123 
L 1191.713592 595.366123 
L 1192.329214 584.336182 
L 1192.944837 584.336182 
L 1193.560459 530.296044 
L 1194.176081 543.657655 
L 1195.407326 543.657655 
L 1196.022948 558.977745 
L 1197.869815 558.90497 
L 1198.485437 554.630887 
L 1199.101059 517.243552 
L 1199.716681 517.243552 
L 1200.332304 539.929413 
L 1200.947926 518.385973 
L 1201.563548 518.385973 
L 1202.17917 511.706164 
L 1202.794793 511.706164 
L 1203.410415 506.058485 
L 1204.026037 506.058485 
L 1204.641659 530.204148 
L 1205.257282 530.204148 
L 1205.872904 523.583205 
L 1207.104148 523.583205 
L 1207.719771 533.25313 
L 1208.335393 533.25313 
L 1208.951015 558.239904 
L 1209.566637 546.738153 
L 1210.797882 546.738153 
L 1211.413504 576.578699 
L 1212.029126 576.578699 
L 1212.644748 587.02269 
L 1213.260371 587.02269 
L 1213.875993 551.556259 
L 1214.491615 544.297521 
L 1215.107237 544.297521 
L 1215.72286 568.573413 
L 1216.338482 568.573413 
L 1216.954104 508.409748 
L 1217.569726 508.409748 
L 1218.185349 498.392333 
L 1218.800971 508.409748 
L 1219.416593 532.607988 
L 1220.032215 562.011898 
L 1220.647838 565.00339 
L 1221.26346 565.00339 
L 1221.879082 562.011898 
L 1222.494704 550.652986 
L 1223.725949 550.652986 
L 1224.341571 563.6149 
L 1224.957193 573.67411 
L 1225.572816 563.6149 
L 1226.188438 567.994705 
L 1227.419682 567.994705 
L 1228.035305 568.417202 
L 1228.650927 568.417202 
L 1229.266549 576.202108 
L 1229.882171 576.202108 
L 1230.497793 568.068358 
L 1231.113416 538.029461 
L 1232.960282 538.029461 
L 1233.575905 506.044532 
L 1234.191527 570.74275 
L 1236.038394 570.74275 
L 1236.654016 511.89712 
L 1238.500883 511.89712 
L 1239.116505 446.806527 
L 1239.732127 446.806527 
L 1240.347749 476.57111 
L 1240.963372 476.57111 
L 1241.578994 486.286481 
L 1242.194616 493.702017 
L 1242.810238 540.1533 
L 1244.041483 540.1533 
L 1245.272727 593.51899 
L 1245.272727 593.51899 
" style="fill:none;stroke:#1f77b4;stroke-linecap:square;stroke-width:1.5;"/>
   </g>
   <g id="line2d_15">
    <path clip-path="url(#pcbc23143a1)" d="M 241.192851 157.177444 
L 251.658429 288.396313 
L 252.274051 450.025053 
L 255.967785 252.286644 
L 263.355252 299.332054 
L 271.973963 209.307165 
L 334.151809 180.108691 
L 336.614298 407.542202 
L 347.079876 180.77409 
L 353.851721 125.679302 
L 371.704766 254.677424 
L 372.320388 338.169107 
L 380.323477 262.289402 
L 380.9391 395.2062 
L 381.554722 468.487456 
L 393.251545 261.007902 
L 511.451015 131.694054 
L 531.766549 162.621296 
L 533.613416 241.342395 
L 581.016328 151.73254 
L 582.247573 116.990769 
L 604.409974 198.891892 
L 603.794351 243.815107 
L 613.028685 234.031137 
L 688.134598 120.451738 
L 862.971315 124.82702 
L 862.355693 227.852437 
L 986.711386 187.719755 
L 1005.795675 205.351945 
L 1038.423654 205.468964 
L 1061.201677 224.325088 
L 1063.048544 214.557259 
L 1063.664166 142.503163 
L 1064.279788 295.212076 
L 1064.89541 271.083624 
L 1066.126655 118.365292 
L 1066.742277 341.046187 
L 1071.051633 147.161319 
L 1071.667255 136.408028 
L 1095.676523 263.820908 
L 1146.773169 111.6 
L 1148.004413 253.843978 
L 1152.929391 259.749301 
L 1155.39188 163.304241 
L 1156.007502 145.733556 
L 1191.09797 187.52318 
L 1205.257282 142.459055 
L 1205.872904 268.01185 
L 1207.719771 297.123023 
" style="fill:none;stroke:#ff7f0e;stroke-linecap:square;stroke-width:1.5;"/>
   </g>
   <g id="patch_3">
    <path d="M 180 640.8 
L 180 86.4 
" style="fill:none;stroke:#000000;stroke-linecap:square;stroke-linejoin:miter;stroke-width:0.8;"/>
   </g>
   <g id="patch_4">
    <path d="M 1296 640.8 
L 1296 86.4 
" style="fill:none;stroke:#000000;stroke-linecap:square;stroke-linejoin:miter;stroke-width:0.8;"/>
   </g>
   <g id="patch_5">
    <path d="M 180 640.8 
L 1296 640.8 
" style="fill:none;stroke:#000000;stroke-linecap:square;stroke-linejoin:miter;stroke-width:0.8;"/>
   </g>
   <g id="patch_6">
    <path d="M 180 86.4 
L 1296 86.4 
" style="fill:none;stroke:#000000;stroke-linecap:square;stroke-linejoin:miter;stroke-width:0.8;"/>
   </g>
  </g>
 </g>
 <defs>
  <clipPath id="pcbc23143a1">
   <rect height="554.4" width="1116" x="180" y="86.4"/>
  </clipPath>
 </defs>
</svg>
