<?xml version="1.0" encoding="utf-8" standalone="no"?>
<!DOCTYPE svg PUBLIC "-//W3C//DTD SVG 1.1//EN"
  "http://www.w3.org/Graphics/SVG/1.1/DTD/svg11.dtd">
<svg height="432pt" version="1.1" viewBox="0 0 864 432" width="864pt" xmlns="http://www.w3.org/2000/svg" xmlns:xlink="http://www.w3.org/1999/xlink">
 <metadata>
  <rdf:RDF xmlns:cc="http://creativecommons.org/ns#" xmlns:dc="http://purl.org/dc/elements/1.1/" xmlns:rdf="http://www.w3.org/1999/02/22-rdf-syntax-ns#">
   <cc:Work>
    <dc:type rdf:resource="http://purl.org/dc/dcmitype/StillImage"/>
    <dc:date>2022-01-06T21:23:40.919739</dc:date>
    <dc:format>image/svg+xml</dc:format>
    <dc:creator>
     <cc:Agent>
      <dc:title>Matplotlib v3.4.3, https://matplotlib.org/</dc:title>
     </cc:Agent>
    </dc:creator>
   </cc:Work>
  </rdf:RDF>
 </metadata>
 <defs>
  <style type="text/css">*{stroke-linecap:butt;stroke-linejoin:round;}</style>
 </defs>
 <g id="figure_1">
  <g id="patch_1">
   <path d="M 0 432 
L 864 432 
L 864 0 
L 0 0 
z
" style="fill:#ffffff;"/>
  </g>
  <g id="axes_1">
   <g id="patch_2">
    <path d="M 108 384.48 
L 777.6 384.48 
L 777.6 51.84 
L 108 51.84 
z
" style="fill:#ffffff;"/>
   </g>
   <g id="matplotlib.axis_1">
    <g id="xtick_1">
     <g id="line2d_1">
      <defs>
       <path d="M 0 0 
L 0 3.5 
" id="m5458e4a145" style="stroke:#000000;stroke-width:0.8;"/>
      </defs>
      <g>
       <use style="stroke:#000000;stroke-width:0.8;" x="138.436364" xlink:href="#m5458e4a145" y="384.48"/>
      </g>
     </g>
     <g id="text_1">
      <!-- 39000 -->
      <g transform="translate(122.530114 399.078438)scale(0.1 -0.1)">
       <defs>
        <path d="M 2597 2516 
Q 3050 2419 3304 2112 
Q 3559 1806 3559 1356 
Q 3559 666 3084 287 
Q 2609 -91 1734 -91 
Q 1441 -91 1130 -33 
Q 819 25 488 141 
L 488 750 
Q 750 597 1062 519 
Q 1375 441 1716 441 
Q 2309 441 2620 675 
Q 2931 909 2931 1356 
Q 2931 1769 2642 2001 
Q 2353 2234 1838 2234 
L 1294 2234 
L 1294 2753 
L 1863 2753 
Q 2328 2753 2575 2939 
Q 2822 3125 2822 3475 
Q 2822 3834 2567 4026 
Q 2313 4219 1838 4219 
Q 1578 4219 1281 4162 
Q 984 4106 628 3988 
L 628 4550 
Q 988 4650 1302 4700 
Q 1616 4750 1894 4750 
Q 2613 4750 3031 4423 
Q 3450 4097 3450 3541 
Q 3450 3153 3228 2886 
Q 3006 2619 2597 2516 
z
" id="DejaVuSans-33" transform="scale(0.015625)"/>
        <path d="M 703 97 
L 703 672 
Q 941 559 1184 500 
Q 1428 441 1663 441 
Q 2288 441 2617 861 
Q 2947 1281 2994 2138 
Q 2813 1869 2534 1725 
Q 2256 1581 1919 1581 
Q 1219 1581 811 2004 
Q 403 2428 403 3163 
Q 403 3881 828 4315 
Q 1253 4750 1959 4750 
Q 2769 4750 3195 4129 
Q 3622 3509 3622 2328 
Q 3622 1225 3098 567 
Q 2575 -91 1691 -91 
Q 1453 -91 1209 -44 
Q 966 3 703 97 
z
M 1959 2075 
Q 2384 2075 2632 2365 
Q 2881 2656 2881 3163 
Q 2881 3666 2632 3958 
Q 2384 4250 1959 4250 
Q 1534 4250 1286 3958 
Q 1038 3666 1038 3163 
Q 1038 2656 1286 2365 
Q 1534 2075 1959 2075 
z
" id="DejaVuSans-39" transform="scale(0.015625)"/>
        <path d="M 2034 4250 
Q 1547 4250 1301 3770 
Q 1056 3291 1056 2328 
Q 1056 1369 1301 889 
Q 1547 409 2034 409 
Q 2525 409 2770 889 
Q 3016 1369 3016 2328 
Q 3016 3291 2770 3770 
Q 2525 4250 2034 4250 
z
M 2034 4750 
Q 2819 4750 3233 4129 
Q 3647 3509 3647 2328 
Q 3647 1150 3233 529 
Q 2819 -91 2034 -91 
Q 1250 -91 836 529 
Q 422 1150 422 2328 
Q 422 3509 836 4129 
Q 1250 4750 2034 4750 
z
" id="DejaVuSans-30" transform="scale(0.015625)"/>
       </defs>
       <use xlink:href="#DejaVuSans-33"/>
       <use x="63.623047" xlink:href="#DejaVuSans-39"/>
       <use x="127.246094" xlink:href="#DejaVuSans-30"/>
       <use x="190.869141" xlink:href="#DejaVuSans-30"/>
       <use x="254.492188" xlink:href="#DejaVuSans-30"/>
      </g>
     </g>
    </g>
    <g id="xtick_2">
     <g id="line2d_2">
      <g>
       <use style="stroke:#000000;stroke-width:0.8;" x="230.7797" xlink:href="#m5458e4a145" y="384.48"/>
      </g>
     </g>
     <g id="text_2">
      <!-- 39250 -->
      <g transform="translate(214.87345 399.078438)scale(0.1 -0.1)">
       <defs>
        <path d="M 1228 531 
L 3431 531 
L 3431 0 
L 469 0 
L 469 531 
Q 828 903 1448 1529 
Q 2069 2156 2228 2338 
Q 2531 2678 2651 2914 
Q 2772 3150 2772 3378 
Q 2772 3750 2511 3984 
Q 2250 4219 1831 4219 
Q 1534 4219 1204 4116 
Q 875 4013 500 3803 
L 500 4441 
Q 881 4594 1212 4672 
Q 1544 4750 1819 4750 
Q 2544 4750 2975 4387 
Q 3406 4025 3406 3419 
Q 3406 3131 3298 2873 
Q 3191 2616 2906 2266 
Q 2828 2175 2409 1742 
Q 1991 1309 1228 531 
z
" id="DejaVuSans-32" transform="scale(0.015625)"/>
        <path d="M 691 4666 
L 3169 4666 
L 3169 4134 
L 1269 4134 
L 1269 2991 
Q 1406 3038 1543 3061 
Q 1681 3084 1819 3084 
Q 2600 3084 3056 2656 
Q 3513 2228 3513 1497 
Q 3513 744 3044 326 
Q 2575 -91 1722 -91 
Q 1428 -91 1123 -41 
Q 819 9 494 109 
L 494 744 
Q 775 591 1075 516 
Q 1375 441 1709 441 
Q 2250 441 2565 725 
Q 2881 1009 2881 1497 
Q 2881 1984 2565 2268 
Q 2250 2553 1709 2553 
Q 1456 2553 1204 2497 
Q 953 2441 691 2322 
L 691 4666 
z
" id="DejaVuSans-35" transform="scale(0.015625)"/>
       </defs>
       <use xlink:href="#DejaVuSans-33"/>
       <use x="63.623047" xlink:href="#DejaVuSans-39"/>
       <use x="127.246094" xlink:href="#DejaVuSans-32"/>
       <use x="190.869141" xlink:href="#DejaVuSans-35"/>
       <use x="254.492188" xlink:href="#DejaVuSans-30"/>
      </g>
     </g>
    </g>
    <g id="xtick_3">
     <g id="line2d_3">
      <g>
       <use style="stroke:#000000;stroke-width:0.8;" x="323.123036" xlink:href="#m5458e4a145" y="384.48"/>
      </g>
     </g>
     <g id="text_3">
      <!-- 39500 -->
      <g transform="translate(307.216786 399.078438)scale(0.1 -0.1)">
       <use xlink:href="#DejaVuSans-33"/>
       <use x="63.623047" xlink:href="#DejaVuSans-39"/>
       <use x="127.246094" xlink:href="#DejaVuSans-35"/>
       <use x="190.869141" xlink:href="#DejaVuSans-30"/>
       <use x="254.492188" xlink:href="#DejaVuSans-30"/>
      </g>
     </g>
    </g>
    <g id="xtick_4">
     <g id="line2d_4">
      <g>
       <use style="stroke:#000000;stroke-width:0.8;" x="415.466372" xlink:href="#m5458e4a145" y="384.48"/>
      </g>
     </g>
     <g id="text_4">
      <!-- 39750 -->
      <g transform="translate(399.560122 399.078438)scale(0.1 -0.1)">
       <defs>
        <path d="M 525 4666 
L 3525 4666 
L 3525 4397 
L 1831 0 
L 1172 0 
L 2766 4134 
L 525 4134 
L 525 4666 
z
" id="DejaVuSans-37" transform="scale(0.015625)"/>
       </defs>
       <use xlink:href="#DejaVuSans-33"/>
       <use x="63.623047" xlink:href="#DejaVuSans-39"/>
       <use x="127.246094" xlink:href="#DejaVuSans-37"/>
       <use x="190.869141" xlink:href="#DejaVuSans-35"/>
       <use x="254.492188" xlink:href="#DejaVuSans-30"/>
      </g>
     </g>
    </g>
    <g id="xtick_5">
     <g id="line2d_5">
      <g>
       <use style="stroke:#000000;stroke-width:0.8;" x="507.809709" xlink:href="#m5458e4a145" y="384.48"/>
      </g>
     </g>
     <g id="text_5">
      <!-- 40000 -->
      <g transform="translate(491.903459 399.078438)scale(0.1 -0.1)">
       <defs>
        <path d="M 2419 4116 
L 825 1625 
L 2419 1625 
L 2419 4116 
z
M 2253 4666 
L 3047 4666 
L 3047 1625 
L 3713 1625 
L 3713 1100 
L 3047 1100 
L 3047 0 
L 2419 0 
L 2419 1100 
L 313 1100 
L 313 1709 
L 2253 4666 
z
" id="DejaVuSans-34" transform="scale(0.015625)"/>
       </defs>
       <use xlink:href="#DejaVuSans-34"/>
       <use x="63.623047" xlink:href="#DejaVuSans-30"/>
       <use x="127.246094" xlink:href="#DejaVuSans-30"/>
       <use x="190.869141" xlink:href="#DejaVuSans-30"/>
       <use x="254.492188" xlink:href="#DejaVuSans-30"/>
      </g>
     </g>
    </g>
    <g id="xtick_6">
     <g id="line2d_6">
      <g>
       <use style="stroke:#000000;stroke-width:0.8;" x="600.153045" xlink:href="#m5458e4a145" y="384.48"/>
      </g>
     </g>
     <g id="text_6">
      <!-- 40250 -->
      <g transform="translate(584.246795 399.078438)scale(0.1 -0.1)">
       <use xlink:href="#DejaVuSans-34"/>
       <use x="63.623047" xlink:href="#DejaVuSans-30"/>
       <use x="127.246094" xlink:href="#DejaVuSans-32"/>
       <use x="190.869141" xlink:href="#DejaVuSans-35"/>
       <use x="254.492188" xlink:href="#DejaVuSans-30"/>
      </g>
     </g>
    </g>
    <g id="xtick_7">
     <g id="line2d_7">
      <g>
       <use style="stroke:#000000;stroke-width:0.8;" x="692.496381" xlink:href="#m5458e4a145" y="384.48"/>
      </g>
     </g>
     <g id="text_7">
      <!-- 40500 -->
      <g transform="translate(676.590131 399.078438)scale(0.1 -0.1)">
       <use xlink:href="#DejaVuSans-34"/>
       <use x="63.623047" xlink:href="#DejaVuSans-30"/>
       <use x="127.246094" xlink:href="#DejaVuSans-35"/>
       <use x="190.869141" xlink:href="#DejaVuSans-30"/>
       <use x="254.492188" xlink:href="#DejaVuSans-30"/>
      </g>
     </g>
    </g>
   </g>
   <g id="matplotlib.axis_2">
    <g id="ytick_1">
     <g id="line2d_8">
      <defs>
       <path d="M 0 0 
L -3.5 0 
" id="m59763be410" style="stroke:#000000;stroke-width:0.8;"/>
      </defs>
      <g>
       <use style="stroke:#000000;stroke-width:0.8;" x="108" xlink:href="#m59763be410" y="346.976406"/>
      </g>
     </g>
     <g id="text_8">
      <!-- −3 -->
      <g transform="translate(86.257812 350.775625)scale(0.1 -0.1)">
       <defs>
        <path d="M 678 2272 
L 4684 2272 
L 4684 1741 
L 678 1741 
L 678 2272 
z
" id="DejaVuSans-2212" transform="scale(0.015625)"/>
       </defs>
       <use xlink:href="#DejaVuSans-2212"/>
       <use x="83.789062" xlink:href="#DejaVuSans-33"/>
      </g>
     </g>
    </g>
    <g id="ytick_2">
     <g id="line2d_9">
      <g>
       <use style="stroke:#000000;stroke-width:0.8;" x="108" xlink:href="#m59763be410" y="302.114177"/>
      </g>
     </g>
     <g id="text_9">
      <!-- −2 -->
      <g transform="translate(86.257812 305.913396)scale(0.1 -0.1)">
       <use xlink:href="#DejaVuSans-2212"/>
       <use x="83.789062" xlink:href="#DejaVuSans-32"/>
      </g>
     </g>
    </g>
    <g id="ytick_3">
     <g id="line2d_10">
      <g>
       <use style="stroke:#000000;stroke-width:0.8;" x="108" xlink:href="#m59763be410" y="257.251948"/>
      </g>
     </g>
     <g id="text_10">
      <!-- −1 -->
      <g transform="translate(86.257812 261.051167)scale(0.1 -0.1)">
       <defs>
        <path d="M 794 531 
L 1825 531 
L 1825 4091 
L 703 3866 
L 703 4441 
L 1819 4666 
L 2450 4666 
L 2450 531 
L 3481 531 
L 3481 0 
L 794 0 
L 794 531 
z
" id="DejaVuSans-31" transform="scale(0.015625)"/>
       </defs>
       <use xlink:href="#DejaVuSans-2212"/>
       <use x="83.789062" xlink:href="#DejaVuSans-31"/>
      </g>
     </g>
    </g>
    <g id="ytick_4">
     <g id="line2d_11">
      <g>
       <use style="stroke:#000000;stroke-width:0.8;" x="108" xlink:href="#m59763be410" y="212.389719"/>
      </g>
     </g>
     <g id="text_11">
      <!-- 0 -->
      <g transform="translate(94.6375 216.188937)scale(0.1 -0.1)">
       <use xlink:href="#DejaVuSans-30"/>
      </g>
     </g>
    </g>
    <g id="ytick_5">
     <g id="line2d_12">
      <g>
       <use style="stroke:#000000;stroke-width:0.8;" x="108" xlink:href="#m59763be410" y="167.527489"/>
      </g>
     </g>
     <g id="text_12">
      <!-- 1 -->
      <g transform="translate(94.6375 171.326708)scale(0.1 -0.1)">
       <use xlink:href="#DejaVuSans-31"/>
      </g>
     </g>
    </g>
    <g id="ytick_6">
     <g id="line2d_13">
      <g>
       <use style="stroke:#000000;stroke-width:0.8;" x="108" xlink:href="#m59763be410" y="122.66526"/>
      </g>
     </g>
     <g id="text_13">
      <!-- 2 -->
      <g transform="translate(94.6375 126.464479)scale(0.1 -0.1)">
       <use xlink:href="#DejaVuSans-32"/>
      </g>
     </g>
    </g>
    <g id="ytick_7">
     <g id="line2d_14">
      <g>
       <use style="stroke:#000000;stroke-width:0.8;" x="108" xlink:href="#m59763be410" y="77.803031"/>
      </g>
     </g>
     <g id="text_14">
      <!-- 3 -->
      <g transform="translate(94.6375 81.60225)scale(0.1 -0.1)">
       <use xlink:href="#DejaVuSans-33"/>
      </g>
     </g>
    </g>
   </g>
   <g id="line2d_15">
    <path clip-path="url(#p443123b430)" d="M 138.436364 215.604637 
L 138.805737 220.696702 
L 138.436364 220.696702 
L 139.17511 228.357753 
L 139.544484 220.696702 
L 139.913857 218.801773 
L 140.28323 218.801773 
L 140.652604 209.583992 
L 141.021977 208.611981 
L 141.39135 202.721821 
L 141.021977 202.721821 
L 141.760724 202.721821 
L 142.130097 201.804409 
L 142.49947 203.045389 
L 142.868844 216.012566 
L 143.238217 222.662851 
L 143.60759 222.662851 
L 143.976964 214.714279 
L 144.346337 213.962512 
L 144.715711 213.962512 
L 145.085084 214.714279 
L 145.454457 222.973839 
L 145.823831 227.540078 
L 146.193204 227.540078 
L 146.562577 232.638241 
L 147.301324 232.647917 
L 147.670697 218.125522 
L 148.040071 196.026673 
L 148.409444 194.413929 
L 148.778817 194.413929 
L 149.148191 196.026673 
L 149.517564 226.905965 
L 149.886937 226.905965 
L 150.256311 230.157825 
L 150.625684 230.157825 
L 150.995057 231.857038 
L 151.364431 232.231123 
L 151.733804 244.453461 
L 152.103177 232.231123 
L 152.472551 231.857038 
L 152.841924 234.842025 
L 153.211297 222.449241 
L 153.580671 226.11077 
L 153.950044 221.899838 
L 154.319417 220.801127 
L 154.688791 220.801127 
L 155.058164 221.899838 
L 155.427538 199.141699 
L 155.796911 186.281278 
L 156.166284 199.141699 
L 156.535658 186.281278 
L 156.905031 191.215782 
L 157.274404 201.921518 
L 157.643778 191.215782 
L 158.013151 191.215782 
L 158.382524 204.058604 
L 158.751898 204.058604 
L 159.121271 207.973594 
L 159.490644 207.973594 
L 159.860018 215.168815 
L 160.229391 215.168815 
L 160.598764 211.034836 
L 161.706884 211.034836 
L 162.076258 214.983547 
L 162.445631 226.529049 
L 162.815004 226.821944 
L 163.184378 227.748017 
L 163.553751 227.748017 
L 163.923124 226.821944 
L 164.292498 214.296337 
L 164.661871 214.296337 
L 165.031244 209.406616 
L 165.400618 214.296337 
L 165.769991 205.705782 
L 166.139365 205.548028 
L 166.508738 212.477055 
L 167.247485 212.477055 
L 167.616858 212.618601 
L 167.986231 214.288438 
L 168.355605 214.288438 
L 169.094351 208.481751 
L 169.463725 208.481751 
L 169.833098 215.048264 
L 170.571845 215.048264 
L 170.941218 202.721821 
L 171.679965 198.973423 
L 172.049338 200.618865 
L 172.418711 200.618865 
L 172.788085 192.700371 
L 173.157458 190.909744 
L 173.896205 190.909744 
L 174.265578 200.77367 
L 175.004325 200.77367 
L 175.373698 212.100257 
L 175.743071 212.100257 
L 176.112445 196.868447 
L 176.481818 207.268035 
L 176.851192 202.927654 
L 177.220565 206.636736 
L 177.589938 206.636736 
L 177.959312 204.120072 
L 178.698058 204.120072 
L 179.436805 216.428608 
L 179.806178 216.428608 
L 180.175552 222.83873 
L 180.544925 211.383451 
L 180.914298 211.58572 
L 181.283672 211.383451 
L 181.653045 200.249535 
L 182.391792 200.249535 
L 182.761165 203.228318 
L 183.130538 203.228318 
L 183.499912 193.141838 
L 183.869285 216.392686 
L 184.238658 210.776251 
L 184.608032 210.776251 
L 184.977405 218.272416 
L 185.346778 222.786113 
L 185.716152 219.939909 
L 187.193645 219.939909 
L 187.563019 210.918787 
L 187.932392 227.707411 
L 188.301765 227.707411 
L 187.932392 227.707411 
L 188.671139 229.451017 
L 188.301765 229.451017 
L 189.040512 191.21904 
L 189.409885 194.382221 
L 190.148632 194.382221 
L 190.518005 194.8749 
L 190.887379 222.329353 
L 191.256752 206.139 
L 191.626125 206.139 
L 191.995499 217.397732 
L 191.626125 217.397732 
L 193.103619 217.397732 
L 193.472992 202.954652 
L 193.842365 202.416591 
L 194.211739 193.858204 
L 194.950485 193.858204 
L 195.319859 200.634535 
L 195.689232 202.721821 
L 196.058605 206.869519 
L 196.427979 206.869519 
L 197.166726 226.170645 
L 197.536099 218.736264 
L 197.905472 218.736264 
L 198.274846 188.989452 
L 199.382966 188.989452 
L 199.752339 195.907332 
L 200.121712 209.26501 
L 200.491086 230.503724 
L 200.860459 209.26501 
L 201.599206 209.26501 
L 201.968579 194.854752 
L 202.337952 213.051142 
L 203.076699 213.051142 
L 203.446072 216.438907 
L 203.815446 213.051142 
L 204.184819 216.438907 
L 204.923566 216.438907 
L 205.292939 198.827337 
L 205.662312 220.103047 
L 206.401059 220.103047 
L 206.031686 220.103047 
L 207.139806 196.683538 
L 207.509179 199.164444 
L 207.878553 199.164444 
L 208.247926 203.561467 
L 208.617299 206.266091 
L 208.986673 210.854561 
L 209.356046 213.628261 
L 210.094793 213.628261 
L 210.464166 215.908096 
L 210.833539 216.805791 
L 211.572286 216.805791 
L 211.941659 215.908096 
L 212.311033 192.976432 
L 212.680406 192.634123 
L 213.419153 192.634123 
L 213.788526 188.286524 
L 214.157899 188.286524 
L 214.527273 200.51128 
L 214.896646 200.51128 
L 215.266019 201.043072 
L 214.896646 200.51128 
L 215.635393 201.043072 
L 216.374139 201.043072 
L 216.743513 216.855783 
L 217.112886 200.899043 
L 218.221006 200.899043 
L 218.59038 201.90165 
L 218.959753 198.804978 
L 219.329126 172.272568 
L 219.6985 172.272568 
L 220.067873 172.889573 
L 220.437246 172.889573 
L 220.80662 186.281278 
L 221.175993 186.450203 
L 221.545366 206.093637 
L 222.284113 224.493223 
L 222.653486 224.493223 
L 223.02286 215.762848 
L 223.392233 224.493223 
L 223.761606 214.812788 
L 224.13098 214.319188 
L 224.500353 212.410195 
L 224.869726 212.410195 
L 225.608473 203.74242 
L 225.977846 203.520544 
L 226.34722 203.74242 
L 225.977846 203.74242 
L 226.716593 203.74242 
L 227.085966 220.926149 
L 228.56346 220.995653 
L 228.932833 226.394256 
L 229.302207 226.394256 
L 230.040953 215.828483 
L 230.410327 213.637478 
L 230.7797 212.176167 
L 231.149073 212.176167 
L 231.518447 209.812985 
L 231.88782 209.812985 
L 232.257193 217.840199 
L 232.626567 221.145505 
L 232.99594 217.840199 
L 233.365313 221.145505 
L 233.734687 206.321792 
L 234.10406 206.321792 
L 234.473433 215.57495 
L 235.21218 215.57495 
L 235.581553 216.142286 
L 235.950927 216.142286 
L 236.3203 206.606002 
L 236.689673 212.772915 
L 237.059047 202.316583 
L 237.42842 201.963756 
L 237.797793 201.963756 
L 238.167167 202.316583 
L 238.53654 202.316583 
L 238.905914 210.29192 
L 239.275287 210.29192 
L 239.64466 217.14583 
L 240.014034 210.29192 
L 239.275287 200.446723 
L 240.383407 199.304662 
L 240.75278 199.4218 
L 241.122154 199.304662 
L 241.491527 193.702434 
L 241.8609 193.702434 
L 242.230274 192.674576 
L 242.599647 192.674576 
L 242.96902 202.107322 
L 243.338394 202.107322 
L 243.707767 200.990393 
L 244.446514 200.990393 
L 244.815887 175.283394 
L 245.18526 204.115015 
L 246.29338 204.115015 
L 246.662754 208.275988 
L 247.032127 208.275988 
L 247.4015 207.302074 
L 247.770874 210.803019 
L 248.140247 207.302074 
L 248.878994 207.302074 
L 249.248367 175.448773 
L 249.617741 154.433639 
L 249.987114 175.448773 
L 250.356487 179.749257 
L 250.725861 179.749257 
L 251.095234 180.988561 
L 251.464607 203.986956 
L 251.833981 207.476109 
L 252.572727 207.476109 
L 252.942101 194.915133 
L 253.680847 194.915133 
L 254.050221 203.587284 
L 254.419594 219.859291 
L 254.788967 219.859291 
L 255.158341 206.679923 
L 256.266461 206.679923 
L 256.635834 207.422821 
L 257.374581 207.422821 
L 257.743954 208.130554 
L 258.113327 213.460275 
L 258.852074 213.460275 
L 259.221447 195.717429 
L 259.590821 195.717429 
L 259.960194 205.106639 
L 260.329568 207.979595 
L 260.698941 207.979595 
L 261.068314 205.106639 
L 261.437688 204.163996 
L 261.807061 191.574406 
L 262.176434 191.574406 
L 262.545808 204.163996 
L 262.915181 205.486306 
L 263.284554 223.78214 
L 264.023301 223.78214 
L 264.392674 211.92145 
L 264.762048 206.067718 
L 265.500794 200.249535 
L 266.608914 200.249535 
L 266.978288 206.026944 
L 267.347661 206.612884 
L 267.717034 222.10585 
L 268.086408 222.10585 
L 268.455781 210.275352 
L 268.825154 222.10585 
L 269.194528 210.275352 
L 269.563901 204.389107 
L 270.302648 204.389107 
L 270.672021 202.413248 
L 271.041395 202.413248 
L 271.410768 205.245251 
L 271.780141 205.245251 
L 272.149515 202.413248 
L 272.518888 217.642247 
L 272.888261 215.414056 
L 273.257635 201.384273 
L 273.627008 201.384273 
L 273.996381 196.750207 
L 274.365755 194.24221 
L 275.473875 194.24221 
L 275.104501 179.973038 
L 275.843248 179.973038 
L 276.212621 176.249397 
L 276.581995 154.207102 
L 275.473875 154.207102 
L 277.690115 154.207102 
L 278.059488 174.895024 
L 278.428861 174.895024 
L 278.798235 179.247175 
L 279.167608 179.247175 
L 279.536981 189.967183 
L 279.906355 194.413929 
L 280.275728 194.925159 
L 280.645102 198.908697 
L 281.014475 198.908697 
L 281.383848 210.59591 
L 282.122595 210.59591 
L 282.491968 200.404802 
L 283.230715 200.404802 
L 283.969462 210.653628 
L 284.338835 210.653628 
L 285.077582 201.989021 
L 285.446955 200.109835 
L 285.816328 199.25311 
L 286.185702 199.25311 
L 286.555075 200.109835 
L 286.924448 199.25311 
L 287.293822 199.25311 
L 287.663195 202.205676 
L 288.032568 203.254566 
L 288.401942 203.254566 
L 288.771315 204.82685 
L 289.140688 204.82685 
L 289.510062 195.261271 
L 289.879435 194.057892 
L 290.248808 173.187078 
L 290.987555 173.187078 
L 291.356929 177.73601 
L 291.726302 180.339566 
L 292.095675 189.751585 
L 292.834422 181.69741 
L 293.203795 186.042796 
L 293.573169 186.042796 
L 293.942542 185.26962 
L 294.311915 181.69741 
L 294.681289 180.510997 
L 295.050662 180.510997 
L 295.420035 185.26962 
L 295.789409 193.033283 
L 296.158782 193.033283 
L 296.528155 191.792274 
L 296.897529 190.116211 
L 297.266902 189.906426 
L 296.528155 185.872411 
L 297.636275 185.872411 
L 298.005649 187.218134 
L 298.375022 187.218134 
L 298.744395 188.420494 
L 299.113769 188.420494 
L 299.483142 190.91174 
L 299.852515 190.91174 
L 300.221889 197.55967 
L 300.591262 198.465312 
L 300.960635 199.769046 
L 301.330009 199.769046 
L 301.699382 208.448462 
L 302.438129 208.448462 
L 302.807502 200.839985 
L 303.176876 199.765616 
L 303.546249 198.185977 
L 303.915622 198.185977 
L 304.284996 191.304438 
L 304.654369 181.933774 
L 304.284996 177.955343 
L 305.023742 177.955343 
L 305.393116 181.933774 
L 305.762489 173.380226 
L 306.131862 184.467568 
L 306.501236 184.467568 
L 306.870609 194.238712 
L 307.978729 194.238712 
L 308.348102 199.481436 
L 308.717476 199.481436 
L 309.086849 199.880439 
L 309.456222 199.880439 
L 308.717476 199.105968 
L 309.825596 188.987825 
L 310.194969 183.369932 
L 310.564342 183.369932 
L 310.933716 188.782869 
L 311.303089 188.987825 
L 311.672462 193.456066 
L 312.411209 198.930853 
L 312.780583 208.946295 
L 313.149956 208.946295 
L 313.519329 204.180113 
L 313.888703 204.180113 
L 314.258076 203.086485 
L 314.627449 203.875679 
L 314.996823 203.086485 
L 315.366196 203.086485 
L 315.735569 208.019779 
L 316.104943 208.019779 
L 316.474316 210.204692 
L 316.843689 199.280551 
L 317.213063 197.435164 
L 317.582436 196.887141 
L 317.951809 197.435164 
L 318.321183 196.317363 
L 318.690556 198.068992 
L 319.059929 196.419595 
L 319.429303 198.031672 
L 320.906796 198.031672 
L 321.276169 199.55872 
L 321.645543 199.55872 
L 322.014916 200.733146 
L 322.384289 199.55872 
L 322.753663 199.55872 
L 323.861783 184.137858 
L 324.231156 187.253148 
L 324.60053 187.253148 
L 324.969903 205.080827 
L 325.70865 205.080827 
L 326.078023 201.076233 
L 326.447396 200.319416 
L 326.81677 198.711161 
L 327.186143 198.582714 
L 327.92489 198.582714 
L 328.294263 195.968851 
L 328.663636 206.337216 
L 329.03301 206.337216 
L 329.402383 205.371091 
L 329.771756 191.56391 
L 330.14113 193.65438 
L 329.771756 193.65438 
L 330.510503 193.65438 
L 330.879876 195.259603 
L 331.618623 195.259603 
L 331.987996 199.0473 
L 332.35737 195.027818 
L 332.726743 195.027818 
L 333.096117 207.483848 
L 333.46549 207.483848 
L 333.834863 200.777165 
L 334.204237 202.175413 
L 334.57361 200.777165 
L 334.942983 197.277944 
L 335.312357 197.277944 
L 335.68173 203.130714 
L 336.78985 203.130714 
L 337.159223 202.029224 
L 337.528597 202.029224 
L 337.89797 203.477205 
L 338.267343 204.401187 
L 338.636717 203.477205 
L 339.375463 203.477205 
L 339.744837 197.647637 
L 340.11421 196.258439 
L 340.852957 196.258439 
L 341.22233 181.404591 
L 341.591703 197.182113 
L 342.699823 197.182113 
L 343.069197 198.434709 
L 343.43857 187.596821 
L 343.807944 192.349689 
L 344.177317 192.349689 
L 344.54669 187.596821 
L 344.916064 187.596821 
L 345.285437 192.349689 
L 345.65481 200.756973 
L 346.024184 202.697894 
L 346.393557 202.697894 
L 346.76293 200.756973 
L 347.132304 200.756973 
L 347.501677 202.697894 
L 347.87105 206.082444 
L 348.240424 206.082444 
L 348.609797 208.441803 
L 348.97917 206.082444 
L 349.348544 202.755442 
L 349.717917 202.272852 
L 350.08729 202.755442 
L 350.826037 202.755442 
L 351.19541 202.272852 
L 352.30353 202.266273 
L 352.672904 206.687087 
L 353.042277 206.96127 
L 353.41165 206.96127 
L 353.781024 206.687087 
L 354.150397 203.732751 
L 354.519771 202.755442 
L 355.258517 202.755442 
L 355.627891 199.313461 
L 355.997264 199.313461 
L 356.366637 198.575083 
L 355.997264 195.895498 
L 357.105384 195.895498 
L 357.474757 198.542973 
L 357.844131 198.576653 
L 358.213504 199.646843 
L 359.690997 199.646843 
L 360.060371 204.567943 
L 360.429744 204.567943 
L 360.799117 203.410305 
L 361.168491 203.410305 
L 361.537864 204.567943 
L 361.907237 212.169696 
L 362.276611 212.169696 
L 362.645984 216.025785 
L 362.276611 216.025785 
L 363.015357 212.169696 
L 363.384731 211.891541 
L 363.754104 188.670853 
L 364.123477 187.407125 
L 364.862224 187.407125 
L 365.231598 186.660979 
L 365.600971 185.559588 
L 365.970344 198.477977 
L 366.339718 194.589839 
L 366.709091 194.589839 
L 367.078464 198.521027 
L 367.447838 204.825013 
L 367.817211 206.082444 
L 368.555958 206.082444 
L 368.925331 195.27516 
L 369.294704 190.48699 
L 369.664078 187.409678 
L 370.033451 186.881608 
L 370.402824 187.409678 
L 370.772198 185.988069 
L 371.141571 187.409678 
L 371.510944 192.991727 
L 371.880318 194.532233 
L 372.619064 194.532233 
L 372.988438 194.197586 
L 373.357811 194.532233 
L 373.727184 195.516113 
L 374.096558 194.197586 
L 374.465931 194.197586 
L 374.835305 197.070609 
L 375.204678 197.608087 
L 375.574051 193.004661 
L 375.943425 195.131725 
L 376.312798 204.850436 
L 376.682171 202.19354 
L 377.051545 202.19354 
L 377.420918 204.850436 
L 377.051545 205.270381 
L 377.790291 202.19354 
L 378.159665 196.443532 
L 378.529038 196.443532 
L 379.267785 187.999308 
L 379.637158 192.349689 
L 380.006531 192.349689 
L 380.375905 195.453827 
L 380.745278 195.453827 
L 381.114651 196.834335 
L 381.484025 196.834335 
L 381.853398 193.594949 
L 382.222771 193.348573 
L 382.592145 193.594949 
L 382.961518 193.594949 
L 383.330891 203.991638 
L 383.700265 210.33019 
L 384.069638 210.33019 
L 384.439011 205.631736 
L 384.808385 216.431699 
L 385.547132 196.275696 
L 385.916505 201.261013 
L 386.285878 200.805747 
L 387.393998 200.805747 
L 387.763372 196.884888 
L 388.132745 196.884888 
L 388.502118 195.870788 
L 388.871492 195.870788 
L 389.240865 197.844131 
L 389.610238 202.963582 
L 389.979612 205.408705 
L 390.348985 205.408705 
L 390.718358 203.137381 
L 391.087732 202.963582 
L 391.457105 196.028012 
L 391.826478 194.922664 
L 392.195852 187.708742 
L 392.934598 187.708742 
L 393.303972 193.281071 
L 393.673345 193.281071 
L 394.042718 215.458053 
L 394.412092 215.458053 
L 394.781465 197.929385 
L 395.150838 197.644793 
L 395.520212 197.644793 
L 395.889585 195.793942 
L 396.258959 197.442327 
L 396.628332 197.442327 
L 396.997705 190.571827 
L 397.367079 197.442327 
L 397.736452 197.442327 
L 398.105825 204.395185 
L 398.475199 190.571827 
L 398.844572 204.395185 
L 399.213945 196.477434 
L 399.583319 196.477434 
L 399.952692 199.824462 
L 400.691439 199.824462 
L 401.060812 198.575083 
L 401.430185 205.252889 
L 401.799559 209.587415 
L 402.168932 209.587415 
L 402.538305 200.669248 
L 402.907679 197.300351 
L 403.277052 197.122515 
L 403.646425 197.122515 
L 403.277052 197.122515 
L 404.015799 200.255051 
L 404.385172 200.255051 
L 404.754545 202.166066 
L 405.123919 200.255051 
L 405.493292 200.255051 
L 405.862665 201.548798 
L 406.232039 204.091329 
L 406.601412 209.043708 
L 406.970786 209.043708 
L 407.340159 201.548798 
L 407.709532 206.971359 
L 408.078906 197.941978 
L 408.817652 197.941978 
L 409.187026 199.961928 
L 409.556399 189.846896 
L 409.925772 199.961928 
L 410.295146 186.972538 
L 410.664519 186.972538 
L 411.033892 194.552335 
L 412.142012 194.552335 
L 412.511386 195.516113 
L 413.250132 190.518754 
L 413.619506 192.787694 
L 413.988879 190.518754 
L 414.358252 185.63143 
L 414.727626 185.559588 
L 415.096999 185.63143 
L 415.835746 185.559588 
L 415.466372 185.559588 
L 416.205119 189.521746 
L 416.574492 183.037609 
L 416.943866 189.521746 
L 417.313239 189.521746 
L 418.051986 194.922664 
L 418.421359 203.351705 
L 418.790733 203.351705 
L 419.160106 203.756113 
L 419.529479 203.756113 
L 419.898853 202.518847 
L 420.268226 205.059503 
L 420.637599 205.059503 
L 421.006973 203.403851 
L 421.376346 187.670755 
L 421.745719 203.403851 
L 421.376346 187.670755 
L 422.115093 186.281278 
L 423.223213 186.281278 
L 423.592586 187.152198 
L 423.223213 190.260978 
L 424.331333 190.260978 
L 424.700706 181.860355 
L 425.439453 181.860355 
L 425.808826 184.240301 
L 427.28632 184.240301 
L 427.655693 182.187697 
L 428.025066 196.133084 
L 428.39444 196.133084 
L 428.763813 182.187697 
L 429.133186 182.187697 
L 429.50256 176.290817 
L 429.871933 174.810765 
L 430.241306 176.290817 
L 430.61068 183.313356 
L 430.980053 186.281278 
L 431.349426 186.281278 
L 431.7188 190.440482 
L 433.196293 190.440482 
L 433.565666 195.954092 
L 433.93504 187.197877 
L 434.304413 185.559588 
L 434.673786 187.197877 
L 435.04316 187.197877 
L 435.412533 193.941367 
L 435.781906 196.776178 
L 436.15128 196.776178 
L 436.520653 205.400134 
L 436.890026 220.436343 
L 437.2594 220.436343 
L 437.628773 198.88917 
L 437.998147 198.88917 
L 438.36752 196.711325 
L 438.736893 188.098027 
L 439.106267 183.544175 
L 439.47564 181.684317 
L 439.845013 181.684317 
L 440.214387 183.544175 
L 440.58376 219.230848 
L 440.953133 219.230848 
L 441.322507 212.94247 
L 441.69188 185.772781 
L 442.061253 185.559588 
L 442.8 185.559588 
L 443.169373 185.772781 
L 443.538747 182.55194 
L 443.90812 187.886809 
L 444.277493 189.061083 
L 444.646867 192.672464 
L 445.385613 192.672464 
L 445.01624 187.330938 
L 445.754987 186.29476 
L 446.12436 186.29476 
L 446.493733 185.972087 
L 446.863107 186.29476 
L 447.23248 199.171823 
L 449.44872 199.247532 
L 449.818094 199.916279 
L 450.187467 199.916279 
L 450.55684 195.595981 
L 450.926214 199.916279 
L 449.818094 199.916279 
L 451.295587 195.595981 
L 451.66496 198.888594 
L 452.034334 219.195002 
L 452.403707 198.888594 
L 452.77308 195.1421 
L 453.8812 195.1421 
L 454.250574 195.684373 
L 454.98932 201.61791 
L 455.728067 210.757389 
L 456.09744 206.082444 
L 456.466814 316.212022 
L 456.836187 214.448411 
L 457.20556 202.775088 
L 457.574934 207.467508 
L 457.944307 202.775088 
L 458.683054 202.775088 
L 459.052427 202.072934 
L 459.421801 199.256059 
L 459.791174 193.45537 
L 460.529921 193.45537 
L 460.899294 195.815731 
L 461.268667 195.815731 
L 461.638041 196.038999 
L 462.007414 196.038999 
L 462.376787 197.7459 
L 462.746161 198.830301 
L 463.484907 193.46417 
L 463.854281 198.575083 
L 464.223654 198.575083 
L 464.962401 188.56808 
L 465.331774 198.575083 
L 465.701147 188.56808 
L 466.070521 188.56808 
L 466.439894 194.214331 
L 466.809267 196.055567 
L 467.178641 194.214331 
L 467.548014 196.055567 
L 467.917387 197.027891 
L 468.286761 198.711579 
L 468.656134 197.027891 
L 469.025508 197.027891 
L 469.394881 189.341517 
L 469.764254 162.90133 
L 470.133628 162.90133 
L 470.503001 159.811162 
L 471.241748 188.24168 
L 471.611121 188.24168 
L 471.980494 189.398182 
L 472.349868 189.398182 
L 472.719241 198.311785 
L 473.088614 195.130476 
L 473.457988 197.08175 
L 473.827361 195.130476 
L 474.196734 195.130476 
L 474.566108 192.577568 
L 474.935481 192.577568 
L 474.196734 188.54278 
L 475.304854 188.54278 
L 475.674228 203.425537 
L 476.782348 203.425537 
L 477.151721 188.788241 
L 477.521094 188.45741 
L 478.259841 188.45741 
L 478.629214 190.435697 
L 478.998588 190.435697 
L 479.367961 191.306774 
L 479.737335 190.435697 
L 480.106708 190.435697 
L 480.476081 191.885776 
L 480.845455 192.367925 
L 481.584201 192.367925 
L 481.953575 196.422284 
L 482.322948 196.422284 
L 482.692321 196.909905 
L 483.061695 199.473889 
L 484.169815 199.473889 
L 484.539188 194.413929 
L 484.908561 196.587725 
L 485.647308 196.587725 
L 486.016681 196.809606 
L 486.386055 201.51683 
L 486.755428 196.809606 
L 487.494175 196.809606 
L 487.863548 196.250607 
L 487.494175 196.250607 
L 488.232921 191.679064 
L 488.971668 191.679064 
L 489.341041 201.285545 
L 489.710415 200.011554 
L 489.341041 200.011554 
L 490.079788 200.011554 
L 490.449162 193.025482 
L 490.818535 190.940575 
L 491.557282 190.940575 
L 490.818535 193.016188 
L 491.926655 202.348956 
L 492.296028 193.016188 
L 492.665402 189.5336 
L 493.404148 189.5336 
L 493.773522 204.260933 
L 494.142895 204.260933 
L 494.512268 204.903159 
L 494.881642 204.260933 
L 494.142895 204.903159 
L 494.881642 199.720454 
L 495.251015 202.89076 
L 495.620388 192.909002 
L 495.989762 202.89076 
L 496.359135 190.210492 
L 496.728508 202.89076 
L 499.314122 202.840723 
L 499.683495 196.936688 
L 500.052868 196.936688 
L 500.422242 196.144515 
L 500.791615 196.144515 
L 501.160989 200.514179 
L 501.530362 200.514179 
L 501.899735 207.334003 
L 502.269109 200.514179 
L 502.638482 207.334003 
L 503.007855 198.55973 
L 503.377229 202.389773 
L 503.746602 197.146411 
L 504.115975 202.389773 
L 504.485349 202.389773 
L 504.854722 198.59395 
L 505.224095 196.740571 
L 505.593469 190.120818 
L 505.962842 190.120818 
L 506.332215 196.740571 
L 506.701589 196.09202 
L 507.070962 196.09202 
L 507.440335 201.363177 
L 507.809709 201.363177 
L 508.179082 196.09202 
L 508.548455 198.087652 
L 509.287202 198.087652 
L 509.656575 195.600323 
L 510.025949 198.087652 
L 510.395322 208.812011 
L 510.764695 209.5054 
L 511.134069 208.812011 
L 511.503442 208.688087 
L 511.872816 208.165383 
L 512.242189 208.165383 
L 512.611562 206.036195 
L 512.980936 239.415326 
L 513.350309 369.36 
L 513.719682 369.36 
L 514.089056 214.091138 
L 514.458429 200.966584 
L 514.827802 200.477414 
L 515.197176 200.477414 
L 515.566549 200.966584 
L 515.935922 200.966584 
L 516.305296 200.477414 
L 516.674669 202.850115 
L 517.044042 217.934974 
L 517.413416 222.019111 
L 517.782789 217.934974 
L 517.413416 217.934974 
L 518.152162 198.516377 
L 518.521536 198.516377 
L 518.890909 191.885776 
L 519.260282 194.108285 
L 519.629656 198.244767 
L 519.999029 194.108285 
L 520.368402 194.108285 
L 520.737776 192.801245 
L 521.107149 187.035868 
L 521.845896 186.972538 
L 522.215269 186.972538 
L 522.584643 202.089253 
L 522.954016 164.758298 
L 523.323389 207.326596 
L 523.692763 197.791486 
L 524.062136 192.12861 
L 524.431509 192.12861 
L 524.800883 197.791486 
L 525.170256 197.791486 
L 525.539629 201.396287 
L 525.909003 201.396287 
L 526.278376 203.008376 
L 526.647749 201.396287 
L 527.017123 197.794918 
L 528.125243 197.794918 
L 527.755869 200.933791 
L 528.494616 201.673379 
L 528.863989 201.673379 
L 529.233363 202.792427 
L 529.602736 201.673379 
L 529.972109 204.572346 
L 530.341483 200.680583 
L 530.710856 200.680583 
L 531.080229 215.814345 
L 531.449603 198.830587 
L 531.818976 202.755442 
L 532.18835 215.814345 
L 531.080229 202.755442 
L 532.557723 202.755442 
L 532.927096 222.460924 
L 533.665843 222.460924 
L 534.035216 208.357448 
L 535.143336 208.357448 
L 535.51271 207.384852 
L 535.882083 193.025482 
L 536.251456 192.349689 
L 536.62083 193.025482 
L 536.990203 193.025482 
L 537.359576 196.324293 
L 537.72895 201.369291 
L 538.098323 196.324293 
L 538.467696 196.324293 
L 537.359576 196.324293 
L 538.83707 190.664148 
L 539.206443 190.664148 
L 539.575816 199.620487 
L 539.94519 190.664148 
L 540.314563 190.812081 
L 540.683936 196.76851 
L 540.314563 196.76851 
L 541.05331 196.76851 
L 541.422683 205.849616 
L 542.900177 205.849616 
L 543.26955 205.541637 
L 543.638923 209.023255 
L 544.008297 205.541637 
L 544.37767 205.541637 
L 544.747043 196.324197 
L 545.116417 209.319571 
L 545.48579 209.319571 
L 545.855163 204.115034 
L 546.224537 204.115034 
L 546.59391 194.566696 
L 546.963283 195.243462 
L 547.332657 195.243462 
L 547.70203 181.792018 
L 548.071403 189.198427 
L 548.440777 189.198427 
L 548.81015 199.825757 
L 549.179523 202.720837 
L 549.548897 202.720837 
L 549.91827 203.344806 
L 550.287643 203.344806 
L 550.657017 202.828534 
L 551.02639 200.219792 
L 551.765137 200.219792 
L 552.13451 201.469711 
L 551.765137 208.075442 
L 552.503883 209.329849 
L 552.873257 217.023314 
L 553.24263 209.329849 
L 553.612004 206.804237 
L 553.981377 195.262257 
L 554.35075 195.262257 
L 554.720124 203.148607 
L 555.45887 203.148607 
L 555.828244 208.664596 
L 556.197617 198.327382 
L 556.936364 198.327382 
L 557.305737 200.01896 
L 557.67511 200.01896 
L 558.044484 212.132374 
L 558.413857 212.132374 
L 558.78323 203.110259 
L 559.152604 203.110259 
L 559.521977 201.790979 
L 559.89135 195.949608 
L 560.260724 195.949608 
L 560.630097 196.061295 
L 560.99947 203.148516 
L 561.368844 203.148516 
L 561.738217 198.068992 
L 562.476964 198.068992 
L 562.846337 197.386353 
L 563.585084 197.386353 
L 563.954457 187.713441 
L 564.323831 202.085949 
L 565.062577 202.085949 
L 565.431951 200.777165 
L 565.801324 195.70998 
L 567.278817 195.70998 
L 567.648191 202.29459 
L 568.017564 200.057579 
L 568.386937 195.253276 
L 568.756311 195.253276 
L 569.125684 194.205535 
L 569.495057 194.205535 
L 569.864431 201.440318 
L 570.233804 195.70998 
L 570.603177 198.408964 
L 569.495057 195.70998 
L 571.711297 195.70998 
L 572.080671 188.820126 
L 572.450044 195.70998 
L 572.819417 189.115731 
L 573.188791 189.115731 
L 573.558164 194.877622 
L 573.927538 197.153854 
L 574.666284 197.153854 
L 575.035658 198.113554 
L 575.405031 208.066181 
L 575.774404 198.113554 
L 576.143778 208.066181 
L 576.513151 203.390587 
L 576.882524 195.963205 
L 577.251898 200.226346 
L 577.621271 196.483337 
L 577.990644 200.226346 
L 577.621271 200.226346 
L 578.729391 206.242295 
L 579.468138 206.242295 
L 579.837511 217.226646 
L 580.206884 195.480049 
L 580.576258 202.721821 
L 580.945631 193.004048 
L 581.315004 190.83402 
L 581.684378 187.381644 
L 582.053751 191.259833 
L 582.423124 161.340319 
L 582.792498 142.996071 
L 583.531244 142.996071 
L 583.900618 174.613454 
L 584.269991 180.696276 
L 584.639365 183.565499 
L 585.378111 197.118394 
L 585.747485 197.118394 
L 586.116858 204.734182 
L 586.486231 202.889349 
L 587.963725 202.889349 
L 588.333098 202.656384 
L 588.702471 194.227374 
L 589.810591 194.227374 
L 590.179965 189.79216 
L 590.549338 199.912382 
L 591.288085 207.874367 
L 591.657458 209.794014 
L 592.765578 209.794014 
L 593.134951 197.409512 
L 593.504325 196.743078 
L 594.612445 196.743078 
L 594.981818 194.005755 
L 595.351192 198.795861 
L 595.720565 200.63268 
L 596.089938 200.916089 
L 596.459312 203.004586 
L 597.567432 203.004586 
L 597.936805 206.55108 
L 597.567432 207.898329 
L 598.306178 207.898329 
L 598.675552 205.907892 
L 599.044925 197.13986 
L 599.414298 197.13986 
L 599.783672 195.517475 
L 600.153045 194.636785 
L 600.522418 194.636785 
L 600.891792 195.103939 
L 601.261165 195.103939 
L 601.630538 195.714791 
L 601.999912 198.892789 
L 602.369285 200.477414 
L 602.738658 205.228592 
L 603.108032 205.228592 
L 603.477405 208.726525 
L 603.846778 200.477414 
L 604.216152 195.70998 
L 604.954898 224.579138 
L 605.324272 224.579138 
L 606.432392 205.014784 
L 606.801765 200.963421 
L 607.171139 209.136923 
L 607.540512 211.155254 
L 607.909885 208.655283 
L 608.279259 208.655283 
L 608.648632 203.96151 
L 609.018005 203.96151 
L 609.387379 198.7409 
L 609.756752 197.055258 
L 610.126125 197.055258 
L 610.495499 206.044707 
L 610.864872 206.044707 
L 611.234245 208.290893 
L 611.972992 208.318396 
L 612.342365 196.44261 
L 612.711739 199.3132 
L 613.819859 199.3132 
L 614.189232 197.596945 
L 615.666726 197.596945 
L 616.036099 202.714802 
L 616.405472 202.714802 
L 616.774846 219.542495 
L 617.144219 202.714802 
L 617.513592 203.387035 
L 617.882966 207.52178 
L 618.991086 207.52178 
L 619.360459 204.253006 
L 619.729832 196.647159 
L 620.099206 195.488932 
L 620.468579 196.647159 
L 623.423566 196.589582 
L 623.792939 208.240293 
L 624.162312 208.240293 
L 624.531686 209.433591 
L 624.901059 208.793361 
L 625.270432 209.433591 
L 625.639806 235.105193 
L 626.009179 235.105193 
L 626.378553 369.36 
L 626.747926 224.824211 
L 628.594793 224.910038 
L 628.964166 224.152821 
L 629.333539 222.243418 
L 629.702913 222.243418 
L 630.072286 205.44925 
L 630.441659 200.717512 
L 630.811033 200.717512 
L 631.180406 202.340287 
L 631.549779 202.340287 
L 631.919153 213.08899 
L 633.027273 213.08899 
L 633.396646 210.416885 
L 633.766019 210.416885 
L 634.135393 234.612652 
L 634.504766 239.120803 
L 634.874139 239.921593 
L 635.243513 240.051195 
L 635.612886 239.921593 
L 635.982259 222.976182 
L 636.721006 222.976182 
L 637.09038 230.516983 
L 637.829126 230.516983 
L 638.1985 228.680636 
L 638.567873 219.371331 
L 638.937246 228.680636 
L 639.30662 214.716156 
L 639.675993 273.797051 
L 640.045366 230.666311 
L 640.41474 239.177058 
L 640.784113 230.666311 
L 641.153486 230.666311 
L 641.52286 217.582953 
L 641.892233 217.582953 
L 642.261606 205.862031 
L 642.63098 217.582953 
L 643.000353 235.575728 
L 643.369726 235.575728 
L 643.7391 228.758934 
L 644.108473 228.758934 
L 644.477846 225.1514 
L 644.84722 207.813287 
L 645.216593 207.813287 
L 645.585966 222.822617 
L 645.95534 207.813287 
L 646.324713 222.822617 
L 646.694086 222.822617 
L 647.06346 209.854112 
L 647.432833 201.477228 
L 647.802207 209.854112 
L 648.17158 222.062137 
L 648.910327 222.062137 
L 649.649073 197.716518 
L 650.018447 210.257838 
L 650.38782 196.432762 
L 650.757193 193.888933 
L 651.126567 193.888933 
L 651.49594 201.103636 
L 651.865313 201.103636 
L 652.234687 209.32235 
L 652.60406 209.32235 
L 652.973433 199.611919 
L 653.342807 198.54156 
L 653.71218 199.611919 
L 654.081553 199.611919 
L 654.450927 206.082444 
L 655.189673 206.082444 
L 655.92842 226.741284 
L 656.297793 230.160877 
L 656.667167 230.160877 
L 657.03654 233.125449 
L 657.405914 237.829005 
L 657.775287 233.125449 
L 658.14466 237.829005 
L 658.514034 237.829005 
L 658.883407 203.982548 
L 659.25278 202.493168 
L 659.622154 202.493168 
L 659.991527 209.653835 
L 660.3609 209.653835 
L 660.730274 212.175663 
L 661.099647 216.627253 
L 661.838394 216.627253 
L 662.207767 216.106824 
L 662.57714 212.902927 
L 662.946514 216.106824 
L 663.315887 212.902927 
L 663.68526 212.902927 
L 664.054634 209.047945 
L 664.424007 214.804302 
L 664.79338 214.804302 
L 665.162754 219.187204 
L 665.532127 212.271145 
L 665.9015 209.098339 
L 666.270874 207.122609 
L 667.378994 207.122609 
L 667.748367 207.45746 
L 668.117741 218.151253 
L 668.487114 222.424928 
L 669.595234 222.424928 
L 669.964607 220.165899 
L 670.333981 200.432669 
L 670.703354 200.432669 
L 671.072727 200.093385 
L 671.811474 200.093385 
L 672.180847 195.532686 
L 673.288967 195.532686 
L 673.658341 203.41596 
L 674.027714 204.854314 
L 674.397087 208.022849 
L 674.766461 208.022849 
L 675.135834 208.256566 
L 675.505207 215.515802 
L 675.874581 215.515802 
L 676.243954 224.29423 
L 676.613327 215.515802 
L 676.982701 215.515802 
L 677.352074 218.385586 
L 677.721447 219.249928 
L 678.090821 218.385586 
L 678.460194 219.249928 
L 678.829568 226.811831 
L 679.198941 226.811831 
L 679.568314 227.771082 
L 679.937688 223.066057 
L 680.307061 221.773463 
L 680.676434 210.699232 
L 681.045808 210.699232 
L 681.415181 209.920894 
L 681.784554 202.95575 
L 682.153928 202.95575 
L 682.523301 200.919447 
L 682.892674 201.632943 
L 683.262048 200.418837 
L 683.631421 201.632943 
L 684.000794 201.632943 
L 684.370168 200.418837 
L 684.739541 200.418837 
L 685.108914 206.573579 
L 685.478288 208.000843 
L 685.847661 213.280674 
L 686.586408 212.882731 
L 686.955781 219.312296 
L 687.325154 212.882731 
L 687.694528 212.882731 
L 688.433274 227.317226 
L 689.172021 227.317226 
L 689.541395 224.698824 
L 689.910768 224.2206 
L 690.649515 224.2206 
L 691.018888 238.161938 
L 691.388261 238.161938 
L 691.757635 220.995921 
L 692.127008 220.995921 
L 692.496381 211.093828 
L 692.865755 211.093828 
L 693.235128 212.790902 
L 693.604501 206.216958 
L 694.712621 206.216958 
L 695.081995 208.119831 
L 695.451368 221.093227 
L 695.820741 221.093227 
L 696.190115 230.359379 
L 696.559488 230.359379 
L 696.928861 203.979571 
L 697.298235 202.794387 
L 697.667608 202.794387 
L 698.036981 190.10495 
L 698.406355 189.872802 
L 698.775728 189.872802 
L 699.145102 192.399576 
L 699.514475 192.399576 
L 699.883848 196.717427 
L 700.253222 205.779267 
L 700.622595 208.626428 
L 700.991968 205.779267 
L 701.361342 196.717427 
L 701.730715 222.927626 
L 702.100088 201.48487 
L 702.469462 201.48487 
L 702.838835 210.261115 
L 703.208208 210.261115 
L 703.577582 208.825175 
L 704.685702 208.825175 
L 705.055075 207.989335 
L 705.424448 206.082444 
L 705.793822 207.989335 
L 706.163195 212.237817 
L 707.271315 212.237817 
L 707.640688 200.845045 
L 708.010062 193.798216 
L 708.748808 193.798216 
L 709.118182 196.132853 
L 709.487555 196.132853 
L 709.856929 218.804494 
L 710.226302 218.804494 
L 710.595675 229.631138 
L 710.965049 229.631138 
L 711.334422 213.523836 
L 711.703795 210.666176 
L 712.073169 199.397168 
L 712.442542 199.164669 
L 712.811915 196.09202 
L 713.181289 196.09202 
L 713.550662 207.970965 
L 713.920035 207.970965 
L 714.658782 230.30356 
L 715.028155 230.30356 
L 715.397529 221.831727 
L 715.766902 221.831727 
L 716.136275 202.281417 
L 716.505649 205.599847 
L 717.244395 205.599847 
L 717.613769 210.264224 
L 718.721889 210.239206 
L 719.091262 208.823523 
L 719.460635 199.507909 
L 719.830009 199.507909 
L 720.199382 204.615672 
L 720.568756 199.735498 
L 720.938129 199.735498 
L 721.307502 198.440943 
L 721.676876 198.440943 
L 722.046249 197.409763 
L 722.415622 197.409763 
L 722.784996 202.260443 
L 723.154369 202.260443 
L 723.523742 200.805811 
L 724.262489 200.805811 
L 724.631862 202.968667 
L 725.001236 202.968667 
L 725.370609 210.012048 
L 725.739982 206.4523 
L 726.478729 206.4523 
L 726.848102 217.515295 
L 727.217476 217.515295 
L 727.586849 223.581339 
L 727.956222 223.581339 
L 728.325596 207.865207 
L 728.694969 205.773872 
L 729.064342 205.773872 
L 729.433716 213.88095 
L 729.803089 213.88095 
L 730.172462 197.832457 
L 730.541836 197.832457 
L 730.911209 196.09202 
L 731.280583 197.832457 
L 731.649956 202.81665 
L 732.019329 211.336961 
L 732.388703 212.455791 
L 732.758076 212.455791 
L 733.127449 211.336961 
L 733.496823 207.5924 
L 734.235569 207.5924 
L 734.974316 216.117023 
L 735.343689 211.92849 
L 735.713063 213.642732 
L 736.451809 213.642732 
L 736.821183 213.816361 
L 737.190556 213.816361 
L 737.559929 217.328241 
L 737.929303 217.328241 
L 738.298676 213.672889 
L 738.668049 204.13262 
L 739.776169 204.13262 
L 740.145543 197.407281 
L 740.514916 214.800789 
L 741.623036 214.800789 
L 741.99241 198.476781 
L 743.10053 198.476781 
L 743.469903 188.986677 
L 743.839276 188.986677 
L 744.20865 192.765949 
L 744.578023 192.765949 
L 745.31677 195.327648 
L 745.686143 204.673391 
L 746.42489 204.673391 
L 746.794263 212.795461 
L 747.163636 228.60279 
L 747.163636 228.60279 
" style="fill:none;stroke:#1f77b4;stroke-linecap:square;stroke-width:1.5;"/>
   </g>
   <g id="line2d_16">
    <path clip-path="url(#p443123b430)" d="M 138.436364 146.934904 
L 138.805737 149.061614 
L 138.436364 142.720577 
L 139.544484 128.29059 
L 139.913857 134.920884 
L 140.28323 136.374032 
L 140.652604 116.268968 
L 141.021977 124.23613 
L 141.39135 113.477936 
L 141.021977 122.099293 
L 141.760724 128.453584 
L 142.130097 123.827561 
L 142.49947 121.870326 
L 143.238217 149.286594 
L 143.60759 150.337924 
L 143.976964 155.295962 
L 144.346337 157.942524 
L 144.715711 169.521666 
L 145.085084 153.671627 
L 145.454457 166.613988 
L 146.193204 131.88498 
L 146.562577 134.680053 
L 146.931951 115.956178 
L 147.301324 124.000259 
L 147.670697 113.409748 
L 148.040071 131.367404 
L 148.409444 134.379669 
L 148.778817 141.102 
L 149.148191 145.596642 
L 149.517564 145.320823 
L 149.886937 156.588347 
L 150.256311 153.849839 
L 151.364431 189.361735 
L 151.733804 156.646177 
L 152.103177 153.874941 
L 152.472551 148.96633 
L 152.841924 150.168258 
L 153.580671 174.051882 
L 153.950044 135.735796 
L 154.319417 136.8088 
L 154.688791 140.496418 
L 155.058164 116.942435 
L 155.427538 129.772332 
L 155.796911 137.739868 
L 156.166284 141.053616 
L 156.535658 142.949007 
L 156.905031 152.559547 
L 157.274404 151.996483 
L 157.643778 161.830196 
L 158.013151 176.753635 
L 158.382524 135.91311 
L 158.751898 126.438848 
L 159.121271 135.179501 
L 159.490644 126.210339 
L 160.598764 149.080542 
L 160.968138 150.228914 
L 161.337511 160.829789 
L 161.706884 155.580334 
L 162.076258 153.405499 
L 162.445631 148.782537 
L 163.184378 171.873562 
L 163.553751 159.09932 
L 163.923124 118.818748 
L 164.292498 114.728749 
L 164.661871 124.504624 
L 165.031244 113.554844 
L 166.139365 140.667 
L 166.508738 145.321577 
L 166.878111 145.184738 
L 167.247485 148.066287 
L 167.616858 159.007011 
L 167.986231 163.271309 
L 168.355605 152.103094 
L 168.724978 148.258442 
L 169.094351 134.145854 
L 169.463725 140.936632 
L 169.833098 132.103161 
L 170.202471 135.44178 
L 170.571845 141.845812 
L 170.941218 137.481265 
L 171.310591 141.954928 
L 171.679965 134.806214 
L 172.049338 148.188625 
L 172.418711 154.907199 
L 172.788085 139.915303 
L 173.157458 136.994628 
L 173.526831 91.3288 
L 173.896205 103.963087 
L 174.265578 128.823181 
L 174.634951 138.256136 
L 175.004325 113.94313 
L 175.373698 123.853595 
L 175.743071 126.839496 
L 176.112445 128.523659 
L 176.481818 136.792734 
L 177.220565 160.477384 
L 177.589938 151.396709 
L 177.959312 146.452601 
L 178.328685 145.738088 
L 178.698058 91.669777 
L 179.806178 125.514999 
L 180.175552 132.930019 
L 180.544925 138.061994 
L 180.914298 140.458591 
L 181.283672 122.800004 
L 181.653045 130.700134 
L 182.022418 102.663986 
L 182.391792 85.952853 
L 182.761165 98.980224 
L 183.499912 115.224585 
L 183.869285 99.246106 
L 184.608032 119.798218 
L 184.977405 114.37621 
L 185.346778 127.834915 
L 185.716152 134.599578 
L 186.085525 147.522767 
L 186.454898 149.330891 
L 187.193645 150.361288 
L 187.563019 161.324011 
L 187.932392 155.767604 
L 188.301765 134.871547 
L 187.932392 129.331044 
L 188.301765 135.646154 
L 189.040512 139.785706 
L 189.409885 150.299512 
L 189.779259 147.497838 
L 190.148632 159.323768 
L 190.518005 150.907197 
L 190.887379 147.872695 
L 191.256752 146.40966 
L 191.626125 145.717379 
L 191.995499 148.37328 
L 191.626125 149.850619 
L 192.364872 150.633536 
L 192.734245 162.81833 
L 193.472992 149.87907 
L 193.842365 112.399943 
L 194.211739 125.596644 
L 194.581112 132.989714 
L 194.950485 145.269834 
L 195.319859 146.742972 
L 195.689232 157.516995 
L 196.058605 147.47322 
L 196.427979 149.359979 
L 196.797352 159.593131 
L 197.166726 150.994227 
L 197.536099 147.795636 
L 197.905472 158.295966 
L 198.274846 143.917601 
L 199.013592 166.978709 
L 199.382966 157.706032 
L 199.752339 167.029172 
L 200.121712 157.721695 
L 200.491086 170.521452 
L 200.860459 153.888845 
L 201.229832 152.630881 
L 201.599206 163.977867 
L 201.968579 184.912266 
L 202.337952 156.185472 
L 202.707326 149.832061 
L 203.076699 150.623875 
L 203.446072 161.230457 
L 203.815446 155.73238 
L 204.184819 166.417313 
L 204.554192 157.529894 
L 204.923566 166.886933 
L 205.292939 125.965751 
L 205.662312 138.35973 
L 206.031686 146.033579 
L 206.401059 137.471751 
L 206.031686 143.233047 
L 206.770432 155.488004 
L 207.139806 149.577477 
L 207.509179 151.799232 
L 208.247926 170.551243 
L 208.617299 153.895184 
L 208.986673 148.420644 
L 209.356046 149.876152 
L 209.725419 156.112518 
L 210.464166 148.008323 
L 210.833539 161.287715 
L 211.572286 151.523272 
L 212.311033 168.226995 
L 212.680406 113.107401 
L 213.419153 133.864756 
L 213.788526 138.665084 
L 214.157899 110.989302 
L 214.527273 121.367067 
L 214.896646 142.388347 
L 215.266019 141.419857 
L 214.896646 153.292685 
L 215.635393 163.507879 
L 216.004766 152.169483 
L 216.374139 164.49024 
L 216.743513 112.986123 
L 217.482259 144.731681 
L 218.221006 155.293983 
L 218.59038 137.788981 
L 218.959753 98.821544 
L 219.6985 122.700754 
L 220.067873 117.67996 
L 220.437246 129.360246 
L 220.80662 126.865911 
L 221.175993 133.909007 
L 221.545366 138.693379 
L 221.91474 151.987434 
L 222.284113 157.221789 
L 223.02286 174.180511 
L 223.392233 179.306173 
L 224.13098 124.017313 
L 224.869726 137.334705 
L 225.2391 140.812461 
L 225.608473 145.413808 
L 225.977846 122.691702 
L 226.34722 128.609063 
L 225.977846 132.414832 
L 226.716593 138.617905 
L 227.45534 160.050407 
L 228.56346 183.790104 
L 228.932833 191.664945 
L 229.302207 162.625856 
L 229.67158 151.918996 
L 230.040953 162.341355 
L 230.410327 141.433755 
L 230.7797 145.8049 
L 231.149073 137.397777 
L 231.518447 133.301975 
L 231.88782 136.131879 
L 232.257193 147.315093 
L 232.626567 137.87552 
L 232.99594 140.530397 
L 233.365313 145.234733 
L 233.734687 131.877173 
L 234.10406 143.016486 
L 234.473433 144.006182 
L 234.842807 157.004692 
L 235.21218 148.659884 
L 235.950927 174.525261 
L 236.3203 126.356421 
L 236.689673 139.399243 
L 237.059047 66.96 
L 237.42842 80.114034 
L 238.167167 96.627327 
L 238.905914 120.031979 
L 239.275287 128.774039 
L 240.014034 110.00434 
L 239.275287 104.755232 
L 240.383407 93.693885 
L 240.75278 96.671038 
L 241.122154 98.349645 
L 241.8609 121.171883 
L 242.230274 130.940304 
L 242.599647 136.744487 
L 242.96902 140.457536 
L 243.338394 148.605939 
L 243.707767 150.327114 
L 244.07714 162.350839 
L 244.446514 112.905885 
L 244.815887 95.759023 
L 245.18526 93.945652 
L 245.924007 72.85868 
L 246.29338 79.53518 
L 246.662754 83.98916 
L 247.032127 91.264224 
L 247.770874 117.668297 
L 248.140247 119.153873 
L 248.50962 110.758852 
L 248.878994 117.43469 
L 249.248367 118.437112 
L 249.617741 120.442553 
L 250.356487 139.345547 
L 250.725861 141.989253 
L 251.095234 143.459056 
L 251.464607 144.237744 
L 252.203354 133.910414 
L 252.572727 81.655891 
L 253.680847 117.507207 
L 254.050221 106.982415 
L 254.788967 132.950706 
L 255.158341 142.295371 
L 255.527714 117.512883 
L 255.897087 120.338315 
L 256.635834 147.082495 
L 257.005207 112.010884 
L 257.374581 116.092413 
L 257.743954 125.623778 
L 258.113327 124.306017 
L 258.482701 81.235742 
L 259.221447 104.599937 
L 259.590821 93.649748 
L 260.698941 128.968131 
L 261.068314 119.869399 
L 262.176434 146.411845 
L 262.545808 147.774633 
L 262.915181 158.48094 
L 263.284554 147.640087 
L 264.023301 115.236312 
L 264.392674 110.601139 
L 264.762048 123.393479 
L 265.131421 127.0456 
L 265.500794 134.037808 
L 265.870168 145.514365 
L 266.239541 125.59908 
L 266.608914 138.109504 
L 266.978288 141.271852 
L 267.347661 143.068971 
L 267.717034 156.170692 
L 268.086408 149.826726 
L 268.455781 138.615193 
L 268.825154 122.413315 
L 269.194528 130.613653 
L 269.563901 120.370378 
L 270.302648 135.443452 
L 270.672021 110.737346 
L 271.410768 131.907266 
L 272.149515 144.411936 
L 272.518888 141.267584 
L 272.888261 152.605242 
L 273.257635 159.745622 
L 273.627008 151.043135 
L 273.996381 155.144974 
L 274.365755 149.450138 
L 274.735128 154.479541 
L 275.104501 138.436629 
L 275.473875 141.463572 
L 275.104501 143.244208 
L 275.843248 152.723293 
L 276.212621 136.047922 
L 276.581995 141.330527 
L 276.951368 137.593901 
L 275.473875 140.96697 
L 277.320741 146.385305 
L 277.690115 137.584384 
L 278.059488 134.331025 
L 278.428861 138.962064 
L 278.798235 150.744974 
L 279.167608 150.034497 
L 279.536981 147.382636 
L 279.906355 146.961011 
L 280.275728 148.404579 
L 280.645102 148.23897 
L 281.014475 111.921706 
L 281.753222 130.360674 
L 282.491968 141.134922 
L 282.861342 153.666346 
L 283.230715 148.884995 
L 283.600088 112.153687 
L 283.969462 125.502627 
L 284.338835 132.920967 
L 284.708208 110.3621 
L 285.816328 140.907234 
L 286.185702 142.868202 
L 286.555075 155.446763 
L 286.924448 149.562243 
L 287.293822 157.304377 
L 287.663195 150.228469 
L 288.032568 132.715579 
L 289.140688 148.542721 
L 289.510062 151.473013 
L 289.879435 145.680369 
L 290.248808 144.754496 
L 290.987555 144.974846 
L 291.356929 156.895763 
L 291.726302 127.902978 
L 292.465049 138.237021 
L 292.834422 111.106977 
L 293.203795 124.132989 
L 293.942542 137.033542 
L 294.311915 142.456979 
L 294.681289 139.167299 
L 295.050662 111.220159 
L 295.420035 122.248896 
L 295.789409 110.516499 
L 296.897529 139.521778 
L 297.266902 142.089979 
L 296.528155 147.254789 
L 297.636275 146.120618 
L 298.005649 115.860499 
L 298.744395 139.116461 
L 299.113769 141.857734 
L 299.852515 160.89014 
L 300.221889 155.60336 
L 300.591262 144.268331 
L 300.960635 144.654684 
L 301.699382 166.125218 
L 302.068756 147.77337 
L 302.438129 153.516588 
L 302.807502 162.039189 
L 303.176876 151.39872 
L 303.546249 163.048384 
L 303.915622 137.791592 
L 304.284996 146.409133 
L 304.654369 146.259229 
L 304.284996 145.644644 
L 305.023742 141.742642 
L 305.393116 143.325702 
L 305.762489 151.296639 
L 306.131862 147.923376 
L 306.870609 168.467665 
L 307.239982 153.433041 
L 307.609356 152.415901 
L 307.978729 163.16329 
L 308.348102 137.845449 
L 308.717476 132.465982 
L 309.456222 137.758804 
L 308.717476 140.353521 
L 309.825596 145.121957 
L 310.194969 116.870686 
L 310.933716 137.140834 
L 311.303089 140.69635 
L 311.672462 150.520366 
L 312.041836 147.593168 
L 312.411209 117.146135 
L 312.780583 127.559822 
L 313.149956 134.404535 
L 313.519329 146.595418 
L 313.888703 145.806794 
L 314.258076 109.736625 
L 314.627449 117.736351 
L 314.996823 96.583591 
L 315.735569 109.823819 
L 316.104943 95.001624 
L 316.474316 107.773899 
L 316.843689 127.640793 
L 317.213063 139.045038 
L 317.582436 141.816595 
L 317.951809 143.365773 
L 318.690556 163.315823 
L 319.059929 169.754412 
L 319.429303 153.722976 
L 320.168049 173.473666 
L 320.537423 154.48104 
L 320.906796 145.694109 
L 321.276169 145.36881 
L 322.014916 145.128352 
L 322.384289 145.088562 
L 322.753663 147.123687 
L 323.123036 146.058664 
L 323.49241 152.477754 
L 323.861783 135.995496 
L 324.60053 148.154898 
L 324.969903 146.540046 
L 325.339276 157.007973 
L 325.70865 150.124888 
L 326.078023 160.810152 
L 326.447396 151.377373 
L 326.81677 161.328964 
L 327.186143 151.535758 
L 327.92489 148.023571 
L 328.294263 155.559861 
L 328.663636 149.603974 
L 329.03301 147.193596 
L 329.402383 155.972977 
L 329.771756 149.755111 
L 330.14113 130.545665 
L 329.771756 136.477815 
L 330.510503 125.154052 
L 330.879876 137.037291 
L 331.24925 140.634148 
L 331.987996 158.708512 
L 332.35737 150.705342 
L 332.726743 147.672538 
L 333.46549 146.316565 
L 333.834863 122.975488 
L 334.204237 131.040356 
L 334.57361 142.990779 
L 334.942983 107.946897 
L 335.312357 121.228701 
L 335.68173 146.124984 
L 336.051103 156.715613 
L 336.420477 161.54767 
L 336.78985 132.270097 
L 337.159223 129.251176 
L 337.528597 135.590897 
L 337.89797 110.758022 
L 338.267343 123.757746 
L 338.636717 108.605909 
L 339.744837 139.858488 
L 340.11421 115.450394 
L 340.483583 127.685318 
L 341.22233 140.527564 
L 341.591703 142.657352 
L 341.961077 111.789051 
L 342.33045 119.263168 
L 342.699823 111.385557 
L 343.069197 109.168604 
L 343.43857 119.805837 
L 344.54669 135.066554 
L 344.916064 147.548269 
L 345.285437 146.258509 
L 345.65481 146.675513 
L 346.024184 121.909432 
L 346.393557 126.762801 
L 347.132304 151.672226 
L 347.501677 148.080434 
L 347.87105 146.50574 
L 348.609797 169.291624 
L 348.97917 158.395601 
L 349.348544 167.884504 
L 349.717917 153.296701 
L 350.08729 160.697026 
L 350.826037 156.6476 
L 351.19541 135.656342 
L 351.564784 139.792006 
L 351.934157 142.24367 
L 352.30353 126.871627 
L 352.672904 135.51758 
L 353.042277 148.030072 
L 353.41165 124.110388 
L 354.150397 147.196899 
L 354.519771 146.093289 
L 354.889144 152.880915 
L 355.258517 163.917329 
L 355.627891 156.702506 
L 355.997264 131.123192 
L 356.366637 143.512029 
L 355.997264 144.265293 
L 356.736011 144.653134 
L 357.105384 154.764374 
L 357.474757 149.307199 
L 357.844131 130.977894 
L 358.213504 140.472844 
L 358.582877 142.098842 
L 358.952251 130.763554 
L 359.321624 143.952642 
L 359.690997 143.088342 
L 360.060371 153.228364 
L 360.429744 112.451432 
L 361.168491 134.378536 
L 361.907237 157.493335 
L 362.645984 171.380421 
L 362.276611 173.602814 
L 363.015357 145.672249 
L 363.384731 123.746655 
L 363.754104 116.276934 
L 364.123477 127.944766 
L 364.492851 134.677239 
L 365.231598 144.364972 
L 365.600971 153.819728 
L 365.970344 148.944853 
L 366.339718 127.915733 
L 367.078464 153.117887 
L 367.447838 161.471838 
L 367.817211 173.096737 
L 368.186584 138.3565 
L 368.555958 141.416734 
L 368.925331 152.299215 
L 369.294704 151.279182 
L 369.664078 116.123964 
L 370.033451 116.246388 
L 370.402824 128.994939 
L 370.772198 134.147291 
L 371.141571 146.04945 
L 371.510944 145.542729 
L 371.880318 145.294227 
L 372.249691 154.123041 
L 372.619064 149.062379 
L 372.988438 157.363837 
L 373.357811 125.644675 
L 374.465931 146.203606 
L 375.204678 157.665943 
L 375.574051 150.353438 
L 375.943425 155.059407 
L 376.312798 161.969696 
L 376.682171 153.730406 
L 377.051545 148.91003 
L 377.420918 157.787999 
L 377.051545 164.422865 
L 377.790291 154.526246 
L 378.159665 141.928242 
L 378.529038 147.517989 
L 378.898411 127.721489 
L 379.267785 118.731976 
L 379.637158 128.904767 
L 380.006531 142.324359 
L 380.375905 143.639022 
L 380.745278 150.873248 
L 381.114651 147.744213 
L 381.484025 149.508787 
L 381.853398 112.200336 
L 382.961518 143.739128 
L 383.330891 152.852202 
L 383.700265 148.562444 
L 384.069638 150.589502 
L 384.439011 138.826707 
L 384.808385 150.890742 
L 385.177758 146.353427 
L 385.547132 148.735206 
L 385.916505 146.804975 
L 386.285878 157.896895 
L 386.655252 154.407558 
L 386.285878 123.317543 
L 387.393998 139.142597 
L 387.763372 147.915627 
L 388.132745 119.756115 
L 388.502118 124.771833 
L 388.871492 136.772343 
L 389.240865 110.918916 
L 389.610238 123.670408 
L 389.979612 131.563682 
L 390.718358 152.440213 
L 391.087732 148.396111 
L 391.457105 104.727398 
L 392.195852 125.47971 
L 392.565225 132.904196 
L 392.934598 138.045188 
L 393.303972 131.875233 
L 393.673345 139.301022 
L 394.042718 151.132241 
L 394.412092 159.296802 
L 394.781465 150.898439 
L 395.150838 128.234157 
L 395.520212 134.881213 
L 395.889585 145.118597 
L 396.258959 145.083694 
L 396.628332 120.67559 
L 396.997705 129.276254 
L 397.367079 98.112241 
L 398.105825 120.469718 
L 398.475199 107.799952 
L 398.844572 103.623758 
L 399.213945 115.523184 
L 399.583319 131.048256 
L 399.952692 110.055753 
L 400.691439 132.425903 
L 401.060812 139.119072 
L 401.430185 149.169857 
L 401.799559 132.495422 
L 402.168932 135.499253 
L 402.907679 143.67933 
L 403.277052 144.352061 
L 403.646425 126.978334 
L 404.015799 133.989631 
L 404.385172 116.408727 
L 405.493292 148.648462 
L 405.862665 114.310175 
L 406.232039 119.728371 
L 406.601412 132.590586 
L 406.970786 137.840463 
L 407.709532 161.146713 
L 408.078906 151.480453 
L 408.448279 124.579183 
L 408.817652 131.990233 
L 409.187026 120.489059 
L 410.295146 152.972677 
L 410.664519 162.274603 
L 411.033892 159.00792 
L 411.403266 150.804107 
L 411.772639 160.290982 
L 412.142012 151.215931 
L 412.511386 147.889396 
L 412.880759 168.020211 
L 413.250132 138.95253 
L 413.619506 148.125265 
L 413.988879 152.199314 
L 414.358252 145.955865 
L 414.727626 145.497082 
L 415.096999 139.785755 
L 415.466372 126.041929 
L 415.835746 132.787859 
L 415.466372 124.066317 
L 416.205119 131.370897 
L 416.574492 137.03345 
L 416.943866 129.210566 
L 417.313239 139.533202 
L 417.682613 144.594094 
L 418.051986 116.80387 
L 418.421359 129.768798 
L 418.790733 153.219296 
L 419.160106 98.635389 
L 419.529479 111.753003 
L 419.898853 114.327834 
L 420.268226 127.790818 
L 420.637599 109.461348 
L 421.745719 142.125704 
L 421.376346 99.086419 
L 422.853839 104.816041 
L 423.223213 102.364157 
L 423.592586 114.061031 
L 423.223213 105.914054 
L 423.961959 117.326887 
L 424.331333 106.929712 
L 424.700706 117.858591 
L 425.439453 104.842768 
L 425.808826 93.718653 
L 426.916946 129.145837 
L 427.28632 142.585039 
L 427.655693 120.269119 
L 428.025066 128.959505 
L 428.39444 129.908036 
L 429.133186 138.81414 
L 429.871933 148.425632 
L 430.241306 146.664178 
L 431.349426 122.256245 
L 431.7188 117.506991 
L 432.088173 126.611335 
L 432.457546 130.471719 
L 433.196293 140.06572 
L 433.93504 149.606276 
L 434.304413 147.194612 
L 434.673786 157.828625 
L 435.04316 150.409172 
L 435.412533 162.687663 
L 436.15128 151.936814 
L 436.520653 162.356564 
L 436.890026 111.119248 
L 437.2594 107.549849 
L 437.628773 118.400846 
L 437.998147 96.694204 
L 438.36752 98.362266 
L 438.736893 104.556637 
L 440.214387 147.414958 
L 440.58376 154.517972 
L 440.953133 149.213727 
L 441.322507 123.246313 
L 442.061253 138.279098 
L 442.430627 141.371414 
L 442.8 143.123499 
L 443.169373 146.844987 
L 443.538747 119.205474 
L 444.277493 134.803551 
L 445.01624 144.416792 
L 445.385613 151.544546 
L 445.01624 148.02724 
L 445.754987 142.682787 
L 446.12436 141.108463 
L 446.863107 145.228556 
L 447.23248 148.091676 
L 447.601853 112.092333 
L 447.971227 123.880316 
L 448.3406 131.720847 
L 449.079347 151.663358 
L 449.44872 148.076746 
L 449.818094 141.541089 
L 450.187467 151.795215 
L 450.55684 148.131481 
L 450.926214 157.337631 
L 449.818094 112.681239 
L 451.295587 121.993263 
L 451.66496 130.292899 
L 452.403707 136.306094 
L 452.77308 144.0794 
L 453.142454 101.706607 
L 454.619947 146.578353 
L 454.98932 154.433584 
L 456.09744 112.523633 
L 456.466814 115.737611 
L 456.836187 126.818672 
L 457.20556 125.166817 
L 457.574934 113.163949 
L 457.944307 125.085949 
L 458.683054 97.329396 
L 459.791174 126.475682 
L 460.160547 105.669672 
L 461.268667 137.666072 
L 462.007414 89.271866 
L 463.115534 125.05569 
L 463.484907 97.642004 
L 464.223654 123.187606 
L 464.593027 123.062473 
L 465.331774 146.929058 
L 465.701147 145.966284 
L 466.439894 96.923662 
L 466.809267 107.383566 
L 467.178641 94.403476 
L 467.917387 116.342437 
L 468.286761 96.34114 
L 468.656134 98.169162 
L 469.025508 109.992084 
L 469.394881 115.4148 
L 469.764254 128.729214 
L 470.133628 104.08481 
L 470.503001 120.992977 
L 471.241748 136.947766 
L 471.611121 140.580261 
L 471.980494 138.7298 
L 472.719241 144.462386 
L 473.088614 129.862446 
L 473.457988 142.325477 
L 473.827361 117.204774 
L 474.196734 112.393156 
L 474.566108 113.031515 
L 474.935481 99.582825 
L 474.196734 107.426075 
L 475.304854 114.821521 
L 475.674228 126.59161 
L 476.043601 133.711741 
L 476.412974 138.567063 
L 476.782348 147.052553 
L 477.151721 146.024957 
L 477.521094 145.530793 
L 477.890468 153.532598 
L 478.259841 148.832565 
L 478.629214 117.981972 
L 479.367961 140.397297 
L 479.737335 122.787607 
L 480.106708 134.573827 
L 480.476081 139.115687 
L 480.845455 151.432919 
L 481.214828 147.980567 
L 481.584201 145.741471 
L 481.953575 126.102186 
L 482.322948 134.915377 
L 482.692321 139.330598 
L 483.061695 122.566825 
L 483.800441 136.602909 
L 484.169815 140.371762 
L 484.539188 142.570299 
L 484.908561 140.847662 
L 485.277935 144.003782 
L 485.647308 141.828595 
L 486.016681 143.372269 
L 486.386055 153.819806 
L 486.755428 148.944884 
L 487.124801 156.520083 
L 487.494175 161.604739 
L 488.232921 134.687994 
L 488.602295 98.595411 
L 488.971668 107.344373 
L 489.710415 131.439658 
L 489.341041 138.969476 
L 490.079788 141.773003 
L 490.449162 123.058464 
L 490.818535 114.090451 
L 491.557282 124.917818 
L 490.818535 114.658238 
L 491.926655 123.937154 
L 492.296028 131.76333 
L 492.665402 143.263796 
L 493.034775 147.759004 
L 493.404148 133.006038 
L 494.142895 143.472523 
L 494.512268 144.244751 
L 494.881642 150.956036 
L 494.142895 147.779422 
L 494.881642 153.381943 
L 495.251015 164.067305 
L 495.620388 152.324178 
L 495.989762 157.986412 
L 496.359135 154.444927 
L 496.728508 124.927951 
L 497.097882 132.498825 
L 497.467255 137.780345 
L 497.836628 141.077597 
L 498.206002 113.817014 
L 498.575375 125.877942 
L 498.944748 109.072981 
L 499.314122 120.481319 
L 499.683495 107.802979 
L 500.052868 120.776786 
L 500.422242 100.55795 
L 501.530362 134.337193 
L 502.269109 143.770098 
L 502.638482 151.076221 
L 503.007855 130.43667 
L 503.377229 118.789174 
L 504.485349 152.498465 
L 504.854722 148.419757 
L 505.593469 112.333331 
L 505.962842 118.833209 
L 506.332215 129.617898 
L 506.701589 130.557147 
L 507.070962 139.258562 
L 507.440335 98.242335 
L 507.809709 99.190237 
L 508.548455 121.313692 
L 508.917829 125.764949 
L 509.287202 136.156805 
L 509.656575 140.099891 
L 510.025949 142.417658 
L 510.764695 150.703983 
L 511.134069 162.14076 
L 511.503442 156.070647 
L 511.872816 162.800236 
L 512.242189 156.309535 
L 512.611562 157.739085 
L 513.350309 154.43133 
L 513.719682 158.169811 
L 514.089056 125.304194 
L 514.458429 137.879219 
L 514.827802 143.505938 
L 515.197176 144.262127 
L 515.566549 148.824423 
L 515.935922 132.421515 
L 516.305296 137.729619 
L 516.674669 141.047541 
L 517.044042 154.455677 
L 517.413416 163.050068 
L 517.782789 168.193132 
L 517.413416 172.783784 
L 518.890909 147.759731 
L 519.260282 149.51728 
L 519.629656 148.625049 
L 519.999029 148.383495 
L 520.368402 146.64492 
L 520.737776 124.037429 
L 521.107149 115.854135 
L 521.476523 81.276969 
L 522.215269 107.497636 
L 522.584643 103.501198 
L 524.062136 144.866914 
L 524.431509 116.383803 
L 525.170256 135.545516 
L 525.539629 143.471317 
L 525.909003 144.244124 
L 526.278376 147.515498 
L 526.647749 149.383256 
L 527.017123 142.321222 
L 527.386496 139.563985 
L 527.755869 149.595267 
L 528.125243 156.255253 
L 527.755869 160.694625 
L 528.863989 147.942314 
L 529.233363 153.490372 
L 529.602736 129.082288 
L 529.972109 115.446817 
L 530.341483 125.095691 
L 530.710856 139.845087 
L 531.080229 135.25574 
L 531.449603 144.297735 
L 531.818976 123.516916 
L 531.080229 127.11995 
L 532.557723 139.24661 
L 533.29647 93.464293 
L 534.035216 122.433814 
L 535.143336 141.419753 
L 535.51271 143.149928 
L 535.882083 111.654049 
L 536.251456 111.238925 
L 536.62083 120.975575 
L 536.990203 107.930694 
L 537.359576 110.598951 
L 538.098323 133.115422 
L 538.467696 113.995814 
L 537.359576 120.857629 
L 538.83707 125.477145 
L 539.206443 114.99817 
L 539.575816 125.712547 
L 539.94519 109.037957 
L 540.683936 123.085702 
L 540.314563 135.783565 
L 541.05331 133.548681 
L 541.422683 138.462303 
L 541.792056 141.478563 
L 542.16143 149.088962 
L 542.530803 161.391719 
L 542.900177 164.51073 
L 543.26955 152.444526 
L 543.638923 124.697776 
L 544.37767 145.658106 
L 544.747043 145.351099 
L 545.116417 158.204119 
L 545.48579 112.724111 
L 545.855163 116.568379 
L 546.59391 133.291671 
L 546.963283 135.125035 
L 547.70203 143.494885 
L 548.071403 146.223069 
L 548.440777 145.627117 
L 548.81015 161.042139 
L 549.179523 151.448557 
L 549.548897 124.575171 
L 550.287643 127.749646 
L 550.657017 134.539207 
L 551.395763 155.291145 
L 551.765137 121.128529 
L 552.503883 106.020795 
L 552.873257 121.859959 
L 553.24263 131.534977 
L 553.612004 137.143007 
L 553.981377 119.295331 
L 554.35075 114.184317 
L 554.720124 122.272697 
L 555.089497 97.279131 
L 555.45887 105.581296 
L 556.197617 131.125244 
L 556.56699 128.855645 
L 556.936364 113.895374 
L 557.305737 126.124669 
L 557.67511 98.370404 
L 558.413857 111.342438 
L 558.78323 124.236102 
L 559.521977 139.382229 
L 559.89135 142.010251 
L 560.260724 151.875774 
L 561.368844 143.906151 
L 561.738217 145.182481 
L 562.476964 165.453003 
L 562.846337 152.693698 
L 563.215711 164.446403 
L 563.585084 114.723806 
L 563.954457 112.064391 
L 564.323831 121.64709 
L 564.693204 141.963623 
L 565.062577 143.445233 
L 565.431951 147.039076 
L 565.801324 117.391718 
L 566.170697 111.772388 
L 566.909444 131.773129 
L 567.648191 142.804728 
L 568.017564 146.651433 
L 568.386937 122.265642 
L 568.756311 112.15609 
L 569.125684 131.948701 
L 569.495057 137.417887 
L 570.233804 137.202801 
L 570.603177 98.781319 
L 569.495057 110.552876 
L 570.972551 115.370068 
L 571.711297 96.163369 
L 572.080671 107.887632 
L 572.450044 130.363357 
L 572.819417 122.616556 
L 573.188791 135.353607 
L 573.558164 139.604289 
L 573.927538 114.957606 
L 574.666284 131.883286 
L 575.405031 130.264919 
L 575.774404 109.920161 
L 576.513151 132.342395 
L 576.882524 138.316624 
L 577.251898 148.352517 
L 577.621271 146.630747 
L 577.990644 148.891411 
L 577.621271 124.020134 
L 578.360018 108.665877 
L 579.098764 134.163454 
L 579.837511 144.152144 
L 580.206884 146.217643 
L 580.576258 123.19079 
L 580.945631 132.591486 
L 581.315004 138.739173 
L 582.053751 118.739896 
L 582.423124 120.887808 
L 582.792498 124.223125 
L 583.161871 112.904581 
L 583.531244 96.817708 
L 583.900618 109.176883 
L 584.269991 116.785473 
L 584.639365 127.251658 
L 585.008738 134.185095 
L 585.378111 143.850006 
L 585.747485 144.44021 
L 586.116858 135.532083 
L 586.486231 139.71509 
L 586.855605 142.200018 
L 587.224978 146.280853 
L 587.594351 157.708099 
L 587.963725 119.381406 
L 588.333098 127.709396 
L 589.071845 150.676567 
L 589.441218 115.950298 
L 590.918711 163.608281 
L 591.288085 152.197483 
L 591.657458 163.523917 
L 592.026831 170.864961 
L 592.396205 86.552711 
L 592.765578 92.141621 
L 593.134951 105.50054 
L 593.504325 105.645554 
L 594.243071 130.224957 
L 594.612445 109.913123 
L 594.981818 104.449117 
L 595.351192 93.606641 
L 596.459312 129.288109 
L 596.828685 137.374321 
L 597.198058 138.173073 
L 597.567432 149.2623 
L 597.936805 147.041899 
L 597.567432 156.863549 
L 597.936805 150.074045 
L 598.306178 115.612856 
L 599.044925 138.784554 
L 599.414298 141.666019 
L 599.783672 145.949916 
L 600.153045 145.494176 
L 600.522418 121.420848 
L 601.261165 142.678787 
L 601.630538 136.326532 
L 601.999912 140.203615 
L 602.369285 142.476003 
L 603.108032 163.434455 
L 603.477405 171.684818 
L 603.846778 135.560493 
L 604.216152 147.769305 
L 604.954898 112.066735 
L 605.324272 123.512306 
L 605.693645 150.793803 
L 606.063019 167.238454 
L 606.432392 157.786353 
L 606.801765 158.819471 
L 607.171139 150.742062 
L 607.909885 158.215003 
L 608.279259 166.076097 
L 608.648632 152.853642 
L 609.387379 165.643375 
L 609.756752 152.742969 
L 610.126125 161.411486 
L 610.495499 151.560681 
L 610.864872 163.245635 
L 611.234245 137.248344 
L 611.603619 139.976915 
L 611.972992 144.880601 
L 612.342365 145.525103 
L 613.081112 145.166829 
L 613.450485 120.860439 
L 614.189232 139.40407 
L 614.558605 154.757152 
L 615.297352 167.367864 
L 615.666726 157.826095 
L 616.036099 157.436359 
L 616.405472 165.503877 
L 617.144219 143.414628 
L 617.513592 149.064475 
L 617.882966 137.718048 
L 618.252339 122.214475 
L 618.621712 134.364113 
L 618.991086 136.140616 
L 619.360459 140.089979 
L 620.468579 162.180306 
L 621.207326 149.795787 
L 621.576699 148.136964 
L 622.315446 162.527567 
L 622.684819 162.107238 
L 623.054192 171.690376 
L 623.423566 154.131926 
L 623.792939 124.893303 
L 624.162312 126.011454 
L 624.531686 138.979233 
L 624.901059 134.836853 
L 625.270432 145.113743 
L 626.009179 148.025099 
L 626.378553 159.587224 
L 626.747926 99.730094 
L 627.117299 125.2708 
L 627.486673 136.922881 
L 627.856046 159.118774 
L 628.225419 150.840417 
L 628.594793 147.730226 
L 628.964166 156.89583 
L 629.333539 152.265738 
L 629.702913 151.85321 
L 630.072286 148.155487 
L 630.441659 148.51274 
L 631.180406 146.703919 
L 631.549779 154.887802 
L 631.919153 147.082644 
L 632.288526 157.830527 
L 632.657899 124.868414 
L 633.027273 133.387258 
L 633.396646 138.358286 
L 633.766019 150.666676 
L 634.135393 146.308843 
L 634.504766 159.11348 
L 634.874139 112.767195 
L 635.243513 126.045043 
L 635.612886 133.31636 
L 635.982259 151.340672 
L 636.721006 172.607352 
L 637.09038 161.879952 
L 637.459753 161.576027 
L 637.829126 172.126957 
L 638.1985 168.90779 
L 638.567873 176.501479 
L 638.937246 175.086874 
L 639.30662 154.775297 
L 640.045366 179.509268 
L 640.41474 155.485541 
L 640.784113 164.867498 
L 641.153486 157.025352 
L 641.52286 154.038487 
L 641.892233 163.782384 
L 642.261606 156.655809 
L 642.63098 169.10057 
L 643.000353 168.658387 
L 643.369726 131.157828 
L 643.7391 136.890726 
L 644.108473 149.117054 
L 644.477846 150.24827 
L 644.84722 145.609516 
L 645.585966 163.071834 
L 645.95534 126.187102 
L 646.694086 134.98209 
L 647.06346 121.562751 
L 647.432833 134.320848 
L 647.802207 121.394592 
L 648.17158 129.832945 
L 648.540953 109.843442 
L 648.910327 122.005133 
L 649.2797 142.726231 
L 649.649073 139.165983 
L 650.018447 117.767928 
L 650.38782 122.362814 
L 650.757193 136.497818 
L 651.126567 140.307935 
L 651.49594 152.019802 
L 651.865313 151.732431 
L 652.60406 128.362124 
L 652.973433 134.971123 
L 653.342807 145.800456 
L 653.71218 145.421031 
L 654.081553 148.202915 
L 654.450927 156.930906 
L 654.8203 99.664296 
L 655.189673 107.797899 
L 655.92842 136.093365 
L 656.297793 140.061031 
L 657.405914 174.680434 
L 657.775287 154.703029 
L 658.14466 162.236126 
L 658.514034 112.901339 
L 659.25278 137.487366 
L 659.622154 143.243539 
L 659.991527 145.960807 
L 660.3609 137.448274 
L 660.730274 146.111877 
L 661.099647 145.573116 
L 661.46902 156.543355 
L 661.838394 153.830279 
L 662.207767 129.422187 
L 662.946514 151.560588 
L 663.315887 118.237285 
L 664.054634 142.276567 
L 664.79338 144.679966 
L 665.532127 144.955975 
L 665.9015 145.002359 
L 666.270874 123.636374 
L 666.640247 131.538159 
L 667.378994 157.094176 
L 667.748367 150.155118 
L 668.117741 162.100911 
L 668.487114 151.766035 
L 668.856487 135.836628 
L 669.225861 136.48177 
L 669.964607 145.086594 
L 670.333981 145.067715 
L 670.703354 137.155292 
L 671.072727 140.705025 
L 671.442101 145.345712 
L 671.811474 154.964656 
L 672.180847 149.382635 
L 672.550221 99.421939 
L 672.919594 105.528871 
L 673.288967 93.910037 
L 675.505207 165.702348 
L 675.874581 152.75816 
L 676.243954 151.004892 
L 676.982701 144.617478 
L 677.352074 143.789913 
L 677.721447 144.409216 
L 678.090821 144.72641 
L 678.460194 132.374333 
L 678.829568 137.698627 
L 679.198941 141.029163 
L 679.937688 117.762055 
L 680.676434 135.597643 
L 681.415181 143.3544 
L 681.784554 158.141538 
L 682.153928 167.016609 
L 682.523301 161.636843 
L 682.892674 125.250959 
L 683.262048 134.243215 
L 683.631421 132.846889 
L 684.370168 107.938018 
L 685.108914 131.870003 
L 685.478288 137.36575 
L 685.847661 153.868146 
L 686.217034 112.490282 
L 686.955781 135.641116 
L 687.694528 157.92922 
L 688.063901 167.674994 
L 688.802648 174.135573 
L 689.172021 126.339819 
L 689.541395 139.266115 
L 689.910768 141.943726 
L 690.280141 155.128454 
L 690.649515 149.44397 
L 691.757635 174.456232 
L 692.127008 142.550034 
L 692.865755 163.238436 
L 693.235128 169.783808 
L 693.604501 169.041278 
L 694.343248 136.22355 
L 695.081995 158.95206 
L 695.451368 158.692945 
L 695.820741 112.747509 
L 696.190115 117.494288 
L 696.928861 141.651464 
L 697.298235 145.940847 
L 697.667608 143.248381 
L 698.036981 111.663803 
L 698.406355 121.940064 
L 698.775728 117.382487 
L 699.145102 96.811897 
L 699.883848 122.837068 
L 700.622595 135.723294 
L 700.991968 110.776474 
L 701.730715 129.67165 
L 702.100088 145.190791 
L 702.469462 112.560008 
L 703.208208 130.829131 
L 703.577582 120.433817 
L 703.946955 132.834913 
L 704.316328 98.443543 
L 705.424448 133.455614 
L 706.163195 143.853531 
L 706.532568 137.357725 
L 706.901942 140.826217 
L 707.271315 149.828989 
L 707.640688 147.292691 
L 708.010062 148.29792 
L 708.379435 146.605738 
L 708.748808 123.6389 
L 709.118182 136.359816 
L 709.487555 140.223914 
L 709.856929 112.037142 
L 711.703795 164.163172 
L 712.073169 152.350366 
L 712.442542 161.173572 
L 712.811915 167.084473 
L 713.181289 153.104519 
L 713.550662 155.560717 
L 713.920035 149.604289 
L 714.289409 162.355914 
L 714.658782 170.856012 
L 715.028155 153.959601 
L 715.397529 163.799734 
L 715.766902 130.687663 
L 716.136275 132.474909 
L 716.875022 142.132718 
L 717.244395 143.536279 
L 717.983142 150.265747 
L 718.352515 147.48321 
L 718.721889 146.228036 
L 719.091262 145.629526 
L 719.460635 148.32289 
L 719.830009 146.617181 
L 720.199382 148.430441 
L 720.568756 146.666375 
L 720.938129 145.840833 
L 721.307502 145.44082 
L 722.046249 145.146108 
L 722.784996 163.031186 
L 723.523742 174.913934 
L 723.893116 159.844019 
L 724.262489 166.111168 
L 724.631862 176.618029 
L 725.001236 155.036628 
L 725.370609 153.160482 
L 725.739982 130.349195 
L 726.109356 136.344401 
L 726.478729 149.459387 
L 726.848102 147.129582 
L 727.217476 132.0437 
L 727.956222 152.313901 
L 728.325596 151.876772 
L 728.694969 125.365384 
L 729.064342 137.731576 
L 729.433716 142.946298 
L 729.803089 160.040239 
L 730.172462 163.997338 
L 730.541836 156.730093 
L 731.649956 148.98045 
L 732.019329 146.915649 
L 732.388703 137.751615 
L 732.758076 141.060578 
L 733.127449 142.952843 
L 733.496823 143.972676 
L 733.866196 145.384105 
L 734.235569 131.627251 
L 734.604943 142.898266 
L 734.974316 140.414103 
L 735.343689 149.163086 
L 735.713063 154.930552 
L 736.082436 149.369824 
L 736.451809 145.623923 
L 736.821183 156.559174 
L 737.190556 153.837159 
L 737.559929 148.951638 
L 737.929303 137.147964 
L 738.298676 143.014859 
L 738.668049 139.576996 
L 739.037423 117.264995 
L 739.406796 109.966304 
L 739.776169 122.060531 
L 740.145543 142.131666 
L 740.514916 150.50063 
L 740.884289 112.135093 
L 741.623036 124.643296 
L 742.361783 110.448412 
L 742.731156 114.480167 
L 743.10053 121.509059 
L 743.469903 126.280407 
L 743.839276 128.793636 
L 744.20865 135.273008 
L 744.947396 144.662153 
L 745.31677 144.854544 
L 745.686143 149.88265 
L 746.055516 119.647202 
L 746.42489 125.07082 
L 747.163636 130.436566 
L 747.163636 130.436566 
" style="fill:none;stroke:#ff7f0e;stroke-linecap:square;stroke-width:1.5;"/>
   </g>
   <g id="patch_3">
    <path d="M 108 384.48 
L 108 51.84 
" style="fill:none;stroke:#000000;stroke-linecap:square;stroke-linejoin:miter;stroke-width:0.8;"/>
   </g>
   <g id="patch_4">
    <path d="M 777.6 384.48 
L 777.6 51.84 
" style="fill:none;stroke:#000000;stroke-linecap:square;stroke-linejoin:miter;stroke-width:0.8;"/>
   </g>
   <g id="patch_5">
    <path d="M 108 384.48 
L 777.6 384.48 
" style="fill:none;stroke:#000000;stroke-linecap:square;stroke-linejoin:miter;stroke-width:0.8;"/>
   </g>
   <g id="patch_6">
    <path d="M 108 51.84 
L 777.6 51.84 
" style="fill:none;stroke:#000000;stroke-linecap:square;stroke-linejoin:miter;stroke-width:0.8;"/>
   </g>
  </g>
 </g>
 <defs>
  <clipPath id="p443123b430">
   <rect height="332.64" width="669.6" x="108" y="51.84"/>
  </clipPath>
 </defs>
</svg>
