<?xml version="1.0" encoding="utf-8" standalone="no"?>
<!DOCTYPE svg PUBLIC "-//W3C//DTD SVG 1.1//EN"
  "http://www.w3.org/Graphics/SVG/1.1/DTD/svg11.dtd">
<svg height="720pt" version="1.1" viewBox="0 0 1440 720" width="1440pt" xmlns="http://www.w3.org/2000/svg" xmlns:xlink="http://www.w3.org/1999/xlink">
 <metadata>
  <rdf:RDF xmlns:cc="http://creativecommons.org/ns#" xmlns:dc="http://purl.org/dc/elements/1.1/" xmlns:rdf="http://www.w3.org/1999/02/22-rdf-syntax-ns#">
   <cc:Work>
    <dc:type rdf:resource="http://purl.org/dc/dcmitype/StillImage"/>
    <dc:date>2022-01-06T21:25:06.344561</dc:date>
    <dc:format>image/svg+xml</dc:format>
    <dc:creator>
     <cc:Agent>
      <dc:title>Matplotlib v3.4.3, https://matplotlib.org/</dc:title>
     </cc:Agent>
    </dc:creator>
   </cc:Work>
  </rdf:RDF>
 </metadata>
 <defs>
  <style type="text/css">*{stroke-linecap:butt;stroke-linejoin:round;}</style>
 </defs>
 <g id="figure_1">
  <g id="patch_1">
   <path d="M 0 720 
L 1440 720 
L 1440 0 
L 0 0 
z
" style="fill:#ffffff;"/>
  </g>
  <g id="axes_1">
   <g id="patch_2">
    <path d="M 180 640.8 
L 1296 640.8 
L 1296 86.4 
L 180 86.4 
z
" style="fill:#ffffff;"/>
   </g>
   <g id="matplotlib.axis_1">
    <g id="xtick_1">
     <g id="line2d_1">
      <defs>
       <path d="M 0 0 
L 0 3.5 
" id="md6ecc91ac6" style="stroke:#000000;stroke-width:0.8;"/>
      </defs>
      <g>
       <use style="stroke:#000000;stroke-width:0.8;" x="230.727273" xlink:href="#md6ecc91ac6" y="640.8"/>
      </g>
     </g>
     <g id="text_1">
      <!-- 39000 -->
      <g transform="translate(214.821023 655.398438)scale(0.1 -0.1)">
       <defs>
        <path d="M 2597 2516 
Q 3050 2419 3304 2112 
Q 3559 1806 3559 1356 
Q 3559 666 3084 287 
Q 2609 -91 1734 -91 
Q 1441 -91 1130 -33 
Q 819 25 488 141 
L 488 750 
Q 750 597 1062 519 
Q 1375 441 1716 441 
Q 2309 441 2620 675 
Q 2931 909 2931 1356 
Q 2931 1769 2642 2001 
Q 2353 2234 1838 2234 
L 1294 2234 
L 1294 2753 
L 1863 2753 
Q 2328 2753 2575 2939 
Q 2822 3125 2822 3475 
Q 2822 3834 2567 4026 
Q 2313 4219 1838 4219 
Q 1578 4219 1281 4162 
Q 984 4106 628 3988 
L 628 4550 
Q 988 4650 1302 4700 
Q 1616 4750 1894 4750 
Q 2613 4750 3031 4423 
Q 3450 4097 3450 3541 
Q 3450 3153 3228 2886 
Q 3006 2619 2597 2516 
z
" id="DejaVuSans-33" transform="scale(0.015625)"/>
        <path d="M 703 97 
L 703 672 
Q 941 559 1184 500 
Q 1428 441 1663 441 
Q 2288 441 2617 861 
Q 2947 1281 2994 2138 
Q 2813 1869 2534 1725 
Q 2256 1581 1919 1581 
Q 1219 1581 811 2004 
Q 403 2428 403 3163 
Q 403 3881 828 4315 
Q 1253 4750 1959 4750 
Q 2769 4750 3195 4129 
Q 3622 3509 3622 2328 
Q 3622 1225 3098 567 
Q 2575 -91 1691 -91 
Q 1453 -91 1209 -44 
Q 966 3 703 97 
z
M 1959 2075 
Q 2384 2075 2632 2365 
Q 2881 2656 2881 3163 
Q 2881 3666 2632 3958 
Q 2384 4250 1959 4250 
Q 1534 4250 1286 3958 
Q 1038 3666 1038 3163 
Q 1038 2656 1286 2365 
Q 1534 2075 1959 2075 
z
" id="DejaVuSans-39" transform="scale(0.015625)"/>
        <path d="M 2034 4250 
Q 1547 4250 1301 3770 
Q 1056 3291 1056 2328 
Q 1056 1369 1301 889 
Q 1547 409 2034 409 
Q 2525 409 2770 889 
Q 3016 1369 3016 2328 
Q 3016 3291 2770 3770 
Q 2525 4250 2034 4250 
z
M 2034 4750 
Q 2819 4750 3233 4129 
Q 3647 3509 3647 2328 
Q 3647 1150 3233 529 
Q 2819 -91 2034 -91 
Q 1250 -91 836 529 
Q 422 1150 422 2328 
Q 422 3509 836 4129 
Q 1250 4750 2034 4750 
z
" id="DejaVuSans-30" transform="scale(0.015625)"/>
       </defs>
       <use xlink:href="#DejaVuSans-33"/>
       <use x="63.623047" xlink:href="#DejaVuSans-39"/>
       <use x="127.246094" xlink:href="#DejaVuSans-30"/>
       <use x="190.869141" xlink:href="#DejaVuSans-30"/>
       <use x="254.492188" xlink:href="#DejaVuSans-30"/>
      </g>
     </g>
    </g>
    <g id="xtick_2">
     <g id="line2d_2">
      <g>
       <use style="stroke:#000000;stroke-width:0.8;" x="384.632833" xlink:href="#md6ecc91ac6" y="640.8"/>
      </g>
     </g>
     <g id="text_2">
      <!-- 39250 -->
      <g transform="translate(368.726583 655.398438)scale(0.1 -0.1)">
       <defs>
        <path d="M 1228 531 
L 3431 531 
L 3431 0 
L 469 0 
L 469 531 
Q 828 903 1448 1529 
Q 2069 2156 2228 2338 
Q 2531 2678 2651 2914 
Q 2772 3150 2772 3378 
Q 2772 3750 2511 3984 
Q 2250 4219 1831 4219 
Q 1534 4219 1204 4116 
Q 875 4013 500 3803 
L 500 4441 
Q 881 4594 1212 4672 
Q 1544 4750 1819 4750 
Q 2544 4750 2975 4387 
Q 3406 4025 3406 3419 
Q 3406 3131 3298 2873 
Q 3191 2616 2906 2266 
Q 2828 2175 2409 1742 
Q 1991 1309 1228 531 
z
" id="DejaVuSans-32" transform="scale(0.015625)"/>
        <path d="M 691 4666 
L 3169 4666 
L 3169 4134 
L 1269 4134 
L 1269 2991 
Q 1406 3038 1543 3061 
Q 1681 3084 1819 3084 
Q 2600 3084 3056 2656 
Q 3513 2228 3513 1497 
Q 3513 744 3044 326 
Q 2575 -91 1722 -91 
Q 1428 -91 1123 -41 
Q 819 9 494 109 
L 494 744 
Q 775 591 1075 516 
Q 1375 441 1709 441 
Q 2250 441 2565 725 
Q 2881 1009 2881 1497 
Q 2881 1984 2565 2268 
Q 2250 2553 1709 2553 
Q 1456 2553 1204 2497 
Q 953 2441 691 2322 
L 691 4666 
z
" id="DejaVuSans-35" transform="scale(0.015625)"/>
       </defs>
       <use xlink:href="#DejaVuSans-33"/>
       <use x="63.623047" xlink:href="#DejaVuSans-39"/>
       <use x="127.246094" xlink:href="#DejaVuSans-32"/>
       <use x="190.869141" xlink:href="#DejaVuSans-35"/>
       <use x="254.492188" xlink:href="#DejaVuSans-30"/>
      </g>
     </g>
    </g>
    <g id="xtick_3">
     <g id="line2d_3">
      <g>
       <use style="stroke:#000000;stroke-width:0.8;" x="538.538394" xlink:href="#md6ecc91ac6" y="640.8"/>
      </g>
     </g>
     <g id="text_3">
      <!-- 39500 -->
      <g transform="translate(522.632144 655.398438)scale(0.1 -0.1)">
       <use xlink:href="#DejaVuSans-33"/>
       <use x="63.623047" xlink:href="#DejaVuSans-39"/>
       <use x="127.246094" xlink:href="#DejaVuSans-35"/>
       <use x="190.869141" xlink:href="#DejaVuSans-30"/>
       <use x="254.492188" xlink:href="#DejaVuSans-30"/>
      </g>
     </g>
    </g>
    <g id="xtick_4">
     <g id="line2d_4">
      <g>
       <use style="stroke:#000000;stroke-width:0.8;" x="692.443954" xlink:href="#md6ecc91ac6" y="640.8"/>
      </g>
     </g>
     <g id="text_4">
      <!-- 39750 -->
      <g transform="translate(676.537704 655.398438)scale(0.1 -0.1)">
       <defs>
        <path d="M 525 4666 
L 3525 4666 
L 3525 4397 
L 1831 0 
L 1172 0 
L 2766 4134 
L 525 4134 
L 525 4666 
z
" id="DejaVuSans-37" transform="scale(0.015625)"/>
       </defs>
       <use xlink:href="#DejaVuSans-33"/>
       <use x="63.623047" xlink:href="#DejaVuSans-39"/>
       <use x="127.246094" xlink:href="#DejaVuSans-37"/>
       <use x="190.869141" xlink:href="#DejaVuSans-35"/>
       <use x="254.492188" xlink:href="#DejaVuSans-30"/>
      </g>
     </g>
    </g>
    <g id="xtick_5">
     <g id="line2d_5">
      <g>
       <use style="stroke:#000000;stroke-width:0.8;" x="846.349515" xlink:href="#md6ecc91ac6" y="640.8"/>
      </g>
     </g>
     <g id="text_5">
      <!-- 40000 -->
      <g transform="translate(830.443265 655.398438)scale(0.1 -0.1)">
       <defs>
        <path d="M 2419 4116 
L 825 1625 
L 2419 1625 
L 2419 4116 
z
M 2253 4666 
L 3047 4666 
L 3047 1625 
L 3713 1625 
L 3713 1100 
L 3047 1100 
L 3047 0 
L 2419 0 
L 2419 1100 
L 313 1100 
L 313 1709 
L 2253 4666 
z
" id="DejaVuSans-34" transform="scale(0.015625)"/>
       </defs>
       <use xlink:href="#DejaVuSans-34"/>
       <use x="63.623047" xlink:href="#DejaVuSans-30"/>
       <use x="127.246094" xlink:href="#DejaVuSans-30"/>
       <use x="190.869141" xlink:href="#DejaVuSans-30"/>
       <use x="254.492188" xlink:href="#DejaVuSans-30"/>
      </g>
     </g>
    </g>
    <g id="xtick_6">
     <g id="line2d_6">
      <g>
       <use style="stroke:#000000;stroke-width:0.8;" x="1000.255075" xlink:href="#md6ecc91ac6" y="640.8"/>
      </g>
     </g>
     <g id="text_6">
      <!-- 40250 -->
      <g transform="translate(984.348825 655.398438)scale(0.1 -0.1)">
       <use xlink:href="#DejaVuSans-34"/>
       <use x="63.623047" xlink:href="#DejaVuSans-30"/>
       <use x="127.246094" xlink:href="#DejaVuSans-32"/>
       <use x="190.869141" xlink:href="#DejaVuSans-35"/>
       <use x="254.492188" xlink:href="#DejaVuSans-30"/>
      </g>
     </g>
    </g>
    <g id="xtick_7">
     <g id="line2d_7">
      <g>
       <use style="stroke:#000000;stroke-width:0.8;" x="1154.160635" xlink:href="#md6ecc91ac6" y="640.8"/>
      </g>
     </g>
     <g id="text_7">
      <!-- 40500 -->
      <g transform="translate(1138.254385 655.398438)scale(0.1 -0.1)">
       <use xlink:href="#DejaVuSans-34"/>
       <use x="63.623047" xlink:href="#DejaVuSans-30"/>
       <use x="127.246094" xlink:href="#DejaVuSans-35"/>
       <use x="190.869141" xlink:href="#DejaVuSans-30"/>
       <use x="254.492188" xlink:href="#DejaVuSans-30"/>
      </g>
     </g>
    </g>
   </g>
   <g id="matplotlib.axis_2">
    <g id="ytick_1">
     <g id="line2d_8">
      <defs>
       <path d="M 0 0 
L -3.5 0 
" id="m3ef4aacd28" style="stroke:#000000;stroke-width:0.8;"/>
      </defs>
      <g>
       <use style="stroke:#000000;stroke-width:0.8;" x="180" xlink:href="#m3ef4aacd28" y="615.600092"/>
      </g>
     </g>
     <g id="text_8">
      <!-- 0 -->
      <g transform="translate(166.6375 619.39931)scale(0.1 -0.1)">
       <use xlink:href="#DejaVuSans-30"/>
      </g>
     </g>
    </g>
    <g id="ytick_2">
     <g id="line2d_9">
      <g>
       <use style="stroke:#000000;stroke-width:0.8;" x="180" xlink:href="#m3ef4aacd28" y="543.377276"/>
      </g>
     </g>
     <g id="text_9">
      <!-- 250 -->
      <g transform="translate(153.9125 547.176495)scale(0.1 -0.1)">
       <use xlink:href="#DejaVuSans-32"/>
       <use x="63.623047" xlink:href="#DejaVuSans-35"/>
       <use x="127.246094" xlink:href="#DejaVuSans-30"/>
      </g>
     </g>
    </g>
    <g id="ytick_3">
     <g id="line2d_10">
      <g>
       <use style="stroke:#000000;stroke-width:0.8;" x="180" xlink:href="#m3ef4aacd28" y="471.154461"/>
      </g>
     </g>
     <g id="text_10">
      <!-- 500 -->
      <g transform="translate(153.9125 474.95368)scale(0.1 -0.1)">
       <use xlink:href="#DejaVuSans-35"/>
       <use x="63.623047" xlink:href="#DejaVuSans-30"/>
       <use x="127.246094" xlink:href="#DejaVuSans-30"/>
      </g>
     </g>
    </g>
    <g id="ytick_4">
     <g id="line2d_11">
      <g>
       <use style="stroke:#000000;stroke-width:0.8;" x="180" xlink:href="#m3ef4aacd28" y="398.931646"/>
      </g>
     </g>
     <g id="text_11">
      <!-- 750 -->
      <g transform="translate(153.9125 402.730865)scale(0.1 -0.1)">
       <use xlink:href="#DejaVuSans-37"/>
       <use x="63.623047" xlink:href="#DejaVuSans-35"/>
       <use x="127.246094" xlink:href="#DejaVuSans-30"/>
      </g>
     </g>
    </g>
    <g id="ytick_5">
     <g id="line2d_12">
      <g>
       <use style="stroke:#000000;stroke-width:0.8;" x="180" xlink:href="#m3ef4aacd28" y="326.708831"/>
      </g>
     </g>
     <g id="text_12">
      <!-- 1000 -->
      <g transform="translate(147.55 330.50805)scale(0.1 -0.1)">
       <defs>
        <path d="M 794 531 
L 1825 531 
L 1825 4091 
L 703 3866 
L 703 4441 
L 1819 4666 
L 2450 4666 
L 2450 531 
L 3481 531 
L 3481 0 
L 794 0 
L 794 531 
z
" id="DejaVuSans-31" transform="scale(0.015625)"/>
       </defs>
       <use xlink:href="#DejaVuSans-31"/>
       <use x="63.623047" xlink:href="#DejaVuSans-30"/>
       <use x="127.246094" xlink:href="#DejaVuSans-30"/>
       <use x="190.869141" xlink:href="#DejaVuSans-30"/>
      </g>
     </g>
    </g>
    <g id="ytick_6">
     <g id="line2d_13">
      <g>
       <use style="stroke:#000000;stroke-width:0.8;" x="180" xlink:href="#m3ef4aacd28" y="254.486016"/>
      </g>
     </g>
     <g id="text_13">
      <!-- 1250 -->
      <g transform="translate(147.55 258.285235)scale(0.1 -0.1)">
       <use xlink:href="#DejaVuSans-31"/>
       <use x="63.623047" xlink:href="#DejaVuSans-32"/>
       <use x="127.246094" xlink:href="#DejaVuSans-35"/>
       <use x="190.869141" xlink:href="#DejaVuSans-30"/>
      </g>
     </g>
    </g>
    <g id="ytick_7">
     <g id="line2d_14">
      <g>
       <use style="stroke:#000000;stroke-width:0.8;" x="180" xlink:href="#m3ef4aacd28" y="182.263201"/>
      </g>
     </g>
     <g id="text_14">
      <!-- 1500 -->
      <g transform="translate(147.55 186.062419)scale(0.1 -0.1)">
       <use xlink:href="#DejaVuSans-31"/>
       <use x="63.623047" xlink:href="#DejaVuSans-35"/>
       <use x="127.246094" xlink:href="#DejaVuSans-30"/>
       <use x="190.869141" xlink:href="#DejaVuSans-30"/>
      </g>
     </g>
    </g>
    <g id="ytick_8">
     <g id="line2d_15">
      <g>
       <use style="stroke:#000000;stroke-width:0.8;" x="180" xlink:href="#m3ef4aacd28" y="110.040386"/>
      </g>
     </g>
     <g id="text_15">
      <!-- 1750 -->
      <g transform="translate(147.55 113.839604)scale(0.1 -0.1)">
       <use xlink:href="#DejaVuSans-31"/>
       <use x="63.623047" xlink:href="#DejaVuSans-37"/>
       <use x="127.246094" xlink:href="#DejaVuSans-35"/>
       <use x="190.869141" xlink:href="#DejaVuSans-30"/>
      </g>
     </g>
    </g>
   </g>
   <g id="line2d_16">
    <path clip-path="url(#pb9f6f71331)" d="M 230.727273 615.355144 
L 231.958517 615.4728 
L 236.267873 615.125591 
L 237.499117 615.133407 
L 238.11474 615.36022 
L 239.345984 615.429585 
L 240.577229 615.333605 
L 242.424095 615.432285 
L 245.502207 615.497958 
L 246.117829 615.384873 
L 246.733451 614.931017 
L 247.964695 614.873278 
L 248.580318 614.931017 
L 249.19594 615.462953 
L 258.430274 615.422775 
L 259.045896 615.029876 
L 259.661518 614.496766 
L 260.27714 615.029876 
L 260.892763 614.496766 
L 262.124007 615.105695 
L 262.739629 614.743623 
L 263.355252 614.743623 
L 263.970874 615.157056 
L 265.817741 615.237705 
L 267.048985 615.349604 
L 268.280229 615.290396 
L 270.127096 615.34721 
L 271.358341 615.46236 
L 273.205207 615.46236 
L 273.82083 615.338132 
L 275.667696 615.338132 
L 276.283319 615.192972 
L 276.898941 615.189662 
L 277.514563 615.312492 
L 284.286408 615.348049 
L 284.90203 615.125591 
L 286.748897 615.07151 
L 287.364519 615.07151 
L 287.980141 614.80646 
L 289.211386 614.730064 
L 289.827008 614.730064 
L 290.44263 615.075693 
L 291.673875 615.075693 
L 292.289497 615.306876 
L 292.905119 615.306876 
L 293.520741 614.959309 
L 294.136364 615.224341 
L 294.751986 615.130578 
L 295.98323 615.211967 
L 297.830097 615.158451 
L 299.061342 615.365287 
L 302.139453 615.295888 
L 302.755075 615.061394 
L 305.217564 615.137768 
L 305.833186 614.82424 
L 306.448808 615.364854 
L 307.680053 615.286258 
L 308.911297 615.43066 
L 312.605031 615.288546 
L 313.220653 615.468479 
L 314.451898 615.479746 
L 313.836275 615.479746 
L 315.06752 614.743766 
L 315.683142 614.872094 
L 317.530009 614.890272 
L 318.145631 615.426641 
L 318.761253 615.201924 
L 319.376876 615.201924 
L 319.992498 615.376681 
L 319.376876 615.376681 
L 321.839365 615.376681 
L 322.454987 615.131228 
L 323.070609 615.118099 
L 323.686231 614.852248 
L 324.917476 614.852248 
L 325.533098 615.071935 
L 327.995587 615.376846 
L 328.611209 615.457678 
L 329.842454 615.391514 
L 330.458076 614.639946 
L 332.304943 614.639946 
L 334.151809 615.486076 
L 334.767432 615.260946 
L 335.998676 615.260946 
L 336.614298 614.889538 
L 337.229921 615.320843 
L 341.539276 615.365412 
L 342.154898 615.020601 
L 342.770521 615.405645 
L 344.001765 615.405645 
L 343.386143 615.405645 
L 345.23301 614.953199 
L 348.926743 615.328993 
L 353.236099 615.35893 
L 353.851721 614.817625 
L 355.698588 614.803757 
L 356.31421 614.604673 
L 356.929832 614.604673 
L 357.545455 615.068583 
L 360.623566 615.082894 
L 361.239188 615.37038 
L 361.85481 615.079057 
L 364.932921 615.019936 
L 365.548544 613.335633 
L 367.39541 613.406221 
L 368.011033 614.496766 
L 368.626655 614.506291 
L 369.242277 615.200996 
L 370.473522 615.444874 
L 373.551633 615.338439 
L 377.860989 615.149807 
L 378.476611 615.413688 
L 385.248455 615.308016 
L 386.4797 615.270352 
L 387.710944 615.415775 
L 390.789056 615.354771 
L 393.251545 615.361811 
L 393.867167 615.211354 
L 394.482789 615.316827 
L 395.098411 615.115619 
L 397.5609 615.115619 
L 398.176523 615.278359 
L 400.023389 615.278359 
L 398.792145 615.066819 
L 401.870256 615.034626 
L 402.485878 614.846245 
L 404.332745 614.805408 
L 404.948367 615.110387 
L 407.410856 615.081494 
L 408.026478 613.659868 
L 408.642101 615.158337 
L 412.335834 615.224997 
L 412.951456 615.286689 
L 414.182701 615.224997 
L 414.798323 615.224997 
L 415.413945 613.676268 
L 416.029568 609.94288 
L 416.64519 613.676268 
L 417.260812 614.057306 
L 418.492056 614.152384 
L 419.107679 615.155424 
L 420.338923 615.228333 
L 420.954545 615.228333 
L 421.570168 614.891736 
L 422.801412 614.891736 
L 424.032657 615.403197 
L 424.648279 615.403197 
L 425.263901 615.212826 
L 429.573257 615.240613 
L 430.804501 615.326646 
L 431.420124 615.326646 
L 432.035746 614.920313 
L 432.651368 614.920313 
L 433.26699 615.180258 
L 434.498235 615.237817 
L 435.729479 615.159446 
L 436.345102 614.759244 
L 436.960724 614.759244 
L 437.576346 615.159446 
L 438.191968 615.18836 
L 438.80759 615.439104 
L 440.038835 615.439104 
L 441.885702 615.132724 
L 443.116946 615.061394 
L 444.348191 615.061394 
L 444.963813 615.199627 
L 445.579435 615.211492 
L 446.195057 615.42464 
L 446.81068 615.42464 
L 447.426302 615.278085 
L 448.041924 615.42464 
L 449.273169 615.164508 
L 453.582524 615.118017 
L 454.198147 615.379467 
L 454.813769 615.352737 
L 455.429391 615.091873 
L 456.045013 615.091873 
L 457.276258 614.866844 
L 459.123124 614.866844 
L 458.507502 614.074925 
L 459.738747 614.074925 
L 460.354369 613.75372 
L 460.969991 609.876719 
L 459.123124 609.876719 
L 462.816858 609.876719 
L 463.43248 613.620805 
L 464.048102 613.620805 
L 464.663725 614.017032 
L 465.279347 614.017032 
L 465.894969 614.686939 
L 466.510591 614.873278 
L 467.126214 614.892101 
L 467.741836 615.023016 
L 468.357458 615.023016 
L 468.97308 615.28334 
L 470.204325 615.28334 
L 470.819947 615.06567 
L 472.051192 615.06567 
L 473.282436 615.284277 
L 474.51368 615.190087 
L 476.360547 615.033128 
L 480.669903 615.13839 
L 481.901147 615.174185 
L 482.51677 614.90421 
L 483.132392 614.859874 
L 483.748014 613.439466 
L 484.979259 613.439466 
L 485.594881 613.889361 
L 486.210503 614.103349 
L 486.826125 614.676779 
L 488.05737 614.204108 
L 488.672992 614.483178 
L 489.904237 614.437963 
L 490.519859 614.204108 
L 491.751103 614.11646 
L 492.982348 614.819905 
L 494.213592 614.768594 
L 495.444837 614.684087 
L 494.213592 614.473368 
L 497.291703 614.548564 
L 499.754192 614.730153 
L 500.369815 614.981644 
L 502.216681 615.047944 
L 502.832304 615.246431 
L 504.063548 615.246431 
L 504.67917 615.077475 
L 506.526037 615.001208 
L 507.141659 614.747512 
L 507.757282 614.220941 
L 507.141659 613.908511 
L 508.372904 613.908511 
L 508.988526 614.220941 
L 509.604148 613.460779 
L 510.219771 614.389125 
L 510.835393 614.389125 
L 511.451015 614.866712 
L 513.297882 614.866712 
L 513.913504 615.039733 
L 515.760371 615.051092 
L 514.529126 615.02883 
L 516.375993 614.639865 
L 516.991615 614.318945 
L 517.607237 614.318945 
L 518.22286 614.629711 
L 518.838482 614.639865 
L 520.069726 614.92461 
L 520.685349 615.023672 
L 521.300971 615.255353 
L 523.147838 615.15981 
L 525.610327 615.13439 
L 526.841571 615.238563 
L 527.457193 615.276915 
L 528.072816 615.033925 
L 529.30406 614.959923 
L 534.229038 614.996446 
L 537.922771 615.041951 
L 538.538394 614.863132 
L 539.154016 614.550452 
L 539.769638 614.368458 
L 540.38526 614.550452 
L 541.000883 614.550452 
L 541.616505 615.179701 
L 543.463372 615.083774 
L 547.157105 614.929029 
L 547.772727 615.205954 
L 549.003972 615.185918 
L 549.619594 614.758791 
L 551.466461 614.90415 
L 552.697705 614.90415 
L 553.313327 615.027107 
L 553.92895 614.895821 
L 554.544572 614.895821 
L 555.160194 615.228481 
L 555.775816 615.228481 
L 556.391439 615.075787 
L 557.622683 615.075787 
L 558.853928 614.972636 
L 559.46955 615.135446 
L 565.625772 615.143636 
L 566.857017 614.938929 
L 568.088261 614.938929 
L 568.703883 614.182969 
L 569.319506 614.969542 
L 571.781995 615.008805 
L 572.397617 614.568804 
L 573.013239 614.792046 
L 573.628861 614.792046 
L 574.244484 614.568804 
L 574.860106 614.568804 
L 576.706973 615.125008 
L 580.400706 615.200767 
L 581.631951 615.200767 
L 582.863195 615.11453 
L 590.250662 615.149584 
L 596.406884 615.013097 
L 598.869373 615.04447 
L 599.484996 615.04447 
L 600.100618 615.168488 
L 602.563107 615.168488 
L 603.178729 615.307919 
L 605.641218 615.303718 
L 606.25684 614.624116 
L 607.488085 614.558714 
L 609.334951 614.455131 
L 609.950574 615.010117 
L 610.566196 614.87981 
L 611.181818 614.87981 
L 613.028685 615.200767 
L 614.259929 615.200767 
L 615.491174 614.71098 
L 616.106796 614.558851 
L 617.953663 614.480036 
L 618.569285 614.558851 
L 619.184907 614.818239 
L 620.416152 614.877678 
L 626.572374 614.899567 
L 627.187996 615.1747 
L 628.419241 615.11255 
L 629.034863 615.1747 
L 628.419241 615.183771 
L 629.650485 615.11255 
L 630.266108 614.945181 
L 630.88173 614.945181 
L 632.112974 614.58989 
L 632.728597 614.792046 
L 633.344219 614.792046 
L 633.959841 614.911053 
L 638.269197 614.842075 
L 638.884819 615.15553 
L 639.500441 615.27899 
L 641.96293 615.191421 
L 642.578553 614.939515 
L 643.194175 615.088647 
L 648.734775 614.990608 
L 649.966019 615.186716 
L 651.812886 615.131443 
L 652.428508 614.931063 
L 653.044131 614.89201 
L 653.659753 614.574711 
L 654.890997 614.574711 
L 655.50662 614.829765 
L 656.122242 614.829765 
L 656.737864 615.353295 
L 657.353486 615.353295 
L 657.969109 614.993269 
L 661.04722 614.977908 
L 661.662842 614.714843 
L 662.278464 614.977908 
L 662.894086 614.977908 
L 663.509709 615.164644 
L 664.125331 614.714843 
L 664.740953 615.164644 
L 665.356575 614.946319 
L 668.434687 615.01305 
L 669.665931 615.266512 
L 670.281553 615.266512 
L 671.512798 614.973357 
L 673.359665 615.061547 
L 677.053398 615.157799 
L 678.284643 615.257072 
L 678.900265 615.096146 
L 679.515887 615.218576 
L 680.131509 614.993661 
L 681.978376 615.053383 
L 682.593998 614.681284 
L 683.20962 615.053383 
L 683.825243 614.535225 
L 684.440865 614.535225 
L 685.056487 614.878423 
L 688.134598 614.810009 
L 688.750221 614.712428 
L 689.365843 614.810009 
L 689.981465 614.712428 
L 690.597087 614.459345 
L 693.059576 614.455131 
L 692.443954 614.455131 
L 693.675199 614.665822 
L 694.290821 614.296905 
L 694.906443 614.665822 
L 696.137688 614.774971 
L 696.75331 614.89201 
L 697.368932 615.140686 
L 701.678288 615.141914 
L 702.29391 614.57271 
L 702.909532 615.141914 
L 702.29391 614.57271 
L 704.756399 614.496766 
L 705.987643 614.544999 
L 705.372021 614.700606 
L 707.218888 614.700606 
L 707.83451 614.215734 
L 709.065755 614.215734 
L 709.681377 614.374917 
L 712.143866 614.374917 
L 712.759488 614.238799 
L 713.37511 614.934662 
L 713.990733 614.934662 
L 714.606355 614.238799 
L 715.221977 614.238799 
L 715.837599 613.757641 
L 716.453222 613.612227 
L 717.068844 613.757641 
L 717.684466 614.315219 
L 718.300088 614.496766 
L 718.915711 614.496766 
L 719.531333 614.708855 
L 721.993822 614.708855 
L 722.609444 614.92852 
L 723.225066 614.54747 
L 723.840688 614.455131 
L 725.071933 614.54747 
L 725.687555 614.855434 
L 727.534422 615.186534 
L 728.150044 615.408943 
L 728.765666 615.408943 
L 729.381289 615.022437 
L 730.612533 614.95412 
L 731.843778 614.330351 
L 732.4594 614.20317 
L 733.075022 614.20317 
L 733.690644 614.330351 
L 734.306267 615.396742 
L 735.537511 615.319281 
L 736.153133 614.467591 
L 738.615622 614.467591 
L 739.231244 614.264012 
L 739.846867 614.58404 
L 742.309356 614.805322 
L 741.693733 614.554634 
L 744.771845 614.497529 
L 745.387467 615.030757 
L 750.312445 615.052101 
L 750.928067 614.916062 
L 751.543689 615.052101 
L 749.696823 615.052101 
L 752.159312 614.916062 
L 752.774934 615.02242 
L 753.390556 615.396368 
L 754.006178 615.02242 
L 754.621801 614.89994 
L 757.699912 615.004484 
L 759.546778 615.285954 
L 760.162401 615.200767 
L 760.778023 615.59869 
L 762.009267 615.126887 
L 762.62489 615.228169 
L 763.856134 615.126887 
L 765.703001 615.033213 
L 766.318623 614.836625 
L 770.012357 614.93144 
L 771.243601 615.020689 
L 772.474846 614.83697 
L 773.090468 615.01305 
L 773.70609 615.01305 
L 774.937335 614.618954 
L 775.552957 615.01305 
L 776.168579 614.618954 
L 776.784201 614.618954 
L 777.399823 614.865794 
L 778.015446 614.932009 
L 778.631068 614.865794 
L 780.477935 615.017148 
L 781.709179 614.964531 
L 782.324801 614.65714 
L 782.940424 611.93695 
L 783.556046 611.93695 
L 784.171668 611.307348 
L 784.78729 613.45372 
L 785.402913 614.602379 
L 787.249779 614.659878 
L 787.865402 615.005063 
L 788.481024 614.899522 
L 789.096646 614.966286 
L 791.559135 614.801442 
L 790.327891 614.617679 
L 792.174757 614.617679 
L 792.79038 615.142424 
L 794.637246 615.142424 
L 795.252868 614.629979 
L 797.099735 614.613365 
L 798.33098 614.708636 
L 799.562224 614.708636 
L 802.640335 614.792802 
L 803.255958 614.944466 
L 810.027802 614.957371 
L 810.643425 615.095319 
L 811.259047 614.957371 
L 813.105914 614.938663 
L 812.490291 614.938663 
L 814.337158 614.763748 
L 814.95278 614.763748 
L 815.568402 615.089291 
L 816.799647 615.054774 
L 817.415269 614.819593 
L 818.646514 614.73144 
L 819.262136 614.73144 
L 818.030891 614.81922 
L 819.877758 615.116423 
L 820.49338 614.81922 
L 821.109003 614.66639 
L 822.340247 614.66639 
L 822.955869 615.161633 
L 824.802736 615.161633 
L 823.571492 615.17585 
L 824.802736 615.046565 
L 825.418358 615.129688 
L 826.033981 614.814913 
L 826.649603 615.129688 
L 827.265225 614.698272 
L 827.880847 615.129688 
L 832.190203 615.128478 
L 832.805825 614.961549 
L 835.883936 615.068662 
L 836.499559 615.225612 
L 837.115181 615.068662 
L 837.730803 615.225612 
L 838.346425 615.012587 
L 838.962048 615.117435 
L 839.57767 614.968386 
L 840.193292 615.117435 
L 841.424537 615.013618 
L 842.040159 614.955089 
L 842.655781 614.694112 
L 843.271403 614.694112 
L 843.887026 614.955089 
L 845.11827 614.933258 
L 845.733892 615.091322 
L 846.349515 615.091322 
L 846.965137 614.933258 
L 848.196381 614.998661 
L 850.043248 614.998178 
L 850.65887 615.252969 
L 853.736981 615.241255 
L 854.352604 615.199818 
L 854.968226 615.527928 
L 856.19947 615.6 
L 857.430715 615.08086 
L 860.508826 615.067658 
L 861.124448 615.128706 
L 861.740071 615.382757 
L 862.971315 615.382757 
L 862.355693 615.382757 
L 863.586937 615.011278 
L 864.20256 615.011278 
L 864.818182 614.772575 
L 866.049426 615.003012 
L 866.665049 614.861786 
L 867.896293 614.810558 
L 868.511915 614.538681 
L 870.358782 614.535225 
L 870.974404 615.109933 
L 871.590026 612.269963 
L 872.205649 615.225469 
L 873.436893 614.782825 
L 874.052515 614.782825 
L 874.668138 614.988958 
L 876.515004 615.092186 
L 877.746249 615.092186 
L 878.977493 614.989066 
L 881.439982 615.099358 
L 883.286849 615.168585 
L 884.518094 615.073182 
L 885.133716 615.357767 
L 885.749338 615.020698 
L 886.36496 615.12641 
L 886.980583 615.357767 
L 885.133716 615.12641 
L 887.596205 615.12641 
L 888.211827 615.427809 
L 889.443071 615.427809 
L 890.058694 615.244775 
L 892.521183 615.226588 
L 893.136805 614.819593 
L 894.983672 614.819593 
L 896.214916 615.091482 
L 896.830538 614.94116 
L 897.446161 614.94116 
L 895.599294 614.94116 
L 898.677405 614.719027 
L 899.293027 615.043718 
L 899.90865 614.719027 
L 900.524272 614.725692 
L 901.139894 614.956014 
L 900.524272 614.956014 
L 901.755516 614.956014 
L 902.371139 615.195966 
L 907.296117 615.189527 
L 907.911739 614.941157 
L 908.527361 615.261895 
L 910.374228 615.158337 
L 910.98985 614.878954 
L 912.221094 614.903573 
L 912.836717 614.21087 
L 913.452339 614.650189 
L 914.067961 614.650189 
L 914.683583 615.049549 
L 915.914828 615.125567 
L 917.761695 615.128183 
L 918.992939 615.060571 
L 920.224184 615.094096 
L 919.608561 615.239595 
L 922.686673 615.21529 
L 923.302295 614.904245 
L 923.917917 614.904245 
L 924.533539 615.135872 
L 925.764784 615.135872 
L 926.380406 615.250332 
L 926.996028 615.005539 
L 929.458517 615.054981 
L 930.074139 615.307359 
L 930.689762 615.307359 
L 931.305384 615.134958 
L 932.536628 615.102371 
L 933.152251 614.928366 
L 934.383495 614.932205 
L 934.999117 615.13587 
L 935.61474 615.13587 
L 936.230362 614.997601 
L 939.308473 614.976118 
L 939.924095 614.574959 
L 940.539718 615.10985 
L 942.386584 615.075787 
L 943.002207 614.920053 
L 945.464695 614.920053 
L 946.080318 615.115072 
L 949.158429 614.865462 
L 949.774051 615.093332 
L 950.389673 614.920053 
L 951.005296 615.008023 
L 949.158429 614.920053 
L 952.852162 614.920053 
L 953.467785 614.631565 
L 954.083407 614.920053 
L 954.699029 614.646149 
L 955.314651 614.646149 
L 955.930274 614.890371 
L 957.161518 614.968627 
L 958.392763 614.998978 
L 959.008385 615.239423 
L 959.624007 614.998978 
L 960.239629 615.239423 
L 960.855252 615.141602 
L 961.470874 614.928834 
L 962.086496 615.060753 
L 962.702118 614.946517 
L 963.317741 615.060753 
L 962.702118 615.060753 
L 963.933363 615.155245 
L 966.395852 615.374711 
L 967.011474 614.91198 
L 967.627096 615.125591 
L 968.242718 614.818734 
L 969.473963 614.557352 
L 970.089585 614.745557 
L 970.705207 611.631382 
L 971.32083 605.424699 
L 972.552074 605.424699 
L 973.167696 613.591993 
L 973.783319 614.130502 
L 974.398941 614.33174 
L 975.014563 614.730308 
L 975.630185 614.967477 
L 976.245808 614.967477 
L 976.86143 615.172155 
L 978.708297 615.129654 
L 980.555163 615.123995 
L 981.170786 614.866285 
L 983.017652 614.866285 
L 983.633274 614.678699 
L 984.248897 615.051991 
L 985.480141 615.235855 
L 987.94263 615.270031 
L 988.558252 614.976859 
L 991.636364 614.857891 
L 992.867608 615.071884 
L 996.561342 615.210257 
L 995.945719 615.236303 
L 997.792586 615.197173 
L 998.408208 614.968173 
L 1003.948808 615.067658 
L 1004.564431 615.182877 
L 1005.795675 615.251442 
L 1007.02692 614.920053 
L 1007.642542 615.251442 
L 1008.258164 615.445557 
L 1009.489409 615.380587 
L 1011.336275 615.080775 
L 1011.951898 615.258709 
L 1013.798764 615.250165 
L 1016.261253 614.965423 
L 1016.876876 614.965423 
L 1017.492498 615.199992 
L 1019.954987 615.244062 
L 1020.570609 614.945149 
L 1021.801853 615.034873 
L 1027.342454 615.12542 
L 1027.958076 615.399969 
L 1028.573698 615.12542 
L 1032.267432 615.161454 
L 1032.883054 614.95199 
L 1034.114298 614.95199 
L 1039.039276 614.950071 
L 1039.654898 615.242632 
L 1042.117387 615.263868 
L 1042.73301 615.51006 
L 1049.504854 615.425874 
L 1050.120477 615.187576 
L 1050.736099 615.074179 
L 1052.582966 615.116208 
L 1053.198588 615.321385 
L 1056.276699 615.280416 
L 1056.892321 615.507755 
L 1059.35481 615.529779 
L 1060.586055 615.432305 
L 1065.511033 615.343716 
L 1066.126655 615.587734 
L 1066.742277 615.487023 
L 1067.973522 615.487023 
L 1069.820388 615.378795 
L 1070.436011 615.196223 
L 1071.667255 615.512208 
L 1074.129744 615.45003 
L 1074.745366 615.234711 
L 1075.360989 615.234711 
L 1075.976611 615.430977 
L 1076.592233 615.234711 
L 1077.207855 615.430977 
L 1077.823477 615.430977 
L 1079.054722 615.094291 
L 1080.285966 615.424246 
L 1081.517211 615.424246 
L 1082.132833 615.277796 
L 1082.748455 614.986602 
L 1083.364078 615.277796 
L 1083.9797 614.944818 
L 1085.210944 614.853427 
L 1085.826567 615.084499 
L 1086.442189 615.084499 
L 1087.057811 615.261943 
L 1087.673433 615.261943 
L 1088.289056 615.043473 
L 1090.135922 615.043473 
L 1090.751545 615.200767 
L 1091.982789 615.200767 
L 1093.214034 615.461789 
L 1097.523389 615.521806 
L 1098.139011 615.155323 
L 1099.370256 615.11999 
L 1099.985878 615.267648 
L 1107.988967 615.344873 
L 1108.60459 615.396286 
L 1110.451456 615.221526 
L 1112.913945 615.227977 
L 1113.529568 615.385157 
L 1115.376434 615.42749 
L 1116.607679 615.406271 
L 1117.223301 615.066434 
L 1119.68579 615.05706 
L 1120.301412 614.913837 
L 1122.148279 614.913837 
L 1122.763901 615.142199 
L 1129.535746 615.396941 
L 1131.998235 615.462289 
L 1133.845102 615.421621 
L 1134.460724 615.285015 
L 1135.691968 615.272173 
L 1136.30759 615.131254 
L 1142.463813 615.238212 
L 1143.695057 615.321409 
L 1146.773169 615.397591 
L 1148.004413 615.465817 
L 1153.545013 615.414355 
L 1154.160635 615.291332 
L 1158.469991 615.240415 
L 1159.085613 615.41528 
L 1160.93248 615.485228 
L 1161.548102 615.155255 
L 1162.779347 615.127355 
L 1163.394969 614.693373 
L 1164.626214 614.682505 
L 1167.704325 615.249647 
L 1168.319947 615.194504 
L 1168.935569 614.954323 
L 1169.551192 615.431886 
L 1170.166814 615.09449 
L 1170.782436 615.09449 
L 1171.398058 615.27785 
L 1178.785525 615.308939 
L 1180.01677 614.849942 
L 1182.479259 614.934654 
L 1183.094881 615.392243 
L 1186.172992 615.28448 
L 1186.788614 615.037304 
L 1188.635481 614.933258 
L 1189.251103 615.237656 
L 1189.866726 615.237656 
L 1191.09797 615.484898 
L 1192.944837 615.422154 
L 1193.560459 615.114744 
L 1194.791703 615.190752 
L 1198.485437 615.253174 
L 1199.101059 615.040494 
L 1199.716681 615.040494 
L 1200.332304 615.169544 
L 1200.947926 615.046993 
L 1208.335393 615.131565 
L 1208.951015 615.273704 
L 1210.182259 615.208276 
L 1210.797882 615.208276 
L 1211.413504 615.378025 
L 1213.260371 615.437436 
L 1213.875993 615.235684 
L 1215.107237 615.194392 
L 1215.72286 615.332487 
L 1216.338482 615.332487 
L 1216.954104 614.990242 
L 1218.800971 614.990242 
L 1220.647838 615.312178 
L 1230.497793 615.329614 
L 1231.113416 615.158736 
L 1232.960282 615.158736 
L 1233.575905 614.976788 
L 1234.191527 615.344827 
L 1236.038394 615.344827 
L 1236.654016 615.01008 
L 1238.500883 615.01008 
L 1239.116505 614.639809 
L 1239.732127 614.639809 
L 1240.347749 614.809126 
L 1242.194616 614.906576 
L 1242.810238 615.170817 
L 1244.041483 615.170817 
L 1245.272727 615.474391 
L 1245.272727 615.474391 
" style="fill:none;stroke:#1f77b4;stroke-linecap:square;stroke-width:1.5;"/>
   </g>
   <g id="line2d_17">
    <path clip-path="url(#pb9f6f71331)" d="M 230.727273 607.287188 
L 231.342895 608.146813 
L 230.727273 605.279798 
L 232.574139 593.95581 
L 233.189762 600.199024 
L 233.805384 601.305904 
L 234.421006 575.484727 
L 235.036628 588.948755 
L 235.652251 569.306153 
L 235.036628 585.859468 
L 236.267873 594.136126 
L 236.883495 588.383973 
L 237.499117 585.507897 
L 238.11474 600.423832 
L 238.730362 608.232383 
L 239.345984 608.61941 
L 239.961606 610.187804 
L 240.577229 610.875245 
L 241.192851 612.992238 
L 241.808473 609.717238 
L 242.424095 612.572504 
L 243.65534 597.602162 
L 244.270962 600.007473 
L 244.886584 574.835512 
L 245.502207 588.624147 
L 246.117829 569.143849 
L 246.733451 597.117641 
L 247.349073 599.765212 
L 247.964695 604.385825 
L 248.580318 606.696131 
L 249.19594 606.569185 
L 249.811562 610.535167 
L 250.427184 609.770802 
L 251.042807 612.394893 
L 251.658429 613.738684 
L 252.274051 614.658118 
L 252.889673 610.550178 
L 253.505296 609.778308 
L 254.120918 608.110273 
L 254.73654 608.558355 
L 255.352162 611.972921 
L 255.967785 613.533272 
L 256.583407 600.829902 
L 257.199029 601.621343 
L 257.814651 604.031791 
L 258.430274 576.84767 
L 259.045896 595.540852 
L 259.661518 602.273645 
L 260.27714 604.357942 
L 260.892763 605.40009 
L 261.508385 609.371687 
L 262.124007 609.189062 
L 263.355252 613.800892 
L 263.970874 600.963712 
L 264.586496 591.797767 
L 265.202118 600.402102 
L 265.817741 591.516961 
L 266.433363 598.9796 
L 267.664607 608.15405 
L 268.280229 608.580244 
L 268.895852 611.526014 
L 269.511474 610.266226 
L 270.127096 609.636332 
L 270.742718 608.039285 
L 271.358341 611.255535 
L 271.973963 613.28878 
L 272.589585 611.147609 
L 273.205207 580.40558 
L 273.82083 572.184779 
L 274.436452 589.313509 
L 275.052074 569.48853 
L 275.667696 587.965384 
L 276.283319 597.203811 
L 276.898941 604.132632 
L 277.514563 606.569535 
L 278.130185 606.505887 
L 278.745808 607.756162 
L 279.36143 611.126464 
L 279.977052 612.005855 
L 280.592674 609.224047 
L 281.208297 607.833143 
L 281.823919 599.574037 
L 282.439541 604.290237 
L 283.055163 597.802584 
L 283.670786 600.605321 
L 284.286408 604.805879 
L 284.90203 602.095584 
L 285.517652 604.866163 
L 286.133274 600.108113 
L 286.748897 607.805261 
L 287.364519 610.078725 
L 287.980141 603.681556 
L 288.595763 601.754035 
L 289.211386 471.309269 
L 289.827008 540.157853 
L 290.44263 594.539456 
L 291.058252 602.622129 
L 291.673875 570.398393 
L 292.289497 588.420316 
L 292.905119 592.282229 
L 293.520741 594.213185 
L 294.751986 608.206784 
L 295.367608 611.451654 
L 295.98323 608.988637 
L 296.598853 607.078838 
L 297.214475 606.760538 
L 297.830097 473.812521 
L 298.445719 538.112652 
L 299.061342 572.277445 
L 299.676964 590.641941 
L 300.292586 598.54209 
L 300.908208 602.492164 
L 301.523831 604.009309 
L 302.139453 586.910068 
L 302.755075 596.473688 
L 303.370697 534.956081 
L 303.98632 425.461152 
L 304.601942 518.171844 
L 305.217564 550.859725 
L 305.833186 573.27572 
L 306.448808 519.492373 
L 307.064431 558.128937 
L 307.680053 582.131141 
L 308.295675 571.392057 
L 308.911297 593.443631 
L 310.142542 607.534263 
L 310.758164 608.249115 
L 311.989409 608.627776 
L 312.605031 611.628059 
L 313.220653 610.317248 
L 313.836275 600.159975 
L 313.220653 595.081339 
L 313.836275 600.761789 
L 315.06752 603.602014 
L 315.683142 608.605634 
L 316.298764 607.523936 
L 316.914387 611.198607 
L 317.530009 608.820423 
L 318.145631 607.677834 
L 318.761253 607.060036 
L 319.376876 606.751138 
L 319.992498 607.878788 
L 319.376876 608.442612 
L 320.60812 608.724525 
L 321.223742 611.921312 
L 321.839365 610.463875 
L 322.454987 608.453057 
L 323.070609 566.672582 
L 323.686231 590.746309 
L 324.917476 606.54552 
L 325.533098 607.204893 
L 326.14872 610.770916 
L 326.764342 607.513725 
L 327.379965 608.260081 
L 327.995587 611.25904 
L 328.611209 608.850639 
L 329.226831 607.646439 
L 329.842454 610.960184 
L 330.458076 605.894772 
L 331.073698 609.962473 
L 331.68932 612.628651 
L 332.304943 610.817544 
L 332.920565 612.636338 
L 333.536187 610.821388 
L 334.151809 613.122683 
L 334.767432 609.782461 
L 335.383054 609.394449 
L 336.614298 614.416452 
L 337.229921 610.429345 
L 337.845543 608.435792 
L 338.461165 608.721115 
L 339.076787 611.60894 
L 339.69241 610.307689 
L 340.308032 612.541787 
L 340.923654 610.774112 
L 341.539276 612.614622 
L 342.154898 591.212724 
L 342.770521 602.690951 
L 343.386143 606.89359 
L 344.001765 602.088988 
L 343.386143 605.547713 
L 344.617387 610.240889 
L 345.23301 608.341564 
L 345.848632 609.123827 
L 346.464254 611.797806 
L 347.079876 613.126468 
L 347.695499 609.784354 
L 348.311121 607.897535 
L 348.926743 608.451986 
L 349.542365 610.409947 
L 350.77361 607.732791 
L 351.389232 611.620652 
L 352.620477 609.031445 
L 353.236099 611.32035 
L 353.851721 612.813059 
L 354.467343 568.41731 
L 355.082966 587.063872 
L 355.698588 599.341144 
L 356.31421 602.891692 
L 356.929832 562.998734 
L 358.161077 605.102308 
L 358.776699 604.567293 
L 358.161077 609.6017 
L 359.392321 612.049233 
L 360.007944 609.245736 
L 360.623566 612.22383 
L 361.239188 568.122696 
L 361.85481 595.488675 
L 362.470432 606.291937 
L 363.086055 608.756093 
L 363.701677 610.187255 
L 364.317299 602.307195 
L 364.932921 517.375114 
L 365.548544 561.908676 
L 366.164166 586.763546 
L 366.779788 578.287187 
L 367.39541 595.112068 
L 368.011033 592.313821 
L 368.626655 599.37803 
L 369.242277 602.910134 
L 369.857899 609.186084 
L 370.473522 610.697189 
L 371.089144 612.596977 
L 371.704766 613.546872 
L 372.320388 614.021819 
L 372.936011 607.484673 
L 373.551633 588.64775 
L 374.167255 597.544994 
L 374.782877 601.993616 
L 376.014122 606.612182 
L 376.629744 586.750145 
L 377.245366 594.306729 
L 376.629744 598.08502 
L 377.860989 602.860881 
L 378.476611 608.382537 
L 379.092233 611.359738 
L 379.707855 612.68358 
L 380.9391 614.346278 
L 381.554722 614.763142 
L 382.785966 609.163514 
L 383.401589 611.83014 
L 384.017211 604.57516 
L 384.632833 606.790799 
L 385.248455 602.037592 
L 385.864078 598.864654 
L 386.4797 601.127137 
L 387.095322 607.447829 
L 387.710944 602.366107 
L 388.326567 604.051948 
L 388.942189 606.529193 
L 389.557811 597.594949 
L 390.173433 605.435356 
L 390.789056 605.938797 
L 391.404678 610.642252 
L 392.0203 607.991538 
L 392.635922 611.445389 
L 393.251545 613.582883 
L 393.867167 591.696855 
L 394.482789 603.36165 
L 395.098411 111.6 
L 395.714034 359.021119 
L 396.329656 441.521341 
L 396.945278 505.666084 
L 397.5609 556.054161 
L 398.176523 582.530299 
L 398.792145 594.486269 
L 400.023389 560.27117 
L 398.792145 543.16362 
L 400.639011 487.803326 
L 401.254634 505.912444 
L 401.870256 514.967003 
L 402.485878 563.29271 
L 403.1015 584.409582 
L 403.717123 596.708009 
L 404.332745 601.575124 
L 404.948367 604.008681 
L 405.563989 607.970442 
L 406.179612 608.615536 
L 406.795234 611.831975 
L 407.410856 567.926768 
L 408.026478 500.655915 
L 408.642101 489.444106 
L 409.873345 243.254444 
L 410.488967 351.283767 
L 411.10459 405.298428 
L 412.335834 541.753804 
L 412.951456 578.264844 
L 413.567079 581.005767 
L 414.182701 562.372872 
L 414.798323 577.814497 
L 415.413945 579.709404 
L 416.029568 583.219887 
L 416.64519 596.373786 
L 417.260812 603.327874 
L 417.876434 604.885056 
L 418.492056 605.663647 
L 419.107679 606.052943 
L 420.338923 599.379201 
L 420.954545 378.543322 
L 421.570168 492.49278 
L 422.18579 549.46751 
L 422.801412 577.954874 
L 423.417034 550.988218 
L 424.032657 583.204148 
L 424.648279 598.560193 
L 425.263901 605.052092 
L 425.879523 577.96584 
L 426.495146 583.046187 
L 427.110768 599.129117 
L 427.72639 607.349923 
L 428.342012 565.685742 
L 428.957635 575.119558 
L 429.573257 590.780898 
L 430.188879 589.044183 
L 430.804501 373.375813 
L 431.420124 490.834255 
L 432.035746 542.583951 
L 432.651368 487.513491 
L 433.26699 546.977865 
L 433.882613 575.316466 
L 434.498235 594.695558 
L 435.113857 582.253192 
L 435.729479 594.347715 
L 436.960724 607.060995 
L 437.576346 607.63786 
L 438.191968 611.004026 
L 438.80759 607.582686 
L 439.423213 595.107253 
L 440.038835 573.301187 
L 440.654457 561.940261 
L 441.270079 587.770806 
L 441.885702 592.527596 
L 443.116946 606.658451 
L 443.732568 590.749417 
L 444.348191 602.524089 
L 444.963813 604.483164 
L 445.579435 605.462701 
L 446.195057 610.425421 
L 446.81068 608.43383 
L 447.426302 602.859108 
L 448.041924 586.334967 
L 448.657546 596.388603 
L 449.273169 583.099715 
L 449.888791 594.770977 
L 450.504413 600.606608 
L 451.120035 562.314085 
L 451.735658 584.378162 
L 452.35128 597.622737 
L 453.582524 606.137919 
L 454.198147 604.480728 
L 454.813769 609.386277 
L 455.429391 611.292883 
L 456.045013 608.867561 
L 456.660635 610.145698 
L 457.276258 608.293969 
L 457.89188 609.956192 
L 458.507502 602.741801 
L 459.123124 604.59202 
L 458.507502 605.55347 
L 459.738747 609.423814 
L 460.354369 601.064636 
L 460.969991 604.516592 
L 461.585613 602.17343 
L 459.123124 604.307834 
L 462.201236 607.049354 
L 462.816858 602.16687 
L 463.43248 599.725628 
L 464.048102 603.083933 
L 464.663725 608.763738 
L 465.279347 608.509845 
L 465.894969 607.476042 
L 466.510591 607.29832 
L 467.126214 607.891181 
L 467.741836 607.825377 
L 468.357458 565.456755 
L 468.97308 585.832818 
L 469.588703 596.137529 
L 470.204325 601.289884 
L 470.819947 604.404758 
L 471.435569 609.715643 
L 472.051192 608.078941 
L 472.666814 566.050251 
L 473.282436 590.626088 
L 473.898058 598.534163 
L 474.51368 561.277863 
L 475.129303 583.860051 
L 475.744925 595.151145 
L 476.360547 604.273159 
L 476.976169 605.357699 
L 477.591792 610.229533 
L 478.207414 608.335886 
L 478.823036 610.717928 
L 479.438658 608.580083 
L 480.054281 598.353308 
L 480.669903 602.397773 
L 481.901147 607.945646 
L 482.51677 609.014479 
L 483.132392 606.734313 
L 483.748014 606.30283 
L 484.979259 606.407387 
L 485.594881 610.614456 
L 486.210503 593.520897 
L 486.826125 598.776542 
L 487.441748 602.60939 
L 488.05737 563.315476 
L 488.672992 588.807295 
L 489.288614 597.121085 
L 489.904237 601.781662 
L 490.519859 605.139223 
L 491.135481 603.215084 
L 491.751103 563.618323 
L 492.366726 586.086956 
L 492.982348 561.706646 
L 493.59797 584.074442 
L 494.213592 595.25834 
L 494.829214 603.438378 
L 495.444837 604.940309 
L 494.213592 607.422558 
L 496.060459 606.932398 
L 496.676081 574.634833 
L 497.291703 593.954491 
L 497.907326 603.182726 
L 498.522948 604.812482 
L 499.13857 609.102931 
L 499.754192 611.538615 
L 500.369815 610.272526 
L 500.985437 606.067919 
L 501.601059 606.255079 
L 502.216681 610.271654 
L 502.832304 612.495591 
L 503.447926 607.637344 
L 504.67917 611.771217 
L 505.294793 608.989319 
L 505.910415 611.964494 
L 506.526037 602.308976 
L 507.141659 607.059806 
L 507.757282 606.993844 
L 507.141659 606.718041 
L 508.372904 604.748569 
L 508.988526 605.595404 
L 509.604148 608.954592 
L 510.219771 607.698415 
L 510.835393 611.061835 
L 511.451015 612.847274 
L 512.066637 609.644756 
L 512.682259 609.325597 
L 513.297882 611.985873 
L 513.913504 602.345666 
L 514.529126 598.130942 
L 515.760371 602.286591 
L 514.529126 603.946633 
L 516.375993 606.476535 
L 516.991615 576.704699 
L 517.607237 591.573469 
L 518.22286 601.857548 
L 518.838482 604.149894 
L 519.454104 608.684472 
L 520.069726 607.563355 
L 520.685349 577.250718 
L 521.300971 593.128578 
L 522.532215 607.141072 
L 523.147838 606.791655 
L 523.76346 559.505666 
L 524.379082 578.395026 
L 524.994704 505.419029 
L 526.225949 559.756144 
L 526.841571 496.099588 
L 527.457193 553.560377 
L 528.072816 593.221773 
L 528.688438 603.137122 
L 529.30406 604.78968 
L 529.919682 605.61596 
L 530.535305 609.827527 
L 531.150927 612.014058 
L 531.766549 613.023205 
L 532.382171 609.732722 
L 532.997793 612.077419 
L 533.613416 613.471015 
L 534.84466 606.740563 
L 536.075905 606.51682 
L 537.307149 606.460884 
L 537.922771 607.367347 
L 538.538394 606.904793 
L 539.154016 609.345485 
L 539.769638 601.025472 
L 541.000883 607.791755 
L 541.616505 607.116997 
L 542.232127 610.643087 
L 542.847749 608.542663 
L 543.463372 611.521906 
L 544.078994 608.982072 
L 544.694616 611.629068 
L 545.310238 609.035654 
L 546.541483 607.738946 
L 547.157105 610.260618 
L 547.772727 608.351428 
L 548.38835 607.396834 
L 549.003972 610.372642 
L 549.619594 608.40744 
L 550.235216 596.321446 
L 549.619594 601.381843 
L 550.850838 590.175261 
L 551.466461 601.784321 
L 552.082083 604.11328 
L 552.697705 608.721415 
L 553.313327 611.057397 
L 553.92895 608.749818 
L 554.544572 607.596028 
L 555.775816 607.019133 
L 556.391439 587.167314 
L 557.622683 605.421935 
L 558.238305 554.108804 
L 558.853928 584.500407 
L 559.46955 606.93434 
L 560.085172 610.568143 
L 560.700794 611.673395 
L 561.316417 597.954424 
L 561.932039 594.997053 
L 562.547661 600.719646 
L 563.163283 562.370604 
L 563.778906 588.286275 
L 564.394528 556.153919 
L 565.01015 582.580178 
L 565.625772 594.511208 
L 566.241395 603.646749 
L 566.857017 573.76342 
L 567.472639 593.272856 
L 568.703883 604.050268 
L 569.319506 605.246254 
L 569.935128 565.114184 
L 570.55075 581.199285 
L 571.166372 564.05774 
L 571.781995 557.846213 
L 572.397617 582.144226 
L 573.013239 589.55821 
L 573.628861 594.185246 
L 574.860106 607.544814 
L 575.475728 606.993526 
L 576.09135 607.175775 
L 576.706973 585.568237 
L 577.322595 592.190259 
L 577.938217 603.216986 
L 578.553839 609.081472 
L 579.169462 607.761856 
L 579.785084 607.102047 
L 580.400706 610.993341 
L 581.016328 612.961264 
L 581.631951 610.983851 
L 582.247573 612.763633 
L 582.863195 609.602936 
L 583.478817 611.498158 
L 584.710062 610.550547 
L 585.325684 600.769546 
L 585.941306 603.605892 
L 586.556929 605.024065 
L 587.172551 592.320652 
L 588.403795 607.741569 
L 589.019417 588.776198 
L 589.63504 600.262682 
L 590.250662 607.398224 
L 590.866284 606.920231 
L 592.097529 612.123077 
L 592.713151 610.564757 
L 593.328773 596.884518 
L 593.944395 605.690627 
L 593.328773 606.066433 
L 594.560018 606.254336 
L 595.17564 610.038102 
L 595.791262 608.24017 
L 596.406884 596.744424 
L 597.022507 604.017785 
L 597.638129 604.945157 
L 598.253751 596.535845 
L 598.869373 605.912212 
L 599.484996 605.472775 
L 600.100618 609.581865 
L 600.71624 566.801713 
L 601.331862 586.621976 
L 601.947485 599.764291 
L 602.563107 607.32815 
L 603.178729 610.765048 
L 603.794351 612.252839 
L 604.409974 613.229533 
L 603.794351 613.485081 
L 605.025596 606.730617 
L 605.641218 588.270722 
L 606.25684 575.501127 
L 606.872462 593.568202 
L 607.488085 600.00522 
L 609.334951 609.761786 
L 609.950574 608.102012 
L 610.566196 593.535346 
L 611.181818 604.155615 
L 611.79744 609.547642 
L 613.028685 613.429424 
L 613.644307 602.68881 
L 614.259929 604.565524 
L 614.875552 609.287906 
L 615.491174 608.948635 
L 616.106796 575.185059 
L 616.722418 575.438209 
L 617.338041 594.724302 
L 617.953663 599.575219 
L 618.569285 606.900679 
L 619.80053 606.556849 
L 620.416152 609.851972 
L 621.031774 608.147105 
L 621.647396 610.732805 
L 622.263019 590.807504 
L 622.878641 598.624871 
L 623.494263 604.93204 
L 625.34113 610.807694 
L 625.956752 608.624966 
L 627.187996 611.757536 
L 628.419241 608.088599 
L 629.034863 610.837622 
L 628.419241 612.212134 
L 629.650485 609.969705 
L 630.266108 604.85145 
L 630.88173 607.532285 
L 632.112974 580.248486 
L 632.728597 594.627462 
L 633.344219 605.067775 
L 633.959841 605.755007 
L 634.575463 608.808599 
L 635.191086 607.625419 
L 635.806708 608.315928 
L 636.42233 566.168745 
L 637.037952 588.395871 
L 637.653575 600.987924 
L 638.269197 605.805461 
L 638.884819 609.464543 
L 639.500441 607.953391 
L 640.116064 608.708968 
L 640.731686 602.996677 
L 641.347308 608.814695 
L 641.96293 607.035353 
L 642.578553 608.020895 
L 643.194175 607.231567 
L 643.809797 610.864166 
L 644.425419 609.935302 
L 643.809797 587.66213 
L 645.041041 599.956506 
L 645.656664 603.199372 
L 646.272286 607.695272 
L 646.887908 582.058737 
L 647.50353 589.671561 
L 648.119153 601.595161 
L 648.734775 562.808362 
L 649.350397 588.163561 
L 650.581642 604.997868 
L 651.197264 609.333422 
L 651.812886 607.88783 
L 652.428508 543.060064 
L 653.044131 574.751151 
L 653.659753 590.596695 
L 654.275375 598.519467 
L 654.890997 602.480853 
L 655.50662 597.593156 
L 656.737864 608.898281 
L 657.353486 611.192511 
L 657.969109 608.817375 
L 658.584731 593.893027 
L 659.815975 606.474962 
L 660.431598 606.4586 
L 661.04722 583.604873 
L 661.662842 595.023556 
L 662.278464 513.733294 
L 662.894086 560.087766 
L 663.509709 583.265002 
L 664.125331 553.643282 
L 664.740953 538.832422 
L 665.356575 573.91943 
L 665.972198 596.812396 
L 666.58782 560.416979 
L 667.203442 587.183503 
L 667.819064 598.09497 
L 669.050309 608.188106 
L 669.665931 598.157319 
L 671.512798 605.775353 
L 672.12842 606.108796 
L 672.744042 592.4478 
L 673.359665 599.445019 
L 673.975287 575.771455 
L 674.590909 592.022632 
L 675.206531 602.083465 
L 675.822154 607.987076 
L 676.437776 571.24197 
L 677.053398 582.010941 
L 677.66902 598.242308 
L 678.284643 602.342274 
L 678.900265 607.999672 
L 679.515887 611.591749 
L 680.131509 609.016994 
L 680.747132 589.41391 
L 681.362754 597.699128 
L 681.978376 583.297085 
L 682.593998 598.176664 
L 683.20962 606.107879 
L 683.825243 609.502365 
L 684.440865 611.817202 
L 685.056487 611.126673 
L 685.672109 608.784456 
L 686.287732 611.411775 
L 686.903354 608.927007 
L 687.518976 607.684623 
L 688.134598 612.783321 
L 688.750221 603.077807 
L 689.365843 607.779871 
L 689.981465 609.255458 
L 690.597087 606.858793 
L 691.21271 606.650516 
L 691.828332 603.602044 
L 692.443954 591.30789 
L 693.059576 598.417172 
L 692.443954 588.715454 
L 694.290821 601.781596 
L 694.906443 594.954064 
L 695.522065 603.445507 
L 696.137688 606.225972 
L 696.75331 576.571083 
L 697.368932 595.537213 
L 697.984554 609.579063 
L 698.600177 516.432121 
L 699.215799 565.020688 
L 699.831421 571.282157 
L 700.447043 593.393427 
L 701.062665 558.707495 
L 701.678288 582.574867 
L 702.909532 604.959836 
L 702.29391 518.701434 
L 704.140777 539.862504 
L 704.756399 543.389349 
L 705.372021 533.705456 
L 705.987643 570.671098 
L 705.372021 547.34633 
L 706.603266 577.604848 
L 707.218888 550.813205 
L 707.83451 578.627722 
L 708.450132 562.955115 
L 709.065755 543.488339 
L 709.681377 487.965685 
L 710.296999 542.167143 
L 710.912621 575.58679 
L 711.528244 594.885359 
L 712.143866 605.207754 
L 712.759488 582.930364 
L 713.37511 594.686301 
L 713.990733 595.680082 
L 715.221977 602.988545 
L 715.837599 605.997491 
L 716.453222 607.899507 
L 717.068844 607.170873 
L 719.531333 577.954456 
L 720.146955 592.007559 
L 721.378199 601.104193 
L 722.609444 606.389827 
L 723.225066 608.352285 
L 723.840688 607.397262 
L 724.456311 610.847543 
L 725.071933 608.644891 
L 725.687555 611.896557 
L 726.9188 609.169398 
L 727.534422 611.833082 
L 728.150044 563.348395 
L 728.765666 552.842832 
L 729.381289 579.642535 
L 729.996911 506.042784 
L 730.612533 515.032173 
L 731.843778 574.431869 
L 732.4594 590.437054 
L 733.075022 602.98721 
L 733.690644 607.489508 
L 734.306267 609.967314 
L 734.921889 608.204776 
L 735.537511 587.559803 
L 736.153133 597.001021 
L 736.768756 602.637415 
L 737.384378 604.539827 
L 738 605.491033 
L 738.615622 607.248735 
L 739.231244 581.097267 
L 739.846867 593.769753 
L 740.462489 600.105996 
L 742.309356 609.038614 
L 741.693733 607.740426 
L 742.924978 605.259762 
L 743.5406 604.389544 
L 744.771845 606.526316 
L 745.387467 607.766377 
L 746.003089 565.893969 
L 746.618711 588.457567 
L 747.849956 605.65491 
L 748.465578 609.078505 
L 749.0812 607.760372 
L 749.696823 604.635729 
L 750.312445 609.122492 
L 750.928067 607.782365 
L 751.543689 610.726254 
L 749.696823 567.373908 
L 752.159312 585.697176 
L 752.774934 596.069707 
L 754.006178 601.255973 
L 754.621801 605.975036 
L 755.237423 530.894409 
L 755.853045 568.668324 
L 756.468667 586.161695 
L 757.084289 599.26847 
L 757.699912 607.13366 
L 758.315534 609.942864 
L 760.162401 566.982213 
L 760.778023 574.375636 
L 761.393645 592.257293 
L 762.009267 590.191913 
L 762.62489 568.554054 
L 763.240512 590.086235 
L 763.856134 556.596006 
L 764.471756 509.556943 
L 765.087379 553.99303 
L 765.703001 577.243209 
L 766.318623 591.842724 
L 766.934245 546.484827 
L 767.549868 576.463533 
L 768.16549 595.43971 
L 768.781112 602.223073 
L 769.396734 569.621097 
L 770.012357 455.2428 
L 770.627979 532.124619 
L 771.243601 573.650919 
L 771.859223 590.046579 
L 772.474846 511.244806 
L 773.090468 561.431611 
L 773.70609 587.475186 
L 774.321712 587.293972 
L 774.937335 599.062174 
L 775.552957 607.284694 
L 776.168579 606.863466 
L 776.784201 582.207933 
L 777.399823 507.325483 
L 778.015446 552.304934 
L 778.631068 492.373983 
L 779.24669 544.829184 
L 779.862312 575.635712 
L 780.477935 504.039372 
L 781.093557 514.030467 
L 781.709179 560.236353 
L 782.324801 573.686919 
L 782.940424 594.437637 
L 783.556046 540.62771 
L 784.171668 584.121857 
L 784.78729 595.282048 
L 785.402913 601.720692 
L 786.018535 604.081465 
L 786.634157 602.933834 
L 787.865402 606.162389 
L 788.481024 595.633415 
L 789.096646 605.068379 
L 789.712268 577.365965 
L 790.327891 566.655535 
L 790.943513 568.233181 
L 791.559135 521.139071 
L 790.327891 552.44288 
L 792.174757 572.391013 
L 792.79038 591.983662 
L 793.406002 599.21295 
L 794.021624 602.827594 
L 794.637246 607.337234 
L 795.252868 606.889736 
L 795.868491 606.665987 
L 796.484113 609.675109 
L 797.099735 608.058674 
L 797.715357 578.861112 
L 798.33098 595.08423 
L 798.946602 603.972787 
L 799.562224 586.891807 
L 800.177846 599.922227 
L 800.793469 603.182233 
L 801.409091 609.000913 
L 802.024713 607.721576 
L 802.640335 606.762073 
L 803.255958 591.382903 
L 803.87158 600.19467 
L 804.487202 603.318454 
L 805.102824 586.564641 
L 805.718447 596.50344 
L 806.334069 601.472839 
L 806.949691 603.957539 
L 807.565313 605.199889 
L 808.180936 604.238473 
L 808.796558 605.937607 
L 809.41218 604.796337 
L 810.027802 605.619288 
L 810.643425 609.76181 
L 811.259047 608.102024 
L 811.874669 610.51739 
L 812.490291 611.68488 
L 813.105914 607.918828 
L 813.721536 600.013826 
L 814.337158 516.228429 
L 815.568402 582.43516 
L 816.184025 597.186055 
L 815.568402 603.088694 
L 816.799647 604.765466 
L 818.030891 570.738891 
L 819.262136 589.865111 
L 818.030891 572.027374 
L 819.877758 588.536633 
L 821.109003 605.563565 
L 821.724625 607.631471 
L 822.340247 598.608516 
L 823.571492 605.670513 
L 824.187114 606.056376 
L 824.802736 608.837396 
L 823.571492 607.639817 
L 824.802736 609.629117 
L 825.418358 612.149739 
L 826.033981 609.295989 
L 826.649603 610.885876 
L 827.265225 609.946157 
L 827.880847 589.878492 
L 828.49647 598.160365 
L 829.112092 602.301302 
L 829.727714 604.37177 
L 830.343336 570.104855 
L 830.958959 591.102565 
L 831.574581 557.562064 
L 832.190203 583.28425 
L 832.805825 553.652906 
L 833.421447 583.770625 
L 834.03707 525.750386 
L 834.652692 566.096312 
L 835.268314 587.986373 
L 835.883936 599.730653 
L 836.499559 603.086446 
L 837.730803 608.878984 
L 838.346425 596.213295 
L 838.962048 580.352117 
L 839.57767 596.602426 
L 840.193292 605.102229 
L 840.808914 609.35213 
L 841.424537 607.897184 
L 842.040159 597.648122 
L 842.655781 566.505018 
L 843.887026 595.381223 
L 844.502648 596.332804 
L 845.11827 603.272962 
L 845.733892 514.41121 
L 846.349515 519.216386 
L 846.965137 562.829312 
L 847.580759 584.635775 
L 848.196381 590.960081 
L 848.812004 601.145641 
L 849.427626 603.79394 
L 850.043248 605.118089 
L 850.65887 607.393301 
L 851.274492 608.74934 
L 851.890115 611.791125 
L 852.505737 610.398781 
L 853.121359 611.917894 
L 853.736981 610.462166 
L 854.352604 610.825651 
L 855.583848 609.942209 
L 856.19947 610.930043 
L 856.815093 590.370435 
L 857.430715 602.368619 
L 858.046337 605.687528 
L 858.661959 606.064883 
L 859.277582 608.055522 
L 859.893204 598.091027 
L 860.508826 602.266633 
L 861.124448 604.354436 
L 861.740071 609.949275 
L 862.355693 611.964809 
L 862.971315 612.80821 
L 862.355693 613.394276 
L 863.586937 611.200357 
L 864.20256 608.821298 
L 864.818182 607.631768 
L 865.433804 608.319103 
L 866.049426 607.977922 
L 866.665049 607.882835 
L 867.280671 607.162537 
L 867.896293 588.675562 
L 868.511915 574.621451 
L 869.127538 373.887813 
L 869.74316 493.078888 
L 870.358782 552.674426 
L 870.974404 538.347994 
L 871.590026 571.294251 
L 872.205649 591.699489 
L 872.821271 601.360327 
L 873.436893 606.35632 
L 874.052515 575.720472 
L 874.668138 592.363455 
L 875.28376 600.684946 
L 875.899382 605.669899 
L 876.515004 606.056069 
L 877.130627 607.531253 
L 877.746249 608.268845 
L 878.361871 605.066079 
L 878.977493 603.464695 
L 879.593116 608.348188 
L 880.208738 610.447831 
L 879.593116 611.497653 
L 881.439982 607.706092 
L 882.055605 609.662254 
L 882.671227 594.817684 
L 883.286849 573.755738 
L 884.518094 603.638525 
L 885.133716 600.461456 
L 885.749338 606.082294 
L 886.36496 587.94656 
L 885.133716 592.615473 
L 887.596205 603.265397 
L 888.827449 486.288465 
L 889.443071 548.557421 
L 890.058694 586.365741 
L 891.289938 600.128031 
L 891.90556 604.567234 
L 892.521183 605.504736 
L 893.136805 564.763149 
L 893.752427 563.668367 
L 894.368049 584.093728 
L 894.983672 554.057645 
L 895.599294 561.934236 
L 896.214916 585.470337 
L 896.830538 598.703644 
L 897.446161 570.520456 
L 895.599294 583.902421 
L 898.061783 590.593403 
L 898.677405 572.781003 
L 899.293027 590.89372 
L 899.90865 557.457641 
L 900.524272 577.371013 
L 901.139894 587.3277 
L 900.524272 600.866071 
L 901.755516 599.075228 
L 902.371139 602.758733 
L 902.986761 604.600486 
L 904.218005 611.641838 
L 904.833628 612.227379 
L 905.44925 609.334809 
L 906.064872 589.572818 
L 906.680494 600.595617 
L 907.296117 606.724176 
L 907.911739 606.583207 
L 908.527361 610.938259 
L 909.142983 567.47991 
L 909.758605 576.096487 
L 910.374228 591.269363 
L 910.98985 598.855801 
L 911.605472 600.359556 
L 912.221094 603.400898 
L 912.836717 605.681903 
L 913.452339 606.977856 
L 914.067961 606.710047 
L 914.683583 611.570177 
L 915.299206 609.006208 
L 915.914828 589.408517 
L 917.146072 593.346451 
L 918.377317 606.087365 
L 918.992939 610.186466 
L 919.608561 584.340101 
L 920.839806 547.71924 
L 921.455428 585.491882 
L 922.07105 597.275923 
L 922.686673 601.859081 
L 923.302295 581.256027 
L 923.917917 570.954501 
L 924.533539 586.122988 
L 925.149162 509.28301 
L 926.380406 579.097921 
L 926.996028 596.886489 
L 927.61165 594.574519 
L 928.227273 570.287464 
L 928.842895 591.410833 
L 929.458517 515.074166 
L 931.305384 588.948717 
L 931.921006 597.695478 
L 932.536628 603.350958 
L 933.152251 604.896598 
L 933.767873 609.149219 
L 935.61474 605.889067 
L 936.230362 606.504833 
L 936.845984 609.981176 
L 937.461606 612.386611 
L 938.077229 609.414425 
L 938.692851 612.216225 
L 939.308473 572.173762 
L 939.924095 565.822634 
L 941.15534 604.870952 
L 941.770962 605.656595 
L 942.386584 607.331516 
L 943.002207 577.731067 
L 943.617829 565.070986 
L 944.233451 585.756613 
L 944.849073 597.498542 
L 945.464695 601.97039 
L 946.080318 605.324277 
L 946.69594 607.165357 
L 947.927184 566.056361 
L 948.542807 597.660928 
L 949.158429 602.051584 
L 950.389673 601.901187 
L 951.005296 517.17211 
L 949.158429 561.807174 
L 951.620918 573.590579 
L 952.852162 503.016806 
L 954.083407 596.140209 
L 954.699029 586.638659 
L 955.314651 600.537308 
L 955.930274 603.489773 
L 956.545896 572.691763 
L 957.161518 588.758955 
L 957.77714 597.600597 
L 959.008385 596.04164 
L 959.624007 560.031601 
L 960.239629 587.033124 
L 960.855252 598.019781 
L 962.086496 607.870555 
L 962.702118 607.156397 
L 963.317741 608.081417 
L 962.702118 588.651651 
L 963.933363 556.336607 
L 964.548985 584.91974 
L 965.164607 599.588508 
L 966.395852 606.010905 
L 967.011474 606.975455 
L 967.627096 587.479782 
L 968.242718 598.24311 
L 968.858341 602.939926 
L 969.473963 595.802578 
L 970.089585 580.262854 
L 970.705207 583.951482 
L 971.32083 588.930961 
L 971.936452 567.923578 
L 972.552074 506.735062 
L 973.167696 557.87075 
L 974.398941 592.770325 
L 975.630185 605.861043 
L 976.245808 606.151641 
L 976.86143 600.674659 
L 977.477052 603.558449 
L 978.092674 605.000344 
L 978.708297 607.003391 
L 979.323919 610.818052 
L 979.939541 581.40742 
L 981.170786 603.151219 
L 981.786408 608.739693 
L 982.40203 574.823207 
L 983.017652 593.744103 
L 983.633274 603.974799 
L 984.248897 609.48882 
L 984.864519 612.067484 
L 985.480141 609.254861 
L 986.095763 612.052155 
L 986.711386 613.165979 
L 987.327008 431.225976 
L 987.94263 477.205045 
L 988.558252 545.882236 
L 989.173875 546.399215 
L 989.789497 579.794673 
L 990.405119 596.001483 
L 991.020741 560.011523 
L 991.636364 542.016542 
L 992.251986 487.229787 
L 992.867608 550.3974 
L 993.48323 578.419819 
L 994.098853 595.036072 
L 994.714475 602.021255 
L 995.330097 602.566682 
L 995.945719 608.22319 
L 996.561342 607.332714 
L 995.945719 610.606206 
L 996.561342 608.524222 
L 997.176964 574.110824 
L 997.792586 593.024299 
L 998.408208 602.969379 
L 999.023831 604.705809 
L 999.639453 606.856123 
L 1000.255075 606.649181 
L 1000.870697 584.805608 
L 1001.48632 596.906023 
L 1002.101942 605.257638 
L 1002.717564 601.271012 
L 1003.333186 603.856625 
L 1003.948808 605.149432 
L 1004.564431 609.869706 
L 1005.180053 612.035826 
L 1005.795675 613.266281 
L 1006.411297 600.696407 
L 1007.02692 607.635683 
L 1008.258164 565.828622 
L 1009.489409 608.78085 
L 1010.105031 612.668003 
L 1010.720653 610.83722 
L 1011.336275 611.083195 
L 1011.951898 608.762717 
L 1013.183142 610.940863 
L 1013.798764 612.487755 
L 1014.414387 609.464997 
L 1015.645631 612.417857 
L 1016.261253 609.430048 
L 1016.876876 611.645852 
L 1017.492498 609.044045 
L 1018.10812 612.001116 
L 1018.723742 601.933171 
L 1019.339365 603.719186 
L 1019.954987 606.362812 
L 1020.570609 606.663378 
L 1021.801853 606.497523 
L 1022.417476 583.906992 
L 1023.033098 594.882343 
L 1023.64872 603.364682 
L 1024.264342 610.03604 
L 1025.495587 612.687413 
L 1026.111209 610.846925 
L 1026.726831 610.750888 
L 1027.342454 612.394991 
L 1027.958076 609.418615 
L 1028.573698 605.640963 
L 1029.18932 608.147907 
L 1029.804943 602.258712 
L 1030.420565 586.034769 
L 1031.036187 599.752564 
L 1031.651809 601.133626 
L 1032.267432 603.787932 
L 1032.883054 607.284051 
L 1033.498676 609.988444 
L 1034.114298 611.798849 
L 1034.729921 610.402643 
L 1035.345543 608.422441 
L 1035.961165 607.784565 
L 1036.576787 610.039794 
L 1037.19241 611.866 
L 1037.808032 611.784566 
L 1038.423654 613.266947 
L 1039.039276 609.854593 
L 1039.654898 589.83271 
L 1040.270521 591.269863 
L 1040.886143 603.094958 
L 1041.501765 600.132457 
L 1042.117387 606.472688 
L 1043.348632 607.739563 
L 1043.964254 611.257724 
L 1044.579876 521.850378 
L 1045.195499 590.327155 
L 1046.426743 611.152052 
L 1047.042365 608.797146 
L 1047.657988 607.619692 
L 1048.27361 610.614473 
L 1048.889232 609.277051 
L 1049.504854 609.141744 
L 1050.120477 607.791991 
L 1050.736099 607.933858 
L 1051.967343 607.188048 
L 1052.582966 610.073226 
L 1053.198588 607.349985 
L 1053.81421 610.848007 
L 1054.429832 589.799772 
L 1055.045455 598.937749 
L 1055.661077 602.689994 
L 1056.276699 608.73621 
L 1056.892321 607.015731 
L 1057.507944 611.150844 
L 1058.123566 567.586203 
L 1058.739188 591.311772 
L 1059.35481 598.877005 
L 1059.970432 608.969594 
L 1060.586055 611.735372 
L 1061.201677 613.374211 
L 1061.817299 611.739795 
L 1062.432921 611.679106 
L 1063.048544 613.318646 
L 1063.664166 612.908762 
L 1064.279788 613.777455 
L 1064.89541 613.640199 
L 1065.511033 610.041219 
L 1066.126655 612.771453 
L 1066.742277 614.038185 
L 1067.357899 610.240212 
L 1067.973522 612.288576 
L 1068.589144 610.647507 
L 1069.204766 609.826972 
L 1069.820388 612.098911 
L 1070.436011 610.552674 
L 1071.051633 612.93526 
L 1071.667255 612.87409 
L 1072.282877 596.917759 
L 1072.8985 601.679999 
L 1073.514122 608.167991 
L 1074.129744 608.587214 
L 1074.745366 606.702013 
L 1075.360989 609.757466 
L 1075.976611 611.968868 
L 1076.592233 591.488221 
L 1077.823477 600.247329 
L 1078.4391 585.029078 
L 1079.054722 599.717334 
L 1079.670344 584.76408 
L 1080.285966 595.603159 
L 1080.901589 559.812361 
L 1081.517211 585.715389 
L 1082.132833 605.282792 
L 1082.748455 603.214248 
L 1083.364078 578.455275 
L 1083.9797 586.259014 
L 1084.595322 601.396432 
L 1085.210944 603.919335 
L 1085.826567 609.196731 
L 1086.442189 609.101584 
L 1087.673433 594.035132 
L 1088.904678 606.788789 
L 1089.5203 606.615514 
L 1090.135922 607.810976 
L 1090.751545 610.623441 
L 1091.367167 521.533237 
L 1092.598411 587.25733 
L 1093.214034 601.0985 
L 1093.829656 603.770369 
L 1094.445278 609.087979 
L 1095.0609 612.062544 
L 1095.676523 613.598885 
L 1096.292145 610.020562 
L 1096.907767 611.809724 
L 1097.523389 567.915643 
L 1098.139011 589.862685 
L 1098.754634 602.099812 
L 1099.370256 605.553125 
L 1099.985878 606.86101 
L 1100.6015 602.072698 
L 1101.217123 606.928509 
L 1101.832745 606.685374 
L 1102.448367 610.523457 
L 1103.063989 609.764947 
L 1103.679612 595.1771 
L 1104.295234 604.605873 
L 1104.910856 609.044014 
L 1105.526478 579.339404 
L 1106.142101 596.925817 
L 1106.757723 605.041907 
L 1107.373345 605.742073 
L 1107.988967 606.267197 
L 1109.835834 606.420358 
L 1110.451456 588.115593 
L 1111.682701 605.957511 
L 1112.298323 610.66497 
L 1112.913945 608.553605 
L 1113.529568 611.783327 
L 1114.14519 609.112783 
L 1114.760812 600.906145 
L 1115.376434 601.384728 
L 1116.607679 606.45996 
L 1117.223301 606.4511 
L 1117.838923 601.867743 
L 1119.070168 606.580714 
L 1119.68579 610.094984 
L 1120.301412 608.268611 
L 1120.917034 520.355822 
L 1121.532657 545.983541 
L 1122.148279 489.213287 
L 1122.763901 547.318993 
L 1123.379523 580.394676 
L 1123.995146 597.266704 
L 1124.610768 604.601827 
L 1125.22639 609.807438 
L 1125.842012 612.427474 
L 1126.457635 609.434857 
L 1127.073257 608.854333 
L 1128.304501 606.237216 
L 1128.920124 605.830958 
L 1129.535746 606.136598 
L 1130.151368 606.289418 
L 1130.76699 598.048575 
L 1131.382613 602.245407 
L 1131.998235 604.343823 
L 1133.229479 578.444076 
L 1133.845102 592.443157 
L 1134.460724 600.724797 
L 1135.076346 603.583518 
L 1135.691968 605.61013 
L 1136.30759 610.923261 
L 1136.923213 612.634426 
L 1137.538835 611.691326 
L 1138.154457 590.301406 
L 1138.770079 599.653921 
L 1139.385702 598.469154 
L 1140.001324 584.13999 
L 1140.616946 554.080776 
L 1141.232568 584.635532 
L 1141.848191 597.588321 
L 1142.463813 602.01528 
L 1143.079435 609.776277 
L 1143.695057 566.89892 
L 1144.31068 586.670579 
L 1144.926302 600.757951 
L 1145.541924 607.670252 
L 1146.157546 610.872017 
L 1146.773169 612.732968 
L 1148.004413 613.542131 
L 1148.620035 591.676479 
L 1149.235658 603.27774 
L 1149.85128 604.859989 
L 1150.466902 610.141072 
L 1151.082524 608.291655 
L 1151.698147 611.030088 
L 1152.313769 612.46714 
L 1152.929391 613.575723 
L 1153.545013 605.189066 
L 1154.160635 609.797327 
L 1154.776258 611.999786 
L 1155.39188 613.02709 
L 1156.007502 612.927138 
L 1156.623124 609.684689 
L 1157.238747 601.195074 
L 1157.854369 607.74345 
L 1158.469991 611.113829 
L 1159.085613 611.053766 
L 1159.701236 567.537664 
L 1160.316858 577.929904 
L 1160.93248 596.0913 
L 1161.548102 604.697668 
L 1162.163725 606.852053 
L 1162.779347 605.555621 
L 1163.394969 564.788592 
L 1164.010591 585.615415 
L 1164.626214 577.713121 
L 1165.241836 506.702588 
L 1165.857458 560.364177 
L 1166.47308 586.964595 
L 1167.704325 600.820421 
L 1168.319947 562.420992 
L 1168.935569 584.431615 
L 1170.166814 606.508712 
L 1170.782436 567.072897 
L 1171.398058 586.757568 
L 1172.01368 596.599903 
L 1172.629303 583.205365 
L 1173.244925 598.45862 
L 1173.860547 515.450826 
L 1174.476169 560.946532 
L 1175.091792 583.694385 
L 1175.707414 598.996104 
L 1176.938658 605.862804 
L 1177.554281 602.009683 
L 1178.169903 604.225961 
L 1178.785525 608.434662 
L 1179.401147 607.43845 
L 1180.01677 607.848865 
L 1180.632392 607.145552 
L 1181.248014 588.119156 
L 1181.863636 601.29547 
L 1182.479259 603.868854 
L 1183.094881 565.752968 
L 1183.710503 586.097604 
L 1184.941748 605.668026 
L 1185.55737 609.381539 
L 1186.172992 612.166674 
L 1186.788614 609.304456 
L 1187.404237 611.59727 
L 1188.019859 612.644738 
L 1188.635481 609.543488 
L 1189.251103 610.260853 
L 1189.866726 608.351546 
L 1190.482348 611.832956 
L 1191.09797 613.164861 
L 1191.713592 609.80355 
L 1192.329214 612.102027 
L 1192.944837 596.461441 
L 1193.560459 598.138945 
L 1194.176081 602.290592 
L 1194.791703 604.963666 
L 1195.407326 605.702953 
L 1196.022948 607.354695 
L 1196.63857 608.593502 
L 1197.254192 607.51787 
L 1197.869815 606.980054 
L 1198.485437 606.711147 
L 1199.101059 607.858792 
L 1199.716681 607.150515 
L 1200.332304 607.901407 
L 1200.947926 607.171823 
L 1201.563548 606.807031 
L 1202.794793 606.533437 
L 1203.410415 606.487838 
L 1204.026037 609.811177 
L 1204.641659 611.961284 
L 1205.257282 612.908511 
L 1205.872904 613.622725 
L 1206.488526 611.314581 
L 1207.719771 613.788326 
L 1208.335393 610.115282 
L 1208.951015 609.56086 
L 1209.566637 596.126058 
L 1210.182259 601.284148 
L 1210.797882 608.297436 
L 1211.413504 607.369837 
L 1212.029126 597.748185 
L 1212.644748 605.678719 
L 1213.260371 609.292662 
L 1213.875993 609.14955 
L 1214.491615 590.449547 
L 1215.107237 602.267972 
L 1215.72286 605.398672 
L 1216.338482 611.357525 
L 1216.954104 612.137326 
L 1217.569726 610.571882 
L 1220.032215 607.278969 
L 1220.647838 602.281677 
L 1221.26346 604.361958 
L 1221.879082 605.402098 
L 1222.494704 605.922168 
L 1223.110327 606.59847 
L 1223.725949 597.362501 
L 1224.341571 605.373492 
L 1224.957193 603.982812 
L 1225.572816 608.185529 
L 1226.188438 610.085339 
L 1227.419682 606.70859 
L 1228.035305 610.527577 
L 1228.650927 609.767007 
L 1229.266549 608.104623 
L 1229.882171 601.862576 
L 1230.497793 605.434507 
L 1231.113416 603.472797 
L 1231.729038 577.483959 
L 1232.34466 560.16305 
L 1232.960282 585.80024 
L 1233.575905 604.963092 
L 1234.191527 608.677463 
L 1234.807149 566.00294 
L 1235.422771 581.392021 
L 1236.038394 589.499938 
L 1237.269638 561.517979 
L 1237.88526 571.62731 
L 1238.500883 584.944714 
L 1239.116505 591.603415 
L 1239.732127 594.507495 
L 1240.347749 600.474867 
L 1241.578994 606.25866 
L 1242.194616 606.35045 
L 1242.810238 608.45437 
L 1243.425861 581.870714 
L 1244.041483 590.066415 
L 1245.272727 596.213192 
L 1245.272727 596.213192 
" style="fill:none;stroke:#ff7f0e;stroke-linecap:square;stroke-width:1.5;"/>
   </g>
   <g id="patch_3">
    <path d="M 180 640.8 
L 180 86.4 
" style="fill:none;stroke:#000000;stroke-linecap:square;stroke-linejoin:miter;stroke-width:0.8;"/>
   </g>
   <g id="patch_4">
    <path d="M 1296 640.8 
L 1296 86.4 
" style="fill:none;stroke:#000000;stroke-linecap:square;stroke-linejoin:miter;stroke-width:0.8;"/>
   </g>
   <g id="patch_5">
    <path d="M 180 640.8 
L 1296 640.8 
" style="fill:none;stroke:#000000;stroke-linecap:square;stroke-linejoin:miter;stroke-width:0.8;"/>
   </g>
   <g id="patch_6">
    <path d="M 180 86.4 
L 1296 86.4 
" style="fill:none;stroke:#000000;stroke-linecap:square;stroke-linejoin:miter;stroke-width:0.8;"/>
   </g>
  </g>
 </g>
 <defs>
  <clipPath id="pb9f6f71331">
   <rect height="554.4" width="1116" x="180" y="86.4"/>
  </clipPath>
 </defs>
</svg>
