<?xml version="1.0" encoding="utf-8" standalone="no"?>
<!DOCTYPE svg PUBLIC "-//W3C//DTD SVG 1.1//EN"
  "http://www.w3.org/Graphics/SVG/1.1/DTD/svg11.dtd">
<svg height="345.6pt" version="1.1" viewBox="0 0 460.8 345.6" width="460.8pt" xmlns="http://www.w3.org/2000/svg" xmlns:xlink="http://www.w3.org/1999/xlink">
 <metadata>
  <rdf:RDF xmlns:cc="http://creativecommons.org/ns#" xmlns:dc="http://purl.org/dc/elements/1.1/" xmlns:rdf="http://www.w3.org/1999/02/22-rdf-syntax-ns#">
   <cc:Work>
    <dc:type rdf:resource="http://purl.org/dc/dcmitype/StillImage"/>
    <dc:date>2022-01-06T22:05:54.527762</dc:date>
    <dc:format>image/svg+xml</dc:format>
    <dc:creator>
     <cc:Agent>
      <dc:title>Matplotlib v3.4.3, https://matplotlib.org/</dc:title>
     </cc:Agent>
    </dc:creator>
   </cc:Work>
  </rdf:RDF>
 </metadata>
 <defs>
  <style type="text/css">*{stroke-linecap:butt;stroke-linejoin:round;}</style>
 </defs>
 <g id="figure_1">
  <g id="patch_1">
   <path d="M 0 345.6 
L 460.8 345.6 
L 460.8 0 
L 0 0 
z
" style="fill:#ffffff;"/>
  </g>
  <g id="axes_1">
   <g id="patch_2">
    <path d="M 57.6 307.584 
L 414.72 307.584 
L 414.72 41.472 
L 57.6 41.472 
z
" style="fill:#ffffff;"/>
   </g>
   <g id="matplotlib.axis_1">
    <g id="xtick_1">
     <g id="line2d_1">
      <defs>
       <path d="M 0 0 
L 0 3.5 
" id="m1ab714ed45" style="stroke:#000000;stroke-width:0.8;"/>
      </defs>
      <g>
       <use style="stroke:#000000;stroke-width:0.8;" x="73.832727" xlink:href="#m1ab714ed45" y="307.584"/>
      </g>
     </g>
     <g id="text_1">
      <!-- 39000 -->
      <g transform="translate(57.926477 322.182437)scale(0.1 -0.1)">
       <defs>
        <path d="M 2597 2516 
Q 3050 2419 3304 2112 
Q 3559 1806 3559 1356 
Q 3559 666 3084 287 
Q 2609 -91 1734 -91 
Q 1441 -91 1130 -33 
Q 819 25 488 141 
L 488 750 
Q 750 597 1062 519 
Q 1375 441 1716 441 
Q 2309 441 2620 675 
Q 2931 909 2931 1356 
Q 2931 1769 2642 2001 
Q 2353 2234 1838 2234 
L 1294 2234 
L 1294 2753 
L 1863 2753 
Q 2328 2753 2575 2939 
Q 2822 3125 2822 3475 
Q 2822 3834 2567 4026 
Q 2313 4219 1838 4219 
Q 1578 4219 1281 4162 
Q 984 4106 628 3988 
L 628 4550 
Q 988 4650 1302 4700 
Q 1616 4750 1894 4750 
Q 2613 4750 3031 4423 
Q 3450 4097 3450 3541 
Q 3450 3153 3228 2886 
Q 3006 2619 2597 2516 
z
" id="DejaVuSans-33" transform="scale(0.015625)"/>
        <path d="M 703 97 
L 703 672 
Q 941 559 1184 500 
Q 1428 441 1663 441 
Q 2288 441 2617 861 
Q 2947 1281 2994 2138 
Q 2813 1869 2534 1725 
Q 2256 1581 1919 1581 
Q 1219 1581 811 2004 
Q 403 2428 403 3163 
Q 403 3881 828 4315 
Q 1253 4750 1959 4750 
Q 2769 4750 3195 4129 
Q 3622 3509 3622 2328 
Q 3622 1225 3098 567 
Q 2575 -91 1691 -91 
Q 1453 -91 1209 -44 
Q 966 3 703 97 
z
M 1959 2075 
Q 2384 2075 2632 2365 
Q 2881 2656 2881 3163 
Q 2881 3666 2632 3958 
Q 2384 4250 1959 4250 
Q 1534 4250 1286 3958 
Q 1038 3666 1038 3163 
Q 1038 2656 1286 2365 
Q 1534 2075 1959 2075 
z
" id="DejaVuSans-39" transform="scale(0.015625)"/>
        <path d="M 2034 4250 
Q 1547 4250 1301 3770 
Q 1056 3291 1056 2328 
Q 1056 1369 1301 889 
Q 1547 409 2034 409 
Q 2525 409 2770 889 
Q 3016 1369 3016 2328 
Q 3016 3291 2770 3770 
Q 2525 4250 2034 4250 
z
M 2034 4750 
Q 2819 4750 3233 4129 
Q 3647 3509 3647 2328 
Q 3647 1150 3233 529 
Q 2819 -91 2034 -91 
Q 1250 -91 836 529 
Q 422 1150 422 2328 
Q 422 3509 836 4129 
Q 1250 4750 2034 4750 
z
" id="DejaVuSans-30" transform="scale(0.015625)"/>
       </defs>
       <use xlink:href="#DejaVuSans-33"/>
       <use x="63.623047" xlink:href="#DejaVuSans-39"/>
       <use x="127.246094" xlink:href="#DejaVuSans-30"/>
       <use x="190.869141" xlink:href="#DejaVuSans-30"/>
       <use x="254.492188" xlink:href="#DejaVuSans-30"/>
      </g>
     </g>
    </g>
    <g id="xtick_2">
     <g id="line2d_2">
      <g>
       <use style="stroke:#000000;stroke-width:0.8;" x="123.082507" xlink:href="#m1ab714ed45" y="307.584"/>
      </g>
     </g>
     <g id="text_2">
      <!-- 39250 -->
      <g transform="translate(107.176257 322.182437)scale(0.1 -0.1)">
       <defs>
        <path d="M 1228 531 
L 3431 531 
L 3431 0 
L 469 0 
L 469 531 
Q 828 903 1448 1529 
Q 2069 2156 2228 2338 
Q 2531 2678 2651 2914 
Q 2772 3150 2772 3378 
Q 2772 3750 2511 3984 
Q 2250 4219 1831 4219 
Q 1534 4219 1204 4116 
Q 875 4013 500 3803 
L 500 4441 
Q 881 4594 1212 4672 
Q 1544 4750 1819 4750 
Q 2544 4750 2975 4387 
Q 3406 4025 3406 3419 
Q 3406 3131 3298 2873 
Q 3191 2616 2906 2266 
Q 2828 2175 2409 1742 
Q 1991 1309 1228 531 
z
" id="DejaVuSans-32" transform="scale(0.015625)"/>
        <path d="M 691 4666 
L 3169 4666 
L 3169 4134 
L 1269 4134 
L 1269 2991 
Q 1406 3038 1543 3061 
Q 1681 3084 1819 3084 
Q 2600 3084 3056 2656 
Q 3513 2228 3513 1497 
Q 3513 744 3044 326 
Q 2575 -91 1722 -91 
Q 1428 -91 1123 -41 
Q 819 9 494 109 
L 494 744 
Q 775 591 1075 516 
Q 1375 441 1709 441 
Q 2250 441 2565 725 
Q 2881 1009 2881 1497 
Q 2881 1984 2565 2268 
Q 2250 2553 1709 2553 
Q 1456 2553 1204 2497 
Q 953 2441 691 2322 
L 691 4666 
z
" id="DejaVuSans-35" transform="scale(0.015625)"/>
       </defs>
       <use xlink:href="#DejaVuSans-33"/>
       <use x="63.623047" xlink:href="#DejaVuSans-39"/>
       <use x="127.246094" xlink:href="#DejaVuSans-32"/>
       <use x="190.869141" xlink:href="#DejaVuSans-35"/>
       <use x="254.492188" xlink:href="#DejaVuSans-30"/>
      </g>
     </g>
    </g>
    <g id="xtick_3">
     <g id="line2d_3">
      <g>
       <use style="stroke:#000000;stroke-width:0.8;" x="172.332286" xlink:href="#m1ab714ed45" y="307.584"/>
      </g>
     </g>
     <g id="text_3">
      <!-- 39500 -->
      <g transform="translate(156.426036 322.182437)scale(0.1 -0.1)">
       <use xlink:href="#DejaVuSans-33"/>
       <use x="63.623047" xlink:href="#DejaVuSans-39"/>
       <use x="127.246094" xlink:href="#DejaVuSans-35"/>
       <use x="190.869141" xlink:href="#DejaVuSans-30"/>
       <use x="254.492188" xlink:href="#DejaVuSans-30"/>
      </g>
     </g>
    </g>
    <g id="xtick_4">
     <g id="line2d_4">
      <g>
       <use style="stroke:#000000;stroke-width:0.8;" x="221.582065" xlink:href="#m1ab714ed45" y="307.584"/>
      </g>
     </g>
     <g id="text_4">
      <!-- 39750 -->
      <g transform="translate(205.675815 322.182437)scale(0.1 -0.1)">
       <defs>
        <path d="M 525 4666 
L 3525 4666 
L 3525 4397 
L 1831 0 
L 1172 0 
L 2766 4134 
L 525 4134 
L 525 4666 
z
" id="DejaVuSans-37" transform="scale(0.015625)"/>
       </defs>
       <use xlink:href="#DejaVuSans-33"/>
       <use x="63.623047" xlink:href="#DejaVuSans-39"/>
       <use x="127.246094" xlink:href="#DejaVuSans-37"/>
       <use x="190.869141" xlink:href="#DejaVuSans-35"/>
       <use x="254.492188" xlink:href="#DejaVuSans-30"/>
      </g>
     </g>
    </g>
    <g id="xtick_5">
     <g id="line2d_5">
      <g>
       <use style="stroke:#000000;stroke-width:0.8;" x="270.831845" xlink:href="#m1ab714ed45" y="307.584"/>
      </g>
     </g>
     <g id="text_5">
      <!-- 40000 -->
      <g transform="translate(254.925595 322.182437)scale(0.1 -0.1)">
       <defs>
        <path d="M 2419 4116 
L 825 1625 
L 2419 1625 
L 2419 4116 
z
M 2253 4666 
L 3047 4666 
L 3047 1625 
L 3713 1625 
L 3713 1100 
L 3047 1100 
L 3047 0 
L 2419 0 
L 2419 1100 
L 313 1100 
L 313 1709 
L 2253 4666 
z
" id="DejaVuSans-34" transform="scale(0.015625)"/>
       </defs>
       <use xlink:href="#DejaVuSans-34"/>
       <use x="63.623047" xlink:href="#DejaVuSans-30"/>
       <use x="127.246094" xlink:href="#DejaVuSans-30"/>
       <use x="190.869141" xlink:href="#DejaVuSans-30"/>
       <use x="254.492188" xlink:href="#DejaVuSans-30"/>
      </g>
     </g>
    </g>
    <g id="xtick_6">
     <g id="line2d_6">
      <g>
       <use style="stroke:#000000;stroke-width:0.8;" x="320.081624" xlink:href="#m1ab714ed45" y="307.584"/>
      </g>
     </g>
     <g id="text_6">
      <!-- 40250 -->
      <g transform="translate(304.175374 322.182437)scale(0.1 -0.1)">
       <use xlink:href="#DejaVuSans-34"/>
       <use x="63.623047" xlink:href="#DejaVuSans-30"/>
       <use x="127.246094" xlink:href="#DejaVuSans-32"/>
       <use x="190.869141" xlink:href="#DejaVuSans-35"/>
       <use x="254.492188" xlink:href="#DejaVuSans-30"/>
      </g>
     </g>
    </g>
    <g id="xtick_7">
     <g id="line2d_7">
      <g>
       <use style="stroke:#000000;stroke-width:0.8;" x="369.331403" xlink:href="#m1ab714ed45" y="307.584"/>
      </g>
     </g>
     <g id="text_7">
      <!-- 40500 -->
      <g transform="translate(353.425153 322.182437)scale(0.1 -0.1)">
       <use xlink:href="#DejaVuSans-34"/>
       <use x="63.623047" xlink:href="#DejaVuSans-30"/>
       <use x="127.246094" xlink:href="#DejaVuSans-35"/>
       <use x="190.869141" xlink:href="#DejaVuSans-30"/>
       <use x="254.492188" xlink:href="#DejaVuSans-30"/>
      </g>
     </g>
    </g>
    <g id="text_8">
     <!-- Block Height -->
     <g transform="translate(204.518594 335.860562)scale(0.1 -0.1)">
      <defs>
       <path d="M 1259 2228 
L 1259 519 
L 2272 519 
Q 2781 519 3026 730 
Q 3272 941 3272 1375 
Q 3272 1813 3026 2020 
Q 2781 2228 2272 2228 
L 1259 2228 
z
M 1259 4147 
L 1259 2741 
L 2194 2741 
Q 2656 2741 2882 2914 
Q 3109 3088 3109 3444 
Q 3109 3797 2882 3972 
Q 2656 4147 2194 4147 
L 1259 4147 
z
M 628 4666 
L 2241 4666 
Q 2963 4666 3353 4366 
Q 3744 4066 3744 3513 
Q 3744 3084 3544 2831 
Q 3344 2578 2956 2516 
Q 3422 2416 3680 2098 
Q 3938 1781 3938 1306 
Q 3938 681 3513 340 
Q 3088 0 2303 0 
L 628 0 
L 628 4666 
z
" id="DejaVuSans-42" transform="scale(0.015625)"/>
       <path d="M 603 4863 
L 1178 4863 
L 1178 0 
L 603 0 
L 603 4863 
z
" id="DejaVuSans-6c" transform="scale(0.015625)"/>
       <path d="M 1959 3097 
Q 1497 3097 1228 2736 
Q 959 2375 959 1747 
Q 959 1119 1226 758 
Q 1494 397 1959 397 
Q 2419 397 2687 759 
Q 2956 1122 2956 1747 
Q 2956 2369 2687 2733 
Q 2419 3097 1959 3097 
z
M 1959 3584 
Q 2709 3584 3137 3096 
Q 3566 2609 3566 1747 
Q 3566 888 3137 398 
Q 2709 -91 1959 -91 
Q 1206 -91 779 398 
Q 353 888 353 1747 
Q 353 2609 779 3096 
Q 1206 3584 1959 3584 
z
" id="DejaVuSans-6f" transform="scale(0.015625)"/>
       <path d="M 3122 3366 
L 3122 2828 
Q 2878 2963 2633 3030 
Q 2388 3097 2138 3097 
Q 1578 3097 1268 2742 
Q 959 2388 959 1747 
Q 959 1106 1268 751 
Q 1578 397 2138 397 
Q 2388 397 2633 464 
Q 2878 531 3122 666 
L 3122 134 
Q 2881 22 2623 -34 
Q 2366 -91 2075 -91 
Q 1284 -91 818 406 
Q 353 903 353 1747 
Q 353 2603 823 3093 
Q 1294 3584 2113 3584 
Q 2378 3584 2631 3529 
Q 2884 3475 3122 3366 
z
" id="DejaVuSans-63" transform="scale(0.015625)"/>
       <path d="M 581 4863 
L 1159 4863 
L 1159 1991 
L 2875 3500 
L 3609 3500 
L 1753 1863 
L 3688 0 
L 2938 0 
L 1159 1709 
L 1159 0 
L 581 0 
L 581 4863 
z
" id="DejaVuSans-6b" transform="scale(0.015625)"/>
       <path id="DejaVuSans-20" transform="scale(0.015625)"/>
       <path d="M 628 4666 
L 1259 4666 
L 1259 2753 
L 3553 2753 
L 3553 4666 
L 4184 4666 
L 4184 0 
L 3553 0 
L 3553 2222 
L 1259 2222 
L 1259 0 
L 628 0 
L 628 4666 
z
" id="DejaVuSans-48" transform="scale(0.015625)"/>
       <path d="M 3597 1894 
L 3597 1613 
L 953 1613 
Q 991 1019 1311 708 
Q 1631 397 2203 397 
Q 2534 397 2845 478 
Q 3156 559 3463 722 
L 3463 178 
Q 3153 47 2828 -22 
Q 2503 -91 2169 -91 
Q 1331 -91 842 396 
Q 353 884 353 1716 
Q 353 2575 817 3079 
Q 1281 3584 2069 3584 
Q 2775 3584 3186 3129 
Q 3597 2675 3597 1894 
z
M 3022 2063 
Q 3016 2534 2758 2815 
Q 2500 3097 2075 3097 
Q 1594 3097 1305 2825 
Q 1016 2553 972 2059 
L 3022 2063 
z
" id="DejaVuSans-65" transform="scale(0.015625)"/>
       <path d="M 603 3500 
L 1178 3500 
L 1178 0 
L 603 0 
L 603 3500 
z
M 603 4863 
L 1178 4863 
L 1178 4134 
L 603 4134 
L 603 4863 
z
" id="DejaVuSans-69" transform="scale(0.015625)"/>
       <path d="M 2906 1791 
Q 2906 2416 2648 2759 
Q 2391 3103 1925 3103 
Q 1463 3103 1205 2759 
Q 947 2416 947 1791 
Q 947 1169 1205 825 
Q 1463 481 1925 481 
Q 2391 481 2648 825 
Q 2906 1169 2906 1791 
z
M 3481 434 
Q 3481 -459 3084 -895 
Q 2688 -1331 1869 -1331 
Q 1566 -1331 1297 -1286 
Q 1028 -1241 775 -1147 
L 775 -588 
Q 1028 -725 1275 -790 
Q 1522 -856 1778 -856 
Q 2344 -856 2625 -561 
Q 2906 -266 2906 331 
L 2906 616 
Q 2728 306 2450 153 
Q 2172 0 1784 0 
Q 1141 0 747 490 
Q 353 981 353 1791 
Q 353 2603 747 3093 
Q 1141 3584 1784 3584 
Q 2172 3584 2450 3431 
Q 2728 3278 2906 2969 
L 2906 3500 
L 3481 3500 
L 3481 434 
z
" id="DejaVuSans-67" transform="scale(0.015625)"/>
       <path d="M 3513 2113 
L 3513 0 
L 2938 0 
L 2938 2094 
Q 2938 2591 2744 2837 
Q 2550 3084 2163 3084 
Q 1697 3084 1428 2787 
Q 1159 2491 1159 1978 
L 1159 0 
L 581 0 
L 581 4863 
L 1159 4863 
L 1159 2956 
Q 1366 3272 1645 3428 
Q 1925 3584 2291 3584 
Q 2894 3584 3203 3211 
Q 3513 2838 3513 2113 
z
" id="DejaVuSans-68" transform="scale(0.015625)"/>
       <path d="M 1172 4494 
L 1172 3500 
L 2356 3500 
L 2356 3053 
L 1172 3053 
L 1172 1153 
Q 1172 725 1289 603 
Q 1406 481 1766 481 
L 2356 481 
L 2356 0 
L 1766 0 
Q 1100 0 847 248 
Q 594 497 594 1153 
L 594 3053 
L 172 3053 
L 172 3500 
L 594 3500 
L 594 4494 
L 1172 4494 
z
" id="DejaVuSans-74" transform="scale(0.015625)"/>
      </defs>
      <use xlink:href="#DejaVuSans-42"/>
      <use x="68.603516" xlink:href="#DejaVuSans-6c"/>
      <use x="96.386719" xlink:href="#DejaVuSans-6f"/>
      <use x="157.568359" xlink:href="#DejaVuSans-63"/>
      <use x="212.548828" xlink:href="#DejaVuSans-6b"/>
      <use x="270.458984" xlink:href="#DejaVuSans-20"/>
      <use x="302.246094" xlink:href="#DejaVuSans-48"/>
      <use x="377.441406" xlink:href="#DejaVuSans-65"/>
      <use x="438.964844" xlink:href="#DejaVuSans-69"/>
      <use x="466.748047" xlink:href="#DejaVuSans-67"/>
      <use x="530.224609" xlink:href="#DejaVuSans-68"/>
      <use x="593.603516" xlink:href="#DejaVuSans-74"/>
     </g>
    </g>
   </g>
   <g id="matplotlib.axis_2">
    <g id="ytick_1">
     <g id="line2d_8">
      <defs>
       <path d="M 0 0 
L -3.5 0 
" id="m645fd84467" style="stroke:#000000;stroke-width:0.8;"/>
      </defs>
      <g>
       <use style="stroke:#000000;stroke-width:0.8;" x="57.6" xlink:href="#m645fd84467" y="295.488044"/>
      </g>
     </g>
     <g id="text_9">
      <!-- 0 -->
      <g transform="translate(44.2375 299.287263)scale(0.1 -0.1)">
       <use xlink:href="#DejaVuSans-30"/>
      </g>
     </g>
    </g>
    <g id="ytick_2">
     <g id="line2d_9">
      <g>
       <use style="stroke:#000000;stroke-width:0.8;" x="57.6" xlink:href="#m645fd84467" y="260.821093"/>
      </g>
     </g>
     <g id="text_10">
      <!-- 250 -->
      <g transform="translate(31.5125 264.620311)scale(0.1 -0.1)">
       <use xlink:href="#DejaVuSans-32"/>
       <use x="63.623047" xlink:href="#DejaVuSans-35"/>
       <use x="127.246094" xlink:href="#DejaVuSans-30"/>
      </g>
     </g>
    </g>
    <g id="ytick_3">
     <g id="line2d_10">
      <g>
       <use style="stroke:#000000;stroke-width:0.8;" x="57.6" xlink:href="#m645fd84467" y="226.154141"/>
      </g>
     </g>
     <g id="text_11">
      <!-- 500 -->
      <g transform="translate(31.5125 229.95336)scale(0.1 -0.1)">
       <use xlink:href="#DejaVuSans-35"/>
       <use x="63.623047" xlink:href="#DejaVuSans-30"/>
       <use x="127.246094" xlink:href="#DejaVuSans-30"/>
      </g>
     </g>
    </g>
    <g id="ytick_4">
     <g id="line2d_11">
      <g>
       <use style="stroke:#000000;stroke-width:0.8;" x="57.6" xlink:href="#m645fd84467" y="191.48719"/>
      </g>
     </g>
     <g id="text_12">
      <!-- 750 -->
      <g transform="translate(31.5125 195.286409)scale(0.1 -0.1)">
       <use xlink:href="#DejaVuSans-37"/>
       <use x="63.623047" xlink:href="#DejaVuSans-35"/>
       <use x="127.246094" xlink:href="#DejaVuSans-30"/>
      </g>
     </g>
    </g>
    <g id="ytick_5">
     <g id="line2d_12">
      <g>
       <use style="stroke:#000000;stroke-width:0.8;" x="57.6" xlink:href="#m645fd84467" y="156.820239"/>
      </g>
     </g>
     <g id="text_13">
      <!-- 1000 -->
      <g transform="translate(25.15 160.619458)scale(0.1 -0.1)">
       <defs>
        <path d="M 794 531 
L 1825 531 
L 1825 4091 
L 703 3866 
L 703 4441 
L 1819 4666 
L 2450 4666 
L 2450 531 
L 3481 531 
L 3481 0 
L 794 0 
L 794 531 
z
" id="DejaVuSans-31" transform="scale(0.015625)"/>
       </defs>
       <use xlink:href="#DejaVuSans-31"/>
       <use x="63.623047" xlink:href="#DejaVuSans-30"/>
       <use x="127.246094" xlink:href="#DejaVuSans-30"/>
       <use x="190.869141" xlink:href="#DejaVuSans-30"/>
      </g>
     </g>
    </g>
    <g id="ytick_6">
     <g id="line2d_13">
      <g>
       <use style="stroke:#000000;stroke-width:0.8;" x="57.6" xlink:href="#m645fd84467" y="122.153288"/>
      </g>
     </g>
     <g id="text_14">
      <!-- 1250 -->
      <g transform="translate(25.15 125.952506)scale(0.1 -0.1)">
       <use xlink:href="#DejaVuSans-31"/>
       <use x="63.623047" xlink:href="#DejaVuSans-32"/>
       <use x="127.246094" xlink:href="#DejaVuSans-35"/>
       <use x="190.869141" xlink:href="#DejaVuSans-30"/>
      </g>
     </g>
    </g>
    <g id="ytick_7">
     <g id="line2d_14">
      <g>
       <use style="stroke:#000000;stroke-width:0.8;" x="57.6" xlink:href="#m645fd84467" y="87.486336"/>
      </g>
     </g>
     <g id="text_15">
      <!-- 1500 -->
      <g transform="translate(25.15 91.285555)scale(0.1 -0.1)">
       <use xlink:href="#DejaVuSans-31"/>
       <use x="63.623047" xlink:href="#DejaVuSans-35"/>
       <use x="127.246094" xlink:href="#DejaVuSans-30"/>
       <use x="190.869141" xlink:href="#DejaVuSans-30"/>
      </g>
     </g>
    </g>
    <g id="ytick_8">
     <g id="line2d_15">
      <g>
       <use style="stroke:#000000;stroke-width:0.8;" x="57.6" xlink:href="#m645fd84467" y="52.819385"/>
      </g>
     </g>
     <g id="text_16">
      <!-- 1750 -->
      <g transform="translate(25.15 56.618604)scale(0.1 -0.1)">
       <use xlink:href="#DejaVuSans-31"/>
       <use x="63.623047" xlink:href="#DejaVuSans-37"/>
       <use x="127.246094" xlink:href="#DejaVuSans-35"/>
       <use x="190.869141" xlink:href="#DejaVuSans-30"/>
      </g>
     </g>
    </g>
    <g id="text_17">
     <!-- Estimated fee for "stack-stx" -->
     <g transform="translate(19.070312 246.543625)rotate(-90)scale(0.1 -0.1)">
      <defs>
       <path d="M 628 4666 
L 3578 4666 
L 3578 4134 
L 1259 4134 
L 1259 2753 
L 3481 2753 
L 3481 2222 
L 1259 2222 
L 1259 531 
L 3634 531 
L 3634 0 
L 628 0 
L 628 4666 
z
" id="DejaVuSans-45" transform="scale(0.015625)"/>
       <path d="M 2834 3397 
L 2834 2853 
Q 2591 2978 2328 3040 
Q 2066 3103 1784 3103 
Q 1356 3103 1142 2972 
Q 928 2841 928 2578 
Q 928 2378 1081 2264 
Q 1234 2150 1697 2047 
L 1894 2003 
Q 2506 1872 2764 1633 
Q 3022 1394 3022 966 
Q 3022 478 2636 193 
Q 2250 -91 1575 -91 
Q 1294 -91 989 -36 
Q 684 19 347 128 
L 347 722 
Q 666 556 975 473 
Q 1284 391 1588 391 
Q 1994 391 2212 530 
Q 2431 669 2431 922 
Q 2431 1156 2273 1281 
Q 2116 1406 1581 1522 
L 1381 1569 
Q 847 1681 609 1914 
Q 372 2147 372 2553 
Q 372 3047 722 3315 
Q 1072 3584 1716 3584 
Q 2034 3584 2315 3537 
Q 2597 3491 2834 3397 
z
" id="DejaVuSans-73" transform="scale(0.015625)"/>
       <path d="M 3328 2828 
Q 3544 3216 3844 3400 
Q 4144 3584 4550 3584 
Q 5097 3584 5394 3201 
Q 5691 2819 5691 2113 
L 5691 0 
L 5113 0 
L 5113 2094 
Q 5113 2597 4934 2840 
Q 4756 3084 4391 3084 
Q 3944 3084 3684 2787 
Q 3425 2491 3425 1978 
L 3425 0 
L 2847 0 
L 2847 2094 
Q 2847 2600 2669 2842 
Q 2491 3084 2119 3084 
Q 1678 3084 1418 2786 
Q 1159 2488 1159 1978 
L 1159 0 
L 581 0 
L 581 3500 
L 1159 3500 
L 1159 2956 
Q 1356 3278 1631 3431 
Q 1906 3584 2284 3584 
Q 2666 3584 2933 3390 
Q 3200 3197 3328 2828 
z
" id="DejaVuSans-6d" transform="scale(0.015625)"/>
       <path d="M 2194 1759 
Q 1497 1759 1228 1600 
Q 959 1441 959 1056 
Q 959 750 1161 570 
Q 1363 391 1709 391 
Q 2188 391 2477 730 
Q 2766 1069 2766 1631 
L 2766 1759 
L 2194 1759 
z
M 3341 1997 
L 3341 0 
L 2766 0 
L 2766 531 
Q 2569 213 2275 61 
Q 1981 -91 1556 -91 
Q 1019 -91 701 211 
Q 384 513 384 1019 
Q 384 1609 779 1909 
Q 1175 2209 1959 2209 
L 2766 2209 
L 2766 2266 
Q 2766 2663 2505 2880 
Q 2244 3097 1772 3097 
Q 1472 3097 1187 3025 
Q 903 2953 641 2809 
L 641 3341 
Q 956 3463 1253 3523 
Q 1550 3584 1831 3584 
Q 2591 3584 2966 3190 
Q 3341 2797 3341 1997 
z
" id="DejaVuSans-61" transform="scale(0.015625)"/>
       <path d="M 2906 2969 
L 2906 4863 
L 3481 4863 
L 3481 0 
L 2906 0 
L 2906 525 
Q 2725 213 2448 61 
Q 2172 -91 1784 -91 
Q 1150 -91 751 415 
Q 353 922 353 1747 
Q 353 2572 751 3078 
Q 1150 3584 1784 3584 
Q 2172 3584 2448 3432 
Q 2725 3281 2906 2969 
z
M 947 1747 
Q 947 1113 1208 752 
Q 1469 391 1925 391 
Q 2381 391 2643 752 
Q 2906 1113 2906 1747 
Q 2906 2381 2643 2742 
Q 2381 3103 1925 3103 
Q 1469 3103 1208 2742 
Q 947 2381 947 1747 
z
" id="DejaVuSans-64" transform="scale(0.015625)"/>
       <path d="M 2375 4863 
L 2375 4384 
L 1825 4384 
Q 1516 4384 1395 4259 
Q 1275 4134 1275 3809 
L 1275 3500 
L 2222 3500 
L 2222 3053 
L 1275 3053 
L 1275 0 
L 697 0 
L 697 3053 
L 147 3053 
L 147 3500 
L 697 3500 
L 697 3744 
Q 697 4328 969 4595 
Q 1241 4863 1831 4863 
L 2375 4863 
z
" id="DejaVuSans-66" transform="scale(0.015625)"/>
       <path d="M 2631 2963 
Q 2534 3019 2420 3045 
Q 2306 3072 2169 3072 
Q 1681 3072 1420 2755 
Q 1159 2438 1159 1844 
L 1159 0 
L 581 0 
L 581 3500 
L 1159 3500 
L 1159 2956 
Q 1341 3275 1631 3429 
Q 1922 3584 2338 3584 
Q 2397 3584 2469 3576 
Q 2541 3569 2628 3553 
L 2631 2963 
z
" id="DejaVuSans-72" transform="scale(0.015625)"/>
       <path d="M 1147 4666 
L 1147 2931 
L 616 2931 
L 616 4666 
L 1147 4666 
z
M 2328 4666 
L 2328 2931 
L 1797 2931 
L 1797 4666 
L 2328 4666 
z
" id="DejaVuSans-22" transform="scale(0.015625)"/>
       <path d="M 313 2009 
L 1997 2009 
L 1997 1497 
L 313 1497 
L 313 2009 
z
" id="DejaVuSans-2d" transform="scale(0.015625)"/>
       <path d="M 3513 3500 
L 2247 1797 
L 3578 0 
L 2900 0 
L 1881 1375 
L 863 0 
L 184 0 
L 1544 1831 
L 300 3500 
L 978 3500 
L 1906 2253 
L 2834 3500 
L 3513 3500 
z
" id="DejaVuSans-78" transform="scale(0.015625)"/>
      </defs>
      <use xlink:href="#DejaVuSans-45"/>
      <use x="63.183594" xlink:href="#DejaVuSans-73"/>
      <use x="115.283203" xlink:href="#DejaVuSans-74"/>
      <use x="154.492188" xlink:href="#DejaVuSans-69"/>
      <use x="182.275391" xlink:href="#DejaVuSans-6d"/>
      <use x="279.6875" xlink:href="#DejaVuSans-61"/>
      <use x="340.966797" xlink:href="#DejaVuSans-74"/>
      <use x="380.175781" xlink:href="#DejaVuSans-65"/>
      <use x="441.699219" xlink:href="#DejaVuSans-64"/>
      <use x="505.175781" xlink:href="#DejaVuSans-20"/>
      <use x="536.962891" xlink:href="#DejaVuSans-66"/>
      <use x="572.167969" xlink:href="#DejaVuSans-65"/>
      <use x="633.691406" xlink:href="#DejaVuSans-65"/>
      <use x="695.214844" xlink:href="#DejaVuSans-20"/>
      <use x="727.001953" xlink:href="#DejaVuSans-66"/>
      <use x="762.207031" xlink:href="#DejaVuSans-6f"/>
      <use x="823.388672" xlink:href="#DejaVuSans-72"/>
      <use x="864.501953" xlink:href="#DejaVuSans-20"/>
      <use x="896.289062" xlink:href="#DejaVuSans-22"/>
      <use x="942.285156" xlink:href="#DejaVuSans-73"/>
      <use x="994.384766" xlink:href="#DejaVuSans-74"/>
      <use x="1033.59375" xlink:href="#DejaVuSans-61"/>
      <use x="1094.873047" xlink:href="#DejaVuSans-63"/>
      <use x="1149.853516" xlink:href="#DejaVuSans-6b"/>
      <use x="1207.763672" xlink:href="#DejaVuSans-2d"/>
      <use x="1243.847656" xlink:href="#DejaVuSans-73"/>
      <use x="1295.947266" xlink:href="#DejaVuSans-74"/>
      <use x="1335.15625" xlink:href="#DejaVuSans-78"/>
      <use x="1394.335938" xlink:href="#DejaVuSans-22"/>
     </g>
    </g>
   </g>
   <g id="line2d_16">
    <path clip-path="url(#p9b20ef2889)" d="M 73.832727 291.49785 
L 74.029726 291.91047 
L 73.832727 290.534303 
L 74.423725 285.098789 
L 74.620724 288.095532 
L 74.817723 288.626834 
L 75.014722 276.232669 
L 75.211721 282.695402 
L 75.40872 273.266953 
L 75.211721 281.212545 
L 75.605719 285.18534 
L 75.999718 281.043791 
L 76.393716 291.951544 
L 76.590715 292.137317 
L 77.181712 294.236274 
L 77.378711 292.664274 
L 77.575711 294.034802 
L 77.969709 286.849038 
L 78.166708 288.003587 
L 78.363707 275.921046 
L 78.560706 282.539591 
L 78.757705 273.189047 
L 78.954704 286.616468 
L 79.151703 287.887302 
L 79.545702 291.214143 
L 79.742701 291.153209 
L 79.9397 293.05688 
L 80.136699 292.689985 
L 80.530697 294.594568 
L 80.727696 295.035896 
L 80.924695 293.064086 
L 81.121695 292.693588 
L 81.318694 291.892931 
L 81.515693 292.108011 
L 81.909691 294.49597 
L 82.10669 288.398353 
L 82.303689 288.778245 
L 82.500688 289.93526 
L 82.697688 276.886882 
L 82.894687 285.859609 
L 83.091686 289.091349 
L 83.682683 292.49841 
L 83.879682 292.41075 
L 84.27368 294.624428 
L 84.667679 284.062928 
L 84.864678 288.193009 
L 85.061677 283.928142 
L 85.455675 289.916649 
L 85.652674 291.913944 
L 85.849673 292.118517 
L 86.046673 293.532487 
L 86.63767 291.858857 
L 87.031668 294.378615 
L 87.228667 293.350852 
L 87.425666 278.594678 
L 87.622665 274.648694 
L 87.819665 282.870484 
L 88.016664 273.354494 
L 88.410662 286.657829 
L 88.607661 289.983663 
L 88.80466 291.153377 
L 89.001659 291.122826 
L 89.198658 291.722958 
L 89.395658 293.340703 
L 89.592657 293.76281 
L 89.986655 291.759909 
L 90.183654 287.795538 
L 90.380653 290.059314 
L 90.577652 286.94524 
L 90.97165 290.306822 
L 91.16865 289.00588 
L 91.365649 290.335758 
L 91.562648 288.051894 
L 91.759647 291.746525 
L 91.956646 292.837788 
L 92.153645 289.767147 
L 92.350644 288.841937 
L 92.547643 226.228449 
L 92.941642 285.378939 
L 93.138641 289.258622 
L 93.33564 273.791229 
L 93.532639 282.441752 
L 94.123636 288.772709 
L 94.517635 293.496794 
L 94.911633 291.397842 
L 95.108632 291.245058 
L 95.305631 227.43001 
L 95.699629 274.693174 
L 95.896628 283.508132 
L 96.290627 289.196239 
L 96.487626 289.924468 
L 96.684625 281.716833 
L 96.881624 286.30737 
L 97.078623 256.778919 
L 97.275622 204.221353 
L 97.472621 248.722485 
L 97.86662 275.172346 
L 98.063619 249.356339 
L 98.457617 279.422948 
L 98.654616 274.268187 
L 98.851615 284.852943 
L 99.245613 291.616446 
L 99.442613 291.959575 
L 99.836611 292.141333 
L 100.03361 293.581468 
L 100.230609 292.952279 
L 100.427608 288.076788 
L 100.230609 285.639043 
L 100.427608 288.365659 
L 100.821606 289.728967 
L 101.018605 292.130704 
L 101.215605 291.611489 
L 101.412604 293.375331 
L 101.806602 291.685361 
L 102.2006 291.240546 
L 102.397599 291.781818 
L 102.2006 292.052454 
L 102.594598 292.187772 
L 102.791598 293.72223 
L 103.185596 292.057467 
L 103.382595 272.002839 
L 103.579594 283.558228 
L 103.973592 291.14185 
L 104.170591 291.458349 
L 104.36759 293.17004 
L 104.56459 291.606588 
L 104.761589 291.964839 
L 104.958588 293.404339 
L 105.352586 291.670291 
L 105.549585 293.260888 
L 105.746584 290.829491 
L 106.140583 294.061753 
L 106.337582 293.192421 
L 106.534581 294.065442 
L 106.73158 293.194266 
L 106.928579 294.298888 
L 107.125578 292.695581 
L 107.322577 292.509336 
L 107.716575 294.919897 
L 108.110574 292.04918 
L 108.307573 292.186135 
L 108.504572 293.572291 
L 108.701571 292.947691 
L 108.89857 294.020058 
L 109.095569 293.171574 
L 109.292568 294.055018 
L 109.489568 283.782108 
L 109.686567 289.291656 
L 109.883566 291.308923 
L 110.080565 289.002714 
L 109.883566 290.662902 
L 110.277564 292.915627 
L 110.474563 292.003951 
L 110.671562 292.379437 
L 111.06556 294.300705 
L 111.459559 291.790817 
L 111.656558 292.056953 
L 111.853557 292.996775 
L 112.247555 291.71174 
L 112.444554 293.577913 
L 112.838553 292.335094 
L 113.232551 294.150268 
L 113.42955 272.840309 
L 113.823548 287.683749 
L 114.020547 289.388012 
L 114.217546 270.239392 
L 114.611545 290.449108 
L 114.808544 290.192301 
L 114.611545 292.608816 
L 115.005543 293.783632 
L 115.202542 292.437953 
L 115.399541 293.867438 
L 115.59654 272.698894 
L 115.793539 285.834564 
L 115.990538 291.02013 
L 116.384537 292.889882 
L 116.581536 289.107454 
L 116.778535 248.340055 
L 117.172533 281.646502 
L 117.369532 277.57785 
L 117.566531 285.653793 
L 117.76353 284.310634 
L 118.157529 289.396864 
L 118.354528 292.40932 
L 118.945525 294.502498 
L 119.142524 294.730473 
L 119.339523 291.592643 
L 119.536523 282.55092 
L 119.930521 288.956936 
L 120.324519 291.173848 
L 120.521518 281.64007 
L 120.718517 285.26723 
L 120.521518 287.08081 
L 120.915516 289.373223 
L 121.309515 293.452674 
L 121.703513 294.523283 
L 122.097511 295.086308 
L 122.491509 292.398487 
L 122.688508 293.678467 
L 122.885508 290.196077 
L 123.082507 291.259583 
L 123.476505 287.455034 
L 123.673504 288.541026 
L 123.870503 291.574958 
L 124.067502 289.135732 
L 124.4615 291.134012 
L 124.6585 286.845575 
L 124.855499 290.608971 
L 125.052498 290.850623 
L 125.249497 293.108281 
L 125.446496 291.835938 
L 125.840494 294.519784 
L 126.037493 284.01449 
L 126.234492 289.613592 
L 126.431492 53.568 
L 126.628491 172.330137 
L 127.022489 242.71972 
L 127.416487 279.614544 
L 127.613486 285.353409 
L 128.007485 268.930161 
L 127.613486 260.718538 
L 128.204484 234.145597 
L 128.598482 247.184161 
L 128.99248 280.516599 
L 129.189479 286.419845 
L 129.583477 289.924167 
L 129.780477 291.825812 
L 129.977476 292.135457 
L 130.174475 293.679348 
L 130.765472 234.933171 
L 131.15947 116.762133 
L 131.553469 194.543245 
L 132.144466 277.567125 
L 132.341465 278.882768 
L 132.538464 269.938978 
L 132.735463 277.350959 
L 132.932462 278.260514 
L 133.129462 279.945546 
L 133.52346 289.59738 
L 133.917458 290.718551 
L 134.114457 290.905413 
L 134.508455 287.702017 
L 134.705455 181.700795 
L 135.099453 263.744405 
L 135.296452 277.41834 
L 135.493451 264.474345 
L 135.887449 287.308893 
L 136.084448 290.425004 
L 136.281447 277.423603 
L 136.478447 279.86217 
L 136.872445 291.527963 
L 137.069444 271.529156 
L 137.266443 276.057388 
L 137.463442 283.574831 
L 137.660441 282.741208 
L 137.85744 179.22039 
L 138.251439 260.440296 
L 138.448438 234.006476 
L 138.842436 276.151903 
L 139.039435 285.453868 
L 139.236434 279.481532 
L 139.630432 288.47627 
L 139.827432 291.389277 
L 140.024431 291.666173 
L 140.22143 293.281933 
L 140.418429 291.639689 
L 140.615428 285.651482 
L 141.009426 269.731325 
L 141.206425 282.129987 
L 141.600424 287.75276 
L 141.797423 291.196056 
L 141.994422 283.55972 
L 142.191421 289.211563 
L 142.585419 290.622097 
L 142.782418 293.004202 
L 142.979417 292.048238 
L 143.176417 289.372372 
L 143.373416 281.440784 
L 143.570415 286.266529 
L 143.767414 279.887863 
L 144.161412 288.291172 
L 144.358411 269.910761 
L 144.75241 286.858914 
L 145.146408 290.946201 
L 145.343407 290.150749 
L 145.540406 292.505413 
L 145.737405 293.420584 
L 145.934404 292.256429 
L 146.131403 292.869935 
L 146.328402 291.981105 
L 146.525402 292.778972 
L 146.722401 289.316064 
L 146.9194 290.204169 
L 146.722401 290.665666 
L 147.116399 292.523431 
L 147.313398 288.511025 
L 147.510397 290.167964 
L 147.707396 289.043247 
L 146.9194 290.067761 
L 147.904395 291.38369 
L 148.298394 287.868301 
L 148.495393 289.480288 
L 148.692392 292.206594 
L 148.889391 292.084726 
L 149.08639 291.5885 
L 149.283389 291.503194 
L 149.480388 291.787767 
L 149.677387 291.756181 
L 149.874387 271.419243 
L 150.268385 286.146014 
L 150.859382 292.663509 
L 151.056381 291.877892 
L 151.25338 271.704121 
L 151.45038 283.500522 
L 151.647379 287.296398 
L 151.844378 269.413374 
L 152.238376 285.672549 
L 152.435375 290.051117 
L 152.632374 290.571696 
L 152.829373 292.910176 
L 153.026372 292.001225 
L 153.223372 293.144605 
L 153.420371 292.11844 
L 153.61737 287.209588 
L 154.011368 290.408283 
L 154.208367 291.81391 
L 154.405366 292.32695 
L 154.602365 291.23247 
L 154.799365 291.025358 
L 155.193363 291.075546 
L 155.390362 293.094939 
L 155.587361 284.890031 
L 155.981359 289.252507 
L 156.178358 270.391429 
L 156.375357 282.627502 
L 156.769356 288.855198 
L 156.966355 290.466827 
L 157.163354 289.543241 
L 157.360353 270.536795 
L 157.557352 281.321739 
L 157.754351 269.61919 
L 158.14835 285.724003 
L 158.345349 289.650422 
L 158.542348 290.371348 
L 158.14835 291.562828 
L 158.739347 291.327551 
L 158.936346 275.82472 
L 159.330344 289.527708 
L 159.527343 290.309991 
L 159.921342 293.538535 
L 160.118341 292.930812 
L 160.31534 290.912601 
L 160.512339 291.002438 
L 160.906337 293.997884 
L 161.103336 291.665925 
L 161.497335 293.650184 
L 161.694334 292.314873 
L 161.891333 293.742957 
L 162.088332 289.108309 
L 162.285331 291.388707 
L 162.48233 291.357045 
L 162.285331 291.22466 
L 162.679329 290.279313 
L 162.876328 290.685794 
L 163.073327 292.298204 
L 163.270327 291.695239 
L 163.664325 294.166691 
L 163.861324 292.629483 
L 164.058323 292.476286 
L 164.255322 293.753219 
L 164.64932 287.102852 
L 165.043319 289.097563 
L 164.64932 289.894384 
L 165.240318 291.108737 
L 165.437317 276.818255 
L 165.831315 288.891623 
L 166.028314 289.991949 
L 166.225313 292.168546 
L 166.422312 291.63041 
L 166.619312 277.080345 
L 166.816311 284.701717 
L 167.210309 291.427715 
L 167.407308 291.259995 
L 167.604307 268.56272 
L 167.801306 277.629612 
L 167.998305 242.601134 
L 168.392304 268.682949 
L 168.589303 238.127802 
L 168.983301 284.746451 
L 169.1803 289.505819 
L 169.574298 290.695661 
L 169.968297 293.766748 
L 170.165296 294.251139 
L 170.362295 292.671707 
L 170.756293 294.466087 
L 171.150291 291.23547 
L 171.741289 291.110174 
L 171.938288 291.101224 
L 172.135287 291.536326 
L 172.332286 291.3143 
L 172.529285 292.485833 
L 172.726284 288.492227 
L 173.120282 291.740043 
L 173.317282 291.416159 
L 173.514281 293.108682 
L 173.71128 292.100478 
L 173.908279 293.530515 
L 174.105278 292.311395 
L 174.302277 293.581953 
L 174.499276 292.337114 
L 174.893274 291.714694 
L 175.090274 292.925097 
L 175.484272 291.55048 
L 175.681271 292.978868 
L 175.87827 292.035571 
L 176.075269 286.234294 
L 175.87827 288.663284 
L 176.272268 283.284125 
L 176.469267 288.856474 
L 176.666267 289.974374 
L 177.060265 293.307551 
L 177.454263 291.646094 
L 177.848261 291.369184 
L 178.04526 281.840311 
L 178.439259 290.602529 
L 178.636258 265.972226 
L 179.030256 291.328483 
L 179.227255 293.072709 
L 179.424254 293.603229 
L 179.621253 287.018123 
L 179.818252 285.598586 
L 180.015252 288.34543 
L 180.212251 269.93789 
L 180.40925 282.377412 
L 180.606249 266.953881 
L 181.000247 285.36538 
L 181.197246 289.75044 
L 181.394245 275.406442 
L 181.591244 284.770971 
L 181.985243 289.944129 
L 182.182242 290.518202 
L 182.379241 271.254808 
L 182.57624 278.975657 
L 182.773239 270.747715 
L 182.970238 267.766182 
L 183.167237 279.429228 
L 183.758235 288.150596 
L 183.955234 291.621511 
L 184.152233 291.356893 
L 184.349232 291.444372 
L 184.546231 281.072754 
L 184.74323 284.251324 
L 185.137229 292.359107 
L 185.531227 291.408983 
L 185.925225 294.221407 
L 186.122224 293.272248 
L 186.319223 294.126544 
L 186.516222 292.609409 
L 186.713222 293.519116 
L 187.10722 293.064263 
L 187.304219 288.369382 
L 187.698217 290.411551 
L 187.895216 284.313913 
L 188.289214 291.715953 
L 188.486214 282.612575 
L 188.880212 291.551148 
L 189.077211 291.321711 
L 189.471209 293.819077 
L 189.668208 293.071083 
L 189.865207 286.504568 
L 190.062207 290.731501 
L 189.865207 290.911888 
L 190.259206 291.002081 
L 190.456205 292.818289 
L 190.653204 291.955282 
L 190.850203 286.437323 
L 191.047202 289.928537 
L 191.244201 290.373675 
L 191.4412 286.337205 
L 191.638199 290.837862 
L 191.835199 290.626932 
L 192.032198 292.599295 
L 192.229197 272.064822 
L 192.623195 287.88686 
L 193.017193 293.167223 
L 193.411192 294.350176 
L 193.214192 294.472839 
L 193.608191 291.230696 
L 194.002189 276.240541 
L 194.199188 284.912737 
L 194.593186 289.54739 
L 194.987184 292.685657 
L 195.184184 291.888966 
L 195.381183 284.896966 
L 195.775181 292.582868 
L 196.169179 294.446124 
L 196.366178 289.290629 
L 196.563177 290.191452 
L 196.760177 292.458195 
L 196.957176 292.295345 
L 197.154175 276.088828 
L 197.351174 276.21034 
L 197.548173 285.467665 
L 197.942171 291.312326 
L 198.13917 291.2023 
L 198.336169 291.147287 
L 198.533169 292.728947 
L 198.730168 291.910611 
L 198.927167 293.151746 
L 199.124166 283.587602 
L 199.518164 290.367379 
L 200.109162 293.187693 
L 200.306161 292.139984 
L 200.700159 293.643617 
L 201.094157 291.882527 
L 201.291156 293.202059 
L 201.094157 293.861824 
L 201.488155 292.785459 
L 201.685154 290.328696 
L 201.882154 291.615497 
L 202.276152 278.519273 
L 202.67015 290.432532 
L 202.867149 290.762403 
L 203.064148 292.228128 
L 203.261147 291.660201 
L 203.458147 291.991646 
L 203.655146 271.760998 
L 204.049144 288.474204 
L 204.443142 292.542981 
L 204.640141 291.817628 
L 204.83714 292.180305 
L 205.034139 289.438405 
L 205.231139 292.231053 
L 205.428138 291.376969 
L 205.625137 291.85003 
L 205.822136 291.471152 
L 206.019135 293.2148 
L 206.216134 292.768945 
L 206.019135 282.077822 
L 206.610132 289.535699 
L 206.807132 291.693731 
L 207.004131 279.388194 
L 207.20113 283.042349 
L 207.398129 288.765677 
L 207.595128 270.148014 
L 207.792127 282.31851 
L 208.186125 290.398977 
L 208.383124 292.480042 
L 208.580124 291.786158 
L 208.777123 260.668831 
L 209.171121 283.486414 
L 209.565119 289.190809 
L 209.762118 286.844715 
L 210.156117 292.271175 
L 210.353116 293.372405 
L 210.550115 292.23234 
L 210.747114 285.068653 
L 211.141112 291.107982 
L 211.338111 291.100128 
L 211.53511 280.130339 
L 211.732109 285.611307 
L 211.929109 246.591981 
L 212.323107 279.967201 
L 212.717105 258.639563 
L 213.111103 286.46995 
L 213.308102 269.00015 
L 213.505102 281.848082 
L 213.8991 289.528507 
L 214.096099 291.930291 
L 214.293098 287.115513 
L 214.884095 290.77217 
L 215.081094 290.932222 
L 215.278094 284.374944 
L 215.475093 287.733609 
L 215.672092 276.370298 
L 216.06609 289.000063 
L 216.263089 291.833796 
L 216.460088 274.196145 
L 217.051086 289.124291 
L 217.445084 293.564039 
L 217.642083 292.328157 
L 217.839082 282.918677 
L 218.036081 286.895581 
L 218.23308 279.982601 
L 218.627079 290.931782 
L 219.021077 293.672257 
L 219.218076 293.340803 
L 219.415075 292.216539 
L 219.612074 293.477652 
L 220.006072 291.688619 
L 220.203071 294.135994 
L 220.400071 289.477347 
L 220.59707 291.734338 
L 220.794069 292.44262 
L 220.991068 291.29222 
L 221.188067 291.192247 
L 221.385066 289.728981 
L 221.582065 283.827787 
L 221.779064 287.240242 
L 221.582065 282.583418 
L 222.173063 288.855166 
L 222.370062 285.577951 
L 222.567061 289.653844 
L 222.76406 290.988467 
L 222.961059 276.75412 
L 223.355057 292.59795 
L 223.552056 247.887418 
L 223.749056 271.20993 
L 223.946055 274.215435 
L 224.143054 284.828845 
L 224.340053 268.179597 
L 224.734051 285.364105 
L 224.93105 290.380721 
L 224.734051 248.976688 
L 225.522048 260.826888 
L 225.719047 256.178619 
L 225.916046 273.922127 
L 225.719047 262.726238 
L 226.113045 277.250327 
L 226.310044 264.390338 
L 226.507043 277.741306 
L 226.901041 260.874403 
L 227.098041 234.223529 
L 227.492039 276.281659 
L 227.886037 290.499722 
L 228.083036 279.806575 
L 228.280035 285.449425 
L 228.477034 285.926439 
L 229.068032 290.878796 
L 229.265031 291.791763 
L 229.46203 291.442019 
L 230.250026 277.418139 
L 230.447026 284.163628 
L 231.038023 289.811143 
L 231.432021 292.009097 
L 231.62902 291.550686 
L 231.826019 293.20682 
L 232.023019 292.149547 
L 232.220018 293.710347 
L 232.614016 292.401311 
L 232.811015 293.679879 
L 233.008014 270.40723 
L 233.205013 265.364559 
L 233.402012 278.228417 
L 233.599011 242.900536 
L 233.796011 247.215443 
L 234.387008 283.409786 
L 234.584007 289.433861 
L 234.978005 292.784311 
L 235.175004 291.938293 
L 235.372004 282.028706 
L 235.766002 289.265959 
L 236.356999 291.479393 
L 236.553998 278.926688 
L 236.947996 288.050878 
L 237.538994 292.338535 
L 237.341995 291.715405 
L 237.932992 290.106981 
L 238.523989 291.727861 
L 238.720989 271.629105 
L 238.917988 282.459632 
L 239.311986 290.714357 
L 239.508985 292.357682 
L 239.705984 291.724978 
L 239.902983 290.22515 
L 240.099982 292.378796 
L 240.296981 291.735535 
L 240.493981 293.148602 
L 239.902983 272.339476 
L 240.69098 281.134645 
L 240.887979 286.11346 
L 241.281977 288.602867 
L 241.478976 290.868017 
L 241.675975 254.829316 
L 242.069974 281.357614 
L 242.463972 291.424157 
L 242.660971 292.772575 
L 243.251968 272.151462 
L 243.448967 275.700305 
L 243.645966 284.283501 
L 243.842966 283.292118 
L 244.039965 272.905946 
L 244.236964 283.241393 
L 244.630962 244.587332 
L 245.02496 277.07674 
L 245.221959 284.084507 
L 245.418959 262.312717 
L 245.812957 285.811061 
L 246.009956 289.067075 
L 246.206955 273.418126 
L 246.403954 218.516544 
L 246.797952 275.352441 
L 246.994951 283.222358 
L 247.191951 245.397507 
L 247.585949 281.988089 
L 247.782948 281.901107 
L 248.176946 291.496653 
L 248.373945 291.294464 
L 248.570944 279.459808 
L 248.767944 243.516232 
L 248.964943 265.106368 
L 249.161942 236.339512 
L 249.55594 276.305142 
L 249.752939 241.938899 
L 249.949938 246.734624 
L 250.146937 268.913449 
L 250.540936 285.330066 
L 250.737935 259.501301 
L 250.934934 280.378491 
L 251.328932 288.825932 
L 251.525931 289.959103 
L 251.72293 289.40824 
L 252.116929 290.957947 
L 252.313928 285.904039 
L 252.510927 290.432822 
L 252.707926 277.135663 
L 252.904925 271.994657 
L 253.101924 272.751927 
L 253.298923 250.146754 
L 252.904925 265.172583 
L 253.495922 274.747686 
L 253.692921 284.152158 
L 254.08692 289.357245 
L 254.283919 291.521872 
L 254.677917 291.199674 
L 254.874916 292.644052 
L 255.071915 291.868164 
L 255.268914 277.853334 
L 255.662913 289.906938 
L 255.859912 281.708067 
L 256.056911 287.962669 
L 256.25391 289.527472 
L 256.450909 292.320438 
L 256.844907 291.245795 
L 257.041906 283.863793 
L 257.238906 288.093442 
L 257.435905 289.592858 
L 257.632904 281.551027 
L 258.026902 288.706963 
L 258.4209 290.495947 
L 258.617899 290.034467 
L 258.814898 290.850051 
L 259.011898 290.302242 
L 259.208897 290.697258 
L 259.405896 292.685669 
L 259.602895 291.888972 
L 259.996893 293.608742 
L 260.193892 291.801037 
L 260.390891 288.006637 
L 260.587891 247.789646 
L 260.981889 279.568877 
L 261.178888 286.649307 
L 260.981889 289.482573 
L 261.375887 290.287424 
L 261.769885 273.954668 
L 262.163883 283.135253 
L 261.769885 274.573139 
L 262.360883 282.497584 
L 262.754881 290.670511 
L 262.95188 291.663106 
L 263.148879 287.332088 
L 263.542877 290.721846 
L 263.739876 290.90706 
L 263.936876 292.24195 
L 263.542877 291.667112 
L 263.936876 292.621976 
L 264.133875 293.831875 
L 264.330874 292.462075 
L 264.527873 293.22522 
L 264.724872 292.774155 
L 264.921871 283.141676 
L 265.315869 289.104625 
L 265.512868 290.09845 
L 265.709868 273.65033 
L 265.906867 283.729231 
L 266.103866 267.62979 
L 266.300865 279.97644 
L 266.497864 265.753395 
L 266.694863 280.2099 
L 266.891862 252.360185 
L 267.285861 282.233459 
L 267.48286 287.870713 
L 268.073857 292.261912 
L 268.467855 278.569016 
L 268.861853 290.44907 
L 269.058853 292.489022 
L 269.255852 291.790648 
L 269.452851 286.871099 
L 269.64985 271.922409 
L 270.043848 285.782987 
L 270.240847 286.239746 
L 270.437846 289.571022 
L 270.634846 246.917381 
L 270.831845 249.223865 
L 271.225843 280.625172 
L 271.422842 283.660839 
L 271.619841 288.549908 
L 272.013839 290.456683 
L 272.604837 293.65974 
L 272.801836 292.991415 
L 272.998835 293.720589 
L 273.195834 293.02184 
L 273.392833 293.196312 
L 273.786831 292.772261 
L 273.983831 293.246421 
L 274.18083 283.377809 
L 274.377829 289.136937 
L 274.574828 290.730014 
L 274.771827 290.911144 
L 274.968826 291.866651 
L 275.165825 287.083693 
L 275.756823 292.775652 
L 275.953822 293.743108 
L 276.150821 294.147941 
L 275.953822 294.429253 
L 276.34782 293.376171 
L 276.741818 291.663249 
L 276.938817 291.993169 
L 277.529815 291.438018 
L 277.923813 275.818297 
L 278.120812 179.46615 
L 278.51481 265.283724 
L 278.711809 258.407037 
L 279.105808 284.015755 
L 279.499806 291.051034 
L 279.696805 276.345827 
L 280.090803 288.328774 
L 280.287802 290.721551 
L 280.484801 290.906913 
L 280.8788 291.969046 
L 281.272798 289.663054 
L 281.469797 292.00713 
L 281.666796 293.014959 
L 281.469797 293.518873 
L 281.863795 292.305574 
L 282.060794 291.698924 
L 282.257793 292.637882 
L 282.651792 275.402754 
L 283.04579 289.746492 
L 283.242789 288.221499 
L 283.439788 290.919501 
L 283.636787 282.214349 
L 283.242789 284.455427 
L 284.030786 289.567391 
L 284.424784 233.418463 
L 284.818782 281.455556 
L 285.409779 290.192272 
L 285.606778 290.642273 
L 285.803778 271.086312 
L 286.000777 270.560816 
L 286.197776 280.36499 
L 286.394775 265.94767 
L 286.591774 269.728433 
L 286.985772 287.377749 
L 287.182771 273.849819 
L 286.591774 280.273162 
L 287.379771 283.484834 
L 287.57677 274.934881 
L 287.773769 283.628986 
L 287.970768 267.579668 
L 288.364766 281.917296 
L 288.167767 288.415714 
L 288.561765 287.55611 
L 289.152763 291.915488 
L 289.349762 293.588082 
L 289.546761 293.869142 
L 289.74376 292.480708 
L 289.940759 282.994952 
L 290.334757 291.227605 
L 290.531756 291.15994 
L 290.728756 293.250364 
L 290.925755 272.390357 
L 291.122754 276.526314 
L 291.516752 287.450784 
L 291.713751 288.172587 
L 292.107749 290.727314 
L 292.304748 291.349371 
L 292.501748 291.220823 
L 292.698747 293.553685 
L 292.895746 292.32298 
L 293.092745 282.916088 
L 293.486743 284.806297 
L 294.077741 292.889504 
L 294.27474 280.483248 
L 294.668738 262.905235 
L 294.865737 281.036103 
L 295.062736 286.692443 
L 295.259735 288.892359 
L 295.653733 274.05816 
L 295.850733 281.339034 
L 296.047732 244.455845 
L 296.44173 277.967002 
L 296.638729 286.505515 
L 296.835728 285.395769 
L 297.032727 273.737983 
L 297.229726 283.8772 
L 297.426726 247.2356 
L 298.017723 282.695384 
L 298.411721 289.60846 
L 298.60872 290.350367 
L 298.805719 292.391625 
L 299.396717 290.826752 
L 299.593716 291.12232 
L 299.987714 293.945573 
L 300.184713 292.518924 
L 300.381712 293.863788 
L 300.578711 274.643406 
L 300.775711 271.594864 
L 301.169709 290.338057 
L 301.366708 290.715166 
L 301.563707 291.519128 
L 301.760706 277.310912 
L 301.957705 271.234074 
L 302.351703 286.7993 
L 302.745702 290.555653 
L 302.942701 291.439371 
L 303.336699 271.707053 
L 303.533698 286.877246 
L 303.730697 288.98476 
L 304.124695 288.91257 
L 304.321695 248.242613 
L 303.730697 269.667444 
L 304.518694 275.323478 
L 304.912692 241.448067 
L 305.30669 286.1473 
L 305.503689 281.586556 
L 305.700688 288.257908 
L 305.897688 289.675091 
L 306.094687 274.892046 
L 306.488685 286.848286 
L 306.882683 286.099987 
L 307.079682 268.815168 
L 307.276681 281.775899 
L 307.47368 287.049495 
L 307.867679 291.777866 
L 308.064678 291.43507 
L 308.261677 291.87908 
L 308.064678 282.552793 
L 308.458676 267.041571 
L 308.852674 287.802484 
L 309.246673 290.885235 
L 309.443672 291.348218 
L 309.640671 281.990296 
L 310.034669 289.411164 
L 310.231668 285.985237 
L 310.428667 278.52617 
L 310.822665 282.686861 
L 311.019665 272.603317 
L 311.216664 243.23283 
L 311.413663 267.77796 
L 311.807661 284.529756 
L 312.201659 290.8133 
L 312.398658 290.952788 
L 312.595658 288.323836 
L 312.989656 290.400165 
L 313.186655 291.361627 
L 313.383654 293.192665 
L 313.580653 279.075562 
L 313.974651 289.512585 
L 314.17165 292.195053 
L 314.36865 275.915139 
L 314.762648 289.907903 
L 315.156646 293.792392 
L 315.353645 292.442333 
L 315.550644 293.785034 
L 315.747643 294.31967 
L 315.944643 206.988469 
L 316.53564 262.271623 
L 316.929638 286.080712 
L 317.520635 233.870298 
L 317.914634 277.641513 
L 318.111633 285.617315 
L 318.308632 288.970202 
L 318.505631 289.232008 
L 318.70263 291.947131 
L 318.899629 291.519703 
L 318.70263 293.090979 
L 318.899629 292.091627 
L 319.096628 275.573195 
L 319.490627 289.425302 
L 319.884625 291.290939 
L 320.081624 291.191607 
L 320.278623 280.706692 
L 320.672621 290.523666 
L 320.86962 288.610086 
L 321.854616 294.367815 
L 322.051615 288.334275 
L 322.248614 291.665128 
L 322.642613 271.597739 
L 323.036611 292.214808 
L 323.23361 294.080641 
L 323.430609 293.201866 
L 323.627608 293.319933 
L 323.824607 292.206104 
L 324.415605 293.994122 
L 324.612604 292.543198 
L 325.006602 293.960571 
L 325.203601 292.526423 
L 325.4006 293.590009 
L 325.597599 292.341142 
L 325.794598 293.760536 
L 325.991598 288.927922 
L 326.582595 291.198421 
L 326.976593 291.118811 
L 327.173592 280.275356 
L 327.56759 289.615047 
L 327.76459 292.817299 
L 328.158588 294.089958 
L 328.355587 293.206524 
L 328.552586 293.160426 
L 328.749585 293.949596 
L 329.143583 290.707662 
L 329.340583 291.910995 
L 329.537582 289.084182 
L 329.734581 281.296689 
L 329.93158 287.881231 
L 330.128579 288.54414 
L 330.916575 293.663447 
L 331.507573 291.736591 
L 331.901571 293.69568 
L 332.09857 293.656592 
L 332.295569 294.368134 
L 332.492568 292.730204 
L 332.689568 283.119701 
L 332.886567 283.809534 
L 333.083566 289.48558 
L 333.280565 288.063579 
L 333.477564 291.10689 
L 333.871562 291.71499 
L 334.068561 293.403707 
L 334.26556 250.488181 
L 334.46256 283.357034 
L 334.856558 293.352985 
L 335.250556 291.657452 
L 335.447555 293.094947 
L 335.644554 292.452985 
L 335.841553 292.388037 
L 336.038553 291.740156 
L 336.235552 291.808252 
L 336.62955 291.450263 
L 336.826549 292.835148 
L 337.023548 291.527993 
L 337.220547 293.207043 
L 337.417546 283.103891 
L 337.614545 287.490119 
L 337.811545 289.291197 
L 338.008544 292.193381 
L 338.205543 291.367551 
L 338.402542 293.352405 
L 338.599541 272.441377 
L 338.79654 283.829651 
L 339.387538 293.632978 
L 339.584537 294.419621 
L 339.781536 293.635102 
L 339.978535 293.605971 
L 340.175534 294.39295 
L 340.372533 294.196206 
L 340.569532 294.613179 
L 340.766531 294.547296 
L 340.96353 292.819785 
L 341.357529 294.738329 
L 341.554528 292.915302 
L 341.751527 293.898516 
L 342.145525 292.716947 
L 342.342524 293.807477 
L 342.539523 293.065284 
L 342.736523 294.208925 
L 342.933522 294.179563 
L 343.130521 286.520524 
L 343.721518 292.121863 
L 343.918517 291.216966 
L 344.312515 293.745056 
L 344.509515 283.914346 
L 344.903513 288.118718 
L 345.100512 280.813957 
L 345.297511 287.86432 
L 345.49451 280.686758 
L 345.691509 285.889517 
L 345.888508 268.709933 
L 346.282507 290.53574 
L 346.479506 289.542839 
L 346.676505 277.658532 
L 346.873504 281.404327 
L 347.070503 288.670288 
L 347.267502 289.881281 
L 347.464501 292.414431 
L 347.6615 292.36876 
L 348.055499 285.136863 
L 348.449497 291.258619 
L 348.646496 291.175447 
L 348.843495 291.749268 
L 349.040494 293.099252 
L 349.237493 250.335954 
L 349.828491 288.52728 
L 350.02549 289.809777 
L 350.419488 293.790021 
L 350.616487 294.527465 
L 350.813486 292.80987 
L 351.010485 293.668667 
L 351.207485 272.599509 
L 351.601483 289.00791 
L 351.798482 290.6655 
L 351.995481 291.293285 
L 352.19248 288.994895 
L 352.389479 291.325684 
L 352.586478 291.208979 
L 352.783477 293.051259 
L 352.980477 292.687175 
L 353.177476 285.685008 
L 353.571474 292.341127 
L 353.768473 278.082914 
L 354.162471 290.420116 
L 354.55647 291.008255 
L 355.147467 291.081772 
L 355.344466 282.295484 
L 355.935463 293.119186 
L 356.132462 292.10573 
L 356.329462 293.655997 
L 356.526461 292.374136 
L 356.72346 288.434949 
L 356.920459 288.66467 
L 357.314457 291.100781 
L 357.511456 291.096528 
L 357.708455 288.896516 
L 358.102454 291.158743 
L 358.299453 292.845592 
L 358.496452 291.968933 
L 358.693451 249.770794 
L 358.89045 262.0721 
L 359.087449 234.822378 
L 359.481447 278.589444 
L 359.678447 286.688018 
L 360.072445 292.70757 
L 360.269444 293.965188 
L 360.466443 292.528731 
L 360.663442 292.25008 
L 361.25444 290.79886 
L 361.648438 291.018921 
L 361.845437 287.063316 
L 362.239435 290.085035 
L 362.633433 277.653156 
L 363.027432 288.347903 
L 363.815428 294.064525 
L 364.012427 293.611836 
L 364.209426 283.344675 
L 364.406425 287.833882 
L 364.603425 287.265194 
L 364.800424 280.387195 
L 364.997423 265.958773 
L 365.194422 280.625055 
L 365.391421 286.842394 
L 365.58842 288.967334 
L 365.785419 292.692613 
L 365.982418 272.111481 
L 366.376417 288.363817 
L 366.770415 293.218568 
L 366.967414 294.111825 
L 367.361412 294.500223 
L 367.558411 284.00471 
L 367.75541 289.573315 
L 367.95241 290.332795 
L 368.149409 292.867714 
L 368.346408 291.979994 
L 368.740406 293.984227 
L 368.937405 294.516347 
L 369.134404 290.490751 
L 369.528402 293.759897 
L 369.725402 294.253003 
L 369.922401 294.205026 
L 370.1194 292.64865 
L 370.316399 288.573635 
L 370.710397 293.334638 
L 370.907396 293.305808 
L 371.104395 272.418079 
L 371.301395 277.406354 
L 371.695393 290.25488 
L 371.892392 291.288985 
L 372.089391 290.666698 
L 372.28639 271.098524 
L 372.483389 281.095399 
L 372.680388 277.302298 
L 372.877387 243.217242 
L 373.271386 281.743006 
L 373.665384 288.393802 
L 373.862383 269.962076 
L 374.256381 285.809725 
L 374.45338 291.124182 
L 374.65038 272.194991 
L 375.044378 286.367954 
L 375.241377 279.938575 
L 375.438376 287.260137 
L 375.635375 247.416397 
L 376.029373 280.173305 
L 376.226372 287.51813 
L 376.620371 290.814146 
L 376.81737 288.964648 
L 377.014369 290.028461 
L 377.211368 292.048638 
L 377.408367 291.570456 
L 377.605366 291.767455 
L 377.802365 291.429865 
L 377.999365 282.297195 
L 378.196364 288.621826 
L 378.393363 289.85705 
L 378.590362 271.561425 
L 378.98436 286.209562 
L 379.181359 290.720652 
L 379.575357 293.840004 
L 379.772357 292.466139 
L 380.166355 294.069474 
L 380.363354 292.580874 
L 380.560353 292.925209 
L 380.757352 292.008742 
L 380.954351 293.679819 
L 381.15135 294.319133 
L 381.34835 292.705704 
L 381.545349 293.808973 
L 381.742348 286.301492 
L 381.939347 287.106694 
L 382.333345 290.38256 
L 382.530344 290.737417 
L 382.924342 292.124881 
L 383.318341 291.350426 
L 383.51534 291.22135 
L 383.712339 291.77222 
L 383.909338 291.432247 
L 384.106337 291.792675 
L 384.500335 291.267375 
L 385.091333 291.114162 
L 385.485331 293.741416 
L 385.879329 294.538908 
L 386.076328 293.430999 
L 386.470327 294.618396 
L 386.667326 292.855335 
L 386.864325 292.589213 
L 387.061324 286.140508 
L 387.455322 291.982769 
L 387.652321 291.537522 
L 387.84932 286.919129 
L 388.243319 292.460478 
L 388.440318 292.391784 
L 388.637317 283.415783 
L 388.834316 289.088627 
L 389.031315 290.591363 
L 389.228314 293.451612 
L 389.425313 293.825916 
L 389.819312 292.698797 
L 390.410309 291.493905 
L 390.607308 289.095205 
L 391.001306 290.593007 
L 391.395305 291.167265 
L 391.592304 286.734001 
L 391.789303 290.579276 
L 391.986302 289.91175 
L 392.3803 292.840963 
L 392.774298 291.220123 
L 392.971297 293.053237 
L 393.168297 292.688164 
L 393.365296 291.890219 
L 393.562295 288.894037 
L 393.759294 290.608563 
L 393.956293 289.666943 
L 394.350291 268.878264 
L 394.744289 290.382284 
L 394.941289 292.165182 
L 395.138288 271.681411 
L 395.532286 282.95997 
L 395.926284 269.52863 
L 396.517282 283.969639 
L 396.714281 285.363598 
L 397.108279 289.660105 
L 397.305278 291.004157 
L 397.502277 291.048216 
L 397.699276 292.058097 
L 397.896275 279.297942 
L 398.093274 283.231879 
L 398.487273 286.182332 
L 398.487273 286.182332 
" style="fill:none;stroke:#1f77b4;stroke-linecap:square;stroke-width:1.5;"/>
   </g>
   <g id="line2d_17">
    <path clip-path="url(#p9b20ef2889)" d="M 73.832727 295.370469 
L 74.620724 295.388263 
L 75.211721 295.319706 
L 75.802718 295.249303 
L 76.196717 295.372905 
L 76.787714 295.364972 
L 78.166708 295.438995 
L 78.757705 295.384739 
L 78.954704 295.166888 
L 79.545702 295.166888 
L 79.742701 295.422217 
L 82.697688 295.402932 
L 83.091686 294.958448 
L 83.288685 295.214341 
L 83.485684 294.958448 
L 83.879682 295.250734 
L 84.076681 295.076939 
L 84.27368 295.076939 
L 84.47068 295.275387 
L 86.440671 295.366661 
L 87.031668 295.425002 
L 88.213663 295.362303 
L 88.607661 295.291038 
L 89.001659 295.349996 
L 91.16865 295.260284 
L 92.744643 295.070431 
L 92.941642 295.236333 
L 95.50263 295.334734 
L 96.093628 295.406936 
L 96.487626 295.343534 
L 97.66962 295.266129 
L 97.86662 295.115635 
L 98.063619 295.37513 
L 98.457617 295.337404 
L 99.048614 295.393925 
L 100.624607 295.430278 
L 100.427608 295.430278 
L 100.821606 295.077008 
L 101.215605 295.138605 
L 101.609603 295.147331 
L 101.806602 295.404788 
L 102.2006 295.296924 
L 102.594598 295.380807 
L 102.988597 295.380807 
L 103.579594 295.129079 
L 104.170591 295.234529 
L 105.549585 295.387927 
L 105.746584 295.027174 
L 106.337582 295.027174 
L 106.928579 295.433316 
L 107.322577 295.325254 
L 107.519576 295.325254 
L 107.716575 295.146978 
L 107.913575 295.354005 
L 109.292568 295.375398 
L 109.489568 295.209889 
L 109.686567 295.39471 
L 110.080565 295.39471 
L 109.883566 295.39471 
L 110.671562 295.21466 
L 111.26256 295.298166 
L 112.050556 295.357917 
L 113.035552 295.372286 
L 113.232551 295.11246 
L 114.217546 295.010243 
L 114.414545 295.23292 
L 115.399541 295.239789 
L 115.59654 295.377782 
L 115.793539 295.237947 
L 116.778535 295.209569 
L 116.975534 294.401104 
L 117.566531 294.434986 
L 117.76353 294.958448 
L 117.96053 294.96302 
L 118.157529 295.296478 
L 118.748526 295.413539 
L 119.339523 295.365592 
L 124.264501 295.383215 
L 124.4615 295.399572 
L 124.855499 295.298708 
L 125.249497 295.37029 
L 126.234492 295.352077 
L 126.628491 295.251247 
L 127.613486 295.333612 
L 128.007485 295.333612 
L 127.613486 295.232073 
L 130.371474 295.239117 
L 130.568473 294.556737 
L 130.765472 295.276002 
L 132.735463 295.307999 
L 132.932462 294.564609 
L 133.129462 292.772582 
L 133.326461 294.564609 
L 133.52346 294.747507 
L 133.917458 294.793144 
L 134.114457 295.274603 
L 134.705455 295.3096 
L 134.902454 295.148033 
L 135.296452 295.148033 
L 135.887449 295.393534 
L 136.281447 295.302157 
L 138.05444 295.35679 
L 138.251439 295.16175 
L 138.448438 295.16175 
L 138.842436 295.314152 
L 139.433433 295.276534 
L 139.630432 295.084437 
L 139.827432 295.084437 
L 140.024431 295.276534 
L 141.403425 295.263707 
L 142.191421 295.229469 
L 142.979417 295.403827 
L 143.176417 295.333481 
L 143.373416 295.403827 
L 143.964413 295.278964 
L 146.131403 295.178596 
L 146.722401 295.136085 
L 146.9194 295.136085 
L 146.722401 294.755964 
L 147.116399 294.755964 
L 147.313398 294.601786 
L 147.510397 292.740825 
L 146.9194 292.740825 
L 148.101395 292.740825 
L 148.298394 294.537987 
L 148.495393 294.537987 
L 148.692392 294.728176 
L 148.889391 294.728176 
L 149.08639 295.049731 
L 149.677387 295.211048 
L 149.874387 295.211048 
L 150.268385 295.336003 
L 152.238376 295.227609 
L 153.420371 295.25417 
L 154.208367 295.283609 
L 154.602365 295.13274 
L 154.799365 294.450944 
L 155.193363 294.450944 
L 155.78436 295.044854 
L 156.178358 294.817972 
L 156.572357 294.951925 
L 157.557352 294.930222 
L 157.754351 295.113554 
L 158.542348 295.048362 
L 158.14835 294.947216 
L 159.527343 295.013517 
L 160.512339 295.223013 
L 162.088332 295.20058 
L 162.285331 295.078806 
L 162.48233 294.826052 
L 162.285331 294.676085 
L 162.679329 294.676085 
L 162.876328 294.826052 
L 163.073327 294.461174 
L 163.270327 294.90678 
L 163.467326 294.90678 
L 163.664325 295.136022 
L 165.240318 295.027135 
L 165.437317 294.873093 
L 165.634316 294.873093 
L 165.831315 295.022261 
L 166.225313 295.121593 
L 167.407308 295.276709 
L 168.589303 295.31451 
L 168.786302 295.332919 
L 169.1803 295.189286 
L 171.150291 295.198294 
L 172.135287 295.220137 
L 172.923283 294.984217 
L 173.120282 294.984217 
L 173.317282 295.286256 
L 174.893274 295.206374 
L 175.090274 295.165934 
L 175.484272 295.298858 
L 175.681271 295.28924 
L 175.87827 295.08422 
L 176.666267 295.153992 
L 177.454263 295.149994 
L 177.651262 295.309671 
L 178.439259 295.236378 
L 178.833257 295.186865 
L 179.227255 295.265014 
L 181.788244 295.170686 
L 181.985243 294.807825 
L 182.182242 295.18538 
L 182.970238 295.204226 
L 183.167237 294.993026 
L 183.561236 295.100182 
L 183.955234 294.993026 
L 184.546231 295.260004 
L 193.214192 295.347801 
L 193.80519 295.345785 
L 194.002189 295.019576 
L 194.987184 294.938463 
L 195.184184 295.204856 
L 195.578182 295.142309 
L 196.366178 295.296368 
L 196.563177 295.296368 
L 197.154175 294.988248 
L 197.942171 294.988248 
L 198.336169 295.141285 
L 200.50316 295.151792 
L 200.700159 295.283856 
L 202.473151 295.100182 
L 204.246143 295.124196 
L 204.640141 295.333915 
L 205.428138 295.291882 
L 205.625137 295.170967 
L 206.019135 295.236747 
L 208.974122 295.148165 
L 209.171121 294.995862 
L 209.565119 294.995862 
L 210.353116 295.369581 
L 210.550115 295.196769 
L 212.126108 295.189396 
L 212.323107 295.279029 
L 212.520106 295.063125 
L 212.717105 295.279029 
L 213.111103 295.174233 
L 213.702101 295.223766 
L 214.096099 295.288031 
L 214.490097 295.327926 
L 214.884095 295.187212 
L 216.460088 295.24615 
L 217.051086 295.323395 
L 217.248085 295.24615 
L 217.445084 295.304917 
L 217.839082 295.196957 
L 218.23308 295.225624 
L 218.430079 295.047016 
L 218.627079 295.225624 
L 218.824078 294.976908 
L 219.021077 294.976908 
L 219.218076 295.141643 
L 220.794069 295.061965 
L 221.188067 294.938463 
L 222.567061 295.039595 
L 223.749056 295.272059 
L 224.537052 295.268119 
L 224.734051 294.994901 
L 224.93105 295.268119 
L 224.734051 294.994901 
L 225.916046 294.9816 
L 225.719047 295.056291 
L 226.310044 295.056291 
L 226.507043 294.823553 
L 228.083036 294.834623 
L 228.280035 295.168638 
L 228.477034 295.168638 
L 228.674034 294.834623 
L 228.871033 294.834623 
L 229.265031 294.533869 
L 229.46203 294.603668 
L 229.856028 294.958448 
L 231.038023 295.06025 
L 231.235022 295.16569 
L 231.62902 294.938463 
L 232.811015 295.289537 
L 233.205013 295.396293 
L 233.402012 295.21077 
L 233.796011 295.177978 
L 234.190009 294.878568 
L 234.584007 294.817521 
L 234.781006 294.878568 
L 234.978005 295.390436 
L 235.372004 295.353255 
L 235.569003 294.944444 
L 236.750997 295.000339 
L 237.538994 295.106555 
L 237.341995 294.986224 
L 238.32699 294.958814 
L 238.523989 295.214763 
L 240.887979 295.210762 
L 241.084978 295.390257 
L 241.478976 295.151971 
L 242.660971 295.247007 
L 243.448967 295.487371 
L 243.842966 295.260906 
L 244.236964 295.260906 
L 245.02496 295.215942 
L 245.418959 295.121123 
L 248.373945 295.017098 
L 248.570944 295.017098 
L 248.964943 295.167364 
L 249.55594 295.182975 
L 250.146937 295.182975 
L 250.343936 295.035427 
L 250.540936 293.729736 
L 250.737935 293.729736 
L 250.934934 293.427527 
L 251.328932 295.009142 
L 251.919929 295.036742 
L 252.116929 295.20243 
L 252.707926 295.151771 
L 253.298923 295.104692 
L 252.904925 295.016486 
L 253.495922 295.016486 
L 253.692921 295.268364 
L 254.283919 295.268364 
L 254.480918 295.02239 
L 256.056911 295.060145 
L 257.632904 295.218968 
L 260.193892 295.170558 
L 259.996893 295.170558 
L 260.78489 295.086599 
L 260.981889 295.24286 
L 262.163883 295.071091 
L 261.769885 295.113226 
L 262.360883 295.255883 
L 262.754881 295.039867 
L 263.148879 295.039867 
L 263.345878 295.277584 
L 264.133875 295.26225 
L 264.330874 295.111158 
L 264.527873 295.26225 
L 264.724872 295.055171 
L 264.921871 295.26225 
L 269.452851 295.178443 
L 269.846849 295.053174 
L 270.043848 295.178443 
L 271.81684 295.159783 
L 272.998835 295.315802 
L 273.392833 295.295912 
L 273.786831 295.488 
L 273.983831 295.488 
L 274.574828 295.232476 
L 275.559823 295.261779 
L 275.953822 295.403451 
L 276.150821 295.383724 
L 275.953822 295.383724 
L 276.741818 295.090836 
L 277.332816 295.133657 
L 277.726814 295.109068 
L 278.120812 294.976908 
L 278.51481 294.976908 
L 278.711809 295.252768 
L 278.908808 293.889582 
L 279.105808 295.308225 
L 279.696805 295.095756 
L 280.090803 295.1947 
L 280.681801 295.263609 
L 281.863795 295.247692 
L 283.04579 295.235127 
L 283.242789 295.371728 
L 283.439788 295.209935 
L 283.242789 295.260677 
L 284.621783 295.405348 
L 285.015781 295.317492 
L 285.606778 295.308762 
L 285.803778 295.113405 
L 286.591774 295.171757 
L 286.788773 295.243911 
L 287.182771 295.171757 
L 286.591774 295.171757 
L 288.561765 295.178887 
L 288.955763 295.294064 
L 290.334757 295.290973 
L 290.531756 295.171755 
L 290.728756 295.32571 
L 291.319753 295.276002 
L 291.516752 295.141898 
L 291.91075 295.153715 
L 292.107749 294.821218 
L 292.304748 295.032091 
L 292.501748 295.032091 
L 292.698747 295.223783 
L 293.486743 295.267451 
L 294.668738 295.325795 
L 295.062736 295.325795 
L 295.259735 295.303339 
L 295.456734 295.154038 
L 295.653733 295.154038 
L 296.047732 295.265219 
L 300.578711 295.188536 
L 300.775711 294.99598 
L 300.97271 295.252728 
L 303.336699 295.153884 
L 303.730697 295.135422 
L 303.927696 295.2448 
L 304.124695 295.161625 
L 303.730697 295.161625 
L 304.518694 295.161625 
L 304.912692 295.161625 
L 305.109691 295.023151 
L 305.30669 295.161625 
L 305.700688 295.030151 
L 306.094687 295.184941 
L 306.685684 295.199509 
L 306.882683 295.314923 
L 307.079682 295.199509 
L 307.276681 295.314923 
L 308.064678 295.174328 
L 308.852674 295.297934 
L 309.246673 295.379861 
L 309.443672 295.15775 
L 309.640671 295.260284 
L 310.034669 295.068804 
L 310.231668 294.987529 
L 310.428667 295.077868 
L 310.625666 293.583063 
L 310.822665 290.603856 
L 311.216664 290.603856 
L 311.413663 294.524157 
L 311.807661 294.879235 
L 312.201659 295.184389 
L 314.565649 295.135817 
L 314.762648 295.045776 
L 315.156646 295.279384 
L 315.944643 295.329615 
L 316.141642 295.329615 
L 316.53564 295.178483 
L 318.70263 295.263566 
L 319.293628 295.294643 
L 319.687626 295.184723 
L 320.672621 295.151312 
L 322.445613 295.320692 
L 322.839612 295.413867 
L 323.824607 295.324181 
L 324.415605 295.320079 
L 325.4006 295.183403 
L 325.794598 295.295996 
L 326.385596 295.31715 
L 326.582595 295.173672 
L 327.173592 295.216739 
L 328.749585 295.260202 
L 328.946584 295.391985 
L 329.143583 295.260202 
L 330.325578 295.277498 
L 330.719576 295.157901 
L 331.901571 295.178248 
L 332.492568 295.176034 
L 332.689568 295.316463 
L 333.477564 295.326657 
L 333.871562 295.444829 
L 334.068561 295.488 
L 334.46256 295.414794 
L 335.841553 295.40442 
L 336.235552 295.235606 
L 336.826549 295.25578 
L 337.220547 295.354265 
L 340.96353 295.364984 
L 341.16053 295.482112 
L 341.751527 295.433771 
L 342.342524 295.381822 
L 342.539523 295.294187 
L 343.130521 295.44586 
L 344.706514 295.406869 
L 345.100512 295.330103 
L 345.297511 295.24526 
L 345.888508 295.403638 
L 346.282507 295.333342 
L 346.479506 295.193569 
L 346.676505 295.333342 
L 347.070503 295.129645 
L 347.6615 295.24056 
L 348.055499 295.325733 
L 348.449497 295.205779 
L 351.207485 295.450467 
L 351.404484 295.274555 
L 351.995481 295.328471 
L 358.299453 295.227389 
L 358.693451 295.158171 
L 359.284448 295.268255 
L 362.436434 295.425076 
L 365.194422 295.231706 
L 365.785419 295.355574 
L 368.346408 295.41249 
L 368.740406 295.451104 
L 369.528402 295.339839 
L 371.498394 295.432909 
L 371.695393 295.274522 
L 372.089391 295.261131 
L 372.28639 295.052819 
L 373.074387 295.101174 
L 373.862383 295.293362 
L 374.059382 295.178075 
L 374.256381 295.407305 
L 374.45338 295.245355 
L 377.408367 295.237253 
L 377.802365 295.127972 
L 378.393363 295.168634 
L 378.590362 295.388277 
L 379.575357 295.33655 
L 379.969356 295.214663 
L 380.363354 295.167964 
L 380.560353 295.314075 
L 380.954351 295.387128 
L 381.34835 295.432751 
L 382.727343 295.333393 
L 383.51534 295.321523 
L 383.909338 295.219437 
L 384.106337 295.281381 
L 384.697335 295.204317 
L 386.667326 295.263151 
L 387.061324 295.299972 
L 389.622312 295.195316 
L 390.016311 295.195316 
L 390.804307 295.349846 
L 393.168297 295.359167 
L 393.759294 295.358215 
L 394.153292 295.276193 
L 396.320282 295.204839 
L 396.517282 295.027108 
L 397.305278 295.134909 
L 398.093274 295.281992 
L 398.487273 295.427708 
L 398.487273 295.427708 
" style="fill:none;stroke:#ff7f0e;stroke-linecap:square;stroke-width:1.5;"/>
   </g>
   <g id="patch_3">
    <path d="M 57.6 307.584 
L 57.6 41.472 
" style="fill:none;stroke:#000000;stroke-linecap:square;stroke-linejoin:miter;stroke-width:0.8;"/>
   </g>
   <g id="patch_4">
    <path d="M 414.72 307.584 
L 414.72 41.472 
" style="fill:none;stroke:#000000;stroke-linecap:square;stroke-linejoin:miter;stroke-width:0.8;"/>
   </g>
   <g id="patch_5">
    <path d="M 57.6 307.584 
L 414.72 307.584 
" style="fill:none;stroke:#000000;stroke-linecap:square;stroke-linejoin:miter;stroke-width:0.8;"/>
   </g>
   <g id="patch_6">
    <path d="M 57.6 41.472 
L 414.72 41.472 
" style="fill:none;stroke:#000000;stroke-linecap:square;stroke-linejoin:miter;stroke-width:0.8;"/>
   </g>
   <g id="text_18">
    <!-- New vs. Old Fee Estimator -->
    <g transform="translate(157.210312 35.472)scale(0.12 -0.12)">
     <defs>
      <path d="M 628 4666 
L 1478 4666 
L 3547 763 
L 3547 4666 
L 4159 4666 
L 4159 0 
L 3309 0 
L 1241 3903 
L 1241 0 
L 628 0 
L 628 4666 
z
" id="DejaVuSans-4e" transform="scale(0.015625)"/>
      <path d="M 269 3500 
L 844 3500 
L 1563 769 
L 2278 3500 
L 2956 3500 
L 3675 769 
L 4391 3500 
L 4966 3500 
L 4050 0 
L 3372 0 
L 2619 2869 
L 1863 0 
L 1184 0 
L 269 3500 
z
" id="DejaVuSans-77" transform="scale(0.015625)"/>
      <path d="M 191 3500 
L 800 3500 
L 1894 563 
L 2988 3500 
L 3597 3500 
L 2284 0 
L 1503 0 
L 191 3500 
z
" id="DejaVuSans-76" transform="scale(0.015625)"/>
      <path d="M 684 794 
L 1344 794 
L 1344 0 
L 684 0 
L 684 794 
z
" id="DejaVuSans-2e" transform="scale(0.015625)"/>
      <path d="M 2522 4238 
Q 1834 4238 1429 3725 
Q 1025 3213 1025 2328 
Q 1025 1447 1429 934 
Q 1834 422 2522 422 
Q 3209 422 3611 934 
Q 4013 1447 4013 2328 
Q 4013 3213 3611 3725 
Q 3209 4238 2522 4238 
z
M 2522 4750 
Q 3503 4750 4090 4092 
Q 4678 3434 4678 2328 
Q 4678 1225 4090 567 
Q 3503 -91 2522 -91 
Q 1538 -91 948 565 
Q 359 1222 359 2328 
Q 359 3434 948 4092 
Q 1538 4750 2522 4750 
z
" id="DejaVuSans-4f" transform="scale(0.015625)"/>
      <path d="M 628 4666 
L 3309 4666 
L 3309 4134 
L 1259 4134 
L 1259 2759 
L 3109 2759 
L 3109 2228 
L 1259 2228 
L 1259 0 
L 628 0 
L 628 4666 
z
" id="DejaVuSans-46" transform="scale(0.015625)"/>
     </defs>
     <use xlink:href="#DejaVuSans-4e"/>
     <use x="74.804688" xlink:href="#DejaVuSans-65"/>
     <use x="136.328125" xlink:href="#DejaVuSans-77"/>
     <use x="218.115234" xlink:href="#DejaVuSans-20"/>
     <use x="249.902344" xlink:href="#DejaVuSans-76"/>
     <use x="309.082031" xlink:href="#DejaVuSans-73"/>
     <use x="361.181641" xlink:href="#DejaVuSans-2e"/>
     <use x="392.96875" xlink:href="#DejaVuSans-20"/>
     <use x="424.755859" xlink:href="#DejaVuSans-4f"/>
     <use x="503.466797" xlink:href="#DejaVuSans-6c"/>
     <use x="531.25" xlink:href="#DejaVuSans-64"/>
     <use x="594.726562" xlink:href="#DejaVuSans-20"/>
     <use x="626.513672" xlink:href="#DejaVuSans-46"/>
     <use x="678.533203" xlink:href="#DejaVuSans-65"/>
     <use x="740.056641" xlink:href="#DejaVuSans-65"/>
     <use x="801.580078" xlink:href="#DejaVuSans-20"/>
     <use x="833.367188" xlink:href="#DejaVuSans-45"/>
     <use x="896.550781" xlink:href="#DejaVuSans-73"/>
     <use x="948.650391" xlink:href="#DejaVuSans-74"/>
     <use x="987.859375" xlink:href="#DejaVuSans-69"/>
     <use x="1015.642578" xlink:href="#DejaVuSans-6d"/>
     <use x="1113.054688" xlink:href="#DejaVuSans-61"/>
     <use x="1174.333984" xlink:href="#DejaVuSans-74"/>
     <use x="1213.542969" xlink:href="#DejaVuSans-6f"/>
     <use x="1274.724609" xlink:href="#DejaVuSans-72"/>
    </g>
   </g>
  </g>
 </g>
 <defs>
  <clipPath id="p9b20ef2889">
   <rect height="266.112" width="357.12" x="57.6" y="41.472"/>
  </clipPath>
 </defs>
</svg>
