<?xml version="1.0" encoding="utf-8" standalone="no"?>
<!DOCTYPE svg PUBLIC "-//W3C//DTD SVG 1.1//EN"
  "http://www.w3.org/Graphics/SVG/1.1/DTD/svg11.dtd">
<svg height="345.6pt" version="1.1" viewBox="0 0 460.8 345.6" width="460.8pt" xmlns="http://www.w3.org/2000/svg" xmlns:xlink="http://www.w3.org/1999/xlink">
 <metadata>
  <rdf:RDF xmlns:cc="http://creativecommons.org/ns#" xmlns:dc="http://purl.org/dc/elements/1.1/" xmlns:rdf="http://www.w3.org/1999/02/22-rdf-syntax-ns#">
   <cc:Work>
    <dc:type rdf:resource="http://purl.org/dc/dcmitype/StillImage"/>
    <dc:date>2022-01-06T21:58:35.243497</dc:date>
    <dc:format>image/svg+xml</dc:format>
    <dc:creator>
     <cc:Agent>
      <dc:title>Matplotlib v3.4.3, https://matplotlib.org/</dc:title>
     </cc:Agent>
    </dc:creator>
   </cc:Work>
  </rdf:RDF>
 </metadata>
 <defs>
  <style type="text/css">*{stroke-linecap:butt;stroke-linejoin:round;}</style>
 </defs>
 <g id="figure_1">
  <g id="patch_1">
   <path d="M 0 345.6 
L 460.8 345.6 
L 460.8 0 
L 0 0 
z
" style="fill:#ffffff;"/>
  </g>
  <g id="axes_1">
   <g id="patch_2">
    <path d="M 57.6 307.584 
L 414.72 307.584 
L 414.72 41.472 
L 57.6 41.472 
z
" style="fill:#ffffff;"/>
   </g>
   <g id="matplotlib.axis_1">
    <g id="xtick_1">
     <g id="line2d_1">
      <defs>
       <path d="M 0 0 
L 0 3.5 
" id="mc6ac5dc0fb" style="stroke:#000000;stroke-width:0.8;"/>
      </defs>
      <g>
       <use style="stroke:#000000;stroke-width:0.8;" x="73.832727" xlink:href="#mc6ac5dc0fb" y="307.584"/>
      </g>
     </g>
     <g id="text_1">
      <!-- 39000 -->
      <g transform="translate(57.926477 322.182437)scale(0.1 -0.1)">
       <defs>
        <path d="M 2597 2516 
Q 3050 2419 3304 2112 
Q 3559 1806 3559 1356 
Q 3559 666 3084 287 
Q 2609 -91 1734 -91 
Q 1441 -91 1130 -33 
Q 819 25 488 141 
L 488 750 
Q 750 597 1062 519 
Q 1375 441 1716 441 
Q 2309 441 2620 675 
Q 2931 909 2931 1356 
Q 2931 1769 2642 2001 
Q 2353 2234 1838 2234 
L 1294 2234 
L 1294 2753 
L 1863 2753 
Q 2328 2753 2575 2939 
Q 2822 3125 2822 3475 
Q 2822 3834 2567 4026 
Q 2313 4219 1838 4219 
Q 1578 4219 1281 4162 
Q 984 4106 628 3988 
L 628 4550 
Q 988 4650 1302 4700 
Q 1616 4750 1894 4750 
Q 2613 4750 3031 4423 
Q 3450 4097 3450 3541 
Q 3450 3153 3228 2886 
Q 3006 2619 2597 2516 
z
" id="DejaVuSans-33" transform="scale(0.015625)"/>
        <path d="M 703 97 
L 703 672 
Q 941 559 1184 500 
Q 1428 441 1663 441 
Q 2288 441 2617 861 
Q 2947 1281 2994 2138 
Q 2813 1869 2534 1725 
Q 2256 1581 1919 1581 
Q 1219 1581 811 2004 
Q 403 2428 403 3163 
Q 403 3881 828 4315 
Q 1253 4750 1959 4750 
Q 2769 4750 3195 4129 
Q 3622 3509 3622 2328 
Q 3622 1225 3098 567 
Q 2575 -91 1691 -91 
Q 1453 -91 1209 -44 
Q 966 3 703 97 
z
M 1959 2075 
Q 2384 2075 2632 2365 
Q 2881 2656 2881 3163 
Q 2881 3666 2632 3958 
Q 2384 4250 1959 4250 
Q 1534 4250 1286 3958 
Q 1038 3666 1038 3163 
Q 1038 2656 1286 2365 
Q 1534 2075 1959 2075 
z
" id="DejaVuSans-39" transform="scale(0.015625)"/>
        <path d="M 2034 4250 
Q 1547 4250 1301 3770 
Q 1056 3291 1056 2328 
Q 1056 1369 1301 889 
Q 1547 409 2034 409 
Q 2525 409 2770 889 
Q 3016 1369 3016 2328 
Q 3016 3291 2770 3770 
Q 2525 4250 2034 4250 
z
M 2034 4750 
Q 2819 4750 3233 4129 
Q 3647 3509 3647 2328 
Q 3647 1150 3233 529 
Q 2819 -91 2034 -91 
Q 1250 -91 836 529 
Q 422 1150 422 2328 
Q 422 3509 836 4129 
Q 1250 4750 2034 4750 
z
" id="DejaVuSans-30" transform="scale(0.015625)"/>
       </defs>
       <use xlink:href="#DejaVuSans-33"/>
       <use x="63.623047" xlink:href="#DejaVuSans-39"/>
       <use x="127.246094" xlink:href="#DejaVuSans-30"/>
       <use x="190.869141" xlink:href="#DejaVuSans-30"/>
       <use x="254.492188" xlink:href="#DejaVuSans-30"/>
      </g>
     </g>
    </g>
    <g id="xtick_2">
     <g id="line2d_2">
      <g>
       <use style="stroke:#000000;stroke-width:0.8;" x="123.082507" xlink:href="#mc6ac5dc0fb" y="307.584"/>
      </g>
     </g>
     <g id="text_2">
      <!-- 39250 -->
      <g transform="translate(107.176257 322.182437)scale(0.1 -0.1)">
       <defs>
        <path d="M 1228 531 
L 3431 531 
L 3431 0 
L 469 0 
L 469 531 
Q 828 903 1448 1529 
Q 2069 2156 2228 2338 
Q 2531 2678 2651 2914 
Q 2772 3150 2772 3378 
Q 2772 3750 2511 3984 
Q 2250 4219 1831 4219 
Q 1534 4219 1204 4116 
Q 875 4013 500 3803 
L 500 4441 
Q 881 4594 1212 4672 
Q 1544 4750 1819 4750 
Q 2544 4750 2975 4387 
Q 3406 4025 3406 3419 
Q 3406 3131 3298 2873 
Q 3191 2616 2906 2266 
Q 2828 2175 2409 1742 
Q 1991 1309 1228 531 
z
" id="DejaVuSans-32" transform="scale(0.015625)"/>
        <path d="M 691 4666 
L 3169 4666 
L 3169 4134 
L 1269 4134 
L 1269 2991 
Q 1406 3038 1543 3061 
Q 1681 3084 1819 3084 
Q 2600 3084 3056 2656 
Q 3513 2228 3513 1497 
Q 3513 744 3044 326 
Q 2575 -91 1722 -91 
Q 1428 -91 1123 -41 
Q 819 9 494 109 
L 494 744 
Q 775 591 1075 516 
Q 1375 441 1709 441 
Q 2250 441 2565 725 
Q 2881 1009 2881 1497 
Q 2881 1984 2565 2268 
Q 2250 2553 1709 2553 
Q 1456 2553 1204 2497 
Q 953 2441 691 2322 
L 691 4666 
z
" id="DejaVuSans-35" transform="scale(0.015625)"/>
       </defs>
       <use xlink:href="#DejaVuSans-33"/>
       <use x="63.623047" xlink:href="#DejaVuSans-39"/>
       <use x="127.246094" xlink:href="#DejaVuSans-32"/>
       <use x="190.869141" xlink:href="#DejaVuSans-35"/>
       <use x="254.492188" xlink:href="#DejaVuSans-30"/>
      </g>
     </g>
    </g>
    <g id="xtick_3">
     <g id="line2d_3">
      <g>
       <use style="stroke:#000000;stroke-width:0.8;" x="172.332286" xlink:href="#mc6ac5dc0fb" y="307.584"/>
      </g>
     </g>
     <g id="text_3">
      <!-- 39500 -->
      <g transform="translate(156.426036 322.182437)scale(0.1 -0.1)">
       <use xlink:href="#DejaVuSans-33"/>
       <use x="63.623047" xlink:href="#DejaVuSans-39"/>
       <use x="127.246094" xlink:href="#DejaVuSans-35"/>
       <use x="190.869141" xlink:href="#DejaVuSans-30"/>
       <use x="254.492188" xlink:href="#DejaVuSans-30"/>
      </g>
     </g>
    </g>
    <g id="xtick_4">
     <g id="line2d_4">
      <g>
       <use style="stroke:#000000;stroke-width:0.8;" x="221.582065" xlink:href="#mc6ac5dc0fb" y="307.584"/>
      </g>
     </g>
     <g id="text_4">
      <!-- 39750 -->
      <g transform="translate(205.675815 322.182437)scale(0.1 -0.1)">
       <defs>
        <path d="M 525 4666 
L 3525 4666 
L 3525 4397 
L 1831 0 
L 1172 0 
L 2766 4134 
L 525 4134 
L 525 4666 
z
" id="DejaVuSans-37" transform="scale(0.015625)"/>
       </defs>
       <use xlink:href="#DejaVuSans-33"/>
       <use x="63.623047" xlink:href="#DejaVuSans-39"/>
       <use x="127.246094" xlink:href="#DejaVuSans-37"/>
       <use x="190.869141" xlink:href="#DejaVuSans-35"/>
       <use x="254.492188" xlink:href="#DejaVuSans-30"/>
      </g>
     </g>
    </g>
    <g id="xtick_5">
     <g id="line2d_5">
      <g>
       <use style="stroke:#000000;stroke-width:0.8;" x="270.831845" xlink:href="#mc6ac5dc0fb" y="307.584"/>
      </g>
     </g>
     <g id="text_5">
      <!-- 40000 -->
      <g transform="translate(254.925595 322.182437)scale(0.1 -0.1)">
       <defs>
        <path d="M 2419 4116 
L 825 1625 
L 2419 1625 
L 2419 4116 
z
M 2253 4666 
L 3047 4666 
L 3047 1625 
L 3713 1625 
L 3713 1100 
L 3047 1100 
L 3047 0 
L 2419 0 
L 2419 1100 
L 313 1100 
L 313 1709 
L 2253 4666 
z
" id="DejaVuSans-34" transform="scale(0.015625)"/>
       </defs>
       <use xlink:href="#DejaVuSans-34"/>
       <use x="63.623047" xlink:href="#DejaVuSans-30"/>
       <use x="127.246094" xlink:href="#DejaVuSans-30"/>
       <use x="190.869141" xlink:href="#DejaVuSans-30"/>
       <use x="254.492188" xlink:href="#DejaVuSans-30"/>
      </g>
     </g>
    </g>
    <g id="xtick_6">
     <g id="line2d_6">
      <g>
       <use style="stroke:#000000;stroke-width:0.8;" x="320.081624" xlink:href="#mc6ac5dc0fb" y="307.584"/>
      </g>
     </g>
     <g id="text_6">
      <!-- 40250 -->
      <g transform="translate(304.175374 322.182437)scale(0.1 -0.1)">
       <use xlink:href="#DejaVuSans-34"/>
       <use x="63.623047" xlink:href="#DejaVuSans-30"/>
       <use x="127.246094" xlink:href="#DejaVuSans-32"/>
       <use x="190.869141" xlink:href="#DejaVuSans-35"/>
       <use x="254.492188" xlink:href="#DejaVuSans-30"/>
      </g>
     </g>
    </g>
    <g id="xtick_7">
     <g id="line2d_7">
      <g>
       <use style="stroke:#000000;stroke-width:0.8;" x="369.331403" xlink:href="#mc6ac5dc0fb" y="307.584"/>
      </g>
     </g>
     <g id="text_7">
      <!-- 40500 -->
      <g transform="translate(353.425153 322.182437)scale(0.1 -0.1)">
       <use xlink:href="#DejaVuSans-34"/>
       <use x="63.623047" xlink:href="#DejaVuSans-30"/>
       <use x="127.246094" xlink:href="#DejaVuSans-35"/>
       <use x="190.869141" xlink:href="#DejaVuSans-30"/>
       <use x="254.492188" xlink:href="#DejaVuSans-30"/>
      </g>
     </g>
    </g>
   </g>
   <g id="matplotlib.axis_2">
    <g id="ytick_1">
     <g id="line2d_8">
      <defs>
       <path d="M 0 0 
L -3.5 0 
" id="md037c24666" style="stroke:#000000;stroke-width:0.8;"/>
      </defs>
      <g>
       <use style="stroke:#000000;stroke-width:0.8;" x="57.6" xlink:href="#md037c24666" y="277.581125"/>
      </g>
     </g>
     <g id="text_8">
      <!-- −3 -->
      <g transform="translate(35.857813 281.380344)scale(0.1 -0.1)">
       <defs>
        <path d="M 678 2272 
L 4684 2272 
L 4684 1741 
L 678 1741 
L 678 2272 
z
" id="DejaVuSans-2212" transform="scale(0.015625)"/>
       </defs>
       <use xlink:href="#DejaVuSans-2212"/>
       <use x="83.789062" xlink:href="#DejaVuSans-33"/>
      </g>
     </g>
    </g>
    <g id="ytick_2">
     <g id="line2d_9">
      <g>
       <use style="stroke:#000000;stroke-width:0.8;" x="57.6" xlink:href="#md037c24666" y="241.691342"/>
      </g>
     </g>
     <g id="text_9">
      <!-- −2 -->
      <g transform="translate(35.857813 245.49056)scale(0.1 -0.1)">
       <use xlink:href="#DejaVuSans-2212"/>
       <use x="83.789062" xlink:href="#DejaVuSans-32"/>
      </g>
     </g>
    </g>
    <g id="ytick_3">
     <g id="line2d_10">
      <g>
       <use style="stroke:#000000;stroke-width:0.8;" x="57.6" xlink:href="#md037c24666" y="205.801558"/>
      </g>
     </g>
     <g id="text_10">
      <!-- −1 -->
      <g transform="translate(35.857813 209.600777)scale(0.1 -0.1)">
       <defs>
        <path d="M 794 531 
L 1825 531 
L 1825 4091 
L 703 3866 
L 703 4441 
L 1819 4666 
L 2450 4666 
L 2450 531 
L 3481 531 
L 3481 0 
L 794 0 
L 794 531 
z
" id="DejaVuSans-31" transform="scale(0.015625)"/>
       </defs>
       <use xlink:href="#DejaVuSans-2212"/>
       <use x="83.789062" xlink:href="#DejaVuSans-31"/>
      </g>
     </g>
    </g>
    <g id="ytick_4">
     <g id="line2d_11">
      <g>
       <use style="stroke:#000000;stroke-width:0.8;" x="57.6" xlink:href="#md037c24666" y="169.911775"/>
      </g>
     </g>
     <g id="text_11">
      <!-- 0 -->
      <g transform="translate(44.2375 173.710994)scale(0.1 -0.1)">
       <use xlink:href="#DejaVuSans-30"/>
      </g>
     </g>
    </g>
    <g id="ytick_5">
     <g id="line2d_12">
      <g>
       <use style="stroke:#000000;stroke-width:0.8;" x="57.6" xlink:href="#md037c24666" y="134.021991"/>
      </g>
     </g>
     <g id="text_12">
      <!-- 1 -->
      <g transform="translate(44.2375 137.82121)scale(0.1 -0.1)">
       <use xlink:href="#DejaVuSans-31"/>
      </g>
     </g>
    </g>
    <g id="ytick_6">
     <g id="line2d_13">
      <g>
       <use style="stroke:#000000;stroke-width:0.8;" x="57.6" xlink:href="#md037c24666" y="98.132208"/>
      </g>
     </g>
     <g id="text_13">
      <!-- 2 -->
      <g transform="translate(44.2375 101.931427)scale(0.1 -0.1)">
       <use xlink:href="#DejaVuSans-32"/>
      </g>
     </g>
    </g>
    <g id="ytick_7">
     <g id="line2d_14">
      <g>
       <use style="stroke:#000000;stroke-width:0.8;" x="57.6" xlink:href="#md037c24666" y="62.242425"/>
      </g>
     </g>
     <g id="text_14">
      <!-- 3 -->
      <g transform="translate(44.2375 66.041643)scale(0.1 -0.1)">
       <use xlink:href="#DejaVuSans-33"/>
      </g>
     </g>
    </g>
   </g>
   <g id="line2d_15">
    <path clip-path="url(#pc449c5ffe3)" d="M 73.832727 117.547923 
L 74.029726 119.249292 
L 73.832727 114.176461 
L 74.423725 102.632472 
L 74.620724 107.936708 
L 74.817723 109.099226 
L 75.014722 93.015174 
L 75.211721 99.388904 
L 75.40872 90.782349 
L 75.211721 97.679435 
L 75.605719 102.762867 
L 75.802718 99.062048 
L 75.999718 97.496261 
L 76.393716 119.429275 
L 76.590715 120.270339 
L 76.984713 126.354019 
L 77.181712 135.617333 
L 77.378711 122.937302 
L 77.575711 133.291191 
L 77.969709 105.507984 
L 78.166708 107.744043 
L 78.363707 92.764942 
L 78.560706 99.200207 
L 78.757705 90.727798 
L 78.954704 105.093924 
L 79.151703 107.503736 
L 79.545702 116.477313 
L 79.742701 116.256658 
L 79.9397 125.270678 
L 80.136699 123.079871 
L 80.727696 151.489388 
L 80.924695 125.316941 
L 81.121695 123.099953 
L 81.318694 119.173064 
L 81.515693 120.134607 
L 81.909691 139.241506 
L 82.10669 108.588637 
L 82.303689 109.44704 
L 82.500688 112.397135 
L 82.697688 93.553948 
L 83.091686 110.191894 
L 83.485684 114.359205 
L 83.682683 122.047637 
L 83.879682 121.597187 
L 84.27368 141.402908 
L 84.47068 108.730488 
L 84.667679 101.151078 
L 84.864678 108.143601 
L 85.061677 100.968272 
L 85.652674 119.264433 
L 85.849673 120.183132 
L 86.046673 128.663831 
L 86.243672 124.464267 
L 86.440671 122.724399 
L 86.63767 119.02603 
L 87.031668 137.49885 
L 87.228667 127.279456 
L 87.425666 95.054999 
L 87.622665 91.782999 
L 87.819665 99.603699 
L 88.016664 90.843875 
L 88.607661 112.5336 
L 88.80466 116.257262 
L 89.001659 116.147791 
L 89.198658 118.453029 
L 89.395658 127.205609 
L 89.592657 130.617047 
L 89.789656 121.682475 
L 89.986655 118.606754 
L 90.183654 107.316683 
L 90.380653 112.749305 
L 90.577652 105.682529 
L 90.774651 108.353424 
L 90.97165 113.47665 
L 91.16865 109.985012 
L 91.365649 113.563942 
L 91.562648 107.844971 
L 91.956646 123.925759 
L 92.153645 111.932242 
L 92.350644 109.595703 
L 92.547643 73.06304 
L 92.744643 83.170469 
L 92.941642 103.058545 
L 93.138641 110.604909 
L 93.33564 91.154504 
L 93.532639 99.082876 
L 93.926637 102.818927 
L 94.320635 119.375214 
L 94.517635 128.381907 
L 94.911633 117.162081 
L 95.108632 116.590471 
L 95.305631 73.335822 
L 96.093628 106.344015 
L 96.487626 112.366873 
L 96.684625 98.240003 
L 96.881624 104.560107 
L 97.275622 68.762282 
L 97.66962 85.554965 
L 97.86662 92.179668 
L 98.063619 79.396885 
L 98.457617 95.838575 
L 98.654616 91.500968 
L 99.245613 118.018214 
L 99.442613 119.464713 
L 99.836611 120.28903 
L 100.03361 129.059209 
L 100.230609 124.614083 
L 100.427608 107.897238 
L 100.230609 103.464836 
L 100.427608 108.516923 
L 100.821606 111.828565 
L 101.018605 120.239609 
L 101.215605 117.99827 
L 101.412604 127.459014 
L 101.609603 120.725757 
L 102.003601 117.127728 
L 102.2006 116.573903 
L 102.397599 118.698624 
L 102.2006 119.880495 
L 102.594598 120.506829 
L 102.791598 130.254664 
L 103.185596 119.903256 
L 103.382595 89.919954 
L 103.973592 116.215867 
L 104.170591 117.394378 
L 104.36759 126.013596 
L 104.56459 117.978576 
L 104.761589 119.487983 
L 104.958588 127.674505 
L 105.155587 120.795381 
L 105.352586 118.236509 
L 105.549585 126.636773 
L 105.746584 115.134081 
L 106.140583 133.582967 
L 106.337582 126.164826 
L 106.534581 133.623338 
L 106.73158 126.177356 
L 106.928579 136.417161 
L 107.125578 123.111076 
L 107.322577 122.104705 
L 107.519576 131.182294 
L 107.716575 147.929812 
L 107.913575 124.948378 
L 108.110574 119.865649 
L 108.307573 120.4991 
L 108.504572 128.984366 
L 108.701571 124.585904 
L 108.89857 133.13385 
L 109.095569 126.023915 
L 109.292568 133.509546 
L 109.489568 100.772601 
L 109.883566 116.826863 
L 110.080565 109.977401 
L 109.883566 114.586437 
L 110.277564 124.390403 
L 110.474563 119.661982 
L 110.671562 121.439385 
L 111.06556 136.440994 
L 111.26256 123.116147 
L 111.459559 118.736515 
L 111.656558 119.900922 
L 111.853557 124.890014 
L 112.247555 118.406658 
L 112.444554 129.030172 
L 112.838553 121.218618 
L 113.232551 134.581596 
L 113.42955 90.485921 
L 114.020547 110.932067 
L 114.217546 88.791442 
L 114.414545 97.093653 
L 114.611545 113.910677 
L 114.808544 113.135886 
L 114.611545 122.634148 
L 115.005543 130.806303 
L 115.202542 121.735586 
L 115.399541 131.592192 
L 115.59654 90.388898 
L 115.990538 115.785344 
L 116.384537 124.235187 
L 116.581536 110.231184 
L 116.778535 79.057236 
L 117.172533 98.160603 
L 117.369532 94.143968 
L 117.566531 103.488196 
L 117.76353 101.492729 
L 118.157529 110.954703 
L 118.354528 121.589947 
L 118.551527 125.777431 
L 118.945525 139.344409 
L 119.142524 143.444938 
L 119.536523 99.213851 
L 119.930521 109.867764 
L 120.324519 116.331046 
L 120.521518 98.153361 
L 120.718517 102.887251 
L 120.521518 105.931865 
L 120.915516 110.894324 
L 121.506514 133.873791 
L 122.097511 153.331956 
L 122.29451 130.100685 
L 122.491509 121.535197 
L 122.688508 129.873084 
L 122.885508 113.147004 
L 123.082507 116.64392 
L 123.476505 106.64158 
L 123.673504 108.905503 
L 123.870503 117.852074 
L 124.067502 110.300416 
L 124.264501 112.424317 
L 124.4615 116.187787 
L 124.6585 105.501738 
L 124.855499 114.413189 
L 125.052498 115.204946 
L 125.249497 125.603753 
L 125.446496 118.927908 
L 125.840494 139.620209 
L 126.037493 101.085137 
L 126.234492 111.519395 
L 126.431492 53.568 
L 126.82549 70.137769 
L 127.219488 86.858593 
L 127.613486 103.019231 
L 128.007485 88.003472 
L 127.613486 83.804185 
L 128.204484 74.955108 
L 128.598482 78.679716 
L 129.189479 104.752243 
L 129.780477 118.884751 
L 129.977476 120.261692 
L 130.174475 129.880671 
L 130.371474 90.324708 
L 130.568473 76.607218 
L 130.765472 75.156521 
L 131.15947 58.286944 
L 131.750468 73.011379 
L 132.144466 94.134638 
L 132.341465 95.323099 
L 132.538464 88.607082 
L 132.735463 93.947752 
L 132.932462 94.74969 
L 133.129462 96.354042 
L 133.52346 111.476437 
L 133.917458 114.767245 
L 134.114457 115.390195 
L 134.508455 107.128331 
L 134.705455 65.324713 
L 135.296452 94.005766 
L 135.493451 85.585932 
L 136.084448 113.836297 
L 136.281447 94.010307 
L 136.478447 96.270652 
L 136.872445 117.665996 
L 137.069444 89.608707 
L 137.266443 92.87393 
L 137.463442 100.499022 
L 137.660441 99.444814 
L 137.85744 64.988594 
L 138.251439 83.67995 
L 138.448438 74.919798 
L 139.039435 103.174504 
L 139.236434 95.895519 
L 139.827432 117.129476 
L 140.024431 118.219706 
L 140.22143 126.784752 
L 140.418429 118.112069 
L 140.812427 92.18905 
L 141.009426 88.480911 
L 141.206425 98.714783 
L 141.403425 101.63648 
L 141.600424 107.230246 
L 141.797423 116.411492 
L 141.994422 100.479264 
L 142.191421 110.487603 
L 142.585419 114.455177 
L 142.782418 124.936553 
L 142.979417 119.861381 
L 143.373416 97.930652 
L 143.570415 104.490922 
L 143.767414 96.296302 
L 144.161412 108.354761 
L 144.358411 88.589877 
L 144.949409 109.912357 
L 145.146408 115.529549 
L 145.343407 113.014067 
L 145.737405 127.796497 
L 145.934404 120.834508 
L 146.131403 124.115979 
L 146.328402 119.560111 
L 146.525402 123.583633 
L 146.722401 110.749303 
L 146.9194 113.170858 
L 146.722401 114.595367 
L 147.116399 122.178635 
L 147.313398 108.838337 
L 147.510397 113.064421 
L 147.707396 110.075121 
L 146.9194 112.773576 
L 147.904395 117.108244 
L 148.101395 110.067507 
L 148.298394 107.46482 
L 148.495393 111.169651 
L 148.692392 120.595979 
L 148.889391 120.027598 
L 149.08639 117.906109 
L 149.283389 117.568809 
L 149.480388 118.723663 
L 149.677387 118.591176 
L 149.874387 89.537365 
L 150.268385 104.28854 
L 150.662383 112.907938 
L 150.859382 122.933077 
L 151.056381 119.107996 
L 151.25338 89.72295 
L 151.647379 106.336774 
L 151.844378 88.28968 
L 152.435375 112.725787 
L 152.632374 114.294561 
L 152.829373 124.35741 
L 153.026372 119.649794 
L 153.223372 125.843501 
L 153.420371 120.182775 
L 153.61737 106.172463 
L 154.405366 121.178411 
L 154.602365 116.544295 
L 154.799365 115.803597 
L 155.193363 115.979877 
L 155.390362 125.51661 
L 155.587361 102.322383 
L 155.981359 110.589617 
L 156.178358 88.885582 
L 156.572357 105.096828 
L 156.966355 113.965583 
L 157.163354 111.333839 
L 157.360353 88.976127 
L 157.557352 97.799117 
L 157.754351 88.413199 
L 158.345349 111.617423 
L 158.542348 113.671983 
L 158.14835 117.803831 
L 158.739347 116.896494 
L 158.936346 92.688399 
L 159.330344 111.293168 
L 159.527343 113.486187 
L 159.921342 128.712112 
L 160.118341 124.482688 
L 160.31534 115.414664 
L 160.512339 115.723747 
L 160.906337 132.900174 
L 161.103336 118.218696 
L 161.497335 129.631351 
L 161.694334 121.118976 
L 161.891333 130.438707 
L 162.088332 110.233273 
L 162.285331 117.127307 
L 162.48233 117.007383 
L 162.285331 116.515715 
L 162.679329 113.394114 
L 162.876328 114.660561 
L 163.073327 121.037312 
L 163.270327 118.338701 
L 163.664325 134.774132 
L 163.861324 122.746433 
L 164.058323 121.932721 
L 164.255322 130.530632 
L 164.452321 110.276359 
L 164.64932 105.972785 
L 165.043319 110.207043 
L 164.64932 112.282817 
L 165.240318 116.097566 
L 165.437317 93.496549 
L 166.225313 120.416293 
L 166.422312 118.074534 
L 166.619312 93.716908 
L 167.210309 117.276334 
L 167.407308 116.645436 
L 167.604307 87.7893 
L 167.801306 94.189081 
L 167.998305 77.266873 
L 168.392304 87.859055 
L 168.589303 76.0013 
L 169.377299 113.453276 
L 169.574298 114.692619 
L 170.165296 135.80353 
L 170.362295 122.97838 
L 170.756293 138.778933 
L 171.150291 116.555287 
L 171.544289 116.16654 
L 171.938288 116.07085 
L 172.135287 117.69895 
L 172.332286 116.846931 
L 172.529285 121.982203 
L 172.726284 108.796397 
L 173.120282 118.523918 
L 173.317282 117.232036 
L 173.514281 125.606379 
L 173.71128 120.09991 
L 173.908279 128.648122 
L 174.105278 121.101898 
L 174.302277 129.063172 
L 174.499276 121.228606 
L 174.893274 118.418857 
L 175.090274 124.447889 
L 175.287273 119.683179 
L 175.484272 117.754877 
L 175.681271 124.778382 
L 175.87827 119.804089 
L 176.075269 104.436532 
L 175.87827 109.182252 
L 176.272268 100.123242 
L 176.469267 109.629833 
L 176.666267 112.507319 
L 177.060265 126.96681 
L 177.257264 120.564273 
L 177.454263 118.138031 
L 177.848261 117.053252 
L 178.04526 98.38039 
L 178.439259 114.392623 
L 178.636258 86.357517 
L 178.833257 96.982961 
L 179.030256 116.899987 
L 179.424254 129.238136 
L 179.621253 105.816078 
L 179.818252 103.400941 
L 180.015252 108.472718 
L 180.212251 88.606418 
L 180.40925 99.006197 
L 180.606249 86.884727 
L 181.197246 111.88679 
L 181.394245 92.360316 
L 181.788244 106.697717 
L 181.985243 112.422051 
L 182.182242 114.125881 
L 182.379241 89.431241 
L 182.57624 95.410534 
L 182.773239 89.108446 
L 182.970238 87.334883 
L 183.364237 99.749475 
L 183.561236 102.798578 
L 183.758235 108.053243 
L 183.955234 118.038615 
L 184.152233 117.006808 
L 184.349232 117.34041 
L 184.546231 97.527546 
L 184.74323 101.410241 
L 185.137229 121.337781 
L 185.531227 117.204592 
L 185.925225 135.433299 
L 186.122224 126.71648 
L 186.319223 134.307603 
L 186.516222 122.637361 
L 186.713222 128.557621 
L 187.10722 125.31808 
L 187.304219 108.525074 
L 187.698217 113.794936 
L 187.895216 101.497302 
L 188.289214 118.424058 
L 188.486214 99.288311 
L 188.880212 117.757519 
L 189.077211 116.874631 
L 189.27421 122.304732 
L 189.471209 131.133863 
L 189.668208 125.362005 
L 189.865207 104.898554 
L 190.062207 114.809623 
L 189.865207 115.412234 
L 190.259206 115.722508 
L 190.456205 123.811499 
L 190.653204 119.445759 
L 190.850203 104.782315 
L 191.047202 112.378275 
L 191.244201 113.679074 
L 191.4412 104.610843 
L 191.638199 115.162114 
L 191.835199 114.470674 
L 192.032198 122.582691 
L 192.229197 89.961146 
L 193.411192 137.104337 
L 193.214192 138.882251 
L 193.608191 116.5378 
L 193.80519 98.997324 
L 194.002189 93.021548 
L 194.396187 107.741791 
L 194.790185 115.491978 
L 194.987184 123.055782 
L 195.184184 119.155883 
L 195.381183 102.332586 
L 196.169179 138.477389 
L 196.366178 110.6852 
L 196.563177 113.133387 
L 196.760177 121.839372 
L 196.957176 121.023346 
L 197.154175 92.899172 
L 197.351174 92.99711 
L 197.548173 103.195951 
L 197.745172 107.317833 
L 197.942171 116.83956 
L 198.336169 116.235381 
L 198.533169 123.298433 
L 198.730168 119.249903 
L 198.927167 125.89107 
L 199.124166 100.51574 
L 199.715163 116.962885 
L 200.109162 126.132755 
L 200.306161 120.28275 
L 200.700159 129.575757 
L 201.094157 119.128024 
L 201.291156 126.230399 
L 201.094157 131.538292 
L 201.685154 113.542593 
L 201.882154 118.014391 
L 202.276152 94.985581 
L 202.867149 114.911218 
L 203.064148 120.698599 
L 203.261147 118.19537 
L 203.458147 119.60703 
L 203.655146 89.760269 
L 204.443142 122.281761 
L 204.640141 118.849955 
L 204.83714 120.471601 
L 205.034139 111.061365 
L 205.231139 120.712594 
L 205.428138 117.082741 
L 205.625137 118.988164 
L 205.822136 117.44398 
L 206.019135 126.317516 
L 206.216134 123.526046 
L 206.019135 98.654034 
L 206.807132 118.332502 
L 207.004131 95.804892 
L 207.20113 99.817467 
L 207.398129 109.417874 
L 207.595128 88.735133 
L 208.186125 113.756375 
L 208.383124 121.952171 
L 208.580124 118.716889 
L 208.777123 83.781918 
L 209.36812 106.323357 
L 209.565119 110.43615 
L 209.762118 105.500186 
L 209.959117 111.440817 
L 210.353116 127.437442 
L 210.550115 120.718751 
L 210.747114 102.587326 
L 211.141112 116.094878 
L 211.338111 116.066956 
L 211.53511 96.540472 
L 211.732109 103.421004 
L 211.929109 78.489792 
L 212.323107 96.375774 
L 212.520106 86.239962 
L 212.717105 82.899007 
L 213.111103 104.838605 
L 213.308102 88.044602 
L 213.702101 105.940723 
L 214.096099 119.335886 
L 214.293098 105.996338 
L 214.687096 111.75579 
L 214.884095 114.943464 
L 215.081094 115.481649 
L 215.278094 101.582667 
L 215.475093 107.191705 
L 215.672092 93.126982 
L 216.263089 118.91877 
L 216.460088 91.44814 
L 216.657087 95.782697 
L 216.854086 106.072469 
L 217.051086 110.27237 
L 217.445084 128.917371 
L 217.642083 121.184363 
L 217.839082 99.663346 
L 218.036081 105.592187 
L 218.23308 96.391247 
L 219.021077 129.819683 
L 219.218076 127.206336 
L 219.415075 120.643286 
L 219.612074 128.232786 
L 219.809073 120.972745 
L 220.006072 118.311517 
L 220.203071 134.416169 
L 220.400071 111.162024 
L 220.794069 121.759451 
L 220.991068 116.764692 
L 221.188067 116.397665 
L 221.385066 111.828604 
L 221.582065 100.833543 
L 221.779064 106.230287 
L 221.582065 99.253054 
L 222.173063 109.62676 
L 222.370062 103.368452 
L 222.76406 115.675275 
L 222.961059 93.443096 
L 223.158058 103.815038 
L 223.355057 122.575437 
L 223.552056 78.908311 
L 223.749056 89.402402 
L 223.946055 91.462267 
L 224.143054 102.232654 
L 224.340053 87.569078 
L 224.93105 113.700563 
L 224.734051 79.269135 
L 225.522048 83.852833 
L 225.719047 81.891326 
L 225.916046 91.248825 
L 225.719047 84.731243 
L 226.113045 93.86151 
L 226.310044 85.543769 
L 226.507043 94.286873 
L 227.098041 74.974923 
L 227.886037 114.068031 
L 228.083036 96.215295 
L 228.280035 103.167604 
L 228.477034 103.926429 
L 229.265031 118.740505 
L 229.46203 117.331343 
L 230.250026 94.005593 
L 230.447026 101.289068 
L 231.038023 112.052576 
L 231.432021 119.68502 
L 231.62902 117.75569 
L 231.826019 126.2629 
L 232.023019 120.327337 
L 232.220018 130.150131 
L 232.614016 121.549451 
L 232.811015 129.885251 
L 233.008014 88.895398 
L 233.205013 86.039879 
L 233.402012 94.720677 
L 233.599011 77.355363 
L 233.796011 78.689813 
L 233.99301 83.64531 
L 234.978005 123.614377 
L 235.175004 119.370982 
L 235.372004 98.59705 
L 235.766002 110.623278 
L 236.356999 117.47599 
L 236.553998 95.364379 
L 236.947996 107.842841 
L 237.341995 115.533434 
L 237.538994 121.235637 
L 237.341995 118.421792 
L 237.932992 112.88677 
L 238.32699 116.182845 
L 238.523989 118.47334 
L 238.720989 89.673866 
L 239.311986 114.753545 
L 239.508985 121.330687 
L 239.705984 118.461397 
L 239.902983 113.232871 
L 240.099982 121.436172 
L 240.296981 118.505185 
L 240.493981 125.870105 
L 239.902983 90.144991 
L 240.69098 97.59461 
L 240.887979 104.234319 
L 241.281977 109.044875 
L 241.478976 115.26352 
L 241.675975 81.365286 
L 242.660971 123.546867 
L 243.251968 90.018906 
L 243.448967 92.590089 
L 243.645966 101.454938 
L 243.842966 100.133454 
L 244.039965 90.531159 
L 244.236964 100.06876 
L 244.630962 77.863517 
L 245.221959 101.180546 
L 245.418959 84.535738 
L 246.009956 110.132858 
L 246.403954 71.417493 
L 246.994951 100.044552 
L 247.191951 78.113603 
L 247.585949 98.550085 
L 247.782948 98.449979 
L 248.176946 117.543246 
L 248.373945 116.773027 
L 248.767944 77.53893 
L 248.964943 85.906853 
L 249.161942 75.522781 
L 249.55594 93.073949 
L 249.752939 77.072912 
L 249.949938 78.53533 
L 250.540936 102.983371 
L 250.737935 83.267848 
L 251.131933 103.618052 
L 251.525931 112.464209 
L 251.72293 110.98384 
L 252.116929 115.569909 
L 252.313928 103.889957 
L 252.510927 113.860382 
L 252.707926 93.763819 
L 252.904925 89.914524 
L 253.101924 90.425212 
L 253.298923 79.66626 
L 252.904925 85.94086 
L 253.495922 91.857217 
L 253.889921 106.969393 
L 254.08692 110.85365 
L 254.283919 117.642042 
L 254.677917 116.424635 
L 254.874916 122.826078 
L 255.071915 119.066052 
L 255.268914 94.385577 
L 255.662913 112.317837 
L 255.859912 98.230085 
L 256.056911 107.659062 
L 256.25391 111.29255 
L 256.450909 121.146335 
L 256.844907 116.593176 
L 257.041906 100.881749 
L 257.435905 111.464478 
L 257.632904 98.05346 
L 258.026902 109.282327 
L 258.4209 114.056239 
L 258.617899 112.678129 
L 258.814898 115.203026 
L 259.011898 113.462876 
L 259.208897 114.697815 
L 259.405896 123.055845 
L 259.602895 119.155907 
L 259.996893 129.283791 
L 260.390891 107.750395 
L 260.587891 78.876329 
L 260.981889 95.980806 
L 261.178888 105.151726 
L 260.981889 111.17558 
L 261.375887 113.418403 
L 261.769885 91.272361 
L 262.163883 99.934254 
L 261.769885 91.726591 
L 262.360883 99.149723 
L 262.95188 118.207203 
L 263.148879 106.40483 
L 263.542877 114.778019 
L 263.739876 115.395801 
L 263.936876 120.764829 
L 263.542877 118.223538 
L 263.936876 122.705554 
L 264.133875 131.253844 
L 264.330874 121.859342 
L 264.527873 126.389129 
L 264.724872 123.555942 
L 264.921871 99.94236 
L 265.315869 110.224276 
L 265.512868 112.862078 
L 265.709868 91.053611 
L 265.906867 100.702353 
L 266.103866 87.258385 
L 266.300865 96.385055 
L 266.497864 86.242383 
L 266.694863 96.621429 
L 266.891862 80.44636 
L 267.48286 107.469755 
L 267.876858 115.016078 
L 268.073857 120.860977 
L 268.467855 95.031339 
L 269.058853 121.998772 
L 269.255852 118.735805 
L 269.64985 89.866665 
L 269.846849 95.066567 
L 270.043848 103.694319 
L 270.240847 104.445717 
L 270.437846 111.40685 
L 270.634846 78.593868 
L 270.831845 79.352189 
L 271.225843 97.050953 
L 271.422842 100.611959 
L 271.619841 108.925444 
L 272.407838 120.563186 
L 272.604837 129.712608 
L 272.801836 124.856518 
L 272.998835 130.240189 
L 273.195834 125.047628 
L 273.392833 126.191268 
L 273.786831 123.545064 
L 273.983831 126.535849 
L 274.18083 100.243355 
L 274.574828 114.804751 
L 274.771827 115.409702 
L 274.968826 119.059538 
L 275.165825 105.937212 
L 275.559823 112.838033 
L 275.953822 130.440054 
L 276.150821 134.554505 
L 275.953822 138.227027 
L 276.741818 118.207785 
L 276.938817 119.613824 
L 277.135816 118.900039 
L 277.332816 118.706796 
L 277.529815 117.315936 
L 277.726814 99.229943 
L 277.923813 92.683308 
L 278.120812 65.021575 
L 278.51481 85.998109 
L 278.711809 82.800958 
L 279.499806 115.893531 
L 279.696805 93.107042 
L 280.287802 114.777054 
L 280.484801 115.395299 
L 280.8788 119.506605 
L 281.075799 113.856978 
L 281.272798 111.651188 
L 281.666796 125.004202 
L 281.469797 128.5557 
L 282.060794 118.353851 
L 282.257793 122.792297 
L 282.651792 92.357454 
L 283.04579 111.87607 
L 283.242789 108.204592 
L 283.439788 115.438188 
L 283.636787 98.813533 
L 283.242789 101.69596 
L 284.030786 111.397288 
L 284.424784 74.771434 
L 284.818782 97.947051 
L 285.409779 113.135803 
L 285.606778 114.519943 
L 285.803778 89.32324 
L 286.000777 88.99114 
L 286.197776 96.78046 
L 286.394775 86.344555 
L 286.591774 88.479161 
L 286.985772 106.492338 
L 287.182771 91.196651 
L 286.591774 96.686103 
L 287.379771 100.381716 
L 287.57677 91.998536 
L 287.773769 100.570037 
L 287.970768 87.230366 
L 288.364766 98.468562 
L 288.167767 108.626852 
L 288.561765 106.838945 
L 289.152763 119.271169 
L 289.349762 129.113375 
L 289.546761 131.608584 
L 289.74376 121.955621 
L 289.940759 99.758221 
L 290.334757 116.526485 
L 290.531756 116.280879 
L 290.728756 126.563295 
L 290.925755 90.179289 
L 291.122754 93.254703 
L 291.516752 106.633337 
L 291.713751 108.100028 
L 292.304748 116.978455 
L 292.501748 116.501693 
L 292.698747 128.833711 
L 292.895746 121.158845 
L 293.092745 99.660137 
L 293.486743 102.199717 
L 293.880741 115.446494 
L 294.077741 124.232916 
L 294.27474 96.902823 
L 294.668738 84.816636 
L 295.062736 105.227981 
L 295.259735 109.714405 
L 295.456734 95.436265 
L 295.653733 91.347454 
L 295.850733 97.818158 
L 296.047732 77.823305 
L 296.44173 94.48637 
L 296.638729 104.900195 
L 296.835728 103.084516 
L 297.032727 91.116299 
L 297.229726 100.899735 
L 297.426726 78.696323 
L 297.820724 89.07395 
L 298.214722 105.589009 
L 298.411721 111.505783 
L 298.60872 113.6082 
L 298.805719 121.500619 
L 299.396717 115.124921 
L 299.593716 116.145984 
L 299.987714 132.362403 
L 300.184713 122.154959 
L 300.381712 131.557122 
L 300.578711 91.779044 
L 300.775711 89.651513 
L 300.97271 97.317672 
L 301.169709 113.570899 
L 301.366708 114.756187 
L 301.563707 117.631261 
L 301.760706 93.913374 
L 301.957705 89.41791 
L 302.548703 109.841181 
L 302.942701 117.321147 
L 303.1397 97.812514 
L 303.336699 89.724872 
L 303.533698 105.558961 
L 303.730697 109.93431 
L 304.124695 109.762241 
L 304.321695 79.025055 
L 303.730697 88.4423 
L 304.518694 92.296054 
L 304.912692 76.930695 
L 305.109691 86.310106 
L 305.30669 104.290686 
L 305.503689 98.093245 
L 305.700688 108.282886 
L 305.897688 111.683431 
L 306.094687 91.966085 
L 306.488685 105.506629 
L 306.882683 104.211935 
L 307.079682 87.936129 
L 307.47368 105.873916 
L 307.67068 110.653299 
L 307.867679 118.682013 
L 308.064678 117.304597 
L 308.261677 119.113128 
L 308.064678 99.216107 
L 308.458676 86.932701 
L 308.852674 107.330764 
L 309.443672 116.974115 
L 309.640671 98.552632 
L 310.034669 110.991338 
L 310.428667 94.991917 
L 310.822665 99.3785 
L 311.216664 77.454166 
L 311.807661 101.801326 
L 312.398658 115.552168 
L 312.595658 108.425666 
L 313.186655 117.024683 
L 313.383654 126.166479 
L 313.580653 95.505125 
L 313.974651 111.253671 
L 314.17165 120.541254 
L 314.36865 92.760238 
L 315.156646 130.886625 
L 315.353645 121.757987 
L 315.747643 136.691969 
L 315.944643 69.242169 
L 316.141642 73.713297 
L 316.338641 84.400432 
L 316.53564 84.516443 
L 316.929638 104.179966 
L 317.126637 87.930498 
L 317.323636 83.559293 
L 317.520635 74.885313 
L 318.111633 103.430487 
L 318.308632 109.899457 
L 318.505631 110.538458 
L 318.70263 119.40984 
L 318.899629 117.633519 
L 318.70263 125.490839 
L 318.899629 120.059236 
L 319.096628 92.490285 
L 319.490627 111.027643 
L 319.884625 116.759933 
L 320.081624 116.395341 
L 320.278623 97.136678 
L 320.672621 114.143029 
L 320.86962 109.061225 
L 321.263619 113.980803 
L 321.854616 137.347854 
L 322.051615 108.448394 
L 322.248614 118.215444 
L 322.642613 89.653388 
L 322.839612 98.809845 
L 323.23361 133.790764 
L 323.430609 126.229083 
L 323.627608 127.055577 
L 323.824607 120.59365 
L 324.218605 126.572002 
L 324.415605 132.860878 
L 324.612604 122.282914 
L 325.006602 132.5147 
L 325.203601 122.194376 
L 325.4006 129.129189 
L 325.597599 121.248545 
L 325.794598 130.596508 
L 325.991598 109.798675 
L 326.188597 111.981532 
L 326.385596 115.90448 
L 326.582595 116.420083 
L 326.976593 116.133463 
L 327.173592 96.688351 
L 327.56759 111.523256 
L 327.76459 123.805722 
L 328.158588 133.894291 
L 328.355587 126.260876 
L 328.552586 125.949087 
L 328.749585 132.403102 
L 329.143583 114.731703 
L 329.340583 119.25158 
L 329.734581 97.77158 
L 329.93158 107.49129 
L 330.128579 108.912493 
L 330.325578 112.071983 
L 330.916575 129.744245 
L 331.310574 119.836629 
L 331.507573 118.509571 
L 331.901571 130.022053 
L 332.09857 129.68579 
L 332.295569 137.352301 
L 332.492568 123.305541 
L 332.689568 99.914642 
L 332.886567 100.809163 
L 333.083566 111.183387 
L 333.280565 107.869483 
L 333.477564 116.090994 
L 333.871562 118.420079 
L 334.068561 127.669779 
L 334.26556 79.784075 
L 334.659559 109.538305 
L 334.856558 127.295019 
L 335.053557 120.672334 
L 335.250556 118.184181 
L 335.447555 125.516664 
L 335.644554 121.81259 
L 335.841553 121.482568 
L 336.038553 118.524389 
L 336.235552 118.810192 
L 336.62955 117.363135 
L 336.826549 123.910242 
L 337.023548 117.666115 
L 337.220547 126.264422 
L 337.417546 99.894731 
L 338.008544 120.533341 
L 338.205543 117.047074 
L 338.402542 127.290784 
L 338.599541 90.213756 
L 339.584537 138.085881 
L 339.781536 129.503962 
L 339.978535 129.260822 
L 340.175534 137.701565 
L 340.372533 135.126232 
L 340.569532 141.201183 
L 340.766531 140.069499 
L 340.96353 123.820237 
L 341.357529 143.607414 
L 341.554528 124.388433 
L 341.751527 131.893999 
L 341.948526 125.620282 
L 342.145525 123.23079 
L 342.342524 131.025908 
L 342.539523 125.324647 
L 342.736523 135.280456 
L 342.933522 134.92671 
L 343.130521 104.926263 
L 343.32752 109.512581 
L 343.524519 119.293643 
L 343.721518 120.198616 
L 343.918517 116.487613 
L 344.312515 130.457467 
L 344.509515 100.949682 
L 344.903513 107.985672 
L 345.100512 97.250201 
L 345.297511 107.456678 
L 345.49451 97.115673 
L 345.691509 103.866356 
L 345.888508 87.874754 
L 346.085508 97.604106 
L 346.282507 114.180984 
L 346.479506 111.332786 
L 346.676505 94.214342 
L 346.873504 97.890251 
L 347.070503 109.198254 
L 347.267502 112.246348 
L 347.464501 121.615842 
L 347.6615 121.385945 
L 348.055499 102.689699 
L 348.252498 107.976899 
L 348.449497 116.640365 
L 348.646496 116.336825 
L 348.843495 118.562332 
L 349.040494 125.544725 
L 349.237493 79.731436 
L 349.434492 86.238319 
L 349.828491 108.874692 
L 350.02549 112.048825 
L 350.616487 139.744347 
L 350.813486 123.762423 
L 351.010485 129.788901 
L 351.207485 90.321071 
L 351.798482 114.594831 
L 351.995481 116.768646 
L 352.19248 109.958619 
L 352.389479 116.889502 
L 352.586478 116.458493 
L 352.783477 125.234684 
L 352.980477 123.064224 
L 353.177476 103.53775 
L 353.571474 121.248471 
L 353.768473 94.589828 
L 354.162471 113.821254 
L 354.55647 115.743973 
L 354.950468 115.96478 
L 355.147467 116.001887 
L 355.344466 98.909099 
L 355.541465 105.230527 
L 355.935463 125.675341 
L 356.132462 120.124094 
L 356.329462 129.680729 
L 356.72346 108.669303 
L 356.920459 109.185416 
L 357.314457 116.069275 
L 357.511456 116.054172 
L 357.708455 109.724234 
L 358.102454 116.276569 
L 358.299453 123.971725 
L 358.496452 119.506108 
L 358.693451 79.537551 
L 358.89045 84.423097 
L 359.087449 75.128029 
L 360.269444 132.561878 
L 360.466443 122.206528 
L 360.663442 120.803914 
L 361.05744 115.693982 
L 361.25444 115.03193 
L 361.648438 115.781128 
L 361.845437 105.899466 
L 362.239435 112.82333 
L 362.633433 94.209644 
L 363.027432 108.478114 
L 363.42143 114.68352 
L 363.815428 133.613287 
L 364.012427 129.309475 
L 364.209426 100.200767 
L 364.406425 107.394572 
L 364.603425 106.277511 
L 364.997423 86.350414 
L 365.391421 105.496002 
L 365.58842 109.8926 
L 365.785419 123.094517 
L 365.982418 89.992225 
L 366.967414 134.139996 
L 367.361412 139.308459 
L 367.558411 101.071855 
L 367.75541 111.412892 
L 367.95241 113.55498 
L 368.149409 124.102763 
L 368.346408 119.555176 
L 368.937405 139.564985 
L 369.134404 114.040027 
L 369.528402 130.590749 
L 369.725402 135.827046 
L 369.922401 135.233022 
L 370.316399 108.97884 
L 370.710397 127.161648 
L 370.907396 126.954356 
L 371.104395 90.198007 
L 371.301395 93.99543 
L 371.695393 113.321171 
L 371.892392 116.752678 
L 372.089391 114.598705 
L 372.28639 89.331042 
L 372.483389 97.552051 
L 372.680388 93.905989 
L 372.877387 77.449517 
L 373.271386 98.269655 
L 373.665384 108.578635 
L 373.862383 88.621179 
L 374.45338 116.152633 
L 374.65038 90.048006 
L 375.044378 104.663305 
L 375.241377 96.347053 
L 375.438376 106.26793 
L 375.635375 78.754834 
L 376.226372 106.764491 
L 376.620371 115.082825 
L 376.81737 109.88618 
L 377.014369 112.660974 
L 377.211368 119.863191 
L 377.408367 117.834152 
L 377.605366 118.638336 
L 377.802365 117.284591 
L 377.999365 98.91112 
L 378.196364 109.087853 
L 378.393363 112.179132 
L 378.590362 89.629714 
L 379.575357 131.330537 
L 379.772357 121.880293 
L 380.166355 133.667578 
L 380.363354 122.483615 
L 380.560353 124.448573 
L 380.757352 119.683431 
L 381.15135 136.68481 
L 381.34835 123.16768 
L 381.545349 131.039787 
L 381.742348 104.55013 
L 381.939347 105.979927 
L 382.333345 113.706175 
L 382.530344 114.829023 
L 382.924342 120.212597 
L 383.318341 116.982429 
L 383.51534 116.50362 
L 383.712339 118.658312 
L 383.909338 117.293745 
L 384.106337 118.744353 
L 384.500335 116.672667 
L 384.894334 116.195081 
L 385.091333 116.116887 
L 385.68233 135.124779 
L 385.879329 139.931147 
L 386.076328 127.875215 
L 386.273327 132.888935 
L 386.470327 141.294423 
L 386.667326 124.029302 
L 386.864325 122.528386 
L 387.061324 104.279356 
L 387.258323 109.075521 
L 387.455322 119.56751 
L 387.652321 117.703666 
L 387.84932 105.63496 
L 388.243319 121.851121 
L 388.440318 121.501418 
L 388.637317 100.292307 
L 388.834316 110.185261 
L 389.031315 114.357039 
L 389.228314 128.032191 
L 389.425313 131.19787 
L 389.622312 125.384074 
L 390.410309 117.532519 
L 390.607308 110.201292 
L 391.001306 114.362274 
L 391.395305 116.307284 
L 391.592304 105.3018 
L 391.789303 114.318613 
L 391.986302 112.331282 
L 392.3803 123.944442 
L 392.774298 116.499139 
L 392.971297 125.247339 
L 393.168297 123.069727 
L 393.365296 119.16131 
L 393.562295 109.718371 
L 393.759294 114.411887 
L 393.956293 111.661597 
L 394.153292 93.811996 
L 394.350291 87.973043 
L 394.54729 97.648425 
L 394.744289 113.705333 
L 394.941289 120.400504 
L 395.138288 89.708074 
L 395.532286 99.714637 
L 395.926284 88.358729 
L 396.123283 91.584134 
L 396.517282 101.024326 
L 396.714281 103.034909 
L 397.305278 115.729722 
L 397.502277 115.883635 
L 397.699276 119.90612 
L 397.896275 95.717761 
L 398.093274 100.056656 
L 398.487273 104.349253 
L 398.487273 104.349253 
" style="fill:none;stroke:#1f77b4;stroke-linecap:square;stroke-width:1.5;"/>
   </g>
   <g id="line2d_16">
    <path clip-path="url(#pc449c5ffe3)" d="M 73.832727 172.48371 
L 74.029726 176.557361 
L 73.832727 176.557361 
L 74.226726 182.686202 
L 74.423725 176.557361 
L 74.620724 175.041418 
L 74.817723 175.041418 
L 75.014722 167.667194 
L 75.211721 166.889584 
L 75.40872 162.177456 
L 75.211721 162.177456 
L 75.605719 162.177456 
L 75.802718 161.443527 
L 75.999718 162.436311 
L 76.393716 178.130281 
L 76.590715 178.130281 
L 76.787714 171.771423 
L 76.984713 171.17001 
L 77.181712 171.17001 
L 77.378711 171.771423 
L 77.77271 182.032062 
L 77.969709 182.032062 
L 78.166708 186.110593 
L 78.560706 186.118334 
L 79.151703 155.531144 
L 79.348703 155.531144 
L 79.545702 156.821338 
L 79.742701 181.524772 
L 79.9397 181.524772 
L 80.136699 184.12626 
L 80.333698 184.12626 
L 80.530697 185.48563 
L 80.727696 185.784898 
L 80.924695 195.562769 
L 81.121695 185.784898 
L 81.318694 185.48563 
L 81.515693 187.87362 
L 81.712692 177.959393 
L 81.909691 180.888616 
L 82.10669 177.519871 
L 82.303689 176.640901 
L 82.500688 176.640901 
L 82.697688 177.519871 
L 83.091686 149.025023 
L 83.288685 159.313359 
L 83.485684 149.025023 
L 83.682683 152.972626 
L 83.879682 161.537214 
L 84.076681 152.972626 
L 84.27368 152.972626 
L 84.47068 163.246883 
L 84.667679 163.246883 
L 84.864678 166.378875 
L 85.061677 166.378875 
L 85.258676 172.135052 
L 85.455675 172.135052 
L 85.652674 168.827869 
L 86.243672 168.827869 
L 86.440671 171.986837 
L 86.63767 181.223239 
L 86.834669 181.457555 
L 87.031668 182.198413 
L 87.228667 182.198413 
L 87.425666 181.457555 
L 87.622665 171.43707 
L 87.819665 171.43707 
L 88.016664 167.525293 
L 88.213663 171.43707 
L 88.410662 164.564626 
L 88.607661 164.438422 
L 88.80466 169.981644 
L 89.198658 169.981644 
L 89.395658 170.094881 
L 89.592657 171.43075 
L 89.789656 171.43075 
L 90.183654 166.785401 
L 90.380653 166.785401 
L 90.577652 172.038611 
L 90.97165 172.038611 
L 91.16865 162.177456 
L 91.562648 159.178738 
L 91.759647 160.495092 
L 91.956646 160.495092 
L 92.153645 154.160297 
L 92.350644 152.727795 
L 92.744643 152.727795 
L 92.941642 160.618936 
L 93.33564 160.618936 
L 93.532639 169.680206 
L 93.729638 169.680206 
L 93.926637 157.494757 
L 94.123636 165.814428 
L 94.320635 162.342123 
L 94.517635 165.309389 
L 94.714634 165.309389 
L 94.911633 163.296058 
L 95.305631 163.296058 
L 95.699629 173.142887 
L 95.896628 173.142887 
L 96.093628 178.270984 
L 96.290627 169.106761 
L 96.487626 169.268576 
L 96.684625 169.106761 
L 96.881624 160.199628 
L 97.275622 160.199628 
L 97.472621 162.582654 
L 97.66962 162.582654 
L 97.86662 154.51347 
L 98.063619 173.114149 
L 98.260618 168.621 
L 98.457617 168.621 
L 98.851615 178.228891 
L 99.048614 175.951928 
L 99.836611 175.951928 
L 100.03361 168.73503 
L 100.230609 182.165928 
L 100.427608 182.165928 
L 100.230609 182.165928 
L 100.624607 183.560813 
L 100.427608 183.560813 
L 100.821606 152.975232 
L 101.018605 155.505777 
L 101.412604 155.505777 
L 101.609603 155.89992 
L 101.806602 177.863482 
L 102.003601 164.9112 
L 102.2006 164.9112 
L 102.397599 173.918185 
L 102.2006 173.918185 
L 102.988597 173.918185 
L 103.185596 162.363721 
L 103.382595 161.933273 
L 103.579594 155.086563 
L 103.973592 155.086563 
L 104.170591 160.507628 
L 104.36759 162.177456 
L 104.56459 165.495616 
L 104.761589 165.495616 
L 105.155587 180.936516 
L 105.352586 174.989011 
L 105.549585 174.989011 
L 105.746584 151.191562 
L 106.337582 151.191562 
L 106.534581 156.725866 
L 106.73158 167.412008 
L 106.928579 184.40298 
L 107.125578 167.412008 
L 107.519576 167.412008 
L 107.716575 155.883801 
L 107.913575 170.440913 
L 108.307573 170.440913 
L 108.504572 173.151126 
L 108.701571 170.440913 
L 108.89857 173.151126 
L 109.292568 173.151126 
L 109.489568 159.06187 
L 109.686567 176.082438 
L 110.080565 176.082438 
L 109.883566 176.082438 
L 110.474563 157.346831 
L 110.671562 159.331556 
L 110.868561 159.331556 
L 111.459559 168.683649 
L 111.656558 170.902609 
L 112.050556 170.902609 
L 112.247555 172.726477 
L 112.444554 173.444633 
L 112.838553 173.444633 
L 113.035552 172.726477 
L 113.232551 154.381146 
L 113.42955 154.107299 
L 113.823548 154.107299 
L 114.020547 150.629219 
L 114.217546 150.629219 
L 114.414545 160.409024 
L 114.611545 160.409024 
L 114.808544 160.834458 
L 114.611545 160.409024 
L 115.005543 160.834458 
L 115.399541 160.834458 
L 115.59654 173.484627 
L 115.793539 160.719234 
L 116.384537 160.719234 
L 116.581536 161.52132 
L 116.778535 159.043982 
L 116.975534 137.818054 
L 117.172533 137.818054 
L 117.369532 138.311658 
L 117.566531 138.311658 
L 117.76353 149.025023 
L 117.96053 149.160162 
L 118.354528 172.610278 
L 118.551527 179.594578 
L 118.748526 179.594578 
L 118.945525 172.610278 
L 119.142524 179.594578 
L 119.339523 171.85023 
L 119.536523 171.455351 
L 119.733522 169.928156 
L 119.930521 169.928156 
L 120.324519 162.993936 
L 120.521518 162.816435 
L 120.718517 162.993936 
L 120.521518 162.993936 
L 120.915516 162.993936 
L 121.112515 176.740919 
L 121.900512 176.796522 
L 122.097511 181.115405 
L 122.29451 181.115405 
L 122.688508 172.662787 
L 123.082507 169.740934 
L 123.279506 169.740934 
L 123.476505 167.850388 
L 123.673504 167.850388 
L 123.870503 174.27216 
L 124.067502 176.916404 
L 124.264501 174.27216 
L 124.4615 176.916404 
L 124.6585 165.057434 
L 124.855499 165.057434 
L 125.052498 172.45996 
L 125.446496 172.45996 
L 125.643495 172.913829 
L 125.840494 172.913829 
L 126.037493 165.284802 
L 126.234492 170.218332 
L 126.431492 161.853267 
L 126.628491 161.571005 
L 126.82549 161.571005 
L 127.022489 161.853267 
L 127.219488 161.853267 
L 127.416487 168.233536 
L 127.613486 168.233536 
L 127.810485 173.716664 
L 128.007485 168.233536 
L 127.613486 160.357378 
L 128.204484 159.44373 
L 128.401483 159.53744 
L 128.598482 159.44373 
L 128.795481 154.961947 
L 128.99248 154.961947 
L 129.189479 154.139661 
L 129.386478 154.139661 
L 129.583477 161.685858 
L 129.780477 161.685858 
L 129.977476 160.792314 
L 130.371474 160.792314 
L 130.568473 140.226715 
L 130.765472 163.292012 
L 131.35647 163.292012 
L 131.553469 166.62079 
L 131.750468 166.62079 
L 131.947467 165.84166 
L 132.144466 168.642416 
L 132.341465 165.84166 
L 132.735463 165.84166 
L 133.129462 123.546911 
L 133.326461 140.359019 
L 133.52346 143.799405 
L 133.720459 143.799405 
L 133.917458 144.790849 
L 134.114457 163.189565 
L 134.311456 165.980887 
L 134.705455 165.980887 
L 134.902454 155.932107 
L 135.296452 155.932107 
L 135.493451 162.869827 
L 135.69045 175.887433 
L 135.887449 175.887433 
L 136.084448 165.343938 
L 136.675446 165.343938 
L 136.872445 165.938257 
L 137.266443 165.938257 
L 137.463442 166.504443 
L 137.660441 170.76822 
L 138.05444 170.76822 
L 138.251439 156.573943 
L 138.448438 156.573943 
L 138.645437 164.085311 
L 138.842436 166.383676 
L 139.039435 166.383676 
L 139.236434 164.085311 
L 139.433433 163.331196 
L 139.630432 153.259525 
L 139.827432 153.259525 
L 140.024431 163.331196 
L 140.22143 164.389045 
L 140.418429 179.025712 
L 140.812427 179.025712 
L 141.206425 164.854174 
L 141.600424 160.199628 
L 142.191421 160.199628 
L 142.38842 164.821555 
L 142.585419 165.290307 
L 142.782418 177.68468 
L 142.979417 177.68468 
L 143.176417 168.220281 
L 143.373416 177.68468 
L 143.767414 163.511286 
L 144.161412 163.511286 
L 144.358411 161.930598 
L 144.55541 161.930598 
L 144.75241 164.196201 
L 144.949409 164.196201 
L 145.146408 161.930598 
L 145.343407 174.113798 
L 145.540406 172.331245 
L 145.737405 161.107418 
L 145.934404 161.107418 
L 146.328402 155.393768 
L 146.9194 155.393768 
L 146.722401 143.97843 
L 147.116399 143.97843 
L 147.313398 140.999518 
L 147.510397 123.365681 
L 146.9194 123.365681 
L 148.101395 123.365681 
L 148.298394 139.916019 
L 148.495393 139.916019 
L 148.692392 143.39774 
L 148.889391 143.39774 
L 149.08639 151.973746 
L 149.283389 155.531144 
L 149.480388 155.940127 
L 149.677387 159.126958 
L 149.874387 159.126958 
L 150.071386 168.476728 
L 150.465384 168.476728 
L 150.662383 160.323841 
L 151.056381 160.323841 
L 151.45038 168.522902 
L 151.647379 168.522902 
L 152.041377 161.591217 
L 152.435375 159.402488 
L 152.632374 159.402488 
L 152.829373 160.087868 
L 153.026372 159.402488 
L 153.223372 159.402488 
L 153.420371 161.764541 
L 153.61737 162.603653 
L 153.814369 162.603653 
L 154.011368 163.86148 
L 154.208367 163.86148 
L 154.405366 156.209017 
L 154.602365 155.246313 
L 154.799365 138.549663 
L 155.193363 138.549663 
L 155.587361 144.271652 
L 155.78436 151.801268 
L 156.178358 145.357928 
L 156.375357 148.834237 
L 156.572357 148.834237 
L 156.769356 148.215696 
L 156.966355 145.357928 
L 157.163354 144.408798 
L 157.360353 144.408798 
L 157.557352 148.215696 
L 157.754351 154.426626 
L 157.95135 154.426626 
L 158.542348 151.925141 
L 158.14835 148.697929 
L 158.739347 148.697929 
L 158.936346 149.774507 
L 159.133345 149.774507 
L 159.330344 150.736395 
L 159.527343 150.736395 
L 159.724342 152.729392 
L 159.921342 152.729392 
L 160.118341 158.047736 
L 160.709338 159.815237 
L 160.906337 166.75877 
L 161.300335 166.75877 
L 161.497335 160.671988 
L 162.088332 158.548782 
L 162.48233 145.547019 
L 162.285331 142.364275 
L 162.679329 142.364275 
L 162.876328 145.547019 
L 163.073327 138.704181 
L 163.270327 147.574055 
L 163.467326 147.574055 
L 163.664325 155.39097 
L 164.255322 155.39097 
L 164.452321 159.585148 
L 164.64932 159.585148 
L 164.84632 159.904351 
L 165.043319 159.904351 
L 164.64932 159.284774 
L 165.240318 151.19026 
L 165.437317 146.695946 
L 165.634316 146.695946 
L 165.831315 151.026295 
L 166.028314 151.19026 
L 166.422312 156.672787 
L 166.619312 159.144682 
L 166.816311 167.157036 
L 167.01331 167.157036 
L 167.210309 163.344091 
L 167.407308 163.344091 
L 167.604307 162.469188 
L 167.801306 163.100543 
L 167.998305 162.469188 
L 168.195305 162.469188 
L 168.392304 166.415823 
L 168.589303 166.415823 
L 168.786302 168.163754 
L 168.983301 159.424441 
L 169.1803 157.948131 
L 169.377299 157.509713 
L 169.574298 157.948131 
L 169.771297 157.05389 
L 169.968297 158.455193 
L 170.165296 157.135676 
L 170.362295 158.425337 
L 171.150291 158.425337 
L 171.34729 159.646976 
L 171.544289 159.646976 
L 171.741289 160.586517 
L 171.938288 159.646976 
L 172.135287 159.646976 
L 172.726284 147.310286 
L 172.923283 149.802518 
L 173.120282 149.802518 
L 173.317282 164.064662 
L 173.71128 164.064662 
L 173.908279 160.860986 
L 174.105278 160.255533 
L 174.302277 158.968929 
L 174.696275 158.866171 
L 174.893274 158.866171 
L 175.090274 156.775081 
L 175.287273 165.069773 
L 175.484272 165.069773 
L 175.681271 164.296873 
L 175.87827 153.251128 
L 176.075269 154.923504 
L 175.87827 154.923504 
L 176.272268 154.923504 
L 176.469267 156.207682 
L 176.863266 156.207682 
L 177.060265 159.23784 
L 177.257264 156.022255 
L 177.454263 156.022255 
L 177.651262 165.987078 
L 177.848261 165.987078 
L 178.04526 160.621732 
L 178.242259 161.74033 
L 178.439259 160.621732 
L 178.636258 157.822355 
L 178.833257 157.822355 
L 179.030256 162.504571 
L 179.621253 162.504571 
L 179.818252 161.623379 
L 180.015252 161.623379 
L 180.40925 163.520949 
L 180.606249 162.781764 
L 181.000247 162.781764 
L 181.197246 158.11811 
L 181.394245 157.006752 
L 181.788244 157.006752 
L 181.985243 145.123673 
L 182.182242 157.74569 
L 182.773239 157.74569 
L 182.970238 158.747767 
L 183.167237 150.077457 
L 183.364237 153.879751 
L 183.561236 153.879751 
L 183.758235 150.077457 
L 183.955234 150.077457 
L 184.152233 153.879751 
L 184.349232 160.605578 
L 184.546231 162.158315 
L 184.74323 162.158315 
L 184.940229 160.605578 
L 185.137229 160.605578 
L 185.334228 162.158315 
L 185.531227 164.865956 
L 185.728226 164.865956 
L 185.925225 166.753443 
L 186.516222 161.818282 
L 186.713222 162.204353 
L 187.10722 162.204353 
L 187.304219 161.818282 
L 187.895216 161.813019 
L 188.092215 165.349669 
L 188.289214 165.569016 
L 188.486214 165.569016 
L 188.683213 165.349669 
L 188.880212 162.986201 
L 189.077211 162.204353 
L 189.471209 162.204353 
L 189.668208 159.450769 
L 189.865207 159.450769 
L 190.062207 158.860066 
L 189.865207 156.716398 
L 190.456205 156.716398 
L 190.653204 158.834378 
L 190.850203 158.861322 
L 191.047202 159.717474 
L 191.835199 159.717474 
L 192.032198 163.654354 
L 192.229197 163.654354 
L 192.426196 162.728244 
L 192.623195 162.728244 
L 192.820194 163.654354 
L 193.017193 169.735757 
L 193.214192 169.735757 
L 193.411192 172.820628 
L 193.214192 172.820628 
L 193.608191 169.735757 
L 193.80519 169.513233 
L 194.002189 150.936682 
L 194.199188 149.9257 
L 194.593186 149.9257 
L 194.987184 148.44767 
L 195.184184 158.782382 
L 195.381183 155.671871 
L 195.578182 155.671871 
L 195.775181 158.816822 
L 195.97218 163.860011 
L 196.169179 164.865956 
L 196.563177 164.865956 
L 196.957176 152.389592 
L 197.154175 149.927743 
L 197.351174 149.505287 
L 197.548173 149.927743 
L 197.745172 148.790456 
L 197.942171 149.927743 
L 198.13917 154.393382 
L 198.336169 155.625787 
L 198.730168 155.625787 
L 198.927167 155.358069 
L 199.124166 155.625787 
L 199.321165 156.412891 
L 199.518164 155.358069 
L 199.715163 155.358069 
L 199.912162 157.656487 
L 200.109162 158.086469 
L 200.306161 154.403729 
L 200.50316 156.10538 
L 200.700159 163.880349 
L 200.897158 161.754832 
L 201.094157 161.754832 
L 201.291156 163.880349 
L 201.094157 164.216305 
L 201.488155 161.754832 
L 201.685154 157.154826 
L 201.882154 157.154826 
L 202.276152 150.399446 
L 202.473151 153.879751 
L 202.67015 153.879751 
L 202.867149 156.363062 
L 203.064148 156.363062 
L 203.261147 157.467468 
L 203.458147 157.467468 
L 203.655146 154.875959 
L 203.852145 154.678858 
L 204.049144 154.875959 
L 204.246143 154.875959 
L 204.640141 168.264152 
L 204.83714 168.264152 
L 205.034139 164.505389 
L 205.231139 173.14536 
L 205.625137 157.020557 
L 205.822136 161.00881 
L 206.019135 160.644598 
L 206.610132 160.644598 
L 206.807132 157.50791 
L 207.004131 157.50791 
L 207.20113 156.69663 
L 207.398129 156.69663 
L 207.595128 158.275305 
L 207.989126 164.326964 
L 208.186125 164.326964 
L 208.383124 162.509904 
L 208.580124 162.370866 
L 208.777123 156.82241 
L 208.974122 155.938131 
L 209.171121 150.166994 
L 209.565119 150.166994 
L 209.762118 154.624856 
L 209.959117 154.624856 
L 210.156117 172.366442 
L 210.353116 172.366442 
L 210.550115 158.343508 
L 210.747114 158.115835 
L 210.944113 158.115835 
L 211.141112 156.635153 
L 211.338111 157.953861 
L 211.53511 157.953861 
L 211.732109 152.457462 
L 211.929109 157.953861 
L 212.126108 157.953861 
L 212.323107 163.516148 
L 212.520106 152.457462 
L 212.717105 163.516148 
L 212.914104 157.181947 
L 213.111103 157.181947 
L 213.308102 159.85957 
L 213.702101 159.85957 
L 213.8991 158.860066 
L 214.293098 167.669932 
L 214.490097 167.669932 
L 214.687096 160.535398 
L 214.884095 157.840281 
L 215.081094 157.698012 
L 215.278094 157.698012 
L 215.081094 157.698012 
L 215.475093 160.204041 
L 215.672092 160.204041 
L 215.869091 161.732853 
L 216.06609 160.204041 
L 216.263089 160.204041 
L 216.460088 161.239038 
L 216.657087 163.273063 
L 216.854086 167.234966 
L 217.051086 167.234966 
L 217.248085 161.239038 
L 217.445084 165.577087 
L 217.642083 158.353582 
L 218.036081 158.353582 
L 218.23308 159.969542 
L 218.430079 151.877517 
L 218.627079 159.969542 
L 218.824078 149.57803 
L 219.021077 149.57803 
L 219.218076 155.641868 
L 219.809073 155.641868 
L 220.006072 156.412891 
L 220.400071 152.415003 
L 220.59707 154.230155 
L 220.794069 152.415003 
L 220.991068 148.505144 
L 221.582065 148.44767 
L 221.779064 148.44767 
L 221.582065 148.44767 
L 221.976064 151.617396 
L 222.173063 146.430087 
L 222.370062 151.617396 
L 222.567061 151.617396 
L 222.961059 155.938131 
L 223.158058 162.681364 
L 223.355057 162.681364 
L 223.552056 163.00489 
L 223.749056 163.00489 
L 223.946055 162.015077 
L 224.143054 164.047602 
L 224.340053 164.047602 
L 224.537052 162.723081 
L 224.734051 150.136604 
L 224.93105 162.723081 
L 224.734051 150.136604 
L 225.128049 149.025023 
L 225.719047 149.025023 
L 225.916046 149.721758 
L 225.719047 152.208782 
L 226.310044 152.208782 
L 226.507043 145.488284 
L 226.901041 145.488284 
L 227.098041 147.392241 
L 227.886037 147.392241 
L 228.083036 145.750157 
L 228.280035 156.906467 
L 228.477034 156.906467 
L 228.674034 145.750157 
L 228.871033 145.750157 
L 229.068032 141.032654 
L 229.265031 139.848612 
L 229.46203 141.032654 
L 229.659029 146.650685 
L 229.856028 149.025023 
L 230.053027 149.025023 
L 230.250026 152.352386 
L 231.038023 152.352386 
L 231.235022 156.763274 
L 231.432021 149.758301 
L 231.62902 148.44767 
L 231.826019 149.758301 
L 232.023019 149.758301 
L 232.220018 155.153094 
L 232.417017 157.420942 
L 232.614016 157.420942 
L 232.811015 164.320107 
L 233.008014 176.349074 
L 233.205013 176.349074 
L 233.402012 159.111336 
L 233.599011 159.111336 
L 233.796011 157.36906 
L 234.190009 146.83534 
L 234.387008 145.347454 
L 234.584007 145.347454 
L 234.781006 146.83534 
L 234.978005 175.384678 
L 235.175004 175.384678 
L 235.372004 170.353976 
L 235.569003 148.618225 
L 235.766002 148.44767 
L 236.16 148.44767 
L 236.356999 148.618225 
L 236.553998 146.041552 
L 236.750997 150.309448 
L 236.947996 151.248866 
L 237.144996 154.137971 
L 237.538994 154.137971 
L 237.341995 149.86475 
L 237.735993 149.035808 
L 237.932992 149.035808 
L 238.129991 148.77767 
L 238.32699 149.035808 
L 238.523989 159.337458 
L 239.705984 159.398026 
L 239.902983 159.933023 
L 240.099982 159.933023 
L 240.296981 156.476785 
L 240.493981 159.933023 
L 239.902983 159.933023 
L 240.69098 156.476785 
L 240.887979 159.110875 
L 241.084978 175.356001 
L 241.281977 159.110875 
L 241.478976 156.11368 
L 242.069974 156.11368 
L 242.266973 156.547498 
L 242.660971 161.294328 
L 243.054969 168.605911 
L 243.251968 164.865956 
L 243.448967 252.969617 
L 243.645966 171.558729 
L 243.842966 162.220071 
L 244.039965 165.974006 
L 244.236964 162.220071 
L 244.630962 162.220071 
L 244.827961 161.658347 
L 245.02496 159.404847 
L 245.221959 154.764296 
L 245.615958 154.764296 
L 245.812957 156.652584 
L 246.009956 156.652584 
L 246.206955 156.831199 
L 246.403954 156.831199 
L 246.797952 159.064241 
L 247.191951 154.771336 
L 247.38895 158.860066 
L 247.585949 158.860066 
L 247.979947 150.854464 
L 248.176946 158.860066 
L 248.373945 150.854464 
L 248.570944 150.854464 
L 248.767944 155.371465 
L 248.964943 156.844454 
L 249.161942 155.371465 
L 249.752939 158.969263 
L 249.949938 157.622313 
L 250.146937 157.622313 
L 250.343936 151.473214 
L 250.540936 130.321064 
L 250.737935 130.321064 
L 250.934934 127.848929 
L 251.328932 150.593344 
L 251.525931 150.593344 
L 251.72293 151.518546 
L 251.919929 151.518546 
L 252.116929 158.649428 
L 252.313928 156.10438 
L 252.510927 157.6654 
L 252.707926 156.10438 
L 252.904925 156.10438 
L 253.101924 154.062054 
L 253.298923 154.062054 
L 252.904925 150.834224 
L 253.495922 150.834224 
L 253.692921 162.74043 
L 254.283919 162.74043 
L 254.480918 151.030593 
L 254.677917 150.765928 
L 255.071915 150.765928 
L 255.268914 152.348558 
L 255.465914 152.348558 
L 255.662913 153.045419 
L 255.859912 152.348558 
L 256.056911 152.348558 
L 256.25391 153.508621 
L 256.450909 153.89434 
L 256.844907 153.89434 
L 257.041906 157.137827 
L 257.238906 157.137827 
L 257.435905 157.527924 
L 257.632904 159.579111 
L 258.223901 159.579111 
L 258.4209 155.531144 
L 258.617899 157.27018 
L 259.011898 157.27018 
L 259.208897 157.447685 
L 259.405896 161.213464 
L 259.602895 157.447685 
L 259.996893 157.447685 
L 260.193892 157.000486 
L 259.996893 157.000486 
L 260.390891 153.343251 
L 260.78489 153.343251 
L 260.981889 161.028436 
L 261.178888 160.009243 
L 260.981889 160.009243 
L 261.375887 160.009243 
L 261.572886 154.420386 
L 261.769885 152.75246 
L 262.163883 152.75246 
L 261.769885 154.412951 
L 262.360883 161.879165 
L 262.557882 154.412951 
L 262.754881 151.62688 
L 263.148879 151.62688 
L 263.345878 163.408747 
L 263.542877 163.408747 
L 263.739876 163.922528 
L 263.936876 163.408747 
L 263.542877 163.922528 
L 263.936876 159.776363 
L 264.133875 162.312608 
L 264.330874 154.327201 
L 264.527873 162.312608 
L 264.724872 152.168393 
L 264.921871 162.312608 
L 266.300865 162.272578 
L 266.497864 157.54935 
L 266.694863 157.54935 
L 266.891862 156.915612 
L 267.088861 156.915612 
L 267.285861 160.411343 
L 267.48286 160.411343 
L 267.679859 165.867202 
L 267.876858 160.411343 
L 268.073857 165.867202 
L 268.270856 158.847784 
L 268.467855 161.911818 
L 268.664854 157.717129 
L 268.861853 161.911818 
L 269.058853 161.911818 
L 269.64985 152.096655 
L 269.846849 152.096655 
L 270.043848 157.392457 
L 270.240847 156.873616 
L 270.437846 156.873616 
L 270.634846 161.090541 
L 270.831845 161.090541 
L 271.028844 156.873616 
L 271.225843 158.470121 
L 271.619841 158.470121 
L 271.81684 156.480259 
L 272.013839 158.470121 
L 272.210838 167.049609 
L 272.407838 167.60432 
L 272.604837 167.049609 
L 272.801836 166.95047 
L 272.998835 166.532306 
L 273.195834 166.532306 
L 273.392833 164.828956 
L 273.589832 191.532261 
L 273.786831 295.488 
L 273.983831 295.488 
L 274.18083 171.272911 
L 274.377829 160.773267 
L 274.574828 160.381931 
L 274.771827 160.381931 
L 274.968826 160.773267 
L 275.165825 160.773267 
L 275.362824 160.381931 
L 275.559823 162.280092 
L 275.756823 174.347979 
L 275.953822 177.615288 
L 276.150821 174.347979 
L 275.953822 174.347979 
L 276.34782 158.813102 
L 276.544819 158.813102 
L 276.741818 153.508621 
L 276.938817 155.286628 
L 277.135816 158.595813 
L 277.332816 155.286628 
L 277.529815 155.286628 
L 277.726814 154.240996 
L 277.923813 149.628694 
L 278.51481 149.57803 
L 278.711809 161.671403 
L 278.908808 131.806638 
L 279.105808 165.861277 
L 279.499806 153.702888 
L 279.696805 153.702888 
L 279.893804 158.233189 
L 280.090803 158.233189 
L 280.287802 161.117029 
L 280.484801 161.117029 
L 280.681801 162.406701 
L 280.8788 161.117029 
L 281.075799 158.235934 
L 281.666796 158.235934 
L 281.469797 160.747033 
L 281.863795 161.338703 
L 282.060794 161.338703 
L 282.257793 162.233942 
L 282.454793 161.338703 
L 282.651792 163.657877 
L 282.848791 160.544466 
L 283.04579 160.544466 
L 283.242789 172.651476 
L 283.439788 159.06447 
L 283.636787 162.204353 
L 283.833786 172.651476 
L 283.242789 162.204353 
L 284.030786 162.204353 
L 284.227785 177.968739 
L 284.621783 177.968739 
L 284.818782 166.685958 
L 285.409779 166.685958 
L 285.606778 165.907882 
L 285.803778 154.420386 
L 286.000777 153.879751 
L 286.197776 154.420386 
L 286.394775 154.420386 
L 286.788773 161.095433 
L 286.985772 157.059435 
L 287.182771 157.059435 
L 286.591774 157.059435 
L 287.379771 152.531318 
L 287.57677 152.531318 
L 287.773769 159.696389 
L 287.970768 152.531318 
L 288.167767 152.649665 
L 288.364766 157.414808 
L 288.167767 157.414808 
L 288.561765 157.414808 
L 288.758764 164.679693 
L 289.546761 164.679693 
L 289.74376 164.43331 
L 289.940759 167.218604 
L 290.137758 164.43331 
L 290.334757 164.43331 
L 290.531756 157.059358 
L 290.728756 167.455657 
L 290.925755 167.455657 
L 291.122754 163.292027 
L 291.319753 163.292027 
L 291.516752 155.653356 
L 291.713751 156.19477 
L 291.91075 156.19477 
L 292.107749 145.433615 
L 292.304748 151.358742 
L 292.501748 151.358742 
L 292.698747 159.860605 
L 292.895746 162.176669 
L 293.092745 162.176669 
L 293.289744 162.675845 
L 293.486743 162.675845 
L 293.683742 162.262827 
L 293.880741 160.175834 
L 294.27474 160.175834 
L 294.471739 161.175769 
L 294.27474 166.460353 
L 294.668738 167.463879 
L 294.865737 173.618651 
L 295.062736 167.463879 
L 295.259735 165.443389 
L 295.456734 156.209806 
L 295.653733 156.209806 
L 295.850733 162.518885 
L 296.244731 162.518885 
L 296.44173 166.931677 
L 296.638729 158.661905 
L 297.032727 158.661905 
L 297.229726 160.015168 
L 297.426726 160.015168 
L 297.623725 169.705899 
L 297.820724 169.705899 
L 298.017723 162.488207 
L 298.214722 162.488207 
L 298.411721 161.432783 
L 298.60872 156.759686 
L 299.002718 156.849036 
L 299.199718 162.518813 
L 299.396717 162.518813 
L 299.593716 158.455193 
L 299.987714 158.455193 
L 300.184713 157.909082 
L 300.578711 157.909082 
L 300.775711 150.170753 
L 300.97271 161.668759 
L 301.366708 161.668759 
L 301.563707 160.621732 
L 301.760706 156.567984 
L 302.548703 156.567984 
L 302.745702 161.835672 
L 302.942701 160.046063 
L 303.1397 156.202621 
L 303.336699 156.202621 
L 303.533698 155.364428 
L 303.730697 155.364428 
L 303.927696 161.152254 
L 304.124695 156.567984 
L 304.321695 158.727171 
L 303.730697 156.567984 
L 304.912692 156.567984 
L 305.109691 151.056101 
L 305.30669 156.567984 
L 305.503689 151.292585 
L 305.700688 151.292585 
L 305.897688 155.902097 
L 306.094687 157.723083 
L 306.488685 157.723083 
L 306.685684 158.490844 
L 306.882683 166.452945 
L 307.079682 158.490844 
L 307.276681 166.452945 
L 307.47368 162.712469 
L 307.67068 156.770564 
L 307.867679 160.181077 
L 308.064678 157.18667 
L 308.261677 160.181077 
L 308.064678 160.181077 
L 308.655675 164.993836 
L 309.049673 164.993836 
L 309.246673 173.781317 
L 309.443672 156.384039 
L 309.640671 162.177456 
L 309.83767 154.403238 
L 310.034669 152.667216 
L 310.231668 149.905315 
L 310.428667 153.007866 
L 310.822665 114.396857 
L 311.216664 114.396857 
L 311.413663 139.690763 
L 312.201659 157.694715 
L 312.398658 157.694715 
L 312.595658 163.787345 
L 312.792657 162.311479 
L 313.580653 162.311479 
L 313.777652 162.125107 
L 313.974651 155.381899 
L 314.565649 155.381899 
L 314.762648 151.833728 
L 315.156646 163.54265 
L 315.550644 167.835211 
L 316.141642 167.835211 
L 316.338641 157.927609 
L 316.53564 157.394462 
L 317.126637 157.394462 
L 317.323636 155.204604 
L 317.520635 159.036689 
L 317.717635 160.506144 
L 317.914634 160.732871 
L 318.111633 162.403669 
L 318.70263 162.403669 
L 318.899629 165.240864 
L 318.70263 166.318663 
L 319.096628 166.318663 
L 319.293628 164.726313 
L 319.490627 157.711888 
L 319.687626 157.711888 
L 320.081624 155.709428 
L 320.278623 155.709428 
L 320.475622 156.083151 
L 320.672621 156.083151 
L 320.86962 156.571833 
L 321.460618 164.182874 
L 321.657617 164.182874 
L 321.854616 166.98122 
L 322.248614 156.567984 
L 322.642613 179.66331 
L 322.839612 179.66331 
L 323.627608 160.770736 
L 323.824607 167.309538 
L 324.021606 168.924203 
L 324.218605 166.924226 
L 324.415605 166.924226 
L 324.612604 163.169208 
L 324.809603 163.169208 
L 325.006602 158.99272 
L 325.203601 157.644206 
L 325.4006 157.644206 
L 325.597599 164.835765 
L 325.794598 164.835765 
L 325.991598 166.632714 
L 326.385596 166.654717 
L 326.582595 157.154088 
L 326.779594 159.45056 
L 327.370591 159.45056 
L 327.56759 158.077556 
L 328.355587 158.077556 
L 328.552586 162.171842 
L 328.749585 162.171842 
L 328.946584 175.633996 
L 329.143583 162.171842 
L 329.340583 162.709628 
L 329.537582 166.017424 
L 330.128579 166.017424 
L 330.325578 163.402405 
L 330.522577 157.317727 
L 330.719576 156.391145 
L 330.916575 157.317727 
L 332.492568 157.271666 
L 332.689568 166.592234 
L 332.886567 166.592234 
L 333.083566 167.546873 
L 333.280565 167.034689 
L 333.477564 167.546873 
L 333.674563 188.084154 
L 333.871562 188.084154 
L 334.068561 295.488 
L 334.26556 179.859368 
L 335.250556 179.92803 
L 335.447555 179.322257 
L 335.644554 177.794735 
L 335.841553 177.794735 
L 336.038553 164.3594 
L 336.235552 160.57401 
L 336.432551 160.57401 
L 336.62955 161.872229 
L 336.826549 161.872229 
L 337.023548 170.471192 
L 337.614545 170.471192 
L 337.811545 168.333508 
L 338.008544 168.333508 
L 338.205543 187.690122 
L 338.402542 191.296643 
L 338.599541 191.937275 
L 338.79654 192.040956 
L 338.993539 191.937275 
L 339.190538 178.380945 
L 339.584537 178.380945 
L 339.781536 184.413586 
L 340.175534 184.413586 
L 340.372533 182.944508 
L 340.569532 175.497064 
L 340.766531 182.944508 
L 340.96353 171.772925 
L 341.16053 219.037641 
L 341.357529 184.533049 
L 341.554528 191.341646 
L 341.751527 184.533049 
L 341.948526 184.533049 
L 342.145525 174.066362 
L 342.342524 174.066362 
L 342.539523 164.689625 
L 343.130521 188.460583 
L 343.32752 183.007147 
L 343.524519 183.007147 
L 343.721518 180.12112 
L 343.918517 166.25063 
L 344.115516 166.25063 
L 344.312515 178.258094 
L 344.509515 166.25063 
L 344.706514 178.258094 
L 344.903513 178.258094 
L 345.297511 161.181783 
L 345.888508 177.64971 
L 346.085508 177.64971 
L 346.479506 158.173214 
L 346.676505 168.20627 
L 346.873504 157.146209 
L 347.070503 155.111147 
L 347.267502 155.111147 
L 347.464501 160.882909 
L 347.6615 160.882909 
L 347.8585 167.45788 
L 348.055499 167.45788 
L 348.252498 159.689535 
L 348.449497 158.833248 
L 348.646496 159.689535 
L 348.843495 159.689535 
L 349.040494 164.865956 
L 349.434492 164.865956 
L 349.828491 181.393027 
L 350.02549 184.128702 
L 350.222489 184.128702 
L 350.419488 186.500359 
L 350.616487 190.263204 
L 350.813486 186.500359 
L 351.010485 190.263204 
L 351.207485 190.263204 
L 351.404484 163.186039 
L 351.601483 161.994534 
L 351.798482 161.994534 
L 351.995481 167.723068 
L 352.19248 167.723068 
L 352.389479 169.740531 
L 352.586478 173.301803 
L 352.980477 173.301803 
L 353.177476 172.885459 
L 353.374475 170.322342 
L 353.571474 172.885459 
L 353.768473 170.322342 
L 353.965472 170.322342 
L 354.162471 167.238356 
L 354.35947 171.843441 
L 354.55647 171.843441 
L 354.753469 175.349763 
L 355.147467 167.278671 
L 355.344466 165.698087 
L 355.935463 165.698087 
L 356.132462 165.965968 
L 356.329462 174.521003 
L 356.526461 177.939943 
L 357.117458 177.939943 
L 357.314457 176.132719 
L 357.511456 160.346135 
L 357.708455 160.346135 
L 357.905455 160.074708 
L 358.299453 160.074708 
L 358.496452 156.426149 
L 359.087449 156.426149 
L 359.284448 162.732768 
L 359.481447 163.883451 
L 359.678447 166.418279 
L 359.875446 166.418279 
L 360.072445 166.605253 
L 360.269444 172.412642 
L 360.466443 172.412642 
L 360.663442 179.435384 
L 360.860441 172.412642 
L 361.05744 172.412642 
L 361.25444 174.708469 
L 361.451439 175.399942 
L 361.648438 174.708469 
L 361.845437 175.399942 
L 362.042436 181.449465 
L 362.239435 181.449465 
L 362.436434 182.216866 
L 362.633433 178.452846 
L 362.830432 177.41877 
L 363.027432 168.559385 
L 363.224431 168.559385 
L 363.42143 167.936715 
L 363.618429 162.3646 
L 363.815428 162.3646 
L 364.012427 160.735558 
L 364.209426 161.306355 
L 364.406425 160.33507 
L 364.603425 161.306355 
L 364.800424 161.306355 
L 364.997423 160.33507 
L 365.194422 160.33507 
L 365.391421 165.258863 
L 365.58842 166.400674 
L 365.785419 170.624539 
L 366.179417 170.306184 
L 366.376417 175.449837 
L 366.573416 170.306184 
L 366.770415 170.306184 
L 367.164413 181.853781 
L 367.558411 181.853781 
L 367.75541 179.759059 
L 367.95241 179.37648 
L 368.346408 179.37648 
L 368.543407 190.529551 
L 368.740406 190.529551 
L 368.937405 176.796737 
L 369.134404 176.796737 
L 369.331403 168.875062 
L 369.528402 168.875062 
L 369.725402 170.232722 
L 369.922401 164.973566 
L 370.513398 164.973566 
L 370.710397 166.495865 
L 370.907396 176.874582 
L 371.104395 176.874582 
L 371.301395 184.287503 
L 371.498394 184.287503 
L 371.695393 163.183657 
L 371.892392 162.235509 
L 372.089391 162.235509 
L 372.28639 152.08396 
L 372.483389 151.898241 
L 372.680388 151.898241 
L 372.877387 153.919661 
L 373.074387 153.919661 
L 373.271386 157.373942 
L 373.468385 164.623413 
L 373.665384 166.901142 
L 373.862383 164.623413 
L 374.059382 157.373942 
L 374.256381 178.3421 
L 374.45338 161.187896 
L 374.65038 161.187896 
L 374.847379 168.208892 
L 375.044378 168.208892 
L 375.241377 167.06014 
L 375.832374 167.06014 
L 376.029373 166.391468 
L 376.226372 164.865956 
L 376.423372 166.391468 
L 376.620371 169.790253 
L 377.211368 169.790253 
L 377.605366 155.038573 
L 377.999365 155.038573 
L 378.196364 156.906283 
L 378.393363 156.906283 
L 378.590362 175.043595 
L 378.787361 175.043595 
L 378.98436 183.70491 
L 379.181359 183.70491 
L 379.378358 170.819069 
L 379.575357 168.532941 
L 379.772357 159.517735 
L 379.969356 159.331735 
L 380.166355 156.873616 
L 380.363354 156.873616 
L 380.560353 166.376772 
L 380.757352 166.376772 
L 381.15135 184.242848 
L 381.34835 184.242848 
L 381.545349 177.465382 
L 381.742348 177.465382 
L 381.939347 161.825133 
L 382.136346 164.479878 
L 382.530344 164.479878 
L 382.727343 168.211379 
L 383.318341 168.191365 
L 383.51534 167.058818 
L 383.712339 159.606327 
L 383.909338 159.606327 
L 384.106337 163.692538 
L 384.303336 159.788398 
L 384.500335 159.788398 
L 384.697335 158.752755 
L 384.894334 158.752755 
L 385.091333 157.92781 
L 385.288332 157.92781 
L 385.485331 161.808354 
L 385.68233 161.808354 
L 385.879329 160.644648 
L 386.273327 160.644648 
L 386.470327 162.374934 
L 386.667326 162.374934 
L 386.864325 168.009639 
L 387.061324 165.16184 
L 387.455322 165.16184 
L 387.652321 174.012236 
L 387.84932 174.012236 
L 388.04632 178.865071 
L 388.243319 178.865071 
L 388.440318 166.292165 
L 388.637317 164.619097 
L 388.834316 164.619097 
L 389.031315 171.10476 
L 389.228314 171.10476 
L 389.425313 158.265965 
L 389.622312 158.265965 
L 389.819312 156.873616 
L 390.016311 158.265965 
L 390.21331 162.25332 
L 390.410309 169.069569 
L 390.607308 169.964633 
L 390.804307 169.964633 
L 391.001306 169.069569 
L 391.198305 166.07392 
L 391.592304 166.07392 
L 391.986302 172.893618 
L 392.183301 169.542792 
L 392.3803 170.914186 
L 392.774298 170.914186 
L 392.971297 171.053089 
L 393.168297 171.053089 
L 393.365296 173.862593 
L 393.562295 173.862593 
L 393.759294 170.938312 
L 393.956293 163.306096 
L 394.54729 163.306096 
L 394.744289 157.925825 
L 394.941289 171.840631 
L 395.532286 171.840631 
L 395.729285 158.781425 
L 396.320282 158.781425 
L 396.517282 151.189342 
L 396.714281 151.189342 
L 396.91128 154.212759 
L 397.108279 154.212759 
L 397.502277 156.262118 
L 397.699276 163.738713 
L 398.093274 163.738713 
L 398.290274 170.236369 
L 398.487273 182.882232 
L 398.487273 182.882232 
" style="fill:none;stroke:#ff7f0e;stroke-linecap:square;stroke-width:1.5;"/>
   </g>
   <g id="patch_3">
    <path d="M 57.6 307.584 
L 57.6 41.472 
" style="fill:none;stroke:#000000;stroke-linecap:square;stroke-linejoin:miter;stroke-width:0.8;"/>
   </g>
   <g id="patch_4">
    <path d="M 414.72 307.584 
L 414.72 41.472 
" style="fill:none;stroke:#000000;stroke-linecap:square;stroke-linejoin:miter;stroke-width:0.8;"/>
   </g>
   <g id="patch_5">
    <path d="M 57.6 307.584 
L 414.72 307.584 
" style="fill:none;stroke:#000000;stroke-linecap:square;stroke-linejoin:miter;stroke-width:0.8;"/>
   </g>
   <g id="patch_6">
    <path d="M 57.6 41.472 
L 414.72 41.472 
" style="fill:none;stroke:#000000;stroke-linecap:square;stroke-linejoin:miter;stroke-width:0.8;"/>
   </g>
  </g>
 </g>
 <defs>
  <clipPath id="pc449c5ffe3">
   <rect height="266.112" width="357.12" x="57.6" y="41.472"/>
  </clipPath>
 </defs>
</svg>
