<?xml version="1.0" encoding="utf-8" standalone="no"?>
<!DOCTYPE svg PUBLIC "-//W3C//DTD SVG 1.1//EN"
  "http://www.w3.org/Graphics/SVG/1.1/DTD/svg11.dtd">
<svg height="345.6pt" version="1.1" viewBox="0 0 460.8 345.6" width="460.8pt" xmlns="http://www.w3.org/2000/svg" xmlns:xlink="http://www.w3.org/1999/xlink">
 <metadata>
  <rdf:RDF xmlns:cc="http://creativecommons.org/ns#" xmlns:dc="http://purl.org/dc/elements/1.1/" xmlns:rdf="http://www.w3.org/1999/02/22-rdf-syntax-ns#">
   <cc:Work>
    <dc:type rdf:resource="http://purl.org/dc/dcmitype/StillImage"/>
    <dc:date>2022-01-06T21:08:56.766034</dc:date>
    <dc:format>image/svg+xml</dc:format>
    <dc:creator>
     <cc:Agent>
      <dc:title>Matplotlib v3.4.3, https://matplotlib.org/</dc:title>
     </cc:Agent>
    </dc:creator>
   </cc:Work>
  </rdf:RDF>
 </metadata>
 <defs>
  <style type="text/css">*{stroke-linecap:butt;stroke-linejoin:round;}</style>
 </defs>
 <g id="figure_1">
  <g id="patch_1">
   <path d="M 0 345.6 
L 460.8 345.6 
L 460.8 0 
L 0 0 
z
" style="fill:#ffffff;"/>
  </g>
  <g id="axes_1">
   <g id="patch_2">
    <path d="M 57.6 307.584 
L 414.72 307.584 
L 414.72 41.472 
L 57.6 41.472 
z
" style="fill:#ffffff;"/>
   </g>
   <g id="matplotlib.axis_1">
    <g id="xtick_1">
     <g id="line2d_1">
      <defs>
       <path d="M 0 0 
L 0 3.5 
" id="m4c1db6bd32" style="stroke:#000000;stroke-width:0.8;"/>
      </defs>
      <g>
       <use style="stroke:#000000;stroke-width:0.8;" x="73.832727" xlink:href="#m4c1db6bd32" y="307.584"/>
      </g>
     </g>
     <g id="text_1">
      <!-- 39000 -->
      <g transform="translate(57.926477 322.182437)scale(0.1 -0.1)">
       <defs>
        <path d="M 2597 2516 
Q 3050 2419 3304 2112 
Q 3559 1806 3559 1356 
Q 3559 666 3084 287 
Q 2609 -91 1734 -91 
Q 1441 -91 1130 -33 
Q 819 25 488 141 
L 488 750 
Q 750 597 1062 519 
Q 1375 441 1716 441 
Q 2309 441 2620 675 
Q 2931 909 2931 1356 
Q 2931 1769 2642 2001 
Q 2353 2234 1838 2234 
L 1294 2234 
L 1294 2753 
L 1863 2753 
Q 2328 2753 2575 2939 
Q 2822 3125 2822 3475 
Q 2822 3834 2567 4026 
Q 2313 4219 1838 4219 
Q 1578 4219 1281 4162 
Q 984 4106 628 3988 
L 628 4550 
Q 988 4650 1302 4700 
Q 1616 4750 1894 4750 
Q 2613 4750 3031 4423 
Q 3450 4097 3450 3541 
Q 3450 3153 3228 2886 
Q 3006 2619 2597 2516 
z
" id="DejaVuSans-33" transform="scale(0.015625)"/>
        <path d="M 703 97 
L 703 672 
Q 941 559 1184 500 
Q 1428 441 1663 441 
Q 2288 441 2617 861 
Q 2947 1281 2994 2138 
Q 2813 1869 2534 1725 
Q 2256 1581 1919 1581 
Q 1219 1581 811 2004 
Q 403 2428 403 3163 
Q 403 3881 828 4315 
Q 1253 4750 1959 4750 
Q 2769 4750 3195 4129 
Q 3622 3509 3622 2328 
Q 3622 1225 3098 567 
Q 2575 -91 1691 -91 
Q 1453 -91 1209 -44 
Q 966 3 703 97 
z
M 1959 2075 
Q 2384 2075 2632 2365 
Q 2881 2656 2881 3163 
Q 2881 3666 2632 3958 
Q 2384 4250 1959 4250 
Q 1534 4250 1286 3958 
Q 1038 3666 1038 3163 
Q 1038 2656 1286 2365 
Q 1534 2075 1959 2075 
z
" id="DejaVuSans-39" transform="scale(0.015625)"/>
        <path d="M 2034 4250 
Q 1547 4250 1301 3770 
Q 1056 3291 1056 2328 
Q 1056 1369 1301 889 
Q 1547 409 2034 409 
Q 2525 409 2770 889 
Q 3016 1369 3016 2328 
Q 3016 3291 2770 3770 
Q 2525 4250 2034 4250 
z
M 2034 4750 
Q 2819 4750 3233 4129 
Q 3647 3509 3647 2328 
Q 3647 1150 3233 529 
Q 2819 -91 2034 -91 
Q 1250 -91 836 529 
Q 422 1150 422 2328 
Q 422 3509 836 4129 
Q 1250 4750 2034 4750 
z
" id="DejaVuSans-30" transform="scale(0.015625)"/>
       </defs>
       <use xlink:href="#DejaVuSans-33"/>
       <use x="63.623047" xlink:href="#DejaVuSans-39"/>
       <use x="127.246094" xlink:href="#DejaVuSans-30"/>
       <use x="190.869141" xlink:href="#DejaVuSans-30"/>
       <use x="254.492188" xlink:href="#DejaVuSans-30"/>
      </g>
     </g>
    </g>
    <g id="xtick_2">
     <g id="line2d_2">
      <g>
       <use style="stroke:#000000;stroke-width:0.8;" x="123.082507" xlink:href="#m4c1db6bd32" y="307.584"/>
      </g>
     </g>
     <g id="text_2">
      <!-- 39250 -->
      <g transform="translate(107.176257 322.182437)scale(0.1 -0.1)">
       <defs>
        <path d="M 1228 531 
L 3431 531 
L 3431 0 
L 469 0 
L 469 531 
Q 828 903 1448 1529 
Q 2069 2156 2228 2338 
Q 2531 2678 2651 2914 
Q 2772 3150 2772 3378 
Q 2772 3750 2511 3984 
Q 2250 4219 1831 4219 
Q 1534 4219 1204 4116 
Q 875 4013 500 3803 
L 500 4441 
Q 881 4594 1212 4672 
Q 1544 4750 1819 4750 
Q 2544 4750 2975 4387 
Q 3406 4025 3406 3419 
Q 3406 3131 3298 2873 
Q 3191 2616 2906 2266 
Q 2828 2175 2409 1742 
Q 1991 1309 1228 531 
z
" id="DejaVuSans-32" transform="scale(0.015625)"/>
        <path d="M 691 4666 
L 3169 4666 
L 3169 4134 
L 1269 4134 
L 1269 2991 
Q 1406 3038 1543 3061 
Q 1681 3084 1819 3084 
Q 2600 3084 3056 2656 
Q 3513 2228 3513 1497 
Q 3513 744 3044 326 
Q 2575 -91 1722 -91 
Q 1428 -91 1123 -41 
Q 819 9 494 109 
L 494 744 
Q 775 591 1075 516 
Q 1375 441 1709 441 
Q 2250 441 2565 725 
Q 2881 1009 2881 1497 
Q 2881 1984 2565 2268 
Q 2250 2553 1709 2553 
Q 1456 2553 1204 2497 
Q 953 2441 691 2322 
L 691 4666 
z
" id="DejaVuSans-35" transform="scale(0.015625)"/>
       </defs>
       <use xlink:href="#DejaVuSans-33"/>
       <use x="63.623047" xlink:href="#DejaVuSans-39"/>
       <use x="127.246094" xlink:href="#DejaVuSans-32"/>
       <use x="190.869141" xlink:href="#DejaVuSans-35"/>
       <use x="254.492188" xlink:href="#DejaVuSans-30"/>
      </g>
     </g>
    </g>
    <g id="xtick_3">
     <g id="line2d_3">
      <g>
       <use style="stroke:#000000;stroke-width:0.8;" x="172.332286" xlink:href="#m4c1db6bd32" y="307.584"/>
      </g>
     </g>
     <g id="text_3">
      <!-- 39500 -->
      <g transform="translate(156.426036 322.182437)scale(0.1 -0.1)">
       <use xlink:href="#DejaVuSans-33"/>
       <use x="63.623047" xlink:href="#DejaVuSans-39"/>
       <use x="127.246094" xlink:href="#DejaVuSans-35"/>
       <use x="190.869141" xlink:href="#DejaVuSans-30"/>
       <use x="254.492188" xlink:href="#DejaVuSans-30"/>
      </g>
     </g>
    </g>
    <g id="xtick_4">
     <g id="line2d_4">
      <g>
       <use style="stroke:#000000;stroke-width:0.8;" x="221.582065" xlink:href="#m4c1db6bd32" y="307.584"/>
      </g>
     </g>
     <g id="text_4">
      <!-- 39750 -->
      <g transform="translate(205.675815 322.182437)scale(0.1 -0.1)">
       <defs>
        <path d="M 525 4666 
L 3525 4666 
L 3525 4397 
L 1831 0 
L 1172 0 
L 2766 4134 
L 525 4134 
L 525 4666 
z
" id="DejaVuSans-37" transform="scale(0.015625)"/>
       </defs>
       <use xlink:href="#DejaVuSans-33"/>
       <use x="63.623047" xlink:href="#DejaVuSans-39"/>
       <use x="127.246094" xlink:href="#DejaVuSans-37"/>
       <use x="190.869141" xlink:href="#DejaVuSans-35"/>
       <use x="254.492188" xlink:href="#DejaVuSans-30"/>
      </g>
     </g>
    </g>
    <g id="xtick_5">
     <g id="line2d_5">
      <g>
       <use style="stroke:#000000;stroke-width:0.8;" x="270.831845" xlink:href="#m4c1db6bd32" y="307.584"/>
      </g>
     </g>
     <g id="text_5">
      <!-- 40000 -->
      <g transform="translate(254.925595 322.182437)scale(0.1 -0.1)">
       <defs>
        <path d="M 2419 4116 
L 825 1625 
L 2419 1625 
L 2419 4116 
z
M 2253 4666 
L 3047 4666 
L 3047 1625 
L 3713 1625 
L 3713 1100 
L 3047 1100 
L 3047 0 
L 2419 0 
L 2419 1100 
L 313 1100 
L 313 1709 
L 2253 4666 
z
" id="DejaVuSans-34" transform="scale(0.015625)"/>
       </defs>
       <use xlink:href="#DejaVuSans-34"/>
       <use x="63.623047" xlink:href="#DejaVuSans-30"/>
       <use x="127.246094" xlink:href="#DejaVuSans-30"/>
       <use x="190.869141" xlink:href="#DejaVuSans-30"/>
       <use x="254.492188" xlink:href="#DejaVuSans-30"/>
      </g>
     </g>
    </g>
    <g id="xtick_6">
     <g id="line2d_6">
      <g>
       <use style="stroke:#000000;stroke-width:0.8;" x="320.081624" xlink:href="#m4c1db6bd32" y="307.584"/>
      </g>
     </g>
     <g id="text_6">
      <!-- 40250 -->
      <g transform="translate(304.175374 322.182437)scale(0.1 -0.1)">
       <use xlink:href="#DejaVuSans-34"/>
       <use x="63.623047" xlink:href="#DejaVuSans-30"/>
       <use x="127.246094" xlink:href="#DejaVuSans-32"/>
       <use x="190.869141" xlink:href="#DejaVuSans-35"/>
       <use x="254.492188" xlink:href="#DejaVuSans-30"/>
      </g>
     </g>
    </g>
    <g id="xtick_7">
     <g id="line2d_7">
      <g>
       <use style="stroke:#000000;stroke-width:0.8;" x="369.331403" xlink:href="#m4c1db6bd32" y="307.584"/>
      </g>
     </g>
     <g id="text_7">
      <!-- 40500 -->
      <g transform="translate(353.425153 322.182437)scale(0.1 -0.1)">
       <use xlink:href="#DejaVuSans-34"/>
       <use x="63.623047" xlink:href="#DejaVuSans-30"/>
       <use x="127.246094" xlink:href="#DejaVuSans-35"/>
       <use x="190.869141" xlink:href="#DejaVuSans-30"/>
       <use x="254.492188" xlink:href="#DejaVuSans-30"/>
      </g>
     </g>
    </g>
   </g>
   <g id="matplotlib.axis_2">
    <g id="ytick_1">
     <g id="line2d_8">
      <defs>
       <path d="M 0 0 
L -3.5 0 
" id="mbda04ca3f7" style="stroke:#000000;stroke-width:0.8;"/>
      </defs>
      <g>
       <use style="stroke:#000000;stroke-width:0.8;" x="57.6" xlink:href="#mbda04ca3f7" y="295.488"/>
      </g>
     </g>
     <g id="text_8">
      <!-- 0 -->
      <g transform="translate(44.2375 299.287219)scale(0.1 -0.1)">
       <use xlink:href="#DejaVuSans-30"/>
      </g>
     </g>
    </g>
    <g id="ytick_2">
     <g id="line2d_9">
      <g>
       <use style="stroke:#000000;stroke-width:0.8;" x="57.6" xlink:href="#mbda04ca3f7" y="260.762644"/>
      </g>
     </g>
     <g id="text_9">
      <!-- 2 -->
      <g transform="translate(44.2375 264.561863)scale(0.1 -0.1)">
       <use xlink:href="#DejaVuSans-32"/>
      </g>
     </g>
    </g>
    <g id="ytick_3">
     <g id="line2d_10">
      <g>
       <use style="stroke:#000000;stroke-width:0.8;" x="57.6" xlink:href="#mbda04ca3f7" y="226.037289"/>
      </g>
     </g>
     <g id="text_10">
      <!-- 4 -->
      <g transform="translate(44.2375 229.836508)scale(0.1 -0.1)">
       <use xlink:href="#DejaVuSans-34"/>
      </g>
     </g>
    </g>
    <g id="ytick_4">
     <g id="line2d_11">
      <g>
       <use style="stroke:#000000;stroke-width:0.8;" x="57.6" xlink:href="#mbda04ca3f7" y="191.311933"/>
      </g>
     </g>
     <g id="text_11">
      <!-- 6 -->
      <g transform="translate(44.2375 195.111152)scale(0.1 -0.1)">
       <defs>
        <path d="M 2113 2584 
Q 1688 2584 1439 2293 
Q 1191 2003 1191 1497 
Q 1191 994 1439 701 
Q 1688 409 2113 409 
Q 2538 409 2786 701 
Q 3034 994 3034 1497 
Q 3034 2003 2786 2293 
Q 2538 2584 2113 2584 
z
M 3366 4563 
L 3366 3988 
Q 3128 4100 2886 4159 
Q 2644 4219 2406 4219 
Q 1781 4219 1451 3797 
Q 1122 3375 1075 2522 
Q 1259 2794 1537 2939 
Q 1816 3084 2150 3084 
Q 2853 3084 3261 2657 
Q 3669 2231 3669 1497 
Q 3669 778 3244 343 
Q 2819 -91 2113 -91 
Q 1303 -91 875 529 
Q 447 1150 447 2328 
Q 447 3434 972 4092 
Q 1497 4750 2381 4750 
Q 2619 4750 2861 4703 
Q 3103 4656 3366 4563 
z
" id="DejaVuSans-36" transform="scale(0.015625)"/>
       </defs>
       <use xlink:href="#DejaVuSans-36"/>
      </g>
     </g>
    </g>
    <g id="ytick_5">
     <g id="line2d_12">
      <g>
       <use style="stroke:#000000;stroke-width:0.8;" x="57.6" xlink:href="#mbda04ca3f7" y="156.586578"/>
      </g>
     </g>
     <g id="text_12">
      <!-- 8 -->
      <g transform="translate(44.2375 160.385796)scale(0.1 -0.1)">
       <defs>
        <path d="M 2034 2216 
Q 1584 2216 1326 1975 
Q 1069 1734 1069 1313 
Q 1069 891 1326 650 
Q 1584 409 2034 409 
Q 2484 409 2743 651 
Q 3003 894 3003 1313 
Q 3003 1734 2745 1975 
Q 2488 2216 2034 2216 
z
M 1403 2484 
Q 997 2584 770 2862 
Q 544 3141 544 3541 
Q 544 4100 942 4425 
Q 1341 4750 2034 4750 
Q 2731 4750 3128 4425 
Q 3525 4100 3525 3541 
Q 3525 3141 3298 2862 
Q 3072 2584 2669 2484 
Q 3125 2378 3379 2068 
Q 3634 1759 3634 1313 
Q 3634 634 3220 271 
Q 2806 -91 2034 -91 
Q 1263 -91 848 271 
Q 434 634 434 1313 
Q 434 1759 690 2068 
Q 947 2378 1403 2484 
z
M 1172 3481 
Q 1172 3119 1398 2916 
Q 1625 2713 2034 2713 
Q 2441 2713 2670 2916 
Q 2900 3119 2900 3481 
Q 2900 3844 2670 4047 
Q 2441 4250 2034 4250 
Q 1625 4250 1398 4047 
Q 1172 3844 1172 3481 
z
" id="DejaVuSans-38" transform="scale(0.015625)"/>
       </defs>
       <use xlink:href="#DejaVuSans-38"/>
      </g>
     </g>
    </g>
    <g id="ytick_6">
     <g id="line2d_13">
      <g>
       <use style="stroke:#000000;stroke-width:0.8;" x="57.6" xlink:href="#mbda04ca3f7" y="121.861222"/>
      </g>
     </g>
     <g id="text_13">
      <!-- 10 -->
      <g transform="translate(37.875 125.660441)scale(0.1 -0.1)">
       <defs>
        <path d="M 794 531 
L 1825 531 
L 1825 4091 
L 703 3866 
L 703 4441 
L 1819 4666 
L 2450 4666 
L 2450 531 
L 3481 531 
L 3481 0 
L 794 0 
L 794 531 
z
" id="DejaVuSans-31" transform="scale(0.015625)"/>
       </defs>
       <use xlink:href="#DejaVuSans-31"/>
       <use x="63.623047" xlink:href="#DejaVuSans-30"/>
      </g>
     </g>
    </g>
    <g id="ytick_7">
     <g id="line2d_14">
      <g>
       <use style="stroke:#000000;stroke-width:0.8;" x="57.6" xlink:href="#mbda04ca3f7" y="87.135866"/>
      </g>
     </g>
     <g id="text_14">
      <!-- 12 -->
      <g transform="translate(37.875 90.935085)scale(0.1 -0.1)">
       <use xlink:href="#DejaVuSans-31"/>
       <use x="63.623047" xlink:href="#DejaVuSans-32"/>
      </g>
     </g>
    </g>
    <g id="ytick_8">
     <g id="line2d_15">
      <g>
       <use style="stroke:#000000;stroke-width:0.8;" x="57.6" xlink:href="#mbda04ca3f7" y="52.410511"/>
      </g>
     </g>
     <g id="text_15">
      <!-- 14 -->
      <g transform="translate(37.875 56.209729)scale(0.1 -0.1)">
       <use xlink:href="#DejaVuSans-31"/>
       <use x="63.623047" xlink:href="#DejaVuSans-34"/>
      </g>
     </g>
    </g>
   </g>
   <g id="line2d_16">
    <path clip-path="url(#p3842531029)" d="M 73.832727 230.47437 
L 74.029726 230.47437 
L 73.832727 230.47437 
L 74.226726 233.7418 
L 74.423725 239.068725 
L 75.014722 239.068725 
L 75.211721 224.923625 
L 75.40872 224.923625 
L 75.211721 279.186449 
L 75.605719 203.590934 
L 75.802718 265.139457 
L 75.999718 265.139457 
L 76.196717 248.942558 
L 76.393716 248.942558 
L 76.590715 244.276324 
L 76.787714 244.276324 
L 76.984713 231.641867 
L 77.181712 226.560123 
L 77.378711 231.641867 
L 77.575711 270.54393 
L 77.969709 270.54393 
L 78.166708 295.488 
L 78.363707 295.488 
L 78.560706 263.551144 
L 79.151703 263.551144 
L 79.348703 295.488 
L 79.545702 216.404143 
L 79.742701 224.685096 
L 79.9397 224.685096 
L 80.136699 247.640448 
L 80.333698 247.640448 
L 80.530697 295.488 
L 81.318694 295.488 
L 81.515693 233.096942 
L 81.712692 233.096942 
L 81.909691 225.080843 
L 82.303689 225.071059 
L 82.500688 227.056593 
L 82.697688 227.056593 
L 82.894687 243.696682 
L 83.091686 227.056593 
L 83.288685 243.136237 
L 83.485684 212.571376 
L 83.682683 212.571376 
L 83.879682 215.094295 
L 84.076681 215.094295 
L 84.47068 263.004578 
L 84.667679 267.255117 
L 84.864678 263.004578 
L 85.258676 263.004578 
L 85.652674 236.111657 
L 85.849673 236.111657 
L 86.046673 204.417259 
L 86.440671 204.417259 
L 86.834669 246.311607 
L 87.031668 294.199957 
L 87.228667 246.311607 
L 87.425666 295.488 
L 87.622665 295.488 
L 87.819665 216.450951 
L 88.213663 216.450951 
L 88.410662 216.007219 
L 88.607661 205.322139 
L 88.80466 268.148561 
L 89.001659 204.35411 
L 89.198658 204.35411 
L 89.395658 212.708996 
L 89.592657 212.708996 
L 89.789656 202.019965 
L 89.986655 203.532058 
L 90.183654 203.532058 
L 90.380653 203.031511 
L 90.577652 203.532058 
L 90.774651 215.09391 
L 90.97165 266.840043 
L 91.16865 266.840043 
L 91.562648 219.121993 
L 91.759647 246.483819 
L 91.956646 234.173059 
L 92.547643 234.173059 
L 92.744643 232.299819 
L 92.941642 232.299819 
L 93.138641 237.852086 
L 93.33564 237.852086 
L 93.532639 295.488 
L 94.123636 295.488 
L 94.320635 250.496934 
L 94.517635 295.488 
L 94.911633 295.488 
L 95.108632 225.820096 
L 95.305631 225.820096 
L 95.50263 205.399029 
L 95.699629 207.588248 
L 95.896628 205.399029 
L 96.093628 205.399029 
L 96.290627 202.7444 
L 96.487626 207.588248 
L 96.684625 224.564591 
L 96.881624 230.378062 
L 97.078623 240.512469 
L 97.472621 240.512469 
L 97.66962 209.826204 
L 97.86662 209.826204 
L 98.063619 216.247137 
L 98.260618 241.284273 
L 98.654616 241.284273 
L 98.851615 255.962415 
L 99.048614 295.488 
L 99.245613 270.636873 
L 99.442613 270.636873 
L 99.639612 295.488 
L 99.836611 270.636873 
L 100.03361 223.837786 
L 100.230609 223.837786 
L 100.427608 265.05804 
L 100.230609 265.05804 
L 100.624607 295.488 
L 100.427608 295.488 
L 101.806602 295.488 
L 102.003601 249.195569 
L 102.2006 240.575546 
L 102.397599 240.575546 
L 102.2006 234.978607 
L 102.594598 234.978607 
L 102.791598 234.61273 
L 103.185596 234.61273 
L 103.382595 236.031997 
L 103.579594 257.878709 
L 103.776593 257.878709 
L 103.973592 227.08113 
L 104.170591 240.149555 
L 104.36759 227.08113 
L 104.56459 224.200782 
L 104.761589 224.200782 
L 104.958588 240.149555 
L 105.155587 295.488 
L 105.352586 295.488 
L 105.549585 242.098976 
L 105.746584 240.331669 
L 105.943583 210.600504 
L 106.140583 210.600504 
L 106.337582 208.671338 
L 106.73158 208.671338 
L 106.928579 281.456905 
L 107.322577 281.456905 
L 107.519576 286.791464 
L 107.716575 286.791464 
L 107.913575 266.459861 
L 108.307573 266.459861 
L 108.504572 295.488 
L 108.701571 277.761209 
L 108.89857 295.488 
L 109.292568 295.488 
L 109.489568 293.409544 
L 109.686567 293.409544 
L 109.883566 262.687266 
L 110.868561 262.652782 
L 111.06556 295.488 
L 111.656558 295.488 
L 112.050556 239.775593 
L 112.444554 239.775593 
L 112.641553 295.488 
L 113.035552 295.488 
L 113.232551 295.15203 
L 113.42955 250.078769 
L 113.626549 237.087008 
L 114.020547 237.087008 
L 114.217546 253.542077 
L 114.414545 253.542077 
L 114.611545 234.322125 
L 114.808544 234.1015 
L 114.611545 198.09736 
L 115.202542 198.09736 
L 115.59654 234.437294 
L 115.793539 295.488 
L 116.778535 295.488 
L 116.975534 232.575552 
L 117.172533 295.488 
L 117.369532 295.488 
L 117.566531 209.636711 
L 117.76353 209.636711 
L 117.96053 295.488 
L 118.157529 249.603862 
L 118.354528 295.488 
L 118.748526 295.488 
L 118.945525 292.352914 
L 119.142524 295.488 
L 132.341465 295.488 
L 132.538464 245.319579 
L 132.735463 295.488 
L 141.600424 295.488 
L 141.797423 249.118667 
L 141.994422 249.118667 
L 142.191421 295.488 
L 145.540406 295.488 
L 145.737405 276.346465 
L 145.934404 276.346465 
L 146.131403 229.957427 
L 146.328402 221.421736 
L 146.525402 221.421736 
L 146.722401 191.59848 
L 146.9194 191.287768 
L 146.722401 246.763645 
L 147.116399 295.488 
L 147.313398 250.864864 
L 147.510397 295.488 
L 147.707396 295.488 
L 146.9194 250.864864 
L 147.904395 250.864864 
L 148.101395 295.488 
L 148.692392 295.488 
L 148.889391 230.893798 
L 149.08639 213.75066 
L 149.480388 213.75066 
L 149.677387 292.284035 
L 149.874387 245.143476 
L 150.268385 245.143476 
L 150.465384 249.122793 
L 151.056381 249.122793 
L 151.25338 242.003676 
L 151.45038 242.003676 
L 151.647379 249.063781 
L 151.844378 271.898225 
L 152.041377 249.063781 
L 152.238376 255.60788 
L 152.435375 249.063781 
L 152.829373 249.051193 
L 153.026372 245.800098 
L 153.223372 209.826204 
L 153.420371 209.826204 
L 153.61737 250.122361 
L 154.011368 250.122361 
L 154.208367 221.987381 
L 154.405366 221.650447 
L 154.996364 198.543452 
L 155.193363 198.390613 
L 155.390362 202.402411 
L 155.587361 211.245131 
L 156.178358 211.245131 
L 156.375357 196.541685 
L 156.572357 193.560628 
L 156.769356 196.541685 
L 156.966355 193.247439 
L 157.163354 193.247439 
L 157.360353 194.270575 
L 157.557352 196.288539 
L 157.754351 295.488 
L 157.95135 295.488 
L 158.14835 207.330456 
L 158.345349 226.843848 
L 158.542348 207.330456 
L 158.14835 206.054069 
L 158.739347 194.38552 
L 158.936346 206.054069 
L 159.133345 206.054069 
L 159.330344 194.338682 
L 159.527343 194.338682 
L 159.921342 228.485063 
L 160.118341 218.769716 
L 160.31534 220.553036 
L 160.709338 220.553036 
L 160.906337 241.980985 
L 161.103336 241.980985 
L 161.300335 295.488 
L 161.497335 241.980985 
L 161.694334 236.973434 
L 162.088332 236.973434 
L 162.285331 215.837865 
L 162.48233 215.837865 
L 162.285331 215.837865 
L 162.679329 197.092297 
L 162.876328 194.583361 
L 163.270327 194.583361 
L 163.467326 221.262039 
L 164.058323 221.262039 
L 164.255322 203.472143 
L 164.452321 203.472143 
L 164.64932 214.036833 
L 164.84632 236.582116 
L 165.043319 214.036833 
L 164.64932 231.361176 
L 165.437317 231.361176 
L 165.634316 225.988408 
L 165.831315 225.988408 
L 166.028314 211.452089 
L 166.225313 208.629169 
L 166.422312 201.838164 
L 166.619312 204.818887 
L 166.816311 204.818887 
L 167.01331 203.495023 
L 167.407308 203.495023 
L 167.604307 208.489327 
L 167.801306 238.706956 
L 167.998305 238.706956 
L 168.195305 245.610422 
L 168.392304 238.706956 
L 168.589303 238.706956 
L 168.786302 234.339281 
L 169.1803 234.339281 
L 169.377299 247.063745 
L 169.574298 247.063745 
L 169.771297 213.98467 
L 169.968297 247.063745 
L 170.165296 208.5698 
L 170.362295 208.5698 
L 170.559294 235.474745 
L 171.150291 235.474745 
L 171.34729 229.57052 
L 171.741289 229.57052 
L 171.938288 220.454001 
L 172.135287 219.814368 
L 172.332286 185.925098 
L 172.529285 182.51528 
L 172.923283 182.51528 
L 173.317282 249.048675 
L 173.514281 259.318176 
L 173.71128 249.048675 
L 173.908279 215.556606 
L 174.105278 249.048675 
L 174.302277 249.049016 
L 174.499276 215.556606 
L 174.696275 249.049016 
L 174.893274 249.049016 
L 175.090274 246.568619 
L 175.287273 246.568619 
L 175.484272 295.488 
L 175.87827 216.193674 
L 176.075269 216.193674 
L 175.87827 198.128707 
L 176.469267 197.940749 
L 176.666267 198.128707 
L 176.863266 205.634316 
L 177.060265 205.634316 
L 177.257264 208.192251 
L 177.651262 295.488 
L 178.04526 295.488 
L 178.242259 220.546535 
L 178.636258 220.546535 
L 178.833257 295.488 
L 179.227255 295.488 
L 179.424254 225.023791 
L 179.621253 225.023791 
L 179.818252 295.488 
L 182.57624 295.488 
L 182.773239 291.737413 
L 182.970238 291.737413 
L 183.167237 230.770441 
L 183.364237 223.753163 
L 183.561236 224.793257 
L 183.758235 223.753163 
L 183.955234 223.753163 
L 184.152233 220.160006 
L 184.349232 220.160006 
L 184.546231 214.127421 
L 184.940229 214.127421 
L 185.137229 223.709358 
L 185.334228 221.998261 
L 185.531227 223.709358 
L 185.728226 295.488 
L 186.319223 295.488 
L 186.516222 222.525069 
L 186.713222 216.949781 
L 186.910221 216.949781 
L 187.10722 211.233292 
L 187.501218 224.979653 
L 187.698217 295.488 
L 187.895216 224.979653 
L 188.092215 224.979653 
L 188.289214 295.488 
L 188.486214 223.418908 
L 188.683213 211.539484 
L 188.880212 223.418908 
L 189.077211 295.488 
L 190.062207 295.488 
L 189.865207 248.667507 
L 190.456205 248.667507 
L 190.653204 212.836784 
L 190.850203 212.836784 
L 191.047202 295.488 
L 194.790185 295.488 
L 194.987184 222.315753 
L 195.184184 222.315753 
L 195.381183 295.488 
L 196.366178 295.488 
L 196.563177 235.672258 
L 196.957176 214.701277 
L 197.154175 214.701277 
L 197.351174 235.672258 
L 197.745172 295.488 
L 198.336169 295.488 
L 198.533169 212.51769 
L 199.124166 212.51769 
L 199.321165 295.488 
L 200.306161 295.488 
L 200.50316 241.324782 
L 200.700159 295.488 
L 200.897158 235.046231 
L 201.094157 225.804813 
L 201.291156 235.046231 
L 201.094157 235.046231 
L 201.488155 235.046231 
L 201.685154 225.804813 
L 201.882154 179.807251 
L 202.276152 179.807251 
L 202.67015 221.427866 
L 202.867149 295.488 
L 203.458147 295.488 
L 203.655146 234.500327 
L 203.852145 220.423723 
L 204.049144 220.423723 
L 204.246143 214.139965 
L 204.640141 214.139965 
L 204.83714 226.068569 
L 205.034139 295.488 
L 206.019135 295.488 
L 206.216134 257.912937 
L 206.019135 257.912937 
L 206.413133 295.488 
L 207.989126 295.488 
L 208.186125 232.031941 
L 208.974122 232.031941 
L 209.171121 248.951581 
L 209.36812 295.488 
L 211.141112 295.488 
L 211.338111 282.401588 
L 211.53511 221.957893 
L 211.732109 221.957893 
L 211.929109 282.401588 
L 212.126108 295.488 
L 212.717105 295.488 
L 212.914104 236.039475 
L 213.111103 242.586463 
L 213.308102 236.039475 
L 213.505102 242.586463 
L 213.702101 242.586463 
L 213.8991 295.488 
L 214.293098 295.488 
L 214.490097 214.102305 
L 214.687096 208.418901 
L 215.081094 208.418901 
L 215.278094 221.25584 
L 215.081094 295.488 
L 215.869091 295.488 
L 216.06609 238.89824 
L 216.460088 238.89824 
L 216.657087 211.339958 
L 217.051086 211.339958 
L 217.248085 210.760165 
L 217.445084 211.339958 
L 217.642083 210.760165 
L 218.036081 210.760165 
L 218.23308 252.561768 
L 218.430079 251.577151 
L 218.627079 252.561768 
L 218.824078 251.577151 
L 219.021077 252.561768 
L 219.218076 217.322064 
L 219.415075 203.023246 
L 219.612074 217.322064 
L 219.809073 203.023246 
L 220.006072 203.023246 
L 220.203071 295.488 
L 220.59707 295.488 
L 220.794069 248.721323 
L 220.991068 248.721323 
L 221.188067 230.636767 
L 221.385066 230.636767 
L 221.582065 219.946987 
L 221.779064 218.697307 
L 221.582065 215.615109 
L 222.173063 215.615109 
L 222.370062 202.700542 
L 222.567061 197.492413 
L 222.76406 202.191976 
L 223.158058 202.191976 
L 223.355057 233.423032 
L 223.552056 295.488 
L 225.128049 295.488 
L 225.325049 208.63544 
L 225.522048 212.628822 
L 225.916046 212.628822 
L 225.719047 233.296922 
L 226.310044 233.296922 
L 226.507043 229.921144 
L 226.704042 228.578894 
L 226.901041 228.264829 
L 227.098041 228.264829 
L 227.29504 224.743041 
L 227.689038 224.743041 
L 227.886037 295.488 
L 228.083036 224.743041 
L 228.280035 218.20539 
L 228.674034 218.20539 
L 228.871033 217.66218 
L 229.068032 217.66218 
L 229.265031 183.323809 
L 229.856028 183.323809 
L 230.053027 224.681653 
L 230.250026 224.681653 
L 230.447026 236.827263 
L 230.644025 236.827263 
L 230.841024 224.681653 
L 231.038023 236.827263 
L 231.235022 236.827263 
L 231.432021 235.327399 
L 231.62902 235.327399 
L 231.826019 194.801592 
L 232.023019 229.785689 
L 232.811015 229.785689 
L 233.008014 295.488 
L 233.205013 213.396981 
L 233.599011 213.396981 
L 233.796011 203.30421 
L 234.190009 203.30421 
L 234.387008 198.980032 
L 234.781006 209.27745 
L 234.978005 295.488 
L 235.372004 295.488 
L 235.766002 194.269816 
L 235.963001 189.494302 
L 236.356999 189.494302 
L 236.553998 194.269816 
L 236.750997 240.915187 
L 236.947996 240.915187 
L 237.144996 295.488 
L 237.735993 295.488 
L 237.932992 215.684123 
L 238.129991 295.488 
L 238.32699 295.488 
L 238.523989 215.684123 
L 238.720989 215.684123 
L 238.917988 205.053049 
L 239.311986 205.053049 
L 239.508985 295.488 
L 241.872974 295.488 
L 242.069974 237.620829 
L 242.266973 217.114803 
L 242.463972 217.114803 
L 242.660971 295.488 
L 247.585949 295.488 
L 247.782948 217.669589 
L 247.979947 295.488 
L 250.343936 295.488 
L 250.540936 184.335069 
L 250.737935 186.429387 
L 250.934934 183.933951 
L 251.131933 189.852001 
L 251.525931 189.852001 
L 251.72293 183.121051 
L 252.510927 183.121051 
L 252.707926 197.760601 
L 252.904925 197.760601 
L 253.101924 180.292149 
L 253.298923 197.760601 
L 252.904925 197.760601 
L 253.495922 202.272288 
L 253.692921 219.927618 
L 253.889921 205.077655 
L 254.08692 213.15182 
L 254.283919 295.488 
L 254.480918 295.488 
L 254.677917 213.15182 
L 254.874916 213.15182 
L 255.071915 295.488 
L 257.041906 295.488 
L 257.238906 221.319807 
L 257.435905 243.334439 
L 257.632904 243.334439 
L 257.829903 221.319807 
L 258.026902 295.488 
L 258.814898 295.488 
L 259.011898 251.34329 
L 259.208897 295.488 
L 259.996893 295.488 
L 260.193892 198.728644 
L 259.996893 198.728644 
L 260.390891 198.728644 
L 260.587891 295.488 
L 262.95188 295.488 
L 263.148879 266.910594 
L 263.739876 266.910594 
L 263.936876 202.931401 
L 263.542877 202.931401 
L 263.936876 197.181571 
L 264.133875 295.488 
L 264.527873 295.488 
L 264.724872 214.1224 
L 265.315869 214.1224 
L 265.512868 290.960473 
L 265.709868 295.488 
L 265.906867 295.488 
L 266.103866 290.960473 
L 266.300865 219.921056 
L 266.497864 219.921056 
L 266.694863 199.654066 
L 266.891862 197.558554 
L 267.48286 197.642654 
L 267.679859 295.488 
L 270.043848 295.488 
L 270.240847 181.492534 
L 270.437846 181.492534 
L 270.634846 197.723746 
L 270.831845 197.723746 
L 271.028844 199.000316 
L 271.225843 295.488 
L 271.422842 295.488 
L 271.619841 204.68423 
L 271.81684 204.68423 
L 272.013839 295.488 
L 275.953822 295.488 
L 276.150821 268.664874 
L 275.953822 268.664874 
L 276.34782 268.664874 
L 276.544819 286.370815 
L 276.741818 286.370815 
L 276.938817 295.488 
L 279.302807 295.488 
L 279.499806 275.661108 
L 279.696805 275.661108 
L 279.893804 295.488 
L 281.075799 295.488 
L 281.272798 201.867521 
L 281.469797 201.867521 
L 281.666796 295.488 
L 281.469797 295.488 
L 289.940759 295.488 
L 290.137758 270.954023 
L 290.531756 270.954023 
L 290.728756 295.488 
L 292.698747 295.488 
L 293.092745 222.176527 
L 293.683742 222.176527 
L 293.880741 295.488 
L 294.077741 214.504777 
L 294.27474 295.488 
L 294.668738 295.488 
L 294.865737 223.412277 
L 295.062736 223.412277 
L 295.259735 214.629575 
L 295.456734 214.629575 
L 295.653733 223.383898 
L 295.850733 223.383898 
L 296.047732 295.488 
L 302.154704 295.488 
L 302.351703 201.223128 
L 302.548703 295.488 
L 308.064678 295.488 
L 308.261677 275.344961 
L 308.064678 275.344961 
L 308.655675 275.344961 
L 308.852674 295.488 
L 309.443672 295.488 
L 309.640671 247.819849 
L 310.034669 247.819849 
L 310.231668 209.539045 
L 310.625666 295.488 
L 317.126637 295.488 
L 317.323636 198.006168 
L 317.520635 295.488 
L 317.717635 211.758308 
L 317.914634 211.758308 
L 318.111633 202.029833 
L 318.70263 202.029833 
L 318.899629 203.878463 
L 318.70263 295.488 
L 319.293628 295.488 
L 319.490627 273.568394 
L 319.687626 206.670165 
L 320.278623 206.670165 
L 320.475622 199.427272 
L 320.672621 207.824544 
L 320.86962 207.824544 
L 321.263619 209.693899 
L 321.460618 213.384216 
L 321.854616 213.384216 
L 322.051615 219.646503 
L 322.248614 219.646503 
L 322.445613 282.176304 
L 322.642613 289.412881 
L 322.839612 289.412881 
L 323.036611 262.853359 
L 323.430609 262.853359 
L 323.627608 243.00752 
L 324.021606 295.488 
L 324.218605 281.463323 
L 324.415605 281.463323 
L 324.612604 271.093573 
L 325.203601 271.093573 
L 325.4006 290.84411 
L 325.597599 290.84411 
L 325.794598 245.142333 
L 325.991598 240.871903 
L 326.188597 233.395874 
L 326.385596 211.399625 
L 326.582595 233.395874 
L 326.779594 229.524743 
L 326.976593 250.525689 
L 327.173592 250.525689 
L 327.370591 295.488 
L 327.56759 295.488 
L 327.76459 227.714969 
L 328.158588 227.714969 
L 328.946584 266.223173 
L 329.734581 266.223173 
L 329.93158 295.488 
L 330.325578 295.488 
L 330.522577 234.026158 
L 330.916575 220.173751 
L 331.113575 218.379147 
L 331.704572 218.366863 
L 332.09857 198.779235 
L 332.295569 206.946523 
L 332.492568 200.069795 
L 332.689568 206.946523 
L 332.886567 207.507741 
L 333.083566 208.477308 
L 333.280565 233.157384 
L 333.477564 233.157384 
L 333.674563 295.488 
L 333.871562 230.432991 
L 334.068561 295.488 
L 334.26556 250.330262 
L 334.46256 249.128674 
L 334.659559 249.128674 
L 334.856558 225.541979 
L 335.053557 225.541979 
L 335.250556 244.084889 
L 335.447555 244.084889 
L 335.644554 287.698632 
L 335.841553 246.737835 
L 336.038553 246.737835 
L 336.235552 242.260409 
L 336.432551 242.260409 
L 336.62955 232.238828 
L 336.826549 242.260409 
L 337.023548 236.774158 
L 337.220547 236.774158 
L 337.417546 253.073068 
L 337.614545 253.073068 
L 337.811545 276.795479 
L 338.008544 278.255171 
L 338.205543 276.795479 
L 338.402542 276.795479 
L 338.599541 278.758071 
L 338.79654 278.758071 
L 338.993539 295.488 
L 339.190538 295.488 
L 339.584537 225.350207 
L 339.978535 225.350207 
L 340.175534 263.744041 
L 340.372533 264.238058 
L 340.569532 295.488 
L 341.751527 295.488 
L 341.948526 245.473968 
L 342.145525 241.250816 
L 342.342524 241.250816 
L 342.539523 224.017039 
L 342.736523 224.017039 
L 342.933522 234.697552 
L 343.130521 295.488 
L 343.32752 234.697552 
L 343.524519 234.697552 
L 343.721518 295.488 
L 343.918517 231.147428 
L 344.115516 224.537563 
L 344.312515 231.147428 
L 344.509515 295.488 
L 345.100512 295.488 
L 345.297511 239.101769 
L 345.49451 239.101769 
L 345.691509 295.488 
L 346.085508 295.488 
L 346.282507 278.567476 
L 346.479506 201.289983 
L 346.676505 207.430605 
L 346.873504 201.289983 
L 347.070503 208.18762 
L 347.267502 208.338431 
L 347.464501 210.10542 
L 347.6615 236.789168 
L 347.8585 236.789168 
L 348.055499 250.495939 
L 348.449497 250.495939 
L 348.646496 295.488 
L 348.843495 295.488 
L 349.040494 282.491565 
L 349.237493 282.491565 
L 349.434492 246.491747 
L 349.828491 246.491747 
L 350.02549 241.570465 
L 350.222489 295.488 
L 351.601483 295.488 
L 351.995481 202.953561 
L 352.19248 204.886101 
L 352.586478 204.886101 
L 352.980477 248.426461 
L 353.177476 228.46961 
L 353.374475 251.177648 
L 353.571474 251.177648 
L 353.768473 295.488 
L 355.147467 295.488 
L 355.344466 213.971916 
L 355.541465 213.971916 
L 355.738464 210.623196 
L 355.935463 210.623196 
L 356.132462 234.865114 
L 356.329462 295.488 
L 357.905455 295.488 
L 358.102454 288.216656 
L 358.299453 288.216656 
L 358.496452 295.488 
L 360.072445 295.488 
L 360.269444 257.616106 
L 360.466443 250.887174 
L 360.663442 257.616106 
L 360.860441 243.701519 
L 361.25444 243.701519 
L 361.451439 295.488 
L 361.648438 223.280124 
L 362.239435 295.488 
L 363.027432 295.488 
L 363.224431 228.209111 
L 363.42143 228.209111 
L 363.618429 228.988464 
L 363.815428 234.544926 
L 364.012427 293.101892 
L 364.209426 293.101892 
L 364.406425 295.488 
L 365.391421 295.488 
L 365.58842 235.398148 
L 365.785419 238.769231 
L 365.982418 235.398148 
L 366.179417 238.769231 
L 366.376417 238.769231 
L 366.573416 235.798326 
L 366.770415 235.798326 
L 367.164413 295.488 
L 368.543407 295.488 
L 368.740406 201.477389 
L 368.937405 201.477389 
L 369.134404 295.488 
L 370.710397 295.488 
L 370.907396 231.577523 
L 371.104395 231.577523 
L 371.301395 295.488 
L 372.483389 295.488 
L 372.680388 285.727693 
L 373.074387 285.727693 
L 373.271386 195.878349 
L 373.468385 285.727693 
L 373.665384 295.488 
L 374.45338 295.488 
L 374.65038 208.680299 
L 374.847379 295.488 
L 379.575357 295.488 
L 379.772357 277.565303 
L 379.969356 295.488 
L 385.68233 295.488 
L 385.879329 206.28366 
L 386.076328 206.28366 
L 386.273327 295.488 
L 388.440318 295.488 
L 388.834316 196.814368 
L 389.228314 196.814368 
L 389.425313 207.06635 
L 389.622312 207.06635 
L 389.819312 197.990147 
L 390.016311 197.990147 
L 390.410309 219.280466 
L 390.607308 295.488 
L 391.592304 295.488 
L 391.789303 218.395833 
L 391.986302 218.395833 
L 392.183301 216.459525 
L 392.3803 218.85264 
L 393.168297 218.85264 
L 393.759294 295.488 
L 398.487273 295.488 
L 398.487273 295.488 
" style="fill:none;stroke:#1f77b4;stroke-linecap:square;stroke-width:1.5;"/>
   </g>
   <g id="line2d_17">
    <path clip-path="url(#p3842531029)" d="M 73.832727 227.208995 
L 74.029726 234.639035 
L 73.832727 229.123026 
L 74.423725 223.400468 
L 74.620724 212.109199 
L 74.817723 217.350515 
L 75.40872 247.449476 
L 75.211721 257.179231 
L 75.605719 210.527101 
L 75.802718 207.731581 
L 75.999718 218.121534 
L 76.196717 207.051164 
L 76.393716 212.381067 
L 76.590715 207.149213 
L 76.787714 216.457337 
L 76.984713 189.515737 
L 77.378711 209.457175 
L 77.575711 217.63474 
L 77.969709 210.410638 
L 78.166708 216.162953 
L 78.363707 227.620136 
L 78.560706 226.150078 
L 78.954704 243.133091 
L 79.151703 224.818971 
L 79.348703 236.110012 
L 79.545702 223.356658 
L 79.742701 219.566846 
L 80.530697 261.194586 
L 80.727696 211.425603 
L 80.924695 213.535824 
L 81.121695 223.313704 
L 81.318694 224.18871 
L 81.515693 219.620456 
L 81.712692 160.001226 
L 82.10669 182.368379 
L 82.303689 169.638059 
L 82.697688 191.518443 
L 82.894687 187.211524 
L 83.288685 208.590165 
L 83.485684 211.905612 
L 83.682683 206.260142 
L 83.879682 205.785949 
L 84.076681 217.598546 
L 84.27368 194.144176 
L 84.47068 200.352082 
L 85.061677 232.713081 
L 85.455675 211.003568 
L 85.652674 192.100029 
L 85.849673 203.447433 
L 86.046673 199.220403 
L 86.243672 211.035299 
L 86.440671 213.331642 
L 87.031668 247.117077 
L 87.228667 224.965618 
L 87.425666 180.490621 
L 87.622665 199.258449 
L 87.819665 205.687028 
L 88.016664 204.66473 
L 88.213663 205.059137 
L 88.410662 204.6624 
L 88.607661 204.705839 
L 88.80466 215.348617 
L 89.001659 208.771927 
L 89.198658 219.065237 
L 89.789656 205.6813 
L 90.183654 226.10442 
L 90.380653 201.16812 
L 90.774651 205.867511 
L 91.365649 236.971786 
L 91.562648 178.842654 
L 91.759647 190.555254 
L 91.956646 213.602984 
L 92.153645 204.306409 
L 92.350644 201.268791 
L 92.744643 222.943824 
L 92.941642 207.782046 
L 93.33564 217.070963 
L 93.532639 205.395428 
L 93.729638 203.883665 
L 93.926637 214.300887 
L 94.123636 218.052778 
L 94.517635 199.476496 
L 94.714634 203.667675 
L 94.911633 215.371677 
L 95.108632 219.366696 
L 95.699629 246.32438 
L 95.896628 215.794789 
L 96.093628 208.261952 
L 96.290627 206.731106 
L 96.881624 233.818029 
L 97.078623 211.237965 
L 97.275622 210.517739 
L 97.472621 220.666668 
L 97.66962 211.35331 
L 97.86662 213.526375 
L 98.457617 240.358863 
L 98.654616 244.938889 
L 98.851615 213.672535 
L 99.048614 203.390662 
L 99.245613 207.722087 
L 99.442613 205.27706 
L 99.836611 207.130672 
L 100.427608 235.167935 
L 100.230609 241.389409 
L 100.427608 245.092339 
L 100.821606 237.580362 
L 101.018605 229.472258 
L 101.215605 229.528085 
L 101.412604 207.606804 
L 101.609603 216.679479 
L 101.806602 234.345372 
L 102.2006 236.338896 
L 102.397599 208.422662 
L 102.2006 217.217036 
L 102.594598 207.13308 
L 102.791598 217.576291 
L 102.988597 219.099404 
L 103.185596 203.832602 
L 103.382595 214.541122 
L 103.579594 150.177529 
L 104.56459 204.974697 
L 104.761589 213.691266 
L 104.958588 214.503409 
L 105.352586 229.116421 
L 105.549585 207.547972 
L 105.746584 216.818324 
L 105.943583 210.137106 
L 106.140583 209.783022 
L 106.337582 219.977252 
L 106.534581 213.425488 
L 107.125578 239.424684 
L 107.519576 206.5416 
L 107.716575 208.427024 
L 108.110574 225.386591 
L 108.701571 254.104618 
L 109.095569 260.152138 
L 109.489568 262.012401 
L 109.686567 207.478959 
L 109.883566 218.136811 
L 110.080565 209.479194 
L 109.883566 219.703745 
L 110.277564 228.679154 
L 110.474563 213.339512 
L 111.06556 242.543022 
L 111.26256 242.653799 
L 111.459559 245.079367 
L 112.050556 238.091209 
L 112.247555 247.255828 
L 112.444554 244.434083 
L 113.035552 240.799662 
L 113.232551 243.391756 
L 113.42955 216.299577 
L 113.626549 212.762936 
L 114.020547 230.223766 
L 114.414545 224.014839 
L 114.611545 200.912499 
L 114.808544 202.978675 
L 114.611545 190.682018 
L 115.202542 210.363808 
L 115.59654 230.891144 
L 115.793539 214.182306 
L 115.990538 228.024963 
L 116.187538 232.433885 
L 116.384537 232.603815 
L 116.581536 243.249726 
L 116.778535 55.613566 
L 119.142524 197.723566 
L 119.339523 200.051074 
L 119.930521 225.95952 
L 120.12752 228.181604 
L 120.324519 232.675484 
L 120.521518 212.564358 
L 120.718517 220.458477 
L 120.521518 229.760563 
L 121.112515 248.085357 
L 121.309515 236.612118 
L 121.506514 236.434967 
L 121.703513 242.041875 
L 122.097511 233.992412 
L 122.491509 250.083759 
L 122.688508 248.914931 
L 122.885508 258.07927 
L 123.082507 237.166 
L 123.476505 249.828014 
L 123.673504 211.568297 
L 123.870503 222.760205 
L 124.067502 225.162454 
L 124.264501 217.346309 
L 124.4615 226.891173 
L 124.6585 193.058303 
L 124.855499 204.367501 
L 125.052498 209.116169 
L 125.249497 220.989889 
L 125.446496 224.124006 
L 125.840494 200.662697 
L 126.037493 211.585629 
L 126.234492 210.83019 
L 126.431492 220.916185 
L 126.628491 203.759049 
L 126.82549 214.472968 
L 127.022489 209.302946 
L 127.219488 200.926543 
L 127.416487 209.639185 
L 127.613486 201.029626 
L 128.007485 205.240284 
L 127.613486 201.377847 
L 128.204484 203.239216 
L 128.401483 204.250507 
L 128.795481 180.130631 
L 128.99248 191.998647 
L 129.189479 184.597827 
L 129.583477 206.145908 
L 129.780477 202.461798 
L 129.977476 193.010293 
L 130.174475 204.446549 
L 130.371474 204.879909 
L 130.568473 53.568 
L 130.765472 65.600113 
L 131.15947 77.629451 
L 132.538464 157.999486 
L 133.129462 188.929122 
L 133.326461 200.489078 
L 133.52346 221.594883 
L 133.720459 181.717984 
L 133.917458 193.437905 
L 134.114457 165.292565 
L 134.508455 175.677406 
L 135.099453 198.272312 
L 135.296452 196.722676 
L 135.493451 207.593107 
L 135.69045 174.509573 
L 136.084448 195.505236 
L 136.281447 194.343535 
L 136.675446 216.418986 
L 136.872445 202.987009 
L 137.266443 211.450951 
L 137.463442 201.561605 
L 137.85744 220.261272 
L 138.05444 215.303438 
L 138.251439 231.633454 
L 138.448438 222.411524 
L 138.842436 214.793621 
L 139.039435 205.691344 
L 139.236434 189.770662 
L 139.433433 190.66053 
L 139.630432 197.792468 
L 139.827432 209.743218 
L 140.024431 214.8056 
L 140.418429 243.513046 
L 140.615428 211.997627 
L 140.812427 205.926519 
L 141.009426 205.622831 
L 141.206425 205.583829 
L 141.403425 194.727583 
L 141.600424 205.965205 
L 141.797423 197.336429 
L 141.994422 203.20096 
L 142.191421 215.12106 
L 142.585419 197.634355 
L 142.782418 209.585866 
L 142.979417 188.762427 
L 143.176417 200.228113 
L 143.373416 196.993394 
L 143.570415 200.774129 
L 143.767414 199.484678 
L 143.964413 210.483045 
L 144.161412 183.0467 
L 144.55541 204.740037 
L 144.75241 201.175877 
L 144.949409 203.126513 
L 145.146408 206.267991 
L 145.540406 224.554482 
L 145.737405 219.529206 
L 145.934404 220.209909 
L 146.131403 200.577228 
L 146.328402 199.358757 
L 146.525402 210.296954 
L 146.9194 190.685174 
L 146.722401 189.051559 
L 147.116399 200.507844 
L 147.510397 205.92985 
L 147.707396 190.384624 
L 146.9194 200.865686 
L 147.904395 205.044175 
L 148.298394 208.165987 
L 148.495393 208.184154 
L 148.692392 218.53271 
L 148.889391 210.701702 
L 149.283389 208.304434 
L 149.480388 217.862233 
L 149.677387 200.145258 
L 150.268385 219.971152 
L 150.465384 227.705755 
L 150.662383 213.133816 
L 150.859382 222.154015 
L 151.056381 221.635596 
L 151.45038 196.353195 
L 151.647379 204.755778 
L 151.844378 204.827157 
L 152.238376 220.790777 
L 152.632374 208.187976 
L 152.829373 211.115585 
L 153.026372 208.723553 
L 153.223372 202.689474 
L 153.61737 208.260315 
L 153.814369 206.730356 
L 154.011368 208.44548 
L 154.208367 218.769682 
L 154.602365 183.909611 
L 154.799365 190.190943 
L 154.996364 191.107185 
L 155.193363 194.422232 
L 155.390362 195.772988 
L 155.587361 169.768146 
L 156.178358 194.354559 
L 156.375357 192.921891 
L 156.572357 198.038487 
L 156.769356 195.123146 
L 156.966355 157.648058 
L 157.360353 177.96464 
L 157.95135 197.173422 
L 158.14835 195.726434 
L 158.542348 202.384146 
L 158.14835 165.150891 
L 158.739347 174.776074 
L 159.330344 193.971514 
L 159.527343 195.966229 
L 159.724342 196.601189 
L 159.921342 200.420617 
L 160.118341 182.253518 
L 160.906337 210.015128 
L 161.300335 205.77227 
L 161.497335 207.091406 
L 161.891333 205.718739 
L 162.285331 199.250963 
L 162.48233 204.53354 
L 162.285331 200.46897 
L 162.679329 187.043408 
L 163.270327 209.735169 
L 163.467326 219.934206 
L 163.664325 189.978875 
L 163.861324 193.61509 
L 164.058323 113.246394 
L 164.64932 149.062647 
L 165.043319 160.430776 
L 164.64932 172.167537 
L 165.240318 180.001012 
L 165.437317 189.747512 
L 165.634316 191.549585 
L 166.028314 202.325922 
L 166.225313 213.140907 
L 166.422312 181.837789 
L 166.816311 195.280811 
L 167.210309 203.962035 
L 167.407308 196.051952 
L 167.998305 224.048393 
L 168.392304 206.946416 
L 168.589303 205.389639 
L 168.786302 212.375654 
L 168.983301 206.837173 
L 169.1803 216.629798 
L 169.377299 218.71131 
L 169.574298 210.803016 
L 169.771297 220.891895 
L 169.968297 218.630414 
L 170.165296 201.836983 
L 170.559294 219.140036 
L 170.756293 207.070076 
L 170.953292 217.518797 
L 171.150291 218.836044 
L 171.34729 228.365185 
L 171.544289 222.88146 
L 171.741289 196.935783 
L 172.135287 202.818057 
L 172.332286 204.026026 
L 172.529285 190.969962 
L 172.726284 202.359892 
L 173.120282 193.489049 
L 173.317282 199.803064 
L 173.514281 198.993609 
L 174.105278 226.793848 
L 174.302277 202.058058 
L 174.499276 210.351697 
L 174.893274 216.693018 
L 175.090274 181.995772 
L 175.484272 201.359318 
L 175.681271 197.033805 
L 175.87827 197.647847 
L 176.075269 188.114772 
L 175.87827 195.7773 
L 176.272268 206.966424 
L 176.469267 207.568522 
L 176.666267 217.97315 
L 176.863266 205.475814 
L 177.060265 209.532286 
L 177.257264 189.062538 
L 177.454263 195.60616 
L 177.848261 192.401712 
L 178.833257 232.719452 
L 179.030256 230.729631 
L 179.227255 238.102836 
L 179.424254 218.750477 
L 179.818252 214.142236 
L 180.015252 224.233084 
L 180.212251 215.770878 
L 180.40925 223.099893 
L 180.606249 219.052646 
L 180.803248 210.865611 
L 181.000247 215.544985 
L 181.197246 206.115688 
L 181.394245 216.645674 
L 181.591244 210.594437 
L 181.985243 225.28581 
L 182.182242 227.237668 
L 182.379241 69.334967 
L 183.955234 163.285581 
L 184.74323 191.013089 
L 185.334228 216.69736 
L 185.728226 212.770205 
L 185.925225 214.623043 
L 186.122224 218.266859 
L 186.319223 198.285635 
L 186.516222 194.363667 
L 186.713222 205.617459 
L 187.10722 199.635674 
L 187.501218 203.587263 
L 187.698217 204.434098 
L 187.895216 180.171083 
L 188.289214 196.728519 
L 188.683213 216.087041 
L 189.077211 198.968073 
L 189.27421 199.943542 
L 189.471209 203.891659 
L 189.668208 211.020523 
L 189.865207 207.939892 
L 190.062207 192.936416 
L 189.865207 198.048237 
L 190.259206 201.307909 
L 190.456205 199.695515 
L 190.850203 203.73708 
L 191.047202 211.730919 
L 191.4412 218.915531 
L 191.638199 194.137902 
L 192.032198 216.235549 
L 192.229197 202.084369 
L 192.623195 217.909098 
L 193.214192 223.860977 
L 193.411192 223.400277 
L 193.214192 231.630195 
L 193.608191 213.909649 
L 193.80519 219.480284 
L 194.002189 211.429742 
L 194.199188 210.75539 
L 194.396187 220.849312 
L 194.593186 222.777161 
L 194.790185 222.374646 
L 194.987184 222.843269 
L 195.184184 206.540439 
L 195.578182 223.157631 
L 195.775181 232.039553 
L 195.97218 216.151963 
L 196.169179 220.906991 
L 196.366178 229.614049 
L 196.563177 219.728478 
L 196.760177 228.622228 
L 196.957176 207.475751 
L 197.154175 205.986839 
L 197.351174 216.527487 
L 197.548173 176.271105 
L 197.745172 185.320406 
L 197.942171 183.914505 
L 198.730168 218.549557 
L 199.124166 201.162432 
L 199.321165 203.11899 
L 199.518164 189.71377 
L 200.50316 218.078267 
L 200.897158 209.02103 
L 201.094157 219.290411 
L 201.291156 208.718882 
L 201.094157 198.128818 
L 201.488155 199.205582 
L 201.882154 203.580996 
L 202.079153 201.891885 
L 202.276152 209.783665 
L 202.473151 205.174603 
L 202.67015 184.620846 
L 202.867149 190.403959 
L 203.064148 184.479607 
L 203.261147 193.637963 
L 203.458147 177.128133 
L 204.049144 205.557889 
L 204.443142 210.844063 
L 204.640141 221.256048 
L 205.034139 209.388586 
L 205.231139 213.4335 
L 205.625137 207.440676 
L 205.822136 210.695774 
L 206.216134 206.997157 
L 206.019135 206.140623 
L 206.413133 208.612517 
L 206.610132 208.442813 
L 206.807132 208.527483 
L 207.004131 208.194024 
L 207.20113 206.699975 
L 207.398129 207.066508 
L 207.595128 214.554846 
L 207.792127 189.872733 
L 207.989126 201.301479 
L 208.186125 199.692585 
L 208.383124 202.281127 
L 208.580124 200.769591 
L 208.777123 184.047208 
L 208.974122 195.646581 
L 209.171121 181.981376 
L 209.565119 204.412475 
L 209.762118 205.860765 
L 209.959117 198.689609 
L 210.156117 197.101766 
L 210.550115 209.796738 
L 210.944113 205.189152 
L 211.141112 215.794209 
L 211.338111 180.986959 
L 211.53511 191.050283 
L 211.732109 188.175557 
L 212.323107 216.356658 
L 212.520106 205.020776 
L 212.717105 215.639084 
L 213.111103 205.267707 
L 213.505102 211.983229 
L 213.702101 213.716145 
L 213.8991 135.986066 
L 214.293098 167.208597 
L 214.687096 186.627346 
L 214.884095 186.63838 
L 215.081094 183.527158 
L 215.672092 211.425464 
L 215.869091 217.261596 
L 216.06609 216.431786 
L 216.263089 210.653192 
L 216.460088 222.33183 
L 216.657087 214.976633 
L 216.854086 219.83259 
L 217.051086 228.709068 
L 217.248085 219.947798 
L 217.445084 161.002782 
L 218.23308 199.411813 
L 218.430079 192.14775 
L 218.627079 200.991711 
L 218.824078 194.960769 
L 219.021077 203.299489 
L 219.218076 205.517741 
L 219.415075 194.271128 
L 219.612074 190.061547 
L 219.809073 196.067212 
L 220.203071 215.797769 
L 220.400071 195.879912 
L 220.59707 201.505866 
L 220.794069 203.310352 
L 220.991068 180.793716 
L 221.582065 201.503108 
L 221.779064 207.226692 
L 221.582065 206.249487 
L 221.976064 201.774793 
L 222.173063 190.729486 
L 222.370062 194.945914 
L 222.567061 192.657126 
L 222.76406 203.985755 
L 222.961059 208.35237 
L 223.355057 226.873552 
L 223.749056 198.184296 
L 223.946055 198.894051 
L 224.143054 193.748539 
L 224.537052 195.316758 
L 224.734051 199.609295 
L 224.93105 185.913565 
L 224.734051 67.639076 
L 225.128049 79.664565 
L 225.916046 127.458033 
L 225.719047 139.298164 
L 226.113045 150.548449 
L 226.901041 189.731934 
L 227.29504 200.717752 
L 227.492039 160.004092 
L 227.886037 171.183293 
L 228.083036 162.413574 
L 228.280035 173.763768 
L 228.477034 152.987708 
L 229.068032 182.431376 
L 229.265031 165.110551 
L 229.46203 175.511815 
L 230.053027 184.678884 
L 230.250026 171.196908 
L 230.841024 190.472301 
L 231.038023 174.785921 
L 231.62902 200.764185 
L 231.826019 190.76106 
L 232.023019 198.848134 
L 232.220018 158.975381 
L 232.614016 165.248101 
L 233.008014 185.286576 
L 233.402012 195.862301 
L 233.599011 196.169789 
L 233.796011 193.734123 
L 233.99301 198.579569 
L 234.190009 187.086096 
L 234.387008 193.913101 
L 234.584007 190.957671 
L 234.781006 196.695609 
L 234.978005 170.944534 
L 235.175004 169.553728 
L 235.372004 188.063108 
L 235.569003 194.631603 
L 235.766002 185.978847 
L 236.16 198.148543 
L 236.553998 180.080841 
L 236.947996 192.669401 
L 237.144996 197.868572 
L 237.341995 198.043504 
L 237.538994 133.906808 
L 237.341995 145.660046 
L 237.735993 156.406745 
L 237.932992 167.394368 
L 238.32699 174.71078 
L 238.523989 175.586094 
L 238.917988 191.983334 
L 239.114987 172.890794 
L 239.508985 175.724796 
L 239.705984 180.55509 
L 239.902983 180.311137 
L 240.099982 188.522628 
L 240.296981 172.008664 
L 240.493981 181.576962 
L 239.902983 187.976359 
L 240.69098 194.568241 
L 240.887979 181.73 
L 241.281977 178.666946 
L 241.478976 178.092959 
L 241.675975 179.002894 
L 242.069974 196.523635 
L 242.266973 200.110764 
L 242.660971 196.79026 
L 243.251968 184.621647 
L 243.448967 196.208596 
L 243.645966 185.613778 
L 244.039965 197.119058 
L 244.236964 168.476354 
L 244.433963 165.638862 
L 245.02496 193.732607 
L 245.221959 185.700809 
L 245.418959 186.123898 
L 245.615958 193.195176 
L 245.812957 184.979474 
L 246.009956 196.555138 
L 246.206955 200.279787 
L 246.403954 175.51507 
L 246.600953 172.048562 
L 246.797952 177.652668 
L 247.191951 193.459256 
L 247.38895 195.677059 
L 247.585949 194.9301 
L 247.782948 175.191506 
L 247.979947 174.277958 
L 248.176946 179.264722 
L 248.373945 176.963722 
L 248.570944 169.311235 
L 248.964943 186.718347 
L 249.161942 172.950753 
L 249.55594 187.181113 
L 249.752939 185.016906 
L 249.949938 190.39264 
L 250.146937 146.028316 
L 250.343936 156.471853 
L 250.737935 151.179709 
L 251.131933 174.418969 
L 251.525931 177.577842 
L 251.919929 190.885487 
L 252.313928 170.683921 
L 252.707926 190.553462 
L 252.904925 180.412517 
L 253.101924 187.126914 
L 253.298923 198.643013 
L 252.904925 201.385432 
L 253.495922 187.644022 
L 253.889921 209.650557 
L 254.08692 211.313082 
L 254.283919 174.949417 
L 254.480918 182.947173 
L 254.677917 178.497052 
L 255.071915 194.445323 
L 255.268914 172.966856 
L 255.662913 187.454564 
L 255.859912 194.18533 
L 256.056911 175.57657 
L 256.647908 199.442184 
L 256.844907 198.51774 
L 257.041906 190.858774 
L 257.238906 196.626736 
L 257.435905 207.77452 
L 257.632904 180.830897 
L 257.829903 177.20289 
L 258.223901 198.040714 
L 258.4209 198.130233 
L 258.814898 203.227792 
L 259.011898 174.326656 
L 259.208897 186.111402 
L 259.405896 191.130939 
L 259.602895 180.681203 
L 259.799894 187.32428 
L 259.996893 182.929379 
L 260.193892 188.94326 
L 260.390891 186.055755 
L 260.587891 193.143952 
L 260.981889 215.115047 
L 261.178888 188.034053 
L 260.981889 182.255322 
L 261.375887 179.911159 
L 261.769885 199.811575 
L 262.163883 187.395584 
L 261.769885 198.903714 
L 262.360883 86.571775 
L 262.754881 110.536555 
L 263.148879 146.538392 
L 263.739876 175.721011 
L 263.936876 183.012264 
L 263.542877 189.001815 
L 263.936876 192.079816 
L 264.133875 203.428004 
L 264.330874 200.666426 
L 264.527873 206.122248 
L 264.724872 199.326594 
L 264.921871 187.970102 
L 265.11887 183.672529 
L 265.315869 195.281086 
L 265.512868 186.309533 
L 265.709868 193.334468 
L 265.906867 187.381914 
L 266.300865 197.061409 
L 266.497864 174.289165 
L 266.694863 182.421851 
L 267.088861 211.123136 
L 267.285861 221.510034 
L 267.48286 215.506763 
L 267.679859 218.250357 
L 267.876858 201.662797 
L 268.073857 207.2394 
L 268.270856 206.255493 
L 268.467855 203.440372 
L 268.664854 203.585412 
L 268.861853 204.869597 
L 269.058853 215.499703 
L 269.255852 204.840473 
L 269.64985 202.390946 
L 269.846849 186.870337 
L 270.043848 183.57409 
L 270.240847 191.245258 
L 270.437846 192.223225 
L 270.634846 187.418051 
L 270.831845 199.341113 
L 271.028844 198.331004 
L 271.225843 210.222716 
L 271.619841 206.044011 
L 272.013839 226.395753 
L 272.210838 248.93445 
L 272.407838 191.936469 
L 272.604837 196.466999 
L 272.801836 208.353351 
L 273.195834 200.163697 
L 273.392833 188.356368 
L 273.786831 194.845166 
L 273.983831 206.077494 
L 274.18083 201.782447 
L 274.574828 225.205884 
L 274.771827 212.562504 
L 274.968826 190.120568 
L 275.165825 182.19381 
L 275.559823 196.138401 
L 275.756823 189.382221 
L 275.953822 201.330092 
L 276.150821 198.359473 
L 275.953822 210.184948 
L 276.34782 220.338326 
L 276.544819 231.641722 
L 276.741818 207.890635 
L 277.135816 227.39356 
L 277.529815 203.400036 
L 277.726814 187.566723 
L 278.120812 230.667487 
L 278.317811 241.789788 
L 278.51481 195.761654 
L 278.711809 207.655047 
L 278.908808 206.450627 
L 279.499806 240.83613 
L 279.696805 215.247338 
L 280.287802 245.228758 
L 280.484801 254.971252 
L 280.681801 220.877838 
L 280.8788 206.088967 
L 281.075799 216.968524 
L 281.272798 205.177963 
L 281.469797 207.467833 
L 281.666796 205.222649 
L 281.469797 215.825056 
L 281.863795 204.880841 
L 282.060794 191.592635 
L 282.454793 214.296408 
L 282.651792 189.841342 
L 282.848791 201.376044 
L 283.04579 224.095834 
L 283.636787 179.741593 
L 283.242789 191.435685 
L 284.030786 202.808411 
L 284.424784 201.91068 
L 284.621783 200.767039 
L 284.818782 207.411311 
L 285.21278 194.718582 
L 285.409779 200.760783 
L 285.606778 199.444073 
L 285.803778 202.136461 
L 286.000777 170.55211 
L 286.197776 182.385449 
L 286.394775 185.94596 
L 286.788773 198.131964 
L 286.985772 202.449773 
L 287.182771 200.206521 
L 286.591774 186.876344 
L 287.379771 183.780834 
L 287.57677 189.540851 
L 287.773769 179.380155 
L 287.970768 191.081201 
L 288.167767 192.250284 
L 288.364766 185.452869 
L 288.167767 190.688535 
L 288.561765 202.088648 
L 288.758764 213.053764 
L 288.955763 208.762454 
L 289.152763 197.259532 
L 289.74376 225.995696 
L 289.940759 207.061291 
L 290.531756 238.680955 
L 290.728756 194.903616 
L 291.122754 184.769443 
L 291.319753 190.223624 
L 291.516752 201.640214 
L 291.713751 195.000209 
L 291.91075 176.045142 
L 292.107749 172.942358 
L 292.501748 190.385995 
L 292.698747 185.205354 
L 292.895746 190.520836 
L 293.092745 201.926941 
L 293.486743 167.416989 
L 293.683742 177.598154 
L 293.880741 179.650382 
L 294.077741 183.557372 
L 294.27474 195.530976 
L 294.865737 206.025878 
L 295.062736 203.576271 
L 295.259735 204.428326 
L 295.456734 187.880216 
L 295.653733 196.863248 
L 295.850733 180.578545 
L 296.44173 203.711265 
L 296.638729 187.628795 
L 296.835728 199.129911 
L 297.032727 203.764774 
L 297.229726 204.527063 
L 297.426726 190.51764 
L 297.820724 202.445469 
L 298.017723 204.558667 
L 298.214722 204.188482 
L 298.411721 202.620806 
L 298.60872 203.065693 
L 298.805719 204.158326 
L 299.199718 193.270293 
L 299.396717 205.148734 
L 299.593716 201.341143 
L 299.790715 212.418787 
L 300.184713 172.985929 
L 300.578711 194.384728 
L 300.775711 177.04179 
L 300.97271 188.835563 
L 301.366708 224.268292 
L 301.563707 212.3315 
L 301.760706 224.039537 
L 301.957705 190.77774 
L 302.154704 202.717988 
L 302.351703 200.323865 
L 302.548703 202.644713 
L 302.745702 193.047869 
L 303.1397 203.506344 
L 303.336699 200.699792 
L 303.533698 210.413511 
L 303.730697 202.103654 
L 304.124695 192.128831 
L 304.321695 203.475116 
L 303.730697 185.037498 
L 304.518694 192.372622 
L 304.912692 182.687988 
L 305.30669 199.800561 
L 305.503689 193.992652 
L 305.700688 200.243622 
L 305.897688 212.115582 
L 306.094687 210.645961 
L 306.291686 221.075532 
L 306.882683 194.252213 
L 307.079682 198.920263 
L 307.276681 173.870037 
L 307.47368 185.853591 
L 307.67068 187.761726 
L 307.867679 187.196623 
L 308.064678 193.994918 
L 308.261677 205.962166 
L 308.064678 201.663206 
L 308.458676 203.432498 
L 308.655675 175.055423 
L 309.049673 198.565749 
L 309.246673 175.360062 
L 309.640671 203.919013 
L 310.034669 185.558989 
L 310.231668 192.769022 
L 310.428667 204.213401 
L 310.625666 87.903981 
L 312.398658 193.381941 
L 312.595658 191.399559 
L 312.792657 196.486308 
L 312.989656 197.36209 
L 313.186655 196.919088 
L 313.383654 192.005944 
L 313.580653 194.836533 
L 313.777652 195.45201 
L 313.974651 196.810514 
L 314.17165 194.009655 
L 314.36865 205.278869 
L 314.565649 197.12477 
L 314.959647 192.836315 
L 315.156646 197.980989 
L 315.353645 209.058759 
L 315.550644 199.300554 
L 315.747643 196.522919 
L 315.944643 203.283113 
L 316.141642 55.61257 
L 318.308632 181.775325 
L 318.70263 195.46643 
L 318.899629 199.453265 
L 318.70263 198.825797 
L 318.899629 197.344565 
L 319.096628 200.996953 
L 319.293628 212.834765 
L 319.490627 202.537347 
L 319.687626 213.337906 
L 319.884625 211.647001 
L 320.081624 221.985807 
L 320.475622 204.368766 
L 320.672621 215.037283 
L 320.86962 209.510307 
L 321.06662 209.667537 
L 321.263619 209.282147 
L 321.460618 209.867092 
L 321.854616 232.90191 
L 322.248614 196.703501 
L 322.839612 212.193133 
L 323.036611 173.924304 
L 323.430609 208.954844 
L 323.627608 187.847397 
L 323.824607 199.256228 
L 324.218605 194.935128 
L 325.006602 239.158816 
L 325.203601 239.451241 
L 325.597599 245.337797 
L 325.794598 248.013346 
L 326.188597 244.083845 
L 326.385596 215.589937 
L 326.582595 236.46625 
L 326.779594 229.874052 
L 326.976593 186.764708 
L 327.370591 201.148814 
L 327.56759 212.989449 
L 327.76459 232.607947 
L 327.961589 238.598659 
L 328.355587 211.923558 
L 328.749585 235.015053 
L 328.946584 221.915148 
L 329.340583 234.350534 
L 329.734581 205.909725 
L 329.93158 217.810518 
L 330.128579 145.026739 
L 331.113575 197.927301 
L 331.310574 201.234852 
L 331.507573 209.109063 
L 331.704572 198.903366 
L 331.901571 197.76559 
L 332.09857 208.854845 
L 332.295569 208.168232 
L 332.492568 206.688137 
L 332.689568 207.412919 
L 333.083566 227.498428 
L 333.280565 205.778416 
L 333.477564 216.58696 
L 333.871562 218.890544 
L 334.26556 235.915189 
L 334.46256 228.900961 
L 334.659559 207.5167 
L 335.053557 226.868867 
L 335.250556 228.73414 
L 335.447555 235.776814 
L 335.644554 107.623626 
L 336.235552 143.521194 
L 336.62955 155.513403 
L 336.826549 166.804003 
L 337.220547 201.358866 
L 337.417546 213.19439 
L 337.614545 208.817234 
L 338.008544 232.311934 
L 338.205543 232.255142 
L 338.402542 243.296149 
L 338.599541 232.124599 
L 338.79654 228.422303 
L 338.993539 207.485847 
L 339.387538 218.633899 
L 339.781536 223.393628 
L 340.175534 240.301294 
L 340.372533 238.2953 
L 340.569532 248.922612 
L 340.766531 221.012366 
L 341.16053 237.721626 
L 341.357529 243.177463 
L 341.554528 215.500024 
L 341.751527 225.036956 
L 341.948526 199.729349 
L 342.736523 236.160272 
L 342.933522 231.746608 
L 343.130521 233.813744 
L 343.32752 217.970246 
L 343.524519 220.945232 
L 343.721518 229.645615 
L 343.918517 217.049332 
L 344.312515 239.692594 
L 344.903513 213.9597 
L 345.49451 241.637082 
L 345.691509 235.182223 
L 345.888508 214.498324 
L 346.085508 226.107147 
L 346.282507 222.644578 
L 346.676505 204.282765 
L 346.873504 208.238638 
L 347.267502 225.403755 
L 347.6615 247.048946 
L 348.055499 209.242292 
L 348.449497 226.832536 
L 348.646496 226.904105 
L 348.843495 234.386315 
L 349.040494 254.85675 
L 349.237493 224.833151 
L 349.631492 243.38867 
L 349.828491 238.504889 
L 350.419488 255.909479 
L 350.616487 264.33168 
L 350.813486 259.608438 
L 351.010485 216.613756 
L 351.207485 218.857082 
L 351.404484 213.936101 
L 351.601483 223.674601 
L 351.995481 197.158217 
L 352.19248 208.997612 
L 352.389479 211.49009 
L 352.586478 221.504818 
L 352.783477 220.62825 
L 352.980477 214.5821 
L 353.177476 213.484131 
L 353.374475 223.64352 
L 353.571474 198.969732 
L 353.768473 210.855965 
L 353.965472 210.374692 
L 354.162471 211.241901 
L 354.55647 199.575988 
L 354.753469 210.743896 
L 355.147467 210.606388 
L 355.541465 231.284745 
L 355.738464 216.412795 
L 356.132462 231.348293 
L 356.329462 227.541089 
L 356.526461 231.522025 
L 356.920459 252.026025 
L 357.117458 256.926022 
L 357.314457 254.316265 
L 357.511456 221.204442 
L 357.708455 230.383377 
L 357.905455 218.979227 
L 358.299453 235.082182 
L 358.496452 218.282558 
L 358.89045 234.781645 
L 359.087449 230.71339 
L 359.284448 219.064182 
L 359.875446 247.987132 
L 360.072445 257.614593 
L 360.269444 257.61535 
L 360.466443 248.730098 
L 360.663442 252.621024 
L 360.860441 209.514499 
L 361.25444 231.333737 
L 361.451439 224.589518 
L 361.648438 236.234065 
L 361.845437 241.105029 
L 362.042436 238.501843 
L 362.239435 234.184893 
L 362.633433 234.753627 
L 362.830432 214.432528 
L 363.027432 224.098591 
L 363.224431 224.31669 
L 363.42143 232.362398 
L 363.618429 234.34097 
L 363.815428 234.442648 
L 364.012427 203.493024 
L 364.209426 204.848103 
L 364.406425 215.486063 
L 364.603425 219.428533 
L 364.800424 230.879307 
L 364.997423 199.765144 
L 365.391421 216.959834 
L 365.58842 225.60709 
L 365.785419 187.316991 
L 366.179417 208.500588 
L 366.376417 202.072533 
L 366.770415 215.7199 
L 366.967414 227.576031 
L 367.361412 216.730821 
L 367.75541 233.753736 
L 367.95241 229.401187 
L 368.149409 231.301664 
L 368.346408 190.422512 
L 368.543407 201.832105 
L 368.740406 203.490579 
L 368.937405 214.445918 
L 369.134404 206.802745 
L 369.331403 209.341131 
L 369.528402 219.579304 
L 369.725402 205.803684 
L 369.922401 209.529019 
L 370.1194 207.299723 
L 370.316399 210.399773 
L 370.513398 197.791089 
L 370.907396 216.248382 
L 371.104395 210.858818 
L 371.301395 187.28147 
L 371.695393 207.275802 
L 371.892392 202.164208 
L 372.089391 204.532631 
L 372.28639 215.188693 
L 372.483389 193.059505 
L 372.877387 196.266194 
L 373.074387 201.792414 
L 373.271386 198.435763 
L 373.665384 199.947643 
L 374.059382 205.846526 
L 374.256381 216.398702 
L 374.45338 208.450618 
L 374.65038 220.183677 
L 375.044378 208.529051 
L 375.635375 237.971307 
L 375.832374 195.529531 
L 376.029373 206.730356 
L 376.226372 208.336385 
L 376.423372 216.698049 
L 376.620371 205.156686 
L 376.81737 209.986052 
L 377.014369 208.641401 
L 377.408367 221.671538 
L 377.605366 241.505721 
L 377.802365 244.377328 
L 378.196364 262.45984 
L 378.590362 251.401023 
L 378.787361 249.518269 
L 378.98436 250.440033 
L 379.181359 259.407048 
L 379.378358 223.017435 
L 379.575357 211.365289 
L 379.772357 184.059276 
L 380.166355 217.971679 
L 380.363354 217.17448 
L 380.560353 240.488303 
L 380.954351 202.136684 
L 381.15135 203.657472 
L 381.34835 214.378812 
L 381.545349 209.267932 
L 381.742348 219.814892 
L 381.939347 242.11378 
L 382.333345 174.647867 
L 382.727343 197.84838 
L 382.924342 219.280204 
L 383.121342 226.245504 
L 383.318341 212.807818 
L 383.51534 222.672824 
L 383.909338 197.449138 
L 384.106337 210.149908 
L 384.303336 207.570029 
L 384.500335 192.502164 
L 384.697335 197.755585 
L 384.894334 195.373054 
L 385.091333 196.181518 
L 385.288332 207.35121 
L 385.485331 200.883428 
L 385.68233 199.500809 
L 385.879329 202.742503 
L 386.076328 213.528905 
L 386.273327 207.195483 
L 386.667326 201.186934 
L 386.864325 192.85525 
L 387.258323 214.858974 
L 387.455322 208.885627 
L 387.652321 196.42136 
L 388.04632 205.768203 
L 388.243319 192.108088 
L 388.834316 224.375463 
L 389.228314 206.406358 
L 389.425313 206.973765 
L 389.622312 217.430873 
L 389.819312 210.615236 
L 390.21331 220.723929 
L 390.410309 228.645939 
L 390.607308 213.332642 
L 390.804307 188.043253 
L 391.198305 198.200485 
L 391.395305 198.555488 
L 391.592304 209.076215 
L 391.789303 212.378332 
L 391.986302 209.550041 
L 392.183301 204.328567 
L 392.3803 214.295536 
L 392.577299 209.236865 
L 392.971297 214.353382 
L 393.168297 222.845518 
L 393.365296 222.712871 
L 393.562295 94.077823 
L 394.54729 153.687896 
L 394.744289 176.666689 
L 394.941289 163.655181 
L 395.138288 85.903373 
L 396.91128 189.262662 
L 397.108279 187.94108 
L 397.502277 199.759206 
L 397.699276 198.592365 
L 397.896275 200.371509 
L 398.093274 208.562201 
L 398.487273 209.788274 
L 398.487273 209.788274 
" style="fill:none;stroke:#ff7f0e;stroke-linecap:square;stroke-width:1.5;"/>
   </g>
   <g id="patch_3">
    <path d="M 57.6 307.584 
L 57.6 41.472 
" style="fill:none;stroke:#000000;stroke-linecap:square;stroke-linejoin:miter;stroke-width:0.8;"/>
   </g>
   <g id="patch_4">
    <path d="M 414.72 307.584 
L 414.72 41.472 
" style="fill:none;stroke:#000000;stroke-linecap:square;stroke-linejoin:miter;stroke-width:0.8;"/>
   </g>
   <g id="patch_5">
    <path d="M 57.6 307.584 
L 414.72 307.584 
" style="fill:none;stroke:#000000;stroke-linecap:square;stroke-linejoin:miter;stroke-width:0.8;"/>
   </g>
   <g id="patch_6">
    <path d="M 57.6 41.472 
L 414.72 41.472 
" style="fill:none;stroke:#000000;stroke-linecap:square;stroke-linejoin:miter;stroke-width:0.8;"/>
   </g>
  </g>
 </g>
 <defs>
  <clipPath id="p3842531029">
   <rect height="266.112" width="357.12" x="57.6" y="41.472"/>
  </clipPath>
 </defs>
</svg>
