<?xml version="1.0" encoding="utf-8" standalone="no"?>
<!DOCTYPE svg PUBLIC "-//W3C//DTD SVG 1.1//EN"
  "http://www.w3.org/Graphics/SVG/1.1/DTD/svg11.dtd">
<svg height="345.6pt" version="1.1" viewBox="0 0 460.8 345.6" width="460.8pt" xmlns="http://www.w3.org/2000/svg" xmlns:xlink="http://www.w3.org/1999/xlink">
 <metadata>
  <rdf:RDF xmlns:cc="http://creativecommons.org/ns#" xmlns:dc="http://purl.org/dc/elements/1.1/" xmlns:rdf="http://www.w3.org/1999/02/22-rdf-syntax-ns#">
   <cc:Work>
    <dc:type rdf:resource="http://purl.org/dc/dcmitype/StillImage"/>
    <dc:date>2022-01-06T21:10:21.876057</dc:date>
    <dc:format>image/svg+xml</dc:format>
    <dc:creator>
     <cc:Agent>
      <dc:title>Matplotlib v3.4.3, https://matplotlib.org/</dc:title>
     </cc:Agent>
    </dc:creator>
   </cc:Work>
  </rdf:RDF>
 </metadata>
 <defs>
  <style type="text/css">*{stroke-linecap:butt;stroke-linejoin:round;}</style>
 </defs>
 <g id="figure_1">
  <g id="patch_1">
   <path d="M 0 345.6 
L 460.8 345.6 
L 460.8 0 
L 0 0 
z
" style="fill:#ffffff;"/>
  </g>
  <g id="axes_1">
   <g id="patch_2">
    <path d="M 57.6 307.584 
L 414.72 307.584 
L 414.72 41.472 
L 57.6 41.472 
z
" style="fill:#ffffff;"/>
   </g>
   <g id="matplotlib.axis_1">
    <g id="xtick_1">
     <g id="line2d_1">
      <defs>
       <path d="M 0 0 
L 0 3.5 
" id="mb6d6ebe513" style="stroke:#000000;stroke-width:0.8;"/>
      </defs>
      <g>
       <use style="stroke:#000000;stroke-width:0.8;" x="73.832727" xlink:href="#mb6d6ebe513" y="307.584"/>
      </g>
     </g>
     <g id="text_1">
      <!-- 39000 -->
      <g transform="translate(57.926477 322.182437)scale(0.1 -0.1)">
       <defs>
        <path d="M 2597 2516 
Q 3050 2419 3304 2112 
Q 3559 1806 3559 1356 
Q 3559 666 3084 287 
Q 2609 -91 1734 -91 
Q 1441 -91 1130 -33 
Q 819 25 488 141 
L 488 750 
Q 750 597 1062 519 
Q 1375 441 1716 441 
Q 2309 441 2620 675 
Q 2931 909 2931 1356 
Q 2931 1769 2642 2001 
Q 2353 2234 1838 2234 
L 1294 2234 
L 1294 2753 
L 1863 2753 
Q 2328 2753 2575 2939 
Q 2822 3125 2822 3475 
Q 2822 3834 2567 4026 
Q 2313 4219 1838 4219 
Q 1578 4219 1281 4162 
Q 984 4106 628 3988 
L 628 4550 
Q 988 4650 1302 4700 
Q 1616 4750 1894 4750 
Q 2613 4750 3031 4423 
Q 3450 4097 3450 3541 
Q 3450 3153 3228 2886 
Q 3006 2619 2597 2516 
z
" id="DejaVuSans-33" transform="scale(0.015625)"/>
        <path d="M 703 97 
L 703 672 
Q 941 559 1184 500 
Q 1428 441 1663 441 
Q 2288 441 2617 861 
Q 2947 1281 2994 2138 
Q 2813 1869 2534 1725 
Q 2256 1581 1919 1581 
Q 1219 1581 811 2004 
Q 403 2428 403 3163 
Q 403 3881 828 4315 
Q 1253 4750 1959 4750 
Q 2769 4750 3195 4129 
Q 3622 3509 3622 2328 
Q 3622 1225 3098 567 
Q 2575 -91 1691 -91 
Q 1453 -91 1209 -44 
Q 966 3 703 97 
z
M 1959 2075 
Q 2384 2075 2632 2365 
Q 2881 2656 2881 3163 
Q 2881 3666 2632 3958 
Q 2384 4250 1959 4250 
Q 1534 4250 1286 3958 
Q 1038 3666 1038 3163 
Q 1038 2656 1286 2365 
Q 1534 2075 1959 2075 
z
" id="DejaVuSans-39" transform="scale(0.015625)"/>
        <path d="M 2034 4250 
Q 1547 4250 1301 3770 
Q 1056 3291 1056 2328 
Q 1056 1369 1301 889 
Q 1547 409 2034 409 
Q 2525 409 2770 889 
Q 3016 1369 3016 2328 
Q 3016 3291 2770 3770 
Q 2525 4250 2034 4250 
z
M 2034 4750 
Q 2819 4750 3233 4129 
Q 3647 3509 3647 2328 
Q 3647 1150 3233 529 
Q 2819 -91 2034 -91 
Q 1250 -91 836 529 
Q 422 1150 422 2328 
Q 422 3509 836 4129 
Q 1250 4750 2034 4750 
z
" id="DejaVuSans-30" transform="scale(0.015625)"/>
       </defs>
       <use xlink:href="#DejaVuSans-33"/>
       <use x="63.623047" xlink:href="#DejaVuSans-39"/>
       <use x="127.246094" xlink:href="#DejaVuSans-30"/>
       <use x="190.869141" xlink:href="#DejaVuSans-30"/>
       <use x="254.492188" xlink:href="#DejaVuSans-30"/>
      </g>
     </g>
    </g>
    <g id="xtick_2">
     <g id="line2d_2">
      <g>
       <use style="stroke:#000000;stroke-width:0.8;" x="123.082507" xlink:href="#mb6d6ebe513" y="307.584"/>
      </g>
     </g>
     <g id="text_2">
      <!-- 39250 -->
      <g transform="translate(107.176257 322.182437)scale(0.1 -0.1)">
       <defs>
        <path d="M 1228 531 
L 3431 531 
L 3431 0 
L 469 0 
L 469 531 
Q 828 903 1448 1529 
Q 2069 2156 2228 2338 
Q 2531 2678 2651 2914 
Q 2772 3150 2772 3378 
Q 2772 3750 2511 3984 
Q 2250 4219 1831 4219 
Q 1534 4219 1204 4116 
Q 875 4013 500 3803 
L 500 4441 
Q 881 4594 1212 4672 
Q 1544 4750 1819 4750 
Q 2544 4750 2975 4387 
Q 3406 4025 3406 3419 
Q 3406 3131 3298 2873 
Q 3191 2616 2906 2266 
Q 2828 2175 2409 1742 
Q 1991 1309 1228 531 
z
" id="DejaVuSans-32" transform="scale(0.015625)"/>
        <path d="M 691 4666 
L 3169 4666 
L 3169 4134 
L 1269 4134 
L 1269 2991 
Q 1406 3038 1543 3061 
Q 1681 3084 1819 3084 
Q 2600 3084 3056 2656 
Q 3513 2228 3513 1497 
Q 3513 744 3044 326 
Q 2575 -91 1722 -91 
Q 1428 -91 1123 -41 
Q 819 9 494 109 
L 494 744 
Q 775 591 1075 516 
Q 1375 441 1709 441 
Q 2250 441 2565 725 
Q 2881 1009 2881 1497 
Q 2881 1984 2565 2268 
Q 2250 2553 1709 2553 
Q 1456 2553 1204 2497 
Q 953 2441 691 2322 
L 691 4666 
z
" id="DejaVuSans-35" transform="scale(0.015625)"/>
       </defs>
       <use xlink:href="#DejaVuSans-33"/>
       <use x="63.623047" xlink:href="#DejaVuSans-39"/>
       <use x="127.246094" xlink:href="#DejaVuSans-32"/>
       <use x="190.869141" xlink:href="#DejaVuSans-35"/>
       <use x="254.492188" xlink:href="#DejaVuSans-30"/>
      </g>
     </g>
    </g>
    <g id="xtick_3">
     <g id="line2d_3">
      <g>
       <use style="stroke:#000000;stroke-width:0.8;" x="172.332286" xlink:href="#mb6d6ebe513" y="307.584"/>
      </g>
     </g>
     <g id="text_3">
      <!-- 39500 -->
      <g transform="translate(156.426036 322.182437)scale(0.1 -0.1)">
       <use xlink:href="#DejaVuSans-33"/>
       <use x="63.623047" xlink:href="#DejaVuSans-39"/>
       <use x="127.246094" xlink:href="#DejaVuSans-35"/>
       <use x="190.869141" xlink:href="#DejaVuSans-30"/>
       <use x="254.492188" xlink:href="#DejaVuSans-30"/>
      </g>
     </g>
    </g>
    <g id="xtick_4">
     <g id="line2d_4">
      <g>
       <use style="stroke:#000000;stroke-width:0.8;" x="221.582065" xlink:href="#mb6d6ebe513" y="307.584"/>
      </g>
     </g>
     <g id="text_4">
      <!-- 39750 -->
      <g transform="translate(205.675815 322.182437)scale(0.1 -0.1)">
       <defs>
        <path d="M 525 4666 
L 3525 4666 
L 3525 4397 
L 1831 0 
L 1172 0 
L 2766 4134 
L 525 4134 
L 525 4666 
z
" id="DejaVuSans-37" transform="scale(0.015625)"/>
       </defs>
       <use xlink:href="#DejaVuSans-33"/>
       <use x="63.623047" xlink:href="#DejaVuSans-39"/>
       <use x="127.246094" xlink:href="#DejaVuSans-37"/>
       <use x="190.869141" xlink:href="#DejaVuSans-35"/>
       <use x="254.492188" xlink:href="#DejaVuSans-30"/>
      </g>
     </g>
    </g>
    <g id="xtick_5">
     <g id="line2d_5">
      <g>
       <use style="stroke:#000000;stroke-width:0.8;" x="270.831845" xlink:href="#mb6d6ebe513" y="307.584"/>
      </g>
     </g>
     <g id="text_5">
      <!-- 40000 -->
      <g transform="translate(254.925595 322.182437)scale(0.1 -0.1)">
       <defs>
        <path d="M 2419 4116 
L 825 1625 
L 2419 1625 
L 2419 4116 
z
M 2253 4666 
L 3047 4666 
L 3047 1625 
L 3713 1625 
L 3713 1100 
L 3047 1100 
L 3047 0 
L 2419 0 
L 2419 1100 
L 313 1100 
L 313 1709 
L 2253 4666 
z
" id="DejaVuSans-34" transform="scale(0.015625)"/>
       </defs>
       <use xlink:href="#DejaVuSans-34"/>
       <use x="63.623047" xlink:href="#DejaVuSans-30"/>
       <use x="127.246094" xlink:href="#DejaVuSans-30"/>
       <use x="190.869141" xlink:href="#DejaVuSans-30"/>
       <use x="254.492188" xlink:href="#DejaVuSans-30"/>
      </g>
     </g>
    </g>
    <g id="xtick_6">
     <g id="line2d_6">
      <g>
       <use style="stroke:#000000;stroke-width:0.8;" x="320.081624" xlink:href="#mb6d6ebe513" y="307.584"/>
      </g>
     </g>
     <g id="text_6">
      <!-- 40250 -->
      <g transform="translate(304.175374 322.182437)scale(0.1 -0.1)">
       <use xlink:href="#DejaVuSans-34"/>
       <use x="63.623047" xlink:href="#DejaVuSans-30"/>
       <use x="127.246094" xlink:href="#DejaVuSans-32"/>
       <use x="190.869141" xlink:href="#DejaVuSans-35"/>
       <use x="254.492188" xlink:href="#DejaVuSans-30"/>
      </g>
     </g>
    </g>
    <g id="xtick_7">
     <g id="line2d_7">
      <g>
       <use style="stroke:#000000;stroke-width:0.8;" x="369.331403" xlink:href="#mb6d6ebe513" y="307.584"/>
      </g>
     </g>
     <g id="text_7">
      <!-- 40500 -->
      <g transform="translate(353.425153 322.182437)scale(0.1 -0.1)">
       <use xlink:href="#DejaVuSans-34"/>
       <use x="63.623047" xlink:href="#DejaVuSans-30"/>
       <use x="127.246094" xlink:href="#DejaVuSans-35"/>
       <use x="190.869141" xlink:href="#DejaVuSans-30"/>
       <use x="254.492188" xlink:href="#DejaVuSans-30"/>
      </g>
     </g>
    </g>
   </g>
   <g id="matplotlib.axis_2">
    <g id="ytick_1">
     <g id="line2d_8">
      <defs>
       <path d="M 0 0 
L -3.5 0 
" id="mde6806b9dc" style="stroke:#000000;stroke-width:0.8;"/>
      </defs>
      <g>
       <use style="stroke:#000000;stroke-width:0.8;" x="57.6" xlink:href="#mde6806b9dc" y="295.488215"/>
      </g>
     </g>
     <g id="text_8">
      <!-- 0.0 -->
      <g transform="translate(34.696875 299.287434)scale(0.1 -0.1)">
       <defs>
        <path d="M 684 794 
L 1344 794 
L 1344 0 
L 684 0 
L 684 794 
z
" id="DejaVuSans-2e" transform="scale(0.015625)"/>
       </defs>
       <use xlink:href="#DejaVuSans-30"/>
       <use x="63.623047" xlink:href="#DejaVuSans-2e"/>
       <use x="95.410156" xlink:href="#DejaVuSans-30"/>
      </g>
     </g>
    </g>
    <g id="ytick_2">
     <g id="line2d_9">
      <g>
       <use style="stroke:#000000;stroke-width:0.8;" x="57.6" xlink:href="#mde6806b9dc" y="252.481942"/>
      </g>
     </g>
     <g id="text_9">
      <!-- 0.2 -->
      <g transform="translate(34.696875 256.28116)scale(0.1 -0.1)">
       <use xlink:href="#DejaVuSans-30"/>
       <use x="63.623047" xlink:href="#DejaVuSans-2e"/>
       <use x="95.410156" xlink:href="#DejaVuSans-32"/>
      </g>
     </g>
    </g>
    <g id="ytick_3">
     <g id="line2d_10">
      <g>
       <use style="stroke:#000000;stroke-width:0.8;" x="57.6" xlink:href="#mde6806b9dc" y="209.475668"/>
      </g>
     </g>
     <g id="text_10">
      <!-- 0.4 -->
      <g transform="translate(34.696875 213.274887)scale(0.1 -0.1)">
       <use xlink:href="#DejaVuSans-30"/>
       <use x="63.623047" xlink:href="#DejaVuSans-2e"/>
       <use x="95.410156" xlink:href="#DejaVuSans-34"/>
      </g>
     </g>
    </g>
    <g id="ytick_4">
     <g id="line2d_11">
      <g>
       <use style="stroke:#000000;stroke-width:0.8;" x="57.6" xlink:href="#mde6806b9dc" y="166.469395"/>
      </g>
     </g>
     <g id="text_11">
      <!-- 0.6 -->
      <g transform="translate(34.696875 170.268614)scale(0.1 -0.1)">
       <defs>
        <path d="M 2113 2584 
Q 1688 2584 1439 2293 
Q 1191 2003 1191 1497 
Q 1191 994 1439 701 
Q 1688 409 2113 409 
Q 2538 409 2786 701 
Q 3034 994 3034 1497 
Q 3034 2003 2786 2293 
Q 2538 2584 2113 2584 
z
M 3366 4563 
L 3366 3988 
Q 3128 4100 2886 4159 
Q 2644 4219 2406 4219 
Q 1781 4219 1451 3797 
Q 1122 3375 1075 2522 
Q 1259 2794 1537 2939 
Q 1816 3084 2150 3084 
Q 2853 3084 3261 2657 
Q 3669 2231 3669 1497 
Q 3669 778 3244 343 
Q 2819 -91 2113 -91 
Q 1303 -91 875 529 
Q 447 1150 447 2328 
Q 447 3434 972 4092 
Q 1497 4750 2381 4750 
Q 2619 4750 2861 4703 
Q 3103 4656 3366 4563 
z
" id="DejaVuSans-36" transform="scale(0.015625)"/>
       </defs>
       <use xlink:href="#DejaVuSans-30"/>
       <use x="63.623047" xlink:href="#DejaVuSans-2e"/>
       <use x="95.410156" xlink:href="#DejaVuSans-36"/>
      </g>
     </g>
    </g>
    <g id="ytick_5">
     <g id="line2d_12">
      <g>
       <use style="stroke:#000000;stroke-width:0.8;" x="57.6" xlink:href="#mde6806b9dc" y="123.463122"/>
      </g>
     </g>
     <g id="text_12">
      <!-- 0.8 -->
      <g transform="translate(34.696875 127.26234)scale(0.1 -0.1)">
       <defs>
        <path d="M 2034 2216 
Q 1584 2216 1326 1975 
Q 1069 1734 1069 1313 
Q 1069 891 1326 650 
Q 1584 409 2034 409 
Q 2484 409 2743 651 
Q 3003 894 3003 1313 
Q 3003 1734 2745 1975 
Q 2488 2216 2034 2216 
z
M 1403 2484 
Q 997 2584 770 2862 
Q 544 3141 544 3541 
Q 544 4100 942 4425 
Q 1341 4750 2034 4750 
Q 2731 4750 3128 4425 
Q 3525 4100 3525 3541 
Q 3525 3141 3298 2862 
Q 3072 2584 2669 2484 
Q 3125 2378 3379 2068 
Q 3634 1759 3634 1313 
Q 3634 634 3220 271 
Q 2806 -91 2034 -91 
Q 1263 -91 848 271 
Q 434 634 434 1313 
Q 434 1759 690 2068 
Q 947 2378 1403 2484 
z
M 1172 3481 
Q 1172 3119 1398 2916 
Q 1625 2713 2034 2713 
Q 2441 2713 2670 2916 
Q 2900 3119 2900 3481 
Q 2900 3844 2670 4047 
Q 2441 4250 2034 4250 
Q 1625 4250 1398 4047 
Q 1172 3844 1172 3481 
z
" id="DejaVuSans-38" transform="scale(0.015625)"/>
       </defs>
       <use xlink:href="#DejaVuSans-30"/>
       <use x="63.623047" xlink:href="#DejaVuSans-2e"/>
       <use x="95.410156" xlink:href="#DejaVuSans-38"/>
      </g>
     </g>
    </g>
    <g id="ytick_6">
     <g id="line2d_13">
      <g>
       <use style="stroke:#000000;stroke-width:0.8;" x="57.6" xlink:href="#mde6806b9dc" y="80.456848"/>
      </g>
     </g>
     <g id="text_13">
      <!-- 1.0 -->
      <g transform="translate(34.696875 84.256067)scale(0.1 -0.1)">
       <defs>
        <path d="M 794 531 
L 1825 531 
L 1825 4091 
L 703 3866 
L 703 4441 
L 1819 4666 
L 2450 4666 
L 2450 531 
L 3481 531 
L 3481 0 
L 794 0 
L 794 531 
z
" id="DejaVuSans-31" transform="scale(0.015625)"/>
       </defs>
       <use xlink:href="#DejaVuSans-31"/>
       <use x="63.623047" xlink:href="#DejaVuSans-2e"/>
       <use x="95.410156" xlink:href="#DejaVuSans-30"/>
      </g>
     </g>
    </g>
    <g id="text_14">
     <!-- 1e6 -->
     <g transform="translate(57.6 38.472)scale(0.1 -0.1)">
      <defs>
       <path d="M 3597 1894 
L 3597 1613 
L 953 1613 
Q 991 1019 1311 708 
Q 1631 397 2203 397 
Q 2534 397 2845 478 
Q 3156 559 3463 722 
L 3463 178 
Q 3153 47 2828 -22 
Q 2503 -91 2169 -91 
Q 1331 -91 842 396 
Q 353 884 353 1716 
Q 353 2575 817 3079 
Q 1281 3584 2069 3584 
Q 2775 3584 3186 3129 
Q 3597 2675 3597 1894 
z
M 3022 2063 
Q 3016 2534 2758 2815 
Q 2500 3097 2075 3097 
Q 1594 3097 1305 2825 
Q 1016 2553 972 2059 
L 3022 2063 
z
" id="DejaVuSans-65" transform="scale(0.015625)"/>
      </defs>
      <use xlink:href="#DejaVuSans-31"/>
      <use x="63.623047" xlink:href="#DejaVuSans-65"/>
      <use x="125.146484" xlink:href="#DejaVuSans-36"/>
     </g>
    </g>
   </g>
   <g id="line2d_14">
    <path clip-path="url(#p3e12cab141)" d="M 73.832727 295.479122 
L 172.332286 295.369908 
L 172.923283 295.344236 
L 173.317282 295.485095 
L 186.516222 295.473843 
L 189.865207 295.488 
L 201.685154 295.476316 
L 201.882154 295.319933 
L 202.276152 295.319933 
L 202.67015 295.472905 
L 204.049144 295.471993 
L 206.610132 295.488 
L 229.068032 295.469197 
L 229.46203 295.350787 
L 229.856028 295.350787 
L 230.250026 295.475521 
L 233.205013 295.463901 
L 251.525931 295.393855 
L 252.116929 295.349172 
L 253.495922 295.442071 
L 254.480918 295.488 
L 255.268914 295.488 
L 270.043848 295.488 
L 270.240847 295.3355 
L 271.028844 295.432502 
L 271.422842 295.488 
L 271.81684 295.448056 
L 272.407838 295.488 
L 398.487273 295.488 
L 398.487273 295.488 
" style="fill:none;stroke:#1f77b4;stroke-linecap:square;stroke-width:1.5;"/>
   </g>
   <g id="line2d_15">
    <path clip-path="url(#p3e12cab141)" d="M 73.832727 295.477241 
L 76.787714 295.46783 
L 76.984713 295.39201 
L 77.575711 295.469167 
L 81.515693 295.471225 
L 81.712692 294.961656 
L 82.10669 295.343012 
L 82.303689 295.185942 
L 82.697688 295.402491 
L 83.091686 295.431612 
L 84.076681 295.469127 
L 84.47068 295.436675 
L 85.455675 295.460308 
L 85.849673 295.445091 
L 87.031668 295.484728 
L 87.228667 295.475727 
L 87.425666 295.326428 
L 87.819665 295.450309 
L 95.108632 295.470975 
L 98.457617 295.483069 
L 103.382595 295.465452 
L 103.579594 294.561027 
L 103.973592 295.253883 
L 104.36759 295.422279 
L 105.352586 295.478383 
L 106.140583 295.458275 
L 107.913575 295.467186 
L 110.277564 295.478132 
L 111.656558 295.483798 
L 116.581536 295.483858 
L 116.778535 80.45467 
L 117.172533 238.998541 
L 117.566531 281.339314 
L 117.96053 291.92231 
L 118.354528 294.581669 
L 118.748526 295.260691 
L 119.142524 295.428251 
L 123.476505 295.485232 
L 124.264501 295.468848 
L 126.431492 295.472447 
L 127.219488 295.438352 
L 128.401483 295.44704 
L 129.189479 295.36051 
L 129.780477 295.442572 
L 130.371474 295.448506 
L 130.568473 53.568 
L 130.765472 174.508755 
L 131.553469 280.334433 
L 131.947467 291.663816 
L 132.341465 294.516765 
L 132.735463 295.135574 
L 133.129462 295.388704 
L 133.52346 295.473052 
L 133.720459 295.33747 
L 133.917458 295.411463 
L 134.114457 295.099981 
L 135.099453 295.430116 
L 135.493451 295.45425 
L 135.69045 295.259893 
L 136.084448 295.420078 
L 138.05444 295.46643 
L 139.039435 295.450319 
L 139.433433 295.398149 
L 140.418429 295.483924 
L 141.797423 295.426899 
L 142.782418 295.457933 
L 142.979417 295.387744 
L 143.570415 295.437913 
L 148.298394 295.455353 
L 155.390362 295.421121 
L 155.587361 295.188198 
L 156.178358 295.41541 
L 156.769356 295.418562 
L 156.966355 294.88523 
L 157.360353 295.301093 
L 157.95135 295.42632 
L 158.542348 295.442367 
L 158.14835 295.0968 
L 159.527343 295.421864 
L 163.861324 295.412242 
L 164.058323 287.709099 
L 164.452321 293.519757 
L 164.64932 294.499538 
L 165.043319 294.974524 
L 164.64932 295.226921 
L 166.225313 295.46354 
L 166.422312 295.338507 
L 167.210309 295.44635 
L 167.801306 295.467455 
L 169.968297 295.470228 
L 170.756293 295.453212 
L 171.938288 295.437488 
L 174.893274 295.468105 
L 175.090274 295.339863 
L 175.484272 295.43958 
L 176.469267 295.454202 
L 177.060265 295.45784 
L 177.454263 295.420473 
L 178.833257 295.480225 
L 182.182242 295.477259 
L 182.379241 197.923822 
L 182.773239 271.063195 
L 183.167237 289.374399 
L 183.561236 293.92584 
L 183.955234 295.052407 
L 184.546231 295.350409 
L 185.334228 295.46811 
L 191.835199 295.449681 
L 193.214192 295.474907 
L 193.214192 295.479708 
L 197.351174 295.467913 
L 197.548173 295.281921 
L 197.942171 295.355383 
L 198.730168 295.470144 
L 200.306161 295.464589 
L 202.473151 295.449174 
L 202.67015 295.360679 
L 203.261147 295.412342 
L 203.458147 295.291857 
L 204.049144 295.450026 
L 207.595128 295.46547 
L 207.989126 295.439417 
L 212.126108 295.450557 
L 213.505102 295.461839 
L 213.702101 295.464344 
L 213.8991 293.388596 
L 214.096099 294.850932 
L 214.490097 295.299686 
L 214.884095 295.37467 
L 215.278094 295.41405 
L 216.263089 295.459739 
L 217.248085 295.471543 
L 217.445084 294.991171 
L 217.839082 295.342631 
L 218.430079 295.405542 
L 219.218076 295.449938 
L 219.809073 295.422248 
L 220.59707 295.439988 
L 220.794069 295.444749 
L 220.991068 295.329228 
L 221.582065 295.439981 
L 223.355057 295.477027 
L 224.93105 295.369829 
L 224.734051 187.913339 
L 225.522048 281.995622 
L 225.916046 292.05696 
L 225.719047 293.753235 
L 226.507043 295.215008 
L 226.901041 295.393201 
L 227.29504 295.437749 
L 227.492039 294.961743 
L 227.886037 295.211681 
L 228.083036 295.029961 
L 228.280035 295.249872 
L 228.477034 294.699579 
L 228.871033 295.257135 
L 229.068032 295.343538 
L 229.265031 295.095889 
L 229.46203 295.272699 
L 230.053027 295.361104 
L 230.250026 295.211898 
L 230.841024 295.397167 
L 231.038023 295.263498 
L 231.62902 295.437884 
L 232.023019 295.432011 
L 232.220018 294.929608 
L 233.599011 295.422637 
L 234.781006 295.424593 
L 234.978005 295.207852 
L 235.175004 295.18447 
L 235.372004 295.383615 
L 236.16 295.4297 
L 236.553998 295.322564 
L 237.144996 295.428749 
L 237.341995 295.429345 
L 237.538994 293.121483 
L 237.341995 294.285496 
L 238.129991 295.208857 
L 238.917988 295.404756 
L 239.114987 295.237582 
L 240.099982 295.386347 
L 240.296981 295.224519 
L 240.493981 295.336241 
L 239.902983 295.383091 
L 241.675975 295.311954 
L 242.069974 295.42396 
L 242.660971 295.424939 
L 243.842966 295.402743 
L 244.039965 295.426126 
L 244.236964 295.165025 
L 244.433963 295.107647 
L 245.02496 295.412754 
L 245.418959 295.371255 
L 246.206955 295.43646 
L 246.600953 295.225124 
L 247.38895 295.420749 
L 247.585949 295.417784 
L 247.979947 295.256827 
L 248.373945 295.289988 
L 248.570944 295.180198 
L 248.964943 295.375192 
L 249.161942 295.238446 
L 249.949938 295.396748 
L 250.146937 294.310738 
L 250.343936 294.842966 
L 250.737935 294.613029 
L 251.131933 295.258698 
L 252.116929 295.336816 
L 252.313928 295.203612 
L 252.707926 295.397592 
L 252.904925 295.325699 
L 253.692921 295.431225 
L 254.08692 295.460801 
L 254.283919 295.265604 
L 254.480918 295.347773 
L 254.677917 295.306743 
L 255.071915 295.415789 
L 255.268914 295.238677 
L 255.859912 295.414697 
L 256.056911 295.273502 
L 256.647908 295.433902 
L 257.632904 295.329568 
L 257.829903 295.2927 
L 258.4209 295.429639 
L 258.814898 295.444542 
L 259.011898 295.257475 
L 259.405896 295.400556 
L 259.602895 295.328194 
L 260.193892 295.388785 
L 260.587891 295.410152 
L 260.981889 295.466192 
L 261.178888 295.38344 
L 260.981889 295.342064 
L 261.769885 295.435045 
L 262.163883 295.379515 
L 261.769885 295.432191 
L 262.360883 259.335138 
L 262.754881 286.39512 
L 262.95188 293.204785 
L 263.345878 294.894685 
L 263.739876 295.275281 
L 263.936876 295.348298 
L 263.542877 295.38912 
L 263.936876 295.405218 
L 264.527873 295.451248 
L 266.103866 295.40233 
L 266.300865 295.42592 
L 266.497864 295.256976 
L 267.088861 295.460499 
L 268.467855 295.445073 
L 274.968826 295.395304 
L 275.362824 295.395527 
L 276.544819 295.479714 
L 277.726814 295.380581 
L 278.120812 295.479223 
L 281.666796 295.449282 
L 281.469797 295.467074 
L 284.030786 295.443474 
L 285.803778 295.441709 
L 286.000777 295.201443 
L 286.394775 295.37005 
L 287.182771 295.436241 
L 286.591774 295.376215 
L 288.364766 295.366646 
L 288.167767 295.398294 
L 289.74376 295.476447 
L 291.319753 295.395854 
L 291.713751 295.418067 
L 292.107749 295.238325 
L 292.501748 295.396713 
L 292.895746 295.397421 
L 293.092745 295.441144 
L 293.486743 295.144692 
L 293.880741 295.318406 
L 295.259735 295.447459 
L 295.850733 295.327245 
L 296.44173 295.445741 
L 296.835728 295.432916 
L 298.60872 295.444132 
L 299.987714 295.415212 
L 300.184713 295.238951 
L 300.578711 295.415536 
L 300.775711 295.290878 
L 301.366708 295.475215 
L 303.336699 295.437697 
L 303.730697 295.441621 
L 305.109691 295.391517 
L 305.897688 295.462039 
L 307.079682 295.432244 
L 307.276681 295.251326 
L 307.67068 295.381783 
L 310.231668 295.408448 
L 310.428667 295.446952 
L 310.625666 262.005346 
L 311.019665 287.111645 
L 311.413663 293.233801 
L 311.807661 294.88188 
L 312.201659 295.334782 
L 312.595658 295.401902 
L 313.580653 295.417403 
L 315.944643 295.444681 
L 316.141642 80.442345 
L 316.53564 241.707673 
L 316.929638 281.995524 
L 317.323636 292.088759 
L 317.717635 294.6198 
L 318.111633 295.237649 
L 318.70263 295.419926 
L 320.672621 295.466093 
L 322.839612 295.462156 
L 323.036611 295.252065 
L 323.430609 295.456812 
L 323.627608 295.382307 
L 323.824607 295.433317 
L 325.203601 295.482793 
L 326.779594 295.478802 
L 326.976593 295.375493 
L 327.961589 295.48252 
L 329.93158 295.469359 
L 330.128579 294.240817 
L 330.522577 295.146323 
L 330.916575 295.387947 
L 331.507573 295.45709 
L 332.295569 295.455357 
L 335.447555 295.481515 
L 335.644554 284.734138 
L 336.038553 292.788767 
L 336.235552 294.127825 
L 337.023548 295.391431 
L 337.811545 295.472146 
L 340.569532 295.485073 
L 342.342524 295.47028 
L 345.49451 295.483434 
L 355.935463 295.475329 
L 360.663442 295.485676 
L 361.451439 295.475454 
L 363.815428 295.48098 
L 364.406425 295.466658 
L 365.58842 295.47618 
L 365.785419 295.379022 
L 366.376417 295.441537 
L 368.149409 295.479545 
L 368.346408 295.396906 
L 368.937405 295.465327 
L 370.710397 295.455485 
L 371.104395 295.460074 
L 371.301395 295.378798 
L 371.892392 295.441783 
L 375.635375 295.482311 
L 376.029373 295.45252 
L 379.575357 295.460883 
L 379.772357 295.356486 
L 380.166355 295.469533 
L 382.136346 295.466537 
L 382.333345 295.261704 
L 382.727343 295.42868 
L 383.318341 295.463062 
L 384.303336 295.454205 
L 384.894334 295.419558 
L 390.607308 295.463811 
L 391.001306 295.416502 
L 393.365296 295.473997 
L 393.562295 272.024557 
L 393.956293 289.613889 
L 394.350291 294.01199 
L 394.744289 295.286568 
L 394.941289 295.061586 
L 395.138288 257.916234 
L 395.532286 286.080706 
L 395.926284 292.756926 
L 396.320282 294.798995 
L 396.714281 295.303171 
L 397.108279 295.382877 
L 397.896275 295.436732 
L 398.487273 295.458284 
L 398.487273 295.458284 
" style="fill:none;stroke:#ff7f0e;stroke-linecap:square;stroke-width:1.5;"/>
   </g>
   <g id="patch_3">
    <path d="M 57.6 307.584 
L 57.6 41.472 
" style="fill:none;stroke:#000000;stroke-linecap:square;stroke-linejoin:miter;stroke-width:0.8;"/>
   </g>
   <g id="patch_4">
    <path d="M 414.72 307.584 
L 414.72 41.472 
" style="fill:none;stroke:#000000;stroke-linecap:square;stroke-linejoin:miter;stroke-width:0.8;"/>
   </g>
   <g id="patch_5">
    <path d="M 57.6 307.584 
L 414.72 307.584 
" style="fill:none;stroke:#000000;stroke-linecap:square;stroke-linejoin:miter;stroke-width:0.8;"/>
   </g>
   <g id="patch_6">
    <path d="M 57.6 41.472 
L 414.72 41.472 
" style="fill:none;stroke:#000000;stroke-linecap:square;stroke-linejoin:miter;stroke-width:0.8;"/>
   </g>
  </g>
 </g>
 <defs>
  <clipPath id="p3e12cab141">
   <rect height="266.112" width="357.12" x="57.6" y="41.472"/>
  </clipPath>
 </defs>
</svg>
