<?xml version="1.0" encoding="utf-8" standalone="no"?>
<!DOCTYPE svg PUBLIC "-//W3C//DTD SVG 1.1//EN"
  "http://www.w3.org/Graphics/SVG/1.1/DTD/svg11.dtd">
<svg height="345.6pt" version="1.1" viewBox="0 0 460.8 345.6" width="460.8pt" xmlns="http://www.w3.org/2000/svg" xmlns:xlink="http://www.w3.org/1999/xlink">
 <metadata>
  <rdf:RDF xmlns:cc="http://creativecommons.org/ns#" xmlns:dc="http://purl.org/dc/elements/1.1/" xmlns:rdf="http://www.w3.org/1999/02/22-rdf-syntax-ns#">
   <cc:Work>
    <dc:type rdf:resource="http://purl.org/dc/dcmitype/StillImage"/>
    <dc:date>2022-01-06T21:58:35.804401</dc:date>
    <dc:format>image/svg+xml</dc:format>
    <dc:creator>
     <cc:Agent>
      <dc:title>Matplotlib v3.4.3, https://matplotlib.org/</dc:title>
     </cc:Agent>
    </dc:creator>
   </cc:Work>
  </rdf:RDF>
 </metadata>
 <defs>
  <style type="text/css">*{stroke-linecap:butt;stroke-linejoin:round;}</style>
 </defs>
 <g id="figure_1">
  <g id="patch_1">
   <path d="M 0 345.6 
L 460.8 345.6 
L 460.8 0 
L 0 0 
z
" style="fill:#ffffff;"/>
  </g>
  <g id="axes_1">
   <g id="patch_2">
    <path d="M 57.6 307.584 
L 414.72 307.584 
L 414.72 41.472 
L 57.6 41.472 
z
" style="fill:#ffffff;"/>
   </g>
   <g id="matplotlib.axis_1">
    <g id="xtick_1">
     <g id="line2d_1">
      <defs>
       <path d="M 0 0 
L 0 3.5 
" id="m3c61a0ae5f" style="stroke:#000000;stroke-width:0.8;"/>
      </defs>
      <g>
       <use style="stroke:#000000;stroke-width:0.8;" x="73.832727" xlink:href="#m3c61a0ae5f" y="307.584"/>
      </g>
     </g>
     <g id="text_1">
      <!-- 39000 -->
      <g transform="translate(57.926477 322.182437)scale(0.1 -0.1)">
       <defs>
        <path d="M 2597 2516 
Q 3050 2419 3304 2112 
Q 3559 1806 3559 1356 
Q 3559 666 3084 287 
Q 2609 -91 1734 -91 
Q 1441 -91 1130 -33 
Q 819 25 488 141 
L 488 750 
Q 750 597 1062 519 
Q 1375 441 1716 441 
Q 2309 441 2620 675 
Q 2931 909 2931 1356 
Q 2931 1769 2642 2001 
Q 2353 2234 1838 2234 
L 1294 2234 
L 1294 2753 
L 1863 2753 
Q 2328 2753 2575 2939 
Q 2822 3125 2822 3475 
Q 2822 3834 2567 4026 
Q 2313 4219 1838 4219 
Q 1578 4219 1281 4162 
Q 984 4106 628 3988 
L 628 4550 
Q 988 4650 1302 4700 
Q 1616 4750 1894 4750 
Q 2613 4750 3031 4423 
Q 3450 4097 3450 3541 
Q 3450 3153 3228 2886 
Q 3006 2619 2597 2516 
z
" id="DejaVuSans-33" transform="scale(0.015625)"/>
        <path d="M 703 97 
L 703 672 
Q 941 559 1184 500 
Q 1428 441 1663 441 
Q 2288 441 2617 861 
Q 2947 1281 2994 2138 
Q 2813 1869 2534 1725 
Q 2256 1581 1919 1581 
Q 1219 1581 811 2004 
Q 403 2428 403 3163 
Q 403 3881 828 4315 
Q 1253 4750 1959 4750 
Q 2769 4750 3195 4129 
Q 3622 3509 3622 2328 
Q 3622 1225 3098 567 
Q 2575 -91 1691 -91 
Q 1453 -91 1209 -44 
Q 966 3 703 97 
z
M 1959 2075 
Q 2384 2075 2632 2365 
Q 2881 2656 2881 3163 
Q 2881 3666 2632 3958 
Q 2384 4250 1959 4250 
Q 1534 4250 1286 3958 
Q 1038 3666 1038 3163 
Q 1038 2656 1286 2365 
Q 1534 2075 1959 2075 
z
" id="DejaVuSans-39" transform="scale(0.015625)"/>
        <path d="M 2034 4250 
Q 1547 4250 1301 3770 
Q 1056 3291 1056 2328 
Q 1056 1369 1301 889 
Q 1547 409 2034 409 
Q 2525 409 2770 889 
Q 3016 1369 3016 2328 
Q 3016 3291 2770 3770 
Q 2525 4250 2034 4250 
z
M 2034 4750 
Q 2819 4750 3233 4129 
Q 3647 3509 3647 2328 
Q 3647 1150 3233 529 
Q 2819 -91 2034 -91 
Q 1250 -91 836 529 
Q 422 1150 422 2328 
Q 422 3509 836 4129 
Q 1250 4750 2034 4750 
z
" id="DejaVuSans-30" transform="scale(0.015625)"/>
       </defs>
       <use xlink:href="#DejaVuSans-33"/>
       <use x="63.623047" xlink:href="#DejaVuSans-39"/>
       <use x="127.246094" xlink:href="#DejaVuSans-30"/>
       <use x="190.869141" xlink:href="#DejaVuSans-30"/>
       <use x="254.492188" xlink:href="#DejaVuSans-30"/>
      </g>
     </g>
    </g>
    <g id="xtick_2">
     <g id="line2d_2">
      <g>
       <use style="stroke:#000000;stroke-width:0.8;" x="123.082507" xlink:href="#m3c61a0ae5f" y="307.584"/>
      </g>
     </g>
     <g id="text_2">
      <!-- 39250 -->
      <g transform="translate(107.176257 322.182437)scale(0.1 -0.1)">
       <defs>
        <path d="M 1228 531 
L 3431 531 
L 3431 0 
L 469 0 
L 469 531 
Q 828 903 1448 1529 
Q 2069 2156 2228 2338 
Q 2531 2678 2651 2914 
Q 2772 3150 2772 3378 
Q 2772 3750 2511 3984 
Q 2250 4219 1831 4219 
Q 1534 4219 1204 4116 
Q 875 4013 500 3803 
L 500 4441 
Q 881 4594 1212 4672 
Q 1544 4750 1819 4750 
Q 2544 4750 2975 4387 
Q 3406 4025 3406 3419 
Q 3406 3131 3298 2873 
Q 3191 2616 2906 2266 
Q 2828 2175 2409 1742 
Q 1991 1309 1228 531 
z
" id="DejaVuSans-32" transform="scale(0.015625)"/>
        <path d="M 691 4666 
L 3169 4666 
L 3169 4134 
L 1269 4134 
L 1269 2991 
Q 1406 3038 1543 3061 
Q 1681 3084 1819 3084 
Q 2600 3084 3056 2656 
Q 3513 2228 3513 1497 
Q 3513 744 3044 326 
Q 2575 -91 1722 -91 
Q 1428 -91 1123 -41 
Q 819 9 494 109 
L 494 744 
Q 775 591 1075 516 
Q 1375 441 1709 441 
Q 2250 441 2565 725 
Q 2881 1009 2881 1497 
Q 2881 1984 2565 2268 
Q 2250 2553 1709 2553 
Q 1456 2553 1204 2497 
Q 953 2441 691 2322 
L 691 4666 
z
" id="DejaVuSans-35" transform="scale(0.015625)"/>
       </defs>
       <use xlink:href="#DejaVuSans-33"/>
       <use x="63.623047" xlink:href="#DejaVuSans-39"/>
       <use x="127.246094" xlink:href="#DejaVuSans-32"/>
       <use x="190.869141" xlink:href="#DejaVuSans-35"/>
       <use x="254.492188" xlink:href="#DejaVuSans-30"/>
      </g>
     </g>
    </g>
    <g id="xtick_3">
     <g id="line2d_3">
      <g>
       <use style="stroke:#000000;stroke-width:0.8;" x="172.332286" xlink:href="#m3c61a0ae5f" y="307.584"/>
      </g>
     </g>
     <g id="text_3">
      <!-- 39500 -->
      <g transform="translate(156.426036 322.182437)scale(0.1 -0.1)">
       <use xlink:href="#DejaVuSans-33"/>
       <use x="63.623047" xlink:href="#DejaVuSans-39"/>
       <use x="127.246094" xlink:href="#DejaVuSans-35"/>
       <use x="190.869141" xlink:href="#DejaVuSans-30"/>
       <use x="254.492188" xlink:href="#DejaVuSans-30"/>
      </g>
     </g>
    </g>
    <g id="xtick_4">
     <g id="line2d_4">
      <g>
       <use style="stroke:#000000;stroke-width:0.8;" x="221.582065" xlink:href="#m3c61a0ae5f" y="307.584"/>
      </g>
     </g>
     <g id="text_4">
      <!-- 39750 -->
      <g transform="translate(205.675815 322.182437)scale(0.1 -0.1)">
       <defs>
        <path d="M 525 4666 
L 3525 4666 
L 3525 4397 
L 1831 0 
L 1172 0 
L 2766 4134 
L 525 4134 
L 525 4666 
z
" id="DejaVuSans-37" transform="scale(0.015625)"/>
       </defs>
       <use xlink:href="#DejaVuSans-33"/>
       <use x="63.623047" xlink:href="#DejaVuSans-39"/>
       <use x="127.246094" xlink:href="#DejaVuSans-37"/>
       <use x="190.869141" xlink:href="#DejaVuSans-35"/>
       <use x="254.492188" xlink:href="#DejaVuSans-30"/>
      </g>
     </g>
    </g>
    <g id="xtick_5">
     <g id="line2d_5">
      <g>
       <use style="stroke:#000000;stroke-width:0.8;" x="270.831845" xlink:href="#m3c61a0ae5f" y="307.584"/>
      </g>
     </g>
     <g id="text_5">
      <!-- 40000 -->
      <g transform="translate(254.925595 322.182437)scale(0.1 -0.1)">
       <defs>
        <path d="M 2419 4116 
L 825 1625 
L 2419 1625 
L 2419 4116 
z
M 2253 4666 
L 3047 4666 
L 3047 1625 
L 3713 1625 
L 3713 1100 
L 3047 1100 
L 3047 0 
L 2419 0 
L 2419 1100 
L 313 1100 
L 313 1709 
L 2253 4666 
z
" id="DejaVuSans-34" transform="scale(0.015625)"/>
       </defs>
       <use xlink:href="#DejaVuSans-34"/>
       <use x="63.623047" xlink:href="#DejaVuSans-30"/>
       <use x="127.246094" xlink:href="#DejaVuSans-30"/>
       <use x="190.869141" xlink:href="#DejaVuSans-30"/>
       <use x="254.492188" xlink:href="#DejaVuSans-30"/>
      </g>
     </g>
    </g>
    <g id="xtick_6">
     <g id="line2d_6">
      <g>
       <use style="stroke:#000000;stroke-width:0.8;" x="320.081624" xlink:href="#m3c61a0ae5f" y="307.584"/>
      </g>
     </g>
     <g id="text_6">
      <!-- 40250 -->
      <g transform="translate(304.175374 322.182437)scale(0.1 -0.1)">
       <use xlink:href="#DejaVuSans-34"/>
       <use x="63.623047" xlink:href="#DejaVuSans-30"/>
       <use x="127.246094" xlink:href="#DejaVuSans-32"/>
       <use x="190.869141" xlink:href="#DejaVuSans-35"/>
       <use x="254.492188" xlink:href="#DejaVuSans-30"/>
      </g>
     </g>
    </g>
    <g id="xtick_7">
     <g id="line2d_7">
      <g>
       <use style="stroke:#000000;stroke-width:0.8;" x="369.331403" xlink:href="#m3c61a0ae5f" y="307.584"/>
      </g>
     </g>
     <g id="text_7">
      <!-- 40500 -->
      <g transform="translate(353.425153 322.182437)scale(0.1 -0.1)">
       <use xlink:href="#DejaVuSans-34"/>
       <use x="63.623047" xlink:href="#DejaVuSans-30"/>
       <use x="127.246094" xlink:href="#DejaVuSans-35"/>
       <use x="190.869141" xlink:href="#DejaVuSans-30"/>
       <use x="254.492188" xlink:href="#DejaVuSans-30"/>
      </g>
     </g>
    </g>
   </g>
   <g id="matplotlib.axis_2">
    <g id="ytick_1">
     <g id="line2d_8">
      <defs>
       <path d="M 0 0 
L -3.5 0 
" id="mb5f08c86e1" style="stroke:#000000;stroke-width:0.8;"/>
      </defs>
      <g>
       <use style="stroke:#000000;stroke-width:0.8;" x="57.6" xlink:href="#mb5f08c86e1" y="307.584"/>
      </g>
     </g>
     <g id="text_8">
      <!-- 0 -->
      <g transform="translate(44.2375 311.383219)scale(0.1 -0.1)">
       <use xlink:href="#DejaVuSans-30"/>
      </g>
     </g>
    </g>
    <g id="ytick_2">
     <g id="line2d_9">
      <g>
       <use style="stroke:#000000;stroke-width:0.8;" x="57.6" xlink:href="#mb5f08c86e1" y="263.232"/>
      </g>
     </g>
     <g id="text_9">
      <!-- 2 -->
      <g transform="translate(44.2375 267.031219)scale(0.1 -0.1)">
       <use xlink:href="#DejaVuSans-32"/>
      </g>
     </g>
    </g>
    <g id="ytick_3">
     <g id="line2d_10">
      <g>
       <use style="stroke:#000000;stroke-width:0.8;" x="57.6" xlink:href="#mb5f08c86e1" y="218.88"/>
      </g>
     </g>
     <g id="text_10">
      <!-- 4 -->
      <g transform="translate(44.2375 222.679219)scale(0.1 -0.1)">
       <use xlink:href="#DejaVuSans-34"/>
      </g>
     </g>
    </g>
    <g id="ytick_4">
     <g id="line2d_11">
      <g>
       <use style="stroke:#000000;stroke-width:0.8;" x="57.6" xlink:href="#mb5f08c86e1" y="174.528"/>
      </g>
     </g>
     <g id="text_11">
      <!-- 6 -->
      <g transform="translate(44.2375 178.327219)scale(0.1 -0.1)">
       <defs>
        <path d="M 2113 2584 
Q 1688 2584 1439 2293 
Q 1191 2003 1191 1497 
Q 1191 994 1439 701 
Q 1688 409 2113 409 
Q 2538 409 2786 701 
Q 3034 994 3034 1497 
Q 3034 2003 2786 2293 
Q 2538 2584 2113 2584 
z
M 3366 4563 
L 3366 3988 
Q 3128 4100 2886 4159 
Q 2644 4219 2406 4219 
Q 1781 4219 1451 3797 
Q 1122 3375 1075 2522 
Q 1259 2794 1537 2939 
Q 1816 3084 2150 3084 
Q 2853 3084 3261 2657 
Q 3669 2231 3669 1497 
Q 3669 778 3244 343 
Q 2819 -91 2113 -91 
Q 1303 -91 875 529 
Q 447 1150 447 2328 
Q 447 3434 972 4092 
Q 1497 4750 2381 4750 
Q 2619 4750 2861 4703 
Q 3103 4656 3366 4563 
z
" id="DejaVuSans-36" transform="scale(0.015625)"/>
       </defs>
       <use xlink:href="#DejaVuSans-36"/>
      </g>
     </g>
    </g>
    <g id="ytick_5">
     <g id="line2d_12">
      <g>
       <use style="stroke:#000000;stroke-width:0.8;" x="57.6" xlink:href="#mb5f08c86e1" y="130.176"/>
      </g>
     </g>
     <g id="text_12">
      <!-- 8 -->
      <g transform="translate(44.2375 133.975219)scale(0.1 -0.1)">
       <defs>
        <path d="M 2034 2216 
Q 1584 2216 1326 1975 
Q 1069 1734 1069 1313 
Q 1069 891 1326 650 
Q 1584 409 2034 409 
Q 2484 409 2743 651 
Q 3003 894 3003 1313 
Q 3003 1734 2745 1975 
Q 2488 2216 2034 2216 
z
M 1403 2484 
Q 997 2584 770 2862 
Q 544 3141 544 3541 
Q 544 4100 942 4425 
Q 1341 4750 2034 4750 
Q 2731 4750 3128 4425 
Q 3525 4100 3525 3541 
Q 3525 3141 3298 2862 
Q 3072 2584 2669 2484 
Q 3125 2378 3379 2068 
Q 3634 1759 3634 1313 
Q 3634 634 3220 271 
Q 2806 -91 2034 -91 
Q 1263 -91 848 271 
Q 434 634 434 1313 
Q 434 1759 690 2068 
Q 947 2378 1403 2484 
z
M 1172 3481 
Q 1172 3119 1398 2916 
Q 1625 2713 2034 2713 
Q 2441 2713 2670 2916 
Q 2900 3119 2900 3481 
Q 2900 3844 2670 4047 
Q 2441 4250 2034 4250 
Q 1625 4250 1398 4047 
Q 1172 3844 1172 3481 
z
" id="DejaVuSans-38" transform="scale(0.015625)"/>
       </defs>
       <use xlink:href="#DejaVuSans-38"/>
      </g>
     </g>
    </g>
    <g id="ytick_6">
     <g id="line2d_13">
      <g>
       <use style="stroke:#000000;stroke-width:0.8;" x="57.6" xlink:href="#mb5f08c86e1" y="85.824"/>
      </g>
     </g>
     <g id="text_13">
      <!-- 10 -->
      <g transform="translate(37.875 89.623219)scale(0.1 -0.1)">
       <defs>
        <path d="M 794 531 
L 1825 531 
L 1825 4091 
L 703 3866 
L 703 4441 
L 1819 4666 
L 2450 4666 
L 2450 531 
L 3481 531 
L 3481 0 
L 794 0 
L 794 531 
z
" id="DejaVuSans-31" transform="scale(0.015625)"/>
       </defs>
       <use xlink:href="#DejaVuSans-31"/>
       <use x="63.623047" xlink:href="#DejaVuSans-30"/>
      </g>
     </g>
    </g>
    <g id="ytick_7">
     <g id="line2d_14">
      <g>
       <use style="stroke:#000000;stroke-width:0.8;" x="57.6" xlink:href="#mb5f08c86e1" y="41.472"/>
      </g>
     </g>
     <g id="text_14">
      <!-- 12 -->
      <g transform="translate(37.875 45.271219)scale(0.1 -0.1)">
       <use xlink:href="#DejaVuSans-31"/>
       <use x="63.623047" xlink:href="#DejaVuSans-32"/>
      </g>
     </g>
    </g>
   </g>
   <g id="line2d_15">
    <path clip-path="url(#pcf4d84e7b9)" d="M 73.832727 307.225233 
L 74.029726 307.350136 
L 73.832727 307.262681 
L 74.423725 307.137239 
L 74.620724 306.727938 
L 75.40872 307.472176 
L 75.211721 307.52015 
L 75.605719 306.646269 
L 75.802718 306.482453 
L 75.999718 306.978495 
L 76.196717 306.438428 
L 76.393716 306.741238 
L 76.590715 306.444879 
L 76.787714 306.917585 
L 76.984713 304.438876 
L 77.181712 305.999972 
L 77.575711 306.961278 
L 77.969709 306.639958 
L 78.363707 307.233629 
L 78.560706 307.202672 
L 78.954704 307.440616 
L 79.151703 307.172287 
L 79.348703 307.369133 
L 79.742701 307.026858 
L 80.136699 307.43364 
L 80.530697 307.533333 
L 80.727696 306.693561 
L 80.924695 306.795465 
L 81.121695 307.135001 
L 81.318694 307.157068 
L 81.515693 307.028575 
L 81.712692 290.369779 
L 82.10669 302.837042 
L 82.303689 297.702105 
L 82.697688 304.781511 
L 82.894687 303.992521 
L 83.288685 306.5356 
L 83.485684 306.717841 
L 83.682683 306.38503 
L 83.879682 306.351834 
L 84.076681 306.959979 
L 84.27368 305.174837 
L 84.864678 307.077266 
L 85.061677 307.322701 
L 85.258676 307.104628 
L 85.455675 306.671652 
L 85.652674 304.873829 
L 85.849673 306.174183 
L 86.046673 305.785568 
L 86.243672 306.673318 
L 86.440671 306.786137 
L 86.834669 307.37209 
L 87.031668 307.470015 
L 87.228667 307.17575 
L 87.425666 302.294873 
L 87.622665 305.789505 
L 87.819665 306.344794 
L 88.213663 306.29916 
L 88.607661 306.272748 
L 88.80466 306.873642 
L 89.001659 306.546518 
L 89.198658 307.010527 
L 89.789656 306.344385 
L 90.183654 307.201667 
L 90.380653 305.976409 
L 90.774651 306.357608 
L 91.16865 307.261862 
L 91.365649 307.379537 
L 91.562648 301.768263 
L 91.956646 306.798509 
L 92.350644 305.985703 
L 92.744643 307.125333 
L 92.941642 306.48565 
L 93.33564 306.940726 
L 93.532639 306.323806 
L 93.729638 306.209163 
L 93.926637 306.829457 
L 94.123636 306.976092 
L 94.320635 306.560293 
L 94.517635 305.8119 
L 94.714634 306.191953 
L 94.911633 306.874585 
L 95.699629 307.46469 
L 96.093628 306.515593 
L 96.290627 306.417115 
L 96.684625 307.203087 
L 96.881624 307.338812 
L 97.078623 306.683886 
L 97.275622 306.645763 
L 97.472621 307.061055 
L 97.66962 306.689846 
L 97.86662 306.795036 
L 98.260618 307.337763 
L 98.654616 307.454779 
L 99.048614 306.169565 
L 99.245613 306.481851 
L 99.442613 306.315185 
L 99.836611 306.443662 
L 100.230609 307.22794 
L 100.427608 307.357152 
L 100.230609 307.425468 
L 100.427608 307.455916 
L 101.215605 307.27009 
L 101.412604 306.474508 
L 101.806602 307.346147 
L 102.2006 307.371947 
L 102.397599 306.525436 
L 102.2006 306.946115 
L 102.594598 306.44382 
L 102.791598 306.959178 
L 102.988597 307.011654 
L 103.185596 306.205113 
L 103.382595 306.839825 
L 103.579594 277.272423 
L 103.973592 299.923225 
L 104.36759 305.428428 
L 104.761589 306.802493 
L 104.958588 306.838207 
L 105.352586 307.262559 
L 105.549585 306.470743 
L 105.746584 306.931297 
L 105.943583 306.624967 
L 106.140583 306.605209 
L 106.337582 307.039872 
L 106.534581 306.790438 
L 106.928579 307.319165 
L 107.125578 307.406475 
L 107.322577 307.045808 
L 107.519576 306.404309 
L 107.716575 306.525702 
L 108.110574 307.185529 
L 108.504572 307.449772 
L 109.095569 307.530198 
L 109.489568 307.535664 
L 109.686567 306.466309 
L 109.883566 306.979027 
L 110.080565 306.58793 
L 109.883566 307.031233 
L 110.277564 307.254361 
L 110.474563 306.786499 
L 110.868561 307.333966 
L 111.26256 307.436603 
L 111.853557 307.416108 
L 112.444554 307.450967 
L 113.232551 307.442736 
L 113.42955 306.911502 
L 113.626549 306.759571 
L 113.823548 307.162957 
L 114.020547 307.282419 
L 114.414545 307.152771 
L 114.611545 305.952566 
L 114.808544 306.135602 
L 114.611545 304.6432 
L 115.202542 306.637408 
L 115.59654 307.293791 
L 115.793539 306.824286 
L 115.990538 307.241703 
L 116.581536 307.441576 
L 116.590179 -1 
M 117.697955 -1 
L 117.96053 191.00767 
L 118.354528 277.947267 
L 118.748526 300.145809 
L 119.142524 305.623646 
L 119.339523 305.869584 
L 119.733522 307.051846 
L 120.12752 307.244778 
L 120.324519 307.322134 
L 120.521518 306.750088 
L 120.718517 307.054746 
L 120.521518 307.274265 
L 121.112515 307.476197 
L 121.506514 307.373117 
L 121.900512 307.379715 
L 122.097511 307.341262 
L 122.491509 307.487918 
L 123.476505 307.486492 
L 123.673504 306.700849 
L 123.870503 307.120457 
L 124.067502 307.180352 
L 124.264501 306.950847 
L 124.4615 307.218605 
L 124.6585 305.019355 
L 124.855499 306.246946 
L 125.446496 307.155474 
L 125.643495 306.737056 
L 125.840494 305.928925 
L 126.037493 306.70173 
L 126.234492 306.662496 
L 126.431492 307.068516 
L 126.628491 306.19926 
L 126.82549 306.836898 
L 127.022489 306.577768 
L 127.219488 305.953885 
L 127.416487 306.597067 
L 127.613486 305.963535 
L 128.007485 306.312495 
L 127.613486 305.995711 
L 128.401483 306.237906 
L 128.598482 305.11053 
L 128.795481 302.184066 
L 128.99248 304.857958 
L 129.189479 303.409062 
L 129.583477 306.377116 
L 129.780477 306.091836 
L 129.977476 305.012254 
L 130.174475 306.253019 
L 130.371474 306.285828 
L 130.379129 -1 
M 131.702372 -1 
L 131.947467 182.556973 
L 132.341465 275.82542 
L 132.735463 296.055487 
L 133.129462 304.330799 
L 133.52346 307.088277 
L 133.720459 302.655851 
L 133.917458 305.074818 
L 134.114457 294.891869 
L 134.902454 304.890291 
L 135.099453 305.684634 
L 135.296452 305.507319 
L 135.493451 306.473633 
L 135.69045 300.119709 
L 136.084448 305.356479 
L 136.281447 305.202341 
L 136.675446 306.916111 
L 136.872445 306.136297 
L 137.266443 306.69486 
L 137.463442 306.012432 
L 137.660441 306.793473 
L 137.85744 307.048701 
L 138.05444 306.871791 
L 138.251439 307.305937 
L 138.842436 306.850569 
L 139.039435 306.345102 
L 139.236434 304.484716 
L 139.433433 304.639558 
L 139.827432 306.602962 
L 140.418429 307.443719 
L 140.812427 306.361769 
L 141.206425 306.337406 
L 141.403425 305.254443 
L 141.600424 306.36449 
L 141.797423 305.579445 
L 142.191421 306.864271 
L 142.38842 306.432695 
L 142.585419 305.613547 
L 142.782418 306.594031 
L 142.979417 304.299416 
L 143.176417 305.886976 
L 143.373416 305.539447 
L 143.570415 305.939513 
L 143.767414 305.812735 
L 143.964413 306.643886 
L 144.161412 303.018919 
L 144.55541 306.275328 
L 144.75241 305.977127 
L 145.146408 306.385572 
L 145.540406 307.165968 
L 145.737405 307.025648 
L 145.934404 307.047115 
L 146.131403 305.920758 
L 146.328402 305.799842 
L 146.525402 306.633756 
L 146.722401 306.077562 
L 146.9194 304.643734 
L 146.722401 304.353659 
L 147.116399 305.914098 
L 147.510397 306.362004 
L 147.707396 304.592395 
L 146.9194 305.948162 
L 148.495393 306.510795 
L 148.692392 306.992665 
L 148.889391 306.655651 
L 149.283389 306.518204 
L 149.480388 306.969384 
L 149.677387 305.878858 
L 150.071386 306.585578 
L 150.465384 307.235352 
L 150.662383 306.776995 
L 150.859382 307.103987 
L 151.056381 307.089438 
L 151.25338 306.704038 
L 151.45038 305.462653 
L 151.647379 306.276514 
L 151.844378 306.281878 
L 152.238376 307.064779 
L 152.632374 306.511031 
L 152.829373 306.677519 
L 153.026372 306.543623 
L 153.223372 306.111275 
L 153.61737 306.515492 
L 153.814369 306.417065 
L 154.011368 306.526827 
L 154.208367 307.000681 
L 154.405366 306.303622 
L 154.602365 303.240254 
L 154.799365 304.558837 
L 154.996364 304.714338 
L 155.193363 305.213111 
L 155.390362 305.390566 
L 155.587361 297.775866 
L 155.981359 303.876408 
L 156.178358 305.203853 
L 156.375357 304.999126 
L 156.572357 305.658882 
L 156.769356 305.306916 
L 156.966355 287.871241 
L 157.360353 301.466604 
L 157.754351 305.20878 
L 157.95135 305.560537 
L 158.14835 305.384677 
L 158.542348 306.085147 
L 158.14835 294.787882 
L 159.330344 305.15076 
L 159.527343 305.414843 
L 159.724342 305.492737 
L 159.921342 305.905687 
L 160.118341 302.805535 
L 160.512339 305.449936 
L 160.906337 306.618206 
L 161.300335 306.350863 
L 161.497335 306.44108 
L 161.891333 306.347055 
L 162.285331 305.788731 
L 162.48233 306.259671 
L 162.285331 305.910355 
L 162.679329 303.957577 
L 163.073327 305.803134 
L 163.467326 307.038522 
L 163.664325 304.521661 
L 163.861324 305.100294 
L 164.058323 53.269635 
L 164.452321 243.2313 
L 164.64932 275.262226 
L 165.043319 290.790432 
L 164.64932 299.041792 
L 165.240318 302.143603 
L 165.437317 304.480581 
L 165.634316 304.786533 
L 166.225313 306.777324 
L 166.422312 302.689739 
L 166.816311 305.3275 
L 167.210309 306.215354 
L 167.407308 305.425526 
L 167.801306 306.905326 
L 167.998305 307.153603 
L 168.392304 306.431496 
L 168.589303 306.323386 
L 168.786302 306.740975 
L 168.983301 306.424222 
L 169.1803 306.924172 
L 169.377299 306.998717 
L 169.574298 306.661053 
L 169.771297 307.067794 
L 169.968297 306.995984 
L 170.165296 306.037161 
L 170.559294 307.012992 
L 170.756293 306.439675 
L 170.953292 306.957106 
L 171.150291 307.002907 
L 171.34729 307.248345 
L 171.544289 307.123683 
L 171.741289 305.532652 
L 172.135287 306.122141 
L 172.332286 306.220389 
L 172.529285 304.691568 
L 172.726284 306.083052 
L 173.120282 305.082198 
L 173.317282 305.844919 
L 173.514281 305.761923 
L 173.908279 306.95867 
L 174.105278 307.216551 
L 174.302277 306.056731 
L 174.499276 306.636748 
L 174.893274 306.92657 
L 175.090274 302.73407 
L 175.287273 305.104303 
L 175.484272 305.994015 
L 175.681271 305.5442 
L 175.87827 305.615078 
L 176.075269 304.174582 
L 175.87827 305.391111 
L 176.272268 306.432823 
L 176.469267 306.472059 
L 176.666267 306.973298 
L 176.863266 306.329627 
L 177.060265 306.590971 
L 177.257264 304.355701 
L 177.454263 305.369389 
L 177.848261 304.920513 
L 178.242259 306.366362 
L 178.636258 307.171057 
L 178.833257 307.322797 
L 179.030256 307.291079 
L 179.227255 307.392432 
L 179.424254 307.000036 
L 179.818252 306.82253 
L 180.015252 307.158157 
L 180.212251 306.89071 
L 180.40925 307.129437 
L 180.606249 307.010111 
L 180.803248 306.664374 
L 181.000247 306.881631 
L 181.197246 306.375013 
L 181.394245 306.924775 
L 181.591244 306.649898 
L 181.788244 307.062217 
L 182.182242 307.225825 
L 182.201281 -1 
M 183.059847 -1 
L 183.364237 206.69522 
L 183.758235 279.513118 
L 183.955234 293.336606 
L 184.349232 301.39691 
L 184.940229 305.914818 
L 185.137229 306.704301 
L 185.334228 306.926734 
L 185.728226 306.759916 
L 186.122224 306.983542 
L 186.319223 305.686091 
L 186.516222 305.205101 
L 186.713222 306.339818 
L 187.10722 305.828072 
L 187.501218 306.185491 
L 187.698217 306.252064 
L 187.895216 302.196632 
L 188.092215 304.676211 
L 188.683213 306.90322 
L 188.880212 306.577684 
L 189.077211 305.759241 
L 189.27421 305.858933 
L 189.668208 306.672543 
L 189.865207 306.49559 
L 190.062207 305.001288 
L 189.865207 305.659963 
L 190.259206 305.9893 
L 190.456205 305.834113 
L 191.4412 307.005561 
L 191.638199 305.173966 
L 192.032198 306.909018 
L 192.229197 306.059044 
L 192.426196 306.76679 
L 192.820194 307.050753 
L 193.214192 307.148932 
L 193.411192 307.137234 
L 193.214192 307.305885 
L 193.608191 306.812261 
L 193.80519 307.024073 
L 194.002189 306.693774 
L 194.199188 306.658518 
L 194.396187 307.066527 
L 194.987184 307.122669 
L 195.184184 306.404231 
L 195.775181 307.312365 
L 195.97218 306.90576 
L 196.366178 307.271641 
L 196.563177 307.03202 
L 196.760177 307.253278 
L 196.957176 306.466102 
L 197.154175 306.366008 
L 197.351174 306.920272 
L 197.548173 300.839851 
L 197.745172 303.579244 
L 197.942171 303.241478 
L 198.336169 305.549348 
L 198.730168 306.993239 
L 199.124166 305.975882 
L 199.321165 306.14726 
L 199.518164 304.474544 
L 199.715163 305.396591 
L 200.306161 306.81163 
L 200.50316 306.976984 
L 200.897158 306.561296 
L 201.094157 307.017916 
L 201.291156 306.543343 
L 201.094157 305.668872 
L 201.488155 305.784032 
L 201.882154 306.184986 
L 202.079153 306.042044 
L 202.276152 306.605245 
L 202.473151 306.307676 
L 202.67015 303.414594 
L 202.867149 304.595725 
L 203.064148 303.380539 
L 203.261147 305.103563 
L 203.458147 301.164662 
L 203.852145 305.1063 
L 204.049144 306.335542 
L 204.443142 306.663232 
L 204.640141 307.078508 
L 205.034139 306.582719 
L 205.231139 306.790804 
L 205.625137 306.463842 
L 205.822136 306.655335 
L 206.216134 306.434859 
L 206.019135 306.376748 
L 206.807132 306.531808 
L 207.398129 306.43944 
L 207.595128 306.840413 
L 207.792127 304.502883 
L 207.989126 305.988709 
L 208.186125 305.833818 
L 208.383124 306.076228 
L 208.580124 305.939083 
L 208.777123 303.274542 
L 208.974122 305.374539 
L 209.171121 302.730047 
L 209.565119 306.250404 
L 209.762118 306.357132 
L 209.959117 305.729739 
L 210.156117 305.552169 
L 210.550115 306.605982 
L 210.944113 306.308745 
L 211.141112 306.891641 
L 211.338111 302.44393 
L 211.53511 304.704918 
L 211.732109 304.186497 
L 212.126108 306.352883 
L 212.323107 306.91371 
L 212.520106 306.296318 
L 212.717105 306.885427 
L 213.111103 306.314502 
L 213.505102 306.721705 
L 213.702101 306.803612 
L 213.8991 238.943398 
L 214.096099 286.749992 
L 214.490097 301.420618 
L 214.687096 303.869628 
L 214.884095 303.871987 
L 215.081094 303.143511 
L 215.475093 306.167346 
L 215.869091 306.94775 
L 216.06609 306.916604 
L 216.263089 306.653054 
L 216.460088 307.108878 
L 216.657087 306.858259 
L 217.051086 307.254928 
L 217.248085 307.038949 
L 217.445084 291.334674 
L 217.839082 302.824569 
L 218.23308 305.805286 
L 218.430079 304.881268 
L 218.627079 305.959992 
L 218.824078 305.28552 
L 219.021077 306.162119 
L 219.218076 306.332652 
L 219.612074 304.536207 
L 220.203071 306.891782 
L 220.400071 305.404032 
L 220.59707 306.007378 
L 220.794069 306.163008 
L 220.991068 302.386403 
L 221.385066 305.695618 
L 221.779064 306.449951 
L 221.582065 306.384294 
L 221.976064 306.03161 
L 222.173063 304.651229 
L 222.370062 305.283553 
L 222.567061 304.959407 
L 222.76406 306.217223 
L 223.355057 307.218234 
L 223.552056 306.768436 
L 223.749056 305.674981 
L 223.946055 305.751445 
L 224.143054 305.11931 
L 224.537052 305.332167 
L 224.734051 305.825402 
L 224.93105 303.713747 
L 224.913963 -1 
M 225.640753 -1 
L 225.916046 195.409619 
L 225.719047 250.864128 
L 226.507043 298.652319 
L 226.901041 304.477795 
L 227.098041 305.549692 
L 227.29504 305.934165 
L 227.492039 290.372621 
L 227.886037 298.543569 
L 228.083036 292.602784 
L 228.280035 299.792098 
L 228.477034 281.801963 
L 228.871033 300.029541 
L 229.068032 302.854234 
L 229.265031 294.758117 
L 229.46203 300.538377 
L 230.053027 303.428507 
L 230.250026 298.550655 
L 230.644025 304.420528 
L 230.841024 304.607464 
L 231.038023 300.237572 
L 231.432021 305.558504 
L 231.62902 305.938571 
L 231.826019 304.656557 
L 232.023019 305.746592 
L 232.220018 289.322059 
L 232.614016 294.859324 
L 233.008014 303.571433 
L 233.402012 305.40182 
L 233.599011 305.440126 
L 233.796011 305.117263 
L 233.99301 305.71795 
L 234.190009 303.966482 
L 234.387008 305.14256 
L 234.584007 304.68952 
L 234.781006 305.504079 
L 234.978005 298.418393 
L 235.175004 297.653991 
L 235.372004 304.164422 
L 235.569003 305.24153 
L 235.766002 303.728272 
L 236.16 305.671046 
L 236.553998 302.168559 
L 236.750997 304.243598 
L 237.144996 305.63995 
L 237.341995 305.659438 
L 237.538994 230.210936 
L 237.341995 268.264787 
L 237.932992 296.338936 
L 238.32699 300.205709 
L 238.523989 300.568455 
L 238.917988 304.855553 
L 239.114987 299.390315 
L 239.508985 300.624275 
L 239.705984 302.314476 
L 239.902983 302.239914 
L 240.099982 304.253737 
L 240.296981 298.963269 
L 240.493981 302.615661 
L 239.902983 304.147294 
L 240.69098 305.232966 
L 240.887979 302.65926 
L 241.478976 301.511648 
L 241.675975 301.821689 
L 241.872974 304.648113 
L 242.266973 305.875467 
L 242.660971 305.515386 
L 243.251968 303.414786 
L 243.448967 305.444912 
L 243.645966 303.646343 
L 244.039965 305.554191 
L 244.236964 297.018304 
L 244.433963 295.142504 
L 244.827961 303.116724 
L 245.02496 305.117047 
L 245.221959 303.666031 
L 245.418959 303.760349 
L 245.615958 305.039493 
L 245.812957 303.49983 
L 246.009956 305.487183 
L 246.206955 305.892019 
L 246.403954 300.539698 
L 246.600953 298.983057 
L 247.191951 305.077901 
L 247.38895 305.378414 
L 247.585949 305.281457 
L 247.782948 300.407192 
L 247.979947 300.01947 
L 248.176946 301.907933 
L 248.373945 301.103587 
L 248.570944 297.514332 
L 248.964943 303.889044 
L 249.161942 299.418562 
L 249.55594 303.986225 
L 249.752939 303.508625 
L 249.949938 304.593776 
L 250.146937 269.089983 
L 250.343936 286.489562 
L 250.737935 278.972482 
L 250.934934 293.842675 
L 251.131933 300.080656 
L 251.525931 301.328794 
L 251.919929 304.677461 
L 252.116929 302.634481 
L 252.313928 298.27978 
L 252.510927 302.924052 
L 252.707926 304.621345 
L 252.904925 302.271027 
L 253.298923 305.724756 
L 252.904925 305.996404 
L 253.495922 304.080878 
L 253.889921 306.597713 
L 254.08692 306.687772 
L 254.283919 300.306425 
L 254.480918 302.992676 
L 254.677917 301.651342 
L 255.071915 305.216263 
L 255.268914 299.426131 
L 255.859912 305.180541 
L 256.056911 300.564606 
L 256.450909 305.298151 
L 256.647908 305.808394 
L 256.844907 305.711293 
L 257.041906 304.672986 
L 257.435905 306.485174 
L 257.632904 302.397521 
L 257.829903 301.192242 
L 258.223901 305.659129 
L 258.4209 305.669028 
L 258.814898 306.156235 
L 259.011898 300.040656 
L 259.208897 303.757596 
L 259.405896 304.718261 
L 259.602895 302.352612 
L 259.799894 304.015769 
L 259.996893 302.987968 
L 260.193892 304.333447 
L 260.390891 303.745313 
L 260.78489 306.253507 
L 260.981889 306.864021 
L 261.178888 304.158694 
L 260.981889 302.806031 
L 261.375887 302.115375 
L 261.769885 305.845771 
L 262.163883 304.030393 
L 261.769885 305.752464 
L 261.92351 -1 
M 262.747313 -1 
L 262.95188 232.934263 
L 263.345878 288.180357 
L 263.739876 300.622758 
L 263.936876 303.009856 
L 263.542877 304.344391 
L 263.936876 304.870672 
L 264.133875 306.172604 
L 264.330874 305.92928 
L 264.527873 306.37547 
L 264.724872 305.796534 
L 265.11887 303.180535 
L 265.315869 305.327535 
L 265.512868 303.801012 
L 265.709868 305.059825 
L 265.906867 304.027594 
L 266.300865 305.54744 
L 266.497864 300.02435 
L 266.891862 305.881291 
L 267.285861 307.085849 
L 267.48286 306.880083 
L 267.679859 306.982971 
L 267.876858 306.021564 
L 268.073857 306.450781 
L 268.270856 306.384709 
L 268.467855 306.173609 
L 268.861853 306.285057 
L 269.058853 306.879797 
L 269.255852 306.282876 
L 269.64985 306.085734 
L 269.846849 303.921248 
L 270.043848 303.155498 
L 270.240847 304.737068 
L 270.437846 304.892991 
L 270.634846 304.034988 
L 270.831845 305.798028 
L 271.028844 305.691044 
L 271.225843 306.629685 
L 271.619841 306.370012 
L 272.013839 307.208029 
L 272.210838 307.481342 
L 272.407838 304.848178 
L 272.604837 305.476512 
L 272.801836 306.521202 
L 273.195834 305.880668 
L 273.392833 304.221694 
L 273.786831 305.270166 
L 273.983831 306.372351 
L 274.18083 306.032295 
L 274.574828 307.18136 
L 274.771827 306.749999 
L 275.165825 302.789074 
L 275.559823 305.436247 
L 275.756823 304.414597 
L 275.953822 305.991336 
L 276.150821 305.694145 
L 275.953822 306.627606 
L 276.544819 307.30607 
L 276.741818 306.492498 
L 277.135816 307.229027 
L 277.529815 306.170329 
L 277.726814 304.065248 
L 277.923813 306.645661 
L 278.120812 307.290029 
L 278.317811 307.429082 
L 278.51481 305.389134 
L 278.711809 306.477587 
L 278.908808 306.398112 
L 279.302807 307.274545 
L 279.499806 307.420335 
L 279.696805 306.869486 
L 280.090803 307.345836 
L 280.484801 307.511491 
L 280.8788 306.373151 
L 281.075799 306.936919 
L 281.272798 306.307923 
L 281.469797 306.465592 
L 281.666796 306.311203 
L 281.469797 306.892869 
L 281.863795 306.285898 
L 282.060794 304.793461 
L 282.454793 306.829262 
L 282.651792 304.497307 
L 283.04579 307.154778 
L 283.242789 306.420367 
L 283.636787 302.061706 
L 283.242789 304.768121 
L 284.030786 306.121329 
L 284.621783 305.938841 
L 284.818782 306.461946 
L 285.21278 305.253235 
L 285.409779 305.938248 
L 285.606778 305.808587 
L 285.803778 306.063612 
L 286.000777 298.208876 
L 286.197776 302.841706 
L 286.985772 306.090802 
L 287.182771 305.884864 
L 286.591774 303.922515 
L 287.379771 303.207917 
L 287.57677 304.443422 
L 287.773769 301.945544 
L 287.970768 304.71004 
L 288.167767 304.897182 
L 288.364766 303.609681 
L 288.167767 304.644304 
L 288.758764 306.773265 
L 288.955763 306.545951 
L 289.152763 305.570547 
L 289.546761 306.923996 
L 289.74376 307.199266 
L 289.940759 306.439096 
L 290.334757 307.265665 
L 290.531756 307.398705 
L 290.925755 304.2157 
L 291.122754 303.450125 
L 291.516752 306.019531 
L 291.713751 305.290736 
L 291.91075 300.751507 
L 292.107749 299.414613 
L 292.501748 304.592631 
L 292.698747 303.552619 
L 293.092745 306.045154 
L 293.486743 296.353577 
L 293.683742 301.336107 
L 293.880741 302.03262 
L 294.077741 303.151232 
L 294.27474 305.359779 
L 294.668738 306.224092 
L 294.865737 306.368744 
L 295.062736 306.184605 
L 295.259735 306.251621 
L 295.456734 304.128211 
L 295.653733 305.524064 
L 295.850733 302.321589 
L 296.244731 305.471688 
L 296.44173 306.195443 
L 296.638729 304.077805 
L 296.835728 305.776171 
L 297.032727 306.199716 
L 297.229726 306.259177 
L 297.426726 304.615226 
L 297.820724 306.090432 
L 298.017723 306.261586 
L 298.805719 306.23074 
L 299.199718 305.050478 
L 299.396717 306.305773 
L 299.593716 305.99235 
L 299.790715 306.743067 
L 299.987714 305.197374 
L 300.184713 299.435088 
L 300.381712 303.500564 
L 300.578711 305.207985 
L 300.775711 301.13266 
L 301.169709 306.756972 
L 301.366708 307.15902 
L 301.563707 306.738829 
L 301.760706 307.153384 
L 301.957705 304.659368 
L 302.154704 306.113691 
L 302.351703 305.896309 
L 302.548703 306.107473 
L 302.745702 305.017813 
L 303.1397 306.178958 
L 303.336699 305.932457 
L 303.533698 306.640114 
L 304.124695 304.878321 
L 304.321695 306.176429 
L 303.730697 303.513456 
L 304.518694 304.916047 
L 304.912692 302.923623 
L 305.30669 305.844668 
L 305.503689 305.15372 
L 305.897688 306.728253 
L 306.094687 306.652666 
L 306.291686 307.073225 
L 306.488685 306.695931 
L 306.882683 305.189781 
L 307.079682 305.754209 
L 307.276681 299.839644 
L 307.47368 303.700356 
L 307.67068 304.104546 
L 307.867679 303.989437 
L 308.261677 306.364276 
L 308.064678 306.021601 
L 308.458676 306.17297 
L 308.655675 300.350722 
L 309.049673 305.716464 
L 309.246673 300.476527 
L 309.443672 304.85811 
L 309.640671 306.211959 
L 309.83767 305.307629 
L 310.034669 303.633898 
L 310.428667 306.235026 
L 310.484029 -1 
M 310.994673 -1 
L 311.216664 160.199843 
L 311.610662 268.04892 
L 312.00466 297.661398 
L 312.398658 305.066717 
L 312.595658 304.762256 
L 312.792657 305.478854 
L 312.989656 305.582405 
L 313.186655 305.530678 
L 313.383654 304.859104 
L 313.580653 305.269015 
L 313.974651 305.517798 
L 314.17165 305.156099 
L 314.36865 306.315318 
L 314.762648 305.17831 
L 314.959647 304.986355 
L 315.353645 306.563516 
L 315.550644 305.793851 
L 315.747643 305.483288 
L 315.944643 306.160777 
L 315.953251 -1 
M 317.048875 -1 
L 317.323636 196.44919 
L 317.717635 279.19383 
L 318.111633 299.392504 
L 318.505631 304.43543 
L 318.899629 305.809527 
L 318.70263 305.744227 
L 318.899629 305.580384 
L 319.096628 305.960483 
L 319.293628 306.762975 
L 319.490627 306.098314 
L 319.687626 306.786425 
L 319.884625 306.704844 
L 320.081624 307.099314 
L 320.278623 306.81516 
L 320.475622 306.247043 
L 320.672621 306.86079 
L 320.86962 306.589713 
L 321.460618 306.609937 
L 321.854616 307.325527 
L 322.051615 306.822082 
L 322.248614 305.505024 
L 322.642613 306.535373 
L 322.839612 306.732066 
L 323.036611 299.86381 
L 323.23361 305.640244 
L 323.430609 306.55739 
L 323.627608 304.121672 
L 323.824607 305.789275 
L 324.218605 305.282123 
L 324.612604 306.917604 
L 325.006602 307.403735 
L 326.188597 307.448256 
L 326.385596 306.883447 
L 326.582595 307.373496 
L 326.779594 307.276283 
L 326.976593 303.898897 
L 327.370591 305.974621 
L 327.76459 307.321114 
L 327.961589 307.397825 
L 328.355587 306.718736 
L 328.749585 307.355146 
L 328.946584 307.097337 
L 329.340583 307.346217 
L 329.537582 307.042247 
L 329.734581 306.360586 
L 329.93158 306.967551 
L 330.128579 266.804134 
L 330.522577 296.406888 
L 330.916575 304.306039 
L 331.113575 305.646514 
L 331.310574 305.982576 
L 331.507573 306.566468 
L 331.704572 305.752428 
L 331.901571 305.628385 
L 332.09857 306.55146 
L 332.689568 306.462049 
L 333.083566 307.231164 
L 333.280565 306.351299 
L 333.477564 306.922542 
L 333.871562 307.004728 
L 334.26556 307.366708 
L 334.46256 307.258545 
L 334.659559 306.468736 
L 335.053557 307.218136 
L 335.447555 307.364969 
L 335.620452 -1 
M 335.692825 -1 
L 336.038553 219.333822 
L 336.235552 263.110211 
L 337.023548 304.419946 
L 337.417546 306.779805 
L 337.614545 306.549221 
L 338.008544 307.316593 
L 338.205543 307.315717 
L 338.402542 307.441956 
L 338.79654 307.249448 
L 338.993539 306.466752 
L 339.190538 306.856246 
L 339.584537 307.090171 
L 339.781536 307.137063 
L 340.175534 307.415215 
L 340.569532 307.481272 
L 340.766531 307.071364 
L 341.16053 307.388179 
L 341.357529 307.440982 
L 341.554528 306.87981 
L 341.751527 307.177424 
L 341.948526 305.83752 
L 342.342524 306.997662 
L 342.736523 307.369754 
L 343.130521 307.338751 
L 343.32752 306.973196 
L 343.721518 307.272208 
L 343.918517 306.939924 
L 344.312515 307.409193 
L 344.509515 307.310328 
L 344.903513 306.814483 
L 345.297511 307.286948 
L 345.49451 307.427714 
L 345.691509 307.357339 
L 345.888508 306.837988 
L 346.085508 307.201728 
L 346.282507 307.117359 
L 346.676505 306.240404 
L 347.6615 307.469566 
L 348.055499 306.574246 
L 348.449497 307.217369 
L 348.646496 307.218877 
L 349.040494 307.511011 
L 349.237493 307.172623 
L 349.631492 307.442711 
L 350.02549 307.445301 
L 350.813486 307.528486 
L 351.010485 306.923562 
L 351.207485 307.00361 
L 351.404484 306.813436 
L 351.601483 307.144237 
L 351.995481 305.558764 
L 352.19248 306.559916 
L 352.389479 306.696862 
L 352.586478 307.085699 
L 352.783477 307.059896 
L 352.980477 306.841579 
L 353.177476 306.793114 
L 353.374475 307.143449 
L 353.571474 305.759415 
L 353.768473 306.663863 
L 354.162471 306.68409 
L 354.55647 305.822025 
L 354.753469 306.657905 
L 355.147467 306.650541 
L 355.541465 307.300296 
L 355.738464 306.915873 
L 356.132462 307.301333 
L 356.329462 307.23203 
L 357.314457 307.508703 
L 357.511456 307.077004 
L 357.708455 307.285179 
L 357.905455 307.007679 
L 358.299453 307.356029 
L 358.496452 306.984084 
L 358.89045 307.352049 
L 359.087449 307.290805 
L 359.284448 307.010492 
L 359.678447 307.38352 
L 360.072445 307.521731 
L 360.663442 307.500981 
L 360.860441 306.589954 
L 361.25444 307.301096 
L 361.451439 307.16681 
L 361.845437 307.42285 
L 362.633433 307.351674 
L 362.830432 306.835156 
L 363.027432 307.154846 
L 363.224431 307.160203 
L 363.618429 307.346086 
L 363.815428 307.347475 
L 364.012427 306.17788 
L 364.209426 306.283448 
L 364.406425 306.879243 
L 364.800424 307.293593 
L 364.997423 305.841117 
L 365.194422 306.707631 
L 365.58842 307.190558 
L 365.785419 304.014271 
L 366.179417 306.530177 
L 366.376417 306.058004 
L 366.967414 307.232738 
L 367.361412 306.928 
L 367.75541 307.337902 
L 368.149409 307.300572 
L 368.346408 304.598916 
L 368.543407 306.036726 
L 368.740406 306.177682 
L 368.937405 306.835733 
L 369.134404 306.42192 
L 369.331403 306.579978 
L 369.528402 307.027257 
L 369.725402 306.353092 
L 369.922401 306.590785 
L 370.1194 306.454711 
L 370.316399 306.639367 
L 370.513398 305.631255 
L 370.907396 306.909516 
L 371.104395 306.664014 
L 371.301395 304.00696 
L 371.498394 305.740748 
L 371.695393 306.453154 
L 371.892392 306.06604 
L 372.089391 306.259602 
L 372.28639 306.867069 
L 372.483389 305.019533 
L 372.877387 305.451997 
L 373.074387 306.033185 
L 373.271386 305.70243 
L 373.665384 305.85934 
L 374.059382 306.356125 
L 374.256381 306.915331 
L 374.45338 306.52714 
L 374.65038 307.046303 
L 375.044378 306.531903 
L 375.438376 307.306912 
L 375.635375 307.390975 
L 375.832374 305.359593 
L 376.029373 306.417065 
L 376.226372 306.520163 
L 376.423372 306.92676 
L 376.620371 306.306358 
L 376.81737 306.616588 
L 377.014369 306.538689 
L 377.211368 306.963057 
L 377.408367 307.090461 
L 377.605366 307.426527 
L 379.181359 307.527838 
L 379.575357 306.690463 
L 379.772357 303.277536 
L 379.969356 306.471956 
L 380.166355 306.973246 
L 380.363354 306.94455 
L 380.560353 307.417023 
L 380.954351 306.063632 
L 381.15135 306.191135 
L 381.34835 306.832835 
L 381.545349 306.575736 
L 381.939347 307.431946 
L 382.136346 306.875292 
L 382.333345 300.178926 
L 382.727343 305.637688 
L 382.924342 307.017583 
L 383.121342 307.204762 
L 383.318341 306.7617 
L 383.51534 307.118118 
L 383.909338 305.592415 
L 384.106337 306.625674 
L 384.303336 306.472156 
L 384.500335 304.935878 
L 384.697335 305.627258 
L 384.894334 305.339456 
L 385.091333 305.441573 
L 385.288332 306.458055 
L 385.485331 305.949833 
L 385.68233 305.814379 
L 385.879329 306.115766 
L 386.076328 306.795151 
L 386.667326 305.97815 
L 386.864325 304.989186 
L 387.258323 306.853324 
L 387.455322 306.553289 
L 387.652321 305.470965 
L 388.04632 306.350574 
L 388.243319 304.875087 
L 388.637317 306.829486 
L 388.834316 307.161635 
L 389.228314 306.395085 
L 389.425313 306.43331 
L 389.622312 306.953923 
L 389.819312 306.651017 
L 390.410309 307.253729 
L 390.607308 306.786183 
L 390.804307 304.160509 
L 391.001306 305.239573 
L 391.198305 305.67676 
L 391.395305 305.71536 
L 391.592304 306.564542 
L 391.789303 306.741105 
L 391.986302 306.591986 
L 392.183301 306.243944 
L 392.3803 306.829224 
L 392.577299 306.573931 
L 393.365296 307.119191 
L 393.444475 -1 
M 393.836455 -1 
L 394.153292 211.395867 
L 394.54729 282.820994 
L 394.744289 300.991769 
L 394.941289 293.636685 
L 394.989086 -1 
M 395.531623 -1 
L 395.532286 0.034314 
L 395.926284 218.292879 
L 396.320282 285.052068 
L 396.714281 301.53456 
L 396.91128 304.392697 
L 397.108279 304.140304 
L 397.305278 305.362404 
L 397.502277 305.84052 
L 397.699276 305.719325 
L 397.896275 305.900934 
L 398.093274 306.53391 
L 398.487273 306.605505 
L 398.487273 306.605505 
" style="fill:none;stroke:#1f77b4;stroke-linecap:square;stroke-width:1.5;"/>
   </g>
   <g id="line2d_16">
    <path clip-path="url(#pcf4d84e7b9)" d="M 73.832727 307.286741 
L 74.226726 307.337733 
L 74.620724 307.402798 
L 75.014722 307.402798 
L 75.211721 307.174761 
L 75.40872 307.174761 
L 75.211721 307.566024 
L 75.605719 306.185787 
L 75.802718 307.54363 
L 76.787714 307.449753 
L 77.181712 307.211572 
L 77.378711 307.306072 
L 77.575711 307.554429 
L 79.348703 307.57697 
L 79.545702 306.91554 
L 79.742701 307.1691 
L 79.9397 307.1691 
L 80.136699 307.473399 
L 81.318694 307.57697 
L 81.515693 307.328414 
L 81.712692 307.328414 
L 81.909691 307.17845 
L 82.697688 307.22207 
L 82.894687 307.445195 
L 83.091686 307.22207 
L 83.288685 307.440642 
L 83.485684 306.750425 
L 83.682683 306.750425 
L 84.076681 306.86316 
L 84.27368 307.460925 
L 84.667679 307.548262 
L 85.455675 307.493428 
L 85.849673 307.369153 
L 86.046673 306.250772 
L 86.440671 306.250772 
L 86.63767 307.129017 
L 86.834669 307.464602 
L 87.031668 307.576429 
L 87.228667 307.464602 
L 87.622665 307.57697 
L 87.819665 306.91734 
L 88.410662 306.900083 
L 88.607661 306.318475 
L 88.80466 307.550054 
L 89.001659 306.245914 
L 89.198658 306.245914 
L 89.395658 306.757006 
L 89.592657 306.757006 
L 89.789656 306.053377 
L 90.183654 306.181037 
L 90.577652 306.181037 
L 90.97165 307.547397 
L 91.365649 307.46578 
L 91.562648 307.012398 
L 91.759647 307.46578 
L 92.153645 307.343774 
L 93.33564 307.389645 
L 93.532639 307.57697 
L 94.911633 307.57697 
L 95.108632 307.195355 
L 95.305631 307.195355 
L 95.50263 306.324067 
L 95.699629 306.473322 
L 95.896628 306.324067 
L 96.093628 306.324067 
L 96.290627 306.115926 
L 96.487626 306.473322 
L 96.684625 307.166211 
L 97.275622 307.417256 
L 97.472621 307.417256 
L 97.66962 306.60764 
L 97.86662 306.60764 
L 98.063619 306.909468 
L 98.260618 307.424505 
L 98.851615 307.515514 
L 99.245613 307.554587 
L 99.836611 307.554587 
L 100.03361 307.148351 
L 100.230609 307.148351 
L 100.427608 307.543441 
L 100.230609 307.543441 
L 102.003601 307.482875 
L 102.594598 307.354665 
L 103.382595 307.368165 
L 103.579594 307.522671 
L 103.776593 307.522671 
L 103.973592 307.222581 
L 104.170591 307.413734 
L 104.56459 307.157364 
L 104.761589 307.157364 
L 105.155587 307.57697 
L 105.352586 307.57697 
L 105.746584 307.41551 
L 105.943583 306.650225 
L 106.73158 306.54049 
L 106.928579 307.568227 
L 111.853557 307.544013 
L 112.247555 307.410027 
L 112.444554 307.410027 
L 112.641553 307.57697 
L 113.42955 307.48789 
L 113.823548 307.380889 
L 114.020547 307.380889 
L 114.414545 307.50527 
L 114.611545 307.345828 
L 114.808544 307.342782 
L 114.611545 305.665399 
L 115.202542 305.665399 
L 115.399541 307.023506 
L 115.793539 307.57697 
L 116.778535 307.57697 
L 116.975534 307.320623 
L 117.172533 307.57697 
L 117.369532 307.57697 
L 117.566531 306.596926 
L 117.76353 306.596926 
L 117.96053 307.57697 
L 118.157529 307.485225 
L 118.551527 307.57697 
L 132.341465 307.57697 
L 132.538464 307.457582 
L 132.932462 307.57697 
L 145.934404 307.562829 
L 146.328402 307.083309 
L 146.525402 307.083309 
L 146.722401 304.7944 
L 146.9194 304.74403 
L 146.722401 307.46767 
L 147.116399 307.57697 
L 147.313398 307.492144 
L 147.707396 307.57697 
L 146.9194 307.492144 
L 148.692392 307.57697 
L 148.889391 307.293836 
L 149.08639 306.805162 
L 149.480388 306.805162 
L 149.677387 307.575546 
L 150.071386 307.456293 
L 153.026372 307.461032 
L 153.223372 306.60764 
L 153.420371 306.60764 
L 153.61737 307.488131 
L 154.011368 307.488131 
L 154.208367 307.099358 
L 154.405366 307.089861 
L 154.602365 306.748365 
L 154.996364 305.714065 
L 155.193363 305.697531 
L 155.78436 306.684258 
L 156.178358 306.684258 
L 156.375357 305.485558 
L 156.572357 305.092491 
L 156.769356 305.485558 
L 156.966355 305.047141 
L 157.163354 305.047141 
L 157.557352 305.454739 
L 157.754351 307.57697 
L 157.95135 307.57697 
L 158.14835 306.456708 
L 158.345349 307.217608 
L 158.542348 306.456708 
L 158.14835 306.370715 
L 158.739347 305.208093 
L 158.936346 306.370715 
L 159.133345 306.370715 
L 159.330344 305.201675 
L 159.527343 305.201675 
L 159.921342 307.250655 
L 160.118341 307.000683 
L 160.709338 307.057621 
L 160.906337 307.430779 
L 161.103336 307.430779 
L 161.300335 307.57697 
L 161.694334 307.379556 
L 162.088332 307.379556 
L 162.285331 306.893379 
L 162.48233 306.893379 
L 162.285331 306.893379 
L 162.876328 305.235012 
L 163.270327 305.235012 
L 163.467326 307.078683 
L 164.058323 307.078683 
L 164.255322 306.176188 
L 164.452321 306.176188 
L 164.84632 307.374896 
L 165.043319 306.817894 
L 164.64932 307.301542 
L 165.831315 307.199104 
L 166.028314 306.694919 
L 166.225313 306.537952 
L 166.422312 306.037266 
L 166.619312 306.281258 
L 167.407308 306.178042 
L 167.604307 306.529493 
L 167.801306 307.398983 
L 169.574298 307.469664 
L 169.771297 306.815589 
L 169.968297 307.469664 
L 170.165296 306.534369 
L 170.362295 306.534369 
L 170.559294 307.361126 
L 171.741289 307.270857 
L 171.938288 307.05461 
L 172.135287 307.034744 
L 172.332286 303.716317 
L 172.529285 302.877035 
L 172.923283 302.877035 
L 173.120282 306.818894 
L 173.317282 307.482015 
L 173.71128 307.482015 
L 173.908279 306.882101 
L 174.105278 307.482015 
L 174.302277 307.482017 
L 174.499276 306.882101 
L 174.696275 307.482017 
L 175.681271 307.466356 
L 175.87827 306.907388 
L 176.075269 306.907388 
L 175.87827 305.668859 
L 176.666267 305.668859 
L 176.863266 306.341026 
L 177.060265 306.341026 
L 177.257264 306.511295 
L 177.454263 307.51711 
L 177.848261 307.57697 
L 178.04526 307.57697 
L 178.242259 307.057424 
L 178.636258 307.057424 
L 178.833257 307.57697 
L 179.227255 307.57697 
L 179.424254 307.177116 
L 179.621253 307.177116 
L 179.818252 307.57697 
L 182.970238 307.575275 
L 183.364237 307.146222 
L 183.955234 307.146222 
L 184.74323 306.82188 
L 184.940229 306.82188 
L 185.137229 307.145117 
L 185.531227 307.145117 
L 185.728226 307.57697 
L 186.319223 307.57697 
L 186.516222 307.114136 
L 186.713222 306.936221 
L 186.910221 306.936221 
L 187.10722 306.683644 
L 187.698217 307.57697 
L 187.895216 307.17608 
L 188.092215 307.17608 
L 188.289214 307.57697 
L 188.683213 306.699383 
L 189.077211 307.57697 
L 190.456205 307.479752 
L 190.653204 306.76307 
L 190.850203 306.76307 
L 191.047202 307.57697 
L 194.790185 307.57697 
L 194.987184 307.108438 
L 195.184184 307.108438 
L 195.381183 307.57697 
L 196.366178 307.57697 
L 197.154175 306.846658 
L 197.351174 307.363647 
L 197.548173 307.56203 
L 198.336169 307.57697 
L 198.533169 306.747844 
L 199.124166 306.747844 
L 199.321165 307.57697 
L 200.306161 307.57697 
L 200.50316 307.424877 
L 200.700159 307.57697 
L 201.094157 307.195013 
L 201.291156 307.355557 
L 201.094157 307.355557 
L 201.488155 307.355557 
L 201.685154 307.195013 
L 201.882154 302.08255 
L 202.276152 302.08255 
L 202.473151 306.140711 
L 202.867149 307.57697 
L 203.458147 307.57697 
L 204.246143 306.822431 
L 204.640141 306.822431 
L 205.034139 307.57697 
L 207.989126 307.57697 
L 208.186125 307.312246 
L 208.974122 307.312246 
L 209.36812 307.57697 
L 211.338111 307.569063 
L 211.53511 307.098534 
L 211.732109 307.098534 
L 211.929109 307.569063 
L 212.717105 307.57697 
L 212.914104 307.368258 
L 213.111103 307.43603 
L 213.308102 307.368258 
L 214.096099 307.57697 
L 214.293098 307.57697 
L 214.490097 306.820777 
L 214.687096 306.525207 
L 215.081094 306.525207 
L 215.278094 307.078502 
L 215.081094 307.57697 
L 215.869091 307.57697 
L 216.06609 307.40101 
L 216.460088 307.40101 
L 216.657087 306.689158 
L 218.036081 306.658772 
L 218.23308 307.500697 
L 219.021077 307.500697 
L 219.415075 306.139315 
L 219.612074 306.949962 
L 219.809073 306.139315 
L 220.006072 306.139315 
L 220.203071 307.57697 
L 220.991068 307.480074 
L 221.188067 307.289508 
L 221.385066 307.289508 
L 221.582065 307.038923 
L 221.779064 306.998245 
L 221.582065 306.884462 
L 222.173063 306.884462 
L 222.567061 305.597373 
L 222.76406 306.068466 
L 223.158058 306.068466 
L 223.355057 307.33317 
L 223.552056 307.57697 
L 225.128049 307.57697 
L 225.325049 306.53833 
L 225.522048 306.753178 
L 225.916046 306.753178 
L 225.719047 307.331341 
L 227.098041 307.2464 
L 227.492039 307.170483 
L 227.689038 307.170483 
L 227.886037 307.57697 
L 228.280035 306.981412 
L 229.068032 306.962261 
L 229.265031 303.091199 
L 229.856028 303.091199 
L 230.053027 307.169018 
L 230.250026 307.169018 
L 230.447026 307.377828 
L 230.644025 307.377828 
L 230.841024 307.169018 
L 231.038023 307.377828 
L 231.62902 307.359226 
L 231.826019 305.264352 
L 232.023019 307.274713 
L 232.811015 307.274713 
L 233.008014 307.57697 
L 233.205013 306.789134 
L 233.599011 306.789134 
L 233.796011 306.162505 
L 234.190009 306.162505 
L 234.387008 305.760497 
L 234.781006 306.576289 
L 234.978005 307.57697 
L 235.372004 307.57697 
L 235.569003 307.464692 
L 235.766002 305.192207 
L 235.963001 304.434991 
L 236.356999 304.434991 
L 236.553998 305.192207 
L 236.750997 307.421079 
L 236.947996 307.421079 
L 237.144996 307.57697 
L 237.735993 307.57697 
L 237.932992 306.887237 
L 238.129991 307.57697 
L 238.32699 307.57697 
L 238.523989 306.887237 
L 238.720989 306.887237 
L 238.917988 306.298709 
L 239.311986 306.298709 
L 239.508985 307.57697 
L 241.872974 307.57697 
L 242.069974 307.387039 
L 242.266973 306.942348 
L 242.463972 306.942348 
L 242.660971 307.57697 
L 247.585949 307.57697 
L 247.782948 306.962527 
L 247.979947 307.57697 
L 250.343936 307.57697 
L 250.540936 303.3454 
L 250.737935 303.827036 
L 250.934934 303.246339 
L 251.131933 304.499202 
L 251.525931 304.499202 
L 251.72293 303.038426 
L 252.510927 303.038426 
L 252.707926 305.627823 
L 252.904925 305.627823 
L 253.101924 302.234067 
L 253.298923 305.627823 
L 252.904925 305.627823 
L 253.495922 306.07546 
L 253.692921 307.038315 
L 253.889921 306.300529 
L 254.08692 306.777831 
L 254.283919 307.57697 
L 254.480918 307.57697 
L 254.677917 306.777831 
L 254.874916 306.777831 
L 255.071915 307.57697 
L 257.041906 307.57697 
L 257.238906 307.080361 
L 257.435905 307.442269 
L 257.632904 307.442269 
L 257.829903 307.080361 
L 258.026902 307.57697 
L 259.996893 307.57697 
L 260.193892 305.733903 
L 259.996893 305.733903 
L 260.390891 305.733903 
L 260.587891 307.57697 
L 263.739876 307.547545 
L 263.936876 306.131653 
L 263.542877 306.131653 
L 263.936876 305.561486 
L 264.133875 307.57697 
L 264.527873 307.57697 
L 264.724872 306.82166 
L 265.315869 306.82166 
L 265.512868 307.574876 
L 266.103866 307.574876 
L 266.300865 307.038108 
L 266.497864 307.038108 
L 266.694863 305.829931 
L 266.891862 305.604926 
L 267.48286 305.614489 
L 267.679859 307.57697 
L 270.043848 307.57697 
L 270.240847 302.591443 
L 270.437846 302.591443 
L 270.634846 305.623666 
L 270.831845 305.623666 
L 271.028844 305.762626 
L 271.225843 307.57697 
L 271.422842 307.57697 
L 271.619841 306.271115 
L 271.81684 306.271115 
L 272.013839 307.57697 
L 281.075799 307.57697 
L 281.272798 306.039879 
L 281.469797 306.039879 
L 281.666796 307.57697 
L 281.469797 307.57697 
L 292.895746 307.529089 
L 293.092745 307.104609 
L 293.683742 307.104609 
L 293.880741 307.57697 
L 294.077741 306.838265 
L 294.27474 307.57697 
L 294.668738 307.57697 
L 294.865737 307.137543 
L 295.062736 307.137543 
L 295.259735 306.843606 
L 295.456734 306.843606 
L 295.653733 307.136812 
L 295.850733 307.136812 
L 296.047732 307.57697 
L 302.154704 307.57697 
L 302.351703 305.981494 
L 302.548703 307.57697 
L 310.034669 307.474536 
L 310.231668 306.591358 
L 310.428667 307.474536 
L 310.822665 307.57697 
L 317.126637 307.57697 
L 317.323636 305.655295 
L 317.520635 307.57697 
L 317.717635 306.710462 
L 317.914634 306.710462 
L 318.111633 306.054247 
L 318.70263 306.054247 
L 318.899629 306.208751 
L 318.70263 307.57697 
L 319.490627 307.559156 
L 319.687626 306.413012 
L 320.278623 306.413012 
L 320.475622 305.806869 
L 320.672621 306.488335 
L 321.06662 306.540695 
L 321.263619 306.600172 
L 321.460618 306.78855 
L 321.854616 306.78855 
L 322.051615 307.029408 
L 322.248614 307.029408 
L 322.445613 307.568868 
L 323.430609 307.537949 
L 323.627608 307.439575 
L 324.021606 307.57697 
L 325.991598 307.420672 
L 326.188597 307.332777 
L 326.385596 306.692228 
L 326.582595 307.332777 
L 326.779594 307.27003 
L 326.976593 307.490332 
L 327.56759 307.57697 
L 327.76459 307.235537 
L 328.158588 307.235537 
L 328.552586 307.483604 
L 330.325578 307.57697 
L 330.719576 307.208682 
L 331.113575 306.987412 
L 331.704572 306.98699 
L 332.09857 305.739286 
L 332.295569 306.431503 
L 332.492568 305.871431 
L 332.689568 306.431503 
L 333.083566 306.528763 
L 333.280565 307.329302 
L 333.477564 307.329302 
L 333.674563 307.57697 
L 333.871562 307.286032 
L 334.068561 307.57697 
L 334.46256 307.482484 
L 334.659559 307.482484 
L 334.856558 307.18908 
L 335.053557 307.18908 
L 335.250556 307.448264 
L 335.447555 307.448264 
L 335.644554 307.57299 
L 336.038553 307.467497 
L 337.023548 307.377196 
L 337.220547 307.377196 
L 337.614545 307.503114 
L 338.008544 307.565033 
L 339.387538 307.509828 
L 339.584537 307.184693 
L 339.978535 307.184693 
L 340.175534 307.540252 
L 341.948526 307.458701 
L 342.342524 307.424198 
L 342.539523 307.152825 
L 342.736523 307.152825 
L 343.130521 307.57697 
L 343.32752 307.350923 
L 343.524519 307.350923 
L 343.721518 307.57697 
L 344.115516 307.16556 
L 344.312515 307.298044 
L 344.509515 307.57697 
L 345.100512 307.57697 
L 345.297511 307.403142 
L 345.49451 307.403142 
L 345.691509 307.57697 
L 346.282507 307.565372 
L 346.479506 305.987653 
L 346.676505 306.463192 
L 346.873504 305.987653 
L 347.070503 306.511009 
L 347.464501 306.623216 
L 347.6615 307.377375 
L 347.8585 307.377375 
L 348.252498 307.490172 
L 351.798482 307.408812 
L 351.995481 306.133505 
L 352.19248 306.286291 
L 352.586478 306.286291 
L 352.783477 307.250358 
L 352.980477 307.478294 
L 353.177476 307.250358 
L 353.374475 307.493784 
L 355.147467 307.57697 
L 355.344466 306.815024 
L 355.541465 306.815024 
L 355.738464 306.651444 
L 355.935463 306.651444 
L 356.132462 307.353161 
L 356.329462 307.57697 
L 360.663442 307.521736 
L 361.05744 307.445234 
L 361.25444 307.445234 
L 361.451439 307.57697 
L 361.648438 307.134131 
L 361.845437 307.496201 
L 362.239435 307.57697 
L 363.027432 307.57697 
L 363.224431 307.245315 
L 363.815428 307.348865 
L 364.012427 307.575935 
L 365.391421 307.57697 
L 365.58842 307.36014 
L 366.179417 307.399645 
L 366.770415 307.365241 
L 367.164413 307.57697 
L 368.543407 307.57697 
L 368.740406 306.00479 
L 368.937405 306.00479 
L 369.134404 307.57697 
L 370.710397 307.57697 
L 370.907396 307.30504 
L 371.104395 307.30504 
L 371.301395 307.57697 
L 373.074387 307.571667 
L 373.271386 305.403836 
L 373.468385 307.571667 
L 374.45338 307.57697 
L 374.65038 306.541028 
L 374.847379 307.57697 
L 385.68233 307.57697 
L 385.879329 306.386653 
L 386.076328 306.386653 
L 386.273327 307.57697 
L 388.440318 307.57697 
L 388.637317 307.464833 
L 388.834316 305.518257 
L 389.228314 305.518257 
L 389.425313 306.43943 
L 389.622312 306.43943 
L 389.819312 305.653515 
L 390.016311 305.653515 
L 390.607308 307.57697 
L 391.592304 307.57697 
L 391.789303 306.987985 
L 393.168297 307.003462 
L 393.365296 307.484702 
L 393.759294 307.57697 
L 398.487273 307.57697 
L 398.487273 307.57697 
" style="fill:none;stroke:#ff7f0e;stroke-linecap:square;stroke-width:1.5;"/>
   </g>
   <g id="patch_3">
    <path d="M 57.6 307.584 
L 57.6 41.472 
" style="fill:none;stroke:#000000;stroke-linecap:square;stroke-linejoin:miter;stroke-width:0.8;"/>
   </g>
   <g id="patch_4">
    <path d="M 414.72 307.584 
L 414.72 41.472 
" style="fill:none;stroke:#000000;stroke-linecap:square;stroke-linejoin:miter;stroke-width:0.8;"/>
   </g>
   <g id="patch_5">
    <path d="M 57.6 307.584 
L 414.72 307.584 
" style="fill:none;stroke:#000000;stroke-linecap:square;stroke-linejoin:miter;stroke-width:0.8;"/>
   </g>
   <g id="patch_6">
    <path d="M 57.6 41.472 
L 414.72 41.472 
" style="fill:none;stroke:#000000;stroke-linecap:square;stroke-linejoin:miter;stroke-width:0.8;"/>
   </g>
  </g>
 </g>
 <defs>
  <clipPath id="pcf4d84e7b9">
   <rect height="266.112" width="357.12" x="57.6" y="41.472"/>
  </clipPath>
 </defs>
</svg>
