<?xml version="1.0" encoding="utf-8" standalone="no"?>
<!DOCTYPE svg PUBLIC "-//W3C//DTD SVG 1.1//EN"
  "http://www.w3.org/Graphics/SVG/1.1/DTD/svg11.dtd">
<svg height="345.6pt" version="1.1" viewBox="0 0 460.8 345.6" width="460.8pt" xmlns="http://www.w3.org/2000/svg" xmlns:xlink="http://www.w3.org/1999/xlink">
 <metadata>
  <rdf:RDF xmlns:cc="http://creativecommons.org/ns#" xmlns:dc="http://purl.org/dc/elements/1.1/" xmlns:rdf="http://www.w3.org/1999/02/22-rdf-syntax-ns#">
   <cc:Work>
    <dc:type rdf:resource="http://purl.org/dc/dcmitype/StillImage"/>
    <dc:date>2022-01-07T02:37:36.079299</dc:date>
    <dc:format>image/svg+xml</dc:format>
    <dc:creator>
     <cc:Agent>
      <dc:title>Matplotlib v3.4.3, https://matplotlib.org/</dc:title>
     </cc:Agent>
    </dc:creator>
   </cc:Work>
  </rdf:RDF>
 </metadata>
 <defs>
  <style type="text/css">*{stroke-linecap:butt;stroke-linejoin:round;}</style>
 </defs>
 <g id="figure_1">
  <g id="patch_1">
   <path d="M 0 345.6 
L 460.8 345.6 
L 460.8 0 
L 0 0 
z
" style="fill:#ffffff;"/>
  </g>
  <g id="axes_1">
   <g id="patch_2">
    <path d="M 57.6 307.584 
L 414.72 307.584 
L 414.72 41.472 
L 57.6 41.472 
z
" style="fill:#ffffff;"/>
   </g>
   <g id="matplotlib.axis_1">
    <g id="xtick_1">
     <g id="line2d_1">
      <defs>
       <path d="M 0 0 
L 0 3.5 
" id="md571041acd" style="stroke:#000000;stroke-width:0.8;"/>
      </defs>
      <g>
       <use style="stroke:#000000;stroke-width:0.8;" x="73.832727" xlink:href="#md571041acd" y="307.584"/>
      </g>
     </g>
     <g id="text_1">
      <!-- 39000 -->
      <g transform="translate(57.926477 322.182437)scale(0.1 -0.1)">
       <defs>
        <path d="M 2597 2516 
Q 3050 2419 3304 2112 
Q 3559 1806 3559 1356 
Q 3559 666 3084 287 
Q 2609 -91 1734 -91 
Q 1441 -91 1130 -33 
Q 819 25 488 141 
L 488 750 
Q 750 597 1062 519 
Q 1375 441 1716 441 
Q 2309 441 2620 675 
Q 2931 909 2931 1356 
Q 2931 1769 2642 2001 
Q 2353 2234 1838 2234 
L 1294 2234 
L 1294 2753 
L 1863 2753 
Q 2328 2753 2575 2939 
Q 2822 3125 2822 3475 
Q 2822 3834 2567 4026 
Q 2313 4219 1838 4219 
Q 1578 4219 1281 4162 
Q 984 4106 628 3988 
L 628 4550 
Q 988 4650 1302 4700 
Q 1616 4750 1894 4750 
Q 2613 4750 3031 4423 
Q 3450 4097 3450 3541 
Q 3450 3153 3228 2886 
Q 3006 2619 2597 2516 
z
" id="DejaVuSans-33" transform="scale(0.015625)"/>
        <path d="M 703 97 
L 703 672 
Q 941 559 1184 500 
Q 1428 441 1663 441 
Q 2288 441 2617 861 
Q 2947 1281 2994 2138 
Q 2813 1869 2534 1725 
Q 2256 1581 1919 1581 
Q 1219 1581 811 2004 
Q 403 2428 403 3163 
Q 403 3881 828 4315 
Q 1253 4750 1959 4750 
Q 2769 4750 3195 4129 
Q 3622 3509 3622 2328 
Q 3622 1225 3098 567 
Q 2575 -91 1691 -91 
Q 1453 -91 1209 -44 
Q 966 3 703 97 
z
M 1959 2075 
Q 2384 2075 2632 2365 
Q 2881 2656 2881 3163 
Q 2881 3666 2632 3958 
Q 2384 4250 1959 4250 
Q 1534 4250 1286 3958 
Q 1038 3666 1038 3163 
Q 1038 2656 1286 2365 
Q 1534 2075 1959 2075 
z
" id="DejaVuSans-39" transform="scale(0.015625)"/>
        <path d="M 2034 4250 
Q 1547 4250 1301 3770 
Q 1056 3291 1056 2328 
Q 1056 1369 1301 889 
Q 1547 409 2034 409 
Q 2525 409 2770 889 
Q 3016 1369 3016 2328 
Q 3016 3291 2770 3770 
Q 2525 4250 2034 4250 
z
M 2034 4750 
Q 2819 4750 3233 4129 
Q 3647 3509 3647 2328 
Q 3647 1150 3233 529 
Q 2819 -91 2034 -91 
Q 1250 -91 836 529 
Q 422 1150 422 2328 
Q 422 3509 836 4129 
Q 1250 4750 2034 4750 
z
" id="DejaVuSans-30" transform="scale(0.015625)"/>
       </defs>
       <use xlink:href="#DejaVuSans-33"/>
       <use x="63.623047" xlink:href="#DejaVuSans-39"/>
       <use x="127.246094" xlink:href="#DejaVuSans-30"/>
       <use x="190.869141" xlink:href="#DejaVuSans-30"/>
       <use x="254.492188" xlink:href="#DejaVuSans-30"/>
      </g>
     </g>
    </g>
    <g id="xtick_2">
     <g id="line2d_2">
      <g>
       <use style="stroke:#000000;stroke-width:0.8;" x="123.082507" xlink:href="#md571041acd" y="307.584"/>
      </g>
     </g>
     <g id="text_2">
      <!-- 39250 -->
      <g transform="translate(107.176257 322.182437)scale(0.1 -0.1)">
       <defs>
        <path d="M 1228 531 
L 3431 531 
L 3431 0 
L 469 0 
L 469 531 
Q 828 903 1448 1529 
Q 2069 2156 2228 2338 
Q 2531 2678 2651 2914 
Q 2772 3150 2772 3378 
Q 2772 3750 2511 3984 
Q 2250 4219 1831 4219 
Q 1534 4219 1204 4116 
Q 875 4013 500 3803 
L 500 4441 
Q 881 4594 1212 4672 
Q 1544 4750 1819 4750 
Q 2544 4750 2975 4387 
Q 3406 4025 3406 3419 
Q 3406 3131 3298 2873 
Q 3191 2616 2906 2266 
Q 2828 2175 2409 1742 
Q 1991 1309 1228 531 
z
" id="DejaVuSans-32" transform="scale(0.015625)"/>
        <path d="M 691 4666 
L 3169 4666 
L 3169 4134 
L 1269 4134 
L 1269 2991 
Q 1406 3038 1543 3061 
Q 1681 3084 1819 3084 
Q 2600 3084 3056 2656 
Q 3513 2228 3513 1497 
Q 3513 744 3044 326 
Q 2575 -91 1722 -91 
Q 1428 -91 1123 -41 
Q 819 9 494 109 
L 494 744 
Q 775 591 1075 516 
Q 1375 441 1709 441 
Q 2250 441 2565 725 
Q 2881 1009 2881 1497 
Q 2881 1984 2565 2268 
Q 2250 2553 1709 2553 
Q 1456 2553 1204 2497 
Q 953 2441 691 2322 
L 691 4666 
z
" id="DejaVuSans-35" transform="scale(0.015625)"/>
       </defs>
       <use xlink:href="#DejaVuSans-33"/>
       <use x="63.623047" xlink:href="#DejaVuSans-39"/>
       <use x="127.246094" xlink:href="#DejaVuSans-32"/>
       <use x="190.869141" xlink:href="#DejaVuSans-35"/>
       <use x="254.492188" xlink:href="#DejaVuSans-30"/>
      </g>
     </g>
    </g>
    <g id="xtick_3">
     <g id="line2d_3">
      <g>
       <use style="stroke:#000000;stroke-width:0.8;" x="172.332286" xlink:href="#md571041acd" y="307.584"/>
      </g>
     </g>
     <g id="text_3">
      <!-- 39500 -->
      <g transform="translate(156.426036 322.182437)scale(0.1 -0.1)">
       <use xlink:href="#DejaVuSans-33"/>
       <use x="63.623047" xlink:href="#DejaVuSans-39"/>
       <use x="127.246094" xlink:href="#DejaVuSans-35"/>
       <use x="190.869141" xlink:href="#DejaVuSans-30"/>
       <use x="254.492188" xlink:href="#DejaVuSans-30"/>
      </g>
     </g>
    </g>
    <g id="xtick_4">
     <g id="line2d_4">
      <g>
       <use style="stroke:#000000;stroke-width:0.8;" x="221.582065" xlink:href="#md571041acd" y="307.584"/>
      </g>
     </g>
     <g id="text_4">
      <!-- 39750 -->
      <g transform="translate(205.675815 322.182437)scale(0.1 -0.1)">
       <defs>
        <path d="M 525 4666 
L 3525 4666 
L 3525 4397 
L 1831 0 
L 1172 0 
L 2766 4134 
L 525 4134 
L 525 4666 
z
" id="DejaVuSans-37" transform="scale(0.015625)"/>
       </defs>
       <use xlink:href="#DejaVuSans-33"/>
       <use x="63.623047" xlink:href="#DejaVuSans-39"/>
       <use x="127.246094" xlink:href="#DejaVuSans-37"/>
       <use x="190.869141" xlink:href="#DejaVuSans-35"/>
       <use x="254.492188" xlink:href="#DejaVuSans-30"/>
      </g>
     </g>
    </g>
    <g id="xtick_5">
     <g id="line2d_5">
      <g>
       <use style="stroke:#000000;stroke-width:0.8;" x="270.831845" xlink:href="#md571041acd" y="307.584"/>
      </g>
     </g>
     <g id="text_5">
      <!-- 40000 -->
      <g transform="translate(254.925595 322.182437)scale(0.1 -0.1)">
       <defs>
        <path d="M 2419 4116 
L 825 1625 
L 2419 1625 
L 2419 4116 
z
M 2253 4666 
L 3047 4666 
L 3047 1625 
L 3713 1625 
L 3713 1100 
L 3047 1100 
L 3047 0 
L 2419 0 
L 2419 1100 
L 313 1100 
L 313 1709 
L 2253 4666 
z
" id="DejaVuSans-34" transform="scale(0.015625)"/>
       </defs>
       <use xlink:href="#DejaVuSans-34"/>
       <use x="63.623047" xlink:href="#DejaVuSans-30"/>
       <use x="127.246094" xlink:href="#DejaVuSans-30"/>
       <use x="190.869141" xlink:href="#DejaVuSans-30"/>
       <use x="254.492188" xlink:href="#DejaVuSans-30"/>
      </g>
     </g>
    </g>
    <g id="xtick_6">
     <g id="line2d_6">
      <g>
       <use style="stroke:#000000;stroke-width:0.8;" x="320.081624" xlink:href="#md571041acd" y="307.584"/>
      </g>
     </g>
     <g id="text_6">
      <!-- 40250 -->
      <g transform="translate(304.175374 322.182437)scale(0.1 -0.1)">
       <use xlink:href="#DejaVuSans-34"/>
       <use x="63.623047" xlink:href="#DejaVuSans-30"/>
       <use x="127.246094" xlink:href="#DejaVuSans-32"/>
       <use x="190.869141" xlink:href="#DejaVuSans-35"/>
       <use x="254.492188" xlink:href="#DejaVuSans-30"/>
      </g>
     </g>
    </g>
    <g id="xtick_7">
     <g id="line2d_7">
      <g>
       <use style="stroke:#000000;stroke-width:0.8;" x="369.331403" xlink:href="#md571041acd" y="307.584"/>
      </g>
     </g>
     <g id="text_7">
      <!-- 40500 -->
      <g transform="translate(353.425153 322.182437)scale(0.1 -0.1)">
       <use xlink:href="#DejaVuSans-34"/>
       <use x="63.623047" xlink:href="#DejaVuSans-30"/>
       <use x="127.246094" xlink:href="#DejaVuSans-35"/>
       <use x="190.869141" xlink:href="#DejaVuSans-30"/>
       <use x="254.492188" xlink:href="#DejaVuSans-30"/>
      </g>
     </g>
    </g>
    <g id="text_8">
     <!-- Block Height -->
     <g transform="translate(204.518594 335.860562)scale(0.1 -0.1)">
      <defs>
       <path d="M 1259 2228 
L 1259 519 
L 2272 519 
Q 2781 519 3026 730 
Q 3272 941 3272 1375 
Q 3272 1813 3026 2020 
Q 2781 2228 2272 2228 
L 1259 2228 
z
M 1259 4147 
L 1259 2741 
L 2194 2741 
Q 2656 2741 2882 2914 
Q 3109 3088 3109 3444 
Q 3109 3797 2882 3972 
Q 2656 4147 2194 4147 
L 1259 4147 
z
M 628 4666 
L 2241 4666 
Q 2963 4666 3353 4366 
Q 3744 4066 3744 3513 
Q 3744 3084 3544 2831 
Q 3344 2578 2956 2516 
Q 3422 2416 3680 2098 
Q 3938 1781 3938 1306 
Q 3938 681 3513 340 
Q 3088 0 2303 0 
L 628 0 
L 628 4666 
z
" id="DejaVuSans-42" transform="scale(0.015625)"/>
       <path d="M 603 4863 
L 1178 4863 
L 1178 0 
L 603 0 
L 603 4863 
z
" id="DejaVuSans-6c" transform="scale(0.015625)"/>
       <path d="M 1959 3097 
Q 1497 3097 1228 2736 
Q 959 2375 959 1747 
Q 959 1119 1226 758 
Q 1494 397 1959 397 
Q 2419 397 2687 759 
Q 2956 1122 2956 1747 
Q 2956 2369 2687 2733 
Q 2419 3097 1959 3097 
z
M 1959 3584 
Q 2709 3584 3137 3096 
Q 3566 2609 3566 1747 
Q 3566 888 3137 398 
Q 2709 -91 1959 -91 
Q 1206 -91 779 398 
Q 353 888 353 1747 
Q 353 2609 779 3096 
Q 1206 3584 1959 3584 
z
" id="DejaVuSans-6f" transform="scale(0.015625)"/>
       <path d="M 3122 3366 
L 3122 2828 
Q 2878 2963 2633 3030 
Q 2388 3097 2138 3097 
Q 1578 3097 1268 2742 
Q 959 2388 959 1747 
Q 959 1106 1268 751 
Q 1578 397 2138 397 
Q 2388 397 2633 464 
Q 2878 531 3122 666 
L 3122 134 
Q 2881 22 2623 -34 
Q 2366 -91 2075 -91 
Q 1284 -91 818 406 
Q 353 903 353 1747 
Q 353 2603 823 3093 
Q 1294 3584 2113 3584 
Q 2378 3584 2631 3529 
Q 2884 3475 3122 3366 
z
" id="DejaVuSans-63" transform="scale(0.015625)"/>
       <path d="M 581 4863 
L 1159 4863 
L 1159 1991 
L 2875 3500 
L 3609 3500 
L 1753 1863 
L 3688 0 
L 2938 0 
L 1159 1709 
L 1159 0 
L 581 0 
L 581 4863 
z
" id="DejaVuSans-6b" transform="scale(0.015625)"/>
       <path id="DejaVuSans-20" transform="scale(0.015625)"/>
       <path d="M 628 4666 
L 1259 4666 
L 1259 2753 
L 3553 2753 
L 3553 4666 
L 4184 4666 
L 4184 0 
L 3553 0 
L 3553 2222 
L 1259 2222 
L 1259 0 
L 628 0 
L 628 4666 
z
" id="DejaVuSans-48" transform="scale(0.015625)"/>
       <path d="M 3597 1894 
L 3597 1613 
L 953 1613 
Q 991 1019 1311 708 
Q 1631 397 2203 397 
Q 2534 397 2845 478 
Q 3156 559 3463 722 
L 3463 178 
Q 3153 47 2828 -22 
Q 2503 -91 2169 -91 
Q 1331 -91 842 396 
Q 353 884 353 1716 
Q 353 2575 817 3079 
Q 1281 3584 2069 3584 
Q 2775 3584 3186 3129 
Q 3597 2675 3597 1894 
z
M 3022 2063 
Q 3016 2534 2758 2815 
Q 2500 3097 2075 3097 
Q 1594 3097 1305 2825 
Q 1016 2553 972 2059 
L 3022 2063 
z
" id="DejaVuSans-65" transform="scale(0.015625)"/>
       <path d="M 603 3500 
L 1178 3500 
L 1178 0 
L 603 0 
L 603 3500 
z
M 603 4863 
L 1178 4863 
L 1178 4134 
L 603 4134 
L 603 4863 
z
" id="DejaVuSans-69" transform="scale(0.015625)"/>
       <path d="M 2906 1791 
Q 2906 2416 2648 2759 
Q 2391 3103 1925 3103 
Q 1463 3103 1205 2759 
Q 947 2416 947 1791 
Q 947 1169 1205 825 
Q 1463 481 1925 481 
Q 2391 481 2648 825 
Q 2906 1169 2906 1791 
z
M 3481 434 
Q 3481 -459 3084 -895 
Q 2688 -1331 1869 -1331 
Q 1566 -1331 1297 -1286 
Q 1028 -1241 775 -1147 
L 775 -588 
Q 1028 -725 1275 -790 
Q 1522 -856 1778 -856 
Q 2344 -856 2625 -561 
Q 2906 -266 2906 331 
L 2906 616 
Q 2728 306 2450 153 
Q 2172 0 1784 0 
Q 1141 0 747 490 
Q 353 981 353 1791 
Q 353 2603 747 3093 
Q 1141 3584 1784 3584 
Q 2172 3584 2450 3431 
Q 2728 3278 2906 2969 
L 2906 3500 
L 3481 3500 
L 3481 434 
z
" id="DejaVuSans-67" transform="scale(0.015625)"/>
       <path d="M 3513 2113 
L 3513 0 
L 2938 0 
L 2938 2094 
Q 2938 2591 2744 2837 
Q 2550 3084 2163 3084 
Q 1697 3084 1428 2787 
Q 1159 2491 1159 1978 
L 1159 0 
L 581 0 
L 581 4863 
L 1159 4863 
L 1159 2956 
Q 1366 3272 1645 3428 
Q 1925 3584 2291 3584 
Q 2894 3584 3203 3211 
Q 3513 2838 3513 2113 
z
" id="DejaVuSans-68" transform="scale(0.015625)"/>
       <path d="M 1172 4494 
L 1172 3500 
L 2356 3500 
L 2356 3053 
L 1172 3053 
L 1172 1153 
Q 1172 725 1289 603 
Q 1406 481 1766 481 
L 2356 481 
L 2356 0 
L 1766 0 
Q 1100 0 847 248 
Q 594 497 594 1153 
L 594 3053 
L 172 3053 
L 172 3500 
L 594 3500 
L 594 4494 
L 1172 4494 
z
" id="DejaVuSans-74" transform="scale(0.015625)"/>
      </defs>
      <use xlink:href="#DejaVuSans-42"/>
      <use x="68.603516" xlink:href="#DejaVuSans-6c"/>
      <use x="96.386719" xlink:href="#DejaVuSans-6f"/>
      <use x="157.568359" xlink:href="#DejaVuSans-63"/>
      <use x="212.548828" xlink:href="#DejaVuSans-6b"/>
      <use x="270.458984" xlink:href="#DejaVuSans-20"/>
      <use x="302.246094" xlink:href="#DejaVuSans-48"/>
      <use x="377.441406" xlink:href="#DejaVuSans-65"/>
      <use x="438.964844" xlink:href="#DejaVuSans-69"/>
      <use x="466.748047" xlink:href="#DejaVuSans-67"/>
      <use x="530.224609" xlink:href="#DejaVuSans-68"/>
      <use x="593.603516" xlink:href="#DejaVuSans-74"/>
     </g>
    </g>
   </g>
   <g id="matplotlib.axis_2">
    <g id="ytick_1">
     <g id="line2d_8">
      <defs>
       <path d="M 0 0 
L -3.5 0 
" id="mc7c66975a4" style="stroke:#000000;stroke-width:0.8;"/>
      </defs>
      <g>
       <use style="stroke:#000000;stroke-width:0.8;" x="57.6" xlink:href="#mc7c66975a4" y="307.584"/>
      </g>
     </g>
     <g id="text_9">
      <!-- 0.0 -->
      <g transform="translate(34.696875 311.383219)scale(0.1 -0.1)">
       <defs>
        <path d="M 684 794 
L 1344 794 
L 1344 0 
L 684 0 
L 684 794 
z
" id="DejaVuSans-2e" transform="scale(0.015625)"/>
       </defs>
       <use xlink:href="#DejaVuSans-30"/>
       <use x="63.623047" xlink:href="#DejaVuSans-2e"/>
       <use x="95.410156" xlink:href="#DejaVuSans-30"/>
      </g>
     </g>
    </g>
    <g id="ytick_2">
     <g id="line2d_9">
      <g>
       <use style="stroke:#000000;stroke-width:0.8;" x="57.6" xlink:href="#mc7c66975a4" y="274.32"/>
      </g>
     </g>
     <g id="text_10">
      <!-- 2.5 -->
      <g transform="translate(34.696875 278.119219)scale(0.1 -0.1)">
       <use xlink:href="#DejaVuSans-32"/>
       <use x="63.623047" xlink:href="#DejaVuSans-2e"/>
       <use x="95.410156" xlink:href="#DejaVuSans-35"/>
      </g>
     </g>
    </g>
    <g id="ytick_3">
     <g id="line2d_10">
      <g>
       <use style="stroke:#000000;stroke-width:0.8;" x="57.6" xlink:href="#mc7c66975a4" y="241.056"/>
      </g>
     </g>
     <g id="text_11">
      <!-- 5.0 -->
      <g transform="translate(34.696875 244.855219)scale(0.1 -0.1)">
       <use xlink:href="#DejaVuSans-35"/>
       <use x="63.623047" xlink:href="#DejaVuSans-2e"/>
       <use x="95.410156" xlink:href="#DejaVuSans-30"/>
      </g>
     </g>
    </g>
    <g id="ytick_4">
     <g id="line2d_11">
      <g>
       <use style="stroke:#000000;stroke-width:0.8;" x="57.6" xlink:href="#mc7c66975a4" y="207.792"/>
      </g>
     </g>
     <g id="text_12">
      <!-- 7.5 -->
      <g transform="translate(34.696875 211.591219)scale(0.1 -0.1)">
       <use xlink:href="#DejaVuSans-37"/>
       <use x="63.623047" xlink:href="#DejaVuSans-2e"/>
       <use x="95.410156" xlink:href="#DejaVuSans-35"/>
      </g>
     </g>
    </g>
    <g id="ytick_5">
     <g id="line2d_12">
      <g>
       <use style="stroke:#000000;stroke-width:0.8;" x="57.6" xlink:href="#mc7c66975a4" y="174.528"/>
      </g>
     </g>
     <g id="text_13">
      <!-- 10.0 -->
      <g transform="translate(28.334375 178.327219)scale(0.1 -0.1)">
       <defs>
        <path d="M 794 531 
L 1825 531 
L 1825 4091 
L 703 3866 
L 703 4441 
L 1819 4666 
L 2450 4666 
L 2450 531 
L 3481 531 
L 3481 0 
L 794 0 
L 794 531 
z
" id="DejaVuSans-31" transform="scale(0.015625)"/>
       </defs>
       <use xlink:href="#DejaVuSans-31"/>
       <use x="63.623047" xlink:href="#DejaVuSans-30"/>
       <use x="127.246094" xlink:href="#DejaVuSans-2e"/>
       <use x="159.033203" xlink:href="#DejaVuSans-30"/>
      </g>
     </g>
    </g>
    <g id="ytick_6">
     <g id="line2d_13">
      <g>
       <use style="stroke:#000000;stroke-width:0.8;" x="57.6" xlink:href="#mc7c66975a4" y="141.264"/>
      </g>
     </g>
     <g id="text_14">
      <!-- 12.5 -->
      <g transform="translate(28.334375 145.063219)scale(0.1 -0.1)">
       <use xlink:href="#DejaVuSans-31"/>
       <use x="63.623047" xlink:href="#DejaVuSans-32"/>
       <use x="127.246094" xlink:href="#DejaVuSans-2e"/>
       <use x="159.033203" xlink:href="#DejaVuSans-35"/>
      </g>
     </g>
    </g>
    <g id="ytick_7">
     <g id="line2d_14">
      <g>
       <use style="stroke:#000000;stroke-width:0.8;" x="57.6" xlink:href="#mc7c66975a4" y="108"/>
      </g>
     </g>
     <g id="text_15">
      <!-- 15.0 -->
      <g transform="translate(28.334375 111.799219)scale(0.1 -0.1)">
       <use xlink:href="#DejaVuSans-31"/>
       <use x="63.623047" xlink:href="#DejaVuSans-35"/>
       <use x="127.246094" xlink:href="#DejaVuSans-2e"/>
       <use x="159.033203" xlink:href="#DejaVuSans-30"/>
      </g>
     </g>
    </g>
    <g id="ytick_8">
     <g id="line2d_15">
      <g>
       <use style="stroke:#000000;stroke-width:0.8;" x="57.6" xlink:href="#mc7c66975a4" y="74.736"/>
      </g>
     </g>
     <g id="text_16">
      <!-- 17.5 -->
      <g transform="translate(28.334375 78.535219)scale(0.1 -0.1)">
       <use xlink:href="#DejaVuSans-31"/>
       <use x="63.623047" xlink:href="#DejaVuSans-37"/>
       <use x="127.246094" xlink:href="#DejaVuSans-2e"/>
       <use x="159.033203" xlink:href="#DejaVuSans-35"/>
      </g>
     </g>
    </g>
    <g id="ytick_9">
     <g id="line2d_16">
      <g>
       <use style="stroke:#000000;stroke-width:0.8;" x="57.6" xlink:href="#mc7c66975a4" y="41.472"/>
      </g>
     </g>
     <g id="text_17">
      <!-- 20.0 -->
      <g transform="translate(28.334375 45.271219)scale(0.1 -0.1)">
       <use xlink:href="#DejaVuSans-32"/>
       <use x="63.623047" xlink:href="#DejaVuSans-30"/>
       <use x="127.246094" xlink:href="#DejaVuSans-2e"/>
       <use x="159.033203" xlink:href="#DejaVuSans-30"/>
      </g>
     </g>
    </g>
    <g id="text_18">
     <!-- Estimated fee for "stack-stx" -->
     <g transform="translate(22.254687 246.543625)rotate(-90)scale(0.1 -0.1)">
      <defs>
       <path d="M 628 4666 
L 3578 4666 
L 3578 4134 
L 1259 4134 
L 1259 2753 
L 3481 2753 
L 3481 2222 
L 1259 2222 
L 1259 531 
L 3634 531 
L 3634 0 
L 628 0 
L 628 4666 
z
" id="DejaVuSans-45" transform="scale(0.015625)"/>
       <path d="M 2834 3397 
L 2834 2853 
Q 2591 2978 2328 3040 
Q 2066 3103 1784 3103 
Q 1356 3103 1142 2972 
Q 928 2841 928 2578 
Q 928 2378 1081 2264 
Q 1234 2150 1697 2047 
L 1894 2003 
Q 2506 1872 2764 1633 
Q 3022 1394 3022 966 
Q 3022 478 2636 193 
Q 2250 -91 1575 -91 
Q 1294 -91 989 -36 
Q 684 19 347 128 
L 347 722 
Q 666 556 975 473 
Q 1284 391 1588 391 
Q 1994 391 2212 530 
Q 2431 669 2431 922 
Q 2431 1156 2273 1281 
Q 2116 1406 1581 1522 
L 1381 1569 
Q 847 1681 609 1914 
Q 372 2147 372 2553 
Q 372 3047 722 3315 
Q 1072 3584 1716 3584 
Q 2034 3584 2315 3537 
Q 2597 3491 2834 3397 
z
" id="DejaVuSans-73" transform="scale(0.015625)"/>
       <path d="M 3328 2828 
Q 3544 3216 3844 3400 
Q 4144 3584 4550 3584 
Q 5097 3584 5394 3201 
Q 5691 2819 5691 2113 
L 5691 0 
L 5113 0 
L 5113 2094 
Q 5113 2597 4934 2840 
Q 4756 3084 4391 3084 
Q 3944 3084 3684 2787 
Q 3425 2491 3425 1978 
L 3425 0 
L 2847 0 
L 2847 2094 
Q 2847 2600 2669 2842 
Q 2491 3084 2119 3084 
Q 1678 3084 1418 2786 
Q 1159 2488 1159 1978 
L 1159 0 
L 581 0 
L 581 3500 
L 1159 3500 
L 1159 2956 
Q 1356 3278 1631 3431 
Q 1906 3584 2284 3584 
Q 2666 3584 2933 3390 
Q 3200 3197 3328 2828 
z
" id="DejaVuSans-6d" transform="scale(0.015625)"/>
       <path d="M 2194 1759 
Q 1497 1759 1228 1600 
Q 959 1441 959 1056 
Q 959 750 1161 570 
Q 1363 391 1709 391 
Q 2188 391 2477 730 
Q 2766 1069 2766 1631 
L 2766 1759 
L 2194 1759 
z
M 3341 1997 
L 3341 0 
L 2766 0 
L 2766 531 
Q 2569 213 2275 61 
Q 1981 -91 1556 -91 
Q 1019 -91 701 211 
Q 384 513 384 1019 
Q 384 1609 779 1909 
Q 1175 2209 1959 2209 
L 2766 2209 
L 2766 2266 
Q 2766 2663 2505 2880 
Q 2244 3097 1772 3097 
Q 1472 3097 1187 3025 
Q 903 2953 641 2809 
L 641 3341 
Q 956 3463 1253 3523 
Q 1550 3584 1831 3584 
Q 2591 3584 2966 3190 
Q 3341 2797 3341 1997 
z
" id="DejaVuSans-61" transform="scale(0.015625)"/>
       <path d="M 2906 2969 
L 2906 4863 
L 3481 4863 
L 3481 0 
L 2906 0 
L 2906 525 
Q 2725 213 2448 61 
Q 2172 -91 1784 -91 
Q 1150 -91 751 415 
Q 353 922 353 1747 
Q 353 2572 751 3078 
Q 1150 3584 1784 3584 
Q 2172 3584 2448 3432 
Q 2725 3281 2906 2969 
z
M 947 1747 
Q 947 1113 1208 752 
Q 1469 391 1925 391 
Q 2381 391 2643 752 
Q 2906 1113 2906 1747 
Q 2906 2381 2643 2742 
Q 2381 3103 1925 3103 
Q 1469 3103 1208 2742 
Q 947 2381 947 1747 
z
" id="DejaVuSans-64" transform="scale(0.015625)"/>
       <path d="M 2375 4863 
L 2375 4384 
L 1825 4384 
Q 1516 4384 1395 4259 
Q 1275 4134 1275 3809 
L 1275 3500 
L 2222 3500 
L 2222 3053 
L 1275 3053 
L 1275 0 
L 697 0 
L 697 3053 
L 147 3053 
L 147 3500 
L 697 3500 
L 697 3744 
Q 697 4328 969 4595 
Q 1241 4863 1831 4863 
L 2375 4863 
z
" id="DejaVuSans-66" transform="scale(0.015625)"/>
       <path d="M 2631 2963 
Q 2534 3019 2420 3045 
Q 2306 3072 2169 3072 
Q 1681 3072 1420 2755 
Q 1159 2438 1159 1844 
L 1159 0 
L 581 0 
L 581 3500 
L 1159 3500 
L 1159 2956 
Q 1341 3275 1631 3429 
Q 1922 3584 2338 3584 
Q 2397 3584 2469 3576 
Q 2541 3569 2628 3553 
L 2631 2963 
z
" id="DejaVuSans-72" transform="scale(0.015625)"/>
       <path d="M 1147 4666 
L 1147 2931 
L 616 2931 
L 616 4666 
L 1147 4666 
z
M 2328 4666 
L 2328 2931 
L 1797 2931 
L 1797 4666 
L 2328 4666 
z
" id="DejaVuSans-22" transform="scale(0.015625)"/>
       <path d="M 313 2009 
L 1997 2009 
L 1997 1497 
L 313 1497 
L 313 2009 
z
" id="DejaVuSans-2d" transform="scale(0.015625)"/>
       <path d="M 3513 3500 
L 2247 1797 
L 3578 0 
L 2900 0 
L 1881 1375 
L 863 0 
L 184 0 
L 1544 1831 
L 300 3500 
L 978 3500 
L 1906 2253 
L 2834 3500 
L 3513 3500 
z
" id="DejaVuSans-78" transform="scale(0.015625)"/>
      </defs>
      <use xlink:href="#DejaVuSans-45"/>
      <use x="63.183594" xlink:href="#DejaVuSans-73"/>
      <use x="115.283203" xlink:href="#DejaVuSans-74"/>
      <use x="154.492188" xlink:href="#DejaVuSans-69"/>
      <use x="182.275391" xlink:href="#DejaVuSans-6d"/>
      <use x="279.6875" xlink:href="#DejaVuSans-61"/>
      <use x="340.966797" xlink:href="#DejaVuSans-74"/>
      <use x="380.175781" xlink:href="#DejaVuSans-65"/>
      <use x="441.699219" xlink:href="#DejaVuSans-64"/>
      <use x="505.175781" xlink:href="#DejaVuSans-20"/>
      <use x="536.962891" xlink:href="#DejaVuSans-66"/>
      <use x="572.167969" xlink:href="#DejaVuSans-65"/>
      <use x="633.691406" xlink:href="#DejaVuSans-65"/>
      <use x="695.214844" xlink:href="#DejaVuSans-20"/>
      <use x="727.001953" xlink:href="#DejaVuSans-66"/>
      <use x="762.207031" xlink:href="#DejaVuSans-6f"/>
      <use x="823.388672" xlink:href="#DejaVuSans-72"/>
      <use x="864.501953" xlink:href="#DejaVuSans-20"/>
      <use x="896.289062" xlink:href="#DejaVuSans-22"/>
      <use x="942.285156" xlink:href="#DejaVuSans-73"/>
      <use x="994.384766" xlink:href="#DejaVuSans-74"/>
      <use x="1033.59375" xlink:href="#DejaVuSans-61"/>
      <use x="1094.873047" xlink:href="#DejaVuSans-63"/>
      <use x="1149.853516" xlink:href="#DejaVuSans-6b"/>
      <use x="1207.763672" xlink:href="#DejaVuSans-2d"/>
      <use x="1243.847656" xlink:href="#DejaVuSans-73"/>
      <use x="1295.947266" xlink:href="#DejaVuSans-74"/>
      <use x="1335.15625" xlink:href="#DejaVuSans-78"/>
      <use x="1394.335938" xlink:href="#DejaVuSans-22"/>
     </g>
    </g>
   </g>
   <g id="line2d_17">
    <path clip-path="url(#p9e775d023e)" d="M 73.832727 307.36874 
L 74.029726 307.443681 
L 73.832727 307.391209 
L 74.423725 307.315943 
L 74.620724 307.070363 
L 75.40872 307.516906 
L 75.211721 307.54569 
L 75.802718 306.923072 
L 75.999718 307.220697 
L 76.196717 306.896657 
L 76.393716 307.078343 
L 76.590715 306.900527 
L 76.787714 307.184151 
L 76.984713 305.696925 
L 77.181712 306.633583 
L 77.575711 307.210367 
L 77.969709 307.017575 
L 78.560706 307.355203 
L 78.954704 307.497969 
L 79.151703 307.336972 
L 79.348703 307.45508 
L 79.742701 307.249715 
L 80.136699 307.493784 
L 80.530697 307.5536 
L 80.727696 307.049737 
L 80.924695 307.110879 
L 81.121695 307.3146 
L 81.515693 307.250745 
L 81.712692 297.255467 
L 82.10669 304.735825 
L 82.303689 301.654863 
L 82.697688 305.902507 
L 82.894687 305.429113 
L 83.288685 306.95496 
L 83.485684 307.064305 
L 83.682683 306.864618 
L 83.879682 306.8447 
L 84.076681 307.209587 
L 84.27368 306.138502 
L 84.864678 307.27996 
L 85.061677 307.42722 
L 85.455675 307.036591 
L 85.652674 305.957898 
L 85.849673 306.73811 
L 86.046673 306.504941 
L 86.243672 307.037591 
L 86.440671 307.105282 
L 86.834669 307.456854 
L 87.031668 307.515609 
L 87.228667 307.33905 
L 87.425666 304.410524 
L 87.622665 306.507303 
L 87.819665 306.840476 
L 88.410662 306.795278 
L 88.607661 306.797249 
L 88.80466 307.157785 
L 89.001659 306.961511 
L 89.198658 307.239916 
L 89.789656 306.840231 
L 90.183654 307.3546 
L 90.380653 306.619445 
L 90.774651 306.848165 
L 91.16865 307.390717 
L 91.365649 307.461322 
L 91.562648 304.094558 
L 91.956646 307.112706 
L 92.350644 306.625022 
L 92.744643 307.3088 
L 92.941642 306.92499 
L 93.33564 307.198036 
L 93.532639 306.827884 
L 93.729638 306.759098 
L 93.926637 307.131274 
L 94.123636 307.219255 
L 94.320635 306.969776 
L 94.517635 306.52074 
L 94.714634 306.748772 
L 94.911633 307.158351 
L 95.699629 307.512414 
L 96.093628 306.942956 
L 96.290627 306.883869 
L 96.684625 307.355452 
L 96.881624 307.436887 
L 97.078623 307.043932 
L 97.275622 307.021058 
L 97.472621 307.270233 
L 97.66962 307.047508 
L 97.86662 307.110622 
L 98.260618 307.436258 
L 98.654616 307.506467 
L 99.048614 306.735339 
L 99.245613 306.92271 
L 99.442613 306.822711 
L 99.836611 306.899797 
L 100.230609 307.370364 
L 100.427608 307.50715 
L 101.215605 307.395654 
L 101.412604 306.918305 
L 101.806602 307.441288 
L 102.2006 307.456768 
L 102.397599 306.948862 
L 102.2006 307.201269 
L 102.594598 306.899892 
L 102.791598 307.209107 
L 102.988597 307.240593 
L 103.185596 306.756668 
L 103.382595 307.137495 
L 103.579594 289.397054 
L 103.973592 302.987535 
L 104.36759 306.290657 
L 104.761589 307.115096 
L 104.958588 307.136524 
L 105.352586 307.391135 
L 105.549585 306.916046 
L 105.746584 307.192378 
L 105.943583 307.00858 
L 106.140583 306.996725 
L 106.337582 307.257523 
L 106.534581 307.107863 
L 106.928579 307.425099 
L 107.125578 307.477485 
L 107.322577 307.261085 
L 107.519576 306.876186 
L 107.716575 306.949021 
L 108.307573 307.450621 
L 109.095569 307.551719 
L 109.489568 307.554998 
L 109.686567 306.913385 
L 109.883566 307.221016 
L 110.080565 306.986358 
L 109.883566 307.25234 
L 110.277564 307.386216 
L 110.474563 307.105499 
L 110.868561 307.43398 
L 111.459559 307.507092 
L 113.232551 307.499242 
L 113.42955 307.180501 
L 113.626549 307.089343 
L 114.020547 307.403052 
L 114.414545 307.325262 
L 114.611545 306.60514 
L 114.808544 306.714961 
L 114.611545 305.81952 
L 115.202542 307.016045 
L 115.59654 307.409875 
L 115.793539 307.128171 
L 115.990538 307.378622 
L 116.581536 307.498545 
L 116.595945 -1 
M 117.54443 -1 
L 117.76353 168.529283 
L 118.157529 272.601696 
L 118.551527 298.662389 
L 118.945525 305.259638 
L 119.142524 306.407788 
L 119.339523 306.55535 
L 119.733522 307.264708 
L 120.324519 307.426881 
L 120.521518 307.083653 
L 120.718517 307.266448 
L 120.521518 307.398159 
L 121.309515 307.458754 
L 123.476505 307.525495 
L 123.673504 307.05411 
L 123.870503 307.305874 
L 124.067502 307.341811 
L 124.264501 307.204108 
L 124.4615 307.364763 
L 124.6585 306.045213 
L 124.855499 306.781767 
L 125.446496 307.326884 
L 125.643495 307.075833 
L 125.840494 306.590955 
L 126.037493 307.054638 
L 126.234492 307.031098 
L 126.431492 307.27471 
L 126.628491 306.753156 
L 126.82549 307.135739 
L 127.022489 306.980261 
L 127.219488 306.605931 
L 127.416487 306.99184 
L 127.613486 306.611721 
L 128.007485 306.821097 
L 127.613486 306.631026 
L 128.401483 306.776343 
L 128.598482 306.099918 
L 128.795481 304.34404 
L 128.99248 305.948375 
L 129.189479 305.079037 
L 129.583477 306.859869 
L 129.780477 306.688701 
L 129.977476 306.040952 
L 130.174475 306.785411 
L 130.371474 306.805097 
L 130.384254 -1 
M 131.545934 -1 
L 131.750468 158.640052 
L 132.144466 269.696283 
L 132.341465 288.528852 
L 132.735463 300.666892 
L 133.129462 305.632079 
L 133.52346 307.286566 
L 133.720459 304.627111 
L 133.917458 306.078491 
L 134.114457 299.968721 
L 134.902454 305.967775 
L 135.099453 306.44438 
L 135.296452 306.337991 
L 135.493451 306.91778 
L 135.69045 303.105425 
L 136.084448 306.247487 
L 136.281447 306.155005 
L 136.675446 307.183267 
L 136.872445 306.715378 
L 137.266443 307.050516 
L 137.463442 306.641059 
L 137.660441 307.109684 
L 137.85744 307.262821 
L 138.05444 307.156675 
L 138.251439 307.417162 
L 139.039435 306.840661 
L 139.236434 305.72443 
L 139.433433 305.817335 
L 139.827432 306.995377 
L 140.418429 307.499832 
L 140.812427 306.850662 
L 141.206425 306.836044 
L 141.403425 306.186266 
L 141.600424 306.852294 
L 141.797423 306.381267 
L 142.191421 307.152162 
L 142.38842 306.893217 
L 142.585419 306.401728 
L 142.782418 306.990019 
L 142.979417 305.613249 
L 143.176417 306.565785 
L 143.373416 306.357268 
L 143.570415 306.597308 
L 143.767414 306.521241 
L 143.964413 307.019932 
L 144.161412 304.844951 
L 144.55541 306.798797 
L 144.75241 306.619876 
L 145.146408 306.864943 
L 145.540406 307.333181 
L 145.934404 307.261869 
L 146.131403 306.586055 
L 146.328402 306.513505 
L 146.525402 307.013854 
L 146.722401 306.680137 
L 146.9194 305.819841 
L 146.722401 305.645796 
L 147.116399 306.582059 
L 147.510397 306.850802 
L 147.707396 305.789037 
L 146.9194 306.602497 
L 148.495393 306.940077 
L 148.692392 307.229199 
L 148.889391 307.026991 
L 149.283389 306.944522 
L 149.480388 307.21523 
L 149.677387 306.560915 
L 150.268385 307.257409 
L 150.465384 307.374811 
L 150.662383 307.099797 
L 150.859382 307.295992 
L 151.056381 307.287263 
L 151.25338 307.056023 
L 151.45038 306.311192 
L 151.647379 306.799508 
L 151.844378 306.802727 
L 152.238376 307.272468 
L 152.632374 306.940219 
L 152.829373 307.040112 
L 153.026372 306.959774 
L 153.223372 306.700365 
L 153.61737 306.942895 
L 153.814369 306.883839 
L 154.011368 306.949696 
L 154.208367 307.234009 
L 154.405366 306.815773 
L 154.602365 304.977752 
L 154.799365 305.768902 
L 154.996364 305.862203 
L 155.390362 306.26794 
L 155.587361 301.69912 
L 155.981359 305.359445 
L 156.178358 306.155912 
L 156.375357 306.033076 
L 156.572357 306.428929 
L 156.769356 306.217749 
L 156.966355 295.756345 
L 157.360353 303.913562 
L 157.754351 306.158868 
L 157.95135 306.369922 
L 158.14835 306.264406 
L 158.542348 306.684688 
L 158.14835 299.906329 
L 159.330344 306.124056 
L 159.921342 306.577012 
L 160.118341 304.716921 
L 160.512339 306.303561 
L 160.906337 307.004524 
L 161.300335 306.844118 
L 161.694334 306.861515 
L 161.891333 306.841833 
L 162.285331 306.506839 
L 162.48233 306.789403 
L 162.285331 306.579813 
L 162.679329 305.408146 
L 163.073327 306.51548 
L 163.467326 307.256713 
L 163.664325 305.746597 
L 163.861324 306.093776 
L 164.058323 154.995381 
L 164.452321 268.97238 
L 164.64932 288.190936 
L 165.043319 297.507859 
L 164.64932 302.458675 
L 165.240318 304.319762 
L 165.437317 305.721949 
L 165.634316 305.90552 
L 166.225313 307.099995 
L 166.422312 304.647443 
L 166.816311 306.2301 
L 167.210309 306.762813 
L 167.407308 306.288916 
L 167.801306 307.176795 
L 167.998305 307.325762 
L 168.589303 306.827631 
L 168.786302 307.078185 
L 168.983301 306.888133 
L 169.1803 307.188103 
L 169.377299 307.23283 
L 169.574298 307.030232 
L 169.771297 307.274277 
L 169.968297 307.23119 
L 170.165296 306.655896 
L 170.559294 307.241395 
L 170.756293 306.897405 
L 170.953292 307.207863 
L 171.150291 307.235344 
L 171.34729 307.382607 
L 171.544289 307.30781 
L 171.741289 306.353191 
L 172.135287 306.706885 
L 172.332286 306.765834 
L 172.529285 305.848541 
L 172.726284 306.683431 
L 173.120282 306.082919 
L 173.317282 306.540551 
L 173.514281 306.490754 
L 173.908279 307.208802 
L 174.105278 307.363531 
L 174.302277 306.667639 
L 174.499276 307.015649 
L 174.893274 307.189542 
L 175.090274 304.674042 
L 175.287273 306.096182 
L 175.484272 306.630009 
L 175.681271 306.36012 
L 175.87827 306.402647 
L 176.075269 305.538349 
L 175.87827 306.268266 
L 176.272268 306.893294 
L 176.469267 306.916836 
L 176.666267 307.217579 
L 176.863266 306.831376 
L 177.060265 306.988183 
L 177.257264 305.647021 
L 177.454263 306.255234 
L 177.848261 305.985908 
L 178.242259 306.853417 
L 178.636258 307.336234 
L 179.030256 307.408247 
L 179.227255 307.469059 
L 179.621253 307.166205 
L 179.818252 307.127118 
L 180.015252 307.328494 
L 180.212251 307.168026 
L 180.40925 307.311262 
L 180.606249 307.239667 
L 180.803248 307.032224 
L 181.000247 307.162578 
L 181.197246 306.858608 
L 181.394245 307.188465 
L 181.591244 307.023539 
L 181.985243 307.343526 
L 182.182242 307.369095 
L 182.213989 -1 
M 182.913483 -1 
L 183.167237 187.660508 
L 183.561236 276.937757 
L 183.955234 299.035563 
L 184.349232 303.871746 
L 184.940229 306.582491 
L 185.137229 307.056181 
L 185.334228 307.189641 
L 185.728226 307.08955 
L 186.122224 307.223725 
L 186.319223 306.445254 
L 186.516222 306.15666 
L 186.713222 306.837491 
L 187.10722 306.530443 
L 187.501218 306.744895 
L 187.698217 306.784839 
L 187.895216 304.351579 
L 188.092215 305.839326 
L 188.683213 307.175532 
L 188.880212 306.98021 
L 189.077211 306.489145 
L 189.27421 306.54896 
L 189.668208 307.037126 
L 189.865207 306.930954 
L 190.062207 306.034373 
L 189.865207 306.429578 
L 190.259206 306.62718 
L 190.456205 306.534068 
L 191.4412 307.236937 
L 191.638199 306.13798 
L 192.032198 307.179011 
L 192.229197 306.669026 
L 192.426196 307.093674 
L 192.820194 307.264052 
L 193.411192 307.31594 
L 193.214192 307.417131 
L 193.608191 307.120957 
L 193.80519 307.248044 
L 194.002189 307.049864 
L 194.199188 307.028711 
L 194.396187 307.273516 
L 194.987184 307.307201 
L 195.184184 306.876138 
L 195.775181 307.421019 
L 195.97218 307.177056 
L 196.366178 307.396584 
L 196.563177 307.252812 
L 196.760177 307.385567 
L 196.957176 306.913261 
L 197.154175 306.853205 
L 197.351174 307.185763 
L 197.548173 303.53751 
L 197.745172 305.181146 
L 197.942171 304.978487 
L 198.336169 306.363209 
L 198.730168 307.229543 
L 199.124166 306.619129 
L 199.321165 306.721956 
L 199.518164 305.718327 
L 199.715163 306.271555 
L 200.306161 307.120578 
L 200.50316 307.21979 
L 200.897158 306.970378 
L 201.094157 307.24435 
L 201.291156 306.959606 
L 201.094157 306.434923 
L 201.488155 306.504019 
L 201.882154 306.744592 
L 202.079153 306.658827 
L 202.276152 306.996747 
L 202.473151 306.818206 
L 202.67015 305.082356 
L 202.867149 305.791035 
L 203.064148 305.061923 
L 203.261147 306.095738 
L 203.458147 303.732397 
L 203.852145 306.09738 
L 204.049144 306.834925 
L 204.443142 307.031539 
L 204.640141 307.280705 
L 205.034139 306.983231 
L 205.231139 307.108083 
L 205.625137 306.911905 
L 205.822136 307.026801 
L 206.216134 306.894516 
L 206.019135 306.859649 
L 206.807132 306.952685 
L 207.398129 306.897264 
L 207.595128 307.137848 
L 207.792127 305.73533 
L 207.989126 306.626826 
L 208.186125 306.533891 
L 208.383124 306.679337 
L 208.580124 306.59705 
L 208.777123 304.998325 
L 208.974122 306.258323 
L 209.171121 304.671628 
L 209.565119 306.783843 
L 209.762118 306.847879 
L 209.959117 306.471444 
L 210.156117 306.364901 
L 210.550115 306.997189 
L 210.944113 306.818847 
L 211.141112 307.168584 
L 211.338111 304.499958 
L 211.53511 305.856551 
L 211.732109 305.545498 
L 212.126108 306.84533 
L 212.323107 307.181826 
L 212.520106 306.811391 
L 212.717105 307.164856 
L 213.111103 306.822301 
L 213.505102 307.066623 
L 213.702101 307.115767 
L 213.8991 266.399639 
L 214.096099 295.083595 
L 214.490097 303.885971 
L 214.687096 305.355377 
L 214.884095 305.356792 
L 215.081094 304.919707 
L 215.475093 306.734008 
L 215.869091 307.20225 
L 216.06609 307.183562 
L 216.263089 307.025432 
L 216.460088 307.298927 
L 216.657087 307.148555 
L 217.051086 307.386557 
L 217.248085 307.256969 
L 217.445084 297.834405 
L 217.839082 304.728341 
L 218.23308 306.516771 
L 218.430079 305.962361 
L 218.627079 306.609595 
L 218.824078 306.204912 
L 219.021077 306.730871 
L 219.218076 306.833191 
L 219.612074 305.755324 
L 220.203071 307.168669 
L 220.400071 306.276019 
L 220.59707 306.638027 
L 220.794069 306.731405 
L 220.991068 304.465442 
L 221.385066 306.450971 
L 221.779064 306.903571 
L 221.582065 306.864177 
L 221.976064 306.652566 
L 222.173063 305.824337 
L 222.370062 306.203732 
L 222.567061 306.009244 
L 222.76406 306.763934 
L 223.355057 307.364541 
L 223.552056 307.094662 
L 223.749056 306.438589 
L 223.946055 306.484467 
L 224.143054 306.105186 
L 224.537052 306.2329 
L 224.734051 306.528841 
L 224.93105 305.261848 
L 224.902426 -1 
M 225.489236 -1 
L 225.719047 174.874687 
L 225.916046 240.279371 
L 225.719047 273.552077 
L 226.507043 302.224991 
L 226.901041 305.720277 
L 227.098041 306.363415 
L 227.29504 306.594099 
L 227.492039 297.257172 
L 227.886037 302.159741 
L 228.083036 298.595271 
L 228.280035 302.908859 
L 228.477034 292.114778 
L 228.871033 303.051325 
L 229.068032 304.74614 
L 229.265031 299.88847 
L 229.46203 303.356626 
L 230.053027 305.090704 
L 230.250026 302.163993 
L 230.644025 305.685917 
L 230.841024 305.798078 
L 231.038023 303.176143 
L 231.432021 306.368703 
L 231.62902 306.596743 
L 231.826019 305.827534 
L 232.023019 306.481555 
L 232.220018 296.626836 
L 232.614016 299.949195 
L 233.008014 305.17646 
L 233.402012 306.274692 
L 233.599011 306.297675 
L 233.796011 306.103958 
L 233.99301 306.46437 
L 234.190009 305.413489 
L 234.387008 306.119136 
L 234.584007 305.847312 
L 234.781006 306.336047 
L 234.978005 302.084636 
L 235.175004 301.625995 
L 235.372004 305.532253 
L 235.569003 306.178518 
L 235.766002 305.270563 
L 236.16 306.436228 
L 236.553998 304.334735 
L 236.750997 305.579759 
L 237.144996 306.41757 
L 237.341995 306.429263 
L 237.538994 261.160162 
L 237.341995 283.992472 
L 237.932992 300.836962 
L 238.32699 303.157026 
L 238.523989 303.374673 
L 238.917988 305.946932 
L 239.114987 302.667789 
L 239.508985 303.408165 
L 239.705984 304.422285 
L 239.902983 304.377548 
L 240.099982 305.585842 
L 240.296981 302.411562 
L 240.493981 304.602997 
L 239.902983 305.521976 
L 240.69098 306.173379 
L 240.887979 304.629156 
L 241.478976 303.940589 
L 241.675975 304.126614 
L 241.872974 305.822468 
L 242.266973 306.55888 
L 242.660971 306.342832 
L 243.251968 305.082472 
L 243.448967 306.300547 
L 243.645966 305.221406 
L 244.039965 306.366115 
L 244.236964 301.244582 
L 244.433963 300.119103 
L 244.827961 304.903634 
L 245.02496 306.103828 
L 245.221959 305.233219 
L 245.418959 305.289809 
L 245.615958 306.057296 
L 245.812957 305.133498 
L 246.009956 306.32591 
L 246.206955 306.568811 
L 246.403954 303.357419 
L 246.600953 302.423434 
L 247.191951 306.080341 
L 247.38895 306.260648 
L 247.585949 306.202474 
L 247.782948 303.277915 
L 247.979947 303.045282 
L 248.176946 304.17836 
L 248.373945 303.695752 
L 248.570944 301.542199 
L 248.964943 305.367027 
L 249.161942 302.684737 
L 249.55594 305.425335 
L 249.752939 305.138775 
L 249.949938 305.789866 
L 250.146937 284.48759 
L 250.343936 294.927337 
L 250.737935 290.417089 
L 250.934934 299.339205 
L 251.131933 303.081994 
L 251.525931 303.830876 
L 251.919929 305.840077 
L 252.116929 304.614289 
L 252.313928 302.001468 
L 252.510927 304.788031 
L 252.707926 305.806407 
L 252.904925 304.396216 
L 253.298923 306.468454 
L 252.904925 306.631443 
L 253.495922 305.482127 
L 253.889921 306.992228 
L 254.08692 307.046263 
L 254.283919 303.217455 
L 254.480918 304.829205 
L 254.677917 304.024405 
L 255.071915 306.163358 
L 255.268914 302.689279 
L 255.859912 306.141924 
L 256.056911 303.372363 
L 256.450909 306.212491 
L 256.647908 306.518637 
L 256.844907 306.460376 
L 257.041906 305.837392 
L 257.435905 306.924704 
L 257.632904 304.472113 
L 257.829903 303.748945 
L 258.223901 306.429077 
L 258.4209 306.435017 
L 258.814898 306.727341 
L 259.011898 303.057994 
L 259.208897 305.288158 
L 259.405896 305.864557 
L 259.602895 304.445167 
L 259.799894 305.443061 
L 259.996893 304.826381 
L 260.193892 305.633668 
L 260.390891 305.280788 
L 260.981889 307.152013 
L 261.178888 305.528817 
L 260.981889 304.717219 
L 261.375887 304.302825 
L 261.769885 306.541063 
L 262.163883 305.451836 
L 261.769885 306.485079 
L 262.026538 -1 
M 262.60969 -1 
L 262.95188 262.794158 
L 263.345878 295.941814 
L 263.739876 303.407255 
L 263.936876 304.839513 
L 263.542877 305.640235 
L 263.936876 305.956003 
L 264.133875 306.737163 
L 264.330874 306.591168 
L 264.527873 306.858882 
L 264.724872 306.51152 
L 265.11887 304.941921 
L 265.315869 306.230121 
L 265.512868 305.314207 
L 265.709868 306.069495 
L 265.906867 305.450156 
L 266.300865 306.362064 
L 266.497864 303.04821 
L 266.891862 306.562374 
L 267.285861 307.285109 
L 267.48286 307.16165 
L 267.679859 307.223382 
L 267.876858 306.646539 
L 268.073857 306.904068 
L 268.861853 306.804634 
L 269.058853 307.161478 
L 269.255852 306.803326 
L 269.64985 306.685041 
L 269.846849 305.386349 
L 270.043848 304.926899 
L 270.240847 305.875841 
L 270.437846 305.969395 
L 270.634846 305.454593 
L 270.831845 306.512417 
L 271.028844 306.448226 
L 271.225843 307.011411 
L 271.619841 306.855607 
L 272.013839 307.358418 
L 272.210838 307.522405 
L 272.407838 305.942507 
L 272.604837 306.319507 
L 272.801836 306.946321 
L 273.195834 306.562001 
L 273.392833 305.566616 
L 273.786831 306.195699 
L 273.983831 306.857011 
L 274.18083 306.652977 
L 274.574828 307.342416 
L 274.771827 307.083599 
L 275.165825 304.707044 
L 275.559823 306.295348 
L 275.756823 305.682358 
L 275.953822 306.628402 
L 276.150821 306.450087 
L 275.953822 307.010164 
L 276.544819 307.417242 
L 276.741818 306.929099 
L 277.135816 307.371016 
L 277.529815 306.735797 
L 277.726814 305.472749 
L 277.923813 307.020997 
L 278.120812 307.407617 
L 278.317811 307.491049 
L 278.51481 306.26708 
L 278.711809 306.920152 
L 278.908808 306.872467 
L 279.302807 307.398327 
L 279.499806 307.485801 
L 279.696805 307.155292 
L 280.090803 307.441102 
L 280.484801 307.540495 
L 280.8788 306.857491 
L 281.075799 307.195752 
L 281.272798 306.818354 
L 281.469797 306.912955 
L 281.666796 306.820322 
L 281.469797 307.169322 
L 281.863795 306.805139 
L 282.060794 305.909676 
L 282.454793 307.131157 
L 282.651792 305.731984 
L 283.04579 307.326467 
L 283.242789 306.88582 
L 283.636787 304.270624 
L 283.242789 305.894473 
L 284.030786 306.706397 
L 284.621783 306.596905 
L 284.818782 306.910767 
L 285.21278 306.185541 
L 285.409779 306.596549 
L 285.606778 306.518752 
L 285.803778 306.671767 
L 286.000777 301.958926 
L 286.197776 304.738624 
L 286.985772 306.688081 
L 287.182771 306.564518 
L 286.591774 305.387109 
L 287.379771 304.95835 
L 287.57677 305.699653 
L 287.773769 304.200927 
L 287.970768 305.859624 
L 288.167767 305.971909 
L 288.364766 305.199408 
L 288.167767 305.820182 
L 288.758764 307.097559 
L 288.955763 306.961171 
L 289.152763 306.375928 
L 289.546761 307.187997 
L 289.74376 307.353159 
L 289.940759 306.897058 
L 290.334757 307.392999 
L 290.531756 307.472823 
L 290.925755 305.56302 
L 291.122754 305.103675 
L 291.516752 306.645319 
L 291.713751 306.208041 
L 291.91075 303.484504 
L 292.107749 302.682368 
L 292.501748 305.789179 
L 292.698747 305.165171 
L 293.092745 306.660693 
L 293.486743 300.845746 
L 293.683742 303.835264 
L 294.077741 304.924339 
L 294.27474 306.249467 
L 294.865737 306.854846 
L 295.062736 306.744363 
L 295.259735 306.784573 
L 295.456734 305.510526 
L 295.653733 306.348038 
L 295.850733 304.426554 
L 296.244731 306.316613 
L 296.44173 306.750866 
L 296.638729 305.480283 
L 296.835728 306.499302 
L 297.032727 306.75343 
L 297.229726 306.789106 
L 297.426726 305.802736 
L 297.820724 306.687859 
L 298.214722 306.773453 
L 298.60872 306.719306 
L 298.805719 306.772044 
L 299.199718 306.063887 
L 299.396717 306.817064 
L 299.593716 306.62901 
L 299.790715 307.07944 
L 299.987714 306.152024 
L 300.184713 302.694653 
L 300.381712 305.133938 
L 300.578711 306.158391 
L 300.775711 303.713196 
L 301.169709 307.087783 
L 301.366708 307.329012 
L 301.563707 307.076897 
L 301.760706 307.32563 
L 301.957705 305.829221 
L 302.154704 306.701815 
L 302.351703 306.571385 
L 302.548703 306.698084 
L 302.745702 306.044288 
L 303.1397 306.740975 
L 303.336699 306.593074 
L 303.533698 307.017668 
L 304.124695 305.960593 
L 304.321695 306.739457 
L 303.730697 305.141673 
L 304.518694 305.983228 
L 304.912692 304.787774 
L 305.30669 306.540401 
L 305.503689 306.125832 
L 305.897688 307.070552 
L 306.094687 307.0252 
L 306.291686 307.277535 
L 306.488685 307.051159 
L 306.882683 306.147469 
L 307.079682 306.486126 
L 307.276681 302.937386 
L 307.47368 305.253813 
L 307.67068 305.496328 
L 307.867679 305.427262 
L 308.261677 306.852166 
L 308.064678 306.646561 
L 308.458676 306.737382 
L 308.655675 303.244033 
L 309.049673 306.463479 
L 309.246673 303.319516 
L 309.443672 305.948466 
L 309.640671 306.760775 
L 309.83767 306.218177 
L 310.034669 305.213939 
L 310.428667 306.774616 
L 310.521098 -1 
M 310.846668 -1 
L 311.216664 219.153506 
L 311.610662 283.862952 
L 312.00466 301.630439 
L 312.398658 306.07363 
L 312.595658 305.890954 
L 312.792657 306.320913 
L 313.186655 306.352007 
L 313.383654 305.949062 
L 313.580653 306.195009 
L 313.974651 306.344279 
L 314.17165 306.127259 
L 314.36865 306.822791 
L 314.762648 306.140586 
L 314.959647 306.025413 
L 315.353645 306.97171 
L 315.747643 306.323573 
L 315.944643 306.730066 
L 315.959017 -1 
M 316.896788 -1 
L 317.126637 174.287605 
L 317.520635 274.019773 
L 317.914634 298.513422 
L 318.308632 304.63686 
L 318.70263 306.244497 
L 318.899629 306.519316 
L 318.70263 306.480136 
L 318.899629 306.38183 
L 319.096628 306.60989 
L 319.293628 307.091385 
L 319.490627 306.692589 
L 319.687626 307.105455 
L 319.884625 307.056506 
L 320.081624 307.293188 
L 320.278623 307.122696 
L 320.475622 306.781826 
L 320.672621 307.150074 
L 320.86962 306.987428 
L 321.460618 306.999562 
L 321.854616 307.428916 
L 322.051615 307.126849 
L 322.248614 306.336614 
L 322.839612 307.07284 
L 323.036611 302.951886 
L 323.23361 306.417747 
L 323.430609 306.968034 
L 323.627608 305.506603 
L 323.824607 306.507165 
L 324.218605 306.202874 
L 324.612604 307.184162 
L 325.006602 307.475841 
L 326.188597 307.502554 
L 326.385596 307.163668 
L 326.582595 307.457698 
L 326.779594 307.39937 
L 326.976593 305.372938 
L 327.370591 306.618372 
L 327.76459 307.426268 
L 327.961589 307.472295 
L 328.355587 307.064842 
L 328.749585 307.446688 
L 328.946584 307.292002 
L 329.340583 307.44133 
L 329.537582 307.258948 
L 329.734581 306.849952 
L 329.93158 307.21413 
L 330.128579 283.11608 
L 330.522577 300.877733 
L 330.916575 305.617223 
L 331.113575 306.421509 
L 331.507573 306.973481 
L 331.704572 306.485057 
L 331.901571 306.410631 
L 332.09857 306.964476 
L 332.689568 306.91083 
L 333.083566 307.372298 
L 333.280565 306.844379 
L 333.477564 307.187125 
L 333.871562 307.236437 
L 334.26556 307.453625 
L 334.46256 307.388727 
L 334.659559 306.914841 
L 335.053557 307.364481 
L 335.447555 307.452582 
L 335.644554 96.641041 
L 336.038553 254.633893 
L 336.235552 280.899727 
L 337.023548 305.685567 
L 337.417546 307.101483 
L 337.614545 306.963133 
L 338.008544 307.423556 
L 338.79654 307.383269 
L 338.993539 306.913651 
L 339.387538 307.231261 
L 340.569532 307.522363 
L 340.766531 307.276418 
L 341.16053 307.466508 
L 341.357529 307.498189 
L 341.554528 307.161486 
L 341.751527 307.340054 
L 341.948526 306.536112 
L 342.342524 307.232197 
L 342.736523 307.455452 
L 343.130521 307.436851 
L 343.32752 307.217517 
L 343.721518 307.396925 
L 343.918517 307.197554 
L 344.312515 307.479116 
L 344.509515 307.419797 
L 344.903513 307.12229 
L 345.49451 307.490228 
L 345.691509 307.448003 
L 345.888508 307.136393 
L 346.085508 307.354637 
L 346.282507 307.304016 
L 346.676505 306.777843 
L 347.6615 307.51534 
L 348.055499 306.978148 
L 348.449497 307.364022 
L 348.843495 307.441624 
L 349.040494 307.540207 
L 349.237493 307.337174 
L 349.631492 307.499227 
L 350.222489 307.515325 
L 350.813486 307.550692 
L 351.010485 307.187737 
L 351.207485 307.235766 
L 351.404484 307.121662 
L 351.601483 307.320142 
L 351.995481 306.368858 
L 352.19248 306.96955 
L 352.389479 307.051717 
L 352.586478 307.28502 
L 352.783477 307.269538 
L 353.177476 307.109468 
L 353.374475 307.31967 
L 353.571474 306.489249 
L 353.768473 307.031918 
L 354.162471 307.044054 
L 354.55647 306.526815 
L 354.753469 307.028343 
L 355.147467 307.023925 
L 355.541465 307.413778 
L 355.738464 307.183124 
L 356.132462 307.4144 
L 356.526461 307.416088 
L 357.117458 307.545127 
L 357.314457 307.538822 
L 357.511456 307.279802 
L 357.708455 307.404707 
L 357.905455 307.238207 
L 358.299453 307.447217 
L 358.496452 307.224051 
L 358.89045 307.444829 
L 359.087449 307.408083 
L 359.284448 307.239895 
L 359.678447 307.463712 
L 360.269444 307.54664 
L 360.663442 307.534188 
L 360.860441 306.987572 
L 361.25444 307.414257 
L 361.451439 307.333686 
L 361.845437 307.48731 
L 362.633433 307.444604 
L 362.830432 307.134693 
L 363.027432 307.326508 
L 363.815428 307.442085 
L 364.012427 306.740328 
L 364.209426 306.803669 
L 364.406425 307.161146 
L 364.800424 307.409756 
L 364.997423 306.53827 
L 365.194422 307.058179 
L 365.58842 307.347935 
L 365.785419 305.442162 
L 366.179417 306.951706 
L 366.376417 306.668402 
L 366.967414 307.373243 
L 367.361412 307.1904 
L 367.75541 307.436341 
L 368.149409 307.413943 
L 368.346408 305.79295 
L 368.543407 306.655636 
L 368.740406 306.740209 
L 368.937405 307.13504 
L 369.134404 306.886752 
L 369.331403 306.981587 
L 369.528402 307.249954 
L 369.725402 306.845455 
L 369.922401 306.988071 
L 370.1194 306.906427 
L 370.316399 307.01722 
L 370.513398 306.412353 
L 370.907396 307.17931 
L 371.104395 307.032009 
L 371.301395 305.437776 
L 371.498394 306.478049 
L 371.695393 306.905492 
L 371.892392 306.673224 
L 372.089391 306.789361 
L 372.28639 307.153841 
L 372.483389 306.04532 
L 372.877387 306.304798 
L 373.074387 306.653511 
L 373.271386 306.455058 
L 373.862383 306.686993 
L 374.059382 306.847275 
L 374.256381 307.182798 
L 374.45338 306.949884 
L 374.65038 307.261382 
L 375.044378 306.952742 
L 375.438376 307.417747 
L 375.635375 307.468185 
L 375.832374 306.249356 
L 376.029373 306.883839 
L 376.226372 306.945698 
L 376.423372 307.189656 
L 376.620371 306.817415 
L 376.81737 307.003553 
L 377.014369 306.956813 
L 377.408367 307.287877 
L 377.605366 307.489516 
L 379.181359 307.550303 
L 379.575357 307.047878 
L 379.772357 305.000122 
L 379.969356 306.916774 
L 380.166355 307.217548 
L 380.363354 307.20033 
L 380.560353 307.483814 
L 380.954351 306.671779 
L 381.15135 306.748281 
L 381.34835 307.133301 
L 381.545349 306.979042 
L 381.939347 307.492768 
L 382.136346 307.158775 
L 382.333345 303.140956 
L 382.727343 306.416213 
L 382.924342 307.24415 
L 383.121342 307.356457 
L 383.318341 307.09062 
L 383.51534 307.304471 
L 383.909338 306.389049 
L 384.106337 307.009005 
L 384.303336 306.916894 
L 384.500335 305.995127 
L 384.697335 306.409955 
L 384.894334 306.237274 
L 385.091333 306.298544 
L 385.288332 306.908433 
L 385.485331 306.6035 
L 385.68233 306.522228 
L 385.879329 306.703059 
L 386.076328 307.110691 
L 386.667326 306.62049 
L 386.864325 306.027112 
L 387.258323 307.145594 
L 387.455322 306.965574 
L 387.652321 306.316179 
L 388.04632 306.843944 
L 388.243319 305.958652 
L 388.637317 307.131292 
L 388.834316 307.330581 
L 389.228314 306.870651 
L 389.425313 306.893586 
L 389.622312 307.205954 
L 389.819312 307.02421 
L 390.410309 307.385838 
L 390.607308 307.10531 
L 390.804307 305.529905 
L 391.001306 306.177344 
L 391.198305 306.439656 
L 391.395305 306.462816 
L 391.592304 306.972325 
L 391.789303 307.078263 
L 392.183301 306.779966 
L 392.3803 307.131134 
L 392.577299 306.977958 
L 393.365296 307.305115 
L 393.49734 -1 
M 393.692154 -1 
L 393.956293 192.35814 
L 394.350291 278.627611 
L 394.744289 303.628662 
L 394.941289 299.215611 
L 395.02246 -1 
M 395.399705 -1 
L 395.532286 123.054188 
L 395.926284 254.009327 
L 396.320282 294.064841 
L 396.714281 303.954336 
L 396.91128 305.669218 
L 397.108279 305.517782 
L 397.305278 306.251042 
L 397.502277 306.537912 
L 397.699276 306.465195 
L 397.896275 306.57416 
L 398.093274 306.953946 
L 398.487273 306.996903 
L 398.487273 306.996903 
" style="fill:none;stroke:#1f77b4;stroke-linecap:square;stroke-width:1.5;"/>
   </g>
   <g id="line2d_18">
    <path clip-path="url(#p9e775d023e)" d="M 73.832727 307.405645 
L 75.40872 307.338457 
L 75.211721 307.573214 
L 75.605719 306.745072 
L 75.802718 307.559778 
L 76.787714 307.503452 
L 77.181712 307.360543 
L 78.166708 307.579782 
L 79.348703 307.579782 
L 79.545702 307.182924 
L 79.742701 307.33506 
L 79.9397 307.33506 
L 80.136699 307.51764 
L 81.712692 307.430649 
L 82.10669 307.340533 
L 82.697688 307.366842 
L 82.894687 307.500717 
L 83.091686 307.366842 
L 83.288685 307.497985 
L 83.485684 307.083855 
L 84.076681 307.151496 
L 84.27368 307.510155 
L 84.864678 307.556609 
L 85.849673 307.455092 
L 86.046673 306.784063 
L 86.440671 306.784063 
L 86.63767 307.31101 
L 87.031668 307.579457 
L 87.228667 307.512361 
L 87.622665 307.579782 
L 87.819665 307.184004 
L 88.410662 307.17365 
L 88.607661 306.824685 
L 88.80466 307.563632 
L 89.001659 306.781148 
L 89.198658 306.781148 
L 89.395658 307.087804 
L 89.592657 307.087804 
L 89.789656 306.665626 
L 90.183654 306.742222 
L 90.577652 306.742222 
L 90.97165 307.562038 
L 91.365649 307.513068 
L 91.562648 307.241039 
L 91.759647 307.513068 
L 92.153645 307.439865 
L 93.33564 307.467387 
L 93.729638 307.579782 
L 94.911633 307.579782 
L 95.108632 307.350813 
L 95.305631 307.350813 
L 95.50263 306.82804 
L 95.699629 306.917593 
L 96.290627 306.703156 
L 96.487626 306.917593 
L 96.684625 307.333327 
L 97.275622 307.483953 
L 97.472621 307.483953 
L 97.66962 306.998184 
L 97.86662 306.998184 
L 98.457617 307.488303 
L 99.836611 307.566352 
L 100.03361 307.322611 
L 100.230609 307.322611 
L 100.427608 307.559664 
L 100.230609 307.559664 
L 102.397599 307.484316 
L 102.2006 307.446399 
L 102.594598 307.446399 
L 103.382595 307.454499 
L 103.776593 307.547202 
L 103.973592 307.367149 
L 104.170591 307.48184 
L 104.56459 307.328019 
L 104.761589 307.328019 
L 105.155587 307.579782 
L 105.746584 307.482906 
L 105.943583 307.023735 
L 106.73158 306.957894 
L 106.928579 307.574536 
L 113.42955 307.526334 
L 113.823548 307.462134 
L 114.808544 307.439269 
L 114.611545 306.432839 
L 115.202542 306.432839 
L 115.399541 307.247704 
L 115.793539 307.579782 
L 116.778535 307.579782 
L 116.975534 307.425974 
L 117.172533 307.579782 
L 117.369532 307.579782 
L 117.566531 306.991755 
L 117.76353 306.991755 
L 117.96053 307.579782 
L 118.354528 307.579782 
L 145.934404 307.571298 
L 146.328402 307.283585 
L 146.525402 307.283585 
L 146.722401 305.91024 
L 146.9194 305.880018 
L 146.722401 307.514202 
L 147.707396 307.579782 
L 146.9194 307.528887 
L 148.692392 307.579782 
L 149.283389 307.116697 
L 149.480388 307.116697 
L 149.677387 307.578927 
L 150.071386 307.507376 
L 153.026372 307.510219 
L 153.223372 306.998184 
L 153.420371 306.998184 
L 153.61737 307.526479 
L 154.011368 307.526479 
L 154.208367 307.293215 
L 154.405366 307.287517 
L 154.602365 307.082619 
L 154.996364 306.462039 
L 155.193363 306.452119 
L 155.78436 307.044155 
L 156.178358 307.044155 
L 156.375357 306.324935 
L 156.572357 306.089094 
L 156.769356 306.324935 
L 156.966355 306.061885 
L 157.360353 306.148987 
L 157.557352 306.306443 
L 157.754351 307.579782 
L 157.95135 307.579782 
L 158.14835 306.907625 
L 158.345349 307.364165 
L 158.542348 306.907625 
L 158.14835 306.856029 
L 158.739347 306.158456 
L 158.936346 306.856029 
L 159.133345 306.856029 
L 159.330344 306.154605 
L 159.527343 306.154605 
L 159.921342 307.383993 
L 160.118341 307.23401 
L 160.709338 307.268173 
L 160.906337 307.492067 
L 162.088332 307.461334 
L 162.285331 307.169628 
L 162.48233 307.169628 
L 162.285331 307.169628 
L 162.876328 306.174607 
L 163.270327 306.174607 
L 163.467326 307.28081 
L 164.058323 307.28081 
L 164.255322 306.739313 
L 164.452321 306.739313 
L 164.84632 307.458538 
L 165.043319 307.124336 
L 164.64932 307.414525 
L 165.831315 307.353063 
L 166.028314 307.050551 
L 166.225313 306.956371 
L 166.422312 306.65596 
L 166.619312 306.802355 
L 167.407308 306.740425 
L 167.604307 306.951296 
L 167.801306 307.47299 
L 169.574298 307.515398 
L 169.771297 307.122953 
L 169.968297 307.515398 
L 170.165296 306.954222 
L 170.362295 306.954222 
L 170.559294 307.450275 
L 171.741289 307.396114 
L 172.135287 307.254446 
L 172.332286 305.26339 
L 172.529285 304.759821 
L 172.923283 304.759821 
L 173.120282 307.124937 
L 173.317282 307.522809 
L 173.71128 307.522809 
L 173.908279 307.16286 
L 174.105278 307.522809 
L 174.302277 307.52281 
L 174.499276 307.16286 
L 174.696275 307.52281 
L 175.681271 307.513414 
L 175.87827 307.178033 
L 176.075269 307.178033 
L 175.87827 306.434916 
L 176.666267 306.434916 
L 176.863266 306.838216 
L 177.257264 306.940377 
L 177.454263 307.543866 
L 178.04526 307.579782 
L 178.242259 307.268054 
L 178.636258 307.268054 
L 178.833257 307.579782 
L 179.227255 307.579782 
L 179.424254 307.339869 
L 179.621253 307.339869 
L 179.818252 307.579782 
L 182.970238 307.578765 
L 183.364237 307.321333 
L 183.955234 307.321333 
L 184.940229 307.126728 
L 185.137229 307.32067 
L 185.531227 307.32067 
L 185.728226 307.579782 
L 186.319223 307.579782 
L 186.713222 307.195332 
L 186.910221 307.195332 
L 187.10722 307.043786 
L 187.698217 307.579782 
L 187.895216 307.339248 
L 188.092215 307.339248 
L 188.289214 307.579782 
L 188.683213 307.05323 
L 189.077211 307.579782 
L 190.456205 307.521451 
L 190.653204 307.091442 
L 190.850203 307.091442 
L 191.047202 307.579782 
L 194.790185 307.579782 
L 194.987184 307.298663 
L 195.184184 307.298663 
L 195.381183 307.579782 
L 196.366178 307.579782 
L 197.154175 307.141595 
L 197.548173 307.570818 
L 198.336169 307.579782 
L 198.533169 307.082306 
L 199.124166 307.082306 
L 199.321165 307.579782 
L 200.700159 307.579782 
L 201.094157 307.350608 
L 201.488155 307.446934 
L 201.685154 307.350608 
L 201.882154 304.28313 
L 202.276152 304.28313 
L 202.473151 306.718026 
L 202.867149 307.579782 
L 203.458147 307.579782 
L 204.246143 307.127058 
L 204.640141 307.127058 
L 205.034139 307.579782 
L 207.989126 307.579782 
L 208.186125 307.420948 
L 209.171121 307.522466 
L 209.762118 307.579782 
L 211.338111 307.575038 
L 211.53511 307.29272 
L 211.732109 307.29272 
L 211.929109 307.575038 
L 212.717105 307.579782 
L 212.914104 307.454555 
L 213.505102 307.495218 
L 214.293098 307.579782 
L 214.687096 306.948724 
L 215.081094 306.948724 
L 215.278094 307.280701 
L 215.081094 307.579782 
L 216.460088 307.474206 
L 216.657087 307.047095 
L 218.036081 307.028863 
L 218.23308 307.534018 
L 219.021077 307.534018 
L 219.415075 306.717189 
L 219.612074 307.203577 
L 219.809073 306.717189 
L 220.006072 306.717189 
L 220.203071 307.579782 
L 220.991068 307.521645 
L 221.582065 307.256954 
L 222.173063 307.164277 
L 222.567061 306.392024 
L 222.76406 306.67468 
L 223.158058 306.67468 
L 223.355057 307.433502 
L 223.552056 307.579782 
L 225.128049 307.579782 
L 225.325049 306.956598 
L 225.719047 307.085507 
L 225.916046 307.085507 
L 225.719047 307.432405 
L 227.689038 307.33589 
L 227.886037 307.579782 
L 228.280035 307.222447 
L 229.068032 307.210957 
L 229.265031 304.88832 
L 229.856028 304.88832 
L 230.053027 307.335011 
L 230.250026 307.335011 
L 230.644025 307.460297 
L 230.841024 307.335011 
L 231.235022 307.460297 
L 231.62902 307.449136 
L 231.826019 306.192211 
L 232.023019 307.398428 
L 232.811015 307.398428 
L 233.008014 307.579782 
L 233.205013 307.107081 
L 233.599011 307.107081 
L 233.796011 306.731103 
L 234.190009 306.731103 
L 234.387008 306.489898 
L 234.781006 306.979373 
L 234.978005 307.579782 
L 235.569003 307.512415 
L 235.766002 306.148924 
L 235.963001 305.694594 
L 236.356999 305.694594 
L 236.553998 306.148924 
L 236.750997 307.486247 
L 237.735993 307.579782 
L 237.932992 307.165942 
L 238.129991 307.579782 
L 238.32699 307.579782 
L 238.523989 307.165942 
L 238.720989 307.165942 
L 238.917988 306.812826 
L 239.311986 306.812826 
L 239.508985 307.579782 
L 241.872974 307.579782 
L 242.069974 307.465823 
L 242.266973 307.199009 
L 242.463972 307.199009 
L 242.660971 307.579782 
L 247.585949 307.579782 
L 247.782948 307.211116 
L 247.979947 307.579782 
L 250.343936 307.579782 
L 250.540936 305.04084 
L 250.737935 305.329822 
L 250.934934 304.981403 
L 251.131933 305.733121 
L 251.525931 305.733121 
L 251.72293 304.856655 
L 252.510927 304.856655 
L 252.707926 306.410294 
L 252.904925 306.410294 
L 253.101924 304.37404 
L 253.298923 306.410294 
L 252.904925 306.410294 
L 253.495922 306.678876 
L 253.692921 307.256589 
L 253.889921 306.813918 
L 254.480918 307.579782 
L 254.677917 307.100299 
L 254.874916 307.100299 
L 255.071915 307.579782 
L 257.041906 307.579782 
L 257.238906 307.281817 
L 257.435905 307.498961 
L 257.632904 307.498961 
L 257.829903 307.281817 
L 258.026902 307.579782 
L 259.996893 307.579782 
L 260.193892 306.473942 
L 259.996893 306.473942 
L 260.390891 306.473942 
L 260.587891 307.579782 
L 263.739876 307.562127 
L 263.936876 306.712592 
L 263.542877 306.712592 
L 263.936876 306.370492 
L 264.133875 307.579782 
L 264.527873 307.579782 
L 264.724872 307.126596 
L 265.315869 307.126596 
L 265.512868 307.578526 
L 266.103866 307.578526 
L 266.300865 307.256465 
L 266.497864 307.256465 
L 266.694863 306.531558 
L 266.891862 306.396556 
L 267.48286 306.402293 
L 267.679859 307.579782 
L 270.043848 307.579782 
L 270.240847 304.588466 
L 270.437846 304.588466 
L 270.634846 306.4078 
L 271.028844 306.491176 
L 271.225843 307.579782 
L 271.422842 307.579782 
L 271.619841 306.796269 
L 271.81684 306.796269 
L 272.013839 307.579782 
L 281.075799 307.579782 
L 281.272798 306.657527 
L 281.469797 306.657527 
L 281.666796 307.579782 
L 281.469797 307.579782 
L 292.895746 307.551053 
L 293.092745 307.296365 
L 293.683742 307.296365 
L 293.880741 307.579782 
L 294.077741 307.136559 
L 294.27474 307.579782 
L 294.668738 307.579782 
L 294.865737 307.316126 
L 295.062736 307.316126 
L 295.259735 307.139764 
L 295.456734 307.139764 
L 295.653733 307.315687 
L 295.850733 307.315687 
L 296.047732 307.579782 
L 302.154704 307.579782 
L 302.351703 306.622497 
L 302.548703 307.579782 
L 310.034669 307.518322 
L 310.231668 306.988415 
L 310.428667 307.518322 
L 310.822665 307.579782 
L 317.126637 307.579782 
L 317.323636 306.426777 
L 317.520635 307.579782 
L 317.717635 307.059877 
L 317.914634 307.059877 
L 318.111633 306.666148 
L 318.899629 306.75885 
L 318.70263 307.579782 
L 319.490627 307.569094 
L 319.687626 306.881407 
L 320.278623 306.881407 
L 320.475622 306.517721 
L 320.672621 306.926601 
L 321.263619 306.993703 
L 321.657617 307.10673 
L 321.854616 307.10673 
L 322.051615 307.251245 
L 322.248614 307.251245 
L 322.445613 307.574921 
L 325.597599 307.578489 
L 326.188597 307.433266 
L 326.385596 307.048937 
L 326.582595 307.433266 
L 326.779594 307.395618 
L 327.173592 307.527799 
L 327.56759 307.579782 
L 327.76459 307.374922 
L 328.355587 307.46693 
L 328.946584 307.561244 
L 330.325578 307.579782 
L 330.916575 307.261197 
L 331.704572 307.225794 
L 332.09857 306.477172 
L 332.295569 306.892502 
L 332.492568 306.556459 
L 332.689568 306.892502 
L 333.083566 306.950858 
L 333.280565 307.431181 
L 333.477564 307.431181 
L 333.674563 307.579782 
L 333.871562 307.405219 
L 334.068561 307.579782 
L 335.053557 307.347048 
L 335.250556 307.502559 
L 339.387538 307.539497 
L 339.584537 307.344416 
L 339.978535 307.344416 
L 340.175534 307.557751 
L 342.342524 307.488119 
L 342.539523 307.325295 
L 342.736523 307.325295 
L 343.130521 307.579782 
L 343.32752 307.444154 
L 343.524519 307.444154 
L 343.721518 307.579782 
L 344.115516 307.332936 
L 344.903513 307.579782 
L 346.282507 307.572823 
L 346.479506 306.626192 
L 346.676505 306.911515 
L 346.873504 306.626192 
L 347.070503 306.940205 
L 347.464501 307.007529 
L 347.6615 307.460025 
L 348.449497 307.527703 
L 349.040494 307.575084 
L 351.798482 307.478887 
L 351.995481 306.713703 
L 352.389479 306.805375 
L 352.586478 306.805375 
L 352.783477 307.383815 
L 352.980477 307.520577 
L 353.177476 307.383815 
L 353.374475 307.529871 
L 355.147467 307.579782 
L 355.344466 307.122614 
L 355.935463 307.024467 
L 356.132462 307.445497 
L 356.526461 307.579782 
L 361.451439 307.579782 
L 361.648438 307.314079 
L 361.845437 307.53132 
L 362.436434 307.579782 
L 363.027432 307.579782 
L 363.224431 307.380789 
L 363.815428 307.442919 
L 364.012427 307.579161 
L 365.391421 307.579782 
L 365.58842 307.449684 
L 366.376417 307.473387 
L 366.770415 307.452744 
L 367.164413 307.579782 
L 368.543407 307.579782 
L 368.740406 306.636474 
L 368.937405 306.636474 
L 369.134404 307.579782 
L 370.710397 307.579782 
L 370.907396 307.416624 
L 371.104395 307.416624 
L 371.301395 307.579782 
L 373.074387 307.5766 
L 373.271386 306.275902 
L 373.468385 307.5766 
L 374.45338 307.579782 
L 374.65038 306.958217 
L 374.847379 307.579782 
L 385.68233 307.579782 
L 385.879329 306.865592 
L 386.076328 306.865592 
L 386.273327 307.579782 
L 388.637317 307.5125 
L 388.834316 306.344554 
L 389.228314 306.344554 
L 389.425313 306.897258 
L 389.622312 306.897258 
L 389.819312 306.425709 
L 390.016311 306.425709 
L 390.607308 307.579782 
L 391.592304 307.579782 
L 391.789303 307.226391 
L 393.168297 307.235677 
L 393.365296 307.524421 
L 393.956293 307.579782 
L 398.487273 307.579782 
L 398.487273 307.579782 
" style="fill:none;stroke:#ff7f0e;stroke-linecap:square;stroke-width:1.5;"/>
   </g>
   <g id="patch_3">
    <path d="M 57.6 307.584 
L 57.6 41.472 
" style="fill:none;stroke:#000000;stroke-linecap:square;stroke-linejoin:miter;stroke-width:0.8;"/>
   </g>
   <g id="patch_4">
    <path d="M 414.72 307.584 
L 414.72 41.472 
" style="fill:none;stroke:#000000;stroke-linecap:square;stroke-linejoin:miter;stroke-width:0.8;"/>
   </g>
   <g id="patch_5">
    <path d="M 57.6 307.584 
L 414.72 307.584 
" style="fill:none;stroke:#000000;stroke-linecap:square;stroke-linejoin:miter;stroke-width:0.8;"/>
   </g>
   <g id="patch_6">
    <path d="M 57.6 41.472 
L 414.72 41.472 
" style="fill:none;stroke:#000000;stroke-linecap:square;stroke-linejoin:miter;stroke-width:0.8;"/>
   </g>
   <g id="text_19">
    <!-- low, cutoff -->
    <g transform="translate(204.751875 35.472)scale(0.12 -0.12)">
     <defs>
      <path d="M 269 3500 
L 844 3500 
L 1563 769 
L 2278 3500 
L 2956 3500 
L 3675 769 
L 4391 3500 
L 4966 3500 
L 4050 0 
L 3372 0 
L 2619 2869 
L 1863 0 
L 1184 0 
L 269 3500 
z
" id="DejaVuSans-77" transform="scale(0.015625)"/>
      <path d="M 750 794 
L 1409 794 
L 1409 256 
L 897 -744 
L 494 -744 
L 750 256 
L 750 794 
z
" id="DejaVuSans-2c" transform="scale(0.015625)"/>
      <path d="M 544 1381 
L 544 3500 
L 1119 3500 
L 1119 1403 
Q 1119 906 1312 657 
Q 1506 409 1894 409 
Q 2359 409 2629 706 
Q 2900 1003 2900 1516 
L 2900 3500 
L 3475 3500 
L 3475 0 
L 2900 0 
L 2900 538 
Q 2691 219 2414 64 
Q 2138 -91 1772 -91 
Q 1169 -91 856 284 
Q 544 659 544 1381 
z
M 1991 3584 
L 1991 3584 
z
" id="DejaVuSans-75" transform="scale(0.015625)"/>
     </defs>
     <use xlink:href="#DejaVuSans-6c"/>
     <use x="27.783203" xlink:href="#DejaVuSans-6f"/>
     <use x="88.964844" xlink:href="#DejaVuSans-77"/>
     <use x="170.751953" xlink:href="#DejaVuSans-2c"/>
     <use x="202.539062" xlink:href="#DejaVuSans-20"/>
     <use x="234.326172" xlink:href="#DejaVuSans-63"/>
     <use x="289.306641" xlink:href="#DejaVuSans-75"/>
     <use x="352.685547" xlink:href="#DejaVuSans-74"/>
     <use x="391.894531" xlink:href="#DejaVuSans-6f"/>
     <use x="453.076172" xlink:href="#DejaVuSans-66"/>
     <use x="488.28125" xlink:href="#DejaVuSans-66"/>
    </g>
   </g>
   <g id="legend_1">
    <g id="patch_7">
     <path d="M 64.6 78.82825 
L 117.26875 78.82825 
Q 119.26875 78.82825 119.26875 76.82825 
L 119.26875 48.472 
Q 119.26875 46.472 117.26875 46.472 
L 64.6 46.472 
Q 62.6 46.472 62.6 48.472 
L 62.6 76.82825 
Q 62.6 78.82825 64.6 78.82825 
z
" style="fill:#ffffff;opacity:0.8;stroke:#cccccc;stroke-linejoin:miter;"/>
    </g>
    <g id="line2d_19">
     <path d="M 66.6 54.570437 
L 86.6 54.570437 
" style="fill:none;stroke:#1f77b4;stroke-linecap:square;stroke-width:1.5;"/>
    </g>
    <g id="line2d_20"/>
    <g id="text_20">
     <!-- old -->
     <g transform="translate(94.6 58.070437)scale(0.1 -0.1)">
      <use xlink:href="#DejaVuSans-6f"/>
      <use x="61.181641" xlink:href="#DejaVuSans-6c"/>
      <use x="88.964844" xlink:href="#DejaVuSans-64"/>
     </g>
    </g>
    <g id="line2d_21">
     <path d="M 66.6 69.248562 
L 86.6 69.248562 
" style="fill:none;stroke:#ff7f0e;stroke-linecap:square;stroke-width:1.5;"/>
    </g>
    <g id="line2d_22"/>
    <g id="text_21">
     <!-- new -->
     <g transform="translate(94.6 72.748562)scale(0.1 -0.1)">
      <defs>
       <path d="M 3513 2113 
L 3513 0 
L 2938 0 
L 2938 2094 
Q 2938 2591 2744 2837 
Q 2550 3084 2163 3084 
Q 1697 3084 1428 2787 
Q 1159 2491 1159 1978 
L 1159 0 
L 581 0 
L 581 3500 
L 1159 3500 
L 1159 2956 
Q 1366 3272 1645 3428 
Q 1925 3584 2291 3584 
Q 2894 3584 3203 3211 
Q 3513 2838 3513 2113 
z
" id="DejaVuSans-6e" transform="scale(0.015625)"/>
      </defs>
      <use xlink:href="#DejaVuSans-6e"/>
      <use x="63.378906" xlink:href="#DejaVuSans-65"/>
      <use x="124.902344" xlink:href="#DejaVuSans-77"/>
     </g>
    </g>
   </g>
  </g>
 </g>
 <defs>
  <clipPath id="p9e775d023e">
   <rect height="266.112" width="357.12" x="57.6" y="41.472"/>
  </clipPath>
 </defs>
</svg>
