<?xml version="1.0" encoding="utf-8" standalone="no"?>
<!DOCTYPE svg PUBLIC "-//W3C//DTD SVG 1.1//EN"
  "http://www.w3.org/Graphics/SVG/1.1/DTD/svg11.dtd">
<svg height="432pt" version="1.1" viewBox="0 0 864 432" width="864pt" xmlns="http://www.w3.org/2000/svg" xmlns:xlink="http://www.w3.org/1999/xlink">
 <metadata>
  <rdf:RDF xmlns:cc="http://creativecommons.org/ns#" xmlns:dc="http://purl.org/dc/elements/1.1/" xmlns:rdf="http://www.w3.org/1999/02/22-rdf-syntax-ns#">
   <cc:Work>
    <dc:type rdf:resource="http://purl.org/dc/dcmitype/StillImage"/>
    <dc:date>2022-01-06T21:23:41.171110</dc:date>
    <dc:format>image/svg+xml</dc:format>
    <dc:creator>
     <cc:Agent>
      <dc:title>Matplotlib v3.4.3, https://matplotlib.org/</dc:title>
     </cc:Agent>
    </dc:creator>
   </cc:Work>
  </rdf:RDF>
 </metadata>
 <defs>
  <style type="text/css">*{stroke-linecap:butt;stroke-linejoin:round;}</style>
 </defs>
 <g id="figure_1">
  <g id="patch_1">
   <path d="M 0 432 
L 864 432 
L 864 0 
L 0 0 
z
" style="fill:#ffffff;"/>
  </g>
  <g id="axes_1">
   <g id="patch_2">
    <path d="M 108 384.48 
L 777.6 384.48 
L 777.6 51.84 
L 108 51.84 
z
" style="fill:#ffffff;"/>
   </g>
   <g id="matplotlib.axis_1">
    <g id="xtick_1">
     <g id="line2d_1">
      <defs>
       <path d="M 0 0 
L 0 3.5 
" id="me1b31a91d0" style="stroke:#000000;stroke-width:0.8;"/>
      </defs>
      <g>
       <use style="stroke:#000000;stroke-width:0.8;" x="138.436364" xlink:href="#me1b31a91d0" y="384.48"/>
      </g>
     </g>
     <g id="text_1">
      <!-- 39000 -->
      <g transform="translate(122.530114 399.078438)scale(0.1 -0.1)">
       <defs>
        <path d="M 2597 2516 
Q 3050 2419 3304 2112 
Q 3559 1806 3559 1356 
Q 3559 666 3084 287 
Q 2609 -91 1734 -91 
Q 1441 -91 1130 -33 
Q 819 25 488 141 
L 488 750 
Q 750 597 1062 519 
Q 1375 441 1716 441 
Q 2309 441 2620 675 
Q 2931 909 2931 1356 
Q 2931 1769 2642 2001 
Q 2353 2234 1838 2234 
L 1294 2234 
L 1294 2753 
L 1863 2753 
Q 2328 2753 2575 2939 
Q 2822 3125 2822 3475 
Q 2822 3834 2567 4026 
Q 2313 4219 1838 4219 
Q 1578 4219 1281 4162 
Q 984 4106 628 3988 
L 628 4550 
Q 988 4650 1302 4700 
Q 1616 4750 1894 4750 
Q 2613 4750 3031 4423 
Q 3450 4097 3450 3541 
Q 3450 3153 3228 2886 
Q 3006 2619 2597 2516 
z
" id="DejaVuSans-33" transform="scale(0.015625)"/>
        <path d="M 703 97 
L 703 672 
Q 941 559 1184 500 
Q 1428 441 1663 441 
Q 2288 441 2617 861 
Q 2947 1281 2994 2138 
Q 2813 1869 2534 1725 
Q 2256 1581 1919 1581 
Q 1219 1581 811 2004 
Q 403 2428 403 3163 
Q 403 3881 828 4315 
Q 1253 4750 1959 4750 
Q 2769 4750 3195 4129 
Q 3622 3509 3622 2328 
Q 3622 1225 3098 567 
Q 2575 -91 1691 -91 
Q 1453 -91 1209 -44 
Q 966 3 703 97 
z
M 1959 2075 
Q 2384 2075 2632 2365 
Q 2881 2656 2881 3163 
Q 2881 3666 2632 3958 
Q 2384 4250 1959 4250 
Q 1534 4250 1286 3958 
Q 1038 3666 1038 3163 
Q 1038 2656 1286 2365 
Q 1534 2075 1959 2075 
z
" id="DejaVuSans-39" transform="scale(0.015625)"/>
        <path d="M 2034 4250 
Q 1547 4250 1301 3770 
Q 1056 3291 1056 2328 
Q 1056 1369 1301 889 
Q 1547 409 2034 409 
Q 2525 409 2770 889 
Q 3016 1369 3016 2328 
Q 3016 3291 2770 3770 
Q 2525 4250 2034 4250 
z
M 2034 4750 
Q 2819 4750 3233 4129 
Q 3647 3509 3647 2328 
Q 3647 1150 3233 529 
Q 2819 -91 2034 -91 
Q 1250 -91 836 529 
Q 422 1150 422 2328 
Q 422 3509 836 4129 
Q 1250 4750 2034 4750 
z
" id="DejaVuSans-30" transform="scale(0.015625)"/>
       </defs>
       <use xlink:href="#DejaVuSans-33"/>
       <use x="63.623047" xlink:href="#DejaVuSans-39"/>
       <use x="127.246094" xlink:href="#DejaVuSans-30"/>
       <use x="190.869141" xlink:href="#DejaVuSans-30"/>
       <use x="254.492188" xlink:href="#DejaVuSans-30"/>
      </g>
     </g>
    </g>
    <g id="xtick_2">
     <g id="line2d_2">
      <g>
       <use style="stroke:#000000;stroke-width:0.8;" x="230.7797" xlink:href="#me1b31a91d0" y="384.48"/>
      </g>
     </g>
     <g id="text_2">
      <!-- 39250 -->
      <g transform="translate(214.87345 399.078438)scale(0.1 -0.1)">
       <defs>
        <path d="M 1228 531 
L 3431 531 
L 3431 0 
L 469 0 
L 469 531 
Q 828 903 1448 1529 
Q 2069 2156 2228 2338 
Q 2531 2678 2651 2914 
Q 2772 3150 2772 3378 
Q 2772 3750 2511 3984 
Q 2250 4219 1831 4219 
Q 1534 4219 1204 4116 
Q 875 4013 500 3803 
L 500 4441 
Q 881 4594 1212 4672 
Q 1544 4750 1819 4750 
Q 2544 4750 2975 4387 
Q 3406 4025 3406 3419 
Q 3406 3131 3298 2873 
Q 3191 2616 2906 2266 
Q 2828 2175 2409 1742 
Q 1991 1309 1228 531 
z
" id="DejaVuSans-32" transform="scale(0.015625)"/>
        <path d="M 691 4666 
L 3169 4666 
L 3169 4134 
L 1269 4134 
L 1269 2991 
Q 1406 3038 1543 3061 
Q 1681 3084 1819 3084 
Q 2600 3084 3056 2656 
Q 3513 2228 3513 1497 
Q 3513 744 3044 326 
Q 2575 -91 1722 -91 
Q 1428 -91 1123 -41 
Q 819 9 494 109 
L 494 744 
Q 775 591 1075 516 
Q 1375 441 1709 441 
Q 2250 441 2565 725 
Q 2881 1009 2881 1497 
Q 2881 1984 2565 2268 
Q 2250 2553 1709 2553 
Q 1456 2553 1204 2497 
Q 953 2441 691 2322 
L 691 4666 
z
" id="DejaVuSans-35" transform="scale(0.015625)"/>
       </defs>
       <use xlink:href="#DejaVuSans-33"/>
       <use x="63.623047" xlink:href="#DejaVuSans-39"/>
       <use x="127.246094" xlink:href="#DejaVuSans-32"/>
       <use x="190.869141" xlink:href="#DejaVuSans-35"/>
       <use x="254.492188" xlink:href="#DejaVuSans-30"/>
      </g>
     </g>
    </g>
    <g id="xtick_3">
     <g id="line2d_3">
      <g>
       <use style="stroke:#000000;stroke-width:0.8;" x="323.123036" xlink:href="#me1b31a91d0" y="384.48"/>
      </g>
     </g>
     <g id="text_3">
      <!-- 39500 -->
      <g transform="translate(307.216786 399.078438)scale(0.1 -0.1)">
       <use xlink:href="#DejaVuSans-33"/>
       <use x="63.623047" xlink:href="#DejaVuSans-39"/>
       <use x="127.246094" xlink:href="#DejaVuSans-35"/>
       <use x="190.869141" xlink:href="#DejaVuSans-30"/>
       <use x="254.492188" xlink:href="#DejaVuSans-30"/>
      </g>
     </g>
    </g>
    <g id="xtick_4">
     <g id="line2d_4">
      <g>
       <use style="stroke:#000000;stroke-width:0.8;" x="415.466372" xlink:href="#me1b31a91d0" y="384.48"/>
      </g>
     </g>
     <g id="text_4">
      <!-- 39750 -->
      <g transform="translate(399.560122 399.078438)scale(0.1 -0.1)">
       <defs>
        <path d="M 525 4666 
L 3525 4666 
L 3525 4397 
L 1831 0 
L 1172 0 
L 2766 4134 
L 525 4134 
L 525 4666 
z
" id="DejaVuSans-37" transform="scale(0.015625)"/>
       </defs>
       <use xlink:href="#DejaVuSans-33"/>
       <use x="63.623047" xlink:href="#DejaVuSans-39"/>
       <use x="127.246094" xlink:href="#DejaVuSans-37"/>
       <use x="190.869141" xlink:href="#DejaVuSans-35"/>
       <use x="254.492188" xlink:href="#DejaVuSans-30"/>
      </g>
     </g>
    </g>
    <g id="xtick_5">
     <g id="line2d_5">
      <g>
       <use style="stroke:#000000;stroke-width:0.8;" x="507.809709" xlink:href="#me1b31a91d0" y="384.48"/>
      </g>
     </g>
     <g id="text_5">
      <!-- 40000 -->
      <g transform="translate(491.903459 399.078438)scale(0.1 -0.1)">
       <defs>
        <path d="M 2419 4116 
L 825 1625 
L 2419 1625 
L 2419 4116 
z
M 2253 4666 
L 3047 4666 
L 3047 1625 
L 3713 1625 
L 3713 1100 
L 3047 1100 
L 3047 0 
L 2419 0 
L 2419 1100 
L 313 1100 
L 313 1709 
L 2253 4666 
z
" id="DejaVuSans-34" transform="scale(0.015625)"/>
       </defs>
       <use xlink:href="#DejaVuSans-34"/>
       <use x="63.623047" xlink:href="#DejaVuSans-30"/>
       <use x="127.246094" xlink:href="#DejaVuSans-30"/>
       <use x="190.869141" xlink:href="#DejaVuSans-30"/>
       <use x="254.492188" xlink:href="#DejaVuSans-30"/>
      </g>
     </g>
    </g>
    <g id="xtick_6">
     <g id="line2d_6">
      <g>
       <use style="stroke:#000000;stroke-width:0.8;" x="600.153045" xlink:href="#me1b31a91d0" y="384.48"/>
      </g>
     </g>
     <g id="text_6">
      <!-- 40250 -->
      <g transform="translate(584.246795 399.078438)scale(0.1 -0.1)">
       <use xlink:href="#DejaVuSans-34"/>
       <use x="63.623047" xlink:href="#DejaVuSans-30"/>
       <use x="127.246094" xlink:href="#DejaVuSans-32"/>
       <use x="190.869141" xlink:href="#DejaVuSans-35"/>
       <use x="254.492188" xlink:href="#DejaVuSans-30"/>
      </g>
     </g>
    </g>
    <g id="xtick_7">
     <g id="line2d_7">
      <g>
       <use style="stroke:#000000;stroke-width:0.8;" x="692.496381" xlink:href="#me1b31a91d0" y="384.48"/>
      </g>
     </g>
     <g id="text_7">
      <!-- 40500 -->
      <g transform="translate(676.590131 399.078438)scale(0.1 -0.1)">
       <use xlink:href="#DejaVuSans-34"/>
       <use x="63.623047" xlink:href="#DejaVuSans-30"/>
       <use x="127.246094" xlink:href="#DejaVuSans-35"/>
       <use x="190.869141" xlink:href="#DejaVuSans-30"/>
       <use x="254.492188" xlink:href="#DejaVuSans-30"/>
      </g>
     </g>
    </g>
   </g>
   <g id="matplotlib.axis_2">
    <g id="ytick_1">
     <g id="line2d_8">
      <defs>
       <path d="M 0 0 
L -3.5 0 
" id="m68a6dd2db1" style="stroke:#000000;stroke-width:0.8;"/>
      </defs>
      <g>
       <use style="stroke:#000000;stroke-width:0.8;" x="108" xlink:href="#m68a6dd2db1" y="369.360269"/>
      </g>
     </g>
     <g id="text_8">
      <!-- 0 -->
      <g transform="translate(94.6375 373.159488)scale(0.1 -0.1)">
       <use xlink:href="#DejaVuSans-30"/>
      </g>
     </g>
    </g>
    <g id="ytick_2">
     <g id="line2d_9">
      <g>
       <use style="stroke:#000000;stroke-width:0.8;" x="108" xlink:href="#m68a6dd2db1" y="326.964495"/>
      </g>
     </g>
     <g id="text_9">
      <!-- 50 -->
      <g transform="translate(88.275 330.763713)scale(0.1 -0.1)">
       <use xlink:href="#DejaVuSans-35"/>
       <use x="63.623047" xlink:href="#DejaVuSans-30"/>
      </g>
     </g>
    </g>
    <g id="ytick_3">
     <g id="line2d_10">
      <g>
       <use style="stroke:#000000;stroke-width:0.8;" x="108" xlink:href="#m68a6dd2db1" y="284.56872"/>
      </g>
     </g>
     <g id="text_10">
      <!-- 100 -->
      <g transform="translate(81.9125 288.367939)scale(0.1 -0.1)">
       <defs>
        <path d="M 794 531 
L 1825 531 
L 1825 4091 
L 703 3866 
L 703 4441 
L 1819 4666 
L 2450 4666 
L 2450 531 
L 3481 531 
L 3481 0 
L 794 0 
L 794 531 
z
" id="DejaVuSans-31" transform="scale(0.015625)"/>
       </defs>
       <use xlink:href="#DejaVuSans-31"/>
       <use x="63.623047" xlink:href="#DejaVuSans-30"/>
       <use x="127.246094" xlink:href="#DejaVuSans-30"/>
      </g>
     </g>
    </g>
    <g id="ytick_4">
     <g id="line2d_11">
      <g>
       <use style="stroke:#000000;stroke-width:0.8;" x="108" xlink:href="#m68a6dd2db1" y="242.172946"/>
      </g>
     </g>
     <g id="text_11">
      <!-- 150 -->
      <g transform="translate(81.9125 245.972165)scale(0.1 -0.1)">
       <use xlink:href="#DejaVuSans-31"/>
       <use x="63.623047" xlink:href="#DejaVuSans-35"/>
       <use x="127.246094" xlink:href="#DejaVuSans-30"/>
      </g>
     </g>
    </g>
    <g id="ytick_5">
     <g id="line2d_12">
      <g>
       <use style="stroke:#000000;stroke-width:0.8;" x="108" xlink:href="#m68a6dd2db1" y="199.777172"/>
      </g>
     </g>
     <g id="text_12">
      <!-- 200 -->
      <g transform="translate(81.9125 203.576391)scale(0.1 -0.1)">
       <use xlink:href="#DejaVuSans-32"/>
       <use x="63.623047" xlink:href="#DejaVuSans-30"/>
       <use x="127.246094" xlink:href="#DejaVuSans-30"/>
      </g>
     </g>
    </g>
    <g id="ytick_6">
     <g id="line2d_13">
      <g>
       <use style="stroke:#000000;stroke-width:0.8;" x="108" xlink:href="#m68a6dd2db1" y="157.381398"/>
      </g>
     </g>
     <g id="text_13">
      <!-- 250 -->
      <g transform="translate(81.9125 161.180616)scale(0.1 -0.1)">
       <use xlink:href="#DejaVuSans-32"/>
       <use x="63.623047" xlink:href="#DejaVuSans-35"/>
       <use x="127.246094" xlink:href="#DejaVuSans-30"/>
      </g>
     </g>
    </g>
    <g id="ytick_7">
     <g id="line2d_14">
      <g>
       <use style="stroke:#000000;stroke-width:0.8;" x="108" xlink:href="#m68a6dd2db1" y="114.985623"/>
      </g>
     </g>
     <g id="text_14">
      <!-- 300 -->
      <g transform="translate(81.9125 118.784842)scale(0.1 -0.1)">
       <use xlink:href="#DejaVuSans-33"/>
       <use x="63.623047" xlink:href="#DejaVuSans-30"/>
       <use x="127.246094" xlink:href="#DejaVuSans-30"/>
      </g>
     </g>
    </g>
    <g id="ytick_8">
     <g id="line2d_15">
      <g>
       <use style="stroke:#000000;stroke-width:0.8;" x="108" xlink:href="#m68a6dd2db1" y="72.589849"/>
      </g>
     </g>
     <g id="text_15">
      <!-- 350 -->
      <g transform="translate(81.9125 76.389068)scale(0.1 -0.1)">
       <use xlink:href="#DejaVuSans-33"/>
       <use x="63.623047" xlink:href="#DejaVuSans-35"/>
       <use x="127.246094" xlink:href="#DejaVuSans-30"/>
      </g>
     </g>
    </g>
   </g>
   <g id="line2d_16">
    <path clip-path="url(#p580894afd9)" d="M 138.436364 369.348903 
L 322.753663 369.339268 
L 323.49241 369.180295 
L 324.231156 369.180295 
L 324.60053 369.331014 
L 326.447396 369.356369 
L 378.159665 369.345396 
L 378.529038 369.149917 
L 379.267785 369.149917 
L 380.006531 369.341131 
L 381.853398 369.351255 
L 385.177758 369.36 
L 429.50256 369.336496 
L 429.871933 369.188483 
L 430.980053 369.188483 
L 431.349426 369.344402 
L 469.394881 369.36 
L 469.764254 369.198203 
L 471.611121 369.242319 
L 472.719241 369.186465 
L 474.935481 369.285473 
L 474.196734 369.285473 
L 486.016681 369.36 
L 506.332215 369.36 
L 506.701589 369.169375 
L 507.070962 369.169375 
L 507.809709 369.285314 
L 520.368402 369.36 
L 747.163636 369.36 
L 747.163636 369.36 
" style="fill:none;stroke:#1f77b4;stroke-linecap:square;stroke-width:1.5;"/>
   </g>
   <g id="line2d_17">
    <path clip-path="url(#p580894afd9)" d="M 138.436364 369.346551 
L 143.976964 369.334788 
L 144.346337 369.240013 
L 145.454457 369.336459 
L 150.625684 369.35709 
L 152.841924 369.339032 
L 153.211297 368.702071 
L 153.580671 369.023412 
L 153.950044 369.178765 
L 154.319417 368.982427 
L 155.058164 369.253114 
L 155.796911 369.289515 
L 157.643778 369.336409 
L 158.382524 369.295843 
L 159.860018 369.34194 
L 162.076258 369.329762 
L 163.553751 369.344659 
L 163.923124 369.158035 
L 164.661871 369.312887 
L 171.310591 369.352451 
L 171.679965 369.1379 
L 172.418711 369.330235 
L 174.265578 369.318273 
L 179.436805 369.355707 
L 181.283672 369.345704 
L 186.454898 369.311755 
L 193.842365 369.331815 
L 194.211739 368.201284 
L 194.581112 368.777888 
L 194.950485 369.067353 
L 195.689232 369.277849 
L 197.536099 369.347978 
L 199.013592 369.322844 
L 201.229832 369.339691 
L 202.707326 369.345033 
L 208.986673 369.355368 
L 218.59038 369.354823 
L 218.959753 100.568337 
L 219.329126 234.958146 
L 219.6985 298.748177 
L 220.067873 334.036399 
L 220.437246 351.674143 
L 220.80662 360.498838 
L 221.175993 364.902888 
L 221.545366 367.130979 
L 221.91474 368.227087 
L 222.284113 368.791728 
L 222.653486 369.075864 
L 223.392233 369.285313 
L 230.410327 369.357951 
L 242.599647 369.278728 
L 243.338394 369.303215 
L 244.07714 369.309378 
L 244.446514 369.310632 
L 244.815887 66.96 
L 245.18526 218.135943 
L 246.29338 331.524196 
L 246.662754 350.418042 
L 247.032127 359.868635 
L 247.4015 364.57977 
L 247.770874 366.945828 
L 248.140247 368.145956 
L 248.878994 368.919468 
L 249.617741 369.23588 
L 250.356487 369.341314 
L 250.725861 369.171837 
L 251.095234 369.264328 
L 251.464607 368.874976 
L 252.942101 369.257273 
L 254.050221 369.317813 
L 254.419594 369.074866 
L 255.158341 369.275098 
L 258.113327 369.330042 
L 260.698941 369.312899 
L 261.437688 369.247686 
L 263.284554 369.354905 
L 265.131421 369.271196 
L 266.608914 369.332749 
L 269.563901 369.292543 
L 269.933274 369.324323 
L 270.302648 369.18572 
L 271.041395 369.310231 
L 274.365755 369.29205 
L 275.104501 369.302669 
L 275.843248 369.296419 
L 275.473875 369.297721 
L 283.230715 369.341359 
L 286.185702 369.319243 
L 289.510062 369.311313 
L 289.879435 369.194182 
L 290.987555 369.269616 
L 291.356929 369.276401 
L 291.726302 368.985248 
L 292.465049 369.218506 
L 293.573169 369.28666 
L 293.942542 369.273203 
L 294.311915 368.606537 
L 294.681289 368.965036 
L 295.420035 369.200422 
L 296.158782 369.2829 
L 297.266902 369.302959 
L 296.528155 368.871 
L 299.113769 369.277329 
L 307.239982 369.265302 
L 307.609356 359.636374 
L 307.978729 364.471667 
L 308.348102 366.899697 
L 308.717476 368.124422 
L 309.456222 368.718154 
L 308.717476 369.033651 
L 311.672462 369.329425 
L 312.041836 369.173133 
L 313.149956 369.292938 
L 316.474316 369.328035 
L 319.429303 369.320788 
L 321.645543 369.342668 
L 322.384289 369.29686 
L 327.92489 369.335131 
L 328.294263 369.174828 
L 329.03301 369.299475 
L 330.879876 369.317753 
L 331.987996 369.3223 
L 332.35737 369.236832 
L 333.834863 369.294793 
L 336.420477 369.33794 
L 341.591703 369.346574 
L 341.961077 247.404777 
L 342.33045 308.346102 
L 342.699823 338.828994 
L 343.069197 354.092907 
L 343.43857 361.717999 
L 343.807944 365.502713 
L 344.177317 367.4073 
L 344.54669 368.286958 
L 344.916064 368.815509 
L 345.65481 369.123701 
L 347.501677 369.335138 
L 351.934157 369.309341 
L 352.30353 369.154279 
L 353.042277 369.280892 
L 354.150397 369.321792 
L 355.258517 369.307725 
L 357.105384 369.293361 
L 363.015357 369.330761 
L 368.186584 369.348326 
L 370.033451 369.334891 
L 370.402824 369.102401 
L 370.772198 369.207144 
L 371.510944 369.253058 
L 373.357811 369.298781 
L 379.637158 369.311468 
L 380.006531 369.200849 
L 381.114651 369.265427 
L 381.484025 369.114821 
L 382.592145 369.312533 
L 389.240865 369.331837 
L 389.610238 369.24246 
L 390.718358 369.302618 
L 397.736452 369.313196 
L 399.583319 369.311729 
L 400.691439 369.33043 
L 401.060812 366.735745 
L 401.430185 368.563665 
L 401.799559 368.925681 
L 402.538305 369.218247 
L 404.385172 369.326222 
L 407.340159 369.339428 
L 407.709532 368.738964 
L 408.448279 369.178288 
L 409.187026 369.292258 
L 410.295146 369.272385 
L 411.403266 369.268824 
L 412.142012 369.27781 
L 412.880759 369.333801 
L 413.619506 369.299986 
L 413.988879 369.305936 
L 414.358252 369.161535 
L 415.466372 369.299976 
L 416.943866 369.27231 
L 418.051986 369.31963 
L 419.529479 369.287276 
L 421.745719 369.212287 
L 421.376346 234.891674 
L 422.484466 335.688623 
L 422.853839 352.494527 
L 423.223213 360.903207 
L 423.592586 365.0712 
L 423.223213 367.191543 
L 424.331333 368.749823 
L 425.070079 369.171115 
L 426.178199 369.297186 
L 426.547573 368.702179 
L 427.28632 369.014601 
L 427.655693 368.787451 
L 428.025066 369.06234 
L 428.39444 368.374474 
L 428.763813 368.83095 
L 429.50256 369.179423 
L 429.871933 368.869862 
L 430.241306 369.090874 
L 431.349426 369.201381 
L 431.7188 369.014872 
L 432.457546 369.239311 
L 432.82692 369.246459 
L 433.196293 369.079373 
L 433.93504 369.282822 
L 435.04316 369.290014 
L 435.412533 368.66201 
L 436.15128 368.873732 
L 436.890026 369.206845 
L 438.736893 369.288919 
L 439.47564 369.266919 
L 440.214387 369.280741 
L 440.58376 369.009815 
L 440.953133 368.980588 
L 441.322507 369.229519 
L 442.8 369.287126 
L 443.538747 369.153205 
L 444.646867 369.285937 
L 445.01624 369.286682 
L 445.385613 366.401853 
L 445.01624 367.85687 
L 446.12436 368.930306 
L 447.971227 369.255945 
L 448.3406 369.046977 
L 450.187467 369.232934 
L 450.55684 369.030649 
L 450.926214 369.170301 
L 449.818094 369.228864 
L 451.66496 369.171968 
L 453.142454 369.139943 
L 453.8812 369.27995 
L 454.98932 369.281174 
L 456.836187 369.20971 
L 457.574934 369.282658 
L 457.944307 368.956282 
L 458.31368 368.884559 
L 459.052427 369.189459 
L 459.421801 369.265943 
L 460.160547 369.214069 
L 461.268667 369.280095 
L 461.638041 369.295575 
L 462.007414 369.090925 
L 462.376787 369.031405 
L 463.484907 369.264446 
L 464.223654 369.272229 
L 464.593027 369.085858 
L 466.070521 368.975248 
L 466.809267 369.218989 
L 467.178641 369.048057 
L 468.286761 369.204444 
L 468.656134 369.245935 
L 469.025508 367.888422 
L 469.394881 368.553708 
L 470.133628 368.266287 
L 470.503001 368.834859 
L 470.872374 369.073373 
L 472.719241 369.17102 
L 473.088614 369.004515 
L 473.827361 369.24699 
L 474.196734 369.157123 
L 474.935481 369.289179 
L 474.196734 369.299566 
L 476.412974 369.326001 
L 476.782348 369.082005 
L 477.151721 369.184716 
L 477.521094 369.133429 
L 478.259841 369.269737 
L 478.629214 369.048347 
L 479.737335 369.268371 
L 480.106708 369.091877 
L 481.214828 369.292377 
L 482.692321 369.318254 
L 483.431068 369.115875 
L 484.169815 369.28667 
L 485.277935 369.305677 
L 485.647308 369.071844 
L 486.386055 369.250695 
L 486.755428 369.160243 
L 487.494175 369.184536 
L 489.341041 369.33274 
L 489.710415 369.2293 
L 489.341041 369.17758 
L 490.449162 369.231529 
L 490.818535 369.293806 
L 491.557282 369.224394 
L 490.818535 369.290239 
L 491.926655 324.168923 
L 492.296028 346.734194 
L 493.034775 366.505982 
L 493.404148 367.931033 
L 493.773522 368.618356 
L 494.512268 369.094101 
L 494.881642 369.185373 
L 494.142895 369.2364 
L 494.881642 369.256523 
L 495.989762 369.31406 
L 498.575375 369.224287 
L 499.314122 369.282399 
L 499.683495 369.07122 
L 500.791615 369.325624 
L 503.007855 369.314413 
L 508.179082 369.28789 
L 509.656575 369.334967 
L 510.395322 369.356344 
L 510.764695 369.255663 
L 512.242189 369.295141 
L 512.611562 369.231709 
L 515.197176 369.32838 
L 515.935922 369.176931 
L 516.674669 369.278148 
L 517.413416 369.299372 
L 517.413416 369.3237 
L 519.260282 369.337309 
L 520.368402 369.306216 
L 520.737776 369.225727 
L 521.476523 369.349029 
L 527.017123 369.335527 
L 528.863989 369.25357 
L 529.602736 369.331411 
L 529.972109 369.242247 
L 531.080229 369.315776 
L 531.818976 369.14912 
L 531.080229 369.252602 
L 535.143336 369.297342 
L 535.882083 369.302136 
L 536.251456 369.001804 
L 536.62083 369.178944 
L 538.467696 369.295301 
L 537.359576 369.220269 
L 540.683936 369.208308 
L 540.314563 369.247867 
L 542.900177 369.335033 
L 544.747043 369.353184 
L 545.855163 369.202207 
L 546.963283 369.272584 
L 547.70203 369.047906 
L 548.440777 369.245892 
L 549.179523 369.246776 
L 549.548897 369.30143 
L 550.287643 368.930865 
L 550.657017 369.121376 
L 553.612004 369.309324 
L 553.981377 369.228134 
L 554.35075 369.281506 
L 554.720124 369.159057 
L 555.828244 369.307176 
L 556.197617 369.226207 
L 557.305737 369.309613 
L 557.67511 369.246756 
L 559.89135 369.305165 
L 562.476964 369.269014 
L 562.846337 369.048689 
L 563.585084 369.26942 
L 563.954457 369.113597 
L 564.693204 369.328647 
L 565.801324 369.343804 
L 566.170697 369.248443 
L 567.278817 369.303813 
L 568.017564 369.290524 
L 569.495057 369.302026 
L 572.080671 369.239397 
L 573.188791 369.29544 
L 574.666284 369.326313 
L 575.774404 369.290305 
L 576.143778 369.064158 
L 576.513151 369.211775 
L 578.360018 369.306317 
L 578.729391 369.083699 
L 579.468138 369.288862 
L 579.837511 369.088509 
L 580.576258 369.307808 
L 581.684378 369.26056 
L 582.053751 369.30869 
L 582.423124 327.506682 
L 582.792498 348.41972 
L 583.161871 358.889556 
L 583.531244 363.724928 
L 583.900618 366.542251 
L 584.269991 367.848616 
L 584.639365 368.60235 
L 585.008738 368.980871 
L 585.747485 369.264019 
L 589.071845 369.267436 
L 589.810591 369.282683 
L 592.026831 369.279947 
L 592.396205 369.305851 
L 592.765578 100.552931 
L 593.134951 234.913099 
L 593.504325 302.134591 
L 593.873698 335.709031 
L 594.243071 352.494404 
L 594.612445 360.865795 
L 594.981818 365.110949 
L 595.351192 367.221348 
L 595.720565 368.27475 
L 596.089938 368.782235 
L 596.459312 369.047061 
L 597.198058 369.239881 
L 599.044925 369.303463 
L 600.522418 369.330872 
L 602.369285 369.321749 
L 605.324272 369.327694 
L 605.693645 369.065082 
L 606.063019 369.285948 
L 606.432392 369.321016 
L 606.801765 369.227884 
L 607.171139 369.291646 
L 609.018005 369.347179 
L 612.711739 369.348503 
L 613.081112 369.219366 
L 614.927979 369.35315 
L 618.621712 369.336698 
L 618.991086 367.801021 
L 619.360459 368.509724 
L 619.729832 368.932904 
L 620.468579 369.234934 
L 621.576699 369.321363 
L 622.684819 369.320789 
L 628.964166 369.351894 
L 629.333539 355.917673 
L 629.702913 362.625638 
L 630.072286 365.985959 
L 630.441659 367.659781 
L 631.919153 369.239289 
L 633.027273 369.320703 
L 635.243513 369.347477 
L 636.351633 369.33779 
L 648.17158 369.351602 
L 650.38782 369.319363 
L 653.71218 369.346308 
L 659.622154 369.315441 
L 660.730274 369.326348 
L 662.57714 369.343424 
L 663.315887 369.325087 
L 701.361342 369.31332 
L 703.577582 369.339791 
L 708.010062 369.354248 
L 711.703795 369.326104 
L 712.073169 369.195608 
L 712.811915 369.336916 
L 716.505649 369.333171 
L 716.875022 369.07713 
L 717.613769 369.28585 
L 718.352515 369.345768 
L 722.046249 369.278352 
L 723.154369 369.292606 
L 726.478729 369.320859 
L 727.217476 369.301357 
L 732.019329 369.347641 
L 734.604943 369.32804 
L 737.559929 369.342496 
L 737.929303 340.030697 
L 738.298676 354.692227 
L 738.668049 362.017361 
L 739.037423 365.682446 
L 739.406796 367.514988 
L 740.145543 369.10821 
L 740.514916 368.826983 
L 740.884289 322.395293 
L 741.253663 345.854236 
L 741.623036 357.600883 
L 741.99241 362.538558 
L 742.361783 365.946158 
L 742.731156 367.649958 
L 743.10053 368.498744 
L 743.469903 368.923137 
L 744.20865 369.238247 
L 746.055516 369.295916 
L 747.163636 369.322855 
L 747.163636 369.322855 
" style="fill:none;stroke:#ff7f0e;stroke-linecap:square;stroke-width:1.5;"/>
   </g>
   <g id="patch_3">
    <path d="M 108 384.48 
L 108 51.84 
" style="fill:none;stroke:#000000;stroke-linecap:square;stroke-linejoin:miter;stroke-width:0.8;"/>
   </g>
   <g id="patch_4">
    <path d="M 777.6 384.48 
L 777.6 51.84 
" style="fill:none;stroke:#000000;stroke-linecap:square;stroke-linejoin:miter;stroke-width:0.8;"/>
   </g>
   <g id="patch_5">
    <path d="M 108 384.48 
L 777.6 384.48 
" style="fill:none;stroke:#000000;stroke-linecap:square;stroke-linejoin:miter;stroke-width:0.8;"/>
   </g>
   <g id="patch_6">
    <path d="M 108 51.84 
L 777.6 51.84 
" style="fill:none;stroke:#000000;stroke-linecap:square;stroke-linejoin:miter;stroke-width:0.8;"/>
   </g>
  </g>
 </g>
 <defs>
  <clipPath id="p580894afd9">
   <rect height="332.64" width="669.6" x="108" y="51.84"/>
  </clipPath>
 </defs>
</svg>
