<?xml version="1.0" encoding="utf-8" standalone="no"?>
<!DOCTYPE svg PUBLIC "-//W3C//DTD SVG 1.1//EN"
  "http://www.w3.org/Graphics/SVG/1.1/DTD/svg11.dtd">
<svg height="432pt" version="1.1" viewBox="0 0 864 432" width="864pt" xmlns="http://www.w3.org/2000/svg" xmlns:xlink="http://www.w3.org/1999/xlink">
 <metadata>
  <rdf:RDF xmlns:cc="http://creativecommons.org/ns#" xmlns:dc="http://purl.org/dc/elements/1.1/" xmlns:rdf="http://www.w3.org/1999/02/22-rdf-syntax-ns#">
   <cc:Work>
    <dc:type rdf:resource="http://purl.org/dc/dcmitype/StillImage"/>
    <dc:date>2022-01-06T21:23:41.258844</dc:date>
    <dc:format>image/svg+xml</dc:format>
    <dc:creator>
     <cc:Agent>
      <dc:title>Matplotlib v3.4.3, https://matplotlib.org/</dc:title>
     </cc:Agent>
    </dc:creator>
   </cc:Work>
  </rdf:RDF>
 </metadata>
 <defs>
  <style type="text/css">*{stroke-linecap:butt;stroke-linejoin:round;}</style>
 </defs>
 <g id="figure_1">
  <g id="patch_1">
   <path d="M 0 432 
L 864 432 
L 864 0 
L 0 0 
z
" style="fill:#ffffff;"/>
  </g>
  <g id="axes_1">
   <g id="patch_2">
    <path d="M 108 384.48 
L 777.6 384.48 
L 777.6 51.84 
L 108 51.84 
z
" style="fill:#ffffff;"/>
   </g>
   <g id="matplotlib.axis_1">
    <g id="xtick_1">
     <g id="line2d_1">
      <defs>
       <path d="M 0 0 
L 0 3.5 
" id="m04c82f1342" style="stroke:#000000;stroke-width:0.8;"/>
      </defs>
      <g>
       <use style="stroke:#000000;stroke-width:0.8;" x="138.436364" xlink:href="#m04c82f1342" y="384.48"/>
      </g>
     </g>
     <g id="text_1">
      <!-- 39000 -->
      <g transform="translate(122.530114 399.078438)scale(0.1 -0.1)">
       <defs>
        <path d="M 2597 2516 
Q 3050 2419 3304 2112 
Q 3559 1806 3559 1356 
Q 3559 666 3084 287 
Q 2609 -91 1734 -91 
Q 1441 -91 1130 -33 
Q 819 25 488 141 
L 488 750 
Q 750 597 1062 519 
Q 1375 441 1716 441 
Q 2309 441 2620 675 
Q 2931 909 2931 1356 
Q 2931 1769 2642 2001 
Q 2353 2234 1838 2234 
L 1294 2234 
L 1294 2753 
L 1863 2753 
Q 2328 2753 2575 2939 
Q 2822 3125 2822 3475 
Q 2822 3834 2567 4026 
Q 2313 4219 1838 4219 
Q 1578 4219 1281 4162 
Q 984 4106 628 3988 
L 628 4550 
Q 988 4650 1302 4700 
Q 1616 4750 1894 4750 
Q 2613 4750 3031 4423 
Q 3450 4097 3450 3541 
Q 3450 3153 3228 2886 
Q 3006 2619 2597 2516 
z
" id="DejaVuSans-33" transform="scale(0.015625)"/>
        <path d="M 703 97 
L 703 672 
Q 941 559 1184 500 
Q 1428 441 1663 441 
Q 2288 441 2617 861 
Q 2947 1281 2994 2138 
Q 2813 1869 2534 1725 
Q 2256 1581 1919 1581 
Q 1219 1581 811 2004 
Q 403 2428 403 3163 
Q 403 3881 828 4315 
Q 1253 4750 1959 4750 
Q 2769 4750 3195 4129 
Q 3622 3509 3622 2328 
Q 3622 1225 3098 567 
Q 2575 -91 1691 -91 
Q 1453 -91 1209 -44 
Q 966 3 703 97 
z
M 1959 2075 
Q 2384 2075 2632 2365 
Q 2881 2656 2881 3163 
Q 2881 3666 2632 3958 
Q 2384 4250 1959 4250 
Q 1534 4250 1286 3958 
Q 1038 3666 1038 3163 
Q 1038 2656 1286 2365 
Q 1534 2075 1959 2075 
z
" id="DejaVuSans-39" transform="scale(0.015625)"/>
        <path d="M 2034 4250 
Q 1547 4250 1301 3770 
Q 1056 3291 1056 2328 
Q 1056 1369 1301 889 
Q 1547 409 2034 409 
Q 2525 409 2770 889 
Q 3016 1369 3016 2328 
Q 3016 3291 2770 3770 
Q 2525 4250 2034 4250 
z
M 2034 4750 
Q 2819 4750 3233 4129 
Q 3647 3509 3647 2328 
Q 3647 1150 3233 529 
Q 2819 -91 2034 -91 
Q 1250 -91 836 529 
Q 422 1150 422 2328 
Q 422 3509 836 4129 
Q 1250 4750 2034 4750 
z
" id="DejaVuSans-30" transform="scale(0.015625)"/>
       </defs>
       <use xlink:href="#DejaVuSans-33"/>
       <use x="63.623047" xlink:href="#DejaVuSans-39"/>
       <use x="127.246094" xlink:href="#DejaVuSans-30"/>
       <use x="190.869141" xlink:href="#DejaVuSans-30"/>
       <use x="254.492188" xlink:href="#DejaVuSans-30"/>
      </g>
     </g>
    </g>
    <g id="xtick_2">
     <g id="line2d_2">
      <g>
       <use style="stroke:#000000;stroke-width:0.8;" x="230.7797" xlink:href="#m04c82f1342" y="384.48"/>
      </g>
     </g>
     <g id="text_2">
      <!-- 39250 -->
      <g transform="translate(214.87345 399.078438)scale(0.1 -0.1)">
       <defs>
        <path d="M 1228 531 
L 3431 531 
L 3431 0 
L 469 0 
L 469 531 
Q 828 903 1448 1529 
Q 2069 2156 2228 2338 
Q 2531 2678 2651 2914 
Q 2772 3150 2772 3378 
Q 2772 3750 2511 3984 
Q 2250 4219 1831 4219 
Q 1534 4219 1204 4116 
Q 875 4013 500 3803 
L 500 4441 
Q 881 4594 1212 4672 
Q 1544 4750 1819 4750 
Q 2544 4750 2975 4387 
Q 3406 4025 3406 3419 
Q 3406 3131 3298 2873 
Q 3191 2616 2906 2266 
Q 2828 2175 2409 1742 
Q 1991 1309 1228 531 
z
" id="DejaVuSans-32" transform="scale(0.015625)"/>
        <path d="M 691 4666 
L 3169 4666 
L 3169 4134 
L 1269 4134 
L 1269 2991 
Q 1406 3038 1543 3061 
Q 1681 3084 1819 3084 
Q 2600 3084 3056 2656 
Q 3513 2228 3513 1497 
Q 3513 744 3044 326 
Q 2575 -91 1722 -91 
Q 1428 -91 1123 -41 
Q 819 9 494 109 
L 494 744 
Q 775 591 1075 516 
Q 1375 441 1709 441 
Q 2250 441 2565 725 
Q 2881 1009 2881 1497 
Q 2881 1984 2565 2268 
Q 2250 2553 1709 2553 
Q 1456 2553 1204 2497 
Q 953 2441 691 2322 
L 691 4666 
z
" id="DejaVuSans-35" transform="scale(0.015625)"/>
       </defs>
       <use xlink:href="#DejaVuSans-33"/>
       <use x="63.623047" xlink:href="#DejaVuSans-39"/>
       <use x="127.246094" xlink:href="#DejaVuSans-32"/>
       <use x="190.869141" xlink:href="#DejaVuSans-35"/>
       <use x="254.492188" xlink:href="#DejaVuSans-30"/>
      </g>
     </g>
    </g>
    <g id="xtick_3">
     <g id="line2d_3">
      <g>
       <use style="stroke:#000000;stroke-width:0.8;" x="323.123036" xlink:href="#m04c82f1342" y="384.48"/>
      </g>
     </g>
     <g id="text_3">
      <!-- 39500 -->
      <g transform="translate(307.216786 399.078438)scale(0.1 -0.1)">
       <use xlink:href="#DejaVuSans-33"/>
       <use x="63.623047" xlink:href="#DejaVuSans-39"/>
       <use x="127.246094" xlink:href="#DejaVuSans-35"/>
       <use x="190.869141" xlink:href="#DejaVuSans-30"/>
       <use x="254.492188" xlink:href="#DejaVuSans-30"/>
      </g>
     </g>
    </g>
    <g id="xtick_4">
     <g id="line2d_4">
      <g>
       <use style="stroke:#000000;stroke-width:0.8;" x="415.466372" xlink:href="#m04c82f1342" y="384.48"/>
      </g>
     </g>
     <g id="text_4">
      <!-- 39750 -->
      <g transform="translate(399.560122 399.078438)scale(0.1 -0.1)">
       <defs>
        <path d="M 525 4666 
L 3525 4666 
L 3525 4397 
L 1831 0 
L 1172 0 
L 2766 4134 
L 525 4134 
L 525 4666 
z
" id="DejaVuSans-37" transform="scale(0.015625)"/>
       </defs>
       <use xlink:href="#DejaVuSans-33"/>
       <use x="63.623047" xlink:href="#DejaVuSans-39"/>
       <use x="127.246094" xlink:href="#DejaVuSans-37"/>
       <use x="190.869141" xlink:href="#DejaVuSans-35"/>
       <use x="254.492188" xlink:href="#DejaVuSans-30"/>
      </g>
     </g>
    </g>
    <g id="xtick_5">
     <g id="line2d_5">
      <g>
       <use style="stroke:#000000;stroke-width:0.8;" x="507.809709" xlink:href="#m04c82f1342" y="384.48"/>
      </g>
     </g>
     <g id="text_5">
      <!-- 40000 -->
      <g transform="translate(491.903459 399.078438)scale(0.1 -0.1)">
       <defs>
        <path d="M 2419 4116 
L 825 1625 
L 2419 1625 
L 2419 4116 
z
M 2253 4666 
L 3047 4666 
L 3047 1625 
L 3713 1625 
L 3713 1100 
L 3047 1100 
L 3047 0 
L 2419 0 
L 2419 1100 
L 313 1100 
L 313 1709 
L 2253 4666 
z
" id="DejaVuSans-34" transform="scale(0.015625)"/>
       </defs>
       <use xlink:href="#DejaVuSans-34"/>
       <use x="63.623047" xlink:href="#DejaVuSans-30"/>
       <use x="127.246094" xlink:href="#DejaVuSans-30"/>
       <use x="190.869141" xlink:href="#DejaVuSans-30"/>
       <use x="254.492188" xlink:href="#DejaVuSans-30"/>
      </g>
     </g>
    </g>
    <g id="xtick_6">
     <g id="line2d_6">
      <g>
       <use style="stroke:#000000;stroke-width:0.8;" x="600.153045" xlink:href="#m04c82f1342" y="384.48"/>
      </g>
     </g>
     <g id="text_6">
      <!-- 40250 -->
      <g transform="translate(584.246795 399.078438)scale(0.1 -0.1)">
       <use xlink:href="#DejaVuSans-34"/>
       <use x="63.623047" xlink:href="#DejaVuSans-30"/>
       <use x="127.246094" xlink:href="#DejaVuSans-32"/>
       <use x="190.869141" xlink:href="#DejaVuSans-35"/>
       <use x="254.492188" xlink:href="#DejaVuSans-30"/>
      </g>
     </g>
    </g>
    <g id="xtick_7">
     <g id="line2d_7">
      <g>
       <use style="stroke:#000000;stroke-width:0.8;" x="692.496381" xlink:href="#m04c82f1342" y="384.48"/>
      </g>
     </g>
     <g id="text_7">
      <!-- 40500 -->
      <g transform="translate(676.590131 399.078438)scale(0.1 -0.1)">
       <use xlink:href="#DejaVuSans-34"/>
       <use x="63.623047" xlink:href="#DejaVuSans-30"/>
       <use x="127.246094" xlink:href="#DejaVuSans-35"/>
       <use x="190.869141" xlink:href="#DejaVuSans-30"/>
       <use x="254.492188" xlink:href="#DejaVuSans-30"/>
      </g>
     </g>
    </g>
   </g>
   <g id="matplotlib.axis_2">
    <g id="ytick_1">
     <g id="line2d_8">
      <defs>
       <path d="M 0 0 
L -3.5 0 
" id="md8e7b2a86a" style="stroke:#000000;stroke-width:0.8;"/>
      </defs>
      <g>
       <use style="stroke:#000000;stroke-width:0.8;" x="108" xlink:href="#md8e7b2a86a" y="344.426033"/>
      </g>
     </g>
     <g id="text_8">
      <!-- −3 -->
      <g transform="translate(86.257812 348.225252)scale(0.1 -0.1)">
       <defs>
        <path d="M 678 2272 
L 4684 2272 
L 4684 1741 
L 678 1741 
L 678 2272 
z
" id="DejaVuSans-2212" transform="scale(0.015625)"/>
       </defs>
       <use xlink:href="#DejaVuSans-2212"/>
       <use x="83.789062" xlink:href="#DejaVuSans-33"/>
      </g>
     </g>
    </g>
    <g id="ytick_2">
     <g id="line2d_9">
      <g>
       <use style="stroke:#000000;stroke-width:0.8;" x="108" xlink:href="#md8e7b2a86a" y="294.45223"/>
      </g>
     </g>
     <g id="text_9">
      <!-- −2 -->
      <g transform="translate(86.257812 298.251448)scale(0.1 -0.1)">
       <use xlink:href="#DejaVuSans-2212"/>
       <use x="83.789062" xlink:href="#DejaVuSans-32"/>
      </g>
     </g>
    </g>
    <g id="ytick_3">
     <g id="line2d_10">
      <g>
       <use style="stroke:#000000;stroke-width:0.8;" x="108" xlink:href="#md8e7b2a86a" y="244.478426"/>
      </g>
     </g>
     <g id="text_10">
      <!-- −1 -->
      <g transform="translate(86.257812 248.277644)scale(0.1 -0.1)">
       <defs>
        <path d="M 794 531 
L 1825 531 
L 1825 4091 
L 703 3866 
L 703 4441 
L 1819 4666 
L 2450 4666 
L 2450 531 
L 3481 531 
L 3481 0 
L 794 0 
L 794 531 
z
" id="DejaVuSans-31" transform="scale(0.015625)"/>
       </defs>
       <use xlink:href="#DejaVuSans-2212"/>
       <use x="83.789062" xlink:href="#DejaVuSans-31"/>
      </g>
     </g>
    </g>
    <g id="ytick_4">
     <g id="line2d_11">
      <g>
       <use style="stroke:#000000;stroke-width:0.8;" x="108" xlink:href="#md8e7b2a86a" y="194.504622"/>
      </g>
     </g>
     <g id="text_11">
      <!-- 0 -->
      <g transform="translate(94.6375 198.303841)scale(0.1 -0.1)">
       <use xlink:href="#DejaVuSans-30"/>
      </g>
     </g>
    </g>
    <g id="ytick_5">
     <g id="line2d_12">
      <g>
       <use style="stroke:#000000;stroke-width:0.8;" x="108" xlink:href="#md8e7b2a86a" y="144.530818"/>
      </g>
     </g>
     <g id="text_12">
      <!-- 1 -->
      <g transform="translate(94.6375 148.330037)scale(0.1 -0.1)">
       <use xlink:href="#DejaVuSans-31"/>
      </g>
     </g>
    </g>
    <g id="ytick_6">
     <g id="line2d_13">
      <g>
       <use style="stroke:#000000;stroke-width:0.8;" x="108" xlink:href="#md8e7b2a86a" y="94.557014"/>
      </g>
     </g>
     <g id="text_13">
      <!-- 2 -->
      <g transform="translate(94.6375 98.356233)scale(0.1 -0.1)">
       <use xlink:href="#DejaVuSans-32"/>
      </g>
     </g>
    </g>
   </g>
   <g id="line2d_14">
    <path clip-path="url(#p8497950e4d)" d="M 138.436364 288.092962 
L 138.805737 288.092962 
L 138.436364 288.092962 
L 139.17511 292.17725 
L 139.544484 298.835906 
L 140.652604 298.835906 
L 141.021977 281.154531 
L 141.39135 281.154531 
L 141.021977 348.983061 
L 141.760724 254.488667 
L 142.130097 331.424321 
L 142.49947 331.424321 
L 142.868844 311.178197 
L 143.238217 311.178197 
L 143.60759 305.345405 
L 143.976964 305.345405 
L 144.346337 289.552333 
L 144.715711 283.200154 
L 145.085084 289.552333 
L 145.454457 338.179913 
L 146.193204 338.179913 
L 146.562577 369.36 
L 146.931951 369.36 
L 147.301324 329.43893 
L 148.409444 329.43893 
L 148.778817 369.36 
L 149.148191 270.505178 
L 149.517564 280.856369 
L 149.886937 280.856369 
L 150.256311 309.550559 
L 150.625684 309.550559 
L 150.995057 369.36 
L 152.472551 369.36 
L 152.841924 291.371178 
L 153.211297 291.371178 
L 153.580671 281.351054 
L 154.319417 281.338823 
L 154.688791 283.820741 
L 155.058164 283.820741 
L 155.427538 304.620853 
L 155.796911 283.820741 
L 156.166284 303.920296 
L 156.535658 265.71422 
L 156.905031 265.71422 
L 157.274404 268.867869 
L 157.643778 268.867869 
L 158.013151 307.231195 
L 158.382524 328.755723 
L 158.751898 334.068897 
L 159.121271 328.755723 
L 159.860018 328.755723 
L 160.598764 295.139571 
L 160.968138 295.139571 
L 161.337511 255.521573 
L 162.076258 255.521573 
L 162.815004 307.889509 
L 163.184378 367.749947 
L 163.553751 307.889509 
L 163.923124 369.36 
L 164.292498 369.36 
L 164.661871 270.563689 
L 165.400618 270.563689 
L 165.769991 270.009023 
L 166.139365 256.652674 
L 166.508738 335.185701 
L 166.878111 255.442638 
L 167.247485 255.442638 
L 167.616858 265.886245 
L 167.986231 265.886245 
L 168.355605 252.524956 
L 168.724978 254.415073 
L 169.094351 254.415073 
L 169.463725 253.789389 
L 169.833098 254.415073 
L 170.202471 268.867388 
L 170.571845 333.550054 
L 170.941218 333.550054 
L 171.310591 308.104774 
L 171.679965 273.902491 
L 172.049338 308.104774 
L 172.418711 292.716324 
L 173.526831 292.716324 
L 173.896205 290.374773 
L 174.265578 290.374773 
L 174.634951 297.315108 
L 175.004325 297.315108 
L 175.373698 369.36 
L 176.481818 369.36 
L 176.851192 313.121168 
L 177.220565 369.36 
L 177.959312 369.36 
L 178.328685 282.27512 
L 178.698058 282.27512 
L 179.067432 256.748787 
L 179.436805 259.48531 
L 179.806178 256.748787 
L 180.175552 256.748787 
L 180.544925 253.4305 
L 180.914298 259.48531 
L 181.283672 280.705738 
L 181.653045 287.972578 
L 182.022418 300.640587 
L 182.761165 300.640587 
L 183.130538 262.282754 
L 183.499912 262.282754 
L 183.869285 270.308922 
L 184.238658 301.605341 
L 184.977405 301.605341 
L 185.346778 319.953018 
L 185.716152 369.36 
L 186.085525 338.296092 
L 186.454898 338.296092 
L 186.824272 369.36 
L 187.193645 338.296092 
L 187.563019 279.797232 
L 187.932392 279.797232 
L 188.301765 331.322551 
L 187.932392 331.322551 
L 188.671139 369.36 
L 188.301765 369.36 
L 190.887379 369.36 
L 191.256752 311.494461 
L 191.626125 300.719433 
L 191.995499 300.719433 
L 191.626125 293.723259 
L 192.364872 293.723259 
L 192.734245 293.265912 
L 193.472992 293.265912 
L 193.842365 295.039996 
L 194.211739 322.348386 
L 194.581112 322.348386 
L 194.950485 283.851413 
L 195.319859 300.186943 
L 195.689232 283.851413 
L 196.058605 280.250977 
L 196.427979 280.250977 
L 196.797352 300.186943 
L 197.166726 369.36 
L 197.536099 369.36 
L 197.905472 302.62372 
L 198.274846 300.414586 
L 198.644219 263.25063 
L 199.013592 263.25063 
L 199.382966 260.839172 
L 200.121712 260.839172 
L 200.491086 351.821132 
L 201.229832 351.821132 
L 201.599206 358.48933 
L 201.968579 358.48933 
L 202.337952 333.074826 
L 203.076699 333.074826 
L 203.446072 369.36 
L 203.815446 347.201511 
L 204.184819 369.36 
L 204.923566 369.36 
L 205.292939 366.761931 
L 205.662312 366.761931 
L 206.031686 328.359082 
L 207.878553 328.315977 
L 208.247926 369.36 
L 209.356046 369.36 
L 210.094793 299.719491 
L 210.833539 299.719491 
L 211.202913 369.36 
L 211.941659 369.36 
L 212.311033 368.940038 
L 212.680406 312.598461 
L 213.049779 296.35876 
L 213.788526 296.35876 
L 214.157899 316.927597 
L 214.527273 316.927597 
L 214.896646 292.902656 
L 215.266019 292.626875 
L 214.896646 247.6217 
L 216.004766 247.6217 
L 216.743513 293.046618 
L 217.112886 369.36 
L 218.959753 369.36 
L 219.329126 290.719441 
L 219.6985 369.36 
L 220.067873 369.36 
L 220.437246 262.045888 
L 220.80662 262.045888 
L 221.175993 369.36 
L 221.545366 312.004828 
L 221.91474 369.36 
L 222.653486 369.36 
L 223.02286 365.441143 
L 223.392233 369.36 
L 248.140247 369.36 
L 248.50962 306.649474 
L 248.878994 369.36 
L 265.500794 369.36 
L 265.870168 311.398333 
L 266.239541 311.398333 
L 266.608914 369.36 
L 272.888261 369.36 
L 273.257635 345.433082 
L 273.627008 345.433082 
L 273.996381 287.446784 
L 274.365755 276.77717 
L 274.735128 276.77717 
L 275.104501 239.4981 
L 275.473875 239.10971 
L 275.104501 308.454556 
L 275.843248 369.36 
L 276.212621 313.58108 
L 276.581995 369.36 
L 276.951368 369.36 
L 275.473875 313.58108 
L 277.320741 313.58108 
L 277.690115 369.36 
L 278.798235 369.36 
L 279.167608 288.617247 
L 279.536981 267.188325 
L 280.275728 267.188325 
L 280.645102 365.355044 
L 281.014475 306.429345 
L 281.753222 306.429345 
L 282.122595 311.403492 
L 283.230715 311.403492 
L 283.600088 302.504595 
L 283.969462 302.504595 
L 284.338835 311.329727 
L 284.708208 339.872781 
L 285.077582 311.329727 
L 285.446955 319.509851 
L 285.816328 311.329727 
L 286.555075 311.313992 
L 286.924448 307.250122 
L 287.293822 262.282754 
L 287.663195 262.282754 
L 288.032568 312.652951 
L 288.771315 312.652951 
L 289.140688 277.484227 
L 289.510062 277.063058 
L 290.248808 253.003013 
L 290.618182 248.179315 
L 290.987555 247.988266 
L 291.356929 253.003013 
L 291.726302 264.056414 
L 292.834422 264.056414 
L 293.203795 245.677106 
L 293.573169 241.950785 
L 293.942542 245.677106 
L 294.311915 241.559299 
L 294.681289 241.559299 
L 295.050662 242.838219 
L 295.420035 245.360674 
L 295.789409 369.36 
L 296.158782 369.36 
L 296.528155 259.16307 
L 296.897529 283.55481 
L 297.266902 259.16307 
L 296.528155 257.567586 
L 297.636275 242.9819 
L 298.005649 257.567586 
L 298.375022 257.567586 
L 298.744395 242.923353 
L 299.113769 242.923353 
L 299.852515 285.606328 
L 300.221889 273.462145 
L 300.591262 275.691295 
L 301.330009 275.691295 
L 301.699382 302.476231 
L 302.068756 302.476231 
L 302.438129 369.36 
L 302.807502 302.476231 
L 303.176876 296.216793 
L 303.915622 296.216793 
L 304.284996 269.797331 
L 304.654369 269.797331 
L 304.284996 269.797331 
L 305.023742 246.365371 
L 305.393116 243.229201 
L 306.131862 243.229201 
L 306.501236 276.577549 
L 307.609356 276.577549 
L 307.978729 254.340178 
L 308.348102 254.340178 
L 308.717476 267.546041 
L 309.086849 295.727645 
L 309.456222 267.546041 
L 308.717476 289.20147 
L 310.194969 289.20147 
L 310.564342 282.48551 
L 310.933716 282.48551 
L 311.303089 264.315111 
L 311.672462 260.786462 
L 312.041836 252.297705 
L 312.411209 256.023608 
L 312.780583 256.023608 
L 313.149956 254.368778 
L 313.888703 254.368778 
L 314.258076 260.611659 
L 314.627449 298.383695 
L 314.996823 298.383695 
L 315.366196 307.013028 
L 315.735569 298.383695 
L 316.104943 298.383695 
L 316.474316 292.924101 
L 317.213063 292.924101 
L 317.582436 308.829681 
L 317.951809 308.829681 
L 318.321183 267.480838 
L 318.690556 308.829681 
L 319.059929 260.71225 
L 319.429303 260.71225 
L 319.798676 294.343431 
L 320.906796 294.343431 
L 321.276169 286.96315 
L 322.014916 286.96315 
L 322.384289 275.567501 
L 322.753663 274.76796 
L 323.123036 232.406373 
L 323.49241 228.1441 
L 324.231156 228.1441 
L 324.969903 311.310843 
L 325.339276 324.14772 
L 325.70865 311.310843 
L 326.078023 269.445757 
L 326.447396 311.310843 
L 326.81677 311.31127 
L 327.186143 269.445757 
L 327.555516 311.31127 
L 327.92489 311.31127 
L 328.294263 308.210774 
L 328.663636 308.210774 
L 329.03301 369.36 
L 329.402383 308.210774 
L 329.771756 270.242093 
L 330.14113 270.242093 
L 329.771756 247.660884 
L 330.510503 247.425936 
L 330.879876 247.425936 
L 331.24925 247.660884 
L 331.618623 257.042896 
L 331.987996 257.042896 
L 332.35737 260.240313 
L 333.096117 369.36 
L 333.834863 369.36 
L 334.204237 275.683168 
L 334.942983 275.683168 
L 335.312357 369.36 
L 336.051103 369.36 
L 336.420477 281.279739 
L 336.78985 281.279739 
L 337.159223 369.36 
L 342.33045 369.36 
L 342.699823 364.671766 
L 343.069197 364.671766 
L 343.43857 288.463052 
L 343.807944 279.691454 
L 344.177317 280.991571 
L 344.54669 279.691454 
L 344.916064 279.691454 
L 345.285437 275.200008 
L 345.65481 275.200008 
L 346.024184 267.659276 
L 346.76293 267.659276 
L 347.132304 279.636697 
L 347.501677 277.497826 
L 347.87105 279.636697 
L 348.240424 369.36 
L 349.348544 369.36 
L 349.717917 278.156336 
L 350.08729 271.187226 
L 350.456664 271.187226 
L 350.826037 264.041616 
L 351.19541 271.187226 
L 351.564784 281.224567 
L 351.934157 369.36 
L 352.30353 281.224567 
L 352.672904 281.224567 
L 353.042277 369.36 
L 353.41165 279.273635 
L 353.781024 264.424355 
L 354.150397 279.273635 
L 354.519771 369.36 
L 356.366637 369.36 
L 355.997264 310.834383 
L 357.105384 310.834383 
L 357.474757 266.045981 
L 357.844131 266.045981 
L 358.213504 369.36 
L 365.231598 369.36 
L 365.600971 277.894691 
L 365.970344 277.894691 
L 366.339718 369.36 
L 368.186584 369.36 
L 368.555958 294.590322 
L 369.294704 268.376596 
L 369.664078 268.376596 
L 370.033451 294.590322 
L 370.402824 344.628115 
L 370.772198 369.36 
L 371.880318 369.36 
L 372.249691 265.647112 
L 373.357811 265.647112 
L 373.727184 369.36 
L 375.574051 369.36 
L 375.943425 301.655977 
L 376.312798 369.36 
L 376.682171 293.807789 
L 377.051545 282.256016 
L 377.420918 293.807789 
L 377.051545 293.807789 
L 377.790291 293.807789 
L 378.159665 282.256016 
L 378.529038 224.759064 
L 379.267785 224.759064 
L 380.006531 276.784833 
L 380.375905 369.36 
L 381.484025 369.36 
L 381.853398 293.125409 
L 382.222771 275.529654 
L 382.592145 275.529654 
L 382.961518 267.674956 
L 383.700265 267.674956 
L 384.069638 282.585711 
L 384.439011 369.36 
L 386.285878 369.36 
L 386.655252 322.391171 
L 386.285878 322.391171 
L 387.024625 369.36 
L 389.979612 369.36 
L 390.348985 290.039926 
L 391.826478 290.039926 
L 392.195852 311.189477 
L 392.565225 369.36 
L 395.889585 369.36 
L 396.258959 353.001986 
L 396.628332 277.447366 
L 396.997705 277.447366 
L 397.367079 353.001986 
L 397.736452 369.36 
L 398.844572 369.36 
L 399.213945 295.049343 
L 399.583319 303.233079 
L 399.952692 295.049343 
L 400.322065 303.233079 
L 400.691439 303.233079 
L 401.060812 369.36 
L 401.799559 369.36 
L 402.168932 267.627881 
L 402.538305 260.523626 
L 403.277052 260.523626 
L 403.646425 276.5698 
L 403.277052 369.36 
L 404.754545 369.36 
L 405.123919 298.6228 
L 405.862665 298.6228 
L 406.232039 264.174948 
L 406.970786 264.174948 
L 407.340159 263.450207 
L 407.709532 264.174948 
L 408.078906 263.450207 
L 408.817652 263.450207 
L 409.187026 315.70221 
L 409.556399 314.471439 
L 409.925772 315.70221 
L 410.295146 314.471439 
L 410.664519 315.70221 
L 411.033892 271.652579 
L 411.403266 253.779058 
L 411.772639 271.652579 
L 412.142012 253.779058 
L 412.511386 253.779058 
L 412.880759 369.36 
L 413.619506 369.36 
L 413.988879 310.901654 
L 414.358252 310.901654 
L 414.727626 288.295958 
L 415.096999 288.295958 
L 415.466372 274.933734 
L 415.835746 273.371633 
L 415.466372 269.518887 
L 416.574492 269.518887 
L 416.943866 253.375678 
L 417.313239 246.865516 
L 417.682613 252.73997 
L 418.421359 252.73997 
L 418.790733 291.778789 
L 419.160106 369.36 
L 422.115093 369.36 
L 422.484466 260.7943 
L 422.853839 265.786027 
L 423.592586 265.786027 
L 423.223213 291.621152 
L 424.331333 291.621152 
L 424.700706 287.40143 
L 425.070079 285.723617 
L 425.439453 285.331037 
L 425.808826 285.331037 
L 426.178199 280.928801 
L 426.916946 280.928801 
L 427.28632 369.36 
L 427.655693 280.928801 
L 428.025066 272.756738 
L 428.763813 272.756738 
L 429.133186 272.077725 
L 429.50256 272.077725 
L 429.871933 229.154761 
L 430.980053 229.154761 
L 431.349426 280.852066 
L 431.7188 280.852066 
L 432.088173 296.034079 
L 432.457546 296.034079 
L 432.82692 280.852066 
L 433.196293 296.034079 
L 433.565666 296.034079 
L 433.93504 294.159249 
L 434.304413 294.159249 
L 434.673786 243.50199 
L 435.04316 287.232111 
L 436.520653 287.232111 
L 436.890026 369.36 
L 437.2594 266.746227 
L 437.998147 266.746227 
L 438.36752 254.130263 
L 439.106267 254.130263 
L 439.47564 248.72504 
L 439.845013 254.130263 
L 440.214387 261.596813 
L 440.58376 369.36 
L 441.322507 369.36 
L 442.061253 242.837271 
L 442.430627 236.867877 
L 443.169373 236.867877 
L 443.538747 242.837271 
L 443.90812 301.143984 
L 444.277493 301.143984 
L 444.646867 369.36 
L 445.754987 369.36 
L 446.12436 269.605154 
L 446.493733 369.36 
L 446.863107 369.36 
L 447.23248 269.605154 
L 447.601853 269.605154 
L 447.971227 256.316311 
L 448.709974 256.316311 
L 449.079347 369.36 
L 453.511827 369.36 
L 453.8812 297.026036 
L 454.250574 271.393504 
L 454.619947 271.393504 
L 454.98932 369.36 
L 464.223654 369.36 
L 464.593027 272.086986 
L 464.962401 369.36 
L 469.394881 369.36 
L 469.764254 230.418836 
L 470.133628 233.036733 
L 470.503001 229.917439 
L 470.872374 237.315002 
L 471.611121 237.315002 
L 471.980494 228.901314 
L 473.457988 228.901314 
L 473.827361 247.200752 
L 474.196734 247.200752 
L 474.566108 225.365187 
L 474.935481 247.200752 
L 474.196734 247.200752 
L 475.304854 252.84036 
L 475.674228 274.909523 
L 476.043601 256.347069 
L 476.412974 266.439775 
L 476.782348 369.36 
L 477.151721 369.36 
L 477.521094 266.439775 
L 477.890468 266.439775 
L 478.259841 369.36 
L 481.953575 369.36 
L 482.322948 276.649758 
L 482.692321 304.168049 
L 483.061695 304.168049 
L 483.431068 276.649758 
L 483.800441 369.36 
L 485.277935 369.36 
L 485.647308 314.179112 
L 486.016681 369.36 
L 487.494175 369.36 
L 487.863548 248.410805 
L 487.494175 248.410805 
L 488.232921 248.410805 
L 488.602295 369.36 
L 493.034775 369.36 
L 493.404148 333.638243 
L 494.512268 333.638243 
L 494.881642 253.664252 
L 494.142895 253.664252 
L 494.881642 246.476963 
L 495.251015 369.36 
L 495.989762 369.36 
L 496.359135 267.653001 
L 497.467255 267.653001 
L 497.836628 363.700591 
L 498.206002 369.36 
L 498.575375 369.36 
L 498.944748 363.700591 
L 499.314122 274.901321 
L 499.683495 274.901321 
L 500.052868 249.567582 
L 500.422242 246.948192 
L 501.530362 247.053317 
L 501.899735 369.36 
L 506.332215 369.36 
L 506.701589 226.865668 
L 507.070962 226.865668 
L 507.440335 247.154683 
L 507.809709 247.154683 
L 508.179082 248.750395 
L 508.548455 369.36 
L 508.917829 369.36 
L 509.287202 255.855288 
L 509.656575 255.855288 
L 510.025949 369.36 
L 517.413416 369.36 
L 517.782789 335.831092 
L 517.413416 335.831092 
L 518.152162 335.831092 
L 518.521536 357.963519 
L 518.890909 357.963519 
L 519.260282 369.36 
L 523.692763 369.36 
L 524.062136 344.576385 
L 524.431509 344.576385 
L 524.800883 369.36 
L 527.017123 369.36 
L 527.386496 252.334402 
L 527.755869 252.334402 
L 528.125243 369.36 
L 527.755869 369.36 
L 543.638923 369.36 
L 544.008297 338.692528 
L 544.747043 338.692528 
L 545.116417 369.36 
L 548.81015 369.36 
L 549.548897 277.720659 
L 550.657017 277.720659 
L 551.02639 369.36 
L 551.395763 268.130971 
L 551.765137 369.36 
L 552.503883 369.36 
L 552.873257 279.265346 
L 553.24263 279.265346 
L 553.612004 268.286968 
L 553.981377 268.286968 
L 554.35075 279.229873 
L 554.720124 279.229873 
L 555.089497 369.36 
L 566.540071 369.36 
L 566.909444 251.528911 
L 567.278817 369.36 
L 577.621271 369.36 
L 577.990644 344.181201 
L 577.621271 344.181201 
L 578.729391 344.181201 
L 579.098764 369.36 
L 580.206884 369.36 
L 580.576258 309.774811 
L 581.315004 309.774811 
L 581.684378 261.923806 
L 582.423124 369.36 
L 594.612445 369.36 
L 594.981818 247.50771 
L 595.351192 369.36 
L 595.720565 264.697885 
L 596.089938 264.697885 
L 596.459312 252.537291 
L 597.567432 252.537291 
L 597.936805 254.848078 
L 597.567432 369.36 
L 598.675552 369.36 
L 599.044925 341.960492 
L 599.414298 258.337706 
L 600.522418 258.337706 
L 600.891792 249.28409 
L 601.261165 259.78068 
L 601.630538 259.78068 
L 602.369285 262.117374 
L 602.738658 266.73027 
L 603.477405 266.73027 
L 603.846778 274.558129 
L 604.216152 274.558129 
L 604.585525 352.72038 
L 604.954898 361.766102 
L 605.324272 361.766102 
L 605.693645 328.566699 
L 606.432392 328.566699 
L 606.801765 303.7594 
L 607.171139 347.231913 
L 607.540512 369.36 
L 607.909885 351.829153 
L 608.279259 351.829153 
L 608.648632 338.866966 
L 609.756752 338.866966 
L 610.126125 363.555137 
L 610.495499 363.555137 
L 610.864872 306.427916 
L 611.234245 301.089878 
L 611.603619 291.744842 
L 611.972992 264.249531 
L 612.342365 291.744842 
L 612.711739 286.905929 
L 613.081112 313.157111 
L 613.450485 313.157111 
L 613.819859 369.36 
L 614.189232 369.36 
L 614.558605 284.643712 
L 615.297352 284.643712 
L 616.036099 311.651529 
L 616.405472 317.131501 
L 616.774846 332.778966 
L 618.252339 332.778966 
L 618.621712 369.36 
L 619.360459 369.36 
L 619.729832 292.532697 
L 620.468579 275.217188 
L 620.837952 272.973933 
L 621.946072 272.958579 
L 622.684819 248.474044 
L 623.054192 258.683153 
L 623.423566 250.087244 
L 623.792939 258.683153 
L 624.162312 259.384676 
L 624.531686 260.596635 
L 624.901059 291.446729 
L 625.270432 291.446729 
L 625.639806 369.36 
L 626.009179 288.041239 
L 626.378553 369.36 
L 626.747926 312.912827 
L 627.117299 311.410842 
L 627.486673 311.410842 
L 627.856046 281.927474 
L 628.225419 281.927474 
L 628.594793 305.106111 
L 628.964166 305.106111 
L 629.333539 359.62329 
L 629.702913 308.422293 
L 630.072286 308.422293 
L 630.441659 302.825512 
L 630.811033 302.825512 
L 631.180406 290.298534 
L 631.549779 302.825512 
L 631.919153 295.967697 
L 632.288526 295.967697 
L 632.657899 316.341336 
L 633.027273 316.341336 
L 633.396646 345.994349 
L 633.766019 347.818964 
L 634.135393 345.994349 
L 634.504766 345.994349 
L 634.874139 348.447588 
L 635.243513 348.447588 
L 635.612886 369.36 
L 635.982259 369.36 
L 636.721006 281.687759 
L 637.459753 281.687759 
L 637.829126 329.680051 
L 638.1985 330.297572 
L 638.567873 369.36 
L 640.784113 369.36 
L 641.153486 306.84246 
L 641.52286 301.56352 
L 641.892233 301.56352 
L 642.261606 280.021299 
L 642.63098 280.021299 
L 643.000353 293.37194 
L 643.369726 369.36 
L 643.7391 293.37194 
L 644.108473 293.37194 
L 644.477846 369.36 
L 644.84722 288.934285 
L 645.216593 280.671954 
L 645.585966 288.934285 
L 645.95534 369.36 
L 647.06346 369.36 
L 647.432833 298.877212 
L 647.802207 298.877212 
L 648.17158 369.36 
L 648.910327 369.36 
L 649.2797 348.209345 
L 649.649073 251.612478 
L 650.018447 259.288256 
L 650.38782 251.612478 
L 650.757193 260.234525 
L 651.126567 260.423038 
L 651.49594 262.631775 
L 651.865313 295.98646 
L 652.234687 295.98646 
L 652.60406 313.119923 
L 653.342807 313.119923 
L 653.71218 369.36 
L 654.081553 369.36 
L 654.450927 353.114456 
L 654.8203 353.114456 
L 655.189673 308.114684 
L 655.92842 308.114684 
L 656.297793 301.963081 
L 656.667167 369.36 
L 659.25278 369.36 
L 659.622154 299.568551 
L 659.991527 253.691952 
L 660.3609 256.107626 
L 661.099647 256.107626 
L 661.838394 310.533076 
L 662.207767 285.587013 
L 662.57714 313.97206 
L 662.946514 313.97206 
L 663.315887 369.36 
L 665.9015 369.36 
L 666.270874 267.464894 
L 666.640247 267.464894 
L 667.00962 263.278995 
L 667.378994 263.278995 
L 667.748367 293.581392 
L 668.117741 369.36 
L 671.072727 369.36 
L 671.442101 360.27082 
L 671.811474 360.27082 
L 672.180847 369.36 
L 675.135834 369.36 
L 675.505207 322.020133 
L 675.874581 313.608968 
L 676.243954 322.020133 
L 676.613327 304.626899 
L 677.352074 304.626899 
L 677.721447 369.36 
L 678.090821 279.100155 
L 678.460194 314.561313 
L 678.829568 369.36 
L 680.676434 369.36 
L 681.045808 285.261388 
L 681.415181 285.261388 
L 681.784554 286.235579 
L 682.153928 293.181157 
L 682.523301 366.377366 
L 682.892674 366.377366 
L 683.262048 369.36 
L 685.108914 369.36 
L 685.478288 294.247686 
L 685.847661 298.461539 
L 686.217034 294.247686 
L 686.586408 298.461539 
L 686.955781 298.461539 
L 687.325154 294.747907 
L 687.694528 294.747907 
L 688.063901 325.617462 
L 688.433274 369.36 
L 691.018888 369.36 
L 691.388261 251.846736 
L 691.757635 251.846736 
L 692.127008 369.36 
L 695.081995 369.36 
L 695.451368 289.471904 
L 695.820741 289.471904 
L 696.190115 369.36 
L 698.406355 369.36 
L 698.775728 357.159616 
L 699.514475 357.159616 
L 699.883848 244.847936 
L 700.253222 357.159616 
L 700.622595 369.36 
L 702.100088 369.36 
L 702.469462 260.850374 
L 702.838835 369.36 
L 711.703795 369.36 
L 712.073169 346.956629 
L 712.442542 369.36 
L 723.154369 369.36 
L 723.523742 257.854575 
L 723.893116 257.854575 
L 724.262489 369.36 
L 728.325596 369.36 
L 729.064342 246.01796 
L 729.803089 246.01796 
L 730.172462 258.832937 
L 730.541836 258.832937 
L 730.911209 247.487684 
L 731.280583 247.487684 
L 731.649956 258.832937 
L 732.019329 274.100582 
L 732.388703 369.36 
L 734.235569 369.36 
L 734.604943 272.994791 
L 734.974316 272.994791 
L 735.343689 270.574406 
L 735.713063 273.5658 
L 737.190556 273.5658 
L 737.559929 311.89023 
L 737.929303 369.36 
L 747.163636 369.36 
L 747.163636 369.36 
" style="fill:none;stroke:#1f77b4;stroke-linecap:square;stroke-width:1.5;"/>
   </g>
   <g id="line2d_15">
    <path clip-path="url(#p8497950e4d)" d="M 138.436364 284.011243 
L 138.805737 293.298793 
L 138.436364 286.403783 
L 139.544484 279.250585 
L 139.913857 265.136499 
L 140.28323 271.688144 
L 140.652604 286.108286 
L 141.021977 295.845651 
L 141.39135 309.311845 
L 141.021977 321.474039 
L 141.760724 263.158876 
L 142.130097 259.664477 
L 142.49947 272.651917 
L 142.868844 258.813955 
L 143.238217 265.476333 
L 143.60759 258.936517 
L 143.976964 270.571671 
L 144.346337 236.894671 
L 144.715711 251.780613 
L 145.454457 272.043425 
L 146.193204 263.013298 
L 146.562577 270.203691 
L 146.931951 284.525171 
L 147.301324 282.687597 
L 148.040071 303.916364 
L 148.409444 281.023713 
L 148.778817 295.137516 
L 149.148191 279.195822 
L 149.517564 274.458557 
L 150.625684 315.744146 
L 150.995057 326.493232 
L 151.364431 264.282004 
L 151.733804 266.91978 
L 152.103177 279.14213 
L 152.472551 280.235888 
L 152.841924 274.525571 
L 153.211297 200.001532 
L 153.950044 227.960473 
L 154.319417 212.047574 
L 155.058164 239.398053 
L 155.427538 234.014405 
L 156.166284 260.737706 
L 156.535658 264.882014 
L 156.905031 257.825178 
L 157.274404 257.232436 
L 157.643778 271.998183 
L 158.013151 242.68022 
L 158.382524 250.440102 
L 159.490644 290.891352 
L 160.229391 263.75446 
L 160.598764 240.125036 
L 160.968138 254.309291 
L 161.337511 249.025503 
L 161.706884 263.794124 
L 162.076258 266.664552 
L 163.184378 308.896347 
L 163.553751 281.207023 
L 163.923124 225.613276 
L 164.292498 249.073061 
L 164.661871 257.108785 
L 165.031244 255.830912 
L 165.400618 256.323921 
L 165.769991 255.828 
L 166.139365 255.882299 
L 166.508738 269.185771 
L 166.878111 260.964908 
L 167.247485 273.831546 
L 167.986231 261.521524 
L 168.355605 257.101626 
L 169.094351 282.630525 
L 169.463725 251.46015 
L 169.833098 253.902717 
L 170.202471 257.334389 
L 170.941218 286.348513 
L 171.310591 296.214732 
L 171.679965 223.553318 
L 172.049338 238.194067 
L 172.418711 267.00373 
L 172.788085 255.383012 
L 173.157458 251.585989 
L 173.896205 278.67978 
L 174.265578 259.727558 
L 175.004325 271.338703 
L 175.373698 256.744285 
L 175.743071 254.854581 
L 176.112445 267.876109 
L 176.481818 272.565972 
L 177.220565 249.34562 
L 177.589938 254.584594 
L 177.959312 269.214597 
L 178.328685 274.20837 
L 179.436805 307.905475 
L 179.806178 269.743486 
L 180.175552 260.327441 
L 180.544925 258.413882 
L 181.283672 282.71126 
L 181.653045 292.272536 
L 182.022418 264.047456 
L 182.391792 263.147174 
L 182.761165 275.833335 
L 183.130538 264.191638 
L 183.499912 266.907969 
L 184.238658 292.179957 
L 184.608032 300.448579 
L 184.977405 306.173611 
L 185.346778 267.090669 
L 185.716152 254.238327 
L 186.085525 259.652608 
L 186.454898 256.596325 
L 187.193645 258.913339 
L 187.932392 284.175641 
L 188.301765 293.959919 
L 187.932392 301.736761 
L 188.301765 306.365424 
L 189.040512 296.975453 
L 189.409885 286.840322 
L 189.779259 286.910106 
L 190.148632 259.508505 
L 190.518005 270.849349 
L 190.887379 292.931715 
L 191.256752 293.978052 
L 191.626125 295.42362 
L 191.995499 260.528327 
L 191.626125 271.521295 
L 192.364872 258.916351 
L 192.734245 271.970364 
L 193.103619 273.874255 
L 193.472992 254.790752 
L 193.842365 268.176402 
L 194.211739 187.721912 
L 195.689232 245.094134 
L 196.427979 267.114083 
L 196.797352 268.129262 
L 197.536099 286.395526 
L 197.905472 259.434965 
L 198.274846 271.022906 
L 198.644219 262.671382 
L 199.013592 262.228777 
L 199.382966 274.971564 
L 199.752339 266.781859 
L 200.860459 299.280854 
L 201.599206 258.177 
L 201.968579 260.53378 
L 202.707326 281.733239 
L 203.815446 317.630773 
L 204.184819 322.371198 
L 204.554192 325.190173 
L 204.923566 326.730137 
L 205.292939 327.515501 
L 205.662312 259.348699 
L 206.031686 272.671013 
L 206.401059 261.848992 
L 206.031686 274.629682 
L 206.770432 285.848943 
L 207.139806 266.67439 
L 208.247926 303.178778 
L 208.617299 303.317248 
L 208.986673 306.349208 
L 209.725419 300.491711 
L 210.094793 297.614011 
L 210.464166 309.069785 
L 210.833539 305.542604 
L 211.572286 301.818207 
L 211.941659 300.999577 
L 212.311033 304.239694 
L 212.680406 270.374471 
L 213.049779 265.95367 
L 213.419153 280.537385 
L 213.788526 287.779707 
L 214.157899 284.725425 
L 214.527273 280.018549 
L 214.896646 251.140624 
L 215.266019 253.723343 
L 214.896646 238.352522 
L 215.635393 252.602956 
L 216.374139 273.92793 
L 216.743513 288.61393 
L 217.112886 267.727883 
L 217.482259 285.031203 
L 217.851633 290.542356 
L 218.221006 290.754768 
L 218.59038 304.062158 
L 218.959753 69.516957 
L 223.392233 247.154457 
L 223.761606 250.063843 
L 224.500353 275.45448 
L 224.869726 282.4494 
L 225.2391 285.227005 
L 225.608473 290.844355 
L 225.977846 265.705447 
L 226.34722 275.573096 
L 225.977846 287.200704 
L 226.716593 300.358354 
L 227.085966 310.106696 
L 227.45534 295.765148 
L 227.824713 295.543709 
L 228.194086 302.552343 
L 228.56346 296.233669 
L 228.932833 292.490515 
L 229.67158 312.604699 
L 230.040953 311.143664 
L 230.410327 322.599087 
L 230.7797 296.457501 
L 231.149073 303.17926 
L 231.518447 312.285017 
L 231.88782 264.460371 
L 232.257193 278.450256 
L 232.626567 281.453068 
L 232.99594 271.682887 
L 233.365313 283.613966 
L 233.734687 241.322879 
L 234.10406 255.459377 
L 234.473433 261.395211 
L 234.842807 276.237362 
L 235.21218 280.155008 
L 235.950927 250.828372 
L 236.3203 264.482036 
L 236.689673 263.537737 
L 237.059047 276.145232 
L 237.42842 254.698812 
L 237.797793 268.09121 
L 238.167167 261.628683 
L 238.53654 251.158178 
L 238.905914 262.048982 
L 239.275287 251.287033 
L 240.014034 256.550354 
L 239.275287 251.722308 
L 240.383407 254.04902 
L 240.75278 255.313133 
L 241.491527 225.163288 
L 241.8609 239.998308 
L 242.230274 230.747284 
L 242.96902 257.682385 
L 243.338394 253.077248 
L 243.707767 241.262866 
L 244.07714 255.558186 
L 244.446514 256.099887 
L 244.815887 66.96 
L 245.18526 82.000142 
L 245.924007 97.036813 
L 248.140247 186.709815 
L 249.248367 221.486032 
L 249.987114 250.611347 
L 250.356487 276.993604 
L 250.725861 227.14748 
L 251.095234 241.797381 
L 251.464607 206.615707 
L 252.203354 219.596757 
L 252.942101 240.257268 
L 253.311474 247.840391 
L 253.680847 245.903345 
L 254.050221 259.491384 
L 254.419594 218.136967 
L 255.158341 244.381545 
L 255.527714 242.929418 
L 256.266461 270.523732 
L 256.635834 253.733761 
L 257.374581 264.313689 
L 257.743954 251.952007 
L 258.113327 266.865021 
L 258.482701 275.32659 
L 258.852074 269.129298 
L 259.221447 289.541818 
L 259.590821 278.014405 
L 260.329568 268.492027 
L 260.698941 257.11418 
L 261.068314 237.213328 
L 261.437688 238.325662 
L 261.807061 247.240585 
L 262.176434 262.179022 
L 262.545808 268.506999 
L 262.915181 283.271534 
L 263.284554 304.391308 
L 263.653928 264.997033 
L 264.023301 257.408149 
L 264.392674 257.028539 
L 264.762048 256.979786 
L 265.131421 243.409479 
L 265.500794 257.456506 
L 265.870168 246.670536 
L 266.239541 254.0012 
L 266.608914 268.901325 
L 267.347661 247.042943 
L 267.717034 261.982332 
L 268.086408 235.953033 
L 268.455781 250.285141 
L 268.825154 246.241742 
L 269.194528 250.967662 
L 269.563901 249.355847 
L 269.933274 263.103806 
L 270.302648 228.808375 
L 271.041395 255.925046 
L 271.410768 251.469846 
L 271.780141 253.908142 
L 272.149515 257.834988 
L 272.888261 280.693103 
L 273.257635 274.411508 
L 273.627008 275.262387 
L 273.996381 250.721535 
L 274.365755 249.198446 
L 274.735128 262.871193 
L 275.104501 252.870618 
L 275.473875 238.356467 
L 275.104501 236.314449 
L 275.843248 250.634805 
L 276.212621 253.437025 
L 276.581995 257.412313 
L 276.951368 237.98078 
L 275.473875 251.082108 
L 277.320741 256.305219 
L 278.059488 260.207483 
L 278.428861 260.230193 
L 278.798235 273.165887 
L 279.167608 263.377127 
L 279.906355 260.380542 
L 280.275728 272.327791 
L 280.645102 250.181573 
L 281.014475 257.634794 
L 281.383848 261.797803 
L 282.122595 284.632193 
L 282.491968 266.41727 
L 282.861342 277.692518 
L 283.230715 277.044495 
L 283.600088 264.538873 
L 283.969462 245.441493 
L 284.338835 255.944722 
L 284.708208 256.033947 
L 285.077582 264.210005 
L 285.446955 275.988471 
L 286.185702 260.23497 
L 286.555075 263.894482 
L 286.924448 260.904441 
L 287.293822 253.361843 
L 287.663195 257.995374 
L 288.032568 260.325394 
L 288.401942 258.412945 
L 288.771315 260.55685 
L 289.140688 273.462103 
L 289.510062 256.399423 
L 289.879435 229.887013 
L 290.248808 237.738679 
L 290.618182 238.883981 
L 290.987555 243.02779 
L 291.356929 244.716235 
L 291.726302 212.210183 
L 292.834422 242.943199 
L 293.203795 241.152364 
L 293.573169 247.548108 
L 293.942542 243.903933 
L 294.311915 197.060072 
L 295.050662 222.4558 
L 295.420035 230.718097 
L 295.789409 242.988173 
L 296.158782 246.466777 
L 296.528155 244.658043 
L 296.897529 249.838086 
L 297.266902 252.980183 
L 296.528155 206.438614 
L 297.636275 218.470092 
L 298.744395 242.464392 
L 299.113769 244.957786 
L 299.483142 245.751487 
L 299.852515 250.525771 
L 300.221889 227.816898 
L 301.699382 262.51891 
L 302.068756 259.38977 
L 302.438129 257.215338 
L 302.807502 258.864258 
L 303.176876 257.731769 
L 303.546249 257.148424 
L 303.915622 252.007201 
L 304.284996 249.063704 
L 304.654369 255.666926 
L 304.284996 250.586212 
L 305.023742 233.80426 
L 305.762489 249.238525 
L 306.501236 274.917757 
L 306.870609 237.473594 
L 307.239982 242.018863 
L 307.609356 141.557992 
L 308.717476 186.328309 
L 309.456222 200.53847 
L 308.717476 215.209422 
L 309.825596 225.001265 
L 310.194969 237.184389 
L 310.564342 239.436981 
L 311.303089 252.907402 
L 311.672462 266.426134 
L 312.041836 227.297236 
L 312.411209 237.350114 
L 313.149956 249.48284 
L 313.519329 254.952543 
L 313.888703 245.06494 
L 314.627449 270.176046 
L 314.996823 280.060492 
L 315.735569 258.68302 
L 316.104943 256.737048 
L 316.474316 265.469568 
L 316.843689 258.546467 
L 317.213063 270.787248 
L 317.582436 273.389138 
L 317.951809 263.50377 
L 318.321183 276.114869 
L 318.690556 273.288018 
L 319.059929 252.296228 
L 319.429303 261.068296 
L 319.798676 273.925045 
L 320.168049 258.837595 
L 320.537423 271.898496 
L 320.906796 273.545054 
L 321.276169 285.456482 
L 321.645543 278.601825 
L 322.014916 246.169729 
L 322.384289 250.785399 
L 322.753663 253.522571 
L 323.123036 255.032532 
L 323.49241 238.712452 
L 323.861783 252.949865 
L 324.60053 241.861311 
L 324.969903 249.75383 
L 325.339276 248.742011 
L 326.078023 271.952705 
L 326.447396 283.49231 
L 326.81677 252.572572 
L 327.186143 262.939621 
L 327.92489 270.866273 
L 328.294263 227.494715 
L 328.663636 242.053927 
L 329.03301 251.699148 
L 329.402383 246.292256 
L 329.771756 247.059808 
L 330.14113 235.143465 
L 329.771756 244.721624 
L 330.510503 258.70803 
L 330.879876 259.460652 
L 331.24925 272.466438 
L 331.618623 256.844768 
L 331.987996 261.915358 
L 332.35737 236.328173 
L 332.726743 244.5077 
L 333.46549 240.50214 
L 335.312357 290.899315 
L 335.68173 288.412039 
L 336.051103 297.628546 
L 336.420477 273.438097 
L 336.78985 269.618806 
L 337.159223 267.677795 
L 337.528597 280.291355 
L 337.89797 269.713597 
L 338.267343 278.874867 
L 338.636717 273.815807 
L 339.00609 263.582014 
L 339.375463 269.431231 
L 339.744837 257.64461 
L 340.11421 270.807093 
L 340.483583 263.243046 
L 340.852957 275.881641 
L 341.22233 281.607263 
L 341.591703 284.047085 
L 341.961077 86.668709 
L 344.916064 204.106977 
L 346.393557 238.766362 
L 347.501677 270.8717 
L 347.87105 267.47895 
L 348.240424 265.962757 
L 348.609797 268.278804 
L 348.97917 272.833574 
L 349.348544 247.857043 
L 349.717917 242.954583 
L 350.08729 257.021823 
L 350.826037 249.544593 
L 351.19541 252.810093 
L 351.564784 254.484079 
L 351.934157 255.542623 
L 352.30353 225.213853 
L 352.672904 238.597523 
L 353.042277 245.910649 
L 353.781024 270.108802 
L 354.150397 261.626868 
L 354.519771 248.710091 
L 354.889144 249.929428 
L 355.258517 254.864574 
L 355.627891 263.775654 
L 355.997264 259.924865 
L 356.366637 241.17052 
L 355.997264 247.560296 
L 356.736011 251.634886 
L 357.105384 249.619394 
L 357.474757 252.853534 
L 357.844131 254.671349 
L 358.213504 264.663648 
L 358.952251 273.644414 
L 359.321624 242.672377 
L 360.060371 270.294436 
L 360.429744 252.605461 
L 360.799117 266.144547 
L 361.168491 272.386372 
L 361.907237 278.776957 
L 362.276611 279.826221 
L 362.645984 279.250347 
L 362.276611 289.537744 
L 363.015357 267.387061 
L 363.384731 274.350355 
L 363.754104 264.287177 
L 364.123477 263.444237 
L 364.492851 276.06164 
L 364.862224 278.471451 
L 365.231598 277.968308 
L 365.600971 278.554086 
L 365.970344 258.175549 
L 366.339718 266.697743 
L 367.078464 290.049441 
L 367.447838 270.189953 
L 367.817211 276.133738 
L 368.186584 287.017561 
L 368.555958 274.660597 
L 368.925331 285.777786 
L 369.294704 259.344688 
L 369.664078 257.483549 
L 370.033451 270.659359 
L 370.402824 220.338881 
L 370.772198 231.650508 
L 371.141571 229.893132 
L 372.249691 260.2534 
L 372.619064 273.186946 
L 373.357811 251.45304 
L 373.727184 253.898738 
L 374.096558 237.142213 
L 375.574051 267.369318 
L 375.943425 272.597834 
L 376.682171 261.276288 
L 377.051545 274.113014 
L 377.420918 260.898602 
L 377.051545 247.661023 
L 377.790291 249.006978 
L 378.159665 252.49602 
L 378.529038 254.476245 
L 378.898411 252.364856 
L 379.267785 262.229581 
L 379.637158 256.468253 
L 380.006531 230.776058 
L 380.375905 238.004948 
L 380.745278 230.599508 
L 381.114651 242.047454 
L 381.484025 221.410166 
L 382.592145 256.947361 
L 383.330891 263.555079 
L 383.700265 276.57006 
L 384.439011 261.735733 
L 384.808385 266.791875 
L 385.177758 262.314028 
L 385.547132 259.300846 
L 385.916505 263.369718 
L 386.655252 258.746446 
L 386.285878 257.675778 
L 387.024625 260.765647 
L 387.393998 260.553516 
L 387.763372 260.659354 
L 388.132745 260.24253 
L 388.502118 258.374968 
L 388.871492 258.833135 
L 389.240865 268.193558 
L 389.610238 237.340916 
L 389.979612 251.626848 
L 390.348985 249.615731 
L 390.718358 252.851409 
L 391.087732 250.961989 
L 391.457105 230.05901 
L 391.826478 244.558226 
L 392.195852 227.47672 
L 392.934598 255.515594 
L 393.303972 257.325956 
L 393.673345 248.362011 
L 394.042718 246.377207 
L 394.781465 262.245923 
L 395.520212 256.48644 
L 395.889585 269.742762 
L 396.258959 226.233699 
L 396.628332 238.812854 
L 396.997705 235.219446 
L 397.736452 257.250925 
L 398.105825 270.445823 
L 398.475199 256.27597 
L 398.844572 269.548856 
L 399.583319 256.584634 
L 400.322065 264.979036 
L 400.691439 267.145181 
L 401.060812 169.982583 
L 401.430185 195.859431 
L 402.538305 233.284183 
L 402.907679 233.297975 
L 403.277052 229.408948 
L 404.015799 254.204302 
L 404.754545 271.576996 
L 405.123919 270.539732 
L 405.493292 263.31649 
L 405.862665 277.914788 
L 406.232039 268.720791 
L 406.601412 274.790738 
L 406.970786 285.886335 
L 407.340159 274.934747 
L 407.709532 201.253478 
L 409.187026 249.264766 
L 409.556399 240.184687 
L 409.925772 251.239639 
L 410.295146 243.700961 
L 410.664519 254.124362 
L 411.033892 256.897176 
L 411.403266 242.83891 
L 411.772639 237.576934 
L 412.142012 245.084015 
L 412.880759 269.747211 
L 413.250132 244.84989 
L 413.619506 251.882332 
L 413.988879 254.13794 
L 414.358252 225.992145 
L 415.096999 247.966271 
L 415.466372 251.878884 
L 415.835746 259.033365 
L 415.466372 257.811859 
L 416.205119 252.218491 
L 416.574492 238.411857 
L 416.943866 243.682392 
L 417.313239 240.821408 
L 417.682613 254.982194 
L 418.051986 260.440462 
L 418.790733 283.59194 
L 419.529479 247.73037 
L 419.898853 248.617564 
L 420.268226 242.185674 
L 421.006973 244.145947 
L 421.376346 249.511619 
L 421.745719 232.391956 
L 421.376346 84.548845 
L 422.115093 99.580706 
L 423.592586 159.322541 
L 423.223213 174.122705 
L 423.961959 188.185561 
L 425.070079 227.064414 
L 425.808826 246.350766 
L 426.178199 250.89719 
L 426.547573 200.005115 
L 427.28632 213.979117 
L 427.655693 203.016968 
L 428.025066 217.20471 
L 428.39444 191.234635 
L 429.50256 228.03922 
L 429.871933 206.388189 
L 430.241306 219.389768 
L 431.349426 230.848605 
L 431.7188 213.996134 
L 432.088173 223.198957 
L 432.457546 236.768425 
L 432.82692 238.090376 
L 433.196293 218.482402 
L 433.565666 230.076962 
L 433.93504 246.444989 
L 434.304413 250.955232 
L 434.673786 238.451325 
L 435.04316 248.560167 
L 435.412533 198.719227 
L 436.15128 206.560127 
L 436.890026 231.60822 
L 437.2594 237.215335 
L 437.628773 244.827876 
L 437.998147 245.212236 
L 438.36752 242.167654 
L 438.736893 248.224461 
L 439.106267 233.85762 
L 439.47564 242.391376 
L 439.845013 238.697089 
L 440.214387 245.869512 
L 440.58376 213.680668 
L 440.953133 211.942161 
L 441.322507 235.078885 
L 441.69188 243.289503 
L 442.061253 232.473559 
L 442.8 247.685679 
L 443.169373 232.970805 
L 443.538747 225.101051 
L 443.90812 235.587311 
L 444.646867 247.335715 
L 445.01624 247.55438 
L 445.385613 167.38351 
L 445.01624 182.075057 
L 445.754987 195.508432 
L 446.12436 209.24296 
L 446.863107 218.388475 
L 447.23248 219.482617 
L 447.971227 239.979167 
L 448.3406 216.113493 
L 448.709974 217.604638 
L 449.079347 219.655995 
L 449.44872 225.693863 
L 449.818094 225.388922 
L 450.187467 235.653285 
L 450.55684 215.01083 
L 450.926214 226.971202 
L 449.818094 234.970449 
L 451.295587 243.210301 
L 451.66496 227.1625 
L 452.403707 223.333683 
L 452.77308 222.616198 
L 453.142454 223.753617 
L 453.511827 238.38881 
L 453.8812 245.654544 
L 454.250574 250.138455 
L 454.98932 245.987826 
L 456.09744 230.777059 
L 456.466814 245.260744 
L 456.836187 232.017223 
L 457.574934 246.398822 
L 457.944307 210.595442 
L 458.31368 207.048577 
L 459.052427 229.278415 
L 459.421801 242.165759 
L 459.791174 232.126011 
L 460.160547 232.654873 
L 460.529921 241.493971 
L 460.899294 231.224343 
L 461.268667 245.693922 
L 461.638041 250.349734 
L 462.007414 219.393838 
L 462.376787 215.060703 
L 462.746161 222.065835 
L 463.484907 241.82407 
L 463.854281 244.596323 
L 464.223654 243.662625 
L 464.593027 218.989382 
L 464.962401 217.847447 
L 465.331774 224.080903 
L 465.701147 221.204653 
L 466.070521 211.639044 
L 466.809267 233.397934 
L 467.178641 216.188441 
L 467.548014 223.130356 
L 467.917387 233.976391 
L 468.286761 231.271133 
L 468.656134 237.9908 
L 469.025508 182.535395 
L 469.394881 195.589816 
L 469.764254 191.454486 
L 470.133628 188.974637 
L 470.872374 218.023712 
L 471.611121 221.972302 
L 471.980494 228.891096 
L 472.349868 238.606858 
L 473.088614 213.354901 
L 473.457988 228.361983 
L 473.827361 238.191827 
L 474.196734 225.515647 
L 474.566108 233.908643 
L 474.935481 248.303767 
L 474.196734 251.73179 
L 475.304854 234.555028 
L 476.043601 262.063196 
L 476.412974 264.141352 
L 476.782348 218.686771 
L 477.151721 228.683967 
L 477.521094 223.121315 
L 478.259841 243.056654 
L 478.629214 216.20857 
L 478.998588 223.545806 
L 479.737335 242.731662 
L 480.106708 219.470713 
L 480.476081 229.302924 
L 480.845455 243.820554 
L 481.214828 249.30273 
L 481.584201 248.147175 
L 481.953575 238.573467 
L 482.322948 245.78342 
L 482.692321 259.718149 
L 483.061695 226.038621 
L 483.431068 221.503613 
L 484.169815 247.550892 
L 484.539188 247.662791 
L 484.908561 251.696659 
L 485.277935 254.03474 
L 485.647308 217.90832 
L 486.016681 232.639253 
L 486.386055 238.913674 
L 486.755428 225.851504 
L 487.124801 234.15535 
L 487.494175 228.661724 
L 487.863548 236.179075 
L 488.232921 232.569693 
L 488.602295 241.42994 
L 489.341041 268.893809 
L 489.710415 235.042566 
L 489.341041 227.819152 
L 490.079788 224.888949 
L 490.449162 235.415222 
L 490.818535 249.764469 
L 491.557282 234.24448 
L 490.818535 248.629642 
L 491.926655 108.214719 
L 492.665402 138.170694 
L 493.034775 168.161178 
L 493.773522 197.403099 
L 494.881642 228.765331 
L 494.142895 236.252269 
L 494.881642 240.09977 
L 495.251015 254.285005 
L 495.620388 250.833032 
L 495.989762 257.65281 
L 496.359135 249.158243 
L 496.728508 234.962627 
L 497.097882 229.590661 
L 497.467255 244.101357 
L 497.836628 232.886916 
L 498.206002 241.668086 
L 498.575375 234.227393 
L 498.944748 239.357298 
L 499.314122 246.326761 
L 499.683495 217.861456 
L 500.052868 228.027314 
L 500.422242 250.212557 
L 501.160989 276.887543 
L 501.530362 269.383454 
L 501.899735 272.812946 
L 502.269109 252.078496 
L 502.638482 259.049251 
L 503.007855 257.819366 
L 503.377229 254.300465 
L 503.746602 254.481765 
L 504.115975 256.086997 
L 504.485349 269.374629 
L 504.854722 256.050592 
L 505.224095 253.936679 
L 505.593469 252.988682 
L 505.962842 233.587921 
L 506.332215 229.467613 
L 506.701589 239.056572 
L 507.070962 240.279031 
L 507.440335 234.272563 
L 507.809709 249.176391 
L 508.179082 247.913755 
L 508.548455 262.778395 
L 508.917829 259.38889 
L 509.287202 257.555014 
L 510.025949 282.994692 
L 510.395322 311.168062 
L 510.764695 239.920586 
L 511.134069 245.583748 
L 511.503442 260.441689 
L 511.872816 253.640404 
L 512.242189 250.204621 
L 512.611562 235.44546 
L 513.350309 243.556457 
L 513.719682 257.596867 
L 514.089056 252.228059 
L 514.827802 281.507355 
L 515.197176 265.703131 
L 515.566549 237.65071 
L 515.935922 227.742263 
L 516.674669 245.173001 
L 517.044042 236.727776 
L 517.413416 251.662615 
L 517.782789 247.949342 
L 517.413416 262.731185 
L 518.152162 275.422907 
L 518.521536 289.552152 
L 518.890909 259.863294 
L 519.629656 284.24195 
L 519.999029 263.519736 
L 520.368402 254.250045 
L 520.737776 234.458404 
L 521.476523 288.334358 
L 521.845896 302.237235 
L 522.215269 244.702067 
L 522.584643 259.568808 
L 522.954016 258.063284 
L 524.062136 301.045163 
L 524.431509 269.059173 
L 524.800883 283.526848 
L 525.170256 292.90339 
L 525.909003 318.714065 
L 526.278376 276.097298 
L 526.647749 257.611209 
L 527.017123 271.210655 
L 527.386496 256.472453 
L 527.755869 259.334792 
L 528.125243 256.528311 
L 527.755869 269.78132 
L 528.494616 256.101052 
L 528.863989 239.490794 
L 529.602736 267.87051 
L 529.972109 237.301678 
L 530.341483 251.720055 
L 530.710856 280.119793 
L 531.449603 235.909758 
L 531.818976 224.676991 
L 531.080229 239.294606 
L 532.557723 253.510514 
L 533.29647 252.38835 
L 533.665843 250.958799 
L 534.035216 259.264139 
L 534.773963 243.398227 
L 535.143336 250.950978 
L 535.51271 249.305091 
L 535.882083 252.670576 
L 536.251456 213.190137 
L 536.62083 227.981811 
L 536.990203 232.43245 
L 537.72895 247.664955 
L 538.098323 253.062216 
L 538.467696 250.258151 
L 537.359576 233.59543 
L 538.83707 229.726042 
L 539.206443 236.926064 
L 539.575816 224.225194 
L 539.94519 238.851501 
L 540.314563 240.312855 
L 540.683936 231.816086 
L 540.314563 238.360668 
L 541.05331 252.61081 
L 541.422683 266.317205 
L 541.792056 260.953067 
L 542.16143 246.574414 
L 542.900177 270.781455 
L 543.26955 282.49462 
L 543.638923 258.826613 
L 544.747043 298.351194 
L 545.116417 243.629521 
L 545.48579 235.406806 
L 545.855163 230.961804 
L 546.224537 237.77953 
L 546.59391 252.050267 
L 546.963283 243.750261 
L 547.332657 220.056427 
L 547.70203 216.177948 
L 548.440777 237.982494 
L 548.81015 231.506693 
L 549.179523 238.151044 
L 549.548897 252.408676 
L 550.287643 209.271236 
L 550.657017 221.997693 
L 551.02639 224.562978 
L 551.395763 229.446715 
L 551.765137 244.41372 
L 552.503883 255.091548 
L 552.873257 257.532348 
L 553.24263 254.470338 
L 553.612004 255.535408 
L 553.981377 234.850271 
L 554.35075 246.07906 
L 554.720124 225.723181 
L 555.828244 254.639082 
L 556.197617 234.535994 
L 556.56699 248.912389 
L 556.936364 254.705967 
L 557.305737 255.658829 
L 557.67511 238.14705 
L 558.413857 253.056836 
L 558.78323 255.698333 
L 559.152604 255.235603 
L 559.521977 253.276007 
L 559.89135 253.832116 
L 560.260724 255.197907 
L 560.99947 241.587867 
L 561.368844 256.435917 
L 561.738217 251.676429 
L 562.10759 265.523484 
L 562.846337 216.232411 
L 563.585084 242.98091 
L 563.954457 221.302238 
L 564.323831 236.044454 
L 564.693204 265.885358 
L 565.062577 280.335366 
L 565.431951 265.414375 
L 565.801324 280.049422 
L 566.170697 238.472175 
L 566.540071 253.397485 
L 566.909444 250.404831 
L 567.278817 253.305891 
L 567.648191 241.309836 
L 568.386937 254.38293 
L 568.756311 250.87474 
L 569.125684 263.016889 
L 569.495057 252.629568 
L 570.233804 240.161039 
L 570.603177 254.343895 
L 569.495057 231.296872 
L 570.972551 240.465778 
L 571.711297 228.359984 
L 572.080671 236.78375 
L 572.450044 249.750701 
L 572.819417 242.490815 
L 573.188791 250.304528 
L 573.558164 265.144477 
L 573.927538 263.307451 
L 574.296911 276.344415 
L 575.405031 242.815266 
L 575.774404 248.650329 
L 576.143778 217.337547 
L 576.513151 232.316989 
L 576.882524 234.702157 
L 577.251898 233.995779 
L 577.621271 242.493648 
L 577.990644 257.452707 
L 577.621271 252.079007 
L 578.360018 254.290623 
L 578.729391 218.819279 
L 579.468138 248.207187 
L 579.837511 219.200077 
L 580.576258 254.898767 
L 581.315004 231.948737 
L 581.684378 240.961278 
L 582.053751 255.266751 
L 582.423124 109.879976 
L 585.747485 241.727426 
L 586.116858 239.249448 
L 586.486231 245.607885 
L 586.855605 246.702612 
L 587.224978 246.14886 
L 587.594351 240.00743 
L 587.963725 243.545666 
L 588.333098 244.315013 
L 588.702471 246.013143 
L 589.071845 242.512068 
L 589.441218 256.598586 
L 589.810591 246.405962 
L 590.179965 242.711526 
L 590.549338 241.045394 
L 590.918711 247.476236 
L 591.288085 261.323449 
L 591.657458 249.125692 
L 592.026831 245.653649 
L 592.396205 254.103891 
L 592.765578 69.515713 
L 596.459312 216.11929 
L 597.198058 236.870905 
L 597.567432 244.333037 
L 597.936805 249.316582 
L 597.567432 248.532246 
L 597.936805 246.680706 
L 598.306178 251.246191 
L 598.675552 266.043456 
L 599.044925 253.171684 
L 599.414298 266.672382 
L 599.783672 264.558751 
L 600.153045 277.482258 
L 600.891792 255.460958 
L 601.261165 268.796604 
L 601.630538 261.887883 
L 601.999912 262.084421 
L 602.369285 261.602684 
L 602.738658 262.333865 
L 603.477405 291.127388 
L 604.216152 245.879376 
L 604.954898 260.733017 
L 605.324272 265.241416 
L 605.693645 217.40538 
L 606.063019 247.339004 
L 606.432392 261.193555 
L 606.801765 234.809246 
L 607.171139 249.070285 
L 607.909885 243.66891 
L 609.387379 298.94852 
L 609.756752 299.314051 
L 610.126125 303.958236 
L 610.864872 310.016682 
L 611.234245 306.622565 
L 611.603619 305.104806 
L 611.972992 269.487421 
L 612.342365 295.582812 
L 612.711739 287.342565 
L 613.081112 233.455885 
L 613.819859 251.436017 
L 614.189232 266.236812 
L 614.558605 290.759933 
L 614.927979 298.248324 
L 615.297352 278.374446 
L 615.666726 264.904447 
L 616.405472 293.768817 
L 616.774846 277.393935 
L 617.144219 288.034334 
L 617.513592 292.938167 
L 618.252339 257.387156 
L 618.621712 272.263148 
L 618.991086 181.283423 
L 620.837952 247.409126 
L 621.207326 251.543565 
L 621.576699 261.386329 
L 621.946072 248.629207 
L 622.315446 247.206987 
L 622.684819 261.068556 
L 623.054192 260.21029 
L 623.423566 258.360171 
L 623.792939 259.266149 
L 624.531686 284.373035 
L 624.901059 257.22302 
L 625.270432 270.733701 
L 626.009179 273.61318 
L 626.747926 294.893986 
L 627.117299 286.126201 
L 627.486673 259.395875 
L 628.225419 283.586083 
L 628.594793 285.917675 
L 628.964166 294.721017 
L 629.333539 134.529532 
L 630.441659 179.401493 
L 631.180406 194.391754 
L 631.549779 208.505003 
L 631.919153 236.764433 
L 632.657899 266.492988 
L 633.027273 261.021543 
L 633.766019 290.389917 
L 634.135393 290.318927 
L 634.504766 304.120186 
L 634.874139 290.155749 
L 635.243513 285.527879 
L 635.612886 259.357309 
L 635.982259 268.660691 
L 636.721006 277.076648 
L 637.09038 279.242035 
L 637.459753 293.839904 
L 637.829126 300.376618 
L 638.1985 297.869125 
L 638.567873 311.153265 
L 638.937246 276.265457 
L 639.675993 297.152032 
L 640.045366 303.971829 
L 640.41474 269.375031 
L 640.784113 281.296195 
L 641.153486 249.661686 
L 641.892233 273.350054 
L 642.63098 295.20034 
L 643.000353 289.68326 
L 643.369726 292.267181 
L 643.7391 272.462807 
L 644.108473 276.181541 
L 644.477846 287.057018 
L 644.84722 271.311665 
L 645.585966 299.615742 
L 645.95534 289.887259 
L 646.694086 267.449625 
L 647.432833 288.10806 
L 647.802207 302.046353 
L 648.17158 293.977779 
L 648.540953 268.122905 
L 648.910327 282.633933 
L 649.2797 278.305723 
L 650.018447 255.353456 
L 650.38782 260.298298 
L 651.126567 281.754693 
L 651.865313 308.811183 
L 652.60406 261.552865 
L 653.342807 283.54067 
L 653.71218 283.630131 
L 654.081553 292.982894 
L 654.450927 318.570938 
L 654.8203 281.041438 
L 655.189673 290.964479 
L 655.559047 304.235837 
L 655.92842 298.131111 
L 656.297793 304.637312 
L 656.667167 308.806641 
L 657.405914 330.4146 
L 657.775287 324.510547 
L 658.14466 270.767196 
L 658.514034 273.571353 
L 658.883407 267.420126 
L 659.25278 279.593252 
L 659.622154 258.311207 
L 659.991527 246.447772 
L 660.3609 261.247015 
L 660.730274 264.362612 
L 661.099647 276.881022 
L 661.46902 275.785313 
L 661.838394 268.227625 
L 662.207767 266.855164 
L 662.57714 279.5544 
L 662.946514 248.712165 
L 663.315887 263.569956 
L 663.68526 262.968365 
L 664.054634 264.052376 
L 664.424007 254.476819 
L 664.79338 249.469985 
L 665.162754 263.42987 
L 665.9015 263.257985 
L 666.640247 289.105931 
L 667.00962 270.515994 
L 667.748367 289.185366 
L 668.117741 284.426361 
L 668.487114 289.402531 
L 669.225861 315.032532 
L 669.595234 321.157528 
L 669.964607 317.895331 
L 670.333981 276.505553 
L 670.703354 287.979221 
L 671.072727 273.724034 
L 671.442101 285.730232 
L 671.811474 293.852727 
L 672.180847 272.853197 
L 672.919594 293.477056 
L 673.288967 288.391738 
L 673.658341 273.830228 
L 674.027714 288.51782 
L 674.397087 296.641658 
L 675.135834 322.018241 
L 675.505207 322.019187 
L 675.874581 310.912623 
L 676.243954 315.77628 
L 676.613327 261.893124 
L 677.352074 289.167171 
L 677.721447 280.736898 
L 678.090821 295.292581 
L 678.460194 301.381286 
L 678.829568 298.127304 
L 679.198941 292.731117 
L 679.937688 293.442034 
L 680.307061 268.04066 
L 680.676434 280.123239 
L 681.045808 280.395863 
L 681.415181 290.452998 
L 681.784554 292.926212 
L 682.153928 293.05331 
L 682.523301 254.36628 
L 682.892674 256.060129 
L 683.262048 269.357578 
L 683.631421 274.285667 
L 684.000794 288.599134 
L 684.370168 249.70643 
L 684.739541 264.627672 
L 685.108914 271.199792 
L 685.478288 282.008862 
L 685.847661 234.146239 
L 686.586408 260.625735 
L 686.955781 252.590666 
L 687.325154 259.46539 
L 687.694528 269.649875 
L 688.063901 284.470039 
L 688.802648 270.913526 
L 689.541395 292.19217 
L 689.910768 286.751483 
L 690.280141 289.12708 
L 690.649515 238.02814 
L 691.018888 252.290131 
L 691.388261 254.363224 
L 691.757635 268.057398 
L 692.127008 258.503431 
L 692.496381 261.676414 
L 692.865755 274.47413 
L 693.235128 257.254605 
L 693.604501 261.911274 
L 693.973875 259.124654 
L 694.343248 262.999716 
L 694.712621 247.238862 
L 695.451368 270.310478 
L 695.820741 263.573523 
L 696.190115 234.101837 
L 696.928861 259.094753 
L 697.298235 252.705261 
L 697.667608 255.665789 
L 698.036981 268.985867 
L 698.406355 241.324382 
L 699.145102 245.332743 
L 699.514475 252.240518 
L 699.883848 248.044704 
L 700.622595 249.934553 
L 700.991968 253.035878 
L 701.361342 257.308158 
L 701.730715 270.498377 
L 702.100088 260.563273 
L 702.469462 275.229596 
L 702.838835 265.577789 
L 703.208208 260.661313 
L 703.946955 289.618021 
L 704.316328 297.464133 
L 704.685702 244.411913 
L 705.055075 258.412945 
L 705.424448 260.420481 
L 705.793822 270.872561 
L 706.163195 256.445858 
L 706.532568 262.482564 
L 706.901942 260.801751 
L 707.271315 272.105524 
L 707.640688 277.089422 
L 708.010062 301.882152 
L 708.379435 305.47166 
L 709.118182 328.0748 
L 709.487555 319.897546 
L 709.856929 314.251279 
L 710.226302 311.897837 
L 710.595675 313.050041 
L 710.965049 324.258811 
L 711.334422 278.771793 
L 711.703795 264.206611 
L 712.073169 230.074095 
L 712.442542 259.458632 
L 712.811915 272.464599 
L 713.181289 271.4681 
L 713.550662 300.610379 
L 713.920035 269.008934 
L 714.289409 252.670856 
L 714.658782 254.57184 
L 715.028155 267.973515 
L 715.397529 261.584915 
L 715.766902 274.768615 
L 716.136275 302.642225 
L 716.505649 269.236235 
L 716.875022 218.309834 
L 717.613769 247.310475 
L 717.983142 274.100255 
L 718.352515 282.80688 
L 718.721889 266.009773 
L 719.091262 278.34103 
L 719.460635 257.923147 
L 719.830009 246.811422 
L 720.199382 262.687385 
L 720.568756 259.462537 
L 720.938129 240.627705 
L 721.307502 247.194481 
L 721.676876 244.216317 
L 722.046249 245.226897 
L 722.415622 259.189012 
L 722.784996 251.104285 
L 723.154369 249.376011 
L 723.523742 253.428128 
L 723.893116 266.911132 
L 724.262489 258.994354 
L 724.631862 255.959001 
L 725.001236 251.483667 
L 725.370609 241.069063 
L 726.109356 268.573718 
L 726.478729 261.107034 
L 726.848102 245.5267 
L 727.586849 257.210254 
L 727.956222 240.135109 
L 729.064342 280.469329 
L 729.433716 265.928713 
L 729.803089 258.007947 
L 730.172462 258.717206 
L 730.541836 271.788591 
L 730.911209 263.269045 
L 731.649956 275.904911 
L 732.019329 285.807424 
L 732.388703 266.665802 
L 732.758076 235.054067 
L 733.127449 243.271385 
L 733.496823 247.750606 
L 733.866196 248.19436 
L 734.235569 261.345269 
L 734.604943 265.472915 
L 734.974316 261.937552 
L 735.343689 255.410708 
L 735.713063 267.86942 
L 736.082436 261.546081 
L 736.451809 265.594131 
L 736.821183 267.941728 
L 737.190556 278.556897 
L 737.559929 278.391089 
L 737.929303 117.597278 
L 739.776169 192.10987 
L 740.145543 220.833361 
L 740.514916 204.568976 
L 740.884289 107.379216 
L 743.469903 208.884091 
L 744.20865 236.578327 
L 744.578023 234.92635 
L 744.947396 244.439348 
L 745.31677 249.699007 
L 745.686143 248.240456 
L 746.055516 250.464387 
L 746.42489 260.702751 
L 747.163636 262.235343 
L 747.163636 262.235343 
" style="fill:none;stroke:#ff7f0e;stroke-linecap:square;stroke-width:1.5;"/>
   </g>
   <g id="patch_3">
    <path d="M 108 384.48 
L 108 51.84 
" style="fill:none;stroke:#000000;stroke-linecap:square;stroke-linejoin:miter;stroke-width:0.8;"/>
   </g>
   <g id="patch_4">
    <path d="M 777.6 384.48 
L 777.6 51.84 
" style="fill:none;stroke:#000000;stroke-linecap:square;stroke-linejoin:miter;stroke-width:0.8;"/>
   </g>
   <g id="patch_5">
    <path d="M 108 384.48 
L 777.6 384.48 
" style="fill:none;stroke:#000000;stroke-linecap:square;stroke-linejoin:miter;stroke-width:0.8;"/>
   </g>
   <g id="patch_6">
    <path d="M 108 51.84 
L 777.6 51.84 
" style="fill:none;stroke:#000000;stroke-linecap:square;stroke-linejoin:miter;stroke-width:0.8;"/>
   </g>
  </g>
 </g>
 <defs>
  <clipPath id="p8497950e4d">
   <rect height="332.64" width="669.6" x="108" y="51.84"/>
  </clipPath>
 </defs>
</svg>
