<?xml version="1.0" encoding="utf-8" standalone="no"?>
<!DOCTYPE svg PUBLIC "-//W3C//DTD SVG 1.1//EN"
  "http://www.w3.org/Graphics/SVG/1.1/DTD/svg11.dtd">
<svg height="345.6pt" version="1.1" viewBox="0 0 460.8 345.6" width="460.8pt" xmlns="http://www.w3.org/2000/svg" xmlns:xlink="http://www.w3.org/1999/xlink">
 <metadata>
  <rdf:RDF xmlns:cc="http://creativecommons.org/ns#" xmlns:dc="http://purl.org/dc/elements/1.1/" xmlns:rdf="http://www.w3.org/1999/02/22-rdf-syntax-ns#">
   <cc:Work>
    <dc:type rdf:resource="http://purl.org/dc/dcmitype/StillImage"/>
    <dc:date>2022-01-06T21:55:26.787512</dc:date>
    <dc:format>image/svg+xml</dc:format>
    <dc:creator>
     <cc:Agent>
      <dc:title>Matplotlib v3.4.3, https://matplotlib.org/</dc:title>
     </cc:Agent>
    </dc:creator>
   </cc:Work>
  </rdf:RDF>
 </metadata>
 <defs>
  <style type="text/css">*{stroke-linecap:butt;stroke-linejoin:round;}</style>
 </defs>
 <g id="figure_1">
  <g id="patch_1">
   <path d="M 0 345.6 
L 460.8 345.6 
L 460.8 0 
L 0 0 
z
" style="fill:#ffffff;"/>
  </g>
  <g id="axes_1">
   <g id="patch_2">
    <path d="M 57.6 307.584 
L 414.72 307.584 
L 414.72 41.472 
L 57.6 41.472 
z
" style="fill:#ffffff;"/>
   </g>
   <g id="matplotlib.axis_1">
    <g id="xtick_1">
     <g id="line2d_1">
      <defs>
       <path d="M 0 0 
L 0 3.5 
" id="md95e66b3af" style="stroke:#000000;stroke-width:0.8;"/>
      </defs>
      <g>
       <use style="stroke:#000000;stroke-width:0.8;" x="73.832727" xlink:href="#md95e66b3af" y="307.584"/>
      </g>
     </g>
     <g id="text_1">
      <!-- 39000 -->
      <g transform="translate(57.926477 322.182437)scale(0.1 -0.1)">
       <defs>
        <path d="M 2597 2516 
Q 3050 2419 3304 2112 
Q 3559 1806 3559 1356 
Q 3559 666 3084 287 
Q 2609 -91 1734 -91 
Q 1441 -91 1130 -33 
Q 819 25 488 141 
L 488 750 
Q 750 597 1062 519 
Q 1375 441 1716 441 
Q 2309 441 2620 675 
Q 2931 909 2931 1356 
Q 2931 1769 2642 2001 
Q 2353 2234 1838 2234 
L 1294 2234 
L 1294 2753 
L 1863 2753 
Q 2328 2753 2575 2939 
Q 2822 3125 2822 3475 
Q 2822 3834 2567 4026 
Q 2313 4219 1838 4219 
Q 1578 4219 1281 4162 
Q 984 4106 628 3988 
L 628 4550 
Q 988 4650 1302 4700 
Q 1616 4750 1894 4750 
Q 2613 4750 3031 4423 
Q 3450 4097 3450 3541 
Q 3450 3153 3228 2886 
Q 3006 2619 2597 2516 
z
" id="DejaVuSans-33" transform="scale(0.015625)"/>
        <path d="M 703 97 
L 703 672 
Q 941 559 1184 500 
Q 1428 441 1663 441 
Q 2288 441 2617 861 
Q 2947 1281 2994 2138 
Q 2813 1869 2534 1725 
Q 2256 1581 1919 1581 
Q 1219 1581 811 2004 
Q 403 2428 403 3163 
Q 403 3881 828 4315 
Q 1253 4750 1959 4750 
Q 2769 4750 3195 4129 
Q 3622 3509 3622 2328 
Q 3622 1225 3098 567 
Q 2575 -91 1691 -91 
Q 1453 -91 1209 -44 
Q 966 3 703 97 
z
M 1959 2075 
Q 2384 2075 2632 2365 
Q 2881 2656 2881 3163 
Q 2881 3666 2632 3958 
Q 2384 4250 1959 4250 
Q 1534 4250 1286 3958 
Q 1038 3666 1038 3163 
Q 1038 2656 1286 2365 
Q 1534 2075 1959 2075 
z
" id="DejaVuSans-39" transform="scale(0.015625)"/>
        <path d="M 2034 4250 
Q 1547 4250 1301 3770 
Q 1056 3291 1056 2328 
Q 1056 1369 1301 889 
Q 1547 409 2034 409 
Q 2525 409 2770 889 
Q 3016 1369 3016 2328 
Q 3016 3291 2770 3770 
Q 2525 4250 2034 4250 
z
M 2034 4750 
Q 2819 4750 3233 4129 
Q 3647 3509 3647 2328 
Q 3647 1150 3233 529 
Q 2819 -91 2034 -91 
Q 1250 -91 836 529 
Q 422 1150 422 2328 
Q 422 3509 836 4129 
Q 1250 4750 2034 4750 
z
" id="DejaVuSans-30" transform="scale(0.015625)"/>
       </defs>
       <use xlink:href="#DejaVuSans-33"/>
       <use x="63.623047" xlink:href="#DejaVuSans-39"/>
       <use x="127.246094" xlink:href="#DejaVuSans-30"/>
       <use x="190.869141" xlink:href="#DejaVuSans-30"/>
       <use x="254.492188" xlink:href="#DejaVuSans-30"/>
      </g>
     </g>
    </g>
    <g id="xtick_2">
     <g id="line2d_2">
      <g>
       <use style="stroke:#000000;stroke-width:0.8;" x="123.082507" xlink:href="#md95e66b3af" y="307.584"/>
      </g>
     </g>
     <g id="text_2">
      <!-- 39250 -->
      <g transform="translate(107.176257 322.182437)scale(0.1 -0.1)">
       <defs>
        <path d="M 1228 531 
L 3431 531 
L 3431 0 
L 469 0 
L 469 531 
Q 828 903 1448 1529 
Q 2069 2156 2228 2338 
Q 2531 2678 2651 2914 
Q 2772 3150 2772 3378 
Q 2772 3750 2511 3984 
Q 2250 4219 1831 4219 
Q 1534 4219 1204 4116 
Q 875 4013 500 3803 
L 500 4441 
Q 881 4594 1212 4672 
Q 1544 4750 1819 4750 
Q 2544 4750 2975 4387 
Q 3406 4025 3406 3419 
Q 3406 3131 3298 2873 
Q 3191 2616 2906 2266 
Q 2828 2175 2409 1742 
Q 1991 1309 1228 531 
z
" id="DejaVuSans-32" transform="scale(0.015625)"/>
        <path d="M 691 4666 
L 3169 4666 
L 3169 4134 
L 1269 4134 
L 1269 2991 
Q 1406 3038 1543 3061 
Q 1681 3084 1819 3084 
Q 2600 3084 3056 2656 
Q 3513 2228 3513 1497 
Q 3513 744 3044 326 
Q 2575 -91 1722 -91 
Q 1428 -91 1123 -41 
Q 819 9 494 109 
L 494 744 
Q 775 591 1075 516 
Q 1375 441 1709 441 
Q 2250 441 2565 725 
Q 2881 1009 2881 1497 
Q 2881 1984 2565 2268 
Q 2250 2553 1709 2553 
Q 1456 2553 1204 2497 
Q 953 2441 691 2322 
L 691 4666 
z
" id="DejaVuSans-35" transform="scale(0.015625)"/>
       </defs>
       <use xlink:href="#DejaVuSans-33"/>
       <use x="63.623047" xlink:href="#DejaVuSans-39"/>
       <use x="127.246094" xlink:href="#DejaVuSans-32"/>
       <use x="190.869141" xlink:href="#DejaVuSans-35"/>
       <use x="254.492188" xlink:href="#DejaVuSans-30"/>
      </g>
     </g>
    </g>
    <g id="xtick_3">
     <g id="line2d_3">
      <g>
       <use style="stroke:#000000;stroke-width:0.8;" x="172.332286" xlink:href="#md95e66b3af" y="307.584"/>
      </g>
     </g>
     <g id="text_3">
      <!-- 39500 -->
      <g transform="translate(156.426036 322.182437)scale(0.1 -0.1)">
       <use xlink:href="#DejaVuSans-33"/>
       <use x="63.623047" xlink:href="#DejaVuSans-39"/>
       <use x="127.246094" xlink:href="#DejaVuSans-35"/>
       <use x="190.869141" xlink:href="#DejaVuSans-30"/>
       <use x="254.492188" xlink:href="#DejaVuSans-30"/>
      </g>
     </g>
    </g>
    <g id="xtick_4">
     <g id="line2d_4">
      <g>
       <use style="stroke:#000000;stroke-width:0.8;" x="221.582065" xlink:href="#md95e66b3af" y="307.584"/>
      </g>
     </g>
     <g id="text_4">
      <!-- 39750 -->
      <g transform="translate(205.675815 322.182437)scale(0.1 -0.1)">
       <defs>
        <path d="M 525 4666 
L 3525 4666 
L 3525 4397 
L 1831 0 
L 1172 0 
L 2766 4134 
L 525 4134 
L 525 4666 
z
" id="DejaVuSans-37" transform="scale(0.015625)"/>
       </defs>
       <use xlink:href="#DejaVuSans-33"/>
       <use x="63.623047" xlink:href="#DejaVuSans-39"/>
       <use x="127.246094" xlink:href="#DejaVuSans-37"/>
       <use x="190.869141" xlink:href="#DejaVuSans-35"/>
       <use x="254.492188" xlink:href="#DejaVuSans-30"/>
      </g>
     </g>
    </g>
    <g id="xtick_5">
     <g id="line2d_5">
      <g>
       <use style="stroke:#000000;stroke-width:0.8;" x="270.831845" xlink:href="#md95e66b3af" y="307.584"/>
      </g>
     </g>
     <g id="text_5">
      <!-- 40000 -->
      <g transform="translate(254.925595 322.182437)scale(0.1 -0.1)">
       <defs>
        <path d="M 2419 4116 
L 825 1625 
L 2419 1625 
L 2419 4116 
z
M 2253 4666 
L 3047 4666 
L 3047 1625 
L 3713 1625 
L 3713 1100 
L 3047 1100 
L 3047 0 
L 2419 0 
L 2419 1100 
L 313 1100 
L 313 1709 
L 2253 4666 
z
" id="DejaVuSans-34" transform="scale(0.015625)"/>
       </defs>
       <use xlink:href="#DejaVuSans-34"/>
       <use x="63.623047" xlink:href="#DejaVuSans-30"/>
       <use x="127.246094" xlink:href="#DejaVuSans-30"/>
       <use x="190.869141" xlink:href="#DejaVuSans-30"/>
       <use x="254.492188" xlink:href="#DejaVuSans-30"/>
      </g>
     </g>
    </g>
    <g id="xtick_6">
     <g id="line2d_6">
      <g>
       <use style="stroke:#000000;stroke-width:0.8;" x="320.081624" xlink:href="#md95e66b3af" y="307.584"/>
      </g>
     </g>
     <g id="text_6">
      <!-- 40250 -->
      <g transform="translate(304.175374 322.182437)scale(0.1 -0.1)">
       <use xlink:href="#DejaVuSans-34"/>
       <use x="63.623047" xlink:href="#DejaVuSans-30"/>
       <use x="127.246094" xlink:href="#DejaVuSans-32"/>
       <use x="190.869141" xlink:href="#DejaVuSans-35"/>
       <use x="254.492188" xlink:href="#DejaVuSans-30"/>
      </g>
     </g>
    </g>
    <g id="xtick_7">
     <g id="line2d_7">
      <g>
       <use style="stroke:#000000;stroke-width:0.8;" x="369.331403" xlink:href="#md95e66b3af" y="307.584"/>
      </g>
     </g>
     <g id="text_7">
      <!-- 40500 -->
      <g transform="translate(353.425153 322.182437)scale(0.1 -0.1)">
       <use xlink:href="#DejaVuSans-34"/>
       <use x="63.623047" xlink:href="#DejaVuSans-30"/>
       <use x="127.246094" xlink:href="#DejaVuSans-35"/>
       <use x="190.869141" xlink:href="#DejaVuSans-30"/>
       <use x="254.492188" xlink:href="#DejaVuSans-30"/>
      </g>
     </g>
    </g>
   </g>
   <g id="matplotlib.axis_2">
    <g id="ytick_1">
     <g id="line2d_8">
      <defs>
       <path d="M 0 0 
L -3.5 0 
" id="m70ca1ce1f9" style="stroke:#000000;stroke-width:0.8;"/>
      </defs>
      <g>
       <use style="stroke:#000000;stroke-width:0.8;" x="57.6" xlink:href="#m70ca1ce1f9" y="307.584"/>
      </g>
     </g>
     <g id="text_8">
      <!-- 0 -->
      <g transform="translate(44.2375 311.383219)scale(0.1 -0.1)">
       <use xlink:href="#DejaVuSans-30"/>
      </g>
     </g>
    </g>
    <g id="ytick_2">
     <g id="line2d_9">
      <g>
       <use style="stroke:#000000;stroke-width:0.8;" x="57.6" xlink:href="#m70ca1ce1f9" y="254.3616"/>
      </g>
     </g>
     <g id="text_9">
      <!-- 2 -->
      <g transform="translate(44.2375 258.160819)scale(0.1 -0.1)">
       <use xlink:href="#DejaVuSans-32"/>
      </g>
     </g>
    </g>
    <g id="ytick_3">
     <g id="line2d_10">
      <g>
       <use style="stroke:#000000;stroke-width:0.8;" x="57.6" xlink:href="#m70ca1ce1f9" y="201.1392"/>
      </g>
     </g>
     <g id="text_10">
      <!-- 4 -->
      <g transform="translate(44.2375 204.938419)scale(0.1 -0.1)">
       <use xlink:href="#DejaVuSans-34"/>
      </g>
     </g>
    </g>
    <g id="ytick_4">
     <g id="line2d_11">
      <g>
       <use style="stroke:#000000;stroke-width:0.8;" x="57.6" xlink:href="#m70ca1ce1f9" y="147.9168"/>
      </g>
     </g>
     <g id="text_11">
      <!-- 6 -->
      <g transform="translate(44.2375 151.716019)scale(0.1 -0.1)">
       <defs>
        <path d="M 2113 2584 
Q 1688 2584 1439 2293 
Q 1191 2003 1191 1497 
Q 1191 994 1439 701 
Q 1688 409 2113 409 
Q 2538 409 2786 701 
Q 3034 994 3034 1497 
Q 3034 2003 2786 2293 
Q 2538 2584 2113 2584 
z
M 3366 4563 
L 3366 3988 
Q 3128 4100 2886 4159 
Q 2644 4219 2406 4219 
Q 1781 4219 1451 3797 
Q 1122 3375 1075 2522 
Q 1259 2794 1537 2939 
Q 1816 3084 2150 3084 
Q 2853 3084 3261 2657 
Q 3669 2231 3669 1497 
Q 3669 778 3244 343 
Q 2819 -91 2113 -91 
Q 1303 -91 875 529 
Q 447 1150 447 2328 
Q 447 3434 972 4092 
Q 1497 4750 2381 4750 
Q 2619 4750 2861 4703 
Q 3103 4656 3366 4563 
z
" id="DejaVuSans-36" transform="scale(0.015625)"/>
       </defs>
       <use xlink:href="#DejaVuSans-36"/>
      </g>
     </g>
    </g>
    <g id="ytick_5">
     <g id="line2d_12">
      <g>
       <use style="stroke:#000000;stroke-width:0.8;" x="57.6" xlink:href="#m70ca1ce1f9" y="94.6944"/>
      </g>
     </g>
     <g id="text_12">
      <!-- 8 -->
      <g transform="translate(44.2375 98.493619)scale(0.1 -0.1)">
       <defs>
        <path d="M 2034 2216 
Q 1584 2216 1326 1975 
Q 1069 1734 1069 1313 
Q 1069 891 1326 650 
Q 1584 409 2034 409 
Q 2484 409 2743 651 
Q 3003 894 3003 1313 
Q 3003 1734 2745 1975 
Q 2488 2216 2034 2216 
z
M 1403 2484 
Q 997 2584 770 2862 
Q 544 3141 544 3541 
Q 544 4100 942 4425 
Q 1341 4750 2034 4750 
Q 2731 4750 3128 4425 
Q 3525 4100 3525 3541 
Q 3525 3141 3298 2862 
Q 3072 2584 2669 2484 
Q 3125 2378 3379 2068 
Q 3634 1759 3634 1313 
Q 3634 634 3220 271 
Q 2806 -91 2034 -91 
Q 1263 -91 848 271 
Q 434 634 434 1313 
Q 434 1759 690 2068 
Q 947 2378 1403 2484 
z
M 1172 3481 
Q 1172 3119 1398 2916 
Q 1625 2713 2034 2713 
Q 2441 2713 2670 2916 
Q 2900 3119 2900 3481 
Q 2900 3844 2670 4047 
Q 2441 4250 2034 4250 
Q 1625 4250 1398 4047 
Q 1172 3844 1172 3481 
z
" id="DejaVuSans-38" transform="scale(0.015625)"/>
       </defs>
       <use xlink:href="#DejaVuSans-38"/>
      </g>
     </g>
    </g>
    <g id="ytick_6">
     <g id="line2d_13">
      <g>
       <use style="stroke:#000000;stroke-width:0.8;" x="57.6" xlink:href="#m70ca1ce1f9" y="41.472"/>
      </g>
     </g>
     <g id="text_13">
      <!-- 10 -->
      <g transform="translate(37.875 45.271219)scale(0.1 -0.1)">
       <defs>
        <path d="M 794 531 
L 1825 531 
L 1825 4091 
L 703 3866 
L 703 4441 
L 1819 4666 
L 2450 4666 
L 2450 531 
L 3481 531 
L 3481 0 
L 794 0 
L 794 531 
z
" id="DejaVuSans-31" transform="scale(0.015625)"/>
       </defs>
       <use xlink:href="#DejaVuSans-31"/>
       <use x="63.623047" xlink:href="#DejaVuSans-30"/>
      </g>
     </g>
    </g>
   </g>
   <g id="line2d_14">
    <path clip-path="url(#p37721fa7b3)" d="M 75.550327 346.6 
L 75.605719 339.525683 
L 75.639737 346.6 
M 83.475065 346.6 
L 83.485684 345.503324 
L 83.682683 345.503324 
L 83.811332 346.6 
M 85.985749 346.6 
L 86.046673 340.075709 
L 86.440671 340.075709 
L 86.544114 346.6 
M 88.443632 346.6 
L 88.607661 340.678024 
L 88.635558 346.6 
M 88.971196 346.6 
L 89.001659 340.033676 
L 89.198658 340.033676 
L 89.395658 345.594928 
L 89.592657 345.594928 
L 89.789656 338.480001 
L 89.986655 339.486494 
L 90.183654 339.486494 
L 90.380653 339.153316 
L 90.577652 339.486494 
L 90.759743 346.6 
M 95.417546 346.6 
L 95.50263 340.729204 
L 95.699629 342.186411 
L 95.896628 340.729204 
L 96.093628 340.729204 
L 96.290627 338.962206 
L 96.487626 342.186411 
L 96.564571 346.6 
M 97.64142 346.6 
L 97.66962 343.676058 
L 97.86662 343.676058 
L 98.001393 346.6 
M 105.919607 346.6 
L 105.943583 344.191455 
L 106.140583 344.191455 
L 106.337582 342.907346 
L 106.73158 342.907346 
L 106.746595 346.6 
M 114.699755 346.6 
L 114.611545 335.869003 
L 115.202542 335.869003 
L 115.351191 346.6 
M 117.556017 346.6 
L 117.566531 343.549926 
L 117.76353 343.549926 
L 117.774045 346.6 
M 146.57298 346.6 
L 146.722401 331.543162 
L 146.9194 331.336343 
L 146.837969 346.6 
M 149.081009 346.6 
L 149.08639 346.288289 
L 149.480388 346.288289 
L 149.481563 346.6 
M 153.199316 346.6 
L 153.223372 343.676058 
L 153.420371 343.676058 
L 153.441846 346.6 
M 154.565859 346.6 
L 154.996364 336.165935 
L 155.193363 336.064201 
L 155.390362 338.734568 
L 155.587361 344.620537 
L 156.178358 344.620537 
L 156.375357 334.833501 
L 156.572357 332.849224 
L 156.769356 334.833501 
L 156.966355 332.640756 
L 157.163354 332.640756 
L 157.360353 333.321785 
L 157.557352 334.665 
L 157.59296 346.6 
M 158.132956 346.6 
L 158.14835 342.014817 
L 158.217893 346.6 
M 158.472804 346.6 
L 158.542348 342.014817 
L 158.14835 341.165217 
L 158.739347 333.398296 
L 158.936346 341.165217 
L 159.133345 341.165217 
L 159.330344 333.367119 
L 159.527343 333.367119 
L 159.771605 346.6 
M 162.319358 346.6 
L 162.679329 335.200004 
L 162.876328 333.529984 
L 163.270327 333.529984 
L 163.415319 346.6 
M 164.136316 346.6 
L 164.255322 339.446613 
L 164.452321 339.446613 
L 164.650912 346.6 
M 165.041727 346.6 
L 165.043319 346.478774 
L 165.039177 346.6 
M 165.990817 346.6 
L 166.028314 344.758294 
L 166.225313 342.879278 
L 166.422312 338.35899 
L 166.619312 340.343044 
L 166.816311 340.343044 
L 167.01331 339.461842 
L 167.407308 339.461842 
L 167.604307 342.786195 
L 167.641661 346.6 
M 169.769902 346.6 
L 169.771297 346.444053 
L 169.772693 346.6 
M 170.136385 346.6 
L 170.165296 342.83976 
L 170.362295 342.83976 
L 170.403658 346.6 
M 172.167813 346.6 
L 172.332286 327.766796 
L 172.529285 325.497123 
L 172.923283 325.497123 
L 173.12118 346.6 
M 176.053735 346.6 
L 175.87827 335.889869 
L 176.469267 335.764758 
L 176.666267 335.889869 
L 176.863266 340.885818 
L 177.060265 340.885818 
L 177.257264 342.588452 
L 177.281906 346.6 
M 184.543242 346.6 
L 184.546231 346.539072 
L 184.942111 346.6 
M 187.004329 346.6 
L 187.10722 344.612657 
L 187.21011 346.6 
M 188.638778 346.6 
L 188.683213 344.816467 
L 188.727647 346.6 
M 190.645605 346.6 
L 190.653204 345.679987 
L 190.850203 345.679987 
L 190.853497 346.6 
M 198.529129 346.6 
L 198.533169 345.467589 
L 199.124166 345.467589 
L 199.128205 346.6 
M 201.734775 346.6 
L 201.882154 323.694581 
L 202.276152 323.694581 
L 202.592917 346.6 
M 204.243667 346.6 
L 204.246143 346.547422 
L 204.641446 346.6 
M 214.489815 346.6 
L 214.490097 346.522354 
L 214.687096 342.739317 
L 215.081094 342.739317 
L 215.170104 346.6 
M 216.636507 346.6 
L 216.657087 344.683657 
L 217.051086 344.683657 
L 217.248085 344.29773 
L 217.445084 344.683657 
L 217.642083 344.29773 
L 218.036081 344.29773 
L 218.052381 346.6 
M 219.260828 346.6 
L 219.415075 339.147814 
L 219.569322 346.6 
M 219.654827 346.6 
L 219.809073 339.147814 
L 220.006072 339.147814 
L 220.029925 346.6 
M 222.19436 346.6 
L 222.370062 338.933013 
L 222.567061 335.466333 
L 222.76406 338.594497 
L 223.158058 338.594497 
L 223.233922 346.6 
M 225.312384 346.6 
L 225.325049 342.883452 
L 225.522048 345.541562 
L 225.916046 345.541562 
L 225.900889 346.6 
M 229.087786 346.6 
L 229.265031 326.035303 
L 229.856028 326.035303 
L 230.003191 346.6 
M 231.73163 346.6 
L 231.826019 333.675245 
L 231.935361 346.6 
M 233.203041 346.6 
L 233.205013 346.052871 
L 233.599011 346.052871 
L 233.796011 339.334832 
L 234.190009 339.334832 
L 234.387008 336.456535 
L 234.781006 343.310792 
L 234.792298 346.6 
M 235.690505 346.6 
L 235.766002 333.32128 
L 235.963001 330.14256 
L 236.356999 330.14256 
L 236.553998 333.32128 
L 236.63825 346.6 
M 238.748139 346.6 
L 238.917988 340.49891 
L 239.311986 340.49891 
L 239.331952 346.6 
M 250.487972 346.6 
L 250.540936 326.708427 
L 250.737935 328.102465 
L 250.934934 326.441431 
L 251.131933 330.380655 
L 251.525931 330.380655 
L 251.72293 325.900341 
L 252.510927 325.900341 
L 252.707926 335.644847 
L 252.904925 335.644847 
L 253.101924 324.017343 
L 253.298923 335.644847 
L 252.904925 335.644847 
L 253.495922 338.647955 
L 253.629224 346.6 
M 253.768652 346.6 
L 253.889921 340.515288 
L 254.089473 346.6 
M 254.675364 346.6 
L 254.677917 345.889684 
L 254.874916 345.889684 
L 254.877469 346.6 
M 260.162355 346.6 
L 260.193892 336.289204 
L 259.996893 336.289204 
L 260.390891 336.289204 
L 260.422429 346.6 
M 263.90212 346.6 
L 263.936876 339.08668 
L 263.542877 339.08668 
L 263.936876 335.259427 
L 263.971017 346.6 
M 264.724638 346.6 
L 264.724872 346.53573 
L 265.316117 346.6 
M 266.55329 346.6 
L 266.694863 336.905191 
L 266.891862 335.510358 
L 267.48286 335.566338 
L 267.516234 346.6 
M 270.184292 346.6 
L 270.240847 324.816354 
L 270.437846 324.816354 
L 270.634846 335.620315 
L 270.831845 335.620315 
L 271.028844 336.470037 
L 271.059916 346.6 
M 271.599156 346.6 
L 271.619841 340.253413 
L 271.81684 340.253413 
L 271.837526 346.6 
M 281.246808 346.6 
L 281.272798 338.378531 
L 281.469797 338.378531 
L 281.495787 346.6 
M 302.324544 346.6 
L 302.351703 337.949604 
L 302.378863 346.6 
M 310.207585 346.6 
L 310.231668 343.484917 
L 310.255752 346.6 
M 317.290872 346.6 
L 317.323636 335.808303 
L 317.3564 346.6 
M 317.711845 346.6 
L 317.717635 344.962123 
L 317.914634 344.962123 
L 318.111633 338.48657 
L 318.70263 338.48657 
L 318.899629 339.717071 
L 318.877393 346.6 
M 319.665396 346.6 
L 319.687626 341.575308 
L 320.278623 341.575308 
L 320.475622 336.754231 
L 320.672621 342.343696 
L 320.86962 342.343696 
L 321.263619 343.587993 
L 321.460618 346.044373 
L 321.854616 346.044373 
L 321.880875 346.6 
M 326.360346 346.6 
L 326.385596 344.723373 
L 326.410846 346.6 
M 331.776123 346.6 
L 332.09857 336.322879 
L 332.295569 341.75926 
L 332.492568 337.181912 
L 332.689568 341.75926 
L 332.886567 342.132823 
L 333.083566 342.778195 
L 333.129396 346.6 
M 346.446547 346.6 
L 346.479506 337.994104 
L 346.676505 342.081479 
L 346.873504 337.994104 
L 347.070503 342.58537 
L 347.267502 342.685754 
L 347.464501 343.861913 
L 347.49487 346.6 
M 351.935012 346.6 
L 351.995481 339.10143 
L 352.19248 340.387784 
L 352.586478 340.387784 
L 352.664438 346.6 
M 355.343869 346.6 
L 355.344466 346.435563 
L 355.541465 346.435563 
L 355.738464 344.20656 
L 355.935463 344.20656 
L 355.964684 346.6 
M 368.713706 346.6 
L 368.740406 338.118847 
L 368.937405 338.118847 
L 368.964105 346.6 
M 373.231173 346.6 
L 373.271386 334.391965 
L 373.311598 346.6 
M 374.63781 346.6 
L 374.65038 342.913312 
L 374.662949 346.6 
M 385.861805 346.6 
L 385.879329 341.318039 
L 386.076328 341.318039 
L 386.093853 346.6 
M 388.765093 346.6 
L 388.834316 335.015007 
L 389.228314 335.015007 
L 389.425313 341.83902 
L 389.622312 341.83902 
L 389.819312 335.797639 
L 390.016311 335.797639 
L 390.328673 346.6 
L 390.328673 346.6 
" style="fill:none;stroke:#1f77b4;stroke-linecap:square;stroke-width:1.5;"/>
   </g>
   <g id="line2d_15">
    <path clip-path="url(#p37721fa7b3)" d="M 74.583915 346.6 
L 74.620724 345.195686 
L 74.700021 346.6 
M 75.57454 346.6 
L 75.605719 344.142596 
L 75.802718 342.281818 
L 75.925723 346.6 
M 76.069165 346.6 
L 76.196717 341.828912 
L 76.393716 345.376649 
L 76.590715 341.894177 
L 76.74034 346.6 
M 76.804081 346.6 
L 76.984713 330.156828 
L 77.493424 346.6 
M 77.762005 346.6 
L 77.969709 344.065075 
L 78.100132 346.6 
M 80.71664 346.6 
L 80.727696 344.740664 
L 80.938459 346.6 
M 81.533541 346.6 
L 81.712692 310.511121 
L 82.10669 325.399341 
L 82.303689 316.925674 
L 82.697688 331.489887 
L 82.894687 328.623078 
L 83.288685 342.853316 
L 83.485684 345.060172 
L 83.682683 341.302385 
L 83.879682 340.986749 
L 84.02032 346.6 
M 84.105067 346.6 
L 84.27368 333.23765 
L 84.47068 337.369811 
L 84.727577 346.6 
M 85.398986 346.6 
L 85.455675 344.459746 
L 85.652674 331.877007 
L 85.849673 339.430165 
L 86.046673 336.616533 
L 86.243672 344.480867 
L 86.455693 346.6 
M 87.276269 346.6 
L 87.425666 324.149452 
L 87.622665 336.641857 
L 87.819665 340.920904 
L 88.016664 340.240433 
L 88.213663 340.502962 
L 88.410662 340.238882 
L 88.607661 340.267796 
L 88.78375 346.6 
M 88.838498 346.6 
L 89.001659 342.974301 
L 89.105908 346.6 
M 89.387672 346.6 
L 89.789656 340.917092 
L 89.948843 346.6 
M 90.27755 346.6 
L 90.380653 337.912989 
L 90.774651 341.041039 
L 90.914351 346.6 
M 91.442758 346.6 
L 91.562648 323.052518 
L 91.759647 330.84876 
L 91.956646 346.189992 
L 92.153645 340.001925 
L 92.350644 337.979999 
L 92.569766 346.6 
M 92.858006 346.6 
L 92.941642 342.315409 
L 93.222447 346.6 
M 93.383761 346.6 
L 93.532639 340.726807 
L 93.729638 339.720534 
L 93.925088 346.6 
M 94.207102 346.6 
L 94.517635 336.786996 
L 94.714634 339.576765 
L 94.89223 346.6 
M 95.93784 346.6 
L 96.093628 342.634848 
L 96.290627 341.615872 
L 96.43673 346.6 
M 97.052616 346.6 
L 97.078623 344.615767 
L 97.275622 344.136364 
L 97.347466 346.6 
M 97.609005 346.6 
L 97.66962 344.692544 
L 97.880147 346.6 
M 98.848172 346.6 
L 98.851615 346.236287 
L 99.048614 339.392377 
L 99.245613 342.275498 
L 99.442613 340.648018 
L 99.836611 341.881835 
L 99.97032 346.6 
M 101.353183 346.6 
L 101.412604 342.198762 
L 101.556176 346.6 
M 102.356696 346.6 
L 102.397599 342.74182 
L 102.267759 346.6 
M 102.317741 346.6 
L 102.594598 341.883438 
L 102.728265 346.6 
M 103.051573 346.6 
L 103.185596 339.686545 
L 103.376668 346.6 
M 103.383581 346.6 
L 103.579594 303.972187 
L 104.56459 340.446756 
L 104.761589 346.248755 
L 104.889589 346.6 
M 105.488655 346.6 
L 105.549585 342.159602 
L 105.691347 346.6 
M 105.823228 346.6 
L 105.943583 343.883004 
L 106.140583 343.647315 
L 106.226305 346.6 
M 106.510723 346.6 
L 106.534581 346.071845 
L 106.552772 346.6 
M 107.408581 346.6 
L 107.519576 341.489732 
L 107.716575 342.744724 
L 107.868912 346.6 
M 109.662219 346.6 
L 109.686567 342.113665 
L 109.811148 346.6 
M 109.972714 346.6 
L 110.080565 343.445079 
L 109.989243 346.6 
M 110.463269 346.6 
L 110.474563 346.014617 
L 110.492239 346.6 
M 113.545445 346.6 
L 113.626549 345.630832 
L 113.651134 346.6 
M 114.498077 346.6 
L 114.611545 337.742841 
L 114.808544 339.118146 
L 114.611545 330.933138 
L 115.202542 344.033903 
L 115.289055 346.6 
M 115.793107 346.6 
L 115.793539 346.575605 
L 115.794061 346.6 
M 116.612015 346.6 
L 116.778535 241.027695 
L 119.142524 335.620195 
L 119.339523 337.169451 
L 119.614268 346.6 
M 120.50531 346.6 
L 120.521518 345.498653 
L 120.562809 346.6 
M 123.659856 346.6 
L 123.673504 344.835646 
L 123.720161 346.6 
M 124.535287 346.6 
L 124.6585 332.514862 
L 124.855499 340.042589 
L 125.052498 343.203439 
L 125.137159 346.6 
M 125.611455 346.6 
L 125.840494 337.576565 
L 126.037493 344.847183 
L 126.234492 344.34434 
L 126.300682 346.6 
M 126.50839 346.6 
L 126.628491 339.637586 
L 126.820819 346.6 
M 126.835169 346.6 
L 127.022489 343.327763 
L 127.219488 337.752188 
L 127.416487 343.551574 
L 127.613486 337.820804 
L 128.007485 340.623538 
L 127.613486 338.052589 
L 128.204484 339.29157 
L 128.401483 339.964714 
L 128.795481 323.909832 
L 128.99248 331.809524 
L 129.189479 326.883326 
L 129.583477 341.226348 
L 129.780477 338.774098 
L 129.977476 332.482905 
L 130.174475 340.095206 
L 130.371474 340.383663 
L 130.568473 239.666107 
L 130.765472 247.675028 
L 131.15947 255.6821 
L 132.538464 309.178706 
L 133.129462 329.76636 
L 133.454614 346.6 
M 133.559898 346.6 
L 133.720459 324.96642 
L 133.917458 332.767536 
L 134.114457 314.033189 
L 134.508455 320.945637 
L 135.099453 335.985456 
L 135.296452 334.953974 
L 135.493451 342.189645 
L 135.69045 320.168294 
L 136.084448 334.143611 
L 136.281447 333.370349 
L 136.635393 346.6 
M 136.707712 346.6 
L 136.872445 339.123694 
L 137.266443 344.757537 
L 137.463442 338.174904 
L 137.681597 346.6 
M 138.854873 346.6 
L 139.039435 340.923777 
L 139.236434 330.326514 
L 139.433433 330.918835 
L 139.630432 335.666058 
L 140.001602 346.6 
M 140.601543 346.6 
L 140.615428 345.12142 
L 140.812427 341.080316 
L 141.009426 340.878173 
L 141.206425 340.852212 
L 141.403425 333.625983 
L 141.600424 341.106067 
L 141.797423 335.362505 
L 141.994422 339.266106 
L 142.176512 346.6 
M 142.213209 346.6 
L 142.585419 335.560813 
L 142.782418 343.516082 
L 142.979417 329.655403 
L 143.176417 337.287293 
L 143.373416 335.134171 
L 143.570415 337.650738 
L 143.767414 336.792441 
L 143.964413 344.113271 
L 144.161412 325.850851 
L 144.55541 340.290559 
L 144.75241 337.918152 
L 144.949409 339.216552 
L 145.146408 341.307609 
L 145.295337 346.6 
M 145.994519 346.6 
L 146.131403 337.519674 
L 146.328402 336.708625 
L 146.525402 343.989404 
L 146.9194 330.935239 
L 146.722401 329.847858 
L 147.116399 337.473491 
L 147.510397 341.082534 
L 147.707396 330.735184 
L 146.9194 337.71168 
L 147.904395 340.493003 
L 148.298394 342.57097 
L 148.495393 342.583063 
L 148.610274 346.6 
M 148.80091 346.6 
L 148.889391 344.258815 
L 149.283389 342.663125 
L 149.405295 346.6 
M 149.520899 346.6 
L 149.677387 337.232143 
L 150.1608 346.6 
M 150.647713 346.6 
L 150.662383 345.8777 
L 150.686082 346.6 
M 151.202423 346.6 
L 151.45038 334.708036 
L 151.647379 340.301037 
L 151.844378 340.348549 
L 152.100981 346.6 
M 152.448211 346.6 
L 152.632374 342.585607 
L 152.829373 344.534308 
L 153.026372 342.942102 
L 153.223372 338.925646 
L 153.61737 342.633758 
L 153.814369 341.615373 
L 154.011368 342.757009 
L 154.121533 346.6 
M 154.274043 346.6 
L 154.602365 326.425229 
L 154.799365 330.606265 
L 154.996364 331.216141 
L 155.193363 333.422732 
L 155.390362 334.321834 
L 155.587361 317.012264 
L 156.178358 333.377687 
L 156.375357 332.424062 
L 156.572357 335.829815 
L 156.769356 333.889281 
L 156.966355 308.944785 
L 157.360353 322.468086 
L 157.95135 335.254003 
L 158.14835 334.290846 
L 158.542348 338.722411 
L 158.14835 313.938887 
L 158.739347 320.345685 
L 159.330344 333.122721 
L 159.527343 334.450461 
L 159.724342 334.873109 
L 159.921342 337.41543 
L 160.118341 325.322886 
L 160.906337 343.801812 
L 161.300335 340.977644 
L 161.497335 341.855699 
L 161.891333 340.942012 
L 162.285331 336.636875 
L 162.48233 340.15311 
L 162.285331 337.447615 
L 162.679329 328.511175 
L 163.356933 346.6 
M 163.504912 346.6 
L 163.664325 330.465106 
L 163.861324 332.885475 
L 164.058323 279.389761 
L 164.64932 303.230089 
L 165.043319 310.797042 
L 164.64932 318.609368 
L 165.240318 323.823554 
L 165.437317 330.311104 
L 165.634316 331.510616 
L 166.028314 338.683655 
L 166.225313 345.88242 
L 166.422312 325.046165 
L 166.816311 333.994227 
L 167.210309 339.772699 
L 167.407308 334.50752 
L 167.760225 346.6 
M 168.224758 346.6 
L 168.392304 341.759189 
L 168.589303 340.722953 
L 168.786302 345.373046 
L 168.983301 341.686474 
L 169.131801 346.6 
M 169.489206 346.6 
L 169.574298 344.326253 
L 169.640999 346.6 
M 170.020046 346.6 
L 170.165296 338.358203 
L 170.465039 346.6 
M 170.639613 346.6 
L 170.756293 341.841501 
L 170.891077 346.6 
M 171.610062 346.6 
L 171.741289 335.095824 
L 172.135287 339.011234 
L 172.332286 339.815293 
L 172.529285 331.124802 
L 172.726284 338.706267 
L 173.120282 332.801578 
L 173.317282 337.004369 
L 173.514281 336.465572 
L 173.845221 346.6 
M 174.205426 346.6 
L 174.302277 338.505357 
L 174.499276 344.025842 
L 174.739556 346.6 
M 174.907321 346.6 
L 175.090274 325.151324 
L 175.484272 338.040256 
L 175.681271 335.16107 
L 175.87827 335.569794 
L 176.075269 329.224305 
L 175.87827 334.324704 
L 176.272268 341.772507 
L 176.469267 342.17328 
L 176.595185 346.6 
M 176.725445 346.6 
L 176.863266 340.780314 
L 177.060265 343.480418 
L 177.257264 329.855166 
L 177.454263 334.210789 
L 177.848261 332.077816 
L 178.41825 346.6 
M 179.808519 346.6 
L 179.818252 346.548933 
L 179.81975 346.6 
M 180.722559 346.6 
L 180.803248 344.367918 
L 180.944422 346.6 
M 181.027951 346.6 
L 181.197246 341.206232 
L 181.348845 346.6 
M 181.473248 346.6 
L 181.591244 344.187416 
L 181.661864 346.6 
M 182.198484 346.6 
L 182.379241 250.161054 
L 183.955234 312.697283 
L 184.74323 331.153509 
L 185.237757 346.6 
M 185.514113 346.6 
L 185.728226 345.635671 
L 185.882261 346.6 
M 186.162133 346.6 
L 186.319223 335.994324 
L 186.516222 333.383749 
L 186.713222 340.874597 
L 187.10722 336.892949 
L 187.501218 339.523241 
L 187.698217 340.086918 
L 187.895216 323.936758 
L 188.289214 334.957863 
L 188.648428 346.6 
M 188.737447 346.6 
L 189.077211 336.448574 
L 189.27421 337.097875 
L 189.471209 339.725855 
L 189.668208 344.471032 
L 189.865207 342.420475 
L 190.062207 332.43373 
L 189.865207 335.836305 
L 190.259206 338.006036 
L 190.456205 336.932781 
L 190.850203 339.622962 
L 191.1942 346.6 
M 191.478541 346.6 
L 191.638199 333.233474 
L 191.995529 346.6 
M 192.060271 346.6 
L 192.229197 338.52287 
L 192.477614 346.6 
M 193.601314 346.6 
L 193.608191 346.394117 
L 193.619129 346.6 
M 193.933936 346.6 
L 194.002189 344.743419 
L 194.199188 344.294551 
L 194.266785 346.6 
M 195.091398 346.6 
L 195.184184 341.488959 
L 195.398487 346.6 
M 196.894356 346.6 
L 196.957176 342.111529 
L 197.154175 341.120467 
L 197.308029 346.6 
M 197.362471 346.6 
L 197.548173 321.34082 
L 197.745172 327.364295 
L 197.942171 326.428487 
L 198.647715 346.6 
M 198.822846 346.6 
L 199.124166 337.909203 
L 199.321165 339.211544 
L 199.518164 330.288645 
L 200.321397 346.6 
M 200.663173 346.6 
L 200.897158 343.140112 
L 200.996871 346.6 
M 201.188663 346.6 
L 201.291156 342.938993 
L 201.094157 335.889943 
L 201.488155 336.606668 
L 201.882154 339.519069 
L 202.079153 338.394748 
L 202.276152 343.647743 
L 202.473151 340.579819 
L 202.67015 326.898648 
L 202.867149 330.748054 
L 203.064148 326.804635 
L 203.261147 332.9007 
L 203.458147 321.911283 
L 204.049144 340.834945 
L 204.443142 344.353575 
L 204.506996 346.6 
M 204.855138 346.6 
L 205.034139 343.384768 
L 205.231139 346.077178 
L 205.625137 342.088183 
L 205.822136 344.25487 
L 206.216134 341.792964 
L 206.019135 341.22283 
L 206.413133 342.868194 
L 206.610132 342.755234 
L 206.807132 342.811592 
L 207.004131 342.589633 
L 207.20113 341.595151 
L 207.398129 341.839126 
L 207.586292 346.6 
M 207.597809 346.6 
L 207.792127 330.394455 
L 207.989126 338.001756 
L 208.186125 336.93083 
L 208.383124 338.653838 
L 208.580124 337.647717 
L 208.777123 326.516818 
L 208.974122 334.237694 
L 209.171121 325.141741 
L 209.565119 340.072525 
L 209.762118 341.036548 
L 209.959117 336.263221 
L 210.156117 335.206307 
L 210.550115 343.656445 
L 210.944113 340.589504 
L 211.11185 346.6 
M 211.150028 346.6 
L 211.338111 324.479829 
L 211.53511 331.178266 
L 211.732109 329.264766 
L 212.283212 346.6 
M 212.360257 346.6 
L 212.520106 340.477428 
L 212.690758 346.6 
M 212.764424 346.6 
L 213.111103 340.641792 
L 213.505102 345.111836 
L 213.702101 346.265315 
L 213.8991 294.525941 
L 214.293098 315.308555 
L 214.687096 328.234232 
L 214.884095 328.241577 
L 215.081094 326.170658 
L 215.766386 346.6 
M 216.141528 346.6 
L 216.263089 344.226526 
L 216.323238 346.6 
M 217.267231 346.6 
L 217.445084 311.177786 
L 218.23308 336.743941 
L 218.430079 331.908771 
L 218.627079 337.795566 
L 218.824078 333.781198 
L 219.021077 339.33169 
L 219.218076 340.808222 
L 219.415075 333.322153 
L 219.612074 330.520135 
L 219.809073 334.517678 
L 220.166717 346.6 
M 220.218687 346.6 
L 220.400071 334.393006 
L 220.59707 338.137802 
L 220.794069 339.33892 
L 220.991068 324.3512 
L 221.582065 338.135966 
L 221.779064 341.945749 
L 221.582065 341.295293 
L 221.976064 338.316808 
L 222.173063 330.964734 
L 222.370062 333.77131 
L 222.567061 332.247827 
L 222.76406 339.788488 
L 222.961059 342.695032 
L 223.072907 346.6 
M 223.534111 346.6 
L 223.749056 335.92687 
L 223.946055 336.399303 
L 224.143054 332.974303 
L 224.537052 334.018154 
L 224.734051 336.875391 
L 224.93105 327.759119 
L 224.734051 249.03222 
L 225.128049 257.036731 
L 225.916046 288.849437 
L 225.719047 296.730568 
L 226.113045 304.219081 
L 226.901041 330.300735 
L 227.29504 337.613211 
L 227.492039 310.513029 
L 227.886037 317.954227 
L 228.083036 312.11685 
L 228.280035 319.671865 
L 228.477034 305.842723 
L 229.068032 325.441274 
L 229.265031 313.912035 
L 229.46203 320.835415 
L 230.053027 326.93728 
L 230.250026 317.963289 
L 230.841024 330.793545 
L 231.038023 320.352239 
L 231.62902 337.644119 
L 231.826019 330.985751 
L 232.023019 336.36874 
L 232.220018 309.82829 
L 232.614016 314.003592 
L 233.008014 327.341777 
L 233.402012 334.381283 
L 233.599011 334.585956 
L 233.796011 332.964707 
L 233.99301 336.189975 
L 234.190009 328.539589 
L 234.387008 333.08384 
L 234.584007 331.116621 
L 234.781006 334.935957 
L 234.978005 317.795302 
L 235.175004 316.869542 
L 235.372004 329.189917 
L 235.569003 333.562095 
L 235.766002 327.802573 
L 236.16 335.903072 
L 236.553998 323.87669 
L 236.947996 332.255998 
L 237.144996 335.716715 
L 237.341995 335.833155 
L 237.538994 293.141927 
L 237.341995 300.96522 
L 237.735993 308.118532 
L 237.932992 315.432209 
L 238.32699 320.302223 
L 238.523989 320.884857 
L 238.917988 331.799331 
L 239.114987 319.090788 
L 239.508985 320.977182 
L 239.705984 324.192364 
L 239.902983 324.029982 
L 240.099982 329.495786 
L 240.296981 318.503617 
L 240.493981 324.872551 
L 239.902983 329.132174 
L 240.69098 333.51992 
L 240.887979 324.974418 
L 241.281977 322.935561 
L 241.478976 322.553499 
L 241.675975 323.159177 
L 242.069974 334.821487 
L 242.266973 337.209182 
L 242.660971 334.99896 
L 243.251968 326.899181 
L 243.448967 334.611787 
L 243.645966 327.559572 
L 244.039965 335.217817 
L 244.236964 316.15241 
L 244.433963 314.263694 
L 245.02496 332.963698 
L 245.221959 327.617502 
L 245.418959 327.899123 
L 245.615958 332.605969 
L 245.812957 327.137361 
L 246.009956 334.842456 
L 246.206955 337.321689 
L 246.403954 320.837582 
L 246.600953 318.530175 
L 246.797952 322.260428 
L 247.191951 332.781748 
L 247.38895 334.257981 
L 247.585949 333.760784 
L 247.782948 320.622208 
L 247.979947 320.014124 
L 248.176946 323.333458 
L 248.373945 321.801846 
L 248.570944 316.708131 
L 248.964943 328.294805 
L 249.161942 319.130699 
L 249.55594 328.602835 
L 249.752939 327.162277 
L 249.949938 330.74052 
L 250.146937 301.210351 
L 250.343936 308.161869 
L 250.737935 304.639266 
L 251.131933 320.107986 
L 251.525931 322.210622 
L 251.919929 331.068573 
L 252.313928 317.62183 
L 252.707926 330.847568 
L 252.904925 324.097463 
L 253.101924 328.566759 
L 253.298923 336.232205 
L 252.904925 338.057638 
L 253.495922 328.910961 
L 253.889921 343.559143 
L 254.08692 344.665767 
L 254.283919 320.461067 
L 254.480918 325.784603 
L 254.677917 322.822475 
L 255.071915 333.438102 
L 255.268914 319.141417 
L 255.662913 328.784852 
L 255.859912 333.265043 
L 256.056911 320.878518 
L 256.647908 336.764157 
L 256.844907 336.14882 
L 257.041906 331.050792 
L 257.238906 334.890113 
L 257.435905 342.310399 
L 257.632904 324.375949 
L 257.829903 321.961043 
L 258.223901 335.831298 
L 258.4209 335.890884 
L 258.814898 339.283966 
L 259.011898 320.046539 
L 259.208897 327.890805 
L 259.405896 331.231953 
L 259.602895 324.276308 
L 259.799894 328.698132 
L 259.996893 325.772759 
L 260.193892 329.775771 
L 260.390891 327.853765 
L 260.587891 332.571872 
L 260.965332 346.6 
M 260.988407 346.6 
L 261.178888 329.170577 
L 260.981889 325.324087 
L 261.375887 323.763745 
L 261.769885 337.010034 
L 262.163883 328.745593 
L 261.769885 336.405735 
L 262.360883 261.634369 
L 262.754881 277.586015 
L 263.148879 301.549872 
L 263.739876 320.974662 
L 263.936876 325.82793 
L 263.542877 329.814747 
L 263.936876 331.863553 
L 264.133875 339.417233 
L 264.330874 337.579047 
L 264.527873 341.210599 
L 264.724872 336.687217 
L 264.921871 329.128009 
L 265.11887 326.267421 
L 265.315869 333.99441 
L 265.512868 328.022687 
L 265.709868 332.698686 
L 265.906867 328.736494 
L 266.300865 335.179444 
L 266.497864 320.021584 
L 266.694863 325.434934 
L 267.147577 346.6 
M 267.727737 346.6 
L 267.876858 338.24226 
L 268.073857 341.954208 
L 268.270856 341.29929 
L 268.467855 339.425465 
L 268.664854 339.522008 
L 268.861853 340.376799 
L 269.035118 346.6 
M 269.082523 346.6 
L 269.255852 340.357413 
L 269.64985 338.726937 
L 269.846849 328.395974 
L 270.043848 326.201897 
L 270.240847 331.308047 
L 270.437846 331.95901 
L 270.634846 328.760548 
L 270.831845 336.696881 
L 271.028844 336.024523 
L 271.225843 343.939988 
L 271.619841 341.158522 
L 271.772695 346.6 
M 272.330824 346.6 
L 272.407838 331.768137 
L 272.604837 334.783788 
L 272.801836 342.695685 
L 273.195834 337.244416 
L 273.392833 329.385119 
L 273.786831 333.704249 
L 273.983831 341.180809 
L 274.18083 338.321903 
L 274.388934 346.6 
M 274.746018 346.6 
L 274.771827 345.497419 
L 274.968826 330.559421 
L 275.165825 325.283143 
L 275.559823 334.565063 
L 275.756823 330.067956 
L 275.953822 338.020802 
L 276.150821 336.043473 
L 275.953822 343.914849 
L 276.11036 346.6 
M 276.689329 346.6 
L 276.741818 342.387688 
L 276.861974 346.6 
M 277.292375 346.6 
L 277.529815 339.398617 
L 277.726814 328.859508 
L 277.960014 346.6 
M 278.435814 346.6 
L 278.51481 334.31429 
L 278.711809 342.230874 
L 278.908808 341.429177 
L 279.038477 346.6 
M 280.770502 346.6 
L 280.8788 341.188447 
L 281.026012 346.6 
M 281.121739 346.6 
L 281.272798 340.582056 
L 281.469797 342.106259 
L 281.666796 340.6118 
L 281.499639 346.6 
M 281.527618 346.6 
L 281.863795 340.384283 
L 282.060794 331.539271 
L 282.45337 346.6 
M 282.455417 346.6 
L 282.651792 330.37356 
L 282.960149 346.6 
M 283.158155 346.6 
L 283.636787 323.650877 
L 283.242789 331.4348 
L 284.030786 339.004814 
L 284.424784 338.407258 
L 284.621783 337.646018 
L 284.818782 342.068636 
L 285.21278 333.619991 
L 285.409779 337.641854 
L 285.606778 336.765414 
L 285.803778 338.557545 
L 286.000777 317.534093 
L 286.197776 325.410703 
L 286.394775 327.780682 
L 286.788773 335.892036 
L 286.985772 338.766094 
L 287.182771 337.272921 
L 286.591774 328.399972 
L 287.379771 326.339512 
L 287.57677 330.173545 
L 287.773769 323.410294 
L 287.970768 331.198846 
L 288.167767 331.977021 
L 288.364766 327.452466 
L 288.167767 330.937476 
L 288.561765 338.525719 
L 288.758764 345.824415 
L 288.955763 342.967996 
L 289.152763 335.31132 
L 289.502893 346.6 
M 289.866289 346.6 
L 289.940759 341.835653 
L 290.075699 346.6 
M 290.641836 346.6 
L 290.728756 333.743155 
L 291.122754 326.997558 
L 291.319753 330.628018 
L 291.516752 338.227228 
L 291.713751 333.80745 
L 291.91075 321.190413 
L 292.107749 319.125111 
L 292.501748 330.736097 
L 292.698747 327.287713 
L 292.895746 330.825851 
L 293.092745 338.418082 
L 293.486743 315.447266 
L 293.683742 322.224142 
L 293.880741 323.590164 
L 294.077741 326.190769 
L 294.27474 334.160744 
L 294.865737 341.146453 
L 295.062736 339.515923 
L 295.259735 340.083076 
L 295.456734 329.068179 
L 295.653733 335.047542 
L 295.850733 324.207976 
L 296.44173 339.60578 
L 296.638729 328.900826 
L 296.835728 336.556299 
L 297.032727 339.641396 
L 297.229726 340.148798 
L 297.426726 330.823723 
L 297.820724 338.763229 
L 298.017723 340.169834 
L 298.214722 339.923429 
L 298.411721 338.879939 
L 298.60872 339.176068 
L 298.805719 339.903356 
L 299.199718 332.655969 
L 299.396717 340.5626 
L 299.593716 338.028158 
L 299.790715 345.401757 
L 300.184713 319.154113 
L 300.578711 333.397769 
L 300.775711 321.853811 
L 300.97271 329.704085 
L 301.195453 346.6 
M 301.532557 346.6 
L 301.563707 345.343656 
L 301.595465 346.6 
M 301.81887 346.6 
L 301.957705 330.996853 
L 302.154704 338.944626 
L 302.351703 337.351028 
L 302.548703 338.895852 
L 302.745702 332.507916 
L 303.1397 339.469378 
L 303.336699 337.601257 
L 303.533698 344.066987 
L 303.730697 338.535708 
L 304.124695 331.896179 
L 304.321695 339.448592 
L 303.730697 327.175983 
L 304.518694 332.058453 
L 304.912692 325.612082 
L 305.30669 337.002702 
L 305.503689 333.136791 
L 305.700688 337.297617 
L 305.897688 345.199934 
L 306.094687 344.221712 
L 306.162175 346.6 
M 306.432334 346.6 
L 306.882683 333.309562 
L 307.079682 336.416751 
L 307.276681 319.742601 
L 307.47368 327.719199 
L 307.67068 328.989308 
L 307.867679 328.613159 
L 308.064678 333.1383 
L 308.261677 341.104044 
L 308.064678 338.242532 
L 308.458676 339.420224 
L 308.655675 320.531627 
L 309.049673 336.180776 
L 309.246673 320.734404 
L 309.640671 339.744063 
L 310.034669 327.523103 
L 310.231668 332.322308 
L 310.428667 339.940015 
L 310.625666 262.521123 
L 312.398658 332.730284 
L 312.595658 331.410754 
L 312.792657 334.796641 
L 312.989656 335.379586 
L 313.186655 335.084711 
L 313.383654 331.814381 
L 313.580653 333.698503 
L 313.777652 334.108182 
L 313.974651 335.012442 
L 314.17165 333.148109 
L 314.36865 340.649222 
L 314.565649 335.221619 
L 314.959647 332.367101 
L 315.156646 335.791543 
L 315.353645 343.165225 
L 315.550644 336.669883 
L 315.747643 334.82101 
L 315.944643 339.320789 
L 316.141642 241.027032 
L 318.308632 325.004587 
L 318.70263 334.11778 
L 318.899629 336.771533 
L 318.70263 336.353872 
L 318.899629 335.367921 
L 319.096628 337.799055 
L 319.293628 345.678643 
L 319.490627 338.824386 
L 319.687626 346.013548 
L 319.884625 344.888033 
L 319.933632 346.6 
M 320.272623 346.6 
L 320.475622 340.043431 
L 320.657511 346.6 
M 320.701789 346.6 
L 320.86962 343.465788 
L 321.06662 343.570445 
L 321.263619 343.313919 
L 321.460618 343.703275 
L 321.534328 346.6 
M 322.050703 346.6 
L 322.248614 334.94121 
L 322.839612 345.251555 
L 323.036611 319.778722 
L 323.430609 343.096056 
L 323.627608 329.046333 
L 323.824607 336.640379 
L 324.218605 333.76413 
L 324.56976 346.6 
M 326.851134 346.6 
L 326.976593 328.325664 
L 327.370591 337.900138 
L 327.579937 346.6 
M 328.313624 346.6 
L 328.355587 345.072118 
L 328.394329 346.6 
M 329.618844 346.6 
L 329.734581 341.069137 
L 329.872127 346.6 
M 329.941301 346.6 
L 330.128579 300.543672 
L 331.113575 335.755807 
L 331.310574 337.957408 
L 331.507573 343.198709 
L 331.704572 336.405504 
L 331.901571 335.648167 
L 332.09857 343.029494 
L 332.295569 342.572465 
L 332.492568 341.587271 
L 332.689568 342.069707 
L 332.818172 346.6 
M 333.20401 346.6 
L 333.280565 340.981735 
L 333.434404 346.6 
M 334.597815 346.6 
L 334.659559 342.138787 
L 334.780883 346.6 
M 335.480694 346.6 
L 335.644554 275.647085 
L 336.235552 299.541539 
L 336.62955 307.523897 
L 336.826549 315.039245 
L 337.220547 338.039955 
L 337.417546 345.91802 
L 337.614545 343.004459 
L 337.704952 346.6 
M 338.930185 346.6 
L 338.993539 342.11825 
L 339.171756 346.6 
M 341.835736 346.6 
L 341.948526 336.955302 
L 342.259966 346.6 
M 344.897822 346.6 
L 344.903513 346.427432 
L 344.909875 346.6 
M 346.437114 346.6 
L 346.676505 339.986186 
L 346.873504 342.619329 
L 347.026539 346.6 
M 348.003635 346.6 
L 348.055499 343.28739 
L 348.172736 346.6 
M 351.39316 346.6 
L 351.404484 346.411724 
L 351.410206 346.6 
M 351.710892 346.6 
L 351.995481 335.243883 
L 352.19248 343.124524 
L 352.389479 344.783589 
L 352.443159 346.6 
M 353.045633 346.6 
L 353.177476 346.11088 
L 353.191725 346.6 
M 353.449722 346.6 
L 353.571474 336.449679 
L 353.768473 344.361497 
L 353.965472 344.041148 
L 354.162471 344.618387 
L 354.55647 336.853221 
L 354.753469 344.286901 
L 355.147467 344.195371 
L 355.217862 346.6 
M 360.838942 346.6 
L 360.860441 343.468579 
L 360.951044 346.6 
M 363.944155 346.6 
L 364.012427 339.460512 
L 364.209426 340.362492 
L 364.38296 346.6 
M 364.905909 346.6 
L 364.997423 336.979128 
L 365.288724 346.6 
M 365.647011 346.6 
L 365.785419 328.69328 
L 366.179417 342.79369 
L 366.376417 338.514992 
L 366.734124 346.6 
M 368.231731 346.6 
L 368.346408 330.760404 
L 368.543407 338.354956 
L 368.740406 339.458885 
L 368.933324 346.6 
M 368.943255 346.6 
L 369.134404 341.663557 
L 369.331403 343.35318 
L 369.425261 346.6 
M 369.605058 346.6 
L 369.725402 340.998554 
L 369.922401 343.478244 
L 370.1194 341.99436 
L 370.316399 344.057842 
L 370.513398 335.665141 
L 370.857499 346.6 
M 370.981576 346.6 
L 371.104395 344.363396 
L 371.301395 328.669636 
L 371.695393 341.978438 
L 371.892392 338.576014 
L 372.089391 340.152505 
L 372.268463 346.6 
M 372.295023 346.6 
L 372.483389 332.515662 
L 372.877387 334.650127 
L 373.074387 338.328537 
L 373.271386 336.094254 
L 373.665384 337.100604 
L 374.059382 341.027071 
L 374.215687 346.6 
M 374.310408 346.6 
L 374.45338 342.760429 
L 374.550231 346.6 
M 374.802559 346.6 
L 375.044378 342.812636 
L 375.139987 346.6 
M 375.745625 346.6 
L 375.832374 334.159782 
L 376.029373 341.615373 
L 376.226372 342.684392 
L 376.364965 346.6 
M 376.465687 346.6 
L 376.620371 340.567893 
L 376.81737 343.782458 
L 377.014369 342.88742 
L 377.135874 346.6 
M 379.527111 346.6 
L 379.575357 344.700518 
L 379.772357 326.524851 
L 380.095302 346.6 
M 380.772246 346.6 
L 380.954351 338.557693 
L 381.15135 339.569973 
L 381.345412 346.6 
M 381.354511 346.6 
L 381.545349 343.304457 
L 381.637825 346.6 
M 382.142004 346.6 
L 382.333345 320.260347 
L 382.87782 346.6 
M 383.297653 346.6 
L 383.318341 345.660707 
L 383.34652 346.6 
M 383.617297 346.6 
L 383.909338 335.437527 
L 384.106337 343.891526 
L 384.303336 342.174284 
L 384.500335 332.14468 
L 384.697335 335.641507 
L 384.894334 334.055626 
L 385.091333 334.593763 
L 385.288332 342.028631 
L 385.485331 337.72349 
L 385.68233 336.803179 
L 385.879329 338.960943 
L 386.076328 346.140683 
L 386.273327 341.924975 
L 386.667326 337.925512 
L 386.864325 332.379704 
L 387.246521 346.6 
M 387.279431 346.6 
L 387.455322 343.049984 
L 387.652321 334.753409 
L 388.04632 340.974937 
L 388.243319 331.882371 
L 388.6358 346.6 
M 389.006319 346.6 
L 389.228314 341.399711 
L 389.425313 341.777393 
L 389.561804 346.6 
M 389.71515 346.6 
L 389.819312 344.201261 
L 389.959771 346.6 
M 390.595906 346.6 
L 390.607308 346.010045 
L 390.804307 329.176701 
L 391.198305 335.937646 
L 391.395305 336.173946 
L 391.592304 343.176844 
L 391.789303 345.374828 
L 391.986302 343.492237 
L 392.183301 340.016673 
L 392.378786 346.6 
M 392.383282 346.6 
L 392.577299 343.283777 
L 392.957197 346.6 
M 393.378304 346.6 
L 393.562295 266.63061 
L 394.54729 306.308787 
L 394.744289 321.604132 
L 394.941289 312.943299 
L 395.138288 261.189461 
L 396.91128 329.988374 
L 397.108279 329.108691 
L 397.502277 336.975175 
L 397.699276 336.198492 
L 397.896275 337.382742 
L 398.093274 342.834702 
L 398.487273 343.650812 
L 398.487273 343.650812 
" style="fill:none;stroke:#ff7f0e;stroke-linecap:square;stroke-width:1.5;"/>
   </g>
   <g id="patch_3">
    <path d="M 57.6 307.584 
L 57.6 41.472 
" style="fill:none;stroke:#000000;stroke-linecap:square;stroke-linejoin:miter;stroke-width:0.8;"/>
   </g>
   <g id="patch_4">
    <path d="M 414.72 307.584 
L 414.72 41.472 
" style="fill:none;stroke:#000000;stroke-linecap:square;stroke-linejoin:miter;stroke-width:0.8;"/>
   </g>
   <g id="patch_5">
    <path d="M 57.6 307.584 
L 414.72 307.584 
" style="fill:none;stroke:#000000;stroke-linecap:square;stroke-linejoin:miter;stroke-width:0.8;"/>
   </g>
   <g id="patch_6">
    <path d="M 57.6 41.472 
L 414.72 41.472 
" style="fill:none;stroke:#000000;stroke-linecap:square;stroke-linejoin:miter;stroke-width:0.8;"/>
   </g>
  </g>
 </g>
 <defs>
  <clipPath id="p37721fa7b3">
   <rect height="266.112" width="357.12" x="57.6" y="41.472"/>
  </clipPath>
 </defs>
</svg>
