<?xml version="1.0" encoding="utf-8" standalone="no"?>
<!DOCTYPE svg PUBLIC "-//W3C//DTD SVG 1.1//EN"
  "http://www.w3.org/Graphics/SVG/1.1/DTD/svg11.dtd">
<svg height="720pt" version="1.1" viewBox="0 0 1440 720" width="1440pt" xmlns="http://www.w3.org/2000/svg" xmlns:xlink="http://www.w3.org/1999/xlink">
 <metadata>
  <rdf:RDF xmlns:cc="http://creativecommons.org/ns#" xmlns:dc="http://purl.org/dc/elements/1.1/" xmlns:rdf="http://www.w3.org/1999/02/22-rdf-syntax-ns#">
   <cc:Work>
    <dc:type rdf:resource="http://purl.org/dc/dcmitype/StillImage"/>
    <dc:date>2022-01-06T21:25:06.839870</dc:date>
    <dc:format>image/svg+xml</dc:format>
    <dc:creator>
     <cc:Agent>
      <dc:title>Matplotlib v3.4.3, https://matplotlib.org/</dc:title>
     </cc:Agent>
    </dc:creator>
   </cc:Work>
  </rdf:RDF>
 </metadata>
 <defs>
  <style type="text/css">*{stroke-linecap:butt;stroke-linejoin:round;}</style>
 </defs>
 <g id="figure_1">
  <g id="patch_1">
   <path d="M 0 720 
L 1440 720 
L 1440 0 
L 0 0 
z
" style="fill:#ffffff;"/>
  </g>
  <g id="axes_1">
   <g id="patch_2">
    <path d="M 180 640.8 
L 1296 640.8 
L 1296 86.4 
L 180 86.4 
z
" style="fill:#ffffff;"/>
   </g>
   <g id="matplotlib.axis_1">
    <g id="xtick_1">
     <g id="line2d_1">
      <defs>
       <path d="M 0 0 
L 0 3.5 
" id="m064b8c3846" style="stroke:#000000;stroke-width:0.8;"/>
      </defs>
      <g>
       <use style="stroke:#000000;stroke-width:0.8;" x="230.727273" xlink:href="#m064b8c3846" y="640.8"/>
      </g>
     </g>
     <g id="text_1">
      <!-- 39000 -->
      <g transform="translate(214.821023 655.398438)scale(0.1 -0.1)">
       <defs>
        <path d="M 2597 2516 
Q 3050 2419 3304 2112 
Q 3559 1806 3559 1356 
Q 3559 666 3084 287 
Q 2609 -91 1734 -91 
Q 1441 -91 1130 -33 
Q 819 25 488 141 
L 488 750 
Q 750 597 1062 519 
Q 1375 441 1716 441 
Q 2309 441 2620 675 
Q 2931 909 2931 1356 
Q 2931 1769 2642 2001 
Q 2353 2234 1838 2234 
L 1294 2234 
L 1294 2753 
L 1863 2753 
Q 2328 2753 2575 2939 
Q 2822 3125 2822 3475 
Q 2822 3834 2567 4026 
Q 2313 4219 1838 4219 
Q 1578 4219 1281 4162 
Q 984 4106 628 3988 
L 628 4550 
Q 988 4650 1302 4700 
Q 1616 4750 1894 4750 
Q 2613 4750 3031 4423 
Q 3450 4097 3450 3541 
Q 3450 3153 3228 2886 
Q 3006 2619 2597 2516 
z
" id="DejaVuSans-33" transform="scale(0.015625)"/>
        <path d="M 703 97 
L 703 672 
Q 941 559 1184 500 
Q 1428 441 1663 441 
Q 2288 441 2617 861 
Q 2947 1281 2994 2138 
Q 2813 1869 2534 1725 
Q 2256 1581 1919 1581 
Q 1219 1581 811 2004 
Q 403 2428 403 3163 
Q 403 3881 828 4315 
Q 1253 4750 1959 4750 
Q 2769 4750 3195 4129 
Q 3622 3509 3622 2328 
Q 3622 1225 3098 567 
Q 2575 -91 1691 -91 
Q 1453 -91 1209 -44 
Q 966 3 703 97 
z
M 1959 2075 
Q 2384 2075 2632 2365 
Q 2881 2656 2881 3163 
Q 2881 3666 2632 3958 
Q 2384 4250 1959 4250 
Q 1534 4250 1286 3958 
Q 1038 3666 1038 3163 
Q 1038 2656 1286 2365 
Q 1534 2075 1959 2075 
z
" id="DejaVuSans-39" transform="scale(0.015625)"/>
        <path d="M 2034 4250 
Q 1547 4250 1301 3770 
Q 1056 3291 1056 2328 
Q 1056 1369 1301 889 
Q 1547 409 2034 409 
Q 2525 409 2770 889 
Q 3016 1369 3016 2328 
Q 3016 3291 2770 3770 
Q 2525 4250 2034 4250 
z
M 2034 4750 
Q 2819 4750 3233 4129 
Q 3647 3509 3647 2328 
Q 3647 1150 3233 529 
Q 2819 -91 2034 -91 
Q 1250 -91 836 529 
Q 422 1150 422 2328 
Q 422 3509 836 4129 
Q 1250 4750 2034 4750 
z
" id="DejaVuSans-30" transform="scale(0.015625)"/>
       </defs>
       <use xlink:href="#DejaVuSans-33"/>
       <use x="63.623047" xlink:href="#DejaVuSans-39"/>
       <use x="127.246094" xlink:href="#DejaVuSans-30"/>
       <use x="190.869141" xlink:href="#DejaVuSans-30"/>
       <use x="254.492188" xlink:href="#DejaVuSans-30"/>
      </g>
     </g>
    </g>
    <g id="xtick_2">
     <g id="line2d_2">
      <g>
       <use style="stroke:#000000;stroke-width:0.8;" x="384.632833" xlink:href="#m064b8c3846" y="640.8"/>
      </g>
     </g>
     <g id="text_2">
      <!-- 39250 -->
      <g transform="translate(368.726583 655.398438)scale(0.1 -0.1)">
       <defs>
        <path d="M 1228 531 
L 3431 531 
L 3431 0 
L 469 0 
L 469 531 
Q 828 903 1448 1529 
Q 2069 2156 2228 2338 
Q 2531 2678 2651 2914 
Q 2772 3150 2772 3378 
Q 2772 3750 2511 3984 
Q 2250 4219 1831 4219 
Q 1534 4219 1204 4116 
Q 875 4013 500 3803 
L 500 4441 
Q 881 4594 1212 4672 
Q 1544 4750 1819 4750 
Q 2544 4750 2975 4387 
Q 3406 4025 3406 3419 
Q 3406 3131 3298 2873 
Q 3191 2616 2906 2266 
Q 2828 2175 2409 1742 
Q 1991 1309 1228 531 
z
" id="DejaVuSans-32" transform="scale(0.015625)"/>
        <path d="M 691 4666 
L 3169 4666 
L 3169 4134 
L 1269 4134 
L 1269 2991 
Q 1406 3038 1543 3061 
Q 1681 3084 1819 3084 
Q 2600 3084 3056 2656 
Q 3513 2228 3513 1497 
Q 3513 744 3044 326 
Q 2575 -91 1722 -91 
Q 1428 -91 1123 -41 
Q 819 9 494 109 
L 494 744 
Q 775 591 1075 516 
Q 1375 441 1709 441 
Q 2250 441 2565 725 
Q 2881 1009 2881 1497 
Q 2881 1984 2565 2268 
Q 2250 2553 1709 2553 
Q 1456 2553 1204 2497 
Q 953 2441 691 2322 
L 691 4666 
z
" id="DejaVuSans-35" transform="scale(0.015625)"/>
       </defs>
       <use xlink:href="#DejaVuSans-33"/>
       <use x="63.623047" xlink:href="#DejaVuSans-39"/>
       <use x="127.246094" xlink:href="#DejaVuSans-32"/>
       <use x="190.869141" xlink:href="#DejaVuSans-35"/>
       <use x="254.492188" xlink:href="#DejaVuSans-30"/>
      </g>
     </g>
    </g>
    <g id="xtick_3">
     <g id="line2d_3">
      <g>
       <use style="stroke:#000000;stroke-width:0.8;" x="538.538394" xlink:href="#m064b8c3846" y="640.8"/>
      </g>
     </g>
     <g id="text_3">
      <!-- 39500 -->
      <g transform="translate(522.632144 655.398438)scale(0.1 -0.1)">
       <use xlink:href="#DejaVuSans-33"/>
       <use x="63.623047" xlink:href="#DejaVuSans-39"/>
       <use x="127.246094" xlink:href="#DejaVuSans-35"/>
       <use x="190.869141" xlink:href="#DejaVuSans-30"/>
       <use x="254.492188" xlink:href="#DejaVuSans-30"/>
      </g>
     </g>
    </g>
    <g id="xtick_4">
     <g id="line2d_4">
      <g>
       <use style="stroke:#000000;stroke-width:0.8;" x="692.443954" xlink:href="#m064b8c3846" y="640.8"/>
      </g>
     </g>
     <g id="text_4">
      <!-- 39750 -->
      <g transform="translate(676.537704 655.398438)scale(0.1 -0.1)">
       <defs>
        <path d="M 525 4666 
L 3525 4666 
L 3525 4397 
L 1831 0 
L 1172 0 
L 2766 4134 
L 525 4134 
L 525 4666 
z
" id="DejaVuSans-37" transform="scale(0.015625)"/>
       </defs>
       <use xlink:href="#DejaVuSans-33"/>
       <use x="63.623047" xlink:href="#DejaVuSans-39"/>
       <use x="127.246094" xlink:href="#DejaVuSans-37"/>
       <use x="190.869141" xlink:href="#DejaVuSans-35"/>
       <use x="254.492188" xlink:href="#DejaVuSans-30"/>
      </g>
     </g>
    </g>
    <g id="xtick_5">
     <g id="line2d_5">
      <g>
       <use style="stroke:#000000;stroke-width:0.8;" x="846.349515" xlink:href="#m064b8c3846" y="640.8"/>
      </g>
     </g>
     <g id="text_5">
      <!-- 40000 -->
      <g transform="translate(830.443265 655.398438)scale(0.1 -0.1)">
       <defs>
        <path d="M 2419 4116 
L 825 1625 
L 2419 1625 
L 2419 4116 
z
M 2253 4666 
L 3047 4666 
L 3047 1625 
L 3713 1625 
L 3713 1100 
L 3047 1100 
L 3047 0 
L 2419 0 
L 2419 1100 
L 313 1100 
L 313 1709 
L 2253 4666 
z
" id="DejaVuSans-34" transform="scale(0.015625)"/>
       </defs>
       <use xlink:href="#DejaVuSans-34"/>
       <use x="63.623047" xlink:href="#DejaVuSans-30"/>
       <use x="127.246094" xlink:href="#DejaVuSans-30"/>
       <use x="190.869141" xlink:href="#DejaVuSans-30"/>
       <use x="254.492188" xlink:href="#DejaVuSans-30"/>
      </g>
     </g>
    </g>
    <g id="xtick_6">
     <g id="line2d_6">
      <g>
       <use style="stroke:#000000;stroke-width:0.8;" x="1000.255075" xlink:href="#m064b8c3846" y="640.8"/>
      </g>
     </g>
     <g id="text_6">
      <!-- 40250 -->
      <g transform="translate(984.348825 655.398438)scale(0.1 -0.1)">
       <use xlink:href="#DejaVuSans-34"/>
       <use x="63.623047" xlink:href="#DejaVuSans-30"/>
       <use x="127.246094" xlink:href="#DejaVuSans-32"/>
       <use x="190.869141" xlink:href="#DejaVuSans-35"/>
       <use x="254.492188" xlink:href="#DejaVuSans-30"/>
      </g>
     </g>
    </g>
    <g id="xtick_7">
     <g id="line2d_7">
      <g>
       <use style="stroke:#000000;stroke-width:0.8;" x="1154.160635" xlink:href="#m064b8c3846" y="640.8"/>
      </g>
     </g>
     <g id="text_7">
      <!-- 40500 -->
      <g transform="translate(1138.254385 655.398438)scale(0.1 -0.1)">
       <use xlink:href="#DejaVuSans-34"/>
       <use x="63.623047" xlink:href="#DejaVuSans-30"/>
       <use x="127.246094" xlink:href="#DejaVuSans-35"/>
       <use x="190.869141" xlink:href="#DejaVuSans-30"/>
       <use x="254.492188" xlink:href="#DejaVuSans-30"/>
      </g>
     </g>
    </g>
   </g>
   <g id="matplotlib.axis_2">
    <g id="ytick_1">
     <g id="line2d_8">
      <defs>
       <path d="M 0 0 
L -3.5 0 
" id="m8a7e05ab5f" style="stroke:#000000;stroke-width:0.8;"/>
      </defs>
      <g>
       <use style="stroke:#000000;stroke-width:0.8;" x="180" xlink:href="#m8a7e05ab5f" y="574.043389"/>
      </g>
     </g>
     <g id="text_8">
      <!-- −3 -->
      <g transform="translate(158.257812 577.842608)scale(0.1 -0.1)">
       <defs>
        <path d="M 678 2272 
L 4684 2272 
L 4684 1741 
L 678 1741 
L 678 2272 
z
" id="DejaVuSans-2212" transform="scale(0.015625)"/>
       </defs>
       <use xlink:href="#DejaVuSans-2212"/>
       <use x="83.789062" xlink:href="#DejaVuSans-33"/>
      </g>
     </g>
    </g>
    <g id="ytick_2">
     <g id="line2d_9">
      <g>
       <use style="stroke:#000000;stroke-width:0.8;" x="180" xlink:href="#m8a7e05ab5f" y="490.753716"/>
      </g>
     </g>
     <g id="text_9">
      <!-- −2 -->
      <g transform="translate(158.257812 494.552935)scale(0.1 -0.1)">
       <use xlink:href="#DejaVuSans-2212"/>
       <use x="83.789062" xlink:href="#DejaVuSans-32"/>
      </g>
     </g>
    </g>
    <g id="ytick_3">
     <g id="line2d_10">
      <g>
       <use style="stroke:#000000;stroke-width:0.8;" x="180" xlink:href="#m8a7e05ab5f" y="407.464043"/>
      </g>
     </g>
     <g id="text_10">
      <!-- −1 -->
      <g transform="translate(158.257812 411.263262)scale(0.1 -0.1)">
       <defs>
        <path d="M 794 531 
L 1825 531 
L 1825 4091 
L 703 3866 
L 703 4441 
L 1819 4666 
L 2450 4666 
L 2450 531 
L 3481 531 
L 3481 0 
L 794 0 
L 794 531 
z
" id="DejaVuSans-31" transform="scale(0.015625)"/>
       </defs>
       <use xlink:href="#DejaVuSans-2212"/>
       <use x="83.789062" xlink:href="#DejaVuSans-31"/>
      </g>
     </g>
    </g>
    <g id="ytick_4">
     <g id="line2d_11">
      <g>
       <use style="stroke:#000000;stroke-width:0.8;" x="180" xlink:href="#m8a7e05ab5f" y="324.17437"/>
      </g>
     </g>
     <g id="text_11">
      <!-- 0 -->
      <g transform="translate(166.6375 327.973588)scale(0.1 -0.1)">
       <use xlink:href="#DejaVuSans-30"/>
      </g>
     </g>
    </g>
    <g id="ytick_5">
     <g id="line2d_12">
      <g>
       <use style="stroke:#000000;stroke-width:0.8;" x="180" xlink:href="#m8a7e05ab5f" y="240.884697"/>
      </g>
     </g>
     <g id="text_12">
      <!-- 1 -->
      <g transform="translate(166.6375 244.683915)scale(0.1 -0.1)">
       <use xlink:href="#DejaVuSans-31"/>
      </g>
     </g>
    </g>
    <g id="ytick_6">
     <g id="line2d_13">
      <g>
       <use style="stroke:#000000;stroke-width:0.8;" x="180" xlink:href="#m8a7e05ab5f" y="157.595023"/>
      </g>
     </g>
     <g id="text_13">
      <!-- 2 -->
      <g transform="translate(166.6375 161.394242)scale(0.1 -0.1)">
       <use xlink:href="#DejaVuSans-32"/>
      </g>
     </g>
    </g>
   </g>
   <g id="line2d_14">
    <path clip-path="url(#p217a85c2bc)" d="M 230.727273 480.154937 
L 231.342895 480.154937 
L 230.727273 480.154937 
L 231.958517 486.962083 
L 232.574139 498.059843 
L 234.421006 498.059843 
L 235.036628 468.590885 
L 235.652251 468.590885 
L 235.036628 581.638435 
L 236.267873 424.147778 
L 236.883495 552.373869 
L 237.499117 552.373869 
L 238.11474 518.630329 
L 238.730362 518.630329 
L 239.345984 508.909008 
L 239.961606 508.909008 
L 240.577229 482.587222 
L 241.192851 472.000257 
L 241.808473 482.587222 
L 242.424095 563.633188 
L 243.65534 563.633188 
L 244.270962 615.6 
L 244.886584 615.6 
L 245.502207 549.064884 
L 247.349073 549.064884 
L 247.964695 615.6 
L 248.580318 450.841964 
L 249.19594 468.093949 
L 249.811562 468.093949 
L 250.427184 515.917599 
L 251.042807 515.917599 
L 251.658429 615.6 
L 254.120918 615.6 
L 254.73654 485.61863 
L 255.352162 485.61863 
L 255.967785 468.918423 
L 257.199029 468.898039 
L 257.814651 473.034568 
L 258.430274 473.034568 
L 259.045896 507.701422 
L 259.661518 473.034568 
L 260.27714 506.533827 
L 260.892763 442.857033 
L 261.508385 442.857033 
L 262.124007 448.113116 
L 262.739629 448.113116 
L 263.355252 512.051991 
L 263.970874 547.926204 
L 264.586496 556.781494 
L 265.202118 547.926204 
L 266.433363 547.926204 
L 267.048985 523.144076 
L 267.664607 491.899285 
L 268.280229 491.899285 
L 268.895852 425.869289 
L 270.127096 425.869289 
L 270.742718 464.757992 
L 271.358341 513.149182 
L 271.973963 612.916578 
L 272.589585 513.149182 
L 273.205207 615.6 
L 273.82083 615.6 
L 274.436452 450.939482 
L 275.667696 450.939482 
L 276.283319 450.015039 
L 276.898941 427.754457 
L 277.514563 558.642835 
L 278.130185 425.73773 
L 278.745808 425.73773 
L 279.36143 443.143742 
L 279.977052 443.143742 
L 280.592674 420.874926 
L 281.208297 424.025122 
L 281.823919 424.025122 
L 282.439541 422.982315 
L 283.055163 424.025122 
L 283.670786 448.112313 
L 284.286408 555.916756 
L 284.90203 555.916756 
L 285.517652 513.507956 
L 286.133274 456.504151 
L 286.748897 513.507956 
L 287.364519 487.86054 
L 289.211386 487.86054 
L 289.827008 483.957956 
L 290.44263 483.957956 
L 291.058252 495.52518 
L 291.673875 495.52518 
L 292.289497 615.6 
L 294.136364 615.6 
L 294.751986 521.868613 
L 295.367608 615.6 
L 296.598853 615.6 
L 297.214475 470.458533 
L 297.830097 470.458533 
L 298.445719 427.914645 
L 299.061342 432.475517 
L 299.676964 427.914645 
L 300.292586 427.914645 
L 300.908208 422.384166 
L 301.523831 432.475517 
L 302.139453 467.842897 
L 302.755075 479.954296 
L 303.370697 501.067644 
L 304.601942 501.067644 
L 305.217564 437.137924 
L 305.833186 437.137924 
L 306.448808 450.514869 
L 307.064431 502.675569 
L 308.295675 502.675569 
L 308.911297 533.25503 
L 309.52692 615.6 
L 310.142542 563.826819 
L 310.758164 563.826819 
L 311.373786 615.6 
L 311.989409 563.826819 
L 312.605031 466.32872 
L 313.220653 466.32872 
L 313.836275 552.204251 
L 313.220653 552.204251 
L 314.451898 615.6 
L 313.836275 615.6 
L 318.145631 615.6 
L 318.761253 519.157435 
L 319.376876 501.199055 
L 319.992498 501.199055 
L 319.376876 489.538765 
L 320.60812 489.538765 
L 321.223742 488.77652 
L 322.454987 488.77652 
L 323.070609 491.733327 
L 323.686231 537.24731 
L 324.301853 537.24731 
L 324.917476 473.085688 
L 325.533098 500.311572 
L 326.14872 473.085688 
L 326.764342 467.084962 
L 327.379965 467.084962 
L 327.995587 500.311572 
L 328.611209 615.6 
L 329.226831 615.6 
L 329.842454 504.372866 
L 330.458076 500.690977 
L 331.073698 438.75105 
L 331.68932 438.75105 
L 332.304943 434.731953 
L 333.536187 434.731953 
L 334.151809 586.368553 
L 335.383054 586.368553 
L 335.998676 597.482216 
L 336.614298 597.482216 
L 337.229921 555.12471 
L 338.461165 555.12471 
L 339.076787 615.6 
L 339.69241 578.669184 
L 340.308032 615.6 
L 341.539276 615.6 
L 342.154898 611.269884 
L 342.770521 611.269884 
L 343.386143 547.265137 
L 346.464254 547.193295 
L 347.079876 615.6 
L 348.926743 615.6 
L 350.157988 499.532486 
L 351.389232 499.532486 
L 352.004854 615.6 
L 353.236099 615.6 
L 353.851721 614.900063 
L 354.467343 520.997435 
L 355.082966 493.931267 
L 356.31421 493.931267 
L 356.929832 528.212661 
L 357.545455 528.212661 
L 358.161077 488.171093 
L 358.776699 487.711458 
L 358.161077 412.702833 
L 360.007944 412.702833 
L 360.623566 457.214011 
L 361.239188 488.411029 
L 361.85481 615.6 
L 364.932921 615.6 
L 365.548544 484.532401 
L 366.164166 615.6 
L 366.779788 615.6 
L 367.39541 436.743147 
L 368.011033 436.743147 
L 368.626655 615.6 
L 369.242277 520.008047 
L 369.857899 615.6 
L 371.089144 615.6 
L 371.704766 609.068571 
L 372.320388 615.6 
L 413.567079 615.6 
L 414.182701 511.082457 
L 414.798323 615.6 
L 442.501324 615.6 
L 443.116946 518.997222 
L 443.732568 518.997222 
L 444.348191 615.6 
L 454.813769 615.6 
L 455.429391 575.721803 
L 456.045013 575.721803 
L 456.660635 479.077973 
L 457.276258 461.295283 
L 457.89188 461.295283 
L 458.507502 399.1635 
L 459.123124 398.516184 
L 458.507502 514.090927 
L 459.738747 615.6 
L 460.354369 522.635134 
L 460.969991 615.6 
L 461.585613 615.6 
L 459.123124 522.635134 
L 462.201236 522.635134 
L 462.816858 615.6 
L 464.663725 615.6 
L 465.279347 481.028745 
L 465.894969 445.313874 
L 467.126214 445.313874 
L 467.741836 608.925073 
L 468.357458 510.715575 
L 469.588703 510.715575 
L 470.204325 519.00582 
L 472.051192 519.00582 
L 472.666814 504.174325 
L 473.282436 504.174325 
L 473.898058 518.882878 
L 474.51368 566.454635 
L 475.129303 518.882878 
L 475.744925 532.516418 
L 476.360547 518.882878 
L 477.591792 518.856653 
L 478.207414 512.083537 
L 478.823036 437.137924 
L 479.438658 437.137924 
L 480.054281 521.088251 
L 481.285525 521.088251 
L 481.901147 462.473711 
L 482.51677 461.771764 
L 483.748014 421.671689 
L 484.363636 413.632192 
L 484.979259 413.313777 
L 485.594881 421.671689 
L 486.210503 440.094023 
L 488.05737 440.094023 
L 488.672992 409.461844 
L 489.288614 403.251308 
L 489.904237 409.461844 
L 490.519859 402.598832 
L 491.135481 402.598832 
L 491.751103 404.730365 
L 492.366726 408.934457 
L 492.982348 615.6 
L 493.59797 615.6 
L 494.213592 431.93845 
L 494.829214 472.59135 
L 495.444837 431.93845 
L 494.213592 429.27931 
L 496.060459 404.969834 
L 496.676081 429.27931 
L 497.291703 429.27931 
L 497.907326 404.872254 
L 498.522948 404.872254 
L 499.13857 436.908376 
L 499.754192 476.010547 
L 500.369815 455.770241 
L 500.985437 459.485492 
L 502.216681 459.485492 
L 502.832304 504.127051 
L 503.447926 504.127051 
L 504.063548 615.6 
L 504.67917 504.127051 
L 505.294793 493.694655 
L 506.526037 493.694655 
L 507.141659 449.662218 
L 507.757282 449.662218 
L 507.141659 449.662218 
L 508.372904 410.608951 
L 508.988526 405.382002 
L 510.219771 405.382002 
L 510.835393 460.962582 
L 512.682259 460.962582 
L 513.297882 423.900297 
L 513.913504 423.900297 
L 514.529126 445.910068 
L 515.144748 492.879408 
L 515.760371 445.910068 
L 514.529126 482.00245 
L 516.991615 482.00245 
L 517.607237 470.809183 
L 518.22286 470.809183 
L 518.838482 440.525186 
L 519.454104 434.644103 
L 520.069726 420.496175 
L 520.685349 426.706014 
L 521.300971 426.706014 
L 521.916593 423.947964 
L 523.147838 423.947964 
L 523.76346 434.352764 
L 524.379082 497.306159 
L 524.994704 497.306159 
L 525.610327 511.68838 
L 526.225949 497.306159 
L 526.841571 497.306159 
L 527.457193 488.206835 
L 528.688438 488.206835 
L 529.30406 514.716136 
L 529.919682 514.716136 
L 530.535305 445.801397 
L 531.150927 514.716136 
L 531.766549 434.520416 
L 532.382171 434.520416 
L 532.997793 490.572385 
L 534.84466 490.572385 
L 535.460282 478.271917 
L 536.691527 478.271917 
L 537.307149 459.279168 
L 537.922771 457.9466 
L 538.538394 387.343955 
L 539.154016 380.240167 
L 540.38526 380.240167 
L 541.616505 518.851405 
L 542.232127 540.246199 
L 542.847749 518.851405 
L 543.463372 449.076262 
L 544.078994 518.851405 
L 544.694616 518.852116 
L 545.310238 449.076262 
L 545.925861 518.852116 
L 546.541483 518.852116 
L 547.157105 513.684623 
L 547.772727 513.684623 
L 548.38835 615.6 
L 549.003972 513.684623 
L 549.619594 450.403488 
L 550.235216 450.403488 
L 549.619594 412.76814 
L 550.850838 412.376559 
L 551.466461 412.376559 
L 552.082083 412.76814 
L 552.697705 428.404826 
L 553.313327 428.404826 
L 553.92895 433.733855 
L 554.544572 534.107973 
L 555.160194 615.6 
L 556.391439 615.6 
L 557.007061 459.471947 
L 558.238305 459.471947 
L 558.853928 615.6 
L 560.085172 615.6 
L 560.700794 468.799565 
L 561.316417 468.799565 
L 561.932039 615.6 
L 570.55075 615.6 
L 571.166372 607.786277 
L 571.781995 607.786277 
L 572.397617 480.771753 
L 573.013239 466.152423 
L 573.628861 468.319285 
L 574.244484 466.152423 
L 574.860106 466.152423 
L 575.475728 458.66668 
L 576.09135 458.66668 
L 576.706973 446.098793 
L 577.938217 446.098793 
L 578.553839 466.061162 
L 579.169462 462.496377 
L 579.785084 466.061162 
L 580.400706 615.6 
L 582.247573 615.6 
L 582.863195 463.593894 
L 583.478817 451.978711 
L 584.09444 451.978711 
L 584.710062 440.069359 
L 585.325684 451.978711 
L 585.941306 468.707611 
L 586.556929 615.6 
L 587.172551 468.707611 
L 587.788173 468.707611 
L 588.403795 615.6 
L 589.019417 465.456059 
L 589.63504 440.707259 
L 590.250662 465.456059 
L 590.866284 615.6 
L 593.944395 615.6 
L 593.328773 518.057305 
L 595.17564 518.057305 
L 595.791262 443.409968 
L 596.406884 443.409968 
L 597.022507 615.6 
L 608.719329 615.6 
L 609.334951 463.157819 
L 609.950574 463.157819 
L 610.566196 615.6 
L 613.644307 615.6 
L 614.259929 490.98387 
L 614.875552 471.120428 
L 615.491174 447.294327 
L 616.106796 447.294327 
L 616.722418 490.98387 
L 617.338041 574.380192 
L 617.953663 615.6 
L 619.80053 615.6 
L 620.416152 442.745187 
L 622.263019 442.745187 
L 622.878641 615.6 
L 625.956752 615.6 
L 626.572374 502.759962 
L 627.187996 615.6 
L 627.803619 489.679648 
L 628.419241 470.426693 
L 629.034863 489.679648 
L 628.419241 489.679648 
L 629.650485 489.679648 
L 630.266108 470.426693 
L 630.88173 374.59844 
L 632.112974 374.59844 
L 632.728597 423.00005 
L 633.344219 461.308054 
L 633.959841 615.6 
L 635.806708 615.6 
L 636.42233 488.542348 
L 637.037952 459.21609 
L 637.653575 459.21609 
L 638.269197 446.124927 
L 639.500441 446.124927 
L 640.116064 470.976185 
L 640.731686 615.6 
L 643.809797 615.6 
L 644.425419 537.318618 
L 643.809797 537.318618 
L 645.041041 615.6 
L 649.966019 615.6 
L 650.581642 483.399877 
L 653.044131 483.399877 
L 653.659753 518.649128 
L 654.275375 615.6 
L 659.815975 615.6 
L 660.431598 588.336643 
L 661.04722 462.412277 
L 661.662842 462.412277 
L 662.278464 588.336643 
L 662.894086 615.6 
L 664.740953 615.6 
L 665.356575 491.748906 
L 665.972198 505.388465 
L 666.58782 491.748906 
L 667.203442 505.388465 
L 667.819064 505.388465 
L 668.434687 615.6 
L 669.665931 615.6 
L 670.281553 446.046468 
L 670.897176 434.206043 
L 672.12842 434.206043 
L 672.744042 460.949667 
L 672.12842 615.6 
L 674.590909 615.6 
L 675.206531 497.704666 
L 676.437776 497.704666 
L 677.053398 440.29158 
L 678.284643 440.29158 
L 678.900265 439.083678 
L 679.515887 440.29158 
L 680.131509 439.083678 
L 681.362754 439.083678 
L 681.978376 526.17035 
L 682.593998 524.119065 
L 683.20962 526.17035 
L 683.825243 524.119065 
L 684.440865 526.17035 
L 685.056487 452.754299 
L 685.672109 422.965096 
L 686.287732 452.754299 
L 686.903354 422.965096 
L 687.518976 422.965096 
L 688.134598 615.6 
L 689.365843 615.6 
L 689.981465 518.169423 
L 690.597087 518.169423 
L 691.21271 480.493264 
L 691.828332 480.493264 
L 692.443954 458.222889 
L 693.059576 455.619389 
L 692.443954 449.198145 
L 694.290821 449.198145 
L 694.906443 422.292797 
L 695.522065 411.442526 
L 696.137688 421.233284 
L 697.368932 421.233284 
L 697.984554 486.297982 
L 698.600177 615.6 
L 703.525154 615.6 
L 704.140777 434.657166 
L 704.756399 442.976712 
L 705.987643 442.976712 
L 705.372021 486.035254 
L 707.218888 486.035254 
L 707.83451 479.002383 
L 708.450132 476.206029 
L 709.065755 475.551728 
L 709.681377 475.551728 
L 710.296999 468.214669 
L 711.528244 468.214669 
L 712.143866 615.6 
L 712.759488 468.214669 
L 713.37511 454.594563 
L 714.606355 454.594563 
L 715.221977 453.462874 
L 715.837599 453.462874 
L 716.453222 381.924601 
L 718.300088 381.924601 
L 718.915711 468.086777 
L 719.531333 468.086777 
L 720.146955 493.390132 
L 720.762577 493.390132 
L 721.378199 468.086777 
L 721.993822 493.390132 
L 722.609444 493.390132 
L 723.225066 490.265415 
L 723.840688 490.265415 
L 724.456311 405.83665 
L 725.071933 478.720185 
L 727.534422 478.720185 
L 728.150044 615.6 
L 728.765666 444.577044 
L 729.996911 444.577044 
L 730.612533 423.550438 
L 731.843778 423.550438 
L 732.4594 414.541733 
L 733.075022 423.550438 
L 733.690644 435.994688 
L 734.306267 615.6 
L 735.537511 615.6 
L 736.768756 404.728784 
L 737.384378 394.779796 
L 738.615622 394.779796 
L 739.231244 404.728784 
L 739.846867 501.906641 
L 740.462489 501.906641 
L 741.078111 615.6 
L 742.924978 615.6 
L 743.5406 449.341923 
L 744.156222 615.6 
L 744.771845 615.6 
L 745.387467 449.341923 
L 746.003089 449.341923 
L 746.618711 427.193852 
L 747.849956 427.193852 
L 748.465578 615.6 
L 755.853045 615.6 
L 756.468667 495.043393 
L 757.084289 452.322507 
L 757.699912 452.322507 
L 758.315534 615.6 
L 773.70609 615.6 
L 774.321712 453.47831 
L 774.937335 615.6 
L 782.324801 615.6 
L 782.940424 384.031394 
L 783.556046 388.394556 
L 784.171668 383.195731 
L 784.78729 395.525003 
L 786.018535 395.525003 
L 786.634157 381.50219 
L 789.096646 381.50219 
L 789.712268 412.001253 
L 790.327891 412.001253 
L 790.943513 375.608645 
L 791.559135 412.001253 
L 790.327891 412.001253 
L 792.174757 421.400601 
L 792.79038 458.182538 
L 793.406002 427.245115 
L 794.021624 444.066291 
L 794.637246 615.6 
L 795.252868 615.6 
L 795.868491 444.066291 
L 796.484113 444.066291 
L 797.099735 615.6 
L 803.255958 615.6 
L 803.87158 461.08293 
L 804.487202 506.946749 
L 805.102824 506.946749 
L 805.718447 461.08293 
L 806.334069 615.6 
L 808.796558 615.6 
L 809.41218 523.631853 
L 810.027802 615.6 
L 812.490291 615.6 
L 813.105914 414.018009 
L 812.490291 414.018009 
L 813.721536 414.018009 
L 814.337158 615.6 
L 821.724625 615.6 
L 822.340247 556.063738 
L 824.187114 556.063738 
L 824.802736 422.773753 
L 823.571492 422.773753 
L 824.802736 410.794939 
L 825.418358 615.6 
L 826.649603 615.6 
L 827.265225 446.088334 
L 829.112092 446.088334 
L 829.727714 606.167652 
L 830.343336 615.6 
L 830.958959 615.6 
L 831.574581 606.167652 
L 832.190203 458.168868 
L 832.805825 458.168868 
L 833.421447 415.945971 
L 834.03707 411.580321 
L 835.268314 411.580321 
L 835.883936 411.755529 
L 836.499559 615.6 
L 843.887026 615.6 
L 844.502648 378.109446 
L 845.11827 378.109446 
L 845.733892 411.924471 
L 846.349515 411.924471 
L 846.965137 414.583992 
L 847.580759 615.6 
L 848.196381 615.6 
L 848.812004 426.42548 
L 849.427626 426.42548 
L 850.043248 615.6 
L 862.355693 615.6 
L 862.971315 559.718487 
L 862.355693 559.718487 
L 863.586937 559.718487 
L 864.20256 596.605865 
L 864.818182 596.605865 
L 865.433804 615.6 
L 872.821271 615.6 
L 873.436893 574.293976 
L 874.052515 574.293976 
L 874.668138 615.6 
L 878.361871 615.6 
L 878.977493 420.557336 
L 879.593116 420.557336 
L 880.208738 615.6 
L 879.593116 615.6 
L 906.064872 615.6 
L 906.680494 564.487547 
L 907.911739 564.487547 
L 908.527361 615.6 
L 914.683583 615.6 
L 915.914828 462.867765 
L 917.761695 462.867765 
L 918.377317 615.6 
L 918.992939 446.884952 
L 919.608561 615.6 
L 920.839806 615.6 
L 921.455428 465.442243 
L 922.07105 465.442243 
L 922.686673 447.144947 
L 923.302295 447.144947 
L 923.917917 465.383122 
L 924.533539 465.383122 
L 925.149162 615.6 
L 944.233451 615.6 
L 944.849073 419.214851 
L 945.464695 615.6 
L 962.702118 615.6 
L 963.317741 573.635335 
L 962.702118 573.635335 
L 964.548985 573.635335 
L 965.164607 615.6 
L 967.011474 615.6 
L 967.627096 516.291352 
L 968.858341 516.291352 
L 969.473963 436.539676 
L 970.089585 516.291352 
L 970.705207 615.6 
L 991.020741 615.6 
L 991.636364 412.51285 
L 992.251986 615.6 
L 992.867608 441.163142 
L 993.48323 441.163142 
L 994.098853 420.895485 
L 995.945719 420.895485 
L 996.561342 424.746797 
L 995.945719 615.6 
L 997.792586 615.6 
L 998.408208 569.934153 
L 999.023831 430.562844 
L 1000.870697 430.562844 
L 1001.48632 415.473483 
L 1002.101942 432.9678 
L 1002.717564 432.9678 
L 1003.333186 434.739057 
L 1003.948808 436.86229 
L 1004.564431 444.550449 
L 1005.795675 444.550449 
L 1006.411297 457.596882 
L 1007.02692 457.596882 
L 1007.642542 587.867299 
L 1008.258164 602.943503 
L 1008.873786 602.943503 
L 1009.489409 547.611164 
L 1010.720653 547.611164 
L 1011.336275 506.265666 
L 1011.951898 578.719856 
L 1012.56752 615.6 
L 1013.183142 586.381922 
L 1013.798764 586.381922 
L 1014.414387 564.778276 
L 1016.261253 564.778276 
L 1016.876876 605.925228 
L 1017.492498 605.925228 
L 1018.10812 510.713193 
L 1018.723742 501.816464 
L 1019.339365 486.241403 
L 1019.954987 440.415885 
L 1020.570609 486.241403 
L 1021.186231 478.176548 
L 1021.801853 521.928519 
L 1022.417476 521.928519 
L 1023.033098 615.6 
L 1023.64872 615.6 
L 1024.264342 474.406186 
L 1025.495587 474.406186 
L 1026.726831 519.419216 
L 1027.342454 528.552501 
L 1027.958076 554.63161 
L 1030.420565 554.63161 
L 1031.036187 615.6 
L 1032.267432 615.6 
L 1032.883054 487.554495 
L 1034.114298 458.695314 
L 1034.729921 454.956556 
L 1036.576787 454.930965 
L 1037.19241 431.138589 
L 1037.808032 414.123407 
L 1038.423654 431.138589 
L 1039.039276 416.812073 
L 1039.654898 431.138589 
L 1040.270521 432.307794 
L 1040.886143 434.327725 
L 1041.501765 485.744549 
L 1042.117387 485.744549 
L 1042.73301 615.6 
L 1043.348632 480.068732 
L 1043.964254 615.6 
L 1044.579876 521.521379 
L 1045.195499 519.01807 
L 1045.811121 519.01807 
L 1046.426743 469.879123 
L 1047.042365 469.879123 
L 1047.657988 508.510185 
L 1048.27361 508.510185 
L 1048.889232 599.37215 
L 1049.504854 514.037155 
L 1050.120477 514.037155 
L 1050.736099 504.709186 
L 1051.351721 504.709186 
L 1051.967343 483.830891 
L 1052.582966 504.709186 
L 1053.198588 493.279496 
L 1053.81421 493.279496 
L 1054.429832 527.235559 
L 1055.045455 527.235559 
L 1055.661077 576.657249 
L 1056.276699 579.698274 
L 1056.892321 576.657249 
L 1057.507944 576.657249 
L 1058.123566 580.745981 
L 1058.739188 580.745981 
L 1059.35481 615.6 
L 1059.970432 615.6 
L 1060.586055 530.370102 
L 1061.201677 469.479598 
L 1062.432921 469.479598 
L 1063.048544 549.466751 
L 1063.664166 550.495953 
L 1064.279788 615.6 
L 1067.973522 615.6 
L 1068.589144 511.404099 
L 1069.204766 502.605866 
L 1069.820388 502.605866 
L 1070.436011 466.702166 
L 1071.051633 466.702166 
L 1071.667255 488.953234 
L 1072.282877 615.6 
L 1072.8985 488.953234 
L 1073.514122 488.953234 
L 1074.129744 615.6 
L 1074.745366 481.557142 
L 1075.360989 467.78659 
L 1075.976611 481.557142 
L 1076.592233 615.6 
L 1078.4391 615.6 
L 1079.054722 498.128686 
L 1079.670344 498.128686 
L 1080.285966 615.6 
L 1081.517211 615.6 
L 1082.132833 580.348909 
L 1082.748455 419.35413 
L 1083.364078 432.147093 
L 1083.9797 419.35413 
L 1084.595322 433.724209 
L 1085.210944 434.038397 
L 1085.826567 437.719625 
L 1086.442189 493.310767 
L 1087.057811 493.310767 
L 1087.673433 521.866539 
L 1088.904678 521.866539 
L 1089.5203 615.6 
L 1090.135922 615.6 
L 1090.751545 588.524093 
L 1091.367167 588.524093 
L 1091.982789 513.524473 
L 1093.214034 513.524473 
L 1093.829656 503.271802 
L 1094.445278 615.6 
L 1098.754634 615.6 
L 1099.370256 499.280918 
L 1099.985878 422.81992 
L 1100.6015 426.846043 
L 1101.832745 426.846043 
L 1103.063989 517.555127 
L 1103.679612 475.978355 
L 1104.295234 523.286767 
L 1104.910856 523.286767 
L 1105.526478 615.6 
L 1109.835834 615.6 
L 1110.451456 445.774824 
L 1111.067079 445.774824 
L 1111.682701 438.798326 
L 1112.298323 438.798326 
L 1112.913945 489.30232 
L 1113.529568 615.6 
L 1118.454545 615.6 
L 1119.070168 600.451367 
L 1119.68579 600.451367 
L 1120.301412 615.6 
L 1125.22639 615.6 
L 1125.842012 536.700222 
L 1126.457635 522.681613 
L 1127.073257 536.700222 
L 1127.688879 507.711499 
L 1128.920124 507.711499 
L 1129.535746 615.6 
L 1130.151368 465.166926 
L 1130.76699 524.268855 
L 1131.382613 615.6 
L 1134.460724 615.6 
L 1135.076346 475.435647 
L 1135.691968 475.435647 
L 1136.30759 477.059299 
L 1136.923213 488.635262 
L 1137.538835 610.628943 
L 1138.154457 610.628943 
L 1138.770079 615.6 
L 1141.848191 615.6 
L 1142.463813 490.412809 
L 1143.079435 497.435898 
L 1143.695057 490.412809 
L 1144.31068 497.435898 
L 1144.926302 497.435898 
L 1145.541924 491.246512 
L 1146.157546 491.246512 
L 1146.773169 542.695769 
L 1147.388791 615.6 
L 1151.698147 615.6 
L 1152.313769 419.74456 
L 1152.929391 419.74456 
L 1153.545013 615.6 
L 1158.469991 615.6 
L 1159.085613 482.453174 
L 1159.701236 482.453174 
L 1160.316858 615.6 
L 1164.010591 615.6 
L 1164.626214 595.266027 
L 1165.857458 595.266027 
L 1166.47308 408.079893 
L 1167.088703 595.266027 
L 1167.704325 615.6 
L 1170.166814 615.6 
L 1170.782436 434.750624 
L 1171.398058 615.6 
L 1186.172992 615.6 
L 1186.788614 578.261048 
L 1187.404237 615.6 
L 1205.257282 615.6 
L 1205.872904 429.757624 
L 1206.488526 429.757624 
L 1207.104148 615.6 
L 1213.875993 615.6 
L 1215.107237 410.029934 
L 1216.338482 410.029934 
L 1216.954104 431.388229 
L 1217.569726 431.388229 
L 1218.185349 412.479473 
L 1218.800971 412.479473 
L 1219.416593 431.388229 
L 1220.032215 456.834304 
L 1220.647838 615.6 
L 1223.725949 615.6 
L 1224.341571 454.991318 
L 1224.957193 454.991318 
L 1225.572816 450.957344 
L 1226.188438 455.943001 
L 1228.650927 455.943001 
L 1229.266549 519.81705 
L 1229.882171 615.6 
L 1245.272727 615.6 
L 1245.272727 615.6 
" style="fill:none;stroke:#1f77b4;stroke-linecap:square;stroke-width:1.5;"/>
   </g>
   <g id="line2d_15">
    <path clip-path="url(#p217a85c2bc)" d="M 230.727273 473.352072 
L 231.342895 488.831322 
L 230.727273 477.339638 
L 232.574139 465.417642 
L 233.189762 441.894165 
L 233.805384 452.813573 
L 234.421006 476.847143 
L 235.036628 493.076084 
L 235.652251 515.519742 
L 235.036628 535.790065 
L 236.267873 438.598127 
L 236.883495 432.774128 
L 237.499117 454.419862 
L 238.11474 431.356592 
L 238.730362 442.460556 
L 239.345984 431.560861 
L 239.961606 450.952785 
L 240.577229 394.824452 
L 241.192851 419.634355 
L 242.424095 453.405709 
L 243.65534 438.355496 
L 244.270962 450.339485 
L 244.886584 474.208618 
L 245.502207 471.145996 
L 246.117829 487.127282 
L 246.733451 506.527273 
L 247.349073 468.372856 
L 247.964695 491.895859 
L 248.580318 465.32637 
L 249.19594 457.430929 
L 251.042807 526.240243 
L 251.658429 544.155387 
L 252.274051 440.470006 
L 252.889673 444.8663 
L 253.505296 465.236884 
L 254.120918 467.059813 
L 254.73654 457.542618 
L 255.352162 333.335887 
L 256.583407 379.934122 
L 257.199029 353.412623 
L 257.814651 374.126948 
L 258.430274 398.996756 
L 259.045896 390.024008 
L 260.27714 434.562844 
L 260.892763 441.470024 
L 261.508385 429.70863 
L 262.124007 428.720727 
L 262.739629 453.330305 
L 263.355252 404.467033 
L 263.970874 417.40017 
L 265.817741 484.81892 
L 267.048985 439.590766 
L 267.664607 400.208393 
L 268.280229 423.848819 
L 268.895852 415.042506 
L 269.511474 439.656873 
L 270.127096 444.440921 
L 271.973963 514.827244 
L 272.589585 468.678371 
L 273.205207 376.022127 
L 273.82083 415.121769 
L 274.436452 428.514641 
L 275.052074 426.384854 
L 275.667696 427.206536 
L 276.283319 426.379999 
L 276.898941 426.470498 
L 277.514563 448.642951 
L 278.130185 434.941514 
L 278.745808 456.38591 
L 279.977052 435.869206 
L 280.592674 428.502709 
L 281.823919 471.050874 
L 282.439541 419.10025 
L 283.055163 423.171195 
L 283.670786 428.890648 
L 284.90203 477.247522 
L 285.517652 493.69122 
L 286.133274 372.588863 
L 286.748897 396.990112 
L 287.364519 445.006217 
L 287.980141 425.638353 
L 288.595763 419.309982 
L 289.827008 464.466301 
L 290.44263 432.879263 
L 291.673875 452.231172 
L 292.289497 427.907142 
L 292.905119 424.757635 
L 293.520741 446.460182 
L 294.136364 454.27662 
L 295.367608 415.576033 
L 295.98323 424.307656 
L 296.598853 448.690994 
L 297.214475 457.01395 
L 297.830097 475.666251 
L 298.445719 490.552266 
L 299.061342 513.175792 
L 299.676964 449.572477 
L 300.292586 433.879068 
L 300.908208 430.689803 
L 302.139453 471.185433 
L 302.755075 487.120893 
L 303.370697 440.079094 
L 303.98632 438.578624 
L 304.601942 459.722225 
L 305.217564 440.319396 
L 305.833186 444.846615 
L 307.064431 486.966596 
L 307.680053 500.747631 
L 308.295675 510.289352 
L 308.911297 445.151115 
L 309.52692 423.730545 
L 310.142542 432.754347 
L 310.758164 427.660542 
L 311.989409 431.522232 
L 313.220653 473.626069 
L 313.836275 489.933199 
L 313.220653 502.894602 
L 313.836275 510.60904 
L 315.06752 494.959088 
L 315.683142 478.067203 
L 316.298764 478.18351 
L 316.914387 432.514175 
L 317.530009 451.415581 
L 318.145631 488.219525 
L 318.761253 489.96342 
L 319.376876 492.372699 
L 319.992498 434.213878 
L 319.376876 452.535492 
L 320.60812 431.527251 
L 321.223742 453.283941 
L 321.839365 456.457092 
L 322.454987 424.651254 
L 323.070609 446.96067 
L 323.686231 312.869853 
L 326.14872 408.490223 
L 327.379965 445.190138 
L 327.995587 446.882103 
L 329.226831 477.325876 
L 329.842454 432.391608 
L 330.458076 451.704843 
L 331.073698 437.785636 
L 331.68932 437.047962 
L 332.304943 458.285941 
L 332.920565 444.636432 
L 333.536187 462.537873 
L 334.151809 484.332761 
L 334.767432 498.801424 
L 335.383054 458.682722 
L 335.998676 430.295 
L 336.614298 434.222966 
L 337.229921 449.827233 
L 339.69241 529.384621 
L 340.308032 537.28533 
L 340.923654 541.983621 
L 341.539276 544.550228 
L 342.154898 545.859168 
L 342.770521 432.247832 
L 343.386143 454.451689 
L 344.001765 436.414987 
L 343.386143 457.716136 
L 344.617387 476.414904 
L 345.23301 444.457316 
L 347.079876 505.297963 
L 347.695499 505.528747 
L 348.311121 510.582014 
L 348.926743 506.275322 
L 350.157988 496.023351 
L 350.77361 515.116309 
L 351.389232 509.237673 
L 352.620477 503.030344 
L 353.236099 501.665962 
L 353.851721 507.066157 
L 354.467343 450.624118 
L 355.082966 443.256116 
L 355.698588 467.562309 
L 356.31421 479.632845 
L 356.929832 474.542375 
L 357.545455 466.697582 
L 358.161077 418.567707 
L 358.776699 422.872239 
L 358.161077 397.254204 
L 359.392321 421.004926 
L 360.623566 456.54655 
L 361.239188 481.023216 
L 361.85481 446.213138 
L 362.470432 475.052006 
L 363.086055 484.23726 
L 363.701677 484.591281 
L 364.317299 506.770263 
L 364.932921 115.861595 
L 371.704766 387.285513 
L 372.320388 411.924095 
L 372.936011 416.773071 
L 374.167255 459.0908 
L 374.782877 470.749 
L 375.3985 475.378342 
L 376.014122 484.740592 
L 376.629744 442.842412 
L 377.245366 459.288494 
L 376.629744 478.66784 
L 377.860989 500.597257 
L 378.476611 516.844494 
L 379.092233 492.941913 
L 379.707855 492.572848 
L 380.323477 504.253905 
L 380.9391 493.722782 
L 381.554722 487.484192 
L 382.170344 505.970137 
L 382.785966 521.007831 
L 383.401589 518.572774 
L 384.017211 537.665146 
L 384.632833 494.095834 
L 385.248455 505.298767 
L 385.864078 520.475028 
L 386.4797 440.767285 
L 387.095322 464.08376 
L 387.710944 469.088446 
L 388.326567 452.804811 
L 388.942189 472.689944 
L 389.557811 402.204798 
L 390.173433 425.765628 
L 390.789056 435.658685 
L 391.404678 460.395603 
L 392.0203 466.925013 
L 393.251545 418.047286 
L 393.867167 440.803394 
L 394.482789 439.229562 
L 395.098411 460.242053 
L 395.714034 424.498019 
L 396.329656 446.818683 
L 396.945278 436.047804 
L 397.5609 418.596964 
L 398.176523 436.748303 
L 398.792145 418.811721 
L 400.023389 427.583924 
L 398.792145 419.53718 
L 400.639011 423.415033 
L 401.254634 425.521889 
L 401.870256 403.51416 
L 402.485878 375.272147 
L 403.1015 399.99718 
L 403.717123 384.578806 
L 404.948367 429.470641 
L 405.563989 421.795413 
L 406.179612 402.104777 
L 406.795234 425.930311 
L 407.410856 426.833144 
L 408.026478 111.6 
L 408.642101 136.666903 
L 409.873345 161.728022 
L 413.567079 311.183024 
L 414.798323 347.837792 
L 416.029568 393.602337 
L 416.64519 417.685578 
L 417.260812 461.656007 
L 417.876434 378.579133 
L 418.492056 402.995635 
L 419.107679 344.359511 
L 420.338923 365.994595 
L 420.954545 385.03992 
L 422.18579 413.067318 
L 422.801412 409.838909 
L 423.417034 432.48564 
L 424.032657 363.561611 
L 424.648279 382.9699 
L 425.263901 407.302575 
L 425.879523 404.882364 
L 427.110768 450.872887 
L 427.72639 422.889602 
L 428.957635 440.522816 
L 429.573257 419.920011 
L 430.188879 444.775035 
L 430.804501 458.87765 
L 431.420124 448.54883 
L 432.035746 482.569696 
L 432.651368 463.357341 
L 433.26699 456.11869 
L 433.882613 447.486711 
L 434.498235 428.523634 
L 435.113857 395.355546 
L 435.729479 397.209437 
L 436.345102 412.067641 
L 436.960724 436.965037 
L 437.576346 447.511666 
L 438.191968 472.119224 
L 438.80759 507.318847 
L 439.423213 441.661722 
L 440.038835 429.013581 
L 440.654457 428.380898 
L 441.270079 428.299643 
L 441.885702 405.682465 
L 442.501324 429.094177 
L 443.116946 411.11756 
L 443.732568 423.335334 
L 444.348191 448.168876 
L 445.579435 411.738239 
L 446.195057 436.63722 
L 446.81068 393.255056 
L 447.426302 417.141901 
L 448.041924 410.402904 
L 448.657546 418.279436 
L 449.273169 415.593078 
L 449.888791 438.506343 
L 450.504413 381.347291 
L 451.735658 426.541743 
L 452.35128 419.116411 
L 452.966902 423.180236 
L 453.582524 429.72498 
L 454.198147 451.636002 
L 454.813769 467.821838 
L 455.429391 457.352513 
L 456.045013 458.770645 
L 456.660635 417.869225 
L 457.276258 415.330743 
L 457.89188 438.118655 
L 458.507502 421.45103 
L 459.123124 397.260779 
L 458.507502 393.857414 
L 459.738747 417.724675 
L 460.354369 422.395041 
L 460.969991 429.020522 
L 461.585613 396.634633 
L 459.123124 418.470179 
L 462.201236 427.175365 
L 462.816858 430.043571 
L 463.43248 433.679139 
L 464.048102 433.716988 
L 464.663725 455.276479 
L 465.279347 438.961878 
L 466.510591 433.96757 
L 467.126214 453.879651 
L 467.741836 416.969288 
L 468.357458 429.391323 
L 468.97308 436.329671 
L 469.588703 458.273233 
L 470.204325 474.386989 
L 470.819947 444.028784 
L 471.435569 462.820864 
L 472.051192 461.740825 
L 472.666814 440.898121 
L 473.282436 409.069156 
L 473.898058 426.574537 
L 474.51368 426.723244 
L 475.129303 440.350008 
L 475.744925 459.980785 
L 476.976169 433.724949 
L 477.591792 439.824136 
L 478.207414 434.840735 
L 478.823036 422.269738 
L 479.438658 429.99229 
L 480.054281 433.875657 
L 480.669903 430.688242 
L 481.285525 434.261416 
L 481.901147 455.770171 
L 482.51677 427.332371 
L 483.132392 383.145022 
L 483.748014 396.231131 
L 484.363636 398.139968 
L 484.979259 405.046316 
L 485.594881 407.860392 
L 486.210503 353.683638 
L 488.05737 404.905332 
L 488.672992 401.920606 
L 489.288614 412.58018 
L 489.904237 406.506555 
L 490.519859 328.433454 
L 491.135481 351.784835 
L 491.751103 370.759667 
L 492.366726 384.530162 
L 492.982348 404.980288 
L 493.59797 410.777962 
L 494.213592 407.763404 
L 494.829214 416.39681 
L 495.444837 421.633638 
L 494.213592 344.064357 
L 496.060459 364.11682 
L 496.676081 378.532098 
L 497.291703 389.927057 
L 497.907326 404.10732 
L 498.522948 408.262977 
L 499.13857 409.585811 
L 499.754192 417.542952 
L 500.369815 379.694829 
L 502.832304 437.531516 
L 503.447926 432.316283 
L 504.063548 428.69223 
L 504.67917 431.44043 
L 505.294793 429.552948 
L 505.910415 428.580707 
L 506.526037 420.012002 
L 507.141659 415.106174 
L 507.757282 426.111543 
L 507.141659 417.643687 
L 508.372904 389.673767 
L 508.988526 403.919719 
L 509.604148 415.397542 
L 510.835393 458.196262 
L 511.451015 395.789323 
L 512.066637 403.364772 
L 512.682259 235.929987 
L 514.529126 310.547182 
L 515.760371 334.230784 
L 514.529126 358.68237 
L 516.375993 375.002108 
L 516.991615 395.307316 
L 517.607237 399.061635 
L 518.838482 421.512337 
L 519.454104 444.043557 
L 520.069726 378.828726 
L 520.685349 395.583523 
L 521.300971 406.835022 
L 522.532215 424.920905 
L 523.147838 408.441566 
L 524.379082 450.293411 
L 524.994704 466.767486 
L 526.225949 431.138367 
L 526.841571 427.895081 
L 527.457193 442.44928 
L 528.072816 430.910778 
L 528.688438 451.312079 
L 529.30406 455.648563 
L 529.919682 439.172951 
L 530.535305 460.191448 
L 531.150927 455.48003 
L 531.766549 420.493714 
L 532.382171 435.113827 
L 532.997793 456.541742 
L 533.613416 431.395992 
L 534.229038 453.16416 
L 534.84466 455.908424 
L 535.460282 475.760803 
L 536.075905 464.336375 
L 536.691527 410.282881 
L 537.307149 417.975665 
L 537.922771 422.537618 
L 538.538394 425.054221 
L 539.154016 397.854087 
L 539.769638 421.583109 
L 541.000883 403.102185 
L 541.616505 416.256383 
L 542.232127 414.570018 
L 542.847749 431.494994 
L 544.078994 472.487183 
L 544.694616 420.954287 
L 545.310238 438.232702 
L 546.541483 451.443788 
L 547.157105 379.157859 
L 547.772727 403.423211 
L 548.38835 419.49858 
L 549.003972 410.487093 
L 549.619594 411.766347 
L 550.235216 391.905774 
L 549.619594 407.869374 
L 550.850838 431.180051 
L 551.466461 432.43442 
L 552.082083 454.11073 
L 552.697705 428.074613 
L 553.313327 436.525596 
L 553.92895 393.880288 
L 554.544572 407.512834 
L 555.775816 400.8369 
L 556.391439 416.815254 
L 557.007061 429.149759 
L 558.853928 484.832192 
L 559.46955 480.686732 
L 560.085172 496.047576 
L 560.700794 455.730161 
L 561.316417 449.364677 
L 561.932039 446.129658 
L 562.547661 467.152258 
L 563.163283 449.522662 
L 563.778906 464.791444 
L 564.394528 456.359679 
L 565.01015 439.303356 
L 565.625772 449.052052 
L 566.241395 429.407683 
L 566.857017 451.345154 
L 567.472639 438.73841 
L 568.088261 459.802734 
L 568.703883 469.345438 
L 569.319506 473.411809 
L 569.935128 144.447849 
L 574.244484 315.647769 
L 574.860106 340.178295 
L 577.322595 397.943936 
L 578.553839 440.908936 
L 579.169462 451.452834 
L 579.785084 445.79825 
L 580.400706 443.271261 
L 581.016328 447.13134 
L 581.631951 454.722623 
L 582.247573 413.095072 
L 582.863195 404.924305 
L 583.478817 428.369706 
L 584.710062 415.907655 
L 585.325684 421.350154 
L 585.941306 424.140132 
L 586.556929 425.904371 
L 587.172551 375.356422 
L 587.788173 397.662538 
L 588.403795 409.851081 
L 589.019417 428.140316 
L 589.63504 450.181336 
L 590.250662 436.044779 
L 590.866284 414.516818 
L 591.481906 416.549046 
L 592.097529 424.77429 
L 592.713151 439.62609 
L 593.328773 433.208108 
L 593.944395 401.950867 
L 593.328773 412.600493 
L 594.560018 419.391476 
L 595.17564 416.032323 
L 595.791262 421.422557 
L 596.406884 424.452249 
L 597.022507 441.106081 
L 598.253751 456.074023 
L 598.869373 404.453962 
L 600.100618 450.490727 
L 600.71624 421.009101 
L 601.331862 443.574245 
L 601.947485 453.977286 
L 603.178729 464.628262 
L 603.794351 466.377036 
L 604.409974 465.417245 
L 603.794351 482.562907 
L 605.025596 445.645102 
L 605.641218 457.250592 
L 606.25684 440.478628 
L 606.872462 439.073728 
L 607.488085 460.102733 
L 608.103707 464.119085 
L 608.719329 463.280513 
L 609.334951 464.256811 
L 609.950574 430.292582 
L 610.566196 444.496239 
L 611.79744 483.415735 
L 612.413063 450.316589 
L 613.028685 460.222897 
L 613.644307 478.362602 
L 614.259929 457.767662 
L 614.875552 476.296309 
L 615.491174 432.241147 
L 616.106796 429.139248 
L 616.722418 451.098931 
L 617.338041 367.231469 
L 617.953663 386.08418 
L 618.569285 383.155219 
L 619.184907 398.978005 
L 619.80053 410.578493 
L 621.031774 455.311576 
L 622.263019 419.0884 
L 622.878641 423.164563 
L 623.494263 395.237021 
L 625.956752 445.61553 
L 626.572374 454.329723 
L 627.803619 435.46048 
L 628.419241 456.855023 
L 629.034863 434.831004 
L 628.419241 412.768372 
L 629.650485 415.01163 
L 630.266108 420.826701 
L 630.88173 424.127075 
L 631.497352 420.608093 
L 632.112974 437.049302 
L 632.728597 427.447089 
L 633.344219 384.626763 
L 633.959841 396.674914 
L 634.575463 384.332514 
L 635.191086 403.412423 
L 635.806708 369.016943 
L 636.42233 389.044727 
L 637.037952 403.452348 
L 637.653575 428.245601 
L 638.884819 439.258464 
L 639.500441 460.950099 
L 640.116064 447.301307 
L 640.731686 436.226222 
L 641.347308 444.653125 
L 641.96293 437.190046 
L 642.578553 432.168076 
L 643.194175 438.94953 
L 644.425419 431.244077 
L 643.809797 429.45963 
L 645.041041 434.609411 
L 645.656664 434.255861 
L 646.272286 434.432256 
L 646.887908 433.73755 
L 647.50353 430.624947 
L 648.119153 431.388559 
L 648.734775 446.989263 
L 649.350397 395.568193 
L 649.966019 419.37808 
L 650.581642 416.026218 
L 651.197264 421.419014 
L 651.812886 418.269982 
L 652.428508 383.431683 
L 653.044131 407.597043 
L 653.659753 379.127867 
L 654.890997 425.859323 
L 655.50662 428.876593 
L 656.122242 413.936686 
L 656.737864 410.628679 
L 657.353486 426.113978 
L 657.969109 437.076538 
L 659.200353 427.477401 
L 659.815975 449.57127 
L 660.431598 377.056165 
L 661.04722 398.021423 
L 661.662842 392.03241 
L 662.894086 428.751541 
L 663.509709 450.743038 
L 664.125331 427.126617 
L 664.740953 449.248093 
L 665.356575 436.930762 
L 665.972198 427.641057 
L 666.58782 435.748209 
L 667.203442 441.631726 
L 667.819064 445.241969 
L 668.434687 283.304305 
L 669.050309 326.432385 
L 670.897176 388.806971 
L 671.512798 388.829959 
L 672.12842 382.348246 
L 673.359665 423.673836 
L 673.975287 440.469716 
L 674.590909 452.628326 
L 675.206531 450.899553 
L 675.822154 438.860817 
L 676.437776 463.191313 
L 677.053398 447.867985 
L 677.66902 457.984563 
L 678.284643 476.477225 
L 678.900265 458.224579 
L 679.515887 335.422463 
L 681.362754 396.384104 
L 681.978376 415.441277 
L 682.593998 400.307812 
L 683.20962 418.732732 
L 683.825243 406.168268 
L 684.440865 423.540603 
L 685.056487 428.16196 
L 685.672109 404.731517 
L 686.287732 395.961556 
L 686.903354 408.473358 
L 687.518976 431.755089 
L 688.134598 449.578685 
L 688.750221 408.08315 
L 689.365843 419.803887 
L 689.981465 423.563234 
L 690.597087 376.653576 
L 691.828332 413.277118 
L 692.443954 419.798141 
L 693.059576 431.722276 
L 692.443954 429.686432 
L 693.675199 420.364152 
L 694.290821 397.353095 
L 694.906443 406.13732 
L 695.522065 401.369013 
L 696.137688 424.970323 
L 696.75331 434.067437 
L 697.368932 455.594349 
L 697.984554 472.653233 
L 699.215799 412.88395 
L 699.831421 414.362606 
L 700.447043 403.64279 
L 701.678288 406.909912 
L 702.29391 415.852699 
L 702.909532 387.319927 
L 702.29391 140.914742 
L 703.525154 165.967843 
L 705.987643 265.537568 
L 705.372021 290.204508 
L 706.603266 313.642602 
L 708.450132 378.44069 
L 709.681377 410.58461 
L 710.296999 418.161984 
L 710.912621 333.341859 
L 712.143866 356.631861 
L 712.759488 338.361613 
L 713.37511 362.007849 
L 713.990733 318.724392 
L 715.221977 363.127272 
L 715.837599 380.065366 
L 716.453222 343.980315 
L 717.068844 365.649614 
L 718.915711 384.747675 
L 719.531333 356.660224 
L 720.146955 371.998261 
L 720.762577 394.614041 
L 721.378199 396.817294 
L 721.993822 364.137336 
L 722.609444 383.461603 
L 723.225066 410.741648 
L 723.840688 418.25872 
L 724.456311 397.418876 
L 725.071933 414.266945 
L 725.687555 331.198711 
L 726.9188 344.266878 
L 728.150044 386.0137 
L 728.765666 395.358892 
L 729.381289 408.04646 
L 729.996911 408.68706 
L 730.612533 403.612757 
L 731.228155 413.707434 
L 731.843778 389.7627 
L 732.4594 403.985627 
L 733.075022 397.828481 
L 733.690644 409.78252 
L 734.306267 356.134446 
L 734.921889 353.236934 
L 735.537511 391.798142 
L 736.153133 405.482505 
L 736.768756 387.455932 
L 737.384378 402.262665 
L 738 412.809466 
L 738.615622 388.284675 
L 739.231244 375.168419 
L 739.846867 392.645518 
L 740.462489 401.394586 
L 741.078111 412.226192 
L 741.693733 412.590633 
L 742.309356 278.972516 
L 741.693733 303.458429 
L 742.924978 325.847386 
L 743.5406 348.738267 
L 744.771845 363.980791 
L 745.387467 365.804362 
L 746.003089 384.87882 
L 746.618711 399.965279 
L 747.234334 360.189154 
L 747.849956 362.674397 
L 748.465578 366.093325 
L 749.0812 376.156438 
L 749.696823 375.648203 
L 750.312445 392.755475 
L 750.928067 358.351383 
L 751.543689 378.285337 
L 749.696823 391.617415 
L 752.159312 405.350502 
L 752.774934 378.604166 
L 754.006178 372.222804 
L 754.621801 371.026997 
L 755.237423 372.922695 
L 755.853045 397.314683 
L 756.468667 409.42424 
L 757.084289 416.897425 
L 758.315534 409.979709 
L 760.162401 384.628431 
L 760.778023 408.767907 
L 761.393645 386.695372 
L 762.62489 410.664703 
L 763.240512 350.992404 
L 763.856134 345.080962 
L 765.087379 382.130692 
L 765.703001 403.609598 
L 766.318623 386.876685 
L 766.934245 387.758121 
L 767.549868 402.489951 
L 768.16549 385.373904 
L 768.781112 409.489871 
L 769.396734 417.249557 
L 770.012357 365.656397 
L 770.627979 358.434505 
L 771.243601 370.109725 
L 771.859223 388.492211 
L 772.474846 403.040116 
L 773.090468 407.660539 
L 773.70609 406.104375 
L 774.321712 364.982304 
L 774.937335 363.079079 
L 775.552957 373.468172 
L 776.168579 368.674422 
L 776.784201 352.73174 
L 778.015446 388.996557 
L 778.631068 360.314068 
L 779.24669 371.883926 
L 779.862312 389.960652 
L 780.477935 385.451888 
L 781.093557 396.651334 
L 781.709179 304.225658 
L 782.324801 325.983026 
L 782.940424 319.09081 
L 783.556046 314.957728 
L 784.78729 363.372853 
L 786.018535 369.953837 
L 786.634157 381.485159 
L 787.249779 397.678097 
L 787.865402 378.42262 
L 788.481024 355.591502 
L 789.096646 380.603305 
L 789.712268 396.986379 
L 790.327891 375.859411 
L 790.943513 389.847738 
L 791.559135 413.839611 
L 790.327891 419.552983 
L 792.174757 390.925047 
L 793.406002 436.771994 
L 794.021624 440.235587 
L 794.637246 364.477952 
L 795.252868 381.139945 
L 795.868491 371.868859 
L 796.484113 391.267506 
L 797.099735 405.094424 
L 797.715357 360.347616 
L 798.33098 372.576344 
L 798.946602 390.530341 
L 799.562224 404.55277 
L 800.177846 365.784521 
L 800.793469 382.17154 
L 801.409091 406.367591 
L 802.024713 415.50455 
L 802.640335 413.578626 
L 803.255958 397.622445 
L 803.87158 409.639033 
L 804.487202 432.863582 
L 805.102824 376.731035 
L 805.718447 369.172688 
L 806.334069 388.555561 
L 806.949691 412.58482 
L 807.565313 412.771318 
L 808.180936 419.494432 
L 808.796558 423.391233 
L 809.41218 363.180533 
L 810.027802 387.732088 
L 810.643425 398.189456 
L 811.259047 376.419173 
L 811.874669 390.258917 
L 812.490291 381.102874 
L 813.105914 393.631791 
L 813.721536 387.616156 
L 814.337158 402.383233 
L 815.568402 448.156348 
L 816.184025 391.737611 
L 815.568402 379.698587 
L 816.799647 374.814915 
L 817.415269 392.358704 
L 818.030891 416.274114 
L 819.262136 390.407466 
L 818.030891 414.382737 
L 819.877758 180.357865 
L 821.109003 230.284489 
L 821.724625 280.268629 
L 822.955869 329.005165 
L 824.802736 381.275551 
L 823.571492 393.753782 
L 824.802736 400.166283 
L 825.418358 423.808342 
L 826.033981 418.055053 
L 826.649603 429.421349 
L 827.265225 415.263738 
L 827.880847 391.604378 
L 828.49647 382.651101 
L 829.112092 406.835595 
L 829.727714 388.144861 
L 830.343336 402.780143 
L 830.958959 390.378988 
L 831.574581 398.928829 
L 832.190203 410.544602 
L 832.805825 363.102426 
L 833.421447 380.045523 
L 834.03707 417.020928 
L 835.268314 461.479238 
L 835.883936 448.972423 
L 836.499559 454.688243 
L 837.115181 420.130827 
L 837.730803 431.748751 
L 838.346425 429.698943 
L 838.962048 423.834109 
L 839.57767 424.136275 
L 840.193292 426.811661 
L 840.808914 448.957714 
L 841.424537 426.750986 
L 842.040159 423.227799 
L 842.655781 421.647804 
L 843.271403 389.313202 
L 843.887026 382.446022 
L 844.502648 398.42762 
L 845.11827 400.465052 
L 845.733892 390.454272 
L 846.349515 415.293985 
L 846.965137 413.189591 
L 847.580759 437.963992 
L 848.196381 432.314817 
L 848.812004 429.258357 
L 850.043248 471.65782 
L 850.65887 518.613437 
L 851.274492 399.867643 
L 851.890115 409.306247 
L 852.505737 434.069481 
L 853.121359 422.734006 
L 853.736981 417.007702 
L 854.352604 392.4091 
L 855.583848 405.927429 
L 856.19947 429.328112 
L 856.815093 420.380099 
L 858.046337 469.178925 
L 858.661959 442.838551 
L 859.277582 396.084516 
L 859.893204 379.570438 
L 860.508826 396.17162 
L 861.124448 408.621668 
L 861.740071 394.546294 
L 862.355693 419.437692 
L 862.971315 413.248903 
L 862.355693 437.885308 
L 863.586937 459.038179 
L 864.20256 482.586921 
L 864.818182 433.10549 
L 866.049426 473.736583 
L 866.665049 439.199559 
L 867.280671 423.750076 
L 867.896293 390.764006 
L 869.127538 480.557264 
L 869.74316 503.728724 
L 870.358782 407.836778 
L 870.974404 432.614681 
L 871.590026 430.105473 
L 873.436893 501.741938 
L 874.052515 448.431955 
L 874.668138 472.544747 
L 875.28376 488.172317 
L 876.515004 531.190109 
L 877.130627 460.162164 
L 877.746249 429.352016 
L 878.361871 452.017758 
L 878.977493 427.454089 
L 879.593116 432.224653 
L 880.208738 427.547185 
L 879.593116 449.635533 
L 880.82436 426.835086 
L 881.439982 399.151323 
L 882.671227 446.45085 
L 883.286849 395.502797 
L 883.902471 419.533425 
L 884.518094 466.866321 
L 885.749338 393.182931 
L 886.36496 374.461652 
L 885.133716 398.824343 
L 887.596205 422.517523 
L 888.827449 420.647249 
L 889.443071 418.264665 
L 890.058694 432.106898 
L 891.289938 405.663712 
L 891.90556 418.251631 
L 892.521183 415.508485 
L 893.136805 421.117627 
L 893.752427 355.316895 
L 894.368049 379.969685 
L 894.983672 387.387417 
L 895.599294 402.211067 
L 896.830538 421.77036 
L 897.446161 417.096919 
L 895.599294 389.325716 
L 898.061783 382.876737 
L 898.677405 394.876774 
L 899.293027 373.708657 
L 899.90865 398.085835 
L 900.524272 400.521424 
L 901.139894 386.360143 
L 900.524272 397.267781 
L 901.755516 421.018016 
L 902.371139 443.862008 
L 902.986761 434.921778 
L 903.602383 410.957357 
L 904.218005 428.790456 
L 905.44925 470.824366 
L 906.064872 431.377689 
L 907.911739 497.25199 
L 908.527361 406.049201 
L 909.142983 392.344677 
L 909.758605 384.93634 
L 910.374228 396.299217 
L 910.98985 420.083778 
L 911.605472 406.250435 
L 912.221094 366.760712 
L 912.836717 360.296579 
L 914.067961 396.637491 
L 914.683583 385.844488 
L 915.299206 396.918407 
L 915.914828 420.681127 
L 917.146072 348.785394 
L 917.761695 369.996154 
L 918.377317 374.271629 
L 918.992939 382.411191 
L 919.608561 407.356199 
L 920.839806 425.15258 
L 921.455428 429.22058 
L 922.07105 424.117231 
L 922.686673 425.892347 
L 923.302295 391.417118 
L 923.917917 410.131766 
L 924.533539 376.205301 
L 925.764784 409.223542 
L 926.380406 424.398469 
L 926.996028 390.893324 
L 927.61165 414.853981 
L 928.227273 424.509945 
L 928.842895 426.098049 
L 929.458517 396.91175 
L 930.689762 421.761393 
L 931.305384 426.163889 
L 931.921006 425.392671 
L 932.536628 422.126679 
L 933.152251 423.053527 
L 933.767873 425.329845 
L 934.999117 402.646445 
L 935.61474 427.393195 
L 936.230362 419.460716 
L 936.845984 442.53914 
L 938.077229 360.387352 
L 938.692851 385.380406 
L 939.308473 404.968184 
L 939.924095 368.837063 
L 940.539718 393.407424 
L 941.15534 443.142263 
L 941.770962 467.225609 
L 942.386584 442.357292 
L 943.002207 466.749036 
L 943.617829 397.453624 
L 944.233451 422.329141 
L 944.849073 417.341385 
L 945.464695 422.176486 
L 946.080318 402.18306 
L 946.69594 414.53028 
L 947.311562 423.97155 
L 947.927184 418.124567 
L 948.542807 438.361482 
L 949.158429 421.049279 
L 950.389673 400.268398 
L 951.005296 423.906492 
L 949.158429 385.494787 
L 951.620918 400.776296 
L 952.852162 380.599974 
L 953.467785 394.639584 
L 954.083407 416.251168 
L 954.699029 404.151359 
L 955.314651 417.174213 
L 955.930274 441.907462 
L 956.545896 438.845752 
L 957.161518 460.574025 
L 957.77714 440.566415 
L 959.008385 404.69211 
L 959.624007 414.417214 
L 960.239629 362.229244 
L 960.855252 387.194982 
L 961.470874 391.170262 
L 962.086496 389.992965 
L 962.702118 404.156079 
L 963.317741 429.087845 
L 962.702118 420.131679 
L 963.933363 423.817705 
L 964.548985 364.698798 
L 965.780229 413.678645 
L 966.395852 365.333462 
L 967.011474 399.999195 
L 967.627096 424.831278 
L 968.858341 386.581228 
L 969.473963 401.60213 
L 970.089585 425.444585 
L 970.705207 183.133293 
L 973.167696 280.731209 
L 974.398941 328.233057 
L 976.245808 402.879043 
L 976.86143 398.749081 
L 977.477052 409.346475 
L 978.092674 411.17102 
L 978.708297 410.2481 
L 979.323919 400.012383 
L 979.939541 405.909443 
L 980.555163 407.191688 
L 981.170786 410.021905 
L 981.786408 404.186781 
L 982.40203 427.664311 
L 983.017652 410.676604 
L 983.633274 404.51921 
L 984.248897 401.742324 
L 984.864519 412.460393 
L 985.480141 435.539081 
L 986.095763 415.209487 
L 986.711386 409.422748 
L 987.327008 423.506485 
L 987.94263 115.859522 
L 993.48323 338.03373 
L 994.714475 378.698593 
L 995.330097 394.784842 
L 995.945719 407.221729 
L 996.561342 415.527636 
L 995.945719 414.22041 
L 996.561342 411.13451 
L 997.176964 418.743652 
L 997.792586 443.40576 
L 998.408208 421.952806 
L 999.023831 444.453971 
L 999.639453 440.931251 
L 1000.255075 462.470431 
L 1000.870697 445.781211 
L 1001.48632 425.768263 
L 1002.101942 447.99434 
L 1002.717564 436.479805 
L 1003.333186 436.807368 
L 1003.948808 436.004474 
L 1004.564431 437.223108 
L 1005.795675 485.212313 
L 1007.02692 409.798959 
L 1008.258164 434.555028 
L 1008.873786 442.069027 
L 1009.489409 362.3423 
L 1010.105031 412.231673 
L 1010.720653 435.322592 
L 1011.336275 391.348744 
L 1011.951898 415.117142 
L 1013.183142 406.114849 
L 1015.645631 498.247533 
L 1016.261253 498.856751 
L 1016.876876 506.597059 
L 1017.492498 511.12041 
L 1018.10812 516.69447 
L 1018.723742 511.037609 
L 1019.339365 508.50801 
L 1019.954987 449.145702 
L 1020.570609 492.63802 
L 1021.186231 478.904275 
L 1021.801853 389.093141 
L 1023.033098 419.060029 
L 1023.64872 443.728019 
L 1024.264342 484.599889 
L 1024.879965 497.08054 
L 1025.495587 463.95741 
L 1026.111209 441.507412 
L 1027.342454 489.614694 
L 1027.958076 462.323225 
L 1028.573698 480.057223 
L 1029.18932 488.230279 
L 1030.420565 428.978593 
L 1031.036187 453.771913 
L 1031.651809 302.139039 
L 1032.883054 348.957514 
L 1034.114298 393.32807 
L 1034.729921 412.348544 
L 1035.345543 419.239275 
L 1035.961165 435.643882 
L 1036.576787 414.382012 
L 1037.19241 412.011645 
L 1037.808032 435.11426 
L 1038.423654 433.683816 
L 1039.039276 430.600286 
L 1039.654898 432.110249 
L 1040.886143 473.955058 
L 1041.501765 428.705034 
L 1042.117387 451.222834 
L 1043.348632 456.021966 
L 1044.579876 491.489976 
L 1045.195499 476.877001 
L 1045.811121 432.326459 
L 1046.426743 454.998771 
L 1047.042365 472.643472 
L 1047.657988 476.529458 
L 1048.27361 491.201696 
L 1048.889232 224.215887 
L 1050.736099 299.002488 
L 1051.967343 323.986256 
L 1052.582966 347.508339 
L 1053.198588 394.607389 
L 1054.429832 444.15498 
L 1055.045455 435.035904 
L 1056.276699 483.983196 
L 1056.892321 483.864879 
L 1057.507944 506.866977 
L 1058.123566 483.592915 
L 1058.739188 475.879798 
L 1059.35481 432.262181 
L 1059.970432 447.767818 
L 1060.586055 455.48729 
L 1061.201677 461.794414 
L 1061.817299 465.403391 
L 1062.432921 489.733174 
L 1063.048544 500.627696 
L 1063.664166 496.448541 
L 1064.279788 518.588775 
L 1064.89541 460.442428 
L 1065.511033 479.651415 
L 1066.126655 495.253387 
L 1066.742277 506.619714 
L 1067.357899 448.958384 
L 1067.973522 468.826992 
L 1068.589144 416.10281 
L 1069.204766 433.406387 
L 1070.436011 475.479309 
L 1071.051633 492.000566 
L 1071.667255 482.805434 
L 1072.282877 487.111968 
L 1072.8985 454.104678 
L 1073.514122 460.302568 
L 1074.129744 478.428364 
L 1074.745366 452.186108 
L 1075.976611 499.35957 
L 1076.592233 483.145432 
L 1077.823477 445.749375 
L 1079.054722 480.1801 
L 1079.670344 503.410588 
L 1080.285966 489.962966 
L 1080.901589 446.871508 
L 1081.517211 471.056556 
L 1082.132833 463.842871 
L 1082.748455 441.476589 
L 1083.364078 425.589094 
L 1083.9797 433.830496 
L 1084.595322 449.868686 
L 1085.826567 492.637871 
L 1086.442189 514.685305 
L 1087.673433 435.921442 
L 1088.904678 472.567783 
L 1089.5203 472.716886 
L 1090.135922 488.304824 
L 1090.751545 530.951563 
L 1091.367167 468.402397 
L 1091.982789 484.940798 
L 1092.598411 507.059729 
L 1093.214034 496.885185 
L 1093.829656 507.728853 
L 1094.445278 514.677735 
L 1095.676523 550.691001 
L 1096.292145 540.850912 
L 1096.907767 451.278659 
L 1097.523389 455.952255 
L 1098.139011 445.70021 
L 1098.754634 465.988753 
L 1099.370256 430.518678 
L 1099.985878 410.746286 
L 1100.6015 435.411692 
L 1101.217123 440.604354 
L 1101.832745 461.468371 
L 1102.448367 459.642188 
L 1103.063989 447.046042 
L 1103.679612 444.758606 
L 1104.295234 465.923999 
L 1104.910856 414.520274 
L 1105.526478 439.283261 
L 1106.142101 438.280609 
L 1106.757723 440.087293 
L 1107.373345 424.128032 
L 1107.988967 415.783309 
L 1108.60459 439.049783 
L 1109.835834 438.763308 
L 1111.067079 481.843219 
L 1111.682701 450.85999 
L 1112.913945 481.975611 
L 1113.529568 474.043935 
L 1114.14519 482.337552 
L 1115.376434 525.054219 
L 1115.992056 535.262547 
L 1116.607679 529.825551 
L 1117.223301 460.842588 
L 1117.838923 479.965368 
L 1118.454545 456.206723 
L 1119.070168 476.217053 
L 1119.68579 489.754545 
L 1120.301412 454.755328 
L 1120.917034 473.791105 
L 1121.532657 489.128427 
L 1122.148279 480.652897 
L 1122.763901 456.383713 
L 1123.379523 480.863034 
L 1123.995146 494.402764 
L 1125.22639 536.697068 
L 1125.842012 536.698645 
L 1126.457635 518.187704 
L 1127.073257 526.293799 
L 1127.688879 436.48854 
L 1128.920124 481.945285 
L 1129.535746 467.89483 
L 1130.151368 492.154302 
L 1130.76699 502.302143 
L 1131.382613 496.87884 
L 1131.998235 487.885195 
L 1133.229479 489.070056 
L 1133.845102 446.734433 
L 1134.460724 466.872065 
L 1135.076346 467.326438 
L 1135.691968 484.088329 
L 1136.30759 488.210353 
L 1136.923213 488.422184 
L 1137.538835 423.943799 
L 1138.154457 426.766882 
L 1138.770079 448.929297 
L 1139.385702 457.142778 
L 1140.001324 480.998557 
L 1140.616946 416.177384 
L 1141.232568 441.04612 
L 1141.848191 451.999654 
L 1142.463813 470.01477 
L 1143.079435 390.243732 
L 1144.31068 434.376225 
L 1144.926302 420.984443 
L 1145.541924 432.442317 
L 1146.157546 449.416459 
L 1146.773169 474.116732 
L 1148.004413 451.522544 
L 1149.235658 486.98695 
L 1149.85128 477.919139 
L 1150.466902 481.878466 
L 1151.082524 396.713567 
L 1151.698147 420.483552 
L 1152.313769 423.938707 
L 1152.929391 446.76233 
L 1153.545013 430.839051 
L 1154.160635 436.127356 
L 1154.776258 457.456883 
L 1155.39188 428.757675 
L 1156.007502 436.518791 
L 1156.623124 431.874423 
L 1157.238747 438.33286 
L 1157.854369 412.06477 
L 1158.469991 433.824939 
L 1159.085613 450.517463 
L 1159.701236 439.289205 
L 1160.316858 390.169728 
L 1160.93248 414.152081 
L 1161.548102 431.824588 
L 1162.163725 421.175434 
L 1162.779347 426.109649 
L 1163.394969 448.309778 
L 1164.010591 402.207303 
L 1164.626214 405.121541 
L 1165.241836 408.887905 
L 1165.857458 420.400863 
L 1166.47308 413.407839 
L 1167.704325 416.557589 
L 1168.319947 421.726463 
L 1168.935569 428.84693 
L 1169.551192 450.830628 
L 1170.166814 434.272122 
L 1170.782436 458.715993 
L 1171.398058 442.629649 
L 1172.01368 434.435522 
L 1173.244925 482.696702 
L 1173.860547 495.773556 
L 1174.476169 407.353189 
L 1175.091792 430.688241 
L 1175.707414 434.034134 
L 1176.323036 451.454268 
L 1176.938658 427.409763 
L 1177.554281 437.470941 
L 1178.169903 434.669585 
L 1178.785525 453.509207 
L 1179.401147 461.815703 
L 1180.01677 503.13692 
L 1180.632392 509.119433 
L 1181.863636 546.791333 
L 1182.479259 533.162577 
L 1183.094881 523.752132 
L 1183.710503 519.829728 
L 1184.326125 521.750069 
L 1184.941748 540.431351 
L 1185.55737 464.619655 
L 1186.172992 440.344352 
L 1186.788614 383.456826 
L 1187.404237 432.431054 
L 1188.019859 454.107665 
L 1188.635481 452.446833 
L 1189.251103 501.017298 
L 1189.866726 448.348223 
L 1190.482348 421.118093 
L 1191.09797 424.286399 
L 1191.713592 446.622525 
L 1192.329214 435.974859 
L 1192.944837 457.947692 
L 1193.560459 504.403709 
L 1194.176081 448.727059 
L 1194.791703 363.849723 
L 1196.022948 412.184126 
L 1196.63857 456.833758 
L 1197.254192 471.3448 
L 1197.869815 443.349621 
L 1198.485437 463.901717 
L 1199.101059 429.871911 
L 1199.716681 411.35237 
L 1200.332304 437.812309 
L 1200.947926 432.437561 
L 1201.563548 401.046175 
L 1202.17917 411.990801 
L 1202.794793 407.027195 
L 1203.410415 408.711495 
L 1204.026037 431.981687 
L 1204.641659 418.507142 
L 1205.257282 415.626686 
L 1205.872904 422.380214 
L 1206.488526 444.851886 
L 1207.104148 431.657257 
L 1207.719771 426.598335 
L 1208.335393 419.139445 
L 1208.951015 401.781772 
L 1210.182259 447.622863 
L 1210.797882 435.17839 
L 1211.413504 409.211166 
L 1212.029126 420.636106 
L 1212.644748 428.683756 
L 1213.260371 400.225182 
L 1214.491615 446.461586 
L 1215.107237 467.448881 
L 1215.72286 443.214521 
L 1216.338482 430.013246 
L 1216.954104 431.195343 
L 1217.569726 452.980985 
L 1218.185349 438.781741 
L 1219.416593 459.841518 
L 1220.032215 476.345707 
L 1220.647838 444.443004 
L 1221.26346 391.756778 
L 1221.879082 405.452308 
L 1222.494704 412.917677 
L 1223.110327 413.657267 
L 1223.725949 435.575448 
L 1224.341571 442.454858 
L 1224.957193 436.562586 
L 1225.572816 425.684514 
L 1226.188438 446.449033 
L 1226.80406 435.910135 
L 1227.419682 442.656885 
L 1228.035305 446.569546 
L 1228.650927 464.261495 
L 1229.266549 463.985148 
L 1229.882171 195.995464 
L 1232.960282 320.183116 
L 1233.575905 368.055602 
L 1234.191527 340.948293 
L 1234.807149 178.96536 
L 1236.038394 229.054891 
L 1236.654016 248.752176 
L 1239.732127 371.163742 
L 1240.347749 394.297212 
L 1240.963372 391.543917 
L 1241.578994 407.398913 
L 1242.194616 416.165012 
L 1242.810238 413.734093 
L 1243.425861 417.440644 
L 1244.041483 434.504585 
L 1245.272727 437.058905 
L 1245.272727 437.058905 
" style="fill:none;stroke:#ff7f0e;stroke-linecap:square;stroke-width:1.5;"/>
   </g>
   <g id="patch_3">
    <path d="M 180 640.8 
L 180 86.4 
" style="fill:none;stroke:#000000;stroke-linecap:square;stroke-linejoin:miter;stroke-width:0.8;"/>
   </g>
   <g id="patch_4">
    <path d="M 1296 640.8 
L 1296 86.4 
" style="fill:none;stroke:#000000;stroke-linecap:square;stroke-linejoin:miter;stroke-width:0.8;"/>
   </g>
   <g id="patch_5">
    <path d="M 180 640.8 
L 1296 640.8 
" style="fill:none;stroke:#000000;stroke-linecap:square;stroke-linejoin:miter;stroke-width:0.8;"/>
   </g>
   <g id="patch_6">
    <path d="M 180 86.4 
L 1296 86.4 
" style="fill:none;stroke:#000000;stroke-linecap:square;stroke-linejoin:miter;stroke-width:0.8;"/>
   </g>
  </g>
 </g>
 <defs>
  <clipPath id="p217a85c2bc">
   <rect height="554.4" width="1116" x="180" y="86.4"/>
  </clipPath>
 </defs>
</svg>
