<?xml version="1.0" encoding="utf-8" standalone="no"?>
<!DOCTYPE svg PUBLIC "-//W3C//DTD SVG 1.1//EN"
  "http://www.w3.org/Graphics/SVG/1.1/DTD/svg11.dtd">
<svg height="288pt" version="1.1" viewBox="0 0 576 288" width="576pt" xmlns="http://www.w3.org/2000/svg" xmlns:xlink="http://www.w3.org/1999/xlink">
 <metadata>
  <rdf:RDF xmlns:cc="http://creativecommons.org/ns#" xmlns:dc="http://purl.org/dc/elements/1.1/" xmlns:rdf="http://www.w3.org/1999/02/22-rdf-syntax-ns#">
   <cc:Work>
    <dc:type rdf:resource="http://purl.org/dc/dcmitype/StillImage"/>
    <dc:date>2022-01-06T21:21:53.354669</dc:date>
    <dc:format>image/svg+xml</dc:format>
    <dc:creator>
     <cc:Agent>
      <dc:title>Matplotlib v3.4.3, https://matplotlib.org/</dc:title>
     </cc:Agent>
    </dc:creator>
   </cc:Work>
  </rdf:RDF>
 </metadata>
 <defs>
  <style type="text/css">*{stroke-linecap:butt;stroke-linejoin:round;}</style>
 </defs>
 <g id="figure_1">
  <g id="patch_1">
   <path d="M 0 288 
L 576 288 
L 576 0 
L 0 0 
z
" style="fill:#ffffff;"/>
  </g>
  <g id="axes_1">
   <g id="patch_2">
    <path d="M 72 256.32 
L 518.4 256.32 
L 518.4 34.56 
L 72 34.56 
z
" style="fill:#ffffff;"/>
   </g>
   <g id="matplotlib.axis_1">
    <g id="xtick_1">
     <g id="line2d_1">
      <defs>
       <path d="M 0 0 
L 0 3.5 
" id="m5a2daaca12" style="stroke:#000000;stroke-width:0.8;"/>
      </defs>
      <g>
       <use style="stroke:#000000;stroke-width:0.8;" x="92.290909" xlink:href="#m5a2daaca12" y="256.32"/>
      </g>
     </g>
     <g id="text_1">
      <!-- 39000 -->
      <g transform="translate(76.384659 270.918437)scale(0.1 -0.1)">
       <defs>
        <path d="M 2597 2516 
Q 3050 2419 3304 2112 
Q 3559 1806 3559 1356 
Q 3559 666 3084 287 
Q 2609 -91 1734 -91 
Q 1441 -91 1130 -33 
Q 819 25 488 141 
L 488 750 
Q 750 597 1062 519 
Q 1375 441 1716 441 
Q 2309 441 2620 675 
Q 2931 909 2931 1356 
Q 2931 1769 2642 2001 
Q 2353 2234 1838 2234 
L 1294 2234 
L 1294 2753 
L 1863 2753 
Q 2328 2753 2575 2939 
Q 2822 3125 2822 3475 
Q 2822 3834 2567 4026 
Q 2313 4219 1838 4219 
Q 1578 4219 1281 4162 
Q 984 4106 628 3988 
L 628 4550 
Q 988 4650 1302 4700 
Q 1616 4750 1894 4750 
Q 2613 4750 3031 4423 
Q 3450 4097 3450 3541 
Q 3450 3153 3228 2886 
Q 3006 2619 2597 2516 
z
" id="DejaVuSans-33" transform="scale(0.015625)"/>
        <path d="M 703 97 
L 703 672 
Q 941 559 1184 500 
Q 1428 441 1663 441 
Q 2288 441 2617 861 
Q 2947 1281 2994 2138 
Q 2813 1869 2534 1725 
Q 2256 1581 1919 1581 
Q 1219 1581 811 2004 
Q 403 2428 403 3163 
Q 403 3881 828 4315 
Q 1253 4750 1959 4750 
Q 2769 4750 3195 4129 
Q 3622 3509 3622 2328 
Q 3622 1225 3098 567 
Q 2575 -91 1691 -91 
Q 1453 -91 1209 -44 
Q 966 3 703 97 
z
M 1959 2075 
Q 2384 2075 2632 2365 
Q 2881 2656 2881 3163 
Q 2881 3666 2632 3958 
Q 2384 4250 1959 4250 
Q 1534 4250 1286 3958 
Q 1038 3666 1038 3163 
Q 1038 2656 1286 2365 
Q 1534 2075 1959 2075 
z
" id="DejaVuSans-39" transform="scale(0.015625)"/>
        <path d="M 2034 4250 
Q 1547 4250 1301 3770 
Q 1056 3291 1056 2328 
Q 1056 1369 1301 889 
Q 1547 409 2034 409 
Q 2525 409 2770 889 
Q 3016 1369 3016 2328 
Q 3016 3291 2770 3770 
Q 2525 4250 2034 4250 
z
M 2034 4750 
Q 2819 4750 3233 4129 
Q 3647 3509 3647 2328 
Q 3647 1150 3233 529 
Q 2819 -91 2034 -91 
Q 1250 -91 836 529 
Q 422 1150 422 2328 
Q 422 3509 836 4129 
Q 1250 4750 2034 4750 
z
" id="DejaVuSans-30" transform="scale(0.015625)"/>
       </defs>
       <use xlink:href="#DejaVuSans-33"/>
       <use x="63.623047" xlink:href="#DejaVuSans-39"/>
       <use x="127.246094" xlink:href="#DejaVuSans-30"/>
       <use x="190.869141" xlink:href="#DejaVuSans-30"/>
       <use x="254.492188" xlink:href="#DejaVuSans-30"/>
      </g>
     </g>
    </g>
    <g id="xtick_2">
     <g id="line2d_2">
      <g>
       <use style="stroke:#000000;stroke-width:0.8;" x="153.853133" xlink:href="#m5a2daaca12" y="256.32"/>
      </g>
     </g>
     <g id="text_2">
      <!-- 39250 -->
      <g transform="translate(137.946883 270.918437)scale(0.1 -0.1)">
       <defs>
        <path d="M 1228 531 
L 3431 531 
L 3431 0 
L 469 0 
L 469 531 
Q 828 903 1448 1529 
Q 2069 2156 2228 2338 
Q 2531 2678 2651 2914 
Q 2772 3150 2772 3378 
Q 2772 3750 2511 3984 
Q 2250 4219 1831 4219 
Q 1534 4219 1204 4116 
Q 875 4013 500 3803 
L 500 4441 
Q 881 4594 1212 4672 
Q 1544 4750 1819 4750 
Q 2544 4750 2975 4387 
Q 3406 4025 3406 3419 
Q 3406 3131 3298 2873 
Q 3191 2616 2906 2266 
Q 2828 2175 2409 1742 
Q 1991 1309 1228 531 
z
" id="DejaVuSans-32" transform="scale(0.015625)"/>
        <path d="M 691 4666 
L 3169 4666 
L 3169 4134 
L 1269 4134 
L 1269 2991 
Q 1406 3038 1543 3061 
Q 1681 3084 1819 3084 
Q 2600 3084 3056 2656 
Q 3513 2228 3513 1497 
Q 3513 744 3044 326 
Q 2575 -91 1722 -91 
Q 1428 -91 1123 -41 
Q 819 9 494 109 
L 494 744 
Q 775 591 1075 516 
Q 1375 441 1709 441 
Q 2250 441 2565 725 
Q 2881 1009 2881 1497 
Q 2881 1984 2565 2268 
Q 2250 2553 1709 2553 
Q 1456 2553 1204 2497 
Q 953 2441 691 2322 
L 691 4666 
z
" id="DejaVuSans-35" transform="scale(0.015625)"/>
       </defs>
       <use xlink:href="#DejaVuSans-33"/>
       <use x="63.623047" xlink:href="#DejaVuSans-39"/>
       <use x="127.246094" xlink:href="#DejaVuSans-32"/>
       <use x="190.869141" xlink:href="#DejaVuSans-35"/>
       <use x="254.492188" xlink:href="#DejaVuSans-30"/>
      </g>
     </g>
    </g>
    <g id="xtick_3">
     <g id="line2d_3">
      <g>
       <use style="stroke:#000000;stroke-width:0.8;" x="215.415357" xlink:href="#m5a2daaca12" y="256.32"/>
      </g>
     </g>
     <g id="text_3">
      <!-- 39500 -->
      <g transform="translate(199.509107 270.918437)scale(0.1 -0.1)">
       <use xlink:href="#DejaVuSans-33"/>
       <use x="63.623047" xlink:href="#DejaVuSans-39"/>
       <use x="127.246094" xlink:href="#DejaVuSans-35"/>
       <use x="190.869141" xlink:href="#DejaVuSans-30"/>
       <use x="254.492188" xlink:href="#DejaVuSans-30"/>
      </g>
     </g>
    </g>
    <g id="xtick_4">
     <g id="line2d_4">
      <g>
       <use style="stroke:#000000;stroke-width:0.8;" x="276.977582" xlink:href="#m5a2daaca12" y="256.32"/>
      </g>
     </g>
     <g id="text_4">
      <!-- 39750 -->
      <g transform="translate(261.071332 270.918437)scale(0.1 -0.1)">
       <defs>
        <path d="M 525 4666 
L 3525 4666 
L 3525 4397 
L 1831 0 
L 1172 0 
L 2766 4134 
L 525 4134 
L 525 4666 
z
" id="DejaVuSans-37" transform="scale(0.015625)"/>
       </defs>
       <use xlink:href="#DejaVuSans-33"/>
       <use x="63.623047" xlink:href="#DejaVuSans-39"/>
       <use x="127.246094" xlink:href="#DejaVuSans-37"/>
       <use x="190.869141" xlink:href="#DejaVuSans-35"/>
       <use x="254.492188" xlink:href="#DejaVuSans-30"/>
      </g>
     </g>
    </g>
    <g id="xtick_5">
     <g id="line2d_5">
      <g>
       <use style="stroke:#000000;stroke-width:0.8;" x="338.539806" xlink:href="#m5a2daaca12" y="256.32"/>
      </g>
     </g>
     <g id="text_5">
      <!-- 40000 -->
      <g transform="translate(322.633556 270.918437)scale(0.1 -0.1)">
       <defs>
        <path d="M 2419 4116 
L 825 1625 
L 2419 1625 
L 2419 4116 
z
M 2253 4666 
L 3047 4666 
L 3047 1625 
L 3713 1625 
L 3713 1100 
L 3047 1100 
L 3047 0 
L 2419 0 
L 2419 1100 
L 313 1100 
L 313 1709 
L 2253 4666 
z
" id="DejaVuSans-34" transform="scale(0.015625)"/>
       </defs>
       <use xlink:href="#DejaVuSans-34"/>
       <use x="63.623047" xlink:href="#DejaVuSans-30"/>
       <use x="127.246094" xlink:href="#DejaVuSans-30"/>
       <use x="190.869141" xlink:href="#DejaVuSans-30"/>
       <use x="254.492188" xlink:href="#DejaVuSans-30"/>
      </g>
     </g>
    </g>
    <g id="xtick_6">
     <g id="line2d_6">
      <g>
       <use style="stroke:#000000;stroke-width:0.8;" x="400.10203" xlink:href="#m5a2daaca12" y="256.32"/>
      </g>
     </g>
     <g id="text_6">
      <!-- 40250 -->
      <g transform="translate(384.19578 270.918437)scale(0.1 -0.1)">
       <use xlink:href="#DejaVuSans-34"/>
       <use x="63.623047" xlink:href="#DejaVuSans-30"/>
       <use x="127.246094" xlink:href="#DejaVuSans-32"/>
       <use x="190.869141" xlink:href="#DejaVuSans-35"/>
       <use x="254.492188" xlink:href="#DejaVuSans-30"/>
      </g>
     </g>
    </g>
    <g id="xtick_7">
     <g id="line2d_7">
      <g>
       <use style="stroke:#000000;stroke-width:0.8;" x="461.664254" xlink:href="#m5a2daaca12" y="256.32"/>
      </g>
     </g>
     <g id="text_7">
      <!-- 40500 -->
      <g transform="translate(445.758004 270.918437)scale(0.1 -0.1)">
       <use xlink:href="#DejaVuSans-34"/>
       <use x="63.623047" xlink:href="#DejaVuSans-30"/>
       <use x="127.246094" xlink:href="#DejaVuSans-35"/>
       <use x="190.869141" xlink:href="#DejaVuSans-30"/>
       <use x="254.492188" xlink:href="#DejaVuSans-30"/>
      </g>
     </g>
    </g>
   </g>
   <g id="matplotlib.axis_2">
    <g id="ytick_1">
     <g id="line2d_8">
      <defs>
       <path d="M 0 0 
L -3.5 0 
" id="mc4a073ea83" style="stroke:#000000;stroke-width:0.8;"/>
      </defs>
      <g>
       <use style="stroke:#000000;stroke-width:0.8;" x="72" xlink:href="#mc4a073ea83" y="246.240179"/>
      </g>
     </g>
     <g id="text_8">
      <!-- 0 -->
      <g transform="translate(58.6375 250.039398)scale(0.1 -0.1)">
       <use xlink:href="#DejaVuSans-30"/>
      </g>
     </g>
    </g>
    <g id="ytick_2">
     <g id="line2d_9">
      <g>
       <use style="stroke:#000000;stroke-width:0.8;" x="72" xlink:href="#mc4a073ea83" y="217.97633"/>
      </g>
     </g>
     <g id="text_9">
      <!-- 50 -->
      <g transform="translate(52.275 221.775548)scale(0.1 -0.1)">
       <use xlink:href="#DejaVuSans-35"/>
       <use x="63.623047" xlink:href="#DejaVuSans-30"/>
      </g>
     </g>
    </g>
    <g id="ytick_3">
     <g id="line2d_10">
      <g>
       <use style="stroke:#000000;stroke-width:0.8;" x="72" xlink:href="#mc4a073ea83" y="189.71248"/>
      </g>
     </g>
     <g id="text_10">
      <!-- 100 -->
      <g transform="translate(45.9125 193.511699)scale(0.1 -0.1)">
       <defs>
        <path d="M 794 531 
L 1825 531 
L 1825 4091 
L 703 3866 
L 703 4441 
L 1819 4666 
L 2450 4666 
L 2450 531 
L 3481 531 
L 3481 0 
L 794 0 
L 794 531 
z
" id="DejaVuSans-31" transform="scale(0.015625)"/>
       </defs>
       <use xlink:href="#DejaVuSans-31"/>
       <use x="63.623047" xlink:href="#DejaVuSans-30"/>
       <use x="127.246094" xlink:href="#DejaVuSans-30"/>
      </g>
     </g>
    </g>
    <g id="ytick_4">
     <g id="line2d_11">
      <g>
       <use style="stroke:#000000;stroke-width:0.8;" x="72" xlink:href="#mc4a073ea83" y="161.448631"/>
      </g>
     </g>
     <g id="text_11">
      <!-- 150 -->
      <g transform="translate(45.9125 165.247849)scale(0.1 -0.1)">
       <use xlink:href="#DejaVuSans-31"/>
       <use x="63.623047" xlink:href="#DejaVuSans-35"/>
       <use x="127.246094" xlink:href="#DejaVuSans-30"/>
      </g>
     </g>
    </g>
    <g id="ytick_5">
     <g id="line2d_12">
      <g>
       <use style="stroke:#000000;stroke-width:0.8;" x="72" xlink:href="#mc4a073ea83" y="133.184781"/>
      </g>
     </g>
     <g id="text_12">
      <!-- 200 -->
      <g transform="translate(45.9125 136.984)scale(0.1 -0.1)">
       <use xlink:href="#DejaVuSans-32"/>
       <use x="63.623047" xlink:href="#DejaVuSans-30"/>
       <use x="127.246094" xlink:href="#DejaVuSans-30"/>
      </g>
     </g>
    </g>
    <g id="ytick_6">
     <g id="line2d_13">
      <g>
       <use style="stroke:#000000;stroke-width:0.8;" x="72" xlink:href="#mc4a073ea83" y="104.920932"/>
      </g>
     </g>
     <g id="text_13">
      <!-- 250 -->
      <g transform="translate(45.9125 108.720151)scale(0.1 -0.1)">
       <use xlink:href="#DejaVuSans-32"/>
       <use x="63.623047" xlink:href="#DejaVuSans-35"/>
       <use x="127.246094" xlink:href="#DejaVuSans-30"/>
      </g>
     </g>
    </g>
    <g id="ytick_7">
     <g id="line2d_14">
      <g>
       <use style="stroke:#000000;stroke-width:0.8;" x="72" xlink:href="#mc4a073ea83" y="76.657082"/>
      </g>
     </g>
     <g id="text_14">
      <!-- 300 -->
      <g transform="translate(45.9125 80.456301)scale(0.1 -0.1)">
       <use xlink:href="#DejaVuSans-33"/>
       <use x="63.623047" xlink:href="#DejaVuSans-30"/>
       <use x="127.246094" xlink:href="#DejaVuSans-30"/>
      </g>
     </g>
    </g>
    <g id="ytick_8">
     <g id="line2d_15">
      <g>
       <use style="stroke:#000000;stroke-width:0.8;" x="72" xlink:href="#mc4a073ea83" y="48.393233"/>
      </g>
     </g>
     <g id="text_15">
      <!-- 350 -->
      <g transform="translate(45.9125 52.192452)scale(0.1 -0.1)">
       <use xlink:href="#DejaVuSans-33"/>
       <use x="63.623047" xlink:href="#DejaVuSans-35"/>
       <use x="127.246094" xlink:href="#DejaVuSans-30"/>
      </g>
     </g>
    </g>
   </g>
   <g id="line2d_16">
    <path clip-path="url(#pa53f5add13)" d="M 92.290909 246.232602 
L 215.415357 246.14159 
L 216.154104 246.120196 
L 216.646602 246.23758 
L 238.070256 246.237522 
L 239.3015 246.24 
L 252.106443 246.230264 
L 252.352692 246.099945 
L 253.091439 246.203389 
L 254.322683 246.24 
L 259.001412 246.24 
L 286.33504 246.224331 
L 286.827538 246.125656 
L 291.013769 246.232295 
L 294.461253 246.237138 
L 295.2 246.159909 
L 498.109091 246.24 
L 498.109091 246.24 
" style="fill:none;stroke:#1f77b4;stroke-linecap:square;stroke-width:1.5;"/>
   </g>
   <g id="line2d_17">
    <path clip-path="url(#pa53f5add13)" d="M 92.290909 246.231034 
L 95.984643 246.223192 
L 96.47714 246.199802 
L 98.69338 246.236524 
L 101.894616 246.226021 
L 102.140865 245.80138 
L 102.633363 246.119177 
L 102.879612 245.988285 
L 103.372109 246.168742 
L 104.110856 246.213455 
L 109.035834 246.229773 
L 109.282083 246.105357 
L 109.774581 246.208591 
L 120.855781 246.23047 
L 127.75075 246.234774 
L 128.981995 246.205031 
L 129.228244 246.22121 
L 129.474492 245.467522 
L 129.96699 246.044902 
L 130.459488 246.185233 
L 131.936981 246.211802 
L 134.153222 246.22646 
L 135.630715 246.236758 
L 143.51068 246.203259 
L 143.264431 246.165217 
L 144.249426 246.225626 
L 145.72692 246.236549 
L 145.973169 67.045558 
L 146.219417 156.638764 
L 146.711915 222.690932 
L 146.958164 234.449428 
L 147.204413 240.332559 
L 147.450662 243.268592 
L 147.696911 244.753986 
L 147.94316 245.484724 
L 148.435658 246.050576 
L 148.928155 246.190209 
L 154.345631 246.237694 
L 156.069373 246.206097 
L 159.270609 246.215022 
L 161.486849 246.133758 
L 162.225596 246.202143 
L 162.964342 246.207088 
L 163.210591 44.64 
L 163.45684 145.423962 
L 164.195587 221.016131 
L 164.441836 233.612028 
L 164.688085 239.912423 
L 164.934334 243.05318 
L 165.180583 244.630552 
L 165.426831 245.430638 
L 165.919329 245.946312 
L 166.411827 246.157254 
L 166.904325 246.227543 
L 167.150574 246.114558 
L 167.396823 246.176219 
L 167.643071 245.916651 
L 168.874316 246.191763 
L 169.366814 246.211875 
L 169.613063 246.049911 
L 170.351809 246.17947 
L 171.583054 246.217515 
L 172.814298 246.233091 
L 179.709267 246.195029 
L 179.955516 246.216215 
L 180.201765 246.123813 
L 180.940512 246.199219 
L 186.850485 246.224512 
L 187.589232 246.214729 
L 189.559223 246.206851 
L 194.237952 246.184268 
L 194.484201 245.990165 
L 195.222948 246.179508 
L 195.961695 246.182135 
L 196.207944 245.737691 
L 196.700441 246.084244 
L 197.685437 246.184117 
L 198.177935 246.201973 
L 197.685437 245.914 
L 199.655428 246.186872 
L 202.364166 246.208649 
L 204.826655 246.176868 
L 205.072904 239.757583 
L 205.319153 242.981111 
L 205.565402 244.599798 
L 205.81165 245.416282 
L 206.304148 245.812103 
L 205.81165 246.022434 
L 207.781642 246.219617 
L 208.027891 246.115422 
L 209.012886 246.205292 
L 209.997882 246.229208 
L 212.952868 246.213859 
L 214.92286 246.197907 
L 218.616593 246.223421 
L 218.862842 246.116552 
L 219.601589 246.188184 
L 227.727802 246.231049 
L 227.974051 164.936518 
L 228.2203 205.564068 
L 228.466549 225.885996 
L 228.712798 236.061938 
L 228.959047 241.145333 
L 229.205296 243.668475 
L 229.451545 244.9382 
L 229.944042 245.877006 
L 230.682789 246.125341 
L 231.914034 246.22059 
L 250.382701 246.220491 
L 253.091439 246.207645 
L 253.583936 246.164007 
L 254.568932 246.146118 
L 256.046425 246.221388 
L 261.71015 246.176919 
L 262.695146 246.188387 
L 263.92639 246.222531 
L 264.172639 246.109156 
L 264.911386 246.186888 
L 266.388879 246.207819 
L 267.127626 246.220287 
L 267.373875 244.490497 
L 267.620124 245.70911 
L 268.112621 246.083072 
L 268.605119 246.145558 
L 269.097617 246.178375 
L 270.57511 246.228068 
L 271.560106 246.226286 
L 271.806355 245.825976 
L 272.298853 246.118859 
L 273.283848 246.198782 
L 274.761342 246.185207 
L 275.992586 246.203957 
L 276.238835 246.10769 
L 277.223831 246.211272 
L 276.977582 246.209598 
L 281.163813 246.141525 
L 280.917564 156.594449 
L 281.656311 223.792415 
L 281.90256 234.996351 
L 282.148808 240.602138 
L 282.395057 243.3808 
L 282.148808 244.794362 
L 283.133804 246.012506 
L 283.626302 246.161001 
L 284.1188 246.198124 
L 284.365049 245.801453 
L 284.857546 246.009734 
L 285.103795 245.858301 
L 285.350044 246.04156 
L 285.596293 245.582983 
L 286.088791 246.047612 
L 286.33504 246.119615 
L 286.581289 245.913241 
L 286.827538 246.060583 
L 287.566284 246.134254 
L 287.812533 246.009915 
L 288.55128 246.164306 
L 288.797529 246.052915 
L 289.536275 246.198236 
L 290.028773 246.193343 
L 290.275022 245.774673 
L 291.998764 246.185531 
L 293.476258 246.187161 
L 293.722507 246.006543 
L 293.968756 245.987058 
L 294.215004 246.153012 
L 295.2 246.191417 
L 295.938747 246.155031 
L 296.677493 246.191121 
L 296.923742 244.267902 
L 296.677493 245.237913 
L 297.41624 245.953537 
L 298.647485 246.17063 
L 298.893733 246.031318 
L 301.602471 246.090425 
L 302.341218 246.165342 
L 303.326214 246.187449 
L 304.803707 246.168952 
L 305.049956 246.188438 
L 305.296205 245.970854 
L 305.542454 245.923039 
L 306.2812 246.177295 
L 307.266196 246.136072 
L 307.758694 246.19705 
L 308.251192 246.020937 
L 309.236187 246.183958 
L 309.482436 246.181486 
L 309.974934 246.047356 
L 310.467432 246.07499 
L 310.71368 245.983498 
L 311.206178 246.145993 
L 311.452427 246.032038 
L 312.437423 246.163957 
L 312.683672 245.258948 
L 312.929921 245.702472 
L 313.422418 245.510858 
L 313.668667 245.889906 
L 313.914916 246.048915 
L 315.146161 246.114014 
L 315.39241 246.00301 
L 315.884907 246.16466 
L 316.377405 246.148183 
L 316.131156 246.199711 
L 317.362401 246.215038 
L 317.60865 246.217334 
L 317.854898 246.05467 
L 318.593645 246.151724 
L 318.839894 246.179824 
L 319.086143 246.032231 
L 319.82489 246.178914 
L 320.071139 246.061251 
L 320.809885 246.194918 
L 323.518623 246.203785 
L 323.764872 246.047896 
L 324.25737 246.16713 
L 324.749868 246.149223 
L 325.488614 246.142329 
L 326.227361 246.221827 
L 326.719859 246.100781 
L 327.212357 246.195871 
L 327.704854 246.149596 
L 327.212357 246.193492 
L 327.951103 216.112615 
L 328.197352 231.156129 
L 328.68985 244.337321 
L 328.936099 245.287355 
L 329.182348 245.745571 
L 329.674846 246.062734 
L 329.921094 246.123582 
L 329.428597 246.1576 
L 330.413592 246.198 
L 331.152339 246.152544 
L 331.891086 246.143749 
L 332.876081 246.188266 
L 333.12233 246.04748 
L 334.107326 246.227481 
L 339.524801 246.209234 
L 341.248544 246.203117 
L 345.188526 246.192006 
L 344.942277 246.2158 
L 346.912268 246.204144 
L 347.158517 246.150484 
L 347.897264 246.23623 
L 348.389762 246.211976 
L 357.254722 246.201424 
L 357.500971 246.001203 
L 357.993469 246.141708 
L 358.978464 246.196867 
L 358.239718 246.146846 
L 360.702207 246.201317 
L 362.1797 246.230372 
L 364.149691 246.163211 
L 364.642189 246.181723 
L 365.134687 246.031938 
L 365.627184 246.163928 
L 366.119682 246.164518 
L 366.365931 246.200953 
L 366.858429 245.95391 
L 367.350927 246.098672 
L 369.074669 246.206216 
L 369.813416 246.106038 
L 370.552162 246.204784 
L 371.04466 246.194097 
L 373.507149 246.205684 
L 375.969638 246.075731 
L 376.708385 246.229346 
L 380.155869 246.17121 
L 379.663372 246.136419 
L 380.648367 246.172172 
L 381.387114 246.159598 
L 382.372109 246.218366 
L 383.849603 246.193537 
L 384.095852 246.042772 
L 384.58835 246.151486 
L 388.035834 246.205793 
L 388.282083 218.337788 
L 388.528332 232.279813 
L 388.774581 239.259704 
L 389.267079 244.361501 
L 389.759576 245.7349 
L 390.252074 246.112318 
L 390.744572 246.168252 
L 392.468314 246.187511 
L 394.930803 246.203901 
L 395.177052 67.035288 
L 395.423301 156.608733 
L 395.66955 201.423061 
L 395.915799 223.806021 
L 396.162048 234.99627 
L 396.408297 240.577196 
L 396.654545 243.407299 
L 396.900794 244.814232 
L 397.147043 245.5165 
L 397.639541 246.031374 
L 398.378288 246.183272 
L 401.333274 246.215063 
L 403.549515 246.218463 
L 403.795763 246.043388 
L 404.288261 246.21401 
L 404.780759 246.194431 
L 407.243248 246.23742 
L 412.414475 246.224466 
L 412.660724 245.200681 
L 413.153222 245.955269 
L 413.645719 246.156622 
L 414.630715 246.193492 
L 419.309444 246.234596 
L 419.555693 237.278449 
L 419.801942 241.750425 
L 420.048191 243.990639 
L 420.29444 245.106521 
L 421.279435 246.159526 
L 422.264431 246.226788 
L 426.696911 246.236534 
L 428.666902 246.233137 
L 454.769285 246.23415 
L 455.754281 246.225864 
L 456.985525 246.23015 
L 457.231774 246.149185 
L 458.21677 246.211841 
L 460.186761 246.232954 
L 460.679259 246.200738 
L 469.544219 246.235259 
L 470.036717 246.210433 
L 474.469197 246.217402 
L 474.715446 246.130405 
L 475.207944 246.224611 
L 477.670432 246.222114 
L 477.916681 246.05142 
L 478.655428 246.225741 
L 483.087908 246.206873 
L 485.796646 246.220946 
L 488.259135 246.219842 
L 488.751633 246.180419 
L 491.70662 246.228331 
L 491.952868 226.687131 
L 492.199117 236.461485 
L 492.445366 241.344907 
L 492.691615 243.788297 
L 492.937864 245.009992 
L 493.430362 246.07214 
L 493.676611 245.884655 
L 493.92286 214.930195 
L 494.169109 230.569491 
L 494.415357 238.400589 
L 494.907855 243.964105 
L 495.154104 245.099972 
L 495.400353 245.665829 
L 495.892851 246.085976 
L 496.385349 246.152398 
L 497.616593 246.213412 
L 498.109091 246.215237 
L 498.109091 246.215237 
" style="fill:none;stroke:#ff7f0e;stroke-linecap:square;stroke-width:1.5;"/>
   </g>
   <g id="patch_3">
    <path d="M 72 256.32 
L 72 34.56 
" style="fill:none;stroke:#000000;stroke-linecap:square;stroke-linejoin:miter;stroke-width:0.8;"/>
   </g>
   <g id="patch_4">
    <path d="M 518.4 256.32 
L 518.4 34.56 
" style="fill:none;stroke:#000000;stroke-linecap:square;stroke-linejoin:miter;stroke-width:0.8;"/>
   </g>
   <g id="patch_5">
    <path d="M 72 256.32 
L 518.4 256.32 
" style="fill:none;stroke:#000000;stroke-linecap:square;stroke-linejoin:miter;stroke-width:0.8;"/>
   </g>
   <g id="patch_6">
    <path d="M 72 34.56 
L 518.4 34.56 
" style="fill:none;stroke:#000000;stroke-linecap:square;stroke-linejoin:miter;stroke-width:0.8;"/>
   </g>
  </g>
 </g>
 <defs>
  <clipPath id="pa53f5add13">
   <rect height="221.76" width="446.4" x="72" y="34.56"/>
  </clipPath>
 </defs>
</svg>
