<?xml version="1.0" encoding="utf-8" standalone="no"?>
<!DOCTYPE svg PUBLIC "-//W3C//DTD SVG 1.1//EN"
  "http://www.w3.org/Graphics/SVG/1.1/DTD/svg11.dtd">
<svg height="720pt" version="1.1" viewBox="0 0 1440 720" width="1440pt" xmlns="http://www.w3.org/2000/svg" xmlns:xlink="http://www.w3.org/1999/xlink">
 <metadata>
  <rdf:RDF xmlns:cc="http://creativecommons.org/ns#" xmlns:dc="http://purl.org/dc/elements/1.1/" xmlns:rdf="http://www.w3.org/1999/02/22-rdf-syntax-ns#">
   <cc:Work>
    <dc:type rdf:resource="http://purl.org/dc/dcmitype/StillImage"/>
    <dc:date>2022-01-06T21:25:06.756381</dc:date>
    <dc:format>image/svg+xml</dc:format>
    <dc:creator>
     <cc:Agent>
      <dc:title>Matplotlib v3.4.3, https://matplotlib.org/</dc:title>
     </cc:Agent>
    </dc:creator>
   </cc:Work>
  </rdf:RDF>
 </metadata>
 <defs>
  <style type="text/css">*{stroke-linecap:butt;stroke-linejoin:round;}</style>
 </defs>
 <g id="figure_1">
  <g id="patch_1">
   <path d="M 0 720 
L 1440 720 
L 1440 0 
L 0 0 
z
" style="fill:#ffffff;"/>
  </g>
  <g id="axes_1">
   <g id="patch_2">
    <path d="M 180 640.8 
L 1296 640.8 
L 1296 86.4 
L 180 86.4 
z
" style="fill:#ffffff;"/>
   </g>
   <g id="matplotlib.axis_1">
    <g id="xtick_1">
     <g id="line2d_1">
      <defs>
       <path d="M 0 0 
L 0 3.5 
" id="m3ffcb7da26" style="stroke:#000000;stroke-width:0.8;"/>
      </defs>
      <g>
       <use style="stroke:#000000;stroke-width:0.8;" x="230.727273" xlink:href="#m3ffcb7da26" y="640.8"/>
      </g>
     </g>
     <g id="text_1">
      <!-- 39000 -->
      <g transform="translate(214.821023 655.398438)scale(0.1 -0.1)">
       <defs>
        <path d="M 2597 2516 
Q 3050 2419 3304 2112 
Q 3559 1806 3559 1356 
Q 3559 666 3084 287 
Q 2609 -91 1734 -91 
Q 1441 -91 1130 -33 
Q 819 25 488 141 
L 488 750 
Q 750 597 1062 519 
Q 1375 441 1716 441 
Q 2309 441 2620 675 
Q 2931 909 2931 1356 
Q 2931 1769 2642 2001 
Q 2353 2234 1838 2234 
L 1294 2234 
L 1294 2753 
L 1863 2753 
Q 2328 2753 2575 2939 
Q 2822 3125 2822 3475 
Q 2822 3834 2567 4026 
Q 2313 4219 1838 4219 
Q 1578 4219 1281 4162 
Q 984 4106 628 3988 
L 628 4550 
Q 988 4650 1302 4700 
Q 1616 4750 1894 4750 
Q 2613 4750 3031 4423 
Q 3450 4097 3450 3541 
Q 3450 3153 3228 2886 
Q 3006 2619 2597 2516 
z
" id="DejaVuSans-33" transform="scale(0.015625)"/>
        <path d="M 703 97 
L 703 672 
Q 941 559 1184 500 
Q 1428 441 1663 441 
Q 2288 441 2617 861 
Q 2947 1281 2994 2138 
Q 2813 1869 2534 1725 
Q 2256 1581 1919 1581 
Q 1219 1581 811 2004 
Q 403 2428 403 3163 
Q 403 3881 828 4315 
Q 1253 4750 1959 4750 
Q 2769 4750 3195 4129 
Q 3622 3509 3622 2328 
Q 3622 1225 3098 567 
Q 2575 -91 1691 -91 
Q 1453 -91 1209 -44 
Q 966 3 703 97 
z
M 1959 2075 
Q 2384 2075 2632 2365 
Q 2881 2656 2881 3163 
Q 2881 3666 2632 3958 
Q 2384 4250 1959 4250 
Q 1534 4250 1286 3958 
Q 1038 3666 1038 3163 
Q 1038 2656 1286 2365 
Q 1534 2075 1959 2075 
z
" id="DejaVuSans-39" transform="scale(0.015625)"/>
        <path d="M 2034 4250 
Q 1547 4250 1301 3770 
Q 1056 3291 1056 2328 
Q 1056 1369 1301 889 
Q 1547 409 2034 409 
Q 2525 409 2770 889 
Q 3016 1369 3016 2328 
Q 3016 3291 2770 3770 
Q 2525 4250 2034 4250 
z
M 2034 4750 
Q 2819 4750 3233 4129 
Q 3647 3509 3647 2328 
Q 3647 1150 3233 529 
Q 2819 -91 2034 -91 
Q 1250 -91 836 529 
Q 422 1150 422 2328 
Q 422 3509 836 4129 
Q 1250 4750 2034 4750 
z
" id="DejaVuSans-30" transform="scale(0.015625)"/>
       </defs>
       <use xlink:href="#DejaVuSans-33"/>
       <use x="63.623047" xlink:href="#DejaVuSans-39"/>
       <use x="127.246094" xlink:href="#DejaVuSans-30"/>
       <use x="190.869141" xlink:href="#DejaVuSans-30"/>
       <use x="254.492188" xlink:href="#DejaVuSans-30"/>
      </g>
     </g>
    </g>
    <g id="xtick_2">
     <g id="line2d_2">
      <g>
       <use style="stroke:#000000;stroke-width:0.8;" x="384.632833" xlink:href="#m3ffcb7da26" y="640.8"/>
      </g>
     </g>
     <g id="text_2">
      <!-- 39250 -->
      <g transform="translate(368.726583 655.398438)scale(0.1 -0.1)">
       <defs>
        <path d="M 1228 531 
L 3431 531 
L 3431 0 
L 469 0 
L 469 531 
Q 828 903 1448 1529 
Q 2069 2156 2228 2338 
Q 2531 2678 2651 2914 
Q 2772 3150 2772 3378 
Q 2772 3750 2511 3984 
Q 2250 4219 1831 4219 
Q 1534 4219 1204 4116 
Q 875 4013 500 3803 
L 500 4441 
Q 881 4594 1212 4672 
Q 1544 4750 1819 4750 
Q 2544 4750 2975 4387 
Q 3406 4025 3406 3419 
Q 3406 3131 3298 2873 
Q 3191 2616 2906 2266 
Q 2828 2175 2409 1742 
Q 1991 1309 1228 531 
z
" id="DejaVuSans-32" transform="scale(0.015625)"/>
        <path d="M 691 4666 
L 3169 4666 
L 3169 4134 
L 1269 4134 
L 1269 2991 
Q 1406 3038 1543 3061 
Q 1681 3084 1819 3084 
Q 2600 3084 3056 2656 
Q 3513 2228 3513 1497 
Q 3513 744 3044 326 
Q 2575 -91 1722 -91 
Q 1428 -91 1123 -41 
Q 819 9 494 109 
L 494 744 
Q 775 591 1075 516 
Q 1375 441 1709 441 
Q 2250 441 2565 725 
Q 2881 1009 2881 1497 
Q 2881 1984 2565 2268 
Q 2250 2553 1709 2553 
Q 1456 2553 1204 2497 
Q 953 2441 691 2322 
L 691 4666 
z
" id="DejaVuSans-35" transform="scale(0.015625)"/>
       </defs>
       <use xlink:href="#DejaVuSans-33"/>
       <use x="63.623047" xlink:href="#DejaVuSans-39"/>
       <use x="127.246094" xlink:href="#DejaVuSans-32"/>
       <use x="190.869141" xlink:href="#DejaVuSans-35"/>
       <use x="254.492188" xlink:href="#DejaVuSans-30"/>
      </g>
     </g>
    </g>
    <g id="xtick_3">
     <g id="line2d_3">
      <g>
       <use style="stroke:#000000;stroke-width:0.8;" x="538.538394" xlink:href="#m3ffcb7da26" y="640.8"/>
      </g>
     </g>
     <g id="text_3">
      <!-- 39500 -->
      <g transform="translate(522.632144 655.398438)scale(0.1 -0.1)">
       <use xlink:href="#DejaVuSans-33"/>
       <use x="63.623047" xlink:href="#DejaVuSans-39"/>
       <use x="127.246094" xlink:href="#DejaVuSans-35"/>
       <use x="190.869141" xlink:href="#DejaVuSans-30"/>
       <use x="254.492188" xlink:href="#DejaVuSans-30"/>
      </g>
     </g>
    </g>
    <g id="xtick_4">
     <g id="line2d_4">
      <g>
       <use style="stroke:#000000;stroke-width:0.8;" x="692.443954" xlink:href="#m3ffcb7da26" y="640.8"/>
      </g>
     </g>
     <g id="text_4">
      <!-- 39750 -->
      <g transform="translate(676.537704 655.398438)scale(0.1 -0.1)">
       <defs>
        <path d="M 525 4666 
L 3525 4666 
L 3525 4397 
L 1831 0 
L 1172 0 
L 2766 4134 
L 525 4134 
L 525 4666 
z
" id="DejaVuSans-37" transform="scale(0.015625)"/>
       </defs>
       <use xlink:href="#DejaVuSans-33"/>
       <use x="63.623047" xlink:href="#DejaVuSans-39"/>
       <use x="127.246094" xlink:href="#DejaVuSans-37"/>
       <use x="190.869141" xlink:href="#DejaVuSans-35"/>
       <use x="254.492188" xlink:href="#DejaVuSans-30"/>
      </g>
     </g>
    </g>
    <g id="xtick_5">
     <g id="line2d_5">
      <g>
       <use style="stroke:#000000;stroke-width:0.8;" x="846.349515" xlink:href="#m3ffcb7da26" y="640.8"/>
      </g>
     </g>
     <g id="text_5">
      <!-- 40000 -->
      <g transform="translate(830.443265 655.398438)scale(0.1 -0.1)">
       <defs>
        <path d="M 2419 4116 
L 825 1625 
L 2419 1625 
L 2419 4116 
z
M 2253 4666 
L 3047 4666 
L 3047 1625 
L 3713 1625 
L 3713 1100 
L 3047 1100 
L 3047 0 
L 2419 0 
L 2419 1100 
L 313 1100 
L 313 1709 
L 2253 4666 
z
" id="DejaVuSans-34" transform="scale(0.015625)"/>
       </defs>
       <use xlink:href="#DejaVuSans-34"/>
       <use x="63.623047" xlink:href="#DejaVuSans-30"/>
       <use x="127.246094" xlink:href="#DejaVuSans-30"/>
       <use x="190.869141" xlink:href="#DejaVuSans-30"/>
       <use x="254.492188" xlink:href="#DejaVuSans-30"/>
      </g>
     </g>
    </g>
    <g id="xtick_6">
     <g id="line2d_6">
      <g>
       <use style="stroke:#000000;stroke-width:0.8;" x="1000.255075" xlink:href="#m3ffcb7da26" y="640.8"/>
      </g>
     </g>
     <g id="text_6">
      <!-- 40250 -->
      <g transform="translate(984.348825 655.398438)scale(0.1 -0.1)">
       <use xlink:href="#DejaVuSans-34"/>
       <use x="63.623047" xlink:href="#DejaVuSans-30"/>
       <use x="127.246094" xlink:href="#DejaVuSans-32"/>
       <use x="190.869141" xlink:href="#DejaVuSans-35"/>
       <use x="254.492188" xlink:href="#DejaVuSans-30"/>
      </g>
     </g>
    </g>
    <g id="xtick_7">
     <g id="line2d_7">
      <g>
       <use style="stroke:#000000;stroke-width:0.8;" x="1154.160635" xlink:href="#m3ffcb7da26" y="640.8"/>
      </g>
     </g>
     <g id="text_7">
      <!-- 40500 -->
      <g transform="translate(1138.254385 655.398438)scale(0.1 -0.1)">
       <use xlink:href="#DejaVuSans-34"/>
       <use x="63.623047" xlink:href="#DejaVuSans-30"/>
       <use x="127.246094" xlink:href="#DejaVuSans-35"/>
       <use x="190.869141" xlink:href="#DejaVuSans-30"/>
       <use x="254.492188" xlink:href="#DejaVuSans-30"/>
      </g>
     </g>
    </g>
   </g>
   <g id="matplotlib.axis_2">
    <g id="ytick_1">
     <g id="line2d_8">
      <defs>
       <path d="M 0 0 
L -3.5 0 
" id="m50f41e4443" style="stroke:#000000;stroke-width:0.8;"/>
      </defs>
      <g>
       <use style="stroke:#000000;stroke-width:0.8;" x="180" xlink:href="#m50f41e4443" y="615.600448"/>
      </g>
     </g>
     <g id="text_8">
      <!-- 0 -->
      <g transform="translate(166.6375 619.399667)scale(0.1 -0.1)">
       <use xlink:href="#DejaVuSans-30"/>
      </g>
     </g>
    </g>
    <g id="ytick_2">
     <g id="line2d_9">
      <g>
       <use style="stroke:#000000;stroke-width:0.8;" x="180" xlink:href="#m50f41e4443" y="544.940824"/>
      </g>
     </g>
     <g id="text_9">
      <!-- 50 -->
      <g transform="translate(160.275 548.740043)scale(0.1 -0.1)">
       <use xlink:href="#DejaVuSans-35"/>
       <use x="63.623047" xlink:href="#DejaVuSans-30"/>
      </g>
     </g>
    </g>
    <g id="ytick_3">
     <g id="line2d_10">
      <g>
       <use style="stroke:#000000;stroke-width:0.8;" x="180" xlink:href="#m50f41e4443" y="474.281201"/>
      </g>
     </g>
     <g id="text_10">
      <!-- 100 -->
      <g transform="translate(153.9125 478.080419)scale(0.1 -0.1)">
       <defs>
        <path d="M 794 531 
L 1825 531 
L 1825 4091 
L 703 3866 
L 703 4441 
L 1819 4666 
L 2450 4666 
L 2450 531 
L 3481 531 
L 3481 0 
L 794 0 
L 794 531 
z
" id="DejaVuSans-31" transform="scale(0.015625)"/>
       </defs>
       <use xlink:href="#DejaVuSans-31"/>
       <use x="63.623047" xlink:href="#DejaVuSans-30"/>
       <use x="127.246094" xlink:href="#DejaVuSans-30"/>
      </g>
     </g>
    </g>
    <g id="ytick_4">
     <g id="line2d_11">
      <g>
       <use style="stroke:#000000;stroke-width:0.8;" x="180" xlink:href="#m50f41e4443" y="403.621577"/>
      </g>
     </g>
     <g id="text_11">
      <!-- 150 -->
      <g transform="translate(153.9125 407.420796)scale(0.1 -0.1)">
       <use xlink:href="#DejaVuSans-31"/>
       <use x="63.623047" xlink:href="#DejaVuSans-35"/>
       <use x="127.246094" xlink:href="#DejaVuSans-30"/>
      </g>
     </g>
    </g>
    <g id="ytick_5">
     <g id="line2d_12">
      <g>
       <use style="stroke:#000000;stroke-width:0.8;" x="180" xlink:href="#m50f41e4443" y="332.961953"/>
      </g>
     </g>
     <g id="text_12">
      <!-- 200 -->
      <g transform="translate(153.9125 336.761172)scale(0.1 -0.1)">
       <use xlink:href="#DejaVuSans-32"/>
       <use x="63.623047" xlink:href="#DejaVuSans-30"/>
       <use x="127.246094" xlink:href="#DejaVuSans-30"/>
      </g>
     </g>
    </g>
    <g id="ytick_6">
     <g id="line2d_13">
      <g>
       <use style="stroke:#000000;stroke-width:0.8;" x="180" xlink:href="#m50f41e4443" y="262.302329"/>
      </g>
     </g>
     <g id="text_13">
      <!-- 250 -->
      <g transform="translate(153.9125 266.101548)scale(0.1 -0.1)">
       <use xlink:href="#DejaVuSans-32"/>
       <use x="63.623047" xlink:href="#DejaVuSans-35"/>
       <use x="127.246094" xlink:href="#DejaVuSans-30"/>
      </g>
     </g>
    </g>
    <g id="ytick_7">
     <g id="line2d_14">
      <g>
       <use style="stroke:#000000;stroke-width:0.8;" x="180" xlink:href="#m50f41e4443" y="191.642706"/>
      </g>
     </g>
     <g id="text_14">
      <!-- 300 -->
      <g transform="translate(153.9125 195.441924)scale(0.1 -0.1)">
       <use xlink:href="#DejaVuSans-33"/>
       <use x="63.623047" xlink:href="#DejaVuSans-30"/>
       <use x="127.246094" xlink:href="#DejaVuSans-30"/>
      </g>
     </g>
    </g>
    <g id="ytick_8">
     <g id="line2d_15">
      <g>
       <use style="stroke:#000000;stroke-width:0.8;" x="180" xlink:href="#m50f41e4443" y="120.983082"/>
      </g>
     </g>
     <g id="text_15">
      <!-- 350 -->
      <g transform="translate(153.9125 124.782301)scale(0.1 -0.1)">
       <use xlink:href="#DejaVuSans-33"/>
       <use x="63.623047" xlink:href="#DejaVuSans-35"/>
       <use x="127.246094" xlink:href="#DejaVuSans-30"/>
      </g>
     </g>
    </g>
   </g>
   <g id="line2d_16">
    <path clip-path="url(#pbf3f3d3a40)" d="M 230.727273 615.581505 
L 457.89188 615.568541 
L 458.507502 615.422677 
L 459.123124 615.419467 
L 458.507502 615.593035 
L 477.591792 615.59395 
L 488.672992 615.466722 
L 491.751103 615.448035 
L 492.366726 615.464758 
L 492.982348 615.6 
L 495.444837 615.52861 
L 494.213592 615.52313 
L 496.676081 615.52313 
L 537.922771 615.565446 
L 538.538394 615.353975 
L 540.38526 615.300491 
L 541.000883 615.551691 
L 542.847749 615.593949 
L 544.078994 615.593949 
L 550.235216 615.55733 
L 549.619594 615.478403 
L 553.92895 615.532089 
L 555.160194 615.6 
L 630.266108 615.575659 
L 630.88173 615.249861 
L 632.112974 615.249861 
L 632.728597 615.508473 
L 634.575463 615.6 
L 694.906443 615.506657 
L 696.75331 615.503869 
L 715.837599 615.560827 
L 716.453222 615.314139 
L 718.300088 615.314139 
L 718.915711 615.574003 
L 723.840688 615.586124 
L 724.456311 615.452626 
L 725.071933 615.580738 
L 736.153133 615.592845 
L 737.384378 615.399774 
L 739.231244 615.448028 
L 739.846867 615.590066 
L 782.324801 615.6 
L 782.940424 615.330338 
L 786.018535 615.403865 
L 787.249779 615.310776 
L 789.096646 615.310776 
L 789.712268 615.475788 
L 790.327891 615.475788 
L 790.943513 615.259517 
L 791.559135 615.475788 
L 790.327891 615.475788 
L 794.021624 615.549074 
L 795.252868 615.6 
L 796.484113 615.549074 
L 798.33098 615.6 
L 812.490291 615.6 
L 813.105914 615.482548 
L 812.490291 615.482548 
L 813.721536 615.482548 
L 814.337158 615.6 
L 824.802736 615.507895 
L 823.571492 615.507895 
L 824.802736 615.471561 
L 825.418358 615.6 
L 832.805825 615.56566 
L 834.03707 615.474329 
L 835.883936 615.474939 
L 836.499559 615.6 
L 843.887026 615.6 
L 844.502648 615.282291 
L 845.11827 615.282291 
L 845.733892 615.475523 
L 846.965137 615.484379 
L 847.580759 615.6 
L 991.020741 615.6 
L 991.636364 615.477539 
L 992.251986 615.6 
L 994.098853 615.502963 
L 1245.272727 615.6 
L 1245.272727 615.6 
" style="fill:none;stroke:#1f77b4;stroke-linecap:square;stroke-width:1.5;"/>
   </g>
   <g id="line2d_17">
    <path clip-path="url(#pbf3f3d3a40)" d="M 230.727273 615.577585 
L 236.267873 615.54069 
L 241.808473 615.536892 
L 245.502207 615.576147 
L 251.658429 615.597219 
L 252.889673 615.550198 
L 254.73654 615.565053 
L 255.352162 614.503451 
L 255.967785 615.03902 
L 256.583407 615.297942 
L 257.199029 614.970712 
L 258.430274 615.421856 
L 259.045896 615.371577 
L 260.27714 615.533637 
L 262.739629 615.560681 
L 263.355252 615.446921 
L 266.433363 615.569899 
L 269.511474 615.542414 
L 272.589585 615.574432 
L 273.205207 615.263392 
L 273.82083 615.486092 
L 276.283319 615.516678 
L 285.517652 615.587418 
L 286.133274 615.229833 
L 287.364519 615.550392 
L 289.211386 615.548965 
L 291.673875 615.559455 
L 293.520741 615.552364 
L 299.676964 615.556328 
L 301.523831 615.558875 
L 304.601942 615.567123 
L 306.448808 615.572323 
L 308.911297 615.550592 
L 310.758164 615.519591 
L 323.070609 615.553025 
L 323.686231 613.668806 
L 324.301853 614.629813 
L 324.917476 615.112256 
L 325.533098 615.353477 
L 326.764342 615.518171 
L 329.226831 615.579964 
L 331.073698 615.539332 
L 363.701677 615.583691 
L 364.317299 615.591372 
L 364.932921 167.613896 
L 365.548544 391.59691 
L 366.164166 497.913628 
L 366.779788 556.727331 
L 367.39541 586.123571 
L 368.011033 600.831397 
L 368.626655 608.17148 
L 369.242277 611.884965 
L 369.857899 613.711811 
L 370.473522 614.652881 
L 371.089144 615.12644 
L 372.320388 615.475522 
L 380.9391 615.58743 
L 388.942189 615.577163 
L 389.557811 615.437013 
L 391.404678 615.567737 
L 396.945278 615.536325 
L 398.792145 615.497182 
L 401.870256 615.442823 
L 402.485878 615.256331 
L 403.1015 615.426728 
L 403.717123 615.334395 
L 404.948367 615.523538 
L 407.410856 615.51772 
L 408.026478 111.6 
L 408.642101 363.559906 
L 410.488967 552.540327 
L 411.10459 584.030069 
L 411.720212 599.781059 
L 412.335834 607.632949 
L 412.951456 611.57638 
L 413.567079 613.576594 
L 414.182701 614.369399 
L 414.798323 614.86578 
L 415.413945 615.192795 
L 416.64519 615.493916 
L 417.260812 615.568857 
L 417.876434 615.286396 
L 418.492056 615.440547 
L 419.107679 614.791627 
L 421.570168 615.428788 
L 423.417034 615.529688 
L 424.032657 615.124777 
L 425.263901 615.458496 
L 426.495146 615.521073 
L 428.342012 615.529687 
L 433.882613 615.553709 
L 436.345102 615.476017 
L 438.191968 615.576792 
L 440.038835 615.52256 
L 446.195057 615.537361 
L 446.81068 615.391134 
L 447.426302 615.492303 
L 449.273169 615.487572 
L 449.888791 615.540538 
L 450.504413 615.309533 
L 451.735658 615.517051 
L 453.582524 615.524077 
L 456.045013 615.566234 
L 457.276258 615.48675 
L 458.507502 615.504448 
L 459.123124 615.413076 
L 458.507502 615.394591 
L 460.969991 615.522575 
L 461.585613 615.409804 
L 459.123124 615.496202 
L 472.666814 615.544371 
L 473.282436 615.465263 
L 475.744925 615.56736 
L 481.285525 615.533078 
L 482.51677 615.518854 
L 483.132392 615.323637 
L 484.363636 615.417575 
L 485.594881 615.460669 
L 486.210503 614.975413 
L 487.441748 615.364177 
L 488.672992 615.435724 
L 489.904237 615.455338 
L 490.519859 614.344229 
L 491.135481 614.941726 
L 491.751103 615.210609 
L 493.59797 615.4715 
L 495.444837 615.504932 
L 494.213592 614.785 
L 497.907326 615.445387 
L 499.754192 615.493495 
L 500.369815 615.295934 
L 502.216681 615.514105 
L 504.67917 615.527614 
L 507.757282 615.516054 
L 507.141659 615.493793 
L 508.372904 615.36935 
L 510.835393 615.565687 
L 511.451015 615.405297 
L 512.066637 615.442171 
L 512.682259 599.393957 
L 513.297882 607.452778 
L 513.913504 611.499494 
L 514.529126 613.540704 
L 515.760371 614.530257 
L 514.529126 615.056085 
L 519.454104 615.549042 
L 520.069726 615.288555 
L 521.300971 615.45665 
L 524.994704 615.57302 
L 528.072816 615.52654 
L 530.535305 615.567552 
L 546.541483 615.558552 
L 547.157105 615.29138 
L 548.38835 615.499124 
L 550.235216 615.383179 
L 549.619594 615.460703 
L 552.697705 615.520512 
L 553.313327 615.537166 
L 553.92895 615.394721 
L 554.544572 615.459319 
L 556.391439 615.491322 
L 560.085172 615.58824 
L 563.163283 615.556267 
L 566.857017 615.558438 
L 569.319506 615.577623 
L 569.935128 412.341295 
L 570.55075 513.91017 
L 571.166372 564.714991 
L 571.781995 590.154845 
L 572.397617 602.863332 
L 573.013239 609.171188 
L 573.628861 612.3455 
L 574.244484 613.811597 
L 574.860106 614.692516 
L 576.09135 615.206168 
L 578.553839 615.544388 
L 581.631951 615.562183 
L 582.863195 615.44885 
L 583.478817 615.521161 
L 586.556929 615.515569 
L 587.172551 615.257131 
L 588.403795 615.468153 
L 590.250662 615.536319 
L 591.481906 615.490516 
L 593.328773 615.531088 
L 593.944395 615.435862 
L 593.328773 615.477836 
L 598.253751 615.563586 
L 598.869373 615.446866 
L 600.100618 615.557434 
L 601.331862 615.54837 
L 606.25684 615.543717 
L 616.722418 615.558151 
L 617.338041 615.170669 
L 617.953663 615.34524 
L 618.569285 615.323716 
L 620.416152 615.53213 
L 621.647396 615.536477 
L 624.109885 615.461053 
L 627.187996 615.549589 
L 635.191086 615.442379 
L 635.806708 615.191368 
L 637.037952 615.442554 
L 638.269197 615.531654 
L 645.041041 615.533723 
L 648.734775 615.553062 
L 649.350397 615.4041 
L 650.581642 615.488916 
L 651.812886 615.495624 
L 652.428508 615.325823 
L 653.044131 615.459647 
L 653.659753 615.291124 
L 654.890997 615.515463 
L 659.815975 615.556327 
L 660.431598 615.272891 
L 661.04722 615.416975 
L 661.662842 615.383938 
L 663.509709 615.557733 
L 665.356575 615.537871 
L 667.819064 615.550717 
L 668.434687 611.226242 
L 669.050309 614.272776 
L 669.665931 614.876134 
L 670.281553 615.207679 
L 670.897176 615.363745 
L 672.744042 615.445937 
L 674.590909 615.559902 
L 678.900265 615.565714 
L 679.515887 614.56494 
L 680.131509 615.021992 
L 680.747132 615.297147 
L 681.978376 615.487097 
L 682.593998 615.428213 
L 683.825243 615.453975 
L 685.056487 615.520704 
L 686.287732 615.406224 
L 688.134598 615.556336 
L 688.750221 615.461527 
L 689.981465 615.509894 
L 690.597087 615.269225 
L 691.828332 615.480109 
L 693.675199 615.50152 
L 694.290821 615.413554 
L 697.984554 615.577139 
L 701.678288 615.456947 
L 702.29391 615.488379 
L 702.909532 615.353811 
L 702.29391 391.486123 
L 704.140777 559.481038 
L 704.756399 587.490879 
L 705.372021 601.505345 
L 705.987643 608.452 
L 705.372021 611.985905 
L 707.218888 614.583039 
L 707.83451 615.031266 
L 708.450132 615.285191 
L 709.681377 615.470809 
L 710.296999 615.49531 
L 710.912621 614.503632 
L 712.143866 615.024336 
L 712.759488 614.645752 
L 713.37511 615.1039 
L 713.990733 613.957456 
L 714.606355 614.718251 
L 715.221977 615.119031 
L 715.837599 615.299038 
L 716.453222 614.783103 
L 717.068844 615.151457 
L 718.915711 615.335634 
L 719.531333 615.024787 
L 720.762577 615.398852 
L 721.378199 615.410765 
L 721.993822 615.132288 
L 723.225066 615.471371 
L 725.071933 615.483357 
L 725.687555 614.436684 
L 726.9188 614.789553 
L 727.534422 615.169673 
L 728.150044 615.344742 
L 729.996911 615.463827 
L 733.075022 615.415994 
L 733.690644 615.467902 
L 734.306267 615.016359 
L 734.921889 614.967646 
L 735.537511 615.382531 
L 736.153133 615.451171 
L 736.768756 615.354737 
L 738 615.478543 
L 739.231244 615.255342 
L 740.462489 615.433311 
L 741.693733 615.477803 
L 742.309356 610.669756 
L 741.693733 613.094783 
L 743.5406 614.883843 
L 744.771845 615.130257 
L 745.387467 615.153374 
L 746.618711 615.426574 
L 747.234334 615.078295 
L 749.696823 615.25989 
L 750.312445 615.388223 
L 750.928067 615.051081 
L 751.543689 615.283835 
L 749.696823 615.38144 
L 752.159312 615.450625 
L 752.774934 615.286613 
L 755.237423 615.233238 
L 755.853045 615.413355 
L 757.699912 615.480129 
L 762.62489 615.471096 
L 763.240512 614.927136 
L 763.856134 614.807599 
L 765.087379 615.315765 
L 765.703001 615.443238 
L 766.934245 615.356781 
L 767.549868 615.438296 
L 768.16549 615.340179 
L 769.396734 615.492624 
L 770.012357 615.151541 
L 770.627979 615.052342 
L 772.474846 615.440744 
L 773.70609 615.453716 
L 774.321712 615.143097 
L 774.937335 615.118389 
L 775.552957 615.238734 
L 776.168579 615.187476 
L 776.784201 614.958746 
L 778.015446 615.364982 
L 778.631068 615.080096 
L 779.862312 615.371175 
L 781.093557 615.409892 
L 781.709179 613.14737 
L 782.324801 614.256179 
L 783.556046 613.777144 
L 784.171668 614.724765 
L 784.78729 615.122288 
L 786.634157 615.310639 
L 787.249779 615.415225 
L 787.865402 615.285034 
L 788.481024 615.007525 
L 789.096646 615.303487 
L 789.712268 615.411649 
L 790.327891 615.261872 
L 791.559135 615.481965 
L 790.327891 615.499277 
L 794.021624 615.543335 
L 794.637246 615.136676 
L 795.252868 615.30786 
L 795.868491 615.222382 
L 797.099735 615.449561 
L 797.715357 615.080578 
L 799.562224 615.447285 
L 800.177846 615.153129 
L 801.409091 615.454779 
L 802.640335 615.481107 
L 803.255958 615.41494 
L 804.487202 615.530424 
L 805.102824 615.269933 
L 805.718447 615.193125 
L 806.949691 615.477783 
L 808.796558 615.509462 
L 809.41218 615.119739 
L 810.027802 615.356606 
L 810.643425 615.417825 
L 811.259047 615.267071 
L 811.874669 615.373058 
L 812.490291 615.30756 
L 813.105914 615.393303 
L 813.721536 615.355823 
L 815.568402 615.554566 
L 816.184025 615.382166 
L 815.568402 615.295966 
L 816.799647 615.251953 
L 818.030891 615.489677 
L 819.262136 615.37399 
L 818.030891 615.483731 
L 819.877758 540.281538 
L 820.49338 577.890324 
L 821.109003 596.656501 
L 821.724625 610.843303 
L 822.340247 613.218388 
L 822.955869 614.363927 
L 823.571492 614.834176 
L 824.187114 615.156834 
L 824.802736 615.308955 
L 823.571492 615.394 
L 827.265225 615.48654 
L 828.49647 615.319832 
L 829.112092 615.456652 
L 829.727714 615.359373 
L 830.343336 615.439592 
L 830.958959 615.373812 
L 832.190203 615.470666 
L 832.805825 615.1187 
L 834.03707 615.491941 
L 835.883936 615.55559 
L 841.424537 615.517532 
L 842.655781 615.504969 
L 843.887026 615.318236 
L 845.11827 615.42896 
L 845.733892 615.374283 
L 846.349515 615.486635 
L 849.427626 615.558279 
L 850.65887 615.593906 
L 851.274492 615.426104 
L 853.736981 615.491901 
L 854.352604 615.386181 
L 858.661959 615.5473 
L 859.893204 615.294885 
L 861.124448 615.46358 
L 861.740071 615.398474 
L 862.355693 615.498954 
L 862.355693 615.539501 
L 863.586937 615.566486 
L 866.665049 615.541675 
L 868.511915 615.540651 
L 869.74316 615.590576 
L 870.358782 615.460577 
L 872.205649 615.562152 
L 876.515004 615.595827 
L 880.208738 615.519337 
L 879.593116 615.556405 
L 883.902471 615.499222 
L 884.518094 615.573095 
L 885.749338 615.390716 
L 886.36496 615.248533 
L 885.133716 615.421003 
L 890.058694 615.528944 
L 891.90556 615.49557 
L 893.136805 615.503559 
L 893.752427 615.003007 
L 894.368049 615.29824 
L 897.446161 615.492168 
L 895.599294 615.367115 
L 899.293027 615.241131 
L 899.90865 615.417301 
L 907.911739 615.58864 
L 909.142983 615.385799 
L 909.758605 615.337012 
L 911.605472 615.454307 
L 912.221094 615.165039 
L 912.836717 615.079844 
L 914.067961 615.409819 
L 914.683583 615.343543 
L 915.914828 615.502383 
L 917.146072 614.884776 
L 917.761695 615.202293 
L 918.992939 615.317964 
L 919.608561 615.458707 
L 922.686673 615.515541 
L 923.302295 615.380224 
L 923.917917 615.469176 
L 924.533539 615.265094 
L 925.764784 615.465838 
L 926.380406 615.511961 
L 926.996028 615.377011 
L 928.227273 615.512233 
L 933.767873 615.51421 
L 934.999117 615.438996 
L 936.230362 615.499018 
L 936.845984 615.546859 
L 937.461606 615.448357 
L 938.077229 615.081149 
L 938.692851 615.340226 
L 939.308473 615.449034 
L 939.924095 615.189329 
L 941.15534 615.547745 
L 943.002207 615.573006 
L 943.617829 615.414072 
L 944.849073 615.492898 
L 949.158429 615.503376 
L 950.389673 615.428025 
L 951.005296 615.510749 
L 949.158429 615.341048 
L 951.620918 615.430429 
L 952.852162 615.30346 
L 954.083407 615.489607 
L 955.314651 615.4924 
L 957.161518 615.567898 
L 959.624007 615.483842 
L 960.239629 615.106929 
L 960.855252 615.352958 
L 963.933363 615.510528 
L 964.548985 615.139499 
L 965.780229 615.481437 
L 966.395852 615.147516 
L 967.011474 615.426737 
L 967.627096 615.513013 
L 969.473963 615.434267 
L 970.089585 615.514483 
L 970.705207 545.84447 
L 971.32083 580.699533 
L 971.936452 598.14926 
L 972.552074 606.208214 
L 973.167696 610.903751 
L 973.783319 613.081027 
L 974.398941 614.33725 
L 975.014563 614.968118 
L 975.630185 615.280795 
L 976.245808 615.440031 
L 979.323919 615.426801 
L 982.40203 615.5196 
L 984.248897 615.43491 
L 986.095763 615.486369 
L 987.327008 615.509751 
L 987.94263 167.588219 
L 988.558252 391.521831 
L 989.173875 503.557652 
L 989.789497 559.515052 
L 990.405119 587.490674 
L 991.020741 601.442991 
L 991.636364 608.518248 
L 992.251986 612.03558 
L 992.867608 613.79125 
L 993.48323 614.637059 
L 994.098853 615.078435 
L 995.330097 615.399802 
L 997.792586 615.548127 
L 999.023831 615.549622 
L 1008.873786 615.546157 
L 1009.489409 615.10847 
L 1010.105031 615.47658 
L 1010.720653 615.535026 
L 1011.336275 615.379807 
L 1011.951898 615.486077 
L 1013.798764 615.523615 
L 1016.876876 615.591328 
L 1021.186231 615.580838 
L 1021.801853 615.36561 
L 1024.264342 615.583695 
L 1031.036187 615.561164 
L 1031.651809 613.001702 
L 1032.267432 614.182874 
L 1032.883054 614.888173 
L 1033.498676 615.227849 
L 1034.729921 615.476979 
L 1039.039276 615.525903 
L 1048.27361 615.58649 
L 1048.889232 593.196122 
L 1049.504854 604.376064 
L 1050.120477 609.976598 
L 1050.736099 612.766302 
L 1052.582966 614.859058 
L 1053.198588 615.398815 
L 1054.429832 615.5492 
L 1056.892321 615.583351 
L 1064.279788 615.593902 
L 1067.357899 615.555573 
L 1071.667255 615.582843 
L 1097.523389 615.563462 
L 1103.679612 615.550048 
L 1106.142101 615.540163 
L 1133.229479 615.585643 
L 1135.076346 615.573441 
L 1140.001324 615.581941 
L 1140.616946 615.489381 
L 1142.463813 615.575375 
L 1143.079435 615.372963 
L 1144.31068 615.533292 
L 1145.541924 615.529604 
L 1149.235658 615.584765 
L 1150.466902 615.582386 
L 1151.082524 615.41022 
L 1152.313769 615.510829 
L 1154.160635 615.536465 
L 1156.007502 615.537154 
L 1162.779347 615.516049 
L 1163.394969 615.554761 
L 1164.010591 615.437024 
L 1173.860547 615.588147 
L 1174.476169 615.458695 
L 1176.323036 615.558565 
L 1178.169903 615.533834 
L 1181.863636 615.597446 
L 1186.172992 615.543506 
L 1186.788614 615.326013 
L 1187.404237 615.529582 
L 1189.866726 615.554809 
L 1191.09797 615.511686 
L 1193.560459 615.590758 
L 1194.176081 615.555285 
L 1194.791703 615.128551 
L 1195.407326 615.363992 
L 1196.63857 615.564352 
L 1199.101059 615.524386 
L 1199.716681 615.473532 
L 1200.947926 615.529594 
L 1201.563548 615.431693 
L 1204.026037 615.528696 
L 1205.872904 615.506883 
L 1207.104148 615.528049 
L 1213.875993 615.511259 
L 1215.72286 615.54785 
L 1218.185349 615.540992 
L 1220.647838 615.549606 
L 1221.26346 615.382282 
L 1223.110327 615.481367 
L 1224.957193 615.537231 
L 1227.419682 615.547033 
L 1229.266549 615.570827 
L 1229.882171 566.717828 
L 1230.497793 591.153712 
L 1231.113416 603.362269 
L 1231.729038 609.470743 
L 1232.34466 612.52498 
L 1232.960282 614.022395 
L 1233.575905 615.18035 
L 1234.191527 614.711638 
L 1234.807149 537.325488 
L 1235.422771 576.423726 
L 1236.038394 596.001472 
L 1236.654016 604.230929 
L 1237.269638 609.910263 
L 1237.88526 612.74993 
L 1238.500883 614.164573 
L 1239.116505 614.871895 
L 1239.732127 615.21494 
L 1240.347749 615.397078 
L 1241.578994 615.458874 
L 1245.272727 615.538092 
L 1245.272727 615.538092 
" style="fill:none;stroke:#ff7f0e;stroke-linecap:square;stroke-width:1.5;"/>
   </g>
   <g id="patch_3">
    <path d="M 180 640.8 
L 180 86.4 
" style="fill:none;stroke:#000000;stroke-linecap:square;stroke-linejoin:miter;stroke-width:0.8;"/>
   </g>
   <g id="patch_4">
    <path d="M 1296 640.8 
L 1296 86.4 
" style="fill:none;stroke:#000000;stroke-linecap:square;stroke-linejoin:miter;stroke-width:0.8;"/>
   </g>
   <g id="patch_5">
    <path d="M 180 640.8 
L 1296 640.8 
" style="fill:none;stroke:#000000;stroke-linecap:square;stroke-linejoin:miter;stroke-width:0.8;"/>
   </g>
   <g id="patch_6">
    <path d="M 180 86.4 
L 1296 86.4 
" style="fill:none;stroke:#000000;stroke-linecap:square;stroke-linejoin:miter;stroke-width:0.8;"/>
   </g>
  </g>
 </g>
 <defs>
  <clipPath id="pbf3f3d3a40">
   <rect height="554.4" width="1116" x="180" y="86.4"/>
  </clipPath>
 </defs>
</svg>
