<?xml version="1.0" encoding="utf-8" standalone="no"?>
<!DOCTYPE svg PUBLIC "-//W3C//DTD SVG 1.1//EN"
  "http://www.w3.org/Graphics/SVG/1.1/DTD/svg11.dtd">
<svg height="720pt" version="1.1" viewBox="0 0 1440 720" width="1440pt" xmlns="http://www.w3.org/2000/svg" xmlns:xlink="http://www.w3.org/1999/xlink">
 <metadata>
  <rdf:RDF xmlns:cc="http://creativecommons.org/ns#" xmlns:dc="http://purl.org/dc/elements/1.1/" xmlns:rdf="http://www.w3.org/1999/02/22-rdf-syntax-ns#">
   <cc:Work>
    <dc:type rdf:resource="http://purl.org/dc/dcmitype/StillImage"/>
    <dc:date>2022-01-06T21:34:56.154414</dc:date>
    <dc:format>image/svg+xml</dc:format>
    <dc:creator>
     <cc:Agent>
      <dc:title>Matplotlib v3.4.3, https://matplotlib.org/</dc:title>
     </cc:Agent>
    </dc:creator>
   </cc:Work>
  </rdf:RDF>
 </metadata>
 <defs>
  <style type="text/css">*{stroke-linecap:butt;stroke-linejoin:round;}</style>
 </defs>
 <g id="figure_1">
  <g id="patch_1">
   <path d="M 0 720 
L 1440 720 
L 1440 0 
L 0 0 
z
" style="fill:#ffffff;"/>
  </g>
  <g id="axes_1">
   <g id="patch_2">
    <path d="M 180 640.8 
L 1296 640.8 
L 1296 86.4 
L 180 86.4 
z
" style="fill:#ffffff;"/>
   </g>
   <g id="matplotlib.axis_1">
    <g id="xtick_1">
     <g id="line2d_1">
      <defs>
       <path d="M 0 0 
L 0 3.5 
" id="m809515bd9c" style="stroke:#000000;stroke-width:0.8;"/>
      </defs>
      <g>
       <use style="stroke:#000000;stroke-width:0.8;" x="230.727273" xlink:href="#m809515bd9c" y="640.8"/>
      </g>
     </g>
     <g id="text_1">
      <!-- 39000 -->
      <g transform="translate(214.821023 655.398438)scale(0.1 -0.1)">
       <defs>
        <path d="M 2597 2516 
Q 3050 2419 3304 2112 
Q 3559 1806 3559 1356 
Q 3559 666 3084 287 
Q 2609 -91 1734 -91 
Q 1441 -91 1130 -33 
Q 819 25 488 141 
L 488 750 
Q 750 597 1062 519 
Q 1375 441 1716 441 
Q 2309 441 2620 675 
Q 2931 909 2931 1356 
Q 2931 1769 2642 2001 
Q 2353 2234 1838 2234 
L 1294 2234 
L 1294 2753 
L 1863 2753 
Q 2328 2753 2575 2939 
Q 2822 3125 2822 3475 
Q 2822 3834 2567 4026 
Q 2313 4219 1838 4219 
Q 1578 4219 1281 4162 
Q 984 4106 628 3988 
L 628 4550 
Q 988 4650 1302 4700 
Q 1616 4750 1894 4750 
Q 2613 4750 3031 4423 
Q 3450 4097 3450 3541 
Q 3450 3153 3228 2886 
Q 3006 2619 2597 2516 
z
" id="DejaVuSans-33" transform="scale(0.015625)"/>
        <path d="M 703 97 
L 703 672 
Q 941 559 1184 500 
Q 1428 441 1663 441 
Q 2288 441 2617 861 
Q 2947 1281 2994 2138 
Q 2813 1869 2534 1725 
Q 2256 1581 1919 1581 
Q 1219 1581 811 2004 
Q 403 2428 403 3163 
Q 403 3881 828 4315 
Q 1253 4750 1959 4750 
Q 2769 4750 3195 4129 
Q 3622 3509 3622 2328 
Q 3622 1225 3098 567 
Q 2575 -91 1691 -91 
Q 1453 -91 1209 -44 
Q 966 3 703 97 
z
M 1959 2075 
Q 2384 2075 2632 2365 
Q 2881 2656 2881 3163 
Q 2881 3666 2632 3958 
Q 2384 4250 1959 4250 
Q 1534 4250 1286 3958 
Q 1038 3666 1038 3163 
Q 1038 2656 1286 2365 
Q 1534 2075 1959 2075 
z
" id="DejaVuSans-39" transform="scale(0.015625)"/>
        <path d="M 2034 4250 
Q 1547 4250 1301 3770 
Q 1056 3291 1056 2328 
Q 1056 1369 1301 889 
Q 1547 409 2034 409 
Q 2525 409 2770 889 
Q 3016 1369 3016 2328 
Q 3016 3291 2770 3770 
Q 2525 4250 2034 4250 
z
M 2034 4750 
Q 2819 4750 3233 4129 
Q 3647 3509 3647 2328 
Q 3647 1150 3233 529 
Q 2819 -91 2034 -91 
Q 1250 -91 836 529 
Q 422 1150 422 2328 
Q 422 3509 836 4129 
Q 1250 4750 2034 4750 
z
" id="DejaVuSans-30" transform="scale(0.015625)"/>
       </defs>
       <use xlink:href="#DejaVuSans-33"/>
       <use x="63.623047" xlink:href="#DejaVuSans-39"/>
       <use x="127.246094" xlink:href="#DejaVuSans-30"/>
       <use x="190.869141" xlink:href="#DejaVuSans-30"/>
       <use x="254.492188" xlink:href="#DejaVuSans-30"/>
      </g>
     </g>
    </g>
    <g id="xtick_2">
     <g id="line2d_2">
      <g>
       <use style="stroke:#000000;stroke-width:0.8;" x="384.632833" xlink:href="#m809515bd9c" y="640.8"/>
      </g>
     </g>
     <g id="text_2">
      <!-- 39250 -->
      <g transform="translate(368.726583 655.398438)scale(0.1 -0.1)">
       <defs>
        <path d="M 1228 531 
L 3431 531 
L 3431 0 
L 469 0 
L 469 531 
Q 828 903 1448 1529 
Q 2069 2156 2228 2338 
Q 2531 2678 2651 2914 
Q 2772 3150 2772 3378 
Q 2772 3750 2511 3984 
Q 2250 4219 1831 4219 
Q 1534 4219 1204 4116 
Q 875 4013 500 3803 
L 500 4441 
Q 881 4594 1212 4672 
Q 1544 4750 1819 4750 
Q 2544 4750 2975 4387 
Q 3406 4025 3406 3419 
Q 3406 3131 3298 2873 
Q 3191 2616 2906 2266 
Q 2828 2175 2409 1742 
Q 1991 1309 1228 531 
z
" id="DejaVuSans-32" transform="scale(0.015625)"/>
        <path d="M 691 4666 
L 3169 4666 
L 3169 4134 
L 1269 4134 
L 1269 2991 
Q 1406 3038 1543 3061 
Q 1681 3084 1819 3084 
Q 2600 3084 3056 2656 
Q 3513 2228 3513 1497 
Q 3513 744 3044 326 
Q 2575 -91 1722 -91 
Q 1428 -91 1123 -41 
Q 819 9 494 109 
L 494 744 
Q 775 591 1075 516 
Q 1375 441 1709 441 
Q 2250 441 2565 725 
Q 2881 1009 2881 1497 
Q 2881 1984 2565 2268 
Q 2250 2553 1709 2553 
Q 1456 2553 1204 2497 
Q 953 2441 691 2322 
L 691 4666 
z
" id="DejaVuSans-35" transform="scale(0.015625)"/>
       </defs>
       <use xlink:href="#DejaVuSans-33"/>
       <use x="63.623047" xlink:href="#DejaVuSans-39"/>
       <use x="127.246094" xlink:href="#DejaVuSans-32"/>
       <use x="190.869141" xlink:href="#DejaVuSans-35"/>
       <use x="254.492188" xlink:href="#DejaVuSans-30"/>
      </g>
     </g>
    </g>
    <g id="xtick_3">
     <g id="line2d_3">
      <g>
       <use style="stroke:#000000;stroke-width:0.8;" x="538.538394" xlink:href="#m809515bd9c" y="640.8"/>
      </g>
     </g>
     <g id="text_3">
      <!-- 39500 -->
      <g transform="translate(522.632144 655.398438)scale(0.1 -0.1)">
       <use xlink:href="#DejaVuSans-33"/>
       <use x="63.623047" xlink:href="#DejaVuSans-39"/>
       <use x="127.246094" xlink:href="#DejaVuSans-35"/>
       <use x="190.869141" xlink:href="#DejaVuSans-30"/>
       <use x="254.492188" xlink:href="#DejaVuSans-30"/>
      </g>
     </g>
    </g>
    <g id="xtick_4">
     <g id="line2d_4">
      <g>
       <use style="stroke:#000000;stroke-width:0.8;" x="692.443954" xlink:href="#m809515bd9c" y="640.8"/>
      </g>
     </g>
     <g id="text_4">
      <!-- 39750 -->
      <g transform="translate(676.537704 655.398438)scale(0.1 -0.1)">
       <defs>
        <path d="M 525 4666 
L 3525 4666 
L 3525 4397 
L 1831 0 
L 1172 0 
L 2766 4134 
L 525 4134 
L 525 4666 
z
" id="DejaVuSans-37" transform="scale(0.015625)"/>
       </defs>
       <use xlink:href="#DejaVuSans-33"/>
       <use x="63.623047" xlink:href="#DejaVuSans-39"/>
       <use x="127.246094" xlink:href="#DejaVuSans-37"/>
       <use x="190.869141" xlink:href="#DejaVuSans-35"/>
       <use x="254.492188" xlink:href="#DejaVuSans-30"/>
      </g>
     </g>
    </g>
    <g id="xtick_5">
     <g id="line2d_5">
      <g>
       <use style="stroke:#000000;stroke-width:0.8;" x="846.349515" xlink:href="#m809515bd9c" y="640.8"/>
      </g>
     </g>
     <g id="text_5">
      <!-- 40000 -->
      <g transform="translate(830.443265 655.398438)scale(0.1 -0.1)">
       <defs>
        <path d="M 2419 4116 
L 825 1625 
L 2419 1625 
L 2419 4116 
z
M 2253 4666 
L 3047 4666 
L 3047 1625 
L 3713 1625 
L 3713 1100 
L 3047 1100 
L 3047 0 
L 2419 0 
L 2419 1100 
L 313 1100 
L 313 1709 
L 2253 4666 
z
" id="DejaVuSans-34" transform="scale(0.015625)"/>
       </defs>
       <use xlink:href="#DejaVuSans-34"/>
       <use x="63.623047" xlink:href="#DejaVuSans-30"/>
       <use x="127.246094" xlink:href="#DejaVuSans-30"/>
       <use x="190.869141" xlink:href="#DejaVuSans-30"/>
       <use x="254.492188" xlink:href="#DejaVuSans-30"/>
      </g>
     </g>
    </g>
    <g id="xtick_6">
     <g id="line2d_6">
      <g>
       <use style="stroke:#000000;stroke-width:0.8;" x="1000.255075" xlink:href="#m809515bd9c" y="640.8"/>
      </g>
     </g>
     <g id="text_6">
      <!-- 40250 -->
      <g transform="translate(984.348825 655.398438)scale(0.1 -0.1)">
       <use xlink:href="#DejaVuSans-34"/>
       <use x="63.623047" xlink:href="#DejaVuSans-30"/>
       <use x="127.246094" xlink:href="#DejaVuSans-32"/>
       <use x="190.869141" xlink:href="#DejaVuSans-35"/>
       <use x="254.492188" xlink:href="#DejaVuSans-30"/>
      </g>
     </g>
    </g>
    <g id="xtick_7">
     <g id="line2d_7">
      <g>
       <use style="stroke:#000000;stroke-width:0.8;" x="1154.160635" xlink:href="#m809515bd9c" y="640.8"/>
      </g>
     </g>
     <g id="text_7">
      <!-- 40500 -->
      <g transform="translate(1138.254385 655.398438)scale(0.1 -0.1)">
       <use xlink:href="#DejaVuSans-34"/>
       <use x="63.623047" xlink:href="#DejaVuSans-30"/>
       <use x="127.246094" xlink:href="#DejaVuSans-35"/>
       <use x="190.869141" xlink:href="#DejaVuSans-30"/>
       <use x="254.492188" xlink:href="#DejaVuSans-30"/>
      </g>
     </g>
    </g>
   </g>
   <g id="matplotlib.axis_2">
    <g id="ytick_1">
     <g id="line2d_8">
      <defs>
       <path d="M 0 0 
L -3.5 0 
" id="ma51a4544c8" style="stroke:#000000;stroke-width:0.8;"/>
      </defs>
      <g>
       <use style="stroke:#000000;stroke-width:0.8;" x="180" xlink:href="#ma51a4544c8" y="615.616019"/>
      </g>
     </g>
     <g id="text_8">
      <!-- 0 -->
      <g transform="translate(166.6375 619.415238)scale(0.1 -0.1)">
       <use xlink:href="#DejaVuSans-30"/>
      </g>
     </g>
    </g>
    <g id="ytick_2">
     <g id="line2d_9">
      <g>
       <use style="stroke:#000000;stroke-width:0.8;" x="180" xlink:href="#ma51a4544c8" y="514.549479"/>
      </g>
     </g>
     <g id="text_9">
      <!-- 2 -->
      <g transform="translate(166.6375 518.348698)scale(0.1 -0.1)">
       <use xlink:href="#DejaVuSans-32"/>
      </g>
     </g>
    </g>
    <g id="ytick_3">
     <g id="line2d_10">
      <g>
       <use style="stroke:#000000;stroke-width:0.8;" x="180" xlink:href="#ma51a4544c8" y="413.48294"/>
      </g>
     </g>
     <g id="text_10">
      <!-- 4 -->
      <g transform="translate(166.6375 417.282158)scale(0.1 -0.1)">
       <use xlink:href="#DejaVuSans-34"/>
      </g>
     </g>
    </g>
    <g id="ytick_4">
     <g id="line2d_11">
      <g>
       <use style="stroke:#000000;stroke-width:0.8;" x="180" xlink:href="#ma51a4544c8" y="312.4164"/>
      </g>
     </g>
     <g id="text_11">
      <!-- 6 -->
      <g transform="translate(166.6375 316.215619)scale(0.1 -0.1)">
       <defs>
        <path d="M 2113 2584 
Q 1688 2584 1439 2293 
Q 1191 2003 1191 1497 
Q 1191 994 1439 701 
Q 1688 409 2113 409 
Q 2538 409 2786 701 
Q 3034 994 3034 1497 
Q 3034 2003 2786 2293 
Q 2538 2584 2113 2584 
z
M 3366 4563 
L 3366 3988 
Q 3128 4100 2886 4159 
Q 2644 4219 2406 4219 
Q 1781 4219 1451 3797 
Q 1122 3375 1075 2522 
Q 1259 2794 1537 2939 
Q 1816 3084 2150 3084 
Q 2853 3084 3261 2657 
Q 3669 2231 3669 1497 
Q 3669 778 3244 343 
Q 2819 -91 2113 -91 
Q 1303 -91 875 529 
Q 447 1150 447 2328 
Q 447 3434 972 4092 
Q 1497 4750 2381 4750 
Q 2619 4750 2861 4703 
Q 3103 4656 3366 4563 
z
" id="DejaVuSans-36" transform="scale(0.015625)"/>
       </defs>
       <use xlink:href="#DejaVuSans-36"/>
      </g>
     </g>
    </g>
    <g id="ytick_5">
     <g id="line2d_12">
      <g>
       <use style="stroke:#000000;stroke-width:0.8;" x="180" xlink:href="#ma51a4544c8" y="211.34986"/>
      </g>
     </g>
     <g id="text_12">
      <!-- 8 -->
      <g transform="translate(166.6375 215.149079)scale(0.1 -0.1)">
       <defs>
        <path d="M 2034 2216 
Q 1584 2216 1326 1975 
Q 1069 1734 1069 1313 
Q 1069 891 1326 650 
Q 1584 409 2034 409 
Q 2484 409 2743 651 
Q 3003 894 3003 1313 
Q 3003 1734 2745 1975 
Q 2488 2216 2034 2216 
z
M 1403 2484 
Q 997 2584 770 2862 
Q 544 3141 544 3541 
Q 544 4100 942 4425 
Q 1341 4750 2034 4750 
Q 2731 4750 3128 4425 
Q 3525 4100 3525 3541 
Q 3525 3141 3298 2862 
Q 3072 2584 2669 2484 
Q 3125 2378 3379 2068 
Q 3634 1759 3634 1313 
Q 3634 634 3220 271 
Q 2806 -91 2034 -91 
Q 1263 -91 848 271 
Q 434 634 434 1313 
Q 434 1759 690 2068 
Q 947 2378 1403 2484 
z
M 1172 3481 
Q 1172 3119 1398 2916 
Q 1625 2713 2034 2713 
Q 2441 2713 2670 2916 
Q 2900 3119 2900 3481 
Q 2900 3844 2670 4047 
Q 2441 4250 2034 4250 
Q 1625 4250 1398 4047 
Q 1172 3844 1172 3481 
z
" id="DejaVuSans-38" transform="scale(0.015625)"/>
       </defs>
       <use xlink:href="#DejaVuSans-38"/>
      </g>
     </g>
    </g>
    <g id="ytick_6">
     <g id="line2d_13">
      <g>
       <use style="stroke:#000000;stroke-width:0.8;" x="180" xlink:href="#ma51a4544c8" y="110.28332"/>
      </g>
     </g>
     <g id="text_13">
      <!-- 10 -->
      <g transform="translate(160.275 114.082539)scale(0.1 -0.1)">
       <defs>
        <path d="M 794 531 
L 1825 531 
L 1825 4091 
L 703 3866 
L 703 4441 
L 1819 4666 
L 2450 4666 
L 2450 531 
L 3481 531 
L 3481 0 
L 794 0 
L 794 531 
z
" id="DejaVuSans-31" transform="scale(0.015625)"/>
       </defs>
       <use xlink:href="#DejaVuSans-31"/>
       <use x="63.623047" xlink:href="#DejaVuSans-30"/>
      </g>
     </g>
    </g>
   </g>
   <g id="line2d_14">
    <path clip-path="url(#pb2b0108200)" d="M 230.727273 614.938644 
L 231.342895 614.938644 
L 230.727273 614.938644 
L 234.421006 615.203107 
L 235.036628 614.683472 
L 235.652251 614.683472 
L 235.036628 615.575056 
L 236.267873 612.429859 
L 236.883495 615.524027 
L 237.499117 615.524027 
L 238.11474 615.382198 
L 239.961606 615.310105 
L 241.192851 614.767353 
L 241.808473 614.982694 
L 242.424095 615.548634 
L 247.964695 615.6 
L 248.580318 614.092775 
L 249.19594 614.670572 
L 249.811562 614.670572 
L 250.427184 615.363989 
L 251.042807 615.363989 
L 251.658429 615.6 
L 254.120918 615.6 
L 254.73654 615.033606 
L 255.352162 615.033606 
L 255.967785 614.691878 
L 258.430274 614.791276 
L 259.045896 615.29972 
L 259.661518 614.791276 
L 260.27714 615.289343 
L 260.892763 613.716521 
L 261.508385 613.716521 
L 262.124007 613.973415 
L 262.739629 613.973415 
L 263.355252 615.335563 
L 263.970874 615.511992 
L 266.433363 615.511992 
L 267.048985 615.409629 
L 267.664607 615.126439 
L 268.280229 615.126439 
L 268.895852 612.577943 
L 270.127096 612.577943 
L 270.742718 614.579232 
L 271.358341 615.343943 
L 271.973963 615.598766 
L 272.589585 615.343943 
L 273.205207 615.6 
L 273.82083 615.6 
L 274.436452 614.096876 
L 276.283319 614.057551 
L 276.898941 612.732221 
L 277.514563 615.538665 
L 278.130185 612.566873 
L 278.745808 612.566873 
L 279.36143 613.731517 
L 279.977052 613.731517 
L 280.592674 612.128132 
L 281.208297 612.419036 
L 283.055163 612.419036 
L 284.286408 615.53261 
L 284.90203 615.53261 
L 285.517652 615.346628 
L 286.133274 614.313489 
L 286.748897 615.346628 
L 287.364519 615.068608 
L 291.673875 615.173135 
L 292.289497 615.6 
L 294.136364 615.6 
L 294.751986 615.402221 
L 295.367608 615.6 
L 296.598853 615.6 
L 297.214475 614.730399 
L 297.830097 614.730399 
L 298.445719 612.744964 
L 299.061342 613.085076 
L 299.676964 612.744964 
L 300.292586 612.744964 
L 300.908208 612.270665 
L 301.523831 613.085076 
L 302.139453 614.663987 
L 303.370697 615.236052 
L 304.601942 615.236052 
L 305.217564 613.391151 
L 305.833186 613.391151 
L 306.448808 614.078938 
L 307.064431 615.252573 
L 308.295675 615.252573 
L 309.52692 615.6 
L 310.758164 615.548993 
L 311.989409 615.548993 
L 312.605031 614.623289 
L 313.220653 614.623289 
L 313.836275 615.523595 
L 313.220653 615.523595 
L 318.145631 615.6 
L 319.376876 615.23743 
L 319.992498 615.23743 
L 319.376876 615.093425 
L 323.070609 615.124188 
L 323.686231 615.476266 
L 324.301853 615.476266 
L 324.917476 614.792441 
L 325.533098 615.228027 
L 326.14872 614.792441 
L 326.764342 614.643829 
L 327.379965 614.643829 
L 327.995587 615.228027 
L 328.611209 615.6 
L 329.226831 615.6 
L 329.842454 615.269233 
L 330.458076 615.232075 
L 331.073698 613.488191 
L 331.68932 613.488191 
L 332.304943 613.238133 
L 333.536187 613.238133 
L 334.151809 615.580077 
L 349.542365 615.524898 
L 350.157988 615.21958 
L 351.389232 615.21958 
L 352.004854 615.6 
L 353.851721 615.599687 
L 355.082966 615.153183 
L 356.31421 615.153183 
L 356.929832 615.436614 
L 357.545455 615.436614 
L 358.161077 615.073287 
L 358.776699 615.066347 
L 358.161077 611.244031 
L 360.007944 611.244031 
L 360.623566 614.338802 
L 361.239188 615.076876 
L 361.85481 615.6 
L 364.932921 615.6 
L 365.548544 615.015852 
L 366.164166 615.6 
L 366.779788 615.6 
L 367.39541 613.366737 
L 368.011033 613.366737 
L 368.626655 615.6 
L 369.242277 615.390937 
L 369.857899 615.6 
L 413.567079 615.6 
L 414.182701 615.327945 
L 414.798323 615.6 
L 442.501324 615.6 
L 443.116946 615.384558 
L 443.732568 615.384558 
L 444.348191 615.6 
L 456.045013 615.567777 
L 456.660635 614.918173 
L 457.276258 614.475076 
L 457.89188 614.475076 
L 458.507502 609.259255 
L 459.123124 609.144474 
L 458.507502 615.350935 
L 459.738747 615.6 
L 460.354369 615.406704 
L 460.969991 615.6 
L 461.585613 615.6 
L 459.123124 615.406704 
L 462.201236 615.406704 
L 462.816858 615.6 
L 464.663725 615.6 
L 465.279347 614.954811 
L 465.894969 613.841252 
L 467.126214 613.841252 
L 467.741836 615.596754 
L 468.357458 615.325008 
L 473.898058 615.383825 
L 474.51368 615.55369 
L 475.129303 615.383825 
L 475.744925 615.456739 
L 476.976169 615.383657 
L 478.207414 615.335808 
L 478.823036 613.391151 
L 479.438658 613.391151 
L 480.054281 615.397559 
L 481.285525 615.397559 
L 481.901147 614.511647 
L 482.51677 614.490007 
L 483.132392 613.711828 
L 483.748014 612.204119 
L 484.363636 611.354928 
L 484.979259 611.317253 
L 485.594881 612.204119 
L 486.210503 613.565743 
L 488.05737 613.565743 
L 488.672992 610.834221 
L 489.288614 609.938525 
L 489.904237 610.834221 
L 490.519859 609.835185 
L 491.135481 609.835185 
L 491.751103 610.165991 
L 492.366726 610.763992 
L 492.982348 615.6 
L 493.59797 615.6 
L 494.213592 613.047217 
L 494.829214 614.781108 
L 495.444837 613.047217 
L 494.213592 612.851262 
L 496.060459 610.201952 
L 496.676081 612.851262 
L 497.291703 612.851262 
L 497.907326 610.187328 
L 498.522948 610.187328 
L 499.13857 613.376988 
L 499.754192 614.856413 
L 500.369815 614.286792 
L 500.985437 614.41654 
L 502.216681 614.41654 
L 502.832304 615.266868 
L 503.447926 615.266868 
L 504.063548 615.6 
L 504.67917 615.266868 
L 505.294793 615.150146 
L 506.526037 615.150146 
L 507.141659 614.042276 
L 507.757282 614.042276 
L 507.141659 614.042276 
L 508.372904 610.983484 
L 508.988526 610.263293 
L 510.219771 610.263293 
L 510.835393 614.464534 
L 512.682259 614.464534 
L 513.297882 612.407985 
L 513.913504 612.407985 
L 515.144748 615.139527 
L 515.760371 613.870264 
L 514.529126 614.972372 
L 516.991615 614.972372 
L 517.607237 614.738943 
L 518.22286 614.738943 
L 518.838482 613.590036 
L 519.454104 613.232351 
L 520.069726 612.091419 
L 520.685349 612.647412 
L 521.300971 612.647412 
L 521.916593 612.41221 
L 523.147838 612.41221 
L 523.76346 613.213075 
L 524.379082 615.194413 
L 524.994704 615.194413 
L 525.610327 615.33273 
L 526.225949 615.194413 
L 526.841571 615.194413 
L 527.457193 615.073823 
L 528.688438 615.073823 
L 529.30406 615.355477 
L 529.919682 615.355477 
L 530.535305 613.865012 
L 531.150927 615.355477 
L 531.766549 613.224187 
L 532.382171 613.224187 
L 532.997793 615.108147 
L 534.84466 615.108147 
L 535.460282 614.902448 
L 536.691527 614.902448 
L 537.307149 614.409678 
L 537.922771 614.364409 
L 538.538394 606.802588 
L 539.154016 604.890084 
L 540.38526 604.890084 
L 541.000883 613.872544 
L 541.616505 615.383623 
L 542.232127 615.487385 
L 542.847749 615.383623 
L 543.463372 614.016575 
L 544.078994 615.383623 
L 544.694616 615.383628 
L 545.310238 614.016575 
L 545.925861 615.383628 
L 547.772727 615.34794 
L 548.38835 615.6 
L 549.003972 615.34794 
L 549.619594 614.074198 
L 550.235216 614.074198 
L 549.619594 611.251917 
L 552.082083 611.251917 
L 552.697705 612.783608 
L 553.313327 612.783608 
L 553.92895 613.171607 
L 554.544572 615.463595 
L 555.160194 615.6 
L 556.391439 615.6 
L 557.007061 614.41609 
L 558.238305 614.41609 
L 558.853928 615.6 
L 560.085172 615.6 
L 560.700794 614.688836 
L 561.316417 614.688836 
L 561.932039 615.6 
L 571.781995 615.596137 
L 572.397617 614.950096 
L 573.013239 614.618439 
L 573.628861 614.676444 
L 574.860106 614.618439 
L 575.475728 614.389078 
L 576.09135 614.389078 
L 576.706973 613.879349 
L 577.938217 613.879349 
L 578.553839 614.615919 
L 579.169462 614.512339 
L 579.785084 614.615919 
L 580.400706 615.6 
L 582.247573 615.6 
L 582.863195 614.545323 
L 583.478817 614.1399 
L 584.09444 614.1399 
L 584.710062 613.564344 
L 585.941306 614.686476 
L 586.556929 615.6 
L 587.172551 614.686476 
L 587.788173 614.686476 
L 588.403795 615.6 
L 589.63504 613.600209 
L 590.866284 615.6 
L 593.944395 615.6 
L 593.328773 615.378465 
L 595.17564 615.378465 
L 595.791262 613.745336 
L 596.406884 613.745336 
L 597.022507 615.6 
L 608.719329 615.6 
L 609.334951 614.532337 
L 609.950574 614.532337 
L 610.566196 615.6 
L 613.644307 615.6 
L 614.875552 614.746457 
L 615.491174 613.93581 
L 616.106796 613.93581 
L 616.722418 615.113891 
L 617.338041 615.565954 
L 619.80053 615.6 
L 620.416152 613.710638 
L 622.263019 613.710638 
L 622.878641 615.6 
L 625.956752 615.6 
L 626.572374 615.25342 
L 627.187996 615.6 
L 628.419241 614.729619 
L 629.034863 615.095456 
L 628.419241 615.095456 
L 629.650485 615.095456 
L 630.266108 614.729619 
L 630.88173 603.079661 
L 632.112974 603.079661 
L 632.728597 612.327142 
L 633.344219 614.475479 
L 633.959841 615.6 
L 635.806708 615.6 
L 636.42233 615.078829 
L 637.037952 614.407573 
L 637.653575 614.407573 
L 638.269197 613.880603 
L 639.500441 613.880603 
L 640.731686 615.6 
L 643.809797 615.6 
L 644.425419 615.476541 
L 643.809797 615.476541 
L 645.656664 615.6 
L 649.966019 615.6 
L 650.581642 614.996764 
L 653.044131 614.996764 
L 653.659753 615.38232 
L 654.275375 615.6 
L 660.431598 615.581981 
L 661.04722 614.50977 
L 661.662842 614.50977 
L 662.278464 615.581981 
L 664.740953 615.6 
L 665.356575 615.1244 
L 665.972198 615.278834 
L 666.58782 615.1244 
L 667.203442 615.278834 
L 667.819064 615.278834 
L 668.434687 615.6 
L 669.665931 615.6 
L 670.281553 613.876835 
L 670.897176 613.203309 
L 672.12842 613.203309 
L 672.744042 614.464123 
L 672.12842 615.6 
L 674.590909 615.6 
L 675.206531 615.199032 
L 676.437776 615.199032 
L 677.053398 613.57691 
L 681.362754 613.507668 
L 681.978376 615.426193 
L 684.440865 615.426193 
L 685.056487 614.171213 
L 685.672109 612.323963 
L 686.287732 614.171213 
L 686.903354 612.323963 
L 687.518976 612.323963 
L 688.134598 615.6 
L 689.365843 615.6 
L 689.981465 615.3792 
L 690.597087 615.3792 
L 691.21271 614.94495 
L 691.828332 614.94495 
L 692.443954 614.373932 
L 693.059576 614.281237 
L 692.443954 614.021955 
L 694.290821 614.021955 
L 694.906443 612.262204 
L 695.522065 611.089018 
L 696.137688 612.162516 
L 697.368932 612.162516 
L 697.984554 615.044443 
L 698.600177 615.6 
L 703.525154 615.6 
L 704.140777 613.233212 
L 704.756399 613.722795 
L 705.987643 613.722795 
L 705.372021 615.040276 
L 707.218888 615.040276 
L 708.450132 614.860507 
L 709.681377 614.846717 
L 710.296999 614.673722 
L 711.528244 614.673722 
L 712.143866 615.6 
L 712.759488 614.673722 
L 713.37511 614.242879 
L 715.837599 614.19924 
L 716.453222 605.378108 
L 718.300088 605.378108 
L 718.915711 614.670385 
L 719.531333 614.670385 
L 720.146955 615.146207 
L 720.762577 615.146207 
L 721.378199 614.670385 
L 721.993822 615.146207 
L 723.840688 615.103818 
L 724.456311 610.330151 
L 725.071933 614.911236 
L 727.534422 614.911236 
L 728.150044 615.6 
L 728.765666 613.804729 
L 729.996911 613.804729 
L 730.612533 612.376806 
L 731.843778 612.376806 
L 732.4594 611.460736 
L 733.690644 613.319711 
L 734.306267 615.6 
L 735.537511 615.6 
L 736.153133 615.344148 
L 736.768756 610.165753 
L 737.384378 608.440255 
L 738.615622 608.440255 
L 739.231244 610.165753 
L 739.846867 615.244764 
L 740.462489 615.244764 
L 741.078111 615.6 
L 742.924978 615.6 
L 743.5406 614.028279 
L 744.156222 615.6 
L 744.771845 615.6 
L 745.387467 614.028279 
L 746.003089 614.028279 
L 746.618711 612.68718 
L 747.849956 612.68718 
L 748.465578 615.6 
L 755.853045 615.6 
L 756.468667 615.167197 
L 757.084289 614.153863 
L 757.699912 614.153863 
L 758.315534 615.6 
L 773.70609 615.6 
L 774.321712 614.199845 
L 774.937335 615.6 
L 782.324801 615.6 
L 782.940424 605.957365 
L 783.556046 607.054887 
L 784.171668 605.731631 
L 784.78729 608.586575 
L 786.018535 608.586575 
L 786.634157 605.257851 
L 789.096646 605.257851 
L 789.712268 611.158406 
L 790.327891 611.158406 
L 790.943513 603.424928 
L 791.559135 611.158406 
L 790.327891 611.158406 
L 792.174757 612.178453 
L 792.79038 614.372546 
L 793.406002 612.691327 
L 794.021624 613.778972 
L 794.637246 615.6 
L 795.252868 615.6 
L 795.868491 613.778972 
L 796.484113 613.778972 
L 797.099735 615.6 
L 803.255958 615.6 
L 803.87158 614.468358 
L 804.487202 615.293051 
L 805.102824 615.293051 
L 805.718447 614.468358 
L 806.334069 615.6 
L 808.796558 615.6 
L 809.41218 615.412393 
L 810.027802 615.6 
L 812.490291 615.6 
L 813.105914 611.400136 
L 812.490291 611.400136 
L 813.721536 611.400136 
L 814.337158 615.6 
L 824.187114 615.532949 
L 824.802736 612.306502 
L 823.571492 612.306502 
L 824.802736 611.007242 
L 825.418358 615.6 
L 826.649603 615.6 
L 827.265225 613.878847 
L 829.112092 613.878847 
L 829.727714 615.595228 
L 831.574581 615.595228 
L 832.190203 614.372076 
L 832.805825 614.372076 
L 833.421447 611.618957 
L 834.03707 611.106231 
L 835.883936 611.128022 
L 836.499559 615.6 
L 843.887026 615.6 
L 844.502648 604.239295 
L 845.11827 604.239295 
L 845.733892 611.148934 
L 846.349515 611.148934 
L 846.965137 611.465588 
L 847.580759 615.6 
L 848.196381 615.6 
L 848.812004 612.624299 
L 849.427626 612.624299 
L 850.043248 615.6 
L 878.361871 615.6 
L 878.977493 612.097374 
L 879.593116 612.097374 
L 880.208738 615.6 
L 879.593116 615.6 
L 915.299206 615.49089 
L 915.914828 614.523613 
L 917.761695 614.523613 
L 918.377317 615.6 
L 918.992939 613.916686 
L 919.608561 615.6 
L 920.839806 615.6 
L 921.455428 614.59866 
L 922.07105 614.59866 
L 922.686673 613.928856 
L 923.302295 613.928856 
L 923.917917 614.596996 
L 924.533539 614.596996 
L 925.149162 615.6 
L 944.233451 615.6 
L 944.849073 611.96433 
L 945.464695 615.6 
L 967.011474 615.6 
L 967.627096 615.36658 
L 968.858341 615.36658 
L 969.473963 613.354049 
L 970.089585 615.36658 
L 970.705207 615.6 
L 991.020741 615.6 
L 991.636364 611.221008 
L 992.251986 615.6 
L 992.867608 613.625455 
L 993.48323 613.625455 
L 994.098853 612.130114 
L 995.945719 612.130114 
L 996.561342 612.482188 
L 995.945719 615.6 
L 998.408208 615.559406 
L 999.023831 612.947646 
L 1000.870697 612.947646 
L 1001.48632 611.566404 
L 1002.101942 613.119287 
L 1002.717564 613.119287 
L 1003.948808 613.374133 
L 1004.564431 613.803397 
L 1005.795675 613.803397 
L 1006.411297 614.352249 
L 1007.02692 614.352249 
L 1007.642542 615.581536 
L 1009.489409 615.511082 
L 1010.720653 615.511082 
L 1011.336275 615.286913 
L 1011.951898 615.571614 
L 1013.798764 615.580091 
L 1016.261253 615.550734 
L 1017.492498 615.595088 
L 1018.10812 615.324989 
L 1018.723742 615.243837 
L 1019.339365 615.043548 
L 1019.954987 613.583905 
L 1020.570609 615.043548 
L 1021.186231 614.900564 
L 1021.801853 615.402575 
L 1022.417476 615.402575 
L 1023.033098 615.6 
L 1023.64872 615.6 
L 1024.264342 614.821964 
L 1025.495587 614.821964 
L 1026.111209 615.171401 
L 1026.726831 615.387243 
L 1029.18932 615.529594 
L 1032.267432 615.6 
L 1032.883054 615.063957 
L 1034.729921 614.256553 
L 1036.576787 614.25559 
L 1037.19241 612.989782 
L 1037.808032 611.412402 
L 1038.423654 612.989782 
L 1039.039276 611.713525 
L 1039.654898 612.989782 
L 1040.886143 613.211411 
L 1041.501765 615.03563 
L 1042.117387 615.03563 
L 1042.73301 615.6 
L 1043.348632 614.937027 
L 1043.964254 615.6 
L 1044.579876 615.400159 
L 1045.811121 615.384691 
L 1046.426743 614.716099 
L 1047.042365 614.716099 
L 1047.657988 615.306713 
L 1048.27361 615.306713 
L 1048.889232 615.590931 
L 1049.504854 615.35054 
L 1051.351721 615.272442 
L 1051.967343 615.004099 
L 1052.582966 615.272442 
L 1053.198588 615.144768 
L 1053.81421 615.144768 
L 1054.429832 615.431702 
L 1055.045455 615.431702 
L 1055.661077 615.569009 
L 1059.970432 615.6 
L 1060.586055 615.447002 
L 1061.201677 614.706104 
L 1062.432921 614.706104 
L 1063.048544 615.516329 
L 1067.973522 615.6 
L 1068.589144 615.330495 
L 1069.820388 615.251872 
L 1070.436011 614.633486 
L 1071.051633 614.633486 
L 1072.282877 615.6 
L 1072.8985 615.084897 
L 1073.514122 615.084897 
L 1074.129744 615.6 
L 1074.745366 614.964399 
L 1075.360989 614.662504 
L 1075.976611 614.964399 
L 1076.592233 615.6 
L 1078.4391 615.6 
L 1079.054722 615.203892 
L 1079.670344 615.203892 
L 1080.285966 615.6 
L 1082.132833 615.57357 
L 1082.748455 611.978364 
L 1083.364078 613.061992 
L 1083.9797 611.978364 
L 1084.595322 613.170955 
L 1085.210944 613.192101 
L 1085.826567 613.426644 
L 1086.442189 615.145175 
L 1087.057811 615.145175 
L 1087.673433 615.402209 
L 1088.904678 615.402209 
L 1089.5203 615.6 
L 1091.367167 615.582157 
L 1091.982789 615.346751 
L 1093.829656 615.258514 
L 1094.445278 615.6 
L 1098.754634 615.6 
L 1099.370256 615.216813 
L 1099.985878 612.310724 
L 1100.6015 612.658882 
L 1101.832745 612.658882 
L 1102.448367 614.855737 
L 1103.063989 615.375144 
L 1103.679612 614.855737 
L 1104.295234 615.410441 
L 1104.910856 615.410441 
L 1105.526478 615.6 
L 1109.835834 615.6 
L 1110.451456 613.863725 
L 1111.067079 613.863725 
L 1111.682701 613.49097 
L 1112.298323 613.49097 
L 1112.913945 615.089998 
L 1113.529568 615.6 
L 1125.22639 615.6 
L 1126.457635 615.406973 
L 1127.073257 615.474136 
L 1127.688879 615.299808 
L 1128.920124 615.299808 
L 1129.535746 615.6 
L 1130.151368 614.590887 
L 1130.76699 615.415948 
L 1131.382613 615.6 
L 1134.460724 615.6 
L 1135.076346 614.844244 
L 1136.30759 614.878121 
L 1136.923213 615.080207 
L 1137.538835 615.59764 
L 1141.848191 615.6 
L 1142.463813 615.105901 
L 1143.079435 615.195922 
L 1143.695057 615.105901 
L 1144.926302 615.195922 
L 1146.157546 615.117524 
L 1146.773169 615.495808 
L 1148.004413 615.6 
L 1151.698147 615.6 
L 1152.313769 612.017416 
L 1152.929391 612.017416 
L 1153.545013 615.6 
L 1158.469991 615.6 
L 1159.085613 614.980343 
L 1159.701236 614.980343 
L 1160.316858 615.6 
L 1165.857458 615.587915 
L 1166.47308 610.647999 
L 1167.088703 615.587915 
L 1170.166814 615.6 
L 1170.782436 613.239361 
L 1171.398058 615.6 
L 1205.257282 615.6 
L 1205.872904 612.88758 
L 1206.488526 612.88758 
L 1207.104148 615.6 
L 1213.875993 615.6 
L 1214.491615 615.344468 
L 1215.107237 610.908733 
L 1216.338482 610.908733 
L 1216.954104 613.007844 
L 1217.569726 613.007844 
L 1218.185349 611.216951 
L 1218.800971 611.216951 
L 1219.416593 613.007844 
L 1220.647838 615.6 
L 1223.725949 615.6 
L 1224.341571 614.257858 
L 1224.957193 614.257858 
L 1225.572816 614.097626 
L 1226.188438 614.293125 
L 1228.650927 614.293125 
L 1229.266549 615.389745 
L 1229.882171 615.6 
L 1245.272727 615.6 
L 1245.272727 615.6 
" style="fill:none;stroke:#1f77b4;stroke-linecap:square;stroke-width:1.5;"/>
   </g>
   <g id="line2d_15">
    <path clip-path="url(#pb2b0108200)" d="M 230.727273 614.798484 
L 231.342895 615.083104 
L 230.727273 614.883817 
L 232.574139 614.597968 
L 233.189762 613.665279 
L 233.805384 614.173579 
L 234.421006 614.87378 
L 235.652251 615.361202 
L 235.036628 615.470521 
L 236.267873 613.479176 
L 236.883495 613.105884 
L 237.499117 614.236232 
L 238.11474 613.005562 
L 238.730362 613.695586 
L 239.345984 613.020262 
L 239.961606 614.097435 
L 240.577229 608.449108 
L 241.192851 612.006435 
L 241.808473 613.343358 
L 242.424095 614.196999 
L 243.65534 613.464795 
L 244.886584 614.817615 
L 245.502207 614.747072 
L 246.733451 615.289284 
L 247.349073 614.677834 
L 247.964695 615.126393 
L 248.580318 614.595396 
L 249.19594 614.346438 
L 249.811562 614.963459 
L 250.427184 615.273389 
L 251.658429 615.500562 
L 252.274051 613.586943 
L 252.889673 613.819156 
L 253.505296 614.592868 
L 254.120918 614.643152 
L 254.73654 614.350352 
L 255.352162 576.389338 
L 255.967785 595.540348 
L 256.583407 604.79895 
L 257.199029 593.097779 
L 257.814651 602.915185 
L 258.430274 609.229884 
L 259.045896 607.431983 
L 259.661518 611.399281 
L 260.27714 613.226991 
L 260.892763 613.642271 
L 261.508385 612.883882 
L 262.124007 612.808236 
L 262.739629 614.194038 
L 263.355252 610.12617 
L 264.586496 613.556032 
L 265.202118 614.461306 
L 265.817741 615.020587 
L 266.433363 614.523657 
L 267.048985 613.537018 
L 267.664607 609.440253 
L 268.280229 612.403416 
L 268.895852 611.517866 
L 269.511474 613.540814 
L 270.127096 613.7979 
L 270.742718 614.685844 
L 271.358341 615.133132 
L 271.973963 615.356276 
L 272.589585 614.685725 
L 273.205207 603.56349 
L 273.82083 611.526836 
L 274.436452 612.792194 
L 275.052074 612.620938 
L 275.667696 612.688206 
L 276.898941 612.62802 
L 277.514563 613.9973 
L 278.130185 613.25187 
L 278.745808 614.309225 
L 279.977052 613.311731 
L 280.592674 612.791262 
L 281.208297 614.078921 
L 281.823919 614.744784 
L 282.439541 611.952742 
L 283.670786 612.821395 
L 284.286408 614.197785 
L 284.90203 614.88195 
L 285.517652 615.150102 
L 286.133274 602.363485 
L 286.748897 608.865604 
L 287.364519 613.826093 
L 287.980141 612.558485 
L 288.595763 611.973921 
L 289.211386 613.775095 
L 289.827008 614.570837 
L 290.44263 613.113169 
L 291.673875 614.150167 
L 292.289497 612.744368 
L 292.905119 612.483126 
L 293.520741 613.896613 
L 294.136364 614.230757 
L 294.751986 613.28326 
L 295.367608 611.577869 
L 295.98323 612.44391 
L 296.598853 613.999449 
L 297.214475 614.331718 
L 297.830097 614.849149 
L 299.061342 615.344143 
L 299.676964 614.038367 
L 300.292586 613.1814 
L 300.908208 612.956996 
L 301.523831 614.129458 
L 302.139453 614.748019 
L 302.755075 615.057299 
L 303.370697 613.564896 
L 303.98632 613.478024 
L 304.601942 614.424364 
L 305.217564 613.578477 
L 305.833186 613.818178 
L 306.448808 614.610305 
L 307.064431 615.054911 
L 308.295675 615.321559 
L 309.52692 612.392895 
L 310.142542 613.10451 
L 310.758164 612.724724 
L 311.989409 613.017489 
L 312.605031 614.192034 
L 313.220653 614.804653 
L 313.836275 615.099093 
L 313.220653 615.254767 
L 313.836275 615.32415 
L 315.06752 615.16615 
L 315.683142 614.898398 
L 316.298764 614.900701 
L 316.914387 613.087779 
L 318.145631 615.074014 
L 319.376876 615.132805 
L 319.992498 613.203831 
L 319.376876 614.162447 
L 320.60812 613.017849 
L 321.223742 614.192214 
L 321.839365 614.311794 
L 322.454987 612.473899 
L 323.070609 613.920239 
L 323.686231 546.543911 
L 324.301853 580.907813 
L 324.917476 598.159127 
L 325.533098 606.784784 
L 326.14872 610.704037 
L 326.764342 612.673933 
L 327.379965 613.835171 
L 327.995587 613.916552 
L 328.611209 614.53085 
L 329.226831 614.883539 
L 329.842454 613.079198 
L 330.458076 614.128682 
L 331.073698 613.430636 
L 331.68932 613.385611 
L 332.304943 614.376095 
L 332.920565 613.807701 
L 333.536187 614.513604 
L 334.151809 615.01253 
L 334.767432 615.211486 
L 335.383054 614.389622 
L 335.998676 612.927815 
L 336.614298 613.204437 
L 337.845543 614.708009 
L 338.461165 615.109458 
L 339.69241 615.442334 
L 342.154898 615.505874 
L 342.770521 613.069095 
L 343.386143 614.237445 
L 344.001765 613.346238 
L 343.386143 614.356409 
L 344.617387 614.864858 
L 345.23301 613.798724 
L 345.848632 614.582652 
L 346.464254 615.046257 
L 347.079876 615.277989 
L 353.851721 615.294116 
L 354.467343 614.083574 
L 355.082966 613.737363 
L 355.698588 614.656574 
L 356.31421 614.928796 
L 357.545455 614.633361 
L 358.161077 611.898411 
L 358.776699 612.315501 
L 358.161077 608.914709 
L 360.007944 613.458985 
L 360.623566 614.315015 
L 361.239188 614.95471 
L 361.85481 613.88483 
L 362.470432 614.836015 
L 363.086055 615.010935 
L 363.701677 615.016828 
L 364.317299 615.291472 
L 368.626655 349.969231 
L 369.242277 482.756907 
L 369.857899 548.081701 
L 370.473522 581.732679 
L 371.089144 598.66634 
L 371.704766 606.788337 
L 372.320388 611.148888 
L 372.936011 611.709315 
L 373.551633 613.44018 
L 374.167255 614.40338 
L 374.782877 614.737483 
L 376.014122 615.019296 
L 376.629744 613.715753 
L 377.245366 614.409989 
L 376.629744 614.910215 
L 378.476611 615.370365 
L 379.092233 615.14035 
L 379.707855 615.135471 
L 380.323477 615.26809 
L 381.554722 615.062883 
L 382.785966 615.397073 
L 383.401589 615.381826 
L 384.017211 615.477871 
L 384.632833 615.155284 
L 385.864078 615.393824 
L 386.4797 613.603551 
L 387.095322 614.559725 
L 387.710944 614.696212 
L 388.326567 614.17323 
L 388.942189 614.783381 
L 389.557811 609.771868 
L 390.173433 612.569224 
L 390.789056 613.298281 
L 391.404678 614.446343 
L 392.0203 614.63952 
L 392.635922 613.686055 
L 393.251545 611.844538 
L 393.867167 613.605559 
L 394.482789 613.516154 
L 395.098411 614.441367 
L 395.714034 612.46056 
L 396.329656 613.91357 
L 396.945278 613.32308 
L 397.5609 611.901417 
L 398.176523 613.367057 
L 398.792145 611.923405 
L 400.023389 612.718594 
L 398.792145 611.996726 
L 401.254634 612.548624 
L 401.870256 609.979632 
L 402.485878 603.31099 
L 403.1015 609.404087 
L 403.717123 606.102434 
L 404.332745 610.756438 
L 404.948367 612.865847 
L 405.563989 612.215769 
L 406.179612 609.755686 
L 406.795234 612.583064 
L 407.410856 612.657827 
L 412.335834 330.712317 
L 412.951456 471.722454 
L 413.567079 543.24657 
L 414.182701 571.595891 
L 414.798323 589.345571 
L 415.413945 601.039081 
L 416.029568 608.20283 
L 416.64519 611.806636 
L 417.260812 614.486398 
L 417.876434 604.386064 
L 418.492056 609.898253 
L 419.107679 586.693992 
L 420.954545 606.222941 
L 421.570168 609.477766 
L 422.18579 611.287864 
L 422.801412 610.883808 
L 423.417034 613.085784 
L 424.032657 598.606864 
L 424.648279 605.669727 
L 425.263901 610.540084 
L 425.879523 610.188845 
L 426.495146 612.777712 
L 427.110768 614.094077 
L 427.72639 612.317085 
L 428.342012 613.085724 
L 428.957635 613.589904 
L 429.573257 612.034828 
L 430.188879 613.814616 
L 430.804501 614.396213 
L 431.420124 613.993083 
L 432.035746 614.982387 
L 432.651368 614.538298 
L 433.882613 613.944722 
L 434.498235 612.792896 
L 435.113857 608.553567 
L 435.729479 608.906411 
L 436.960724 613.380492 
L 437.576346 613.945875 
L 438.191968 614.770139 
L 438.80759 615.296357 
L 439.423213 613.652703 
L 440.038835 612.830877 
L 441.270079 612.77536 
L 441.885702 610.307571 
L 442.501324 612.837075 
L 443.116946 611.048165 
L 443.732568 612.357486 
L 444.348191 613.975945 
L 444.963813 612.992498 
L 445.579435 611.125876 
L 446.195057 613.36014 
L 446.81068 608.131315 
L 447.426302 611.748947 
L 448.041924 610.95702 
L 448.657546 611.868666 
L 449.273169 611.579771 
L 449.888791 613.473747 
L 450.504413 605.2134 
L 451.120035 610.28999 
L 451.735658 612.6339 
L 452.35128 611.954379 
L 452.966902 612.343485 
L 453.582524 612.885117 
L 454.198147 614.125848 
L 454.813769 614.663433 
L 455.429391 614.343683 
L 456.045013 614.392599 
L 456.660635 611.825927 
L 457.276258 611.550392 
L 457.89188 613.450663 
L 458.507502 612.183242 
L 459.123124 608.915927 
L 458.507502 608.254922 
L 459.738747 611.810751 
L 460.969991 612.831411 
L 461.585613 608.798938 
L 459.123124 611.888374 
L 462.816858 612.909064 
L 463.43248 613.167907 
L 464.048102 613.170467 
L 464.663725 614.268523 
L 465.279347 613.500557 
L 466.510591 613.18735 
L 467.126214 614.215471 
L 467.741836 611.73045 
L 468.357458 612.85981 
L 468.97308 613.340878 
L 469.588703 614.37566 
L 470.204325 614.821543 
L 470.819947 613.777067 
L 471.435569 614.522195 
L 472.051192 614.489043 
L 472.666814 613.610817 
L 473.282436 610.782027 
L 473.898058 612.636602 
L 474.51368 612.648826 
L 475.744925 614.432852 
L 476.360547 613.929801 
L 476.976169 613.171005 
L 477.591792 613.550388 
L 478.207414 613.245274 
L 478.823036 612.260066 
L 479.438658 612.905224 
L 480.054281 613.181171 
L 480.669903 612.956881 
L 481.285525 613.206999 
L 481.901147 614.286789 
L 482.51677 612.698374 
L 483.132392 605.717764 
L 483.748014 608.722468 
L 484.363636 609.076814 
L 484.979259 610.213388 
L 485.594881 610.61776 
L 486.210503 593.265863 
L 486.826125 601.602192 
L 487.441748 607.167391 
L 488.05737 610.19229 
L 488.672992 609.725772 
L 489.288614 611.229181 
L 489.904237 610.427143 
L 490.519859 570.695827 
L 491.135481 592.061288 
L 491.751103 601.676082 
L 492.982348 610.203517 
L 493.59797 611.005078 
L 494.213592 610.604341 
L 494.829214 611.668466 
L 495.444837 612.200528 
L 494.213592 586.457032 
L 496.060459 598.865945 
L 496.676081 604.371452 
L 497.907326 610.071305 
L 498.522948 610.673081 
L 499.13857 610.850581 
L 499.754192 611.791586 
L 500.369815 604.727153 
L 500.985437 608.335589 
L 501.601059 610.753048 
L 502.216681 612.528553 
L 502.832304 613.415229 
L 504.063548 612.806024 
L 504.67917 613.011606 
L 505.910415 612.797347 
L 506.526037 612.043924 
L 507.141659 611.525073 
L 507.757282 612.598221 
L 507.141659 611.802221 
L 508.372904 607.352356 
L 508.988526 610.042473 
L 509.604148 611.557893 
L 510.219771 613.379456 
L 510.835393 614.373018 
L 511.451015 608.637754 
L 512.066637 609.956306 
L 513.297882 324.269697 
L 513.913504 468.973146 
L 514.529126 541.9632 
L 515.760371 577.347895 
L 514.529126 596.150574 
L 516.375993 603.218785 
L 516.991615 608.544144 
L 517.607237 609.241328 
L 518.22286 610.986959 
L 518.838482 612.189055 
L 519.454104 613.777817 
L 520.069726 604.463285 
L 520.685349 608.597938 
L 521.300971 610.474048 
L 521.916593 611.603319 
L 522.532215 612.497235 
L 523.147838 610.697425 
L 523.76346 612.986493 
L 524.379082 614.069499 
L 524.994704 614.635258 
L 526.225949 612.989766 
L 526.841571 612.743411 
L 527.457193 613.694988 
L 528.072816 612.97319 
L 528.688438 614.112444 
L 529.30406 614.282313 
L 529.919682 613.512865 
L 530.535305 614.439722 
L 531.150927 614.276085 
L 531.766549 612.091179 
L 532.997793 614.314842 
L 533.613416 613.008404 
L 534.229038 614.187492 
L 534.84466 614.29186 
L 535.460282 614.851151 
L 536.075905 614.567077 
L 536.691527 610.941536 
L 537.307149 611.837063 
L 537.922771 612.284827 
L 538.538394 612.508709 
L 539.154016 609.024928 
L 539.769638 612.195754 
L 541.000883 609.91507 
L 541.616505 611.653111 
L 542.232127 611.463984 
L 542.847749 613.015531 
L 543.463372 614.191055 
L 544.078994 614.778701 
L 544.694616 612.135776 
L 545.310238 613.45748 
L 546.541483 614.117909 
L 547.157105 604.564304 
L 547.772727 609.965442 
L 548.38835 611.992861 
L 549.003972 610.967851 
L 549.619594 611.129364 
L 550.235216 607.846851 
L 549.619594 610.619001 
L 550.850838 612.992791 
L 551.466461 613.082199 
L 552.082083 614.224389 
L 552.697705 612.757633 
L 553.313327 613.353168 
L 553.92895 608.259575 
L 554.544572 610.569504 
L 555.775816 609.546632 
L 556.391439 611.713868 
L 557.622683 613.983482 
L 558.238305 614.675031 
L 558.853928 615.020805 
L 559.46955 614.948529 
L 560.085172 615.179485 
L 560.700794 614.285318 
L 561.932039 613.88083 
L 562.547661 614.645636 
L 563.163283 614.036192 
L 563.778906 614.58019 
L 564.394528 614.308277 
L 565.01015 613.520434 
L 565.625772 614.015504 
L 566.241395 612.861057 
L 566.857017 614.113818 
L 567.472639 613.487447 
L 568.088261 614.427014 
L 568.703883 614.702723 
L 569.319506 614.799833 
L 572.397617 160.159203 
L 573.013239 385.71703 
L 573.628861 499.224811 
L 574.244484 551.649865 
L 574.860106 583.149956 
L 575.475728 593.528073 
L 576.09135 601.517269 
L 577.322595 609.041279 
L 577.938217 611.812391 
L 578.553839 613.611416 
L 579.169462 614.118283 
L 579.785084 613.864859 
L 580.400706 613.738149 
L 581.016328 613.928222 
L 581.631951 614.247732 
L 582.247573 611.291183 
L 582.863195 610.195134 
L 583.478817 612.780857 
L 584.710062 611.614721 
L 585.325684 612.173656 
L 586.556929 612.580888 
L 587.172551 603.339625 
L 587.788173 608.989932 
L 589.019417 612.76282 
L 589.63504 614.0647 
L 590.250662 613.322889 
L 590.866284 611.457873 
L 591.481906 611.685045 
L 592.097529 612.484569 
L 592.713151 613.539048 
L 593.328773 613.135819 
L 593.944395 609.730698 
L 593.328773 611.231644 
L 594.560018 611.982117 
L 595.17564 611.628487 
L 595.791262 612.180539 
L 596.406884 612.456565 
L 597.022507 613.622312 
L 598.253751 614.297908 
L 598.869373 610.124186 
L 599.484996 612.745383 
L 600.100618 614.077912 
L 600.71624 612.141046 
L 601.331862 613.753813 
L 601.947485 614.219246 
L 603.178729 614.575507 
L 604.409974 614.597957 
L 603.794351 614.982268 
L 605.025596 613.857429 
L 605.641218 614.340093 
L 606.25684 613.587427 
L 606.872462 613.507088 
L 607.488085 614.436834 
L 608.103707 614.560757 
L 609.334951 614.564767 
L 609.950574 612.927635 
L 611.181818 614.583629 
L 611.79744 614.997035 
L 612.413063 614.07049 
L 613.644307 614.904234 
L 614.259929 614.358202 
L 614.875552 614.862391 
L 615.491174 613.068624 
L 616.106796 612.840536 
L 616.722418 614.103558 
L 617.338041 600.247877 
L 617.953663 606.490234 
L 618.569285 605.720554 
L 619.184907 609.226573 
L 619.80053 610.979582 
L 620.416152 613.173081 
L 621.031774 614.26983 
L 621.647396 613.328535 
L 622.263019 611.951542 
L 622.878641 612.342066 
L 623.494263 608.530387 
L 624.109885 610.631489 
L 625.34113 613.102395 
L 625.956752 613.855991 
L 626.572374 614.232789 
L 627.803619 613.285546 
L 628.419241 614.326063 
L 629.034863 613.244636 
L 628.419241 611.251945 
L 629.650485 611.514366 
L 630.266108 612.123479 
L 630.88173 612.428035 
L 631.497352 612.102307 
L 632.112974 613.385694 
L 632.728597 612.707612 
L 633.344219 606.115039 
L 633.959841 608.806526 
L 634.575463 606.037436 
L 635.191086 609.963756 
L 635.806708 600.988036 
L 636.42233 607.207393 
L 637.653575 612.771113 
L 638.884819 613.517831 
L 639.500441 614.464136 
L 640.731686 613.334362 
L 641.347308 613.808535 
L 642.578553 613.063473 
L 643.194175 613.499835 
L 644.425419 612.99743 
L 643.809797 612.86501 
L 645.656664 613.206629 
L 646.887908 613.171857 
L 647.50353 612.952224 
L 648.119153 613.007868 
L 648.734775 613.921579 
L 649.350397 608.594963 
L 649.966019 611.980771 
L 650.581642 611.627814 
L 651.197264 612.180203 
L 651.812886 611.867686 
L 652.428508 605.795897 
L 653.044131 610.581238 
L 653.659753 604.555137 
L 654.275375 609.960858 
L 654.890997 612.577106 
L 655.50662 612.820309 
L 656.122242 611.390647 
L 656.737864 610.98601 
L 657.353486 612.598425 
L 657.969109 613.387373 
L 659.200353 612.710048 
L 659.815975 614.038314 
L 660.431598 603.903152 
L 661.04722 609.055348 
L 661.662842 607.874003 
L 662.278464 610.852057 
L 662.894086 612.810627 
L 663.509709 614.088603 
L 664.125331 612.68173 
L 664.740953 614.024155 
L 665.972198 612.723166 
L 666.58782 613.30401 
L 667.203442 613.651075 
L 667.819064 613.837721 
L 668.434687 459.202146 
L 669.050309 568.140797 
L 669.665931 589.715836 
L 670.281553 601.571293 
L 670.897176 607.151942 
L 671.512798 607.157319 
L 672.12842 605.497314 
L 672.744042 610.090996 
L 673.359665 612.387838 
L 673.975287 613.586927 
L 674.590909 614.166173 
L 675.206531 614.095198 
L 675.822154 613.494638 
L 676.437776 614.53334 
L 677.053398 613.962246 
L 678.284643 614.866151 
L 678.900265 614.37399 
L 679.515887 578.588081 
L 680.131509 594.931469 
L 680.747132 604.770528 
L 681.362754 608.751559 
L 681.978376 611.562797 
L 682.593998 609.457204 
L 683.20962 611.915333 
L 683.825243 610.378389 
L 684.440865 612.375925 
L 685.056487 612.764527 
L 685.672109 610.166165 
L 686.287732 608.670902 
L 687.518976 613.034163 
L 688.134598 614.038637 
L 688.750221 610.648447 
L 689.365843 612.023313 
L 689.981465 612.377952 
L 690.597087 603.772062 
L 691.21271 608.252326 
L 691.828332 611.312894 
L 692.443954 612.022743 
L 693.059576 613.03182 
L 692.443954 612.882205 
L 693.675199 612.078531 
L 694.290821 608.933005 
L 694.906443 610.373906 
L 695.522065 609.635263 
L 696.137688 612.501493 
L 696.75331 613.194046 
L 697.368932 614.280313 
L 697.984554 614.782535 
L 698.600177 613.757563 
L 699.215799 611.265867 
L 699.831421 611.440108 
L 700.447043 609.999639 
L 701.678288 610.484683 
L 702.29391 611.608637 
L 702.909532 606.796732 
L 705.372021 111.6 
L 705.987643 360.000116 
L 705.372021 486.366353 
L 707.218888 579.235258 
L 707.83451 595.263067 
L 708.450132 604.343001 
L 709.065755 608.537796 
L 709.681377 610.980366 
L 710.296999 611.856478 
L 710.912621 576.395814 
L 711.528244 586.648997 
L 712.143866 595.015255 
L 712.759488 581.47777 
L 713.37511 597.860325 
L 713.990733 556.86554 
L 714.606355 584.070199 
L 715.221977 598.401395 
L 715.837599 604.838126 
L 716.453222 586.389206 
L 717.068844 599.560898 
L 718.915711 606.146744 
L 719.531333 595.031402 
L 720.762577 608.407297 
L 721.378199 608.833276 
L 721.993822 598.875442 
L 722.609444 605.804016 
L 723.225066 611.000447 
L 723.840688 611.866519 
L 724.456311 608.945147 
L 725.071933 611.42905 
L 725.687555 574.00186 
L 726.9188 586.619831 
L 727.534422 600.21228 
L 728.150044 606.472435 
L 729.381289 610.643405 
L 729.996911 610.730694 
L 730.612533 609.994974 
L 731.228155 611.363782 
L 731.843778 607.372648 
L 732.4594 610.052619 
L 733.075022 609.02026 
L 733.690644 610.876426 
L 734.306267 594.730011 
L 734.921889 592.988142 
L 735.537511 607.823699 
L 736.153133 610.278145 
L 736.768756 606.829829 
L 737.384378 609.78121 
L 738 611.2569 
L 739.231244 603.275653 
L 739.846867 608.004122 
L 741.078111 611.18604 
L 741.693733 611.230449 
L 742.309356 439.303163 
L 741.693733 526.017877 
L 743.5406 589.991477 
L 744.771845 598.802836 
L 745.387467 599.629437 
L 746.003089 606.181014 
L 746.618711 609.398606 
L 747.234334 596.944767 
L 747.849956 598.184514 
L 748.465578 599.756638 
L 749.0812 603.60816 
L 749.696823 603.438253 
L 750.312445 608.027225 
L 750.928067 595.971642 
L 751.543689 604.294481 
L 749.696823 607.784669 
L 752.159312 610.25863 
L 752.774934 604.393833 
L 754.006178 602.22869 
L 754.621801 601.778726 
L 755.237423 602.485229 
L 755.853045 608.925904 
L 756.468667 610.829248 
L 757.084289 611.722723 
L 758.315534 610.902193 
L 760.162401 606.115477 
L 760.778023 610.7416 
L 761.393645 606.643134 
L 762.009267 609.248646 
L 762.62489 610.990619 
L 763.240512 591.539578 
L 763.856134 587.265124 
L 764.471756 598.139954 
L 765.087379 605.436272 
L 765.703001 609.994483 
L 766.318623 606.687998 
L 766.934245 606.902925 
L 767.549868 609.817758 
L 768.16549 606.30927 
L 768.781112 610.837925 
L 769.396734 611.760439 
L 770.012357 599.563909 
L 770.627979 596.016732 
L 771.859223 607.077969 
L 772.474846 609.90528 
L 773.090468 610.590069 
L 773.70609 610.369129 
L 774.321712 599.261963 
L 774.937335 598.378444 
L 775.552957 602.681756 
L 776.168579 600.848863 
L 776.784201 592.669896 
L 777.399823 601.659784 
L 778.015446 607.196187 
L 778.631068 597.009134 
L 779.862312 607.417636 
L 780.477935 606.329313 
L 781.093557 608.802085 
L 781.709179 527.898281 
L 782.324801 567.547344 
L 782.940424 557.457667 
L 783.556046 550.417898 
L 784.171668 584.303155 
L 784.78729 598.517873 
L 786.018535 601.362049 
L 787.249779 608.992782 
L 787.865402 604.337368 
L 788.481024 594.414148 
L 789.096646 604.997225 
L 789.712268 608.864908 
L 790.327891 603.509152 
L 791.559135 611.379292 
L 790.327891 611.998306 
L 792.174757 607.633327 
L 792.79038 611.37048 
L 793.406002 613.36853 
L 794.021624 613.573751 
L 794.637246 599.03234 
L 795.252868 605.153599 
L 795.868491 602.097052 
L 796.484113 607.708546 
L 797.099735 610.220568 
L 797.715357 597.026382 
L 798.946602 607.545744 
L 799.562224 610.139167 
L 800.177846 599.620666 
L 801.409091 610.407171 
L 802.024713 611.569881 
L 802.640335 611.348613 
L 803.255958 608.982584 
L 803.87158 610.857587 
L 804.487202 613.112083 
L 805.102824 603.797398 
L 805.718447 601.050884 
L 806.334069 607.092908 
L 806.949691 611.229744 
L 807.565313 611.252301 
L 808.180936 611.992446 
L 808.796558 612.362518 
L 809.41218 598.426723 
L 810.027802 606.896651 
L 810.643425 609.085754 
L 811.259047 603.695062 
L 811.874669 607.48496 
L 812.490291 605.142871 
L 813.105914 608.208864 
L 813.721536 606.868661 
L 814.95278 612.584175 
L 815.568402 613.975377 
L 816.184025 607.810649 
L 815.568402 604.728285 
L 816.799647 603.154462 
L 817.415269 607.943526 
L 818.030891 611.655053 
L 819.262136 607.518283 
L 818.030891 611.442431 
L 821.724625 445.508908 
L 822.340247 530.437744 
L 822.955869 571.400221 
L 823.571492 588.215484 
L 824.187114 599.75318 
L 824.802736 605.192748 
L 823.571492 608.233803 
L 824.802736 609.433059 
L 825.418358 612.399819 
L 826.033981 611.845348 
L 826.649603 612.862097 
L 827.265225 611.542854 
L 827.880847 607.781846 
L 828.49647 605.58168 
L 829.112092 610.47413 
L 829.727714 606.995585 
L 830.343336 609.864088 
L 830.958959 607.511905 
L 832.190203 610.975235 
L 832.805825 598.389567 
L 834.03707 611.735993 
L 834.652692 613.551286 
L 835.268314 614.480864 
L 835.883936 614.011977 
L 836.499559 614.246431 
L 837.115181 612.055639 
L 837.730803 613.03371 
L 838.346425 612.883151 
L 838.962048 612.40211 
L 839.57767 612.428845 
L 840.193292 612.65607 
L 840.808914 614.011325 
L 841.424537 612.651101 
L 842.040159 612.347785 
L 842.655781 612.201865 
L 843.271403 607.269572 
L 843.887026 605.524628 
L 844.502648 609.128609 
L 845.11827 609.483918 
L 845.733892 607.528755 
L 846.349515 611.546259 
L 846.965137 611.302469 
L 847.580759 613.441385 
L 848.196381 613.073807 
L 848.812004 612.84966 
L 849.427626 614.10812 
L 850.65887 615.382089 
L 851.274492 609.381801 
L 851.890115 610.813608 
L 852.505737 613.194183 
L 853.121359 612.302864 
L 853.736981 611.734574 
L 854.352604 607.954208 
L 855.583848 610.3434 
L 856.19947 612.85499 
L 856.815093 612.08009 
L 857.430715 613.821927 
L 858.046337 614.698509 
L 858.661959 613.71555 
L 859.277582 608.69447 
L 859.893204 604.689644 
L 860.508826 608.711117 
L 861.124448 610.721854 
L 861.740071 608.393783 
L 862.355693 611.986757 
L 862.971315 611.309536 
L 862.355693 613.43665 
L 864.20256 614.982689 
L 864.818182 613.128773 
L 865.433804 614.247676 
L 866.049426 614.807128 
L 867.280671 612.394635 
L 867.896293 607.597708 
L 868.511915 613.477792 
L 869.127538 614.946136 
L 869.74316 615.263002 
L 870.358782 610.614496 
L 870.974404 613.094794 
L 871.590026 612.913693 
L 872.205649 614.246612 
L 872.821271 614.910852 
L 873.436893 615.24307 
L 874.052515 613.98783 
L 874.668138 614.780032 
L 875.899382 615.326434 
L 876.515004 615.45079 
L 877.130627 614.43877 
L 877.746249 612.856814 
L 878.361871 614.141493 
L 878.977493 612.708175 
L 879.593116 613.067462 
L 880.208738 612.715649 
L 879.593116 614.041114 
L 880.82436 612.657986 
L 881.439982 609.257114 
L 882.055605 612.425759 
L 882.671227 613.896169 
L 883.286849 608.582258 
L 883.902471 611.99635 
L 884.518094 614.637934 
L 885.133716 612.964405 
L 886.36496 603.032165 
L 885.133716 609.199372 
L 887.596205 612.282976 
L 888.827449 612.106109 
L 889.443071 611.867135 
L 890.058694 613.059152 
L 891.289938 610.304819 
L 891.90556 611.865784 
L 892.521183 611.570321 
L 893.136805 612.151456 
L 893.752427 594.252578 
L 894.368049 604.809579 
L 894.983672 606.813171 
L 895.599294 609.772881 
L 896.214916 611.252736 
L 896.830538 612.213414 
L 897.446161 611.744135 
L 895.599294 607.272459 
L 898.061783 605.644077 
L 898.677405 608.459467 
L 899.293027 602.767462 
L 899.90865 609.067021 
L 900.524272 609.493467 
L 901.139894 606.559591 
L 900.524272 608.917224 
L 902.371139 613.768568 
L 902.986761 613.250579 
L 903.602383 611.02789 
L 904.218005 612.813644 
L 904.833628 614.112043 
L 905.44925 614.739311 
L 906.064872 613.007084 
L 906.680494 614.186832 
L 907.296117 614.890618 
L 907.911739 615.193781 
L 908.527361 610.36112 
L 909.142983 607.94055 
L 909.758605 606.196005 
L 910.374228 608.735431 
L 910.98985 612.051005 
L 911.605472 610.390273 
L 912.221094 600.046564 
L 912.836717 597.000135 
L 913.452339 604.866363 
L 914.067961 608.799477 
L 914.683583 606.429562 
L 915.299206 608.85221 
L 915.914828 612.109395 
L 917.146072 590.02484 
L 917.761695 601.378715 
L 918.377317 602.965884 
L 918.992939 605.514906 
L 919.608561 610.547604 
L 920.839806 612.517147 
L 921.455428 612.846769 
L 922.07105 612.427167 
L 922.686673 612.579879 
L 923.302295 607.741184 
L 923.917917 610.921967 
L 924.533539 603.624369 
L 925.149162 608.17848 
L 925.764784 610.802615 
L 926.380406 612.451864 
L 926.996028 607.626323 
L 927.61165 611.496451 
L 928.227273 612.4616 
L 928.842895 612.597095 
L 929.458517 608.850965 
L 930.689762 612.21257 
L 931.305384 612.602585 
L 931.921006 612.537647 
L 932.536628 612.246767 
L 933.152251 612.332001 
L 933.767873 612.532296 
L 934.999117 609.842789 
L 935.61474 612.703276 
L 936.230362 611.989067 
L 936.845984 613.699754 
L 937.461606 610.177526 
L 938.077229 597.046792 
L 938.692851 606.310942 
L 939.308473 610.201705 
L 939.924095 600.915112 
L 940.539718 608.162777 
L 941.15534 613.73144 
L 941.770962 614.647601 
L 942.386584 613.690096 
L 943.002207 614.634758 
L 943.617829 608.951552 
L 944.233451 612.265572 
L 944.849073 611.770215 
L 945.464695 612.251403 
L 946.080318 609.768355 
L 946.69594 611.45942 
L 947.311562 612.414298 
L 947.927184 611.852587 
L 948.542807 613.465151 
L 950.389673 609.450489 
L 951.005296 612.408534 
L 949.158429 606.34032 
L 951.620918 609.536455 
L 952.852162 604.996247 
L 954.083407 611.65254 
L 954.699029 610.078051 
L 955.930274 613.665996 
L 956.545896 613.493755 
L 957.161518 614.452098 
L 957.77714 613.592344 
L 959.008385 610.160224 
L 959.624007 611.446407 
L 960.239629 597.968668 
L 960.855252 606.766215 
L 961.470874 607.687259 
L 962.086496 607.424957 
L 963.317741 612.836589 
L 962.702118 612.055723 
L 963.933363 612.400652 
L 964.548985 599.133281 
L 965.164607 607.354214 
L 965.780229 611.360397 
L 966.395852 599.419959 
L 967.011474 609.404433 
L 967.627096 612.489498 
L 968.242718 610.428768 
L 968.858341 606.614775 
L 970.089585 612.542062 
L 972.552074 279.766299 
L 973.167696 447.670431 
L 973.783319 525.525972 
L 974.398941 570.446276 
L 975.014563 593.005019 
L 975.630185 604.185799 
L 976.245808 609.879793 
L 976.86143 609.186007 
L 977.477052 610.818946 
L 978.092674 611.054911 
L 978.708297 610.937039 
L 979.323919 609.406697 
L 979.939541 610.340777 
L 980.555163 610.5245 
L 981.170786 610.907688 
L 981.786408 610.083471 
L 982.40203 612.725026 
L 983.017652 610.99214 
L 983.633274 610.134084 
L 984.248897 609.696669 
L 984.864519 611.21463 
L 985.480141 613.290605 
L 986.095763 611.536741 
L 986.711386 610.82905 
L 987.327008 612.372868 
L 991.636364 362.369025 
L 992.251986 488.142615 
L 992.867608 550.92229 
L 993.48323 581.166918 
L 994.098853 596.949754 
L 994.714475 604.42309 
L 995.330097 608.441256 
L 995.945719 610.528727 
L 996.561342 611.572462 
L 995.945719 611.42366 
L 996.561342 611.050305 
L 997.176964 611.91645 
L 997.792586 613.745118 
L 998.408208 612.230532 
L 999.023831 613.798556 
L 999.639453 613.612653 
L 1000.255075 614.511547 
L 1000.870697 613.864034 
L 1001.48632 612.569446 
L 1002.101942 613.968013 
L 1002.717564 613.350302 
L 1004.564431 613.396385 
L 1005.180053 614.480074 
L 1005.795675 615.027027 
L 1006.411297 613.879809 
L 1007.02692 610.878579 
L 1008.258164 613.226474 
L 1008.873786 613.674687 
L 1009.489409 598.023738 
L 1010.105031 611.186711 
L 1010.720653 613.276646 
L 1011.336275 607.726285 
L 1011.951898 611.526313 
L 1013.183142 610.370648 
L 1013.798764 612.868614 
L 1014.414387 614.097478 
L 1015.030009 614.835924 
L 1015.645631 615.205244 
L 1017.492498 615.328247 
L 1018.723742 615.327587 
L 1019.339365 615.306695 
L 1019.954987 614.019643 
L 1020.570609 615.136337 
L 1021.186231 614.914814 
L 1021.801853 607.218639 
L 1022.417476 609.975615 
L 1023.64872 613.761712 
L 1024.264342 615.01697 
L 1024.879965 615.191775 
L 1025.495587 614.556029 
L 1026.111209 613.64431 
L 1026.726831 614.60934 
L 1027.342454 615.094521 
L 1027.958076 614.507043 
L 1028.573698 614.936811 
L 1029.18932 615.074175 
L 1029.804943 614.381506 
L 1030.420565 612.828182 
L 1031.036187 614.211293 
L 1031.651809 522.689433 
L 1032.267432 564.926064 
L 1032.883054 590.146322 
L 1033.498676 602.292551 
L 1034.114298 608.146408 
L 1034.729921 611.200999 
L 1035.345543 611.966795 
L 1035.961165 613.297332 
L 1036.576787 611.442348 
L 1037.19241 611.159687 
L 1037.808032 613.263133 
L 1038.423654 613.168223 
L 1039.039276 612.950407 
L 1039.654898 613.059389 
L 1040.270521 614.213556 
L 1040.886143 614.811999 
L 1041.501765 612.807018 
L 1042.117387 614.10873 
L 1043.348632 614.29601 
L 1043.964254 614.831295 
L 1044.579876 615.120868 
L 1045.195499 614.874392 
L 1045.811121 613.074625 
L 1046.426743 614.258138 
L 1047.042365 614.782311 
L 1047.657988 614.867233 
L 1048.27361 615.116906 
L 1049.504854 214.251834 
L 1050.120477 414.517082 
L 1050.736099 514.271955 
L 1052.582966 589.105209 
L 1053.198588 608.405972 
L 1053.81421 611.992767 
L 1054.429832 613.783471 
L 1055.045455 613.258031 
L 1055.661077 614.418935 
L 1056.276699 615.00667 
L 1056.892321 615.004673 
L 1057.507944 615.292338 
L 1058.123566 615.00006 
L 1058.739188 614.853663 
L 1059.35481 613.070105 
L 1059.970432 613.95766 
L 1061.201677 614.490712 
L 1061.817299 614.597567 
L 1062.432921 615.096226 
L 1063.048544 615.231403 
L 1063.664166 615.184298 
L 1064.279788 615.38193 
L 1064.89541 614.447856 
L 1065.511033 614.929149 
L 1066.126655 615.169795 
L 1066.742277 615.290118 
L 1067.357899 614.011354 
L 1067.973522 614.689539 
L 1068.589144 611.63625 
L 1069.204766 613.149377 
L 1069.820388 614.279909 
L 1070.436011 614.845175 
L 1071.051633 615.127808 
L 1071.667255 614.986503 
L 1072.282877 615.057161 
L 1072.8985 614.224156 
L 1073.514122 614.44333 
L 1074.129744 614.905527 
L 1074.745366 614.148339 
L 1075.360989 614.856051 
L 1075.976611 615.21768 
L 1076.592233 614.992392 
L 1077.823477 613.862492 
L 1078.4391 614.51165 
L 1079.670344 615.259884 
L 1080.285966 615.099518 
L 1080.901589 613.916054 
L 1081.517211 614.744921 
L 1082.132833 614.552668 
L 1083.364078 612.554318 
L 1083.9797 613.178129 
L 1084.595322 614.051233 
L 1085.210944 614.708906 
L 1085.826567 615.136335 
L 1086.442189 615.355255 
L 1087.673433 613.315056 
L 1088.289056 614.194549 
L 1088.904678 614.780564 
L 1089.5203 614.784001 
L 1090.751545 615.449697 
L 1091.367167 614.6786 
L 1092.598411 615.294058 
L 1093.214034 615.189478 
L 1095.676523 615.519647 
L 1096.292145 615.489517 
L 1096.907767 614.111054 
L 1097.523389 614.293464 
L 1098.139011 613.860107 
L 1098.754634 614.613915 
L 1099.985878 611.001039 
L 1100.6015 613.282401 
L 1101.217123 613.594466 
L 1101.832745 614.480523 
L 1102.448367 614.421725 
L 1103.063989 613.924237 
L 1103.679612 613.813798 
L 1104.295234 614.61212 
L 1104.910856 611.45827 
L 1105.526478 613.519269 
L 1106.142101 613.460337 
L 1106.757723 613.565361 
L 1107.373345 612.428119 
L 1107.988967 611.600942 
L 1108.60459 613.505692 
L 1109.835834 613.488912 
L 1110.451456 614.427746 
L 1111.067079 614.969533 
L 1111.682701 614.093534 
L 1112.298323 614.656029 
L 1112.913945 614.971894 
L 1113.529568 614.813972 
L 1114.14519 614.978307 
L 1114.760812 615.276727 
L 1115.992056 615.468383 
L 1116.607679 615.444438 
L 1117.223301 614.460708 
L 1117.838923 614.935084 
L 1118.454545 614.302735 
L 1119.070168 614.860738 
L 1119.68579 615.096533 
L 1120.301412 614.248969 
L 1120.917034 614.808346 
L 1121.532657 615.087463 
L 1122.148279 614.947905 
L 1122.763901 614.309145 
L 1123.379523 614.951775 
L 1125.22639 615.474124 
L 1127.073257 615.42684 
L 1127.688879 613.350849 
L 1128.304501 614.359286 
L 1128.920124 614.971354 
L 1129.535746 614.665353 
L 1130.151368 615.129879 
L 1130.76699 615.248801 
L 1133.229479 615.086609 
L 1133.845102 613.9096 
L 1134.460724 614.63809 
L 1135.076346 614.650297 
L 1135.691968 615.008438 
L 1136.923213 615.077042 
L 1137.538835 612.411841 
L 1138.154457 612.652403 
L 1138.770079 614.010064 
L 1139.385702 614.336284 
L 1140.001324 614.954259 
L 1140.616946 611.644447 
L 1141.232568 613.619004 
L 1142.463813 614.719468 
L 1143.079435 607.481545 
L 1143.695057 611.062687 
L 1144.31068 613.214633 
L 1144.926302 612.138676 
L 1146.773169 614.815584 
L 1148.004413 614.121167 
L 1148.620035 614.743873 
L 1149.235658 615.055226 
L 1149.85128 614.895454 
L 1150.466902 614.970162 
L 1151.082524 608.813798 
L 1151.698147 612.090189 
L 1152.313769 612.41139 
L 1152.929391 613.910916 
L 1153.545013 612.967944 
L 1154.160635 613.328117 
L 1154.776258 614.347349 
L 1155.39188 612.811103 
L 1156.007502 613.352742 
L 1156.623124 613.042666 
L 1157.238747 613.463448 
L 1157.854369 611.166227 
L 1158.469991 613.177754 
L 1159.085613 614.079049 
L 1159.701236 613.519614 
L 1160.316858 607.464886 
L 1160.93248 611.415733 
L 1161.548102 613.039119 
L 1162.163725 612.156988 
L 1162.779347 612.598063 
L 1163.394969 613.982322 
L 1164.010591 609.772273 
L 1165.241836 610.757744 
L 1165.857458 612.08212 
L 1166.47308 611.328417 
L 1167.704325 611.685973 
L 1168.935569 612.818016 
L 1169.551192 614.092298 
L 1170.166814 613.207712 
L 1170.782436 614.39075 
L 1171.398058 613.704543 
L 1172.01368 613.218567 
L 1172.629303 614.395623 
L 1173.244925 614.984608 
L 1173.860547 615.176166 
L 1174.476169 610.547182 
L 1175.091792 612.956881 
L 1175.707414 613.191815 
L 1176.323036 614.118343 
L 1176.938658 612.70461 
L 1177.554281 613.411541 
L 1178.169903 613.23403 
L 1178.785525 614.201054 
L 1179.401147 614.491374 
L 1180.01677 615.257179 
L 1182.479259 615.459559 
L 1184.326125 615.40152 
L 1184.941748 615.488042 
L 1186.172992 613.579883 
L 1186.788614 605.80272 
L 1187.404237 613.081963 
L 1188.019859 614.224271 
L 1188.635481 614.15888 
L 1189.251103 615.235523 
L 1189.866726 613.984057 
L 1190.482348 612.1515 
L 1191.09797 612.442045 
L 1191.713592 613.904313 
L 1192.329214 613.318452 
L 1193.560459 615.269528 
L 1194.176081 614.001059 
L 1194.791703 598.741804 
L 1195.407326 607.160753 
L 1196.022948 611.180885 
L 1196.63857 614.325304 
L 1197.254192 614.751835 
L 1197.869815 613.742213 
L 1198.485437 614.554396 
L 1199.716681 611.077721 
L 1200.332304 613.432247 
L 1200.947926 613.082419 
L 1201.563548 609.581646 
L 1202.17917 611.157118 
L 1202.794793 610.501294 
L 1203.410415 610.733993 
L 1204.026037 613.050286 
L 1204.641659 611.892181 
L 1205.257282 611.583519 
L 1205.872904 612.2703 
L 1206.488526 613.81844 
L 1207.104148 613.02717 
L 1207.719771 612.638562 
L 1208.335393 611.95671 
L 1208.951015 609.703121 
L 1209.566637 612.535422 
L 1210.182259 613.951001 
L 1210.797882 613.267301 
L 1211.413504 610.800968 
L 1212.029126 612.105027 
L 1212.644748 612.805365 
L 1213.260371 609.443119 
L 1213.875993 612.42678 
L 1214.491615 613.89668 
L 1215.107237 614.653561 
L 1216.338482 612.906794 
L 1216.954104 612.993899 
L 1217.569726 614.180239 
L 1218.185349 613.489996 
L 1220.032215 614.863419 
L 1220.647838 613.798005 
L 1221.26346 607.814784 
L 1221.879082 610.273687 
L 1222.494704 611.269921 
L 1223.110327 611.357881 
L 1223.725949 613.292942 
L 1224.341571 613.695284 
L 1224.957193 613.355481 
L 1225.572816 612.562384 
L 1226.188438 613.896083 
L 1226.80406 613.314337 
L 1227.419682 613.705981 
L 1228.035305 613.901804 
L 1228.650927 614.564903 
L 1229.266549 614.556842 
L 1231.113416 178.000317 
L 1231.729038 396.42857 
L 1232.34466 505.642696 
L 1232.960282 559.187643 
L 1233.575905 600.59406 
L 1234.191527 583.833757 
L 1236.654016 209.062089 
L 1237.269638 412.145045 
L 1237.88526 513.686524 
L 1238.500883 564.271673 
L 1239.116505 589.564248 
L 1239.732127 601.830937 
L 1240.347749 608.34388 
L 1240.963372 607.768741 
L 1241.578994 610.553585 
L 1242.194616 611.643088 
L 1242.810238 611.366915 
L 1243.425861 611.780754 
L 1244.041483 613.22314 
L 1245.272727 613.386286 
L 1245.272727 613.386286 
" style="fill:none;stroke:#ff7f0e;stroke-linecap:square;stroke-width:1.5;"/>
   </g>
   <g id="patch_3">
    <path d="M 180 640.8 
L 180 86.4 
" style="fill:none;stroke:#000000;stroke-linecap:square;stroke-linejoin:miter;stroke-width:0.8;"/>
   </g>
   <g id="patch_4">
    <path d="M 1296 640.8 
L 1296 86.4 
" style="fill:none;stroke:#000000;stroke-linecap:square;stroke-linejoin:miter;stroke-width:0.8;"/>
   </g>
   <g id="patch_5">
    <path d="M 180 640.8 
L 1296 640.8 
" style="fill:none;stroke:#000000;stroke-linecap:square;stroke-linejoin:miter;stroke-width:0.8;"/>
   </g>
   <g id="patch_6">
    <path d="M 180 86.4 
L 1296 86.4 
" style="fill:none;stroke:#000000;stroke-linecap:square;stroke-linejoin:miter;stroke-width:0.8;"/>
   </g>
  </g>
 </g>
 <defs>
  <clipPath id="pb2b0108200">
   <rect height="554.4" width="1116" x="180" y="86.4"/>
  </clipPath>
 </defs>
</svg>
