<?xml version="1.0" encoding="utf-8" standalone="no"?>
<!DOCTYPE svg PUBLIC "-//W3C//DTD SVG 1.1//EN"
  "http://www.w3.org/Graphics/SVG/1.1/DTD/svg11.dtd">
<svg height="345.6pt" version="1.1" viewBox="0 0 460.8 345.6" width="460.8pt" xmlns="http://www.w3.org/2000/svg" xmlns:xlink="http://www.w3.org/1999/xlink">
 <metadata>
  <rdf:RDF xmlns:cc="http://creativecommons.org/ns#" xmlns:dc="http://purl.org/dc/elements/1.1/" xmlns:rdf="http://www.w3.org/1999/02/22-rdf-syntax-ns#">
   <cc:Work>
    <dc:type rdf:resource="http://purl.org/dc/dcmitype/StillImage"/>
    <dc:date>2022-01-06T22:04:30.114822</dc:date>
    <dc:format>image/svg+xml</dc:format>
    <dc:creator>
     <cc:Agent>
      <dc:title>Matplotlib v3.4.3, https://matplotlib.org/</dc:title>
     </cc:Agent>
    </dc:creator>
   </cc:Work>
  </rdf:RDF>
 </metadata>
 <defs>
  <style type="text/css">*{stroke-linecap:butt;stroke-linejoin:round;}</style>
 </defs>
 <g id="figure_1">
  <g id="patch_1">
   <path d="M 0 345.6 
L 460.8 345.6 
L 460.8 0 
L 0 0 
z
" style="fill:#ffffff;"/>
  </g>
  <g id="axes_1">
   <g id="patch_2">
    <path d="M 57.6 307.584 
L 414.72 307.584 
L 414.72 41.472 
L 57.6 41.472 
z
" style="fill:#ffffff;"/>
   </g>
   <g id="matplotlib.axis_1">
    <g id="xtick_1">
     <g id="line2d_1">
      <defs>
       <path d="M 0 0 
L 0 3.5 
" id="mad9c5cc0ed" style="stroke:#000000;stroke-width:0.8;"/>
      </defs>
      <g>
       <use style="stroke:#000000;stroke-width:0.8;" x="73.832727" xlink:href="#mad9c5cc0ed" y="307.584"/>
      </g>
     </g>
     <g id="text_1">
      <!-- 39000 -->
      <g transform="translate(57.926477 322.182437)scale(0.1 -0.1)">
       <defs>
        <path d="M 2597 2516 
Q 3050 2419 3304 2112 
Q 3559 1806 3559 1356 
Q 3559 666 3084 287 
Q 2609 -91 1734 -91 
Q 1441 -91 1130 -33 
Q 819 25 488 141 
L 488 750 
Q 750 597 1062 519 
Q 1375 441 1716 441 
Q 2309 441 2620 675 
Q 2931 909 2931 1356 
Q 2931 1769 2642 2001 
Q 2353 2234 1838 2234 
L 1294 2234 
L 1294 2753 
L 1863 2753 
Q 2328 2753 2575 2939 
Q 2822 3125 2822 3475 
Q 2822 3834 2567 4026 
Q 2313 4219 1838 4219 
Q 1578 4219 1281 4162 
Q 984 4106 628 3988 
L 628 4550 
Q 988 4650 1302 4700 
Q 1616 4750 1894 4750 
Q 2613 4750 3031 4423 
Q 3450 4097 3450 3541 
Q 3450 3153 3228 2886 
Q 3006 2619 2597 2516 
z
" id="DejaVuSans-33" transform="scale(0.015625)"/>
        <path d="M 703 97 
L 703 672 
Q 941 559 1184 500 
Q 1428 441 1663 441 
Q 2288 441 2617 861 
Q 2947 1281 2994 2138 
Q 2813 1869 2534 1725 
Q 2256 1581 1919 1581 
Q 1219 1581 811 2004 
Q 403 2428 403 3163 
Q 403 3881 828 4315 
Q 1253 4750 1959 4750 
Q 2769 4750 3195 4129 
Q 3622 3509 3622 2328 
Q 3622 1225 3098 567 
Q 2575 -91 1691 -91 
Q 1453 -91 1209 -44 
Q 966 3 703 97 
z
M 1959 2075 
Q 2384 2075 2632 2365 
Q 2881 2656 2881 3163 
Q 2881 3666 2632 3958 
Q 2384 4250 1959 4250 
Q 1534 4250 1286 3958 
Q 1038 3666 1038 3163 
Q 1038 2656 1286 2365 
Q 1534 2075 1959 2075 
z
" id="DejaVuSans-39" transform="scale(0.015625)"/>
        <path d="M 2034 4250 
Q 1547 4250 1301 3770 
Q 1056 3291 1056 2328 
Q 1056 1369 1301 889 
Q 1547 409 2034 409 
Q 2525 409 2770 889 
Q 3016 1369 3016 2328 
Q 3016 3291 2770 3770 
Q 2525 4250 2034 4250 
z
M 2034 4750 
Q 2819 4750 3233 4129 
Q 3647 3509 3647 2328 
Q 3647 1150 3233 529 
Q 2819 -91 2034 -91 
Q 1250 -91 836 529 
Q 422 1150 422 2328 
Q 422 3509 836 4129 
Q 1250 4750 2034 4750 
z
" id="DejaVuSans-30" transform="scale(0.015625)"/>
       </defs>
       <use xlink:href="#DejaVuSans-33"/>
       <use x="63.623047" xlink:href="#DejaVuSans-39"/>
       <use x="127.246094" xlink:href="#DejaVuSans-30"/>
       <use x="190.869141" xlink:href="#DejaVuSans-30"/>
       <use x="254.492188" xlink:href="#DejaVuSans-30"/>
      </g>
     </g>
    </g>
    <g id="xtick_2">
     <g id="line2d_2">
      <g>
       <use style="stroke:#000000;stroke-width:0.8;" x="123.082507" xlink:href="#mad9c5cc0ed" y="307.584"/>
      </g>
     </g>
     <g id="text_2">
      <!-- 39250 -->
      <g transform="translate(107.176257 322.182437)scale(0.1 -0.1)">
       <defs>
        <path d="M 1228 531 
L 3431 531 
L 3431 0 
L 469 0 
L 469 531 
Q 828 903 1448 1529 
Q 2069 2156 2228 2338 
Q 2531 2678 2651 2914 
Q 2772 3150 2772 3378 
Q 2772 3750 2511 3984 
Q 2250 4219 1831 4219 
Q 1534 4219 1204 4116 
Q 875 4013 500 3803 
L 500 4441 
Q 881 4594 1212 4672 
Q 1544 4750 1819 4750 
Q 2544 4750 2975 4387 
Q 3406 4025 3406 3419 
Q 3406 3131 3298 2873 
Q 3191 2616 2906 2266 
Q 2828 2175 2409 1742 
Q 1991 1309 1228 531 
z
" id="DejaVuSans-32" transform="scale(0.015625)"/>
        <path d="M 691 4666 
L 3169 4666 
L 3169 4134 
L 1269 4134 
L 1269 2991 
Q 1406 3038 1543 3061 
Q 1681 3084 1819 3084 
Q 2600 3084 3056 2656 
Q 3513 2228 3513 1497 
Q 3513 744 3044 326 
Q 2575 -91 1722 -91 
Q 1428 -91 1123 -41 
Q 819 9 494 109 
L 494 744 
Q 775 591 1075 516 
Q 1375 441 1709 441 
Q 2250 441 2565 725 
Q 2881 1009 2881 1497 
Q 2881 1984 2565 2268 
Q 2250 2553 1709 2553 
Q 1456 2553 1204 2497 
Q 953 2441 691 2322 
L 691 4666 
z
" id="DejaVuSans-35" transform="scale(0.015625)"/>
       </defs>
       <use xlink:href="#DejaVuSans-33"/>
       <use x="63.623047" xlink:href="#DejaVuSans-39"/>
       <use x="127.246094" xlink:href="#DejaVuSans-32"/>
       <use x="190.869141" xlink:href="#DejaVuSans-35"/>
       <use x="254.492188" xlink:href="#DejaVuSans-30"/>
      </g>
     </g>
    </g>
    <g id="xtick_3">
     <g id="line2d_3">
      <g>
       <use style="stroke:#000000;stroke-width:0.8;" x="172.332286" xlink:href="#mad9c5cc0ed" y="307.584"/>
      </g>
     </g>
     <g id="text_3">
      <!-- 39500 -->
      <g transform="translate(156.426036 322.182437)scale(0.1 -0.1)">
       <use xlink:href="#DejaVuSans-33"/>
       <use x="63.623047" xlink:href="#DejaVuSans-39"/>
       <use x="127.246094" xlink:href="#DejaVuSans-35"/>
       <use x="190.869141" xlink:href="#DejaVuSans-30"/>
       <use x="254.492188" xlink:href="#DejaVuSans-30"/>
      </g>
     </g>
    </g>
    <g id="xtick_4">
     <g id="line2d_4">
      <g>
       <use style="stroke:#000000;stroke-width:0.8;" x="221.582065" xlink:href="#mad9c5cc0ed" y="307.584"/>
      </g>
     </g>
     <g id="text_4">
      <!-- 39750 -->
      <g transform="translate(205.675815 322.182437)scale(0.1 -0.1)">
       <defs>
        <path d="M 525 4666 
L 3525 4666 
L 3525 4397 
L 1831 0 
L 1172 0 
L 2766 4134 
L 525 4134 
L 525 4666 
z
" id="DejaVuSans-37" transform="scale(0.015625)"/>
       </defs>
       <use xlink:href="#DejaVuSans-33"/>
       <use x="63.623047" xlink:href="#DejaVuSans-39"/>
       <use x="127.246094" xlink:href="#DejaVuSans-37"/>
       <use x="190.869141" xlink:href="#DejaVuSans-35"/>
       <use x="254.492188" xlink:href="#DejaVuSans-30"/>
      </g>
     </g>
    </g>
    <g id="xtick_5">
     <g id="line2d_5">
      <g>
       <use style="stroke:#000000;stroke-width:0.8;" x="270.831845" xlink:href="#mad9c5cc0ed" y="307.584"/>
      </g>
     </g>
     <g id="text_5">
      <!-- 40000 -->
      <g transform="translate(254.925595 322.182437)scale(0.1 -0.1)">
       <defs>
        <path d="M 2419 4116 
L 825 1625 
L 2419 1625 
L 2419 4116 
z
M 2253 4666 
L 3047 4666 
L 3047 1625 
L 3713 1625 
L 3713 1100 
L 3047 1100 
L 3047 0 
L 2419 0 
L 2419 1100 
L 313 1100 
L 313 1709 
L 2253 4666 
z
" id="DejaVuSans-34" transform="scale(0.015625)"/>
       </defs>
       <use xlink:href="#DejaVuSans-34"/>
       <use x="63.623047" xlink:href="#DejaVuSans-30"/>
       <use x="127.246094" xlink:href="#DejaVuSans-30"/>
       <use x="190.869141" xlink:href="#DejaVuSans-30"/>
       <use x="254.492188" xlink:href="#DejaVuSans-30"/>
      </g>
     </g>
    </g>
    <g id="xtick_6">
     <g id="line2d_6">
      <g>
       <use style="stroke:#000000;stroke-width:0.8;" x="320.081624" xlink:href="#mad9c5cc0ed" y="307.584"/>
      </g>
     </g>
     <g id="text_6">
      <!-- 40250 -->
      <g transform="translate(304.175374 322.182437)scale(0.1 -0.1)">
       <use xlink:href="#DejaVuSans-34"/>
       <use x="63.623047" xlink:href="#DejaVuSans-30"/>
       <use x="127.246094" xlink:href="#DejaVuSans-32"/>
       <use x="190.869141" xlink:href="#DejaVuSans-35"/>
       <use x="254.492188" xlink:href="#DejaVuSans-30"/>
      </g>
     </g>
    </g>
    <g id="xtick_7">
     <g id="line2d_7">
      <g>
       <use style="stroke:#000000;stroke-width:0.8;" x="369.331403" xlink:href="#mad9c5cc0ed" y="307.584"/>
      </g>
     </g>
     <g id="text_7">
      <!-- 40500 -->
      <g transform="translate(353.425153 322.182437)scale(0.1 -0.1)">
       <use xlink:href="#DejaVuSans-34"/>
       <use x="63.623047" xlink:href="#DejaVuSans-30"/>
       <use x="127.246094" xlink:href="#DejaVuSans-35"/>
       <use x="190.869141" xlink:href="#DejaVuSans-30"/>
       <use x="254.492188" xlink:href="#DejaVuSans-30"/>
      </g>
     </g>
    </g>
   </g>
   <g id="matplotlib.axis_2">
    <g id="ytick_1">
     <g id="line2d_8">
      <defs>
       <path d="M 0 0 
L -3.5 0 
" id="me48936be6d" style="stroke:#000000;stroke-width:0.8;"/>
      </defs>
      <g>
       <use style="stroke:#000000;stroke-width:0.8;" x="57.6" xlink:href="#me48936be6d" y="307.584"/>
      </g>
     </g>
     <g id="text_8">
      <!-- 0 -->
      <g transform="translate(44.2375 311.383219)scale(0.1 -0.1)">
       <use xlink:href="#DejaVuSans-30"/>
      </g>
     </g>
    </g>
    <g id="ytick_2">
     <g id="line2d_9">
      <g>
       <use style="stroke:#000000;stroke-width:0.8;" x="57.6" xlink:href="#me48936be6d" y="254.3616"/>
      </g>
     </g>
     <g id="text_9">
      <!-- 2 -->
      <g transform="translate(44.2375 258.160819)scale(0.1 -0.1)">
       <use xlink:href="#DejaVuSans-32"/>
      </g>
     </g>
    </g>
    <g id="ytick_3">
     <g id="line2d_10">
      <g>
       <use style="stroke:#000000;stroke-width:0.8;" x="57.6" xlink:href="#me48936be6d" y="201.1392"/>
      </g>
     </g>
     <g id="text_10">
      <!-- 4 -->
      <g transform="translate(44.2375 204.938419)scale(0.1 -0.1)">
       <use xlink:href="#DejaVuSans-34"/>
      </g>
     </g>
    </g>
    <g id="ytick_4">
     <g id="line2d_11">
      <g>
       <use style="stroke:#000000;stroke-width:0.8;" x="57.6" xlink:href="#me48936be6d" y="147.9168"/>
      </g>
     </g>
     <g id="text_11">
      <!-- 6 -->
      <g transform="translate(44.2375 151.716019)scale(0.1 -0.1)">
       <defs>
        <path d="M 2113 2584 
Q 1688 2584 1439 2293 
Q 1191 2003 1191 1497 
Q 1191 994 1439 701 
Q 1688 409 2113 409 
Q 2538 409 2786 701 
Q 3034 994 3034 1497 
Q 3034 2003 2786 2293 
Q 2538 2584 2113 2584 
z
M 3366 4563 
L 3366 3988 
Q 3128 4100 2886 4159 
Q 2644 4219 2406 4219 
Q 1781 4219 1451 3797 
Q 1122 3375 1075 2522 
Q 1259 2794 1537 2939 
Q 1816 3084 2150 3084 
Q 2853 3084 3261 2657 
Q 3669 2231 3669 1497 
Q 3669 778 3244 343 
Q 2819 -91 2113 -91 
Q 1303 -91 875 529 
Q 447 1150 447 2328 
Q 447 3434 972 4092 
Q 1497 4750 2381 4750 
Q 2619 4750 2861 4703 
Q 3103 4656 3366 4563 
z
" id="DejaVuSans-36" transform="scale(0.015625)"/>
       </defs>
       <use xlink:href="#DejaVuSans-36"/>
      </g>
     </g>
    </g>
    <g id="ytick_5">
     <g id="line2d_12">
      <g>
       <use style="stroke:#000000;stroke-width:0.8;" x="57.6" xlink:href="#me48936be6d" y="94.6944"/>
      </g>
     </g>
     <g id="text_12">
      <!-- 8 -->
      <g transform="translate(44.2375 98.493619)scale(0.1 -0.1)">
       <defs>
        <path d="M 2034 2216 
Q 1584 2216 1326 1975 
Q 1069 1734 1069 1313 
Q 1069 891 1326 650 
Q 1584 409 2034 409 
Q 2484 409 2743 651 
Q 3003 894 3003 1313 
Q 3003 1734 2745 1975 
Q 2488 2216 2034 2216 
z
M 1403 2484 
Q 997 2584 770 2862 
Q 544 3141 544 3541 
Q 544 4100 942 4425 
Q 1341 4750 2034 4750 
Q 2731 4750 3128 4425 
Q 3525 4100 3525 3541 
Q 3525 3141 3298 2862 
Q 3072 2584 2669 2484 
Q 3125 2378 3379 2068 
Q 3634 1759 3634 1313 
Q 3634 634 3220 271 
Q 2806 -91 2034 -91 
Q 1263 -91 848 271 
Q 434 634 434 1313 
Q 434 1759 690 2068 
Q 947 2378 1403 2484 
z
M 1172 3481 
Q 1172 3119 1398 2916 
Q 1625 2713 2034 2713 
Q 2441 2713 2670 2916 
Q 2900 3119 2900 3481 
Q 2900 3844 2670 4047 
Q 2441 4250 2034 4250 
Q 1625 4250 1398 4047 
Q 1172 3844 1172 3481 
z
" id="DejaVuSans-38" transform="scale(0.015625)"/>
       </defs>
       <use xlink:href="#DejaVuSans-38"/>
      </g>
     </g>
    </g>
    <g id="ytick_6">
     <g id="line2d_13">
      <g>
       <use style="stroke:#000000;stroke-width:0.8;" x="57.6" xlink:href="#me48936be6d" y="41.472"/>
      </g>
     </g>
     <g id="text_13">
      <!-- 10 -->
      <g transform="translate(37.875 45.271219)scale(0.1 -0.1)">
       <defs>
        <path d="M 794 531 
L 1825 531 
L 1825 4091 
L 703 3866 
L 703 4441 
L 1819 4666 
L 2450 4666 
L 2450 531 
L 3481 531 
L 3481 0 
L 794 0 
L 794 531 
z
" id="DejaVuSans-31" transform="scale(0.015625)"/>
       </defs>
       <use xlink:href="#DejaVuSans-31"/>
       <use x="63.623047" xlink:href="#DejaVuSans-30"/>
      </g>
     </g>
    </g>
   </g>
   <g id="line2d_14">
    <path clip-path="url(#p1d91b87a8e)" d="M 73.832727 307.15348 
L 74.029726 307.303363 
L 73.832727 307.198417 
L 74.423725 307.047887 
L 74.620724 306.556726 
L 75.40872 307.449811 
L 75.211721 307.50738 
L 75.605719 306.458723 
L 75.802718 306.262144 
L 75.999718 306.857394 
L 76.196717 306.209314 
L 76.393716 306.572686 
L 76.590715 306.217055 
L 76.787714 306.784302 
L 76.984713 303.809851 
L 77.181712 305.683166 
L 77.575711 306.836734 
L 77.969709 306.451149 
L 78.363707 307.163554 
L 78.560706 307.126406 
L 78.954704 307.411939 
L 79.151703 307.089945 
L 79.348703 307.326159 
L 79.742701 306.915429 
L 80.136699 307.403568 
L 80.530697 307.523199 
L 80.727696 306.515474 
L 80.924695 306.637758 
L 81.121695 307.045201 
L 81.318694 307.071681 
L 81.515693 306.91749 
L 81.712692 286.926935 
L 82.10669 301.88765 
L 82.303689 295.725726 
L 82.697688 304.221013 
L 82.894687 303.274225 
L 83.288685 306.32592 
L 83.485684 306.544609 
L 83.682683 306.145236 
L 83.879682 306.105401 
L 84.076681 306.835174 
L 84.27368 304.693004 
L 84.864678 306.975919 
L 85.061677 307.270441 
L 85.258676 307.008754 
L 85.455675 306.489183 
L 85.652674 304.331795 
L 85.849673 305.892219 
L 86.046673 305.425882 
L 86.243672 306.491182 
L 86.440671 306.626565 
L 86.834669 307.329708 
L 87.031668 307.447217 
L 87.228667 307.0941 
L 87.425666 301.237048 
L 87.622665 305.430606 
L 87.819665 306.096952 
L 88.016664 306.006768 
L 88.607661 306.010497 
L 88.80466 306.73157 
L 89.001659 306.339021 
L 89.198658 306.895832 
L 89.789656 306.096462 
L 90.183654 307.125201 
L 90.380653 305.654891 
L 90.774651 306.11233 
L 91.16865 307.197434 
L 91.365649 307.338644 
L 91.562648 300.605116 
L 91.956646 306.641411 
L 92.350644 305.666044 
L 92.744643 307.0336 
L 92.941642 306.26598 
L 93.33564 306.812071 
L 93.532639 306.071767 
L 93.729638 305.934195 
L 93.926637 306.678548 
L 94.123636 306.85451 
L 94.320635 306.355552 
L 94.517635 305.45748 
L 94.714634 305.913544 
L 94.911633 306.732702 
L 95.699629 307.440828 
L 96.093628 306.301912 
L 96.290627 306.183738 
L 96.684625 307.126904 
L 96.881624 307.289774 
L 97.078623 306.503863 
L 97.275622 306.458116 
L 97.472621 306.956466 
L 97.66962 306.511015 
L 97.86662 306.637243 
L 98.260618 307.288516 
L 98.654616 307.428935 
L 99.048614 305.886679 
L 99.245613 306.261421 
L 99.442613 306.061422 
L 99.836611 306.215594 
L 100.230609 307.156728 
L 100.427608 307.311783 
L 100.230609 307.393762 
L 100.427608 307.430299 
L 101.215605 307.207308 
L 101.412604 306.25261 
L 101.806602 307.298576 
L 102.2006 307.329536 
L 102.397599 306.313724 
L 102.2006 306.818538 
L 102.594598 306.215784 
L 102.791598 306.834214 
L 102.988597 306.897185 
L 103.185596 305.929336 
L 103.382595 306.69099 
L 103.579594 271.210108 
L 103.973592 298.39107 
L 104.36759 304.997313 
L 104.761589 306.646192 
L 104.958588 306.689048 
L 105.352586 307.19827 
L 105.549585 306.248091 
L 105.746584 306.800757 
L 105.943583 306.433161 
L 106.140583 306.40945 
L 106.337582 306.931047 
L 106.534581 306.631726 
L 106.928579 307.266198 
L 107.125578 307.37097 
L 107.322577 306.93817 
L 107.519576 306.168371 
L 107.716575 306.314043 
L 108.110574 307.105835 
L 108.504572 307.422926 
L 109.095569 307.519437 
L 109.489568 307.525997 
L 109.686567 306.242771 
L 109.883566 306.858033 
L 110.080565 306.388716 
L 109.883566 306.92068 
L 110.277564 307.188433 
L 110.474563 306.626999 
L 110.868561 307.283959 
L 111.26256 307.407123 
L 111.853557 307.382529 
L 112.050556 307.353964 
L 112.444554 307.42436 
L 113.232551 307.414483 
L 113.42955 306.777003 
L 113.626549 306.594685 
L 113.823548 307.078749 
L 114.020547 307.222103 
L 114.414545 307.066525 
L 114.611545 305.62628 
L 114.808544 305.845922 
L 114.611545 304.05504 
L 115.202542 306.44809 
L 115.59654 307.23575 
L 115.793539 306.672343 
L 115.990538 307.173244 
L 116.581536 307.413091 
L 116.588738 -1 
M 117.741854 -1 
L 117.96053 167.692403 
L 118.354528 272.01992 
L 118.748526 298.658171 
L 119.142524 305.231575 
L 119.339523 305.5267 
L 119.733522 306.945415 
L 120.12752 307.176933 
L 120.324519 307.269761 
L 120.521518 306.583306 
L 120.718517 306.948896 
L 120.521518 307.212318 
L 121.112515 307.454637 
L 121.506514 307.33094 
L 121.703513 307.400778 
L 122.097511 307.292714 
L 122.491509 307.468701 
L 123.476505 307.46699 
L 123.673504 306.524219 
L 123.870503 307.027748 
L 124.067502 307.099622 
L 124.264501 306.824216 
L 124.4615 307.145527 
L 124.6585 304.506426 
L 124.855499 305.979535 
L 125.446496 307.069768 
L 125.643495 306.567667 
L 125.840494 305.59791 
L 126.037493 306.525277 
L 126.234492 306.478195 
L 126.431492 306.965419 
L 126.628491 305.922312 
L 126.82549 306.687477 
L 127.022489 306.376521 
L 127.219488 305.627863 
L 127.416487 306.39968 
L 127.613486 305.639442 
L 128.007485 306.058194 
L 127.613486 305.678053 
L 128.401483 305.968687 
L 128.598482 304.615836 
L 128.795481 301.104079 
L 128.99248 304.31275 
L 129.189479 302.574075 
L 129.583477 306.135739 
L 129.780477 305.793403 
L 129.977476 304.497905 
L 130.174475 305.986823 
L 130.371474 306.026194 
L 130.377848 -1 
M 131.743364 -1 
L 131.947467 157.551568 
L 132.341465 269.473704 
L 132.735463 293.749784 
L 133.129462 303.680159 
L 133.52346 306.989133 
L 133.720459 301.670221 
L 133.917458 304.572981 
L 134.114457 292.353443 
L 134.902454 304.35155 
L 135.099453 305.304761 
L 135.296452 305.091982 
L 135.493451 306.251559 
L 135.69045 298.626851 
L 136.084448 304.910975 
L 136.281447 304.726009 
L 136.675446 306.782534 
L 136.872445 305.846756 
L 137.266443 306.517032 
L 137.463442 305.698118 
L 137.660441 306.635368 
L 137.85744 306.941641 
L 138.05444 306.729349 
L 138.251439 307.250325 
L 138.842436 306.703882 
L 139.039435 306.097322 
L 139.236434 303.86486 
L 139.433433 304.05067 
L 139.827432 306.406755 
L 140.418429 307.415663 
L 140.812427 306.117323 
L 141.206425 306.088087 
L 141.403425 304.788532 
L 141.600424 306.120587 
L 141.797423 305.178534 
L 142.191421 306.720325 
L 142.38842 306.202434 
L 142.585419 305.219457 
L 142.782418 306.396037 
L 142.979417 303.642499 
L 143.176417 305.547571 
L 143.373416 305.130536 
L 143.570415 305.610616 
L 143.767414 305.458481 
L 143.964413 306.455864 
L 144.161412 302.105902 
L 144.55541 306.013594 
L 144.75241 305.655753 
L 145.146408 306.145886 
L 145.540406 307.082361 
L 145.737405 306.913978 
L 145.934404 306.939738 
L 146.131403 305.588109 
L 146.328402 305.44301 
L 146.525402 306.443707 
L 146.722401 305.776274 
L 146.9194 304.055681 
L 146.722401 303.707591 
L 147.116399 305.580117 
L 147.510397 306.117605 
L 147.707396 303.994074 
L 146.9194 305.620994 
L 148.495393 306.296154 
L 148.692392 306.874399 
L 148.889391 306.469982 
L 149.283389 306.305045 
L 149.480388 306.846461 
L 149.677387 305.53783 
L 150.071386 306.385894 
L 150.465384 307.165623 
L 150.662383 306.615594 
L 150.859382 307.007984 
L 151.056381 306.990526 
L 151.25338 306.528045 
L 151.45038 305.038383 
L 151.647379 306.015017 
L 151.844378 306.021454 
L 152.238376 306.960935 
L 152.632374 306.296437 
L 152.829373 306.496223 
L 153.026372 306.335548 
L 153.223372 305.81673 
L 153.61737 306.301791 
L 153.814369 306.183678 
L 154.011368 306.315392 
L 154.208367 306.884018 
L 154.405366 306.047546 
L 154.602365 302.371505 
L 154.799365 303.953804 
L 154.996364 304.140405 
L 155.193363 304.738934 
L 155.390362 304.951879 
L 155.587361 295.81424 
L 155.981359 303.134889 
L 156.178358 304.727823 
L 156.375357 304.482152 
L 156.572357 305.273858 
L 156.769356 304.851499 
L 156.966355 283.928689 
L 157.360353 300.243125 
L 157.754351 304.733736 
L 157.95135 305.155844 
L 158.14835 304.944813 
L 158.542348 305.785377 
L 158.14835 292.228658 
L 159.330344 304.664112 
L 159.527343 304.981012 
L 159.724342 305.074484 
L 159.921342 305.570025 
L 160.118341 301.849841 
L 160.512339 305.023123 
L 160.906337 306.425047 
L 161.300335 306.104235 
L 161.497335 306.212496 
L 161.891333 306.099666 
L 162.285331 305.429677 
L 162.48233 305.994805 
L 162.285331 305.575626 
L 162.679329 303.232293 
L 163.073327 305.44696 
L 163.467326 306.929426 
L 163.664325 303.909193 
L 163.861324 304.603552 
L 164.058323 2.406762 
L 164.452321 230.36076 
L 164.64932 268.797871 
L 165.043319 287.431718 
L 164.64932 297.33335 
L 165.240318 301.055523 
L 165.437317 303.859897 
L 165.634316 304.22704 
L 166.225313 306.615989 
L 166.422312 301.710887 
L 166.816311 304.876199 
L 167.210309 305.941625 
L 167.407308 304.993831 
L 167.801306 306.769591 
L 167.998305 307.067524 
L 168.392304 306.200995 
L 168.589303 306.071263 
L 168.786302 306.57237 
L 168.983301 306.192266 
L 169.1803 306.792206 
L 169.377299 306.88166 
L 169.574298 306.476463 
L 169.771297 306.964553 
L 169.968297 306.87838 
L 170.165296 305.727793 
L 170.559294 306.898791 
L 170.756293 306.21081 
L 170.953292 306.831727 
L 171.150291 306.886688 
L 171.34729 307.181215 
L 171.544289 307.031619 
L 171.741289 305.122382 
L 172.135287 305.829769 
L 172.332286 305.947667 
L 172.529285 304.113082 
L 172.726284 305.782863 
L 173.120282 304.581837 
L 173.317282 305.497103 
L 173.514281 305.397507 
L 173.908279 306.833603 
L 174.105278 307.143062 
L 174.302277 305.751278 
L 174.499276 306.447297 
L 174.893274 306.795084 
L 175.090274 301.764084 
L 175.287273 304.608364 
L 175.484272 305.676018 
L 175.681271 305.13624 
L 175.87827 305.221294 
L 176.075269 303.492698 
L 175.87827 304.952533 
L 176.272268 306.202588 
L 176.469267 306.249671 
L 176.666267 306.851157 
L 176.863266 306.078752 
L 177.060265 306.392366 
L 177.257264 303.710041 
L 177.454263 304.926467 
L 177.848261 304.387815 
L 178.242259 306.122834 
L 178.636258 307.088469 
L 178.833257 307.270556 
L 179.030256 307.232495 
L 179.227255 307.354118 
L 179.424254 306.883243 
L 179.818252 306.670236 
L 180.015252 307.072989 
L 180.212251 306.752051 
L 180.40925 307.038525 
L 180.606249 306.895333 
L 180.803248 306.480449 
L 181.000247 306.741157 
L 181.197246 306.133216 
L 181.394245 306.79293 
L 181.591244 306.463078 
L 181.788244 306.957861 
L 182.182242 307.15419 
L 182.198104 -1 
M 183.110653 -1 
L 183.364237 186.517463 
L 183.758235 273.898942 
L 183.955234 290.487127 
L 184.349232 300.159492 
L 184.940229 305.580981 
L 185.137229 306.528361 
L 185.334228 306.795281 
L 185.728226 306.5951 
L 186.122224 306.86345 
L 186.319223 305.306509 
L 186.516222 304.729321 
L 186.713222 306.090982 
L 187.10722 305.476886 
L 187.501218 305.905789 
L 187.698217 305.985677 
L 187.895216 301.119159 
L 188.092215 304.094653 
L 188.683213 306.767064 
L 188.880212 306.37642 
L 189.077211 305.394289 
L 189.27421 305.513919 
L 189.668208 306.490251 
L 189.865207 306.277908 
L 190.062207 304.484745 
L 189.865207 305.275155 
L 190.259206 305.67036 
L 190.456205 305.484136 
L 191.4412 306.889873 
L 191.638199 304.69196 
L 192.032198 306.774021 
L 192.229197 305.754053 
L 192.426196 306.603348 
L 192.820194 306.944103 
L 193.214192 307.061919 
L 193.411192 307.047881 
L 193.214192 307.250262 
L 193.608191 306.657913 
L 193.80519 306.912088 
L 194.002189 306.515728 
L 194.199188 306.473421 
L 194.396187 306.963032 
L 194.790185 307.015257 
L 194.987184 307.030403 
L 195.184184 306.168277 
L 195.578182 307.040336 
L 195.775181 307.258038 
L 195.97218 306.770113 
L 196.366178 307.209169 
L 196.563177 306.921624 
L 196.760177 307.187134 
L 196.957176 306.242523 
L 197.154175 306.12241 
L 197.351174 306.787527 
L 197.548173 299.491021 
L 197.745172 302.778293 
L 197.942171 302.372974 
L 198.336169 305.142417 
L 198.730168 306.875087 
L 199.124166 305.654259 
L 199.321165 305.859912 
L 199.518164 303.852653 
L 199.715163 304.959109 
L 200.306161 306.657156 
L 200.50316 306.855581 
L 200.897158 306.356755 
L 201.094157 306.904699 
L 201.291156 306.335212 
L 201.094157 305.285846 
L 201.488155 305.424039 
L 201.882154 305.905183 
L 202.079153 305.733653 
L 202.276152 306.409494 
L 202.473151 306.052411 
L 202.67015 302.580712 
L 202.867149 303.998069 
L 203.064148 302.539846 
L 203.261147 304.607476 
L 203.458147 299.880794 
L 203.852145 304.61076 
L 204.049144 306.085851 
L 204.443142 306.479079 
L 204.640141 306.97741 
L 205.034139 306.382462 
L 205.231139 306.632165 
L 205.625137 306.23981 
L 205.822136 306.469601 
L 206.216134 306.205031 
L 206.019135 306.135298 
L 206.807132 306.32137 
L 207.398129 306.210528 
L 207.595128 306.691695 
L 207.792127 303.886659 
L 207.989126 305.669651 
L 208.186125 305.483781 
L 208.383124 305.774673 
L 208.580124 305.6101 
L 208.777123 302.41265 
L 208.974122 304.932647 
L 209.171121 301.759256 
L 209.565119 305.983685 
L 209.762118 306.111758 
L 209.959117 305.358887 
L 210.156117 305.145802 
L 210.550115 306.410378 
L 210.944113 306.053694 
L 211.141112 306.753169 
L 211.338111 301.415916 
L 211.53511 304.129102 
L 211.732109 303.506996 
L 212.126108 306.10666 
L 212.323107 306.779651 
L 212.520106 306.038782 
L 212.717105 306.745712 
L 213.111103 306.060602 
L 213.505102 306.549245 
L 213.702101 306.647535 
L 213.8991 225.215278 
L 214.096099 282.583191 
L 214.490097 300.187942 
L 214.687096 303.126753 
L 214.884095 303.129585 
L 215.081094 302.255414 
L 215.475093 305.884015 
L 215.869091 306.8205 
L 216.06609 306.783124 
L 216.263089 306.466865 
L 216.460088 307.013853 
L 216.657087 306.713111 
L 217.051086 307.189114 
L 217.248085 306.929938 
L 217.445084 288.084809 
L 217.839082 301.872683 
L 218.23308 305.449543 
L 218.430079 304.340721 
L 218.627079 305.635191 
L 218.824078 304.825824 
L 219.021077 305.877742 
L 219.218076 306.082383 
L 219.612074 303.926649 
L 220.203071 306.753339 
L 220.400071 304.968039 
L 220.59707 305.692054 
L 220.794069 305.87881 
L 220.991068 301.346883 
L 221.385066 305.317942 
L 221.779064 306.223141 
L 221.582065 306.144353 
L 221.976064 305.721132 
L 222.173063 304.064675 
L 222.370062 304.823464 
L 222.567061 304.434489 
L 222.76406 305.943867 
L 223.355057 307.145081 
L 223.552056 306.605323 
L 223.749056 305.293177 
L 223.946055 305.384934 
L 224.143054 304.626372 
L 224.537052 304.8818 
L 224.734051 305.473682 
L 224.93105 302.939697 
L 224.916847 -1 
M 225.686824 -1 
L 225.916046 172.974743 
L 225.719047 239.520154 
L 226.507043 296.865982 
L 226.901041 303.856554 
L 227.098041 305.14283 
L 227.29504 305.604197 
L 227.492039 286.930345 
L 227.886037 296.735483 
L 228.083036 289.606541 
L 228.280035 298.233718 
L 228.477034 276.645556 
L 228.871033 298.518649 
L 229.068032 301.908281 
L 229.265031 292.19294 
L 229.46203 299.129253 
L 230.053027 302.597409 
L 230.250026 296.743986 
L 230.644025 303.787833 
L 230.841024 304.012157 
L 231.038023 298.768286 
L 231.432021 305.153405 
L 231.62902 305.609485 
L 231.826019 304.071069 
L 232.023019 305.37911 
L 232.220018 285.669671 
L 232.614016 292.314389 
L 233.008014 302.76892 
L 233.402012 304.965384 
L 233.599011 305.011351 
L 233.796011 304.623915 
L 233.99301 305.34474 
L 234.190009 303.242979 
L 234.387008 304.654272 
L 234.584007 304.110624 
L 234.781006 305.088094 
L 234.978005 296.585271 
L 235.175004 295.66799 
L 235.372004 303.480506 
L 235.569003 304.773035 
L 235.766002 302.957126 
L 236.16 305.288455 
L 236.553998 301.085471 
L 236.750997 303.575518 
L 237.144996 305.25114 
L 237.341995 305.274526 
L 237.538994 214.736324 
L 237.341995 260.400944 
L 237.932992 294.089923 
L 238.32699 298.730051 
L 238.523989 299.165346 
L 238.917988 304.309863 
L 239.114987 297.751578 
L 239.508985 299.23233 
L 239.705984 301.260571 
L 239.902983 301.171097 
L 240.099982 303.587684 
L 240.296981 297.239123 
L 240.493981 301.621993 
L 239.902983 303.459952 
L 240.69098 304.762759 
L 240.887979 301.674312 
L 241.478976 300.297177 
L 241.675975 300.669227 
L 241.872974 304.060935 
L 242.266973 305.533761 
L 242.660971 305.101664 
L 243.251968 302.580943 
L 243.448967 305.017094 
L 243.645966 302.858811 
L 244.039965 305.148229 
L 244.236964 294.905165 
L 244.433963 292.654205 
L 244.827961 302.223269 
L 245.02496 304.623657 
L 245.221959 302.882437 
L 245.418959 302.995619 
L 245.615958 304.530592 
L 245.812957 302.682996 
L 246.009956 305.06782 
L 246.206955 305.553623 
L 246.403954 299.130838 
L 246.600953 297.262868 
L 247.191951 304.576682 
L 247.38895 304.937297 
L 247.585949 304.820948 
L 247.782948 298.971831 
L 247.979947 298.506563 
L 248.176946 300.77272 
L 248.373945 299.807505 
L 248.570944 295.500399 
L 248.964943 303.150053 
L 249.161942 297.785474 
L 249.55594 303.26667 
L 249.752939 302.693551 
L 249.949938 303.995731 
L 250.146937 261.391179 
L 250.343936 282.270674 
L 250.737935 273.250179 
L 250.934934 291.09441 
L 251.131933 298.579988 
L 251.525931 300.077752 
L 251.919929 304.096154 
L 252.116929 301.644578 
L 252.313928 296.418935 
L 252.510927 301.992063 
L 252.707926 304.028814 
L 252.904925 301.208433 
L 253.298923 305.352908 
L 252.904925 305.678885 
L 253.495922 303.380254 
L 253.889921 306.400455 
L 254.08692 306.508526 
L 254.283919 298.85091 
L 254.480918 302.074411 
L 254.677917 300.46481 
L 255.071915 304.742715 
L 255.268914 297.794558 
L 255.859912 304.699849 
L 256.056911 299.160727 
L 256.450909 304.840981 
L 256.647908 305.453273 
L 256.844907 305.336752 
L 257.041906 304.090783 
L 257.435905 306.265409 
L 257.632904 301.360225 
L 257.829903 299.91389 
L 258.223901 305.274155 
L 258.4209 305.286033 
L 258.814898 305.870682 
L 259.011898 298.531988 
L 259.208897 302.992315 
L 259.405896 304.145114 
L 259.602895 301.306334 
L 259.799894 303.302123 
L 259.996893 302.068761 
L 260.193892 303.683336 
L 260.390891 302.977576 
L 260.78489 305.987408 
L 260.981889 306.720026 
L 261.178888 303.473633 
L 260.981889 301.850437 
L 261.375887 301.02165 
L 261.769885 305.498125 
L 262.163883 303.319671 
L 261.769885 305.386157 
L 261.897753 -1 
M 262.790381 -1 
L 262.95188 218.004316 
L 263.345878 284.299628 
L 263.739876 299.23051 
L 263.936876 302.095027 
L 263.542877 303.696469 
L 263.936876 304.328007 
L 264.133875 305.890325 
L 264.330874 305.598336 
L 264.527873 306.133764 
L 264.724872 305.439041 
L 265.11887 302.299841 
L 265.315869 304.876242 
L 265.512868 303.044415 
L 265.709868 304.55499 
L 265.906867 303.316313 
L 266.300865 305.140128 
L 266.497864 298.512421 
L 266.891862 305.540749 
L 267.285861 306.986219 
L 267.48286 306.739299 
L 267.679859 306.862765 
L 267.876858 305.709077 
L 268.073857 306.224137 
L 268.270856 306.144851 
L 268.467855 305.891531 
L 268.861853 306.025268 
L 269.058853 306.738956 
L 269.255852 306.022652 
L 269.64985 305.786081 
L 269.846849 303.188698 
L 270.043848 302.269798 
L 270.240847 304.167681 
L 270.437846 304.354789 
L 270.634846 303.325186 
L 270.831845 305.440834 
L 271.028844 305.312452 
L 271.225843 306.438821 
L 271.619841 306.127215 
L 272.013839 307.132835 
L 272.210838 307.460811 
L 272.407838 304.301014 
L 272.604837 305.055014 
L 272.801836 306.308643 
L 273.195834 305.540002 
L 273.392833 303.549233 
L 273.786831 304.807399 
L 273.983831 306.130021 
L 274.18083 305.721953 
L 274.574828 307.100833 
L 274.771827 306.583199 
L 275.165825 301.830089 
L 275.559823 305.006696 
L 275.756823 303.780716 
L 275.953822 305.672803 
L 276.150821 305.316174 
L 275.953822 306.436328 
L 276.544819 307.250483 
L 276.741818 306.274198 
L 277.135816 307.158032 
L 277.529815 305.887595 
L 277.726814 303.361497 
L 277.923813 306.457994 
L 278.120812 307.231235 
L 278.317811 307.398099 
L 278.51481 304.950161 
L 278.711809 306.256304 
L 278.908808 306.160935 
L 279.302807 307.212654 
L 279.499806 307.387602 
L 279.696805 306.726584 
L 279.893804 307.143763 
L 280.484801 307.496989 
L 280.8788 306.130982 
L 281.075799 306.807503 
L 281.272798 306.052707 
L 281.469797 306.241911 
L 281.666796 306.056643 
L 281.469797 306.754643 
L 281.863795 306.026278 
L 282.060794 304.235353 
L 282.454793 306.678314 
L 282.651792 303.879969 
L 283.04579 307.068933 
L 283.242789 306.18764 
L 283.636787 300.957248 
L 283.242789 304.204945 
L 284.030786 305.828794 
L 284.621783 305.60981 
L 284.818782 306.237535 
L 285.21278 304.787082 
L 285.409779 305.609098 
L 285.606778 305.453505 
L 285.803778 305.759535 
L 286.000777 296.333851 
L 286.197776 301.893247 
L 286.985772 305.792162 
L 287.182771 305.545037 
L 286.591774 303.190218 
L 287.379771 302.332701 
L 287.57677 303.815306 
L 287.773769 300.817853 
L 287.970768 304.135248 
L 288.167767 304.359818 
L 288.364766 302.814817 
L 288.167767 304.056364 
L 288.758764 306.611119 
L 288.955763 306.338342 
L 289.152763 305.167857 
L 289.546761 306.791995 
L 289.74376 307.122319 
L 289.940759 306.210115 
L 290.334757 307.201998 
L 290.531756 307.361646 
L 290.925755 303.542041 
L 291.122754 302.62335 
L 291.516752 305.706637 
L 291.713751 304.832083 
L 291.91075 299.385008 
L 292.107749 297.780736 
L 292.501748 303.994358 
L 292.698747 302.746343 
L 293.092745 305.737385 
L 293.486743 294.107493 
L 293.683742 300.086529 
L 293.880741 300.922344 
L 294.077741 302.264678 
L 294.27474 304.914934 
L 294.668738 305.95211 
L 294.865737 306.125692 
L 295.062736 305.904726 
L 295.259735 305.985146 
L 295.456734 303.437053 
L 295.653733 305.112077 
L 295.850733 301.269107 
L 296.244731 305.049225 
L 296.44173 305.917732 
L 296.638729 303.376566 
L 296.835728 305.414605 
L 297.032727 305.922859 
L 297.229726 305.994212 
L 297.426726 304.021471 
L 297.820724 305.791718 
L 298.017723 305.997103 
L 298.214722 305.962906 
L 298.411721 305.809726 
L 298.805719 305.960088 
L 299.199718 304.543773 
L 299.396717 306.050127 
L 299.593716 305.67402 
L 299.790715 306.57488 
L 299.987714 304.720049 
L 300.184713 297.805306 
L 300.381712 302.683877 
L 300.578711 304.732782 
L 300.775711 299.842392 
L 301.169709 306.591567 
L 301.366708 307.074024 
L 301.563707 306.569794 
L 301.760706 307.067261 
L 301.957705 304.074442 
L 302.154704 305.81963 
L 302.351703 305.558771 
L 302.548703 305.812168 
L 302.745702 304.504576 
L 303.1397 305.89795 
L 303.336699 305.602149 
L 303.533698 306.451337 
L 304.124695 304.337186 
L 304.321695 305.894914 
L 303.730697 302.699347 
L 304.518694 304.382456 
L 304.912692 301.991548 
L 305.30669 305.496802 
L 305.503689 304.667664 
L 305.897688 306.557103 
L 306.094687 306.4664 
L 306.291686 306.97107 
L 306.488685 306.518318 
L 306.882683 304.710937 
L 307.079682 305.388251 
L 307.276681 298.290772 
L 307.47368 302.923627 
L 307.67068 303.408655 
L 307.867679 303.270525 
L 308.261677 306.120331 
L 308.064678 305.709121 
L 308.458676 305.890763 
L 308.655675 298.904066 
L 309.049673 305.342957 
L 309.246673 299.055033 
L 309.443672 304.312932 
L 309.640671 305.937551 
L 309.83767 304.852355 
L 310.034669 302.843877 
L 310.428667 305.965231 
L 310.474761 -1 
M 311.045668 -1 
L 311.413663 219.14259 
L 311.807661 283.797274 
L 312.201659 301.56476 
L 312.398658 304.56326 
L 312.595658 304.197907 
L 312.792657 305.057825 
L 312.989656 305.182086 
L 313.186655 305.120014 
L 313.383654 304.314124 
L 313.580653 304.806018 
L 313.974651 305.104558 
L 314.17165 304.670519 
L 314.36865 306.061581 
L 314.762648 304.697172 
L 314.959647 304.466826 
L 315.353645 306.359419 
L 315.550644 305.435821 
L 315.747643 305.063146 
L 315.944643 305.876132 
L 315.95181 -1 
M 317.095152 -1 
L 317.323636 174.222228 
L 317.717635 273.515796 
L 318.111633 297.754205 
L 318.505631 303.805716 
L 318.899629 305.454633 
L 318.70263 305.376272 
L 318.899629 305.179661 
L 319.096628 305.635779 
L 319.293628 306.59877 
L 319.490627 305.801177 
L 319.687626 306.62691 
L 319.884625 306.529012 
L 320.081624 307.002377 
L 320.278623 306.661392 
L 320.475622 305.979652 
L 320.672621 306.716147 
L 320.86962 306.390856 
L 321.460618 306.415124 
L 321.854616 307.273833 
L 322.051615 306.669699 
L 322.248614 305.089229 
L 322.642613 306.325648 
L 322.839612 306.56168 
L 323.036611 298.319773 
L 323.23361 305.251493 
L 323.430609 306.352068 
L 323.627608 303.429207 
L 323.824607 305.43033 
L 324.218605 304.821748 
L 324.612604 306.784325 
L 325.006602 307.367683 
L 326.188597 307.421107 
L 326.385596 306.743336 
L 326.582595 307.331396 
L 326.779594 307.21474 
L 326.976593 303.161877 
L 327.370591 305.652745 
L 327.76459 307.268537 
L 327.961589 307.36059 
L 328.355587 306.545683 
L 328.749585 307.309375 
L 328.946584 307.000005 
L 329.340583 307.298661 
L 329.537582 306.933896 
L 329.734581 306.115904 
L 329.93158 306.844261 
L 330.128579 258.648161 
L 330.522577 294.171466 
L 330.916575 303.650447 
L 331.113575 305.259017 
L 331.310574 305.662291 
L 331.507573 306.362962 
L 331.704572 305.386113 
L 331.901571 305.237262 
L 332.09857 306.344953 
L 332.689568 306.237659 
L 333.083566 307.160597 
L 333.280565 306.104759 
L 333.477564 306.79025 
L 333.871562 306.888873 
L 334.26556 307.32325 
L 334.46256 307.193454 
L 334.659559 306.245683 
L 335.053557 307.144963 
L 335.447555 307.321163 
L 335.591615 -1 
M 335.750577 -1 
L 336.038553 201.683787 
L 336.235552 254.215453 
L 337.023548 303.787135 
L 337.417546 306.618966 
L 337.614545 306.342266 
L 338.008544 307.263112 
L 338.205543 307.262061 
L 338.402542 307.413547 
L 338.79654 307.182537 
L 338.993539 306.243302 
L 339.190538 306.710696 
L 339.584537 306.991405 
L 339.781536 307.047675 
L 339.978535 307.310273 
L 340.569532 307.460727 
L 340.766531 306.968836 
L 341.16053 307.349015 
L 341.357529 307.412378 
L 341.554528 306.738972 
L 341.751527 307.096109 
L 341.948526 305.488224 
L 342.342524 306.880395 
L 342.736523 307.326905 
L 343.130521 307.289701 
L 343.32752 306.851035 
L 343.721518 307.20985 
L 343.918517 306.811109 
L 344.312515 307.374232 
L 344.509515 307.255594 
L 344.903513 306.660579 
L 345.297511 307.227537 
L 345.49451 307.396456 
L 345.691509 307.312007 
L 345.888508 306.688786 
L 346.085508 307.125273 
L 346.282507 307.024031 
L 346.676505 305.971685 
L 347.6615 307.44668 
L 348.055499 306.372296 
L 348.449497 307.144043 
L 348.646496 307.145853 
L 349.040494 307.496413 
L 349.237493 307.090348 
L 349.631492 307.414453 
L 350.02549 307.417561 
L 350.813486 307.517383 
L 351.010485 306.791474 
L 351.207485 306.887532 
L 351.404484 306.659323 
L 351.601483 307.056285 
L 351.995481 305.153717 
L 352.19248 306.355099 
L 352.389479 306.519435 
L 352.586478 306.986039 
L 352.783477 306.955076 
L 352.980477 306.693095 
L 353.177476 306.634937 
L 353.374475 307.055339 
L 353.571474 305.394498 
L 353.768473 306.479836 
L 354.162471 306.504108 
L 354.55647 305.46963 
L 354.753469 306.472686 
L 355.147467 306.463849 
L 355.541465 307.243555 
L 355.738464 306.782248 
L 356.132462 307.244799 
L 356.329462 307.161636 
L 357.314457 307.493644 
L 357.511456 306.975604 
L 357.708455 307.225415 
L 357.905455 306.892415 
L 358.299453 307.310435 
L 358.496452 306.864101 
L 358.89045 307.305658 
L 359.087449 307.232166 
L 359.284448 306.89579 
L 359.481447 307.234204 
L 360.072445 307.509277 
L 360.663442 307.484377 
L 360.860441 306.391144 
L 361.25444 307.244515 
L 361.451439 307.083372 
L 361.648438 307.327995 
L 362.042436 307.359341 
L 362.239435 307.295926 
L 362.633433 307.305209 
L 362.830432 306.685387 
L 363.027432 307.069015 
L 363.224431 307.075444 
L 363.42143 307.264043 
L 363.815428 307.300171 
L 364.012427 305.896656 
L 364.209426 306.023338 
L 364.406425 306.738292 
L 364.603425 306.910082 
L 364.800424 307.235512 
L 364.997423 305.49254 
L 365.194422 306.532357 
L 365.58842 307.111869 
L 365.785419 303.300325 
L 366.179417 306.319412 
L 366.376417 305.752805 
L 366.967414 307.162485 
L 367.361412 306.7968 
L 367.75541 307.288682 
L 367.95241 307.204545 
L 368.149409 307.243887 
L 368.346408 304.001899 
L 368.543407 305.727271 
L 368.740406 305.896418 
L 368.937405 306.68608 
L 369.134404 306.189504 
L 369.331403 306.379174 
L 369.528402 306.915909 
L 369.725402 306.10691 
L 369.922401 306.392141 
L 370.1194 306.228853 
L 370.316399 306.45044 
L 370.513398 305.240706 
L 370.907396 306.77462 
L 371.104395 306.480017 
L 371.301395 303.291552 
L 371.498394 305.372098 
L 371.695393 306.226985 
L 371.892392 305.762448 
L 372.089391 305.994722 
L 372.28639 306.723683 
L 372.483389 304.506639 
L 372.877387 305.025596 
L 373.074387 305.723022 
L 373.271386 305.326117 
L 373.665384 305.514408 
L 374.059382 306.11055 
L 374.256381 306.781597 
L 374.45338 306.315767 
L 374.65038 306.938764 
L 375.044378 306.321484 
L 375.438376 307.251494 
L 375.635375 307.35237 
L 375.832374 304.914712 
L 376.029373 306.183678 
L 376.226372 306.307396 
L 376.423372 306.795312 
L 376.620371 306.05083 
L 376.81737 306.423105 
L 377.014369 306.329627 
L 377.211368 306.838869 
L 377.408367 306.991753 
L 377.605366 307.395032 
L 378.787361 307.464884 
L 379.181359 307.516606 
L 379.575357 306.511755 
L 379.772357 302.416243 
L 379.969356 306.249547 
L 380.166355 306.851095 
L 380.363354 306.81666 
L 380.560353 307.383628 
L 380.954351 305.759558 
L 381.15135 305.912562 
L 381.34835 306.682602 
L 381.545349 306.374084 
L 381.939347 307.401535 
L 382.136346 306.73355 
L 382.333345 298.697911 
L 382.727343 305.248425 
L 382.924342 306.9043 
L 383.121342 307.128914 
L 383.318341 306.597239 
L 383.51534 307.024941 
L 383.909338 305.194098 
L 384.106337 306.434009 
L 384.303336 306.249787 
L 384.500335 304.406254 
L 384.697335 305.235909 
L 384.894334 304.890547 
L 385.091333 305.013088 
L 385.288332 306.232866 
L 385.485331 305.622999 
L 385.68233 305.460455 
L 385.879329 305.822119 
L 386.076328 306.637381 
L 386.470327 306.016049 
L 386.667326 305.65698 
L 386.864325 304.470223 
L 387.258323 306.707189 
L 387.455322 306.347147 
L 387.652321 305.048358 
L 388.04632 306.103889 
L 388.243319 304.333304 
L 388.637317 306.678583 
L 388.834316 307.077162 
L 389.228314 306.157302 
L 389.425313 306.203172 
L 389.622312 306.827908 
L 389.819312 306.46442 
L 390.410309 307.187675 
L 390.607308 306.62662 
L 390.804307 303.475811 
L 391.001306 304.770688 
L 391.198305 305.295312 
L 391.395305 305.341632 
L 391.592304 306.36065 
L 391.789303 306.572526 
L 391.986302 306.393584 
L 392.183301 305.975933 
L 392.3803 306.678269 
L 392.577299 306.371917 
L 393.168297 307.030474 
L 393.365296 307.026229 
L 393.431258 -1 
M 393.88934 -1 
L 394.153292 192.158241 
L 394.54729 277.868393 
L 394.744289 299.673323 
L 394.941289 290.847222 
L 394.980743 -1 
M 395.609165 -1 
L 395.926284 200.434655 
L 396.320282 280.545681 
L 396.714281 300.324672 
L 396.91128 303.754437 
L 397.108279 303.451564 
L 397.305278 304.918084 
L 397.502277 305.491825 
L 397.699276 305.34639 
L 397.896275 305.56432 
L 398.093274 306.323892 
L 398.487273 306.409806 
L 398.487273 306.409806 
" style="fill:none;stroke:#1f77b4;stroke-linecap:square;stroke-width:1.5;"/>
   </g>
   <g id="line2d_15">
    <path clip-path="url(#p1d91b87a8e)" d="M 73.832727 307.227289 
L 74.226726 307.288479 
L 74.620724 307.366557 
L 75.014722 307.366557 
L 75.211721 307.092914 
L 75.40872 307.092914 
L 75.211721 307.562429 
L 75.605719 305.906144 
L 75.802718 307.535557 
L 76.393716 307.460868 
L 76.984713 307.250486 
L 77.181712 307.137086 
L 77.378711 307.250486 
L 77.575711 307.548514 
L 79.348703 307.575564 
L 79.545702 306.781848 
L 79.742701 307.086121 
L 79.9397 307.086121 
L 80.136699 307.451279 
L 80.333698 307.451279 
L 80.727696 307.575564 
L 81.318694 307.575564 
L 81.515693 307.277297 
L 81.712692 307.277297 
L 81.909691 307.09734 
L 82.697688 307.149684 
L 82.894687 307.417434 
L 83.091686 307.149684 
L 83.288685 307.41197 
L 83.485684 306.58371 
L 83.682683 306.58371 
L 83.879682 306.718992 
L 84.076681 306.718992 
L 84.27368 307.43631 
L 84.667679 307.541114 
L 85.455675 307.475313 
L 85.652674 307.326184 
L 85.849673 307.326184 
L 86.046673 305.984126 
L 86.440671 305.984126 
L 86.63767 307.03802 
L 86.834669 307.440723 
L 87.031668 307.574915 
L 87.228667 307.440723 
L 87.425666 307.575564 
L 87.622665 307.575564 
L 87.819665 306.784008 
L 88.410662 306.763299 
L 88.607661 306.06537 
L 88.80466 307.543265 
L 89.001659 305.978297 
L 89.198658 305.978297 
L 89.395658 306.591607 
L 89.592657 306.591607 
L 89.789656 305.747252 
L 89.986655 305.900445 
L 90.577652 305.900445 
L 90.97165 307.540076 
L 91.365649 307.442137 
L 91.562648 306.898078 
L 91.759647 307.442137 
L 91.956646 307.295729 
L 93.33564 307.350774 
L 93.532639 307.575564 
L 94.911633 307.575564 
L 95.108632 307.117626 
L 95.305631 307.117626 
L 95.50263 306.072081 
L 95.699629 306.251186 
L 95.896628 306.072081 
L 96.093628 306.072081 
L 96.290627 305.822311 
L 96.487626 306.251186 
L 96.684625 307.082653 
L 97.275622 307.383907 
L 97.472621 307.383907 
L 97.66962 306.412368 
L 97.86662 306.412368 
L 98.063619 306.774562 
L 98.260618 307.392606 
L 98.851615 307.501817 
L 99.245613 307.548704 
L 99.836611 307.548704 
L 100.03361 307.061221 
L 100.230609 307.061221 
L 100.427608 307.535329 
L 100.230609 307.535329 
L 102.003601 307.46265 
L 102.594598 307.308798 
L 103.382595 307.324998 
L 103.579594 307.510405 
L 103.776593 307.510405 
L 103.973592 307.150297 
L 104.170591 307.37968 
L 104.56459 307.072037 
L 104.761589 307.072037 
L 105.155587 307.575564 
L 105.352586 307.575564 
L 105.549585 307.40138 
L 105.746584 307.381812 
L 105.943583 306.46347 
L 106.140583 306.46347 
L 106.534581 306.331788 
L 106.73158 306.331788 
L 106.928579 307.565073 
L 111.853557 307.536015 
L 112.050556 307.375232 
L 112.444554 307.375232 
L 112.641553 307.575564 
L 113.42955 307.468668 
L 113.823548 307.340267 
L 114.020547 307.340267 
L 114.217546 307.489524 
L 114.414545 307.489524 
L 114.611545 307.298193 
L 114.808544 307.294539 
L 114.611545 305.281678 
L 115.202542 305.281678 
L 115.399541 306.911408 
L 115.793539 307.575564 
L 116.778535 307.575564 
L 116.975534 307.267947 
L 117.172533 307.575564 
L 117.369532 307.575564 
L 117.566531 306.399511 
L 117.76353 306.399511 
L 117.96053 307.575564 
L 118.157529 307.46547 
L 118.551527 307.575564 
L 132.341465 307.575564 
L 132.538464 307.432298 
L 132.735463 307.575564 
L 141.600424 307.575564 
L 141.994422 307.462111 
L 142.38842 307.575564 
L 145.934404 307.558595 
L 146.328402 306.983171 
L 146.525402 306.983171 
L 146.722401 304.23648 
L 146.9194 304.176036 
L 146.722401 307.444405 
L 147.116399 307.575564 
L 147.313398 307.473773 
L 147.707396 307.575564 
L 146.9194 307.473773 
L 148.692392 307.575564 
L 148.889391 307.235803 
L 149.08639 306.649394 
L 149.480388 306.649394 
L 149.677387 307.573855 
L 149.874387 307.430751 
L 151.647379 307.461725 
L 151.844378 307.551177 
L 152.041377 307.461725 
L 152.435375 307.461725 
L 153.026372 307.436439 
L 153.223372 306.412368 
L 153.420371 306.412368 
L 153.61737 307.468957 
L 154.011368 307.468957 
L 154.208367 307.002429 
L 154.405366 306.991033 
L 154.602365 306.581239 
L 154.996364 305.340077 
L 155.193363 305.320238 
L 155.78436 306.504309 
L 156.178358 306.504309 
L 156.375357 305.065869 
L 156.572357 304.594189 
L 156.769356 305.065869 
L 156.966355 304.539769 
L 157.163354 304.539769 
L 157.557352 305.028886 
L 157.754351 307.575564 
L 157.95135 307.575564 
L 158.14835 306.23125 
L 158.345349 307.14433 
L 158.542348 306.23125 
L 158.14835 306.128058 
L 158.739347 304.732912 
L 158.936346 306.128058 
L 159.133345 306.128058 
L 159.330344 304.72521 
L 159.527343 304.72521 
L 159.921342 307.183986 
L 160.118341 306.884019 
L 160.512339 306.952345 
L 160.709338 306.952345 
L 160.906337 307.400134 
L 161.103336 307.400134 
L 161.300335 307.575564 
L 161.694334 307.338668 
L 162.088332 307.338668 
L 162.285331 306.755255 
L 162.48233 306.755255 
L 162.285331 306.755255 
L 162.876328 304.765214 
L 163.270327 304.765214 
L 163.467326 306.977619 
L 164.058323 306.977619 
L 164.255322 305.894625 
L 164.452321 305.894625 
L 164.84632 307.333076 
L 165.043319 306.664672 
L 164.64932 307.245051 
L 165.437317 307.245051 
L 165.831315 307.122125 
L 166.028314 306.517102 
L 166.225313 306.328743 
L 166.422312 305.727919 
L 166.619312 306.020709 
L 166.816311 306.020709 
L 167.210309 305.89685 
L 167.407308 305.89685 
L 167.604307 306.318592 
L 167.801306 307.361979 
L 169.574298 307.446797 
L 169.771297 306.661906 
L 169.968297 307.446797 
L 170.165296 306.324443 
L 170.362295 306.324443 
L 170.559294 307.316551 
L 171.741289 307.208228 
L 171.938288 306.948732 
L 172.135287 306.924893 
L 172.332286 302.942781 
L 172.529285 301.935642 
L 172.923283 301.935642 
L 173.120282 306.665873 
L 173.317282 307.461619 
L 173.71128 307.461619 
L 173.908279 306.741721 
L 174.105278 307.461619 
L 174.302277 307.461621 
L 174.499276 306.741721 
L 174.696275 307.461621 
L 175.287273 307.442828 
L 175.484272 307.575564 
L 175.681271 307.442828 
L 175.87827 306.772065 
L 176.075269 306.772065 
L 175.87827 305.285831 
L 176.666267 305.285831 
L 176.863266 306.092431 
L 177.060265 306.092431 
L 177.257264 306.296754 
L 177.454263 307.503732 
L 177.848261 307.575564 
L 178.04526 307.575564 
L 178.242259 306.952109 
L 178.636258 306.952109 
L 178.833257 307.575564 
L 179.227255 307.575564 
L 179.424254 307.095739 
L 179.621253 307.095739 
L 179.818252 307.575564 
L 182.970238 307.57353 
L 183.364237 307.058667 
L 183.955234 307.058667 
L 184.74323 306.669456 
L 184.940229 306.669456 
L 185.137229 307.05734 
L 185.531227 307.05734 
L 185.728226 307.575564 
L 186.319223 307.575564 
L 186.516222 307.020164 
L 186.713222 306.806665 
L 186.910221 306.806665 
L 187.10722 306.503573 
L 187.698217 307.575564 
L 187.895216 307.094496 
L 188.092215 307.094496 
L 188.289214 307.575564 
L 188.683213 306.522459 
L 189.077211 307.575564 
L 190.062207 307.575564 
L 189.865207 307.458902 
L 190.456205 307.458902 
L 190.653204 306.598884 
L 190.850203 306.598884 
L 191.047202 307.575564 
L 194.790185 307.575564 
L 194.987184 307.013325 
L 195.184184 307.013325 
L 195.381183 307.575564 
L 196.366178 307.575564 
L 197.154175 306.699189 
L 197.351174 307.319576 
L 197.548173 307.557635 
L 198.336169 307.575564 
L 198.533169 306.580612 
L 199.124166 306.580612 
L 199.321165 307.575564 
L 200.306161 307.575564 
L 200.50316 307.393052 
L 200.700159 307.575564 
L 201.094157 307.117215 
L 201.291156 307.309868 
L 201.094157 307.309868 
L 201.488155 307.309868 
L 201.685154 307.117215 
L 201.882154 300.98226 
L 202.276152 300.98226 
L 202.473151 305.852053 
L 202.867149 307.575564 
L 203.458147 307.575564 
L 203.852145 306.947623 
L 204.049144 306.947623 
L 204.246143 306.670117 
L 204.640141 306.670117 
L 205.034139 307.575564 
L 207.989126 307.575564 
L 208.186125 307.257896 
L 208.974122 307.257896 
L 209.36812 307.575564 
L 211.338111 307.566075 
L 211.53511 307.001441 
L 211.732109 307.001441 
L 211.929109 307.566075 
L 212.717105 307.575564 
L 212.914104 307.32511 
L 213.111103 307.406436 
L 213.308102 307.32511 
L 214.096099 307.575564 
L 214.293098 307.575564 
L 214.490097 306.668132 
L 214.687096 306.313449 
L 215.081094 306.313449 
L 215.278094 306.977403 
L 215.081094 307.575564 
L 215.869091 307.575564 
L 216.06609 307.364412 
L 216.460088 307.364412 
L 216.657087 306.51019 
L 218.036081 306.473727 
L 218.23308 307.484036 
L 219.021077 307.484036 
L 219.415075 305.850378 
L 219.612074 306.823154 
L 219.809073 305.850378 
L 220.006072 305.850378 
L 220.203071 307.575564 
L 220.59707 307.575564 
L 221.779064 306.881094 
L 221.582065 306.744554 
L 222.173063 306.744554 
L 222.567061 305.200047 
L 222.76406 305.765359 
L 223.158058 305.765359 
L 223.355057 307.283004 
L 223.552056 307.575564 
L 225.128049 307.575564 
L 225.325049 306.329196 
L 225.522048 306.587014 
L 225.916046 306.587014 
L 225.719047 307.280809 
L 227.098041 307.17888 
L 227.492039 307.087779 
L 227.689038 307.087779 
L 227.886037 307.575564 
L 228.280035 306.860894 
L 229.068032 306.837914 
L 229.265031 302.192639 
L 229.856028 302.192639 
L 230.053027 307.086022 
L 230.250026 307.086022 
L 230.447026 307.336594 
L 230.644025 307.336594 
L 230.841024 307.086022 
L 231.038023 307.336594 
L 231.62902 307.314271 
L 231.826019 304.800422 
L 232.023019 307.212856 
L 232.811015 307.212856 
L 233.008014 307.575564 
L 233.205013 306.630161 
L 233.599011 306.630161 
L 233.796011 305.878206 
L 234.190009 305.878206 
L 234.387008 305.395797 
L 234.781006 306.374747 
L 234.978005 307.575564 
L 235.372004 307.575564 
L 235.569003 307.440831 
L 235.766002 304.713849 
L 235.963001 303.805189 
L 236.356999 303.805189 
L 236.553998 304.713849 
L 236.750997 307.388494 
L 236.947996 307.388494 
L 237.144996 307.575564 
L 237.735993 307.575564 
L 237.932992 306.747884 
L 238.129991 307.575564 
L 238.32699 307.575564 
L 238.523989 306.747884 
L 238.720989 306.747884 
L 238.917988 306.041651 
L 239.311986 306.041651 
L 239.508985 307.575564 
L 241.872974 307.575564 
L 242.069974 307.347647 
L 242.266973 306.814018 
L 242.463972 306.814018 
L 242.660971 307.575564 
L 247.585949 307.575564 
L 247.782948 306.838232 
L 247.979947 307.575564 
L 250.343936 307.575564 
L 250.540936 302.49768 
L 250.737935 303.075643 
L 250.934934 302.378807 
L 251.131933 303.882242 
L 251.525931 303.882242 
L 251.72293 302.129311 
L 252.510927 302.129311 
L 252.707926 305.236588 
L 252.904925 305.236588 
L 253.101924 301.16408 
L 253.298923 305.236588 
L 252.904925 305.236588 
L 253.495922 305.773752 
L 253.692921 306.929178 
L 253.889921 306.043835 
L 254.08692 306.616597 
L 254.283919 307.575564 
L 254.480918 307.575564 
L 254.677917 306.616597 
L 254.874916 306.616597 
L 255.071915 307.575564 
L 257.041906 307.575564 
L 257.238906 306.979633 
L 257.435905 307.413923 
L 257.632904 307.413923 
L 257.829903 306.979633 
L 258.026902 307.575564 
L 259.996893 307.575564 
L 260.193892 305.363884 
L 259.996893 305.363884 
L 260.390891 305.363884 
L 260.587891 307.575564 
L 263.739876 307.540255 
L 263.936876 305.841184 
L 263.542877 305.841184 
L 263.936876 305.156983 
L 264.133875 307.575564 
L 264.527873 307.575564 
L 264.724872 306.669192 
L 265.315869 306.669192 
L 265.512868 307.573051 
L 266.103866 307.573051 
L 266.300865 306.92893 
L 266.497864 306.92893 
L 266.694863 305.479117 
L 266.891862 305.209111 
L 267.48286 305.220587 
L 267.679859 307.575564 
L 270.043848 307.575564 
L 270.240847 301.592932 
L 270.437846 301.592932 
L 270.634846 305.2316 
L 270.831845 305.2316 
L 271.028844 305.398352 
L 271.225843 307.575564 
L 271.422842 307.575564 
L 271.619841 306.008538 
L 271.81684 306.008538 
L 272.013839 307.575564 
L 281.075799 307.575564 
L 281.272798 305.731055 
L 281.469797 305.731055 
L 281.666796 307.575564 
L 281.469797 307.575564 
L 292.895746 307.518106 
L 293.092745 307.008731 
L 293.683742 307.008731 
L 293.880741 307.575564 
L 294.077741 306.689118 
L 294.27474 307.575564 
L 294.668738 307.575564 
L 294.865737 307.048251 
L 295.062736 307.048251 
L 295.259735 306.695527 
L 295.456734 306.695527 
L 295.653733 307.047375 
L 295.850733 307.047375 
L 296.047732 307.575564 
L 302.154704 307.575564 
L 302.351703 305.660993 
L 302.548703 307.575564 
L 309.443672 307.575564 
L 309.83767 307.452643 
L 310.034669 307.452643 
L 310.231668 306.392829 
L 310.428667 307.452643 
L 310.822665 307.575564 
L 317.126637 307.575564 
L 317.323636 305.269554 
L 317.520635 307.575564 
L 317.717635 306.535754 
L 317.914634 306.535754 
L 318.111633 305.748296 
L 318.70263 305.748296 
L 318.899629 305.933701 
L 318.70263 307.575564 
L 319.490627 307.554187 
L 319.687626 306.178815 
L 320.278623 306.178815 
L 320.475622 305.451442 
L 320.672621 306.269202 
L 321.06662 306.332033 
L 321.263619 306.403406 
L 321.460618 306.62946 
L 321.854616 306.62946 
L 322.051615 306.918489 
L 322.248614 306.918489 
L 322.445613 307.565841 
L 323.430609 307.528739 
L 323.627608 307.41069 
L 324.021606 307.575564 
L 325.991598 307.388006 
L 326.188597 307.282532 
L 326.385596 306.513874 
L 326.582595 307.282532 
L 326.779594 307.207236 
L 326.976593 307.471599 
L 327.56759 307.575564 
L 327.76459 307.165845 
L 328.158588 307.165845 
L 328.552586 307.463525 
L 330.128579 307.575564 
L 330.325578 307.575564 
L 330.719576 307.133619 
L 331.113575 306.868095 
L 331.704572 306.867588 
L 332.09857 305.370344 
L 332.295569 306.201004 
L 332.492568 305.528917 
L 332.689568 306.201004 
L 333.083566 306.317715 
L 333.280565 307.278363 
L 333.477564 307.278363 
L 333.674563 307.575564 
L 333.871562 307.226438 
L 334.068561 307.575564 
L 334.46256 307.462181 
L 334.659559 307.462181 
L 334.856558 307.110095 
L 335.053557 307.110095 
L 335.250556 307.421117 
L 335.447555 307.421117 
L 335.644554 307.570788 
L 336.038553 307.444197 
L 336.62955 307.261758 
L 336.826549 307.40307 
L 337.220547 307.335836 
L 337.417546 307.486937 
L 339.387538 307.494994 
L 339.584537 307.104832 
L 339.978535 307.104832 
L 340.175534 307.531502 
L 341.751527 307.575564 
L 342.145525 307.392237 
L 342.342524 307.392237 
L 342.539523 307.066591 
L 342.736523 307.066591 
L 343.130521 307.575564 
L 343.32752 307.304307 
L 343.524519 307.304307 
L 343.721518 307.575564 
L 344.115516 307.081872 
L 344.312515 307.240852 
L 344.509515 307.575564 
L 345.100512 307.575564 
L 345.297511 307.366971 
L 345.49451 307.366971 
L 345.691509 307.575564 
L 346.282507 307.561646 
L 346.479506 305.668383 
L 346.676505 306.23903 
L 346.873504 305.668383 
L 347.070503 306.296411 
L 347.267502 306.307546 
L 347.464501 306.431059 
L 347.6615 307.33605 
L 347.8585 307.33605 
L 348.055499 307.471406 
L 351.798482 307.373775 
L 351.995481 305.843407 
L 352.19248 306.026749 
L 352.586478 306.026749 
L 352.783477 307.18363 
L 352.980477 307.457153 
L 353.177476 307.18363 
L 353.374475 307.475741 
L 355.147467 307.575564 
L 355.344466 306.661229 
L 355.541465 306.661229 
L 355.738464 306.464933 
L 355.935463 306.464933 
L 356.132462 307.306993 
L 356.329462 307.575564 
L 360.663442 307.509283 
L 361.05744 307.417481 
L 361.25444 307.417481 
L 361.451439 307.575564 
L 361.648438 307.044158 
L 361.845437 307.478641 
L 362.239435 307.575564 
L 363.027432 307.575564 
L 363.224431 307.177578 
L 363.618429 307.195417 
L 363.815428 307.301838 
L 364.012427 307.574322 
L 365.391421 307.575564 
L 365.58842 307.315368 
L 366.179417 307.362774 
L 366.770415 307.321489 
L 367.164413 307.575564 
L 368.543407 307.575564 
L 368.740406 305.688949 
L 368.937405 305.688949 
L 369.134404 307.575564 
L 370.710397 307.575564 
L 370.907396 307.249248 
L 371.104395 307.249248 
L 371.301395 307.575564 
L 373.074387 307.5692 
L 373.271386 304.967803 
L 373.468385 307.5692 
L 374.45338 307.575564 
L 374.65038 306.332434 
L 374.847379 307.575564 
L 385.68233 307.575564 
L 385.879329 306.147184 
L 386.076328 306.147184 
L 386.273327 307.575564 
L 388.440318 307.575564 
L 388.637317 307.440999 
L 388.834316 305.105108 
L 389.228314 305.105108 
L 389.425313 306.210516 
L 389.622312 306.210516 
L 389.819312 305.267418 
L 390.016311 305.267418 
L 390.607308 307.575564 
L 391.592304 307.575564 
L 391.789303 306.868782 
L 393.168297 306.887354 
L 393.365296 307.464842 
L 393.759294 307.575564 
L 398.487273 307.575564 
L 398.487273 307.575564 
" style="fill:none;stroke:#ff7f0e;stroke-linecap:square;stroke-width:1.5;"/>
   </g>
   <g id="patch_3">
    <path d="M 57.6 307.584 
L 57.6 41.472 
" style="fill:none;stroke:#000000;stroke-linecap:square;stroke-linejoin:miter;stroke-width:0.8;"/>
   </g>
   <g id="patch_4">
    <path d="M 414.72 307.584 
L 414.72 41.472 
" style="fill:none;stroke:#000000;stroke-linecap:square;stroke-linejoin:miter;stroke-width:0.8;"/>
   </g>
   <g id="patch_5">
    <path d="M 57.6 307.584 
L 414.72 307.584 
" style="fill:none;stroke:#000000;stroke-linecap:square;stroke-linejoin:miter;stroke-width:0.8;"/>
   </g>
   <g id="patch_6">
    <path d="M 57.6 41.472 
L 414.72 41.472 
" style="fill:none;stroke:#000000;stroke-linecap:square;stroke-linejoin:miter;stroke-width:0.8;"/>
   </g>
  </g>
 </g>
 <defs>
  <clipPath id="p1d91b87a8e">
   <rect height="266.112" width="357.12" x="57.6" y="41.472"/>
  </clipPath>
 </defs>
</svg>
