<?xml version="1.0" encoding="utf-8" standalone="no"?>
<!DOCTYPE svg PUBLIC "-//W3C//DTD SVG 1.1//EN"
  "http://www.w3.org/Graphics/SVG/1.1/DTD/svg11.dtd">
<svg height="288pt" version="1.1" viewBox="0 0 576 288" width="576pt" xmlns="http://www.w3.org/2000/svg" xmlns:xlink="http://www.w3.org/1999/xlink">
 <metadata>
  <rdf:RDF xmlns:cc="http://creativecommons.org/ns#" xmlns:dc="http://purl.org/dc/elements/1.1/" xmlns:rdf="http://www.w3.org/1999/02/22-rdf-syntax-ns#">
   <cc:Work>
    <dc:type rdf:resource="http://purl.org/dc/dcmitype/StillImage"/>
    <dc:date>2022-01-06T21:21:53.529671</dc:date>
    <dc:format>image/svg+xml</dc:format>
    <dc:creator>
     <cc:Agent>
      <dc:title>Matplotlib v3.4.3, https://matplotlib.org/</dc:title>
     </cc:Agent>
    </dc:creator>
   </cc:Work>
  </rdf:RDF>
 </metadata>
 <defs>
  <style type="text/css">*{stroke-linecap:butt;stroke-linejoin:round;}</style>
 </defs>
 <g id="figure_1">
  <g id="patch_1">
   <path d="M 0 288 
L 576 288 
L 576 0 
L 0 0 
z
" style="fill:#ffffff;"/>
  </g>
  <g id="axes_1">
   <g id="patch_2">
    <path d="M 72 256.32 
L 518.4 256.32 
L 518.4 34.56 
L 72 34.56 
z
" style="fill:#ffffff;"/>
   </g>
   <g id="matplotlib.axis_1">
    <g id="xtick_1">
     <g id="line2d_1">
      <defs>
       <path d="M 0 0 
L 0 3.5 
" id="ma595f22200" style="stroke:#000000;stroke-width:0.8;"/>
      </defs>
      <g>
       <use style="stroke:#000000;stroke-width:0.8;" x="92.290909" xlink:href="#ma595f22200" y="256.32"/>
      </g>
     </g>
     <g id="text_1">
      <!-- 39000 -->
      <g transform="translate(76.384659 270.918437)scale(0.1 -0.1)">
       <defs>
        <path d="M 2597 2516 
Q 3050 2419 3304 2112 
Q 3559 1806 3559 1356 
Q 3559 666 3084 287 
Q 2609 -91 1734 -91 
Q 1441 -91 1130 -33 
Q 819 25 488 141 
L 488 750 
Q 750 597 1062 519 
Q 1375 441 1716 441 
Q 2309 441 2620 675 
Q 2931 909 2931 1356 
Q 2931 1769 2642 2001 
Q 2353 2234 1838 2234 
L 1294 2234 
L 1294 2753 
L 1863 2753 
Q 2328 2753 2575 2939 
Q 2822 3125 2822 3475 
Q 2822 3834 2567 4026 
Q 2313 4219 1838 4219 
Q 1578 4219 1281 4162 
Q 984 4106 628 3988 
L 628 4550 
Q 988 4650 1302 4700 
Q 1616 4750 1894 4750 
Q 2613 4750 3031 4423 
Q 3450 4097 3450 3541 
Q 3450 3153 3228 2886 
Q 3006 2619 2597 2516 
z
" id="DejaVuSans-33" transform="scale(0.015625)"/>
        <path d="M 703 97 
L 703 672 
Q 941 559 1184 500 
Q 1428 441 1663 441 
Q 2288 441 2617 861 
Q 2947 1281 2994 2138 
Q 2813 1869 2534 1725 
Q 2256 1581 1919 1581 
Q 1219 1581 811 2004 
Q 403 2428 403 3163 
Q 403 3881 828 4315 
Q 1253 4750 1959 4750 
Q 2769 4750 3195 4129 
Q 3622 3509 3622 2328 
Q 3622 1225 3098 567 
Q 2575 -91 1691 -91 
Q 1453 -91 1209 -44 
Q 966 3 703 97 
z
M 1959 2075 
Q 2384 2075 2632 2365 
Q 2881 2656 2881 3163 
Q 2881 3666 2632 3958 
Q 2384 4250 1959 4250 
Q 1534 4250 1286 3958 
Q 1038 3666 1038 3163 
Q 1038 2656 1286 2365 
Q 1534 2075 1959 2075 
z
" id="DejaVuSans-39" transform="scale(0.015625)"/>
        <path d="M 2034 4250 
Q 1547 4250 1301 3770 
Q 1056 3291 1056 2328 
Q 1056 1369 1301 889 
Q 1547 409 2034 409 
Q 2525 409 2770 889 
Q 3016 1369 3016 2328 
Q 3016 3291 2770 3770 
Q 2525 4250 2034 4250 
z
M 2034 4750 
Q 2819 4750 3233 4129 
Q 3647 3509 3647 2328 
Q 3647 1150 3233 529 
Q 2819 -91 2034 -91 
Q 1250 -91 836 529 
Q 422 1150 422 2328 
Q 422 3509 836 4129 
Q 1250 4750 2034 4750 
z
" id="DejaVuSans-30" transform="scale(0.015625)"/>
       </defs>
       <use xlink:href="#DejaVuSans-33"/>
       <use x="63.623047" xlink:href="#DejaVuSans-39"/>
       <use x="127.246094" xlink:href="#DejaVuSans-30"/>
       <use x="190.869141" xlink:href="#DejaVuSans-30"/>
       <use x="254.492188" xlink:href="#DejaVuSans-30"/>
      </g>
     </g>
    </g>
    <g id="xtick_2">
     <g id="line2d_2">
      <g>
       <use style="stroke:#000000;stroke-width:0.8;" x="153.853133" xlink:href="#ma595f22200" y="256.32"/>
      </g>
     </g>
     <g id="text_2">
      <!-- 39250 -->
      <g transform="translate(137.946883 270.918437)scale(0.1 -0.1)">
       <defs>
        <path d="M 1228 531 
L 3431 531 
L 3431 0 
L 469 0 
L 469 531 
Q 828 903 1448 1529 
Q 2069 2156 2228 2338 
Q 2531 2678 2651 2914 
Q 2772 3150 2772 3378 
Q 2772 3750 2511 3984 
Q 2250 4219 1831 4219 
Q 1534 4219 1204 4116 
Q 875 4013 500 3803 
L 500 4441 
Q 881 4594 1212 4672 
Q 1544 4750 1819 4750 
Q 2544 4750 2975 4387 
Q 3406 4025 3406 3419 
Q 3406 3131 3298 2873 
Q 3191 2616 2906 2266 
Q 2828 2175 2409 1742 
Q 1991 1309 1228 531 
z
" id="DejaVuSans-32" transform="scale(0.015625)"/>
        <path d="M 691 4666 
L 3169 4666 
L 3169 4134 
L 1269 4134 
L 1269 2991 
Q 1406 3038 1543 3061 
Q 1681 3084 1819 3084 
Q 2600 3084 3056 2656 
Q 3513 2228 3513 1497 
Q 3513 744 3044 326 
Q 2575 -91 1722 -91 
Q 1428 -91 1123 -41 
Q 819 9 494 109 
L 494 744 
Q 775 591 1075 516 
Q 1375 441 1709 441 
Q 2250 441 2565 725 
Q 2881 1009 2881 1497 
Q 2881 1984 2565 2268 
Q 2250 2553 1709 2553 
Q 1456 2553 1204 2497 
Q 953 2441 691 2322 
L 691 4666 
z
" id="DejaVuSans-35" transform="scale(0.015625)"/>
       </defs>
       <use xlink:href="#DejaVuSans-33"/>
       <use x="63.623047" xlink:href="#DejaVuSans-39"/>
       <use x="127.246094" xlink:href="#DejaVuSans-32"/>
       <use x="190.869141" xlink:href="#DejaVuSans-35"/>
       <use x="254.492188" xlink:href="#DejaVuSans-30"/>
      </g>
     </g>
    </g>
    <g id="xtick_3">
     <g id="line2d_3">
      <g>
       <use style="stroke:#000000;stroke-width:0.8;" x="215.415357" xlink:href="#ma595f22200" y="256.32"/>
      </g>
     </g>
     <g id="text_3">
      <!-- 39500 -->
      <g transform="translate(199.509107 270.918437)scale(0.1 -0.1)">
       <use xlink:href="#DejaVuSans-33"/>
       <use x="63.623047" xlink:href="#DejaVuSans-39"/>
       <use x="127.246094" xlink:href="#DejaVuSans-35"/>
       <use x="190.869141" xlink:href="#DejaVuSans-30"/>
       <use x="254.492188" xlink:href="#DejaVuSans-30"/>
      </g>
     </g>
    </g>
    <g id="xtick_4">
     <g id="line2d_4">
      <g>
       <use style="stroke:#000000;stroke-width:0.8;" x="276.977582" xlink:href="#ma595f22200" y="256.32"/>
      </g>
     </g>
     <g id="text_4">
      <!-- 39750 -->
      <g transform="translate(261.071332 270.918437)scale(0.1 -0.1)">
       <defs>
        <path d="M 525 4666 
L 3525 4666 
L 3525 4397 
L 1831 0 
L 1172 0 
L 2766 4134 
L 525 4134 
L 525 4666 
z
" id="DejaVuSans-37" transform="scale(0.015625)"/>
       </defs>
       <use xlink:href="#DejaVuSans-33"/>
       <use x="63.623047" xlink:href="#DejaVuSans-39"/>
       <use x="127.246094" xlink:href="#DejaVuSans-37"/>
       <use x="190.869141" xlink:href="#DejaVuSans-35"/>
       <use x="254.492188" xlink:href="#DejaVuSans-30"/>
      </g>
     </g>
    </g>
    <g id="xtick_5">
     <g id="line2d_5">
      <g>
       <use style="stroke:#000000;stroke-width:0.8;" x="338.539806" xlink:href="#ma595f22200" y="256.32"/>
      </g>
     </g>
     <g id="text_5">
      <!-- 40000 -->
      <g transform="translate(322.633556 270.918437)scale(0.1 -0.1)">
       <defs>
        <path d="M 2419 4116 
L 825 1625 
L 2419 1625 
L 2419 4116 
z
M 2253 4666 
L 3047 4666 
L 3047 1625 
L 3713 1625 
L 3713 1100 
L 3047 1100 
L 3047 0 
L 2419 0 
L 2419 1100 
L 313 1100 
L 313 1709 
L 2253 4666 
z
" id="DejaVuSans-34" transform="scale(0.015625)"/>
       </defs>
       <use xlink:href="#DejaVuSans-34"/>
       <use x="63.623047" xlink:href="#DejaVuSans-30"/>
       <use x="127.246094" xlink:href="#DejaVuSans-30"/>
       <use x="190.869141" xlink:href="#DejaVuSans-30"/>
       <use x="254.492188" xlink:href="#DejaVuSans-30"/>
      </g>
     </g>
    </g>
    <g id="xtick_6">
     <g id="line2d_6">
      <g>
       <use style="stroke:#000000;stroke-width:0.8;" x="400.10203" xlink:href="#ma595f22200" y="256.32"/>
      </g>
     </g>
     <g id="text_6">
      <!-- 40250 -->
      <g transform="translate(384.19578 270.918437)scale(0.1 -0.1)">
       <use xlink:href="#DejaVuSans-34"/>
       <use x="63.623047" xlink:href="#DejaVuSans-30"/>
       <use x="127.246094" xlink:href="#DejaVuSans-32"/>
       <use x="190.869141" xlink:href="#DejaVuSans-35"/>
       <use x="254.492188" xlink:href="#DejaVuSans-30"/>
      </g>
     </g>
    </g>
    <g id="xtick_7">
     <g id="line2d_7">
      <g>
       <use style="stroke:#000000;stroke-width:0.8;" x="461.664254" xlink:href="#ma595f22200" y="256.32"/>
      </g>
     </g>
     <g id="text_7">
      <!-- 40500 -->
      <g transform="translate(445.758004 270.918437)scale(0.1 -0.1)">
       <use xlink:href="#DejaVuSans-34"/>
       <use x="63.623047" xlink:href="#DejaVuSans-30"/>
       <use x="127.246094" xlink:href="#DejaVuSans-35"/>
       <use x="190.869141" xlink:href="#DejaVuSans-30"/>
       <use x="254.492188" xlink:href="#DejaVuSans-30"/>
      </g>
     </g>
    </g>
   </g>
   <g id="matplotlib.axis_2">
    <g id="ytick_1">
     <g id="line2d_8">
      <defs>
       <path d="M 0 0 
L -3.5 0 
" id="m94a87c042f" style="stroke:#000000;stroke-width:0.8;"/>
      </defs>
      <g>
       <use style="stroke:#000000;stroke-width:0.8;" x="72" xlink:href="#m94a87c042f" y="229.617356"/>
      </g>
     </g>
     <g id="text_8">
      <!-- −3 -->
      <g transform="translate(50.257812 233.416574)scale(0.1 -0.1)">
       <defs>
        <path d="M 678 2272 
L 4684 2272 
L 4684 1741 
L 678 1741 
L 678 2272 
z
" id="DejaVuSans-2212" transform="scale(0.015625)"/>
       </defs>
       <use xlink:href="#DejaVuSans-2212"/>
       <use x="83.789062" xlink:href="#DejaVuSans-33"/>
      </g>
     </g>
    </g>
    <g id="ytick_2">
     <g id="line2d_9">
      <g>
       <use style="stroke:#000000;stroke-width:0.8;" x="72" xlink:href="#m94a87c042f" y="196.301486"/>
      </g>
     </g>
     <g id="text_9">
      <!-- −2 -->
      <g transform="translate(50.257812 200.100705)scale(0.1 -0.1)">
       <use xlink:href="#DejaVuSans-2212"/>
       <use x="83.789062" xlink:href="#DejaVuSans-32"/>
      </g>
     </g>
    </g>
    <g id="ytick_3">
     <g id="line2d_10">
      <g>
       <use style="stroke:#000000;stroke-width:0.8;" x="72" xlink:href="#m94a87c042f" y="162.985617"/>
      </g>
     </g>
     <g id="text_10">
      <!-- −1 -->
      <g transform="translate(50.257812 166.784836)scale(0.1 -0.1)">
       <defs>
        <path d="M 794 531 
L 1825 531 
L 1825 4091 
L 703 3866 
L 703 4441 
L 1819 4666 
L 2450 4666 
L 2450 531 
L 3481 531 
L 3481 0 
L 794 0 
L 794 531 
z
" id="DejaVuSans-31" transform="scale(0.015625)"/>
       </defs>
       <use xlink:href="#DejaVuSans-2212"/>
       <use x="83.789062" xlink:href="#DejaVuSans-31"/>
      </g>
     </g>
    </g>
    <g id="ytick_4">
     <g id="line2d_11">
      <g>
       <use style="stroke:#000000;stroke-width:0.8;" x="72" xlink:href="#m94a87c042f" y="129.669748"/>
      </g>
     </g>
     <g id="text_11">
      <!-- 0 -->
      <g transform="translate(58.6375 133.468967)scale(0.1 -0.1)">
       <use xlink:href="#DejaVuSans-30"/>
      </g>
     </g>
    </g>
    <g id="ytick_5">
     <g id="line2d_12">
      <g>
       <use style="stroke:#000000;stroke-width:0.8;" x="72" xlink:href="#m94a87c042f" y="96.353879"/>
      </g>
     </g>
     <g id="text_12">
      <!-- 1 -->
      <g transform="translate(58.6375 100.153097)scale(0.1 -0.1)">
       <use xlink:href="#DejaVuSans-31"/>
      </g>
     </g>
    </g>
    <g id="ytick_6">
     <g id="line2d_13">
      <g>
       <use style="stroke:#000000;stroke-width:0.8;" x="72" xlink:href="#m94a87c042f" y="63.038009"/>
      </g>
     </g>
     <g id="text_13">
      <!-- 2 -->
      <g transform="translate(58.6375 66.837228)scale(0.1 -0.1)">
       <use xlink:href="#DejaVuSans-32"/>
      </g>
     </g>
    </g>
   </g>
   <g id="line2d_14">
    <path clip-path="url(#p4d405ad0cd)" d="M 92.290909 192.061975 
L 92.537158 192.061975 
L 92.290909 192.061975 
L 92.783407 194.784833 
L 93.029656 199.223937 
L 93.768402 199.223937 
L 94.014651 187.436354 
L 94.2609 187.436354 
L 94.014651 232.655374 
L 94.507149 169.659111 
L 94.753398 220.949547 
L 94.999647 220.949547 
L 95.245896 207.452131 
L 95.492145 207.452131 
L 95.738394 203.563603 
L 95.984643 203.563603 
L 96.230891 193.034889 
L 96.47714 188.800103 
L 96.723389 193.034889 
L 96.969638 225.453275 
L 97.462136 225.453275 
L 97.708385 246.24 
L 97.954634 246.24 
L 98.200883 219.625954 
L 98.939629 219.625954 
L 99.185878 246.24 
L 99.432127 180.336785 
L 99.678376 187.23758 
L 99.924625 187.23758 
L 100.170874 206.36704 
L 100.417123 206.36704 
L 100.663372 246.24 
L 101.648367 246.24 
L 101.894616 194.247452 
L 102.140865 194.247452 
L 102.387114 187.567369 
L 102.879612 187.559216 
L 103.125861 189.213827 
L 103.372109 189.213827 
L 103.618358 203.080569 
L 103.864607 189.213827 
L 104.110856 202.613531 
L 104.357105 177.142813 
L 104.603354 177.142813 
L 104.849603 179.245246 
L 105.095852 179.245246 
L 105.58835 219.170482 
L 105.834598 222.712598 
L 106.080847 219.170482 
L 106.573345 219.170482 
L 107.065843 196.759714 
L 107.312092 196.759714 
L 107.558341 170.347716 
L 108.050838 170.347716 
L 108.543336 205.259673 
L 108.789585 245.166631 
L 109.035834 205.259673 
L 109.282083 246.24 
L 109.528332 246.24 
L 109.774581 180.375793 
L 110.267079 180.375793 
L 110.513327 180.006016 
L 110.759576 171.101783 
L 111.005825 223.457134 
L 111.252074 170.295092 
L 111.498323 170.295092 
L 111.744572 177.257497 
L 111.990821 177.257497 
L 112.23707 168.34997 
L 112.483319 169.610049 
L 112.729568 169.610049 
L 112.975816 169.192926 
L 113.222065 169.610049 
L 113.468314 179.244925 
L 113.714563 222.366702 
L 113.960812 222.366702 
L 114.45331 182.601661 
L 114.699559 205.403182 
L 114.945808 195.144216 
L 115.684554 195.144216 
L 115.930803 193.583182 
L 116.177052 193.583182 
L 116.423301 198.210072 
L 116.66955 198.210072 
L 116.915799 246.24 
L 117.654545 246.24 
L 117.900794 208.747445 
L 118.147043 246.24 
L 118.639541 246.24 
L 118.88579 188.183413 
L 119.132039 188.183413 
L 119.378288 171.165858 
L 119.624537 172.990207 
L 119.870786 171.165858 
L 120.117034 171.165858 
L 120.363283 168.953666 
L 120.609532 172.990207 
L 120.855781 187.137159 
L 121.10203 191.981718 
L 121.348279 200.427058 
L 121.840777 200.427058 
L 122.087026 174.85517 
L 122.333274 174.85517 
L 122.579523 180.205948 
L 122.825772 201.070228 
L 123.31827 201.070228 
L 123.564519 213.302012 
L 123.810768 246.24 
L 124.057017 225.530728 
L 124.303266 225.530728 
L 124.549515 246.24 
L 124.795763 225.530728 
L 125.042012 186.531488 
L 125.288261 186.531488 
L 125.53451 220.8817 
L 125.288261 220.8817 
L 125.780759 246.24 
L 125.53451 246.24 
L 127.258252 246.24 
L 127.504501 207.662974 
L 127.75075 200.479622 
L 127.996999 200.479622 
L 127.75075 195.815506 
L 128.243248 195.815506 
L 128.489497 195.510608 
L 128.981995 195.510608 
L 129.228244 196.693331 
L 129.474492 214.898924 
L 129.720741 214.898924 
L 129.96699 189.234275 
L 130.213239 200.124629 
L 130.459488 189.234275 
L 130.705737 186.833985 
L 130.951986 186.833985 
L 131.198235 200.124629 
L 131.444484 246.24 
L 131.690733 246.24 
L 131.936981 201.749147 
L 132.18323 200.276391 
L 132.429479 175.50042 
L 132.675728 175.50042 
L 132.921977 173.892781 
L 133.414475 173.892781 
L 133.660724 234.547421 
L 134.153222 234.547421 
L 134.39947 238.992886 
L 134.645719 238.992886 
L 134.891968 222.049884 
L 135.384466 222.049884 
L 135.630715 246.24 
L 135.876964 231.467674 
L 136.123213 246.24 
L 136.615711 246.24 
L 136.861959 244.507954 
L 137.108208 244.507954 
L 137.354457 218.906055 
L 138.585702 218.877318 
L 138.831951 246.24 
L 139.570697 246.24 
L 140.063195 199.812994 
L 140.555693 199.812994 
L 140.801942 246.24 
L 141.29444 246.24 
L 141.540688 245.960025 
L 141.786937 208.398974 
L 142.033186 197.572507 
L 142.525684 197.572507 
L 142.771933 211.285064 
L 143.018182 211.285064 
L 143.264431 195.268437 
L 143.51068 195.084583 
L 143.264431 165.081133 
L 144.003177 165.081133 
L 144.495675 195.364412 
L 144.741924 246.24 
L 145.973169 246.24 
L 146.219417 193.81296 
L 146.465666 246.24 
L 146.711915 246.24 
L 146.958164 174.697259 
L 147.204413 174.697259 
L 147.450662 246.24 
L 147.696911 208.003219 
L 147.94316 246.24 
L 148.435658 246.24 
L 148.681906 243.627429 
L 148.928155 246.24 
L 165.426831 246.24 
L 165.67308 204.432983 
L 165.919329 246.24 
L 177.00053 246.24 
L 177.246778 207.598889 
L 177.493027 207.598889 
L 177.739276 246.24 
L 181.925508 246.24 
L 182.171756 230.288721 
L 182.418005 230.288721 
L 182.664254 191.631189 
L 182.910503 184.518113 
L 183.156752 184.518113 
L 183.403001 159.6654 
L 183.64925 159.406473 
L 183.403001 205.636371 
L 183.895499 246.24 
L 184.141748 209.054054 
L 184.387996 246.24 
L 184.634245 246.24 
L 183.64925 209.054054 
L 184.880494 209.054054 
L 185.126743 246.24 
L 185.86549 246.24 
L 186.111739 192.411498 
L 186.357988 178.12555 
L 186.850485 178.12555 
L 187.096734 243.570029 
L 187.342983 204.28623 
L 187.835481 204.28623 
L 188.08173 207.602328 
L 188.820477 207.602328 
L 189.066726 201.66973 
L 189.312974 201.66973 
L 189.559223 207.553151 
L 189.805472 226.581854 
L 190.051721 207.553151 
L 190.29797 213.006567 
L 190.544219 207.553151 
L 191.036717 207.542661 
L 191.282966 204.833415 
L 191.529214 174.85517 
L 191.775463 174.85517 
L 192.021712 208.4353 
L 192.51421 208.4353 
L 192.760459 184.989484 
L 193.006708 184.708705 
L 193.499206 168.668675 
L 193.745455 165.452877 
L 193.991703 165.325511 
L 194.237952 168.668675 
L 194.484201 176.037609 
L 195.222948 176.037609 
L 195.469197 163.784738 
L 195.715446 161.300523 
L 195.961695 163.784738 
L 196.207944 161.039533 
L 196.454192 161.039533 
L 196.700441 161.892146 
L 196.94669 163.573783 
L 197.192939 246.24 
L 197.439188 246.24 
L 197.685437 172.77538 
L 197.931686 189.03654 
L 198.177935 172.77538 
L 197.685437 171.711724 
L 198.424184 161.987933 
L 198.670432 171.711724 
L 198.916681 171.711724 
L 199.16293 161.948902 
L 199.409179 161.948902 
L 199.901677 190.404219 
L 200.147926 182.308096 
L 200.394175 183.794197 
L 200.886673 183.794197 
L 201.132921 201.65082 
L 201.37917 201.65082 
L 201.625419 246.24 
L 201.871668 201.65082 
L 202.117917 197.477862 
L 202.610415 197.477862 
L 202.856664 179.864887 
L 203.102913 179.864887 
L 202.856664 179.864887 
L 203.349162 164.243581 
L 203.59541 162.152801 
L 204.087908 162.152801 
L 204.334157 184.385033 
L 205.072904 184.385033 
L 205.319153 169.560119 
L 205.565402 169.560119 
L 205.81165 178.364027 
L 206.057899 197.151763 
L 206.304148 178.364027 
L 205.81165 192.80098 
L 206.796646 192.80098 
L 207.042895 188.323673 
L 207.289144 188.323673 
L 207.535393 176.210074 
L 207.781642 173.857641 
L 208.027891 168.19847 
L 208.274139 170.682405 
L 208.520388 170.682405 
L 208.766637 169.579186 
L 209.259135 169.579186 
L 209.505384 173.741106 
L 209.751633 198.922464 
L 209.997882 198.922464 
L 210.244131 204.675352 
L 210.49038 198.922464 
L 210.736628 198.922464 
L 210.982877 195.282734 
L 211.475375 195.282734 
L 211.721624 205.886454 
L 211.967873 205.886454 
L 212.214122 178.320559 
L 212.460371 205.886454 
L 212.70662 173.808166 
L 212.952868 173.808166 
L 213.199117 196.228954 
L 213.937864 196.228954 
L 214.184113 191.308767 
L 214.676611 191.308767 
L 214.92286 183.711667 
L 215.169109 183.17864 
L 215.415357 154.937582 
L 215.661606 152.096067 
L 216.154104 152.096067 
L 216.646602 207.540562 
L 216.892851 216.09848 
L 217.1391 207.540562 
L 217.385349 179.630505 
L 217.631598 207.540562 
L 217.877846 207.540846 
L 218.124095 179.630505 
L 218.370344 207.540846 
L 218.616593 207.540846 
L 218.862842 205.473849 
L 219.109091 205.473849 
L 219.35534 246.24 
L 219.847838 180.161395 
L 220.094086 180.161395 
L 219.847838 165.107256 
L 220.586584 164.950624 
L 220.832833 165.107256 
L 221.079082 171.36193 
L 221.325331 171.36193 
L 221.57158 173.493542 
L 222.064078 246.24 
L 222.556575 246.24 
L 222.802824 183.788779 
L 223.295322 183.788779 
L 223.541571 246.24 
L 224.034069 246.24 
L 224.280318 187.519826 
L 224.526567 187.519826 
L 224.772816 246.24 
L 228.2203 246.24 
L 228.466549 243.114511 
L 228.712798 243.114511 
L 228.959047 192.308701 
L 229.205296 186.460969 
L 229.451545 187.327714 
L 229.697793 186.460969 
L 229.944042 186.460969 
L 230.190291 183.466672 
L 230.43654 183.466672 
L 230.682789 178.439517 
L 231.175287 178.439517 
L 231.421536 186.424465 
L 231.667785 184.998551 
L 231.914034 186.424465 
L 232.160282 246.24 
L 232.899029 246.24 
L 233.145278 185.437558 
L 233.391527 180.791484 
L 233.637776 180.791484 
L 233.884025 176.027744 
L 234.376523 187.483044 
L 234.622771 246.24 
L 234.86902 187.483044 
L 235.115269 187.483044 
L 235.361518 246.24 
L 235.607767 186.182424 
L 235.854016 176.282904 
L 236.100265 186.182424 
L 236.346514 246.24 
L 237.577758 246.24 
L 237.331509 207.222922 
L 238.070256 207.222922 
L 238.316505 177.363987 
L 238.562754 177.363987 
L 238.809003 246.24 
L 243.487732 246.24 
L 243.733981 185.263127 
L 243.980229 185.263127 
L 244.226478 246.24 
L 245.457723 246.24 
L 245.703972 196.393548 
L 246.19647 178.917731 
L 246.442718 178.917731 
L 246.688967 196.393548 
L 246.935216 229.752077 
L 247.181465 246.24 
L 247.920212 246.24 
L 248.166461 177.098075 
L 248.905207 177.098075 
L 249.151456 246.24 
L 250.382701 246.24 
L 250.62895 201.103985 
L 250.875199 246.24 
L 251.121447 195.871859 
L 251.367696 188.170677 
L 251.613945 195.871859 
L 251.367696 195.871859 
L 251.860194 195.871859 
L 252.106443 188.170677 
L 252.352692 149.839376 
L 252.84519 149.839376 
L 253.337688 184.523222 
L 253.583936 246.24 
L 254.322683 246.24 
L 254.568932 195.416939 
L 254.815181 183.686436 
L 255.06143 183.686436 
L 255.307679 178.449971 
L 255.800177 178.449971 
L 256.046425 188.390474 
L 256.292674 246.24 
L 257.523919 246.24 
L 257.770168 214.927447 
L 257.523919 214.927447 
L 258.016417 246.24 
L 259.986408 246.24 
L 260.232657 193.359951 
L 261.217652 193.359951 
L 261.463901 207.459651 
L 261.71015 246.24 
L 263.92639 246.24 
L 264.172639 235.334657 
L 264.418888 184.964911 
L 264.665137 184.964911 
L 264.911386 235.334657 
L 265.157635 246.24 
L 265.896381 246.24 
L 266.14263 196.699562 
L 266.388879 202.155386 
L 266.635128 196.699562 
L 266.881377 202.155386 
L 267.127626 202.155386 
L 267.373875 246.24 
L 267.866372 246.24 
L 268.112621 178.418587 
L 268.35887 173.682417 
L 268.851368 173.682417 
L 269.097617 184.379867 
L 268.851368 246.24 
L 269.836364 246.24 
L 270.082613 199.081867 
L 270.57511 199.081867 
L 270.821359 176.116632 
L 271.313857 176.116632 
L 271.560106 175.633471 
L 271.806355 176.116632 
L 272.052604 175.633471 
L 272.545102 175.633471 
L 272.79135 210.46814 
L 273.037599 209.647626 
L 273.283848 210.46814 
L 273.530097 209.647626 
L 273.776346 210.46814 
L 274.022595 181.10172 
L 274.268844 169.186038 
L 274.515093 181.10172 
L 274.761342 169.186038 
L 275.00759 169.186038 
L 275.253839 246.24 
L 275.746337 246.24 
L 275.992586 207.267769 
L 276.238835 207.267769 
L 276.485084 192.197306 
L 276.731333 192.197306 
L 276.977582 183.289156 
L 277.223831 182.247755 
L 276.977582 179.679258 
L 277.716328 179.679258 
L 277.962577 168.917119 
L 278.208826 164.57701 
L 278.455075 168.493313 
L 278.947573 168.493313 
L 279.193822 194.519193 
L 279.440071 246.24 
L 281.410062 246.24 
L 281.656311 173.862867 
L 281.90256 177.190685 
L 282.395057 177.190685 
L 282.148808 194.414102 
L 282.887555 194.414102 
L 283.133804 191.600953 
L 283.380053 190.482412 
L 283.626302 190.220691 
L 283.872551 190.220691 
L 284.1188 187.285868 
L 284.611297 187.285868 
L 284.857546 246.24 
L 285.103795 187.285868 
L 285.350044 181.837825 
L 285.842542 181.837825 
L 286.088791 181.38515 
L 286.33504 181.38515 
L 286.581289 152.769841 
L 287.320035 152.769841 
L 287.566284 187.234711 
L 287.812533 187.234711 
L 288.058782 197.356053 
L 288.305031 197.356053 
L 288.55128 187.234711 
L 288.797529 197.356053 
L 289.043778 197.356053 
L 289.290026 196.106166 
L 289.536275 196.106166 
L 289.782524 162.33466 
L 290.028773 191.488074 
L 291.013769 191.488074 
L 291.260018 246.24 
L 291.506267 177.830818 
L 291.998764 177.830818 
L 292.245013 169.420175 
L 292.737511 169.420175 
L 292.98376 165.816693 
L 293.476258 174.397875 
L 293.722507 246.24 
L 294.215004 246.24 
L 294.707502 161.891514 
L 294.953751 157.911918 
L 295.446249 157.911918 
L 295.692498 161.891514 
L 295.938747 200.762656 
L 296.184996 200.762656 
L 296.431244 246.24 
L 297.169991 246.24 
L 297.41624 179.736769 
L 297.662489 246.24 
L 297.908738 246.24 
L 298.154987 179.736769 
L 298.401236 179.736769 
L 298.647485 170.877541 
L 299.139982 170.877541 
L 299.386231 246.24 
L 302.341218 246.24 
L 302.587467 198.017357 
L 302.833716 180.929003 
L 303.079965 180.929003 
L 303.326214 246.24 
L 309.482436 246.24 
L 309.728685 181.391324 
L 309.974934 246.24 
L 312.929921 246.24 
L 313.176169 153.612557 
L 313.422418 155.357822 
L 313.668667 153.278292 
L 313.914916 158.210001 
L 314.407414 158.210001 
L 314.653663 152.600876 
L 315.638658 152.600876 
L 315.884907 164.800501 
L 316.131156 164.800501 
L 316.377405 150.243458 
L 316.623654 164.800501 
L 316.131156 164.800501 
L 316.869903 168.56024 
L 317.116152 183.273015 
L 317.362401 170.898046 
L 317.60865 177.626516 
L 317.854898 246.24 
L 318.101147 246.24 
L 318.347396 177.626516 
L 318.593645 177.626516 
L 318.839894 246.24 
L 321.302383 246.24 
L 321.548632 184.433172 
L 321.794881 202.7787 
L 322.04113 202.7787 
L 322.287379 184.433172 
L 322.533628 246.24 
L 323.518623 246.24 
L 323.764872 209.452741 
L 324.011121 246.24 
L 324.996117 246.24 
L 325.242365 165.607203 
L 324.996117 165.607203 
L 325.488614 165.607203 
L 325.734863 246.24 
L 328.68985 246.24 
L 328.936099 222.425495 
L 329.674846 222.425495 
L 329.921094 169.109501 
L 329.428597 169.109501 
L 329.921094 164.317975 
L 330.167343 246.24 
L 330.659841 246.24 
L 330.90609 178.435334 
L 331.644837 178.435334 
L 331.891086 242.467061 
L 332.137335 246.24 
L 332.383583 246.24 
L 332.629832 242.467061 
L 332.876081 183.267547 
L 333.12233 183.267547 
L 333.368579 166.378388 
L 333.614828 164.632128 
L 334.353575 164.702212 
L 334.599823 246.24 
L 337.55481 246.24 
L 337.801059 151.243778 
L 338.047308 151.243778 
L 338.293557 164.769788 
L 338.539806 164.769788 
L 338.786055 165.833597 
L 339.032304 246.24 
L 339.278553 246.24 
L 339.524801 170.570192 
L 339.77105 170.570192 
L 340.017299 246.24 
L 344.942277 246.24 
L 345.188526 223.887395 
L 344.942277 223.887395 
L 345.434775 223.887395 
L 345.681024 238.642346 
L 345.927273 238.642346 
L 346.173522 246.24 
L 349.128508 246.24 
L 349.374757 229.71759 
L 349.621006 229.71759 
L 349.867255 246.24 
L 351.344748 246.24 
L 351.590997 168.222934 
L 351.837246 168.222934 
L 352.083495 246.24 
L 351.837246 246.24 
L 362.425949 246.24 
L 362.672198 225.795019 
L 363.164695 225.795019 
L 363.410944 246.24 
L 365.873433 246.24 
L 366.365931 185.147106 
L 367.104678 185.147106 
L 367.350927 246.24 
L 367.597176 178.753981 
L 367.843425 246.24 
L 368.335922 246.24 
L 368.582171 186.176897 
L 368.82842 186.176897 
L 369.074669 178.857979 
L 369.320918 178.857979 
L 369.567167 186.153249 
L 369.813416 186.153249 
L 370.059665 246.24 
L 377.69338 246.24 
L 377.939629 167.68594 
L 378.185878 246.24 
L 385.080847 246.24 
L 385.327096 229.454134 
L 385.080847 229.454134 
L 385.819594 229.454134 
L 386.065843 246.24 
L 386.80459 246.24 
L 387.050838 206.516541 
L 387.543336 206.516541 
L 387.789585 174.61587 
L 388.282083 246.24 
L 396.408297 246.24 
L 396.654545 165.00514 
L 396.900794 246.24 
L 397.147043 176.465257 
L 397.393292 176.465257 
L 397.639541 168.358194 
L 398.378288 168.358194 
L 398.624537 169.898719 
L 398.378288 246.24 
L 399.117034 246.24 
L 399.363283 227.973661 
L 399.609532 172.225138 
L 400.348279 172.225138 
L 400.594528 166.189393 
L 400.840777 173.18712 
L 401.087026 173.18712 
L 401.579523 174.744916 
L 401.825772 177.82018 
L 402.31827 177.82018 
L 402.564519 183.038753 
L 402.810768 183.038753 
L 403.057017 235.14692 
L 403.303266 241.177401 
L 403.549515 241.177401 
L 403.795763 219.044466 
L 404.288261 219.044466 
L 404.53451 202.506266 
L 404.780759 231.487942 
L 405.027008 246.24 
L 405.273257 234.552769 
L 405.519506 234.552769 
L 405.765755 225.911311 
L 406.504501 225.911311 
L 406.75075 242.370091 
L 406.996999 242.370091 
L 407.243248 204.285277 
L 407.489497 200.726585 
L 407.735746 194.496561 
L 407.981995 176.166354 
L 408.228244 194.496561 
L 408.474492 191.270619 
L 408.720741 208.771408 
L 408.96699 208.771408 
L 409.213239 246.24 
L 409.459488 246.24 
L 409.705737 189.762475 
L 410.198235 189.762475 
L 411.18323 221.852644 
L 412.168226 221.852644 
L 412.414475 246.24 
L 412.906973 246.24 
L 413.153222 195.021798 
L 413.645719 183.478126 
L 413.891968 181.982622 
L 414.630715 181.972386 
L 415.123213 165.649363 
L 415.369462 172.455435 
L 415.615711 166.724829 
L 415.861959 172.455435 
L 416.108208 172.923117 
L 416.354457 173.73109 
L 416.600706 194.29782 
L 416.846955 194.29782 
L 417.093204 246.24 
L 417.339453 192.027493 
L 417.585702 246.24 
L 417.831951 208.608552 
L 418.078199 207.607228 
L 418.324448 207.607228 
L 418.570697 187.951649 
L 418.816946 187.951649 
L 419.063195 203.404074 
L 419.309444 203.404074 
L 419.555693 239.74886 
L 419.801942 205.614862 
L 420.048191 205.614862 
L 420.29444 201.883675 
L 420.540688 201.883675 
L 420.786937 193.532356 
L 421.033186 201.883675 
L 421.279435 197.311798 
L 421.525684 197.311798 
L 421.771933 210.894224 
L 422.018182 210.894224 
L 422.264431 230.662899 
L 422.51068 231.879309 
L 422.756929 230.662899 
L 423.003177 230.662899 
L 423.249426 232.298392 
L 423.495675 232.298392 
L 423.741924 246.24 
L 423.988173 246.24 
L 424.480671 187.791839 
L 424.973169 187.791839 
L 425.219417 219.786701 
L 425.465666 220.198381 
L 425.711915 246.24 
L 427.189409 246.24 
L 427.435658 204.56164 
L 427.681906 201.042347 
L 427.928155 201.042347 
L 428.174404 186.680866 
L 428.420653 186.680866 
L 428.666902 195.581294 
L 428.913151 246.24 
L 429.1594 195.581294 
L 429.405649 195.581294 
L 429.651898 246.24 
L 429.898147 192.622857 
L 430.144395 187.114636 
L 430.390644 192.622857 
L 430.636893 246.24 
L 431.37564 246.24 
L 431.621889 199.251474 
L 431.868138 199.251474 
L 432.114387 246.24 
L 432.606884 246.24 
L 432.853133 232.139563 
L 433.099382 167.741652 
L 433.345631 172.858837 
L 433.59188 167.741652 
L 433.838129 173.489684 
L 434.084378 173.615359 
L 434.330627 175.08785 
L 434.576876 197.324307 
L 434.823124 197.324307 
L 435.069373 208.746616 
L 435.561871 208.746616 
L 435.80812 246.24 
L 436.054369 246.24 
L 436.300618 235.409637 
L 436.546867 235.409637 
L 436.793116 205.409789 
L 437.285613 205.409789 
L 437.531862 201.308721 
L 437.778111 246.24 
L 439.501853 246.24 
L 439.994351 169.127968 
L 440.2406 170.738417 
L 440.733098 170.738417 
L 441.225596 207.022051 
L 441.471845 190.391342 
L 441.718094 209.314707 
L 441.964342 209.314707 
L 442.210591 246.24 
L 443.934334 246.24 
L 444.180583 178.30993 
L 444.426831 178.30993 
L 444.67308 175.51933 
L 444.919329 175.51933 
L 445.165578 195.720928 
L 445.411827 246.24 
L 447.381818 246.24 
L 447.628067 240.180547 
L 447.874316 240.180547 
L 448.120565 246.24 
L 450.090556 246.24 
L 450.336805 214.680089 
L 450.583054 209.072645 
L 450.829303 214.680089 
L 451.075552 203.084599 
L 451.568049 203.084599 
L 451.814298 246.24 
L 452.060547 186.06677 
L 452.306796 209.707542 
L 452.553045 246.24 
L 453.784289 246.24 
L 454.030538 190.174259 
L 454.276787 190.174259 
L 454.523036 190.82372 
L 454.769285 195.454105 
L 455.015534 244.251577 
L 455.261783 244.251577 
L 455.508032 246.24 
L 456.739276 246.24 
L 456.985525 196.165124 
L 457.231774 198.974359 
L 457.478023 196.165124 
L 457.724272 198.974359 
L 457.970521 198.974359 
L 458.21677 196.498605 
L 458.463019 196.498605 
L 458.955516 246.24 
L 460.679259 246.24 
L 460.925508 167.897824 
L 461.171756 167.897824 
L 461.418005 246.24 
L 463.387996 246.24 
L 463.634245 192.981269 
L 463.880494 192.981269 
L 464.126743 246.24 
L 465.604237 246.24 
L 465.850485 238.106411 
L 466.342983 238.106411 
L 466.589232 163.231957 
L 466.835481 238.106411 
L 467.08173 246.24 
L 468.066726 246.24 
L 468.312974 173.90025 
L 468.559223 246.24 
L 474.469197 246.24 
L 474.715446 231.304419 
L 474.961695 246.24 
L 482.102913 246.24 
L 482.349162 171.90305 
L 482.59541 171.90305 
L 482.841659 246.24 
L 485.550397 246.24 
L 486.042895 164.011974 
L 486.535393 164.011974 
L 486.781642 172.555292 
L 487.027891 172.555292 
L 487.274139 164.991789 
L 487.520388 164.991789 
L 488.012886 182.733722 
L 488.259135 246.24 
L 489.49038 246.24 
L 489.736628 181.996527 
L 489.982877 181.996527 
L 490.229126 180.382937 
L 490.475375 182.3772 
L 491.460371 182.3772 
L 491.70662 207.92682 
L 491.952868 246.24 
L 498.109091 246.24 
L 498.109091 246.24 
" style="fill:none;stroke:#1f77b4;stroke-linecap:square;stroke-width:1.5;"/>
   </g>
   <g id="line2d_15">
    <path clip-path="url(#p4d405ad0cd)" d="M 92.290909 189.340829 
L 92.537158 195.532529 
L 92.290909 190.935855 
L 93.029656 186.167057 
L 93.275905 176.757666 
L 93.522154 181.125429 
L 94.2609 206.207897 
L 94.014651 214.316026 
L 94.507149 175.439251 
L 94.753398 173.109651 
L 94.999647 181.767945 
L 95.245896 172.542637 
L 95.492145 176.984222 
L 95.738394 172.624344 
L 95.984643 180.381114 
L 96.230891 157.929781 
L 96.723389 174.547646 
L 96.969638 181.362284 
L 97.462136 175.342199 
L 97.708385 180.135794 
L 97.954634 189.683447 
L 98.200883 188.458398 
L 98.69338 202.610909 
L 98.939629 187.349142 
L 99.185878 196.758344 
L 99.432127 186.130548 
L 99.678376 182.972372 
L 100.663372 217.662155 
L 100.90962 176.188002 
L 101.155869 177.94652 
L 101.402118 186.094754 
L 101.648367 186.823925 
L 101.894616 183.017047 
L 102.140865 133.334355 
L 102.633363 151.973649 
L 102.879612 141.365049 
L 103.372109 159.598702 
L 103.618358 156.009603 
L 104.110856 173.825138 
L 104.357105 176.58801 
L 104.603354 171.883452 
L 104.849603 171.488291 
L 105.095852 181.332122 
L 105.342101 161.786813 
L 105.58835 166.960068 
L 106.327096 193.927568 
L 106.819594 175.836307 
L 107.065843 160.083357 
L 107.312092 169.539527 
L 107.558341 166.017002 
L 107.80459 175.862749 
L 108.050838 177.776368 
L 108.789585 205.930898 
L 109.035834 187.471349 
L 109.282083 150.408851 
L 109.528332 166.048708 
L 109.774581 171.405856 
L 110.02083 170.553942 
L 110.267079 170.882614 
L 110.513327 170.552 
L 110.759576 170.588199 
L 111.005825 179.457181 
L 111.252074 173.976606 
L 111.498323 182.554364 
L 112.23707 171.401084 
L 112.729568 188.42035 
L 112.975816 167.6401 
L 113.468314 171.556259 
L 114.207061 197.476488 
L 114.45331 149.035545 
L 114.699559 158.796045 
L 114.945808 178.002487 
L 115.192056 170.255341 
L 115.438305 167.723993 
L 115.930803 185.78652 
L 116.177052 173.151705 
L 116.66955 180.892469 
L 116.915799 171.162857 
L 117.162048 169.903054 
L 117.408297 178.584073 
L 117.654545 181.710648 
L 118.147043 166.230413 
L 118.393292 169.723063 
L 118.639541 179.476398 
L 118.88579 182.80558 
L 119.624537 205.270317 
L 119.870786 179.828991 
L 120.117034 173.551627 
L 120.363283 172.275921 
L 121.10203 194.848357 
L 121.348279 176.031637 
L 121.594528 175.431449 
L 121.840777 183.88889 
L 122.087026 176.127758 
L 122.333274 177.938646 
L 123.072021 200.299052 
L 123.31827 204.115741 
L 123.564519 178.060446 
L 123.810768 169.492218 
L 124.057017 173.101739 
L 124.303266 171.064217 
L 124.795763 172.608893 
L 125.53451 195.973279 
L 125.288261 201.157841 
L 125.53451 204.243616 
L 126.027008 197.983635 
L 126.273257 191.226881 
L 126.519506 191.273404 
L 126.765755 173.00567 
L 127.012004 180.566232 
L 127.258252 195.28781 
L 127.75075 196.94908 
L 127.996999 173.685551 
L 127.75075 181.014197 
L 128.243248 172.6109 
L 128.489497 181.313576 
L 128.735746 182.582837 
L 128.981995 169.860502 
L 129.228244 178.784268 
L 129.474492 125.147941 
L 130.705737 170.812248 
L 130.951986 178.076055 
L 131.198235 178.752841 
L 131.690733 190.930351 
L 131.936981 172.956643 
L 132.18323 180.681937 
L 132.429479 175.114255 
L 132.675728 174.819185 
L 132.921977 183.314376 
L 133.168226 177.854573 
L 133.906973 199.52057 
L 134.39947 172.118 
L 134.645719 173.689187 
L 135.138217 187.82216 
L 135.876964 211.753848 
L 136.369462 216.793449 
L 136.615711 217.820091 
L 136.861959 218.343667 
L 137.108208 172.899133 
L 137.354457 181.780676 
L 137.600706 174.565995 
L 137.354457 183.086454 
L 137.846955 190.565962 
L 138.093204 177.782926 
L 138.831951 202.119185 
L 139.078199 202.211499 
L 139.324448 204.232805 
L 140.063195 198.40934 
L 140.309444 206.046524 
L 140.555693 203.695069 
L 141.048191 201.212138 
L 141.29444 200.666385 
L 141.540688 202.826463 
L 141.786937 180.249647 
L 142.033186 177.302446 
L 142.279435 187.024924 
L 142.525684 191.853138 
L 142.771933 189.81695 
L 143.018182 186.679033 
L 143.264431 167.427083 
L 143.51068 169.148896 
L 143.264431 158.901681 
L 143.756929 168.40197 
L 144.249426 182.61862 
L 144.495675 192.409286 
L 144.741924 178.485255 
L 144.988173 190.020802 
L 145.234422 193.694904 
L 145.480671 193.836512 
L 145.72692 202.708105 
L 145.973169 46.344638 
L 148.928155 164.769638 
L 149.174404 166.709228 
L 149.913151 188.2996 
L 150.1594 190.151337 
L 150.405649 193.896237 
L 150.651898 177.136965 
L 150.898147 183.715398 
L 150.651898 191.467136 
L 151.144395 200.238903 
L 151.390644 206.737797 
L 151.636893 197.176765 
L 151.883142 197.029139 
L 152.129391 201.701562 
L 152.621889 194.993677 
L 153.114387 208.403132 
L 153.360635 207.429109 
L 153.606884 215.066058 
L 153.853133 197.638334 
L 154.345631 208.190011 
L 154.59188 176.306914 
L 154.838129 185.633504 
L 155.084378 187.635379 
L 155.330627 181.121925 
L 155.576876 189.075978 
L 155.823124 160.881919 
L 156.069373 170.306251 
L 156.315622 174.263474 
L 156.561871 184.158241 
L 156.80812 186.770005 
L 157.300618 167.218914 
L 157.546867 176.321358 
L 157.793116 175.691825 
L 158.039365 184.096821 
L 158.285613 169.799208 
L 158.531862 178.727473 
L 158.778111 174.419122 
L 159.02436 167.438786 
L 159.270609 174.699321 
L 159.516858 167.524688 
L 160.009356 171.03357 
L 159.516858 167.814872 
L 160.255605 169.366013 
L 160.501853 170.208756 
L 160.994351 150.108859 
L 161.2406 159.998872 
L 161.486849 153.831523 
L 161.979347 171.788257 
L 162.225596 168.718165 
L 162.471845 160.841911 
L 162.718094 170.372124 
L 162.964342 170.733258 
L 163.210591 44.64 
L 163.45684 54.666761 
L 163.949338 64.691209 
L 165.67308 131.666238 
L 166.411827 157.440935 
L 166.658076 167.074231 
L 166.904325 184.662403 
L 167.150574 151.431653 
L 167.396823 161.198254 
L 167.643071 137.743804 
L 168.135569 146.397838 
L 168.628067 160.171512 
L 168.874316 165.226927 
L 169.120565 163.935564 
L 169.366814 172.994256 
L 169.613063 145.424644 
L 170.10556 162.92103 
L 170.351809 161.952946 
L 170.844307 180.349155 
L 171.090556 169.155841 
L 171.583054 176.209126 
L 171.829303 167.968004 
L 172.321801 183.55106 
L 172.568049 179.419532 
L 172.814298 193.027878 
L 173.060547 185.342936 
L 173.553045 178.994684 
L 173.799294 171.409453 
L 174.045543 158.142219 
L 174.291792 158.883775 
L 174.538041 164.827057 
L 174.784289 174.786015 
L 175.030538 179.004666 
L 175.523036 202.927539 
L 175.769285 176.664689 
L 176.015534 171.605433 
L 176.261783 171.352359 
L 176.508032 171.319857 
L 176.754281 162.272986 
L 177.00053 171.637671 
L 177.246778 164.447024 
L 177.493027 169.334133 
L 177.739276 179.26755 
L 178.231774 164.695296 
L 178.478023 174.654888 
L 178.724272 157.302022 
L 178.970521 166.856761 
L 179.21677 164.161162 
L 179.463019 167.311775 
L 179.709267 166.237231 
L 179.955516 175.402537 
L 180.201765 152.538917 
L 180.694263 170.616697 
L 180.940512 167.646564 
L 181.186761 169.272095 
L 181.43301 171.889992 
L 181.925508 187.128735 
L 182.171756 182.941005 
L 182.418005 183.508258 
L 182.664254 167.14769 
L 182.910503 166.132297 
L 183.156752 175.247462 
L 183.64925 158.904312 
L 183.403001 157.542966 
L 183.895499 167.08987 
L 184.387996 171.608209 
L 184.634245 158.653853 
L 183.64925 167.388072 
L 184.880494 170.870146 
L 185.372992 173.471656 
L 185.619241 173.486795 
L 185.86549 182.110592 
L 186.111739 175.584751 
L 186.604237 173.587028 
L 186.850485 181.551861 
L 187.096734 166.787715 
L 187.835481 183.309293 
L 188.08173 189.754795 
L 188.327979 177.611514 
L 188.574228 185.128346 
L 188.820477 184.69633 
L 189.066726 176.359248 
L 189.312974 163.627662 
L 189.559223 170.629815 
L 189.805472 170.689298 
L 190.29797 183.992314 
L 190.790468 173.48998 
L 191.036717 175.929654 
L 191.282966 173.936294 
L 191.529214 168.907895 
L 191.775463 171.996916 
L 192.021712 173.550263 
L 192.267961 172.275297 
L 192.51421 173.704566 
L 192.760459 182.308068 
L 193.006708 170.932948 
L 193.252957 153.258009 
L 193.499206 158.492452 
L 193.745455 159.255987 
L 193.991703 162.018526 
L 194.237952 163.144157 
L 194.484201 141.473455 
L 195.222948 161.962133 
L 195.469197 160.768243 
L 195.715446 165.032072 
L 195.961695 162.602622 
L 196.207944 131.373382 
L 196.700441 148.303867 
L 196.94669 153.812065 
L 197.192939 161.992115 
L 197.439188 164.311185 
L 197.685437 163.105362 
L 198.177935 168.653455 
L 197.685437 137.625743 
L 198.424184 145.646728 
L 199.16293 161.642928 
L 199.409179 163.305191 
L 199.655428 163.834324 
L 199.901677 167.017181 
L 200.147926 151.877932 
L 201.132921 175.012606 
L 201.625419 171.476892 
L 201.871668 172.576172 
L 202.117917 171.821179 
L 202.364166 171.432283 
L 202.856664 166.04247 
L 203.102913 170.444617 
L 202.856664 167.057475 
L 203.349162 155.869507 
L 204.087908 174.779307 
L 204.334157 183.278505 
L 204.580406 158.315729 
L 204.826655 161.345909 
L 205.072904 94.371995 
L 205.81165 124.218873 
L 206.304148 133.692314 
L 205.81165 143.472948 
L 206.550397 150.000843 
L 206.796646 158.122926 
L 207.042895 159.624654 
L 207.535393 168.604935 
L 207.781642 177.617423 
L 208.027891 151.53149 
L 208.520388 162.734009 
L 209.012886 169.968362 
L 209.259135 163.376626 
L 209.997882 186.706995 
L 210.49038 172.455347 
L 210.736628 171.158032 
L 210.982877 176.979712 
L 211.229126 172.364311 
L 211.475375 180.524832 
L 211.721624 182.259425 
L 211.967873 175.66918 
L 212.214122 184.076579 
L 212.460371 182.192012 
L 212.70662 168.197485 
L 212.952868 174.045531 
L 213.199117 182.616697 
L 213.445366 172.558397 
L 213.691615 181.265664 
L 213.937864 182.36337 
L 214.184113 190.304321 
L 214.430362 185.73455 
L 214.676611 164.113152 
L 215.169109 169.015047 
L 215.415357 170.021688 
L 215.661606 159.141635 
L 215.907855 168.633244 
L 216.400353 161.240874 
L 216.646602 166.502553 
L 216.892851 165.828007 
L 217.631598 188.994873 
L 217.877846 168.381715 
L 218.124095 175.293081 
L 218.616593 180.577515 
L 218.862842 151.663144 
L 219.35534 167.799432 
L 219.601589 164.194837 
L 219.847838 164.706539 
L 220.094086 156.76231 
L 219.847838 163.14775 
L 220.340335 172.47202 
L 220.586584 172.973768 
L 220.832833 181.644292 
L 221.079082 171.229845 
L 221.325331 174.610238 
L 221.57158 157.552115 
L 221.817829 163.005134 
L 222.310327 160.33476 
L 223.541571 193.932877 
L 223.78782 192.274693 
L 224.034069 198.41903 
L 224.280318 182.292065 
L 224.526567 179.745871 
L 224.772816 178.451863 
L 225.019064 186.860903 
L 225.265313 179.809065 
L 225.511562 185.916578 
L 225.757811 182.543871 
L 226.00406 175.721342 
L 226.250309 179.620821 
L 226.496558 171.763073 
L 226.742807 180.538062 
L 226.989056 175.495364 
L 227.235305 183.921094 
L 227.481553 187.738175 
L 227.727802 189.364723 
L 227.974051 57.77914 
L 229.944042 136.071318 
L 230.929038 159.177574 
L 231.667785 180.581134 
L 231.914034 178.3193 
L 232.160282 177.308505 
L 232.406531 178.852536 
L 232.65278 181.889049 
L 232.899029 165.238029 
L 233.145278 161.969722 
L 233.391527 171.347882 
L 233.884025 166.363062 
L 234.130274 168.540062 
L 234.622771 170.361749 
L 234.86902 150.142569 
L 235.115269 159.065015 
L 235.361518 163.940432 
L 235.854016 180.072535 
L 236.100265 174.417912 
L 236.346514 165.806727 
L 236.592763 166.619618 
L 236.839011 169.909716 
L 237.08526 175.850436 
L 237.331509 173.283243 
L 237.577758 160.780347 
L 237.331509 165.040197 
L 237.824007 167.756591 
L 238.070256 166.412929 
L 238.562754 169.7809 
L 238.809003 176.442432 
L 239.3015 182.429609 
L 239.547749 161.781585 
L 240.040247 180.196291 
L 240.286496 168.40364 
L 240.532745 177.429698 
L 240.778994 181.590915 
L 241.271492 185.851305 
L 241.517741 186.550814 
L 241.763989 186.166898 
L 241.517741 193.025163 
L 242.010238 178.258041 
L 242.256487 182.900237 
L 242.502736 176.191451 
L 242.748985 175.629491 
L 242.995234 184.041093 
L 243.241483 185.647634 
L 243.487732 185.312205 
L 243.733981 185.702724 
L 243.980229 172.117033 
L 244.472727 185.964692 
L 244.718976 193.366294 
L 244.965225 180.126635 
L 245.211474 184.089159 
L 245.457723 191.345041 
L 245.703972 183.107065 
L 245.950221 190.518524 
L 246.19647 172.896459 
L 246.442718 171.655699 
L 246.688967 180.439572 
L 246.935216 146.892588 
L 247.181465 154.433672 
L 247.427714 153.262088 
L 248.166461 173.502267 
L 248.41271 182.124631 
L 248.905207 167.63536 
L 249.151456 169.265825 
L 249.397705 158.094809 
L 250.62895 181.731889 
L 251.121447 174.184192 
L 251.367696 182.742009 
L 251.613945 173.932402 
L 251.367696 165.107349 
L 251.860194 166.004652 
L 252.352692 169.65083 
L 252.598941 168.243237 
L 252.84519 174.819721 
L 253.091439 170.978836 
L 253.337688 153.850705 
L 253.583936 158.669966 
L 253.830185 153.733005 
L 254.076434 161.364969 
L 254.322683 147.606777 
L 255.06143 171.29824 
L 255.553928 175.703386 
L 255.800177 184.38004 
L 256.292674 174.490489 
L 256.538923 177.86125 
L 257.031421 172.86723 
L 257.27767 175.579812 
L 257.770168 172.497631 
L 257.523919 171.783852 
L 258.016417 173.843764 
L 258.262665 173.702344 
L 258.508914 173.772902 
L 258.755163 173.49502 
L 259.001412 172.249979 
L 259.247661 172.555424 
L 259.49391 178.795705 
L 259.740159 158.227277 
L 259.986408 167.751232 
L 260.232657 166.410487 
L 260.478906 168.567606 
L 260.725154 167.307993 
L 260.971403 153.372673 
L 261.217652 163.038817 
L 261.463901 151.651147 
L 261.956399 170.343729 
L 262.202648 171.550637 
L 262.448897 165.574674 
L 262.695146 164.251472 
L 263.187643 174.830615 
L 263.680141 170.99096 
L 263.92639 179.828508 
L 264.172639 150.822466 
L 264.418888 159.208569 
L 264.665137 156.812964 
L 265.403883 180.297215 
L 265.650132 170.850647 
L 265.896381 179.699237 
L 266.388879 171.056423 
L 266.881377 176.65269 
L 267.127626 178.096788 
L 267.373875 113.321722 
L 267.620124 130.572954 
L 268.35887 155.522789 
L 268.605119 155.531984 
L 268.851368 152.939298 
L 269.590115 176.187886 
L 269.836364 181.05133 
L 270.082613 180.359821 
L 270.328861 175.544327 
L 270.57511 185.276525 
L 270.821359 179.147194 
L 271.067608 183.193825 
L 271.313857 190.59089 
L 271.560106 183.289831 
L 271.806355 134.168985 
L 272.79135 166.176511 
L 273.037599 160.123125 
L 273.283848 167.493093 
L 273.530097 162.467307 
L 273.776346 169.416241 
L 274.022595 171.264784 
L 274.268844 161.892607 
L 274.515093 158.384623 
L 274.761342 163.389343 
L 275.253839 179.831474 
L 275.500088 163.23326 
L 275.746337 167.921555 
L 275.992586 169.425294 
L 276.238835 150.66143 
L 276.731333 165.310847 
L 276.977582 167.919256 
L 277.223831 172.68891 
L 276.977582 171.874573 
L 277.470079 168.145661 
L 277.716328 158.941238 
L 277.962577 162.454928 
L 278.208826 160.547605 
L 278.455075 169.988129 
L 278.701324 173.626975 
L 279.193822 189.061293 
L 279.68632 165.15358 
L 279.932568 165.745043 
L 280.178817 161.457116 
L 280.671315 162.763965 
L 280.917564 166.341079 
L 281.163813 154.927971 
L 280.917564 56.365897 
L 281.410062 66.387137 
L 282.395057 106.215027 
L 282.148808 116.081803 
L 282.641306 125.457041 
L 283.626302 158.109945 
L 283.872551 164.233844 
L 284.1188 167.264794 
L 284.365049 133.336744 
L 284.857546 142.652745 
L 285.103795 135.344645 
L 285.350044 144.80314 
L 285.596293 127.489757 
L 286.33504 152.026147 
L 286.581289 137.592126 
L 286.827538 146.259845 
L 287.566284 153.89907 
L 287.812533 142.66409 
L 288.058782 148.799304 
L 288.305031 157.845616 
L 288.55128 158.726917 
L 288.797529 145.654934 
L 289.536275 167.303488 
L 289.782524 158.96755 
L 290.028773 165.706778 
L 290.275022 132.479484 
L 290.76752 137.706751 
L 291.260018 154.40548 
L 291.752515 163.218584 
L 291.998764 163.474824 
L 292.245013 161.445103 
L 292.491262 165.482974 
L 292.737511 155.90508 
L 292.98376 161.594251 
L 293.230009 159.131392 
L 293.476258 163.913008 
L 293.722507 142.453778 
L 293.968756 141.294774 
L 294.215004 156.719257 
L 294.461253 162.193002 
L 294.707502 154.982373 
L 295.2 165.123786 
L 295.446249 155.31387 
L 295.692498 150.067368 
L 295.938747 157.058207 
L 296.431244 164.890477 
L 296.677493 165.036253 
L 296.923742 111.589006 
L 296.677493 121.383371 
L 297.169991 130.338954 
L 297.41624 139.495307 
L 297.908738 145.592317 
L 298.154987 146.321745 
L 298.647485 159.986111 
L 298.893733 144.075662 
L 299.386231 146.43733 
L 299.63248 150.462575 
L 299.878729 150.259281 
L 300.124978 157.10219 
L 300.371227 143.340553 
L 300.617476 151.314135 
L 299.878729 156.646966 
L 300.863725 162.140201 
L 301.109974 151.441666 
L 301.602471 148.889122 
L 301.84872 148.410799 
L 302.094969 149.169078 
L 302.341218 158.925873 
L 302.833716 166.75897 
L 303.326214 163.991884 
L 304.06496 153.851373 
L 304.311209 163.507163 
L 304.557458 154.678149 
L 305.049956 164.265881 
L 305.296205 140.396962 
L 305.542454 138.032385 
L 306.2812 161.443839 
L 306.527449 154.750674 
L 306.773698 155.103248 
L 307.019947 160.99598 
L 307.266196 154.149562 
L 307.512445 163.795948 
L 307.758694 166.899823 
L 308.004943 146.262559 
L 308.251192 143.373802 
L 308.49744 148.04389 
L 308.989938 161.216047 
L 309.236187 163.064216 
L 309.482436 162.44175 
L 309.728685 145.992922 
L 309.974934 145.231632 
L 310.221183 149.387269 
L 310.467432 147.469769 
L 310.71368 141.092696 
L 311.206178 155.598623 
L 311.452427 144.125627 
L 311.698676 148.75357 
L 311.944925 155.984261 
L 312.191174 154.180755 
L 312.437423 158.660534 
L 312.683672 121.690263 
L 312.929921 130.39321 
L 313.422418 125.983091 
L 313.914916 145.349141 
L 314.407414 147.981535 
L 314.899912 159.071239 
L 315.39241 142.236601 
L 315.884907 158.794552 
L 316.131156 150.343764 
L 316.377405 155.939095 
L 316.623654 165.535844 
L 316.131156 167.821193 
L 316.869903 156.370019 
L 317.362401 174.708797 
L 317.60865 176.094235 
L 317.854898 145.791181 
L 318.101147 152.455978 
L 318.347396 148.747544 
L 318.839894 162.03777 
L 319.086143 144.139046 
L 319.332392 149.030538 
L 319.82489 161.821108 
L 320.071139 146.313809 
L 320.317387 152.868616 
L 320.563636 162.547036 
L 320.809885 166.20182 
L 321.056134 165.43145 
L 321.302383 159.048978 
L 321.548632 163.855613 
L 321.794881 173.145433 
L 322.04113 150.692414 
L 322.287379 147.669075 
L 322.779876 165.033928 
L 323.026125 165.108527 
L 323.518623 169.356493 
L 323.764872 145.272213 
L 324.011121 155.092835 
L 324.25737 159.275783 
L 324.503619 150.567669 
L 324.749868 156.103567 
L 324.996117 152.441149 
L 325.242365 157.452716 
L 325.488614 155.046462 
L 325.734863 160.953293 
L 326.227361 179.262539 
L 326.47361 156.695044 
L 326.227361 151.879435 
L 326.719859 149.925966 
L 327.212357 166.509646 
L 327.704854 156.162986 
L 327.212357 165.753095 
L 327.951103 72.143146 
L 328.443601 92.113796 
L 328.68985 112.107452 
L 329.428597 138.525717 
L 329.921094 152.51022 
L 329.428597 157.501513 
L 329.921094 160.066513 
L 330.167343 169.523337 
L 330.413592 167.222021 
L 330.659841 171.76854 
L 330.90609 166.105495 
L 331.152339 156.641751 
L 331.398588 153.06044 
L 331.644837 162.734238 
L 331.891086 155.257944 
L 332.137335 161.112057 
L 332.383583 156.151595 
L 332.876081 164.217841 
L 333.12233 145.240971 
L 333.368579 152.018209 
L 333.861077 175.935946 
L 334.107326 184.591695 
L 334.353575 179.588969 
L 334.599823 181.875297 
L 334.846072 168.052331 
L 335.092321 172.6995 
L 335.33857 171.879577 
L 335.584819 169.533644 
L 335.831068 169.65451 
L 336.077317 170.724665 
L 336.323566 179.583086 
L 336.569815 170.700395 
L 336.816064 169.291119 
L 337.062312 168.659121 
L 337.308561 155.725281 
L 337.55481 152.978409 
L 337.801059 159.371048 
L 338.047308 160.186021 
L 338.293557 156.181709 
L 338.539806 166.117594 
L 338.786055 165.275836 
L 339.032304 175.185597 
L 339.278553 172.925927 
L 339.524801 171.703343 
L 340.017299 188.663128 
L 340.263548 207.445375 
L 340.509797 159.947057 
L 340.756046 163.722499 
L 341.002295 173.627792 
L 341.248544 169.093603 
L 341.494793 166.803081 
L 341.741041 156.96364 
L 342.233539 162.370972 
L 342.479788 171.731245 
L 342.726037 168.152039 
L 343.218535 187.67157 
L 343.464784 177.13542 
L 343.711033 158.433806 
L 343.957282 151.828175 
L 344.449779 163.448667 
L 344.696028 157.818517 
L 344.942277 167.775077 
L 345.188526 165.299561 
L 344.942277 175.154123 
L 345.434775 183.615272 
L 345.681024 193.034768 
L 345.927273 173.242196 
L 346.419771 189.494633 
L 346.666019 175.679824 
L 346.912268 169.50003 
L 347.158517 156.305602 
L 347.651015 192.222906 
L 347.897264 201.49149 
L 348.143513 163.134711 
L 348.389762 173.045872 
L 348.636011 172.042189 
L 349.374757 200.696775 
L 349.621006 179.372782 
L 350.359753 204.357298 
L 350.606002 212.476044 
L 350.852251 184.064865 
L 351.0985 171.740806 
L 351.344748 180.807103 
L 351.590997 170.981635 
L 351.837246 172.889861 
L 352.083495 171.018874 
L 351.837246 179.854213 
L 352.329744 170.734034 
L 352.575993 159.660529 
L 353.068491 178.58034 
L 353.31474 158.201119 
L 353.560989 167.81337 
L 353.807237 186.746528 
L 354.545984 149.784661 
L 354.053486 159.529737 
L 355.038482 169.007009 
L 355.53098 168.2589 
L 355.777229 167.305866 
L 356.023477 172.842759 
L 356.515975 162.265485 
L 356.762224 167.300652 
L 357.008473 166.203394 
L 357.254722 168.447051 
L 357.500971 142.126758 
L 357.74722 151.987874 
L 357.993469 154.954967 
L 358.485966 165.10997 
L 358.732215 168.708144 
L 358.978464 166.838768 
L 358.239718 155.730287 
L 359.224713 153.150695 
L 359.470962 157.950709 
L 359.717211 149.483463 
L 359.96346 159.234334 
L 360.209709 160.20857 
L 360.455958 154.544057 
L 360.209709 158.907112 
L 360.702207 168.407206 
L 360.948455 177.544803 
L 361.194704 173.968711 
L 361.440953 164.382943 
L 362.1797 188.329746 
L 362.425949 172.551075 
L 363.164695 198.900796 
L 363.410944 162.41968 
L 363.657193 156.937871 
L 363.903442 153.974536 
L 364.149691 158.519687 
L 364.39594 168.033511 
L 364.642189 162.500174 
L 364.888438 146.704285 
L 365.134687 144.118632 
L 365.627184 158.654996 
L 365.873433 154.337795 
L 366.119682 158.767363 
L 366.365931 168.272451 
L 366.858429 139.514158 
L 367.104678 147.998462 
L 367.350927 149.708652 
L 367.597176 152.964476 
L 367.843425 162.94248 
L 368.335922 170.061032 
L 368.582171 171.688232 
L 368.82842 169.646892 
L 369.074669 170.356939 
L 369.320918 156.566847 
L 369.567167 164.052707 
L 369.813416 150.482121 
L 370.552162 169.759388 
L 370.798411 156.35733 
L 371.04466 165.941593 
L 371.290909 169.803978 
L 371.537158 170.439219 
L 371.783407 158.7647 
L 372.275905 168.704557 
L 372.522154 170.465556 
L 372.768402 170.157068 
L 373.014651 168.850672 
L 373.2609 169.221411 
L 373.507149 170.131938 
L 373.999647 161.058578 
L 374.245896 170.957278 
L 374.492145 167.784286 
L 374.738394 177.015656 
L 375.230891 144.154941 
L 375.723389 161.987274 
L 375.969638 147.534825 
L 376.215887 157.362969 
L 376.462136 177.256905 
L 376.708385 186.890244 
L 376.954634 176.942917 
L 377.200883 186.699615 
L 377.447132 158.98145 
L 377.69338 168.931656 
L 377.939629 166.936554 
L 378.185878 168.870594 
L 378.432127 160.873224 
L 378.924625 169.58862 
L 379.170874 167.249827 
L 379.417123 175.344593 
L 379.663372 168.419712 
L 380.155869 160.107359 
L 380.402118 169.562597 
L 379.663372 154.197915 
L 380.648367 160.310518 
L 381.140865 152.23999 
L 381.387114 157.855834 
L 381.633363 166.500467 
L 381.879612 161.660543 
L 382.125861 166.869685 
L 382.372109 176.762985 
L 382.618358 175.538301 
L 382.864607 184.22961 
L 383.603354 161.876844 
L 383.849603 165.766886 
L 384.095852 144.891698 
L 384.342101 154.877993 
L 384.58835 156.468105 
L 384.834598 155.997186 
L 385.080847 161.662432 
L 385.327096 171.635138 
L 385.080847 168.052671 
L 385.573345 169.527082 
L 385.819594 145.879519 
L 386.312092 165.471458 
L 386.558341 146.133385 
L 387.050838 169.932511 
L 387.543336 154.632491 
L 387.789585 160.640852 
L 388.035834 170.177834 
L 388.282083 73.253317 
L 390.498323 161.151617 
L 390.744572 159.499632 
L 390.990821 163.73859 
L 391.23707 164.468408 
L 391.483319 164.09924 
L 391.729568 160.004953 
L 391.975816 162.363777 
L 392.222065 162.876675 
L 392.468314 164.008762 
L 392.714563 161.674712 
L 392.960812 171.065724 
L 393.207061 164.270641 
L 393.45331 161.807684 
L 393.699559 160.69693 
L 393.945808 164.984157 
L 394.192056 174.215632 
L 394.438305 166.083795 
L 394.684554 163.769099 
L 394.930803 169.402594 
L 395.177052 46.343809 
L 397.639541 144.079527 
L 398.132039 157.913937 
L 398.624537 166.211054 
L 398.378288 165.688164 
L 398.624537 164.453804 
L 398.870786 167.497461 
L 399.117034 177.362304 
L 399.363283 168.781122 
L 399.609532 177.781588 
L 399.855781 176.372501 
L 400.10203 184.988172 
L 400.594528 170.307305 
L 400.840777 179.197736 
L 401.087026 174.591922 
L 401.333274 174.722947 
L 401.579523 174.401789 
L 401.825772 174.889243 
L 402.31827 194.084925 
L 402.810768 163.919584 
L 403.549515 176.827611 
L 403.795763 144.93692 
L 404.042012 164.892669 
L 404.288261 174.129037 
L 404.53451 156.539498 
L 404.780759 166.046857 
L 405.273257 162.44594 
L 406.258252 199.299013 
L 406.504501 199.5427 
L 406.996999 204.448164 
L 407.243248 206.677788 
L 407.489497 204.415044 
L 407.735746 203.403204 
L 407.981995 179.658281 
L 408.228244 197.055208 
L 408.474492 191.56171 
L 408.720741 155.637256 
L 409.213239 167.624012 
L 409.459488 177.491208 
L 409.705737 193.839955 
L 409.951986 198.832216 
L 410.444484 176.602965 
L 410.936981 195.845878 
L 411.18323 184.92929 
L 411.429479 192.022889 
L 411.675728 195.292112 
L 412.168226 171.591437 
L 412.414475 181.508765 
L 412.660724 120.855615 
L 413.891968 164.939417 
L 414.138217 167.69571 
L 414.384466 174.257553 
L 414.630715 165.752805 
L 414.876964 164.804658 
L 415.123213 174.045704 
L 415.369462 173.473526 
L 415.615711 172.240114 
L 415.861959 172.844099 
L 416.354457 189.582023 
L 416.600706 171.482013 
L 416.846955 180.489134 
L 417.339453 182.408786 
L 417.831951 196.595991 
L 418.078199 190.7508 
L 418.324448 172.930584 
L 418.816946 189.057389 
L 419.063195 190.611783 
L 419.309444 196.480678 
L 419.555693 89.686355 
L 420.29444 119.600995 
L 420.786937 129.594503 
L 421.033186 139.003336 
L 421.279435 157.842955 
L 421.771933 177.661992 
L 422.018182 174.014362 
L 422.51068 193.593278 
L 422.756929 193.545952 
L 423.003177 202.746791 
L 423.249426 193.437166 
L 423.495675 190.351919 
L 423.741924 172.904872 
L 423.988173 179.107127 
L 424.480671 184.717765 
L 424.72692 186.161356 
L 424.973169 195.893269 
L 425.219417 200.251078 
L 425.465666 198.579416 
L 425.711915 207.43551 
L 425.958164 184.176971 
L 426.450662 198.101355 
L 426.696911 202.647886 
L 426.94316 179.583354 
L 427.189409 187.530797 
L 427.435658 166.441124 
L 428.420653 196.800226 
L 428.666902 193.122174 
L 428.913151 194.844787 
L 429.1594 181.641871 
L 429.405649 184.121027 
L 429.651898 191.371345 
L 429.898147 180.874443 
L 430.390644 199.743828 
L 431.129391 178.29975 
L 431.868138 201.364235 
L 432.114387 195.985186 
L 432.360635 178.748603 
L 432.606884 188.422622 
L 432.853133 185.537149 
L 433.345631 170.235638 
L 433.59188 173.532199 
L 434.084378 187.836462 
L 434.576876 205.874122 
L 435.069373 174.368577 
L 435.561871 189.027113 
L 435.80812 189.086754 
L 436.054369 195.321929 
L 436.300618 212.380625 
L 436.546867 187.360959 
L 437.039365 202.823891 
L 437.285613 198.754074 
L 438.02436 213.257899 
L 438.270609 220.2764 
L 438.516858 216.340365 
L 438.763107 180.511464 
L 439.009356 182.380902 
L 439.255605 178.280084 
L 439.501853 186.395501 
L 439.994351 164.298514 
L 440.2406 174.164677 
L 440.486849 176.241741 
L 440.733098 184.587348 
L 440.979347 183.856875 
L 441.225596 178.818417 
L 441.471845 177.903442 
L 441.718094 186.3696 
L 441.964342 165.80811 
L 442.210591 175.713304 
L 442.45684 175.312244 
L 442.703089 176.034917 
L 442.949338 169.651213 
L 443.195587 166.313324 
L 443.441836 175.619913 
L 443.934334 175.505323 
L 444.426831 192.737287 
L 444.67308 180.343996 
L 445.165578 192.790244 
L 445.411827 189.617574 
L 445.658076 192.935021 
L 446.150574 210.021688 
L 446.396823 214.105019 
L 446.643071 211.930221 
L 446.88932 184.337035 
L 447.135569 191.986147 
L 447.381818 182.482689 
L 447.874316 195.901818 
L 448.120565 181.902131 
L 448.613063 195.651371 
L 448.859312 192.261159 
L 449.10556 182.553485 
L 449.598058 197.761106 
L 450.090556 214.678827 
L 450.336805 214.679458 
L 450.583054 207.275082 
L 450.829303 210.51752 
L 451.075552 174.595416 
L 451.568049 192.778114 
L 451.814298 187.157932 
L 452.060547 196.861721 
L 452.306796 200.920857 
L 452.553045 198.751536 
L 452.799294 195.154078 
L 453.291792 195.628023 
L 453.538041 178.693773 
L 453.784289 186.748826 
L 454.030538 186.930575 
L 454.276787 193.635332 
L 454.523036 195.284141 
L 454.769285 195.368873 
L 455.015534 169.57752 
L 455.261783 170.706753 
L 455.508032 179.571719 
L 455.754281 182.857111 
L 456.00053 192.399423 
L 456.246778 166.470954 
L 456.493027 176.418448 
L 456.739276 180.799861 
L 456.985525 188.005908 
L 457.231774 156.097493 
L 457.724272 173.75049 
L 457.970521 168.393777 
L 458.21677 172.976927 
L 458.463019 179.766584 
L 458.709267 189.646693 
L 459.201765 180.609018 
L 459.694263 194.79478 
L 459.940512 191.167656 
L 460.186761 192.751386 
L 460.43301 158.685427 
L 460.679259 168.193421 
L 460.925508 169.575483 
L 461.171756 178.704932 
L 461.418005 172.335621 
L 461.664254 174.450943 
L 461.910503 182.982753 
L 462.156752 171.50307 
L 462.403001 174.607516 
L 462.64925 172.749769 
L 462.895499 175.333144 
L 463.141748 164.825908 
L 463.634245 180.206985 
L 463.880494 175.715682 
L 464.126743 156.067891 
L 464.619241 172.729835 
L 464.86549 168.470174 
L 465.111739 170.443859 
L 465.357988 179.323911 
L 465.604237 160.882921 
L 466.096734 163.555162 
L 466.342983 168.160345 
L 466.589232 165.363136 
L 467.08173 166.623036 
L 467.574228 171.538772 
L 467.820477 180.332251 
L 468.066726 173.708849 
L 468.312974 183.486397 
L 468.559223 177.051859 
L 468.805472 173.774209 
L 469.29797 193.078681 
L 469.544219 198.309422 
L 469.790468 162.941276 
L 470.036717 172.275297 
L 470.282966 173.613654 
L 470.529214 180.581707 
L 470.775463 170.963905 
L 471.021712 174.988376 
L 471.267961 173.867834 
L 471.51421 181.403683 
L 471.760459 184.726281 
L 472.006708 201.254768 
L 472.252957 203.647773 
L 472.745455 218.716533 
L 473.237952 209.500853 
L 473.484201 207.931891 
L 473.73045 208.700027 
L 473.976699 216.17254 
L 474.222948 185.847862 
L 474.469197 176.137741 
L 474.715446 153.38273 
L 474.961695 172.972422 
L 475.207944 181.643066 
L 475.454192 180.978733 
L 475.700441 200.406919 
L 475.94669 179.339289 
L 476.192939 168.447237 
L 476.439188 169.71456 
L 476.685437 178.64901 
L 476.931686 174.389943 
L 477.177935 183.179077 
L 477.424184 201.761484 
L 477.670432 179.490823 
L 477.916681 145.539889 
L 478.409179 164.87365 
L 478.655428 182.733503 
L 478.901677 188.53792 
L 479.147926 177.339848 
L 479.394175 185.560687 
L 479.640424 171.948765 
L 479.886673 164.540948 
L 480.132921 175.124924 
L 480.37917 172.975024 
L 480.625419 160.41847 
L 480.871668 164.796321 
L 481.117917 162.810878 
L 481.364166 163.484598 
L 481.610415 172.792675 
L 481.856664 167.402857 
L 482.102913 166.250674 
L 482.349162 168.952085 
L 482.59541 177.940755 
L 482.841659 172.662903 
L 483.087908 170.639334 
L 483.334157 167.655778 
L 483.580406 160.712709 
L 484.072904 179.049145 
L 484.319153 174.071356 
L 484.565402 163.684466 
L 485.057899 171.473503 
L 485.304148 160.090073 
L 486.042895 186.979553 
L 486.289144 177.285808 
L 486.535393 172.005298 
L 486.781642 172.478137 
L 487.027891 181.192394 
L 487.274139 175.512696 
L 487.766637 183.936607 
L 488.012886 190.538283 
L 488.259135 177.777202 
L 488.505384 156.702711 
L 488.751633 162.180923 
L 488.997882 165.167071 
L 489.244131 165.462907 
L 489.49038 174.230179 
L 489.736628 176.981943 
L 489.982877 174.625034 
L 490.229126 170.273806 
L 490.475375 178.579613 
L 490.721624 174.364054 
L 491.214122 178.627818 
L 491.460371 185.704598 
L 491.70662 185.594059 
L 491.952868 78.398186 
L 493.184113 128.073247 
L 493.430362 147.222241 
L 493.676611 136.379317 
L 493.92286 71.586144 
L 496.1391 157.718885 
L 496.385349 156.617567 
L 496.877846 166.466005 
L 497.124095 165.493637 
L 497.370344 166.976258 
L 497.616593 173.801834 
L 498.109091 174.823562 
L 498.109091 174.823562 
" style="fill:none;stroke:#ff7f0e;stroke-linecap:square;stroke-width:1.5;"/>
   </g>
   <g id="patch_3">
    <path d="M 72 256.32 
L 72 34.56 
" style="fill:none;stroke:#000000;stroke-linecap:square;stroke-linejoin:miter;stroke-width:0.8;"/>
   </g>
   <g id="patch_4">
    <path d="M 518.4 256.32 
L 518.4 34.56 
" style="fill:none;stroke:#000000;stroke-linecap:square;stroke-linejoin:miter;stroke-width:0.8;"/>
   </g>
   <g id="patch_5">
    <path d="M 72 256.32 
L 518.4 256.32 
" style="fill:none;stroke:#000000;stroke-linecap:square;stroke-linejoin:miter;stroke-width:0.8;"/>
   </g>
   <g id="patch_6">
    <path d="M 72 34.56 
L 518.4 34.56 
" style="fill:none;stroke:#000000;stroke-linecap:square;stroke-linejoin:miter;stroke-width:0.8;"/>
   </g>
  </g>
 </g>
 <defs>
  <clipPath id="p4d405ad0cd">
   <rect height="221.76" width="446.4" x="72" y="34.56"/>
  </clipPath>
 </defs>
</svg>
