<?xml version="1.0" encoding="utf-8" standalone="no"?>
<!DOCTYPE svg PUBLIC "-//W3C//DTD SVG 1.1//EN"
  "http://www.w3.org/Graphics/SVG/1.1/DTD/svg11.dtd">
<svg height="345.6pt" version="1.1" viewBox="0 0 460.8 345.6" width="460.8pt" xmlns="http://www.w3.org/2000/svg" xmlns:xlink="http://www.w3.org/1999/xlink">
 <metadata>
  <rdf:RDF xmlns:cc="http://creativecommons.org/ns#" xmlns:dc="http://purl.org/dc/elements/1.1/" xmlns:rdf="http://www.w3.org/1999/02/22-rdf-syntax-ns#">
   <cc:Work>
    <dc:type rdf:resource="http://purl.org/dc/dcmitype/StillImage"/>
    <dc:date>2022-01-07T02:37:35.442170</dc:date>
    <dc:format>image/svg+xml</dc:format>
    <dc:creator>
     <cc:Agent>
      <dc:title>Matplotlib v3.4.3, https://matplotlib.org/</dc:title>
     </cc:Agent>
    </dc:creator>
   </cc:Work>
  </rdf:RDF>
 </metadata>
 <defs>
  <style type="text/css">*{stroke-linecap:butt;stroke-linejoin:round;}</style>
 </defs>
 <g id="figure_1">
  <g id="patch_1">
   <path d="M 0 345.6 
L 460.8 345.6 
L 460.8 0 
L 0 0 
z
" style="fill:#ffffff;"/>
  </g>
  <g id="axes_1">
   <g id="patch_2">
    <path d="M 57.6 307.584 
L 414.72 307.584 
L 414.72 41.472 
L 57.6 41.472 
z
" style="fill:#ffffff;"/>
   </g>
   <g id="matplotlib.axis_1">
    <g id="xtick_1">
     <g id="line2d_1">
      <defs>
       <path d="M 0 0 
L 0 3.5 
" id="m582887bef0" style="stroke:#000000;stroke-width:0.8;"/>
      </defs>
      <g>
       <use style="stroke:#000000;stroke-width:0.8;" x="73.832727" xlink:href="#m582887bef0" y="307.584"/>
      </g>
     </g>
     <g id="text_1">
      <!-- 39000 -->
      <g transform="translate(57.926477 322.182437)scale(0.1 -0.1)">
       <defs>
        <path d="M 2597 2516 
Q 3050 2419 3304 2112 
Q 3559 1806 3559 1356 
Q 3559 666 3084 287 
Q 2609 -91 1734 -91 
Q 1441 -91 1130 -33 
Q 819 25 488 141 
L 488 750 
Q 750 597 1062 519 
Q 1375 441 1716 441 
Q 2309 441 2620 675 
Q 2931 909 2931 1356 
Q 2931 1769 2642 2001 
Q 2353 2234 1838 2234 
L 1294 2234 
L 1294 2753 
L 1863 2753 
Q 2328 2753 2575 2939 
Q 2822 3125 2822 3475 
Q 2822 3834 2567 4026 
Q 2313 4219 1838 4219 
Q 1578 4219 1281 4162 
Q 984 4106 628 3988 
L 628 4550 
Q 988 4650 1302 4700 
Q 1616 4750 1894 4750 
Q 2613 4750 3031 4423 
Q 3450 4097 3450 3541 
Q 3450 3153 3228 2886 
Q 3006 2619 2597 2516 
z
" id="DejaVuSans-33" transform="scale(0.015625)"/>
        <path d="M 703 97 
L 703 672 
Q 941 559 1184 500 
Q 1428 441 1663 441 
Q 2288 441 2617 861 
Q 2947 1281 2994 2138 
Q 2813 1869 2534 1725 
Q 2256 1581 1919 1581 
Q 1219 1581 811 2004 
Q 403 2428 403 3163 
Q 403 3881 828 4315 
Q 1253 4750 1959 4750 
Q 2769 4750 3195 4129 
Q 3622 3509 3622 2328 
Q 3622 1225 3098 567 
Q 2575 -91 1691 -91 
Q 1453 -91 1209 -44 
Q 966 3 703 97 
z
M 1959 2075 
Q 2384 2075 2632 2365 
Q 2881 2656 2881 3163 
Q 2881 3666 2632 3958 
Q 2384 4250 1959 4250 
Q 1534 4250 1286 3958 
Q 1038 3666 1038 3163 
Q 1038 2656 1286 2365 
Q 1534 2075 1959 2075 
z
" id="DejaVuSans-39" transform="scale(0.015625)"/>
        <path d="M 2034 4250 
Q 1547 4250 1301 3770 
Q 1056 3291 1056 2328 
Q 1056 1369 1301 889 
Q 1547 409 2034 409 
Q 2525 409 2770 889 
Q 3016 1369 3016 2328 
Q 3016 3291 2770 3770 
Q 2525 4250 2034 4250 
z
M 2034 4750 
Q 2819 4750 3233 4129 
Q 3647 3509 3647 2328 
Q 3647 1150 3233 529 
Q 2819 -91 2034 -91 
Q 1250 -91 836 529 
Q 422 1150 422 2328 
Q 422 3509 836 4129 
Q 1250 4750 2034 4750 
z
" id="DejaVuSans-30" transform="scale(0.015625)"/>
       </defs>
       <use xlink:href="#DejaVuSans-33"/>
       <use x="63.623047" xlink:href="#DejaVuSans-39"/>
       <use x="127.246094" xlink:href="#DejaVuSans-30"/>
       <use x="190.869141" xlink:href="#DejaVuSans-30"/>
       <use x="254.492188" xlink:href="#DejaVuSans-30"/>
      </g>
     </g>
    </g>
    <g id="xtick_2">
     <g id="line2d_2">
      <g>
       <use style="stroke:#000000;stroke-width:0.8;" x="123.082507" xlink:href="#m582887bef0" y="307.584"/>
      </g>
     </g>
     <g id="text_2">
      <!-- 39250 -->
      <g transform="translate(107.176257 322.182437)scale(0.1 -0.1)">
       <defs>
        <path d="M 1228 531 
L 3431 531 
L 3431 0 
L 469 0 
L 469 531 
Q 828 903 1448 1529 
Q 2069 2156 2228 2338 
Q 2531 2678 2651 2914 
Q 2772 3150 2772 3378 
Q 2772 3750 2511 3984 
Q 2250 4219 1831 4219 
Q 1534 4219 1204 4116 
Q 875 4013 500 3803 
L 500 4441 
Q 881 4594 1212 4672 
Q 1544 4750 1819 4750 
Q 2544 4750 2975 4387 
Q 3406 4025 3406 3419 
Q 3406 3131 3298 2873 
Q 3191 2616 2906 2266 
Q 2828 2175 2409 1742 
Q 1991 1309 1228 531 
z
" id="DejaVuSans-32" transform="scale(0.015625)"/>
        <path d="M 691 4666 
L 3169 4666 
L 3169 4134 
L 1269 4134 
L 1269 2991 
Q 1406 3038 1543 3061 
Q 1681 3084 1819 3084 
Q 2600 3084 3056 2656 
Q 3513 2228 3513 1497 
Q 3513 744 3044 326 
Q 2575 -91 1722 -91 
Q 1428 -91 1123 -41 
Q 819 9 494 109 
L 494 744 
Q 775 591 1075 516 
Q 1375 441 1709 441 
Q 2250 441 2565 725 
Q 2881 1009 2881 1497 
Q 2881 1984 2565 2268 
Q 2250 2553 1709 2553 
Q 1456 2553 1204 2497 
Q 953 2441 691 2322 
L 691 4666 
z
" id="DejaVuSans-35" transform="scale(0.015625)"/>
       </defs>
       <use xlink:href="#DejaVuSans-33"/>
       <use x="63.623047" xlink:href="#DejaVuSans-39"/>
       <use x="127.246094" xlink:href="#DejaVuSans-32"/>
       <use x="190.869141" xlink:href="#DejaVuSans-35"/>
       <use x="254.492188" xlink:href="#DejaVuSans-30"/>
      </g>
     </g>
    </g>
    <g id="xtick_3">
     <g id="line2d_3">
      <g>
       <use style="stroke:#000000;stroke-width:0.8;" x="172.332286" xlink:href="#m582887bef0" y="307.584"/>
      </g>
     </g>
     <g id="text_3">
      <!-- 39500 -->
      <g transform="translate(156.426036 322.182437)scale(0.1 -0.1)">
       <use xlink:href="#DejaVuSans-33"/>
       <use x="63.623047" xlink:href="#DejaVuSans-39"/>
       <use x="127.246094" xlink:href="#DejaVuSans-35"/>
       <use x="190.869141" xlink:href="#DejaVuSans-30"/>
       <use x="254.492188" xlink:href="#DejaVuSans-30"/>
      </g>
     </g>
    </g>
    <g id="xtick_4">
     <g id="line2d_4">
      <g>
       <use style="stroke:#000000;stroke-width:0.8;" x="221.582065" xlink:href="#m582887bef0" y="307.584"/>
      </g>
     </g>
     <g id="text_4">
      <!-- 39750 -->
      <g transform="translate(205.675815 322.182437)scale(0.1 -0.1)">
       <defs>
        <path d="M 525 4666 
L 3525 4666 
L 3525 4397 
L 1831 0 
L 1172 0 
L 2766 4134 
L 525 4134 
L 525 4666 
z
" id="DejaVuSans-37" transform="scale(0.015625)"/>
       </defs>
       <use xlink:href="#DejaVuSans-33"/>
       <use x="63.623047" xlink:href="#DejaVuSans-39"/>
       <use x="127.246094" xlink:href="#DejaVuSans-37"/>
       <use x="190.869141" xlink:href="#DejaVuSans-35"/>
       <use x="254.492188" xlink:href="#DejaVuSans-30"/>
      </g>
     </g>
    </g>
    <g id="xtick_5">
     <g id="line2d_5">
      <g>
       <use style="stroke:#000000;stroke-width:0.8;" x="270.831845" xlink:href="#m582887bef0" y="307.584"/>
      </g>
     </g>
     <g id="text_5">
      <!-- 40000 -->
      <g transform="translate(254.925595 322.182437)scale(0.1 -0.1)">
       <defs>
        <path d="M 2419 4116 
L 825 1625 
L 2419 1625 
L 2419 4116 
z
M 2253 4666 
L 3047 4666 
L 3047 1625 
L 3713 1625 
L 3713 1100 
L 3047 1100 
L 3047 0 
L 2419 0 
L 2419 1100 
L 313 1100 
L 313 1709 
L 2253 4666 
z
" id="DejaVuSans-34" transform="scale(0.015625)"/>
       </defs>
       <use xlink:href="#DejaVuSans-34"/>
       <use x="63.623047" xlink:href="#DejaVuSans-30"/>
       <use x="127.246094" xlink:href="#DejaVuSans-30"/>
       <use x="190.869141" xlink:href="#DejaVuSans-30"/>
       <use x="254.492188" xlink:href="#DejaVuSans-30"/>
      </g>
     </g>
    </g>
    <g id="xtick_6">
     <g id="line2d_6">
      <g>
       <use style="stroke:#000000;stroke-width:0.8;" x="320.081624" xlink:href="#m582887bef0" y="307.584"/>
      </g>
     </g>
     <g id="text_6">
      <!-- 40250 -->
      <g transform="translate(304.175374 322.182437)scale(0.1 -0.1)">
       <use xlink:href="#DejaVuSans-34"/>
       <use x="63.623047" xlink:href="#DejaVuSans-30"/>
       <use x="127.246094" xlink:href="#DejaVuSans-32"/>
       <use x="190.869141" xlink:href="#DejaVuSans-35"/>
       <use x="254.492188" xlink:href="#DejaVuSans-30"/>
      </g>
     </g>
    </g>
    <g id="xtick_7">
     <g id="line2d_7">
      <g>
       <use style="stroke:#000000;stroke-width:0.8;" x="369.331403" xlink:href="#m582887bef0" y="307.584"/>
      </g>
     </g>
     <g id="text_7">
      <!-- 40500 -->
      <g transform="translate(353.425153 322.182437)scale(0.1 -0.1)">
       <use xlink:href="#DejaVuSans-34"/>
       <use x="63.623047" xlink:href="#DejaVuSans-30"/>
       <use x="127.246094" xlink:href="#DejaVuSans-35"/>
       <use x="190.869141" xlink:href="#DejaVuSans-30"/>
       <use x="254.492188" xlink:href="#DejaVuSans-30"/>
      </g>
     </g>
    </g>
    <g id="text_8">
     <!-- Block Height -->
     <g transform="translate(204.518594 335.860562)scale(0.1 -0.1)">
      <defs>
       <path d="M 1259 2228 
L 1259 519 
L 2272 519 
Q 2781 519 3026 730 
Q 3272 941 3272 1375 
Q 3272 1813 3026 2020 
Q 2781 2228 2272 2228 
L 1259 2228 
z
M 1259 4147 
L 1259 2741 
L 2194 2741 
Q 2656 2741 2882 2914 
Q 3109 3088 3109 3444 
Q 3109 3797 2882 3972 
Q 2656 4147 2194 4147 
L 1259 4147 
z
M 628 4666 
L 2241 4666 
Q 2963 4666 3353 4366 
Q 3744 4066 3744 3513 
Q 3744 3084 3544 2831 
Q 3344 2578 2956 2516 
Q 3422 2416 3680 2098 
Q 3938 1781 3938 1306 
Q 3938 681 3513 340 
Q 3088 0 2303 0 
L 628 0 
L 628 4666 
z
" id="DejaVuSans-42" transform="scale(0.015625)"/>
       <path d="M 603 4863 
L 1178 4863 
L 1178 0 
L 603 0 
L 603 4863 
z
" id="DejaVuSans-6c" transform="scale(0.015625)"/>
       <path d="M 1959 3097 
Q 1497 3097 1228 2736 
Q 959 2375 959 1747 
Q 959 1119 1226 758 
Q 1494 397 1959 397 
Q 2419 397 2687 759 
Q 2956 1122 2956 1747 
Q 2956 2369 2687 2733 
Q 2419 3097 1959 3097 
z
M 1959 3584 
Q 2709 3584 3137 3096 
Q 3566 2609 3566 1747 
Q 3566 888 3137 398 
Q 2709 -91 1959 -91 
Q 1206 -91 779 398 
Q 353 888 353 1747 
Q 353 2609 779 3096 
Q 1206 3584 1959 3584 
z
" id="DejaVuSans-6f" transform="scale(0.015625)"/>
       <path d="M 3122 3366 
L 3122 2828 
Q 2878 2963 2633 3030 
Q 2388 3097 2138 3097 
Q 1578 3097 1268 2742 
Q 959 2388 959 1747 
Q 959 1106 1268 751 
Q 1578 397 2138 397 
Q 2388 397 2633 464 
Q 2878 531 3122 666 
L 3122 134 
Q 2881 22 2623 -34 
Q 2366 -91 2075 -91 
Q 1284 -91 818 406 
Q 353 903 353 1747 
Q 353 2603 823 3093 
Q 1294 3584 2113 3584 
Q 2378 3584 2631 3529 
Q 2884 3475 3122 3366 
z
" id="DejaVuSans-63" transform="scale(0.015625)"/>
       <path d="M 581 4863 
L 1159 4863 
L 1159 1991 
L 2875 3500 
L 3609 3500 
L 1753 1863 
L 3688 0 
L 2938 0 
L 1159 1709 
L 1159 0 
L 581 0 
L 581 4863 
z
" id="DejaVuSans-6b" transform="scale(0.015625)"/>
       <path id="DejaVuSans-20" transform="scale(0.015625)"/>
       <path d="M 628 4666 
L 1259 4666 
L 1259 2753 
L 3553 2753 
L 3553 4666 
L 4184 4666 
L 4184 0 
L 3553 0 
L 3553 2222 
L 1259 2222 
L 1259 0 
L 628 0 
L 628 4666 
z
" id="DejaVuSans-48" transform="scale(0.015625)"/>
       <path d="M 3597 1894 
L 3597 1613 
L 953 1613 
Q 991 1019 1311 708 
Q 1631 397 2203 397 
Q 2534 397 2845 478 
Q 3156 559 3463 722 
L 3463 178 
Q 3153 47 2828 -22 
Q 2503 -91 2169 -91 
Q 1331 -91 842 396 
Q 353 884 353 1716 
Q 353 2575 817 3079 
Q 1281 3584 2069 3584 
Q 2775 3584 3186 3129 
Q 3597 2675 3597 1894 
z
M 3022 2063 
Q 3016 2534 2758 2815 
Q 2500 3097 2075 3097 
Q 1594 3097 1305 2825 
Q 1016 2553 972 2059 
L 3022 2063 
z
" id="DejaVuSans-65" transform="scale(0.015625)"/>
       <path d="M 603 3500 
L 1178 3500 
L 1178 0 
L 603 0 
L 603 3500 
z
M 603 4863 
L 1178 4863 
L 1178 4134 
L 603 4134 
L 603 4863 
z
" id="DejaVuSans-69" transform="scale(0.015625)"/>
       <path d="M 2906 1791 
Q 2906 2416 2648 2759 
Q 2391 3103 1925 3103 
Q 1463 3103 1205 2759 
Q 947 2416 947 1791 
Q 947 1169 1205 825 
Q 1463 481 1925 481 
Q 2391 481 2648 825 
Q 2906 1169 2906 1791 
z
M 3481 434 
Q 3481 -459 3084 -895 
Q 2688 -1331 1869 -1331 
Q 1566 -1331 1297 -1286 
Q 1028 -1241 775 -1147 
L 775 -588 
Q 1028 -725 1275 -790 
Q 1522 -856 1778 -856 
Q 2344 -856 2625 -561 
Q 2906 -266 2906 331 
L 2906 616 
Q 2728 306 2450 153 
Q 2172 0 1784 0 
Q 1141 0 747 490 
Q 353 981 353 1791 
Q 353 2603 747 3093 
Q 1141 3584 1784 3584 
Q 2172 3584 2450 3431 
Q 2728 3278 2906 2969 
L 2906 3500 
L 3481 3500 
L 3481 434 
z
" id="DejaVuSans-67" transform="scale(0.015625)"/>
       <path d="M 3513 2113 
L 3513 0 
L 2938 0 
L 2938 2094 
Q 2938 2591 2744 2837 
Q 2550 3084 2163 3084 
Q 1697 3084 1428 2787 
Q 1159 2491 1159 1978 
L 1159 0 
L 581 0 
L 581 4863 
L 1159 4863 
L 1159 2956 
Q 1366 3272 1645 3428 
Q 1925 3584 2291 3584 
Q 2894 3584 3203 3211 
Q 3513 2838 3513 2113 
z
" id="DejaVuSans-68" transform="scale(0.015625)"/>
       <path d="M 1172 4494 
L 1172 3500 
L 2356 3500 
L 2356 3053 
L 1172 3053 
L 1172 1153 
Q 1172 725 1289 603 
Q 1406 481 1766 481 
L 2356 481 
L 2356 0 
L 1766 0 
Q 1100 0 847 248 
Q 594 497 594 1153 
L 594 3053 
L 172 3053 
L 172 3500 
L 594 3500 
L 594 4494 
L 1172 4494 
z
" id="DejaVuSans-74" transform="scale(0.015625)"/>
      </defs>
      <use xlink:href="#DejaVuSans-42"/>
      <use x="68.603516" xlink:href="#DejaVuSans-6c"/>
      <use x="96.386719" xlink:href="#DejaVuSans-6f"/>
      <use x="157.568359" xlink:href="#DejaVuSans-63"/>
      <use x="212.548828" xlink:href="#DejaVuSans-6b"/>
      <use x="270.458984" xlink:href="#DejaVuSans-20"/>
      <use x="302.246094" xlink:href="#DejaVuSans-48"/>
      <use x="377.441406" xlink:href="#DejaVuSans-65"/>
      <use x="438.964844" xlink:href="#DejaVuSans-69"/>
      <use x="466.748047" xlink:href="#DejaVuSans-67"/>
      <use x="530.224609" xlink:href="#DejaVuSans-68"/>
      <use x="593.603516" xlink:href="#DejaVuSans-74"/>
     </g>
    </g>
   </g>
   <g id="matplotlib.axis_2">
    <g id="ytick_1">
     <g id="line2d_8">
      <defs>
       <path d="M 0 0 
L -3.5 0 
" id="mae235948d4" style="stroke:#000000;stroke-width:0.8;"/>
      </defs>
      <g>
       <use style="stroke:#000000;stroke-width:0.8;" x="57.6" xlink:href="#mae235948d4" y="307.584"/>
      </g>
     </g>
     <g id="text_9">
      <!-- 0.0 -->
      <g transform="translate(34.696875 311.383219)scale(0.1 -0.1)">
       <defs>
        <path d="M 684 794 
L 1344 794 
L 1344 0 
L 684 0 
L 684 794 
z
" id="DejaVuSans-2e" transform="scale(0.015625)"/>
       </defs>
       <use xlink:href="#DejaVuSans-30"/>
       <use x="63.623047" xlink:href="#DejaVuSans-2e"/>
       <use x="95.410156" xlink:href="#DejaVuSans-30"/>
      </g>
     </g>
    </g>
    <g id="ytick_2">
     <g id="line2d_9">
      <g>
       <use style="stroke:#000000;stroke-width:0.8;" x="57.6" xlink:href="#mae235948d4" y="274.32"/>
      </g>
     </g>
     <g id="text_10">
      <!-- 2.5 -->
      <g transform="translate(34.696875 278.119219)scale(0.1 -0.1)">
       <use xlink:href="#DejaVuSans-32"/>
       <use x="63.623047" xlink:href="#DejaVuSans-2e"/>
       <use x="95.410156" xlink:href="#DejaVuSans-35"/>
      </g>
     </g>
    </g>
    <g id="ytick_3">
     <g id="line2d_10">
      <g>
       <use style="stroke:#000000;stroke-width:0.8;" x="57.6" xlink:href="#mae235948d4" y="241.056"/>
      </g>
     </g>
     <g id="text_11">
      <!-- 5.0 -->
      <g transform="translate(34.696875 244.855219)scale(0.1 -0.1)">
       <use xlink:href="#DejaVuSans-35"/>
       <use x="63.623047" xlink:href="#DejaVuSans-2e"/>
       <use x="95.410156" xlink:href="#DejaVuSans-30"/>
      </g>
     </g>
    </g>
    <g id="ytick_4">
     <g id="line2d_11">
      <g>
       <use style="stroke:#000000;stroke-width:0.8;" x="57.6" xlink:href="#mae235948d4" y="207.792"/>
      </g>
     </g>
     <g id="text_12">
      <!-- 7.5 -->
      <g transform="translate(34.696875 211.591219)scale(0.1 -0.1)">
       <use xlink:href="#DejaVuSans-37"/>
       <use x="63.623047" xlink:href="#DejaVuSans-2e"/>
       <use x="95.410156" xlink:href="#DejaVuSans-35"/>
      </g>
     </g>
    </g>
    <g id="ytick_5">
     <g id="line2d_12">
      <g>
       <use style="stroke:#000000;stroke-width:0.8;" x="57.6" xlink:href="#mae235948d4" y="174.528"/>
      </g>
     </g>
     <g id="text_13">
      <!-- 10.0 -->
      <g transform="translate(28.334375 178.327219)scale(0.1 -0.1)">
       <defs>
        <path d="M 794 531 
L 1825 531 
L 1825 4091 
L 703 3866 
L 703 4441 
L 1819 4666 
L 2450 4666 
L 2450 531 
L 3481 531 
L 3481 0 
L 794 0 
L 794 531 
z
" id="DejaVuSans-31" transform="scale(0.015625)"/>
       </defs>
       <use xlink:href="#DejaVuSans-31"/>
       <use x="63.623047" xlink:href="#DejaVuSans-30"/>
       <use x="127.246094" xlink:href="#DejaVuSans-2e"/>
       <use x="159.033203" xlink:href="#DejaVuSans-30"/>
      </g>
     </g>
    </g>
    <g id="ytick_6">
     <g id="line2d_13">
      <g>
       <use style="stroke:#000000;stroke-width:0.8;" x="57.6" xlink:href="#mae235948d4" y="141.264"/>
      </g>
     </g>
     <g id="text_14">
      <!-- 12.5 -->
      <g transform="translate(28.334375 145.063219)scale(0.1 -0.1)">
       <use xlink:href="#DejaVuSans-31"/>
       <use x="63.623047" xlink:href="#DejaVuSans-32"/>
       <use x="127.246094" xlink:href="#DejaVuSans-2e"/>
       <use x="159.033203" xlink:href="#DejaVuSans-35"/>
      </g>
     </g>
    </g>
    <g id="ytick_7">
     <g id="line2d_14">
      <g>
       <use style="stroke:#000000;stroke-width:0.8;" x="57.6" xlink:href="#mae235948d4" y="108"/>
      </g>
     </g>
     <g id="text_15">
      <!-- 15.0 -->
      <g transform="translate(28.334375 111.799219)scale(0.1 -0.1)">
       <use xlink:href="#DejaVuSans-31"/>
       <use x="63.623047" xlink:href="#DejaVuSans-35"/>
       <use x="127.246094" xlink:href="#DejaVuSans-2e"/>
       <use x="159.033203" xlink:href="#DejaVuSans-30"/>
      </g>
     </g>
    </g>
    <g id="ytick_8">
     <g id="line2d_15">
      <g>
       <use style="stroke:#000000;stroke-width:0.8;" x="57.6" xlink:href="#mae235948d4" y="74.736"/>
      </g>
     </g>
     <g id="text_16">
      <!-- 17.5 -->
      <g transform="translate(28.334375 78.535219)scale(0.1 -0.1)">
       <use xlink:href="#DejaVuSans-31"/>
       <use x="63.623047" xlink:href="#DejaVuSans-37"/>
       <use x="127.246094" xlink:href="#DejaVuSans-2e"/>
       <use x="159.033203" xlink:href="#DejaVuSans-35"/>
      </g>
     </g>
    </g>
    <g id="ytick_9">
     <g id="line2d_16">
      <g>
       <use style="stroke:#000000;stroke-width:0.8;" x="57.6" xlink:href="#mae235948d4" y="41.472"/>
      </g>
     </g>
     <g id="text_17">
      <!-- 20.0 -->
      <g transform="translate(28.334375 45.271219)scale(0.1 -0.1)">
       <use xlink:href="#DejaVuSans-32"/>
       <use x="63.623047" xlink:href="#DejaVuSans-30"/>
       <use x="127.246094" xlink:href="#DejaVuSans-2e"/>
       <use x="159.033203" xlink:href="#DejaVuSans-30"/>
      </g>
     </g>
    </g>
    <g id="text_18">
     <!-- Estimated fee for "stack-stx" -->
     <g transform="translate(22.254687 246.543625)rotate(-90)scale(0.1 -0.1)">
      <defs>
       <path d="M 628 4666 
L 3578 4666 
L 3578 4134 
L 1259 4134 
L 1259 2753 
L 3481 2753 
L 3481 2222 
L 1259 2222 
L 1259 531 
L 3634 531 
L 3634 0 
L 628 0 
L 628 4666 
z
" id="DejaVuSans-45" transform="scale(0.015625)"/>
       <path d="M 2834 3397 
L 2834 2853 
Q 2591 2978 2328 3040 
Q 2066 3103 1784 3103 
Q 1356 3103 1142 2972 
Q 928 2841 928 2578 
Q 928 2378 1081 2264 
Q 1234 2150 1697 2047 
L 1894 2003 
Q 2506 1872 2764 1633 
Q 3022 1394 3022 966 
Q 3022 478 2636 193 
Q 2250 -91 1575 -91 
Q 1294 -91 989 -36 
Q 684 19 347 128 
L 347 722 
Q 666 556 975 473 
Q 1284 391 1588 391 
Q 1994 391 2212 530 
Q 2431 669 2431 922 
Q 2431 1156 2273 1281 
Q 2116 1406 1581 1522 
L 1381 1569 
Q 847 1681 609 1914 
Q 372 2147 372 2553 
Q 372 3047 722 3315 
Q 1072 3584 1716 3584 
Q 2034 3584 2315 3537 
Q 2597 3491 2834 3397 
z
" id="DejaVuSans-73" transform="scale(0.015625)"/>
       <path d="M 3328 2828 
Q 3544 3216 3844 3400 
Q 4144 3584 4550 3584 
Q 5097 3584 5394 3201 
Q 5691 2819 5691 2113 
L 5691 0 
L 5113 0 
L 5113 2094 
Q 5113 2597 4934 2840 
Q 4756 3084 4391 3084 
Q 3944 3084 3684 2787 
Q 3425 2491 3425 1978 
L 3425 0 
L 2847 0 
L 2847 2094 
Q 2847 2600 2669 2842 
Q 2491 3084 2119 3084 
Q 1678 3084 1418 2786 
Q 1159 2488 1159 1978 
L 1159 0 
L 581 0 
L 581 3500 
L 1159 3500 
L 1159 2956 
Q 1356 3278 1631 3431 
Q 1906 3584 2284 3584 
Q 2666 3584 2933 3390 
Q 3200 3197 3328 2828 
z
" id="DejaVuSans-6d" transform="scale(0.015625)"/>
       <path d="M 2194 1759 
Q 1497 1759 1228 1600 
Q 959 1441 959 1056 
Q 959 750 1161 570 
Q 1363 391 1709 391 
Q 2188 391 2477 730 
Q 2766 1069 2766 1631 
L 2766 1759 
L 2194 1759 
z
M 3341 1997 
L 3341 0 
L 2766 0 
L 2766 531 
Q 2569 213 2275 61 
Q 1981 -91 1556 -91 
Q 1019 -91 701 211 
Q 384 513 384 1019 
Q 384 1609 779 1909 
Q 1175 2209 1959 2209 
L 2766 2209 
L 2766 2266 
Q 2766 2663 2505 2880 
Q 2244 3097 1772 3097 
Q 1472 3097 1187 3025 
Q 903 2953 641 2809 
L 641 3341 
Q 956 3463 1253 3523 
Q 1550 3584 1831 3584 
Q 2591 3584 2966 3190 
Q 3341 2797 3341 1997 
z
" id="DejaVuSans-61" transform="scale(0.015625)"/>
       <path d="M 2906 2969 
L 2906 4863 
L 3481 4863 
L 3481 0 
L 2906 0 
L 2906 525 
Q 2725 213 2448 61 
Q 2172 -91 1784 -91 
Q 1150 -91 751 415 
Q 353 922 353 1747 
Q 353 2572 751 3078 
Q 1150 3584 1784 3584 
Q 2172 3584 2448 3432 
Q 2725 3281 2906 2969 
z
M 947 1747 
Q 947 1113 1208 752 
Q 1469 391 1925 391 
Q 2381 391 2643 752 
Q 2906 1113 2906 1747 
Q 2906 2381 2643 2742 
Q 2381 3103 1925 3103 
Q 1469 3103 1208 2742 
Q 947 2381 947 1747 
z
" id="DejaVuSans-64" transform="scale(0.015625)"/>
       <path d="M 2375 4863 
L 2375 4384 
L 1825 4384 
Q 1516 4384 1395 4259 
Q 1275 4134 1275 3809 
L 1275 3500 
L 2222 3500 
L 2222 3053 
L 1275 3053 
L 1275 0 
L 697 0 
L 697 3053 
L 147 3053 
L 147 3500 
L 697 3500 
L 697 3744 
Q 697 4328 969 4595 
Q 1241 4863 1831 4863 
L 2375 4863 
z
" id="DejaVuSans-66" transform="scale(0.015625)"/>
       <path d="M 2631 2963 
Q 2534 3019 2420 3045 
Q 2306 3072 2169 3072 
Q 1681 3072 1420 2755 
Q 1159 2438 1159 1844 
L 1159 0 
L 581 0 
L 581 3500 
L 1159 3500 
L 1159 2956 
Q 1341 3275 1631 3429 
Q 1922 3584 2338 3584 
Q 2397 3584 2469 3576 
Q 2541 3569 2628 3553 
L 2631 2963 
z
" id="DejaVuSans-72" transform="scale(0.015625)"/>
       <path d="M 1147 4666 
L 1147 2931 
L 616 2931 
L 616 4666 
L 1147 4666 
z
M 2328 4666 
L 2328 2931 
L 1797 2931 
L 1797 4666 
L 2328 4666 
z
" id="DejaVuSans-22" transform="scale(0.015625)"/>
       <path d="M 313 2009 
L 1997 2009 
L 1997 1497 
L 313 1497 
L 313 2009 
z
" id="DejaVuSans-2d" transform="scale(0.015625)"/>
       <path d="M 3513 3500 
L 2247 1797 
L 3578 0 
L 2900 0 
L 1881 1375 
L 863 0 
L 184 0 
L 1544 1831 
L 300 3500 
L 978 3500 
L 1906 2253 
L 2834 3500 
L 3513 3500 
z
" id="DejaVuSans-78" transform="scale(0.015625)"/>
      </defs>
      <use xlink:href="#DejaVuSans-45"/>
      <use x="63.183594" xlink:href="#DejaVuSans-73"/>
      <use x="115.283203" xlink:href="#DejaVuSans-74"/>
      <use x="154.492188" xlink:href="#DejaVuSans-69"/>
      <use x="182.275391" xlink:href="#DejaVuSans-6d"/>
      <use x="279.6875" xlink:href="#DejaVuSans-61"/>
      <use x="340.966797" xlink:href="#DejaVuSans-74"/>
      <use x="380.175781" xlink:href="#DejaVuSans-65"/>
      <use x="441.699219" xlink:href="#DejaVuSans-64"/>
      <use x="505.175781" xlink:href="#DejaVuSans-20"/>
      <use x="536.962891" xlink:href="#DejaVuSans-66"/>
      <use x="572.167969" xlink:href="#DejaVuSans-65"/>
      <use x="633.691406" xlink:href="#DejaVuSans-65"/>
      <use x="695.214844" xlink:href="#DejaVuSans-20"/>
      <use x="727.001953" xlink:href="#DejaVuSans-66"/>
      <use x="762.207031" xlink:href="#DejaVuSans-6f"/>
      <use x="823.388672" xlink:href="#DejaVuSans-72"/>
      <use x="864.501953" xlink:href="#DejaVuSans-20"/>
      <use x="896.289062" xlink:href="#DejaVuSans-22"/>
      <use x="942.285156" xlink:href="#DejaVuSans-73"/>
      <use x="994.384766" xlink:href="#DejaVuSans-74"/>
      <use x="1033.59375" xlink:href="#DejaVuSans-61"/>
      <use x="1094.873047" xlink:href="#DejaVuSans-63"/>
      <use x="1149.853516" xlink:href="#DejaVuSans-6b"/>
      <use x="1207.763672" xlink:href="#DejaVuSans-2d"/>
      <use x="1243.847656" xlink:href="#DejaVuSans-73"/>
      <use x="1295.947266" xlink:href="#DejaVuSans-74"/>
      <use x="1335.15625" xlink:href="#DejaVuSans-78"/>
      <use x="1394.335938" xlink:href="#DejaVuSans-22"/>
     </g>
    </g>
   </g>
   <g id="line2d_17">
    <path clip-path="url(#pa7c8d2f6d4)" d="M 73.832727 304.088641 
L 74.029726 304.14917 
L 73.832727 303.958304 
L 74.423725 303.743735 
L 74.620724 303.389339 
L 74.817723 303.783192 
L 75.211721 299.483543 
L 75.40872 303.24555 
L 75.211721 305.126554 
L 75.605719 304.040642 
L 75.802718 294.700402 
L 76.196717 302.006599 
L 76.393716 301.220666 
L 76.787714 303.039985 
L 76.984713 302.997358 
L 77.378711 305.144646 
L 77.575711 305.917479 
L 77.969709 305.063589 
L 78.166708 305.212603 
L 78.363707 305.791222 
L 78.560706 304.542707 
L 78.757705 304.752097 
L 79.151703 300.774724 
L 79.545702 304.391241 
L 79.9397 304.769345 
L 80.333698 305.884785 
L 80.530697 305.524416 
L 80.924695 306.362728 
L 81.121695 306.250608 
L 81.515693 305.273666 
L 81.712692 296.240307 
L 82.10669 303.608944 
L 82.303689 122.210594 
L 82.697688 252.18894 
L 83.288685 294.818848 
L 83.485684 297.384861 
L 83.682683 301.513748 
L 83.879682 302.150894 
L 84.076681 303.180297 
L 84.47068 302.493464 
L 84.667679 302.424347 
L 84.864678 303.596802 
L 85.061677 302.900511 
L 85.258676 302.830974 
L 85.455675 301.990131 
L 86.046673 304.363173 
L 86.243672 304.065305 
L 86.63767 304.889362 
L 86.834669 303.99216 
L 87.031668 305.366293 
L 87.228667 304.26766 
L 87.425666 280.517637 
L 87.622665 296.604744 
L 87.819665 299.74361 
L 88.016664 300.147215 
L 88.213663 301.746861 
L 88.410662 299.132794 
L 88.80466 303.325727 
L 89.198658 301.211475 
L 89.395658 303.298016 
L 89.592657 303.560064 
L 89.986655 301.224181 
L 90.183654 301.310982 
L 90.380653 301.849799 
L 90.577652 301.362684 
L 90.774651 298.858001 
L 90.97165 300.946472 
L 91.365649 302.186576 
L 91.562648 291.166094 
L 91.956646 301.335009 
L 92.153645 301.031402 
L 92.350644 298.394792 
L 92.547643 297.70143 
L 92.744643 299.362145 
L 92.941642 302.28777 
L 93.33564 303.679768 
L 93.729638 301.521798 
L 93.926637 298.61223 
L 94.123636 300.435315 
L 94.320635 300.966171 
L 94.714634 304.486496 
L 94.911633 304.278899 
L 95.108632 304.262106 
L 95.50263 303.190327 
L 95.699629 302.996658 
L 95.896628 299.041625 
L 96.290627 302.372209 
L 96.487626 303.060889 
L 96.684625 302.898378 
L 96.881624 302.312109 
L 97.078623 303.541768 
L 97.275622 304.010292 
L 97.472621 305.225624 
L 97.66962 296.981899 
L 98.063619 302.050361 
L 98.260618 301.056665 
L 98.654616 304.164519 
L 98.851615 304.013432 
L 99.048614 195.657341 
L 99.442613 277.959443 
L 100.230609 302.028509 
L 100.427608 303.439351 
L 100.230609 305.132067 
L 100.427608 304.183871 
L 100.821606 305.207736 
L 101.018605 304.608633 
L 101.215605 304.409166 
L 101.412604 301.710125 
L 101.609603 301.508963 
L 101.806602 303.010001 
L 102.003601 302.953736 
L 102.2006 304.972613 
L 102.594598 301.365605 
L 102.988597 304.582795 
L 103.185596 304.107812 
L 103.382595 302.560956 
L 103.579594 287.108785 
L 103.776593 297.111832 
L 104.170591 303.307338 
L 104.56459 306.031955 
L 104.761589 305.896004 
L 104.958588 297.7658 
L 105.352586 302.12832 
L 105.549585 296.378019 
L 105.943583 303.468826 
L 106.140583 304.219991 
L 106.337582 304.447556 
L 106.534581 304.968581 
L 106.73158 303.924825 
L 106.928579 304.721464 
L 107.125578 304.630033 
L 107.322577 303.763753 
L 107.519576 301.645569 
L 107.716575 303.076179 
L 107.913575 302.40101 
L 108.110574 302.53071 
L 108.307573 303.370205 
L 108.504572 303.056042 
L 108.701571 304.664393 
L 108.89857 303.747424 
L 109.292568 305.150273 
L 109.489568 305.168876 
L 109.686567 304.404582 
L 109.883566 304.647342 
L 110.080565 303.622907 
L 109.883566 303.631597 
L 110.277564 302.888273 
L 110.474563 302.850928 
L 110.671562 304.633271 
L 110.868561 302.945229 
L 111.459559 305.436323 
L 111.656558 305.254842 
L 111.853557 303.318042 
L 112.050556 303.955321 
L 112.247555 303.801319 
L 112.444554 305.231185 
L 113.232551 302.586424 
L 113.42955 296.716412 
L 113.823548 300.629692 
L 114.020547 300.164907 
L 114.217546 292.947316 
L 114.611545 301.706069 
L 114.808544 302.352711 
L 114.611545 302.676032 
L 115.005543 302.200936 
L 115.202542 301.963388 
L 115.399541 303.861721 
L 115.59654 303.83988 
L 115.793539 302.343568 
L 115.990538 302.356417 
L 116.187538 301.371339 
L 116.384537 299.684629 
L 116.581536 301.644751 
L 116.595681 -1 
M 117.559163 -1 
L 117.76353 155.303698 
L 118.157529 267.92385 
L 118.354528 286.25468 
L 118.748526 298.493465 
L 118.945525 302.46721 
L 119.142524 303.269621 
L 119.536523 303.080583 
L 119.733522 302.037076 
L 119.930521 304.093909 
L 120.12752 304.321733 
L 120.324519 305.132268 
L 120.521518 303.449255 
L 120.718517 305.42163 
L 120.521518 302.891621 
L 120.915516 301.374237 
L 121.112515 303.832205 
L 121.309515 300.099226 
L 121.703513 304.403904 
L 121.900512 304.549474 
L 122.097511 303.892575 
L 122.29451 304.218332 
L 122.491509 305.329644 
L 122.688508 304.769672 
L 122.885508 303.822173 
L 123.082507 297.334286 
L 123.279506 301.332875 
L 123.476505 302.408081 
L 123.870503 302.147464 
L 124.067502 300.62116 
L 124.264501 301.340876 
L 124.4615 303.786239 
L 124.6585 302.932729 
L 124.855499 303.571215 
L 125.249497 306.0039 
L 125.446496 302.203471 
L 125.643495 302.132031 
L 125.840494 301.040268 
L 126.037493 299.282485 
L 126.234492 300.671539 
L 126.431492 300.671547 
L 126.628491 300.416737 
L 126.82549 301.238664 
L 127.022489 300.827701 
L 127.219488 299.621203 
L 127.416487 302.588039 
L 127.613486 300.730605 
L 128.007485 302.470152 
L 127.613486 300.384628 
L 128.204484 265.288211 
L 128.598482 284.908785 
L 128.795481 284.530072 
L 128.99248 291.318253 
L 129.189479 285.006349 
L 129.583477 296.425563 
L 129.780477 293.849694 
L 129.977476 294.496547 
L 130.174475 299.216985 
L 130.371474 295.906805 
L 130.383823 -1 
M 131.758598 -1 
L 131.947467 145.944901 
L 132.341465 239.020841 
L 132.538464 260.313152 
L 132.735463 241.096615 
L 132.932462 262.910305 
L 133.129462 264.968907 
L 133.52346 297.023038 
L 133.917458 291.235578 
L 134.114457 255.951439 
L 135.099453 299.240148 
L 135.296452 299.293055 
L 135.493451 295.944841 
L 135.69045 297.618956 
L 135.887449 294.790598 
L 136.084448 299.840596 
L 136.281447 301.530638 
L 136.478447 296.096197 
L 136.872445 303.678602 
L 137.069444 302.388981 
L 137.266443 296.433877 
L 137.463442 299.405312 
L 137.660441 284.514217 
L 138.05444 290.297182 
L 138.251439 296.178944 
L 138.448438 296.799695 
L 138.645437 267.242533 
L 138.842436 281.588148 
L 139.236434 291.075509 
L 139.433433 288.624488 
L 139.630432 289.846194 
L 139.827432 298.143575 
L 140.024431 299.213794 
L 140.22143 302.562017 
L 140.418429 303.016258 
L 140.615428 302.993186 
L 140.812427 304.404849 
L 141.009426 301.403585 
L 141.403425 301.527642 
L 141.600424 294.011133 
L 141.797423 297.594564 
L 141.994422 297.594581 
L 142.191421 301.266149 
L 142.38842 298.572991 
L 142.585419 298.049334 
L 142.782418 301.142907 
L 142.979417 301.068239 
L 143.176417 299.82063 
L 143.373416 284.156681 
L 143.570415 292.612466 
L 143.767414 288.384579 
L 143.964413 288.38459 
L 144.161412 240.3871 
L 144.55541 287.223132 
L 144.75241 188.413671 
L 145.146408 272.365186 
L 145.343407 288.455186 
L 145.540406 293.801718 
L 145.737405 294.45801 
L 145.934404 297.310264 
L 146.131403 295.884174 
L 146.328402 292.311149 
L 146.525402 294.312002 
L 146.722401 291.745116 
L 146.9194 287.49761 
L 146.722401 295.951793 
L 147.116399 299.419201 
L 147.313398 294.514229 
L 147.510397 296.189701 
L 147.707396 176.279088 
L 146.9194 218.67516 
L 147.904395 262.543377 
L 148.101395 278.422448 
L 148.298394 284.634424 
L 148.495393 278.694699 
L 148.889391 290.722668 
L 149.08639 287.954695 
L 149.283389 296.02402 
L 149.480388 298.474108 
L 149.677387 285.564743 
L 149.874387 293.65862 
L 150.071386 297.092975 
L 150.268385 296.605453 
L 150.465384 296.441524 
L 150.859382 303.639223 
L 151.056381 299.958389 
L 151.25338 299.926867 
L 151.45038 294.586139 
L 151.647379 295.75947 
L 151.844378 295.170248 
L 152.238376 298.197984 
L 152.435375 297.289929 
L 152.632374 298.219089 
L 152.829373 293.848277 
L 153.026372 295.569036 
L 153.223372 294.708646 
L 153.61737 303.175888 
L 153.814369 301.747006 
L 154.011368 301.909002 
L 154.208367 302.382916 
L 154.405366 298.628313 
L 154.602365 277.69727 
L 154.799365 287.240898 
L 154.996364 283.8064 
L 155.193363 285.523652 
L 155.390362 288.811018 
L 155.587361 265.497501 
L 155.981359 285.141108 
L 156.178358 285.29485 
L 156.375357 286.562662 
L 156.572357 281.901118 
L 156.769356 283.597993 
L 156.966355 278.853396 
L 157.360353 288.355414 
L 157.557352 287.716275 
L 157.754351 282.622953 
L 157.95135 285.489186 
L 158.14835 282.586319 
L 158.345349 284.037757 
L 158.542348 283.321217 
L 158.14835 282.972091 
L 158.739347 282.926436 
L 159.133345 294.812904 
L 159.330344 297.057868 
L 159.527343 295.09291 
L 159.724342 295.310962 
L 159.921342 297.263081 
L 160.118341 297.945707 
L 160.31534 297.512862 
L 160.709338 300.053172 
L 160.906337 302.397469 
L 161.103336 293.327393 
L 161.497335 299.203259 
L 161.694334 299.203271 
L 161.891333 301.465171 
L 162.088332 295.258543 
L 162.285331 298.550667 
L 162.48233 299.613833 
L 162.285331 299.37966 
L 162.679329 299.362811 
L 162.876328 299.562676 
L 163.073327 300.224763 
L 163.270327 299.348517 
L 163.861324 299.369458 
L 164.058323 151.633222 
L 164.452321 262.890288 
L 164.64932 278.189107 
L 165.043319 280.18211 
L 164.64932 273.473982 
L 165.240318 278.453599 
L 165.437317 277.810115 
L 165.634316 280.553968 
L 165.831315 289.484337 
L 166.028314 290.545769 
L 166.225313 297.502708 
L 166.422312 296.266754 
L 166.619312 296.178574 
L 166.816311 297.329623 
L 167.01331 296.761625 
L 167.210309 297.666536 
L 167.407308 297.481518 
L 167.604307 294.365328 
L 167.998305 296.842654 
L 168.392304 297.255541 
L 168.589303 290.299439 
L 168.786302 296.919451 
L 168.983301 294.920891 
L 169.1803 295.800177 
L 169.377299 297.880756 
L 169.574298 296.840502 
L 169.771297 298.54196 
L 169.968297 302.151007 
L 170.165296 302.301206 
L 170.756293 302.169794 
L 170.953292 302.654763 
L 171.150291 302.794987 
L 171.34729 302.648605 
L 171.741289 302.68042 
L 171.938288 292.952841 
L 172.332286 299.232258 
L 172.529285 298.326351 
L 172.726284 298.779315 
L 173.120282 298.779339 
L 173.317282 298.269548 
L 173.514281 299.248394 
L 173.908279 298.896615 
L 174.105278 299.889242 
L 174.499276 299.089312 
L 174.893274 299.329084 
L 175.090274 297.854242 
L 175.287273 301.031971 
L 175.484272 301.032014 
L 175.681271 299.22623 
L 175.87827 298.540253 
L 176.075269 298.726493 
L 175.87827 298.279859 
L 176.469267 298.21266 
L 176.666267 299.693258 
L 176.863266 298.642118 
L 177.060265 299.328762 
L 177.257264 298.255261 
L 177.454263 298.796274 
L 177.848261 297.998641 
L 178.04526 297.910458 
L 178.242259 296.697347 
L 178.439259 297.340732 
L 178.636258 298.466272 
L 179.030256 302.49425 
L 179.424254 302.494388 
L 179.621253 301.997457 
L 179.818252 302.24587 
L 180.015252 302.121678 
L 180.212251 301.467203 
L 180.40925 300.158668 
L 180.606249 294.285254 
L 180.803248 297.256248 
L 181.394245 290.659918 
L 181.591244 293.041565 
L 181.788244 291.850758 
L 181.985243 296.152941 
L 182.182242 294.597264 
L 182.212574 -1 
M 182.922013 -1 
L 183.167237 178.716099 
L 183.364237 232.912489 
L 183.758235 267.599707 
L 183.955234 285.472318 
L 184.152233 291.036134 
L 184.349232 291.281117 
L 184.74323 298.454685 
L 184.940229 301.273533 
L 185.137229 302.433309 
L 185.334228 301.853424 
L 185.728226 302.28834 
L 186.122224 302.534517 
L 186.319223 302.462035 
L 186.516222 297.750819 
L 186.713222 300.142671 
L 187.10722 301.692902 
L 187.501218 297.626905 
L 187.698217 298.539728 
L 187.895216 298.145289 
L 188.092215 298.342524 
L 188.289214 300.960472 
L 188.683213 301.012194 
L 189.077211 299.800829 
L 189.27421 290.065695 
L 189.471209 296.602832 
L 189.668208 297.909016 
L 189.865207 295.628414 
L 190.062207 276.19732 
L 189.865207 286.112749 
L 190.259206 290.442093 
L 190.653204 298.889244 
L 190.850203 298.888297 
L 191.047202 295.336929 
L 191.244201 294.834411 
L 191.638199 302.402732 
L 191.835199 292.919296 
L 192.032198 297.670512 
L 192.229197 296.650292 
L 192.426196 297.162815 
L 192.820194 302.497939 
L 193.017193 304.107374 
L 193.214192 304.519311 
L 193.411192 303.928564 
L 193.214192 304.26983 
L 193.608191 298.05533 
L 193.80519 299.432633 
L 194.002189 297.823848 
L 194.199188 297.493945 
L 194.396187 300.098418 
L 194.593186 300.600014 
L 194.790185 298.407539 
L 194.987184 298.039394 
L 195.184184 299.704225 
L 195.578182 298.352209 
L 195.775181 301.890075 
L 195.97218 301.679156 
L 196.169179 303.650677 
L 196.563177 287.102769 
L 196.957176 292.904319 
L 197.154175 291.048211 
L 197.351174 292.401556 
L 197.548173 274.398875 
L 197.745172 278.337812 
L 197.942171 290.512449 
L 198.13917 291.459244 
L 198.336169 288.613324 
L 198.533169 290.069712 
L 198.927167 295.969451 
L 199.124166 290.868428 
L 199.321165 294.267897 
L 199.518164 292.56817 
L 199.715163 293.799485 
L 200.109162 300.554203 
L 200.306161 296.080702 
L 200.50316 297.917244 
L 200.700159 293.554673 
L 200.897158 296.287562 
L 201.291156 298.336252 
L 201.094157 296.87013 
L 201.488155 291.393482 
L 201.882154 295.172262 
L 202.079153 292.794964 
L 202.276152 294.038975 
L 202.473151 290.573926 
L 202.67015 296.960216 
L 202.867149 296.785189 
L 203.064148 276.776402 
L 203.458147 290.301699 
L 203.655146 291.380199 
L 203.852145 288.573802 
L 204.049144 296.448279 
L 204.246143 292.157491 
L 204.443142 297.106221 
L 204.640141 245.31522 
L 205.034139 284.691258 
L 205.231139 294.693151 
L 205.428138 284.406972 
L 206.019135 293.883862 
L 206.216134 279.644555 
L 206.019135 274.633839 
L 206.807132 295.92337 
L 207.20113 289.520567 
L 207.398129 292.46881 
L 207.595128 292.385327 
L 207.792127 295.478386 
L 207.989126 300.78791 
L 208.186125 298.055322 
L 208.580124 298.068986 
L 208.777123 297.396549 
L 208.974122 297.735048 
L 209.171121 291.751226 
L 209.565119 299.055651 
L 209.762118 298.813549 
L 209.959117 297.014517 
L 210.156117 300.327265 
L 210.353116 298.670947 
L 210.550115 298.200049 
L 210.747114 298.200057 
L 210.944113 297.678735 
L 211.141112 299.523895 
L 211.338111 297.170269 
L 211.53511 297.091603 
L 211.732109 296.70646 
L 211.929109 300.069504 
L 212.126108 298.387986 
L 212.323107 297.842243 
L 212.520106 294.724721 
L 212.717105 298.252153 
L 212.914104 296.552728 
L 213.111103 293.453459 
L 213.702101 301.023827 
L 213.8991 135.588906 
L 214.096099 254.839311 
L 214.293098 274.935056 
L 214.490097 283.230578 
L 214.687096 283.424689 
L 214.884095 285.166415 
L 215.278094 294.298966 
L 215.475093 294.664883 
L 215.672092 294.048411 
L 215.869091 294.539606 
L 216.06609 294.108636 
L 216.263089 298.956114 
L 216.460088 299.532785 
L 216.657087 302.79647 
L 216.854086 303.324694 
L 217.051086 292.669968 
L 217.248085 297.82465 
L 217.445084 293.118245 
L 217.642083 292.89351 
L 217.839082 296.065395 
L 218.036081 290.821545 
L 218.23308 291.857459 
L 218.430079 288.793592 
L 218.627079 294.827939 
L 218.824078 294.032712 
L 219.021077 275.400164 
L 219.218076 291.111181 
L 219.415075 295.249914 
L 219.809073 290.181168 
L 220.006072 297.782269 
L 220.400071 270.249427 
L 220.59707 279.720765 
L 220.991068 181.189055 
L 221.385066 272.762978 
L 221.779064 285.616699 
L 221.582065 281.244008 
L 221.976064 285.208324 
L 222.173063 285.487864 
L 222.370062 286.098656 
L 222.567061 294.013214 
L 222.76406 297.162508 
L 222.961059 297.653903 
L 223.158058 297.465456 
L 223.355057 298.465892 
L 223.552056 301.848524 
L 223.749056 296.727862 
L 223.946055 295.485024 
L 224.143054 300.58454 
L 224.340053 298.39469 
L 224.537052 290.72808 
L 224.93105 296.302913 
L 224.917146 -1 
M 225.711032 -1 
L 225.916046 152.839404 
L 225.719047 158.316102 
L 226.310044 249.121018 
L 226.704042 271.789706 
L 227.098041 261.784138 
L 227.29504 260.104377 
L 227.689038 265.179528 
L 227.886037 284.771068 
L 228.083036 276.695432 
L 228.280035 289.743196 
L 228.477034 242.425262 
L 228.871033 276.061332 
L 229.068032 280.761804 
L 229.265031 272.798535 
L 229.46203 279.57581 
L 230.053027 284.383956 
L 230.447026 278.805219 
L 230.644025 286.712219 
L 230.841024 287.952161 
L 231.038023 276.678704 
L 231.432021 291.120788 
L 231.62902 291.120801 
L 231.826019 293.315365 
L 232.023019 299.350132 
L 232.220018 293.061124 
L 232.614016 291.92042 
L 232.811015 297.978778 
L 233.008014 298.275112 
L 233.205013 297.986733 
L 233.402012 288.781435 
L 233.599011 291.51414 
L 233.796011 290.14783 
L 233.99301 279.885477 
L 234.190009 282.406316 
L 234.387008 283.364988 
L 234.584007 294.030016 
L 234.781006 288.218184 
L 234.978005 225.246083 
L 235.372004 283.676289 
L 235.569003 282.558217 
L 235.766002 283.117267 
L 235.963001 279.292733 
L 236.356999 282.611083 
L 236.553998 280.945485 
L 236.750997 292.095672 
L 236.947996 287.485358 
L 237.144996 291.207866 
L 237.341995 291.407533 
L 237.538994 215.138262 
L 237.341995 252.694264 
L 237.735993 270.6108 
L 237.932992 286.872782 
L 238.129991 286.612933 
L 238.32699 284.247625 
L 238.523989 287.538292 
L 238.720989 284.710304 
L 238.917988 294.521558 
L 239.114987 291.524446 
L 239.311986 293.038806 
L 239.508985 296.386581 
L 239.705984 289.628234 
L 239.902983 287.678979 
L 240.099982 289.64309 
L 240.296981 284.363966 
L 240.493981 294.202759 
L 239.902983 149.049872 
L 240.69098 219.120987 
L 240.887979 255.404236 
L 241.478976 278.390274 
L 241.872974 284.216316 
L 242.069974 285.459873 
L 242.463972 297.096923 
L 242.660971 294.375162 
L 243.251968 291.783632 
L 243.448967 280.703378 
L 243.645966 289.588792 
L 243.842966 288.554278 
L 244.039965 289.173696 
L 244.236964 287.832297 
L 244.433963 145.864641 
L 244.827961 254.24341 
L 245.02496 286.150207 
L 245.221959 286.03352 
L 245.418959 288.82036 
L 245.615958 287.162137 
L 245.812957 286.539485 
L 246.009956 290.785143 
L 246.206955 290.457933 
L 246.403954 288.112669 
L 246.600953 289.438895 
L 246.797952 296.385503 
L 247.191951 286.396457 
L 247.38895 290.713629 
L 247.585949 289.952865 
L 247.979947 286.970963 
L 248.176946 295.23789 
L 248.373945 280.735086 
L 248.570944 277.853325 
L 248.964943 285.73524 
L 249.161942 271.250733 
L 249.358941 279.917648 
L 249.752939 286.017314 
L 249.949938 282.967501 
L 250.146937 201.54519 
L 250.343936 239.208253 
L 250.540936 159.999549 
L 250.737935 184.36355 
L 250.934934 242.438095 
L 251.328932 280.274265 
L 251.525931 278.572791 
L 251.72293 287.469519 
L 251.919929 289.091009 
L 252.116929 292.993913 
L 252.313928 289.695036 
L 252.510927 298.259909 
L 252.707926 297.497767 
L 252.904925 295.200168 
L 253.298923 289.006472 
L 252.904925 288.963654 
L 253.692921 293.23385 
L 254.08692 278.737594 
L 254.283919 285.21254 
L 254.480918 280.77651 
L 254.677917 283.346671 
L 254.874916 283.749016 
L 255.071915 289.364901 
L 255.268914 286.556298 
L 255.465914 287.961381 
L 255.662913 287.260747 
L 255.859912 283.903543 
L 256.056911 288.992082 
L 256.25391 290.978548 
L 256.450909 295.374882 
L 256.647908 291.942597 
L 256.844907 294.720827 
L 257.041906 291.32381 
L 257.238906 293.177305 
L 257.435905 298.499708 
L 257.632904 291.406336 
L 258.026902 296.147527 
L 258.223901 294.566874 
L 258.4209 297.010015 
L 258.617899 295.788459 
L 258.814898 293.69783 
L 259.011898 293.428475 
L 259.208897 293.68569 
L 259.405896 292.331941 
L 259.602895 292.967295 
L 259.799894 286.756817 
L 259.996893 253.321378 
L 260.390891 278.925919 
L 260.78489 292.990528 
L 260.981889 294.341011 
L 261.178888 291.619422 
L 260.981889 289.126855 
L 261.375887 289.975876 
L 261.572886 293.163593 
L 261.769885 291.177848 
L 262.163883 293.104324 
L 261.769885 287.108152 
L 262.013472 -1 
M 262.629424 -1 
L 262.95188 251.722678 
L 263.148879 277.979579 
L 263.542877 284.847443 
L 263.739876 293.152091 
L 263.936876 294.041232 
L 263.542877 289.979033 
L 263.936876 289.585568 
L 264.133875 295.852999 
L 264.330874 293.854403 
L 264.527873 296.907869 
L 264.724872 293.049985 
L 264.921871 269.163766 
L 265.11887 281.133576 
L 265.315869 284.219665 
L 265.512868 291.139821 
L 265.709868 287.688663 
L 265.906867 292.172763 
L 266.103866 266.926231 
L 266.300865 283.157439 
L 266.497864 276.636502 
L 266.694863 278.235662 
L 266.891862 293.451087 
L 267.088861 298.830393 
L 267.679859 291.426379 
L 267.876858 289.958457 
L 268.073857 296.890284 
L 268.270856 293.424375 
L 268.467855 292.302764 
L 268.664854 293.22014 
L 268.861853 292.761489 
L 269.058853 291.966165 
L 269.255852 291.96617 
L 269.452851 292.246134 
L 269.64985 274.50618 
L 269.846849 271.80505 
L 270.043848 282.135671 
L 270.240847 279.503494 
L 270.437846 286.994441 
L 271.028844 286.193491 
L 271.422842 290.82453 
L 271.619841 292.613835 
L 271.81684 291.831143 
L 272.013839 292.217945 
L 272.210838 297.102825 
L 272.407838 295.132392 
L 272.604837 291.056068 
L 272.801836 297.43909 
L 272.998835 297.49696 
L 273.195834 300.627674 
L 273.392833 298.948474 
L 273.786831 298.873172 
L 273.983831 298.118173 
L 274.377829 298.552328 
L 274.574828 295.079764 
L 274.771827 294.908722 
L 274.968826 296.949845 
L 275.165825 295.270837 
L 275.362824 295.150298 
L 275.559823 293.378749 
L 275.953822 302.745407 
L 276.150821 295.968755 
L 275.953822 293.212164 
L 276.34782 290.898363 
L 276.544819 298.585068 
L 276.741818 292.71271 
L 276.938817 290.952406 
L 277.135816 291.812822 
L 277.332816 286.479688 
L 277.529815 289.043444 
L 277.726814 287.732071 
L 277.923813 291.343806 
L 278.120812 290.976213 
L 278.317811 287.018841 
L 278.51481 220.612781 
L 278.711809 244.480366 
L 278.908808 246.188726 
L 279.105808 275.005419 
L 279.302807 282.098761 
L 279.499806 280.966791 
L 279.696805 278.458363 
L 280.090803 296.158348 
L 280.287802 298.406326 
L 280.484801 292.450475 
L 280.681801 295.335911 
L 280.8788 290.915267 
L 281.075799 294.660577 
L 281.272798 293.55542 
L 281.469797 278.753114 
L 281.666796 286.891957 
L 281.469797 290.961379 
L 281.863795 291.284289 
L 282.060794 290.19938 
L 282.257793 292.244319 
L 282.454793 292.244344 
L 282.651792 298.288578 
L 282.848791 298.288581 
L 283.04579 295.85132 
L 283.242789 299.170634 
L 283.439788 294.403114 
L 283.636787 295.362719 
L 283.242789 294.229483 
L 284.030786 297.020493 
L 284.621783 291.55941 
L 285.21278 299.689 
L 285.409779 299.149399 
L 285.606778 295.099303 
L 285.803778 283.367752 
L 286.197776 293.818451 
L 286.394775 289.908453 
L 286.591774 291.301052 
L 286.788773 268.894565 
L 286.985772 279.957198 
L 287.182771 280.805819 
L 286.591774 268.958866 
L 287.379771 264.663922 
L 287.57677 260.887918 
L 287.773769 277.959359 
L 288.364766 287.992033 
L 288.167767 293.456145 
L 288.561765 293.090417 
L 288.758764 292.49244 
L 288.955763 284.908702 
L 289.349762 294.94211 
L 289.546761 297.078655 
L 289.74376 289.511038 
L 289.940759 294.622697 
L 290.137758 291.387473 
L 290.334757 260.431337 
L 290.728756 290.530285 
L 290.925755 290.413956 
L 291.122754 289.9643 
L 291.319753 274.060037 
L 291.713751 283.804303 
L 291.91075 257.545579 
L 292.107749 278.87792 
L 292.304748 285.24256 
L 292.501748 285.504982 
L 292.698747 289.680795 
L 292.895746 290.603447 
L 293.092745 282.340481 
L 293.880741 291.307219 
L 294.27474 300.654284 
L 294.668738 288.573973 
L 294.865737 294.75635 
L 295.062736 293.586808 
L 295.259735 296.118346 
L 295.456734 296.999323 
L 295.653733 267.894889 
L 295.850733 268.677794 
L 296.244731 285.874848 
L 296.44173 296.529281 
L 296.638729 294.070586 
L 296.835728 295.884471 
L 297.032727 293.745835 
L 297.229726 287.260653 
L 297.426726 294.513447 
L 297.820724 293.060324 
L 298.017723 288.935097 
L 298.411721 291.033932 
L 298.60872 290.709422 
L 299.199718 291.320155 
L 299.396717 291.136537 
L 299.593716 291.331318 
L 299.790715 291.325844 
L 299.987714 295.76544 
L 300.184713 293.545644 
L 300.381712 299.9933 
L 300.578711 280.18114 
L 300.97271 292.087696 
L 301.169709 301.243636 
L 301.366708 295.391999 
L 301.563707 294.325877 
L 301.957705 280.778828 
L 302.154704 293.801805 
L 302.351703 289.784605 
L 302.548703 290.315502 
L 302.745702 287.366156 
L 302.942701 291.198478 
L 303.533698 285.725636 
L 303.730697 287.424735 
L 304.124695 286.59607 
L 304.321695 292.992358 
L 303.730697 289.640277 
L 304.518694 287.703841 
L 305.109691 280.001473 
L 305.30669 284.869754 
L 305.700688 279.042617 
L 305.897688 288.188787 
L 306.094687 287.270936 
L 306.291686 295.546524 
L 306.488685 291.124977 
L 306.882683 288.633183 
L 307.079682 286.034521 
L 307.276681 290.795541 
L 307.47368 289.068269 
L 307.67068 290.337735 
L 307.867679 292.684267 
L 308.064678 291.511067 
L 308.261677 298.312431 
L 308.064678 292.838391 
L 308.458676 297.630916 
L 308.655675 296.464921 
L 308.852674 292.828512 
L 309.049673 297.87336 
L 309.443672 292.662026 
L 309.640671 293.224182 
L 309.83767 291.967961 
L 310.231668 280.228016 
L 310.428667 254.114733 
L 310.508767 -1 
M 310.894588 -1 
L 311.019665 112.632551 
L 311.216664 151.526676 
L 311.413663 225.08725 
L 311.807661 268.8195 
L 312.201659 285.070885 
L 312.398658 285.062201 
L 312.792657 293.121705 
L 312.989656 298.665702 
L 313.186655 295.136451 
L 313.383654 286.714826 
L 313.580653 287.640213 
L 313.777652 283.614733 
L 313.974651 285.627441 
L 314.17165 291.329826 
L 314.36865 288.478643 
L 314.565649 297.194442 
L 314.762648 297.702693 
L 314.959647 297.448583 
L 315.353645 297.448612 
L 315.550644 301.585892 
L 315.747643 298.433878 
L 315.944643 247.510581 
L 315.956366 -1 
M 316.906486 -1 
L 317.126637 153.051317 
L 317.520635 264.714729 
L 317.717635 283.688938 
L 317.914634 285.514967 
L 318.111633 292.331608 
L 318.308632 294.605171 
L 318.505631 300.402677 
L 318.70263 301.796528 
L 318.899629 300.071129 
L 318.70263 295.425423 
L 319.490627 297.548425 
L 319.687626 297.472994 
L 319.884625 297.569824 
L 320.278623 296.452984 
L 320.475622 296.639125 
L 320.86962 296.574071 
L 321.06662 299.829502 
L 321.263619 298.168681 
L 321.460618 301.18919 
L 321.657617 300.509634 
L 321.854616 300.423212 
L 322.051615 300.466479 
L 322.248614 294.82929 
L 322.642613 299.519495 
L 322.839612 299.993033 
L 323.036611 289.99684 
L 323.23361 300.301414 
L 323.430609 293.503466 
L 323.627608 292.272742 
L 323.824607 292.777956 
L 324.218605 293.395549 
L 324.415605 294.278558 
L 324.612604 293.951558 
L 324.809603 299.479747 
L 325.006602 294.335925 
L 325.203601 294.113531 
L 325.4006 299.357967 
L 325.794598 299.341209 
L 325.991598 302.69466 
L 326.188597 300.159562 
L 326.385596 300.570635 
L 326.582595 299.972876 
L 326.779594 300.340588 
L 326.976593 283.336884 
L 327.173592 279.154224 
L 327.370591 289.739836 
L 327.56759 288.860544 
L 327.76459 295.410618 
L 327.961589 295.220709 
L 328.158588 300.103748 
L 328.355587 293.989025 
L 328.749585 302.68664 
L 328.946584 297.72756 
L 329.340583 300.832637 
L 329.537582 295.01237 
L 329.734581 200.06918 
L 329.93158 246.156756 
L 330.128579 183.478215 
L 330.522577 268.558135 
L 330.916575 290.800777 
L 331.113575 291.264052 
L 331.507573 295.558104 
L 331.901571 301.052917 
L 332.09857 301.052955 
L 332.295569 300.673555 
L 332.492568 298.512433 
L 332.689568 299.782737 
L 332.886567 299.782755 
L 333.083566 302.384771 
L 333.280565 302.615844 
L 333.477564 303.773546 
L 333.871562 303.926029 
L 334.26556 305.733554 
L 334.46256 305.570265 
L 334.659559 303.668253 
L 334.856558 305.478536 
L 335.053557 299.471697 
L 335.250556 302.871735 
L 335.447555 304.193936 
L 335.644554 93.814693 
L 336.038553 249.824855 
L 336.235552 266.151228 
L 337.023548 300.827111 
L 337.220547 302.801469 
L 337.417546 303.263828 
L 337.614545 303.263832 
L 337.811545 304.118072 
L 338.008544 303.69096 
L 338.205543 304.498169 
L 338.402542 306.008245 
L 338.599541 304.953233 
L 338.79654 305.480742 
L 338.993539 297.842108 
L 339.387538 303.286603 
L 339.584537 304.00158 
L 339.978535 303.379047 
L 340.175534 300.755394 
L 340.372533 292.141237 
L 340.766531 303.215627 
L 340.96353 304.09397 
L 341.16053 305.81192 
L 341.357529 305.651341 
L 341.751527 305.732154 
L 342.145525 305.288383 
L 342.342524 305.417438 
L 342.539523 304.943342 
L 342.736523 306.071663 
L 342.933522 306.448223 
L 343.130521 306.218135 
L 343.32752 302.972568 
L 343.721518 305.285784 
L 343.918517 303.204368 
L 344.115516 304.224106 
L 344.312515 303.699137 
L 344.509515 294.990368 
L 345.49451 304.766875 
L 345.691509 298.685867 
L 345.888508 299.037257 
L 346.085508 301.902078 
L 346.282507 301.093608 
L 346.479506 299.256982 
L 346.676505 300.968238 
L 346.873504 300.421778 
L 347.070503 299.325007 
L 347.464501 303.492767 
L 347.6615 294.560352 
L 348.055499 290.527488 
L 348.252498 292.543935 
L 348.449497 291.535731 
L 348.646496 292.043401 
L 349.040494 301.534989 
L 349.237493 299.601177 
L 349.434492 300.920345 
L 349.631492 304.37073 
L 349.828491 305.710411 
L 350.02549 305.348598 
L 350.222489 306.43346 
L 350.419488 304.517743 
L 350.616487 305.441863 
L 350.813486 302.069311 
L 351.010485 303.152895 
L 351.404484 303.128093 
L 351.601483 300.912426 
L 351.995481 303.405066 
L 352.19248 294.586235 
L 352.586478 300.949955 
L 352.783477 300.60034 
L 352.980477 300.848978 
L 353.177476 298.013731 
L 353.374475 300.452125 
L 353.571474 299.232933 
L 353.768473 299.842532 
L 353.965472 298.905657 
L 354.35947 298.471835 
L 354.55647 294.970871 
L 354.753469 296.808654 
L 354.950468 295.777819 
L 355.147467 298.921897 
L 355.344466 297.098461 
L 355.541465 298.01022 
L 355.935463 304.012035 
L 356.132462 302.909062 
L 356.526461 304.176145 
L 356.920459 304.176189 
L 357.511456 303.358924 
L 357.708455 304.453354 
L 357.905455 303.185703 
L 358.102454 303.630771 
L 358.496452 294.051044 
L 358.693451 295.491922 
L 358.89045 298.983884 
L 359.087449 297.237919 
L 359.284448 298.313283 
L 359.678447 303.53097 
L 359.875446 302.402763 
L 360.269444 305.682764 
L 360.466443 305.532308 
L 360.663442 305.607538 
L 360.860441 304.188306 
L 361.25444 306.189254 
L 361.451439 300.962523 
L 361.845437 304.783235 
L 362.042436 304.179577 
L 362.239435 304.417083 
L 362.633433 299.229257 
L 362.830432 299.308952 
L 363.027432 298.503653 
L 363.224431 299.432632 
L 363.618429 263.772099 
L 363.815428 285.02492 
L 364.012427 288.541824 
L 364.209426 279.891623 
L 364.603425 288.872608 
L 364.800424 289.05901 
L 364.997423 281.336773 
L 365.194422 293.501778 
L 365.391421 294.858421 
L 365.58842 299.039072 
L 365.785419 297.993946 
L 365.982418 299.859893 
L 366.179417 299.844445 
L 366.573416 304.101126 
L 366.770415 302.955706 
L 366.967414 302.955758 
L 367.361412 303.422095 
L 367.558411 303.422095 
L 367.75541 304.695951 
L 367.95241 304.039446 
L 368.149409 304.403171 
L 368.346408 300.429106 
L 368.543407 302.524747 
L 368.740406 301.476929 
L 368.937405 304.240106 
L 369.331403 297.858206 
L 369.528402 301.415259 
L 369.725402 299.007605 
L 369.922401 299.924104 
L 370.1194 299.656375 
L 370.316399 299.01792 
L 370.513398 302.299882 
L 370.710397 302.70963 
L 370.907396 303.881453 
L 371.104395 291.111462 
L 371.301395 297.240694 
L 371.498394 298.31467 
L 371.695393 298.021911 
L 371.892392 297.986555 
L 372.089391 299.677806 
L 372.483389 290.557454 
L 372.877387 300.491761 
L 373.074387 298.571239 
L 373.271386 301.40386 
L 373.665384 300.276055 
L 373.862383 295.90716 
L 374.059382 294.827456 
L 374.256381 296.762107 
L 374.45338 301.990138 
L 374.65038 300.610529 
L 374.847379 300.941864 
L 375.044378 300.596954 
L 375.241377 301.97173 
L 375.438376 302.150451 
L 375.635375 297.24456 
L 375.832374 298.846625 
L 376.029373 294.177009 
L 376.226372 296.436884 
L 376.423372 300.182704 
L 376.620371 299.95853 
L 376.81737 300.959348 
L 377.014369 299.287321 
L 377.211368 301.722006 
L 377.408367 299.703559 
L 377.605366 301.53854 
L 377.802365 302.282159 
L 377.999365 301.910425 
L 378.196364 302.096356 
L 378.393363 300.047138 
L 378.590362 303.046197 
L 378.787361 282.998298 
L 378.98436 281.677957 
L 379.575357 300.555339 
L 379.772357 287.332069 
L 379.969356 293.315337 
L 380.166355 294.173069 
L 380.363354 293.744233 
L 380.560353 299.330373 
L 380.757352 297.074446 
L 380.954351 299.676471 
L 381.15135 298.375461 
L 381.34835 298.375498 
L 381.545349 299.026003 
L 381.742348 298.359699 
L 381.939347 298.991448 
L 382.136346 298.620001 
L 382.333345 277.693808 
L 382.530344 292.410911 
L 382.727343 293.842968 
L 382.924342 300.487635 
L 383.121342 299.802482 
L 383.318341 288.071481 
L 383.712339 297.087171 
L 384.106337 301.973933 
L 384.303336 301.266664 
L 384.697335 296.335805 
L 384.894334 300.704582 
L 385.091333 296.155891 
L 385.288332 297.574757 
L 385.485331 300.682852 
L 385.68233 299.092141 
L 386.076328 299.092144 
L 386.273327 301.713077 
L 386.470327 299.861983 
L 386.667326 295.32085 
L 386.864325 298.32761 
L 387.061324 296.82428 
L 387.652321 303.654012 
L 387.84932 300.831041 
L 388.04632 303.317285 
L 388.243319 301.913402 
L 388.440318 299.622723 
L 388.637317 299.622732 
L 389.031315 304.368664 
L 389.425313 302.259106 
L 389.622312 302.259114 
L 389.819312 299.596674 
L 390.21331 300.927899 
L 390.410309 299.907625 
L 390.607308 284.765374 
L 390.804307 287.136383 
L 391.001306 286.799882 
L 391.198305 287.021167 
L 391.395305 295.649403 
L 391.592304 294.804532 
L 391.986302 296.196698 
L 392.183301 295.064451 
L 392.3803 300.793274 
L 392.577299 297.950268 
L 392.774298 297.900355 
L 392.971297 299.346869 
L 393.365296 297.256686 
L 393.494447 -1 
M 393.697742 -1 
L 393.956293 175.928059 
L 394.350291 222.842062 
L 394.54729 233.701782 
L 394.744289 255.750177 
L 394.941289 208.858327 
L 395.003468 -1 
M 395.436283 -1 
L 395.532286 91.382305 
L 395.729285 47.639645 
L 396.320282 245.181065 
L 396.91128 276.530123 
L 397.108279 270.888864 
L 397.305278 273.614672 
L 397.896275 294.613576 
L 398.093274 291.490468 
L 398.487273 292.682014 
L 398.487273 292.682014 
" style="fill:none;stroke:#1f77b4;stroke-linecap:square;stroke-width:1.5;"/>
   </g>
   <g id="line2d_18">
    <path clip-path="url(#pa7c8d2f6d4)" d="M 73.832727 306.690312 
L 74.226726 306.646961 
L 74.423725 306.12053 
L 75.014722 306.12053 
L 75.211721 298.548685 
L 75.40872 298.050327 
L 75.211721 298.050327 
L 75.802718 298.050327 
L 75.999718 299.669816 
L 76.196717 304.933944 
L 76.393716 306.390277 
L 76.590715 306.390277 
L 76.984713 306.107813 
L 77.378711 306.107813 
L 77.77271 307.27541 
L 78.560706 307.180693 
L 78.757705 306.874328 
L 79.348703 306.874328 
L 79.545702 306.611947 
L 79.742701 307.044791 
L 79.9397 307.044791 
L 80.530697 307.328067 
L 80.924695 307.328067 
L 81.121695 307.132824 
L 81.712692 307.067646 
L 81.909691 307.250238 
L 82.10669 306.783354 
L 82.303689 307.263876 
L 82.697688 307.263876 
L 82.894687 306.762214 
L 83.091686 305.503216 
L 83.288685 306.762214 
L 83.485684 305.37317 
L 83.682683 305.287537 
L 84.076681 305.37317 
L 84.27368 306.767815 
L 84.47068 306.767815 
L 84.667679 307.230015 
L 84.864678 305.746344 
L 85.061677 305.746344 
L 85.258676 306.656478 
L 85.849673 306.656478 
L 86.046673 305.724086 
L 86.440671 305.724086 
L 86.834669 306.755494 
L 87.622665 306.876867 
L 88.213663 306.489059 
L 88.607661 304.916082 
L 88.80466 306.156774 
L 89.198658 303.503223 
L 89.395658 305.633179 
L 89.592657 305.633179 
L 89.789656 303.503223 
L 89.986655 302.796035 
L 90.183654 305.633179 
L 90.380653 302.796035 
L 90.577652 306.523505 
L 90.774651 306.523505 
L 90.97165 306.35802 
L 91.365649 306.35802 
L 91.562648 305.591899 
L 91.956646 306.711248 
L 92.350644 306.578736 
L 93.138641 306.596075 
L 93.33564 306.362317 
L 93.926637 306.362317 
L 94.123636 306.213403 
L 94.714634 306.167505 
L 94.911633 306.653033 
L 95.305631 306.653033 
L 95.699629 302.881727 
L 96.093628 302.802989 
L 96.487626 302.802989 
L 96.881624 306.476504 
L 97.078623 306.664724 
L 97.66962 306.688741 
L 97.86662 305.369898 
L 98.063619 306.688741 
L 98.260618 306.803103 
L 98.457617 306.391828 
L 99.442613 306.410472 
L 100.230609 306.912385 
L 100.427608 306.912385 
L 100.230609 306.912385 
L 100.624607 307.485911 
L 100.427608 307.485911 
L 100.821606 307.060867 
L 101.018605 307.060867 
L 101.215605 306.494456 
L 101.609603 306.450461 
L 101.806602 307.457443 
L 102.003601 306.762239 
L 102.397599 306.762239 
L 102.2006 306.762239 
L 102.594598 306.44277 
L 103.185596 306.44277 
L 103.382595 306.231602 
L 103.776593 304.528635 
L 103.973592 304.528635 
L 104.170591 305.471092 
L 104.36759 305.506843 
L 104.56459 305.704583 
L 104.761589 306.96466 
L 104.958588 306.991489 
L 105.155587 307.459751 
L 105.549585 307.414745 
L 105.746584 305.986463 
L 106.534581 306.046296 
L 106.73158 306.643793 
L 106.928579 306.757052 
L 107.125578 306.551052 
L 107.322577 306.551052 
L 107.519576 307.108163 
L 108.701571 307.459971 
L 109.095569 307.546642 
L 109.883566 307.388152 
L 110.080565 307.388152 
L 109.883566 306.500993 
L 110.277564 306.500993 
L 110.474563 306.103897 
L 110.868561 306.103897 
L 111.06556 307.307467 
L 111.26256 307.307467 
L 111.459559 307.447445 
L 111.853557 307.415054 
L 112.050556 306.915614 
L 112.247555 307.193697 
L 113.035552 307.193697 
L 113.626549 305.121875 
L 113.823548 305.742025 
L 114.020547 304.579179 
L 114.217546 304.579179 
L 114.414545 306.558297 
L 114.808544 306.495805 
L 114.611545 304.965282 
L 115.005543 304.965282 
L 115.202542 303.806081 
L 115.399541 303.806081 
L 115.59654 306.254144 
L 115.793539 306.502244 
L 115.990538 307.49789 
L 116.187538 306.502244 
L 116.384537 306.502244 
L 116.581536 307.119681 
L 116.778535 306.736208 
L 116.975534 305.329056 
L 117.172533 304.992852 
L 117.369532 306.401261 
L 117.566531 304.992852 
L 117.76353 304.992852 
L 117.96053 306.401261 
L 118.157529 306.598515 
L 118.354528 306.623081 
L 118.551527 306.819973 
L 118.748526 307.505689 
L 119.339523 307.522008 
L 119.536523 307.37164 
L 119.733522 307.078885 
L 119.930521 307.078885 
L 120.12752 306.92041 
L 120.324519 307.078885 
L 120.521518 307.483721 
L 124.067502 307.521617 
L 124.264501 307.024698 
L 124.4615 307.024698 
L 124.6585 305.409126 
L 124.855499 306.60516 
L 125.446496 306.60516 
L 125.643495 306.60516 
L 125.840494 306.825537 
L 126.037493 306.231602 
L 126.234492 306.231602 
L 126.431492 306.825537 
L 126.628491 306.30194 
L 126.82549 307.132345 
L 127.022489 307.132345 
L 127.219488 306.30194 
L 128.007485 306.317282 
L 127.613486 306.317282 
L 128.204484 304.429005 
L 128.598482 304.429005 
L 128.795481 302.911918 
L 128.99248 304.429005 
L 129.189479 302.911918 
L 129.583477 307.501302 
L 129.780477 307.501302 
L 129.977476 306.514996 
L 130.568473 306.512568 
L 130.765472 306.947101 
L 130.962471 306.947101 
L 131.15947 307.26147 
L 131.35647 307.336797 
L 131.553469 307.578493 
L 131.750468 307.421509 
L 132.144466 307.421509 
L 132.341465 305.827161 
L 132.538464 297.884436 
L 132.735463 305.827161 
L 132.932462 305.827161 
L 133.129462 288.528856 
L 133.326461 288.528856 
L 133.52346 305.017233 
L 133.720459 305.138522 
L 133.917458 307.529792 
L 134.114457 307.297021 
L 134.311456 307.535456 
L 134.508455 307.297021 
L 134.705455 307.553499 
L 134.902454 307.297021 
L 135.099453 307.553499 
L 135.296452 306.518769 
L 135.493451 307.428776 
L 135.887449 307.428776 
L 136.084448 306.679404 
L 136.281447 306.679404 
L 136.478447 304.462384 
L 136.675446 304.462384 
L 136.872445 306.679404 
L 137.266443 307.442699 
L 137.463442 307.551834 
L 138.448438 307.472819 
L 139.039435 307.540462 
L 139.236434 307.249643 
L 139.433433 307.315938 
L 139.630432 299.383676 
L 139.827432 299.383676 
L 140.024431 305.403482 
L 140.22143 307.315938 
L 140.418429 307.579094 
L 140.812427 307.55512 
L 141.009426 307.386233 
L 141.600424 306.633295 
L 141.797423 302.993191 
L 141.994422 302.993191 
L 142.191421 306.051345 
L 142.585419 307.315281 
L 143.176417 307.367602 
L 143.373416 307.367602 
L 143.570415 307.226817 
L 143.767414 307.226817 
L 143.964413 307.543321 
L 144.161412 307.226817 
L 144.358411 307.543321 
L 145.540406 307.518181 
L 145.737405 305.545421 
L 146.131403 305.545421 
L 146.328402 294.458027 
L 146.722401 294.458027 
L 146.9194 304.298566 
L 146.722401 304.845565 
L 147.116399 304.845565 
L 147.313398 304.298566 
L 147.510397 304.845565 
L 147.707396 304.845565 
L 146.9194 305.738087 
L 147.904395 306.516688 
L 148.495393 306.527631 
L 148.692392 306.153627 
L 148.889391 304.349224 
L 149.283389 304.349224 
L 149.480388 306.561179 
L 149.874387 307.238029 
L 150.071386 307.235583 
L 150.268385 306.548033 
L 151.056381 306.545118 
L 151.25338 305.91024 
L 151.647379 307.157603 
L 151.844378 306.731388 
L 152.238376 306.731388 
L 152.435375 307.054226 
L 152.632374 305.730384 
L 152.829373 307.054226 
L 153.026372 305.730384 
L 153.223372 297.571595 
L 153.420371 297.571595 
L 153.61737 306.494353 
L 154.011368 306.494353 
L 154.208367 306.350611 
L 154.405366 304.23648 
L 154.602365 303.483274 
L 154.799365 301.817562 
L 154.996364 294.85828 
L 155.193363 292.115668 
L 155.390362 294.85828 
L 155.587361 304.23648 
L 155.78436 304.23648 
L 155.981359 301.217429 
L 156.178358 301.217429 
L 156.375357 302.707252 
L 156.572357 301.678644 
L 157.360353 301.678644 
L 157.557352 298.254786 
L 157.754351 305.631327 
L 157.95135 305.631327 
L 158.14835 306.007568 
L 158.345349 306.007568 
L 158.542348 304.010182 
L 158.14835 303.757831 
L 158.739347 299.691226 
L 159.133345 299.691226 
L 159.330344 300.953171 
L 159.527343 300.953171 
L 159.921342 304.624562 
L 160.31534 304.757288 
L 160.512339 305.115986 
L 160.709338 305.115986 
L 160.906337 305.653265 
L 161.103336 306.617468 
L 161.300335 306.617468 
L 161.497335 306.992684 
L 161.694334 306.617468 
L 162.48233 303.159722 
L 162.285331 303.159722 
L 162.876328 302.969999 
L 163.073327 303.263085 
L 163.664325 303.263085 
L 163.861324 300.728047 
L 164.255322 300.728047 
L 164.452321 306.399364 
L 164.64932 306.944976 
L 164.84632 307.044969 
L 164.64932 307.028679 
L 165.240318 306.944976 
L 165.437317 306.263525 
L 165.634316 306.025437 
L 165.831315 306.025437 
L 166.028314 304.916823 
L 166.225313 304.916823 
L 166.422312 304.024967 
L 166.816311 305.4955 
L 167.01331 305.4955 
L 167.210309 304.663409 
L 167.407308 304.95753 
L 167.604307 304.663409 
L 167.801306 304.95753 
L 167.998305 306.559258 
L 168.195305 306.740425 
L 168.786302 306.740425 
L 168.983301 303.631789 
L 169.377299 303.631789 
L 169.574298 299.605201 
L 169.968297 306.189815 
L 170.165296 304.646317 
L 170.362295 304.646317 
L 170.559294 305.980033 
L 171.741289 306.032645 
L 171.938288 305.545145 
L 172.332286 299.848119 
L 172.726284 299.848119 
L 172.923283 300.484363 
L 173.317282 304.989451 
L 173.514281 304.989451 
L 173.71128 305.82425 
L 173.908279 304.989451 
L 174.105278 305.483695 
L 174.696275 305.450725 
L 175.090274 305.450725 
L 175.287273 306.254997 
L 175.484272 306.254997 
L 175.681271 304.736046 
L 175.87827 301.032 
L 176.075269 302.106929 
L 175.87827 302.106929 
L 176.272268 302.106929 
L 176.469267 306.147542 
L 176.863266 306.26765 
L 177.060265 306.26765 
L 177.454263 305.433855 
L 177.651262 305.433855 
L 177.848261 305.668492 
L 178.04526 305.668492 
L 178.242259 306.555565 
L 178.833257 306.487519 
L 179.030256 305.938447 
L 179.424254 305.953735 
L 179.621253 306.202304 
L 179.818252 306.684153 
L 180.212251 306.793143 
L 180.40925 306.824454 
L 180.606249 306.998184 
L 180.803248 306.998184 
L 181.000247 307.28989 
L 181.197246 307.28989 
L 181.394245 305.758885 
L 181.591244 305.435304 
L 181.788244 304.772083 
L 181.985243 305.435304 
L 182.182242 304.497499 
L 182.379241 307.332343 
L 182.57624 307.197065 
L 182.773239 303.39794 
L 182.970238 303.739383 
L 183.167237 303.102213 
L 183.364237 301.369056 
L 184.152233 301.369056 
L 184.349232 303.895411 
L 184.940229 303.895411 
L 185.137229 304.203103 
L 185.334228 304.837999 
L 185.531227 304.837999 
L 185.728226 306.112047 
L 185.925225 306.112047 
L 186.122224 306.995887 
L 186.319223 306.112047 
L 186.516222 306.112047 
L 186.713222 303.867659 
L 186.910221 303.867659 
L 187.10722 303.691964 
L 187.304219 303.867659 
L 187.501218 305.222015 
L 187.698217 305.222015 
L 187.895216 303.691964 
L 188.092215 303.440704 
L 188.486214 303.440704 
L 188.683213 304.163275 
L 189.077211 304.163275 
L 189.27421 305.823751 
L 189.471209 306.273213 
L 189.865207 306.273213 
L 190.062207 305.970495 
L 189.865207 305.825889 
L 190.456205 303.371897 
L 190.653204 302.906877 
L 190.850203 302.906877 
L 191.4412 304.221973 
L 191.638199 304.221973 
L 192.032198 305.037042 
L 192.426196 305.114852 
L 192.623195 305.746222 
L 192.820194 305.806207 
L 193.214192 306.982751 
L 193.80519 306.917602 
L 194.002189 304.465118 
L 194.199188 304.461481 
L 194.396187 304.301853 
L 194.593186 304.301853 
L 194.790185 304.064162 
L 194.987184 302.123035 
L 195.184184 304.021575 
L 195.381183 302.123035 
L 195.578182 302.123035 
L 195.775181 304.021575 
L 195.97218 304.332812 
L 196.169179 305.358208 
L 196.563177 305.358208 
L 196.957176 304.215191 
L 197.548173 304.215191 
L 197.745172 304.582685 
L 198.533169 304.582685 
L 198.730168 304.334739 
L 199.124166 304.425718 
L 199.321165 305.368481 
L 199.518164 304.425718 
L 199.715163 304.661894 
L 199.912162 306.23176 
L 200.109162 306.819793 
L 200.306161 304.661894 
L 200.50316 306.819793 
L 200.700159 307.122361 
L 201.094157 307.121211 
L 201.291156 305.824564 
L 201.094157 305.824564 
L 201.488155 305.163128 
L 201.685154 305.163128 
L 201.882154 300.515517 
L 202.276152 300.515517 
L 202.67015 303.118197 
L 202.867149 303.523145 
L 203.064148 304.232046 
L 203.261147 306.166935 
L 203.458147 306.166935 
L 203.655146 304.232046 
L 203.852145 305.181548 
L 204.246143 305.181548 
L 204.443142 306.929717 
L 204.83714 307.003534 
L 205.231139 306.97947 
L 205.428138 305.094619 
L 205.625137 306.94283 
L 205.822136 306.94283 
L 206.019135 306.700286 
L 206.216134 306.700286 
L 206.019135 306.577314 
L 206.413133 306.252246 
L 207.004131 306.198369 
L 207.20113 303.603393 
L 207.398129 306.198369 
L 207.595128 306.740325 
L 208.186125 306.729453 
L 208.580124 304.642069 
L 208.974122 304.642069 
L 209.171121 303.006243 
L 209.36812 303.006243 
L 209.565119 304.651626 
L 209.959117 304.651626 
L 210.353116 304.651626 
L 210.550115 305.254801 
L 210.747114 304.408784 
L 210.944113 304.408784 
L 211.141112 304.050214 
L 211.338111 304.050214 
L 211.732109 301.369056 
L 212.126108 301.236276 
L 212.323107 301.236276 
L 212.520106 303.115427 
L 212.914104 304.093569 
L 213.111103 303.807142 
L 213.308102 304.093569 
L 213.505102 304.093569 
L 213.702101 305.428316 
L 213.8991 305.504185 
L 214.096099 306.528883 
L 214.293098 306.930694 
L 214.490097 306.930694 
L 214.884095 303.112981 
L 215.081094 303.112981 
L 215.278094 304.358256 
L 215.081094 304.358256 
L 215.672092 304.358256 
L 215.869091 305.588291 
L 216.06609 304.210613 
L 216.263089 304.210613 
L 216.854086 305.65403 
L 217.051086 305.65403 
L 217.248085 304.776335 
L 217.445084 305.65403 
L 217.642083 304.347356 
L 218.627079 304.366179 
L 218.824078 303.334749 
L 219.218076 305.362142 
L 219.415075 303.140999 
L 219.612074 305.070917 
L 219.809073 303.371259 
L 220.006072 303.371259 
L 220.203071 305.561667 
L 220.400071 305.561667 
L 220.59707 306.164598 
L 220.794069 306.164598 
L 220.991068 303.841558 
L 221.188067 303.334701 
L 221.385066 303.841558 
L 221.582065 303.334701 
L 221.779064 303.334701 
L 221.582065 303.334701 
L 221.976064 299.819472 
L 222.173063 299.371208 
L 222.567061 299.371208 
L 222.76406 302.967784 
L 222.961059 304.357183 
L 223.158058 304.924032 
L 223.355057 306.314284 
L 223.552056 306.314284 
L 223.749056 305.84561 
L 223.946055 305.760054 
L 224.340053 305.836939 
L 224.537052 305.836939 
L 224.734051 303.489051 
L 224.93105 305.648673 
L 224.734051 305.648673 
L 225.128049 303.988885 
L 225.325049 303.988885 
L 225.522048 304.246027 
L 225.916046 304.246027 
L 225.719047 306.273202 
L 226.310044 306.273202 
L 226.507043 303.320957 
L 226.704042 303.320957 
L 226.901041 303.032422 
L 227.098041 303.320957 
L 227.29504 303.032422 
L 227.689038 303.032422 
L 227.886037 304.726925 
L 228.083036 287.450207 
L 228.280035 304.726925 
L 228.477034 304.726925 
L 228.674034 300.716712 
L 229.068032 300.716712 
L 229.265031 291.193293 
L 229.46203 297.326696 
L 229.856028 297.326696 
L 230.053027 303.657395 
L 230.250026 303.657395 
L 230.447026 304.915751 
L 230.841024 303.657395 
L 231.038023 303.358733 
L 231.235022 303.358733 
L 231.432021 303.083383 
L 231.62902 300.841286 
L 231.826019 303.083383 
L 232.023019 303.348887 
L 232.220018 304.332812 
L 232.417017 306.99535 
L 232.811015 306.99535 
L 233.008014 307.263506 
L 233.205013 306.481952 
L 233.599011 306.481952 
L 233.796011 304.050995 
L 233.99301 303.578515 
L 234.584007 303.307703 
L 234.781006 303.476822 
L 234.978005 306.978832 
L 235.372004 306.991031 
L 235.569003 300.640518 
L 235.766002 300.640518 
L 235.963001 301.350171 
L 236.356999 301.350171 
L 236.553998 302.054487 
L 236.750997 302.054487 
L 236.947996 303.24586 
L 237.144996 302.054487 
L 237.341995 302.054487 
L 237.538994 303.24586 
L 237.341995 305.490267 
L 237.735993 301.792977 
L 237.932992 305.904303 
L 238.129991 305.904303 
L 238.523989 299.898094 
L 238.720989 303.2416 
L 238.917988 303.2416 
L 239.114987 299.898094 
L 239.311986 300.936665 
L 239.508985 302.890519 
L 239.902983 302.890519 
L 240.099982 304.326042 
L 240.296981 304.326042 
L 240.493981 305.08203 
L 239.902983 305.08203 
L 240.69098 305.08203 
L 240.887979 302.165866 
L 241.084978 306.420324 
L 241.281977 303.233129 
L 241.478976 302.165866 
L 241.675975 303.233129 
L 242.069974 303.233129 
L 242.266973 301.642335 
L 242.463972 304.247066 
L 242.85797 304.579332 
L 243.054969 307.424614 
L 243.251968 307.424614 
L 243.448967 307.576965 
L 243.645966 303.566205 
L 243.842966 303.566205 
L 244.039965 306.772198 
L 244.236964 303.566205 
L 244.433963 306.542222 
L 244.630962 306.542222 
L 244.827961 304.093651 
L 245.02496 304.333639 
L 245.221959 304.093651 
L 245.615958 304.014254 
L 245.812957 303.883538 
L 246.009956 299.041823 
L 246.206955 303.883538 
L 246.403954 299.388647 
L 246.600953 299.388647 
L 246.797952 300.400522 
L 246.994951 304.027878 
L 247.191951 305.039897 
L 247.585949 305.039897 
L 247.782948 304.429797 
L 247.979947 296.384256 
L 248.176946 296.384256 
L 248.373945 304.429797 
L 248.570944 300.594304 
L 248.767944 304.666001 
L 248.964943 304.666001 
L 249.161942 303.025778 
L 249.752939 303.025778 
L 249.949938 302.890519 
L 250.146937 304.006039 
L 250.343936 304.043269 
L 250.540936 302.890519 
L 250.737935 304.318499 
L 250.934934 299.237281 
L 251.131933 299.388647 
L 251.328932 303.148967 
L 251.525931 299.388647 
L 251.72293 303.148967 
L 251.919929 303.148967 
L 252.116929 302.90679 
L 252.313928 300.626767 
L 252.510927 302.90679 
L 252.904925 302.90679 
L 253.101924 304.311706 
L 253.298923 304.332812 
L 252.904925 304.311706 
L 253.495922 304.01754 
L 253.692921 304.332812 
L 254.08692 306.365838 
L 254.480918 306.365838 
L 254.677917 300.458615 
L 255.268914 300.458615 
L 255.465914 303.251786 
L 255.662913 303.251786 
L 255.859912 298.914164 
L 256.056911 298.914164 
L 256.25391 299.2152 
L 256.647908 299.2152 
L 256.844907 301.067184 
L 257.041906 301.067184 
L 257.238906 295.0308 
L 257.632904 305.012193 
L 257.829903 305.012193 
L 258.026902 305.676263 
L 258.223901 301.526259 
L 258.4209 301.526259 
L 258.617899 304.048135 
L 259.011898 304.048135 
L 259.208897 306.909023 
L 259.405896 307.462748 
L 259.996893 307.462748 
L 260.193892 302.390156 
L 259.996893 302.390156 
L 260.390891 302.750574 
L 260.78489 302.750574 
L 260.981889 304.489621 
L 261.178888 304.092187 
L 260.981889 304.092187 
L 261.375887 304.092187 
L 261.572886 302.724155 
L 261.966884 302.724155 
L 262.163883 303.893334 
L 261.769885 304.470749 
L 262.360883 307.296942 
L 262.557882 306.550307 
L 262.754881 306.550307 
L 262.95188 303.724345 
L 263.148879 305.824171 
L 263.542877 305.824171 
L 263.739876 306.092595 
L 263.936876 305.824171 
L 263.542877 306.092595 
L 263.936876 303.334973 
L 264.133875 304.362609 
L 264.330874 303.334973 
L 264.527873 304.362609 
L 264.724872 303.057031 
L 264.921871 303.862537 
L 265.11887 303.057031 
L 265.512868 303.057031 
L 265.709868 303.528901 
L 265.906867 303.528901 
L 266.103866 304.372677 
L 266.300865 304.372677 
L 266.497864 305.248654 
L 266.694863 305.248654 
L 266.891862 304.332812 
L 267.285861 305.932071 
L 267.48286 304.332812 
L 267.679859 306.339574 
L 267.876858 306.339574 
L 268.073857 304.984791 
L 268.467855 304.984791 
L 268.664854 304.863835 
L 268.861853 304.984791 
L 269.058853 305.415914 
L 269.64985 305.415914 
L 269.846849 307.496212 
L 270.043848 307.496212 
L 270.240847 303.131665 
L 270.437846 301.944276 
L 270.634846 301.944276 
L 270.831845 301.356162 
L 271.028844 301.356162 
L 271.422842 303.337555 
L 271.619841 303.337555 
L 271.81684 303.560858 
L 272.013839 304.297326 
L 272.210838 307.575697 
L 272.604837 307.514389 
L 272.998835 304.724201 
L 273.195834 306.149442 
L 273.392833 304.724201 
L 273.786831 307.579782 
L 273.983831 307.579782 
L 274.18083 306.862326 
L 274.377829 303.362765 
L 274.771827 303.362765 
L 274.968826 304.021186 
L 275.559823 304.021186 
L 275.756823 305.059443 
L 275.953822 305.452864 
L 276.150821 305.059443 
L 275.953822 305.059443 
L 276.34782 305.059443 
L 276.544819 306.265941 
L 276.741818 304.34566 
L 276.938817 304.332812 
L 277.135816 303.90322 
L 277.726814 303.90322 
L 278.317811 305.046044 
L 278.51481 307.525706 
L 278.711809 307.525706 
L 278.908808 307.052558 
L 279.105808 307.57592 
L 279.302807 307.052558 
L 279.696805 302.114477 
L 279.893804 304.847988 
L 280.090803 304.847988 
L 280.484801 305.034047 
L 280.681801 305.037764 
L 280.8788 305.370538 
L 281.469797 305.370538 
L 281.666796 299.912508 
L 281.469797 299.388647 
L 281.863795 299.912508 
L 282.060794 304.318381 
L 283.04579 304.332812 
L 283.242789 305.517393 
L 283.833786 305.517393 
L 283.242789 307.126256 
L 284.030786 304.827263 
L 284.227785 307.552514 
L 284.424784 307.529425 
L 284.621783 307.352123 
L 285.015781 307.352123 
L 285.21278 306.839583 
L 285.409779 306.839583 
L 285.606778 305.291669 
L 285.803778 305.291669 
L 286.000777 304.993915 
L 286.197776 305.477301 
L 286.394775 305.477301 
L 286.591774 304.993981 
L 286.788773 305.477301 
L 286.985772 304.993981 
L 287.182771 304.993981 
L 286.591774 302.817305 
L 287.379771 305.125851 
L 287.773769 305.125851 
L 287.970768 303.370264 
L 288.364766 303.370264 
L 288.167767 303.370264 
L 288.364766 304.401752 
L 288.561765 304.401752 
L 288.758764 307.19106 
L 288.955763 307.531498 
L 289.152763 307.531498 
L 289.349762 307.356217 
L 289.546761 307.356217 
L 290.334757 299.2152 
L 290.531756 302.445999 
L 290.728756 303.343403 
L 291.319753 307.493151 
L 291.516752 306.441468 
L 291.713751 306.441468 
L 291.91075 299.237281 
L 292.107749 299.237281 
L 292.304748 299.363022 
L 292.501748 300.172035 
L 292.698747 304.95619 
L 292.895746 304.95619 
L 293.092745 305.240325 
L 293.289744 305.79542 
L 293.683742 305.79542 
L 293.880741 299.870128 
L 294.077741 299.870128 
L 294.27474 302.890519 
L 294.471739 302.890519 
L 294.27474 307.172494 
L 294.668738 307.172494 
L 295.259735 305.713643 
L 295.456734 303.964276 
L 295.653733 303.964276 
L 295.850733 304.362609 
L 296.047732 304.444783 
L 296.244731 307.239799 
L 296.44173 307.184411 
L 296.638729 304.444783 
L 296.835728 304.444783 
L 297.032727 302.640942 
L 297.229726 302.640942 
L 297.426726 304.332812 
L 297.623725 307.244578 
L 297.820724 307.244578 
L 298.017723 304.332812 
L 298.411721 304.33053 
L 298.60872 302.295176 
L 298.805719 304.33053 
L 299.002718 304.896567 
L 299.199718 304.065471 
L 299.396717 304.065471 
L 299.593716 303.201008 
L 299.987714 303.201008 
L 300.184713 303.002306 
L 300.578711 307.094479 
L 300.775711 305.614603 
L 300.97271 305.614603 
L 301.169709 304.346117 
L 301.563707 304.238899 
L 301.760706 307.577593 
L 301.957705 302.916628 
L 302.154704 302.916628 
L 302.548703 307.544638 
L 302.745702 307.544638 
L 302.942701 306.456204 
L 303.1397 297.749779 
L 303.336699 297.749779 
L 303.730697 304.485481 
L 303.927696 307.379111 
L 304.124695 305.063357 
L 304.321695 305.063357 
L 303.730697 304.485481 
L 304.912692 304.32006 
L 305.109691 303.444171 
L 305.30669 306.900957 
L 305.700688 301.089703 
L 305.897688 303.33943 
L 306.685684 303.354534 
L 306.882683 307.573487 
L 307.079682 305.91024 
L 307.276681 307.579574 
L 307.47368 307.574906 
L 307.867679 305.073024 
L 308.064678 304.592493 
L 308.261677 305.073024 
L 308.064678 305.073024 
L 308.458676 306.609896 
L 308.852674 306.609896 
L 309.049673 305.841868 
L 309.246673 305.841868 
L 309.443672 302.857863 
L 309.640671 302.034376 
L 309.83767 302.034376 
L 310.231668 298.150812 
L 310.428667 302.034376 
L 310.625666 296.930597 
L 310.822665 296.930597 
L 311.019665 297.652117 
L 311.216664 295.0308 
L 311.413663 295.0308 
L 311.610662 295.755123 
L 311.807661 296.957805 
L 312.00466 296.957805 
L 312.201659 304.088348 
L 312.595658 304.362609 
L 312.792657 304.167903 
L 313.186655 304.167903 
L 313.383654 304.636213 
L 313.580653 304.056107 
L 313.777652 304.636213 
L 313.974651 303.776703 
L 314.565649 305.91024 
L 315.156646 305.91024 
L 315.353645 304.522507 
L 315.550644 304.522507 
L 315.747643 306.015663 
L 316.338641 306.028655 
L 316.53564 305.892632 
L 316.732639 305.253914 
L 317.323636 305.341843 
L 317.717635 305.901808 
L 317.914634 305.689486 
L 318.111633 305.689486 
L 318.308632 305.387266 
L 318.70263 305.387266 
L 318.899629 306.210762 
L 318.70263 306.685991 
L 319.096628 306.794136 
L 319.293628 306.210762 
L 319.687626 303.45425 
L 319.884625 299.868375 
L 320.081624 299.868375 
L 320.278623 304.497473 
L 320.475622 304.817548 
L 321.263619 304.817548 
L 321.460618 306.924169 
L 321.854616 306.924169 
L 322.051615 303.941072 
L 322.248614 303.756546 
L 322.445613 303.756546 
L 322.642613 307.138564 
L 322.839612 307.138564 
L 323.036611 306.542814 
L 323.23361 306.731231 
L 323.430609 306.731231 
L 323.627608 307.096385 
L 323.824607 307.115962 
L 324.021606 307.369053 
L 324.218605 304.991221 
L 325.006602 304.908484 
L 325.203601 304.810295 
L 325.4006 305.009678 
L 325.597599 304.202483 
L 325.991598 304.203752 
L 326.188597 306.607185 
L 326.385596 306.607185 
L 326.582595 307.022671 
L 326.976593 306.905212 
L 327.76459 306.881704 
L 327.961589 305.91902 
L 328.355587 305.915202 
L 328.552586 305.659031 
L 328.749585 305.659031 
L 328.946584 306.926224 
L 329.340583 306.949738 
L 329.93158 307.171056 
L 330.325578 307.105416 
L 330.719576 306.760373 
L 331.507573 306.759838 
L 331.704572 303.966825 
L 332.09857 303.966825 
L 332.295569 305.267101 
L 332.492568 305.267101 
L 332.886567 306.334066 
L 333.083566 306.441087 
L 333.280565 306.883556 
L 333.477564 306.953862 
L 333.674563 307.286856 
L 333.871562 307.286856 
L 334.068561 307.579782 
L 334.26556 307.259809 
L 335.053557 307.184453 
L 335.250556 307.368493 
L 336.038553 307.266213 
L 336.235552 306.232834 
L 336.432551 307.266213 
L 336.62955 306.748483 
L 337.220547 306.794136 
L 337.417546 306.794136 
L 337.614545 305.9208 
L 338.008544 305.9208 
L 338.205543 307.216728 
L 338.993539 307.338602 
L 339.190538 307.17862 
L 340.175534 307.283811 
L 340.372533 307.331052 
L 340.569532 307.561598 
L 341.554528 307.529044 
L 341.751527 307.067845 
L 341.948526 305.81004 
L 342.539523 305.545485 
L 342.736523 305.545485 
L 342.933522 307.199983 
L 343.130521 307.483959 
L 343.32752 307.199983 
L 343.524519 307.199983 
L 343.721518 306.163365 
L 343.918517 305.977875 
L 344.115516 305.977875 
L 344.312515 306.163365 
L 344.706514 307.52982 
L 345.100512 307.52982 
L 345.297511 307.006738 
L 345.49451 307.006738 
L 345.691509 307.186902 
L 346.085508 307.186902 
L 346.282507 304.766881 
L 346.676505 304.766881 
L 346.873504 304.167176 
L 347.267502 304.167176 
L 347.464501 306.967093 
L 347.6615 307.107309 
L 348.252498 307.107309 
L 348.449497 306.984316 
L 348.646496 304.016075 
L 348.843495 304.016075 
L 349.040494 306.257624 
L 349.237493 306.257624 
L 349.434492 306.850541 
L 350.02549 307.142247 
L 350.222489 307.30403 
L 350.419488 307.30403 
L 350.616487 307.529871 
L 351.404484 307.558848 
L 351.601483 307.558848 
L 351.995481 304.332812 
L 352.389479 304.369465 
L 352.783477 307.00838 
L 352.980477 307.00838 
L 353.177476 306.808654 
L 353.374475 305.559248 
L 353.768473 305.559248 
L 353.965472 305.263622 
L 354.162471 306.930177 
L 354.35947 307.28256 
L 354.753469 307.435831 
L 355.147467 307.352576 
L 355.344466 306.613894 
L 355.541465 304.992758 
L 356.132462 305.030587 
L 356.526461 307.303753 
L 356.72346 307.465584 
L 357.511456 307.465584 
L 357.708455 307.154173 
L 357.905455 307.154173 
L 358.102454 305.944809 
L 358.299453 305.944809 
L 358.496452 307.154173 
L 358.89045 307.417593 
L 359.481447 307.332936 
L 359.678447 306.90002 
L 359.875446 306.90002 
L 360.269444 307.332936 
L 360.466443 307.117742 
L 360.663442 307.421457 
L 361.05744 306.788174 
L 361.25444 306.788174 
L 361.451439 307.080316 
L 361.648438 306.788174 
L 361.845437 307.080316 
L 362.042436 307.146728 
L 362.239435 307.423041 
L 362.830432 307.423041 
L 363.027432 307.058549 
L 363.224431 307.134795 
L 363.42143 305.576793 
L 363.618429 305.560379 
L 363.815428 307.134795 
L 364.012427 306.549931 
L 364.406425 306.549931 
L 364.603425 307.415975 
L 364.800424 307.415975 
L 364.997423 307.120015 
L 365.194422 307.441758 
L 365.391421 307.120015 
L 366.179417 307.121847 
L 366.376417 306.515499 
L 366.573416 306.376902 
L 366.967414 306.376902 
L 367.164413 307.526386 
L 367.558411 307.526386 
L 367.75541 307.16556 
L 368.346408 307.16556 
L 368.543407 307.398481 
L 368.740406 305.880352 
L 369.331403 305.888541 
L 369.528402 307.181112 
L 370.1194 307.138064 
L 370.316399 306.937901 
L 370.513398 305.703107 
L 370.907396 305.703107 
L 371.104395 306.921195 
L 371.301395 307.299384 
L 371.892392 307.264511 
L 372.28639 306.649695 
L 372.483389 306.649695 
L 372.680388 304.23648 
L 372.877387 304.860197 
L 373.074387 304.860197 
L 373.271386 304.23648 
L 373.468385 304.860197 
L 373.665384 306.635977 
L 373.862383 306.635977 
L 374.059382 304.23648 
L 374.256381 307.214754 
L 374.45338 305.638467 
L 374.847379 306.548623 
L 375.044378 306.548623 
L 375.241377 307.247355 
L 375.635375 307.247355 
L 375.832374 306.423993 
L 376.226372 306.423993 
L 376.423372 306.617142 
L 376.620371 307.081389 
L 377.014369 307.081389 
L 377.408367 306.958016 
L 377.605366 307.156585 
L 378.590362 307.18919 
L 378.787361 307.574502 
L 379.378358 307.574502 
L 379.575357 306.815256 
L 379.772357 302.457373 
L 379.969356 302.457373 
L 380.166355 302.916037 
L 380.363354 302.916037 
L 380.560353 307.198633 
L 380.757352 307.198633 
L 381.15135 307.559948 
L 381.545349 307.330559 
L 382.136346 307.277138 
L 382.333345 307.010669 
L 382.530344 307.010669 
L 382.924342 307.311359 
L 383.318341 307.311359 
L 383.51534 304.659128 
L 383.909338 304.659128 
L 384.106337 305.599907 
L 384.303336 305.599907 
L 384.500335 305.014609 
L 384.697335 303.351996 
L 385.288332 303.351996 
L 385.68233 305.220779 
L 385.879329 304.298451 
L 386.076328 302.816032 
L 386.273327 305.220779 
L 386.470327 305.995447 
L 386.864325 305.995447 
L 387.061324 304.278626 
L 387.455322 304.272758 
L 388.04632 306.923307 
L 388.243319 306.923307 
L 388.637317 304.313613 
L 388.834316 304.313613 
L 389.031315 305.770109 
L 389.228314 305.770109 
L 389.425313 303.793851 
L 389.819312 303.793851 
L 390.21331 304.409292 
L 390.410309 304.534208 
L 390.607308 306.524896 
L 391.986302 306.526872 
L 392.183301 306.844783 
L 392.3803 306.844783 
L 392.577299 306.542356 
L 393.365296 306.516681 
L 393.956293 307.345309 
L 394.350291 307.345309 
L 394.744289 307.573301 
L 395.138288 307.554022 
L 395.729285 307.285835 
L 395.926284 307.552162 
L 398.487273 307.545424 
L 398.487273 307.545424 
" style="fill:none;stroke:#ff7f0e;stroke-linecap:square;stroke-width:1.5;"/>
   </g>
   <g id="patch_3">
    <path d="M 57.6 307.584 
L 57.6 41.472 
" style="fill:none;stroke:#000000;stroke-linecap:square;stroke-linejoin:miter;stroke-width:0.8;"/>
   </g>
   <g id="patch_4">
    <path d="M 414.72 307.584 
L 414.72 41.472 
" style="fill:none;stroke:#000000;stroke-linecap:square;stroke-linejoin:miter;stroke-width:0.8;"/>
   </g>
   <g id="patch_5">
    <path d="M 57.6 307.584 
L 414.72 307.584 
" style="fill:none;stroke:#000000;stroke-linecap:square;stroke-linejoin:miter;stroke-width:0.8;"/>
   </g>
   <g id="patch_6">
    <path d="M 57.6 41.472 
L 414.72 41.472 
" style="fill:none;stroke:#000000;stroke-linecap:square;stroke-linejoin:miter;stroke-width:0.8;"/>
   </g>
   <g id="text_19">
    <!-- middle, cutoff -->
    <g transform="translate(194.50875 35.472)scale(0.12 -0.12)">
     <defs>
      <path d="M 750 794 
L 1409 794 
L 1409 256 
L 897 -744 
L 494 -744 
L 750 256 
L 750 794 
z
" id="DejaVuSans-2c" transform="scale(0.015625)"/>
      <path d="M 544 1381 
L 544 3500 
L 1119 3500 
L 1119 1403 
Q 1119 906 1312 657 
Q 1506 409 1894 409 
Q 2359 409 2629 706 
Q 2900 1003 2900 1516 
L 2900 3500 
L 3475 3500 
L 3475 0 
L 2900 0 
L 2900 538 
Q 2691 219 2414 64 
Q 2138 -91 1772 -91 
Q 1169 -91 856 284 
Q 544 659 544 1381 
z
M 1991 3584 
L 1991 3584 
z
" id="DejaVuSans-75" transform="scale(0.015625)"/>
     </defs>
     <use xlink:href="#DejaVuSans-6d"/>
     <use x="97.412109" xlink:href="#DejaVuSans-69"/>
     <use x="125.195312" xlink:href="#DejaVuSans-64"/>
     <use x="188.671875" xlink:href="#DejaVuSans-64"/>
     <use x="252.148438" xlink:href="#DejaVuSans-6c"/>
     <use x="279.931641" xlink:href="#DejaVuSans-65"/>
     <use x="341.455078" xlink:href="#DejaVuSans-2c"/>
     <use x="373.242188" xlink:href="#DejaVuSans-20"/>
     <use x="405.029297" xlink:href="#DejaVuSans-63"/>
     <use x="460.009766" xlink:href="#DejaVuSans-75"/>
     <use x="523.388672" xlink:href="#DejaVuSans-74"/>
     <use x="562.597656" xlink:href="#DejaVuSans-6f"/>
     <use x="623.779297" xlink:href="#DejaVuSans-66"/>
     <use x="658.984375" xlink:href="#DejaVuSans-66"/>
    </g>
   </g>
   <g id="legend_1">
    <g id="patch_7">
     <path d="M 64.6 78.82825 
L 117.26875 78.82825 
Q 119.26875 78.82825 119.26875 76.82825 
L 119.26875 48.472 
Q 119.26875 46.472 117.26875 46.472 
L 64.6 46.472 
Q 62.6 46.472 62.6 48.472 
L 62.6 76.82825 
Q 62.6 78.82825 64.6 78.82825 
z
" style="fill:#ffffff;opacity:0.8;stroke:#cccccc;stroke-linejoin:miter;"/>
    </g>
    <g id="line2d_19">
     <path d="M 66.6 54.570437 
L 86.6 54.570437 
" style="fill:none;stroke:#1f77b4;stroke-linecap:square;stroke-width:1.5;"/>
    </g>
    <g id="line2d_20"/>
    <g id="text_20">
     <!-- old -->
     <g transform="translate(94.6 58.070437)scale(0.1 -0.1)">
      <use xlink:href="#DejaVuSans-6f"/>
      <use x="61.181641" xlink:href="#DejaVuSans-6c"/>
      <use x="88.964844" xlink:href="#DejaVuSans-64"/>
     </g>
    </g>
    <g id="line2d_21">
     <path d="M 66.6 69.248562 
L 86.6 69.248562 
" style="fill:none;stroke:#ff7f0e;stroke-linecap:square;stroke-width:1.5;"/>
    </g>
    <g id="line2d_22"/>
    <g id="text_21">
     <!-- new -->
     <g transform="translate(94.6 72.748562)scale(0.1 -0.1)">
      <defs>
       <path d="M 3513 2113 
L 3513 0 
L 2938 0 
L 2938 2094 
Q 2938 2591 2744 2837 
Q 2550 3084 2163 3084 
Q 1697 3084 1428 2787 
Q 1159 2491 1159 1978 
L 1159 0 
L 581 0 
L 581 3500 
L 1159 3500 
L 1159 2956 
Q 1366 3272 1645 3428 
Q 1925 3584 2291 3584 
Q 2894 3584 3203 3211 
Q 3513 2838 3513 2113 
z
" id="DejaVuSans-6e" transform="scale(0.015625)"/>
       <path d="M 269 3500 
L 844 3500 
L 1563 769 
L 2278 3500 
L 2956 3500 
L 3675 769 
L 4391 3500 
L 4966 3500 
L 4050 0 
L 3372 0 
L 2619 2869 
L 1863 0 
L 1184 0 
L 269 3500 
z
" id="DejaVuSans-77" transform="scale(0.015625)"/>
      </defs>
      <use xlink:href="#DejaVuSans-6e"/>
      <use x="63.378906" xlink:href="#DejaVuSans-65"/>
      <use x="124.902344" xlink:href="#DejaVuSans-77"/>
     </g>
    </g>
   </g>
  </g>
 </g>
 <defs>
  <clipPath id="pa7c8d2f6d4">
   <rect height="266.112" width="357.12" x="57.6" y="41.472"/>
  </clipPath>
 </defs>
</svg>
