<?xml version="1.0" encoding="utf-8" standalone="no"?>
<!DOCTYPE svg PUBLIC "-//W3C//DTD SVG 1.1//EN"
  "http://www.w3.org/Graphics/SVG/1.1/DTD/svg11.dtd">
<svg height="345.6pt" version="1.1" viewBox="0 0 460.8 345.6" width="460.8pt" xmlns="http://www.w3.org/2000/svg" xmlns:xlink="http://www.w3.org/1999/xlink">
 <metadata>
  <rdf:RDF xmlns:cc="http://creativecommons.org/ns#" xmlns:dc="http://purl.org/dc/elements/1.1/" xmlns:rdf="http://www.w3.org/1999/02/22-rdf-syntax-ns#">
   <cc:Work>
    <dc:type rdf:resource="http://purl.org/dc/dcmitype/StillImage"/>
    <dc:date>2022-01-06T21:58:35.484115</dc:date>
    <dc:format>image/svg+xml</dc:format>
    <dc:creator>
     <cc:Agent>
      <dc:title>Matplotlib v3.4.3, https://matplotlib.org/</dc:title>
     </cc:Agent>
    </dc:creator>
   </cc:Work>
  </rdf:RDF>
 </metadata>
 <defs>
  <style type="text/css">*{stroke-linecap:butt;stroke-linejoin:round;}</style>
 </defs>
 <g id="figure_1">
  <g id="patch_1">
   <path d="M 0 345.6 
L 460.8 345.6 
L 460.8 0 
L 0 0 
z
" style="fill:#ffffff;"/>
  </g>
  <g id="axes_1">
   <g id="patch_2">
    <path d="M 57.6 307.584 
L 414.72 307.584 
L 414.72 41.472 
L 57.6 41.472 
z
" style="fill:#ffffff;"/>
   </g>
   <g id="matplotlib.axis_1">
    <g id="xtick_1">
     <g id="line2d_1">
      <defs>
       <path d="M 0 0 
L 0 3.5 
" id="meb18a30e0d" style="stroke:#000000;stroke-width:0.8;"/>
      </defs>
      <g>
       <use style="stroke:#000000;stroke-width:0.8;" x="73.832727" xlink:href="#meb18a30e0d" y="307.584"/>
      </g>
     </g>
     <g id="text_1">
      <!-- 39000 -->
      <g transform="translate(57.926477 322.182437)scale(0.1 -0.1)">
       <defs>
        <path d="M 2597 2516 
Q 3050 2419 3304 2112 
Q 3559 1806 3559 1356 
Q 3559 666 3084 287 
Q 2609 -91 1734 -91 
Q 1441 -91 1130 -33 
Q 819 25 488 141 
L 488 750 
Q 750 597 1062 519 
Q 1375 441 1716 441 
Q 2309 441 2620 675 
Q 2931 909 2931 1356 
Q 2931 1769 2642 2001 
Q 2353 2234 1838 2234 
L 1294 2234 
L 1294 2753 
L 1863 2753 
Q 2328 2753 2575 2939 
Q 2822 3125 2822 3475 
Q 2822 3834 2567 4026 
Q 2313 4219 1838 4219 
Q 1578 4219 1281 4162 
Q 984 4106 628 3988 
L 628 4550 
Q 988 4650 1302 4700 
Q 1616 4750 1894 4750 
Q 2613 4750 3031 4423 
Q 3450 4097 3450 3541 
Q 3450 3153 3228 2886 
Q 3006 2619 2597 2516 
z
" id="DejaVuSans-33" transform="scale(0.015625)"/>
        <path d="M 703 97 
L 703 672 
Q 941 559 1184 500 
Q 1428 441 1663 441 
Q 2288 441 2617 861 
Q 2947 1281 2994 2138 
Q 2813 1869 2534 1725 
Q 2256 1581 1919 1581 
Q 1219 1581 811 2004 
Q 403 2428 403 3163 
Q 403 3881 828 4315 
Q 1253 4750 1959 4750 
Q 2769 4750 3195 4129 
Q 3622 3509 3622 2328 
Q 3622 1225 3098 567 
Q 2575 -91 1691 -91 
Q 1453 -91 1209 -44 
Q 966 3 703 97 
z
M 1959 2075 
Q 2384 2075 2632 2365 
Q 2881 2656 2881 3163 
Q 2881 3666 2632 3958 
Q 2384 4250 1959 4250 
Q 1534 4250 1286 3958 
Q 1038 3666 1038 3163 
Q 1038 2656 1286 2365 
Q 1534 2075 1959 2075 
z
" id="DejaVuSans-39" transform="scale(0.015625)"/>
        <path d="M 2034 4250 
Q 1547 4250 1301 3770 
Q 1056 3291 1056 2328 
Q 1056 1369 1301 889 
Q 1547 409 2034 409 
Q 2525 409 2770 889 
Q 3016 1369 3016 2328 
Q 3016 3291 2770 3770 
Q 2525 4250 2034 4250 
z
M 2034 4750 
Q 2819 4750 3233 4129 
Q 3647 3509 3647 2328 
Q 3647 1150 3233 529 
Q 2819 -91 2034 -91 
Q 1250 -91 836 529 
Q 422 1150 422 2328 
Q 422 3509 836 4129 
Q 1250 4750 2034 4750 
z
" id="DejaVuSans-30" transform="scale(0.015625)"/>
       </defs>
       <use xlink:href="#DejaVuSans-33"/>
       <use x="63.623047" xlink:href="#DejaVuSans-39"/>
       <use x="127.246094" xlink:href="#DejaVuSans-30"/>
       <use x="190.869141" xlink:href="#DejaVuSans-30"/>
       <use x="254.492188" xlink:href="#DejaVuSans-30"/>
      </g>
     </g>
    </g>
    <g id="xtick_2">
     <g id="line2d_2">
      <g>
       <use style="stroke:#000000;stroke-width:0.8;" x="123.082507" xlink:href="#meb18a30e0d" y="307.584"/>
      </g>
     </g>
     <g id="text_2">
      <!-- 39250 -->
      <g transform="translate(107.176257 322.182437)scale(0.1 -0.1)">
       <defs>
        <path d="M 1228 531 
L 3431 531 
L 3431 0 
L 469 0 
L 469 531 
Q 828 903 1448 1529 
Q 2069 2156 2228 2338 
Q 2531 2678 2651 2914 
Q 2772 3150 2772 3378 
Q 2772 3750 2511 3984 
Q 2250 4219 1831 4219 
Q 1534 4219 1204 4116 
Q 875 4013 500 3803 
L 500 4441 
Q 881 4594 1212 4672 
Q 1544 4750 1819 4750 
Q 2544 4750 2975 4387 
Q 3406 4025 3406 3419 
Q 3406 3131 3298 2873 
Q 3191 2616 2906 2266 
Q 2828 2175 2409 1742 
Q 1991 1309 1228 531 
z
" id="DejaVuSans-32" transform="scale(0.015625)"/>
        <path d="M 691 4666 
L 3169 4666 
L 3169 4134 
L 1269 4134 
L 1269 2991 
Q 1406 3038 1543 3061 
Q 1681 3084 1819 3084 
Q 2600 3084 3056 2656 
Q 3513 2228 3513 1497 
Q 3513 744 3044 326 
Q 2575 -91 1722 -91 
Q 1428 -91 1123 -41 
Q 819 9 494 109 
L 494 744 
Q 775 591 1075 516 
Q 1375 441 1709 441 
Q 2250 441 2565 725 
Q 2881 1009 2881 1497 
Q 2881 1984 2565 2268 
Q 2250 2553 1709 2553 
Q 1456 2553 1204 2497 
Q 953 2441 691 2322 
L 691 4666 
z
" id="DejaVuSans-35" transform="scale(0.015625)"/>
       </defs>
       <use xlink:href="#DejaVuSans-33"/>
       <use x="63.623047" xlink:href="#DejaVuSans-39"/>
       <use x="127.246094" xlink:href="#DejaVuSans-32"/>
       <use x="190.869141" xlink:href="#DejaVuSans-35"/>
       <use x="254.492188" xlink:href="#DejaVuSans-30"/>
      </g>
     </g>
    </g>
    <g id="xtick_3">
     <g id="line2d_3">
      <g>
       <use style="stroke:#000000;stroke-width:0.8;" x="172.332286" xlink:href="#meb18a30e0d" y="307.584"/>
      </g>
     </g>
     <g id="text_3">
      <!-- 39500 -->
      <g transform="translate(156.426036 322.182437)scale(0.1 -0.1)">
       <use xlink:href="#DejaVuSans-33"/>
       <use x="63.623047" xlink:href="#DejaVuSans-39"/>
       <use x="127.246094" xlink:href="#DejaVuSans-35"/>
       <use x="190.869141" xlink:href="#DejaVuSans-30"/>
       <use x="254.492188" xlink:href="#DejaVuSans-30"/>
      </g>
     </g>
    </g>
    <g id="xtick_4">
     <g id="line2d_4">
      <g>
       <use style="stroke:#000000;stroke-width:0.8;" x="221.582065" xlink:href="#meb18a30e0d" y="307.584"/>
      </g>
     </g>
     <g id="text_4">
      <!-- 39750 -->
      <g transform="translate(205.675815 322.182437)scale(0.1 -0.1)">
       <defs>
        <path d="M 525 4666 
L 3525 4666 
L 3525 4397 
L 1831 0 
L 1172 0 
L 2766 4134 
L 525 4134 
L 525 4666 
z
" id="DejaVuSans-37" transform="scale(0.015625)"/>
       </defs>
       <use xlink:href="#DejaVuSans-33"/>
       <use x="63.623047" xlink:href="#DejaVuSans-39"/>
       <use x="127.246094" xlink:href="#DejaVuSans-37"/>
       <use x="190.869141" xlink:href="#DejaVuSans-35"/>
       <use x="254.492188" xlink:href="#DejaVuSans-30"/>
      </g>
     </g>
    </g>
    <g id="xtick_5">
     <g id="line2d_5">
      <g>
       <use style="stroke:#000000;stroke-width:0.8;" x="270.831845" xlink:href="#meb18a30e0d" y="307.584"/>
      </g>
     </g>
     <g id="text_5">
      <!-- 40000 -->
      <g transform="translate(254.925595 322.182437)scale(0.1 -0.1)">
       <defs>
        <path d="M 2419 4116 
L 825 1625 
L 2419 1625 
L 2419 4116 
z
M 2253 4666 
L 3047 4666 
L 3047 1625 
L 3713 1625 
L 3713 1100 
L 3047 1100 
L 3047 0 
L 2419 0 
L 2419 1100 
L 313 1100 
L 313 1709 
L 2253 4666 
z
" id="DejaVuSans-34" transform="scale(0.015625)"/>
       </defs>
       <use xlink:href="#DejaVuSans-34"/>
       <use x="63.623047" xlink:href="#DejaVuSans-30"/>
       <use x="127.246094" xlink:href="#DejaVuSans-30"/>
       <use x="190.869141" xlink:href="#DejaVuSans-30"/>
       <use x="254.492188" xlink:href="#DejaVuSans-30"/>
      </g>
     </g>
    </g>
    <g id="xtick_6">
     <g id="line2d_6">
      <g>
       <use style="stroke:#000000;stroke-width:0.8;" x="320.081624" xlink:href="#meb18a30e0d" y="307.584"/>
      </g>
     </g>
     <g id="text_6">
      <!-- 40250 -->
      <g transform="translate(304.175374 322.182437)scale(0.1 -0.1)">
       <use xlink:href="#DejaVuSans-34"/>
       <use x="63.623047" xlink:href="#DejaVuSans-30"/>
       <use x="127.246094" xlink:href="#DejaVuSans-32"/>
       <use x="190.869141" xlink:href="#DejaVuSans-35"/>
       <use x="254.492188" xlink:href="#DejaVuSans-30"/>
      </g>
     </g>
    </g>
    <g id="xtick_7">
     <g id="line2d_7">
      <g>
       <use style="stroke:#000000;stroke-width:0.8;" x="369.331403" xlink:href="#meb18a30e0d" y="307.584"/>
      </g>
     </g>
     <g id="text_7">
      <!-- 40500 -->
      <g transform="translate(353.425153 322.182437)scale(0.1 -0.1)">
       <use xlink:href="#DejaVuSans-34"/>
       <use x="63.623047" xlink:href="#DejaVuSans-30"/>
       <use x="127.246094" xlink:href="#DejaVuSans-35"/>
       <use x="190.869141" xlink:href="#DejaVuSans-30"/>
       <use x="254.492188" xlink:href="#DejaVuSans-30"/>
      </g>
     </g>
    </g>
   </g>
   <g id="matplotlib.axis_2">
    <g id="ytick_1">
     <g id="line2d_8">
      <defs>
       <path d="M 0 0 
L -3.5 0 
" id="m2bdca2c597" style="stroke:#000000;stroke-width:0.8;"/>
      </defs>
      <g>
       <use style="stroke:#000000;stroke-width:0.8;" x="57.6" xlink:href="#m2bdca2c597" y="275.541648"/>
      </g>
     </g>
     <g id="text_8">
      <!-- −3 -->
      <g transform="translate(35.857813 279.340867)scale(0.1 -0.1)">
       <defs>
        <path d="M 678 2272 
L 4684 2272 
L 4684 1741 
L 678 1741 
L 678 2272 
z
" id="DejaVuSans-2212" transform="scale(0.015625)"/>
       </defs>
       <use xlink:href="#DejaVuSans-2212"/>
       <use x="83.789062" xlink:href="#DejaVuSans-33"/>
      </g>
     </g>
    </g>
    <g id="ytick_2">
     <g id="line2d_9">
      <g>
       <use style="stroke:#000000;stroke-width:0.8;" x="57.6" xlink:href="#m2bdca2c597" y="235.564252"/>
      </g>
     </g>
     <g id="text_9">
      <!-- −2 -->
      <g transform="translate(35.857813 239.363471)scale(0.1 -0.1)">
       <use xlink:href="#DejaVuSans-2212"/>
       <use x="83.789062" xlink:href="#DejaVuSans-32"/>
      </g>
     </g>
    </g>
    <g id="ytick_3">
     <g id="line2d_10">
      <g>
       <use style="stroke:#000000;stroke-width:0.8;" x="57.6" xlink:href="#m2bdca2c597" y="195.586856"/>
      </g>
     </g>
     <g id="text_10">
      <!-- −1 -->
      <g transform="translate(35.857813 199.386075)scale(0.1 -0.1)">
       <defs>
        <path d="M 794 531 
L 1825 531 
L 1825 4091 
L 703 3866 
L 703 4441 
L 1819 4666 
L 2450 4666 
L 2450 531 
L 3481 531 
L 3481 0 
L 794 0 
L 794 531 
z
" id="DejaVuSans-31" transform="scale(0.015625)"/>
       </defs>
       <use xlink:href="#DejaVuSans-2212"/>
       <use x="83.789062" xlink:href="#DejaVuSans-31"/>
      </g>
     </g>
    </g>
    <g id="ytick_4">
     <g id="line2d_11">
      <g>
       <use style="stroke:#000000;stroke-width:0.8;" x="57.6" xlink:href="#m2bdca2c597" y="155.60946"/>
      </g>
     </g>
     <g id="text_11">
      <!-- 0 -->
      <g transform="translate(44.2375 159.408679)scale(0.1 -0.1)">
       <use xlink:href="#DejaVuSans-30"/>
      </g>
     </g>
    </g>
    <g id="ytick_5">
     <g id="line2d_12">
      <g>
       <use style="stroke:#000000;stroke-width:0.8;" x="57.6" xlink:href="#m2bdca2c597" y="115.632064"/>
      </g>
     </g>
     <g id="text_12">
      <!-- 1 -->
      <g transform="translate(44.2375 119.431282)scale(0.1 -0.1)">
       <use xlink:href="#DejaVuSans-31"/>
      </g>
     </g>
    </g>
    <g id="ytick_6">
     <g id="line2d_13">
      <g>
       <use style="stroke:#000000;stroke-width:0.8;" x="57.6" xlink:href="#m2bdca2c597" y="75.654667"/>
      </g>
     </g>
     <g id="text_13">
      <!-- 2 -->
      <g transform="translate(44.2375 79.453886)scale(0.1 -0.1)">
       <use xlink:href="#DejaVuSans-32"/>
      </g>
     </g>
    </g>
   </g>
   <g id="line2d_14">
    <path clip-path="url(#pe8a3feac07)" d="M 73.832727 178.818045 
L 74.029726 179.121337 
L 73.832727 178.182419 
L 74.423725 177.184191 
L 74.620724 175.651632 
L 74.817723 177.363502 
L 75.014722 167.60621 
L 75.211721 164.225586 
L 75.40872 175.066453 
L 75.211721 184.934895 
L 75.605719 178.581251 
L 75.802718 156.169035 
L 76.196717 170.705027 
L 76.393716 168.416209 
L 76.787714 174.262702 
L 76.984713 174.100591 
L 77.575711 191.678012 
L 77.969709 184.495654 
L 78.166708 185.553735 
L 78.363707 190.410101 
L 78.560706 181.23402 
L 78.757705 182.472515 
L 79.151703 167.240224 
L 79.545702 180.390183 
L 79.9397 182.578584 
L 80.333698 191.340699 
L 80.530697 188.001343 
L 80.924695 197.074901 
L 81.121695 195.549942 
L 81.515693 186.006657 
L 81.712692 158.379093 
L 82.10669 176.585249 
L 82.303689 109.8748 
L 82.894687 136.951833 
L 83.682683 169.234865 
L 83.879682 171.160119 
L 84.076681 174.807263 
L 84.47068 172.290866 
L 84.667679 172.056718 
L 84.864678 176.532296 
L 85.061677 173.737807 
L 85.258676 173.481927 
L 85.455675 170.653841 
L 86.046673 180.238216 
L 86.243672 178.702516 
L 86.63767 183.335143 
L 86.834669 178.345306 
L 87.031668 186.71708 
L 87.228667 179.730839 
L 87.425666 143.280614 
L 87.622665 158.946036 
L 87.819665 164.792139 
L 88.016664 165.709718 
L 88.213663 169.914748 
L 88.410662 163.489636 
L 88.80466 175.390314 
L 89.198658 168.391149 
L 89.395658 175.277696 
L 89.592657 176.373054 
L 89.986655 168.425801 
L 90.183654 168.664395 
L 90.380653 170.223658 
L 90.577652 168.808086 
L 90.774651 162.93409 
L 91.16865 169.993293 
L 91.365649 171.274521 
L 91.562648 151.960191 
L 91.956646 168.731024 
L 92.153645 167.907343 
L 92.350644 162.036081 
L 92.547643 160.773123 
L 92.744643 163.967321 
L 93.138641 174.961752 
L 93.33564 176.897379 
L 93.926637 162.451844 
L 94.123636 166.395693 
L 94.320635 167.735361 
L 94.714634 180.916056 
L 94.911633 179.789777 
L 95.108632 179.701784 
L 95.50263 174.846851 
L 95.699629 174.097939 
L 95.896628 163.303343 
L 96.487626 174.342755 
L 96.684625 173.729903 
L 96.881624 171.683093 
L 97.472621 185.64933 
L 97.66962 159.552932 
L 98.063619 170.841794 
L 98.260618 167.974412 
L 98.654616 179.199094 
L 98.851615 178.448434 
L 99.048614 118.634403 
L 99.442613 141.712621 
L 100.03361 159.332253 
L 100.427608 175.859877 
L 100.230609 184.973888 
L 100.427608 179.297628 
L 100.821606 185.518143 
L 101.018605 181.614513 
L 101.215605 180.487933 
L 101.412604 169.805823 
L 101.609603 169.221186 
L 101.806602 174.148513 
L 102.003601 173.936247 
L 102.2006 183.880002 
L 102.594598 168.816238 
L 102.988597 181.464394 
L 103.185596 178.913532 
L 103.382595 172.522598 
L 103.579594 148.125931 
L 103.973592 167.642339 
L 104.56459 192.91357 
L 104.761589 191.455717 
L 104.958588 160.886579 
L 105.352586 171.088131 
L 105.549585 158.591157 
L 106.140583 179.483056 
L 106.337582 180.699151 
L 106.534581 183.853221 
L 106.73158 178.02284 
L 106.928579 182.285715 
L 107.125578 181.739839 
L 107.322577 177.274929 
L 107.519576 169.616049 
L 107.716575 174.401548 
L 107.913575 171.978367 
L 108.110574 172.418365 
L 108.307573 175.572614 
L 108.504572 174.324162 
L 108.701571 181.942972 
L 108.89857 177.200877 
L 109.292568 185.103286 
L 109.489568 185.236512 
L 109.686567 180.462878 
L 109.883566 181.841869 
L 110.080565 176.64634 
L 109.883566 176.684472 
L 110.277564 173.692501 
L 110.474563 173.554968 
L 110.671562 181.758879 
L 110.868561 173.904377 
L 111.459559 187.274177 
L 111.656558 185.86577 
L 111.853557 175.359008 
L 112.050556 178.168139 
L 112.247555 177.4465 
L 112.444554 185.690319 
L 113.232551 172.61085 
L 113.42955 159.123525 
L 113.823548 166.874313 
L 114.020547 165.751071 
L 114.217546 153.954066 
L 114.611545 169.793838 
L 114.808544 171.817325 
L 114.611545 172.924979 
L 115.005543 171.320773 
L 115.202542 170.571035 
L 115.399541 177.725976 
L 115.59654 177.624403 
L 115.793539 171.787007 
L 115.990538 171.829629 
L 116.384537 164.66202 
L 116.581536 169.613659 
L 116.778535 55.611403 
L 118.354528 147.416391 
L 119.142524 175.163049 
L 119.339523 174.627585 
L 119.536523 174.418515 
L 119.733522 170.800162 
L 119.930521 178.84423 
L 120.12752 180.016259 
L 120.324519 184.975317 
L 120.521518 175.901415 
L 120.718517 187.155803 
L 120.521518 173.704882 
L 120.915516 168.840355 
L 121.112515 177.588847 
L 121.309515 165.598043 
L 121.703513 180.459178 
L 121.900512 181.272694 
L 122.097511 177.870488 
L 122.29451 179.474495 
L 122.491509 186.432511 
L 122.885508 177.542483 
L 123.082507 160.139807 
L 123.279506 168.725095 
L 123.476505 172.002072 
L 123.870503 171.149162 
L 124.067502 166.853025 
L 124.264501 168.747332 
L 124.4615 177.377425 
L 124.6585 173.857656 
L 124.855499 176.421234 
L 125.249497 192.602535 
L 125.446496 171.328951 
L 125.643495 171.099946 
L 126.037493 163.799914 
L 126.234492 166.979101 
L 126.431492 166.979122 
L 126.628491 166.350631 
L 126.82549 168.465386 
L 127.022489 167.37583 
L 127.219488 164.523174 
L 127.416487 172.616461 
L 127.613486 167.128095 
L 128.007485 172.21154 
L 127.613486 166.273024 
L 128.204484 135.530306 
L 128.401483 139.508744 
L 128.598482 146.354015 
L 128.795481 146.066437 
L 128.99248 152.12185 
L 129.189479 146.428879 
L 129.583477 158.664976 
L 129.780477 155.058881 
L 129.977476 155.896471 
L 130.174475 163.663462 
L 130.371474 157.876016 
L 130.568473 53.568 
L 130.765472 65.5393 
L 131.15947 77.452158 
L 131.553469 100.066518 
L 131.750468 100.674475 
L 132.144466 120.625399 
L 132.538464 133.599548 
L 132.735463 127.677062 
L 132.932462 134.580654 
L 133.129462 135.399727 
L 133.52346 159.620431 
L 133.917458 152.033826 
L 134.114457 132.067203 
L 134.508455 139.32576 
L 135.099453 163.711595 
L 135.296452 163.822035 
L 135.493451 157.932661 
L 135.69045 160.628832 
L 135.887449 156.291011 
L 136.281447 169.283242 
L 136.478447 158.159916 
L 136.872445 176.892193 
L 137.069444 171.93812 
L 137.266443 158.677916 
L 137.463442 164.058715 
L 137.660441 146.054501 
L 137.85744 147.990136 
L 138.05444 151.064806 
L 138.251439 158.285428 
L 138.448438 159.257089 
L 138.645437 136.35166 
L 139.039435 147.385969 
L 139.236434 151.864661 
L 139.433433 149.461228 
L 139.630432 150.617665 
L 139.827432 161.567808 
L 140.024431 163.656843 
L 140.22143 172.526264 
L 140.418429 174.17228 
L 140.615428 174.084803 
L 140.812427 180.464338 
L 141.009426 168.922606 
L 141.206425 169.274632 
L 141.403425 169.274652 
L 141.600424 155.26417 
L 141.797423 160.586386 
L 141.994422 160.586415 
L 142.191421 168.540751 
L 142.38842 162.376076 
L 142.585419 161.395348 
L 142.782418 168.205334 
L 142.979417 168.005223 
L 143.176417 164.963538 
L 143.373416 145.787488 
L 143.570415 153.561345 
L 143.767414 149.242913 
L 143.964413 149.242923 
L 144.161412 127.492767 
L 144.55541 148.223163 
L 144.75241 117.545635 
L 145.540406 154.998338 
L 145.737405 155.845422 
L 145.934404 160.099164 
L 146.131403 157.8424 
L 146.328402 153.215388 
L 146.525402 155.653361 
L 146.9194 148.458806 
L 146.722401 157.943033 
L 147.116399 164.088224 
L 147.313398 155.919944 
L 147.510397 158.301811 
L 147.707396 115.862073 
L 146.9194 122.631687 
L 147.904395 134.438633 
L 148.298394 146.145203 
L 148.495393 142.148968 
L 148.889391 151.497489 
L 149.08639 148.858459 
L 149.480388 162.186591 
L 149.677387 146.863677 
L 150.071386 159.735788 
L 150.268385 158.947157 
L 150.465384 158.689829 
L 150.859382 176.718006 
L 151.056381 165.274389 
L 151.25338 165.202766 
L 151.45038 156.015734 
L 151.647379 157.658324 
L 151.844378 156.814035 
L 152.041377 158.597964 
L 152.238376 161.668161 
L 152.435375 160.064832 
L 152.632374 161.707245 
L 152.829373 155.05709 
L 153.026372 157.380938 
L 153.223372 156.180148 
L 153.61737 174.78989 
L 153.814369 169.915181 
L 154.011368 170.403846 
L 154.208367 171.917862 
L 154.405366 162.482995 
L 154.602365 141.559646 
L 154.799365 148.238319 
L 154.996364 145.529817 
L 155.193363 146.831307 
L 155.390362 149.632887 
L 155.587361 135.616431 
L 155.981359 146.532818 
L 156.178358 146.652162 
L 156.375357 147.668914 
L 156.572357 144.191544 
L 156.769356 145.378305 
L 156.966355 142.244605 
L 157.163354 144.866762 
L 157.360353 149.216559 
L 157.557352 148.648849 
L 157.754351 144.686503 
L 157.95135 146.804203 
L 158.14835 144.66104 
L 158.345349 145.699577 
L 158.542348 145.179111 
L 158.14835 144.931064 
L 158.739347 144.898887 
L 159.330344 159.677786 
L 159.527343 156.706205 
L 159.724342 157.011962 
L 159.921342 160.01961 
L 160.118341 161.207668 
L 160.31534 160.444963 
L 160.709338 165.491542 
L 160.906337 171.966511 
L 161.103336 154.410869 
L 161.300335 157.643034 
L 161.497335 163.635004 
L 161.694334 163.635029 
L 161.891333 169.096481 
L 162.088332 156.937966 
L 162.285331 162.333115 
L 162.48233 164.507111 
L 162.285331 164.004345 
L 162.679329 163.968727 
L 162.876328 164.396028 
L 163.073327 165.891713 
L 163.270327 163.938566 
L 163.861324 163.98277 
L 164.058323 112.875499 
L 164.64932 141.847744 
L 165.043319 143.06671 
L 164.64932 139.264802 
L 165.240318 142.004672 
L 165.437317 141.625325 
L 165.634316 143.303934 
L 165.831315 150.26704 
L 166.028314 151.316285 
L 166.225313 160.427467 
L 166.422312 158.419619 
L 166.619312 158.284865 
L 166.816311 160.13191 
L 167.01331 159.195908 
L 167.210309 160.711928 
L 167.407308 160.391011 
L 167.604307 155.723261 
L 167.998305 159.326388 
L 168.392304 160.006931 
L 168.589303 151.067073 
L 168.786302 159.450966 
L 168.983301 156.468739 
L 169.1803 157.718198 
L 169.377299 161.09106 
L 169.574298 159.322911 
L 169.771297 162.316389 
L 169.968297 171.160479 
L 170.165296 171.647223 
L 170.559294 171.280903 
L 170.756293 171.220621 
L 170.953292 172.849902 
L 171.150291 173.350968 
L 171.34729 172.828226 
L 171.544289 173.05348 
L 171.741289 172.94051 
L 171.938288 153.960622 
L 172.332286 163.695183 
L 172.529285 161.90725 
L 172.726284 162.778233 
L 173.120282 162.77828 
L 173.317282 161.801045 
L 173.514281 163.728761 
L 173.908279 163.011092 
L 174.105278 165.117663 
L 174.499276 163.400536 
L 174.893274 163.897646 
L 175.090274 161.043684 
L 175.287273 167.908851 
L 175.484272 167.908967 
L 175.681271 163.682657 
L 175.87827 162.313112 
L 176.075269 162.674385 
L 175.87827 161.820275 
L 176.469267 161.69533 
L 176.666267 164.680995 
L 176.863266 162.50978 
L 177.060265 163.896969 
L 177.257264 161.774435 
L 177.454263 162.811706 
L 177.848261 161.303283 
L 178.04526 161.144287 
L 178.242259 159.093094 
L 178.439259 160.150729 
L 178.636258 162.171662 
L 179.030256 172.293545 
L 179.424254 172.294017 
L 179.621253 170.676593 
L 179.818252 171.466306 
L 180.015252 171.067006 
L 180.212251 169.102247 
L 180.40925 165.736479 
L 180.606249 155.618406 
L 180.803248 160.008119 
L 181.394245 151.432995 
L 181.591244 154.066226 
L 181.788244 152.699755 
L 181.985243 158.24589 
L 182.182242 156.0306 
L 182.379241 69.17229 
L 183.364237 125.661574 
L 184.152233 151.8233 
L 184.349232 152.082256 
L 185.137229 172.086902 
L 185.334228 170.234639 
L 185.728226 171.604989 
L 186.122224 172.431451 
L 186.319223 172.184002 
L 186.516222 160.860108 
L 186.713222 165.699114 
L 187.10722 169.754992 
L 187.501218 160.642687 
L 187.698217 162.312105 
L 187.895216 161.57096 
L 188.092215 161.937608 
L 188.289214 167.720417 
L 188.486214 167.657064 
L 188.683213 167.856525 
L 189.077211 164.919311 
L 189.27421 150.833855 
L 189.471209 158.943012 
L 189.668208 161.1417 
L 189.865207 157.466953 
L 190.062207 140.709448 
L 189.865207 147.301242 
L 190.259206 151.21096 
L 190.653204 162.996366 
L 190.850203 162.994475 
L 191.047202 157.048735 
L 191.244201 156.350571 
L 191.638199 171.984137 
L 191.835199 153.920861 
L 192.032198 160.71889 
L 192.229197 159.018213 
L 192.426196 159.851756 
L 193.017193 178.911342 
L 193.214192 181.100968 
L 193.411192 178.040588 
L 193.214192 179.742202 
L 193.608191 161.406269 
L 193.80519 164.11681 
L 194.002189 160.989534 
L 194.199188 160.412381 
L 194.396187 165.59617 
L 194.593186 166.800377 
L 194.790185 162.060182 
L 194.987184 161.377258 
L 195.184184 164.705144 
L 195.578182 161.955812 
L 195.775181 170.346037 
L 195.97218 169.714527 
L 196.169179 176.76849 
L 196.563177 148.12083 
L 196.957176 153.903139 
L 197.154175 151.835975 
L 197.351174 153.318466 
L 197.548173 139.742072 
L 197.745172 141.935799 
L 197.942171 151.282366 
L 198.13917 152.272999 
L 198.336169 149.451008 
L 198.533169 150.837837 
L 198.730168 153.489351 
L 198.927167 157.96941 
L 199.124166 151.648228 
L 199.321165 155.59576 
L 199.518164 153.510052 
L 199.715163 154.995526 
L 200.109162 166.686864 
L 200.306161 158.136514 
L 200.50316 161.156472 
L 200.700159 154.689885 
L 200.897158 158.451571 
L 201.291156 161.925828 
L 201.094157 159.370857 
L 201.488155 152.202335 
L 201.685154 153.975128 
L 201.882154 156.816852 
L 202.079153 153.774281 
L 202.276152 155.299821 
L 202.473151 151.345002 
L 202.67015 159.51746 
L 202.867149 159.233751 
L 203.064148 141.032767 
L 203.458147 151.069343 
L 203.655146 152.188097 
L 203.852145 149.414875 
L 204.049144 158.700357 
L 204.246143 153.041585 
L 204.443142 159.757723 
L 204.640141 128.815174 
L 205.231139 156.159267 
L 205.428138 145.973976 
L 205.625137 149.054242 
L 205.822136 154.021452 
L 206.019135 155.102128 
L 206.216134 142.72941 
L 206.019135 139.865439 
L 206.413133 144.199558 
L 206.807132 157.900663 
L 207.004131 152.293954 
L 207.20113 150.301828 
L 207.398129 153.395545 
L 207.595128 153.299917 
L 207.792127 157.250438 
L 207.989126 167.273878 
L 208.186125 161.406255 
L 208.580124 161.431169 
L 208.777123 160.245595 
L 208.974122 160.832284 
L 209.171121 152.590265 
L 209.36812 156.229481 
L 209.565119 163.331874 
L 209.762118 162.845869 
L 209.959117 159.606429 
L 210.156117 166.135236 
L 210.353116 162.565846 
L 210.550115 161.671982 
L 210.747114 161.671996 
L 210.944113 160.733297 
L 211.141112 164.312291 
L 211.338111 159.864178 
L 211.53511 159.733518 
L 211.732109 159.107632 
L 211.929109 165.529235 
L 212.126108 162.023227 
L 212.323107 161.022286 
L 212.520106 156.201839 
L 212.717105 161.768652 
L 213.111103 154.565077 
L 213.308102 158.65796 
L 213.505102 166.025879 
L 213.702101 167.887285 
L 213.8991 111.17532 
L 214.096099 131.697209 
L 214.490097 145.114372 
L 214.687096 145.253312 
L 214.884095 146.552406 
L 215.278094 155.636316 
L 215.475093 156.121236 
L 215.672092 155.311921 
L 215.869091 155.953687 
L 216.06609 155.389342 
L 216.263089 163.13041 
L 216.460088 164.331449 
L 216.657087 173.356343 
L 216.854086 175.386105 
L 217.051086 153.628155 
L 217.248085 160.99096 
L 217.445084 154.158015 
L 217.642083 153.890359 
L 217.839082 158.113428 
L 218.036081 151.599601 
L 218.23308 152.707151 
L 218.430079 149.616778 
L 218.627079 156.341761 
L 218.824078 155.291796 
L 219.021077 140.273997 
L 219.218076 151.902218 
L 219.415075 156.925815 
L 219.809073 150.948677 
L 220.006072 160.915727 
L 220.400071 137.696519 
L 220.59707 142.776832 
L 220.794069 123.312919 
L 220.991068 116.52375 
L 221.385066 138.906622 
L 221.779064 146.904692 
L 221.582065 143.752916 
L 221.976064 146.584894 
L 222.173063 146.803164 
L 222.370062 147.28985 
L 222.76406 159.851244 
L 222.961059 160.689827 
L 223.158058 160.363429 
L 223.355057 162.17094 
L 223.552056 170.219799 
L 223.749056 159.141827 
L 223.946055 157.25996 
L 224.143054 166.761951 
L 224.340053 162.035889 
L 224.537052 151.503062 
L 224.93105 158.47518 
L 224.734051 55.60042 
L 225.128049 67.427162 
L 225.916046 113.010305 
L 225.719047 113.635914 
L 226.704042 138.428001 
L 227.098041 134.148406 
L 227.29504 133.523036 
L 227.492039 134.269537 
L 227.689038 135.48575 
L 227.886037 146.248887 
L 228.083036 140.987195 
L 228.280035 150.517141 
L 228.477034 128.027527 
L 228.871033 140.634387 
L 229.068032 143.437947 
L 229.265031 138.92436 
L 229.46203 142.686743 
L 230.053027 145.956744 
L 230.447026 142.215516 
L 230.644025 147.792878 
L 230.841024 148.856217 
L 231.038023 140.977795 
L 231.432021 151.912346 
L 231.62902 151.91236 
L 231.826019 154.396228 
L 232.023019 163.941972 
L 232.220018 154.089593 
L 232.614016 152.776799 
L 232.811015 161.267343 
L 233.008014 161.811419 
L 233.205013 161.281729 
L 233.402012 149.605549 
L 233.599011 152.332208 
L 233.796011 150.915449 
L 233.99301 142.879771 
L 234.190009 144.536468 
L 234.387008 145.210461 
L 234.584007 155.288341 
L 234.781006 149.093091 
L 234.978005 123.964736 
L 235.175004 130.180486 
L 235.372004 145.435071 
L 235.569003 144.641533 
L 235.766002 145.033779 
L 235.963001 142.512148 
L 236.356999 144.678248 
L 236.553998 143.557253 
L 236.750997 152.972148 
L 236.947996 148.448218 
L 237.144996 152.004421 
L 237.341995 152.217409 
L 237.538994 121.954392 
L 237.341995 131.005105 
L 237.735993 137.865389 
L 237.932992 147.926957 
L 238.129991 147.710484 
L 238.32699 145.855018 
L 238.523989 148.494006 
L 238.720989 146.202703 
L 238.917988 155.929682 
L 239.114987 152.343346 
L 239.311986 154.062932 
L 239.508985 158.604428 
L 239.705984 150.405624 
L 239.902983 148.616287 
L 240.099982 150.419994 
L 240.296981 145.941791 
L 240.493981 155.511038 
L 239.902983 112.590251 
L 240.69098 122.718966 
L 240.887979 131.884169 
L 241.872974 145.83174 
L 242.069974 146.781184 
L 242.266973 151.600181 
L 242.463972 159.742323 
L 242.660971 155.736182 
L 243.251968 152.625838 
L 243.448967 143.400169 
L 243.645966 150.367527 
L 243.842966 149.397053 
L 244.039965 149.971587 
L 244.236964 148.750534 
L 244.433963 112.244877 
L 245.02496 147.331557 
L 245.221959 147.237294 
L 245.418959 149.641529 
L 245.615958 148.17123 
L 245.812957 147.649782 
L 246.009956 151.561937 
L 246.206955 151.227011 
L 246.403954 148.99875 
L 246.600953 150.223505 
L 246.797952 158.602756 
L 247.191951 147.532182 
L 247.38895 151.488183 
L 247.585949 150.722391 
L 247.979947 148.009457 
L 248.176946 156.908898 
L 248.373945 143.420661 
L 248.570944 141.65054 
L 248.964943 146.998635 
L 249.161942 138.168522 
L 249.358941 142.899948 
L 249.752939 147.224243 
L 249.949938 144.927826 
L 250.146937 119.57262 
L 250.343936 127.190823 
L 250.540936 113.832835 
L 250.737935 116.965377 
L 251.131933 133.517531 
L 251.328932 143.125198 
L 251.525931 142.075857 
L 251.72293 148.434542 
L 251.919929 149.893784 
L 252.116929 154.009427 
L 252.313928 150.470336 
L 252.510927 161.783088 
L 252.707926 160.418959 
L 253.298923 149.814598 
L 252.904925 149.774627 
L 253.692921 154.297322 
L 254.08692 142.174766 
L 254.283919 146.588166 
L 254.480918 143.447469 
L 254.677917 145.197336 
L 254.874916 145.487966 
L 255.071915 150.152848 
L 255.268914 147.663658 
L 255.465914 148.864373 
L 255.662913 148.255267 
L 255.859912 145.600894 
L 256.450909 157.102622 
L 256.647908 152.801398 
L 256.844907 156.196582 
L 257.041906 152.127782 
L 257.238906 154.229044 
L 257.435905 162.235449 
L 257.632904 152.216125 
L 258.026902 158.237668 
L 258.223901 155.990019 
L 258.4209 159.599035 
L 259.011898 154.534408 
L 259.208897 154.852786 
L 259.405896 153.239039 
L 259.602895 153.977782 
L 259.799894 147.830016 
L 259.996893 131.204606 
L 260.390891 142.288486 
L 260.587891 146.63014 
L 260.78489 154.0054 
L 260.981889 155.691352 
L 261.178888 152.446329 
L 260.981889 149.92747 
L 261.375887 150.745066 
L 261.572886 154.212528 
L 261.769885 151.972625 
L 262.163883 154.141315 
L 261.769885 148.125394 
L 262.360883 86.328931 
L 262.754881 109.43408 
L 263.148879 141.724426 
L 263.542877 146.30711 
L 263.739876 154.198684 
L 263.936876 155.302715 
L 263.542877 150.748178 
L 263.936876 150.364417 
L 264.133875 157.7962 
L 264.330874 155.064835 
L 264.527873 159.432121 
L 264.724872 154.076282 
L 264.921871 137.198848 
L 265.11887 143.680278 
L 265.315869 145.834228 
L 265.512868 151.93243 
L 265.709868 148.624736 
L 265.906867 153.05878 
L 266.103866 136.216062 
L 266.300865 145.062309 
L 266.497864 140.954103 
L 266.694863 141.875263 
L 267.088861 162.879247 
L 267.285861 158.2274 
L 267.48286 156.298288 
L 267.679859 152.237649 
L 267.876858 150.727898 
L 268.073857 159.403548 
L 268.270856 154.529379 
L 268.467855 153.205858 
L 268.664854 154.280743 
L 268.861853 153.735027 
L 269.058853 152.827579 
L 269.255852 152.827584 
L 269.452851 153.141636 
L 269.64985 139.798303 
L 269.846849 138.435445 
L 270.043848 144.350833 
L 270.240847 142.641973 
L 270.437846 148.029243 
L 271.028844 147.366654 
L 271.619841 153.562932 
L 271.81684 152.678122 
L 272.013839 153.109757 
L 272.210838 159.752097 
L 272.407838 156.76117 
L 272.604837 151.844227 
L 272.801836 160.318248 
L 272.998835 160.41757 
L 273.195834 166.869274 
L 273.392833 163.115042 
L 273.786831 162.964301 
L 273.983831 161.521154 
L 274.377829 162.336309 
L 274.574828 156.687942 
L 274.771827 156.452062 
L 274.968826 159.500519 
L 275.165825 156.955292 
L 275.362824 156.786154 
L 275.559823 154.473524 
L 275.953822 173.172144 
L 276.150821 157.968369 
L 275.953822 154.271105 
L 276.34782 151.679349 
L 276.544819 162.39936 
L 276.741818 153.677984 
L 276.938817 151.735674 
L 277.135816 152.657942 
L 277.332816 147.600519 
L 277.529815 149.849185 
L 277.726814 148.662657 
L 277.923813 152.149147 
L 278.120812 151.760543 
L 278.317811 148.04983 
L 278.51481 123.014246 
L 278.711809 128.583944 
L 278.908808 129.060452 
L 279.105808 140.062342 
L 279.302807 144.32567 
L 279.499806 143.571144 
L 279.696805 142.007512 
L 280.090803 158.254104 
L 280.287802 162.057887 
L 280.484801 153.374498 
L 280.681801 157.047292 
L 280.8788 151.696947 
L 281.075799 156.11545 
L 281.272798 154.69081 
L 281.469797 142.18411 
L 281.666796 147.943038 
L 281.469797 151.745043 
L 281.863795 152.085635 
L 282.060794 150.966856 
L 282.257793 153.139582 
L 282.454793 153.13961 
L 282.651792 161.836553 
L 282.848791 161.836559 
L 283.04579 157.793714 
L 283.242789 163.567547 
L 283.439788 155.772962 
L 283.636787 157.085335 
L 283.242789 155.545747 
L 284.030786 159.616248 
L 284.621783 152.381187 
L 285.21278 164.67163 
L 285.409779 163.523782 
L 285.606778 156.715093 
L 285.803778 145.212443 
L 286.197776 155.01943 
L 286.394775 150.678712 
L 286.591774 152.103499 
L 286.788773 137.077621 
L 286.985772 142.924786 
L 287.182771 143.466461 
L 286.591774 137.1065 
L 287.379771 135.275915 
L 287.57677 133.811945 
L 287.773769 141.712572 
L 287.970768 143.95841 
L 288.167767 147.683705 
L 288.364766 148.891515 
L 288.167767 154.568378 
L 288.561765 154.124648 
L 288.758764 153.422709 
L 288.955763 146.353951 
L 289.546761 159.712106 
L 289.74376 150.292671 
L 289.940759 156.064635 
L 290.137758 152.195893 
L 290.334757 133.643009 
L 290.728756 151.300515 
L 290.925755 151.182485 
L 291.122754 150.733654 
L 291.319753 139.565696 
L 291.713751 145.528286 
L 291.91075 132.611698 
L 292.304748 146.61148 
L 292.501748 146.81662 
L 292.698747 150.45652 
L 292.895746 151.375159 
L 293.092745 144.491129 
L 293.683742 148.678232 
L 293.880741 152.110076 
L 294.27474 166.935818 
L 294.668738 149.415031 
L 294.865737 156.244595 
L 295.062736 154.729698 
L 295.259735 158.193424 
L 295.456734 159.581488 
L 295.653733 136.634712 
L 295.850733 136.980616 
L 296.244731 147.10993 
L 296.44173 158.827111 
L 296.638729 155.340388 
L 296.835728 157.84284 
L 297.032727 154.928084 
L 297.229726 148.255188 
L 297.426726 155.918905 
L 297.820724 154.088636 
L 298.017723 149.748021 
L 298.411721 151.820989 
L 298.60872 151.483854 
L 299.199718 152.12388 
L 299.396717 151.928962 
L 299.593716 152.135801 
L 299.790715 152.129954 
L 299.987714 157.667092 
L 300.184713 154.678715 
L 300.381712 165.354056 
L 300.578711 143.066095 
L 300.775711 146.427617 
L 300.97271 152.96321 
L 301.169709 168.478993 
L 301.366708 157.126981 
L 301.563707 155.671521 
L 301.760706 146.651898 
L 301.957705 143.44897 
L 302.154704 154.998448 
L 302.351703 150.557485 
L 302.548703 151.083215 
L 302.745702 148.345552 
L 302.942701 151.994471 
L 303.336699 147.285171 
L 303.533698 146.991006 
L 303.730697 148.39593 
L 304.124695 147.696528 
L 304.321695 154.007578 
L 303.730697 150.417272 
L 304.518694 148.637986 
L 305.109691 142.952633 
L 305.30669 146.324156 
L 305.700688 142.35933 
L 305.897688 149.066756 
L 306.094687 148.263974 
L 306.291686 157.348437 
L 306.488685 151.916764 
L 306.882683 149.469192 
L 307.079682 147.238101 
L 307.276681 151.572688 
L 307.47368 149.872448 
L 307.67068 151.105582 
L 307.867679 153.64481 
L 308.064678 152.328888 
L 308.261677 161.881163 
L 308.064678 153.825338 
L 308.458676 160.649681 
L 308.655675 158.726324 
L 308.852674 153.81371 
L 309.049673 161.077833 
L 309.443672 153.618912 
L 309.640671 154.285629 
L 309.83767 152.829575 
L 310.034669 145.757035 
L 310.231668 143.09582 
L 310.428667 131.460323 
L 310.625666 87.285947 
L 311.413663 123.931276 
L 312.201659 146.478577 
L 312.398658 146.471882 
L 312.595658 149.16133 
L 312.792657 154.162168 
L 312.989656 162.555632 
L 313.383654 147.795046 
L 313.580653 148.582507 
L 313.777652 145.390426 
L 313.974651 146.913184 
L 314.17165 152.134208 
L 314.36865 149.328184 
L 314.565649 159.904526 
L 314.762648 160.775341 
L 314.959647 160.334501 
L 315.353645 160.334551 
L 315.550644 169.442447 
L 315.747643 162.110088 
L 315.944643 129.438342 
L 316.141642 55.549616 
L 317.717635 145.444259 
L 317.914634 146.824474 
L 318.70263 170.063111 
L 318.899629 165.532991 
L 318.70263 157.174643 
L 319.490627 160.506379 
L 319.687626 160.376369 
L 319.884625 160.54344 
L 320.278623 158.707694 
L 320.475622 159.000488 
L 320.672621 158.859345 
L 320.86962 158.897598 
L 321.06662 164.983391 
L 321.263619 161.614041 
L 321.460618 168.330541 
L 321.657617 166.577137 
L 321.854616 166.366325 
L 322.051615 166.471545 
L 322.248614 156.3436 
L 322.642613 164.302815 
L 322.839612 165.353444 
L 323.036611 150.765749 
L 323.23361 166.073497 
L 323.430609 154.626629 
L 323.627608 153.171782 
L 323.824607 153.754326 
L 324.218605 154.494069 
L 324.415605 155.609666 
L 324.612604 155.18813 
L 324.809603 164.217452 
L 325.006602 155.684684 
L 325.203601 155.39565 
L 325.4006 163.9585 
L 325.794598 163.923165 
L 325.991598 172.991002 
L 326.188597 165.738569 
L 326.385596 166.727494 
L 326.582595 165.307403 
L 326.779594 166.167142 
L 326.976593 145.190326 
L 327.173592 142.427354 
L 327.370591 150.513872 
L 327.56759 149.678751 
L 327.76459 157.153516 
L 327.961589 156.884754 
L 328.158588 165.608535 
L 328.355587 155.235913 
L 328.749585 172.962546 
L 328.946584 160.819089 
L 329.340583 167.388519 
L 329.537582 156.594617 
L 329.734581 119.332617 
L 329.93158 129.051414 
L 330.128579 116.841078 
L 330.719576 144.403608 
L 330.916575 151.578103 
L 331.113575 152.064092 
L 331.507573 157.365149 
L 331.901571 167.964445 
L 332.09857 167.964545 
L 332.295569 166.984167 
L 332.492568 162.259785 
L 332.689568 164.879001 
L 332.886567 164.879042 
L 333.083566 171.924055 
L 333.280565 172.71336 
L 333.477564 177.319496 
L 333.871562 178.028554 
L 334.068561 182.222282 
L 334.26556 189.860415 
L 334.46256 188.392209 
L 334.659559 176.846246 
L 334.856558 187.618827 
L 335.053557 164.200215 
L 335.447555 179.349098 
L 335.644554 107.400283 
L 336.235552 135.888229 
L 336.62955 145.381274 
L 337.220547 173.374483 
L 337.417546 175.139755 
L 337.614545 175.13977 
L 337.811545 178.964853 
L 338.008544 176.947221 
L 338.205543 180.981608 
L 338.402542 192.650352 
L 338.599541 183.751634 
L 338.79654 187.637026 
L 338.993539 161.022046 
L 339.584537 178.390895 
L 339.781536 176.360066 
L 339.978535 175.609085 
L 340.175534 167.191009 
L 340.372533 153.0233 
L 340.766531 174.947117 
L 340.96353 178.844534 
L 341.16053 190.611717 
L 341.357529 189.10569 
L 341.554528 189.180432 
L 341.751527 189.847281 
L 342.145525 186.117611 
L 342.342524 187.122174 
L 342.539523 183.686477 
L 342.933522 198.334951 
L 343.130521 195.132179 
L 343.32752 174.007002 
L 343.721518 186.097966 
L 343.918517 174.902424 
L 344.115516 179.504304 
L 344.312515 176.983724 
L 344.509515 156.564259 
L 345.100512 167.856354 
L 345.49451 182.563355 
L 345.691509 162.594932 
L 345.888508 163.294467 
L 346.085508 170.382674 
L 346.282507 168.072955 
L 346.479506 163.746658 
L 346.676505 167.740785 
L 346.873504 166.362848 
L 347.070503 163.889073 
L 347.464501 176.085092 
L 347.6615 155.981322 
L 348.055499 151.297667 
L 348.252498 153.482053 
L 348.449497 152.35555 
L 348.646496 152.913653 
L 349.040494 169.295725 
L 349.237493 164.479564 
L 349.434492 167.61555 
L 349.828491 189.644619 
L 350.02549 186.579106 
L 350.222489 198.11074 
L 350.419488 181.092088 
L 350.616487 187.319017 
L 350.813486 170.90135 
L 351.010485 174.699564 
L 351.207485 174.542211 
L 351.404484 174.602653 
L 351.601483 167.594928 
L 351.798482 170.74401 
L 351.995481 175.716851 
L 352.19248 156.015862 
L 352.586478 167.69287 
L 352.783477 166.801187 
L 352.980477 167.430594 
L 353.177476 161.330638 
L 353.374475 166.436568 
L 353.571474 163.696588 
L 353.768473 165.012588 
L 353.965472 163.029172 
L 354.162471 162.713491 
L 354.35947 162.182259 
L 354.55647 156.5374 
L 354.753469 159.271518 
L 354.950468 157.685287 
L 355.147467 163.061691 
L 355.344466 159.74487 
L 355.541465 161.324269 
L 355.738464 167.892734 
L 355.935463 178.44164 
L 356.132462 173.769535 
L 356.72346 179.258254 
L 356.920459 179.258445 
L 357.314457 175.526139 
L 357.511456 175.526198 
L 357.708455 180.731278 
L 357.905455 174.828591 
L 358.102454 176.680844 
L 358.496452 155.315298 
L 358.693451 157.269862 
L 358.89045 163.186383 
L 359.087449 159.977334 
L 359.284448 161.882758 
L 359.678447 176.247978 
L 359.875446 171.98424 
L 360.269444 189.390297 
L 360.466443 188.068003 
L 360.663442 188.716582 
L 360.860441 179.32029 
L 361.25444 194.768893 
L 361.451439 167.725793 
L 361.845437 182.664474 
L 362.042436 179.275715 
L 362.239435 180.531278 
L 362.633433 163.688947 
L 362.830432 163.855355 
L 363.027432 162.242991 
L 363.224431 164.116809 
L 363.42143 142.366976 
L 363.618429 134.918853 
L 363.815428 146.443166 
L 364.012427 149.385694 
L 364.209426 142.883624 
L 364.603425 149.689942 
L 364.800424 149.863768 
L 364.997423 143.81417 
L 365.194422 154.624548 
L 365.391421 156.383299 
L 365.58842 163.298154 
L 365.785419 161.294782 
L 365.982418 165.051568 
L 366.179417 165.016881 
L 366.376417 170.17371 
L 366.573416 178.880172 
L 366.770415 173.943634 
L 366.967414 173.943829 
L 367.361412 175.787742 
L 367.558411 175.787743 
L 367.75541 182.131663 
L 367.95241 178.575387 
L 368.149409 180.455175 
L 368.346408 166.38062 
L 368.543407 172.39789 
L 368.740406 169.129875 
L 368.937405 179.587179 
L 369.134404 166.404721 
L 369.331403 161.05076 
L 369.528402 168.955432 
L 369.725402 163.234336 
L 369.922401 165.196502 
L 370.1194 164.600031 
L 370.316399 163.255229 
L 370.513398 171.642872 
L 370.710397 173.044242 
L 370.907396 177.818256 
L 371.104395 151.902514 
L 371.301395 159.981992 
L 371.498394 161.885357 
L 371.695393 161.345484 
L 371.892392 161.281407 
L 372.089391 164.647029 
L 372.483389 151.328197 
L 372.877387 166.533327 
L 373.074387 162.372701 
L 373.271386 168.923377 
L 373.665384 166.013144 
L 373.862383 157.876543 
L 374.059382 156.341103 
L 374.256381 159.196681 
L 374.45338 170.653862 
L 374.65038 166.826536 
L 374.847379 167.671707 
L 375.044378 166.79277 
L 375.241377 170.596823 
L 375.438376 171.158704 
L 375.635375 159.988481 
L 375.832374 162.911471 
L 376.029373 155.47766 
L 376.226372 158.682599 
L 376.423372 165.79277 
L 376.620371 165.274709 
L 376.81737 167.71747 
L 377.014369 163.81003 
L 377.211368 169.840977 
L 377.408367 164.703676 
L 377.802365 171.584737 
L 377.999365 170.408199 
L 378.196364 170.986707 
L 378.393363 165.477636 
L 378.590362 174.286452 
L 378.787361 144.949561 
L 378.98436 144.041336 
L 379.378358 156.995964 
L 379.575357 166.689669 
L 379.772357 148.316305 
L 379.969356 154.396194 
L 380.166355 155.472558 
L 380.363354 154.926073 
L 380.560353 163.900357 
L 380.757352 159.705151 
L 380.954351 164.644099 
L 381.15135 161.999596 
L 381.34835 161.999666 
L 381.545349 163.271621 
L 381.742348 161.969903 
L 381.939347 163.201658 
L 382.136346 162.466888 
L 382.333345 141.557635 
L 382.530344 153.329167 
L 382.727343 155.050381 
L 382.924342 166.52323 
L 383.121342 164.922999 
L 383.318341 148.962063 
L 384.106337 170.603638 
L 384.303336 168.542167 
L 384.500335 161.070127 
L 384.697335 158.525875 
L 384.894334 167.062296 
L 385.091333 158.25037 
L 385.288332 160.551994 
L 385.485331 167.00754 
L 385.68233 163.406319 
L 386.076328 163.406325 
L 386.273327 169.81455 
L 386.470327 165.056268 
L 386.667326 157.025956 
L 386.864325 161.909611 
L 387.061324 159.296715 
L 387.455322 171.429897 
L 387.652321 176.783217 
L 387.84932 167.384415 
L 388.04632 175.355928 
L 388.440318 164.526487 
L 388.637317 164.526506 
L 389.031315 180.267843 
L 389.425313 171.509409 
L 389.622312 171.509435 
L 389.819312 164.469772 
L 390.21331 167.635243 
L 390.410309 165.159191 
L 390.607308 146.244554 
L 390.804307 148.149348 
L 391.001306 147.865952 
L 391.198305 148.051794 
L 391.395305 157.497461 
L 391.592304 156.309931 
L 391.986302 158.312476 
L 392.183301 156.666693 
L 392.3803 167.287588 
L 392.577299 161.215886 
L 392.774298 161.126165 
L 392.971297 163.935092 
L 393.365296 160.008856 
L 393.562295 93.897616 
L 393.956293 115.81572 
L 394.744289 131.999658 
L 394.941289 120.813309 
L 395.138288 85.295716 
L 395.532286 107.203844 
L 395.729285 104.004801 
L 395.926284 109.579455 
L 396.320282 128.777809 
L 396.714281 135.513617 
L 396.91128 140.894525 
L 397.108279 137.996457 
L 397.305278 139.336561 
L 397.699276 147.240868 
L 397.896275 156.052421 
L 398.093274 152.306651 
L 398.487273 153.642185 
L 398.487273 153.642185 
" style="fill:none;stroke:#1f77b4;stroke-linecap:square;stroke-width:1.5;"/>
   </g>
   <g id="line2d_15">
    <path clip-path="url(#pe8a3feac07)" d="M 73.832727 202.496883 
L 74.029726 201.674487 
L 73.832727 201.674487 
L 74.226726 201.674487 
L 74.423725 193.933821 
L 75.014722 193.933821 
L 75.211721 162.329306 
L 75.40872 161.397155 
L 75.211721 161.397155 
L 75.802718 161.397155 
L 75.999718 164.629493 
L 76.393716 197.471029 
L 76.590715 197.471029 
L 76.984713 193.783602 
L 77.378711 193.783602 
L 77.575711 201.227538 
L 77.77271 220.958613 
L 77.969709 220.958613 
L 78.166708 225.401688 
L 78.363707 225.401688 
L 78.757705 206.499766 
L 79.348703 206.499766 
L 79.545702 201.037553 
L 79.742701 211.269093 
L 79.9397 211.269093 
L 80.136699 216.048862 
L 80.333698 216.048862 
L 80.530697 224.206984 
L 80.924695 224.206984 
L 81.121695 214.363763 
L 81.318694 214.363763 
L 81.515693 212.021037 
L 81.712692 212.021037 
L 81.909691 219.597178 
L 82.10669 204.405632 
L 82.303689 220.321497 
L 82.697688 220.321497 
L 83.091686 187.823548 
L 83.288685 203.953156 
L 83.485684 186.771006 
L 83.682683 186.111211 
L 83.879682 186.771006 
L 84.076681 186.771006 
L 84.27368 204.071894 
L 84.47068 204.071894 
L 84.667679 218.57584 
L 84.864678 189.980838 
L 85.061677 189.980838 
L 85.258676 201.85172 
L 85.455675 201.968787 
L 85.849673 201.85172 
L 86.046673 189.771806 
L 86.440671 189.771806 
L 86.834669 203.811762 
L 87.031668 204.356922 
L 87.228667 204.356922 
L 87.425666 207.167186 
L 87.622665 206.561985 
L 88.016664 199.888287 
L 88.213663 198.970689 
L 88.410662 186.970894 
L 88.607661 183.508163 
L 88.80466 194.369214 
L 89.198658 176.129522 
L 89.395658 188.94329 
L 89.592657 188.94329 
L 89.789656 176.129522 
L 89.986655 173.354766 
L 90.183654 188.94329 
L 90.380653 173.354766 
L 90.577652 199.52566 
L 90.774651 199.52566 
L 90.97165 197.008101 
L 91.365649 197.008101 
L 91.562648 188.579743 
L 91.956646 202.908455 
L 92.153645 200.454284 
L 92.744643 200.454284 
L 92.941642 200.756353 
L 93.138641 200.756353 
L 93.33564 197.069052 
L 93.926637 197.069052 
L 94.123636 195.072135 
L 94.517635 195.072135 
L 94.714634 194.500249 
L 94.911633 201.787348 
L 95.305631 201.787348 
L 95.50263 180.833017 
L 95.699629 173.668313 
L 95.896628 173.380001 
L 96.487626 173.380001 
L 96.881624 198.772751 
L 97.078623 202.006773 
L 97.275622 202.466388 
L 97.66962 202.466388 
L 97.86662 186.74533 
L 98.063619 202.466388 
L 98.260618 204.839244 
L 98.457617 197.493594 
L 98.654616 197.493594 
L 98.851615 197.76727 
L 99.442613 197.76727 
L 99.836611 201.538884 
L 100.03361 205.758281 
L 100.230609 207.456699 
L 100.427608 207.456699 
L 100.230609 207.456699 
L 100.624607 240.857832 
L 100.427608 240.857832 
L 100.821606 211.794599 
L 101.018605 211.794599 
L 101.215605 199.05649 
L 101.412604 199.05649 
L 101.609603 198.3692 
L 101.806602 236.43368 
L 102.003601 203.953683 
L 102.397599 203.953683 
L 102.2006 203.953683 
L 102.594598 198.251805 
L 103.185596 198.251805 
L 103.382595 195.304213 
L 103.776593 181.153874 
L 103.973592 181.153874 
L 104.170591 187.557552 
L 104.36759 187.853837 
L 104.56459 189.590703 
L 104.761589 208.863565 
L 104.958588 209.632435 
L 105.155587 236.753219 
L 105.352586 236.753219 
L 105.549585 231.386327 
L 105.746584 192.411993 
L 106.337582 192.411993 
L 106.534581 193.074745 
L 106.73158 201.615878 
L 106.928579 203.844445 
L 107.125578 199.98261 
L 107.322577 199.98261 
L 107.519576 213.439815 
L 107.716575 215.078345 
L 108.110574 215.078345 
L 108.307573 220.669811 
L 108.504572 220.669811 
L 108.89857 257.617843 
L 109.095569 257.617843 
L 109.292568 239.575535 
L 109.489568 236.784005 
L 109.686567 228.852688 
L 110.080565 228.852688 
L 109.883566 199.16097 
L 110.277564 199.16097 
L 110.474563 193.737603 
L 110.868561 193.737603 
L 111.06556 222.862949 
L 111.26256 222.862949 
L 111.459559 235.11352 
L 111.656558 235.11352 
L 111.853557 231.418041 
L 112.050556 207.540389 
L 112.247555 216.88011 
L 113.035552 216.88011 
L 113.232551 197.298306 
L 113.626549 184.901873 
L 113.823548 189.94008 
L 114.020547 181.44349 
L 114.217546 181.44349 
L 114.414545 200.104815 
L 114.611545 199.07799 
L 114.808544 199.07799 
L 114.611545 183.831332 
L 115.005543 183.831332 
L 115.202542 177.468373 
L 115.399541 177.468373 
L 115.59654 195.596048 
L 115.793539 199.181032 
L 115.990538 243.11914 
L 116.187538 199.181032 
L 116.384537 199.181032 
L 116.581536 213.865239 
L 116.778535 203.412227 
L 116.975534 186.427979 
L 117.172533 184.015087 
L 117.369532 197.631524 
L 117.566531 184.015087 
L 117.76353 184.015087 
L 117.96053 197.631524 
L 118.157529 200.799289 
L 118.354528 201.237575 
L 118.551527 205.218432 
L 118.748526 244.767422 
L 118.945525 244.767422 
L 119.142524 248.824716 
L 119.339523 248.824716 
L 119.733522 212.403099 
L 119.930521 212.403099 
L 120.12752 207.665418 
L 120.324519 212.403099 
L 120.521518 240.474503 
L 120.718517 240.474503 
L 120.521518 240.474503 
L 121.112515 265.38019 
L 121.309515 265.38019 
L 121.506514 273.913455 
L 121.703513 266.270772 
L 122.491509 266.270772 
L 122.688508 264.499248 
L 122.885508 268.46145 
L 123.082507 268.46145 
L 123.279506 264.499248 
L 123.476505 268.46145 
L 123.673504 248.71568 
L 124.067502 248.71568 
L 124.264501 210.63388 
L 124.4615 210.63388 
L 124.6585 187.055691 
L 124.855499 200.916752 
L 125.052498 200.313356 
L 125.249497 200.313356 
L 125.446496 200.916752 
L 125.643495 200.916752 
L 125.840494 205.345341 
L 126.037493 195.304213 
L 126.234492 195.304213 
L 126.431492 205.345341 
L 126.628491 196.23153 
L 126.82549 214.345372 
L 127.022489 214.345372 
L 127.219488 196.23153 
L 127.416487 196.23153 
L 127.613486 195.304213 
L 127.810485 195.304213 
L 128.007485 196.440561 
L 127.613486 196.440561 
L 128.204484 180.596763 
L 128.598482 180.596763 
L 128.795481 173.780145 
L 128.99248 180.596763 
L 129.189479 173.780145 
L 129.386478 186.955153 
L 129.583477 243.821251 
L 129.780477 243.821251 
L 129.977476 199.386905 
L 130.568473 199.347527 
L 130.765472 208.378187 
L 130.962471 208.378187 
L 131.15947 220.191494 
L 131.35647 224.809574 
L 131.553469 290.857216 
L 131.750468 232.094468 
L 132.144466 232.094468 
L 132.538464 161.097646 
L 132.735463 190.761682 
L 132.932462 190.761682 
L 133.129462 149.373875 
L 133.326461 149.373875 
L 133.52346 184.17923 
L 133.720459 185.019657 
L 133.917458 251.15434 
L 134.114457 222.21919 
L 134.311456 253.070389 
L 134.508455 222.21919 
L 134.705455 261.138432 
L 134.902454 222.21919 
L 135.099453 261.138432 
L 135.296452 199.448296 
L 135.493451 232.888804 
L 135.887449 232.888804 
L 136.084448 202.286251 
L 136.281447 202.286251 
L 136.478447 180.781429 
L 136.675446 180.781429 
L 137.463442 260.215896 
L 137.660441 248.205226 
L 138.05444 248.107134 
L 138.251439 238.682579 
L 138.645437 238.682579 
L 138.842436 254.960053 
L 139.039435 254.960053 
L 139.236434 219.566277 
L 139.433433 223.403119 
L 139.630432 164.012847 
L 139.827432 164.012847 
L 140.024431 187.0107 
L 140.22143 223.403119 
L 140.418429 292.864179 
L 140.615428 262.086986 
L 140.812427 262.086986 
L 141.206425 212.055662 
L 141.403425 201.423107 
L 141.600424 201.423107 
L 141.797423 174.084824 
L 141.994422 174.084824 
L 142.585419 223.360611 
L 142.782418 227.120273 
L 143.373416 227.120273 
L 143.570415 218.419678 
L 143.767414 218.419678 
L 143.964413 256.139011 
L 144.161412 218.419678 
L 144.358411 256.139011 
L 144.75241 256.139011 
L 144.949409 253.278593 
L 145.343407 253.278593 
L 145.540406 247.784757 
L 145.737405 188.179322 
L 146.131403 188.179322 
L 146.328402 155.845444 
L 146.722401 155.845444 
L 146.9194 179.893399 
L 146.722401 183.055222 
L 147.116399 183.055222 
L 147.313398 179.893399 
L 147.510397 183.055222 
L 147.707396 183.055222 
L 146.9194 189.902996 
L 147.904395 199.414409 
L 148.101395 199.414409 
L 148.298394 199.593348 
L 148.495393 199.593348 
L 148.692392 194.330975 
L 148.889391 180.163189 
L 149.283389 180.163189 
L 149.480388 200.153667 
L 149.874387 218.973411 
L 150.071386 218.851103 
L 150.268385 199.931934 
L 151.056381 199.883156 
L 151.25338 191.60276 
L 151.647379 215.344488 
L 151.844378 203.313816 
L 152.238376 203.313816 
L 152.435375 211.575556 
L 152.632374 189.830702 
L 152.829373 211.575556 
L 153.223372 160.546511 
L 153.420371 160.546511 
L 153.61737 199.054839 
L 154.011368 199.054839 
L 154.208367 196.903488 
L 154.405366 179.568364 
L 154.602365 176.044853 
L 154.799365 170.126325 
L 154.996364 156.383106 
L 155.193363 152.994578 
L 155.390362 156.383106 
L 155.587361 179.568364 
L 155.78436 179.568364 
L 155.981359 168.40738 
L 156.178358 168.40738 
L 156.375357 173.035772 
L 156.572357 169.71302 
L 157.360353 169.71302 
L 157.557352 161.773551 
L 157.754351 188.926821 
L 157.95135 188.926821 
L 158.14835 192.642891 
L 158.345349 192.642891 
L 158.542348 178.432636 
L 158.14835 177.248038 
L 158.739347 164.676525 
L 159.133345 164.676525 
L 159.330344 167.701289 
L 159.527343 167.701289 
L 160.118341 182.096677 
L 160.31534 182.504367 
L 160.512339 184.860395 
L 160.709338 184.860395 
L 160.906337 189.122984 
L 161.103336 201.136448 
L 161.300335 201.136448 
L 161.497335 209.667473 
L 162.285331 174.726333 
L 162.48233 174.726333 
L 162.285331 174.726333 
L 162.679329 173.997335 
L 162.876328 173.997335 
L 163.073327 175.136768 
L 163.664325 175.136768 
L 163.861324 167.121617 
L 164.255322 167.121617 
L 164.452321 197.6037 
L 164.64932 208.320357 
L 164.84632 211.274816 
L 165.043319 208.320357 
L 164.64932 210.757888 
L 165.240318 208.320357 
L 165.437317 195.71895 
L 165.634316 192.840815 
L 165.831315 192.840815 
L 166.028314 183.512986 
L 166.225313 183.512986 
L 166.422312 178.504612 
L 166.816311 187.759282 
L 167.01331 187.759282 
L 167.210309 181.937121 
L 167.407308 183.780009 
L 167.604307 181.937121 
L 167.801306 183.780009 
L 167.998305 200.121083 
L 168.195305 203.498812 
L 168.392304 203.498812 
L 168.589303 203.05147 
L 168.786302 203.498812 
L 168.983301 176.685317 
L 169.377299 176.685317 
L 169.574298 164.488317 
L 169.771297 175.421012 
L 169.968297 194.775881 
L 170.165296 181.835812 
L 170.362295 181.835812 
L 170.559294 192.342257 
L 170.953292 192.342257 
L 171.150291 192.921297 
L 171.741289 192.921297 
L 171.938288 188.176973 
L 172.332286 165.025124 
L 172.726284 165.025124 
L 172.923283 166.515227 
L 173.317282 183.992318 
L 173.514281 183.992318 
L 173.71128 190.732945 
L 173.908279 183.992318 
L 174.105278 187.661424 
L 174.302277 187.390999 
L 174.696275 187.390999 
L 174.893274 187.661424 
L 175.090274 187.390999 
L 175.287273 195.60718 
L 175.484272 195.60718 
L 175.87827 167.908927 
L 176.075269 171.020189 
L 175.87827 171.020189 
L 176.272268 171.020189 
L 176.469267 194.257271 
L 176.666267 195.77327 
L 177.060265 195.77327 
L 177.257264 189.466897 
L 177.454263 187.254238 
L 177.651262 187.254238 
L 177.848261 189.260456 
L 178.04526 189.260456 
L 178.242259 200.058633 
L 178.439259 200.058633 
L 178.636258 198.946283 
L 178.833257 198.946283 
L 179.030256 191.897845 
L 179.227255 192.059902 
L 179.424254 192.059902 
L 179.621253 194.932101 
L 179.818252 202.377649 
L 180.015252 204.619215 
L 180.212251 204.619215 
L 180.40925 205.320562 
L 180.606249 209.829732 
L 180.803248 209.829732 
L 181.000247 221.793053 
L 181.197246 221.793053 
L 181.394245 190.099728 
L 181.591244 187.265944 
L 181.788244 182.595481 
L 181.985243 187.265944 
L 182.182242 180.977836 
L 182.379241 224.499497 
L 182.57624 217.03058 
L 182.773239 175.687267 
L 182.970238 177.164525 
L 183.167237 174.502106 
L 183.364237 168.825877 
L 184.152233 168.825877 
L 184.349232 177.883834 
L 184.940229 177.883834 
L 185.137229 179.396112 
L 185.334228 183.00732 
L 185.531227 183.00732 
L 185.728226 193.833465 
L 185.925225 193.833465 
L 186.122224 209.761775 
L 186.319223 193.833465 
L 186.516222 193.833465 
L 186.713222 177.753697 
L 186.910221 177.753697 
L 187.10722 176.951696 
L 187.304219 177.753697 
L 187.501218 185.622784 
L 187.698217 185.622784 
L 187.895216 176.951696 
L 188.092215 175.865547 
L 188.486214 175.865547 
L 188.683213 179.192775 
L 189.077211 179.192775 
L 189.471209 195.8468 
L 189.865207 195.8468 
L 190.062207 192.239313 
L 189.865207 190.749123 
L 190.259206 178.245237 
L 190.653204 173.761423 
L 190.850203 173.761423 
L 191.4412 179.493285 
L 191.638199 179.493285 
L 192.032198 184.313734 
L 192.229197 184.85242 
L 192.426196 184.85242 
L 192.623195 189.979687 
L 192.820194 190.555835 
L 193.411192 209.378272 
L 193.214192 211.341934 
L 193.608191 211.341934 
L 193.80519 207.592087 
L 194.002189 180.796637 
L 194.199188 180.776407 
L 194.396187 179.910777 
L 194.593186 179.910777 
L 194.790185 178.69688 
L 194.987184 171.071322 
L 195.184184 178.488074 
L 195.381183 171.071322 
L 195.578182 171.071322 
L 195.775181 178.488074 
L 195.97218 180.075319 
L 196.169179 186.653905 
L 196.563177 186.653905 
L 196.957176 179.458298 
L 197.548173 179.458298 
L 197.745172 181.463755 
L 198.533169 181.463755 
L 198.730168 180.085614 
L 198.927167 180.578684 
L 199.124166 180.578684 
L 199.321165 186.734221 
L 199.518164 180.578684 
L 199.715163 181.928121 
L 200.109162 205.214344 
L 200.306161 181.928121 
L 200.50316 205.214344 
L 200.700159 213.965756 
L 201.094157 213.922551 
L 201.291156 190.736043 
L 201.094157 190.736043 
L 201.488155 185.195236 
L 201.685154 185.195236 
L 201.882154 166.591579 
L 202.276152 166.591579 
L 202.67015 174.56414 
L 202.867149 176.214487 
L 203.064148 179.545385 
L 203.261147 194.493264 
L 203.458147 194.493264 
L 203.655146 179.545385 
L 203.852145 185.327844 
L 204.246143 185.327844 
L 204.443142 207.910651 
L 204.640141 209.989006 
L 205.034139 209.989006 
L 205.231139 209.283788 
L 205.428138 184.710726 
L 205.625137 208.262138 
L 205.822136 208.262138 
L 206.019135 202.691756 
L 206.216134 202.691756 
L 206.019135 200.429732 
L 206.413133 195.571285 
L 206.610132 195.571285 
L 206.807132 194.882731 
L 207.004131 194.882731 
L 207.20113 176.561018 
L 207.595128 203.496751 
L 207.792127 203.496751 
L 207.989126 203.274447 
L 208.186125 203.274447 
L 208.580124 181.810727 
L 208.974122 181.810727 
L 209.171121 174.134256 
L 209.36812 174.134256 
L 209.565119 181.867216 
L 209.762118 182.138624 
L 209.959117 181.867216 
L 210.353116 181.867216 
L 210.550115 185.865471 
L 210.747114 180.485843 
L 210.944113 180.485843 
L 211.141112 178.628211 
L 211.338111 178.628211 
L 211.53511 171.714075 
L 211.732109 168.825877 
L 211.929109 168.458851 
L 212.323107 168.458851 
L 212.717105 177.473252 
L 212.914104 178.842541 
L 213.111103 177.473252 
L 213.308102 178.842541 
L 213.505102 178.842541 
L 213.702101 187.209564 
L 213.8991 187.831631 
L 214.293098 207.936589 
L 214.490097 207.936589 
L 214.687096 181.046139 
L 214.884095 174.543872 
L 215.081094 174.543872 
L 215.278094 180.21173 
L 215.081094 180.21173 
L 215.672092 180.21173 
L 215.869091 188.548326 
L 216.06609 179.434719 
L 216.263089 179.434719 
L 216.460088 182.621751 
L 216.657087 188.548326 
L 216.854086 189.129865 
L 217.051086 189.129865 
L 217.248085 182.621751 
L 217.445084 189.129865 
L 217.642083 180.153163 
L 218.627079 180.254429 
L 218.824078 175.427138 
L 219.218076 186.684617 
L 219.415075 174.653013 
L 219.612074 184.546205 
L 219.809073 175.576957 
L 220.006072 175.576957 
L 220.203071 188.318238 
L 220.400071 188.318238 
L 220.59707 194.46465 
L 220.794069 194.46465 
L 220.991068 177.632185 
L 221.188067 175.426943 
L 221.385066 177.632185 
L 221.582065 175.426943 
L 221.779064 175.426943 
L 221.582065 175.426943 
L 221.976064 164.960948 
L 222.173063 163.986469 
L 222.567061 163.986469 
L 222.961059 180.205956 
L 223.158058 183.559977 
L 223.355057 196.399507 
L 223.552056 196.399507 
L 223.749056 190.944969 
L 223.946055 190.110851 
L 224.143054 190.944969 
L 224.537052 190.858581 
L 224.734051 176.069331 
L 224.93105 189.081741 
L 224.734051 189.081741 
L 225.128049 178.329482 
L 225.325049 178.329482 
L 225.522048 179.617949 
L 225.916046 179.617949 
L 225.719047 195.846657 
L 226.310044 195.846657 
L 226.507043 175.370877 
L 226.704042 175.370877 
L 226.901041 174.23383 
L 227.098041 175.370877 
L 227.29504 174.23383 
L 227.689038 174.23383 
L 227.886037 182.318873 
L 228.083036 148.41788 
L 228.280035 182.318873 
L 228.477034 182.318873 
L 228.674034 167.092935 
L 229.068032 167.092935 
L 229.265031 151.988978 
L 229.46203 160.126955 
L 229.856028 160.126955 
L 230.053027 176.79817 
L 230.250026 176.79817 
L 230.447026 183.506011 
L 230.841024 176.79817 
L 231.038023 175.525409 
L 231.235022 175.525409 
L 231.432021 174.429315 
L 231.62902 167.410777 
L 231.826019 174.429315 
L 232.023019 175.484999 
L 232.220018 180.075319 
L 232.417017 209.745933 
L 232.811015 209.745933 
L 233.008014 220.301443 
L 233.205013 198.858362 
L 233.599011 198.858362 
L 233.796011 178.632049 
L 233.99301 176.452848 
L 234.584007 175.316983 
L 234.781006 176.017557 
L 234.978005 209.265448 
L 235.175004 209.265448 
L 235.372004 209.619025 
L 235.569003 166.901362 
L 235.766002 166.901362 
L 235.963001 168.7732 
L 236.356999 168.7732 
L 236.553998 170.854743 
L 236.750997 170.854743 
L 236.947996 175.067692 
L 237.144996 170.854743 
L 237.341995 170.854743 
L 237.538994 175.067692 
L 237.341995 187.71583 
L 237.735993 170.052462 
L 237.932992 191.54128 
L 238.129991 191.54128 
L 238.523989 165.137648 
L 238.720989 175.050652 
L 238.917988 175.050652 
L 239.114987 165.137648 
L 239.311986 167.658123 
L 239.508985 173.700806 
L 239.902983 173.700806 
L 240.099982 180.039206 
L 240.296981 180.039206 
L 240.493981 184.623153 
L 239.902983 184.623153 
L 240.69098 184.623153 
L 240.887979 171.20803 
L 241.084978 197.913641 
L 241.281977 175.016817 
L 241.478976 171.20803 
L 241.675975 175.016817 
L 242.069974 175.016817 
L 242.266973 169.606598 
L 242.463972 179.623358 
L 242.660971 180.900287 
L 242.85797 181.444373 
L 243.054969 232.429401 
L 243.251968 232.429401 
L 243.448967 286.605468 
L 243.645966 176.39957 
L 243.842966 176.39957 
L 244.039965 204.165373 
L 244.236964 176.39957 
L 244.433963 199.834828 
L 244.630962 199.834828 
L 244.827961 178.842949 
L 245.02496 180.079739 
L 245.221959 178.842949 
L 245.418959 178.842949 
L 245.812957 177.828037 
L 246.009956 163.303744 
L 246.206955 177.828037 
L 246.403954 164.023374 
L 246.600953 164.023374 
L 246.797952 166.311397 
L 247.191951 184.333209 
L 247.585949 184.333209 
L 247.782948 180.601121 
L 247.979947 158.600823 
L 248.176946 158.600823 
L 248.373945 180.601121 
L 248.570944 166.786188 
L 248.767944 181.952536 
L 248.964943 181.952536 
L 249.161942 174.208501 
L 249.752939 174.208501 
L 249.949938 173.700806 
L 250.146937 178.412519 
L 250.343936 178.594123 
L 250.540936 173.700806 
L 250.737935 179.999053 
L 250.934934 163.70563 
L 251.131933 164.023374 
L 251.328932 174.684178 
L 251.525931 164.023374 
L 251.72293 174.684178 
L 251.919929 174.684178 
L 252.116929 173.761102 
L 252.313928 166.867012 
L 252.510927 173.761102 
L 252.904925 173.761102 
L 253.101924 179.962974 
L 253.298923 180.075319 
L 252.904925 179.962974 
L 253.495922 178.468421 
L 253.692921 180.075319 
L 254.08692 197.11917 
L 254.480918 197.11917 
L 254.677917 166.452375 
L 255.268914 166.452375 
L 255.465914 175.091428 
L 255.662913 175.091428 
L 255.859912 163.046198 
L 256.056911 163.046198 
L 256.25391 163.659759 
L 256.647908 163.659759 
L 256.844907 168.002414 
L 257.041906 168.002414 
L 257.238906 156.620089 
L 257.632904 184.145168 
L 257.829903 184.145168 
L 258.026902 189.33103 
L 258.223901 169.270687 
L 258.4209 169.270687 
L 258.617899 178.618 
L 259.011898 178.618 
L 259.405896 237.177105 
L 259.996893 237.177105 
L 260.193892 171.942047 
L 259.996893 171.942047 
L 260.390891 173.190695 
L 260.78489 173.190695 
L 260.981889 180.933581 
L 261.178888 178.835665 
L 260.981889 178.835665 
L 261.375887 178.835665 
L 261.572886 173.096056 
L 261.966884 173.096056 
L 262.163883 177.874062 
L 261.769885 180.828012 
L 262.360883 222.214365 
L 262.557882 199.970087 
L 262.754881 199.970087 
L 262.95188 177.096749 
L 263.148879 190.732159 
L 263.542877 190.732159 
L 263.739876 193.605532 
L 263.936876 190.732159 
L 263.542877 193.605532 
L 263.936876 175.428052 
L 264.133875 180.235175 
L 264.330874 175.428052 
L 264.527873 180.235175 
L 264.724872 174.327952 
L 264.921871 177.729781 
L 265.11887 174.327952 
L 265.512868 174.327952 
L 265.709868 176.239117 
L 265.906867 176.239117 
L 266.103866 180.289526 
L 266.300865 180.289526 
L 266.497864 185.819706 
L 266.694863 185.819706 
L 266.891862 180.075319 
L 267.285861 191.830705 
L 267.48286 180.075319 
L 267.679859 196.748811 
L 267.876858 196.748811 
L 268.073857 183.961161 
L 268.467855 183.961161 
L 268.664854 183.171443 
L 268.861853 183.961161 
L 269.058853 187.109964 
L 269.64985 187.109964 
L 269.846849 242.784161 
L 270.043848 242.784161 
L 270.240847 174.616576 
L 270.437846 170.512097 
L 270.634846 170.512097 
L 270.831845 168.789894 
L 271.028844 168.789894 
L 271.422842 175.438606 
L 271.619841 175.438606 
L 271.81684 176.376483 
L 272.013839 179.886844 
L 272.210838 283.729785 
L 272.407838 283.729785 
L 272.998835 182.302324 
L 273.195834 194.28025 
L 273.392833 182.302324 
L 273.589832 197.266771 
L 273.786831 295.488 
L 273.983831 295.488 
L 274.18083 206.208594 
L 274.377829 175.541989 
L 274.771827 175.541989 
L 274.968826 178.48618 
L 275.559823 178.48618 
L 275.953822 187.408416 
L 276.150821 184.467116 
L 275.953822 184.467116 
L 276.34782 184.467116 
L 276.544819 195.750746 
L 276.741818 180.144069 
L 276.938817 180.075319 
L 277.135816 177.920631 
L 277.726814 177.920631 
L 277.923813 180.075319 
L 278.120812 183.98219 
L 278.317811 184.37521 
L 278.51481 249.89248 
L 278.711809 249.89248 
L 278.908808 211.520985 
L 279.105808 284.202626 
L 279.302807 211.520985 
L 279.499806 183.070589 
L 279.696805 171.044133 
L 279.893804 183.070589 
L 280.090803 183.070589 
L 280.484801 184.293334 
L 280.681801 184.318659 
L 280.8788 186.750346 
L 281.469797 186.750346 
L 281.666796 165.170238 
L 281.469797 164.023374 
L 281.863795 165.170238 
L 282.060794 179.998427 
L 283.04579 180.075319 
L 283.242789 187.942243 
L 283.833786 187.942243 
L 283.242789 214.112867 
L 284.030786 182.939573 
L 284.227785 260.586739 
L 284.424784 251.037102 
L 284.621783 225.920762 
L 285.015781 225.920762 
L 285.21278 205.669893 
L 285.409779 205.669893 
L 285.606778 186.142482 
L 285.803778 186.142482 
L 286.000777 184.022211 
L 286.197776 187.60865 
L 286.394775 187.60865 
L 286.591774 184.022654 
L 286.788773 187.60865 
L 286.985772 184.022654 
L 287.182771 184.022654 
L 286.591774 173.432067 
L 287.379771 184.929934 
L 287.773769 184.929934 
L 287.970768 175.572857 
L 288.364766 175.572857 
L 288.167767 175.572857 
L 288.364766 180.447433 
L 288.561765 180.447433 
L 288.955763 251.709377 
L 289.152763 251.709377 
L 289.349762 226.230087 
L 289.546761 226.230087 
L 289.74376 184.55662 
L 290.137758 163.659759 
L 290.334757 163.659759 
L 290.531756 172.129729 
L 290.728756 175.462532 
L 290.925755 183.728586 
L 291.122754 198.232006 
L 291.319753 242.189068 
L 291.516752 198.232006 
L 291.713751 198.232006 
L 291.91075 163.70563 
L 292.107749 163.70563 
L 292.304748 163.969172 
L 292.501748 165.767759 
L 292.698747 183.771154 
L 292.895746 183.771154 
L 293.092745 185.757893 
L 293.289744 190.450808 
L 293.683742 190.450808 
L 293.880741 165.074589 
L 294.077741 165.074589 
L 294.27474 173.700806 
L 294.471739 173.700806 
L 294.27474 215.961659 
L 294.668738 215.961659 
L 294.865737 200.489546 
L 295.259735 189.674597 
L 295.456734 178.211039 
L 295.653733 178.211039 
L 295.850733 180.235175 
L 296.047732 180.683806 
L 296.244731 219.062464 
L 296.44173 216.471889 
L 296.638729 180.683806 
L 296.835728 180.683806 
L 297.032727 172.801289 
L 297.229726 172.801289 
L 297.426726 180.075319 
L 297.623725 219.305223 
L 297.820724 219.305223 
L 298.017723 180.075319 
L 298.411721 180.063138 
L 298.60872 171.627416 
L 298.805719 180.063138 
L 299.002718 183.381628 
L 299.199718 178.703337 
L 299.396717 178.703337 
L 299.593716 174.889112 
L 299.987714 174.889112 
L 300.184713 174.11933 
L 300.381712 182.803475 
L 300.578711 212.947548 
L 300.775711 188.778757 
L 300.97271 188.778757 
L 301.169709 180.14652 
L 301.366708 180.075319 
L 301.563707 179.580915 
L 301.760706 288.230588 
L 301.957705 173.79766 
L 302.154704 173.79766 
L 302.351703 183.605204 
L 302.548703 256.710778 
L 302.745702 256.710778 
L 303.1397 160.858273 
L 303.336699 160.858273 
L 303.730697 180.910369 
L 303.927696 228.069158 
L 304.124695 184.494056 
L 304.321695 184.494056 
L 303.730697 180.910369 
L 304.518694 180.007355 
L 304.912692 180.007355 
L 305.109691 175.880083 
L 305.30669 207.163775 
L 305.503689 175.446273 
L 305.700688 168.062512 
L 305.897688 175.446273 
L 306.291686 175.508168 
L 306.685684 175.508168 
L 306.882683 279.631778 
L 307.079682 191.60276 
L 307.276681 294.650882 
L 307.47368 282.148745 
L 307.67068 191.60276 
L 307.867679 184.560767 
L 308.064678 181.520586 
L 308.261677 184.560767 
L 308.064678 184.560767 
L 308.458676 201.000966 
L 308.852674 201.000966 
L 309.049673 190.907633 
L 309.246673 190.907633 
L 309.443672 173.580426 
L 309.640671 170.791711 
L 309.83767 170.791711 
L 310.034669 164.023374 
L 310.231668 161.581123 
L 310.428667 170.791711 
L 310.625666 159.469121 
L 310.822665 159.469121 
L 311.019665 160.686704 
L 311.216664 156.620089 
L 311.413663 156.620089 
L 311.610662 157.651943 
L 311.807661 159.51352 
L 312.00466 159.51352 
L 312.201659 178.816588 
L 312.398658 179.216284 
L 312.595658 180.235175 
L 312.792657 179.216284 
L 313.186655 179.216284 
L 313.383654 181.776201 
L 313.580653 178.657193 
L 313.777652 181.776201 
L 313.974651 177.333886 
L 314.17165 181.776201 
L 314.36865 191.60276 
L 315.156646 191.60276 
L 315.353645 181.119083 
L 315.550644 181.119083 
L 315.747643 192.732276 
L 315.944643 192.732276 
L 316.141642 192.876695 
L 316.338641 192.876695 
L 316.53564 191.42107 
L 316.732639 185.858857 
L 317.126637 185.858857 
L 317.323636 186.526716 
L 317.717635 191.515514 
L 317.914634 189.451792 
L 318.111633 189.451792 
L 318.308632 186.882061 
L 318.70263 186.882061 
L 318.899629 195.038718 
L 318.70263 202.413145 
L 318.899629 202.413145 
L 319.096628 204.641017 
L 319.884625 165.070644 
L 320.081624 165.070644 
L 320.278623 180.977692 
L 320.475622 182.878495 
L 321.263619 182.878495 
L 321.460618 207.76405 
L 321.854616 207.76405 
L 322.051615 178.1001 
L 322.248614 177.242209 
L 322.445613 177.242209 
L 322.642613 214.586087 
L 322.839612 214.586087 
L 323.036611 199.844698 
L 323.23361 203.310619 
L 323.430609 203.310619 
L 323.627608 213.015302 
L 323.824607 213.72675 
L 324.021606 227.237072 
L 324.218605 184.004163 
L 324.612604 184.004163 
L 324.809603 184.1282 
L 325.203601 182.833036 
L 325.4006 184.1282 
L 325.597599 179.39293 
L 325.991598 179.399443 
L 326.188597 200.9527 
L 326.385596 200.9527 
L 326.582595 210.571048 
L 326.779594 207.272266 
L 327.370591 207.272266 
L 327.56759 206.681144 
L 327.76459 206.681144 
L 327.961589 191.694078 
L 328.355587 191.654304 
L 328.552586 189.174911 
L 328.749585 189.174911 
L 328.946584 207.818201 
L 329.143583 207.818201 
L 329.340583 208.45021 
L 329.537582 211.922701 
L 329.734581 211.922701 
L 329.93158 215.90109 
L 330.128579 215.90109 
L 330.325578 213.339874 
L 330.522577 206.686541 
L 330.719576 203.914303 
L 330.916575 203.914303 
L 331.113575 205.087018 
L 331.310574 205.087018 
L 331.507573 203.903025 
L 331.704572 178.223271 
L 332.09857 178.223271 
L 332.295569 185.957393 
L 332.492568 185.957393 
L 332.886567 196.672137 
L 333.083566 198.226209 
L 333.280565 206.726993 
L 333.477564 208.563461 
L 333.674563 221.614836 
L 333.871562 221.614836 
L 334.068561 295.488 
L 334.26556 220.102351 
L 334.46256 218.962594 
L 334.659559 218.962594 
L 334.856558 215.754924 
L 335.053557 216.473701 
L 335.250556 227.191878 
L 335.447555 226.890737 
L 335.644554 227.191878 
L 335.841553 226.890737 
L 336.038553 220.448731 
L 336.235552 195.320038 
L 336.432551 220.448731 
L 336.62955 203.665451 
L 336.826549 204.641017 
L 337.417546 204.641017 
L 337.614545 191.712645 
L 338.008544 191.712645 
L 338.205543 217.936063 
L 338.402542 219.678078 
L 338.599541 219.904183 
L 338.79654 224.936823 
L 338.993539 224.936823 
L 339.190538 216.222068 
L 339.781536 216.222068 
L 340.175534 221.437827 
L 340.372533 224.410667 
L 340.569532 266.496962 
L 340.766531 266.496962 
L 340.96353 250.91637 
L 341.16053 282.403812 
L 341.357529 259.264776 
L 341.554528 250.91637 
L 341.948526 190.5933 
L 342.145525 189.379099 
L 342.342524 189.379099 
L 342.539523 188.179869 
L 342.736523 188.179869 
L 343.130521 240.515788 
L 343.32752 217.162032 
L 343.524519 217.162032 
L 343.721518 194.449579 
L 343.918517 192.31891 
L 344.115516 192.31891 
L 344.312515 194.449579 
L 344.509515 211.784222 
L 344.706514 251.163314 
L 345.100512 251.163314 
L 345.297511 210.085117 
L 345.49451 210.085117 
L 345.691509 216.580436 
L 346.085508 216.580436 
L 346.282507 182.563388 
L 346.676505 182.563388 
L 346.873504 179.212587 
L 347.267502 179.212587 
L 347.464501 208.931903 
L 347.6615 213.408679 
L 348.252498 213.408679 
L 348.449497 209.42351 
L 348.646496 178.461291 
L 348.843495 178.461291 
L 349.040494 195.641539 
L 349.237493 195.641539 
L 349.434492 205.927352 
L 349.631492 207.879628 
L 349.828491 213.948252 
L 350.02549 214.730228 
L 350.222489 222.648484 
L 350.419488 222.648484 
L 350.813486 264.486303 
L 351.010485 285.466799 
L 351.207485 285.466799 
L 351.404484 264.486303 
L 351.601483 264.486303 
L 351.798482 189.765718 
L 351.995481 180.075319 
L 352.19248 180.272169 
L 352.389479 180.272169 
L 352.586478 189.684277 
L 352.783477 210.134562 
L 352.980477 210.134562 
L 353.177476 204.963122 
L 353.374475 188.297487 
L 353.768473 188.297487 
L 353.965472 185.931343 
L 354.35947 221.365647 
L 354.753469 233.696355 
L 354.950468 226.6607 
L 355.147467 225.95476 
L 355.541465 184.01446 
L 355.738464 184.269788 
L 356.132462 184.269788 
L 356.72346 237.588027 
L 357.511456 237.588027 
L 357.708455 215.2054 
L 357.905455 215.2054 
L 358.102454 191.965099 
L 358.299453 191.965099 
L 358.496452 215.2054 
L 358.89045 231.681008 
L 359.087449 231.681008 
L 359.284448 224.540486 
L 359.481447 224.540486 
L 359.678447 207.139972 
L 359.875446 207.139972 
L 360.072445 213.792884 
L 360.269444 224.540486 
L 360.466443 213.792884 
L 360.663442 232.088874 
L 361.05744 204.510475 
L 361.25444 204.510475 
L 361.451439 212.452386 
L 361.648438 204.510475 
L 361.845437 212.452386 
L 362.042436 214.907227 
L 362.239435 232.258901 
L 362.436434 232.258901 
L 362.633433 248.058456 
L 363.027432 211.717816 
L 363.224431 214.439774 
L 363.42143 188.448582 
L 363.618429 188.307186 
L 363.815428 214.439774 
L 364.012427 199.963776 
L 364.406425 199.963776 
L 364.603425 231.512997 
L 364.800424 231.512997 
L 364.997423 213.877728 
L 365.194422 234.405157 
L 365.391421 213.877728 
L 365.58842 213.877728 
L 365.785419 214.094833 
L 365.982418 213.946425 
L 366.179417 213.946425 
L 366.376417 199.395083 
L 366.573416 197.277581 
L 366.967414 197.277581 
L 367.164413 250.096194 
L 367.558411 250.096194 
L 367.75541 215.671551 
L 368.346408 215.671551 
L 368.543407 229.793331 
L 368.740406 191.295463 
L 369.331403 191.379119 
L 369.528402 216.329146 
L 369.725402 216.329146 
L 369.922401 219.016329 
L 370.316399 208.129192 
L 370.513398 189.577071 
L 370.907396 189.577071 
L 371.301395 222.362723 
L 371.498394 222.362723 
L 371.695393 220.355999 
L 371.892392 220.355999 
L 372.28639 201.72521 
L 372.483389 201.72521 
L 372.680388 179.568364 
L 372.877387 183.14824 
L 373.074387 183.14824 
L 373.271386 179.568364 
L 373.468385 183.14824 
L 373.665384 201.472149 
L 373.862383 201.472149 
L 374.059382 179.568364 
L 374.256381 217.843006 
L 374.45338 188.990424 
L 374.847379 199.941824 
L 375.044378 199.941824 
L 375.241377 219.447842 
L 375.635375 219.447842 
L 375.832374 197.968463 
L 376.226372 197.968463 
L 376.423372 201.1306 
L 376.620371 212.489403 
L 377.014369 212.489403 
L 377.211368 208.678299 
L 377.408367 208.678299 
L 377.605366 215.303083 
L 377.802365 215.303083 
L 377.999365 216.68076 
L 378.196364 216.68076 
L 378.393363 213.697174 
L 378.590362 216.68076 
L 378.787361 281.395062 
L 379.378358 281.395062 
L 379.575357 205.111576 
L 379.772357 172.168208 
L 379.969356 172.168208 
L 380.166355 173.79546 
L 380.363354 173.79546 
L 380.560353 217.101082 
L 380.757352 217.101082 
L 380.954351 230.757705 
L 381.15135 265.26306 
L 381.34835 230.757705 
L 381.545349 224.376877 
L 381.742348 224.376877 
L 381.939347 221.056082 
L 382.136346 221.056082 
L 382.333345 210.203765 
L 382.530344 210.203765 
L 382.924342 223.109002 
L 383.318341 223.109002 
L 383.51534 181.911689 
L 383.909338 181.911689 
L 384.106337 188.649678 
L 384.303336 188.649678 
L 384.500335 184.161489 
L 384.697335 175.497749 
L 385.288332 175.497749 
L 385.68233 185.6137 
L 386.076328 173.42743 
L 386.470327 192.50991 
L 386.864325 192.50991 
L 387.061324 179.788344 
L 387.455322 179.757548 
L 387.84932 188.542844 
L 388.04632 207.741379 
L 388.243319 207.741379 
L 388.637317 179.973096 
L 388.834316 179.973096 
L 389.031315 190.206825 
L 389.228314 190.206825 
L 389.425313 177.41226 
L 389.819312 177.41226 
L 390.016311 179.568364 
L 390.410309 181.185569 
L 390.607308 199.548443 
L 390.804307 199.548443 
L 391.001306 199.211967 
L 391.198305 199.548443 
L 391.395305 199.211967 
L 391.592304 199.211967 
L 391.789303 198.891008 
L 391.986302 199.580869 
L 392.183301 205.791577 
L 392.3803 205.791577 
L 392.577299 199.837058 
L 392.774298 199.414305 
L 393.365296 199.414305 
L 393.562295 205.764271 
L 393.759294 222.745196 
L 393.956293 225.41789 
L 394.350291 225.41789 
L 394.54729 244.058343 
L 394.744289 279.326808 
L 394.941289 279.326808 
L 395.138288 261.439069 
L 395.335287 232.62661 
L 395.532286 232.62661 
L 395.729285 221.555262 
L 395.926284 260.393714 
L 396.123283 260.393714 
L 396.320282 265.173004 
L 396.714281 265.173004 
L 396.91128 246.419607 
L 397.305278 246.419607 
L 397.502277 246.793824 
L 397.699276 247.695806 
L 397.896275 246.793824 
L 398.093274 255.120096 
L 398.290274 257.060755 
L 398.487273 257.060755 
L 398.487273 257.060755 
" style="fill:none;stroke:#ff7f0e;stroke-linecap:square;stroke-width:1.5;"/>
   </g>
   <g id="patch_3">
    <path d="M 57.6 307.584 
L 57.6 41.472 
" style="fill:none;stroke:#000000;stroke-linecap:square;stroke-linejoin:miter;stroke-width:0.8;"/>
   </g>
   <g id="patch_4">
    <path d="M 414.72 307.584 
L 414.72 41.472 
" style="fill:none;stroke:#000000;stroke-linecap:square;stroke-linejoin:miter;stroke-width:0.8;"/>
   </g>
   <g id="patch_5">
    <path d="M 57.6 307.584 
L 414.72 307.584 
" style="fill:none;stroke:#000000;stroke-linecap:square;stroke-linejoin:miter;stroke-width:0.8;"/>
   </g>
   <g id="patch_6">
    <path d="M 57.6 41.472 
L 414.72 41.472 
" style="fill:none;stroke:#000000;stroke-linecap:square;stroke-linejoin:miter;stroke-width:0.8;"/>
   </g>
  </g>
 </g>
 <defs>
  <clipPath id="pe8a3feac07">
   <rect height="266.112" width="357.12" x="57.6" y="41.472"/>
  </clipPath>
 </defs>
</svg>
