<?xml version="1.0" encoding="utf-8" standalone="no"?>
<!DOCTYPE svg PUBLIC "-//W3C//DTD SVG 1.1//EN"
  "http://www.w3.org/Graphics/SVG/1.1/DTD/svg11.dtd">
<svg height="345.6pt" version="1.1" viewBox="0 0 460.8 345.6" width="460.8pt" xmlns="http://www.w3.org/2000/svg" xmlns:xlink="http://www.w3.org/1999/xlink">
 <metadata>
  <rdf:RDF xmlns:cc="http://creativecommons.org/ns#" xmlns:dc="http://purl.org/dc/elements/1.1/" xmlns:rdf="http://www.w3.org/1999/02/22-rdf-syntax-ns#">
   <cc:Work>
    <dc:type rdf:resource="http://purl.org/dc/dcmitype/StillImage"/>
    <dc:date>2022-01-06T20:52:31.435863</dc:date>
    <dc:format>image/svg+xml</dc:format>
    <dc:creator>
     <cc:Agent>
      <dc:title>Matplotlib v3.4.3, https://matplotlib.org/</dc:title>
     </cc:Agent>
    </dc:creator>
   </cc:Work>
  </rdf:RDF>
 </metadata>
 <defs>
  <style type="text/css">*{stroke-linecap:butt;stroke-linejoin:round;}</style>
 </defs>
 <g id="figure_1">
  <g id="patch_1">
   <path d="M 0 345.6 
L 460.8 345.6 
L 460.8 0 
L 0 0 
z
" style="fill:#ffffff;"/>
  </g>
  <g id="axes_1">
   <g id="patch_2">
    <path d="M 57.6 307.584 
L 414.72 307.584 
L 414.72 41.472 
L 57.6 41.472 
z
" style="fill:#ffffff;"/>
   </g>
   <g id="matplotlib.axis_1">
    <g id="xtick_1">
     <g id="line2d_1">
      <defs>
       <path d="M 0 0 
L 0 3.5 
" id="m4428c8eb31" style="stroke:#000000;stroke-width:0.8;"/>
      </defs>
      <g>
       <use style="stroke:#000000;stroke-width:0.8;" x="73.832727" xlink:href="#m4428c8eb31" y="307.584"/>
      </g>
     </g>
     <g id="text_1">
      <!-- 39000 -->
      <g transform="translate(57.926477 322.182437)scale(0.1 -0.1)">
       <defs>
        <path d="M 2597 2516 
Q 3050 2419 3304 2112 
Q 3559 1806 3559 1356 
Q 3559 666 3084 287 
Q 2609 -91 1734 -91 
Q 1441 -91 1130 -33 
Q 819 25 488 141 
L 488 750 
Q 750 597 1062 519 
Q 1375 441 1716 441 
Q 2309 441 2620 675 
Q 2931 909 2931 1356 
Q 2931 1769 2642 2001 
Q 2353 2234 1838 2234 
L 1294 2234 
L 1294 2753 
L 1863 2753 
Q 2328 2753 2575 2939 
Q 2822 3125 2822 3475 
Q 2822 3834 2567 4026 
Q 2313 4219 1838 4219 
Q 1578 4219 1281 4162 
Q 984 4106 628 3988 
L 628 4550 
Q 988 4650 1302 4700 
Q 1616 4750 1894 4750 
Q 2613 4750 3031 4423 
Q 3450 4097 3450 3541 
Q 3450 3153 3228 2886 
Q 3006 2619 2597 2516 
z
" id="DejaVuSans-33" transform="scale(0.015625)"/>
        <path d="M 703 97 
L 703 672 
Q 941 559 1184 500 
Q 1428 441 1663 441 
Q 2288 441 2617 861 
Q 2947 1281 2994 2138 
Q 2813 1869 2534 1725 
Q 2256 1581 1919 1581 
Q 1219 1581 811 2004 
Q 403 2428 403 3163 
Q 403 3881 828 4315 
Q 1253 4750 1959 4750 
Q 2769 4750 3195 4129 
Q 3622 3509 3622 2328 
Q 3622 1225 3098 567 
Q 2575 -91 1691 -91 
Q 1453 -91 1209 -44 
Q 966 3 703 97 
z
M 1959 2075 
Q 2384 2075 2632 2365 
Q 2881 2656 2881 3163 
Q 2881 3666 2632 3958 
Q 2384 4250 1959 4250 
Q 1534 4250 1286 3958 
Q 1038 3666 1038 3163 
Q 1038 2656 1286 2365 
Q 1534 2075 1959 2075 
z
" id="DejaVuSans-39" transform="scale(0.015625)"/>
        <path d="M 2034 4250 
Q 1547 4250 1301 3770 
Q 1056 3291 1056 2328 
Q 1056 1369 1301 889 
Q 1547 409 2034 409 
Q 2525 409 2770 889 
Q 3016 1369 3016 2328 
Q 3016 3291 2770 3770 
Q 2525 4250 2034 4250 
z
M 2034 4750 
Q 2819 4750 3233 4129 
Q 3647 3509 3647 2328 
Q 3647 1150 3233 529 
Q 2819 -91 2034 -91 
Q 1250 -91 836 529 
Q 422 1150 422 2328 
Q 422 3509 836 4129 
Q 1250 4750 2034 4750 
z
" id="DejaVuSans-30" transform="scale(0.015625)"/>
       </defs>
       <use xlink:href="#DejaVuSans-33"/>
       <use x="63.623047" xlink:href="#DejaVuSans-39"/>
       <use x="127.246094" xlink:href="#DejaVuSans-30"/>
       <use x="190.869141" xlink:href="#DejaVuSans-30"/>
       <use x="254.492188" xlink:href="#DejaVuSans-30"/>
      </g>
     </g>
    </g>
    <g id="xtick_2">
     <g id="line2d_2">
      <g>
       <use style="stroke:#000000;stroke-width:0.8;" x="123.082507" xlink:href="#m4428c8eb31" y="307.584"/>
      </g>
     </g>
     <g id="text_2">
      <!-- 39250 -->
      <g transform="translate(107.176257 322.182437)scale(0.1 -0.1)">
       <defs>
        <path d="M 1228 531 
L 3431 531 
L 3431 0 
L 469 0 
L 469 531 
Q 828 903 1448 1529 
Q 2069 2156 2228 2338 
Q 2531 2678 2651 2914 
Q 2772 3150 2772 3378 
Q 2772 3750 2511 3984 
Q 2250 4219 1831 4219 
Q 1534 4219 1204 4116 
Q 875 4013 500 3803 
L 500 4441 
Q 881 4594 1212 4672 
Q 1544 4750 1819 4750 
Q 2544 4750 2975 4387 
Q 3406 4025 3406 3419 
Q 3406 3131 3298 2873 
Q 3191 2616 2906 2266 
Q 2828 2175 2409 1742 
Q 1991 1309 1228 531 
z
" id="DejaVuSans-32" transform="scale(0.015625)"/>
        <path d="M 691 4666 
L 3169 4666 
L 3169 4134 
L 1269 4134 
L 1269 2991 
Q 1406 3038 1543 3061 
Q 1681 3084 1819 3084 
Q 2600 3084 3056 2656 
Q 3513 2228 3513 1497 
Q 3513 744 3044 326 
Q 2575 -91 1722 -91 
Q 1428 -91 1123 -41 
Q 819 9 494 109 
L 494 744 
Q 775 591 1075 516 
Q 1375 441 1709 441 
Q 2250 441 2565 725 
Q 2881 1009 2881 1497 
Q 2881 1984 2565 2268 
Q 2250 2553 1709 2553 
Q 1456 2553 1204 2497 
Q 953 2441 691 2322 
L 691 4666 
z
" id="DejaVuSans-35" transform="scale(0.015625)"/>
       </defs>
       <use xlink:href="#DejaVuSans-33"/>
       <use x="63.623047" xlink:href="#DejaVuSans-39"/>
       <use x="127.246094" xlink:href="#DejaVuSans-32"/>
       <use x="190.869141" xlink:href="#DejaVuSans-35"/>
       <use x="254.492188" xlink:href="#DejaVuSans-30"/>
      </g>
     </g>
    </g>
    <g id="xtick_3">
     <g id="line2d_3">
      <g>
       <use style="stroke:#000000;stroke-width:0.8;" x="172.332286" xlink:href="#m4428c8eb31" y="307.584"/>
      </g>
     </g>
     <g id="text_3">
      <!-- 39500 -->
      <g transform="translate(156.426036 322.182437)scale(0.1 -0.1)">
       <use xlink:href="#DejaVuSans-33"/>
       <use x="63.623047" xlink:href="#DejaVuSans-39"/>
       <use x="127.246094" xlink:href="#DejaVuSans-35"/>
       <use x="190.869141" xlink:href="#DejaVuSans-30"/>
       <use x="254.492188" xlink:href="#DejaVuSans-30"/>
      </g>
     </g>
    </g>
    <g id="xtick_4">
     <g id="line2d_4">
      <g>
       <use style="stroke:#000000;stroke-width:0.8;" x="221.582065" xlink:href="#m4428c8eb31" y="307.584"/>
      </g>
     </g>
     <g id="text_4">
      <!-- 39750 -->
      <g transform="translate(205.675815 322.182437)scale(0.1 -0.1)">
       <defs>
        <path d="M 525 4666 
L 3525 4666 
L 3525 4397 
L 1831 0 
L 1172 0 
L 2766 4134 
L 525 4134 
L 525 4666 
z
" id="DejaVuSans-37" transform="scale(0.015625)"/>
       </defs>
       <use xlink:href="#DejaVuSans-33"/>
       <use x="63.623047" xlink:href="#DejaVuSans-39"/>
       <use x="127.246094" xlink:href="#DejaVuSans-37"/>
       <use x="190.869141" xlink:href="#DejaVuSans-35"/>
       <use x="254.492188" xlink:href="#DejaVuSans-30"/>
      </g>
     </g>
    </g>
    <g id="xtick_5">
     <g id="line2d_5">
      <g>
       <use style="stroke:#000000;stroke-width:0.8;" x="270.831845" xlink:href="#m4428c8eb31" y="307.584"/>
      </g>
     </g>
     <g id="text_5">
      <!-- 40000 -->
      <g transform="translate(254.925595 322.182437)scale(0.1 -0.1)">
       <defs>
        <path d="M 2419 4116 
L 825 1625 
L 2419 1625 
L 2419 4116 
z
M 2253 4666 
L 3047 4666 
L 3047 1625 
L 3713 1625 
L 3713 1100 
L 3047 1100 
L 3047 0 
L 2419 0 
L 2419 1100 
L 313 1100 
L 313 1709 
L 2253 4666 
z
" id="DejaVuSans-34" transform="scale(0.015625)"/>
       </defs>
       <use xlink:href="#DejaVuSans-34"/>
       <use x="63.623047" xlink:href="#DejaVuSans-30"/>
       <use x="127.246094" xlink:href="#DejaVuSans-30"/>
       <use x="190.869141" xlink:href="#DejaVuSans-30"/>
       <use x="254.492188" xlink:href="#DejaVuSans-30"/>
      </g>
     </g>
    </g>
    <g id="xtick_6">
     <g id="line2d_6">
      <g>
       <use style="stroke:#000000;stroke-width:0.8;" x="320.081624" xlink:href="#m4428c8eb31" y="307.584"/>
      </g>
     </g>
     <g id="text_6">
      <!-- 40250 -->
      <g transform="translate(304.175374 322.182437)scale(0.1 -0.1)">
       <use xlink:href="#DejaVuSans-34"/>
       <use x="63.623047" xlink:href="#DejaVuSans-30"/>
       <use x="127.246094" xlink:href="#DejaVuSans-32"/>
       <use x="190.869141" xlink:href="#DejaVuSans-35"/>
       <use x="254.492188" xlink:href="#DejaVuSans-30"/>
      </g>
     </g>
    </g>
    <g id="xtick_7">
     <g id="line2d_7">
      <g>
       <use style="stroke:#000000;stroke-width:0.8;" x="369.331403" xlink:href="#m4428c8eb31" y="307.584"/>
      </g>
     </g>
     <g id="text_7">
      <!-- 40500 -->
      <g transform="translate(353.425153 322.182437)scale(0.1 -0.1)">
       <use xlink:href="#DejaVuSans-34"/>
       <use x="63.623047" xlink:href="#DejaVuSans-30"/>
       <use x="127.246094" xlink:href="#DejaVuSans-35"/>
       <use x="190.869141" xlink:href="#DejaVuSans-30"/>
       <use x="254.492188" xlink:href="#DejaVuSans-30"/>
      </g>
     </g>
    </g>
   </g>
   <g id="matplotlib.axis_2">
    <g id="ytick_1">
     <g id="line2d_8">
      <defs>
       <path d="M 0 0 
L -3.5 0 
" id="m72c52f58b1" style="stroke:#000000;stroke-width:0.8;"/>
      </defs>
      <g>
       <use style="stroke:#000000;stroke-width:0.8;" x="57.6" xlink:href="#m72c52f58b1" y="295.488"/>
      </g>
     </g>
     <g id="text_8">
      <!-- 0 -->
      <g transform="translate(44.2375 299.287219)scale(0.1 -0.1)">
       <use xlink:href="#DejaVuSans-30"/>
      </g>
     </g>
    </g>
    <g id="ytick_2">
     <g id="line2d_9">
      <g>
       <use style="stroke:#000000;stroke-width:0.8;" x="57.6" xlink:href="#m72c52f58b1" y="251.530314"/>
      </g>
     </g>
     <g id="text_9">
      <!-- 1 -->
      <g transform="translate(44.2375 255.329533)scale(0.1 -0.1)">
       <defs>
        <path d="M 794 531 
L 1825 531 
L 1825 4091 
L 703 3866 
L 703 4441 
L 1819 4666 
L 2450 4666 
L 2450 531 
L 3481 531 
L 3481 0 
L 794 0 
L 794 531 
z
" id="DejaVuSans-31" transform="scale(0.015625)"/>
       </defs>
       <use xlink:href="#DejaVuSans-31"/>
      </g>
     </g>
    </g>
    <g id="ytick_3">
     <g id="line2d_10">
      <g>
       <use style="stroke:#000000;stroke-width:0.8;" x="57.6" xlink:href="#m72c52f58b1" y="207.572628"/>
      </g>
     </g>
     <g id="text_10">
      <!-- 2 -->
      <g transform="translate(44.2375 211.371846)scale(0.1 -0.1)">
       <use xlink:href="#DejaVuSans-32"/>
      </g>
     </g>
    </g>
    <g id="ytick_4">
     <g id="line2d_11">
      <g>
       <use style="stroke:#000000;stroke-width:0.8;" x="57.6" xlink:href="#m72c52f58b1" y="163.614941"/>
      </g>
     </g>
     <g id="text_11">
      <!-- 3 -->
      <g transform="translate(44.2375 167.41416)scale(0.1 -0.1)">
       <use xlink:href="#DejaVuSans-33"/>
      </g>
     </g>
    </g>
    <g id="ytick_5">
     <g id="line2d_12">
      <g>
       <use style="stroke:#000000;stroke-width:0.8;" x="57.6" xlink:href="#m72c52f58b1" y="119.657255"/>
      </g>
     </g>
     <g id="text_12">
      <!-- 4 -->
      <g transform="translate(44.2375 123.456474)scale(0.1 -0.1)">
       <use xlink:href="#DejaVuSans-34"/>
      </g>
     </g>
    </g>
    <g id="ytick_6">
     <g id="line2d_13">
      <g>
       <use style="stroke:#000000;stroke-width:0.8;" x="57.6" xlink:href="#m72c52f58b1" y="75.699569"/>
      </g>
     </g>
     <g id="text_13">
      <!-- 5 -->
      <g transform="translate(44.2375 79.498788)scale(0.1 -0.1)">
       <use xlink:href="#DejaVuSans-35"/>
      </g>
     </g>
    </g>
    <g id="text_14">
     <!-- 1e6 -->
     <g transform="translate(57.6 38.472)scale(0.1 -0.1)">
      <defs>
       <path d="M 3597 1894 
L 3597 1613 
L 953 1613 
Q 991 1019 1311 708 
Q 1631 397 2203 397 
Q 2534 397 2845 478 
Q 3156 559 3463 722 
L 3463 178 
Q 3153 47 2828 -22 
Q 2503 -91 2169 -91 
Q 1331 -91 842 396 
Q 353 884 353 1716 
Q 353 2575 817 3079 
Q 1281 3584 2069 3584 
Q 2775 3584 3186 3129 
Q 3597 2675 3597 1894 
z
M 3022 2063 
Q 3016 2534 2758 2815 
Q 2500 3097 2075 3097 
Q 1594 3097 1305 2825 
Q 1016 2553 972 2059 
L 3022 2063 
z
" id="DejaVuSans-65" transform="scale(0.015625)"/>
       <path d="M 2113 2584 
Q 1688 2584 1439 2293 
Q 1191 2003 1191 1497 
Q 1191 994 1439 701 
Q 1688 409 2113 409 
Q 2538 409 2786 701 
Q 3034 994 3034 1497 
Q 3034 2003 2786 2293 
Q 2538 2584 2113 2584 
z
M 3366 4563 
L 3366 3988 
Q 3128 4100 2886 4159 
Q 2644 4219 2406 4219 
Q 1781 4219 1451 3797 
Q 1122 3375 1075 2522 
Q 1259 2794 1537 2939 
Q 1816 3084 2150 3084 
Q 2853 3084 3261 2657 
Q 3669 2231 3669 1497 
Q 3669 778 3244 343 
Q 2819 -91 2113 -91 
Q 1303 -91 875 529 
Q 447 1150 447 2328 
Q 447 3434 972 4092 
Q 1497 4750 2381 4750 
Q 2619 4750 2861 4703 
Q 3103 4656 3366 4563 
z
" id="DejaVuSans-36" transform="scale(0.015625)"/>
      </defs>
      <use xlink:href="#DejaVuSans-31"/>
      <use x="63.623047" xlink:href="#DejaVuSans-65"/>
      <use x="125.146484" xlink:href="#DejaVuSans-36"/>
     </g>
    </g>
   </g>
   <g id="line2d_14">
    <path clip-path="url(#p5c63bf42cb)" d="M 73.832727 295.370425 
L 74.620724 295.388219 
L 75.211721 295.319662 
L 75.802718 295.249259 
L 76.196717 295.372861 
L 76.787714 295.364928 
L 78.166708 295.438951 
L 78.757705 295.384695 
L 78.954704 295.166844 
L 79.545702 295.166844 
L 79.742701 295.422173 
L 82.697688 295.402888 
L 83.091686 294.958404 
L 83.288685 295.214297 
L 83.485684 294.958404 
L 83.879682 295.25069 
L 84.076681 295.076895 
L 84.27368 295.076895 
L 84.47068 295.275343 
L 86.440671 295.366617 
L 87.031668 295.424958 
L 88.213663 295.362259 
L 88.607661 295.290994 
L 89.001659 295.349952 
L 91.16865 295.26024 
L 92.744643 295.070387 
L 92.941642 295.236289 
L 95.50263 295.33469 
L 96.093628 295.406892 
L 96.487626 295.34349 
L 97.66962 295.266085 
L 97.86662 295.115591 
L 98.063619 295.375086 
L 98.457617 295.33736 
L 99.048614 295.393881 
L 100.624607 295.430234 
L 100.427608 295.430234 
L 100.821606 295.076964 
L 101.215605 295.138561 
L 101.609603 295.147287 
L 101.806602 295.404744 
L 102.2006 295.29688 
L 102.594598 295.380763 
L 102.988597 295.380763 
L 103.579594 295.129035 
L 104.170591 295.234485 
L 105.549585 295.387883 
L 105.746584 295.02713 
L 106.337582 295.02713 
L 106.928579 295.433272 
L 107.322577 295.32521 
L 107.519576 295.32521 
L 107.716575 295.146934 
L 107.913575 295.353961 
L 109.292568 295.375354 
L 109.489568 295.209845 
L 109.686567 295.394666 
L 110.080565 295.394666 
L 109.883566 295.394666 
L 110.671562 295.214616 
L 111.26256 295.298122 
L 112.050556 295.357873 
L 113.035552 295.372242 
L 113.232551 295.112416 
L 114.217546 295.010199 
L 114.414545 295.232876 
L 115.399541 295.239745 
L 115.59654 295.377738 
L 115.793539 295.237903 
L 116.778535 295.209525 
L 116.975534 294.40106 
L 117.566531 294.434942 
L 117.76353 294.958404 
L 117.96053 294.962976 
L 118.157529 295.296434 
L 118.748526 295.413495 
L 119.339523 295.365548 
L 124.264501 295.383171 
L 124.4615 295.399528 
L 124.855499 295.298664 
L 125.249497 295.370246 
L 126.234492 295.352033 
L 126.628491 295.251204 
L 127.613486 295.333568 
L 128.007485 295.333568 
L 127.613486 295.232029 
L 130.371474 295.239073 
L 130.568473 294.556693 
L 130.765472 295.275958 
L 132.735463 295.307955 
L 132.932462 294.564565 
L 133.129462 292.772539 
L 133.326461 294.564565 
L 133.52346 294.747463 
L 133.917458 294.793101 
L 134.114457 295.274559 
L 134.705455 295.309556 
L 134.902454 295.14799 
L 135.296452 295.14799 
L 135.887449 295.393491 
L 136.281447 295.302113 
L 138.05444 295.356746 
L 138.251439 295.161706 
L 138.448438 295.161706 
L 138.842436 295.314108 
L 139.433433 295.27649 
L 139.630432 295.084393 
L 139.827432 295.084393 
L 140.024431 295.27649 
L 141.403425 295.263664 
L 142.191421 295.229425 
L 142.979417 295.403783 
L 143.176417 295.333437 
L 143.373416 295.403783 
L 143.964413 295.27892 
L 146.131403 295.178552 
L 146.722401 295.136041 
L 146.9194 295.136041 
L 146.722401 294.75592 
L 147.116399 294.75592 
L 147.313398 294.601742 
L 147.510397 292.740781 
L 146.9194 292.740781 
L 148.101395 292.740781 
L 148.298394 294.537943 
L 148.495393 294.537943 
L 148.692392 294.728132 
L 148.889391 294.728132 
L 149.08639 295.049687 
L 149.677387 295.211004 
L 149.874387 295.211004 
L 150.268385 295.335959 
L 152.238376 295.227565 
L 153.420371 295.254126 
L 154.208367 295.283565 
L 154.602365 295.132696 
L 154.799365 294.4509 
L 155.193363 294.4509 
L 155.78436 295.04481 
L 156.178358 294.817928 
L 156.572357 294.951882 
L 157.557352 294.930179 
L 157.754351 295.113511 
L 158.542348 295.048318 
L 158.14835 294.947173 
L 159.527343 295.013473 
L 160.512339 295.222969 
L 162.088332 295.200536 
L 162.285331 295.078762 
L 162.48233 294.826008 
L 162.285331 294.676041 
L 162.679329 294.676041 
L 162.876328 294.826008 
L 163.073327 294.46113 
L 163.270327 294.906736 
L 163.467326 294.906736 
L 163.664325 295.135978 
L 165.240318 295.027092 
L 165.437317 294.87305 
L 165.634316 294.87305 
L 165.831315 295.022217 
L 166.225313 295.121549 
L 167.407308 295.276665 
L 168.589303 295.314466 
L 168.786302 295.332875 
L 169.1803 295.189242 
L 171.150291 295.19825 
L 172.135287 295.220093 
L 172.923283 294.984173 
L 173.120282 294.984173 
L 173.317282 295.286213 
L 174.893274 295.20633 
L 175.090274 295.16589 
L 175.484272 295.298814 
L 175.681271 295.289196 
L 175.87827 295.084176 
L 176.666267 295.153948 
L 177.454263 295.14995 
L 177.651262 295.309627 
L 178.439259 295.236334 
L 178.833257 295.186821 
L 179.227255 295.26497 
L 181.788244 295.170642 
L 181.985243 294.807781 
L 182.182242 295.185336 
L 182.970238 295.204182 
L 183.167237 294.992982 
L 183.561236 295.100138 
L 183.955234 294.992982 
L 184.546231 295.25996 
L 193.214192 295.347757 
L 193.80519 295.345741 
L 194.002189 295.019532 
L 194.987184 294.938419 
L 195.184184 295.204812 
L 195.578182 295.142265 
L 196.366178 295.296324 
L 196.563177 295.296324 
L 197.154175 294.988205 
L 197.942171 294.988205 
L 198.336169 295.141241 
L 200.50316 295.151748 
L 200.700159 295.283812 
L 202.473151 295.100138 
L 204.246143 295.124152 
L 204.640141 295.333871 
L 205.428138 295.291838 
L 205.625137 295.170923 
L 206.019135 295.236703 
L 208.974122 295.148121 
L 209.171121 294.995818 
L 209.565119 294.995818 
L 210.353116 295.369537 
L 210.550115 295.196725 
L 212.126108 295.189352 
L 212.323107 295.278985 
L 212.520106 295.063081 
L 212.717105 295.278985 
L 213.111103 295.174189 
L 213.702101 295.223722 
L 214.096099 295.287987 
L 214.490097 295.327882 
L 214.884095 295.187168 
L 216.460088 295.246106 
L 217.051086 295.323351 
L 217.248085 295.246106 
L 217.445084 295.304873 
L 217.839082 295.196913 
L 218.23308 295.22558 
L 218.430079 295.046973 
L 218.627079 295.22558 
L 218.824078 294.976864 
L 219.021077 294.976864 
L 219.218076 295.141599 
L 220.794069 295.061922 
L 221.188067 294.938419 
L 222.567061 295.039551 
L 223.749056 295.272015 
L 224.537052 295.268075 
L 224.734051 294.994857 
L 224.93105 295.268075 
L 224.734051 294.994857 
L 225.916046 294.981556 
L 225.719047 295.056247 
L 226.310044 295.056247 
L 226.507043 294.823509 
L 228.083036 294.83458 
L 228.280035 295.168594 
L 228.477034 295.168594 
L 228.674034 294.83458 
L 228.871033 294.83458 
L 229.265031 294.533825 
L 229.46203 294.603624 
L 229.856028 294.958404 
L 231.038023 295.060206 
L 231.235022 295.165646 
L 231.62902 294.938419 
L 232.811015 295.289493 
L 233.205013 295.396249 
L 233.402012 295.210726 
L 233.796011 295.177934 
L 234.190009 294.878525 
L 234.584007 294.817478 
L 234.781006 294.878525 
L 234.978005 295.390392 
L 235.372004 295.353211 
L 235.569003 294.9444 
L 236.750997 295.000295 
L 237.538994 295.106511 
L 237.341995 294.986181 
L 238.32699 294.95877 
L 238.523989 295.21472 
L 240.887979 295.210718 
L 241.084978 295.390213 
L 241.478976 295.151927 
L 242.660971 295.246963 
L 243.448967 295.487327 
L 243.842966 295.260862 
L 244.236964 295.260862 
L 245.02496 295.215898 
L 245.418959 295.121079 
L 248.373945 295.017054 
L 248.570944 295.017054 
L 248.964943 295.16732 
L 249.55594 295.182931 
L 250.146937 295.182931 
L 250.343936 295.035383 
L 250.540936 293.729693 
L 250.737935 293.729693 
L 250.934934 293.427483 
L 251.328932 295.009098 
L 251.919929 295.036698 
L 252.116929 295.202386 
L 252.707926 295.151727 
L 253.298923 295.104648 
L 252.904925 295.016442 
L 253.495922 295.016442 
L 253.692921 295.26832 
L 254.283919 295.26832 
L 254.480918 295.022346 
L 256.056911 295.060101 
L 257.632904 295.218924 
L 260.193892 295.170515 
L 259.996893 295.170515 
L 260.78489 295.086555 
L 260.981889 295.242816 
L 262.163883 295.071047 
L 261.769885 295.113182 
L 262.360883 295.255839 
L 262.754881 295.039823 
L 263.148879 295.039823 
L 263.345878 295.27754 
L 264.133875 295.262206 
L 264.330874 295.111114 
L 264.527873 295.262206 
L 264.724872 295.055127 
L 264.921871 295.262206 
L 269.452851 295.178399 
L 269.846849 295.05313 
L 270.043848 295.178399 
L 271.81684 295.159739 
L 272.998835 295.315758 
L 273.392833 295.295869 
L 273.786831 295.487956 
L 273.983831 295.487956 
L 274.574828 295.232432 
L 275.559823 295.261735 
L 275.953822 295.403407 
L 276.150821 295.38368 
L 275.953822 295.38368 
L 276.741818 295.090792 
L 277.332816 295.133613 
L 277.726814 295.109024 
L 278.120812 294.976864 
L 278.51481 294.976864 
L 278.711809 295.252724 
L 278.908808 293.889539 
L 279.105808 295.308181 
L 279.696805 295.095712 
L 280.090803 295.194656 
L 280.681801 295.263565 
L 281.863795 295.247648 
L 283.04579 295.235083 
L 283.242789 295.371684 
L 283.439788 295.209891 
L 283.242789 295.260633 
L 284.621783 295.405304 
L 285.015781 295.317448 
L 285.606778 295.308718 
L 285.803778 295.113361 
L 286.591774 295.171713 
L 286.788773 295.243867 
L 287.182771 295.171713 
L 286.591774 295.171713 
L 288.561765 295.178843 
L 288.955763 295.29402 
L 290.334757 295.290929 
L 290.531756 295.171711 
L 290.728756 295.325666 
L 291.319753 295.275958 
L 291.516752 295.141854 
L 291.91075 295.153671 
L 292.107749 294.821174 
L 292.304748 295.032047 
L 292.501748 295.032047 
L 292.698747 295.22374 
L 293.486743 295.267407 
L 294.668738 295.325751 
L 295.062736 295.325751 
L 295.259735 295.303295 
L 295.456734 295.153994 
L 295.653733 295.153994 
L 296.047732 295.265175 
L 300.578711 295.188493 
L 300.775711 294.995936 
L 300.97271 295.252684 
L 303.336699 295.15384 
L 303.730697 295.135378 
L 303.927696 295.244756 
L 304.124695 295.161582 
L 303.730697 295.161582 
L 304.518694 295.161582 
L 304.912692 295.161582 
L 305.109691 295.023107 
L 305.30669 295.161582 
L 305.700688 295.030107 
L 306.094687 295.184897 
L 306.685684 295.199465 
L 306.882683 295.314879 
L 307.079682 295.199465 
L 307.276681 295.314879 
L 308.064678 295.174284 
L 308.852674 295.29789 
L 309.246673 295.379817 
L 309.443672 295.157707 
L 309.640671 295.26024 
L 310.034669 295.068761 
L 310.231668 294.987485 
L 310.428667 295.077824 
L 310.625666 293.58302 
L 310.822665 290.603813 
L 311.216664 290.603813 
L 311.413663 294.524113 
L 311.807661 294.879191 
L 312.201659 295.184345 
L 314.565649 295.135773 
L 314.762648 295.045732 
L 315.156646 295.27934 
L 315.944643 295.329571 
L 316.141642 295.329571 
L 316.53564 295.178439 
L 318.70263 295.263522 
L 319.293628 295.294599 
L 319.687626 295.184679 
L 320.672621 295.151269 
L 322.445613 295.320648 
L 322.839612 295.413823 
L 323.824607 295.324137 
L 324.415605 295.320035 
L 325.4006 295.183359 
L 325.794598 295.295952 
L 326.385596 295.317106 
L 326.582595 295.173628 
L 327.173592 295.216695 
L 328.749585 295.260158 
L 328.946584 295.391941 
L 329.143583 295.260158 
L 330.325578 295.277454 
L 330.719576 295.157857 
L 331.901571 295.178204 
L 332.492568 295.17599 
L 332.689568 295.316419 
L 333.477564 295.326613 
L 333.871562 295.444785 
L 334.068561 295.487956 
L 334.46256 295.41475 
L 335.841553 295.404376 
L 336.235552 295.235562 
L 336.826549 295.255736 
L 337.220547 295.354221 
L 340.96353 295.36494 
L 341.16053 295.482068 
L 341.751527 295.433727 
L 342.342524 295.381778 
L 342.539523 295.294143 
L 343.130521 295.445816 
L 344.706514 295.406825 
L 345.100512 295.330059 
L 345.297511 295.245216 
L 345.888508 295.403594 
L 346.282507 295.333298 
L 346.479506 295.193525 
L 346.676505 295.333298 
L 347.070503 295.129601 
L 347.6615 295.240516 
L 348.055499 295.325689 
L 348.449497 295.205735 
L 351.207485 295.450423 
L 351.404484 295.274511 
L 351.995481 295.328427 
L 358.299453 295.227345 
L 358.693451 295.158127 
L 359.284448 295.268212 
L 362.436434 295.425032 
L 365.194422 295.231663 
L 365.785419 295.355531 
L 368.346408 295.412446 
L 368.740406 295.45106 
L 369.528402 295.339795 
L 371.498394 295.432865 
L 371.695393 295.274478 
L 372.089391 295.261087 
L 372.28639 295.052775 
L 373.074387 295.10113 
L 373.862383 295.293318 
L 374.059382 295.178031 
L 374.256381 295.407261 
L 374.45338 295.245311 
L 377.408367 295.237209 
L 377.802365 295.127928 
L 378.393363 295.16859 
L 378.590362 295.388233 
L 379.575357 295.336506 
L 379.969356 295.214619 
L 380.363354 295.16792 
L 380.560353 295.314031 
L 380.954351 295.387084 
L 381.34835 295.432707 
L 382.727343 295.333349 
L 383.51534 295.321479 
L 383.909338 295.219393 
L 384.106337 295.281337 
L 384.697335 295.204273 
L 386.667326 295.263107 
L 387.061324 295.299928 
L 389.622312 295.195272 
L 390.016311 295.195272 
L 390.804307 295.349802 
L 393.168297 295.359123 
L 393.759294 295.358171 
L 394.153292 295.276149 
L 396.320282 295.204795 
L 396.517282 295.027064 
L 397.305278 295.134865 
L 398.093274 295.281948 
L 398.487273 295.427664 
L 398.487273 295.427664 
" style="fill:none;stroke:#1f77b4;stroke-linecap:square;stroke-width:1.5;"/>
   </g>
   <g id="line2d_15">
    <path clip-path="url(#p5c63bf42cb)" d="M 73.832727 291.497807 
L 74.029726 291.910427 
L 73.832727 290.53426 
L 74.423725 285.098746 
L 74.620724 288.095489 
L 74.817723 288.626791 
L 75.014722 276.232628 
L 75.211721 282.695361 
L 75.40872 273.266913 
L 75.211721 281.212503 
L 75.605719 285.185298 
L 75.999718 281.043749 
L 76.393716 291.9515 
L 76.590715 292.137273 
L 77.181712 294.23623 
L 77.378711 292.664231 
L 77.575711 294.034758 
L 77.969709 286.848996 
L 78.166708 288.003544 
L 78.363707 275.921005 
L 78.560706 282.539549 
L 78.757705 273.189008 
L 78.954704 286.616425 
L 79.151703 287.887259 
L 79.545702 291.2141 
L 79.742701 291.153166 
L 79.9397 293.056837 
L 80.136699 292.689942 
L 80.530697 294.594524 
L 80.727696 295.035853 
L 80.924695 293.064042 
L 81.121695 292.693544 
L 81.318694 291.892888 
L 81.515693 292.107967 
L 81.909691 294.495927 
L 82.10669 288.39831 
L 82.303689 288.778202 
L 82.500688 289.935217 
L 82.697688 276.886841 
L 82.894687 285.859567 
L 83.091686 289.091307 
L 83.682683 292.498366 
L 83.879682 292.410706 
L 84.27368 294.624384 
L 84.667679 284.062886 
L 84.864678 288.192966 
L 85.061677 283.9281 
L 85.455675 289.916606 
L 85.652674 291.913901 
L 85.849673 292.118474 
L 86.046673 293.532443 
L 86.63767 291.858814 
L 87.031668 294.378571 
L 87.228667 293.350809 
L 87.425666 278.594637 
L 87.622665 274.648654 
L 87.819665 282.870443 
L 88.016664 273.354454 
L 88.410662 286.657787 
L 88.607661 289.98362 
L 88.80466 291.153333 
L 89.001659 291.122782 
L 89.198658 291.722915 
L 89.395658 293.340659 
L 89.592657 293.762767 
L 89.986655 291.759865 
L 90.183654 287.795495 
L 90.380653 290.059271 
L 90.577652 286.945198 
L 90.97165 290.306779 
L 91.16865 289.005838 
L 91.365649 290.335715 
L 91.562648 288.051852 
L 91.759647 291.746482 
L 91.956646 292.837745 
L 92.153645 289.767104 
L 92.350644 288.841894 
L 92.547643 226.228418 
L 92.941642 285.378897 
L 93.138641 289.258579 
L 93.33564 273.791189 
L 93.532639 282.44171 
L 94.123636 288.772667 
L 94.517635 293.49675 
L 94.911633 291.397799 
L 95.108632 291.245015 
L 95.305631 227.429978 
L 95.699629 274.693134 
L 95.896628 283.50809 
L 96.290627 289.196196 
L 96.487626 289.924425 
L 96.684625 281.716791 
L 96.881624 286.307328 
L 97.078623 256.778882 
L 97.275622 204.221326 
L 97.472621 248.722449 
L 97.86662 275.172305 
L 98.063619 249.356303 
L 98.457617 279.422906 
L 98.654616 274.268147 
L 98.851615 284.852901 
L 99.245613 291.616403 
L 99.442613 291.959532 
L 99.836611 292.141289 
L 100.03361 293.581425 
L 100.230609 292.952236 
L 100.427608 288.076745 
L 100.230609 285.639 
L 100.427608 288.365616 
L 100.821606 289.728924 
L 101.018605 292.130661 
L 101.215605 291.611446 
L 101.412604 293.375288 
L 101.806602 291.685317 
L 102.2006 291.240503 
L 102.397599 291.781775 
L 102.2006 292.052411 
L 102.594598 292.187729 
L 102.791598 293.722186 
L 103.185596 292.057424 
L 103.382595 272.0028 
L 103.579594 283.558187 
L 103.973592 291.141806 
L 104.170591 291.458305 
L 104.36759 293.169996 
L 104.56459 291.606545 
L 104.761589 291.964796 
L 104.958588 293.404296 
L 105.352586 291.670247 
L 105.549585 293.260845 
L 105.746584 290.829448 
L 106.140583 294.061709 
L 106.337582 293.192378 
L 106.534581 294.065398 
L 106.73158 293.194223 
L 106.928579 294.298844 
L 107.125578 292.695538 
L 107.322577 292.509292 
L 107.716575 294.919853 
L 108.110574 292.049137 
L 108.307573 292.186092 
L 108.504572 293.572248 
L 108.701571 292.947647 
L 108.89857 294.020014 
L 109.095569 293.17153 
L 109.292568 294.054975 
L 109.489568 283.782066 
L 109.686567 289.291613 
L 109.883566 291.30888 
L 110.080565 289.002671 
L 109.883566 290.662859 
L 110.277564 292.915583 
L 110.474563 292.003907 
L 110.671562 292.379393 
L 111.06556 294.300661 
L 111.459559 291.790774 
L 111.656558 292.05691 
L 111.853557 292.996731 
L 112.247555 291.711697 
L 112.444554 293.577869 
L 112.838553 292.33505 
L 113.232551 294.150224 
L 113.42955 272.840269 
L 113.823548 287.683707 
L 114.020547 289.387969 
L 114.217546 270.239353 
L 114.611545 290.449065 
L 114.808544 290.192258 
L 114.611545 292.608773 
L 115.005543 293.783588 
L 115.202542 292.43791 
L 115.399541 293.867395 
L 115.59654 272.698854 
L 115.793539 285.834522 
L 115.990538 291.020086 
L 116.384537 292.889839 
L 116.581536 289.107411 
L 116.778535 248.340019 
L 117.172533 281.646461 
L 117.369532 277.577809 
L 117.566531 285.653751 
L 117.76353 284.310592 
L 118.157529 289.396822 
L 118.354528 292.409277 
L 118.945525 294.502455 
L 119.142524 294.730429 
L 119.339523 291.5926 
L 119.536523 282.550878 
L 119.930521 288.956893 
L 120.324519 291.173804 
L 120.521518 281.640028 
L 120.718517 285.267188 
L 120.521518 287.080767 
L 120.915516 289.37318 
L 121.309515 293.452631 
L 121.703513 294.523239 
L 122.097511 295.086264 
L 122.491509 292.398443 
L 122.688508 293.678424 
L 122.885508 290.196034 
L 123.082507 291.25954 
L 123.476505 287.454991 
L 123.673504 288.540983 
L 123.870503 291.574915 
L 124.067502 289.135689 
L 124.4615 291.133969 
L 124.6585 286.845533 
L 124.855499 290.608928 
L 125.052498 290.85058 
L 125.249497 293.108237 
L 125.446496 291.835895 
L 125.840494 294.51974 
L 126.037493 284.014448 
L 126.234492 289.613549 
L 126.431492 53.568 
L 126.628491 172.330116 
L 127.022489 242.719686 
L 127.416487 279.614503 
L 127.613486 285.353367 
L 128.007485 268.930122 
L 127.613486 260.7185 
L 128.204484 234.145564 
L 128.598482 247.184126 
L 128.99248 280.516558 
L 129.189479 286.419802 
L 129.583477 289.924124 
L 129.780477 291.825769 
L 129.977476 292.135414 
L 130.174475 293.679304 
L 130.765472 234.933138 
L 131.15947 116.762122 
L 131.553469 194.54322 
L 132.144466 277.567085 
L 132.341465 278.882727 
L 132.538464 269.938939 
L 132.735463 277.350918 
L 132.932462 278.260473 
L 133.129462 279.945505 
L 133.52346 289.597337 
L 133.917458 290.718508 
L 134.114457 290.90537 
L 134.508455 287.701974 
L 134.705455 181.700771 
L 135.099453 263.744366 
L 135.296452 277.418299 
L 135.493451 264.474306 
L 135.887449 287.30885 
L 136.084448 290.424961 
L 136.281447 277.423563 
L 136.478447 279.862128 
L 136.872445 291.52792 
L 137.069444 271.529117 
L 137.266443 276.057347 
L 137.463442 283.574789 
L 137.660441 282.741166 
L 137.85744 179.220368 
L 138.251439 260.440259 
L 138.448438 234.006443 
L 138.842436 276.151863 
L 139.039435 285.453826 
L 139.236434 279.481491 
L 139.630432 288.476227 
L 139.827432 291.389234 
L 140.024431 291.66613 
L 140.22143 293.281889 
L 140.418429 291.639646 
L 140.615428 285.651439 
L 141.009426 269.731286 
L 141.206425 282.129945 
L 141.600424 287.752718 
L 141.797423 291.196013 
L 141.994422 283.559678 
L 142.191421 289.21152 
L 142.585419 290.622053 
L 142.782418 293.004159 
L 142.979417 292.048195 
L 143.176417 289.372329 
L 143.373416 281.440743 
L 143.570415 286.266487 
L 143.767414 279.887822 
L 144.161412 288.291129 
L 144.358411 269.910721 
L 144.75241 286.858872 
L 145.146408 290.946158 
L 145.343407 290.150706 
L 145.540406 292.50537 
L 145.737405 293.42054 
L 145.934404 292.256386 
L 146.131403 292.869892 
L 146.328402 291.981062 
L 146.525402 292.778929 
L 146.722401 289.316021 
L 146.9194 290.204126 
L 146.722401 290.665622 
L 147.116399 292.523387 
L 147.313398 288.510983 
L 147.510397 290.167921 
L 147.707396 289.043204 
L 146.9194 290.067718 
L 147.904395 291.383647 
L 148.298394 287.868259 
L 148.495393 289.480245 
L 148.692392 292.206551 
L 148.889391 292.084682 
L 149.08639 291.588457 
L 149.283389 291.50315 
L 149.480388 291.787724 
L 149.677387 291.756137 
L 149.874387 271.419203 
L 150.268385 286.145971 
L 150.859382 292.663465 
L 151.056381 291.877848 
L 151.25338 271.704081 
L 151.45038 283.50048 
L 151.647379 287.296356 
L 151.844378 269.413335 
L 152.238376 285.672507 
L 152.435375 290.051074 
L 152.632374 290.571652 
L 152.829373 292.910133 
L 153.026372 292.001182 
L 153.223372 293.144562 
L 153.420371 292.118397 
L 153.61737 287.209545 
L 154.011368 290.40824 
L 154.208367 291.813867 
L 154.405366 292.326907 
L 154.602365 291.232427 
L 154.799365 291.025315 
L 155.193363 291.075502 
L 155.390362 293.094895 
L 155.587361 284.889989 
L 155.981359 289.252464 
L 156.178358 270.391389 
L 156.375357 282.62746 
L 156.769356 288.855155 
L 156.966355 290.466784 
L 157.163354 289.543198 
L 157.360353 270.536756 
L 157.557352 281.321698 
L 157.754351 269.619151 
L 158.14835 285.723961 
L 158.345349 289.650379 
L 158.542348 290.371305 
L 158.14835 291.562784 
L 158.739347 291.327508 
L 158.936346 275.824679 
L 159.330344 289.527665 
L 159.527343 290.309948 
L 159.921342 293.538491 
L 160.118341 292.930769 
L 160.31534 290.912558 
L 160.512339 291.002395 
L 160.906337 293.99784 
L 161.103336 291.665882 
L 161.497335 293.65014 
L 161.694334 292.31483 
L 161.891333 293.742914 
L 162.088332 289.108266 
L 162.285331 291.388664 
L 162.48233 291.357002 
L 162.285331 291.224617 
L 162.679329 290.27927 
L 162.876328 290.685751 
L 163.073327 292.298161 
L 163.270327 291.695196 
L 163.664325 294.166648 
L 163.861324 292.62944 
L 164.058323 292.476243 
L 164.255322 293.753175 
L 164.64932 287.10281 
L 165.043319 289.097521 
L 164.64932 289.894341 
L 165.240318 291.108694 
L 165.437317 276.818215 
L 165.831315 288.891581 
L 166.028314 289.991906 
L 166.225313 292.168503 
L 166.422312 291.630367 
L 166.619312 277.080304 
L 166.816311 284.701675 
L 167.210309 291.427671 
L 167.407308 291.259951 
L 167.604307 268.562681 
L 167.801306 277.629572 
L 167.998305 242.6011 
L 168.392304 268.68291 
L 168.589303 238.127769 
L 168.983301 284.746409 
L 169.1803 289.505776 
L 169.574298 290.695617 
L 169.968297 293.766704 
L 170.165296 294.251095 
L 170.362295 292.671663 
L 170.756293 294.466043 
L 171.150291 291.235427 
L 171.741289 291.110131 
L 171.938288 291.101181 
L 172.135287 291.536283 
L 172.332286 291.314257 
L 172.529285 292.485789 
L 172.726284 288.492184 
L 173.120282 291.739999 
L 173.317282 291.416115 
L 173.514281 293.108638 
L 173.71128 292.100435 
L 173.908279 293.530471 
L 174.105278 292.311351 
L 174.302277 293.581909 
L 174.499276 292.33707 
L 174.893274 291.714651 
L 175.090274 292.925053 
L 175.484272 291.550437 
L 175.681271 292.978825 
L 175.87827 292.035528 
L 176.075269 286.234252 
L 175.87827 288.663242 
L 176.272268 283.284084 
L 176.469267 288.856431 
L 176.666267 289.974331 
L 177.060265 293.307507 
L 177.454263 291.64605 
L 177.848261 291.369141 
L 178.04526 281.840269 
L 178.439259 290.602486 
L 178.636258 265.972187 
L 179.030256 291.32844 
L 179.227255 293.072665 
L 179.424254 293.603186 
L 179.621253 287.018081 
L 179.818252 285.598543 
L 180.015252 288.345387 
L 180.212251 269.937851 
L 180.40925 282.37737 
L 180.606249 266.953842 
L 181.000247 285.365338 
L 181.197246 289.750397 
L 181.394245 275.406402 
L 181.591244 284.770929 
L 181.985243 289.944086 
L 182.182242 290.518159 
L 182.379241 271.254769 
L 182.57624 278.975616 
L 182.773239 270.747676 
L 182.970238 267.766143 
L 183.167237 279.429187 
L 183.758235 288.150554 
L 183.955234 291.621467 
L 184.152233 291.356849 
L 184.349232 291.444329 
L 184.546231 281.072712 
L 184.74323 284.251283 
L 185.137229 292.359063 
L 185.531227 291.408939 
L 185.925225 294.221363 
L 186.122224 293.272205 
L 186.319223 294.1265 
L 186.516222 292.609366 
L 186.713222 293.519072 
L 187.10722 293.064219 
L 187.304219 288.369339 
L 187.698217 290.411508 
L 187.895216 284.313871 
L 188.289214 291.71591 
L 188.486214 282.612533 
L 188.880212 291.551104 
L 189.077211 291.321668 
L 189.471209 293.819033 
L 189.668208 293.07104 
L 189.865207 286.504526 
L 190.062207 290.731458 
L 189.865207 290.911845 
L 190.259206 291.002038 
L 190.456205 292.818245 
L 190.653204 291.955238 
L 190.850203 286.437281 
L 191.047202 289.928494 
L 191.244201 290.373632 
L 191.4412 286.337163 
L 191.638199 290.837819 
L 191.835199 290.626889 
L 192.032198 292.599252 
L 192.229197 272.064783 
L 192.623195 287.886817 
L 193.017193 293.16718 
L 193.411192 294.350132 
L 193.214192 294.472795 
L 193.608191 291.230653 
L 194.002189 276.2405 
L 194.199188 284.912695 
L 194.593186 289.547347 
L 194.987184 292.685614 
L 195.184184 291.888923 
L 195.381183 284.896924 
L 195.775181 292.582825 
L 196.169179 294.44608 
L 196.366178 289.290586 
L 196.563177 290.191409 
L 196.760177 292.458152 
L 196.957176 292.295302 
L 197.154175 276.088788 
L 197.351174 276.2103 
L 197.548173 285.467623 
L 197.942171 291.312283 
L 198.13917 291.202257 
L 198.336169 291.147244 
L 198.533169 292.728903 
L 198.730168 291.910567 
L 198.927167 293.151703 
L 199.124166 283.58756 
L 199.518164 290.367336 
L 200.109162 293.187649 
L 200.306161 292.13994 
L 200.700159 293.643573 
L 201.094157 291.882484 
L 201.291156 293.202015 
L 201.094157 293.861781 
L 201.488155 292.785415 
L 201.685154 290.328653 
L 201.882154 291.615453 
L 202.276152 278.519233 
L 202.67015 290.432489 
L 202.867149 290.76236 
L 203.064148 292.228084 
L 203.261147 291.660158 
L 203.458147 291.991602 
L 203.655146 271.760958 
L 204.049144 288.474161 
L 204.443142 292.542937 
L 204.640141 291.817584 
L 204.83714 292.180261 
L 205.034139 289.438362 
L 205.231139 292.23101 
L 205.428138 291.376926 
L 205.625137 291.849986 
L 205.822136 291.471109 
L 206.019135 293.214756 
L 206.216134 292.768901 
L 206.019135 282.077781 
L 206.610132 289.535656 
L 206.807132 291.693687 
L 207.004131 279.388153 
L 207.20113 283.042308 
L 207.398129 288.765635 
L 207.595128 270.147974 
L 207.792127 282.318468 
L 208.186125 290.398934 
L 208.383124 292.479999 
L 208.580124 291.786115 
L 208.777123 260.668793 
L 209.171121 283.486372 
L 209.565119 289.190766 
L 209.762118 286.844672 
L 210.156117 292.271132 
L 210.353116 293.372362 
L 210.550115 292.232297 
L 210.747114 285.068611 
L 211.141112 291.107939 
L 211.338111 291.100085 
L 211.53511 280.130298 
L 211.732109 285.611265 
L 211.929109 246.591946 
L 212.323107 279.96716 
L 212.717105 258.639525 
L 213.111103 286.469908 
L 213.308102 269.000111 
L 213.505102 281.84804 
L 213.8991 289.528464 
L 214.096099 291.930247 
L 214.293098 287.115471 
L 214.884095 290.772126 
L 215.081094 290.932179 
L 215.278094 284.374902 
L 215.475093 287.733567 
L 215.672092 276.370258 
L 216.06609 289.00002 
L 216.263089 291.833753 
L 216.460088 274.196105 
L 217.051086 289.124248 
L 217.445084 293.563996 
L 217.642083 292.328114 
L 217.839082 282.918635 
L 218.036081 286.895539 
L 218.23308 279.98256 
L 218.627079 290.931739 
L 219.021077 293.672213 
L 219.218076 293.340759 
L 219.415075 292.216495 
L 219.612074 293.477608 
L 220.006072 291.688576 
L 220.203071 294.135951 
L 220.400071 289.477305 
L 220.59707 291.734295 
L 220.794069 292.442576 
L 220.991068 291.292177 
L 221.188067 291.192204 
L 221.385066 289.728938 
L 221.582065 283.827745 
L 221.779064 287.2402 
L 221.582065 282.583376 
L 222.173063 288.855123 
L 222.370062 285.577909 
L 222.567061 289.653801 
L 222.76406 290.988424 
L 222.961059 276.754079 
L 223.355057 292.597907 
L 223.552056 247.887383 
L 223.749056 271.20989 
L 223.946055 274.215395 
L 224.143054 284.828803 
L 224.340053 268.179558 
L 224.734051 285.364063 
L 224.93105 290.380678 
L 224.734051 248.976653 
L 225.522048 260.82685 
L 225.719047 256.178582 
L 225.916046 273.922087 
L 225.719047 262.7262 
L 226.113045 277.250286 
L 226.310044 264.3903 
L 226.507043 277.741266 
L 226.901041 260.874365 
L 227.098041 234.223496 
L 227.492039 276.281619 
L 227.886037 290.499679 
L 228.083036 279.806534 
L 228.280035 285.449382 
L 228.477034 285.926397 
L 229.068032 290.878753 
L 229.265031 291.79172 
L 229.46203 291.441976 
L 230.250026 277.418098 
L 230.447026 284.163586 
L 231.038023 289.811101 
L 231.432021 292.009053 
L 231.62902 291.550642 
L 231.826019 293.206777 
L 232.023019 292.149504 
L 232.220018 293.710304 
L 232.614016 292.401268 
L 232.811015 293.679836 
L 233.008014 270.40719 
L 233.205013 265.364521 
L 233.402012 278.228376 
L 233.599011 242.900502 
L 233.796011 247.215408 
L 234.387008 283.409744 
L 234.584007 289.433818 
L 234.978005 292.784267 
L 235.175004 291.938249 
L 235.372004 282.028664 
L 235.766002 289.265916 
L 236.356999 291.47935 
L 236.553998 278.926647 
L 236.947996 288.050835 
L 237.538994 292.338491 
L 237.341995 291.715361 
L 237.932992 290.106938 
L 238.523989 291.727818 
L 238.720989 271.629066 
L 238.917988 282.459591 
L 239.311986 290.714314 
L 239.508985 292.357639 
L 239.705984 291.724935 
L 239.902983 290.225107 
L 240.099982 292.378753 
L 240.296981 291.735492 
L 240.493981 293.148558 
L 239.902983 272.339436 
L 240.69098 281.134603 
L 240.887979 286.113417 
L 241.281977 288.602824 
L 241.478976 290.867974 
L 241.675975 254.82928 
L 242.069974 281.357572 
L 242.463972 291.424113 
L 242.660971 292.772531 
L 243.251968 272.151422 
L 243.448967 275.700265 
L 243.645966 284.283459 
L 243.842966 283.292076 
L 244.039965 272.905906 
L 244.236964 283.241351 
L 244.630962 244.587298 
L 245.02496 277.0767 
L 245.221959 284.084465 
L 245.418959 262.312679 
L 245.812957 285.811018 
L 246.009956 289.067032 
L 246.206955 273.418086 
L 246.403954 218.516514 
L 246.797952 275.352401 
L 246.994951 283.222316 
L 247.191951 245.397472 
L 247.585949 281.988048 
L 247.782948 281.901065 
L 248.176946 291.49661 
L 248.373945 291.294421 
L 248.570944 279.459767 
L 248.767944 243.516197 
L 248.964943 265.10633 
L 249.161942 236.339479 
L 249.55594 276.305101 
L 249.752939 241.938864 
L 249.949938 246.734589 
L 250.146937 268.91341 
L 250.540936 285.330023 
L 250.737935 259.501264 
L 250.934934 280.37845 
L 251.328932 288.825889 
L 251.525931 289.95906 
L 251.72293 289.408198 
L 252.116929 290.957903 
L 252.313928 285.903997 
L 252.510927 290.432779 
L 252.707926 277.135622 
L 252.904925 271.994617 
L 253.101924 272.751887 
L 253.298923 250.146718 
L 252.904925 265.172544 
L 253.495922 274.747646 
L 253.692921 284.152116 
L 254.08692 289.357202 
L 254.283919 291.521829 
L 254.677917 291.199631 
L 254.874916 292.644009 
L 255.071915 291.86812 
L 255.268914 277.853293 
L 255.662913 289.906895 
L 255.859912 281.708026 
L 256.056911 287.962627 
L 256.25391 289.527429 
L 256.450909 292.320395 
L 256.844907 291.245752 
L 257.041906 283.863752 
L 257.238906 288.093399 
L 257.435905 289.592815 
L 257.632904 281.550986 
L 258.026902 288.70692 
L 258.4209 290.495904 
L 258.617899 290.034424 
L 258.814898 290.850008 
L 259.011898 290.302199 
L 259.208897 290.697215 
L 259.405896 292.685625 
L 259.602895 291.888928 
L 259.996893 293.608699 
L 260.193892 291.800994 
L 260.390891 288.006594 
L 260.587891 247.789611 
L 260.981889 279.568836 
L 261.178888 286.649264 
L 260.981889 289.48253 
L 261.375887 290.287381 
L 261.769885 273.954628 
L 262.163883 283.135212 
L 261.769885 274.573099 
L 262.360883 282.497542 
L 262.754881 290.670468 
L 262.95188 291.663063 
L 263.148879 287.332045 
L 263.542877 290.721803 
L 263.739876 290.907017 
L 263.936876 292.241907 
L 263.542877 291.667069 
L 263.936876 292.621933 
L 264.133875 293.831831 
L 264.330874 292.462031 
L 264.527873 293.225177 
L 264.724872 292.774112 
L 264.921871 283.141634 
L 265.315869 289.104582 
L 265.512868 290.098407 
L 265.709868 273.65029 
L 265.906867 283.729189 
L 266.103866 267.629752 
L 266.300865 279.976399 
L 266.497864 265.753356 
L 266.694863 280.209859 
L 266.891862 252.360149 
L 267.285861 282.233417 
L 267.48286 287.870671 
L 268.073857 292.261869 
L 268.467855 278.568975 
L 268.861853 290.449027 
L 269.058853 292.488979 
L 269.255852 291.790605 
L 269.452851 286.871056 
L 269.64985 271.922369 
L 270.043848 285.782945 
L 270.240847 286.239704 
L 270.437846 289.570979 
L 270.634846 246.917346 
L 270.831845 249.22383 
L 271.225843 280.625131 
L 271.422842 283.660797 
L 271.619841 288.549865 
L 272.013839 290.45664 
L 272.604837 293.659697 
L 272.801836 292.991372 
L 272.998835 293.720546 
L 273.195834 293.021796 
L 273.392833 293.196269 
L 273.786831 292.772217 
L 273.983831 293.246377 
L 274.18083 283.377767 
L 274.377829 289.136894 
L 274.574828 290.72997 
L 274.771827 290.911101 
L 274.968826 291.866607 
L 275.165825 287.083651 
L 275.756823 292.775609 
L 275.953822 293.743065 
L 276.150821 294.147897 
L 275.953822 294.429209 
L 276.34782 293.376128 
L 276.741818 291.663205 
L 276.938817 291.993126 
L 277.529815 291.437974 
L 277.923813 275.818256 
L 278.120812 179.466127 
L 278.51481 265.283686 
L 278.711809 258.407 
L 279.105808 284.015713 
L 279.499806 291.050991 
L 279.696805 276.345786 
L 280.090803 288.328731 
L 280.287802 290.721508 
L 280.484801 290.90687 
L 280.8788 291.969002 
L 281.272798 289.663011 
L 281.469797 292.007087 
L 281.666796 293.014915 
L 281.469797 293.51883 
L 281.863795 292.30553 
L 282.060794 291.698881 
L 282.257793 292.637839 
L 282.651792 275.402714 
L 283.04579 289.746449 
L 283.242789 288.221456 
L 283.439788 290.919458 
L 283.636787 282.214307 
L 283.242789 284.455385 
L 284.030786 289.567348 
L 284.424784 233.41843 
L 284.818782 281.455514 
L 285.409779 290.192229 
L 285.606778 290.64223 
L 285.803778 271.086272 
L 286.000777 270.560777 
L 286.197776 280.364948 
L 286.394775 265.947631 
L 286.591774 269.728394 
L 286.985772 287.377706 
L 287.182771 273.849779 
L 286.591774 280.273121 
L 287.379771 283.484792 
L 287.57677 274.934841 
L 287.773769 283.628944 
L 287.970768 267.579629 
L 288.364766 281.917254 
L 288.167767 288.415671 
L 288.561765 287.556067 
L 289.152763 291.915445 
L 289.349762 293.588039 
L 289.546761 293.869098 
L 289.74376 292.480665 
L 289.940759 282.994911 
L 290.334757 291.227561 
L 290.531756 291.159896 
L 290.728756 293.250321 
L 290.925755 272.390317 
L 291.122754 276.526273 
L 291.516752 287.450742 
L 291.713751 288.172544 
L 292.107749 290.727271 
L 292.304748 291.349328 
L 292.501748 291.22078 
L 292.698747 293.553641 
L 292.895746 292.322936 
L 293.092745 282.916047 
L 293.486743 284.806255 
L 294.077741 292.88946 
L 294.27474 280.483207 
L 294.668738 262.905197 
L 294.865737 281.036062 
L 295.062736 286.6924 
L 295.259735 288.892316 
L 295.653733 274.05812 
L 295.850733 281.338993 
L 296.047732 244.45581 
L 296.44173 277.966961 
L 296.638729 286.505472 
L 296.835728 285.395727 
L 297.032727 273.737943 
L 297.229726 283.877158 
L 297.426726 247.235565 
L 298.017723 282.695343 
L 298.411721 289.608417 
L 298.60872 290.350324 
L 298.805719 292.391582 
L 299.396717 290.826709 
L 299.593716 291.122277 
L 299.987714 293.94553 
L 300.184713 292.518881 
L 300.381712 293.863744 
L 300.578711 274.643365 
L 300.775711 271.594825 
L 301.169709 290.338014 
L 301.366708 290.715123 
L 301.563707 291.519085 
L 301.760706 277.310871 
L 301.957705 271.234034 
L 302.351703 286.799258 
L 302.745702 290.55561 
L 302.942701 291.439328 
L 303.336699 271.707013 
L 303.533698 286.877203 
L 303.730697 288.984717 
L 304.124695 288.912527 
L 304.321695 248.242577 
L 303.730697 269.667404 
L 304.518694 275.323438 
L 304.912692 241.448033 
L 305.30669 286.147258 
L 305.503689 281.586515 
L 305.700688 288.257865 
L 305.897688 289.675048 
L 306.094687 274.892006 
L 306.488685 286.848244 
L 306.882683 286.099945 
L 307.079682 268.815129 
L 307.276681 281.775858 
L 307.47368 287.049452 
L 307.867679 291.777823 
L 308.064678 291.435027 
L 308.261677 291.879037 
L 308.064678 282.552751 
L 308.458676 267.041532 
L 308.852674 287.802441 
L 309.246673 290.885191 
L 309.443672 291.348175 
L 309.640671 281.990254 
L 310.034669 289.411121 
L 310.231668 285.985195 
L 310.428667 278.526129 
L 310.822665 282.68682 
L 311.019665 272.603277 
L 311.216664 243.232795 
L 311.413663 267.777921 
L 311.807661 284.529714 
L 312.201659 290.813257 
L 312.398658 290.952744 
L 312.595658 288.323794 
L 312.989656 290.400122 
L 313.186655 291.361584 
L 313.383654 293.192621 
L 313.580653 279.075521 
L 313.974651 289.512542 
L 314.17165 292.19501 
L 314.36865 275.915099 
L 314.762648 289.907861 
L 315.156646 293.792349 
L 315.353645 292.44229 
L 315.550644 293.784991 
L 315.747643 294.319626 
L 315.944643 206.988441 
L 316.53564 262.271585 
L 316.929638 286.08067 
L 317.520635 233.870265 
L 317.914634 277.641473 
L 318.111633 285.617272 
L 318.308632 288.970159 
L 318.505631 289.231965 
L 318.70263 291.947088 
L 318.899629 291.51966 
L 318.70263 293.090935 
L 318.899629 292.091583 
L 319.096628 275.573155 
L 319.490627 289.425259 
L 319.884625 291.290896 
L 320.081624 291.191564 
L 320.278623 280.706651 
L 320.672621 290.523623 
L 320.86962 288.610043 
L 321.854616 294.367771 
L 322.051615 288.334233 
L 322.248614 291.665084 
L 322.642613 271.597699 
L 323.036611 292.214765 
L 323.23361 294.080598 
L 323.430609 293.201822 
L 323.627608 293.31989 
L 323.824607 292.206061 
L 324.415605 293.994079 
L 324.612604 292.543155 
L 325.006602 293.960528 
L 325.203601 292.52638 
L 325.4006 293.589965 
L 325.597599 292.341098 
L 325.794598 293.760492 
L 325.991598 288.927879 
L 326.582595 291.198378 
L 326.976593 291.118768 
L 327.173592 280.275315 
L 327.56759 289.615004 
L 327.76459 292.817256 
L 328.158588 294.089915 
L 328.355587 293.206481 
L 328.552586 293.160383 
L 328.749585 293.949552 
L 329.143583 290.707619 
L 329.340583 291.910952 
L 329.537582 289.084139 
L 329.734581 281.296648 
L 329.93158 287.881188 
L 330.128579 288.544098 
L 330.916575 293.663404 
L 331.507573 291.736548 
L 331.901571 293.695636 
L 332.09857 293.656548 
L 332.295569 294.368091 
L 332.492568 292.730161 
L 332.689568 283.119659 
L 332.886567 283.809492 
L 333.083566 289.485537 
L 333.280565 288.063537 
L 333.477564 291.106847 
L 333.871562 291.714947 
L 334.068561 293.403664 
L 334.26556 250.488146 
L 334.46256 283.356993 
L 334.856558 293.352942 
L 335.250556 291.657409 
L 335.447555 293.094904 
L 335.644554 292.452941 
L 335.841553 292.387994 
L 336.038553 291.740113 
L 336.235552 291.808209 
L 336.62955 291.45022 
L 336.826549 292.835105 
L 337.023548 291.52795 
L 337.220547 293.207 
L 337.417546 283.103849 
L 337.614545 287.490077 
L 337.811545 289.291154 
L 338.008544 292.193337 
L 338.205543 291.367508 
L 338.402542 293.352361 
L 338.599541 272.441338 
L 338.79654 283.829609 
L 339.387538 293.632935 
L 339.584537 294.419577 
L 339.781536 293.635058 
L 339.978535 293.605927 
L 340.175534 294.392906 
L 340.372533 294.196162 
L 340.569532 294.613135 
L 340.766531 294.547252 
L 340.96353 292.819742 
L 341.357529 294.738285 
L 341.554528 292.915258 
L 341.751527 293.898473 
L 342.145525 292.716903 
L 342.342524 293.807434 
L 342.539523 293.06524 
L 342.736523 294.208881 
L 342.933522 294.179519 
L 343.130521 286.520482 
L 343.721518 292.121819 
L 343.918517 291.216923 
L 344.312515 293.745013 
L 344.509515 283.914304 
L 344.903513 288.118675 
L 345.100512 280.813916 
L 345.297511 287.864278 
L 345.49451 280.686717 
L 345.691509 285.889474 
L 345.888508 268.709894 
L 346.282507 290.535697 
L 346.479506 289.542796 
L 346.676505 277.658491 
L 346.873504 281.404285 
L 347.070503 288.670245 
L 347.267502 289.881238 
L 347.464501 292.414387 
L 347.6615 292.368717 
L 348.055499 285.136821 
L 348.449497 291.258576 
L 348.646496 291.175404 
L 348.843495 291.749225 
L 349.040494 293.099208 
L 349.237493 250.335918 
L 349.828491 288.527237 
L 350.02549 289.809734 
L 350.419488 293.789977 
L 350.616487 294.527421 
L 350.813486 292.809826 
L 351.010485 293.668624 
L 351.207485 272.599469 
L 351.601483 289.007867 
L 351.798482 290.665457 
L 351.995481 291.293242 
L 352.19248 288.994852 
L 352.389479 291.325641 
L 352.586478 291.208936 
L 352.783477 293.051216 
L 352.980477 292.687131 
L 353.177476 285.684966 
L 353.571474 292.341083 
L 353.768473 278.082873 
L 354.162471 290.420073 
L 354.55647 291.008212 
L 355.147467 291.081729 
L 355.344466 282.295443 
L 355.935463 293.119142 
L 356.132462 292.105687 
L 356.329462 293.655953 
L 356.526461 292.374092 
L 356.72346 288.434907 
L 356.920459 288.664627 
L 357.314457 291.100738 
L 357.511456 291.096485 
L 357.708455 288.896474 
L 358.102454 291.1587 
L 358.299453 292.845549 
L 358.496452 291.96889 
L 358.693451 249.770759 
L 358.89045 262.072062 
L 359.087449 234.822345 
L 359.481447 278.589403 
L 359.678447 286.687976 
L 360.072445 292.707527 
L 360.269444 293.965144 
L 360.466443 292.528688 
L 360.663442 292.250036 
L 361.25444 290.798817 
L 361.648438 291.018878 
L 361.845437 287.063274 
L 362.239435 290.084992 
L 362.633433 277.653116 
L 363.027432 288.34786 
L 363.815428 294.064481 
L 364.012427 293.611793 
L 364.209426 283.344633 
L 364.406425 287.83384 
L 364.603425 287.265151 
L 364.800424 280.387154 
L 364.997423 265.958734 
L 365.194422 280.625014 
L 365.391421 286.842352 
L 365.58842 288.967292 
L 365.785419 292.69257 
L 365.982418 272.111442 
L 366.376417 288.363774 
L 366.770415 293.218525 
L 366.967414 294.111781 
L 367.361412 294.500179 
L 367.558411 284.004668 
L 367.75541 289.573272 
L 367.95241 290.332752 
L 368.149409 292.867671 
L 368.346408 291.979951 
L 368.740406 293.984184 
L 368.937405 294.516303 
L 369.134404 290.490708 
L 369.528402 293.759853 
L 369.725402 294.25296 
L 369.922401 294.204983 
L 370.1194 292.648607 
L 370.316399 288.573593 
L 370.710397 293.334594 
L 370.907396 293.305764 
L 371.104395 272.418039 
L 371.301395 277.406313 
L 371.695393 290.254837 
L 371.892392 291.288942 
L 372.089391 290.666655 
L 372.28639 271.098484 
L 372.483389 281.095358 
L 372.680388 277.302257 
L 372.877387 243.217208 
L 373.271386 281.742964 
L 373.665384 288.393759 
L 373.862383 269.962037 
L 374.256381 285.809683 
L 374.45338 291.124138 
L 374.65038 272.194951 
L 375.044378 286.367911 
L 375.241377 279.938534 
L 375.438376 287.260095 
L 375.635375 247.416361 
L 376.029373 280.173264 
L 376.226372 287.518088 
L 376.620371 290.814103 
L 376.81737 288.964605 
L 377.014369 290.028418 
L 377.211368 292.048594 
L 377.408367 291.570413 
L 377.605366 291.767412 
L 377.802365 291.429822 
L 377.999365 282.297153 
L 378.196364 288.621783 
L 378.393363 289.857007 
L 378.590362 271.561385 
L 378.98436 286.20952 
L 379.181359 290.720609 
L 379.575357 293.83996 
L 379.772357 292.466096 
L 380.166355 294.069431 
L 380.363354 292.580831 
L 380.560353 292.925166 
L 380.757352 292.008699 
L 380.954351 293.679775 
L 381.15135 294.31909 
L 381.34835 292.70566 
L 381.545349 293.808929 
L 381.742348 286.30145 
L 381.939347 287.106651 
L 382.333345 290.382517 
L 382.530344 290.737374 
L 382.924342 292.124838 
L 383.318341 291.350383 
L 383.51534 291.221307 
L 383.712339 291.772177 
L 383.909338 291.432204 
L 384.106337 291.792632 
L 384.500335 291.267332 
L 385.091333 291.114119 
L 385.485331 293.741373 
L 385.879329 294.538864 
L 386.076328 293.430955 
L 386.470327 294.618353 
L 386.667326 292.855292 
L 386.864325 292.589169 
L 387.061324 286.140465 
L 387.455322 291.982726 
L 387.652321 291.537479 
L 387.84932 286.919086 
L 388.243319 292.460435 
L 388.440318 292.391741 
L 388.637317 283.415741 
L 388.834316 289.088584 
L 389.031315 290.591319 
L 389.228314 293.451568 
L 389.425313 293.825873 
L 389.819312 292.698753 
L 390.410309 291.493862 
L 390.607308 289.095162 
L 391.001306 290.592964 
L 391.395305 291.167222 
L 391.592304 286.733958 
L 391.789303 290.579233 
L 391.986302 289.911707 
L 392.3803 292.840919 
L 392.774298 291.22008 
L 392.971297 293.053194 
L 393.168297 292.68812 
L 393.365296 291.890176 
L 393.562295 288.893994 
L 393.759294 290.60852 
L 393.956293 289.6669 
L 394.350291 268.878225 
L 394.744289 290.382241 
L 394.941289 292.165139 
L 395.138288 271.681371 
L 395.532286 282.959928 
L 395.926284 269.528591 
L 396.517282 283.969598 
L 396.714281 285.363556 
L 397.108279 289.660062 
L 397.305278 291.004114 
L 397.502277 291.048173 
L 397.699276 292.058054 
L 397.896275 279.297901 
L 398.093274 283.231838 
L 398.487273 286.18229 
L 398.487273 286.18229 
" style="fill:none;stroke:#ff7f0e;stroke-linecap:square;stroke-width:1.5;"/>
   </g>
   <g id="line2d_16">
    <path clip-path="url(#p5c63bf42cb)" d="M 73.832727 295.487653 
L 398.487273 295.487682 
L 398.487273 295.487682 
" style="fill:none;stroke:#2ca02c;stroke-linecap:square;stroke-width:1.5;"/>
   </g>
   <g id="line2d_17">
    <path clip-path="url(#p5c63bf42cb)" d="M 73.832727 295.487498 
L 398.487273 295.487461 
L 73.832727 295.487489 
L 398.487273 295.487461 
" style="fill:none;stroke:#d62728;stroke-linecap:square;stroke-width:1.5;"/>
   </g>
   <g id="line2d_18">
    <path clip-path="url(#p5c63bf42cb)" d="M 73.832727 295.478686 
L 118.551527 295.480037 
L 121.703513 295.487763 
L 132.932462 295.469691 
L 133.129462 295.289412 
L 133.326461 295.289412 
L 133.52346 295.46125 
L 146.131403 295.466754 
L 146.525402 295.351204 
L 147.707396 295.459461 
L 146.9194 295.468762 
L 157.557352 295.390773 
L 157.95135 295.46765 
L 162.088332 295.460469 
L 163.270327 295.442968 
L 227.886037 295.458224 
L 228.083036 295.27817 
L 228.280035 295.458224 
L 229.068032 295.416431 
L 229.265031 295.31718 
L 229.659029 295.381101 
L 398.487273 295.487598 
L 398.487273 295.487598 
" style="fill:none;stroke:#9467bd;stroke-linecap:square;stroke-width:1.5;"/>
   </g>
   <g id="line2d_19">
    <path clip-path="url(#p5c63bf42cb)" d="M 73.832727 295.451572 
L 73.832727 295.450214 
L 82.10669 295.446573 
L 82.303689 293.556083 
L 82.697688 294.910686 
L 83.288685 295.354965 
L 84.667679 295.434227 
L 86.63767 295.459917 
L 87.228667 295.453438 
L 87.425666 295.205921 
L 87.819665 295.406289 
L 91.365649 295.431749 
L 91.562648 295.316897 
L 92.153645 295.41971 
L 92.744643 295.402314 
L 93.532639 295.434284 
L 96.093628 295.418573 
L 97.472621 295.463422 
L 97.86662 295.404284 
L 98.851615 295.450788 
L 99.048614 294.321527 
L 99.442613 295.17926 
L 100.427608 295.452565 
L 103.382595 295.435651 
L 103.579594 295.274612 
L 103.973592 295.41866 
L 104.761589 295.470408 
L 105.155587 295.409451 
L 106.534581 295.460743 
L 108.504572 295.440811 
L 109.883566 295.457395 
L 112.050556 295.450183 
L 116.581536 295.426103 
L 116.778535 251.499365 
L 117.172533 283.523283 
L 117.566531 292.386004 
L 117.96053 294.666183 
L 118.354528 295.265711 
L 119.142524 295.443037 
L 128.007485 295.434705 
L 127.613486 295.41297 
L 128.204484 295.047203 
L 128.99248 295.318482 
L 129.189479 295.252701 
L 129.780477 295.344864 
L 130.371474 295.366303 
L 130.568473 246.005179 
L 130.765472 270.656512 
L 131.553469 292.089133 
L 131.750468 292.20609 
L 131.947467 293.803436 
L 132.341465 294.773451 
L 132.538464 294.995355 
L 132.735463 294.795084 
L 132.932462 295.022421 
L 133.129462 295.043876 
L 133.52346 295.377936 
L 133.917458 295.317621 
L 134.114457 294.949898 
L 135.296452 295.401594 
L 135.887449 295.35467 
L 136.281447 295.424913 
L 136.675446 295.420692 
L 137.069444 295.433859 
L 137.85744 295.272937 
L 138.448438 295.375609 
L 138.645437 295.067571 
L 139.039435 295.265321 
L 139.827432 295.389614 
L 141.403425 295.424882 
L 141.797423 295.383892 
L 143.176417 295.407092 
L 143.373416 295.243846 
L 143.570415 295.33197 
L 143.964413 295.287908 
L 144.161412 294.78769 
L 144.55541 295.275804 
L 144.75241 294.246035 
L 145.146408 295.120958 
L 145.540406 295.344364 
L 146.722401 295.322931 
L 146.9194 295.278664 
L 146.722401 295.366772 
L 147.510397 295.369251 
L 147.707396 294.119572 
L 146.9194 294.561413 
L 148.495393 295.186923 
L 149.480388 295.393059 
L 149.677387 295.258521 
L 150.071386 295.378665 
L 153.223372 295.353816 
L 153.814369 295.427168 
L 154.405366 295.394666 
L 154.602365 295.176528 
L 154.799365 295.275989 
L 155.193363 295.258092 
L 155.390362 295.292352 
L 155.587361 295.049385 
L 155.981359 295.254106 
L 160.512339 295.396056 
L 161.891333 295.424231 
L 162.285331 295.393857 
L 163.861324 295.40239 
L 164.058323 293.862718 
L 164.452321 295.022213 
L 164.64932 295.181653 
L 164.64932 295.132514 
L 166.028314 295.310432 
L 166.422312 295.370054 
L 178.833257 295.417546 
L 180.015252 295.431073 
L 182.182242 295.352655 
L 182.379241 275.344885 
L 182.773239 290.370764 
L 183.167237 294.14497 
L 183.561236 294.954298 
L 184.349232 295.318095 
L 185.137229 295.434321 
L 189.865207 295.363402 
L 190.062207 295.160896 
L 189.865207 295.264232 
L 191.638199 295.434002 
L 191.835199 295.335168 
L 192.426196 295.379393 
L 193.214192 295.456061 
L 197.351174 295.329772 
L 197.548173 295.142153 
L 198.927167 295.366956 
L 199.321165 295.349223 
L 199.715163 295.344341 
L 200.50316 295.387255 
L 200.897158 295.370271 
L 202.276152 295.346837 
L 202.67015 295.377281 
L 202.867149 295.375457 
L 203.064148 295.166931 
L 203.458147 295.307888 
L 204.443142 295.378803 
L 204.640141 294.83905 
L 205.034139 295.249417 
L 205.231139 295.353655 
L 205.428138 295.246455 
L 206.019135 295.34522 
L 206.216134 295.196822 
L 206.019135 295.144601 
L 207.004131 295.320154 
L 207.595128 295.329603 
L 208.580124 295.388837 
L 211.732109 295.374637 
L 212.323107 295.386474 
L 213.111103 295.340735 
L 213.702101 295.419631 
L 213.8991 293.695508 
L 214.096099 294.938307 
L 214.490097 295.234194 
L 216.06609 295.347563 
L 216.854086 295.443611 
L 217.051086 295.33257 
L 217.445084 295.337241 
L 218.824078 295.346772 
L 219.021077 295.152588 
L 219.415075 295.359457 
L 219.809073 295.306632 
L 220.006072 295.385849 
L 220.400071 295.098908 
L 220.59707 295.197616 
L 220.991068 294.170742 
L 221.385066 295.125104 
L 221.976064 295.254806 
L 222.567061 295.346569 
L 223.552056 295.428226 
L 223.946055 295.361907 
L 224.340053 295.392231 
L 224.734051 295.343569 
L 224.93105 295.370431 
L 224.734051 251.471529 
L 225.522048 289.682671 
L 225.916046 293.875289 
L 225.719047 293.932366 
L 226.310044 294.878713 
L 226.704042 295.11496 
L 227.492039 295.014003 
L 227.689038 295.046071 
L 227.886037 295.250249 
L 228.083036 295.166087 
L 228.280035 295.302067 
L 228.477034 294.808931 
L 228.871033 295.159478 
L 229.068032 295.208465 
L 229.265031 295.125474 
L 229.46203 295.196105 
L 230.841024 295.283402 
L 231.038023 295.165912 
L 231.62902 295.316424 
L 233.205013 295.38798 
L 233.402012 295.292044 
L 233.796011 295.306284 
L 233.99301 295.199333 
L 234.781006 295.286174 
L 234.978005 294.629894 
L 235.569003 295.227187 
L 237.341995 295.319413 
L 237.538994 294.524553 
L 237.341995 294.915952 
L 238.129991 295.269445 
L 238.720989 295.249616 
L 238.917988 295.351866 
L 239.311986 295.336413 
L 239.705984 295.300869 
L 240.296981 295.246006 
L 240.493981 295.348544 
L 239.902983 293.835795 
L 240.69098 294.56606 
L 240.887979 294.944195 
L 241.872974 295.244468 
L 243.251968 295.323332 
L 243.448967 295.207857 
L 243.842966 295.289677 
L 244.236964 295.282152 
L 244.433963 293.8026 
L 244.827961 294.932097 
L 245.02496 295.264622 
L 246.600953 295.298896 
L 246.994951 295.328157 
L 247.38895 295.312181 
L 248.964943 295.260297 
L 249.161942 295.109343 
L 249.752939 295.263237 
L 249.949938 295.231453 
L 250.146937 294.382889 
L 250.343936 294.775404 
L 250.540936 293.94991 
L 250.737935 294.203826 
L 250.934934 294.809065 
L 251.328932 295.203384 
L 251.72293 295.278372 
L 253.101924 295.318391 
L 252.904925 295.293943 
L 254.677917 295.235404 
L 259.799894 295.270944 
L 259.996893 294.922488 
L 260.390891 295.189332 
L 260.981889 295.349985 
L 261.769885 295.317019 
L 262.163883 295.337096 
L 261.769885 295.274606 
L 262.360883 287.989609 
L 262.754881 293.506415 
L 262.95188 294.905827 
L 263.148879 295.17947 
L 264.527873 295.376736 
L 264.724872 295.33653 
L 264.921871 295.087594 
L 265.315869 295.244502 
L 265.709868 295.280656 
L 265.906867 295.327388 
L 266.103866 295.064274 
L 266.300865 295.233432 
L 266.694863 295.182139 
L 267.088861 295.396772 
L 267.876858 295.304311 
L 268.270856 295.340432 
L 269.452851 295.328152 
L 269.64985 295.143271 
L 269.846849 295.11512 
L 270.043848 295.222784 
L 270.437846 295.273421 
L 272.013839 295.327859 
L 272.407838 295.358232 
L 272.801836 295.382272 
L 277.135816 295.323637 
L 277.529815 295.294775 
L 278.317811 295.273675 
L 278.51481 294.581607 
L 278.711809 294.830349 
L 278.908808 294.848153 
L 279.105808 295.148474 
L 279.499806 295.210602 
L 279.696805 295.18446 
L 280.090803 295.368925 
L 280.681801 295.360353 
L 281.075799 295.353315 
L 281.272798 295.341798 
L 281.469797 295.187531 
L 281.666796 295.272352 
L 281.469797 295.314763 
L 281.863795 295.318128 
L 282.454793 295.328134 
L 282.848791 295.391125 
L 283.636787 295.360633 
L 283.242789 295.348822 
L 285.606778 295.357887 
L 285.803778 295.235624 
L 286.394775 295.30379 
L 286.591774 295.318303 
L 286.788773 295.084788 
L 287.182771 295.208924 
L 286.591774 295.085458 
L 287.57677 295.001345 
L 287.970768 295.216721 
L 288.758764 295.330719 
L 288.955763 295.251683 
L 289.546761 295.378516 
L 289.74376 295.299648 
L 290.137758 295.319204 
L 290.334757 294.996586 
L 290.728756 295.31027 
L 291.122754 295.304372 
L 291.319753 295.138621 
L 291.713751 295.240174 
L 291.91075 294.966512 
L 292.304748 295.255163 
L 294.077741 295.378726 
L 294.27474 295.41578 
L 294.668738 295.289882 
L 295.259735 295.368508 
L 295.456734 295.377689 
L 295.653733 295.07437 
L 295.850733 295.082529 
L 296.44173 295.37279 
L 297.426726 295.351782 
L 299.790715 295.318561 
L 300.381712 295.408892 
L 300.578711 295.202414 
L 301.563707 295.349827 
L 301.957705 295.208643 
L 302.154704 295.344365 
L 302.745702 295.277294 
L 303.1397 295.295617 
L 303.730697 295.277905 
L 303.730697 295.300995 
L 306.094687 295.276302 
L 306.291686 295.362548 
L 307.079682 295.263416 
L 307.67068 295.308264 
L 308.655675 295.37212 
L 309.443672 295.332487 
L 310.034669 295.243417 
L 310.231668 295.202902 
L 310.428667 294.930756 
L 310.625666 288.391746 
L 311.019665 293.456263 
L 311.216664 293.861608 
L 311.413663 294.628239 
L 312.00466 295.186099 
L 312.595658 295.286966 
L 313.186655 295.358275 
L 313.580653 295.280151 
L 313.974651 295.259174 
L 314.762648 295.385019 
L 315.747643 295.39264 
L 315.944643 294.861929 
L 316.141642 251.342541 
L 316.53564 284.3536 
L 316.929638 292.593413 
L 317.323636 294.60696 
L 317.717635 295.238971 
L 320.081624 295.375875 
L 324.612604 295.345926 
L 325.006602 295.349932 
L 326.976593 295.235302 
L 327.173592 295.191712 
L 327.56759 295.292869 
L 328.158588 295.410043 
L 328.355587 295.346316 
L 328.749585 295.436961 
L 329.143583 295.403278 
L 329.537582 295.356981 
L 329.734581 294.367506 
L 329.93158 294.84782 
L 330.128579 294.194599 
L 330.522577 295.081282 
L 330.916575 295.313089 
L 335.447555 295.45267 
L 335.644554 293.260147 
L 336.038553 294.886048 
L 336.235552 295.056198 
L 337.220547 295.438158 
L 340.175534 295.416834 
L 340.372533 295.327059 
L 340.96353 295.451628 
L 342.342524 295.465421 
L 348.843495 295.390078 
L 349.828491 295.468474 
L 356.329462 295.445026 
L 358.102454 295.4468 
L 358.693451 295.361979 
L 359.678447 295.44576 
L 361.05744 295.464349 
L 362.239435 295.454995 
L 363.42143 295.19068 
L 363.618429 295.031403 
L 363.815428 295.252895 
L 364.012427 295.289547 
L 364.209426 295.199397 
L 364.800424 295.294937 
L 364.997423 295.214458 
L 365.391421 295.355377 
L 365.982418 295.407501 
L 378.590362 295.440708 
L 378.787361 295.231774 
L 379.181359 295.287593 
L 379.575357 295.414749 
L 379.772357 295.276939 
L 380.166355 295.348234 
L 382.136346 295.394579 
L 382.333345 295.176492 
L 382.727343 295.344794 
L 383.121342 295.406903 
L 383.318341 295.284645 
L 384.106337 295.429533 
L 387.258323 295.402666 
L 388.04632 295.443533 
L 389.819312 295.404758 
L 390.410309 295.407999 
L 390.607308 295.25019 
L 392.577299 295.3876 
L 393.365296 295.380371 
L 393.562295 290.639092 
L 393.956293 294.115913 
L 394.350291 294.60484 
L 394.744289 294.9478 
L 394.941289 294.459105 
L 395.138288 287.529833 
L 395.532286 293.234798 
L 395.729285 292.778922 
L 396.320282 294.837652 
L 396.91128 295.164364 
L 397.305278 295.13398 
L 398.093274 295.320277 
L 398.487273 295.332695 
L 398.487273 295.332695 
" style="fill:none;stroke:#8c564b;stroke-linecap:square;stroke-width:1.5;"/>
   </g>
   <g id="line2d_20">
    <path clip-path="url(#p5c63bf42cb)" d="M 73.832727 295.487765 
L 398.487273 295.487903 
L 398.487273 295.487903 
" style="fill:none;stroke:#e377c2;stroke-linecap:square;stroke-width:1.5;"/>
   </g>
   <g id="line2d_21">
    <path clip-path="url(#p5c63bf42cb)" d="M 73.832727 295.487705 
L 398.487273 295.487641 
L 73.832727 295.487703 
L 398.487273 295.487641 
" style="fill:none;stroke:#7f7f7f;stroke-linecap:square;stroke-width:1.5;"/>
   </g>
   <g id="patch_3">
    <path d="M 57.6 307.584 
L 57.6 41.472 
" style="fill:none;stroke:#000000;stroke-linecap:square;stroke-linejoin:miter;stroke-width:0.8;"/>
   </g>
   <g id="patch_4">
    <path d="M 414.72 307.584 
L 414.72 41.472 
" style="fill:none;stroke:#000000;stroke-linecap:square;stroke-linejoin:miter;stroke-width:0.8;"/>
   </g>
   <g id="patch_5">
    <path d="M 57.6 307.584 
L 414.72 307.584 
" style="fill:none;stroke:#000000;stroke-linecap:square;stroke-linejoin:miter;stroke-width:0.8;"/>
   </g>
   <g id="patch_6">
    <path d="M 57.6 41.472 
L 414.72 41.472 
" style="fill:none;stroke:#000000;stroke-linecap:square;stroke-linejoin:miter;stroke-width:0.8;"/>
   </g>
  </g>
 </g>
 <defs>
  <clipPath id="p5c63bf42cb">
   <rect height="266.112" width="357.12" x="57.6" y="41.472"/>
  </clipPath>
 </defs>
</svg>
