<?xml version="1.0" encoding="utf-8" standalone="no"?>
<!DOCTYPE svg PUBLIC "-//W3C//DTD SVG 1.1//EN"
  "http://www.w3.org/Graphics/SVG/1.1/DTD/svg11.dtd">
<svg height="345.6pt" version="1.1" viewBox="0 0 460.8 345.6" width="460.8pt" xmlns="http://www.w3.org/2000/svg" xmlns:xlink="http://www.w3.org/1999/xlink">
 <metadata>
  <rdf:RDF xmlns:cc="http://creativecommons.org/ns#" xmlns:dc="http://purl.org/dc/elements/1.1/" xmlns:rdf="http://www.w3.org/1999/02/22-rdf-syntax-ns#">
   <cc:Work>
    <dc:type rdf:resource="http://purl.org/dc/dcmitype/StillImage"/>
    <dc:date>2022-01-06T20:37:01.159726</dc:date>
    <dc:format>image/svg+xml</dc:format>
    <dc:creator>
     <cc:Agent>
      <dc:title>Matplotlib v3.4.3, https://matplotlib.org/</dc:title>
     </cc:Agent>
    </dc:creator>
   </cc:Work>
  </rdf:RDF>
 </metadata>
 <defs>
  <style type="text/css">*{stroke-linecap:butt;stroke-linejoin:round;}</style>
 </defs>
 <g id="figure_1">
  <g id="patch_1">
   <path d="M 0 345.6 
L 460.8 345.6 
L 460.8 0 
L 0 0 
z
" style="fill:#ffffff;"/>
  </g>
  <g id="axes_1">
   <g id="patch_2">
    <path d="M 57.6 307.584 
L 414.72 307.584 
L 414.72 41.472 
L 57.6 41.472 
z
" style="fill:#ffffff;"/>
   </g>
   <g id="matplotlib.axis_1">
    <g id="xtick_1">
     <g id="line2d_1">
      <defs>
       <path d="M 0 0 
L 0 3.5 
" id="m6ed981e033" style="stroke:#000000;stroke-width:0.8;"/>
      </defs>
      <g>
       <use style="stroke:#000000;stroke-width:0.8;" x="73.832727" xlink:href="#m6ed981e033" y="307.584"/>
      </g>
     </g>
     <g id="text_1">
      <!-- 0 -->
      <g transform="translate(70.651477 322.182437)scale(0.1 -0.1)">
       <defs>
        <path d="M 2034 4250 
Q 1547 4250 1301 3770 
Q 1056 3291 1056 2328 
Q 1056 1369 1301 889 
Q 1547 409 2034 409 
Q 2525 409 2770 889 
Q 3016 1369 3016 2328 
Q 3016 3291 2770 3770 
Q 2525 4250 2034 4250 
z
M 2034 4750 
Q 2819 4750 3233 4129 
Q 3647 3509 3647 2328 
Q 3647 1150 3233 529 
Q 2819 -91 2034 -91 
Q 1250 -91 836 529 
Q 422 1150 422 2328 
Q 422 3509 836 4129 
Q 1250 4750 2034 4750 
z
" id="DejaVuSans-30" transform="scale(0.015625)"/>
       </defs>
       <use xlink:href="#DejaVuSans-30"/>
      </g>
     </g>
    </g>
    <g id="xtick_2">
     <g id="line2d_2">
      <g>
       <use style="stroke:#000000;stroke-width:0.8;" x="152.51397" xlink:href="#m6ed981e033" y="307.584"/>
      </g>
     </g>
     <g id="text_2">
      <!-- 10000 -->
      <g transform="translate(136.60772 322.182437)scale(0.1 -0.1)">
       <defs>
        <path d="M 794 531 
L 1825 531 
L 1825 4091 
L 703 3866 
L 703 4441 
L 1819 4666 
L 2450 4666 
L 2450 531 
L 3481 531 
L 3481 0 
L 794 0 
L 794 531 
z
" id="DejaVuSans-31" transform="scale(0.015625)"/>
       </defs>
       <use xlink:href="#DejaVuSans-31"/>
       <use x="63.623047" xlink:href="#DejaVuSans-30"/>
       <use x="127.246094" xlink:href="#DejaVuSans-30"/>
       <use x="190.869141" xlink:href="#DejaVuSans-30"/>
       <use x="254.492188" xlink:href="#DejaVuSans-30"/>
      </g>
     </g>
    </g>
    <g id="xtick_3">
     <g id="line2d_3">
      <g>
       <use style="stroke:#000000;stroke-width:0.8;" x="231.195214" xlink:href="#m6ed981e033" y="307.584"/>
      </g>
     </g>
     <g id="text_3">
      <!-- 20000 -->
      <g transform="translate(215.288964 322.182437)scale(0.1 -0.1)">
       <defs>
        <path d="M 1228 531 
L 3431 531 
L 3431 0 
L 469 0 
L 469 531 
Q 828 903 1448 1529 
Q 2069 2156 2228 2338 
Q 2531 2678 2651 2914 
Q 2772 3150 2772 3378 
Q 2772 3750 2511 3984 
Q 2250 4219 1831 4219 
Q 1534 4219 1204 4116 
Q 875 4013 500 3803 
L 500 4441 
Q 881 4594 1212 4672 
Q 1544 4750 1819 4750 
Q 2544 4750 2975 4387 
Q 3406 4025 3406 3419 
Q 3406 3131 3298 2873 
Q 3191 2616 2906 2266 
Q 2828 2175 2409 1742 
Q 1991 1309 1228 531 
z
" id="DejaVuSans-32" transform="scale(0.015625)"/>
       </defs>
       <use xlink:href="#DejaVuSans-32"/>
       <use x="63.623047" xlink:href="#DejaVuSans-30"/>
       <use x="127.246094" xlink:href="#DejaVuSans-30"/>
       <use x="190.869141" xlink:href="#DejaVuSans-30"/>
       <use x="254.492188" xlink:href="#DejaVuSans-30"/>
      </g>
     </g>
    </g>
    <g id="xtick_4">
     <g id="line2d_4">
      <g>
       <use style="stroke:#000000;stroke-width:0.8;" x="309.876457" xlink:href="#m6ed981e033" y="307.584"/>
      </g>
     </g>
     <g id="text_4">
      <!-- 30000 -->
      <g transform="translate(293.970207 322.182437)scale(0.1 -0.1)">
       <defs>
        <path d="M 2597 2516 
Q 3050 2419 3304 2112 
Q 3559 1806 3559 1356 
Q 3559 666 3084 287 
Q 2609 -91 1734 -91 
Q 1441 -91 1130 -33 
Q 819 25 488 141 
L 488 750 
Q 750 597 1062 519 
Q 1375 441 1716 441 
Q 2309 441 2620 675 
Q 2931 909 2931 1356 
Q 2931 1769 2642 2001 
Q 2353 2234 1838 2234 
L 1294 2234 
L 1294 2753 
L 1863 2753 
Q 2328 2753 2575 2939 
Q 2822 3125 2822 3475 
Q 2822 3834 2567 4026 
Q 2313 4219 1838 4219 
Q 1578 4219 1281 4162 
Q 984 4106 628 3988 
L 628 4550 
Q 988 4650 1302 4700 
Q 1616 4750 1894 4750 
Q 2613 4750 3031 4423 
Q 3450 4097 3450 3541 
Q 3450 3153 3228 2886 
Q 3006 2619 2597 2516 
z
" id="DejaVuSans-33" transform="scale(0.015625)"/>
       </defs>
       <use xlink:href="#DejaVuSans-33"/>
       <use x="63.623047" xlink:href="#DejaVuSans-30"/>
       <use x="127.246094" xlink:href="#DejaVuSans-30"/>
       <use x="190.869141" xlink:href="#DejaVuSans-30"/>
       <use x="254.492188" xlink:href="#DejaVuSans-30"/>
      </g>
     </g>
    </g>
    <g id="xtick_5">
     <g id="line2d_5">
      <g>
       <use style="stroke:#000000;stroke-width:0.8;" x="388.5577" xlink:href="#m6ed981e033" y="307.584"/>
      </g>
     </g>
     <g id="text_5">
      <!-- 40000 -->
      <g transform="translate(372.65145 322.182437)scale(0.1 -0.1)">
       <defs>
        <path d="M 2419 4116 
L 825 1625 
L 2419 1625 
L 2419 4116 
z
M 2253 4666 
L 3047 4666 
L 3047 1625 
L 3713 1625 
L 3713 1100 
L 3047 1100 
L 3047 0 
L 2419 0 
L 2419 1100 
L 313 1100 
L 313 1709 
L 2253 4666 
z
" id="DejaVuSans-34" transform="scale(0.015625)"/>
       </defs>
       <use xlink:href="#DejaVuSans-34"/>
       <use x="63.623047" xlink:href="#DejaVuSans-30"/>
       <use x="127.246094" xlink:href="#DejaVuSans-30"/>
       <use x="190.869141" xlink:href="#DejaVuSans-30"/>
       <use x="254.492188" xlink:href="#DejaVuSans-30"/>
      </g>
     </g>
    </g>
   </g>
   <g id="matplotlib.axis_2">
    <g id="ytick_1">
     <g id="line2d_6">
      <defs>
       <path d="M 0 0 
L -3.5 0 
" id="m07c220f9cf" style="stroke:#000000;stroke-width:0.8;"/>
      </defs>
      <g>
       <use style="stroke:#000000;stroke-width:0.8;" x="57.6" xlink:href="#m07c220f9cf" y="295.488"/>
      </g>
     </g>
     <g id="text_6">
      <!-- 0.0 -->
      <g transform="translate(34.696875 299.287219)scale(0.1 -0.1)">
       <defs>
        <path d="M 684 794 
L 1344 794 
L 1344 0 
L 684 0 
L 684 794 
z
" id="DejaVuSans-2e" transform="scale(0.015625)"/>
       </defs>
       <use xlink:href="#DejaVuSans-30"/>
       <use x="63.623047" xlink:href="#DejaVuSans-2e"/>
       <use x="95.410156" xlink:href="#DejaVuSans-30"/>
      </g>
     </g>
    </g>
    <g id="ytick_2">
     <g id="line2d_7">
      <g>
       <use style="stroke:#000000;stroke-width:0.8;" x="57.6" xlink:href="#m07c220f9cf" y="263.239475"/>
      </g>
     </g>
     <g id="text_7">
      <!-- 0.2 -->
      <g transform="translate(34.696875 267.038694)scale(0.1 -0.1)">
       <use xlink:href="#DejaVuSans-30"/>
       <use x="63.623047" xlink:href="#DejaVuSans-2e"/>
       <use x="95.410156" xlink:href="#DejaVuSans-32"/>
      </g>
     </g>
    </g>
    <g id="ytick_3">
     <g id="line2d_8">
      <g>
       <use style="stroke:#000000;stroke-width:0.8;" x="57.6" xlink:href="#m07c220f9cf" y="230.99095"/>
      </g>
     </g>
     <g id="text_8">
      <!-- 0.4 -->
      <g transform="translate(34.696875 234.790169)scale(0.1 -0.1)">
       <use xlink:href="#DejaVuSans-30"/>
       <use x="63.623047" xlink:href="#DejaVuSans-2e"/>
       <use x="95.410156" xlink:href="#DejaVuSans-34"/>
      </g>
     </g>
    </g>
    <g id="ytick_4">
     <g id="line2d_9">
      <g>
       <use style="stroke:#000000;stroke-width:0.8;" x="57.6" xlink:href="#m07c220f9cf" y="198.742425"/>
      </g>
     </g>
     <g id="text_9">
      <!-- 0.6 -->
      <g transform="translate(34.696875 202.541644)scale(0.1 -0.1)">
       <defs>
        <path d="M 2113 2584 
Q 1688 2584 1439 2293 
Q 1191 2003 1191 1497 
Q 1191 994 1439 701 
Q 1688 409 2113 409 
Q 2538 409 2786 701 
Q 3034 994 3034 1497 
Q 3034 2003 2786 2293 
Q 2538 2584 2113 2584 
z
M 3366 4563 
L 3366 3988 
Q 3128 4100 2886 4159 
Q 2644 4219 2406 4219 
Q 1781 4219 1451 3797 
Q 1122 3375 1075 2522 
Q 1259 2794 1537 2939 
Q 1816 3084 2150 3084 
Q 2853 3084 3261 2657 
Q 3669 2231 3669 1497 
Q 3669 778 3244 343 
Q 2819 -91 2113 -91 
Q 1303 -91 875 529 
Q 447 1150 447 2328 
Q 447 3434 972 4092 
Q 1497 4750 2381 4750 
Q 2619 4750 2861 4703 
Q 3103 4656 3366 4563 
z
" id="DejaVuSans-36" transform="scale(0.015625)"/>
       </defs>
       <use xlink:href="#DejaVuSans-30"/>
       <use x="63.623047" xlink:href="#DejaVuSans-2e"/>
       <use x="95.410156" xlink:href="#DejaVuSans-36"/>
      </g>
     </g>
    </g>
    <g id="ytick_5">
     <g id="line2d_10">
      <g>
       <use style="stroke:#000000;stroke-width:0.8;" x="57.6" xlink:href="#m07c220f9cf" y="166.4939"/>
      </g>
     </g>
     <g id="text_10">
      <!-- 0.8 -->
      <g transform="translate(34.696875 170.293119)scale(0.1 -0.1)">
       <defs>
        <path d="M 2034 2216 
Q 1584 2216 1326 1975 
Q 1069 1734 1069 1313 
Q 1069 891 1326 650 
Q 1584 409 2034 409 
Q 2484 409 2743 651 
Q 3003 894 3003 1313 
Q 3003 1734 2745 1975 
Q 2488 2216 2034 2216 
z
M 1403 2484 
Q 997 2584 770 2862 
Q 544 3141 544 3541 
Q 544 4100 942 4425 
Q 1341 4750 2034 4750 
Q 2731 4750 3128 4425 
Q 3525 4100 3525 3541 
Q 3525 3141 3298 2862 
Q 3072 2584 2669 2484 
Q 3125 2378 3379 2068 
Q 3634 1759 3634 1313 
Q 3634 634 3220 271 
Q 2806 -91 2034 -91 
Q 1263 -91 848 271 
Q 434 634 434 1313 
Q 434 1759 690 2068 
Q 947 2378 1403 2484 
z
M 1172 3481 
Q 1172 3119 1398 2916 
Q 1625 2713 2034 2713 
Q 2441 2713 2670 2916 
Q 2900 3119 2900 3481 
Q 2900 3844 2670 4047 
Q 2441 4250 2034 4250 
Q 1625 4250 1398 4047 
Q 1172 3844 1172 3481 
z
" id="DejaVuSans-38" transform="scale(0.015625)"/>
       </defs>
       <use xlink:href="#DejaVuSans-30"/>
       <use x="63.623047" xlink:href="#DejaVuSans-2e"/>
       <use x="95.410156" xlink:href="#DejaVuSans-38"/>
      </g>
     </g>
    </g>
    <g id="ytick_6">
     <g id="line2d_11">
      <g>
       <use style="stroke:#000000;stroke-width:0.8;" x="57.6" xlink:href="#m07c220f9cf" y="134.245375"/>
      </g>
     </g>
     <g id="text_11">
      <!-- 1.0 -->
      <g transform="translate(34.696875 138.044594)scale(0.1 -0.1)">
       <use xlink:href="#DejaVuSans-31"/>
       <use x="63.623047" xlink:href="#DejaVuSans-2e"/>
       <use x="95.410156" xlink:href="#DejaVuSans-30"/>
      </g>
     </g>
    </g>
    <g id="ytick_7">
     <g id="line2d_12">
      <g>
       <use style="stroke:#000000;stroke-width:0.8;" x="57.6" xlink:href="#m07c220f9cf" y="101.99685"/>
      </g>
     </g>
     <g id="text_12">
      <!-- 1.2 -->
      <g transform="translate(34.696875 105.796069)scale(0.1 -0.1)">
       <use xlink:href="#DejaVuSans-31"/>
       <use x="63.623047" xlink:href="#DejaVuSans-2e"/>
       <use x="95.410156" xlink:href="#DejaVuSans-32"/>
      </g>
     </g>
    </g>
    <g id="ytick_8">
     <g id="line2d_13">
      <g>
       <use style="stroke:#000000;stroke-width:0.8;" x="57.6" xlink:href="#m07c220f9cf" y="69.748325"/>
      </g>
     </g>
     <g id="text_13">
      <!-- 1.4 -->
      <g transform="translate(34.696875 73.547544)scale(0.1 -0.1)">
       <use xlink:href="#DejaVuSans-31"/>
       <use x="63.623047" xlink:href="#DejaVuSans-2e"/>
       <use x="95.410156" xlink:href="#DejaVuSans-34"/>
      </g>
     </g>
    </g>
    <g id="text_14">
     <!-- 1e6 -->
     <g transform="translate(57.6 38.472)scale(0.1 -0.1)">
      <defs>
       <path d="M 3597 1894 
L 3597 1613 
L 953 1613 
Q 991 1019 1311 708 
Q 1631 397 2203 397 
Q 2534 397 2845 478 
Q 3156 559 3463 722 
L 3463 178 
Q 3153 47 2828 -22 
Q 2503 -91 2169 -91 
Q 1331 -91 842 396 
Q 353 884 353 1716 
Q 353 2575 817 3079 
Q 1281 3584 2069 3584 
Q 2775 3584 3186 3129 
Q 3597 2675 3597 1894 
z
M 3022 2063 
Q 3016 2534 2758 2815 
Q 2500 3097 2075 3097 
Q 1594 3097 1305 2825 
Q 1016 2553 972 2059 
L 3022 2063 
z
" id="DejaVuSans-65" transform="scale(0.015625)"/>
      </defs>
      <use xlink:href="#DejaVuSans-31"/>
      <use x="63.623047" xlink:href="#DejaVuSans-65"/>
      <use x="125.146484" xlink:href="#DejaVuSans-36"/>
     </g>
    </g>
   </g>
   <g id="line2d_14">
    <path clip-path="url(#p2524aeb896)" d="M 73.832727 295.487808 
L 316.989241 295.397929 
L 317.012845 295.311277 
L 317.067922 295.420451 
L 317.091527 295.420451 
L 336.533662 295.452677 
L 336.628079 294.792164 
L 336.651684 294.806816 
L 336.769706 295.396092 
L 336.777574 295.141869 
L 336.809046 295.140082 
L 336.927068 295.470141 
L 336.824782 294.798688 
L 336.934936 295.468284 
L 337.407024 295.472001 
L 337.643067 295.458423 
L 337.768957 295.468581 
L 337.776826 295.442757 
L 337.784694 295.481609 
L 337.879111 295.474447 
L 346.305872 295.467437 
L 346.31374 295.358356 
L 346.416026 295.445322 
L 350.397297 295.375999 
L 350.444506 295.414454 
L 350.531055 295.171886 
L 350.594 295.450735 
L 350.649077 295.365332 
L 350.704154 295.343465 
L 350.782835 295.445573 
L 350.885121 295.455274 
L 350.837912 295.389897 
L 350.900857 295.423145 
L 355.055227 295.440042 
L 355.086699 295.220772 
L 355.141776 295.466886 
L 355.16538 295.46635 
L 355.188985 295.386195 
L 355.196853 295.35097 
L 355.236193 295.455948 
L 355.29127 295.434554 
L 356.605247 295.431464 
L 356.628851 295.465579 
L 356.715401 295.437869 
L 357.990037 295.457561 
L 358.021509 294.714341 
L 358.06085 295.464509 
L 358.100191 295.455944 
L 358.477861 295.467351 
L 362.270297 295.442752 
L 362.293901 294.993523 
L 362.38045 295.466894 
L 373.726286 295.390369 
L 373.757758 295.269791 
L 373.820703 295.478212 
L 374.277054 295.403457 
L 374.29279 295.30474 
L 374.332131 295.479086 
L 374.37934 295.479647 
L 374.410812 295.43954 
L 374.434417 295.16561 
L 374.497362 295.464046 
L 374.520966 295.446605 
L 374.67046 295.369297 
L 374.694065 295.421433 
L 374.741274 295.372422 
L 374.819955 295.446468 
L 376.346371 295.374712 
L 376.362107 295.323986 
L 376.401448 295.469662 
L 376.440788 295.446631 
L 377.085975 295.384923 
L 377.101711 295.302492 
L 377.172524 295.4481 
L 377.196128 295.38703 
L 378.754017 295.447541 
L 378.840566 295.459183 
L 378.801226 295.364019 
L 378.872039 295.419511 
L 378.879907 295.353582 
L 378.903511 295.446889 
L 378.982193 295.388343 
L 384.781 295.373235 
L 384.804605 295.040296 
L 384.86755 295.484243 
L 384.883286 295.461363 
L 385.017044 295.422786 
L 385.087857 295.436852 
L 385.111461 295.224884 
L 385.182275 295.453836 
L 385.198011 295.452178 
L 385.24522 295.432054 
L 385.28456 295.123543 
L 385.355373 295.451244 
L 385.473395 295.478216 
L 385.811724 295.382581 
L 385.866801 295.304964 
L 385.874669 295.447459 
L 385.91401 295.411845 
L 386.032032 295.435604 
L 386.071373 295.36902 
L 386.110713 295.30523 
L 386.134318 295.452858 
L 386.16579 295.403358 
L 386.283812 295.48425 
L 386.41757 295.407227 
L 386.433306 295.371198 
L 386.480515 295.48325 
L 386.519856 295.426929 
L 387.448294 295.36739 
L 387.471899 295.309394 
L 387.487635 295.484839 
L 387.542712 295.463652 
L 387.589921 295.481788 
L 387.597789 295.420839 
L 387.637129 294.759552 
L 387.692206 295.486834 
L 387.700074 295.477029 
L 387.739415 295.482066 
L 387.715811 295.447278 
L 387.755151 295.453419 
L 387.770887 295.368666 
L 387.80236 295.48677 
L 387.857437 295.486336 
L 387.881041 295.477752 
L 387.896777 295.174515 
L 387.920382 295.487812 
L 387.991195 295.429409 
L 388.117085 295.486166 
L 388.148557 295.410068 
L 388.172162 294.986215 
L 388.250843 295.447617 
L 388.258711 295.447617 
L 388.290184 295.36434 
L 388.376733 295.455406 
L 388.43181 295.467748 
L 388.423942 295.417139 
L 388.439678 295.417139 
L 388.526227 294.89667 
L 388.463282 295.446345 
L 388.549832 295.36003 
L 388.620645 295.131359 
L 388.644249 295.427736 
L 388.659985 295.351379 
L 388.691458 295.186272 
L 388.754403 295.393652 
L 388.785875 295.465395 
L 388.817348 295.318867 
L 388.840952 295.311614 
L 388.903897 295.225908 
L 388.927502 295.467394 
L 389.014051 295.40816 
L 389.116337 295.336913 
L 389.124205 295.182983 
L 389.139941 295.434703 
L 389.234359 295.19227 
L 389.257963 295.216592 
L 389.360249 295.437194 
L 389.368117 295.379127 
L 389.375985 295.237527 
L 389.415325 295.437678 
L 389.470402 295.414773 
L 389.596292 295.476757 
L 389.714314 295.250413 
L 389.722182 295.346991 
L 389.785127 295.43173 
L 389.792995 295.465517 
L 389.871677 295.329608 
L 390.06838 295.420038 
L 390.10772 295.467473 
L 390.154929 295.353442 
L 390.186402 295.279236 
L 390.210006 295.402912 
L 390.265083 295.359216 
L 390.406709 295.470308 
L 390.422445 295.42074 
L 390.461786 295.217783 
L 390.540467 295.396158 
L 390.603412 295.463489 
L 390.650621 295.43503 
L 390.73717 295.375535 
L 390.800115 295.398958 
L 390.86306 295.245337 
L 390.918137 295.354566 
L 390.957478 295.463025 
L 390.973214 295.31708 
L 391.028291 295.359041 
L 391.264335 295.325556 
L 391.295807 295.174038 
L 391.32728 295.439461 
L 391.36662 295.421213 
L 391.523983 295.378779 
L 391.531851 294.718317 
L 391.626268 295.385997 
L 391.634136 295.357678 
L 391.673477 295.230237 
L 391.70495 295.465497 
L 391.752158 295.44587 
L 391.838708 295.222562 
L 391.807235 295.464865 
L 391.87018 295.276616 
L 391.909521 295.32216 
L 391.940993 295.423788 
L 391.95673 295.19418 
L 392.019675 295.363453 
L 392.137696 295.373136 
L 392.161301 295.487731 
L 392.169169 295.334406 
L 392.239982 295.35457 
L 392.255718 295.346537 
L 392.350136 295.059852 
L 392.310795 295.390743 
L 392.365872 295.220795 
L 392.381608 295.37645 
L 392.46029 295.168918 
L 392.476026 295.318456 
L 392.483894 295.174705 
L 392.554707 295.363712 
L 392.578311 295.363712 
L 392.609784 295.441432 
L 392.617652 295.215608 
L 392.656993 295.322386 
L 392.719938 295.008111 
L 392.75141 295.41507 
L 392.767146 295.256422 
L 392.830091 295.483365 
L 392.885168 295.354514 
L 392.940245 295.368985 
L 392.948113 295.477026 
L 393.026794 295.325566 
L 393.050399 295.364851 
L 393.089739 295.314941 
L 393.12908 295.398723 
L 393.152684 295.398723 
L 393.168421 295.363712 
L 393.270706 295.484644 
L 393.310047 295.24992 
L 393.38086 295.433159 
L 393.459541 295.326629 
L 393.420201 295.487839 
L 393.498882 295.39149 
L 393.640508 295.487691 
L 393.561827 295.34729 
L 393.648376 295.467684 
L 393.750662 295.174705 
L 393.766398 295.363161 
L 393.852948 295.382614 
L 393.860816 295.486796 
L 393.963101 295.407464 
L 394.041782 295.326916 
L 394.057519 295.366348 
L 394.120464 295.168074 
L 394.167672 295.484527 
L 394.199145 295.168918 
L 394.293562 295.308576 
L 394.372244 295.474842 
L 394.403716 295.299035 
L 394.419452 295.363712 
L 394.435189 295.475024 
L 394.466661 295.285817 
L 394.521738 295.320445 
L 394.529606 295.312849 
L 394.537474 295.381785 
L 394.631892 295.486495 
L 394.600419 295.309574 
L 394.63976 295.444886 
L 394.655496 295.112053 
L 394.679101 295.480167 
L 394.749914 295.325737 
L 394.757782 295.239733 
L 394.804991 295.487598 
L 394.852199 295.373639 
L 394.89154 295.450762 
L 394.923012 295.275847 
L 394.930881 295.275847 
L 394.993826 295.008111 
L 395.033166 295.357408 
L 395.253474 295.415576 
L 395.340023 295.330126 
L 395.355759 295.193044 
L 395.410836 295.462776 
L 395.450177 295.341683 
L 395.513122 295.479783 
L 395.56033 295.381966 
L 395.576067 295.35873 
L 395.796374 295.458571 
L 397.731933 295.458612 
L 397.747669 295.292017 
L 397.794878 295.487081 
L 397.842087 295.466082 
L 397.928636 295.389776 
L 397.991581 295.305728 
L 398.007317 295.427272 
L 398.03879 295.361417 
L 398.29057 295.459696 
L 398.41646 295.487076 
L 398.487273 295.486525 
L 398.487273 295.486525 
" style="fill:none;stroke:#1f77b4;stroke-linecap:square;stroke-width:1.5;"/>
   </g>
   <g id="line2d_15">
    <path clip-path="url(#p2524aeb896)" d="M 73.832727 295.487839 
L 73.8642 295.462579 
L 73.872068 295.314047 
L 73.935013 295.472293 
L 73.974354 295.459292 
L 79.529249 295.458976 
L 84.855969 295.459034 
L 84.863838 295.151032 
L 84.966123 295.451456 
L 85.217903 295.458976 
L 134.26779 295.466285 
L 134.275658 291.446077 
L 134.354339 295.477326 
L 134.377944 295.460123 
L 134.511702 295.475239 
L 134.669064 295.461496 
L 135.251306 295.474111 
L 135.408668 295.473027 
L 135.581767 295.464471 
L 135.865019 295.475635 
L 136.038118 295.487241 
L 136.045986 295.473109 
L 136.069591 295.482022 
L 136.164008 295.441587 
L 136.329239 295.464769 
L 136.541678 295.465378 
L 136.667568 295.45943 
L 138.847038 295.466192 
L 138.957192 295.482724 
L 138.972928 295.464913 
L 139.193236 295.445614 
L 139.295522 295.477471 
L 139.311258 295.456264 
L 139.492225 295.448879 
L 139.712532 295.458947 
L 191.461186 295.466112 
L 191.563471 295.464392 
L 191.48479 295.476888 
L 191.57134 295.475997 
L 191.768043 295.469401 
L 191.956878 295.447843 
L 191.964746 295.466831 
L 192.098504 295.463172 
L 192.334548 295.460331 
L 192.468306 295.483868 
L 192.609932 295.46646 
L 192.735822 295.480245 
L 192.74369 295.469611 
L 192.86958 295.45602 
L 192.893184 295.48365 
L 193.601316 295.484066 
L 193.703601 295.470443 
L 193.719337 295.48248 
L 193.860964 295.469721 
L 194.010458 295.48026 
L 194.026194 295.453816 
L 194.120612 295.486264 
L 195.119864 295.467506 
L 195.127732 295.437442 
L 195.151336 295.481094 
L 195.222149 295.487566 
L 211.249518 295.469449 
L 211.343936 295.470719 
L 211.359672 295.483381 
L 211.690133 295.46534 
L 211.83176 295.467045 
L 211.973386 295.486668 
L 212.08354 295.45523 
L 212.099276 295.465202 
L 212.225166 295.487741 
L 212.233034 295.473359 
L 212.398265 295.469296 
L 212.532023 295.484396 
L 212.657913 295.459434 
L 215.608459 295.482944 
L 216.009734 295.487611 
L 245.89287 295.487563 
L 245.900738 295.274497 
L 246.003024 295.486663 
L 247.419286 295.487235 
L 247.537308 295.466144 
L 247.671066 295.480176 
L 247.757615 295.464754 
L 247.78122 295.484806 
L 248.32412 295.487143 
L 248.434274 295.466152 
L 248.45001 295.484977 
L 249.008647 295.472162 
L 249.126669 295.473282 
L 249.299768 295.482978 
L 249.685306 295.487569 
L 249.763987 295.468603 
L 249.795459 295.486422 
L 251.101568 295.472878 
L 251.251062 295.454656 
L 251.258931 295.471126 
L 251.416293 295.480312 
L 251.550051 295.467914 
L 251.557919 295.47516 
L 251.801831 295.469115 
L 251.904117 295.473234 
L 251.833304 295.482397 
L 251.911985 295.480423 
L 252.218842 295.470975 
L 252.384072 295.481876 
L 252.683061 295.487424 
L 252.785347 295.473071 
L 252.793215 295.480455 
L 253.076467 295.487651 
L 253.163017 295.461557 
L 253.170885 295.260849 
L 253.23383 295.487061 
L 253.27317 295.484728 
L 253.753126 295.464179 
L 254.075719 295.4687 
L 254.233082 295.478646 
L 254.445521 295.484555 
L 254.579279 295.469656 
L 254.736642 295.483825 
L 255.130048 295.486785 
L 255.200861 295.455603 
L 255.240201 295.487199 
L 257.293782 295.485849 
L 257.372463 295.435434 
L 257.403936 295.480848 
L 257.695056 295.487641 
L 257.820946 295.486663 
L 259.22934 295.487832 
L 259.35523 295.487786 
L 275.42194 295.484937 
L 275.484885 295.428439 
L 275.532094 295.48682 
L 276.956225 295.460529 
L 277.05851 295.264735 
L 277.074246 295.302159 
L 277.113587 295.447492 
L 277.137191 295.426306 
L 277.14506 293.741806 
L 277.247345 295.262228 
L 277.357499 294.922008 
L 277.326026 295.412216 
L 277.365367 295.02974 
L 277.428312 295.454186 
L 277.499125 295.446708 
L 277.593543 295.064728 
L 277.64862 295.376399 
L 277.672224 295.288992 
L 277.719433 295.438812 
L 277.727301 289.658672 
L 277.829586 295.152002 
L 277.845323 294.924973 
L 277.955476 295.450743 
L 277.979081 295.401549 
L 278.128575 295.429829 
L 278.230861 295.429185 
L 278.246597 295.444072 
L 278.278069 295.422846 
L 278.285938 295.228997 
L 278.372487 295.446341 
L 278.388223 295.435913 
L 278.482641 295.456686 
L 278.451168 295.399253 
L 278.506245 295.446034 
L 278.561322 295.301932 
L 278.577058 295.417579 
L 278.655739 292.433571 
L 278.647871 295.440893 
L 278.687212 295.334283 
L 278.765893 295.45653 
L 278.702948 295.205869 
L 278.797366 295.392211 
L 278.805234 295.277431 
L 278.891783 295.459519 
L 278.899651 295.458264 
L 278.962596 294.592445 
L 279.009805 295.400594 
L 279.025541 295.464002 
L 279.080618 295.382518 
L 279.088486 295.427505 
L 279.096354 294.817901 
L 279.19864 295.442269 
L 279.277321 295.433382 
L 279.285189 295.395358 
L 279.403211 293.739636 
L 279.332398 295.47045 
L 279.411079 295.026021 
L 279.458288 295.465764 
L 279.536969 295.450811 
L 279.57631 295.250962 
L 279.568442 295.466776 
L 279.647123 295.450696 
L 279.678596 295.453264 
L 279.686464 295.289022 
L 279.741541 295.456559 
L 279.788749 295.372842 
L 279.914639 295.45601 
L 280.016925 295.408484 
L 280.040529 295.450067 
L 280.048397 294.509256 
L 280.134947 295.455318 
L 280.150683 295.424391 
L 280.166419 295.448103 
L 280.174287 289.663317 
L 280.268705 295.459745 
L 280.276573 295.457876 
L 280.355254 295.455443 
L 280.300177 295.431814 
L 280.370991 295.442075 
L 280.378859 292.240185 
L 280.45754 295.458737 
L 280.481144 295.429401 
L 280.489012 295.418075 
L 280.496881 295.017392 
L 280.591298 295.455823 
L 280.599166 295.454136 
L 280.630639 295.456205 
L 280.638507 294.353055 
L 280.717188 295.45763 
L 280.740792 295.414286 
L 280.764397 295.36572 
L 280.866682 295.458963 
L 280.898155 295.411477 
L 280.929627 295.446988 
L 280.937495 292.242642 
L 281.039781 295.450448 
L 281.079122 295.469284 
L 281.094858 295.40603 
L 281.102726 295.249941 
L 281.142067 295.463696 
L 281.197144 295.408823 
L 281.330902 295.465791 
L 281.441055 295.472086 
L 281.448924 295.454961 
L 281.59055 295.406675 
L 281.598418 295.439804 
L 281.62989 295.412314 
L 281.724308 295.473826 
L 281.771517 295.428774 
L 281.834462 295.452706 
L 281.976088 295.471977 
L 281.983956 295.465477 
L 282.227868 295.248518 
L 282.290813 295.034405 
L 282.306549 295.336978 
L 282.369494 295.468344 
L 282.330153 295.047953 
L 282.393098 295.360629 
L 282.400967 292.199462 
L 282.503252 295.417864 
L 282.526857 295.432164 
L 282.558329 295.357271 
L 282.566197 289.614631 
L 282.660615 295.459509 
L 282.668483 295.397594 
L 282.747164 295.483847 
L 282.7629 295.405709 
L 282.880922 292.194981 
L 282.84945 295.463215 
L 282.88879 293.841382 
L 282.920263 295.384955 
L 282.967472 289.416912 
L 282.998944 295.263748 
L 283.006812 53.568 
L 283.109098 295.409503 
L 283.124834 295.442895 
L 283.132702 295.038155 
L 283.164175 295.461043 
L 283.234988 295.213067 
L 283.360878 295.483378 
L 283.455295 295.399202 
L 283.471032 294.599523 
L 283.541845 295.436678 
L 283.565449 295.424121 
L 283.573317 295.454258 
L 283.581185 295.446047 
L 283.589053 289.662289 
L 283.683471 295.46166 
L 283.691339 295.449748 
L 283.809361 295.477199 
L 283.754284 295.418221 
L 283.817229 295.463749 
L 283.89591 295.462679 
L 283.919515 288.207127 
L 284.006064 295.440254 
L 284.0218 295.469892 
L 284.037536 295.46014 
L 284.045405 289.669335 
L 284.14769 294.721239 
L 284.194899 295.438565 
L 284.265712 295.408965 
L 284.312921 295.425228 
L 284.320789 295.220952 
L 284.383734 295.468293 
L 284.423075 295.418847 
L 284.517492 295.484256 
L 284.556833 295.460804 
L 284.596173 295.44304 
L 284.604041 295.371736 
L 284.61191 295.386289 
L 284.627646 294.502795 
L 284.690591 295.457041 
L 284.714195 295.449322 
L 284.769272 295.48138 
L 284.792876 295.383118 
L 284.832217 295.453349 
L 284.879426 295.202921 
L 284.855821 295.462476 
L 284.910898 295.436475 
L 284.918766 289.657503 
L 284.989579 295.454538 
L 285.021052 295.41738 
L 285.076129 295.476219 
L 285.139074 295.447583 
L 285.170546 294.954994 
L 285.217755 295.474297 
L 285.241359 295.450667 
L 285.2807 295.461648 
L 285.264964 295.405394 
L 285.304304 295.44623 
L 285.312173 237.41977 
L 285.414458 295.411609 
L 285.422326 295.376854 
L 285.469535 295.453591 
L 285.516744 295.457996 
L 285.611161 295.40859 
L 285.619029 289.64356 
L 285.721315 295.469479 
L 285.823601 295.387795 
L 285.839337 295.456584 
L 285.847205 295.468049 
L 285.855073 289.67329 
L 285.957359 295.438013 
L 285.980963 295.393095 
L 286.03604 295.472286 
L 286.051776 295.18846 
L 286.146194 295.284201 
L 286.154062 295.31315 
L 286.16193 289.59584 
L 286.232743 295.427709 
L 286.264216 295.419026 
L 286.279952 295.4624 
L 286.303556 295.154678 
L 286.311424 295.296257 
L 286.327161 286.732962 
L 286.421578 295.450066 
L 286.594677 295.442784 
L 286.602545 295.291335 
L 286.634017 295.470557 
L 286.704831 295.444678 
L 286.799248 295.029411 
L 286.814984 295.322684 
L 286.91727 293.206112 
L 286.901534 295.461176 
L 286.925138 294.339531 
L 287.051028 295.467862 
L 287.066764 295.481888 
L 287.074632 295.462576 
L 287.161182 292.255443 
L 287.153314 295.472591 
L 287.184786 295.268291 
L 287.255599 295.468271 
L 287.302808 295.415387 
L 287.334281 295.465061 
L 287.350017 295.023113 
L 287.397226 295.405343 
L 287.405094 289.641937 
L 287.499511 295.446359 
L 287.507379 295.402973 
L 287.562456 295.377 
L 287.578192 295.460129 
L 287.609665 295.448315 
L 287.829972 295.382449 
L 287.83784 295.42747 
L 287.845709 295.443223 
L 287.877181 294.769017 
L 287.940126 295.462669 
L 287.955862 295.448395 
L 287.971599 295.43941 
L 287.979467 295.463624 
L 288.058148 289.668979 
L 288.042412 295.474552 
L 288.08962 295.070237 
L 288.17617 295.431824 
L 288.21551 295.359333 
L 288.239115 295.401002 
L 288.246983 295.364283 
L 288.254851 292.201289 
L 288.3414 295.436442 
L 288.357137 295.421611 
L 288.365005 295.453436 
L 288.412214 295.36782 
L 288.420082 294.995484 
L 288.46729 295.450516 
L 288.522367 295.25604 
L 288.640389 295.423926 
L 288.59318 295.1503 
L 288.648257 295.41181 
L 288.656125 295.376955 
L 288.671862 295.46122 
L 288.766279 289.652092 
L 288.742675 295.465703 
L 288.782015 293.963693 
L 288.907905 295.448972 
L 288.97085 295.458728 
L 288.93151 295.352604 
L 288.978719 295.424819 
L 288.986587 237.409065 
L 289.088872 295.210824 
L 289.136081 295.470042 
L 289.167554 295.120946 
L 289.214762 295.450701 
L 289.34852 295.365816 
L 289.364257 294.878923 
L 289.450806 295.444107 
L 289.545223 295.482907 
L 289.482278 295.388557 
L 289.568828 295.461968 
L 289.631773 295.294306 
L 289.734058 295.407003 
L 289.844212 289.651533 
L 289.797003 295.443042 
L 289.85208 292.348165 
L 289.954366 295.458572 
L 290.06452 285.564424 
L 290.174673 295.468963 
L 290.19041 295.420082 
L 290.22975 295.43533 
L 290.221882 295.384757 
L 290.245487 295.382511 
L 290.284827 289.460827 
L 290.35564 295.363312 
L 290.402849 295.458618 
L 290.44219 295.362285 
L 290.513003 295.072475 
L 290.552343 295.348396 
L 290.575948 295.258977 
L 290.623157 295.394306 
L 290.654629 295.382253 
L 290.780519 295.400565 
L 290.788387 295.33383 
L 290.867068 295.413859 
L 290.890673 295.381793 
L 291.008695 295.420354 
L 291.331288 295.290835 
L 291.347024 295.356072 
L 291.425705 295.413023 
L 291.44931 295.374014 
L 291.457178 293.813303 
L 291.559463 295.417778 
L 291.630276 295.342619 
L 291.685353 295.297485 
L 291.716826 295.392956 
L 291.732562 295.328147 
L 291.779771 295.189972 
L 291.858452 295.411288 
L 291.86632 295.415869 
L 291.874188 295.279648 
L 291.937133 295.420493 
L 291.976474 295.420472 
L 292.24399 295.400313 
L 292.251858 295.276615 
L 292.346276 295.462171 
L 292.385616 295.358544 
L 292.432825 295.419668 
L 292.511506 295.351062 
L 292.550847 295.387123 
L 292.598056 295.331757 
L 292.692473 295.431494 
L 292.889176 295.304351 
L 292.904913 295.391426 
L 292.920649 294.890394 
L 292.99933 295.413124 
L 293.015066 295.204843 
L 293.101616 295.420536 
L 293.117352 295.417037 
L 293.12522 292.227666 
L 293.227506 295.431064 
L 293.298319 295.276127 
L 293.321923 295.354965 
L 293.400604 294.975536 
L 293.369132 295.407328 
L 293.432077 295.306699 
L 293.581571 295.413902 
L 293.589439 295.417177 
L 293.597307 295.363367 
L 293.605176 295.25042 
L 293.652384 295.419487 
L 293.707461 295.365149 
L 293.746802 294.604647 
L 293.75467 294.949578 
L 293.762538 292.871809 
L 293.841219 295.400799 
L 293.856956 295.317051 
L 293.990714 295.419813 
L 293.998582 295.346947 
L 294.100867 295.420517 
L 294.667372 295.413125 
L 294.675241 295.199741 
L 294.738186 295.438279 
L 294.746054 295.429365 
L 294.753922 289.653948 
L 294.856207 295.448254 
L 294.871944 295.410879 
L 294.950625 295.442144 
L 294.958493 294.735566 
L 295.005702 295.445917 
L 295.060779 295.426614 
L 295.092251 295.427155 
L 295.100119 294.999857 
L 295.202405 295.467509 
L 295.328295 295.419084 
L 295.406976 295.427582 
L 295.414844 295.290502 
L 295.469921 295.362416 
L 295.477789 289.620473 
L 295.580075 295.455106 
L 295.611547 295.470894 
L 295.64302 295.425165 
L 295.68236 295.429368 
L 295.831855 295.462186 
L 295.902668 295.473599 
L 295.855459 295.433243 
L 295.926272 295.439383 
L 295.93414 295.399194 
L 295.949877 295.449993 
L 295.973481 295.445114 
L 295.981349 287.404426 
L 296.083635 295.41065 
L 296.18592 295.445236 
L 296.193789 295.432844 
L 296.201657 295.014551 
L 296.303942 295.431405 
L 296.31181 295.434621 
L 296.319679 289.656576 
L 296.421964 295.398148 
L 296.461305 295.475894 
L 296.508513 295.43907 
L 296.56359 294.831308 
L 296.618667 295.414597 
L 296.658008 295.376528 
L 296.665876 134.181032 
L 296.760293 295.383695 
L 296.768162 294.13247 
L 296.831107 295.357026 
L 296.838975 289.617779 
L 296.90192 295.38894 
L 296.94126 295.182806 
L 296.956997 288.730648 
L 297.043546 295.411523 
L 297.075018 295.339133 
L 297.098623 295.447303 
L 297.145832 295.433771 
L 297.19304 289.331176 
L 297.255985 295.425957 
L 297.358271 295.36508 
L 297.374007 295.369165 
L 297.492029 295.388872 
L 297.499897 295.310466 
L 297.554974 295.446791 
L 297.594315 295.412829 
L 297.633655 295.273953 
L 297.65726 295.413556 
L 297.665128 289.646043 
L 297.767413 295.412687 
L 297.78315 295.416387 
L 297.82249 289.287385 
L 297.893303 295.416875 
L 297.90904 295.03708 
L 297.971985 295.429229 
L 298.003457 295.390173 
L 298.042798 295.414611 
L 298.050666 295.274803 
L 298.07427 295.370568 
L 298.129347 295.257704 
L 298.097875 295.401776 
L 298.176556 295.386254 
L 298.20016 295.357114 
L 298.263105 295.413198 
L 298.349655 289.646813 
L 298.32605 295.448794 
L 298.373259 295.059599 
L 298.499149 295.409101 
L 298.640775 295.417593 
L 298.648643 295.44501 
L 298.656511 292.08041 
L 298.758797 295.396166 
L 298.766665 295.408308 
L 298.821742 291.25748 
L 298.813874 295.411576 
L 298.876819 295.367451 
L 298.884687 295.352623 
L 298.91616 295.439611 
L 298.986973 289.660741 
L 298.979105 295.442952 
L 299.026313 295.378916 
L 299.152203 295.410994 
L 299.183676 295.349084 
L 299.262357 295.391641 
L 299.278093 295.239245 
L 299.309566 295.430925 
L 299.364643 295.389918 
L 299.372511 289.634225 
L 299.466928 295.436199 
L 299.474796 295.428642 
L 299.545609 295.450579 
L 299.506269 295.389755 
L 299.58495 295.418681 
L 299.702972 295.360314 
L 299.632159 295.436911 
L 299.71084 295.377531 
L 299.773785 295.432464 
L 299.789521 295.360023 
L 299.813126 295.416403 
L 299.907543 295.351826 
L 299.844598 295.439096 
L 299.923279 295.417658 
L 299.954752 295.068808 
L 300.017697 295.425221 
L 300.025565 287.394479 
L 300.072774 295.436131 
L 300.127851 295.085159 
L 300.175059 295.46226 
L 300.253741 295.437497 
L 300.348158 295.460253 
L 300.293081 295.388328 
L 300.371763 295.431806 
L 300.489784 295.079992 
L 300.505521 295.376508 
L 300.544861 295.45825 
L 300.560598 295.377983 
L 300.568466 295.239709 
L 300.615674 295.445748 
L 300.623543 289.662139 
L 300.725828 295.407408 
L 300.749432 295.171012 
L 300.84385 295.456852 
L 300.96974 295.00073 
L 301.009081 295.367506 
L 301.079894 295.015091 
L 301.190047 295.470223 
L 301.205784 295.463888 
L 301.331674 295.007522 
L 301.34741 295.074529 
L 301.378882 295.00569 
L 301.4733 295.406051 
L 301.520509 295.455467 
L 301.544113 295.399622 
L 301.551981 295.124491 
L 301.614926 295.414861 
L 301.654267 295.343492 
L 301.670003 295.42753 
L 301.701476 295.41735 
L 301.709344 289.647941 
L 301.811629 295.415689 
L 301.819497 295.361979 
L 301.898179 295.468132 
L 301.913915 295.401934 
L 302.024069 295.463875 
L 302.039805 295.457801 
L 302.157827 295.483138 
L 302.071277 295.399037 
L 302.165695 295.434957 
L 302.307321 295.323278 
L 302.323057 295.421638 
L 302.409607 295.447758 
L 302.35453 295.390555 
L 302.433211 295.419332 
L 302.566969 295.146098 
L 302.472552 295.4448 
L 302.582705 295.327007 
L 302.684991 295.4359 
L 302.598442 295.217878 
L 302.700727 295.419774 
L 302.755804 295.475092 
L 302.795145 295.417455 
L 302.803013 295.324244 
L 302.850222 295.467007 
L 302.89743 295.400858 
L 303.007584 295.458797 
L 302.928903 295.377387 
L 303.015452 295.423403 
L 303.10987 295.391462 
L 303.054793 295.462225 
L 303.125606 295.452879 
L 303.164947 295.415425 
L 303.259364 295.473733 
L 303.267232 295.22399 
L 303.369518 295.450961 
L 303.393122 295.204552 
L 303.448199 295.464281 
L 303.479672 295.464424 
L 303.52688 295.377555 
L 303.597693 295.442802 
L 303.61343 295.45798 
L 303.621298 289.668255 
L 303.723583 295.436592 
L 303.73932 295.45816 
L 303.747188 295.450518 
L 303.755056 289.664524 
L 303.825869 295.456695 
L 303.857342 295.418993 
L 303.912418 295.318071 
L 303.951759 295.442503 
L 303.959627 295.465485 
L 303.975363 295.384339 
L 304.022572 295.440792 
L 304.038308 294.518999 
L 304.132726 295.457347 
L 304.250748 295.475961 
L 304.258616 295.464982 
L 304.329429 295.42908 
L 304.376638 295.473615 
L 304.40811 295.4657 
L 304.415978 295.156924 
L 304.518264 295.446005 
L 304.628418 295.47529 
L 304.534 295.292422 
L 304.644154 295.46215 
L 304.801517 295.154867 
L 304.825121 295.421787 
L 304.832989 295.4475 
L 304.848725 295.330839 
L 304.856593 293.922841 
L 304.958879 295.433294 
L 305.092637 295.062816 
L 304.974615 295.441189 
L 305.108373 295.325349 
L 305.25 295.439551 
L 305.12411 295.301217 
L 305.257868 295.432083 
L 305.28934 288.893174 
L 305.368021 295.406747 
L 305.470307 295.331516 
L 305.41523 295.454014 
L 305.486043 295.368961 
L 305.533252 295.461842 
L 305.588329 295.34972 
L 305.596197 295.161984 
L 305.643406 295.464958 
L 305.659142 295.435137 
L 305.66701 289.656834 
L 305.769296 295.33543 
L 305.777164 294.444259 
L 305.824373 295.421563 
L 305.87945 295.16748 
L 305.895186 295.217246 
L 305.903054 295.090028 
L 305.958131 294.389691 
L 306.021076 294.612389 
L 306.028944 294.498745 
L 306.076153 295.356408 
L 306.084021 295.27395 
L 306.091889 295.250084 
L 306.146966 295.399391 
L 306.17057 295.337544 
L 306.217779 295.383444 
L 306.233515 295.250281 
L 306.264988 295.372889 
L 306.375141 294.942616 
L 306.42235 294.918127 
L 306.501031 295.413598 
L 306.532504 295.438076 
L 306.563976 295.285992 
L 306.571844 295.270901 
L 306.595449 295.339517 
L 306.603317 295.301458 
L 306.611185 294.181166 
L 306.650526 295.40149 
L 306.713471 295.353308 
L 306.721339 295.41318 
L 306.737075 295.126276 
L 306.784284 295.14604 
L 306.792152 295.060144 
L 306.870833 295.367557 
L 306.949514 295.269546 
L 306.988855 295.410842 
L 307.020328 295.450092 
L 307.036064 295.428492 
L 307.0518 295.25627 
L 307.146218 295.385532 
L 307.217031 295.254979 
L 307.201294 295.4349 
L 307.248503 295.441161 
L 307.358657 295.177387 
L 307.405866 295.326071 
L 307.460943 295.449292 
L 307.484547 295.312087 
L 307.523888 295.389952 
L 307.586833 295.423529 
L 307.563228 295.351582 
L 307.594701 295.408548 
L 307.602569 295.017826 
L 307.68125 295.417368 
L 307.704854 295.353098 
L 307.720591 295.426007 
L 307.767799 295.276265 
L 307.80714 295.392332 
L 307.822876 295.265115 
L 307.917294 295.390023 
L 307.925162 295.423594 
L 307.988107 295.277054 
L 307.995975 295.351673 
L 308.003843 295.24578 
L 308.027447 295.407558 
L 308.098261 295.357504 
L 308.239887 295.425196 
L 308.255623 295.284182 
L 308.342172 295.422384 
L 308.428722 295.456713 
L 308.43659 295.449795 
L 308.515271 295.292381 
L 308.546744 295.432987 
L 308.56248 295.062389 
L 308.656897 295.427491 
L 308.719842 295.349136 
L 308.782787 295.414984 
L 308.900809 295.04591 
L 308.81426 295.437596 
L 308.916546 295.32768 
L 308.94015 295.420832 
L 308.948018 295.13449 
L 308.963754 289.272403 
L 309.034567 295.415212 
L 309.050304 295.3609 
L 309.144721 293.313435 
L 309.184062 295.001188 
L 309.294216 295.401006 
L 309.302084 295.229306 
L 309.349292 295.360424 
L 309.325688 294.969034 
L 309.372897 295.3407 
L 309.380765 289.609615 
L 309.435842 295.397408 
L 309.48305 295.39116 
L 309.561732 295.428733 
L 309.545995 295.346398 
L 309.585336 295.403564 
L 309.687622 289.625209 
L 309.656149 295.430621 
L 309.69549 292.531522 
L 309.805644 295.351891 
L 309.813512 289.615211 
L 309.900061 295.412356 
L 309.915797 295.394062 
L 309.939402 295.161141 
L 309.98661 294.640627 
L 310.057424 294.799368 
L 310.065292 294.799028 
L 310.175445 295.192461 
L 310.183314 295.166272 
L 310.191182 295.2806 
L 310.230522 294.644544 
L 310.23839 293.205938 
L 310.32494 294.795303 
L 310.340676 294.640411 
L 310.419357 295.406758 
L 310.458698 295.211818 
L 310.466566 295.201655 
L 310.474434 295.292105 
L 310.482302 289.585318 
L 310.584588 295.250254 
L 310.639665 295.274849 
L 310.61606 295.104334 
L 310.663269 295.258283 
L 310.671137 294.088761 
L 310.734082 295.328213 
L 310.773423 295.163924 
L 310.8285 295.37159 
L 310.883577 295.173098 
L 310.938653 295.322041 
L 310.95439 287.934958 
L 311.048807 295.254102 
L 311.056675 295.251714 
L 311.064543 295.319693 
L 311.072412 289.599112 
L 311.174697 295.334289 
L 311.182565 295.338194 
L 311.190433 295.235269 
L 311.20617 284.588327 
L 311.300587 295.164844 
L 311.308455 295.134613 
L 311.316323 295.295989 
L 311.324192 295.29609 
L 311.434345 289.557346 
L 311.410741 295.327811 
L 311.450082 293.492712 
L 311.552367 295.382891 
L 311.481554 289.506052 
L 311.575972 295.335993 
L 311.599576 295.271732 
L 311.686125 295.370261 
L 311.693993 294.742992 
L 311.74907 295.392045 
L 311.796279 295.310698 
L 311.819883 295.151486 
L 311.83562 295.340315 
L 311.843488 295.071607 
L 311.87496 295.346822 
L 311.906433 295.081199 
L 311.914301 283.778 
L 312.016587 294.850935 
L 312.024455 294.993483 
L 312.032323 293.526963 
L 312.048059 294.627655 
L 312.055927 293.344049 
L 312.150345 295.424592 
L 312.260498 289.55102 
L 312.276235 293.66119 
L 312.402125 295.441865 
L 312.441465 295.433728 
L 312.449333 295.295526 
L 312.457201 287.329632 
L 312.528015 295.384629 
L 312.559487 295.02745 
L 312.669641 286.428478 
L 312.6303 295.436425 
L 312.677509 290.936471 
L 312.75619 295.435913 
L 312.803399 295.363612 
L 312.897816 295.426141 
L 312.874212 295.279851 
L 312.905685 295.421341 
L 312.984366 293.690686 
L 313.055179 294.908036 
L 313.063047 287.269954 
L 313.13386 295.324091 
L 313.165333 295.241803 
L 313.212541 295.422544 
L 313.283355 295.362496 
L 313.314827 295.024067 
L 313.38564 281.27545 
L 313.424981 292.548453 
L 313.440717 294.121112 
L 313.456453 284.18178 
L 313.487926 292.789778 
L 313.495794 286.076758 
L 313.566607 295.298379 
L 313.590211 293.364229 
L 313.63742 295.376513 
L 313.668893 289.57036 
L 313.676761 292.45623 
L 313.692497 286.022956 
L 313.779046 295.125656 
L 313.786914 293.097804 
L 313.873464 295.377644 
L 313.8892 294.234605 
L 314.01509 295.385398 
L 314.085903 289.615159 
L 314.125244 295.243871 
L 314.203925 295.388115 
L 314.243266 295.360434 
L 314.259002 295.380862 
L 314.274738 295.198152 
L 314.290474 295.154479 
L 314.321947 295.378779 
L 314.345551 295.304446 
L 314.384892 295.414113 
L 314.39276 294.542234 
L 314.447837 295.42648 
L 314.495046 295.359941 
L 314.550123 295.440871 
L 314.620936 295.132311 
L 314.636672 295.102942 
L 314.652408 286.446153 
L 314.738958 295.336807 
L 314.746826 295.339453 
L 314.817639 293.570532 
L 314.856979 295.047681 
L 314.864848 295.19489 
L 314.943529 294.820372 
L 314.967133 295.100917 
L 314.975001 295.142754 
L 315.006474 294.997942 
L 315.02221 292.013971 
L 315.108759 295.218762 
L 315.234649 294.257768 
L 315.242517 294.552958 
L 315.368407 295.206525 
L 315.447089 294.328542 
L 315.423484 295.240731 
L 315.478561 295.193436 
L 315.533638 295.282612 
L 315.494297 295.158321 
L 315.549374 295.245493 
L 315.557242 293.84661 
L 315.659528 295.386088 
L 315.675264 295.404073 
L 315.691001 271.480406 
L 315.785418 295.293591 
L 315.816891 295.209991 
L 315.895572 295.407707 
L 315.989989 295.250729 
L 315.950649 295.433268 
L 316.005726 295.335357 
L 316.257506 295.413977 
L 316.265374 295.258315 
L 316.367659 295.268226 
L 316.422736 295.428179 
L 316.446341 295.2231 
L 316.469945 291.458979 
L 316.548626 295.264637 
L 316.643044 295.413788 
L 316.57223 294.771427 
L 316.666648 295.350992 
L 316.674516 295.346545 
L 316.745329 295.187358 
L 316.78467 295.228967 
L 316.808274 295.40138 
L 316.831879 294.984812 
L 316.847615 293.659325 
L 316.934164 295.264841 
L 316.997109 295.15756 
L 317.03645 295.293322 
L 317.044318 295.263221 
L 317.083659 294.976173 
L 317.107263 295.340691 
L 317.115131 295.330026 
L 317.130867 295.415304 
L 317.178076 294.990559 
L 317.217417 294.752345 
L 317.256757 295.275714 
L 317.264625 295.168211 
L 317.311834 295.210625 
L 317.32757 295.302088 
L 317.374779 295.14437 
L 317.437724 294.628832 
L 317.41412 295.307413 
L 317.477065 295.233342 
L 317.57935 294.953556 
L 317.524274 295.286545 
L 317.610823 295.065386 
L 317.634427 295.376591 
L 317.658032 294.555834 
L 317.689504 295.194054 
L 317.720977 294.225824 
L 317.79179 295.363698 
L 317.799658 295.389954 
L 317.823262 295.084409 
L 317.838999 295.29447 
L 317.846867 289.586501 
L 317.894075 295.346256 
L 317.949152 294.780477 
L 318.08291 295.414909 
L 318.130119 295.219461 
L 318.2088 295.349605 
L 318.232405 295.416656 
L 318.263877 295.222129 
L 318.311086 295.29281 
L 318.326822 295.125524 
L 318.33469 295.136818 
L 318.342558 294.319102 
L 318.436976 295.437501 
L 318.539262 294.814528 
L 318.54713 295.142876 
L 318.680888 287.688158 
L 318.814646 295.185567 
L 318.893327 293.493278 
L 318.9248 295.095608 
L 318.932668 295.071553 
L 318.940536 292.655919 
L 318.987745 295.407517 
L 319.042822 295.122817 
L 319.121503 295.362463 
L 319.152975 295.226234 
L 319.192316 294.743457 
L 319.223788 295.3235 
L 319.263129 295.176729 
L 319.318206 295.44972 
L 319.34181 295.124471 
L 319.373283 295.319088 
L 319.381151 294.913366 
L 319.444096 295.424694 
L 319.483436 295.272612 
L 319.59359 293.853232 
L 319.55425 295.393047 
L 319.609326 294.314323 
L 319.672271 293.600316 
L 319.71948 294.933764 
L 319.758821 291.765091 
L 319.821766 295.074391 
L 319.829634 293.983691 
L 319.924051 295.21985 
L 319.876843 293.95259 
L 319.955524 295.191534 
L 319.979128 295.196116 
L 319.986996 295.105031 
L 320.042073 295.154313 
L 320.09715 294.386098 
L 320.073546 295.224706 
L 320.144359 295.182631 
L 320.160095 295.208953 
L 320.246645 295.286728 
L 320.278117 294.567115 
L 320.317458 295.289384 
L 320.396139 295.157196 
L 320.404007 294.53623 
L 320.482688 295.345542 
L 320.498425 295.210009 
L 320.506293 295.347174 
L 320.522029 295.138715 
L 320.608578 295.235044 
L 320.647919 295.184353 
L 320.655787 295.238635 
L 320.671523 294.959321 
L 320.742336 295.372636 
L 320.765941 295.188471 
L 320.828886 295.290995 
L 320.797413 295.105375 
L 320.899699 295.225402 
L 321.080666 295.335135 
L 321.088534 295.395189 
L 321.112138 295.094382 
L 321.175083 295.293394 
L 321.206556 295.214936 
L 321.261633 295.366763 
L 321.293105 295.239048 
L 321.403259 295.139663 
L 321.450468 292.106142 
L 321.497676 295.27084 
L 321.505544 294.818282 
L 321.537017 295.310228 
L 321.560621 295.182138 
L 321.568489 289.530335 
L 321.639303 295.306304 
L 321.670775 294.700541 
L 321.788797 295.31205 
L 321.686511 293.43674 
L 321.796665 295.28389 
L 321.812401 295.072775 
L 321.851742 295.373094 
L 321.898951 295.287085 
L 322.009104 295.424793 
L 321.938291 295.254708 
L 322.016973 295.391899 
L 322.079918 295.247092 
L 322.119258 295.429701 
L 322.142863 295.313235 
L 322.205808 295.440609 
L 322.276621 295.122307 
L 322.323829 295.350559 
L 322.331697 295.291846 
L 322.418247 295.429856 
L 322.426115 295.331495 
L 322.504796 295.437934 
L 322.441851 295.288196 
L 322.536269 295.358813 
L 322.559873 295.258266 
L 322.567741 295.111286 
L 322.654291 295.338654 
L 322.662159 295.334099 
L 322.670027 295.360885 
L 322.677895 295.351492 
L 322.685763 293.753572 
L 322.788049 295.281968 
L 322.850994 294.443565 
L 322.827389 295.36324 
L 322.898202 295.248032 
L 322.906071 295.248014 
L 322.953279 294.977313 
L 323.008356 295.275816 
L 323.094906 295.380469 
L 323.039829 295.220531 
L 323.11851 295.298666 
L 323.181455 295.045433 
L 323.149982 295.371443 
L 323.205059 295.354699 
L 323.228664 295.266147 
L 323.307345 295.402209 
L 323.401762 295.210635 
L 323.425367 295.303519 
L 323.504048 295.217026 
L 323.480444 295.407552 
L 323.527652 295.31296 
L 323.559125 295.25753 
L 323.62207 295.359544 
L 323.763696 293.453959 
L 323.771564 294.106177 
L 323.87385 295.19181 
L 323.826641 293.509671 
L 323.897454 295.139859 
L 323.936795 294.13993 
L 324.007608 295.124862 
L 324.133498 295.36036 
L 324.086289 295.051045 
L 324.141366 295.317321 
L 324.180707 295.038072 
L 324.243652 295.273726 
L 324.25152 295.344273 
L 324.298729 294.892551 
L 324.345937 295.222415 
L 324.393146 295.355176 
L 324.408882 294.805822 
L 324.5033 295.332318 
L 324.511168 295.321608 
L 324.519036 295.084878 
L 324.589849 295.351503 
L 324.621322 295.299923 
L 324.660662 295.359053 
L 324.739344 295.154303 
L 324.802289 295.291624 
L 324.810157 295.241558 
L 324.818025 295.34344 
L 324.833761 289.675522 
L 324.928179 295.163743 
L 324.936047 295.160534 
L 324.943915 295.248565 
L 324.967519 295.003017 
L 325.054069 295.3191 
L 325.156354 295.230084 
L 325.17209 295.240716 
L 325.227167 295.211635 
L 325.203563 295.34785 
L 325.235035 295.259028 
L 325.242903 294.881636 
L 325.29798 295.352493 
L 325.337321 295.325866 
L 325.353057 295.17196 
L 325.416002 295.381794 
L 325.42387 295.180029 
L 325.526156 295.286759 
L 325.534024 295.311677 
L 325.581233 295.103619 
L 325.628442 295.253589 
L 325.738595 294.396713 
L 325.714991 295.280491 
L 325.770068 295.096767 
L 325.793672 295.275527 
L 325.825145 294.901355 
L 325.895958 289.514334 
L 325.88809 295.150136 
L 325.935298 294.860335 
L 326.029716 295.367211 
L 326.045452 294.966166 
L 326.132002 294.397725 
L 326.124133 295.294064 
L 326.147738 295.11243 
L 326.163474 295.302064 
L 326.171342 294.970964 
L 326.26576 295.261658 
L 326.312968 295.136281 
L 326.297232 295.327937 
L 326.360177 295.300716 
L 326.423122 295.104306 
L 326.462463 295.368381 
L 326.55688 294.764734 
L 326.572616 295.091179 
L 326.635561 295.371143 
L 326.651298 294.95321 
L 326.667034 295.211836 
L 326.674902 293.568999 
L 326.76932 295.304523 
L 326.777188 295.299516 
L 326.832265 294.510046 
L 326.816528 295.304515 
L 326.918814 294.984204 
L 326.926682 295.161656 
L 326.950286 295.112601 
L 326.958155 292.815397 
L 327.013231 295.178435 
L 327.06044 294.114145 
L 327.14699 295.307747 
L 327.18633 295.234839 
L 327.265011 295.28803 
L 327.233539 295.151367 
L 327.280748 295.184818 
L 327.296484 295.119772 
L 327.320088 295.367095 
L 327.383033 295.201407 
L 327.390901 295.310281 
L 327.477451 295.158356 
L 327.493187 295.229699 
L 327.52466 295.342404 
L 327.548264 295.251068 
L 327.556132 295.039225 
L 327.619077 295.36151 
L 327.658418 295.22549 
L 327.674154 295.312663 
L 327.721363 295.183659 
L 327.807912 294.433268 
L 327.784308 295.335222 
L 327.831516 295.091906 
L 327.862989 295.364987 
L 327.918066 295.275284 
L 327.925934 294.410328 
L 328.020351 295.352145 
L 328.028219 295.285639 
L 328.06756 294.401614 
L 328.138373 295.075837 
L 328.161978 295.265419 
L 328.169846 294.405395 
L 328.209186 295.086051 
L 328.224923 294.006379 
L 328.311472 295.160968 
L 328.335076 295.314157 
L 328.358681 295.190476 
L 328.366549 294.287656 
L 328.468834 295.142513 
L 328.476703 295.187823 
L 328.484571 295.106759 
L 328.492439 295.134693 
L 328.500307 294.560643 
L 328.57112 295.284245 
L 328.602593 295.099444 
L 328.634065 295.271001 
L 328.649801 294.919684 
L 328.704878 294.236971 
L 328.673406 295.1272 
L 328.759955 294.922651 
L 328.815032 295.339552 
L 328.838636 294.790048 
L 328.877977 295.248304 
L 328.917318 295.042131 
L 328.940922 295.141394 
L 329.027471 294.583241 
L 329.051076 295.000915 
L 329.129757 293.828042 
L 329.07468 295.104641 
L 329.176966 294.832476 
L 329.255647 294.048668 
L 329.294988 295.187745 
L 329.310724 294.816971 
L 329.357933 295.143569 
L 329.365801 291.127664 
L 329.436614 295.265668 
L 329.468086 295.208727 
L 329.554636 294.884155 
L 329.523163 295.253129 
L 329.57824 295.22363 
L 329.641185 295.333749 
L 329.656921 295.054217 
L 329.672657 295.182436 
L 329.680526 295.06799 
L 329.743471 295.266032 
L 329.774943 295.077686 
L 329.822152 295.309062 
L 329.877229 295.301544 
L 329.885097 294.428478 
L 329.95591 295.30509 
L 329.987382 295.224329 
L 330.073932 295.299939 
L 330.034591 295.093202 
L 330.089668 295.23785 
L 330.105404 293.522682 
L 330.20769 294.881895 
L 330.239162 295.017378 
L 330.262767 294.460528 
L 330.286371 294.976811 
L 330.294239 293.327283 
L 330.380789 295.18975 
L 330.396525 294.788249 
L 330.427997 295.302565 
L 330.443734 294.287403 
L 330.514547 295.246442 
L 330.546019 294.785924 
L 330.553887 295.064034 
L 330.561756 292.434016 
L 330.648305 295.343868 
L 330.664041 295.230796 
L 330.687646 295.22363 
L 330.695514 295.185359 
L 330.726986 294.051687 
L 330.766327 295.234872 
L 330.813536 295.048881 
L 330.821404 295.065067 
L 330.829272 294.305219 
L 330.915821 295.3993 
L 330.931557 295.139287 
L 330.947294 295.067748 
L 331.08892 295.348563 
L 331.183337 289.256797 
L 331.21481 293.481062 
L 331.222678 293.468702 
L 331.230546 293.635822 
L 331.238414 293.542858 
L 331.348568 295.198704 
L 331.25415 293.155954 
L 331.411513 294.948998 
L 331.427249 294.490934 
L 331.50593 295.201467 
L 331.513799 295.141861 
L 331.529535 295.111106 
L 331.576744 294.463784 
L 331.63182 295.215736 
L 331.679029 295.281213 
L 331.686897 294.767757 
L 331.726238 295.330757 
L 331.789183 295.079031 
L 331.852128 295.428234 
L 331.907205 295.180195 
L 331.978018 295.420126 
L 331.954414 294.985332 
L 332.017359 295.262625 
L 332.064567 294.71765 
L 332.09604 295.292937 
L 332.127512 295.270583 
L 332.174721 294.350159 
L 332.26127 295.051862 
L 332.316347 295.203943 
L 332.277007 295.00646 
L 332.379292 295.126672 
L 332.465842 295.227048 
L 332.489446 294.164889 
L 332.615336 295.204884 
L 332.623204 294.338474 
L 332.72549 295.110366 
L 332.756962 295.066711 
L 332.788435 295.192807 
L 332.914325 287.882629 
L 332.835643 295.214692 
L 332.930061 293.152151 
L 333.000874 295.285161 
L 333.008742 295.208365 
L 333.01661 289.543448 
L 333.118896 295.173508 
L 333.126764 295.168311 
L 333.134632 295.199162 
L 333.1425 295.326344 
L 333.150368 295.304534 
L 333.158237 283.786798 
L 333.236918 295.3732 
L 333.260522 295.058191 
L 333.276258 295.186656 
L 333.284127 292.375863 
L 333.386412 295.087979 
L 333.457225 295.059325 
L 333.425753 295.172729 
L 333.48083 295.148363 
L 333.504434 295.17077 
L 333.512302 294.95808 
L 333.559511 295.299826 
L 333.614588 295.163838 
L 333.638192 295.005096 
L 333.716873 294.909112 
L 333.661797 295.200924 
L 333.724741 295.07964 
L 333.827027 295.427746 
L 333.850631 295.351406 
L 333.889972 294.464202 
L 333.874236 295.407058 
L 333.960785 295.256503 
L 333.992258 295.427662 
L 334.047335 295.239663 
L 334.078807 295.406103 
L 334.102411 295.231482 
L 334.188961 295.256818 
L 334.204697 295.374113 
L 334.244038 295.162216 
L 334.291246 295.193391 
L 334.338455 295.283798 
L 334.369928 295.210906 
L 334.377796 294.834043 
L 334.456477 295.262378 
L 334.480081 295.216395 
L 334.495818 295.136372 
L 334.503686 295.146586 
L 334.511554 294.769068 
L 334.558763 295.335314 
L 334.61384 295.169221 
L 334.621708 295.202241 
L 334.629576 294.373806 
L 334.661048 295.272307 
L 334.731861 295.22706 
L 334.786938 295.207334 
L 334.763334 295.259062 
L 334.818411 295.287782 
L 334.920696 295.397383 
L 334.928565 295.378194 
L 334.983641 295.209216 
L 334.944301 295.383786 
L 335.054455 295.255411 
L 335.164608 295.421519 
L 335.093795 294.788192 
L 335.172476 295.406758 
L 335.188213 294.852213 
L 335.290498 295.310775 
L 335.463597 294.991895 
L 335.314103 295.362268 
L 335.479333 295.159218 
L 335.573751 295.358659 
L 335.526542 295.061525 
L 335.620959 295.287924 
L 335.644564 295.216397 
L 335.652432 295.140695 
L 335.715377 295.318053 
L 335.738981 295.293449 
L 335.754718 295.315935 
L 335.770454 295.126925 
L 335.849135 295.280403 
L 335.935684 295.217021 
L 335.967157 295.249838 
L 336.077311 295.427622 
L 336.085179 295.347521 
L 336.093047 289.613026 
L 336.195333 295.233233 
L 336.274014 295.377903 
L 336.305486 295.063647 
L 336.368431 295.259291 
L 336.376299 295.200052 
L 336.384168 294.136629 
L 336.486453 295.310234 
L 336.502189 295.202171 
L 336.549398 295.209311 
L 336.573002 295.269726 
L 336.612343 295.422189 
L 336.635947 295.256009 
L 336.691024 295.368985 
L 336.816914 294.420872 
L 336.832651 294.799932 
L 336.958541 295.306431 
L 336.848387 294.103976 
L 336.966409 295.25796 
L 337.013617 295.408266 
L 337.068694 295.241416 
L 337.139507 295.360746 
L 337.155244 295.158115 
L 337.178848 295.255826 
L 337.249661 295.205075 
L 337.226057 295.361343 
L 337.289002 295.277052 
L 337.29687 295.3369 
L 337.304738 295.066644 
L 337.391287 295.27564 
L 337.430628 295.007928 
L 337.462101 295.303402 
L 337.477837 295.28227 
L 337.485705 295.361219 
L 337.493573 295.280851 
L 337.501441 289.579691 
L 337.564386 295.374971 
L 337.603727 295.269085 
L 337.619463 295.207143 
L 337.698144 295.415761 
L 337.713881 295.445222 
L 337.737485 295.249496 
L 337.768957 295.277616 
L 337.792562 295.23756 
L 337.871243 294.716328 
L 337.847639 295.305091 
L 337.902716 295.186615 
L 337.949924 294.864608 
L 338.036474 295.366649 
L 338.154495 295.147147 
L 338.162364 295.244696 
L 338.233177 295.384499 
L 338.241045 294.838703 
L 338.280385 295.343426 
L 338.327594 295.253485 
L 338.335462 295.204164 
L 338.422012 295.359115 
L 338.46922 295.175638 
L 338.437748 295.392528 
L 338.55577 295.231068 
L 338.59511 295.157109 
L 338.744605 295.391934 
L 338.791814 292.459627 
L 338.854759 295.29801 
L 338.909835 295.426274 
L 338.957044 295.275145 
L 338.964912 295.323218 
L 339.051462 295.44931 
L 339.075066 295.418635 
L 339.193088 294.41054 
L 339.216692 295.113315 
L 339.279637 295.31106 
L 339.263901 295.067902 
L 339.287505 295.251276 
L 339.326846 285.137545 
L 339.397659 295.321499 
L 339.405527 295.298998 
L 339.413395 289.588764 
L 339.484208 295.34052 
L 339.515681 295.194257 
L 339.531417 295.319254 
L 339.547153 295.1177 
L 339.555022 294.690786 
L 339.625835 295.231484 
L 339.657307 295.114768 
L 339.696648 295.312052 
L 339.783197 295.299197 
L 339.791065 295.225063 
L 339.85401 295.449368 
L 339.893351 295.275862 
L 339.964164 295.231645 
L 339.972032 295.046822 
L 340.003505 295.350983 
L 340.011373 289.614757 
L 340.097922 295.353052 
L 340.113658 295.204422 
L 340.208076 295.431318 
L 340.23168 295.345497 
L 340.239548 295.197459 
L 340.310362 295.389084 
L 340.341834 295.264409 
L 340.420515 295.254845 
L 340.365438 295.364667 
L 340.436252 295.300708 
L 340.451988 295.406378 
L 340.538537 295.241429 
L 340.546405 295.314229 
L 340.577878 295.115243 
L 340.601482 295.326947 
L 340.656559 295.248404 
L 340.688032 295.221779 
L 340.6959 294.229292 
L 340.766713 295.349292 
L 340.798185 295.197573 
L 340.806053 295.177688 
L 340.853262 295.306014 
L 340.868998 295.264205 
L 340.876866 294.540948 
L 340.94768 295.270379 
L 340.979152 295.219928 
L 340.994888 294.982704 
L 341.018493 295.26044 
L 341.081438 295.247204 
L 341.2388 295.376859 
L 341.246668 295.326678 
L 341.333218 295.117147 
L 341.309613 295.345348 
L 341.356822 295.283403 
L 341.388295 295.25964 
L 341.396163 295.355497 
L 341.404031 295.405648 
L 341.459108 295.27092 
L 341.49058 295.291186 
L 341.514185 295.232388 
L 341.522053 295.254442 
L 341.529921 294.399907 
L 341.57713 295.34545 
L 341.632206 295.320268 
L 341.640075 295.302349 
L 341.655811 295.362522 
L 341.663679 295.355866 
L 341.671547 294.934541 
L 341.74236 295.403234 
L 341.773833 295.376395 
L 341.781701 295.380845 
L 341.789569 295.308572 
L 341.891855 294.696829 
L 341.86825 295.366923 
L 341.915459 295.144745 
L 341.939063 295.276956 
L 341.9548 295.08619 
L 341.962668 295.181343 
L 342.041349 289.59997 
L 342.025613 295.365954 
L 342.072821 294.536549 
L 342.175107 295.356698 
L 342.198711 295.279148 
L 342.20658 295.277822 
L 342.253788 294.439427 
L 342.24592 295.355475 
L 342.316733 295.267197 
L 342.363942 295.415614 
L 342.395414 295.234061 
L 342.419019 295.307945 
L 342.450491 295.155312 
L 342.513436 295.419661 
L 342.521304 295.445561 
L 342.568513 295.313793 
L 342.592118 295.324783 
L 342.599986 295.268969 
L 342.62359 295.370417 
L 342.631458 289.624474 
L 342.733744 295.148861 
L 342.812425 295.398696 
L 342.867502 295.244036 
L 342.906843 295.39781 
L 342.993392 295.271676 
L 343.079941 294.992427 
L 343.072073 295.288679 
L 343.103546 295.257681 
L 343.221568 295.368077 
L 343.119282 294.986849 
L 343.229436 295.355088 
L 343.237304 294.450229 
L 343.339589 295.350382 
L 343.37893 295.13252 
L 343.418271 295.365939 
L 343.426139 294.455655 
L 343.528424 295.303719 
L 343.622842 295.373156 
L 343.583501 295.067167 
L 343.638578 295.313231 
L 343.654314 295.193624 
L 343.685787 295.362471 
L 343.748732 295.293797 
L 343.827413 295.282921 
L 343.788072 295.208885 
L 343.843149 295.241728 
L 343.851017 295.229727 
L 343.858886 295.284242 
L 343.906094 295.276777 
L 343.913962 294.866026 
L 343.937567 295.325097 
L 344.016248 295.255465 
L 344.047721 294.677045 
L 344.110666 295.421555 
L 344.118534 295.377314 
L 344.165742 295.228979 
L 344.228687 295.281696 
L 344.252292 295.372249 
L 344.275896 295.246227 
L 344.315237 295.254749 
L 344.323105 295.14895 
L 344.417522 295.364751 
L 344.425391 295.409792 
L 344.433259 295.395646 
L 344.543412 289.581085 
L 344.63783 295.280609 
L 344.669302 294.979141 
L 344.692907 295.17847 
L 344.716511 295.258155 
L 344.732247 295.03522 
L 344.755852 295.230336 
L 344.76372 294.387853 
L 344.858137 295.247021 
L 344.866006 295.233854 
L 344.881742 295.120049 
L 344.897478 295.274407 
L 344.905346 294.19969 
L 344.968291 295.286408 
L 345.007632 295.237628 
L 345.086313 295.342277 
L 345.062709 295.150891 
L 345.133522 295.300829 
L 345.14139 295.294792 
L 345.243675 294.324109 
L 345.220071 295.334696 
L 345.251544 294.833104 
L 345.338093 295.404905 
L 345.377434 295.347039 
L 345.456115 295.311212 
L 345.534796 289.224266 
L 345.566269 294.916739 
L 345.597741 295.210373 
L 345.652818 294.368714 
L 345.68429 295.180416 
L 345.692159 294.988058 
L 345.707895 295.23146 
L 345.715763 289.554996 
L 345.81018 295.260009 
L 345.818049 294.352399 
L 345.825917 294.373337 
L 345.833785 294.727909 
L 345.841653 294.13664 
L 345.849521 284.851342 
L 345.943939 295.23638 
L 345.951807 295.224767 
L 345.959675 295.230973 
L 345.967543 295.196173 
L 345.975411 294.117959 
L 346.054092 295.210376 
L 346.077697 295.136605 
L 346.124905 295.285436 
L 346.14851 295.276501 
L 346.18785 294.326398 
L 346.258664 295.280465 
L 346.368817 295.051897 
L 346.305872 295.361095 
L 346.376685 295.164197 
L 346.408158 295.294228 
L 346.416026 295.263674 
L 346.471103 288.029817 
L 346.52618 293.8372 
L 346.628465 295.271157 
L 346.541916 292.202454 
L 346.644202 294.914927 
L 346.659938 295.201515 
L 346.69141 294.343644 
L 346.722883 295.033961 
L 346.809432 293.216279 
L 346.770092 295.114221 
L 346.833037 294.280806 
L 346.90385 295.273632 
L 346.927454 293.722589 
L 346.958927 295.087899 
L 346.990399 293.115818 
L 347.053344 295.11032 
L 347.06908 295.023545 
L 347.092685 294.797917 
L 347.163498 295.265573 
L 347.273652 289.092577 
L 347.187102 295.266403 
L 347.297256 294.079997 
L 347.415278 295.29679 
L 347.470355 294.384925 
L 347.5333 295.115509 
L 347.549036 295.303142 
L 347.596245 293.891765 
L 347.643453 295.394084 
L 347.65919 294.626756 
L 347.706398 295.38623 
L 347.777212 295.174193 
L 347.816552 295.237202 
L 347.792948 294.925606 
L 347.82442 295.147897 
L 347.832288 294.815851 
L 347.926706 295.384389 
L 347.95031 295.083904 
L 348.052596 295.264019 
L 348.0762 295.111509 
L 348.107673 295.319477 
L 348.123409 295.421392 
L 348.131277 295.027091 
L 348.20209 295.245429 
L 348.209958 295.072213 
L 348.217826 289.475372 
L 348.320112 295.391572 
L 348.41453 295.052051 
L 348.461738 295.22481 
L 348.595496 295.357848 
L 348.603365 295.295291 
L 348.642705 294.953103 
L 348.713518 295.14082 
L 348.729255 295.322252 
L 348.737123 294.838688 
L 348.760727 295.276376 
L 348.768595 292.467669 
L 348.870881 295.343568 
L 348.941694 295.111825 
L 348.902353 295.365779 
L 348.981035 295.355985 
L 349.122661 295.037407 
L 349.16987 295.272027 
L 349.177738 295.354931 
L 349.240683 295.103307 
L 349.264287 295.126739 
L 349.280023 295.079974 
L 349.303628 295.310592 
L 349.319364 295.298037 
L 349.390177 295.356708 
L 349.398045 294.841509 
L 349.445254 295.40969 
L 349.500331 295.296515 
L 349.516067 295.101275 
L 349.531803 295.197072 
L 349.539671 295.000892 
L 349.610484 295.334556 
L 349.634089 295.304947 
L 349.641957 295.380326 
L 349.71277 295.1002 
L 349.744243 295.294625 
L 349.752111 295.298801 
L 349.783583 295.319474 
L 349.870133 294.662802 
L 349.972418 295.342835 
L 349.996023 295.22021 
L 350.09044 295.321083 
L 350.058968 295.203315 
L 350.098308 295.246882 
L 350.106176 292.511937 
L 350.184858 295.34154 
L 350.208462 295.268293 
L 350.247803 295.378755 
L 350.271407 295.349606 
L 350.279275 289.614069 
L 350.381561 295.292192 
L 350.413033 295.282709 
L 350.397297 295.340546 
L 350.436638 295.34728 
L 350.444506 294.995539 
L 350.515319 295.36615 
L 350.546791 295.353134 
L 350.562528 295.389546 
L 350.570396 134.196148 
L 350.672681 295.304093 
L 350.680549 295.334863 
L 350.71989 295.217895 
L 350.790703 294.832939 
L 350.759231 295.330058 
L 350.822176 295.279588 
L 350.837912 295.364216 
L 350.885121 295.127817 
L 350.892989 295.207981 
L 351.011011 294.28361 
L 351.121164 295.337081 
L 351.136901 295.090588 
L 351.144769 295.023858 
L 351.199846 295.317302 
L 351.22345 295.147036 
L 351.231318 295.277534 
L 351.239186 294.411452 
L 351.286395 294.974106 
L 351.388681 294.111085 
L 351.357208 295.306185 
L 351.396549 294.707031 
L 351.47523 295.359688 
L 351.498834 294.686961 
L 351.546043 294.326694 
L 351.577516 295.197377 
L 351.585384 295.022763 
L 351.695537 295.348766 
L 351.703406 295.187106 
L 351.742746 295.37648 
L 351.758482 295.142055 
L 351.774219 295.305981 
L 351.8529 293.833691 
L 351.884372 294.793212 
L 351.931581 295.339764 
L 352.002394 295.310865 
L 352.010262 294.405544 
L 352.112548 295.145536 
L 352.175493 295.344887 
L 352.238438 295.192227 
L 352.293515 294.402056 
L 352.332855 295.295081 
L 352.340724 295.284545 
L 352.411537 295.373844 
L 352.380064 295.199898 
L 352.435141 295.349932 
L 352.490218 295.044017 
L 352.545295 295.287179 
L 352.553163 295.314639 
L 352.561031 294.393351 
L 352.60824 295.348553 
L 352.663317 295.137181 
L 352.718394 294.400498 
L 352.765602 295.276442 
L 352.789207 295.369017 
L 352.852152 295.133664 
L 352.938701 295.32977 
L 352.891492 295.078656 
L 352.954437 295.193245 
L 353.001646 289.592494 
L 352.993778 295.306458 
L 353.064591 295.162857 
L 353.080327 295.014026 
L 353.159009 295.272517 
L 353.221954 295.402834 
L 353.174745 295.200089 
L 353.245558 295.340456 
L 353.253426 294.498077 
L 353.355712 295.274666 
L 353.457997 295.095958 
L 353.442261 295.345435 
L 353.465865 295.158601 
L 353.568151 295.39489 
L 353.48947 295.114138 
L 353.583887 295.324056 
L 353.662569 295.446312 
L 353.694041 295.321813 
L 353.788458 295.389763 
L 353.796327 295.335259 
L 353.898612 295.02804 
L 353.922217 295.195837 
L 354.040238 295.353598 
L 354.055975 294.467595 
L 354.166128 289.529869 
L 354.150392 295.411259 
L 354.173997 291.592783 
L 354.268414 295.340344 
L 354.299887 295.185294 
L 354.362832 295.416603 
L 354.425777 295.35675 
L 354.441513 295.3795 
L 354.449381 295.111265 
L 354.53593 295.389871 
L 354.551667 295.201147 
L 354.559535 295.176613 
L 354.567403 295.262418 
L 354.575271 295.207248 
L 354.583139 294.376309 
L 354.606743 295.180921 
L 354.614612 134.091836 
L 354.701161 295.240664 
L 354.716897 295.235822 
L 354.740502 295.20261 
L 354.771974 295.335474 
L 354.78771 293.958883 
L 354.827051 295.337245 
L 354.882128 295.303746 
L 354.889996 254.772088 
L 354.992282 295.106072 
L 355.023754 294.793756 
L 355.055227 295.306272 
L 355.070963 295.241131 
L 355.086699 295.280696 
L 355.196853 294.278524 
L 355.16538 295.313412 
L 355.204721 294.797266 
L 355.322743 295.346107 
L 355.330611 295.325382 
L 355.338479 295.094205 
L 355.41716 295.372591 
L 355.440765 295.331836 
L 355.448633 295.389193 
L 355.456501 294.93552 
L 355.550918 295.32808 
L 355.582391 295.382392 
L 355.613863 295.07019 
L 355.692545 295.261334 
L 355.700413 295.258319 
L 355.716149 295.351979 
L 355.731885 295.34871 
L 355.739753 295.372099 
L 355.763358 295.143245 
L 355.779094 295.211021 
L 355.786962 295.057101 
L 355.849907 295.343283 
L 355.88138 295.248172 
L 355.967929 295.363944 
L 355.928588 295.166124 
L 355.975797 295.31476 
L 355.983665 295.016978 
L 356.030874 295.342848 
L 356.085951 295.07528 
L 356.13316 295.249225 
L 356.141028 294.020038 
L 356.211841 295.320105 
L 356.243313 295.189246 
L 356.274786 295.357315 
L 356.282654 294.310639 
L 356.369203 295.366667 
L 356.38494 295.348647 
L 356.392808 295.403812 
L 356.471489 295.211843 
L 356.495093 295.338731 
L 356.534434 295.439527 
L 356.55017 295.147848 
L 356.558038 295.244973 
L 356.581643 291.536412 
L 356.668192 295.269683 
L 356.754741 295.320759 
L 356.715401 295.215402 
L 356.762609 295.232159 
L 356.778346 294.835698 
L 356.817686 295.002075 
L 356.825554 293.816106 
L 356.919972 295.320825 
L 356.92784 295.232192 
L 357.006521 295.354383 
L 357.030126 295.30159 
L 357.061598 295.4379 
L 357.085203 295.161322 
L 357.148148 295.369955 
L 357.258301 295.246408 
L 357.187488 295.403994 
L 357.266169 295.294254 
L 357.30551 295.416361 
L 357.360587 295.270574 
L 357.384191 295.011357 
L 357.415664 295.3326 
L 357.462873 295.289914 
L 357.486477 295.411077 
L 357.525818 295.36306 
L 357.533686 255.438361 
L 357.635971 295.041514 
L 357.675312 295.290657 
L 357.777598 246.893001 
L 357.801202 289.258589 
L 357.864147 295.33702 
L 357.927092 295.286269 
L 358.013641 295.207769 
L 357.974301 295.337743 
L 358.052982 295.28466 
L 358.108059 295.368873 
L 358.092322 295.259551 
L 358.155267 295.342701 
L 358.202476 294.995481 
L 358.18674 295.394056 
L 358.257553 295.359542 
L 358.328366 295.227692 
L 358.375575 295.423042 
L 358.399179 295.441313 
L 358.422784 295.39968 
L 358.430652 295.054349 
L 358.446388 295.33604 
L 358.454256 288.401471 
L 358.556542 295.335576 
L 358.580146 295.274155 
L 358.643091 295.403221 
L 358.650959 295.361222 
L 358.658827 294.453296 
L 358.761113 295.244874 
L 358.792586 295.154419 
L 358.81619 295.281665 
L 358.824058 294.86037 
L 358.894871 295.338747 
L 358.926344 295.214717 
L 358.997157 295.161439 
L 359.060102 295.397843 
L 359.123047 291.209223 
L 359.170256 295.329557 
L 359.19386 295.397159 
L 359.225332 295.255761 
L 359.280409 295.323515 
L 359.288277 295.373269 
L 359.304014 295.295977 
L 359.311882 294.705265 
L 359.351222 295.428668 
L 359.414167 295.359399 
L 359.547925 295.395674 
L 359.469244 295.260983 
L 359.563662 295.375736 
L 359.595134 295.307062 
L 359.634475 295.405898 
L 359.665947 295.343394 
L 359.673815 295.398056 
L 359.705288 295.072549 
L 359.728892 295.20438 
L 359.73676 294.928463 
L 359.791837 295.345703 
L 359.831178 295.18602 
L 359.839046 295.260952 
L 359.846914 134.131851 
L 359.941332 295.323068 
L 359.9492 295.317902 
L 360.035749 295.201869 
L 360.07509 295.359336 
L 360.106562 295.09617 
L 360.193112 295.427595 
L 360.311134 293.8711 
L 360.334738 294.606685 
L 360.389815 295.168142 
L 360.397683 295.0416 
L 360.405551 113.978447 
L 360.507837 294.592011 
L 360.61799 295.25659 
L 360.539309 293.51417 
L 360.625859 295.04884 
L 360.641595 295.338703 
L 360.673067 294.606079 
L 360.70454 295.075733 
L 360.712408 293.94581 
L 360.798957 295.366466 
L 360.806825 295.251733 
L 360.822562 295.256475 
L 360.95632 290.932309 
L 360.964188 292.932864 
L 361.058605 295.175873 
L 361.074342 295.052414 
L 361.08221 290.468423 
L 361.160891 295.139743 
L 361.184495 295.086945 
L 361.200232 295.062041 
L 361.2081 295.222805 
L 361.215968 295.337197 
L 361.294649 294.962905 
L 361.302517 295.028687 
L 361.365462 294.345478 
L 361.326122 295.319485 
L 361.396935 294.770339 
L 361.404803 293.8791 
L 361.507088 294.532379 
L 361.62511 295.289727 
L 361.703792 295.173717 
L 361.719528 295.206668 
L 361.751 295.173971 
L 361.758868 289.526251 
L 361.861154 295.051989 
L 361.994912 295.286047 
L 361.931967 294.827239 
L 362.010648 295.281741 
L 362.057857 295.300544 
L 362.065725 294.928674 
L 362.168011 295.172428 
L 362.183747 295.237526 
L 362.286033 295.121567 
L 362.301769 295.071821 
L 362.317505 295.139444 
L 362.348978 295.293432 
L 362.396186 294.97961 
L 362.411923 295.009356 
L 362.427659 294.841019 
L 362.451263 295.051009 
L 362.459131 294.991538 
L 362.467 221.600382 
L 362.569285 295.246761 
L 362.616494 295.294966 
L 362.63223 295.112093 
L 362.655835 295.177147 
L 362.765988 294.288137 
L 362.710911 295.23677 
L 362.781725 294.832692 
L 362.899746 295.370842 
L 362.915483 295.361305 
L 363.041373 294.705035 
L 363.080713 294.219386 
L 363.175131 295.219262 
L 363.277416 294.837732 
L 363.285285 295.08187 
L 363.293153 295.075179 
L 363.363966 293.107564 
L 363.356098 295.087451 
L 363.403306 294.746017 
L 363.505592 295.228196 
L 363.434779 294.228368 
L 363.529196 295.124256 
L 363.552801 294.882738 
L 363.592141 295.210587 
L 363.623614 295.109338 
L 363.710163 294.947812 
L 363.733768 295.237215 
L 363.741636 288.912903 
L 363.843921 295.180215 
L 363.859658 295.325174 
L 363.922603 294.769673 
L 363.938339 294.969956 
L 364.024888 290.656123 
L 363.985548 295.113295 
L 364.048493 294.422318 
L 364.135042 295.268742 
L 364.166514 295.136707 
L 364.174383 294.843625 
L 364.190119 295.056742 
L 364.197987 134.029746 
L 364.300273 293.67293 
L 364.339613 294.805975 
L 364.347481 292.997086 
L 364.449767 294.858638 
L 364.465503 294.942533 
L 364.473371 295.173232 
L 364.544184 294.42913 
L 364.567789 294.969853 
L 364.685811 291.953947 
L 364.701547 294.074574 
L 364.77236 295.059941 
L 364.811701 294.976457 
L 364.819569 289.427494 
L 364.890382 295.087096 
L 364.921854 294.800072 
L 364.945459 294.732924 
L 364.953327 289.305727 
L 365.047744 295.059899 
L 365.055613 294.901675 
L 365.197239 289.846082 
L 365.102821 295.016028 
L 365.212975 292.997576 
L 365.27592 295.131555 
L 365.338865 294.696905 
L 365.346733 294.385248 
L 365.441151 295.021265 
L 365.464755 294.866399 
L 365.480491 295.140722 
L 365.559172 294.904938 
L 365.567041 294.929227 
L 365.574909 294.69181 
L 365.685062 267.982907 
L 365.622117 294.981742 
L 365.700799 288.219283 
L 365.787348 295.079869 
L 365.818821 294.594819 
L 365.889634 295.153364 
L 365.850293 293.933719 
L 365.936842 294.9467 
L 365.999787 294.120228 
L 366.062732 294.847312 
L 366.133546 295.222071 
L 366.196491 295.081473 
L 366.298776 294.681216 
L 366.235831 295.303028 
L 366.338117 294.701827 
L 366.345985 292.163229 
L 366.416798 295.137152 
L 366.448271 294.993958 
L 366.464007 294.385841 
L 366.519084 295.132651 
L 366.53482 295.039478 
L 366.605633 295.186187 
L 366.589897 294.875406 
L 366.621369 295.01073 
L 366.707919 293.702883 
L 366.731523 294.685072 
L 366.794468 295.086397 
L 366.770864 294.62116 
L 366.818072 294.868833 
L 366.888885 293.575111 
L 366.928226 294.838861 
L 367.022644 293.970749 
L 366.975435 295.223088 
L 367.03838 294.438955 
L 367.054116 295.065396 
L 367.16427 294.866686 
L 367.172138 294.866477 
L 367.227215 295.245618 
L 367.20361 294.440432 
L 367.274424 294.807558 
L 367.345237 294.930185 
L 367.321632 294.65239 
L 367.360973 294.728013 
L 367.400314 294.396909 
L 367.423918 295.027827 
L 367.463259 294.780173 
L 367.494731 295.133563 
L 367.565544 294.891024 
L 367.589149 293.443955 
L 367.597017 269.457998 
L 367.691434 295.147068 
L 367.699302 295.01215 
L 367.79372 295.258702 
L 367.809456 293.191489 
L 367.817324 133.556599 
L 367.91961 295.266754 
L 367.935346 295.023197 
L 368.037632 295.128067 
L 368.0455 295.243537 
L 368.100577 294.815671 
L 368.132049 294.921989 
L 368.21073 295.301088 
L 368.242203 295.211096 
L 368.320884 295.300782 
L 368.375961 290.743634 
L 368.501851 295.298075 
L 368.533323 295.41726 
L 368.564796 295.17788 
L 368.580532 295.358403 
L 368.5884 287.315941 
L 368.690686 295.427761 
L 368.769367 294.897648 
L 368.80084 295.420256 
L 368.92673 295.339488 
L 368.934598 295.006566 
L 368.96607 295.380306 
L 369.036883 295.25324 
L 369.147037 295.444017 
L 369.060488 294.835957 
L 369.162773 295.40611 
L 369.225718 294.991116 
L 369.280795 295.168752 
L 369.320136 295.00582 
L 369.446026 295.36832 
L 369.477498 294.970657 
L 369.548311 295.415319 
L 369.571916 295.358188 
L 369.587652 295.434681 
L 369.674201 293.813141 
L 369.729278 294.48461 
L 369.831564 295.377595 
L 369.8473 295.366402 
L 369.965322 294.858281 
L 370.051871 295.251743 
L 370.020399 294.837102 
L 370.083344 295.074296 
L 370.130553 295.280284 
L 370.154157 294.975472 
L 370.201366 295.263905 
L 370.272179 294.497653 
L 370.256443 295.314527 
L 370.327256 294.958928 
L 370.429541 295.216717 
L 370.405937 294.345346 
L 370.43741 295.190525 
L 370.445278 294.742068 
L 370.47675 295.273536 
L 370.547563 295.16337 
L 370.571168 295.1928 
L 370.579036 295.019199 
L 370.673453 295.365083 
L 370.72853 294.61568 
L 370.838684 295.093203 
L 370.909497 266.296386 
L 370.948838 291.742858 
L 371.019651 294.992161 
L 371.035387 294.918321 
" style="fill:none;stroke:#ff7f0e;stroke-linecap:square;stroke-width:1.5;"/>
   </g>
   <g id="line2d_16">
    <path clip-path="url(#p2524aeb896)" d="M 73.832727 295.487972 
L 398.487273 295.487643 
L 398.487273 295.487643 
" style="fill:none;stroke:#2ca02c;stroke-linecap:square;stroke-width:1.5;"/>
   </g>
   <g id="line2d_17">
    <path clip-path="url(#p2524aeb896)" d="M 73.832727 295.488 
L 100.183076 295.487163 
L 371.035387 295.486683 
L 371.035387 295.486683 
" style="fill:none;stroke:#d62728;stroke-linecap:square;stroke-width:1.5;"/>
   </g>
   <g id="patch_3">
    <path d="M 57.6 307.584 
L 57.6 41.472 
" style="fill:none;stroke:#000000;stroke-linecap:square;stroke-linejoin:miter;stroke-width:0.8;"/>
   </g>
   <g id="patch_4">
    <path d="M 414.72 307.584 
L 414.72 41.472 
" style="fill:none;stroke:#000000;stroke-linecap:square;stroke-linejoin:miter;stroke-width:0.8;"/>
   </g>
   <g id="patch_5">
    <path d="M 57.6 307.584 
L 414.72 307.584 
" style="fill:none;stroke:#000000;stroke-linecap:square;stroke-linejoin:miter;stroke-width:0.8;"/>
   </g>
   <g id="patch_6">
    <path d="M 57.6 41.472 
L 414.72 41.472 
" style="fill:none;stroke:#000000;stroke-linecap:square;stroke-linejoin:miter;stroke-width:0.8;"/>
   </g>
  </g>
 </g>
 <defs>
  <clipPath id="p2524aeb896">
   <rect height="266.112" width="357.12" x="57.6" y="41.472"/>
  </clipPath>
 </defs>
</svg>
