<?xml version="1.0" encoding="utf-8" standalone="no"?>
<!DOCTYPE svg PUBLIC "-//W3C//DTD SVG 1.1//EN"
  "http://www.w3.org/Graphics/SVG/1.1/DTD/svg11.dtd">
<svg height="720pt" version="1.1" viewBox="0 0 1440 720" width="1440pt" xmlns="http://www.w3.org/2000/svg" xmlns:xlink="http://www.w3.org/1999/xlink">
 <metadata>
  <rdf:RDF xmlns:cc="http://creativecommons.org/ns#" xmlns:dc="http://purl.org/dc/elements/1.1/" xmlns:rdf="http://www.w3.org/1999/02/22-rdf-syntax-ns#">
   <cc:Work>
    <dc:type rdf:resource="http://purl.org/dc/dcmitype/StillImage"/>
    <dc:date>2022-01-06T21:25:06.582279</dc:date>
    <dc:format>image/svg+xml</dc:format>
    <dc:creator>
     <cc:Agent>
      <dc:title>Matplotlib v3.4.3, https://matplotlib.org/</dc:title>
     </cc:Agent>
    </dc:creator>
   </cc:Work>
  </rdf:RDF>
 </metadata>
 <defs>
  <style type="text/css">*{stroke-linecap:butt;stroke-linejoin:round;}</style>
 </defs>
 <g id="figure_1">
  <g id="patch_1">
   <path d="M 0 720 
L 1440 720 
L 1440 0 
L 0 0 
z
" style="fill:#ffffff;"/>
  </g>
  <g id="axes_1">
   <g id="patch_2">
    <path d="M 180 640.8 
L 1296 640.8 
L 1296 86.4 
L 180 86.4 
z
" style="fill:#ffffff;"/>
   </g>
   <g id="matplotlib.axis_1">
    <g id="xtick_1">
     <g id="line2d_1">
      <defs>
       <path d="M 0 0 
L 0 3.5 
" id="m3cb4963660" style="stroke:#000000;stroke-width:0.8;"/>
      </defs>
      <g>
       <use style="stroke:#000000;stroke-width:0.8;" x="230.727273" xlink:href="#m3cb4963660" y="640.8"/>
      </g>
     </g>
     <g id="text_1">
      <!-- 39000 -->
      <g transform="translate(214.821023 655.398438)scale(0.1 -0.1)">
       <defs>
        <path d="M 2597 2516 
Q 3050 2419 3304 2112 
Q 3559 1806 3559 1356 
Q 3559 666 3084 287 
Q 2609 -91 1734 -91 
Q 1441 -91 1130 -33 
Q 819 25 488 141 
L 488 750 
Q 750 597 1062 519 
Q 1375 441 1716 441 
Q 2309 441 2620 675 
Q 2931 909 2931 1356 
Q 2931 1769 2642 2001 
Q 2353 2234 1838 2234 
L 1294 2234 
L 1294 2753 
L 1863 2753 
Q 2328 2753 2575 2939 
Q 2822 3125 2822 3475 
Q 2822 3834 2567 4026 
Q 2313 4219 1838 4219 
Q 1578 4219 1281 4162 
Q 984 4106 628 3988 
L 628 4550 
Q 988 4650 1302 4700 
Q 1616 4750 1894 4750 
Q 2613 4750 3031 4423 
Q 3450 4097 3450 3541 
Q 3450 3153 3228 2886 
Q 3006 2619 2597 2516 
z
" id="DejaVuSans-33" transform="scale(0.015625)"/>
        <path d="M 703 97 
L 703 672 
Q 941 559 1184 500 
Q 1428 441 1663 441 
Q 2288 441 2617 861 
Q 2947 1281 2994 2138 
Q 2813 1869 2534 1725 
Q 2256 1581 1919 1581 
Q 1219 1581 811 2004 
Q 403 2428 403 3163 
Q 403 3881 828 4315 
Q 1253 4750 1959 4750 
Q 2769 4750 3195 4129 
Q 3622 3509 3622 2328 
Q 3622 1225 3098 567 
Q 2575 -91 1691 -91 
Q 1453 -91 1209 -44 
Q 966 3 703 97 
z
M 1959 2075 
Q 2384 2075 2632 2365 
Q 2881 2656 2881 3163 
Q 2881 3666 2632 3958 
Q 2384 4250 1959 4250 
Q 1534 4250 1286 3958 
Q 1038 3666 1038 3163 
Q 1038 2656 1286 2365 
Q 1534 2075 1959 2075 
z
" id="DejaVuSans-39" transform="scale(0.015625)"/>
        <path d="M 2034 4250 
Q 1547 4250 1301 3770 
Q 1056 3291 1056 2328 
Q 1056 1369 1301 889 
Q 1547 409 2034 409 
Q 2525 409 2770 889 
Q 3016 1369 3016 2328 
Q 3016 3291 2770 3770 
Q 2525 4250 2034 4250 
z
M 2034 4750 
Q 2819 4750 3233 4129 
Q 3647 3509 3647 2328 
Q 3647 1150 3233 529 
Q 2819 -91 2034 -91 
Q 1250 -91 836 529 
Q 422 1150 422 2328 
Q 422 3509 836 4129 
Q 1250 4750 2034 4750 
z
" id="DejaVuSans-30" transform="scale(0.015625)"/>
       </defs>
       <use xlink:href="#DejaVuSans-33"/>
       <use x="63.623047" xlink:href="#DejaVuSans-39"/>
       <use x="127.246094" xlink:href="#DejaVuSans-30"/>
       <use x="190.869141" xlink:href="#DejaVuSans-30"/>
       <use x="254.492188" xlink:href="#DejaVuSans-30"/>
      </g>
     </g>
    </g>
    <g id="xtick_2">
     <g id="line2d_2">
      <g>
       <use style="stroke:#000000;stroke-width:0.8;" x="384.632833" xlink:href="#m3cb4963660" y="640.8"/>
      </g>
     </g>
     <g id="text_2">
      <!-- 39250 -->
      <g transform="translate(368.726583 655.398438)scale(0.1 -0.1)">
       <defs>
        <path d="M 1228 531 
L 3431 531 
L 3431 0 
L 469 0 
L 469 531 
Q 828 903 1448 1529 
Q 2069 2156 2228 2338 
Q 2531 2678 2651 2914 
Q 2772 3150 2772 3378 
Q 2772 3750 2511 3984 
Q 2250 4219 1831 4219 
Q 1534 4219 1204 4116 
Q 875 4013 500 3803 
L 500 4441 
Q 881 4594 1212 4672 
Q 1544 4750 1819 4750 
Q 2544 4750 2975 4387 
Q 3406 4025 3406 3419 
Q 3406 3131 3298 2873 
Q 3191 2616 2906 2266 
Q 2828 2175 2409 1742 
Q 1991 1309 1228 531 
z
" id="DejaVuSans-32" transform="scale(0.015625)"/>
        <path d="M 691 4666 
L 3169 4666 
L 3169 4134 
L 1269 4134 
L 1269 2991 
Q 1406 3038 1543 3061 
Q 1681 3084 1819 3084 
Q 2600 3084 3056 2656 
Q 3513 2228 3513 1497 
Q 3513 744 3044 326 
Q 2575 -91 1722 -91 
Q 1428 -91 1123 -41 
Q 819 9 494 109 
L 494 744 
Q 775 591 1075 516 
Q 1375 441 1709 441 
Q 2250 441 2565 725 
Q 2881 1009 2881 1497 
Q 2881 1984 2565 2268 
Q 2250 2553 1709 2553 
Q 1456 2553 1204 2497 
Q 953 2441 691 2322 
L 691 4666 
z
" id="DejaVuSans-35" transform="scale(0.015625)"/>
       </defs>
       <use xlink:href="#DejaVuSans-33"/>
       <use x="63.623047" xlink:href="#DejaVuSans-39"/>
       <use x="127.246094" xlink:href="#DejaVuSans-32"/>
       <use x="190.869141" xlink:href="#DejaVuSans-35"/>
       <use x="254.492188" xlink:href="#DejaVuSans-30"/>
      </g>
     </g>
    </g>
    <g id="xtick_3">
     <g id="line2d_3">
      <g>
       <use style="stroke:#000000;stroke-width:0.8;" x="538.538394" xlink:href="#m3cb4963660" y="640.8"/>
      </g>
     </g>
     <g id="text_3">
      <!-- 39500 -->
      <g transform="translate(522.632144 655.398438)scale(0.1 -0.1)">
       <use xlink:href="#DejaVuSans-33"/>
       <use x="63.623047" xlink:href="#DejaVuSans-39"/>
       <use x="127.246094" xlink:href="#DejaVuSans-35"/>
       <use x="190.869141" xlink:href="#DejaVuSans-30"/>
       <use x="254.492188" xlink:href="#DejaVuSans-30"/>
      </g>
     </g>
    </g>
    <g id="xtick_4">
     <g id="line2d_4">
      <g>
       <use style="stroke:#000000;stroke-width:0.8;" x="692.443954" xlink:href="#m3cb4963660" y="640.8"/>
      </g>
     </g>
     <g id="text_4">
      <!-- 39750 -->
      <g transform="translate(676.537704 655.398438)scale(0.1 -0.1)">
       <defs>
        <path d="M 525 4666 
L 3525 4666 
L 3525 4397 
L 1831 0 
L 1172 0 
L 2766 4134 
L 525 4134 
L 525 4666 
z
" id="DejaVuSans-37" transform="scale(0.015625)"/>
       </defs>
       <use xlink:href="#DejaVuSans-33"/>
       <use x="63.623047" xlink:href="#DejaVuSans-39"/>
       <use x="127.246094" xlink:href="#DejaVuSans-37"/>
       <use x="190.869141" xlink:href="#DejaVuSans-35"/>
       <use x="254.492188" xlink:href="#DejaVuSans-30"/>
      </g>
     </g>
    </g>
    <g id="xtick_5">
     <g id="line2d_5">
      <g>
       <use style="stroke:#000000;stroke-width:0.8;" x="846.349515" xlink:href="#m3cb4963660" y="640.8"/>
      </g>
     </g>
     <g id="text_5">
      <!-- 40000 -->
      <g transform="translate(830.443265 655.398438)scale(0.1 -0.1)">
       <defs>
        <path d="M 2419 4116 
L 825 1625 
L 2419 1625 
L 2419 4116 
z
M 2253 4666 
L 3047 4666 
L 3047 1625 
L 3713 1625 
L 3713 1100 
L 3047 1100 
L 3047 0 
L 2419 0 
L 2419 1100 
L 313 1100 
L 313 1709 
L 2253 4666 
z
" id="DejaVuSans-34" transform="scale(0.015625)"/>
       </defs>
       <use xlink:href="#DejaVuSans-34"/>
       <use x="63.623047" xlink:href="#DejaVuSans-30"/>
       <use x="127.246094" xlink:href="#DejaVuSans-30"/>
       <use x="190.869141" xlink:href="#DejaVuSans-30"/>
       <use x="254.492188" xlink:href="#DejaVuSans-30"/>
      </g>
     </g>
    </g>
    <g id="xtick_6">
     <g id="line2d_6">
      <g>
       <use style="stroke:#000000;stroke-width:0.8;" x="1000.255075" xlink:href="#m3cb4963660" y="640.8"/>
      </g>
     </g>
     <g id="text_6">
      <!-- 40250 -->
      <g transform="translate(984.348825 655.398438)scale(0.1 -0.1)">
       <use xlink:href="#DejaVuSans-34"/>
       <use x="63.623047" xlink:href="#DejaVuSans-30"/>
       <use x="127.246094" xlink:href="#DejaVuSans-32"/>
       <use x="190.869141" xlink:href="#DejaVuSans-35"/>
       <use x="254.492188" xlink:href="#DejaVuSans-30"/>
      </g>
     </g>
    </g>
    <g id="xtick_7">
     <g id="line2d_7">
      <g>
       <use style="stroke:#000000;stroke-width:0.8;" x="1154.160635" xlink:href="#m3cb4963660" y="640.8"/>
      </g>
     </g>
     <g id="text_7">
      <!-- 40500 -->
      <g transform="translate(1138.254385 655.398438)scale(0.1 -0.1)">
       <use xlink:href="#DejaVuSans-34"/>
       <use x="63.623047" xlink:href="#DejaVuSans-30"/>
       <use x="127.246094" xlink:href="#DejaVuSans-35"/>
       <use x="190.869141" xlink:href="#DejaVuSans-30"/>
       <use x="254.492188" xlink:href="#DejaVuSans-30"/>
      </g>
     </g>
    </g>
   </g>
   <g id="matplotlib.axis_2">
    <g id="ytick_1">
     <g id="line2d_8">
      <defs>
       <path d="M 0 0 
L -3.5 0 
" id="m42eb194b62" style="stroke:#000000;stroke-width:0.8;"/>
      </defs>
      <g>
       <use style="stroke:#000000;stroke-width:0.8;" x="180" xlink:href="#m42eb194b62" y="615.600448"/>
      </g>
     </g>
     <g id="text_8">
      <!-- 0 -->
      <g transform="translate(166.6375 619.399666)scale(0.1 -0.1)">
       <use xlink:href="#DejaVuSans-30"/>
      </g>
     </g>
    </g>
    <g id="ytick_2">
     <g id="line2d_9">
      <g>
       <use style="stroke:#000000;stroke-width:0.8;" x="180" xlink:href="#m42eb194b62" y="544.981371"/>
      </g>
     </g>
     <g id="text_9">
      <!-- 50 -->
      <g transform="translate(160.275 548.78059)scale(0.1 -0.1)">
       <use xlink:href="#DejaVuSans-35"/>
       <use x="63.623047" xlink:href="#DejaVuSans-30"/>
      </g>
     </g>
    </g>
    <g id="ytick_3">
     <g id="line2d_10">
      <g>
       <use style="stroke:#000000;stroke-width:0.8;" x="180" xlink:href="#m42eb194b62" y="474.362294"/>
      </g>
     </g>
     <g id="text_10">
      <!-- 100 -->
      <g transform="translate(153.9125 478.161513)scale(0.1 -0.1)">
       <defs>
        <path d="M 794 531 
L 1825 531 
L 1825 4091 
L 703 3866 
L 703 4441 
L 1819 4666 
L 2450 4666 
L 2450 531 
L 3481 531 
L 3481 0 
L 794 0 
L 794 531 
z
" id="DejaVuSans-31" transform="scale(0.015625)"/>
       </defs>
       <use xlink:href="#DejaVuSans-31"/>
       <use x="63.623047" xlink:href="#DejaVuSans-30"/>
       <use x="127.246094" xlink:href="#DejaVuSans-30"/>
      </g>
     </g>
    </g>
    <g id="ytick_4">
     <g id="line2d_11">
      <g>
       <use style="stroke:#000000;stroke-width:0.8;" x="180" xlink:href="#m42eb194b62" y="403.743217"/>
      </g>
     </g>
     <g id="text_11">
      <!-- 150 -->
      <g transform="translate(153.9125 407.542436)scale(0.1 -0.1)">
       <use xlink:href="#DejaVuSans-31"/>
       <use x="63.623047" xlink:href="#DejaVuSans-35"/>
       <use x="127.246094" xlink:href="#DejaVuSans-30"/>
      </g>
     </g>
    </g>
    <g id="ytick_5">
     <g id="line2d_12">
      <g>
       <use style="stroke:#000000;stroke-width:0.8;" x="180" xlink:href="#m42eb194b62" y="333.12414"/>
      </g>
     </g>
     <g id="text_12">
      <!-- 200 -->
      <g transform="translate(153.9125 336.923359)scale(0.1 -0.1)">
       <use xlink:href="#DejaVuSans-32"/>
       <use x="63.623047" xlink:href="#DejaVuSans-30"/>
       <use x="127.246094" xlink:href="#DejaVuSans-30"/>
      </g>
     </g>
    </g>
    <g id="ytick_6">
     <g id="line2d_13">
      <g>
       <use style="stroke:#000000;stroke-width:0.8;" x="180" xlink:href="#m42eb194b62" y="262.505063"/>
      </g>
     </g>
     <g id="text_13">
      <!-- 250 -->
      <g transform="translate(153.9125 266.304282)scale(0.1 -0.1)">
       <use xlink:href="#DejaVuSans-32"/>
       <use x="63.623047" xlink:href="#DejaVuSans-35"/>
       <use x="127.246094" xlink:href="#DejaVuSans-30"/>
      </g>
     </g>
    </g>
    <g id="ytick_7">
     <g id="line2d_14">
      <g>
       <use style="stroke:#000000;stroke-width:0.8;" x="180" xlink:href="#m42eb194b62" y="191.885986"/>
      </g>
     </g>
     <g id="text_14">
      <!-- 300 -->
      <g transform="translate(153.9125 195.685205)scale(0.1 -0.1)">
       <use xlink:href="#DejaVuSans-33"/>
       <use x="63.623047" xlink:href="#DejaVuSans-30"/>
       <use x="127.246094" xlink:href="#DejaVuSans-30"/>
      </g>
     </g>
    </g>
    <g id="ytick_8">
     <g id="line2d_15">
      <g>
       <use style="stroke:#000000;stroke-width:0.8;" x="180" xlink:href="#m42eb194b62" y="121.26691"/>
      </g>
     </g>
     <g id="text_15">
      <!-- 350 -->
      <g transform="translate(153.9125 125.066128)scale(0.1 -0.1)">
       <use xlink:href="#DejaVuSans-33"/>
       <use x="63.623047" xlink:href="#DejaVuSans-35"/>
       <use x="127.246094" xlink:href="#DejaVuSans-30"/>
      </g>
     </g>
    </g>
   </g>
   <g id="line2d_16">
    <path clip-path="url(#p32ef1913c3)" d="M 230.727273 615.505583 
L 234.421006 615.445101 
L 235.036628 614.641354 
L 236.883495 614.588454 
L 237.499117 614.760362 
L 238.11474 615.319146 
L 238.730362 615.473735 
L 260.892763 615.365769 
L 262.739629 615.365769 
L 263.355252 615.51381 
L 275.667696 615.48422 
L 276.898941 615.31725 
L 277.514563 615.448949 
L 278.745808 615.167276 
L 279.36143 615.393369 
L 279.977052 615.393369 
L 280.592674 615.167276 
L 281.208297 615.092208 
L 281.823919 615.393369 
L 282.439541 615.092208 
L 283.055163 615.487877 
L 297.830097 615.501626 
L 299.061342 615.101304 
L 301.523831 615.092946 
L 302.139453 615.362437 
L 303.370697 615.502867 
L 305.217564 615.505416 
L 305.833186 615.365422 
L 306.448808 615.505416 
L 310.142542 615.475878 
L 313.836275 615.529156 
L 313.220653 615.529156 
L 315.683142 615.544918 
L 316.914387 615.484793 
L 317.530009 615.480123 
L 318.145631 615.587014 
L 319.376876 615.513218 
L 323.070609 615.456891 
L 324.917476 615.276123 
L 326.14872 615.379959 
L 326.764342 615.400949 
L 327.379965 615.534705 
L 329.842454 615.582481 
L 330.458076 615.43087 
L 335.383054 615.490801 
L 336.614298 615.554487 
L 344.617387 615.485487 
L 346.464254 615.443336 
L 347.079876 615.571094 
L 353.851721 615.472468 
L 355.082966 615.339095 
L 355.698588 615.404923 
L 356.31421 615.281488 
L 356.929832 615.281488 
L 357.545455 615.49157 
L 358.776699 615.484936 
L 358.161077 615.322472 
L 359.392321 615.322472 
L 360.007944 615.199424 
L 360.623566 615.199424 
L 361.239188 615.459284 
L 364.932921 615.510455 
L 366.164166 615.325399 
L 366.779788 615.474901 
L 367.39541 615.325399 
L 368.011033 615.325399 
L 368.626655 615.474901 
L 373.551633 615.577906 
L 376.014122 615.54683 
L 377.860989 615.596544 
L 388.942189 615.541078 
L 389.557811 615.369586 
L 390.173433 615.496544 
L 400.023389 615.465986 
L 398.792145 615.465986 
L 401.254634 615.265547 
L 401.870256 615.265547 
L 402.485878 615.104509 
L 403.1015 615.265547 
L 403.717123 615.104509 
L 404.948367 615.591669 
L 412.951456 615.583199 
L 413.567079 615.41396 
L 414.182701 614.570845 
L 414.798323 615.41396 
L 415.413945 615.41396 
L 416.029568 613.577756 
L 416.64519 613.577756 
L 417.260812 615.327987 
L 417.876434 615.340862 
L 418.492056 615.594694 
L 421.570168 615.569985 
L 422.18579 615.59721 
L 422.801412 615.487374 
L 424.032657 615.583971 
L 425.879523 615.504425 
L 426.495146 615.26909 
L 427.110768 615.26909 
L 427.72639 615.504425 
L 430.188879 615.593628 
L 435.729479 615.571993 
L 436.345102 614.729988 
L 436.960724 614.729988 
L 437.576346 615.368987 
L 438.191968 615.571993 
L 440.654457 615.579455 
L 442.501324 615.499531 
L 443.116946 615.113136 
L 443.732568 615.113136 
L 444.348191 615.437757 
L 445.579435 615.571923 
L 454.813769 615.593461 
L 455.429391 615.384054 
L 456.660635 615.384054 
L 457.276258 614.207133 
L 458.507502 614.207133 
L 459.123124 615.251701 
L 458.507502 615.309764 
L 461.585613 615.309764 
L 459.123124 615.404505 
L 464.663725 615.448615 
L 465.279347 615.257078 
L 466.510591 615.257078 
L 467.126214 615.491876 
L 468.97308 615.563463 
L 470.204325 615.49048 
L 478.207414 615.403688 
L 478.823036 614.537637 
L 479.438658 614.537637 
L 480.054281 615.484782 
L 481.901147 615.469524 
L 482.51677 615.24511 
L 483.748014 614.988344 
L 484.363636 614.24962 
L 484.979259 613.958493 
L 485.594881 614.24962 
L 486.210503 615.24511 
L 486.826125 615.24511 
L 487.441748 614.92464 
L 488.05737 614.92464 
L 488.672992 615.082784 
L 489.904237 614.973598 
L 491.751103 614.973598 
L 492.366726 614.610157 
L 492.982348 615.393173 
L 494.829214 615.43311 
L 495.444837 615.221089 
L 494.213592 615.194302 
L 496.060459 614.762634 
L 497.291703 614.762634 
L 497.907326 614.896589 
L 498.522948 614.896589 
L 499.754192 615.286305 
L 502.832304 615.395501 
L 504.063548 615.497851 
L 505.294793 615.497851 
L 507.757282 615.130813 
L 507.141659 615.130813 
L 511.451015 615.141785 
L 512.066637 614.872692 
L 513.297882 614.872692 
L 513.913504 615.474699 
L 515.144748 615.54323 
L 514.529126 615.541501 
L 518.22286 615.435007 
L 518.838482 615.317328 
L 524.379082 615.321649 
L 524.994704 615.491672 
L 527.457193 615.510903 
L 528.072816 615.180923 
L 529.30406 615.180923 
L 529.919682 614.753503 
L 531.150927 615.452456 
L 531.766549 615.288614 
L 532.382171 615.288614 
L 532.997793 615.430188 
L 537.307149 615.384025 
L 538.538394 614.779289 
L 540.38526 614.846825 
L 541.616505 615.325038 
L 547.157105 615.374002 
L 548.38835 615.459375 
L 549.003972 615.298139 
L 549.619594 614.904957 
L 550.235216 615.01906 
L 549.619594 615.01906 
L 550.850838 615.01906 
L 551.466461 615.447969 
L 553.92895 615.399521 
L 556.391439 615.397118 
L 557.622683 615.49128 
L 563.778906 615.519822 
L 566.241395 615.569228 
L 566.857017 615.406713 
L 569.319506 615.272817 
L 569.935128 615.573734 
L 570.55075 615.559375 
L 571.166372 615.1561 
L 572.397617 615.124709 
L 573.013239 614.940735 
L 575.475728 614.940735 
L 576.09135 615.208906 
L 579.785084 615.308961 
L 580.400706 615.444201 
L 582.863195 615.444201 
L 583.478817 615.20596 
L 585.325684 615.20596 
L 585.941306 615.349724 
L 586.556929 615.349724 
L 587.172551 615.18731 
L 589.019417 615.160639 
L 590.250662 615.23734 
L 590.866284 615.23734 
L 591.481906 615.413598 
L 593.328773 615.461308 
L 593.944395 615.429175 
L 593.328773 615.413825 
L 595.791262 615.103974 
L 597.638129 615.183245 
L 600.100618 615.33009 
L 603.178729 615.477988 
L 605.025596 615.543451 
L 605.641218 615.52971 
L 606.25684 615.26938 
L 608.719329 615.226819 
L 609.334951 615.02077 
L 609.950574 615.222298 
L 610.566196 615.02077 
L 611.181818 615.02077 
L 611.79744 615.222298 
L 614.875552 615.290163 
L 616.722418 615.242851 
L 622.263019 615.265198 
L 622.878641 615.365272 
L 623.494263 615.265198 
L 624.109885 615.290268 
L 625.34113 615.519328 
L 625.956752 615.290268 
L 626.572374 615.519328 
L 628.419241 615.551323 
L 629.034863 615.413685 
L 628.419241 615.413685 
L 630.266108 615.343474 
L 630.88173 614.850132 
L 632.112974 614.850132 
L 633.344219 615.126405 
L 634.575463 615.24464 
L 635.191086 615.450027 
L 635.806708 615.450027 
L 636.42233 615.24464 
L 637.653575 615.345429 
L 638.269197 615.345429 
L 638.884819 615.530996 
L 641.347308 615.536277 
L 641.96293 615.336201 
L 642.578553 615.532388 
L 646.887908 615.453364 
L 647.50353 615.177909 
L 648.119153 615.453364 
L 649.350397 615.510892 
L 651.197264 615.410007 
L 651.812886 615.288164 
L 653.044131 615.288164 
L 653.659753 615.114522 
L 654.275375 615.114522 
L 654.890997 615.289178 
L 660.431598 615.225338 
L 661.662842 614.940735 
L 663.509709 614.926641 
L 664.125331 615.126111 
L 665.356575 615.229941 
L 667.203442 615.229941 
L 667.819064 615.371623 
L 669.050309 615.488448 
L 670.281553 615.5311 
L 671.512798 615.125852 
L 672.12842 615.125852 
L 672.744042 615.258037 
L 672.12842 615.258037 
L 673.975287 615.258037 
L 674.590909 615.388604 
L 675.206531 615.242365 
L 676.437776 615.302416 
L 677.66902 615.395583 
L 679.515887 615.395583 
L 680.131509 615.25688 
L 685.056487 615.364599 
L 685.672109 615.128826 
L 686.287732 615.333685 
L 686.903354 615.153268 
L 687.518976 615.153268 
L 688.134598 615.385778 
L 689.981465 615.449779 
L 690.597087 615.20319 
L 692.443954 615.149387 
L 693.059576 615.149387 
L 692.443954 615.149387 
L 693.675199 614.776248 
L 695.522065 614.728665 
L 696.137688 615.110439 
L 697.984554 615.465668 
L 701.678288 615.414998 
L 702.29391 615.165771 
L 702.909532 615.395014 
L 702.29391 615.395014 
L 704.140777 615.218828 
L 705.987643 615.246124 
L 705.372021 615.461307 
L 707.218888 615.461307 
L 707.83451 615.147928 
L 711.528244 615.1173 
L 712.143866 615.297171 
L 712.759488 613.463258 
L 713.37511 615.297171 
L 713.990733 615.297171 
L 714.606355 614.871489 
L 715.837599 614.871489 
L 716.453222 613.860584 
L 717.068844 614.511641 
L 718.300088 614.511641 
L 718.915711 615.183641 
L 719.531333 615.183641 
L 720.146955 615.317215 
L 721.993822 615.151938 
L 723.225066 615.12271 
L 723.840688 614.884713 
L 724.456311 615.12271 
L 725.687555 615.255336 
L 726.303177 615.537963 
L 729.996911 615.483466 
L 730.612533 615.225421 
L 732.4594 615.146521 
L 733.690644 615.164473 
L 734.306267 615.536209 
L 735.537511 615.537504 
L 736.153133 614.863401 
L 738.615622 614.93873 
L 740.462489 615.139957 
L 741.078111 615.013493 
L 741.693733 615.013493 
L 742.309356 615.139957 
L 741.693733 615.378199 
L 742.924978 614.985734 
L 743.5406 615.422149 
L 744.156222 615.422149 
L 745.387467 614.784593 
L 746.003089 615.139505 
L 746.618711 615.139505 
L 747.234334 614.784593 
L 749.0812 615.102237 
L 749.696823 615.102237 
L 750.312445 615.254617 
L 749.696823 615.334865 
L 752.159312 615.334865 
L 752.774934 615.025316 
L 753.390556 615.476924 
L 754.006178 615.138605 
L 754.621801 615.025316 
L 755.237423 615.138605 
L 756.468667 615.138605 
L 757.084289 614.969744 
L 757.699912 615.246234 
L 758.931156 615.281504 
L 759.546778 615.583529 
L 760.778023 615.599701 
L 761.393645 615.173961 
L 762.009267 615.173961 
L 762.62489 615.514275 
L 763.240512 615.173961 
L 763.856134 615.489864 
L 764.471756 615.489864 
L 765.087379 615.229949 
L 767.549868 615.221521 
L 768.16549 615.207646 
L 768.781112 614.693701 
L 769.396734 615.207646 
L 770.012357 614.730516 
L 771.243601 614.837926 
L 771.859223 615.222967 
L 773.090468 615.330393 
L 774.321712 615.265631 
L 774.937335 614.411602 
L 775.552957 614.411602 
L 776.168579 615.265631 
L 776.784201 614.858496 
L 777.399823 615.290704 
L 778.015446 615.290704 
L 778.631068 615.116595 
L 782.940424 615.102237 
L 783.556046 615.253817 
L 784.171668 614.714448 
L 784.78729 614.730516 
L 785.402913 615.129672 
L 786.018535 614.730516 
L 786.634157 615.129672 
L 787.865402 615.103965 
L 788.481024 614.861942 
L 789.096646 615.103965 
L 790.327891 615.103965 
L 790.943513 615.253096 
L 790.327891 615.253096 
L 792.79038 615.255336 
L 794.021624 615.471141 
L 795.252868 615.471141 
L 795.868491 614.844092 
L 797.715357 614.844092 
L 798.33098 615.140586 
L 798.946602 615.140586 
L 799.562224 614.68015 
L 802.024713 614.712105 
L 802.640335 614.908692 
L 803.255958 614.908692 
L 803.87158 614.267933 
L 804.487202 614.908692 
L 805.102824 615.327452 
L 806.334069 615.397943 
L 806.949691 614.957422 
L 807.565313 614.957422 
L 808.180936 615.225118 
L 809.41218 615.225118 
L 810.027802 615.528799 
L 811.259047 615.587577 
L 812.490291 615.587577 
L 813.105914 615.049124 
L 812.490291 615.049124 
L 814.95278 615.087382 
L 815.568402 615.271981 
L 818.646514 615.084578 
L 819.262136 615.208686 
L 818.030891 615.269978 
L 819.877758 615.569977 
L 821.109003 615.490722 
L 821.724625 615.190748 
L 822.340247 615.413643 
L 824.802736 615.413643 
L 823.571492 615.442136 
L 824.802736 615.149416 
L 825.418358 615.258499 
L 826.033981 615.149416 
L 826.649603 615.258499 
L 827.265225 615.119913 
L 827.880847 615.205417 
L 829.112092 615.119913 
L 830.958959 615.170001 
L 832.805825 615.352552 
L 835.883936 615.255336 
L 836.499559 615.468353 
L 837.115181 615.468353 
L 837.730803 615.324543 
L 842.655781 615.370307 
L 843.271403 615.591129 
L 843.887026 615.591129 
L 844.502648 615.127835 
L 845.11827 615.001794 
L 847.580759 615.044171 
L 848.812004 615.14969 
L 850.043248 615.251569 
L 850.65887 615.599566 
L 851.890115 615.593059 
L 853.121359 615.296882 
L 853.736981 615.44817 
L 854.352604 615.296882 
L 855.583848 615.6 
L 856.815093 615.523842 
L 857.430715 615.152366 
L 861.124448 615.222257 
L 862.355693 615.374229 
L 863.586937 615.332468 
L 864.20256 615.460537 
L 864.818182 615.2567 
L 869.74316 615.331045 
L 870.358782 615.59426 
L 872.821271 615.544035 
L 874.052515 615.019861 
L 874.668138 615.310022 
L 879.593116 615.36549 
L 880.208738 614.786123 
L 879.593116 614.730516 
L 880.82436 614.786123 
L 881.439982 615.253804 
L 884.518094 615.255336 
L 885.133716 615.381079 
L 886.980583 615.381079 
L 885.133716 615.551859 
L 887.596205 615.307822 
L 888.211827 615.597105 
L 891.90556 615.521428 
L 892.521183 615.357118 
L 897.446161 615.325519 
L 895.599294 615.094466 
L 898.061783 615.339517 
L 899.293027 615.339517 
L 899.90865 615.153162 
L 901.755516 615.262654 
L 902.371139 615.558737 
L 904.218005 615.576269 
L 904.833628 615.576269 
L 906.064872 615.150311 
L 906.680494 614.712105 
L 907.296117 614.712105 
L 907.911739 615.055052 
L 909.142983 615.320822 
L 910.374228 615.590804 
L 911.605472 615.479169 
L 912.221094 614.714448 
L 914.067961 614.813672 
L 914.683583 615.321507 
L 917.761695 615.410591 
L 918.377317 614.781625 
L 918.992939 614.781625 
L 919.608561 615.102237 
L 920.224184 615.102237 
L 919.608561 615.556767 
L 922.07105 615.457749 
L 922.686673 615.40191 
L 923.302295 615.216216 
L 925.149162 615.267222 
L 925.764784 615.563911 
L 926.380406 615.558032 
L 926.996028 615.267222 
L 927.61165 615.267222 
L 928.227273 615.075745 
L 928.842895 615.075745 
L 929.458517 615.255336 
L 930.074139 615.564418 
L 930.689762 615.564418 
L 931.305384 615.255336 
L 932.536628 615.255094 
L 933.152251 615.039042 
L 933.767873 615.255094 
L 934.383495 615.315178 
L 936.230362 615.135196 
L 938.077229 615.114104 
L 939.308473 615.548485 
L 939.924095 615.391397 
L 940.539718 615.391397 
L 941.15534 615.256748 
L 942.386584 615.245367 
L 943.002207 615.599768 
L 943.617829 615.105009 
L 944.233451 615.105009 
L 945.464695 615.59627 
L 946.080318 615.59627 
L 946.69594 615.480733 
L 947.311562 614.556551 
L 947.927184 614.556551 
L 948.542807 615.045068 
L 949.774051 615.578699 
L 950.389673 615.332883 
L 949.158429 615.271542 
L 952.852162 615.253982 
L 953.467785 615.161007 
L 954.083407 615.527943 
L 954.699029 615.149889 
L 955.314651 614.911082 
L 955.930274 615.149889 
L 958.392763 615.151492 
L 959.008385 615.599332 
L 959.624007 615.422779 
L 960.239629 615.599978 
L 960.855252 615.599482 
L 962.086496 615.333909 
L 963.317741 615.333909 
L 962.702118 615.333909 
L 964.548985 615.497047 
L 966.395852 615.415521 
L 967.011474 615.098771 
L 968.858341 614.730516 
L 969.473963 614.59912 
L 970.089585 615.011358 
L 970.705207 614.469595 
L 971.936452 614.546184 
L 972.552074 614.267933 
L 973.783319 614.344819 
L 974.398941 614.472483 
L 975.014563 614.472483 
L 975.630185 615.229386 
L 994.098853 615.399346 
L 995.945719 615.367266 
L 996.561342 615.454679 
L 995.945719 615.505125 
L 996.561342 615.505125 
L 997.792586 615.454679 
L 999.023831 615.162077 
L 999.639453 614.781439 
L 1000.255075 614.781439 
L 1000.870697 615.272815 
L 1003.333186 615.306791 
L 1003.948808 615.306791 
L 1004.564431 615.530407 
L 1005.795675 615.530407 
L 1006.411297 615.213753 
L 1007.642542 615.194166 
L 1008.258164 615.553165 
L 1012.56752 615.577631 
L 1013.183142 615.325226 
L 1018.723742 615.241636 
L 1019.339365 615.496759 
L 1035.961165 615.512963 
L 1036.576787 615.216487 
L 1037.808032 615.216487 
L 1038.423654 615.35451 
L 1039.654898 615.422779 
L 1042.73301 615.568906 
L 1050.120477 615.566715 
L 1050.736099 615.457022 
L 1051.351721 615.566715 
L 1052.582966 615.516604 
L 1068.589144 615.412143 
L 1071.051633 615.384061 
L 1071.667255 615.559685 
L 1073.514122 615.559685 
L 1074.745366 615.429959 
L 1075.976611 615.449648 
L 1077.207855 615.594697 
L 1081.517211 615.558296 
L 1082.132833 615.301412 
L 1085.210944 615.237754 
L 1085.826567 615.534963 
L 1088.904678 615.536792 
L 1089.5203 615.221715 
L 1090.135922 615.221715 
L 1090.751545 615.459654 
L 1095.0609 615.570729 
L 1098.139011 615.597778 
L 1098.754634 615.597778 
L 1099.985878 615.255336 
L 1101.217123 615.259227 
L 1102.448367 615.539346 
L 1103.679612 615.518145 
L 1104.295234 615.385522 
L 1106.142101 615.354141 
L 1106.757723 615.531045 
L 1109.220212 615.576861 
L 1110.451456 615.497472 
L 1111.067079 615.325389 
L 1112.913945 615.329404 
L 1114.14519 615.5707 
L 1117.223301 615.587878 
L 1119.68579 615.426449 
L 1120.917034 615.573797 
L 1127.073257 615.583194 
L 1130.151368 615.515971 
L 1133.229479 615.59357 
L 1135.076346 615.552765 
L 1135.691968 615.387384 
L 1136.30759 615.385642 
L 1136.923213 615.552765 
L 1138.154457 615.490682 
L 1164.010591 615.501272 
L 1164.626214 615.24511 
L 1165.857458 615.311318 
L 1166.47308 615.24511 
L 1167.088703 615.311318 
L 1167.704325 615.499816 
L 1168.319947 615.499816 
L 1168.935569 615.24511 
L 1169.551192 615.561252 
L 1170.166814 615.393931 
L 1172.629303 615.564713 
L 1186.172992 615.518846 
L 1186.788614 615.056259 
L 1188.635481 615.104946 
L 1189.251103 615.559541 
L 1197.869815 615.571507 
L 1198.485437 615.289974 
L 1201.563548 615.327708 
L 1202.17917 615.151223 
L 1204.641659 615.251689 
L 1205.257282 615.349593 
L 1206.488526 615.094331 
L 1207.104148 615.349593 
L 1208.335393 615.431824 
L 1208.951015 615.431824 
L 1209.566637 615.249584 
L 1211.413504 615.333945 
L 1213.260371 615.530316 
L 1214.491615 615.253298 
L 1215.107237 615.253298 
L 1215.72286 615.407904 
L 1216.338482 615.407904 
L 1216.954104 615.198126 
L 1220.032215 615.276714 
L 1220.647838 615.488024 
L 1232.960282 615.591788 
L 1241.578994 615.59289 
L 1245.272727 615.596353 
L 1245.272727 615.596353 
" style="fill:none;stroke:#1f77b4;stroke-linecap:square;stroke-width:1.5;"/>
   </g>
   <g id="line2d_17">
    <path clip-path="url(#p32ef1913c3)" d="M 230.727273 615.229417 
L 230.727273 615.215582 
L 233.805384 615.196994 
L 234.421006 614.892724 
L 235.036628 614.740589 
L 235.652251 615.139924 
L 235.036628 615.339591 
L 236.267873 615.224322 
L 236.883495 614.232861 
L 237.499117 614.699409 
L 238.11474 615.00841 
L 238.730362 614.924984 
L 239.961606 615.118103 
L 240.577229 615.113578 
L 242.424095 615.423548 
L 244.270962 615.348725 
L 244.886584 615.410145 
L 245.502207 615.277616 
L 246.117829 615.299843 
L 247.349073 614.877647 
L 248.580318 615.261538 
L 254.73654 615.355207 
L 255.352162 614.396321 
L 255.967785 614.934217 
L 256.583407 615.178498 
L 257.199029 595.923171 
L 257.814651 605.014851 
L 258.430274 609.720295 
L 259.661518 613.192181 
L 260.27714 614.245434 
L 260.892763 614.517815 
L 261.508385 614.956094 
L 263.355252 615.090393 
L 264.586496 615.052754 
L 265.202118 615.177209 
L 267.048985 615.006662 
L 268.895852 615.258559 
L 270.127096 615.285256 
L 270.742718 615.314413 
L 271.358341 615.219176 
L 271.973963 615.365039 
L 272.589585 615.24842 
L 273.205207 612.727369 
L 273.82083 614.435006 
L 274.436452 614.768195 
L 275.052074 614.811037 
L 275.667696 614.980839 
L 276.283319 614.703357 
L 277.514563 615.148435 
L 278.745808 614.924008 
L 279.36143 615.145493 
L 279.977052 615.173309 
L 281.823919 614.934571 
L 283.055163 614.940059 
L 283.670786 614.674188 
L 284.286408 614.895878 
L 285.517652 615.027514 
L 286.133274 613.857697 
L 286.748897 614.490286 
L 287.364519 614.937121 
L 287.980141 614.904893 
L 288.595763 614.625019 
L 289.211386 614.551419 
L 289.827008 614.727703 
L 290.44263 615.038256 
L 291.673875 615.186016 
L 292.905119 614.956949 
L 293.520741 614.6481 
L 294.136364 614.841619 
L 294.751986 614.897969 
L 295.98323 615.27165 
L 299.061342 615.113504 
L 299.676964 614.69368 
L 300.908208 615.047219 
L 302.139453 615.103072 
L 302.755075 615.04084 
L 304.601942 615.350107 
L 305.217564 614.475041 
L 306.448808 615.013055 
L 307.064431 614.907575 
L 308.295675 615.237472 
L 308.911297 615.221434 
L 309.52692 603.719499 
L 310.142542 609.462448 
L 310.758164 612.455819 
L 312.605031 614.460645 
L 313.220653 615.010736 
L 313.836275 615.160496 
L 313.220653 615.340176 
L 313.836275 615.239526 
L 315.06752 615.348209 
L 316.298764 615.263441 
L 316.914387 614.976939 
L 317.530009 614.955586 
L 318.145631 615.11492 
L 318.761253 615.108948 
L 319.376876 615.323251 
L 320.60812 614.940369 
L 321.839365 615.281872 
L 322.454987 615.231452 
L 323.070609 615.067255 
L 323.686231 613.427016 
L 324.301853 614.488833 
L 324.917476 614.894195 
L 326.14872 615.342018 
L 327.379965 615.421268 
L 327.995587 614.558252 
L 329.226831 615.021331 
L 329.842454 614.410939 
L 331.073698 615.163624 
L 332.920565 615.322823 
L 333.536187 615.212029 
L 334.767432 615.286886 
L 335.383054 615.194931 
L 335.998676 614.970087 
L 336.614298 615.121945 
L 337.845543 615.064044 
L 338.461165 615.153156 
L 339.076787 615.119808 
L 339.69241 615.290533 
L 340.308032 615.193197 
L 341.539276 615.342109 
L 343.386143 615.288723 
L 344.617387 615.101999 
L 345.23301 615.098035 
L 345.848632 615.28723 
L 346.464254 615.108045 
L 348.311121 615.372473 
L 348.926743 615.353209 
L 349.542365 615.147619 
L 351.389232 615.350698 
L 353.851721 615.069958 
L 354.467343 614.44686 
L 355.698588 614.862252 
L 356.31421 614.812915 
L 356.929832 614.046772 
L 357.545455 614.618232 
L 358.161077 614.976509 
L 359.392321 615.029039 
L 360.007944 615.003823 
L 360.623566 615.20533 
L 361.239188 615.203012 
L 361.85481 615.044179 
L 363.086055 614.940977 
L 363.701677 614.761934 
L 364.317299 614.97 
L 364.932921 167.560276 
L 365.548544 391.3368 
L 366.164166 493.735473 
L 366.779788 552.964659 
L 367.39541 584.005496 
L 368.011033 599.435984 
L 368.626655 607.229944 
L 369.242277 611.390546 
L 369.857899 613.336353 
L 370.473522 614.088973 
L 371.704766 615.057304 
L 372.936011 615.128135 
L 374.167255 615.011645 
L 374.782877 615.229977 
L 376.014122 615.340198 
L 376.629744 615.161547 
L 377.245366 615.370913 
L 376.629744 615.102354 
L 377.860989 614.941285 
L 378.476611 615.202197 
L 379.092233 614.805943 
L 380.323477 615.262882 
L 383.401589 615.301708 
L 384.017211 615.201132 
L 384.632833 614.512447 
L 385.248455 614.936894 
L 385.864078 615.051027 
L 387.095322 615.023363 
L 387.710944 614.861346 
L 388.326567 614.937744 
L 388.942189 615.197318 
L 389.557811 615.106718 
L 390.789056 615.315692 
L 391.404678 615.432721 
L 392.0203 615.029308 
L 393.251545 614.905834 
L 393.867167 614.719247 
L 394.482789 614.866694 
L 396.945278 614.883271 
L 397.5609 614.755202 
L 398.176523 615.070129 
L 398.792145 614.872964 
L 400.023389 615.057616 
L 398.792145 614.836239 
L 400.639011 611.110775 
L 401.254634 612.030207 
L 401.870256 613.193487 
L 402.485878 613.153287 
L 403.1015 613.873848 
L 403.717123 613.203843 
L 404.948367 614.415986 
L 405.563989 614.142559 
L 406.179612 614.211222 
L 406.795234 614.712294 
L 407.410856 614.36092 
L 408.026478 111.6 
L 408.642101 362.682755 
L 410.488967 551.034971 
L 411.10459 580.981753 
L 411.720212 582.173002 
L 412.335834 598.442553 
L 412.951456 605.006738 
L 413.567079 608.322509 
L 414.182701 610.582675 
L 414.798323 608.542851 
L 415.413945 610.858362 
L 416.029568 611.076881 
L 416.64519 613.112541 
L 417.260812 614.479408 
L 418.492056 613.865072 
L 419.107679 610.119682 
L 420.338923 611.99238 
L 420.954545 613.33325 
L 421.570168 614.22838 
L 422.18579 614.714753 
L 422.801412 614.720369 
L 423.417034 614.364958 
L 424.032657 614.542664 
L 424.648279 614.242436 
L 425.263901 614.77849 
L 425.879523 614.957887 
L 426.495146 614.381024 
L 427.110768 614.914893 
L 427.72639 615.185892 
L 428.342012 615.049 
L 428.957635 614.416869 
L 429.573257 614.732285 
L 430.188879 613.151604 
L 431.420124 613.765462 
L 432.035746 614.389808 
L 432.651368 614.4557 
L 433.26699 611.318225 
L 433.882613 612.841004 
L 435.113857 613.848081 
L 435.729479 613.587907 
L 436.345102 613.71759 
L 436.960724 614.598352 
L 437.576346 614.711955 
L 438.191968 615.067367 
L 440.038835 615.262983 
L 440.654457 614.9444 
L 441.885702 614.957569 
L 442.501324 614.159696 
L 443.116946 614.540075 
L 443.732568 614.540077 
L 444.348191 614.929812 
L 444.963813 614.643935 
L 445.579435 614.588349 
L 446.195057 614.91673 
L 446.81068 614.908804 
L 447.426302 614.776371 
L 448.041924 613.113652 
L 448.657546 614.011228 
L 449.273169 613.562441 
L 449.888791 613.562442 
L 450.504413 608.467537 
L 451.120035 611.744015 
L 451.735658 613.439154 
L 452.35128 602.950588 
L 452.966902 608.505562 
L 453.582524 611.861992 
L 454.198147 613.569935 
L 454.813769 614.137467 
L 455.429391 614.207132 
L 456.045013 614.509897 
L 456.660635 614.358518 
L 457.276258 613.979244 
L 457.89188 614.191633 
L 458.507502 613.91916 
L 459.123124 613.468289 
L 458.507502 614.365696 
L 459.738747 614.733759 
L 460.354369 614.213099 
L 460.969991 614.39095 
L 461.585613 601.662509 
L 459.123124 606.162827 
L 462.201236 610.819412 
L 462.816858 612.504966 
L 463.43248 613.164364 
L 464.048102 612.533866 
L 465.279347 613.810627 
L 465.894969 613.516809 
L 466.510591 614.373363 
L 467.126214 614.633438 
L 467.741836 613.263117 
L 468.357458 614.122277 
L 468.97308 614.486832 
L 470.204325 614.417681 
L 471.435569 615.181712 
L 472.051192 614.790994 
L 472.666814 614.787648 
L 473.282436 614.220733 
L 473.898058 614.345281 
L 474.51368 614.282735 
L 475.744925 614.604128 
L 476.360547 614.507738 
L 476.976169 614.606368 
L 477.591792 614.142409 
L 478.207414 614.325066 
L 478.823036 614.233737 
L 479.438658 614.82918 
L 480.054281 615.132529 
L 480.669903 614.980854 
L 481.901147 615.048356 
L 482.51677 614.649807 
L 483.132392 612.427989 
L 483.748014 613.44104 
L 484.363636 613.07647 
L 484.979259 613.258755 
L 485.594881 613.607707 
L 486.210503 611.132991 
L 486.826125 612.37035 
L 487.441748 613.218148 
L 488.05737 613.234468 
L 488.672992 613.369045 
L 489.288614 612.874225 
L 489.904237 613.054347 
L 490.519859 612.550711 
L 491.135481 612.978214 
L 491.751103 613.559345 
L 492.366726 613.491501 
L 492.982348 612.950847 
L 493.59797 613.255096 
L 494.213592 612.946959 
L 494.829214 613.101028 
L 495.444837 613.024968 
L 494.213592 612.987908 
L 496.060459 612.983062 
L 496.676081 613.726446 
L 497.291703 614.244804 
L 497.907326 614.483105 
L 498.522948 614.274526 
L 499.13857 614.297672 
L 499.754192 614.504888 
L 500.369815 614.577349 
L 500.985437 614.531402 
L 502.216681 614.801055 
L 502.832304 615.049901 
L 503.447926 614.087117 
L 504.67917 614.710837 
L 505.294793 614.710838 
L 505.910415 614.950938 
L 506.526037 614.292108 
L 507.141659 614.641565 
L 507.757282 614.754419 
L 507.141659 614.729562 
L 512.066637 614.728479 
L 512.682259 599.046365 
L 513.297882 606.998025 
L 513.913504 610.856237 
L 514.529126 612.480197 
L 515.760371 612.691753 
L 514.529126 611.97969 
L 516.375993 612.508273 
L 516.991615 612.439968 
L 517.607237 612.731226 
L 518.22286 613.679179 
L 518.838482 613.79185 
L 519.454104 614.530325 
L 520.069726 614.399129 
L 520.685349 614.389768 
L 521.300971 614.511952 
L 521.916593 614.451659 
L 522.532215 614.547715 
L 523.147838 614.528075 
L 523.76346 614.197294 
L 524.994704 614.46026 
L 526.225949 614.504088 
L 526.841571 613.765702 
L 527.457193 614.468412 
L 528.072816 614.256266 
L 528.688438 614.349602 
L 529.30406 614.570454 
L 529.919682 614.460032 
L 530.535305 614.640641 
L 531.150927 615.023739 
L 536.691527 615.079936 
L 537.307149 614.047359 
L 538.538394 614.713915 
L 539.154016 614.617754 
L 541.000883 614.665838 
L 541.616505 614.611724 
L 542.232127 614.715628 
L 543.463372 614.678287 
L 544.078994 614.783654 
L 547.157105 614.56764 
L 547.772727 614.904954 
L 548.38835 614.904958 
L 549.003972 614.713275 
L 550.235216 614.660229 
L 549.619594 614.612819 
L 551.466461 614.605686 
L 552.082083 614.76285 
L 552.697705 614.651272 
L 553.313327 614.724159 
L 553.92895 614.610208 
L 554.544572 614.667636 
L 557.622683 614.513131 
L 558.238305 614.632606 
L 559.46955 615.060174 
L 563.163283 614.951153 
L 563.778906 614.812253 
L 564.394528 614.188794 
L 565.01015 614.504163 
L 566.857017 613.803966 
L 567.472639 614.056777 
L 568.088261 613.930373 
L 568.703883 614.387048 
L 569.319506 614.221913 
L 569.935128 410.43553 
L 570.55075 512.411289 
L 571.166372 563.479546 
L 571.781995 589.121562 
L 572.397617 601.921197 
L 573.013239 607.674111 
L 573.628861 610.1645 
L 574.244484 611.356139 
L 574.860106 613.253306 
L 575.475728 613.843902 
L 576.09135 613.869906 
L 576.706973 614.328893 
L 577.938217 614.930595 
L 578.553839 615.053705 
L 579.785084 615.022928 
L 582.247573 615.056754 
L 582.863195 614.556661 
L 583.478817 614.810555 
L 584.710062 614.975111 
L 585.941306 614.543508 
L 586.556929 614.640404 
L 587.788173 614.619471 
L 588.403795 614.897364 
L 590.250662 614.820078 
L 590.866284 614.774269 
L 591.481906 613.74089 
L 592.097529 614.434803 
L 592.713151 614.573454 
L 593.328773 614.331369 
L 593.944395 612.26877 
L 593.328773 613.321287 
L 594.560018 613.780844 
L 595.791262 614.677505 
L 596.406884 614.677404 
L 597.022507 614.300428 
L 597.638129 614.247086 
L 598.253751 614.77171 
L 598.869373 615.050459 
L 599.484996 614.043798 
L 600.100618 614.548137 
L 600.71624 614.439841 
L 601.331862 614.494245 
L 601.947485 614.871792 
L 603.178729 615.231406 
L 604.409974 615.212425 
L 603.794351 615.248651 
L 605.025596 614.588985 
L 605.641218 614.735185 
L 606.25684 614.564413 
L 606.872462 614.529394 
L 607.488085 614.805858 
L 608.103707 614.859102 
L 608.719329 614.626372 
L 609.334951 614.587294 
L 609.950574 614.764014 
L 611.181818 614.620499 
L 611.79744 614.996041 
L 612.413063 614.973652 
L 613.028685 615.182928 
L 614.259929 613.426377 
L 615.491174 614.042208 
L 616.106796 613.845184 
L 616.722418 613.98884 
L 617.338041 612.077866 
L 617.953663 612.495982 
L 618.569285 613.788313 
L 619.184907 613.888815 
L 619.80053 613.586722 
L 621.031774 614.004625 
L 621.647396 614.36757 
L 622.263019 613.8261 
L 622.878641 614.186951 
L 623.494263 614.006526 
L 624.109885 614.13723 
L 625.34113 614.854239 
L 625.956752 614.379379 
L 626.572374 614.574327 
L 627.187996 614.111243 
L 627.803619 614.401338 
L 629.034863 614.618805 
L 628.419241 614.463177 
L 629.650485 613.881834 
L 630.88173 614.282949 
L 631.497352 614.0306 
L 632.112974 614.162651 
L 632.728597 613.794838 
L 633.344219 614.472739 
L 633.959841 614.45416 
L 634.575463 612.330239 
L 635.191086 613.26395 
L 635.806708 613.765942 
L 636.42233 613.880424 
L 637.037952 613.582526 
L 637.653575 614.418398 
L 638.269197 613.962933 
L 638.884819 614.488238 
L 639.500441 608.990654 
L 640.116064 611.852551 
L 641.347308 614.232092 
L 641.96293 613.14022 
L 643.194175 614.052791 
L 643.809797 614.146186 
L 644.425419 612.634692 
L 643.809797 612.102808 
L 645.041041 612.875483 
L 645.656664 613.803281 
L 646.272286 614.362679 
L 646.887908 613.890879 
L 647.50353 613.683025 
L 648.119153 613.995979 
L 648.734775 613.987118 
L 649.350397 614.315444 
L 649.966019 614.879047 
L 650.581642 614.588984 
L 653.044131 614.554987 
L 653.659753 613.919808 
L 654.275375 614.237614 
L 654.890997 614.695169 
L 655.50662 614.66947 
L 656.122242 614.478503 
L 656.737864 614.83015 
L 657.353486 614.654332 
L 659.200353 614.54901 
L 659.815975 614.744872 
L 660.431598 614.495036 
L 661.662842 614.445803 
L 662.278464 614.802788 
L 662.894086 614.624296 
L 663.509709 614.566366 
L 664.125331 614.235443 
L 664.740953 614.609878 
L 665.356575 614.429485 
L 665.972198 614.100499 
L 667.203442 614.825282 
L 667.819064 614.904089 
L 668.434687 597.343271 
L 669.050309 610.00163 
L 669.665931 612.134782 
L 670.281553 613.015346 
L 670.897176 613.035951 
L 671.512798 613.220834 
L 672.744042 614.190249 
L 674.590909 614.215793 
L 675.206531 614.170046 
L 675.822154 614.684603 
L 676.437776 614.745816 
L 677.053398 615.092254 
L 677.66902 615.148325 
L 678.284643 614.017332 
L 678.900265 614.564499 
L 679.515887 614.064916 
L 680.131509 614.041061 
L 680.747132 614.377755 
L 681.362754 613.821123 
L 681.978376 613.931085 
L 682.593998 613.605857 
L 683.20962 614.246399 
L 683.825243 614.161987 
L 684.440865 612.184153 
L 685.056487 613.851868 
L 685.672109 614.291192 
L 686.903354 613.753147 
L 687.518976 614.56 
L 688.750221 611.637405 
L 689.365843 612.642782 
L 689.981465 606.525961 
L 690.597087 602.183699 
L 691.21271 608.444349 
L 691.828332 611.904217 
L 693.059576 613.268632 
L 692.443954 612.804473 
L 693.675199 613.225283 
L 694.906443 613.319791 
L 695.522065 614.159917 
L 696.137688 614.494213 
L 697.984554 614.632566 
L 698.600177 614.99163 
L 699.215799 614.448075 
L 699.831421 614.316149 
L 700.447043 614.857459 
L 701.062665 614.625008 
L 701.678288 613.811202 
L 702.909532 614.402967 
L 702.29391 167.27676 
L 704.140777 500.601827 
L 704.756399 556.471071 
L 705.372021 583.962959 
L 705.987643 599.174401 
L 705.372021 599.755749 
L 707.218888 609.394637 
L 708.450132 611.800905 
L 709.681377 610.73882 
L 710.296999 610.560514 
L 711.528244 611.099238 
L 712.143866 613.178869 
L 712.759488 612.321645 
L 713.37511 613.706657 
L 713.990733 608.683886 
L 714.606355 610.860512 
L 715.221977 612.254335 
L 715.837599 612.753288 
L 716.453222 611.907991 
L 717.068844 612.627395 
L 718.915711 613.137777 
L 720.146955 612.545597 
L 720.762577 613.384921 
L 721.378199 613.51654 
L 721.993822 612.319869 
L 723.225066 613.852888 
L 723.840688 613.852889 
L 724.456311 614.085841 
L 725.071933 614.726428 
L 725.687555 614.058853 
L 726.9188 613.937768 
L 727.534422 614.580859 
L 728.765666 614.581704 
L 729.381289 613.604567 
L 729.996911 613.894642 
L 730.612533 613.749609 
L 731.228155 612.660266 
L 731.843778 612.927852 
L 732.4594 613.029614 
L 733.075022 614.1617 
L 733.690644 613.544778 
L 734.306267 606.860327 
L 734.921889 609.490523 
L 735.537511 613.062658 
L 736.153133 612.943976 
L 736.768756 613.003319 
L 737.384378 612.597347 
L 738 612.836515 
L 738.615622 612.949587 
L 739.231244 612.772785 
L 739.846867 613.956371 
L 740.462489 613.466989 
L 741.078111 613.862131 
L 741.693733 613.883325 
L 742.309356 605.787388 
L 741.693733 609.773935 
L 742.924978 611.675764 
L 743.5406 613.401964 
L 744.156222 613.374381 
L 744.771845 613.123305 
L 745.387467 613.472608 
L 746.003089 613.172419 
L 746.618711 614.213877 
L 747.234334 613.895736 
L 747.849956 614.056484 
L 748.465578 614.411848 
L 749.0812 613.694454 
L 749.696823 613.487542 
L 750.312445 613.696031 
L 750.928067 613.135655 
L 751.543689 614.180037 
L 749.696823 598.772144 
L 752.159312 606.210151 
L 752.774934 610.061597 
L 754.621801 612.501551 
L 755.237423 612.89309 
L 756.468667 613.251985 
L 757.699912 614.487251 
L 758.315534 614.198337 
L 760.162401 613.923248 
L 760.778023 612.747086 
L 761.393645 613.690267 
L 762.009267 613.580454 
L 762.62489 613.646205 
L 763.240512 613.503816 
L 763.856134 598.434034 
L 764.471756 605.98084 
L 765.703001 613.325263 
L 766.318623 613.312877 
L 766.934245 613.608698 
L 768.16549 613.366585 
L 768.781112 613.817259 
L 769.396734 613.782526 
L 770.012357 613.533577 
L 770.627979 613.674356 
L 771.243601 614.411734 
L 771.859223 613.972389 
L 772.474846 613.351403 
L 773.090468 613.809668 
L 774.321712 613.540143 
L 774.937335 613.412386 
L 775.552957 614.289915 
L 776.168579 612.750451 
L 776.784201 612.444554 
L 778.015446 613.281215 
L 778.631068 611.743693 
L 779.24669 612.663681 
L 780.477935 613.311157 
L 781.093557 612.987421 
L 781.709179 604.344491 
L 782.324801 608.342403 
L 782.940424 599.934446 
L 783.556046 602.52067 
L 784.171668 608.685249 
L 785.402913 612.701536 
L 786.018535 612.520925 
L 786.634157 613.465307 
L 787.249779 613.637428 
L 787.865402 614.051719 
L 788.481024 613.701545 
L 789.096646 614.610701 
L 789.712268 614.5298 
L 790.327891 614.285911 
L 790.943513 613.872921 
L 791.559135 613.628454 
L 790.327891 613.623909 
L 792.79038 614.077188 
L 793.406002 613.403802 
L 794.021624 612.538419 
L 794.637246 613.225731 
L 795.252868 612.754849 
L 795.868491 613.02767 
L 796.484113 613.070378 
L 797.099735 613.666501 
L 797.715357 613.36837 
L 798.33098 613.517518 
L 798.946602 613.443146 
L 799.562224 613.086781 
L 800.177846 613.626927 
L 800.793469 613.837789 
L 801.409091 614.304457 
L 802.024713 613.940122 
L 802.640335 614.23503 
L 803.255958 613.874438 
L 803.87158 614.071186 
L 804.487202 614.636156 
L 805.102824 613.883198 
L 806.334069 614.386473 
L 806.949691 614.218688 
L 807.565313 614.478026 
L 809.41218 614.097847 
L 810.027802 614.12515 
L 810.643425 613.981451 
L 811.259047 614.048893 
L 811.874669 613.389655 
L 812.490291 609.840503 
L 813.105914 611.615082 
L 813.721536 612.558409 
L 814.95278 614.051359 
L 815.568402 614.194712 
L 816.184025 613.905817 
L 815.568402 613.641233 
L 816.799647 613.731356 
L 817.415269 614.06973 
L 818.030891 613.858944 
L 819.262136 614.063439 
L 818.030891 613.426949 
L 819.877758 539.22662 
L 820.49338 575.674796 
L 821.109003 595.417285 
L 821.724625 609.670802 
L 822.340247 612.457956 
L 823.571492 613.186976 
L 824.187114 614.068509 
L 824.802736 614.162891 
L 823.571492 613.731691 
L 824.802736 613.689925 
L 825.418358 614.355209 
L 826.033981 614.143059 
L 826.649603 614.467183 
L 827.265225 614.057671 
L 827.880847 611.522163 
L 828.49647 612.792751 
L 829.112092 613.120337 
L 829.727714 613.854908 
L 830.343336 613.48857 
L 830.958959 613.964554 
L 831.574581 611.28465 
L 832.190203 613.007583 
L 832.805825 612.315389 
L 833.421447 612.485139 
L 834.03707 614.100247 
L 834.652692 614.671258 
L 835.268314 614.385755 
L 835.883936 614.243005 
L 836.499559 613.885326 
L 837.115181 613.729507 
L 837.730803 614.465316 
L 838.346425 614.097412 
L 838.962048 613.978354 
L 839.57767 614.075732 
L 842.040159 613.972342 
L 842.655781 612.089257 
L 843.271403 611.802533 
L 843.887026 612.899123 
L 844.502648 612.619719 
L 845.11827 613.414878 
L 846.965137 613.329858 
L 848.196381 613.82144 
L 848.812004 614.011374 
L 849.427626 613.928291 
L 850.043248 613.96935 
L 850.65887 614.487877 
L 851.274492 614.278717 
L 851.890115 613.846018 
L 852.505737 614.523572 
L 853.121359 614.529714 
L 853.736981 614.862038 
L 854.352604 614.683792 
L 857.430715 614.641741 
L 858.046337 614.273131 
L 858.661959 614.254974 
L 859.277582 614.471639 
L 859.893204 614.293413 
L 860.508826 614.280618 
L 861.124448 614.092569 
L 861.740071 614.712512 
L 862.355693 615.086834 
L 862.971315 614.367496 
L 862.355693 614.074886 
L 863.586937 613.829277 
L 864.20256 614.645216 
L 864.818182 614.021869 
L 865.433804 613.835014 
L 866.049426 613.926347 
L 866.665049 613.360238 
L 867.280671 613.632379 
L 867.896293 613.493177 
L 868.511915 613.876561 
L 869.127538 613.837541 
L 869.74316 613.417468 
L 870.358782 606.368504 
L 870.974404 608.902034 
L 871.590026 609.083376 
L 872.205649 612.142251 
L 872.821271 612.895205 
L 873.436893 612.775047 
L 874.052515 612.508779 
L 874.668138 613.690905 
L 875.28376 614.387622 
L 875.899382 614.626243 
L 876.515004 613.994033 
L 877.130627 614.30032 
L 877.746249 613.831072 
L 878.361871 614.228634 
L 878.977493 614.111322 
L 879.593116 612.540066 
L 880.208738 613.404 
L 879.593116 613.835966 
L 880.82436 613.870243 
L 881.439982 613.755081 
L 882.055605 613.97215 
L 882.671227 613.972152 
L 883.286849 614.613744 
L 883.902471 614.613745 
L 884.518094 614.355031 
L 885.133716 614.707374 
L 885.749338 614.201305 
L 885.133716 614.182874 
L 887.596205 614.479138 
L 889.443071 613.899447 
L 891.289938 614.762398 
L 891.90556 614.70512 
L 892.521183 614.275205 
L 893.136805 613.029907 
L 894.368049 614.139243 
L 894.983672 613.724199 
L 895.599294 613.872022 
L 896.214916 611.493587 
L 896.830538 612.667879 
L 897.446161 612.75796 
L 895.599294 611.500413 
L 898.061783 611.044507 
L 898.677405 610.643686 
L 899.293027 612.45581 
L 899.90865 612.837371 
L 900.524272 613.370945 
L 901.139894 613.520772 
L 900.524272 614.100784 
L 902.371139 613.998488 
L 902.986761 613.193478 
L 903.602383 613.804933 
L 904.218005 614.258519 
L 904.833628 614.485312 
L 905.44925 613.682014 
L 906.064872 614.224613 
L 906.680494 613.881196 
L 907.296117 610.595221 
L 908.527361 613.790206 
L 909.758605 613.730127 
L 910.374228 612.041899 
L 911.605472 613.076247 
L 912.221094 610.288899 
L 912.836717 612.553314 
L 913.452339 613.228917 
L 914.067961 613.256773 
L 914.683583 613.700033 
L 915.299206 613.797972 
L 915.914828 612.920863 
L 918.377317 613.872677 
L 918.992939 614.487457 
L 919.608561 614.864863 
L 920.839806 613.582545 
L 921.455428 614.2388 
L 922.07105 614.114654 
L 922.686673 614.383375 
L 923.302295 614.476891 
L 923.917917 611.387472 
L 924.533539 611.470577 
L 925.149162 612.687548 
L 925.764784 613.296034 
L 926.380406 614.426996 
L 926.996028 614.166007 
L 927.61165 614.35855 
L 928.227273 614.131535 
L 928.842895 613.443137 
L 929.458517 614.213016 
L 930.689762 614.058768 
L 931.305384 613.620878 
L 932.536628 613.843668 
L 933.767873 613.826446 
L 936.845984 613.874654 
L 937.461606 614.345915 
L 938.077229 614.110285 
L 938.692851 614.794699 
L 939.308473 612.69165 
L 939.924095 613.203669 
L 940.539718 613.955524 
L 941.15534 614.927422 
L 941.770962 614.306274 
L 942.386584 614.193106 
L 943.002207 613.234432 
L 943.617829 612.755095 
L 944.233451 614.137476 
L 944.849073 613.711052 
L 945.464695 613.767407 
L 946.080318 613.454336 
L 946.69594 613.861134 
L 948.542807 613.280195 
L 949.158429 613.460554 
L 950.389673 613.372591 
L 951.005296 614.051554 
L 949.158429 613.695732 
L 951.620918 613.490181 
L 953.467785 612.672579 
L 954.083407 613.189344 
L 955.314651 612.570797 
L 955.930274 613.541657 
L 956.545896 613.444228 
L 957.161518 614.322677 
L 957.77714 613.853332 
L 959.008385 613.58883 
L 959.624007 613.312983 
L 960.239629 613.818363 
L 960.855252 613.635014 
L 961.470874 613.769767 
L 962.086496 614.01885 
L 962.702118 613.894315 
L 963.317741 614.616276 
L 962.702118 614.03521 
L 963.933363 614.543934 
L 964.548985 614.420164 
L 965.164607 614.034161 
L 965.780229 614.569669 
L 967.011474 614.016489 
L 967.627096 614.076162 
L 968.242718 613.942814 
L 968.858341 613.109286 
L 969.473963 612.696626 
L 970.089585 609.924717 
L 970.705207 543.32253 
L 971.32083 575.908415 
L 971.936452 594.906467 
L 972.552074 599.035055 
L 973.167696 606.843467 
L 974.398941 611.485619 
L 975.014563 612.525477 
L 975.630185 613.210694 
L 976.245808 613.209772 
L 976.86143 613.552842 
L 978.092674 614.653776 
L 978.708297 614.279148 
L 979.323919 613.385197 
L 979.939541 613.483427 
L 980.555163 613.056124 
L 981.170786 613.269772 
L 981.786408 613.875077 
L 982.40203 613.572425 
L 983.017652 614.497602 
L 984.248897 614.524579 
L 985.480141 614.524582 
L 986.095763 614.963752 
L 986.711386 614.629168 
L 987.327008 609.22369 
L 987.94263 165.962963 
L 988.558252 390.08998 
L 989.173875 502.192553 
L 989.789497 558.263709 
L 990.405119 586.118033 
L 991.020741 599.196895 
L 991.636364 606.626732 
L 992.251986 611.0499 
L 992.867608 613.064001 
L 993.48323 613.257833 
L 994.098853 613.981415 
L 994.714475 614.222753 
L 995.330097 614.838155 
L 995.945719 614.986111 
L 996.561342 614.802961 
L 995.945719 614.309822 
L 999.639453 614.537449 
L 1000.870697 614.418897 
L 1002.717564 614.43175 
L 1003.333186 614.777312 
L 1003.948808 614.601017 
L 1004.564431 614.921642 
L 1005.795675 614.840334 
L 1006.411297 614.844927 
L 1007.02692 614.246543 
L 1008.258164 614.744405 
L 1008.873786 614.794671 
L 1009.489409 613.733581 
L 1010.105031 614.827406 
L 1010.720653 614.105807 
L 1011.336275 613.975167 
L 1014.414387 614.153372 
L 1015.030009 614.740186 
L 1015.645631 614.194172 
L 1016.261253 614.170565 
L 1016.876876 614.727259 
L 1018.10812 614.72548 
L 1018.723742 615.081447 
L 1019.339365 614.812348 
L 1020.570609 614.792531 
L 1021.186231 614.831564 
L 1021.801853 613.026631 
L 1022.417476 612.582644 
L 1023.033098 613.7063 
L 1023.64872 613.612964 
L 1024.264342 614.30825 
L 1024.879965 614.288092 
L 1025.495587 614.806423 
L 1026.111209 614.157349 
L 1026.726831 614.721925 
L 1027.342454 615.080596 
L 1027.958076 614.554192 
L 1029.18932 614.883795 
L 1029.804943 614.265977 
L 1030.420565 604.187813 
L 1031.036187 609.079982 
L 1031.651809 602.426692 
L 1032.267432 608.24163 
L 1032.883054 611.457875 
L 1033.498676 612.907321 
L 1034.114298 613.818919 
L 1034.729921 613.868095 
L 1035.961165 614.323906 
L 1036.576787 614.724396 
L 1037.19241 614.907177 
L 1038.423654 614.866908 
L 1039.039276 614.637506 
L 1039.654898 614.772348 
L 1040.270521 614.77235 
L 1040.886143 615.048553 
L 1043.348632 615.212156 
L 1045.195499 615.386691 
L 1045.811121 615.184794 
L 1046.426743 615.376954 
L 1047.042365 614.739332 
L 1047.657988 615.100244 
L 1048.27361 615.240594 
L 1048.889232 592.908963 
L 1049.504854 603.782422 
L 1050.120477 609.469349 
L 1050.736099 611.202384 
L 1051.967343 613.054783 
L 1052.582966 614.285693 
L 1053.198588 614.883208 
L 1053.81421 615.092785 
L 1057.507944 615.433182 
L 1058.123566 615.321193 
L 1058.739188 615.377188 
L 1059.35481 614.566352 
L 1060.586055 615.144282 
L 1061.201677 615.220176 
L 1062.432921 615.154094 
L 1063.048544 614.875595 
L 1063.664166 613.961208 
L 1064.279788 614.753638 
L 1064.89541 615.136748 
L 1066.742277 615.395297 
L 1072.282877 615.455462 
L 1072.8985 615.110947 
L 1074.129744 615.356493 
L 1074.745366 615.135552 
L 1075.360989 615.243797 
L 1075.976611 615.188072 
L 1076.592233 614.263641 
L 1079.670344 615.301412 
L 1080.285966 614.655916 
L 1080.901589 614.693216 
L 1081.517211 614.997315 
L 1082.748455 614.71654 
L 1083.364078 614.898189 
L 1084.595322 614.723761 
L 1085.826567 615.166166 
L 1086.442189 614.217995 
L 1087.673433 613.789909 
L 1088.289056 614.003954 
L 1088.904678 613.896934 
L 1089.5203 613.950822 
L 1090.135922 614.603079 
L 1090.751545 614.958349 
L 1091.367167 614.753076 
L 1091.982789 614.893105 
L 1092.598411 615.259361 
L 1093.214034 615.401567 
L 1093.829656 615.363161 
L 1094.445278 615.478319 
L 1095.0609 615.274966 
L 1095.676523 615.373061 
L 1096.292145 615.015067 
L 1096.907767 615.130089 
L 1098.139011 615.127456 
L 1098.754634 614.892264 
L 1099.985878 615.156856 
L 1100.6015 614.220743 
L 1101.217123 614.690258 
L 1101.832745 614.896248 
L 1103.063989 614.885529 
L 1103.679612 614.584569 
L 1104.295234 614.843403 
L 1104.910856 614.713987 
L 1105.526478 614.778695 
L 1106.757723 614.662344 
L 1107.373345 614.633197 
L 1107.988967 614.261572 
L 1108.60459 614.456651 
L 1109.220212 614.347229 
L 1109.835834 614.680971 
L 1110.451456 614.487414 
L 1111.067079 614.584197 
L 1112.298323 615.221286 
L 1112.913945 615.104206 
L 1115.376434 615.238711 
L 1117.223301 615.151958 
L 1117.838923 615.268132 
L 1118.454545 615.133571 
L 1119.070168 615.180815 
L 1120.301412 614.163932 
L 1120.917034 614.316881 
L 1121.532657 614.687551 
L 1122.148279 614.502217 
L 1122.763901 614.616367 
L 1123.995146 615.170221 
L 1124.610768 615.050462 
L 1125.842012 615.398633 
L 1128.304501 615.359556 
L 1128.920124 615.452396 
L 1129.535746 614.897582 
L 1130.151368 615.174989 
L 1130.76699 615.303148 
L 1131.998235 615.264281 
L 1133.229479 614.713597 
L 1135.076346 614.735185 
L 1135.691968 612.572131 
L 1136.30759 610.94984 
L 1136.923213 613.205815 
L 1137.538835 613.579132 
L 1138.154457 612.660918 
L 1138.770079 613.28698 
L 1139.385702 613.614245 
L 1140.001324 613.634031 
L 1140.616946 612.81432 
L 1141.232568 614.105628 
L 1141.848191 614.249635 
L 1142.463813 614.693409 
L 1143.079435 614.582469 
L 1143.695057 614.780538 
L 1144.31068 614.778899 
L 1145.541924 615.230743 
L 1146.157546 615.109157 
L 1148.620035 615.158664 
L 1149.235658 615.293883 
L 1150.466902 615.262805 
L 1151.082524 614.84096 
L 1151.698147 615.063411 
L 1152.313769 614.952186 
L 1152.929391 615.245495 
L 1154.160635 614.56806 
L 1154.776258 614.94564 
L 1155.39188 614.690068 
L 1156.007502 614.787354 
L 1157.238747 614.691163 
L 1157.854369 615.039542 
L 1159.085613 615.207425 
L 1159.701236 613.851898 
L 1160.316858 614.502512 
L 1160.93248 614.616514 
L 1162.163725 614.581685 
L 1162.779347 614.76121 
L 1164.010591 613.79309 
L 1164.626214 614.439886 
L 1165.241836 614.847611 
L 1165.857458 614.643749 
L 1166.47308 614.944429 
L 1167.704325 614.824714 
L 1168.319947 614.360958 
L 1168.935569 614.246348 
L 1169.551192 614.45171 
L 1170.166814 615.006663 
L 1170.782436 614.860218 
L 1173.244925 615.02368 
L 1173.860547 614.502922 
L 1174.476169 614.672981 
L 1175.091792 614.177304 
L 1175.707414 614.417188 
L 1176.323036 614.814805 
L 1176.938658 614.791009 
L 1177.554281 614.897245 
L 1178.169903 614.71976 
L 1178.785525 614.978201 
L 1179.401147 614.763944 
L 1180.632392 615.03766 
L 1181.863636 615.017938 
L 1182.479259 614.800414 
L 1183.094881 615.118763 
L 1183.710503 612.99069 
L 1184.326125 612.850537 
L 1186.172992 614.85436 
L 1186.788614 613.450717 
L 1187.404237 614.085838 
L 1188.019859 614.176885 
L 1188.635481 614.131365 
L 1189.251103 614.72433 
L 1189.866726 614.484865 
L 1190.482348 614.761068 
L 1191.09797 614.622967 
L 1194.176081 614.648925 
L 1194.791703 612.427622 
L 1195.407326 613.989833 
L 1196.022948 614.141845 
L 1196.63857 614.847173 
L 1197.254192 614.774444 
L 1197.869815 613.529205 
L 1199.101059 614.486216 
L 1199.716681 614.81606 
L 1200.332304 615.004942 
L 1200.947926 614.929866 
L 1201.563548 614.569211 
L 1202.17917 614.406458 
L 1202.794793 614.870202 
L 1203.410415 614.387361 
L 1204.026037 614.537973 
L 1204.641659 614.867895 
L 1205.257282 614.699042 
L 1206.488526 614.699042 
L 1207.104148 614.977253 
L 1207.719771 614.78076 
L 1208.335393 614.298722 
L 1208.951015 614.617887 
L 1209.566637 614.45831 
L 1211.413504 615.183282 
L 1212.029126 614.883625 
L 1212.644748 615.147538 
L 1214.491615 614.755364 
L 1215.72286 615.259142 
L 1218.185349 614.752598 
L 1219.416593 614.893907 
L 1220.032215 614.785605 
L 1220.647838 613.178264 
L 1221.26346 613.429945 
L 1222.494704 613.417715 
L 1223.110327 614.333597 
L 1223.725949 614.243915 
L 1224.957193 614.391692 
L 1225.572816 614.271505 
L 1226.188438 614.879616 
L 1226.80406 614.577833 
L 1227.419682 614.572535 
L 1228.035305 614.726081 
L 1229.266549 614.504209 
L 1229.882171 566.212561 
L 1230.497793 590.402455 
L 1231.113416 601.625248 
L 1232.34466 606.605141 
L 1232.960282 607.757894 
L 1233.575905 610.098318 
L 1234.191527 605.120776 
L 1234.807149 534.543632 
L 1235.422771 572.528148 
L 1236.038394 592.650766 
L 1236.654016 588.007509 
L 1237.269638 595.585576 
L 1237.88526 605.201253 
L 1238.500883 608.976413 
L 1240.347749 612.304097 
L 1240.963372 611.705281 
L 1241.578994 611.994624 
L 1242.194616 612.74818 
L 1242.810238 613.313348 
L 1243.425861 614.223645 
L 1244.041483 613.892129 
L 1245.272727 614.018611 
L 1245.272727 614.018611 
" style="fill:none;stroke:#ff7f0e;stroke-linecap:square;stroke-width:1.5;"/>
   </g>
   <g id="patch_3">
    <path d="M 180 640.8 
L 180 86.4 
" style="fill:none;stroke:#000000;stroke-linecap:square;stroke-linejoin:miter;stroke-width:0.8;"/>
   </g>
   <g id="patch_4">
    <path d="M 1296 640.8 
L 1296 86.4 
" style="fill:none;stroke:#000000;stroke-linecap:square;stroke-linejoin:miter;stroke-width:0.8;"/>
   </g>
   <g id="patch_5">
    <path d="M 180 640.8 
L 1296 640.8 
" style="fill:none;stroke:#000000;stroke-linecap:square;stroke-linejoin:miter;stroke-width:0.8;"/>
   </g>
   <g id="patch_6">
    <path d="M 180 86.4 
L 1296 86.4 
" style="fill:none;stroke:#000000;stroke-linecap:square;stroke-linejoin:miter;stroke-width:0.8;"/>
   </g>
  </g>
 </g>
 <defs>
  <clipPath id="p32ef1913c3">
   <rect height="554.4" width="1116" x="180" y="86.4"/>
  </clipPath>
 </defs>
</svg>
