<?xml version="1.0" encoding="utf-8" standalone="no"?>
<!DOCTYPE svg PUBLIC "-//W3C//DTD SVG 1.1//EN"
  "http://www.w3.org/Graphics/SVG/1.1/DTD/svg11.dtd">
<svg height="288pt" version="1.1" viewBox="0 0 576 288" width="576pt" xmlns="http://www.w3.org/2000/svg" xmlns:xlink="http://www.w3.org/1999/xlink">
 <metadata>
  <rdf:RDF xmlns:cc="http://creativecommons.org/ns#" xmlns:dc="http://purl.org/dc/elements/1.1/" xmlns:rdf="http://www.w3.org/1999/02/22-rdf-syntax-ns#">
   <cc:Work>
    <dc:type rdf:resource="http://purl.org/dc/dcmitype/StillImage"/>
    <dc:date>2022-01-06T21:21:52.985590</dc:date>
    <dc:format>image/svg+xml</dc:format>
    <dc:creator>
     <cc:Agent>
      <dc:title>Matplotlib v3.4.3, https://matplotlib.org/</dc:title>
     </cc:Agent>
    </dc:creator>
   </cc:Work>
  </rdf:RDF>
 </metadata>
 <defs>
  <style type="text/css">*{stroke-linecap:butt;stroke-linejoin:round;}</style>
 </defs>
 <g id="figure_1">
  <g id="patch_1">
   <path d="M 0 288 
L 576 288 
L 576 0 
L 0 0 
z
" style="fill:#ffffff;"/>
  </g>
  <g id="axes_1">
   <g id="patch_2">
    <path d="M 72 256.32 
L 518.4 256.32 
L 518.4 34.56 
L 72 34.56 
z
" style="fill:#ffffff;"/>
   </g>
   <g id="matplotlib.axis_1">
    <g id="xtick_1">
     <g id="line2d_1">
      <defs>
       <path d="M 0 0 
L 0 3.5 
" id="m5bb54afa3d" style="stroke:#000000;stroke-width:0.8;"/>
      </defs>
      <g>
       <use style="stroke:#000000;stroke-width:0.8;" x="92.290909" xlink:href="#m5bb54afa3d" y="256.32"/>
      </g>
     </g>
     <g id="text_1">
      <!-- 39000 -->
      <g transform="translate(76.384659 270.918437)scale(0.1 -0.1)">
       <defs>
        <path d="M 2597 2516 
Q 3050 2419 3304 2112 
Q 3559 1806 3559 1356 
Q 3559 666 3084 287 
Q 2609 -91 1734 -91 
Q 1441 -91 1130 -33 
Q 819 25 488 141 
L 488 750 
Q 750 597 1062 519 
Q 1375 441 1716 441 
Q 2309 441 2620 675 
Q 2931 909 2931 1356 
Q 2931 1769 2642 2001 
Q 2353 2234 1838 2234 
L 1294 2234 
L 1294 2753 
L 1863 2753 
Q 2328 2753 2575 2939 
Q 2822 3125 2822 3475 
Q 2822 3834 2567 4026 
Q 2313 4219 1838 4219 
Q 1578 4219 1281 4162 
Q 984 4106 628 3988 
L 628 4550 
Q 988 4650 1302 4700 
Q 1616 4750 1894 4750 
Q 2613 4750 3031 4423 
Q 3450 4097 3450 3541 
Q 3450 3153 3228 2886 
Q 3006 2619 2597 2516 
z
" id="DejaVuSans-33" transform="scale(0.015625)"/>
        <path d="M 703 97 
L 703 672 
Q 941 559 1184 500 
Q 1428 441 1663 441 
Q 2288 441 2617 861 
Q 2947 1281 2994 2138 
Q 2813 1869 2534 1725 
Q 2256 1581 1919 1581 
Q 1219 1581 811 2004 
Q 403 2428 403 3163 
Q 403 3881 828 4315 
Q 1253 4750 1959 4750 
Q 2769 4750 3195 4129 
Q 3622 3509 3622 2328 
Q 3622 1225 3098 567 
Q 2575 -91 1691 -91 
Q 1453 -91 1209 -44 
Q 966 3 703 97 
z
M 1959 2075 
Q 2384 2075 2632 2365 
Q 2881 2656 2881 3163 
Q 2881 3666 2632 3958 
Q 2384 4250 1959 4250 
Q 1534 4250 1286 3958 
Q 1038 3666 1038 3163 
Q 1038 2656 1286 2365 
Q 1534 2075 1959 2075 
z
" id="DejaVuSans-39" transform="scale(0.015625)"/>
        <path d="M 2034 4250 
Q 1547 4250 1301 3770 
Q 1056 3291 1056 2328 
Q 1056 1369 1301 889 
Q 1547 409 2034 409 
Q 2525 409 2770 889 
Q 3016 1369 3016 2328 
Q 3016 3291 2770 3770 
Q 2525 4250 2034 4250 
z
M 2034 4750 
Q 2819 4750 3233 4129 
Q 3647 3509 3647 2328 
Q 3647 1150 3233 529 
Q 2819 -91 2034 -91 
Q 1250 -91 836 529 
Q 422 1150 422 2328 
Q 422 3509 836 4129 
Q 1250 4750 2034 4750 
z
" id="DejaVuSans-30" transform="scale(0.015625)"/>
       </defs>
       <use xlink:href="#DejaVuSans-33"/>
       <use x="63.623047" xlink:href="#DejaVuSans-39"/>
       <use x="127.246094" xlink:href="#DejaVuSans-30"/>
       <use x="190.869141" xlink:href="#DejaVuSans-30"/>
       <use x="254.492188" xlink:href="#DejaVuSans-30"/>
      </g>
     </g>
    </g>
    <g id="xtick_2">
     <g id="line2d_2">
      <g>
       <use style="stroke:#000000;stroke-width:0.8;" x="153.853133" xlink:href="#m5bb54afa3d" y="256.32"/>
      </g>
     </g>
     <g id="text_2">
      <!-- 39250 -->
      <g transform="translate(137.946883 270.918437)scale(0.1 -0.1)">
       <defs>
        <path d="M 1228 531 
L 3431 531 
L 3431 0 
L 469 0 
L 469 531 
Q 828 903 1448 1529 
Q 2069 2156 2228 2338 
Q 2531 2678 2651 2914 
Q 2772 3150 2772 3378 
Q 2772 3750 2511 3984 
Q 2250 4219 1831 4219 
Q 1534 4219 1204 4116 
Q 875 4013 500 3803 
L 500 4441 
Q 881 4594 1212 4672 
Q 1544 4750 1819 4750 
Q 2544 4750 2975 4387 
Q 3406 4025 3406 3419 
Q 3406 3131 3298 2873 
Q 3191 2616 2906 2266 
Q 2828 2175 2409 1742 
Q 1991 1309 1228 531 
z
" id="DejaVuSans-32" transform="scale(0.015625)"/>
        <path d="M 691 4666 
L 3169 4666 
L 3169 4134 
L 1269 4134 
L 1269 2991 
Q 1406 3038 1543 3061 
Q 1681 3084 1819 3084 
Q 2600 3084 3056 2656 
Q 3513 2228 3513 1497 
Q 3513 744 3044 326 
Q 2575 -91 1722 -91 
Q 1428 -91 1123 -41 
Q 819 9 494 109 
L 494 744 
Q 775 591 1075 516 
Q 1375 441 1709 441 
Q 2250 441 2565 725 
Q 2881 1009 2881 1497 
Q 2881 1984 2565 2268 
Q 2250 2553 1709 2553 
Q 1456 2553 1204 2497 
Q 953 2441 691 2322 
L 691 4666 
z
" id="DejaVuSans-35" transform="scale(0.015625)"/>
       </defs>
       <use xlink:href="#DejaVuSans-33"/>
       <use x="63.623047" xlink:href="#DejaVuSans-39"/>
       <use x="127.246094" xlink:href="#DejaVuSans-32"/>
       <use x="190.869141" xlink:href="#DejaVuSans-35"/>
       <use x="254.492188" xlink:href="#DejaVuSans-30"/>
      </g>
     </g>
    </g>
    <g id="xtick_3">
     <g id="line2d_3">
      <g>
       <use style="stroke:#000000;stroke-width:0.8;" x="215.415357" xlink:href="#m5bb54afa3d" y="256.32"/>
      </g>
     </g>
     <g id="text_3">
      <!-- 39500 -->
      <g transform="translate(199.509107 270.918437)scale(0.1 -0.1)">
       <use xlink:href="#DejaVuSans-33"/>
       <use x="63.623047" xlink:href="#DejaVuSans-39"/>
       <use x="127.246094" xlink:href="#DejaVuSans-35"/>
       <use x="190.869141" xlink:href="#DejaVuSans-30"/>
       <use x="254.492188" xlink:href="#DejaVuSans-30"/>
      </g>
     </g>
    </g>
    <g id="xtick_4">
     <g id="line2d_4">
      <g>
       <use style="stroke:#000000;stroke-width:0.8;" x="276.977582" xlink:href="#m5bb54afa3d" y="256.32"/>
      </g>
     </g>
     <g id="text_4">
      <!-- 39750 -->
      <g transform="translate(261.071332 270.918437)scale(0.1 -0.1)">
       <defs>
        <path d="M 525 4666 
L 3525 4666 
L 3525 4397 
L 1831 0 
L 1172 0 
L 2766 4134 
L 525 4134 
L 525 4666 
z
" id="DejaVuSans-37" transform="scale(0.015625)"/>
       </defs>
       <use xlink:href="#DejaVuSans-33"/>
       <use x="63.623047" xlink:href="#DejaVuSans-39"/>
       <use x="127.246094" xlink:href="#DejaVuSans-37"/>
       <use x="190.869141" xlink:href="#DejaVuSans-35"/>
       <use x="254.492188" xlink:href="#DejaVuSans-30"/>
      </g>
     </g>
    </g>
    <g id="xtick_5">
     <g id="line2d_5">
      <g>
       <use style="stroke:#000000;stroke-width:0.8;" x="338.539806" xlink:href="#m5bb54afa3d" y="256.32"/>
      </g>
     </g>
     <g id="text_5">
      <!-- 40000 -->
      <g transform="translate(322.633556 270.918437)scale(0.1 -0.1)">
       <defs>
        <path d="M 2419 4116 
L 825 1625 
L 2419 1625 
L 2419 4116 
z
M 2253 4666 
L 3047 4666 
L 3047 1625 
L 3713 1625 
L 3713 1100 
L 3047 1100 
L 3047 0 
L 2419 0 
L 2419 1100 
L 313 1100 
L 313 1709 
L 2253 4666 
z
" id="DejaVuSans-34" transform="scale(0.015625)"/>
       </defs>
       <use xlink:href="#DejaVuSans-34"/>
       <use x="63.623047" xlink:href="#DejaVuSans-30"/>
       <use x="127.246094" xlink:href="#DejaVuSans-30"/>
       <use x="190.869141" xlink:href="#DejaVuSans-30"/>
       <use x="254.492188" xlink:href="#DejaVuSans-30"/>
      </g>
     </g>
    </g>
    <g id="xtick_6">
     <g id="line2d_6">
      <g>
       <use style="stroke:#000000;stroke-width:0.8;" x="400.10203" xlink:href="#m5bb54afa3d" y="256.32"/>
      </g>
     </g>
     <g id="text_6">
      <!-- 40250 -->
      <g transform="translate(384.19578 270.918437)scale(0.1 -0.1)">
       <use xlink:href="#DejaVuSans-34"/>
       <use x="63.623047" xlink:href="#DejaVuSans-30"/>
       <use x="127.246094" xlink:href="#DejaVuSans-32"/>
       <use x="190.869141" xlink:href="#DejaVuSans-35"/>
       <use x="254.492188" xlink:href="#DejaVuSans-30"/>
      </g>
     </g>
    </g>
    <g id="xtick_7">
     <g id="line2d_7">
      <g>
       <use style="stroke:#000000;stroke-width:0.8;" x="461.664254" xlink:href="#m5bb54afa3d" y="256.32"/>
      </g>
     </g>
     <g id="text_7">
      <!-- 40500 -->
      <g transform="translate(445.758004 270.918437)scale(0.1 -0.1)">
       <use xlink:href="#DejaVuSans-34"/>
       <use x="63.623047" xlink:href="#DejaVuSans-30"/>
       <use x="127.246094" xlink:href="#DejaVuSans-35"/>
       <use x="190.869141" xlink:href="#DejaVuSans-30"/>
       <use x="254.492188" xlink:href="#DejaVuSans-30"/>
      </g>
     </g>
    </g>
   </g>
   <g id="matplotlib.axis_2">
    <g id="ytick_1">
     <g id="line2d_8">
      <defs>
       <path d="M 0 0 
L -3.5 0 
" id="m4cfff39dc7" style="stroke:#000000;stroke-width:0.8;"/>
      </defs>
      <g>
       <use style="stroke:#000000;stroke-width:0.8;" x="72" xlink:href="#m4cfff39dc7" y="246.240179"/>
      </g>
     </g>
     <g id="text_8">
      <!-- 0 -->
      <g transform="translate(58.6375 250.039398)scale(0.1 -0.1)">
       <use xlink:href="#DejaVuSans-30"/>
      </g>
     </g>
    </g>
    <g id="ytick_2">
     <g id="line2d_9">
      <g>
       <use style="stroke:#000000;stroke-width:0.8;" x="72" xlink:href="#m4cfff39dc7" y="217.992548"/>
      </g>
     </g>
     <g id="text_9">
      <!-- 50 -->
      <g transform="translate(52.275 221.791767)scale(0.1 -0.1)">
       <use xlink:href="#DejaVuSans-35"/>
       <use x="63.623047" xlink:href="#DejaVuSans-30"/>
      </g>
     </g>
    </g>
    <g id="ytick_3">
     <g id="line2d_10">
      <g>
       <use style="stroke:#000000;stroke-width:0.8;" x="72" xlink:href="#m4cfff39dc7" y="189.744918"/>
      </g>
     </g>
     <g id="text_10">
      <!-- 100 -->
      <g transform="translate(45.9125 193.544136)scale(0.1 -0.1)">
       <defs>
        <path d="M 794 531 
L 1825 531 
L 1825 4091 
L 703 3866 
L 703 4441 
L 1819 4666 
L 2450 4666 
L 2450 531 
L 3481 531 
L 3481 0 
L 794 0 
L 794 531 
z
" id="DejaVuSans-31" transform="scale(0.015625)"/>
       </defs>
       <use xlink:href="#DejaVuSans-31"/>
       <use x="63.623047" xlink:href="#DejaVuSans-30"/>
       <use x="127.246094" xlink:href="#DejaVuSans-30"/>
      </g>
     </g>
    </g>
    <g id="ytick_4">
     <g id="line2d_11">
      <g>
       <use style="stroke:#000000;stroke-width:0.8;" x="72" xlink:href="#m4cfff39dc7" y="161.497287"/>
      </g>
     </g>
     <g id="text_11">
      <!-- 150 -->
      <g transform="translate(45.9125 165.296506)scale(0.1 -0.1)">
       <use xlink:href="#DejaVuSans-31"/>
       <use x="63.623047" xlink:href="#DejaVuSans-35"/>
       <use x="127.246094" xlink:href="#DejaVuSans-30"/>
      </g>
     </g>
    </g>
    <g id="ytick_5">
     <g id="line2d_12">
      <g>
       <use style="stroke:#000000;stroke-width:0.8;" x="72" xlink:href="#m4cfff39dc7" y="133.249656"/>
      </g>
     </g>
     <g id="text_12">
      <!-- 200 -->
      <g transform="translate(45.9125 137.048875)scale(0.1 -0.1)">
       <use xlink:href="#DejaVuSans-32"/>
       <use x="63.623047" xlink:href="#DejaVuSans-30"/>
       <use x="127.246094" xlink:href="#DejaVuSans-30"/>
      </g>
     </g>
    </g>
    <g id="ytick_6">
     <g id="line2d_13">
      <g>
       <use style="stroke:#000000;stroke-width:0.8;" x="72" xlink:href="#m4cfff39dc7" y="105.002025"/>
      </g>
     </g>
     <g id="text_13">
      <!-- 250 -->
      <g transform="translate(45.9125 108.801244)scale(0.1 -0.1)">
       <use xlink:href="#DejaVuSans-32"/>
       <use x="63.623047" xlink:href="#DejaVuSans-35"/>
       <use x="127.246094" xlink:href="#DejaVuSans-30"/>
      </g>
     </g>
    </g>
    <g id="ytick_7">
     <g id="line2d_14">
      <g>
       <use style="stroke:#000000;stroke-width:0.8;" x="72" xlink:href="#m4cfff39dc7" y="76.754395"/>
      </g>
     </g>
     <g id="text_14">
      <!-- 300 -->
      <g transform="translate(45.9125 80.553613)scale(0.1 -0.1)">
       <use xlink:href="#DejaVuSans-33"/>
       <use x="63.623047" xlink:href="#DejaVuSans-30"/>
       <use x="127.246094" xlink:href="#DejaVuSans-30"/>
      </g>
     </g>
    </g>
    <g id="ytick_8">
     <g id="line2d_15">
      <g>
       <use style="stroke:#000000;stroke-width:0.8;" x="72" xlink:href="#m4cfff39dc7" y="48.506764"/>
      </g>
     </g>
     <g id="text_15">
      <!-- 350 -->
      <g transform="translate(45.9125 52.305983)scale(0.1 -0.1)">
       <use xlink:href="#DejaVuSans-33"/>
       <use x="63.623047" xlink:href="#DejaVuSans-35"/>
       <use x="127.246094" xlink:href="#DejaVuSans-30"/>
      </g>
     </g>
    </g>
   </g>
   <g id="line2d_16">
    <path clip-path="url(#p04b484aa72)" d="M 92.290909 246.202233 
L 93.768402 246.178041 
L 94.014651 245.856542 
L 94.753398 245.835382 
L 94.999647 245.904145 
L 95.245896 246.127658 
L 95.738394 246.189494 
L 99.432127 246.198906 
L 101.155869 246.229312 
L 105.095852 246.146308 
L 105.834598 246.225149 
L 106.327096 246.162153 
L 107.065843 246.200797 
L 111.252074 246.123092 
L 111.498323 246.06691 
L 111.990821 246.157348 
L 112.483319 246.036883 
L 112.729568 246.157348 
L 112.975816 246.036883 
L 113.222065 246.195151 
L 119.378288 246.108029 
L 119.870786 246.037178 
L 120.855781 246.144975 
L 121.594528 246.202167 
L 143.756929 246.128989 
L 144.249426 246.07977 
L 144.741924 246.194248 
L 145.234422 246.194248 
L 160.748102 246.106219 
L 160.994351 246.041804 
L 161.2406 246.106219 
L 161.486849 246.041804 
L 161.979347 246.236668 
L 165.426831 246.165584 
L 165.67308 245.828338 
L 165.919329 246.165584 
L 166.165578 246.165584 
L 166.411827 245.431102 
L 166.658076 245.431102 
L 166.904325 246.131195 
L 174.291792 246.228797 
L 174.538041 245.891995 
L 174.784289 245.891995 
L 175.030538 246.147595 
L 175.523036 246.239971 
L 177.00053 246.199812 
L 177.246778 246.045254 
L 177.493027 246.045254 
L 177.985525 246.210632 
L 179.463019 246.225013 
L 182.664254 246.153622 
L 182.910503 245.682853 
L 183.403001 245.682853 
L 183.64925 246.10068 
L 183.403001 246.123906 
L 184.387996 246.123906 
L 183.64925 246.161802 
L 191.282966 246.161475 
L 191.529214 245.815055 
L 191.775463 245.815055 
L 192.021712 246.193913 
L 193.006708 246.098044 
L 193.499206 245.995337 
L 193.745455 245.699848 
L 193.991703 245.583397 
L 194.237952 245.699848 
L 194.484201 246.098044 
L 194.73045 246.098044 
L 194.976699 245.969856 
L 196.700441 245.989439 
L 196.94669 245.844063 
L 197.192939 246.157269 
L 198.177935 246.088436 
L 197.685437 246.077721 
L 198.670432 245.905054 
L 199.409179 245.958636 
L 200.147926 246.117306 
L 203.349162 246.04427 
L 205.319153 245.949077 
L 205.565402 246.18988 
L 206.550397 246.213046 
L 208.027891 246.089063 
L 208.766637 246.151502 
L 209.505384 246.116171 
L 210.982877 246.204361 
L 211.229126 246.072369 
L 211.721624 246.072369 
L 211.967873 245.901401 
L 212.460371 246.180982 
L 212.952868 246.115446 
L 213.691615 246.172075 
L 214.92286 246.15361 
L 215.661606 245.911715 
L 216.154104 245.93873 
L 216.646602 246.130015 
L 219.601589 246.119256 
L 219.847838 245.961983 
L 221.325331 246.184287 
L 222.556575 246.158847 
L 223.295322 246.193623 
L 228.2203 246.22375 
L 228.466549 246.06244 
L 228.959047 246.049883 
L 229.451545 245.976294 
L 231.175287 246.083562 
L 233.145278 246.17768 
L 233.637776 246.082384 
L 236.346514 246.094936 
L 236.839011 246.184523 
L 237.824007 246.086789 
L 238.809003 246.061334 
L 242.256487 246.211884 
L 242.748985 246.107598 
L 245.211474 246.145673 
L 252.106443 246.137389 
L 252.352692 245.940053 
L 253.337688 246.050562 
L 256.538923 246.214511 
L 256.785172 246.134481 
L 257.27767 246.212955 
L 259.986408 246.203895 
L 261.217652 246.115265 
L 261.71015 246.045809 
L 262.202648 246.117602 
L 264.418888 246.016735 
L 265.157635 245.970656 
L 265.896381 246.079815 
L 268.35887 246.109642 
L 268.851368 246.050341 
L 269.836364 246.155442 
L 270.328861 246.096946 
L 271.806355 246.158233 
L 272.545102 246.102752 
L 277.223831 246.059755 
L 276.977582 246.059755 
L 277.716328 245.891466 
L 278.208826 245.891466 
L 278.701324 246.103169 
L 280.425066 246.165999 
L 283.380053 246.059171 
L 284.611297 246.04692 
L 284.857546 246.118868 
L 285.103795 245.385303 
L 285.350044 246.118868 
L 285.596293 246.118868 
L 285.842542 245.948596 
L 286.33504 245.948596 
L 286.581289 245.544234 
L 286.827538 245.804656 
L 287.320035 245.804656 
L 287.566284 246.073456 
L 289.290026 246.049084 
L 289.536275 245.953885 
L 290.028773 246.060357 
L 291.260018 246.226571 
L 293.230009 246.058609 
L 293.476258 246.065789 
L 293.722507 246.214484 
L 294.215004 246.215002 
L 294.461253 245.945361 
L 296.923742 246.055983 
L 296.677493 246.15128 
L 297.169991 245.994294 
L 297.41624 246.16886 
L 297.662489 246.16886 
L 298.154987 245.913837 
L 298.401236 246.055802 
L 298.647485 246.055802 
L 298.893733 245.913837 
L 300.617476 246.133946 
L 299.878729 246.133946 
L 300.863725 246.133946 
L 301.109974 246.010126 
L 301.356222 246.19077 
L 301.84872 246.010126 
L 302.587467 246.055442 
L 302.833716 245.987897 
L 303.326214 246.10854 
L 303.572462 246.112602 
L 304.06496 246.233412 
L 304.311209 246.23988 
L 304.557458 246.069584 
L 304.803707 246.069584 
L 305.049956 246.20571 
L 305.296205 246.069584 
L 305.542454 246.195945 
L 307.019947 246.088609 
L 307.266196 246.083058 
L 307.512445 245.87748 
L 307.758694 246.083058 
L 308.004943 245.892206 
L 308.49744 245.93517 
L 308.989938 246.132157 
L 309.728685 246.106252 
L 309.974934 245.764641 
L 310.221183 245.764641 
L 310.467432 246.106252 
L 310.71368 245.943398 
L 310.959929 246.116282 
L 313.422418 246.101527 
L 313.668667 245.885779 
L 313.914916 245.892206 
L 314.161165 246.051869 
L 314.407414 245.892206 
L 314.653663 246.051869 
L 317.362401 246.149627 
L 318.101147 246.188456 
L 318.347396 245.937637 
L 319.086143 245.937637 
L 319.578641 246.056234 
L 319.82489 245.87206 
L 321.302383 245.963477 
L 321.548632 245.707173 
L 322.04113 246.130981 
L 322.533628 246.159177 
L 322.779876 245.982969 
L 323.764872 246.090047 
L 324.25737 246.235031 
L 324.996117 246.235031 
L 325.242365 246.01965 
L 324.996117 246.01965 
L 327.704854 246.083474 
L 327.212357 246.107991 
L 328.443601 246.196289 
L 328.68985 246.076299 
L 329.182348 246.165457 
L 330.659841 246.1034 
L 331.398588 246.047965 
L 333.861077 246.141021 
L 334.846072 246.187341 
L 335.33857 246.129817 
L 337.801059 246.051134 
L 338.539806 245.975747 
L 339.77105 246.069357 
L 341.002295 246.179268 
L 341.248544 246.118753 
L 341.494793 246.179268 
L 341.741041 246.118753 
L 342.479788 246.24 
L 342.726037 246.209537 
L 342.972286 246.060946 
L 345.434775 246.132987 
L 345.681024 246.184215 
L 346.173522 246.102134 
L 347.404766 246.102134 
L 349.128508 246.217614 
L 349.621006 246.007944 
L 350.113504 246.124009 
L 351.837246 246.146196 
L 352.083495 245.914449 
L 351.837246 245.892206 
L 352.329744 245.914449 
L 352.575993 246.101522 
L 354.792233 246.152431 
L 354.053486 246.220743 
L 355.038482 246.123129 
L 355.53098 246.237862 
L 358.978464 246.130207 
L 358.239718 246.037786 
L 359.717211 246.135807 
L 360.209709 246.061265 
L 360.702207 246.105062 
L 361.194704 246.23795 
L 362.1797 246.133538 
L 362.918447 245.884842 
L 363.410944 246.060124 
L 364.149691 246.236322 
L 364.642189 246.191667 
L 364.888438 245.885779 
L 365.627184 245.925469 
L 365.873433 246.128603 
L 367.104678 246.164236 
L 367.350927 245.91265 
L 367.597176 245.91265 
L 367.843425 246.040895 
L 368.089673 246.040895 
L 367.843425 246.222707 
L 369.074669 246.160764 
L 369.567167 246.086486 
L 371.04466 246.106889 
L 371.537158 246.030298 
L 372.275905 246.225767 
L 372.768402 246.102038 
L 375.47714 246.122208 
L 375.723389 246.219394 
L 376.462136 246.102699 
L 376.954634 246.098147 
L 377.200883 246.239907 
L 377.447132 246.042004 
L 377.939629 246.127531 
L 378.432127 246.238508 
L 378.678376 246.192293 
L 378.924625 245.82262 
L 379.170874 245.82262 
L 379.663372 246.108617 
L 379.90962 246.23148 
L 380.402118 246.133153 
L 379.663372 246.108617 
L 381.633363 246.211177 
L 382.125861 245.964433 
L 382.618358 246.060597 
L 383.357105 246.060597 
L 383.603354 246.239733 
L 383.849603 246.169112 
L 384.342101 246.239793 
L 385.080847 246.11316 
L 386.558341 246.166209 
L 387.050838 246.004543 
L 387.297087 246.004543 
L 387.789585 245.839648 
L 388.035834 246.004543 
L 388.282083 245.787838 
L 390.005825 245.788993 
L 390.252074 246.091755 
L 399.363283 246.109126 
L 400.10203 245.912575 
L 400.348279 246.109126 
L 402.31827 246.212163 
L 402.810768 246.077666 
L 403.057017 246.077666 
L 403.303266 246.221266 
L 406.75075 246.130874 
L 407.489497 246.096655 
L 407.981995 246.198704 
L 409.459488 246.21036 
L 414.384466 246.205185 
L 414.876964 246.086595 
L 416.354457 246.191651 
L 418.078199 246.22548 
L 433.345631 246.120565 
L 434.084378 246.095102 
L 434.576876 246.219939 
L 435.561871 246.214717 
L 435.80812 246.088686 
L 436.546867 246.183861 
L 438.02436 246.228292 
L 439.501853 246.239111 
L 440.2406 246.103691 
L 440.733098 246.160808 
L 441.225596 246.215738 
L 445.165578 246.131762 
L 445.904325 246.235151 
L 465.604237 246.200509 
L 465.850485 246.098044 
L 467.327979 246.199926 
L 467.574228 246.098044 
L 467.820477 246.224501 
L 468.312974 246.182355 
L 470.775463 246.218838 
L 474.469197 246.207538 
L 474.715446 246.022504 
L 475.454192 246.041978 
L 475.700441 246.223816 
L 480.625419 246.131083 
L 481.117917 246.060489 
L 482.841659 246.139837 
L 483.580406 246.17273 
L 484.072904 246.099585 
L 484.81165 246.155415 
L 485.304148 246.212126 
L 486.042895 246.101319 
L 486.535393 246.163162 
L 487.027891 246.07925 
L 488.012886 246.110686 
L 488.505384 246.19521 
L 498.109091 246.238541 
L 498.109091 246.238541 
" style="fill:none;stroke:#1f77b4;stroke-linecap:square;stroke-width:1.5;"/>
   </g>
   <g id="line2d_17">
    <path clip-path="url(#p04b484aa72)" d="M 92.290909 246.091767 
L 92.290909 246.086233 
L 93.522154 246.078798 
L 94.014651 245.896236 
L 94.2609 246.05597 
L 94.014651 246.135836 
L 94.507149 246.089729 
L 94.753398 245.693145 
L 95.245896 246.003364 
L 95.738394 246.012578 
L 96.969638 246.169419 
L 99.185878 246.044943 
L 99.924625 246.12067 
L 101.155869 246.188324 
L 101.894616 246.142083 
L 102.140865 245.758529 
L 102.633363 246.071399 
L 102.879612 238.369268 
L 103.125861 242.00594 
L 103.372109 243.888118 
L 104.110856 245.698174 
L 105.095852 246.053199 
L 106.819594 246.002665 
L 108.297087 246.125765 
L 109.035834 246.099368 
L 109.282083 245.090948 
L 109.528332 245.774003 
L 110.02083 245.924415 
L 110.267079 245.992336 
L 110.513327 245.881343 
L 111.005825 246.059374 
L 111.498323 245.969603 
L 111.990821 246.069324 
L 113.468314 245.869675 
L 113.960812 245.993454 
L 114.207061 246.011006 
L 114.45331 245.543079 
L 114.945808 245.974848 
L 115.438305 245.850007 
L 115.930803 245.891081 
L 116.423301 246.054855 
L 116.915799 246.021331 
L 117.900794 245.959188 
L 118.393292 246.10866 
L 119.624537 246.045402 
L 119.870786 245.877472 
L 120.609532 246.048129 
L 121.594528 246.08844 
L 121.840777 246.140043 
L 122.087026 245.790016 
L 122.579523 246.005222 
L 122.825772 245.96303 
L 123.31827 246.094989 
L 123.564519 246.088574 
L 123.810768 241.4878 
L 124.057017 243.784979 
L 124.303266 244.982327 
L 125.288261 246.004294 
L 125.53451 246.064198 
L 125.288261 246.136071 
L 125.53451 246.09581 
L 126.519506 246.105376 
L 127.012004 245.982234 
L 127.75075 246.1293 
L 128.243248 245.976148 
L 128.735746 246.112749 
L 129.228244 246.026902 
L 129.474492 245.370806 
L 129.720741 245.795533 
L 130.213239 246.058593 
L 130.705737 246.17428 
L 130.951986 246.168507 
L 131.198235 245.823301 
L 131.690733 246.008532 
L 131.936981 245.764376 
L 132.429479 246.06545 
L 133.660724 246.118636 
L 134.153222 246.077972 
L 134.39947 245.988035 
L 134.891968 246.020111 
L 141.29444 246.053777 
L 141.540688 246.027983 
L 141.786937 245.778744 
L 142.525684 245.925166 
L 142.771933 245.618709 
L 143.264431 245.990604 
L 144.495675 246.081205 
L 145.480671 245.904774 
L 145.72692 245.988 
L 145.973169 67.024111 
L 146.219417 156.53472 
L 146.711915 221.185864 
L 146.958164 233.602198 
L 147.204413 239.774394 
L 147.450662 242.891978 
L 147.696911 244.556219 
L 147.94316 245.334541 
L 148.435658 245.854197 
L 148.928155 246.056992 
L 150.1594 246.101664 
L 150.898147 246.148365 
L 150.651898 246.040942 
L 151.144395 245.976514 
L 151.390644 246.080879 
L 151.636893 245.922377 
L 152.37564 246.111334 
L 152.868138 246.097274 
L 153.360635 246.120683 
L 153.606884 246.080453 
L 153.853133 245.804979 
L 154.345631 246.020411 
L 156.069373 246.069797 
L 156.561871 246.173088 
L 156.80812 246.011723 
L 157.300618 245.962334 
L 157.546867 245.887699 
L 158.039365 245.946678 
L 159.02436 245.902081 
L 159.270609 246.028052 
L 159.516858 245.949186 
L 160.009356 246.023046 
L 159.516858 245.934495 
L 160.255605 244.44431 
L 160.748102 245.277395 
L 160.994351 245.261315 
L 161.2406 245.549539 
L 161.486849 245.281537 
L 161.979347 245.766395 
L 162.225596 245.657024 
L 162.471845 245.684489 
L 162.718094 245.884918 
L 162.964342 245.744368 
L 163.210591 44.64 
L 163.45684 145.073102 
L 164.195587 220.413988 
L 164.441836 232.392701 
L 164.688085 232.869201 
L 164.934334 239.377021 
L 165.180583 242.002695 
L 165.67308 244.23307 
L 165.919329 243.417141 
L 166.165578 244.343345 
L 166.411827 244.430752 
L 166.904325 245.791763 
L 167.396823 245.546029 
L 167.643071 244.047873 
L 168.874316 245.885901 
L 169.120565 245.888148 
L 169.366814 245.745983 
L 169.613063 245.817066 
L 169.859312 245.696974 
L 170.351809 245.983155 
L 170.598058 245.75241 
L 171.090556 246.074357 
L 171.336805 246.0196 
L 171.583054 245.766747 
L 171.829303 245.892914 
L 172.075552 245.260642 
L 172.568049 245.506185 
L 172.814298 245.755923 
L 173.060547 245.78228 
L 173.306796 244.52729 
L 173.553045 245.136401 
L 174.045543 245.539232 
L 174.291792 245.435163 
L 174.538041 245.487036 
L 174.784289 245.839341 
L 176.015534 246.105193 
L 176.261783 245.97776 
L 176.754281 245.983028 
L 177.00053 245.663878 
L 177.246778 245.81603 
L 177.493027 245.816031 
L 177.739276 245.971925 
L 178.231774 245.835339 
L 178.478023 245.966692 
L 178.970521 245.910548 
L 179.21677 245.245461 
L 179.463019 245.604491 
L 179.709267 245.424976 
L 179.955516 245.424977 
L 180.201765 243.387015 
L 180.448014 244.697606 
L 180.694263 245.375661 
L 180.940512 241.180235 
L 181.43301 244.744797 
L 181.679259 245.427974 
L 181.925508 245.654987 
L 182.664254 245.743407 
L 182.910503 245.591697 
L 183.156752 245.676653 
L 183.64925 245.387316 
L 183.403001 245.746278 
L 183.895499 245.893504 
L 184.141748 245.68524 
L 184.387996 245.75638 
L 184.634245 240.665004 
L 183.64925 242.465131 
L 184.880494 244.327765 
L 185.126743 245.001987 
L 185.372992 245.265746 
L 185.619241 245.013546 
L 186.111739 245.524251 
L 186.357988 245.406723 
L 186.604237 245.749345 
L 186.850485 245.853375 
L 187.096734 245.305247 
L 187.342983 245.648911 
L 187.589232 245.794733 
L 188.08173 245.767072 
L 188.574228 246.072685 
L 188.820477 245.916397 
L 189.066726 245.915059 
L 189.312974 245.688293 
L 190.29797 245.841651 
L 191.529214 245.693495 
L 192.021712 246.053012 
L 192.51421 245.99922 
L 192.760459 246.019342 
L 193.006708 245.859923 
L 193.252957 244.971196 
L 193.499206 245.376416 
L 193.745455 245.230588 
L 194.237952 245.443083 
L 194.484201 244.453196 
L 194.976699 245.287259 
L 195.469197 245.347618 
L 195.715446 245.14969 
L 195.961695 245.221739 
L 196.207944 245.020284 
L 196.700441 245.423738 
L 196.94669 245.3966 
L 197.192939 245.180339 
L 197.439188 245.302039 
L 197.685437 245.178784 
L 198.177935 245.209987 
L 197.685437 245.195163 
L 198.424184 245.193225 
L 198.916681 245.697921 
L 199.16293 245.793242 
L 199.655428 245.719069 
L 200.147926 245.830939 
L 200.640424 245.865587 
L 201.132921 246.01996 
L 201.37917 245.634847 
L 202.364166 245.980375 
L 202.610415 245.716843 
L 203.102913 245.901768 
L 202.856664 245.891825 
L 204.826655 245.891392 
L 205.072904 239.618546 
L 205.319153 242.79921 
L 205.565402 244.342495 
L 205.81165 244.992079 
L 206.304148 245.076701 
L 205.81165 244.791876 
L 207.042895 245.09249 
L 207.289144 245.471672 
L 207.535393 245.51674 
L 207.781642 245.81213 
L 208.274139 245.755907 
L 209.012886 245.819086 
L 209.259135 245.81123 
L 209.505384 245.678917 
L 209.997882 245.784104 
L 210.49038 245.801635 
L 210.736628 245.506281 
L 210.982877 245.787365 
L 211.229126 245.702506 
L 212.214122 245.856256 
L 212.460371 246.009495 
L 214.676611 246.031974 
L 214.92286 245.618944 
L 215.415357 245.885566 
L 215.907855 245.866334 
L 223.541571 245.95314 
L 224.034069 246.02407 
L 225.511562 245.924901 
L 225.757811 245.675518 
L 226.00406 245.801665 
L 226.742807 245.521587 
L 226.989056 245.622711 
L 227.235305 245.572149 
L 227.481553 245.754819 
L 227.727802 245.688765 
L 227.974051 164.174212 
L 228.2203 204.964516 
L 228.466549 225.391818 
L 228.712798 235.648625 
L 228.959047 240.768479 
L 229.205296 243.069644 
L 229.451545 244.0658 
L 229.697793 244.542456 
L 229.944042 245.301322 
L 230.190291 245.537561 
L 230.43654 245.547963 
L 231.175287 245.972238 
L 231.914034 246.009171 
L 232.899029 246.022702 
L 233.145278 245.822665 
L 233.391527 245.924222 
L 233.884025 245.990044 
L 234.376523 245.817403 
L 235.854016 245.961142 
L 236.346514 245.909707 
L 236.592763 245.496356 
L 236.839011 245.773921 
L 237.08526 245.829382 
L 237.331509 245.732548 
L 237.577758 244.907508 
L 237.331509 245.328515 
L 238.070256 245.695837 
L 238.316505 245.871002 
L 238.562754 245.870962 
L 239.055252 245.698835 
L 239.547749 246.020184 
L 239.793998 245.617519 
L 240.040247 245.819255 
L 240.532745 245.797698 
L 241.025243 246.024226 
L 241.517741 246.110053 
L 241.763989 246.08497 
L 241.517741 246.09946 
L 242.010238 245.835594 
L 242.256487 245.894074 
L 242.748985 245.811758 
L 243.241483 245.943641 
L 243.733981 245.834917 
L 244.226478 245.870235 
L 244.472727 245.848199 
L 244.718976 245.998416 
L 245.211474 246.073171 
L 245.703972 245.370551 
L 246.19647 245.616883 
L 246.442718 245.538073 
L 246.688967 245.595536 
L 246.935216 244.831147 
L 247.181465 244.998393 
L 247.427714 245.515325 
L 247.673963 245.555526 
L 247.920212 245.434689 
L 248.41271 245.60185 
L 248.658959 245.747028 
L 248.905207 245.53044 
L 249.151456 245.674781 
L 249.397705 245.602611 
L 249.643954 245.654892 
L 250.136452 245.941696 
L 250.382701 245.751752 
L 250.62895 245.829731 
L 250.875199 245.644497 
L 251.367696 245.802837 
L 251.613945 245.847522 
L 251.367696 245.785271 
L 251.860194 245.552734 
L 252.352692 245.71318 
L 252.598941 245.61224 
L 252.84519 245.665061 
L 253.091439 245.517935 
L 253.337688 245.789096 
L 253.583936 245.781664 
L 253.830185 244.932096 
L 254.322683 245.506377 
L 254.568932 245.55217 
L 254.815181 245.433011 
L 255.06143 245.767359 
L 255.307679 245.585173 
L 255.553928 245.795295 
L 255.800177 243.596261 
L 256.046425 244.74102 
L 256.538923 245.692837 
L 256.785172 245.256088 
L 257.523919 245.658474 
L 257.770168 245.053877 
L 257.523919 244.841123 
L 258.508914 245.745072 
L 259.001412 245.47321 
L 259.247661 245.598392 
L 259.49391 245.594847 
L 259.986408 245.951619 
L 260.478906 245.835981 
L 261.217652 245.821995 
L 261.463901 245.567923 
L 262.202648 245.867788 
L 262.448897 245.791401 
L 262.695146 245.93206 
L 263.187643 245.841739 
L 265.403883 245.826546 
L 265.650132 245.694177 
L 265.896381 245.843951 
L 266.388879 245.6402 
L 267.127626 245.961636 
L 267.373875 238.937308 
L 267.620124 244.000652 
L 267.866372 244.853913 
L 268.112621 245.206139 
L 268.605119 245.288334 
L 269.097617 245.6761 
L 270.082613 245.668018 
L 270.328861 245.873841 
L 270.57511 245.898326 
L 271.067608 246.05933 
L 271.313857 245.606933 
L 271.560106 245.825799 
L 271.806355 245.625967 
L 272.052604 245.616424 
L 272.298853 245.751102 
L 272.545102 245.528449 
L 272.79135 245.572434 
L 273.037599 245.442343 
L 273.283848 245.69856 
L 273.530097 245.664795 
L 273.776346 244.873661 
L 274.022595 245.540747 
L 274.268844 245.716477 
L 274.761342 245.501259 
L 275.00759 245.824 
L 275.500088 244.654962 
L 275.746337 245.057113 
L 276.238835 240.87348 
L 276.731333 244.761687 
L 277.223831 245.307453 
L 276.977582 245.121789 
L 277.716328 245.301982 
L 277.962577 245.327917 
L 278.208826 245.663967 
L 278.701324 245.81855 
L 279.193822 245.853026 
L 279.440071 245.996652 
L 279.68632 245.77923 
L 279.932568 245.726459 
L 280.178817 245.942984 
L 280.425066 245.850003 
L 280.671315 245.524481 
L 281.163813 245.761187 
L 280.917564 66.910704 
L 281.656311 200.240731 
L 281.90256 222.588428 
L 282.395057 239.66976 
L 282.148808 239.9023 
L 282.887555 243.757855 
L 283.380053 244.720362 
L 284.1188 244.224206 
L 284.611297 244.439695 
L 284.857546 245.271547 
L 285.103795 244.928658 
L 285.350044 245.482663 
L 285.596293 243.473555 
L 286.088791 244.901734 
L 286.33504 245.101315 
L 286.581289 244.763196 
L 286.827538 245.050958 
L 287.566284 245.255111 
L 288.058782 245.018239 
L 288.305031 245.353968 
L 288.55128 245.406616 
L 288.797529 244.927948 
L 289.290026 245.541155 
L 289.782524 245.634336 
L 290.028773 245.890571 
L 290.275022 245.623541 
L 290.76752 245.575107 
L 291.013769 245.832344 
L 291.506267 245.832681 
L 291.752515 245.441827 
L 291.998764 245.557857 
L 292.245013 245.499843 
L 292.491262 245.064106 
L 292.98376 245.211846 
L 293.230009 245.66468 
L 293.476258 245.417911 
L 293.722507 242.744131 
L 294.215004 245.225063 
L 295.2 245.134606 
L 295.446249 245.179835 
L 295.692498 245.109114 
L 295.938747 245.582548 
L 296.184996 245.386796 
L 296.431244 245.544852 
L 296.677493 245.55333 
L 296.923742 242.314955 
L 296.677493 243.909574 
L 297.169991 244.670306 
L 297.41624 245.360786 
L 298.401236 245.268967 
L 298.647485 245.685551 
L 298.893733 245.558294 
L 299.386231 245.764739 
L 299.63248 245.477782 
L 299.878729 245.395017 
L 300.124978 245.478412 
L 300.371227 245.254262 
L 300.617476 245.672015 
L 299.878729 239.508858 
L 300.863725 242.484061 
L 301.109974 244.024639 
L 301.84872 245.00062 
L 302.341218 245.247993 
L 302.587467 245.300794 
L 303.079965 245.7949 
L 303.326214 245.679335 
L 304.06496 245.569299 
L 304.311209 245.098834 
L 304.557458 245.476107 
L 305.296205 245.401526 
L 305.542454 239.373614 
L 305.788703 242.392336 
L 306.2812 245.330105 
L 306.527449 245.325151 
L 306.773698 245.443479 
L 307.266196 245.346634 
L 307.512445 245.526904 
L 308.251192 245.469742 
L 308.49744 245.764694 
L 308.989938 245.340561 
L 309.236187 245.523867 
L 309.974934 245.364954 
L 310.221183 245.715966 
L 310.467432 245.100181 
L 310.71368 244.977822 
L 311.206178 245.312486 
L 311.452427 244.697477 
L 311.698676 245.065472 
L 312.191174 245.324463 
L 312.437423 245.194968 
L 312.683672 241.737796 
L 312.929921 243.336961 
L 313.176169 239.973778 
L 313.422418 241.008268 
L 313.668667 243.474099 
L 314.161165 245.080614 
L 314.407414 245.00837 
L 314.653663 245.386123 
L 315.39241 245.480618 
L 315.638658 245.84428 
L 316.131156 245.714365 
L 316.623654 245.451382 
L 316.131156 245.449564 
L 317.116152 245.630875 
L 317.60865 245.015368 
L 317.854898 245.290292 
L 318.101147 245.101939 
L 318.839894 245.4666 
L 319.086143 245.347348 
L 319.578641 245.377259 
L 319.82489 245.234712 
L 320.317387 245.535116 
L 320.563636 245.721783 
L 320.809885 245.576049 
L 321.056134 245.694012 
L 321.302383 245.549775 
L 321.548632 245.628474 
L 321.794881 245.854462 
L 322.04113 245.553279 
L 322.533628 245.754589 
L 322.779876 245.687475 
L 323.026125 245.79121 
L 324.25737 245.59258 
L 324.503619 245.619557 
L 324.749868 245.355862 
L 324.996117 243.936201 
L 325.488614 245.023364 
L 326.227361 245.677885 
L 326.47361 245.562327 
L 326.227361 245.456493 
L 326.719859 245.492542 
L 326.966108 245.627892 
L 327.212357 245.543578 
L 327.704854 245.625375 
L 327.212357 245.370779 
L 327.951103 215.690648 
L 328.197352 230.269919 
L 328.68985 243.868321 
L 328.936099 244.983182 
L 329.428597 245.27479 
L 329.674846 245.627404 
L 329.921094 245.665156 
L 329.428597 245.492676 
L 329.921094 245.47597 
L 330.167343 245.742084 
L 330.413592 245.657224 
L 330.659841 245.786873 
L 330.90609 245.623068 
L 331.152339 244.608865 
L 331.398588 245.1171 
L 331.644837 245.248135 
L 331.891086 245.541963 
L 332.137335 245.395428 
L 332.383583 245.585822 
L 332.629832 244.51386 
L 332.876081 245.203033 
L 333.12233 244.926156 
L 333.368579 244.994056 
L 333.614828 245.640099 
L 333.861077 245.868503 
L 334.846072 245.491803 
L 335.092321 245.786126 
L 335.584819 245.591341 
L 336.077317 245.610819 
L 336.816064 245.588937 
L 337.062312 244.835703 
L 337.308561 244.721013 
L 337.55481 245.159649 
L 337.801059 245.047887 
L 338.047308 245.365951 
L 338.786055 245.331943 
L 339.524801 245.604549 
L 340.017299 245.58774 
L 340.263548 245.795151 
L 340.756046 245.538407 
L 341.002295 245.809429 
L 341.248544 245.811886 
L 341.494793 245.944815 
L 341.741041 245.873517 
L 342.972286 245.856696 
L 343.218535 245.709252 
L 344.449779 245.637027 
L 344.942277 246.034734 
L 345.188526 245.746999 
L 344.942277 245.629954 
L 345.434775 245.531711 
L 345.681024 245.858087 
L 345.927273 245.608748 
L 346.666019 245.344095 
L 346.912268 245.452951 
L 347.158517 245.397271 
L 347.404766 245.550624 
L 347.651015 245.535016 
L 347.897264 245.366987 
L 348.143513 242.547402 
L 348.389762 243.560814 
L 348.636011 243.63335 
L 348.882259 244.8569 
L 349.128508 245.158082 
L 349.621006 245.003511 
L 350.113504 245.755049 
L 350.359753 245.850497 
L 350.606002 245.597613 
L 350.852251 245.720128 
L 351.0985 245.532429 
L 351.344748 245.691454 
L 351.590997 245.644529 
L 351.837246 245.016027 
L 352.083495 245.3616 
L 351.837246 245.534387 
L 353.068491 245.588861 
L 353.31474 245.845498 
L 354.053486 245.88295 
L 354.299735 245.680522 
L 354.053486 245.673149 
L 355.038482 245.791655 
L 355.777229 245.559779 
L 356.515975 245.904959 
L 356.762224 245.882048 
L 357.008473 245.710082 
L 357.254722 245.211963 
L 357.74722 245.655697 
L 357.993469 245.48968 
L 358.239718 245.548809 
L 358.485966 244.597435 
L 358.732215 245.067152 
L 358.978464 245.103184 
L 358.239718 244.600165 
L 359.224713 244.417803 
L 359.470962 244.257475 
L 359.717211 244.982324 
L 360.455958 245.408309 
L 360.209709 245.640314 
L 360.948455 245.599395 
L 361.194704 245.277391 
L 361.687202 245.703407 
L 361.933451 245.794125 
L 362.1797 245.472805 
L 362.425949 245.689845 
L 362.672198 245.552478 
L 362.918447 244.238088 
L 363.410944 245.516082 
L 363.903442 245.492051 
L 364.149691 244.81676 
L 364.642189 245.230499 
L 364.888438 244.11556 
L 365.134687 245.021326 
L 365.380936 245.291567 
L 365.627184 245.302709 
L 365.873433 245.480013 
L 366.119682 245.519189 
L 366.365931 245.168345 
L 367.350927 245.549071 
L 367.843425 245.945945 
L 368.335922 245.433018 
L 368.582171 245.69552 
L 368.82842 245.645862 
L 369.320918 245.790756 
L 369.567167 244.554989 
L 369.813416 244.588231 
L 370.305914 245.318414 
L 370.552162 245.770798 
L 370.798411 245.666403 
L 371.04466 245.74342 
L 371.290909 245.652614 
L 371.537158 245.377255 
L 371.783407 245.685207 
L 372.275905 245.623507 
L 372.522154 245.448351 
L 373.2609 245.523688 
L 374.738394 245.549862 
L 374.984643 245.738366 
L 375.230891 245.644114 
L 375.47714 245.91788 
L 375.723389 245.07666 
L 376.215887 245.58221 
L 376.462136 245.970969 
L 376.708385 245.72251 
L 376.954634 245.677242 
L 377.447132 245.102038 
L 377.69338 245.65499 
L 377.939629 245.484421 
L 378.185878 245.506963 
L 378.432127 245.381734 
L 378.678376 245.544454 
L 379.417123 245.312078 
L 379.663372 245.384222 
L 380.155869 245.349037 
L 380.402118 245.620621 
L 379.663372 245.478293 
L 380.648367 245.396072 
L 381.387114 245.069032 
L 381.633363 245.275738 
L 382.125861 245.028319 
L 382.372109 245.416663 
L 382.618358 245.377691 
L 382.864607 245.729071 
L 383.110856 245.541333 
L 383.849603 245.325193 
L 384.095852 245.527345 
L 384.342101 245.454006 
L 385.080847 245.557726 
L 385.327096 245.84651 
L 385.080847 245.614084 
L 385.573345 245.817573 
L 386.065843 245.613665 
L 386.312092 245.827868 
L 387.050838 245.630465 
L 387.297087 245.577126 
L 387.789585 245.078651 
L 388.035834 243.969887 
L 388.282083 217.329012 
L 388.774581 237.962587 
L 389.02083 239.614022 
L 389.267079 242.737387 
L 389.759576 244.594248 
L 390.252074 245.284278 
L 390.498323 245.283909 
L 390.990821 245.626113 
L 391.23707 245.86151 
L 391.483319 245.711659 
L 391.729568 245.354079 
L 391.975816 245.393371 
L 392.222065 245.22245 
L 392.468314 245.307909 
L 392.714563 245.550031 
L 392.960812 245.42897 
L 393.207061 245.799041 
L 394.684554 245.851667 
L 394.930803 243.689476 
L 395.177052 66.385185 
L 395.423301 156.035992 
L 395.66955 200.877021 
L 395.915799 223.305484 
L 396.162048 234.447213 
L 396.654545 242.650693 
L 396.900794 244.41996 
L 397.147043 245.2256 
L 397.393292 245.303133 
L 397.639541 245.592566 
L 397.88579 245.689101 
L 398.132039 245.935262 
L 398.378288 245.994444 
L 398.624537 245.921184 
L 398.378288 245.723929 
L 400.10203 245.783366 
L 401.087026 245.7727 
L 401.333274 245.910925 
L 401.579523 245.840407 
L 401.825772 245.968657 
L 402.564519 245.937971 
L 402.810768 245.698617 
L 403.549515 245.917868 
L 403.795763 245.493432 
L 404.042012 245.930962 
L 404.288261 245.642323 
L 404.780759 245.611518 
L 405.765755 245.661349 
L 406.012004 245.896074 
L 406.258252 245.677669 
L 406.504501 245.668226 
L 406.75075 245.890904 
L 407.243248 245.890192 
L 407.489497 246.032579 
L 407.735746 245.924939 
L 408.474492 245.932626 
L 408.720741 245.210652 
L 408.96699 245.033058 
L 409.213239 245.48252 
L 409.459488 245.445186 
L 409.705737 245.7233 
L 409.951986 245.715237 
L 410.198235 245.922569 
L 410.444484 245.66294 
L 410.936981 246.032238 
L 411.18323 245.821677 
L 411.675728 245.953518 
L 411.921977 245.706391 
L 412.168226 241.675125 
L 412.414475 243.631993 
L 412.660724 240.970677 
L 413.153222 244.58315 
L 413.645719 245.527567 
L 414.138217 245.627206 
L 415.123213 245.962872 
L 416.108208 245.90894 
L 416.600706 246.029232 
L 417.585702 246.118192 
L 418.078199 246.154676 
L 418.324448 246.073917 
L 418.570697 246.150782 
L 418.816946 245.895733 
L 419.309444 246.096238 
L 419.555693 237.163585 
L 419.801942 241.512969 
L 420.048191 243.78774 
L 420.29444 244.480953 
L 421.279435 245.953283 
L 421.771933 246.056746 
L 422.756929 246.109155 
L 423.249426 246.128477 
L 423.495675 246.150875 
L 423.741924 245.826541 
L 424.480671 246.08807 
L 425.219417 245.950238 
L 425.465666 245.584483 
L 425.958164 246.054699 
L 427.189409 246.16155 
L 430.390644 246.075229 
L 430.636893 245.705456 
L 431.868138 246.120565 
L 432.114387 245.862366 
L 434.330627 246.066466 
L 434.576876 245.687198 
L 435.069373 245.515964 
L 435.315622 245.601582 
L 435.80812 245.580329 
L 436.300618 245.98334 
L 436.546867 245.90123 
L 437.778111 246.191327 
L 438.02436 246.109987 
L 438.270609 246.149224 
L 438.516858 246.006027 
L 439.255605 246.050982 
L 439.501853 245.956906 
L 439.994351 246.062743 
L 440.2406 245.688297 
L 440.733098 245.958499 
L 444.426831 245.833679 
L 444.919329 246.088514 
L 445.411827 246.065098 
L 446.396823 246.081513 
L 447.874316 245.871882 
L 448.120565 245.665573 
L 450.336805 246.159453 
L 451.568049 246.180959 
L 451.814298 245.959033 
L 452.306796 246.121259 
L 452.799294 246.105713 
L 453.538041 245.888823 
L 454.030538 245.894074 
L 454.523036 244.379936 
L 454.769285 245.282326 
L 455.015534 245.431653 
L 455.261783 245.064367 
L 455.754281 245.445698 
L 456.00053 245.453612 
L 456.246778 245.125728 
L 456.493027 245.642251 
L 456.739276 245.699854 
L 456.985525 245.877363 
L 457.231774 245.832988 
L 458.21677 246.092297 
L 458.709267 246.043665 
L 460.186761 246.105122 
L 460.43301 245.936384 
L 460.679259 246.025364 
L 460.925508 245.980874 
L 461.171756 246.098198 
L 461.664254 245.827224 
L 461.910503 245.978256 
L 462.156752 245.876027 
L 462.64925 245.903574 
L 462.895499 245.876465 
L 463.387996 246.033215 
L 463.634245 246.08297 
L 463.880494 245.540759 
L 464.126743 245.801005 
L 465.111739 245.904484 
L 465.604237 245.517236 
L 466.096734 245.939044 
L 466.342983 245.857499 
L 466.589232 245.977772 
L 467.08173 245.929885 
L 467.327979 245.744383 
L 467.574228 245.698539 
L 467.820477 245.780684 
L 468.066726 246.002665 
L 468.559223 245.958156 
L 469.790468 245.869192 
L 470.036717 245.670921 
L 471.021712 245.958898 
L 471.267961 245.887904 
L 471.51421 245.99128 
L 471.760459 245.905577 
L 472.252957 246.015064 
L 473.237952 246.047505 
L 473.484201 245.196276 
L 473.73045 245.140215 
L 474.469197 245.941744 
L 474.715446 245.380287 
L 474.961695 245.634335 
L 475.454192 245.652546 
L 475.700441 245.889732 
L 475.94669 245.793946 
L 476.192939 245.904427 
L 476.685437 245.849188 
L 477.670432 245.85957 
L 477.916681 244.971049 
L 478.16293 245.595933 
L 478.409179 245.656738 
L 478.655428 245.938869 
L 478.901677 245.909778 
L 479.147926 245.411682 
L 479.886673 245.926424 
L 480.37917 245.971946 
L 480.871668 245.762583 
L 481.117917 245.948081 
L 481.364166 245.754944 
L 482.102913 245.879617 
L 482.59541 245.879617 
L 482.841659 245.990901 
L 483.826655 245.783324 
L 484.565402 246.073313 
L 484.81165 245.95345 
L 485.057899 246.059015 
L 485.796646 245.902146 
L 486.289144 246.103657 
L 488.012886 245.914242 
L 488.259135 245.271306 
L 488.751633 245.35769 
L 488.997882 245.367086 
L 489.244131 245.733439 
L 489.736628 245.72312 
L 490.229126 245.708602 
L 490.475375 245.951846 
L 490.967873 245.829014 
L 491.214122 245.890432 
L 491.70662 245.801684 
L 491.952868 226.485024 
L 492.199117 236.160982 
L 492.445366 240.650099 
L 492.937864 242.642057 
L 493.184113 243.103158 
L 493.430362 244.039327 
L 493.676611 242.04831 
L 493.92286 213.817453 
L 494.169109 229.011259 
L 494.415357 237.060306 
L 494.661606 235.203004 
L 495.400353 243.590565 
L 496.1391 244.921639 
L 496.385349 244.682112 
L 496.631598 244.797849 
L 497.370344 245.689458 
L 497.616593 245.556852 
L 498.109091 245.607444 
L 498.109091 245.607444 
" style="fill:none;stroke:#ff7f0e;stroke-linecap:square;stroke-width:1.5;"/>
   </g>
   <g id="patch_3">
    <path d="M 72 256.32 
L 72 34.56 
" style="fill:none;stroke:#000000;stroke-linecap:square;stroke-linejoin:miter;stroke-width:0.8;"/>
   </g>
   <g id="patch_4">
    <path d="M 518.4 256.32 
L 518.4 34.56 
" style="fill:none;stroke:#000000;stroke-linecap:square;stroke-linejoin:miter;stroke-width:0.8;"/>
   </g>
   <g id="patch_5">
    <path d="M 72 256.32 
L 518.4 256.32 
" style="fill:none;stroke:#000000;stroke-linecap:square;stroke-linejoin:miter;stroke-width:0.8;"/>
   </g>
   <g id="patch_6">
    <path d="M 72 34.56 
L 518.4 34.56 
" style="fill:none;stroke:#000000;stroke-linecap:square;stroke-linejoin:miter;stroke-width:0.8;"/>
   </g>
  </g>
 </g>
 <defs>
  <clipPath id="p04b484aa72">
   <rect height="221.76" width="446.4" x="72" y="34.56"/>
  </clipPath>
 </defs>
</svg>
