<?xml version="1.0" encoding="utf-8" standalone="no"?>
<!DOCTYPE svg PUBLIC "-//W3C//DTD SVG 1.1//EN"
  "http://www.w3.org/Graphics/SVG/1.1/DTD/svg11.dtd">
<svg height="432pt" version="1.1" viewBox="0 0 864 432" width="864pt" xmlns="http://www.w3.org/2000/svg" xmlns:xlink="http://www.w3.org/1999/xlink">
 <metadata>
  <rdf:RDF xmlns:cc="http://creativecommons.org/ns#" xmlns:dc="http://purl.org/dc/elements/1.1/" xmlns:rdf="http://www.w3.org/1999/02/22-rdf-syntax-ns#">
   <cc:Work>
    <dc:type rdf:resource="http://purl.org/dc/dcmitype/StillImage"/>
    <dc:date>2022-01-06T21:23:41.085835</dc:date>
    <dc:format>image/svg+xml</dc:format>
    <dc:creator>
     <cc:Agent>
      <dc:title>Matplotlib v3.4.3, https://matplotlib.org/</dc:title>
     </cc:Agent>
    </dc:creator>
   </cc:Work>
  </rdf:RDF>
 </metadata>
 <defs>
  <style type="text/css">*{stroke-linecap:butt;stroke-linejoin:round;}</style>
 </defs>
 <g id="figure_1">
  <g id="patch_1">
   <path d="M 0 432 
L 864 432 
L 864 0 
L 0 0 
z
" style="fill:#ffffff;"/>
  </g>
  <g id="axes_1">
   <g id="patch_2">
    <path d="M 108 384.48 
L 777.6 384.48 
L 777.6 51.84 
L 108 51.84 
z
" style="fill:#ffffff;"/>
   </g>
   <g id="matplotlib.axis_1">
    <g id="xtick_1">
     <g id="line2d_1">
      <defs>
       <path d="M 0 0 
L 0 3.5 
" id="m2790c56332" style="stroke:#000000;stroke-width:0.8;"/>
      </defs>
      <g>
       <use style="stroke:#000000;stroke-width:0.8;" x="138.436364" xlink:href="#m2790c56332" y="384.48"/>
      </g>
     </g>
     <g id="text_1">
      <!-- 39000 -->
      <g transform="translate(122.530114 399.078438)scale(0.1 -0.1)">
       <defs>
        <path d="M 2597 2516 
Q 3050 2419 3304 2112 
Q 3559 1806 3559 1356 
Q 3559 666 3084 287 
Q 2609 -91 1734 -91 
Q 1441 -91 1130 -33 
Q 819 25 488 141 
L 488 750 
Q 750 597 1062 519 
Q 1375 441 1716 441 
Q 2309 441 2620 675 
Q 2931 909 2931 1356 
Q 2931 1769 2642 2001 
Q 2353 2234 1838 2234 
L 1294 2234 
L 1294 2753 
L 1863 2753 
Q 2328 2753 2575 2939 
Q 2822 3125 2822 3475 
Q 2822 3834 2567 4026 
Q 2313 4219 1838 4219 
Q 1578 4219 1281 4162 
Q 984 4106 628 3988 
L 628 4550 
Q 988 4650 1302 4700 
Q 1616 4750 1894 4750 
Q 2613 4750 3031 4423 
Q 3450 4097 3450 3541 
Q 3450 3153 3228 2886 
Q 3006 2619 2597 2516 
z
" id="DejaVuSans-33" transform="scale(0.015625)"/>
        <path d="M 703 97 
L 703 672 
Q 941 559 1184 500 
Q 1428 441 1663 441 
Q 2288 441 2617 861 
Q 2947 1281 2994 2138 
Q 2813 1869 2534 1725 
Q 2256 1581 1919 1581 
Q 1219 1581 811 2004 
Q 403 2428 403 3163 
Q 403 3881 828 4315 
Q 1253 4750 1959 4750 
Q 2769 4750 3195 4129 
Q 3622 3509 3622 2328 
Q 3622 1225 3098 567 
Q 2575 -91 1691 -91 
Q 1453 -91 1209 -44 
Q 966 3 703 97 
z
M 1959 2075 
Q 2384 2075 2632 2365 
Q 2881 2656 2881 3163 
Q 2881 3666 2632 3958 
Q 2384 4250 1959 4250 
Q 1534 4250 1286 3958 
Q 1038 3666 1038 3163 
Q 1038 2656 1286 2365 
Q 1534 2075 1959 2075 
z
" id="DejaVuSans-39" transform="scale(0.015625)"/>
        <path d="M 2034 4250 
Q 1547 4250 1301 3770 
Q 1056 3291 1056 2328 
Q 1056 1369 1301 889 
Q 1547 409 2034 409 
Q 2525 409 2770 889 
Q 3016 1369 3016 2328 
Q 3016 3291 2770 3770 
Q 2525 4250 2034 4250 
z
M 2034 4750 
Q 2819 4750 3233 4129 
Q 3647 3509 3647 2328 
Q 3647 1150 3233 529 
Q 2819 -91 2034 -91 
Q 1250 -91 836 529 
Q 422 1150 422 2328 
Q 422 3509 836 4129 
Q 1250 4750 2034 4750 
z
" id="DejaVuSans-30" transform="scale(0.015625)"/>
       </defs>
       <use xlink:href="#DejaVuSans-33"/>
       <use x="63.623047" xlink:href="#DejaVuSans-39"/>
       <use x="127.246094" xlink:href="#DejaVuSans-30"/>
       <use x="190.869141" xlink:href="#DejaVuSans-30"/>
       <use x="254.492188" xlink:href="#DejaVuSans-30"/>
      </g>
     </g>
    </g>
    <g id="xtick_2">
     <g id="line2d_2">
      <g>
       <use style="stroke:#000000;stroke-width:0.8;" x="230.7797" xlink:href="#m2790c56332" y="384.48"/>
      </g>
     </g>
     <g id="text_2">
      <!-- 39250 -->
      <g transform="translate(214.87345 399.078438)scale(0.1 -0.1)">
       <defs>
        <path d="M 1228 531 
L 3431 531 
L 3431 0 
L 469 0 
L 469 531 
Q 828 903 1448 1529 
Q 2069 2156 2228 2338 
Q 2531 2678 2651 2914 
Q 2772 3150 2772 3378 
Q 2772 3750 2511 3984 
Q 2250 4219 1831 4219 
Q 1534 4219 1204 4116 
Q 875 4013 500 3803 
L 500 4441 
Q 881 4594 1212 4672 
Q 1544 4750 1819 4750 
Q 2544 4750 2975 4387 
Q 3406 4025 3406 3419 
Q 3406 3131 3298 2873 
Q 3191 2616 2906 2266 
Q 2828 2175 2409 1742 
Q 1991 1309 1228 531 
z
" id="DejaVuSans-32" transform="scale(0.015625)"/>
        <path d="M 691 4666 
L 3169 4666 
L 3169 4134 
L 1269 4134 
L 1269 2991 
Q 1406 3038 1543 3061 
Q 1681 3084 1819 3084 
Q 2600 3084 3056 2656 
Q 3513 2228 3513 1497 
Q 3513 744 3044 326 
Q 2575 -91 1722 -91 
Q 1428 -91 1123 -41 
Q 819 9 494 109 
L 494 744 
Q 775 591 1075 516 
Q 1375 441 1709 441 
Q 2250 441 2565 725 
Q 2881 1009 2881 1497 
Q 2881 1984 2565 2268 
Q 2250 2553 1709 2553 
Q 1456 2553 1204 2497 
Q 953 2441 691 2322 
L 691 4666 
z
" id="DejaVuSans-35" transform="scale(0.015625)"/>
       </defs>
       <use xlink:href="#DejaVuSans-33"/>
       <use x="63.623047" xlink:href="#DejaVuSans-39"/>
       <use x="127.246094" xlink:href="#DejaVuSans-32"/>
       <use x="190.869141" xlink:href="#DejaVuSans-35"/>
       <use x="254.492188" xlink:href="#DejaVuSans-30"/>
      </g>
     </g>
    </g>
    <g id="xtick_3">
     <g id="line2d_3">
      <g>
       <use style="stroke:#000000;stroke-width:0.8;" x="323.123036" xlink:href="#m2790c56332" y="384.48"/>
      </g>
     </g>
     <g id="text_3">
      <!-- 39500 -->
      <g transform="translate(307.216786 399.078438)scale(0.1 -0.1)">
       <use xlink:href="#DejaVuSans-33"/>
       <use x="63.623047" xlink:href="#DejaVuSans-39"/>
       <use x="127.246094" xlink:href="#DejaVuSans-35"/>
       <use x="190.869141" xlink:href="#DejaVuSans-30"/>
       <use x="254.492188" xlink:href="#DejaVuSans-30"/>
      </g>
     </g>
    </g>
    <g id="xtick_4">
     <g id="line2d_4">
      <g>
       <use style="stroke:#000000;stroke-width:0.8;" x="415.466372" xlink:href="#m2790c56332" y="384.48"/>
      </g>
     </g>
     <g id="text_4">
      <!-- 39750 -->
      <g transform="translate(399.560122 399.078438)scale(0.1 -0.1)">
       <defs>
        <path d="M 525 4666 
L 3525 4666 
L 3525 4397 
L 1831 0 
L 1172 0 
L 2766 4134 
L 525 4134 
L 525 4666 
z
" id="DejaVuSans-37" transform="scale(0.015625)"/>
       </defs>
       <use xlink:href="#DejaVuSans-33"/>
       <use x="63.623047" xlink:href="#DejaVuSans-39"/>
       <use x="127.246094" xlink:href="#DejaVuSans-37"/>
       <use x="190.869141" xlink:href="#DejaVuSans-35"/>
       <use x="254.492188" xlink:href="#DejaVuSans-30"/>
      </g>
     </g>
    </g>
    <g id="xtick_5">
     <g id="line2d_5">
      <g>
       <use style="stroke:#000000;stroke-width:0.8;" x="507.809709" xlink:href="#m2790c56332" y="384.48"/>
      </g>
     </g>
     <g id="text_5">
      <!-- 40000 -->
      <g transform="translate(491.903459 399.078438)scale(0.1 -0.1)">
       <defs>
        <path d="M 2419 4116 
L 825 1625 
L 2419 1625 
L 2419 4116 
z
M 2253 4666 
L 3047 4666 
L 3047 1625 
L 3713 1625 
L 3713 1100 
L 3047 1100 
L 3047 0 
L 2419 0 
L 2419 1100 
L 313 1100 
L 313 1709 
L 2253 4666 
z
" id="DejaVuSans-34" transform="scale(0.015625)"/>
       </defs>
       <use xlink:href="#DejaVuSans-34"/>
       <use x="63.623047" xlink:href="#DejaVuSans-30"/>
       <use x="127.246094" xlink:href="#DejaVuSans-30"/>
       <use x="190.869141" xlink:href="#DejaVuSans-30"/>
       <use x="254.492188" xlink:href="#DejaVuSans-30"/>
      </g>
     </g>
    </g>
    <g id="xtick_6">
     <g id="line2d_6">
      <g>
       <use style="stroke:#000000;stroke-width:0.8;" x="600.153045" xlink:href="#m2790c56332" y="384.48"/>
      </g>
     </g>
     <g id="text_6">
      <!-- 40250 -->
      <g transform="translate(584.246795 399.078438)scale(0.1 -0.1)">
       <use xlink:href="#DejaVuSans-34"/>
       <use x="63.623047" xlink:href="#DejaVuSans-30"/>
       <use x="127.246094" xlink:href="#DejaVuSans-32"/>
       <use x="190.869141" xlink:href="#DejaVuSans-35"/>
       <use x="254.492188" xlink:href="#DejaVuSans-30"/>
      </g>
     </g>
    </g>
    <g id="xtick_7">
     <g id="line2d_7">
      <g>
       <use style="stroke:#000000;stroke-width:0.8;" x="692.496381" xlink:href="#m2790c56332" y="384.48"/>
      </g>
     </g>
     <g id="text_7">
      <!-- 40500 -->
      <g transform="translate(676.590131 399.078438)scale(0.1 -0.1)">
       <use xlink:href="#DejaVuSans-34"/>
       <use x="63.623047" xlink:href="#DejaVuSans-30"/>
       <use x="127.246094" xlink:href="#DejaVuSans-35"/>
       <use x="190.869141" xlink:href="#DejaVuSans-30"/>
       <use x="254.492188" xlink:href="#DejaVuSans-30"/>
      </g>
     </g>
    </g>
   </g>
   <g id="matplotlib.axis_2">
    <g id="ytick_1">
     <g id="line2d_8">
      <defs>
       <path d="M 0 0 
L -3.5 0 
" id="m8433147ebe" style="stroke:#000000;stroke-width:0.8;"/>
      </defs>
      <g>
       <use style="stroke:#000000;stroke-width:0.8;" x="108" xlink:href="#m8433147ebe" y="344.427061"/>
      </g>
     </g>
     <g id="text_8">
      <!-- −3 -->
      <g transform="translate(86.257812 348.226279)scale(0.1 -0.1)">
       <defs>
        <path d="M 678 2272 
L 4684 2272 
L 4684 1741 
L 678 1741 
L 678 2272 
z
" id="DejaVuSans-2212" transform="scale(0.015625)"/>
       </defs>
       <use xlink:href="#DejaVuSans-2212"/>
       <use x="83.789062" xlink:href="#DejaVuSans-33"/>
      </g>
     </g>
    </g>
    <g id="ytick_2">
     <g id="line2d_9">
      <g>
       <use style="stroke:#000000;stroke-width:0.8;" x="108" xlink:href="#m8433147ebe" y="294.455315"/>
      </g>
     </g>
     <g id="text_9">
      <!-- −2 -->
      <g transform="translate(86.257812 298.254534)scale(0.1 -0.1)">
       <use xlink:href="#DejaVuSans-2212"/>
       <use x="83.789062" xlink:href="#DejaVuSans-32"/>
      </g>
     </g>
    </g>
    <g id="ytick_3">
     <g id="line2d_10">
      <g>
       <use style="stroke:#000000;stroke-width:0.8;" x="108" xlink:href="#m8433147ebe" y="244.48357"/>
      </g>
     </g>
     <g id="text_10">
      <!-- −1 -->
      <g transform="translate(86.257812 248.282789)scale(0.1 -0.1)">
       <defs>
        <path d="M 794 531 
L 1825 531 
L 1825 4091 
L 703 3866 
L 703 4441 
L 1819 4666 
L 2450 4666 
L 2450 531 
L 3481 531 
L 3481 0 
L 794 0 
L 794 531 
z
" id="DejaVuSans-31" transform="scale(0.015625)"/>
       </defs>
       <use xlink:href="#DejaVuSans-2212"/>
       <use x="83.789062" xlink:href="#DejaVuSans-31"/>
      </g>
     </g>
    </g>
    <g id="ytick_4">
     <g id="line2d_11">
      <g>
       <use style="stroke:#000000;stroke-width:0.8;" x="108" xlink:href="#m8433147ebe" y="194.511825"/>
      </g>
     </g>
     <g id="text_11">
      <!-- 0 -->
      <g transform="translate(94.6375 198.311044)scale(0.1 -0.1)">
       <use xlink:href="#DejaVuSans-30"/>
      </g>
     </g>
    </g>
    <g id="ytick_5">
     <g id="line2d_12">
      <g>
       <use style="stroke:#000000;stroke-width:0.8;" x="108" xlink:href="#m8433147ebe" y="144.54008"/>
      </g>
     </g>
     <g id="text_12">
      <!-- 1 -->
      <g transform="translate(94.6375 148.339298)scale(0.1 -0.1)">
       <use xlink:href="#DejaVuSans-31"/>
      </g>
     </g>
    </g>
    <g id="ytick_6">
     <g id="line2d_13">
      <g>
       <use style="stroke:#000000;stroke-width:0.8;" x="108" xlink:href="#m8433147ebe" y="94.568334"/>
      </g>
     </g>
     <g id="text_13">
      <!-- 2 -->
      <g transform="translate(94.6375 98.367553)scale(0.1 -0.1)">
       <use xlink:href="#DejaVuSans-32"/>
      </g>
     </g>
    </g>
   </g>
   <g id="line2d_14">
    <path clip-path="url(#pa461bd8b80)" d="M 138.436364 253.121103 
L 138.805737 252.093109 
L 138.436364 252.093109 
L 139.17511 252.093109 
L 139.544484 242.417276 
L 140.652604 242.417276 
L 141.021977 202.911633 
L 141.39135 201.746444 
L 141.021977 201.746444 
L 142.130097 201.746444 
L 142.49947 205.786866 
L 143.238217 246.838786 
L 143.60759 246.838786 
L 144.346337 242.229503 
L 145.085084 242.229503 
L 145.454457 251.534423 
L 145.823831 276.198266 
L 146.193204 276.198266 
L 146.562577 281.752109 
L 146.931951 281.752109 
L 147.670697 258.124708 
L 148.778817 258.124708 
L 149.148191 251.296941 
L 149.517564 264.086366 
L 149.886937 264.086366 
L 150.256311 270.061077 
L 150.625684 270.061077 
L 150.995057 280.258729 
L 151.733804 280.258729 
L 152.103177 267.954703 
L 152.472551 267.954703 
L 152.841924 265.026296 
L 153.211297 265.026296 
L 153.580671 274.496472 
L 153.950044 255.50704 
L 154.319417 275.401871 
L 155.058164 275.401871 
L 155.796911 234.779435 
L 156.166284 254.941445 
L 156.535658 233.463757 
L 156.905031 232.639014 
L 157.274404 233.463757 
L 157.643778 233.463757 
L 158.013151 255.089868 
L 158.382524 255.089868 
L 158.751898 273.219799 
L 159.121271 237.476048 
L 159.490644 237.476048 
L 159.860018 252.314651 
L 160.229391 252.460984 
L 160.598764 252.314651 
L 160.968138 252.314651 
L 161.337511 237.214757 
L 162.076258 237.214757 
L 162.445631 244.790226 
L 162.815004 254.764703 
L 163.184378 255.446153 
L 163.553751 255.446153 
L 163.923124 258.958983 
L 164.292498 258.202481 
L 165.031244 249.860359 
L 165.400618 248.713361 
L 165.769991 233.713617 
L 166.139365 229.385203 
L 166.508738 242.961517 
L 166.878111 228.667575 
L 167.247485 220.161903 
L 167.616858 236.179113 
L 167.986231 236.179113 
L 168.355605 220.161903 
L 168.724978 216.693458 
L 169.094351 236.179113 
L 169.463725 216.693458 
L 169.833098 249.407075 
L 170.202471 249.407075 
L 170.571845 246.260127 
L 171.310591 246.260127 
L 171.679965 235.724679 
L 172.418711 253.635568 
L 172.788085 250.567855 
L 173.896205 250.567855 
L 174.265578 250.945441 
L 174.634951 250.945441 
L 175.004325 246.336315 
L 176.112445 246.336315 
L 176.481818 243.840169 
L 177.220565 243.840169 
L 177.589938 243.125311 
L 177.959312 252.234185 
L 178.698058 252.234185 
L 179.067432 226.041271 
L 179.436805 217.085391 
L 179.806178 216.725001 
L 180.914298 216.725001 
L 181.653045 248.465939 
L 182.022418 252.508466 
L 182.391792 253.082985 
L 183.130538 253.082985 
L 183.499912 233.431663 
L 183.869285 253.082985 
L 184.238658 256.049055 
L 184.608032 246.866992 
L 184.977405 246.866992 
L 185.346778 247.209088 
L 186.454898 247.209088 
L 187.193645 251.923605 
L 187.563019 257.197852 
L 187.932392 259.320873 
L 188.301765 259.320873 
L 187.932392 259.320873 
L 188.671139 301.07229 
L 188.301765 301.07229 
L 189.040512 264.743249 
L 189.409885 264.743249 
L 189.779259 248.820612 
L 190.148632 248.820612 
L 190.518005 247.961499 
L 190.887379 295.5421 
L 191.256752 254.942104 
L 191.995499 254.942104 
L 191.626125 254.942104 
L 192.364872 247.814756 
L 193.472992 247.814756 
L 193.842365 244.130266 
L 194.581112 226.442343 
L 194.950485 226.442343 
L 195.319859 234.44694 
L 195.689232 234.817297 
L 196.058605 236.988379 
L 196.427979 261.079457 
L 196.797352 262.040544 
L 197.166726 295.941524 
L 197.536099 295.941524 
L 197.905472 289.232909 
L 198.274846 240.514991 
L 199.382966 240.514991 
L 199.752339 241.343432 
L 200.121712 252.019847 
L 200.491086 254.805556 
L 200.860459 249.978263 
L 201.229832 249.978263 
L 201.599206 266.799768 
L 201.968579 268.847931 
L 202.707326 268.847931 
L 203.076699 275.837264 
L 203.446072 275.837264 
L 204.184819 322.022303 
L 204.554192 322.022303 
L 204.923566 299.469419 
L 205.292939 295.980006 
L 205.662312 286.06586 
L 206.401059 286.06586 
L 206.031686 248.951212 
L 206.770432 248.951212 
L 207.139806 242.172003 
L 207.878553 242.172003 
L 208.247926 278.578687 
L 208.617299 278.578687 
L 208.986673 293.8919 
L 209.356046 293.8919 
L 209.725419 289.272551 
L 210.094793 259.425486 
L 210.464166 271.100138 
L 211.941659 271.100138 
L 212.311033 246.622882 
L 212.680406 237.4251 
L 213.049779 231.127342 
L 213.419153 237.4251 
L 213.788526 226.804362 
L 214.157899 226.804362 
L 214.527273 250.131019 
L 214.896646 248.847487 
L 215.266019 248.847487 
L 214.896646 229.789165 
L 215.635393 229.789165 
L 216.004766 221.835466 
L 216.374139 221.835466 
L 216.743513 244.49506 
L 217.112886 248.97629 
L 217.482259 303.898925 
L 217.851633 248.97629 
L 218.221006 248.97629 
L 218.59038 267.331549 
L 218.959753 254.265284 
L 219.329126 233.034974 
L 219.6985 230.018859 
L 220.067873 247.039404 
L 220.437246 230.018859 
L 220.80662 230.018859 
L 221.175993 247.039404 
L 221.545366 250.999111 
L 221.91474 251.546968 
L 222.284113 256.523039 
L 222.653486 305.959277 
L 223.02286 305.959277 
L 223.392233 311.030895 
L 223.761606 311.030895 
L 224.500353 265.503873 
L 224.869726 265.503873 
L 225.2391 259.581773 
L 225.608473 265.503873 
L 225.977846 300.593129 
L 226.34722 300.593129 
L 225.977846 300.593129 
L 227.085966 331.725238 
L 227.45534 331.725238 
L 227.824713 342.391818 
L 228.194086 332.838465 
L 229.67158 332.838465 
L 230.040953 330.624061 
L 230.410327 335.576812 
L 230.7797 335.576812 
L 231.149073 330.624061 
L 231.518447 335.576812 
L 231.88782 310.8946 
L 232.626567 310.8946 
L 232.99594 263.29235 
L 233.365313 263.29235 
L 233.734687 233.819614 
L 234.10406 251.14594 
L 234.473433 250.391695 
L 234.842807 250.391695 
L 235.21218 251.14594 
L 235.581553 251.14594 
L 235.950927 256.681677 
L 236.3203 244.130266 
L 236.689673 244.130266 
L 237.059047 256.681677 
L 237.42842 245.289412 
L 237.797793 267.931715 
L 238.167167 267.931715 
L 238.53654 245.289412 
L 238.905914 245.289412 
L 239.275287 244.130266 
L 239.64466 244.130266 
L 240.014034 245.550701 
L 239.275287 245.550701 
L 240.383407 225.745954 
L 241.122154 225.745954 
L 241.491527 217.225181 
L 241.8609 225.745954 
L 242.230274 217.225181 
L 242.599647 233.693941 
L 242.96902 304.776564 
L 243.338394 304.776564 
L 243.707767 249.233632 
L 244.815887 249.184408 
L 245.18526 260.472733 
L 245.554634 260.472733 
L 245.924007 275.239367 
L 246.29338 281.011968 
L 246.662754 363.57152 
L 247.032127 290.118085 
L 247.770874 290.118085 
L 248.50962 201.372057 
L 248.878994 238.452103 
L 249.248367 238.452103 
L 249.617741 186.717344 
L 249.987114 186.717344 
L 250.356487 230.224037 
L 250.725861 231.274572 
L 251.095234 313.942925 
L 251.464607 277.773988 
L 251.833981 316.337986 
L 252.203354 277.773988 
L 252.572727 326.42304 
L 252.942101 277.773988 
L 253.311474 326.42304 
L 253.680847 249.31037 
L 254.050221 291.111006 
L 254.788967 291.111006 
L 255.158341 252.857813 
L 255.527714 252.857813 
L 255.897087 225.976786 
L 256.266461 225.976786 
L 256.635834 252.857813 
L 257.005207 267.588898 
L 257.743954 325.26987 
L 258.113327 310.256533 
L 258.482701 310.256533 
L 258.852074 310.133918 
L 259.221447 298.353224 
L 259.960194 298.353224 
L 260.329568 318.700066 
L 260.698941 318.700066 
L 261.068314 274.457846 
L 261.437688 279.253898 
L 261.807061 205.016058 
L 262.176434 205.016058 
L 262.545808 233.763375 
L 262.915181 279.253898 
L 263.284554 366.080224 
L 263.653928 327.608733 
L 264.023301 327.608733 
L 264.392674 285.854249 
L 264.762048 265.069578 
L 265.131421 251.778884 
L 265.500794 251.778884 
L 265.870168 217.60603 
L 266.239541 217.60603 
L 266.978288 258.550703 
L 267.347661 279.200764 
L 267.717034 283.900341 
L 268.825154 283.900341 
L 269.194528 273.024597 
L 269.563901 273.024597 
L 269.933274 320.173764 
L 270.302648 273.024597 
L 270.672021 320.173764 
L 271.410768 320.173764 
L 271.780141 316.598242 
L 272.518888 316.598242 
L 272.888261 309.730947 
L 273.257635 235.224153 
L 273.996381 235.224153 
L 274.365755 194.806806 
L 275.104501 194.806806 
L 275.473875 224.866749 
L 275.104501 228.819027 
L 275.843248 228.819027 
L 276.212621 224.866749 
L 276.581995 228.819027 
L 276.951368 228.819027 
L 275.473875 237.378745 
L 277.320741 249.268012 
L 277.690115 249.268012 
L 278.059488 249.491685 
L 278.428861 249.491685 
L 278.798235 242.913719 
L 279.167608 225.203986 
L 279.906355 225.203986 
L 280.275728 250.192084 
L 280.645102 260.027726 
L 281.014475 273.716764 
L 281.383848 273.563879 
L 281.753222 249.914917 
L 283.230715 249.853945 
L 283.600088 239.50345 
L 284.338835 269.18061 
L 284.708208 254.14227 
L 285.446955 254.14227 
L 285.816328 264.469445 
L 286.185702 237.288377 
L 286.555075 264.469445 
L 286.924448 237.288377 
L 287.293822 200.683139 
L 287.663195 200.683139 
L 288.032568 248.818549 
L 288.771315 248.818549 
L 289.140688 246.129359 
L 289.510062 224.460456 
L 289.879435 220.056066 
L 290.248808 212.657906 
L 290.618182 195.478883 
L 290.987555 191.243222 
L 291.356929 195.478883 
L 291.726302 224.460456 
L 292.095675 224.460456 
L 292.465049 210.509225 
L 292.834422 210.509225 
L 293.203795 216.294715 
L 293.573169 212.141275 
L 295.050662 212.141275 
L 295.420035 202.216939 
L 295.789409 236.158527 
L 296.158782 236.158527 
L 296.528155 240.803614 
L 296.897529 240.803614 
L 297.266902 223.040795 
L 296.528155 221.560047 
L 297.636275 205.845656 
L 298.375022 205.845656 
L 298.744395 209.626611 
L 299.113769 209.626611 
L 299.483142 216.620544 
L 299.852515 227.134639 
L 300.591262 228.130459 
L 300.960635 231.075493 
L 301.330009 231.075493 
L 301.699382 236.403729 
L 302.068756 251.42056 
L 302.438129 251.42056 
L 302.807502 262.084342 
L 303.176876 251.42056 
L 303.546249 236.083265 
L 303.915622 229.59937 
L 304.284996 218.407916 
L 304.654369 218.407916 
L 304.284996 218.407916 
L 305.023742 217.496668 
L 305.393116 217.496668 
L 305.762489 218.92096 
L 306.870609 218.92096 
L 307.239982 208.902021 
L 307.978729 208.902021 
L 308.348102 247.004625 
L 308.717476 260.400446 
L 309.086849 264.093521 
L 309.456222 260.400446 
L 308.717476 263.447361 
L 309.825596 260.400446 
L 310.194969 244.648687 
L 310.564342 241.051019 
L 310.933716 241.051019 
L 311.303089 229.391233 
L 311.672462 229.391233 
L 312.041836 223.130765 
L 312.780583 234.699103 
L 313.149956 234.699103 
L 313.519329 227.421402 
L 313.888703 229.725012 
L 314.258076 227.421402 
L 314.627449 229.725012 
L 314.996823 250.151354 
L 315.366196 254.373515 
L 315.735569 254.373515 
L 316.104943 253.814338 
L 316.474316 254.373515 
L 316.843689 220.856646 
L 317.582436 220.856646 
L 317.951809 205.610396 
L 318.321183 219.276266 
L 318.690556 243.469851 
L 319.059929 227.294765 
L 319.429303 227.294765 
L 319.798676 240.427822 
L 320.537423 240.427822 
L 320.906796 241.151622 
L 322.014916 241.151622 
L 322.384289 235.221216 
L 322.753663 216.350585 
L 323.123036 206.281405 
L 323.861783 206.281405 
L 324.231156 208.144033 
L 324.969903 229.990398 
L 325.339276 229.990398 
L 325.70865 238.416181 
L 326.078023 229.990398 
L 326.447396 234.57678 
L 326.81677 234.238748 
L 327.555516 234.238748 
L 327.92489 234.57678 
L 328.294263 234.238748 
L 328.663636 244.508975 
L 329.03301 244.508975 
L 329.771756 209.886159 
L 330.14113 213.775236 
L 329.771756 213.775236 
L 330.510503 213.775236 
L 330.879876 242.821589 
L 331.24925 244.716587 
L 331.987996 244.716587 
L 332.35737 236.833622 
L 332.726743 234.067798 
L 333.096117 234.067798 
L 333.46549 236.57557 
L 333.834863 236.57557 
L 334.204237 250.073292 
L 334.57361 250.073292 
L 334.942983 248.682854 
L 335.312357 248.682854 
L 335.68173 239.872306 
L 336.051103 240.074878 
L 336.420477 240.074878 
L 336.78985 243.665126 
L 337.159223 252.972062 
L 337.528597 255.774018 
L 337.89797 255.774018 
L 338.267343 256.650702 
L 338.636717 262.287165 
L 339.00609 262.287165 
L 339.375463 277.241316 
L 339.744837 277.241316 
L 340.11421 237.62466 
L 340.483583 234.082429 
L 340.852957 228.244352 
L 341.22233 234.082429 
L 341.591703 226.222295 
L 341.961077 280.624371 
L 342.33045 271.288225 
L 342.699823 219.609084 
L 343.069197 221.455657 
L 343.43857 218.127632 
L 343.807944 211.032347 
L 345.285437 211.032347 
L 345.65481 222.354793 
L 346.76293 222.354793 
L 347.132304 224.24514 
L 347.501677 228.75915 
L 347.87105 228.75915 
L 348.240424 242.291832 
L 348.609797 242.291832 
L 348.97917 262.202218 
L 349.348544 242.291832 
L 349.717917 242.291832 
L 350.08729 222.192122 
L 350.456664 222.192122 
L 350.826037 221.18962 
L 351.19541 222.192122 
L 351.564784 232.02848 
L 351.934157 232.02848 
L 352.30353 221.18962 
L 352.672904 219.831934 
L 353.41165 219.831934 
L 353.781024 223.990969 
L 354.519771 223.990969 
L 354.889144 238.410027 
L 355.258517 244.8085 
L 355.997264 244.8085 
L 356.366637 240.299141 
L 355.997264 238.436403 
L 356.736011 222.806547 
L 357.105384 219.474485 
L 357.474757 217.201779 
L 357.844131 217.201779 
L 358.213504 219.474485 
L 358.582877 220.977082 
L 358.952251 224.366606 
L 359.321624 224.366606 
L 360.060371 230.392168 
L 360.429744 231.065525 
L 360.799117 231.065525 
L 361.168491 237.474609 
L 361.537864 238.194794 
L 361.907237 247.579791 
L 362.276611 261.72284 
L 362.645984 261.72284 
L 362.276611 264.177417 
L 363.015357 264.177417 
L 363.384731 259.490109 
L 363.754104 225.995796 
L 364.123477 225.970509 
L 364.492851 224.888471 
L 364.862224 224.888471 
L 365.231598 223.371099 
L 365.600971 213.839152 
L 365.970344 223.110093 
L 366.339718 213.839152 
L 366.709091 213.839152 
L 367.078464 223.110093 
L 367.447838 225.094149 
L 367.817211 233.317381 
L 368.555958 233.317381 
L 368.925331 227.402832 
L 369.294704 224.322873 
L 370.402824 224.322873 
L 370.772198 226.829694 
L 372.249691 226.829694 
L 372.619064 225.107018 
L 372.988438 225.723355 
L 373.357811 225.723355 
L 373.727184 233.417777 
L 374.096558 225.723355 
L 374.465931 227.410151 
L 375.204678 256.517929 
L 375.574051 227.410151 
L 375.943425 256.517929 
L 376.312798 267.457195 
L 377.051545 267.403189 
L 377.420918 238.420054 
L 377.051545 238.420054 
L 377.790291 231.494045 
L 378.159665 231.494045 
L 378.529038 208.239474 
L 379.267785 208.239474 
L 380.006531 218.205175 
L 380.375905 220.268108 
L 380.745278 224.431731 
L 381.114651 243.116579 
L 381.484025 243.116579 
L 381.853398 224.431731 
L 382.222771 231.659806 
L 382.961518 231.659806 
L 383.330891 259.888314 
L 383.700265 262.486258 
L 384.439011 262.486258 
L 384.808385 261.604735 
L 385.177758 230.888407 
L 385.547132 260.327672 
L 385.916505 260.327672 
L 386.285878 253.364695 
L 386.655252 253.364695 
L 386.285878 250.537164 
L 387.024625 244.464106 
L 387.393998 244.464106 
L 387.763372 243.603414 
L 388.132745 243.603414 
L 388.502118 220.701272 
L 388.871492 243.603414 
L 389.240865 254.370939 
L 389.610238 254.370939 
L 389.979612 254.093059 
L 390.348985 254.093059 
L 390.718358 237.996878 
L 391.087732 227.263409 
L 391.826478 227.263409 
L 392.195852 217.66782 
L 392.565225 217.66782 
L 392.934598 227.334021 
L 393.303972 227.673281 
L 393.673345 227.334021 
L 394.412092 227.334021 
L 394.781465 232.331838 
L 395.150838 225.607303 
L 395.520212 225.607303 
L 395.889585 223.285264 
L 396.258959 223.285264 
L 396.628332 214.642594 
L 396.997705 211.032347 
L 397.367079 210.573563 
L 398.105825 210.573563 
L 398.475199 218.191716 
L 398.844572 221.841565 
L 399.213945 223.553177 
L 399.583319 221.841565 
L 399.952692 223.553177 
L 400.322065 223.553177 
L 400.691439 234.011955 
L 401.060812 234.789539 
L 401.799559 259.920736 
L 402.168932 259.920736 
L 402.538305 226.307674 
L 402.907679 218.17984 
L 403.277052 218.17984 
L 403.646425 225.264662 
L 403.277052 225.264662 
L 404.385172 225.264662 
L 404.754545 235.685408 
L 405.123919 224.293398 
L 405.493292 224.293398 
L 405.862665 228.277189 
L 406.232039 235.685408 
L 406.601412 236.412331 
L 406.970786 236.412331 
L 407.340159 228.277189 
L 407.709532 236.412331 
L 408.078906 225.191453 
L 408.817652 225.191453 
L 409.187026 225.318037 
L 409.556399 225.191453 
L 409.925772 225.318037 
L 410.295146 219.283922 
L 410.664519 225.318037 
L 411.033892 233.355772 
L 411.403266 218.316267 
L 411.772639 230.682756 
L 412.142012 219.471197 
L 412.511386 219.471197 
L 412.880759 235.397797 
L 413.250132 235.397797 
L 413.619506 243.080813 
L 413.988879 243.080813 
L 414.358252 222.040231 
L 414.727626 219.283679 
L 415.096999 222.040231 
L 415.466372 219.283679 
L 415.835746 219.283679 
L 415.466372 219.283679 
L 416.205119 206.201185 
L 416.574492 204.983086 
L 417.313239 204.983086 
L 417.682613 217.486254 
L 418.051986 225.257444 
L 418.421359 229.449972 
L 418.790733 245.499383 
L 419.160106 245.499383 
L 419.529479 238.681212 
L 419.898853 237.638564 
L 420.268226 238.681212 
L 421.006973 238.573226 
L 421.376346 220.086663 
L 421.745719 236.352176 
L 421.376346 236.352176 
L 422.115093 222.911853 
L 422.484466 222.911853 
L 422.853839 224.522436 
L 423.592586 224.522436 
L 423.223213 244.808321 
L 424.331333 244.808321 
L 424.700706 219.213596 
L 425.070079 219.213596 
L 425.439453 217.792288 
L 425.808826 219.213596 
L 426.178199 217.792288 
L 426.916946 217.792288 
L 427.28632 227.898591 
L 427.655693 185.52235 
L 428.025066 227.898591 
L 428.39444 227.898591 
L 428.763813 208.866169 
L 429.50256 208.866169 
L 429.871933 189.986223 
L 430.241306 200.158694 
L 430.980053 200.158694 
L 431.349426 220.997713 
L 431.7188 220.997713 
L 432.088173 229.382513 
L 432.457546 224.065203 
L 432.82692 220.997713 
L 433.196293 219.406762 
L 433.565666 219.406762 
L 433.93504 218.036644 
L 434.304413 209.263471 
L 434.673786 218.036644 
L 435.04316 219.356248 
L 435.412533 225.094149 
L 435.781906 262.182416 
L 436.520653 262.182416 
L 436.890026 275.376803 
L 437.2594 248.572952 
L 437.998147 248.572952 
L 438.36752 223.290061 
L 438.736893 220.56606 
L 439.106267 220.021946 
L 439.47564 219.146229 
L 439.845013 219.146229 
L 440.214387 220.021946 
L 440.58376 261.58181 
L 440.953133 261.58181 
L 441.322507 262.023781 
L 441.69188 208.626702 
L 442.061253 208.626702 
L 442.430627 210.9665 
L 443.169373 210.9665 
L 443.538747 213.568429 
L 443.90812 213.568429 
L 444.277493 218.834615 
L 444.646867 213.568429 
L 445.01624 213.568429 
L 445.385613 218.834615 
L 445.01624 234.644787 
L 445.754987 212.565577 
L 446.12436 239.4266 
L 446.493733 239.4266 
L 446.863107 218.813315 
L 447.23248 206.422061 
L 447.601853 218.813315 
L 447.971227 218.813315 
L 448.3406 206.422061 
L 448.709974 209.572653 
L 449.079347 217.126007 
L 449.818094 217.126007 
L 450.187467 225.049007 
L 450.55684 225.049007 
L 450.926214 230.778941 
L 449.818094 230.778941 
L 451.295587 230.778941 
L 451.66496 214.010038 
L 452.034334 247.392052 
L 452.403707 218.771021 
L 452.77308 214.010038 
L 453.142454 218.771021 
L 453.8812 218.771021 
L 454.250574 212.008248 
L 454.619947 224.529197 
L 454.98932 226.125359 
L 455.358694 226.805466 
L 455.728067 290.536751 
L 456.09744 290.536751 
L 456.466814 358.256835 
L 456.836187 220.499463 
L 457.20556 220.499463 
L 457.574934 255.206716 
L 457.944307 220.499463 
L 458.31368 249.793535 
L 458.683054 249.793535 
L 459.052427 223.553686 
L 459.421801 225.099674 
L 459.791174 223.553686 
L 460.160547 223.553686 
L 460.529921 223.065538 
L 460.899294 222.285047 
L 461.268667 204.129681 
L 461.638041 222.285047 
L 462.007414 205.029217 
L 462.376787 205.029217 
L 462.746161 207.889246 
L 463.115534 223.148523 
L 463.484907 230.416511 
L 464.223654 230.416511 
L 464.593027 225.751401 
L 464.962401 198.251029 
L 465.331774 198.251029 
L 465.701147 225.751401 
L 466.070521 208.482735 
L 466.439894 227.44067 
L 466.809267 227.44067 
L 467.178641 217.760627 
L 468.286761 217.760627 
L 468.656134 217.126007 
L 469.025508 223.015649 
L 469.394881 223.242654 
L 469.764254 217.126007 
L 470.133628 224.998816 
L 470.503001 204.632037 
L 470.872374 205.029217 
L 471.241748 218.355223 
L 471.611121 205.029217 
L 471.980494 218.355223 
L 472.349868 218.355223 
L 472.719241 217.201377 
L 473.088614 208.583765 
L 473.457988 217.201377 
L 474.196734 217.201377 
L 474.566108 224.953717 
L 474.935481 225.094149 
L 474.196734 224.953717 
L 475.304854 223.085526 
L 475.674228 225.094149 
L 476.043601 234.245042 
L 476.412974 246.398963 
L 477.151721 246.398963 
L 477.521094 208.065469 
L 478.629214 208.065469 
L 478.998588 218.864284 
L 479.367961 218.864284 
L 479.737335 203.807748 
L 480.106708 203.807748 
L 480.476081 204.574699 
L 481.214828 204.574699 
L 481.584201 210.003018 
L 481.953575 210.003018 
L 482.322948 195.775111 
L 482.692321 210.003018 
L 483.061695 230.18146 
L 483.431068 230.18146 
L 483.800441 236.663787 
L 484.169815 211.588359 
L 484.539188 211.588359 
L 484.908561 223.2725 
L 485.647308 223.2725 
L 486.386055 296.471381 
L 487.494175 296.471381 
L 487.863548 214.927558 
L 487.494175 214.927558 
L 488.232921 216.488369 
L 488.971668 216.488369 
L 489.341041 226.166977 
L 489.710415 223.544582 
L 489.341041 223.544582 
L 490.079788 223.544582 
L 490.449162 216.37007 
L 491.187908 216.37007 
L 491.557282 222.342577 
L 490.818535 226.035015 
L 491.926655 277.767956 
L 492.296028 249.962609 
L 492.665402 249.962609 
L 493.034775 221.370936 
L 493.404148 238.415199 
L 494.142895 238.415199 
L 494.512268 242.006915 
L 494.881642 238.415199 
L 494.142895 242.006915 
L 494.881642 219.285065 
L 495.251015 225.293968 
L 495.620388 219.285065 
L 495.989762 225.293968 
L 496.359135 217.90994 
L 496.728508 222.162226 
L 497.097882 217.90994 
L 497.836628 217.90994 
L 498.206002 220.298896 
L 498.575375 220.298896 
L 498.944748 225.361907 
L 499.314122 225.361907 
L 499.683495 232.274632 
L 500.052868 232.274632 
L 500.422242 225.094149 
L 501.160989 239.788382 
L 501.530362 225.094149 
L 501.899735 245.936014 
L 502.269109 245.936014 
L 502.638482 229.951452 
L 503.377229 229.951452 
L 503.746602 228.964304 
L 504.115975 229.951452 
L 504.485349 233.887454 
L 505.593469 233.887454 
L 505.962842 303.480202 
L 506.332215 303.480202 
L 506.701589 218.27072 
L 507.070962 213.140121 
L 507.440335 213.140121 
L 507.809709 210.987368 
L 508.179082 210.987368 
L 508.917829 219.298257 
L 509.287202 219.298257 
L 509.656575 220.470603 
L 510.025949 224.858555 
L 510.395322 354.662231 
L 510.764695 354.662231 
L 511.134069 308.515057 
L 511.503442 242.850313 
L 511.872816 227.877905 
L 512.242189 242.850313 
L 512.611562 227.877905 
L 512.980936 246.583463 
L 513.350309 369.36 
L 513.719682 369.36 
L 514.089056 257.760743 
L 514.458429 219.427486 
L 515.197176 219.427486 
L 515.566549 223.107724 
L 516.674669 223.107724 
L 517.044042 230.583895 
L 517.413416 234.26052 
L 517.782789 230.583895 
L 517.413416 230.583895 
L 518.152162 230.583895 
L 518.521536 244.688433 
L 518.890909 225.180086 
L 519.260282 225.094149 
L 519.629656 222.400789 
L 520.737776 222.400789 
L 521.107149 225.094149 
L 521.476523 229.977738 
L 521.845896 230.469013 
L 522.215269 312.365601 
L 522.584643 312.365601 
L 522.954016 264.401232 
L 523.323389 355.253283 
L 523.692763 264.401232 
L 524.062136 228.838237 
L 524.431509 213.805166 
L 524.800883 228.838237 
L 525.170256 228.838237 
L 525.539629 229.833298 
L 525.909003 230.366668 
L 526.278376 230.398323 
L 526.647749 233.437933 
L 527.755869 233.437933 
L 528.125243 206.462798 
L 527.755869 205.029217 
L 528.494616 206.462798 
L 528.863989 224.998034 
L 530.710856 225.094149 
L 531.080229 234.927803 
L 532.18835 234.927803 
L 531.080229 267.641083 
L 532.557723 228.674466 
L 532.927096 325.733424 
L 533.29647 313.796377 
L 533.665843 282.400952 
L 534.40459 282.400952 
L 534.773963 257.087366 
L 535.143336 257.087366 
L 535.51271 232.678102 
L 535.882083 232.678102 
L 536.251456 230.027764 
L 536.62083 234.510812 
L 536.990203 234.510812 
L 537.359576 230.028318 
L 537.72895 234.510812 
L 538.098323 230.028318 
L 538.467696 230.028318 
L 537.359576 216.790084 
L 538.83707 231.162418 
L 539.575816 231.162418 
L 539.94519 219.466072 
L 540.683936 219.466072 
L 540.314563 219.466072 
L 540.683936 225.559292 
L 541.05331 225.559292 
L 541.792056 314.636722 
L 542.16143 314.636722 
L 542.530803 282.787609 
L 542.900177 282.787609 
L 543.26955 230.695775 
L 544.008297 204.574699 
L 544.37767 204.574699 
L 544.747043 215.162161 
L 545.116417 219.328165 
L 545.48579 229.660732 
L 545.855163 247.790008 
L 546.224537 302.736335 
L 546.59391 247.790008 
L 546.963283 247.790008 
L 547.332657 204.632037 
L 547.70203 204.632037 
L 548.071403 204.961465 
L 548.440777 207.209699 
L 548.81015 229.713943 
L 549.179523 229.713943 
L 549.548897 232.197366 
L 549.91827 238.06351 
L 550.657017 238.06351 
L 551.02639 206.343236 
L 551.395763 206.343236 
L 551.765137 217.126007 
L 552.13451 217.126007 
L 551.765137 269.952074 
L 552.503883 269.952074 
L 552.873257 250.611932 
L 553.612004 237.093247 
L 553.981377 222.763798 
L 554.35075 222.763798 
L 554.720124 225.293968 
L 555.089497 225.854757 
L 555.45887 273.82808 
L 555.828244 270.589862 
L 556.197617 225.854757 
L 556.56699 225.854757 
L 556.936364 216.001611 
L 557.305737 216.001611 
L 557.67511 225.094149 
L 558.044484 274.131529 
L 558.413857 274.131529 
L 558.78323 225.094149 
L 559.521977 225.078923 
L 559.89135 214.53427 
L 560.260724 225.078923 
L 560.630097 229.227035 
L 560.99947 223.379171 
L 561.368844 223.379171 
L 561.738217 218.61139 
L 562.476964 218.61139 
L 562.846337 217.649162 
L 563.215711 228.504344 
L 563.585084 266.184435 
L 563.954457 235.973446 
L 564.323831 235.973446 
L 564.693204 225.18315 
L 565.062577 225.094149 
L 565.431951 224.476144 
L 565.801324 360.288235 
L 566.170697 217.247074 
L 566.540071 217.247074 
L 566.909444 229.506504 
L 567.278817 320.888472 
L 567.648191 320.888472 
L 568.017564 248.071737 
L 568.386937 201.072841 
L 568.756311 201.072841 
L 569.495057 226.137961 
L 569.864431 285.086447 
L 570.233804 230.61757 
L 570.603177 230.61757 
L 569.495057 226.137961 
L 570.972551 225.009194 
L 571.711297 225.009194 
L 572.080671 219.850103 
L 572.450044 258.954719 
L 572.819417 219.307841 
L 573.188791 210.07814 
L 573.558164 219.307841 
L 574.296911 219.385209 
L 575.035658 219.385209 
L 575.405031 349.539723 
L 575.774404 239.50345 
L 576.143778 368.313603 
L 576.513151 352.685932 
L 576.882524 239.50345 
L 577.251898 230.700959 
L 577.621271 226.900733 
L 577.990644 230.700959 
L 577.621271 230.700959 
L 578.360018 251.251207 
L 579.098764 251.251207 
L 579.468138 238.634541 
L 579.837511 238.634541 
L 580.206884 216.975532 
L 580.576258 213.489639 
L 580.945631 213.489639 
L 581.315004 205.029217 
L 581.684378 201.976403 
L 582.053751 213.489639 
L 582.423124 199.336402 
L 582.792498 199.336402 
L 583.161871 200.85838 
L 583.531244 195.775111 
L 583.900618 195.775111 
L 584.269991 197.064929 
L 584.639365 199.3919 
L 585.008738 199.3919 
L 585.378111 223.520736 
L 585.747485 224.020355 
L 586.116858 225.293968 
L 586.486231 224.020355 
L 587.224978 224.020355 
L 587.594351 227.220252 
L 587.963725 223.321491 
L 588.333098 227.220252 
L 588.702471 221.667358 
L 589.071845 227.220252 
L 589.441218 239.50345 
L 590.918711 239.50345 
L 591.288085 226.398853 
L 591.657458 226.398853 
L 592.026831 240.915346 
L 592.396205 240.915346 
L 592.765578 241.095868 
L 593.134951 241.095868 
L 593.504325 239.276338 
L 593.873698 232.323572 
L 594.612445 232.323572 
L 594.981818 233.158395 
L 595.720565 239.394392 
L 596.089938 236.814739 
L 596.459312 236.814739 
L 596.828685 233.602576 
L 597.567432 233.602576 
L 597.936805 243.798397 
L 597.567432 253.016431 
L 597.936805 253.016431 
L 598.306178 255.801271 
L 598.675552 243.798397 
L 599.044925 226.222115 
L 599.414298 219.903001 
L 599.783672 206.338305 
L 600.153045 206.338305 
L 600.522418 226.222115 
L 600.891792 228.598119 
L 602.369285 228.598119 
L 602.738658 259.705062 
L 603.477405 259.705062 
L 603.846778 222.625125 
L 604.216152 221.552761 
L 604.585525 221.552761 
L 604.954898 268.232608 
L 605.324272 268.232608 
L 605.693645 249.805873 
L 606.063019 254.138274 
L 606.432392 254.138274 
L 606.801765 266.269127 
L 607.171139 267.158437 
L 607.540512 284.046341 
L 607.909885 230.005204 
L 608.648632 230.005204 
L 609.018005 230.16025 
L 609.756752 228.541295 
L 610.126125 230.16025 
L 610.495499 224.241162 
L 611.234245 224.249304 
L 611.603619 251.190875 
L 611.972992 251.190875 
L 612.342365 263.21381 
L 612.711739 259.090333 
L 613.819859 259.090333 
L 614.189232 258.35143 
L 614.558605 258.35143 
L 614.927979 239.617598 
L 615.666726 239.56788 
L 616.036099 236.468639 
L 616.405472 236.468639 
L 616.774846 259.772751 
L 617.144219 259.772751 
L 617.513592 260.562763 
L 617.882966 264.903377 
L 618.252339 264.903377 
L 618.621712 269.876363 
L 618.991086 269.876363 
L 619.360459 266.674842 
L 619.729832 258.358177 
L 620.099206 254.892879 
L 620.468579 254.892879 
L 620.837952 256.358773 
L 621.207326 256.358773 
L 621.576699 254.878781 
L 621.946072 222.779088 
L 622.684819 222.779088 
L 623.054192 232.446741 
L 623.423566 232.446741 
L 624.162312 245.840171 
L 624.531686 247.782762 
L 624.901059 258.408741 
L 625.270432 260.704326 
L 625.639806 277.018545 
L 626.009179 277.018545 
L 626.378553 369.36 
L 626.747926 275.127939 
L 627.117299 273.703242 
L 627.486673 273.703242 
L 627.856046 269.693655 
L 628.225419 270.592126 
L 628.594793 283.989847 
L 628.964166 283.613421 
L 629.333539 283.989847 
L 629.702913 283.613421 
L 630.072286 275.560913 
L 630.441659 244.150048 
L 630.811033 275.560913 
L 631.180406 254.581813 
L 631.549779 255.801271 
L 632.657899 255.801271 
L 633.027273 239.640806 
L 633.766019 239.640806 
L 634.135393 272.420079 
L 634.504766 274.597598 
L 634.874139 274.880229 
L 635.243513 281.171028 
L 635.612886 281.171028 
L 635.982259 270.277585 
L 637.09038 270.277585 
L 637.459753 274.554971 
L 637.829126 276.797284 
L 638.1985 280.513334 
L 638.567873 333.121203 
L 638.937246 333.121203 
L 639.30662 313.645463 
L 639.675993 353.004765 
L 640.045366 324.08097 
L 640.41474 313.645463 
L 640.784113 265.034673 
L 641.153486 238.241625 
L 641.52286 236.723873 
L 641.892233 236.723873 
L 642.261606 235.224836 
L 642.63098 235.224836 
L 643.369726 300.644735 
L 643.7391 271.452539 
L 644.108473 271.452539 
L 644.477846 243.061974 
L 644.84722 240.398638 
L 645.216593 240.398638 
L 645.585966 243.061974 
L 645.95534 264.730277 
L 646.324713 313.954143 
L 647.06346 313.954143 
L 647.432833 262.606396 
L 647.802207 262.606396 
L 648.17158 270.725545 
L 648.910327 270.725545 
L 649.2797 228.204235 
L 650.018447 228.204235 
L 650.38782 224.015734 
L 651.126567 224.015734 
L 651.49594 261.164879 
L 651.865313 266.760849 
L 652.973433 266.760849 
L 653.342807 261.779388 
L 653.71218 223.076614 
L 654.081553 223.076614 
L 654.450927 244.551924 
L 654.8203 244.551924 
L 655.189673 257.40919 
L 655.559047 259.849534 
L 655.92842 267.435315 
L 656.297793 268.412785 
L 656.667167 278.310605 
L 657.03654 278.310605 
L 657.405914 313.974342 
L 657.775287 330.607879 
L 658.14466 356.833498 
L 658.514034 356.833498 
L 658.883407 330.607879 
L 659.25278 330.607879 
L 659.622154 237.207148 
L 659.991527 225.094149 
L 660.3609 225.340211 
L 660.730274 225.340211 
L 661.099647 237.105346 
L 661.46902 262.668202 
L 661.838394 262.668202 
L 662.207767 256.203903 
L 662.57714 235.371858 
L 663.315887 235.371858 
L 663.68526 232.414179 
L 664.054634 259.903568 
L 664.424007 276.707059 
L 664.79338 283.325875 
L 665.162754 292.120444 
L 665.532127 283.325875 
L 665.9015 282.44345 
L 666.270874 251.340466 
L 666.640247 230.018075 
L 667.00962 230.337235 
L 667.748367 230.337235 
L 668.117741 250.070381 
L 668.487114 278.289124 
L 668.856487 296.985034 
L 670.333981 296.985034 
L 670.703354 269.00675 
L 671.072727 269.00675 
L 671.442101 239.956373 
L 671.811474 239.956373 
L 672.180847 269.00675 
L 672.919594 289.60126 
L 673.288967 289.60126 
L 673.658341 280.675608 
L 674.027714 280.675608 
L 674.397087 258.924965 
L 674.766461 258.924965 
L 675.135834 267.241105 
L 675.505207 280.675608 
L 675.874581 267.241105 
L 676.243954 290.111093 
L 676.613327 267.241105 
L 676.982701 255.638094 
L 677.352074 255.638094 
L 677.721447 265.565482 
L 678.090821 255.638094 
L 678.460194 265.565482 
L 678.829568 268.634033 
L 679.198941 290.323626 
L 679.568314 290.323626 
L 679.937688 310.07307 
L 680.676434 264.64727 
L 681.045808 268.049718 
L 681.415181 235.560727 
L 681.784554 235.383983 
L 682.153928 268.049718 
L 682.523301 249.95472 
L 683.262048 249.95472 
L 683.631421 289.391247 
L 684.000794 289.391247 
L 684.370168 267.34716 
L 684.739541 293.006447 
L 685.108914 267.34716 
L 685.478288 267.34716 
L 685.847661 267.618542 
L 686.217034 267.433031 
L 686.586408 267.433031 
L 686.955781 249.243853 
L 687.325154 246.596977 
L 688.063901 246.596977 
L 688.433274 312.620242 
L 689.172021 312.620242 
L 689.541395 269.589438 
L 690.649515 269.589438 
L 691.018888 287.241664 
L 691.388261 239.119329 
L 692.496381 239.223899 
L 692.865755 270.411433 
L 693.235128 270.411433 
L 693.604501 273.770411 
L 693.973875 268.208261 
L 694.343248 260.16149 
L 694.712621 236.971339 
L 695.451368 236.971339 
L 696.190115 277.953404 
L 696.559488 277.953404 
L 696.928861 275.444998 
L 697.298235 275.444998 
L 697.667608 260.799348 
L 698.036981 252.156513 
L 698.406355 252.156513 
L 698.775728 224.460456 
L 699.145102 228.9353 
L 699.514475 228.9353 
L 699.883848 224.460456 
L 700.253222 228.9353 
L 700.622595 251.840186 
L 700.991968 251.840186 
L 701.361342 224.460456 
L 701.730715 272.303757 
L 702.100088 236.238031 
L 702.838835 249.92728 
L 703.208208 249.92728 
L 703.577582 274.309802 
L 704.316328 274.309802 
L 704.685702 247.460578 
L 705.424448 247.460578 
L 705.793822 251.41325 
L 706.163195 265.611753 
L 706.901942 265.611753 
L 707.271315 260.847874 
L 707.640688 260.847874 
L 708.010062 269.128854 
L 708.379435 269.128854 
L 708.748808 270.85095 
L 709.118182 270.85095 
L 709.487555 267.121468 
L 709.856929 270.85095 
L 710.226302 351.743827 
L 711.334422 351.743827 
L 711.703795 256.389471 
L 712.073169 215.21026 
L 712.442542 215.21026 
L 712.811915 217.244325 
L 713.181289 217.244325 
L 713.550662 271.376352 
L 713.920035 271.376352 
L 714.289409 288.447132 
L 714.658782 331.578825 
L 715.028155 288.447132 
L 715.397529 280.471096 
L 715.766902 280.471096 
L 716.136275 276.320102 
L 716.505649 276.320102 
L 716.875022 262.754706 
L 717.244395 262.754706 
L 717.613769 273.904892 
L 717.983142 278.886252 
L 718.721889 278.886252 
L 719.091262 227.389612 
L 719.830009 227.389612 
L 720.199382 235.812098 
L 720.568756 235.812098 
L 720.938129 230.201861 
L 721.307502 219.372186 
L 722.415622 219.372186 
L 722.784996 224.865986 
L 723.154369 232.017125 
L 723.893116 216.784288 
L 724.262489 232.017125 
L 724.631862 240.637388 
L 725.370609 240.637388 
L 725.739982 224.73543 
L 726.478729 224.696935 
L 727.217476 235.678555 
L 727.586849 259.676723 
L 727.956222 259.676723 
L 728.325596 235.678555 
L 728.694969 224.96637 
L 729.064342 224.96637 
L 729.433716 237.758531 
L 729.803089 237.758531 
L 730.172462 221.765325 
L 730.911209 221.765325 
L 731.280583 224.460456 
L 732.019329 226.481961 
L 732.388703 249.435554 
L 732.758076 249.435554 
L 733.127449 249.014959 
L 733.496823 249.435554 
L 733.866196 249.014959 
L 734.235569 249.014959 
L 734.604943 248.61376 
L 734.974316 249.476086 
L 735.343689 257.239471 
L 735.713063 257.239471 
L 736.082436 249.796322 
L 736.451809 249.267881 
L 737.559929 249.267881 
L 737.929303 257.205339 
L 738.298676 278.431495 
L 738.668049 281.772362 
L 739.406796 281.772362 
L 739.776169 305.072929 
L 740.145543 349.158511 
L 740.514916 349.158511 
L 740.884289 326.798836 
L 741.253663 290.783263 
L 741.623036 290.783263 
L 741.99241 276.944078 
L 742.361783 325.492143 
L 742.731156 325.492143 
L 743.10053 331.466256 
L 743.839276 331.466256 
L 744.20865 308.024508 
L 744.947396 308.024508 
L 745.31677 308.492279 
L 745.686143 309.619757 
L 746.055516 308.492279 
L 746.42489 318.90012 
L 746.794263 321.325944 
L 747.163636 321.325944 
L 747.163636 321.325944 
" style="fill:none;stroke:#1f77b4;stroke-linecap:square;stroke-width:1.5;"/>
   </g>
   <g id="line2d_15">
    <path clip-path="url(#pa461bd8b80)" d="M 138.436364 223.522556 
L 138.805737 223.901671 
L 138.436364 222.728024 
L 139.544484 221.480239 
L 139.913857 219.56454 
L 140.28323 221.704378 
L 140.652604 209.507763 
L 141.021977 205.281982 
L 141.39135 218.833067 
L 141.021977 231.168618 
L 141.760724 223.226563 
L 142.130097 195.211294 
L 142.868844 213.381284 
L 143.238217 210.520262 
L 143.976964 217.828378 
L 144.346337 217.625738 
L 145.454457 239.597515 
L 146.193204 230.619567 
L 146.562577 231.942169 
L 146.931951 238.012627 
L 147.301324 226.542525 
L 147.670697 228.090643 
L 148.409444 209.05028 
L 149.148191 225.487729 
L 149.886937 228.22323 
L 150.256311 234.96618 
L 150.625684 239.175873 
L 150.995057 235.001679 
L 151.733804 246.343626 
L 152.103177 244.437427 
L 152.841924 232.508322 
L 153.211297 197.973867 
L 153.950044 220.731561 
L 154.319417 137.3435 
L 155.058164 163.557498 
L 155.427538 171.189791 
L 156.166284 195.41174 
L 156.535658 200.282111 
L 156.905031 211.543582 
L 157.274404 213.950149 
L 157.643778 218.509079 
L 158.013151 216.616072 
L 158.382524 215.363583 
L 158.751898 215.070897 
L 159.121271 220.66537 
L 159.490644 217.172259 
L 159.860018 216.852409 
L 160.229391 213.317302 
L 161.337511 225.29777 
L 161.706884 223.378146 
L 162.076258 227.062266 
L 162.445631 229.168929 
L 162.815004 222.931632 
L 163.184378 233.39635 
L 163.553751 224.663549 
L 163.923124 179.100767 
L 164.292498 198.682545 
L 164.661871 205.990174 
L 165.031244 207.137148 
L 165.400618 212.393435 
L 165.769991 204.362044 
L 166.508738 219.237893 
L 167.247485 210.488936 
L 167.616858 219.09712 
L 167.986231 220.466318 
L 168.724978 210.532251 
L 169.094351 210.830494 
L 169.463725 212.779572 
L 169.833098 211.010108 
L 170.202471 203.667612 
L 170.571845 209.604696 
L 170.941218 212.491616 
L 171.310591 214.093151 
L 171.679965 189.950239 
L 172.418711 210.913781 
L 172.788085 209.884178 
L 173.157458 202.545101 
L 173.526831 200.966404 
L 173.896205 204.959151 
L 174.265578 214.503903 
L 174.634951 218.70219 
L 175.004325 221.121724 
L 175.373698 215.093604 
L 175.743071 211.572383 
L 176.112445 203.064805 
L 176.481818 207.994617 
L 176.851192 209.669201 
L 177.589938 226.14507 
L 177.959312 224.737221 
L 178.328685 224.62723 
L 178.698058 220.561455 
L 179.067432 218.558564 
L 179.436805 217.622424 
L 179.806178 204.129178 
L 180.544925 214.852698 
L 180.914298 217.928443 
L 181.283672 217.162379 
L 181.653045 214.603867 
L 182.022418 220.367866 
L 182.391792 223.041463 
L 182.761165 232.061663 
L 183.130538 199.441164 
L 183.499912 205.463914 
L 183.869285 213.552242 
L 184.238658 209.968015 
L 184.977405 223.998868 
L 185.346778 223.060543 
L 185.716152 148.293004 
L 186.454898 177.140776 
L 187.193645 190.064511 
L 187.563019 199.165317 
L 187.932392 213.466709 
L 188.301765 219.824846 
L 187.932392 231.21736 
L 188.301765 224.122035 
L 189.040512 231.897678 
L 189.409885 227.018141 
L 189.779259 225.609916 
L 190.148632 212.257278 
L 190.518005 211.526482 
L 190.887379 217.685641 
L 191.256752 217.420309 
L 191.626125 229.850003 
L 191.995499 219.040934 
L 191.626125 223.953153 
L 192.364872 211.020298 
L 193.103619 226.830493 
L 193.472992 223.641915 
L 193.842365 215.653247 
L 194.211739 185.157413 
L 194.581112 199.708779 
L 196.058605 241.141962 
L 196.427979 239.319646 
L 196.797352 201.108224 
L 197.536099 213.860164 
L 197.905472 198.238946 
L 198.274846 207.56937 
L 198.644219 219.979738 
L 199.013592 224.35382 
L 199.382966 225.873939 
L 199.752339 229.816526 
L 200.121712 222.52855 
L 200.491086 227.857143 
L 200.860459 227.174799 
L 201.229832 221.593661 
L 201.599206 212.020061 
L 201.968579 218.001935 
L 202.337952 214.972959 
L 202.707326 215.522957 
L 203.076699 219.465768 
L 203.446072 217.905202 
L 203.815446 227.428715 
L 204.184819 221.501096 
L 204.923566 231.379107 
L 205.292939 231.54564 
L 205.662312 225.578598 
L 206.031686 227.302336 
L 206.401059 220.807925 
L 206.031686 220.85559 
L 206.770432 217.115626 
L 207.139806 216.94371 
L 207.509179 227.198599 
L 207.878553 217.380471 
L 208.247926 222.217016 
L 208.617299 225.110535 
L 208.986673 234.092721 
L 209.356046 232.332212 
L 209.725419 219.198761 
L 210.094793 222.710174 
L 210.464166 221.808126 
L 210.833539 232.112898 
L 211.941659 218.576268 
L 212.311033 215.763562 
L 212.680406 198.904406 
L 213.049779 202.828737 
L 213.419153 208.592892 
L 213.788526 207.188839 
L 214.157899 192.442583 
L 214.896646 212.242298 
L 215.266019 214.771657 
L 214.896646 216.156224 
L 216.004766 213.213793 
L 216.374139 222.157471 
L 216.743513 222.030503 
L 217.112886 214.733758 
L 217.482259 214.787036 
L 217.851633 211.040319 
L 218.221006 205.827525 
L 218.59038 212.017073 
L 218.959753 69.514254 
L 221.545366 170.809232 
L 221.91474 184.270489 
L 222.653486 202.779402 
L 223.02286 215.251944 
L 223.392233 218.953811 
L 223.761606 218.284482 
L 224.13098 218.023144 
L 224.500353 213.500202 
L 224.869726 223.555288 
L 225.2391 225.020324 
L 225.608473 231.219146 
L 225.977846 219.876768 
L 226.34722 233.944753 
L 225.977846 217.131103 
L 226.716593 211.050444 
L 227.085966 221.986058 
L 227.45534 206.997553 
L 228.194086 225.573972 
L 228.56346 226.590868 
L 228.932833 222.33811 
L 229.302207 224.343119 
L 229.67158 233.040639 
L 230.040953 228.22575 
L 230.410327 221.928103 
L 230.7797 200.174759 
L 231.149073 210.906368 
L 231.518447 215.00259 
L 231.88782 214.286045 
L 232.257193 213.936453 
L 232.626567 208.566281 
L 232.99594 210.934165 
L 233.365313 221.721782 
L 233.734687 217.32207 
L 234.10406 220.526542 
L 234.473433 229.266168 
L 234.842807 240.753169 
L 235.21218 214.161188 
L 235.581553 213.874933 
L 235.950927 209.913565 
L 236.3203 204.749892 
L 236.689673 208.723877 
L 237.059047 208.723903 
L 237.42842 207.938289 
L 237.797793 210.581732 
L 238.167167 209.219788 
L 238.53654 205.653967 
L 238.905914 215.770576 
L 239.275287 208.910119 
L 240.014034 215.264425 
L 239.275287 207.841281 
L 240.383407 169.412883 
L 240.75278 174.38593 
L 241.122154 182.942519 
L 241.491527 182.583046 
L 241.8609 190.152313 
L 242.230274 183.036098 
L 242.599647 189.51253 
L 242.96902 198.33122 
L 243.338394 193.823601 
L 243.707767 194.870589 
L 244.07714 204.579327 
L 244.446514 197.34502 
L 244.815887 66.96 
L 245.18526 81.924125 
L 245.924007 96.815197 
L 246.662754 125.083148 
L 247.032127 125.843093 
L 247.770874 150.781749 
L 248.50962 166.999434 
L 248.878994 159.596327 
L 249.248367 168.225817 
L 249.617741 169.249659 
L 249.987114 182.224665 
L 250.356487 199.525539 
L 250.725861 193.838198 
L 251.095234 190.042283 
L 251.464607 165.084004 
L 252.203354 174.1572 
L 253.311474 204.639493 
L 253.680847 204.777543 
L 254.050221 197.415826 
L 254.419594 200.78604 
L 254.788967 195.363764 
L 255.158341 206.260308 
L 255.527714 211.604052 
L 255.897087 197.699896 
L 256.635834 221.115241 
L 257.005207 214.92265 
L 257.374581 198.347395 
L 257.743954 205.073393 
L 258.113327 182.568126 
L 258.482701 184.98767 
L 258.852074 188.831007 
L 259.221447 197.856785 
L 259.590821 199.071361 
L 259.960194 170.439575 
L 260.329568 179.976564 
L 260.698941 184.232461 
L 261.068314 189.830826 
L 261.437688 186.826535 
L 261.807061 188.272081 
L 262.176434 201.95976 
L 262.545808 204.571054 
L 262.915181 215.657831 
L 263.284554 217.71535 
L 263.653928 217.606003 
L 264.023301 225.580422 
L 264.392674 211.153258 
L 264.762048 211.59329 
L 265.131421 211.593314 
L 265.500794 194.080213 
L 265.870168 200.732983 
L 266.239541 200.733019 
L 266.608914 210.675939 
L 266.978288 202.970095 
L 267.347661 201.744185 
L 267.717034 210.256667 
L 268.086408 210.006528 
L 268.455781 206.204423 
L 268.825154 182.234361 
L 269.194528 191.951681 
L 269.563901 186.553642 
L 269.933274 186.553654 
L 270.302648 159.365958 
L 271.041395 185.278954 
L 271.410768 146.932043 
L 272.888261 193.747923 
L 273.257635 194.806778 
L 273.627008 200.123956 
L 273.996381 197.302999 
L 274.365755 191.519235 
L 274.735128 194.566701 
L 275.104501 190.729458 
L 275.473875 185.573508 
L 275.104501 197.428792 
L 275.843248 205.11028 
L 276.212621 194.89993 
L 276.581995 197.877264 
L 276.951368 144.827591 
L 275.473875 153.289608 
L 277.320741 168.048291 
L 277.690115 177.482645 
L 278.059488 182.681504 
L 278.428861 177.68621 
L 279.167608 189.371861 
L 279.536981 186.073073 
L 279.906355 197.563968 
L 280.275728 202.733239 
L 280.645102 183.579596 
L 281.014475 193.523754 
L 281.383848 199.669735 
L 281.753222 198.683946 
L 282.122595 198.362286 
L 282.861342 220.897507 
L 283.230715 206.592986 
L 283.600088 206.503458 
L 283.969462 195.019667 
L 284.338835 197.072905 
L 284.708208 196.017544 
L 285.077582 198.247455 
L 285.446955 202.085201 
L 285.816328 200.08104 
L 286.185702 202.134056 
L 286.555075 193.821362 
L 286.924448 196.726173 
L 287.293822 195.225185 
L 288.032568 218.487362 
L 288.401942 212.393976 
L 288.771315 213.004808 
L 289.140688 214.897327 
L 289.510062 203.103744 
L 289.879435 176.949558 
L 290.248808 185.297899 
L 290.618182 181.912271 
L 290.987555 183.539134 
L 291.356929 187.041109 
L 291.726302 169.520538 
L 292.465049 183.166022 
L 292.834422 183.315203 
L 293.203795 184.586142 
L 293.573169 180.23943 
L 293.942542 181.722881 
L 294.311915 177.805756 
L 294.681289 181.083452 
L 295.050662 186.520699 
L 295.420035 185.811061 
L 295.789409 180.858128 
L 296.158782 183.505254 
L 296.528155 180.8263 
L 296.897529 182.124471 
L 297.266902 181.473889 
L 296.528155 181.16383 
L 297.636275 181.123609 
L 298.375022 195.401637 
L 298.744395 199.597232 
L 299.113769 195.882756 
L 299.483142 196.264953 
L 299.852515 200.024513 
L 300.221889 201.509585 
L 300.591262 200.556203 
L 301.330009 206.864427 
L 301.699382 214.958138 
L 302.068756 193.013586 
L 302.438129 197.053793 
L 302.807502 204.543755 
L 303.176876 204.543786 
L 303.546249 211.370602 
L 303.915622 196.172457 
L 304.284996 202.916394 
L 304.654369 205.633888 
L 304.284996 205.005431 
L 305.023742 204.960908 
L 305.393116 205.495035 
L 305.762489 207.364642 
L 306.131862 204.923207 
L 307.239982 204.978463 
L 307.609356 141.094374 
L 308.348102 168.216095 
L 308.717476 177.309681 
L 309.456222 178.833387 
L 308.717476 174.081002 
L 309.825596 177.505841 
L 310.194969 177.031656 
L 310.564342 179.129917 
L 310.933716 187.8338 
L 311.303089 189.145357 
L 311.672462 200.534334 
L 312.041836 198.024524 
L 312.411209 197.856081 
L 312.780583 200.164887 
L 313.149956 198.994885 
L 313.519329 200.88991 
L 313.888703 200.488764 
L 314.258076 194.654077 
L 314.627449 197.550567 
L 314.996823 199.157985 
L 315.735569 200.008664 
L 316.104943 188.833841 
L 316.474316 199.313708 
L 316.843689 195.585923 
L 317.213063 197.147748 
L 317.582436 201.363826 
L 317.951809 199.153639 
L 318.321183 202.895486 
L 318.690556 213.950599 
L 319.059929 214.559029 
L 319.429303 214.252685 
L 320.168049 214.025776 
L 320.537423 216.062377 
L 320.906796 216.68871 
L 321.276169 216.035283 
L 321.645543 216.316851 
L 322.014916 216.175637 
L 322.384289 192.450778 
L 323.123036 204.618979 
L 323.49241 202.384062 
L 323.861783 203.472791 
L 324.60053 203.47285 
L 324.969903 202.251306 
L 325.339276 204.660952 
L 325.70865 204.058806 
L 326.078023 203.763865 
L 326.447396 206.397079 
L 326.81677 205.511682 
L 327.186143 204.25067 
L 327.92489 204.872057 
L 328.294263 201.304605 
L 328.663636 209.886064 
L 329.03301 209.886209 
L 329.402383 204.603321 
L 329.771756 202.89139 
L 330.14113 203.342981 
L 329.771756 202.275343 
L 330.879876 202.119162 
L 331.24925 205.851244 
L 331.618623 203.137225 
L 331.987996 204.871212 
L 332.35737 202.218044 
L 332.726743 203.514633 
L 333.46549 201.629104 
L 333.834863 201.430359 
L 334.204237 198.866367 
L 334.57361 200.188411 
L 334.942983 202.714577 
L 335.68173 215.366932 
L 336.420477 215.367522 
L 336.78985 213.345742 
L 337.159223 214.332883 
L 337.528597 213.833757 
L 337.89797 211.377809 
L 338.267343 207.170598 
L 338.636717 194.523008 
L 339.00609 200.010148 
L 339.744837 191.260157 
L 340.11421 189.291244 
L 340.483583 192.582783 
L 340.852957 190.874694 
L 341.22233 197.807362 
L 341.591703 195.03825 
L 341.961077 86.465362 
L 343.807944 157.076967 
L 344.177317 165.262201 
L 344.54669 170.632579 
L 344.916064 183.488692 
L 345.285437 189.779124 
L 345.65481 190.10282 
L 347.132304 215.108627 
L 347.501677 212.793299 
L 347.87105 213.920106 
L 348.97917 215.539314 
L 349.348544 215.230003 
L 349.717917 201.075135 
L 350.08729 207.123893 
L 350.826037 212.19374 
L 351.19541 205.199076 
L 351.564784 200.803359 
L 351.934157 202.890131 
L 352.30353 201.9637 
L 352.672904 202.42201 
L 353.042277 209.650521 
L 353.41165 209.57133 
L 353.781024 209.820656 
L 354.150397 207.387121 
L 354.519771 206.149138 
L 354.889144 188.542319 
L 355.258517 198.678765 
L 355.627891 201.427125 
L 355.997264 196.833692 
L 356.366637 175.88681 
L 355.997264 184.126552 
L 356.736011 189.0137 
L 357.105384 195.318377 
L 357.474757 203.745457 
L 357.844131 203.743094 
L 358.213504 196.310919 
L 358.582877 195.438214 
L 359.321624 214.980172 
L 359.690997 192.401076 
L 360.060371 200.898612 
L 360.429744 198.772766 
L 360.799117 199.814695 
L 361.537864 215.382668 
L 361.907237 223.639178 
L 362.276611 226.376211 
L 362.645984 222.550735 
L 362.276611 224.677753 
L 363.015357 201.757837 
L 363.384731 205.146012 
L 363.754104 201.236918 
L 364.123477 200.515476 
L 364.492851 206.995213 
L 364.862224 208.500471 
L 365.231598 202.575228 
L 365.600971 201.721572 
L 365.970344 205.88143 
L 366.339718 203.700451 
L 366.709091 202.444764 
L 367.078464 212.932546 
L 367.447838 212.143158 
L 367.817211 220.960612 
L 368.186584 196.386982 
L 368.555958 185.151038 
L 369.294704 192.378923 
L 369.664078 189.794968 
L 370.033451 191.648083 
L 370.402824 174.67759 
L 370.772198 177.419749 
L 371.141571 189.102957 
L 371.510944 190.341249 
L 371.880318 186.813761 
L 372.249691 188.547296 
L 372.619064 191.861689 
L 372.988438 197.461763 
L 373.357811 189.560285 
L 373.727184 194.4947 
L 374.096558 191.887565 
L 374.465931 193.744408 
L 375.204678 208.35858 
L 375.574051 197.670643 
L 375.943425 201.445589 
L 376.312798 193.362356 
L 376.682171 198.064464 
L 377.420918 202.407285 
L 377.051545 199.213572 
L 377.790291 190.252918 
L 378.159665 192.46891 
L 378.529038 196.021065 
L 378.898411 192.217852 
L 379.267785 194.124776 
L 379.637158 189.181252 
L 380.006531 199.396825 
L 380.375905 199.042189 
L 380.745278 176.290958 
L 381.484025 188.836679 
L 381.853398 190.235121 
L 382.222771 186.768594 
L 382.592145 198.375446 
L 382.961518 191.301981 
L 383.330891 199.697154 
L 383.700265 161.018967 
L 384.808385 195.199084 
L 385.177758 182.46747 
L 385.547132 186.317803 
L 385.916505 192.526814 
L 386.285878 193.87766 
L 386.655252 178.411763 
L 386.285878 174.831798 
L 387.024625 180.249448 
L 387.763372 197.375829 
L 388.132745 190.367442 
L 388.502118 187.877285 
L 388.871492 191.744432 
L 389.240865 191.624896 
L 389.610238 196.563048 
L 389.979612 209.092347 
L 390.348985 201.757819 
L 391.087732 201.788962 
L 391.457105 200.306994 
L 391.826478 201.040355 
L 392.195852 190.737831 
L 392.565225 195.286851 
L 392.934598 204.164843 
L 393.303972 203.557337 
L 393.673345 199.508036 
L 394.042718 207.669045 
L 394.412092 203.207308 
L 394.781465 202.089977 
L 395.150838 202.089995 
L 395.520212 200.916621 
L 395.889585 205.390363 
L 396.258959 199.830223 
L 396.628332 199.666898 
L 396.997705 198.88454 
L 397.367079 206.911544 
L 397.736452 202.529034 
L 398.105825 201.277857 
L 398.475199 195.252299 
L 398.844572 202.210814 
L 399.213945 198.579967 
L 399.583319 193.206346 
L 399.952692 198.322449 
L 400.322065 207.532349 
L 400.691439 209.859106 
L 401.060812 138.96915 
L 401.430185 164.621512 
L 401.799559 175.031105 
L 402.168932 181.392965 
L 402.538305 181.56664 
L 402.907679 183.190508 
L 403.646425 194.545395 
L 404.015799 195.151545 
L 404.385172 194.139901 
L 404.754545 194.942109 
L 405.123919 194.236678 
L 405.493292 203.913013 
L 405.862665 205.414311 
L 406.232039 216.695429 
L 406.601412 219.232631 
L 406.970786 192.035194 
L 407.340159 201.2387 
L 407.709532 192.697519 
L 408.078906 192.362948 
L 408.448279 197.641785 
L 408.817652 189.499501 
L 409.187026 190.883939 
L 409.556399 187.020973 
L 409.925772 195.427201 
L 410.295146 194.114744 
L 410.664519 175.342496 
L 411.033892 189.877772 
L 411.403266 196.157269 
L 411.772639 191.707054 
L 412.142012 188.685846 
L 412.511386 201.144658 
L 412.880759 181.843778 
L 413.250132 172.120649 
L 413.619506 178.47104 
L 413.988879 154.141149 
L 414.358252 145.654687 
L 415.096999 173.633278 
L 415.835746 183.630865 
L 415.466372 179.691146 
L 416.205119 183.231118 
L 416.574492 183.503955 
L 416.943866 184.112313 
L 417.313239 194.08354 
L 417.682613 199.814054 
L 418.051986 200.862284 
L 418.421359 200.454287 
L 418.790733 202.713675 
L 419.160106 212.774749 
L 419.529479 198.927284 
L 419.898853 196.574951 
L 420.268226 208.452439 
L 420.637599 202.544861 
L 421.006973 189.378827 
L 421.745719 198.093975 
L 421.376346 69.500525 
L 422.115093 84.283952 
L 423.592586 141.262881 
L 423.223213 142.044893 
L 423.961959 154.18352 
L 424.331333 162.387663 
L 424.700706 166.83818 
L 425.070079 173.035001 
L 425.808826 167.685508 
L 426.178199 166.903795 
L 426.547573 167.836922 
L 426.916946 169.357188 
L 427.28632 182.811109 
L 427.655693 176.233994 
L 428.025066 188.146426 
L 428.39444 160.034409 
L 429.133186 175.792983 
L 429.50256 179.297434 
L 429.871933 173.65545 
L 430.241306 178.358429 
L 431.349426 182.44593 
L 432.088173 177.769395 
L 432.457546 184.741098 
L 432.82692 186.070272 
L 433.196293 176.222244 
L 433.93504 189.890433 
L 434.304413 189.89045 
L 434.673786 192.995285 
L 435.04316 204.927465 
L 435.412533 192.611991 
L 436.15128 190.970999 
L 436.520653 201.584178 
L 436.890026 202.264274 
L 437.2594 201.602161 
L 437.628773 187.006937 
L 437.998147 190.41526 
L 438.36752 188.644311 
L 438.736893 178.599714 
L 439.106267 180.670585 
L 439.47564 181.513076 
L 439.845013 194.110427 
L 440.214387 186.366364 
L 440.58376 154.95592 
L 440.953133 162.725607 
L 441.322507 181.793839 
L 441.69188 180.801916 
L 442.061253 181.292223 
L 442.430627 178.140185 
L 442.8 179.941289 
L 443.169373 180.84781 
L 443.538747 179.446566 
L 443.90812 191.215186 
L 444.277493 185.560273 
L 444.646867 190.005527 
L 445.01624 190.271762 
L 445.385613 152.44299 
L 445.01624 163.756381 
L 445.754987 172.331737 
L 446.12436 184.908696 
L 446.493733 184.638105 
L 446.863107 182.318773 
L 447.23248 185.617507 
L 447.601853 182.753379 
L 447.971227 194.912103 
L 448.3406 190.429183 
L 448.709974 192.578665 
L 449.079347 198.255535 
L 449.44872 188.00703 
L 449.818094 185.770359 
L 450.187467 188.024992 
L 450.55684 182.427239 
L 450.926214 194.388798 
L 449.818094 140.737814 
L 451.295587 153.398708 
L 451.66496 164.855211 
L 453.142454 180.390129 
L 453.511827 182.289675 
L 453.8812 183.47648 
L 454.250574 189.500226 
L 454.619947 199.677904 
L 454.98932 194.670228 
L 456.09744 190.782297 
L 456.466814 179.250211 
L 456.836187 187.959409 
L 457.20556 186.746316 
L 457.574934 187.464484 
L 457.944307 185.938168 
L 458.31368 140.306096 
L 459.052427 164.377696 
L 459.421801 184.164446 
L 459.791174 184.046617 
L 460.160547 187.051911 
L 460.529921 185.214037 
L 460.899294 184.562228 
L 461.268667 189.452421 
L 461.638041 189.033763 
L 462.007414 186.248438 
L 462.376787 187.779381 
L 462.746161 198.253445 
L 463.484907 184.415227 
L 463.854281 189.360229 
L 464.223654 188.402989 
L 464.593027 186.317489 
L 464.962401 185.011821 
L 465.331774 196.136123 
L 465.701147 179.275827 
L 466.070521 177.063175 
L 466.809267 183.748294 
L 467.178641 172.710652 
L 467.548014 178.624935 
L 468.286761 184.030304 
L 468.656134 181.159783 
L 469.025508 149.465775 
L 469.394881 158.988529 
L 469.764254 142.291044 
L 470.133628 146.206721 
L 470.503001 160.038684 
L 470.872374 166.896913 
L 471.241748 178.906497 
L 471.611121 177.594822 
L 471.980494 185.543177 
L 472.349868 187.36723 
L 472.719241 192.511784 
L 473.088614 188.08792 
L 473.457988 202.228859 
L 473.827361 200.523699 
L 474.196734 196.069914 
L 474.566108 190.140655 
L 474.935481 187.268247 
L 474.196734 187.218284 
L 475.304854 191.077679 
L 475.674228 192.871653 
L 476.412974 177.718458 
L 476.782348 183.235208 
L 477.151721 179.309336 
L 477.521094 181.496669 
L 477.890468 181.859958 
L 478.259841 187.69106 
L 478.629214 184.579573 
L 478.998588 186.080467 
L 479.367961 185.319084 
L 479.737335 182.001117 
L 480.106708 187.251443 
L 480.476081 189.703731 
L 480.845455 196.378278 
L 481.214828 191.001747 
L 481.584201 195.245728 
L 481.953575 190.159728 
L 482.322948 192.786305 
L 482.692321 202.794311 
L 483.061695 190.270156 
L 483.800441 197.797086 
L 484.169815 194.987524 
L 484.539188 199.498794 
L 484.908561 197.126177 
L 485.277935 193.584948 
L 485.647308 193.168009 
L 486.016681 193.565982 
L 486.386055 191.548799 
L 486.755428 192.472228 
L 487.124801 184.78752 
L 487.494175 164.005758 
L 488.232921 177.860607 
L 488.602295 183.287675 
L 488.971668 192.50675 
L 489.341041 194.61419 
L 489.710415 190.557911 
L 489.341041 187.409338 
L 490.079788 188.431332 
L 490.449162 192.76566 
L 490.818535 189.965781 
L 491.557282 192.676643 
L 490.818535 185.156743 
L 491.926655 107.911164 
L 492.665402 136.792601 
L 493.034775 163.375592 
L 493.404148 177.155533 
L 494.142895 182.883888 
L 494.512268 192.748355 
L 494.881642 194.128394 
L 494.142895 188.435223 
L 494.881642 187.955521 
L 495.251015 197.245249 
L 495.620388 193.831044 
L 495.989762 199.290151 
L 496.359135 192.595352 
L 496.728508 171.49856 
L 497.097882 179.600347 
L 497.467255 182.292786 
L 497.836628 189.915537 
L 498.206002 185.78092 
L 498.575375 191.323475 
L 498.944748 170.270078 
L 499.314122 181.327886 
L 499.683495 176.192629 
L 500.052868 177.344079 
L 500.422242 193.202704 
L 500.791615 203.599059 
L 501.160989 197.784249 
L 501.530362 195.37286 
L 501.899735 190.297061 
L 502.269109 188.409873 
L 502.638482 199.254435 
L 503.007855 193.161724 
L 503.377229 191.507322 
L 503.746602 192.850928 
L 504.115975 192.168784 
L 504.485349 191.034473 
L 504.854722 191.03448 
L 505.224095 191.427045 
L 505.593469 174.747879 
L 505.962842 173.044307 
L 506.332215 180.438542 
L 506.701589 178.302466 
L 507.070962 185.036553 
L 508.179082 184.208318 
L 508.917829 189.503366 
L 509.287202 191.953665 
L 509.656575 190.847653 
L 510.025949 191.387196 
L 510.395322 199.690122 
L 510.764695 195.951463 
L 511.134069 189.805283 
L 511.503442 200.397809 
L 511.872816 200.521962 
L 512.242189 208.586592 
L 512.611562 203.893803 
L 513.350309 203.705377 
L 513.719682 201.901443 
L 514.458429 202.920387 
L 514.827802 195.859928 
L 515.197176 195.565078 
L 515.566549 199.375649 
L 515.935922 196.194116 
L 516.305296 195.982693 
L 516.674669 193.091905 
L 517.413416 216.46518 
L 517.782789 197.460461 
L 517.413416 192.838881 
L 518.152162 189.599186 
L 518.521536 202.9992 
L 518.890909 192.09748 
L 519.260282 189.669592 
L 519.629656 190.822427 
L 519.999029 184.500649 
L 520.368402 187.311482 
L 520.737776 185.828322 
L 521.107149 190.186433 
L 521.476523 189.700679 
L 521.845896 185.062287 
L 522.215269 153.767807 
L 522.584643 160.72993 
L 522.954016 161.325565 
L 523.323389 175.077928 
L 523.692763 180.407087 
L 524.062136 179.46393 
L 524.431509 177.50939 
L 525.170256 197.81763 
L 525.539629 202.572359 
L 525.909003 191.718123 
L 526.278376 196.309115 
L 526.647749 189.621184 
L 527.017123 195.144313 
L 527.386496 193.363512 
L 527.755869 177.730137 
L 528.125243 184.928798 
L 527.755869 189.681304 
L 528.494616 190.107044 
L 528.863989 188.708569 
L 529.233363 191.424477 
L 529.602736 191.424512 
L 529.972109 202.295691 
L 530.341483 202.295698 
L 530.710856 197.242142 
L 531.080229 204.459434 
L 531.449603 194.716203 
L 531.818976 196.356668 
L 531.080229 194.432184 
L 532.557723 199.52031 
L 533.665843 190.476484 
L 534.035216 194.797381 
L 534.773963 205.839538 
L 535.143336 204.404727 
L 535.51271 195.893867 
L 535.882083 181.515553 
L 536.251456 186.400088 
L 536.62083 193.774287 
L 536.990203 188.34839 
L 537.359576 190.129374 
L 537.72895 171.347026 
L 538.098323 178.655982 
L 538.467696 179.333076 
L 537.359576 171.383125 
L 538.83707 169.094894 
L 539.206443 167.264931 
L 539.575816 177.140715 
L 539.94519 179.948013 
L 540.314563 184.604631 
L 540.683936 186.114394 
L 540.314563 193.210472 
L 541.05331 192.655809 
L 541.422683 191.778387 
L 541.792056 182.942439 
L 542.530803 195.62232 
L 542.900177 199.640132 
L 543.26955 187.865839 
L 543.638923 195.080794 
L 544.008297 190.244866 
L 544.37767 167.053762 
L 544.747043 176.231468 
L 545.116417 189.125644 
L 545.48579 188.978106 
L 545.855163 188.417068 
L 546.224537 174.45712 
L 546.59391 177.478221 
L 546.963283 181.910357 
L 547.332657 165.764622 
L 547.70203 177.824289 
L 548.071403 183.26435 
L 548.440777 183.520775 
L 548.81015 188.07065 
L 549.179523 189.218949 
L 549.548897 180.613911 
L 550.657017 185.84779 
L 551.02639 190.137595 
L 551.765137 208.669772 
L 552.503883 186.768789 
L 552.873257 195.305744 
L 553.24263 193.412123 
L 553.612004 197.74178 
L 553.981377 199.476859 
L 554.35075 170.79339 
L 554.720124 171.22577 
L 555.089497 178.802036 
L 555.45887 183.887413 
L 555.828244 198.533889 
L 556.197617 194.175485 
L 556.56699 197.30355 
L 556.936364 193.660105 
L 557.305737 185.318984 
L 557.67511 194.898631 
L 558.413857 192.610795 
L 558.78323 187.185027 
L 559.152604 188.747576 
L 559.521977 189.776237 
L 559.89135 189.354817 
L 560.260724 189.564521 
L 560.99947 190.15485 
L 561.368844 189.911203 
L 561.738217 190.169751 
L 562.10759 190.162443 
L 562.476964 197.083865 
L 562.846337 193.348394 
L 563.215711 206.692569 
L 563.585084 178.832618 
L 563.954457 183.034521 
L 564.323831 191.204013 
L 564.693204 210.598742 
L 565.062577 196.408727 
L 565.431951 194.589401 
L 565.801324 183.314873 
L 566.170697 179.311212 
L 566.540071 193.74806 
L 566.909444 188.196856 
L 567.278817 188.854019 
L 567.648191 185.431939 
L 568.017564 189.993089 
L 568.756311 184.106464 
L 569.125684 183.738757 
L 569.495057 185.494912 
L 570.233804 184.62066 
L 570.603177 192.509472 
L 569.495057 188.02159 
L 570.972551 185.797482 
L 571.711297 180.30915 
L 572.080671 178.690791 
L 572.450044 182.905195 
L 573.188791 177.949162 
L 573.558164 186.333445 
L 573.927538 185.329968 
L 574.296911 196.685546 
L 574.666284 189.895955 
L 575.405031 186.836491 
L 575.774404 184.047626 
L 576.143778 189.46586 
L 576.513151 187.34056 
L 576.882524 188.881978 
L 577.251898 192.056013 
L 577.621271 190.41111 
L 577.990644 202.351454 
L 577.621271 192.281673 
L 578.360018 200.812101 
L 578.729391 198.407904 
L 579.098764 192.267138 
L 579.468138 201.347291 
L 580.206884 192.023641 
L 580.576258 192.857036 
L 580.945631 191.036968 
L 581.315004 182.196294 
L 581.684378 178.869775 
L 582.053751 164.325404 
L 582.423124 109.107434 
L 583.161871 136.250167 
L 583.531244 141.079552 
L 583.900618 154.914095 
L 584.269991 161.741861 
L 584.639365 171.30496 
L 585.378111 183.098222 
L 585.747485 183.089852 
L 586.116858 186.451663 
L 586.486231 192.70271 
L 586.855605 203.194541 
L 587.224978 195.958538 
L 587.594351 184.743808 
L 587.963725 185.728133 
L 588.333098 181.738033 
L 588.702471 183.641481 
L 589.071845 190.167759 
L 589.441218 186.66023 
L 589.810591 199.880658 
L 590.179965 200.969177 
L 590.549338 200.418127 
L 591.288085 200.418189 
L 591.657458 211.803058 
L 592.026831 202.63761 
L 592.396205 161.797927 
L 592.765578 69.43702 
L 594.612445 141.292622 
L 595.720565 181.805324 
L 596.089938 183.530592 
L 596.459312 191.548326 
L 596.828685 195.051467 
L 597.198058 207.895757 
L 597.567432 212.578889 
L 597.936805 206.916238 
L 597.567432 196.468304 
L 598.675552 199.411089 
L 599.044925 200.632974 
L 599.414298 200.470461 
L 599.783672 200.6793 
L 600.153045 199.122878 
L 600.522418 198.384618 
L 600.891792 198.75061 
L 601.261165 198.574181 
L 601.630538 198.621998 
L 601.999912 206.229238 
L 602.369285 202.017552 
L 602.738658 210.413176 
L 603.108032 208.221421 
L 603.477405 207.957906 
L 603.846778 208.089432 
L 604.216152 195.4295 
L 604.954898 205.378518 
L 605.324272 206.691805 
L 605.693645 188.457186 
L 606.063019 207.591871 
L 606.432392 193.283286 
L 606.801765 191.464728 
L 607.171139 192.192908 
L 607.909885 193.117586 
L 608.279259 194.512082 
L 608.648632 193.985163 
L 609.018005 205.271815 
L 609.387379 194.605855 
L 609.756752 194.244563 
L 610.126125 204.948125 
L 610.864872 204.903957 
L 611.234245 216.238752 
L 611.603619 207.173211 
L 611.972992 208.409368 
L 612.342365 206.634254 
L 612.711739 207.708928 
L 613.081112 181.487908 
L 613.450485 178.034193 
L 613.819859 188.14234 
L 614.189232 187.098439 
L 614.558605 196.441895 
L 614.927979 196.105942 
L 615.297352 207.010669 
L 615.666726 194.044892 
L 616.405472 216.203183 
L 616.774846 201.023861 
L 617.513592 209.235649 
L 617.882966 195.743271 
L 618.252339 149.165771 
L 618.621712 161.314267 
L 618.991086 146.051347 
L 620.099206 180.50451 
L 620.468579 189.472629 
L 620.837952 190.080115 
L 621.207326 192.741342 
L 621.576699 196.706436 
L 621.946072 204.877066 
L 622.315446 209.955556 
L 622.684819 209.955681 
L 623.054192 208.730209 
L 623.423566 202.824731 
L 623.792939 206.098751 
L 624.162312 206.098802 
L 624.531686 214.905069 
L 624.901059 215.8917 
L 625.270432 221.64937 
L 626.009179 222.535692 
L 626.378553 227.777853 
L 626.747926 237.325519 
L 627.117299 235.490261 
L 627.486673 221.057807 
L 627.856046 234.523533 
L 628.225419 205.250269 
L 628.594793 217.039324 
L 628.964166 224.186372 
L 629.333539 134.250353 
L 630.072286 162.650525 
L 630.441659 169.860287 
L 631.180406 181.726592 
L 631.919153 209.217893 
L 632.288526 216.718103 
L 632.657899 218.924694 
L 633.027273 218.924713 
L 633.396646 223.706066 
L 633.766019 221.184026 
L 634.135393 226.227011 
L 634.504766 240.81294 
L 634.874139 229.689543 
L 635.243513 234.546282 
L 635.612886 201.277557 
L 635.982259 208.696979 
L 636.351633 219.039406 
L 636.721006 222.988619 
L 637.09038 220.450083 
L 637.459753 219.511356 
L 637.829126 208.988761 
L 638.1985 191.279125 
L 638.937246 218.683897 
L 639.30662 223.555668 
L 639.675993 238.264647 
L 640.045366 236.382112 
L 640.41474 236.47554 
L 640.784113 237.309101 
L 641.52286 232.647014 
L 641.892233 233.902717 
L 642.261606 229.608096 
L 642.63098 241.704431 
L 643.000353 247.918689 
L 643.369726 243.915224 
L 643.7391 217.508753 
L 644.477846 232.622458 
L 644.84722 218.628031 
L 645.216593 224.38038 
L 645.585966 221.229655 
L 645.95534 195.705324 
L 647.06346 209.820442 
L 647.802207 228.204194 
L 648.17158 203.243665 
L 648.540953 204.118083 
L 648.910327 212.978342 
L 649.2797 210.091194 
L 649.649073 204.683323 
L 650.018447 209.675981 
L 650.38782 207.953559 
L 650.757193 204.861341 
L 651.126567 211.292155 
L 651.49594 220.106365 
L 651.865313 194.976653 
L 652.60406 189.122084 
L 652.973433 191.852566 
L 653.342807 190.444438 
L 653.71218 191.142066 
L 654.450927 211.619656 
L 654.8203 205.599455 
L 655.189673 209.519437 
L 655.92842 237.055774 
L 656.297793 233.223882 
L 656.667167 247.638425 
L 657.03654 226.36511 
L 657.405914 234.148771 
L 657.775287 213.626688 
L 658.14466 218.374455 
L 658.514034 218.177763 
L 658.883407 218.253316 
L 659.25278 209.49366 
L 659.622154 213.430013 
L 659.991527 219.646064 
L 660.3609 195.019827 
L 660.730274 204.047442 
L 661.099647 209.616088 
L 661.46902 208.501483 
L 661.838394 209.288242 
L 662.207767 201.663298 
L 662.57714 208.04571 
L 662.946514 204.620735 
L 663.315887 206.265735 
L 663.68526 203.786464 
L 664.054634 203.391864 
L 664.424007 202.727824 
L 664.79338 195.67175 
L 665.162754 199.089398 
L 665.532127 197.106609 
L 665.9015 203.827114 
L 666.270874 199.681088 
L 666.640247 201.655336 
L 667.00962 209.865917 
L 667.378994 223.05205 
L 667.748367 217.211919 
L 668.117741 219.936136 
L 668.487114 224.072776 
L 669.225861 224.073056 
L 669.595234 222.072604 
L 669.964607 219.407673 
L 670.333981 219.407747 
L 670.703354 225.914097 
L 671.072727 218.535738 
L 671.442101 220.851055 
L 671.811474 203.79729 
L 672.180847 194.144122 
L 672.550221 196.587327 
L 672.919594 203.982978 
L 673.288967 199.971668 
L 673.658341 202.353448 
L 674.397087 220.309973 
L 674.766461 214.980301 
L 675.505207 236.737871 
L 675.874581 235.085004 
L 676.243954 235.895727 
L 676.613327 224.150363 
L 677.352074 243.461116 
L 677.721447 209.657242 
L 678.460194 228.330593 
L 678.829568 224.094643 
L 679.198941 225.664098 
L 679.937688 204.611183 
L 680.307061 204.819194 
L 680.676434 202.803738 
L 681.045808 205.146011 
L 681.415181 177.95872 
L 681.784554 168.648567 
L 682.153928 183.053957 
L 682.523301 186.732118 
L 682.892674 178.604531 
L 683.262048 183.802312 
L 683.631421 187.112427 
L 684.000794 187.32971 
L 684.370168 179.767713 
L 684.739541 193.280685 
L 685.108914 195.479124 
L 685.478288 204.122693 
L 685.847661 201.618477 
L 686.217034 206.31446 
L 686.586408 206.271101 
L 686.955781 212.717137 
L 687.325154 223.600215 
L 687.694528 217.429543 
L 688.063901 217.429787 
L 688.802648 219.734678 
L 689.172021 219.734679 
L 689.541395 227.664578 
L 689.910768 223.219234 
L 690.280141 225.568969 
L 690.649515 207.975776 
L 691.018888 215.497362 
L 691.388261 211.412344 
L 691.757635 224.483973 
L 692.127008 208.005902 
L 692.496381 201.313449 
L 692.865755 211.19429 
L 693.235128 204.042919 
L 693.604501 206.495628 
L 693.973875 205.750039 
L 694.343248 204.069037 
L 694.712621 214.55359 
L 695.081995 216.305303 
L 695.451368 222.272821 
L 695.820741 189.878142 
L 696.190115 199.977489 
L 696.559488 202.356696 
L 696.928861 201.681855 
L 697.298235 201.601759 
L 697.667608 205.808787 
L 698.406355 189.160246 
L 699.145102 208.166659 
L 699.514475 202.965876 
L 699.883848 211.154221 
L 700.622595 207.51643 
L 700.991968 197.345679 
L 701.361342 195.426379 
L 701.730715 198.995851 
L 702.100088 213.317328 
L 702.469462 208.53317 
L 702.838835 209.589634 
L 703.208208 208.490963 
L 703.577582 213.246028 
L 703.946955 213.94838 
L 704.316328 199.985601 
L 704.685702 203.639338 
L 705.055075 194.347074 
L 705.424448 198.353249 
L 705.793822 207.240962 
L 706.163195 206.593387 
L 706.532568 209.646838 
L 706.901942 204.762538 
L 707.271315 212.301221 
L 707.640688 205.879595 
L 708.010062 211.632401 
L 708.379435 214.480922 
L 708.748808 213.010249 
L 709.118182 213.733384 
L 709.487555 206.847045 
L 709.856929 217.858065 
L 710.226302 181.186952 
L 710.595675 180.05167 
L 710.965049 186.51953 
L 711.703795 208.362086 
L 712.073169 185.395381 
L 712.442542 192.995242 
L 712.811915 194.340698 
L 713.181289 193.657592 
L 713.550662 204.875446 
L 713.920035 199.631438 
L 714.289409 205.805123 
L 714.658782 202.499496 
L 715.028155 202.499582 
L 715.397529 204.089526 
L 715.766902 202.462379 
L 716.136275 204.002073 
L 716.505649 203.08361 
L 716.875022 176.947044 
L 717.244395 191.661459 
L 717.613769 193.812976 
L 717.983142 208.154038 
L 718.352515 206.153748 
L 718.721889 186.202579 
L 720.199382 213.254547 
L 720.568756 210.677708 
L 720.938129 201.337658 
L 721.307502 198.157344 
L 721.676876 208.82787 
L 722.046249 197.812963 
L 722.415622 200.689993 
L 722.784996 208.759425 
L 723.154369 204.257898 
L 723.893116 204.257907 
L 724.262489 212.268188 
L 724.631862 206.320335 
L 725.001236 196.282445 
L 725.370609 202.387014 
L 725.739982 199.120893 
L 726.109356 205.048612 
L 726.848102 220.979021 
L 727.217476 209.230519 
L 727.586849 219.19491 
L 728.325596 205.658109 
L 728.694969 205.658132 
L 729.433716 225.334804 
L 730.172462 214.386761 
L 730.541836 214.386793 
L 730.911209 205.587214 
L 731.649956 209.544053 
L 732.019329 206.448988 
L 732.388703 182.805692 
L 732.758076 185.186685 
L 733.127449 184.832441 
L 733.496823 185.064743 
L 733.866196 196.871826 
L 734.235569 195.387414 
L 734.604943 196.43431 
L 734.974316 197.890595 
L 735.343689 195.833367 
L 735.713063 209.109485 
L 736.082436 201.519858 
L 736.451809 201.407706 
L 736.821183 204.918865 
L 737.190556 201.827008 
L 737.559929 200.01107 
L 737.929303 117.37202 
L 738.668049 144.76965 
L 739.776169 157.307587 
L 740.145543 164.999572 
L 740.514916 151.016636 
L 740.884289 106.619645 
L 741.623036 134.004805 
L 741.99241 130.006001 
L 742.361783 136.974319 
L 742.731156 151.183938 
L 743.10053 160.972261 
L 743.839276 169.392022 
L 744.20865 176.118157 
L 744.578023 172.495571 
L 744.947396 174.170701 
L 745.686143 184.051085 
L 746.055516 195.065526 
L 746.42489 190.383314 
L 747.163636 192.052731 
L 747.163636 192.052731 
" style="fill:none;stroke:#ff7f0e;stroke-linecap:square;stroke-width:1.5;"/>
   </g>
   <g id="patch_3">
    <path d="M 108 384.48 
L 108 51.84 
" style="fill:none;stroke:#000000;stroke-linecap:square;stroke-linejoin:miter;stroke-width:0.8;"/>
   </g>
   <g id="patch_4">
    <path d="M 777.6 384.48 
L 777.6 51.84 
" style="fill:none;stroke:#000000;stroke-linecap:square;stroke-linejoin:miter;stroke-width:0.8;"/>
   </g>
   <g id="patch_5">
    <path d="M 108 384.48 
L 777.6 384.48 
" style="fill:none;stroke:#000000;stroke-linecap:square;stroke-linejoin:miter;stroke-width:0.8;"/>
   </g>
   <g id="patch_6">
    <path d="M 108 51.84 
L 777.6 51.84 
" style="fill:none;stroke:#000000;stroke-linecap:square;stroke-linejoin:miter;stroke-width:0.8;"/>
   </g>
  </g>
 </g>
 <defs>
  <clipPath id="pa461bd8b80">
   <rect height="332.64" width="669.6" x="108" y="51.84"/>
  </clipPath>
 </defs>
</svg>
