<?xml version="1.0" encoding="utf-8" standalone="no"?>
<!DOCTYPE svg PUBLIC "-//W3C//DTD SVG 1.1//EN"
  "http://www.w3.org/Graphics/SVG/1.1/DTD/svg11.dtd">
<svg height="288pt" version="1.1" viewBox="0 0 576 288" width="576pt" xmlns="http://www.w3.org/2000/svg" xmlns:xlink="http://www.w3.org/1999/xlink">
 <metadata>
  <rdf:RDF xmlns:cc="http://creativecommons.org/ns#" xmlns:dc="http://purl.org/dc/elements/1.1/" xmlns:rdf="http://www.w3.org/1999/02/22-rdf-syntax-ns#">
   <cc:Work>
    <dc:type rdf:resource="http://purl.org/dc/dcmitype/StillImage"/>
    <dc:date>2022-01-06T21:21:53.170978</dc:date>
    <dc:format>image/svg+xml</dc:format>
    <dc:creator>
     <cc:Agent>
      <dc:title>Matplotlib v3.4.3, https://matplotlib.org/</dc:title>
     </cc:Agent>
    </dc:creator>
   </cc:Work>
  </rdf:RDF>
 </metadata>
 <defs>
  <style type="text/css">*{stroke-linecap:butt;stroke-linejoin:round;}</style>
 </defs>
 <g id="figure_1">
  <g id="patch_1">
   <path d="M 0 288 
L 576 288 
L 576 0 
L 0 0 
z
" style="fill:#ffffff;"/>
  </g>
  <g id="axes_1">
   <g id="patch_2">
    <path d="M 72 256.32 
L 518.4 256.32 
L 518.4 34.56 
L 72 34.56 
z
" style="fill:#ffffff;"/>
   </g>
   <g id="matplotlib.axis_1">
    <g id="xtick_1">
     <g id="line2d_1">
      <defs>
       <path d="M 0 0 
L 0 3.5 
" id="m64bd3e7dc4" style="stroke:#000000;stroke-width:0.8;"/>
      </defs>
      <g>
       <use style="stroke:#000000;stroke-width:0.8;" x="92.290909" xlink:href="#m64bd3e7dc4" y="256.32"/>
      </g>
     </g>
     <g id="text_1">
      <!-- 39000 -->
      <g transform="translate(76.384659 270.918437)scale(0.1 -0.1)">
       <defs>
        <path d="M 2597 2516 
Q 3050 2419 3304 2112 
Q 3559 1806 3559 1356 
Q 3559 666 3084 287 
Q 2609 -91 1734 -91 
Q 1441 -91 1130 -33 
Q 819 25 488 141 
L 488 750 
Q 750 597 1062 519 
Q 1375 441 1716 441 
Q 2309 441 2620 675 
Q 2931 909 2931 1356 
Q 2931 1769 2642 2001 
Q 2353 2234 1838 2234 
L 1294 2234 
L 1294 2753 
L 1863 2753 
Q 2328 2753 2575 2939 
Q 2822 3125 2822 3475 
Q 2822 3834 2567 4026 
Q 2313 4219 1838 4219 
Q 1578 4219 1281 4162 
Q 984 4106 628 3988 
L 628 4550 
Q 988 4650 1302 4700 
Q 1616 4750 1894 4750 
Q 2613 4750 3031 4423 
Q 3450 4097 3450 3541 
Q 3450 3153 3228 2886 
Q 3006 2619 2597 2516 
z
" id="DejaVuSans-33" transform="scale(0.015625)"/>
        <path d="M 703 97 
L 703 672 
Q 941 559 1184 500 
Q 1428 441 1663 441 
Q 2288 441 2617 861 
Q 2947 1281 2994 2138 
Q 2813 1869 2534 1725 
Q 2256 1581 1919 1581 
Q 1219 1581 811 2004 
Q 403 2428 403 3163 
Q 403 3881 828 4315 
Q 1253 4750 1959 4750 
Q 2769 4750 3195 4129 
Q 3622 3509 3622 2328 
Q 3622 1225 3098 567 
Q 2575 -91 1691 -91 
Q 1453 -91 1209 -44 
Q 966 3 703 97 
z
M 1959 2075 
Q 2384 2075 2632 2365 
Q 2881 2656 2881 3163 
Q 2881 3666 2632 3958 
Q 2384 4250 1959 4250 
Q 1534 4250 1286 3958 
Q 1038 3666 1038 3163 
Q 1038 2656 1286 2365 
Q 1534 2075 1959 2075 
z
" id="DejaVuSans-39" transform="scale(0.015625)"/>
        <path d="M 2034 4250 
Q 1547 4250 1301 3770 
Q 1056 3291 1056 2328 
Q 1056 1369 1301 889 
Q 1547 409 2034 409 
Q 2525 409 2770 889 
Q 3016 1369 3016 2328 
Q 3016 3291 2770 3770 
Q 2525 4250 2034 4250 
z
M 2034 4750 
Q 2819 4750 3233 4129 
Q 3647 3509 3647 2328 
Q 3647 1150 3233 529 
Q 2819 -91 2034 -91 
Q 1250 -91 836 529 
Q 422 1150 422 2328 
Q 422 3509 836 4129 
Q 1250 4750 2034 4750 
z
" id="DejaVuSans-30" transform="scale(0.015625)"/>
       </defs>
       <use xlink:href="#DejaVuSans-33"/>
       <use x="63.623047" xlink:href="#DejaVuSans-39"/>
       <use x="127.246094" xlink:href="#DejaVuSans-30"/>
       <use x="190.869141" xlink:href="#DejaVuSans-30"/>
       <use x="254.492188" xlink:href="#DejaVuSans-30"/>
      </g>
     </g>
    </g>
    <g id="xtick_2">
     <g id="line2d_2">
      <g>
       <use style="stroke:#000000;stroke-width:0.8;" x="153.853133" xlink:href="#m64bd3e7dc4" y="256.32"/>
      </g>
     </g>
     <g id="text_2">
      <!-- 39250 -->
      <g transform="translate(137.946883 270.918437)scale(0.1 -0.1)">
       <defs>
        <path d="M 1228 531 
L 3431 531 
L 3431 0 
L 469 0 
L 469 531 
Q 828 903 1448 1529 
Q 2069 2156 2228 2338 
Q 2531 2678 2651 2914 
Q 2772 3150 2772 3378 
Q 2772 3750 2511 3984 
Q 2250 4219 1831 4219 
Q 1534 4219 1204 4116 
Q 875 4013 500 3803 
L 500 4441 
Q 881 4594 1212 4672 
Q 1544 4750 1819 4750 
Q 2544 4750 2975 4387 
Q 3406 4025 3406 3419 
Q 3406 3131 3298 2873 
Q 3191 2616 2906 2266 
Q 2828 2175 2409 1742 
Q 1991 1309 1228 531 
z
" id="DejaVuSans-32" transform="scale(0.015625)"/>
        <path d="M 691 4666 
L 3169 4666 
L 3169 4134 
L 1269 4134 
L 1269 2991 
Q 1406 3038 1543 3061 
Q 1681 3084 1819 3084 
Q 2600 3084 3056 2656 
Q 3513 2228 3513 1497 
Q 3513 744 3044 326 
Q 2575 -91 1722 -91 
Q 1428 -91 1123 -41 
Q 819 9 494 109 
L 494 744 
Q 775 591 1075 516 
Q 1375 441 1709 441 
Q 2250 441 2565 725 
Q 2881 1009 2881 1497 
Q 2881 1984 2565 2268 
Q 2250 2553 1709 2553 
Q 1456 2553 1204 2497 
Q 953 2441 691 2322 
L 691 4666 
z
" id="DejaVuSans-35" transform="scale(0.015625)"/>
       </defs>
       <use xlink:href="#DejaVuSans-33"/>
       <use x="63.623047" xlink:href="#DejaVuSans-39"/>
       <use x="127.246094" xlink:href="#DejaVuSans-32"/>
       <use x="190.869141" xlink:href="#DejaVuSans-35"/>
       <use x="254.492188" xlink:href="#DejaVuSans-30"/>
      </g>
     </g>
    </g>
    <g id="xtick_3">
     <g id="line2d_3">
      <g>
       <use style="stroke:#000000;stroke-width:0.8;" x="215.415357" xlink:href="#m64bd3e7dc4" y="256.32"/>
      </g>
     </g>
     <g id="text_3">
      <!-- 39500 -->
      <g transform="translate(199.509107 270.918437)scale(0.1 -0.1)">
       <use xlink:href="#DejaVuSans-33"/>
       <use x="63.623047" xlink:href="#DejaVuSans-39"/>
       <use x="127.246094" xlink:href="#DejaVuSans-35"/>
       <use x="190.869141" xlink:href="#DejaVuSans-30"/>
       <use x="254.492188" xlink:href="#DejaVuSans-30"/>
      </g>
     </g>
    </g>
    <g id="xtick_4">
     <g id="line2d_4">
      <g>
       <use style="stroke:#000000;stroke-width:0.8;" x="276.977582" xlink:href="#m64bd3e7dc4" y="256.32"/>
      </g>
     </g>
     <g id="text_4">
      <!-- 39750 -->
      <g transform="translate(261.071332 270.918437)scale(0.1 -0.1)">
       <defs>
        <path d="M 525 4666 
L 3525 4666 
L 3525 4397 
L 1831 0 
L 1172 0 
L 2766 4134 
L 525 4134 
L 525 4666 
z
" id="DejaVuSans-37" transform="scale(0.015625)"/>
       </defs>
       <use xlink:href="#DejaVuSans-33"/>
       <use x="63.623047" xlink:href="#DejaVuSans-39"/>
       <use x="127.246094" xlink:href="#DejaVuSans-37"/>
       <use x="190.869141" xlink:href="#DejaVuSans-35"/>
       <use x="254.492188" xlink:href="#DejaVuSans-30"/>
      </g>
     </g>
    </g>
    <g id="xtick_5">
     <g id="line2d_5">
      <g>
       <use style="stroke:#000000;stroke-width:0.8;" x="338.539806" xlink:href="#m64bd3e7dc4" y="256.32"/>
      </g>
     </g>
     <g id="text_5">
      <!-- 40000 -->
      <g transform="translate(322.633556 270.918437)scale(0.1 -0.1)">
       <defs>
        <path d="M 2419 4116 
L 825 1625 
L 2419 1625 
L 2419 4116 
z
M 2253 4666 
L 3047 4666 
L 3047 1625 
L 3713 1625 
L 3713 1100 
L 3047 1100 
L 3047 0 
L 2419 0 
L 2419 1100 
L 313 1100 
L 313 1709 
L 2253 4666 
z
" id="DejaVuSans-34" transform="scale(0.015625)"/>
       </defs>
       <use xlink:href="#DejaVuSans-34"/>
       <use x="63.623047" xlink:href="#DejaVuSans-30"/>
       <use x="127.246094" xlink:href="#DejaVuSans-30"/>
       <use x="190.869141" xlink:href="#DejaVuSans-30"/>
       <use x="254.492188" xlink:href="#DejaVuSans-30"/>
      </g>
     </g>
    </g>
    <g id="xtick_6">
     <g id="line2d_6">
      <g>
       <use style="stroke:#000000;stroke-width:0.8;" x="400.10203" xlink:href="#m64bd3e7dc4" y="256.32"/>
      </g>
     </g>
     <g id="text_6">
      <!-- 40250 -->
      <g transform="translate(384.19578 270.918437)scale(0.1 -0.1)">
       <use xlink:href="#DejaVuSans-34"/>
       <use x="63.623047" xlink:href="#DejaVuSans-30"/>
       <use x="127.246094" xlink:href="#DejaVuSans-32"/>
       <use x="190.869141" xlink:href="#DejaVuSans-35"/>
       <use x="254.492188" xlink:href="#DejaVuSans-30"/>
      </g>
     </g>
    </g>
    <g id="xtick_7">
     <g id="line2d_7">
      <g>
       <use style="stroke:#000000;stroke-width:0.8;" x="461.664254" xlink:href="#m64bd3e7dc4" y="256.32"/>
      </g>
     </g>
     <g id="text_7">
      <!-- 40500 -->
      <g transform="translate(445.758004 270.918437)scale(0.1 -0.1)">
       <use xlink:href="#DejaVuSans-34"/>
       <use x="63.623047" xlink:href="#DejaVuSans-30"/>
       <use x="127.246094" xlink:href="#DejaVuSans-35"/>
       <use x="190.869141" xlink:href="#DejaVuSans-30"/>
       <use x="254.492188" xlink:href="#DejaVuSans-30"/>
      </g>
     </g>
    </g>
   </g>
   <g id="matplotlib.axis_2">
    <g id="ytick_1">
     <g id="line2d_8">
      <defs>
       <path d="M 0 0 
L -3.5 0 
" id="meb2e846420" style="stroke:#000000;stroke-width:0.8;"/>
      </defs>
      <g>
       <use style="stroke:#000000;stroke-width:0.8;" x="72" xlink:href="#meb2e846420" y="229.61804"/>
      </g>
     </g>
     <g id="text_8">
      <!-- −3 -->
      <g transform="translate(50.257812 233.417259)scale(0.1 -0.1)">
       <defs>
        <path d="M 678 2272 
L 4684 2272 
L 4684 1741 
L 678 1741 
L 678 2272 
z
" id="DejaVuSans-2212" transform="scale(0.015625)"/>
       </defs>
       <use xlink:href="#DejaVuSans-2212"/>
       <use x="83.789062" xlink:href="#DejaVuSans-33"/>
      </g>
     </g>
    </g>
    <g id="ytick_2">
     <g id="line2d_9">
      <g>
       <use style="stroke:#000000;stroke-width:0.8;" x="72" xlink:href="#meb2e846420" y="196.303544"/>
      </g>
     </g>
     <g id="text_9">
      <!-- −2 -->
      <g transform="translate(50.257812 200.102762)scale(0.1 -0.1)">
       <use xlink:href="#DejaVuSans-2212"/>
       <use x="83.789062" xlink:href="#DejaVuSans-32"/>
      </g>
     </g>
    </g>
    <g id="ytick_3">
     <g id="line2d_10">
      <g>
       <use style="stroke:#000000;stroke-width:0.8;" x="72" xlink:href="#meb2e846420" y="162.989047"/>
      </g>
     </g>
     <g id="text_10">
      <!-- −1 -->
      <g transform="translate(50.257812 166.788265)scale(0.1 -0.1)">
       <defs>
        <path d="M 794 531 
L 1825 531 
L 1825 4091 
L 703 3866 
L 703 4441 
L 1819 4666 
L 2450 4666 
L 2450 531 
L 3481 531 
L 3481 0 
L 794 0 
L 794 531 
z
" id="DejaVuSans-31" transform="scale(0.015625)"/>
       </defs>
       <use xlink:href="#DejaVuSans-2212"/>
       <use x="83.789062" xlink:href="#DejaVuSans-31"/>
      </g>
     </g>
    </g>
    <g id="ytick_4">
     <g id="line2d_11">
      <g>
       <use style="stroke:#000000;stroke-width:0.8;" x="72" xlink:href="#meb2e846420" y="129.67455"/>
      </g>
     </g>
     <g id="text_11">
      <!-- 0 -->
      <g transform="translate(58.6375 133.473769)scale(0.1 -0.1)">
       <use xlink:href="#DejaVuSans-30"/>
      </g>
     </g>
    </g>
    <g id="ytick_5">
     <g id="line2d_12">
      <g>
       <use style="stroke:#000000;stroke-width:0.8;" x="72" xlink:href="#meb2e846420" y="96.360053"/>
      </g>
     </g>
     <g id="text_12">
      <!-- 1 -->
      <g transform="translate(58.6375 100.159272)scale(0.1 -0.1)">
       <use xlink:href="#DejaVuSans-31"/>
      </g>
     </g>
    </g>
    <g id="ytick_6">
     <g id="line2d_13">
      <g>
       <use style="stroke:#000000;stroke-width:0.8;" x="72" xlink:href="#meb2e846420" y="63.045556"/>
      </g>
     </g>
     <g id="text_13">
      <!-- 2 -->
      <g transform="translate(58.6375 66.844775)scale(0.1 -0.1)">
       <use xlink:href="#DejaVuSans-32"/>
      </g>
     </g>
    </g>
   </g>
   <g id="line2d_14">
    <path clip-path="url(#p8327ab5a63)" d="M 92.290909 168.747402 
L 92.537158 168.062073 
L 92.290909 168.062073 
L 92.783407 168.062073 
L 93.029656 161.611517 
L 93.768402 161.611517 
L 94.014651 135.274422 
L 94.2609 134.497629 
L 94.014651 134.497629 
L 94.753398 134.497629 
L 94.999647 137.191244 
L 95.492145 164.559191 
L 95.738394 164.559191 
L 96.230891 161.486335 
L 96.723389 161.486335 
L 96.969638 167.689615 
L 97.215887 184.132178 
L 97.462136 184.132178 
L 97.708385 187.83474 
L 97.954634 187.83474 
L 98.447132 172.083139 
L 99.185878 172.083139 
L 99.432127 167.531294 
L 99.678376 176.057577 
L 99.924625 176.057577 
L 100.170874 180.040718 
L 100.417123 180.040718 
L 100.663372 186.839153 
L 101.155869 186.839153 
L 101.402118 178.636469 
L 101.648367 178.636469 
L 101.894616 176.684197 
L 102.140865 176.684197 
L 102.387114 182.997648 
L 102.633363 170.338027 
L 102.879612 183.601248 
L 103.372109 183.601248 
L 103.864607 156.519623 
L 104.110856 169.960963 
L 104.357105 155.642505 
L 104.603354 155.092676 
L 104.849603 155.642505 
L 105.095852 155.642505 
L 105.342101 170.059912 
L 105.58835 170.059912 
L 105.834598 182.146533 
L 106.080847 158.317365 
L 106.327096 158.317365 
L 106.573345 168.209767 
L 106.819594 168.307322 
L 107.312092 168.209767 
L 107.558341 158.143171 
L 108.050838 158.143171 
L 108.543336 169.843135 
L 108.789585 170.297435 
L 109.035834 170.297435 
L 109.282083 172.639322 
L 109.528332 172.134987 
L 110.02083 166.573573 
L 110.267079 165.808908 
L 110.513327 155.809078 
L 110.759576 152.923469 
L 111.005825 161.974345 
L 111.498323 146.774602 
L 111.744572 157.452742 
L 111.990821 157.452742 
L 112.23707 146.774602 
L 112.483319 144.462305 
L 112.729568 157.452742 
L 112.975816 144.462305 
L 113.222065 166.271384 
L 113.468314 166.271384 
L 113.714563 164.173418 
L 114.207061 164.173418 
L 114.45331 157.149786 
L 114.945808 169.090379 
L 115.192056 167.045237 
L 115.930803 167.045237 
L 116.177052 167.296961 
L 116.423301 167.296961 
L 116.66955 164.22421 
L 117.408297 164.22421 
L 117.654545 162.560112 
L 118.147043 162.560112 
L 118.393292 162.08354 
L 118.639541 168.156124 
L 119.132039 168.156124 
L 119.378288 150.694181 
L 119.624537 144.723594 
L 119.870786 144.483334 
L 120.609532 144.483334 
L 121.10203 165.64396 
L 121.348279 168.338978 
L 121.594528 168.72199 
L 122.087026 168.72199 
L 122.333274 155.621109 
L 122.579523 168.72199 
L 122.825772 170.69937 
L 123.072021 164.577995 
L 123.31827 164.577995 
L 123.564519 164.806058 
L 124.303266 164.806058 
L 124.795763 167.94907 
L 125.042012 171.465234 
L 125.288261 172.880582 
L 125.53451 172.880582 
L 125.288261 172.880582 
L 125.780759 200.71486 
L 125.53451 200.71486 
L 126.027008 176.495499 
L 126.273257 176.495499 
L 126.519506 165.880408 
L 126.765755 165.880408 
L 127.012004 165.307666 
L 127.258252 197.028066 
L 127.504501 169.961403 
L 127.996999 169.961403 
L 127.75075 169.961403 
L 128.243248 165.209838 
L 128.981995 165.209838 
L 129.228244 162.75351 
L 129.720741 150.961562 
L 129.96699 150.961562 
L 130.213239 156.29796 
L 130.459488 156.544865 
L 130.705737 157.992253 
L 130.951986 174.052971 
L 131.198235 174.693696 
L 131.444484 197.29435 
L 131.690733 197.29435 
L 131.936981 192.821939 
L 132.18323 160.343327 
L 132.921977 160.343327 
L 133.168226 160.895621 
L 133.414475 168.013231 
L 133.660724 169.870371 
L 133.906973 166.652175 
L 134.153222 166.652175 
L 134.39947 177.866512 
L 134.645719 179.231954 
L 135.138217 179.231954 
L 135.384466 183.891509 
L 135.630715 183.891509 
L 136.123213 214.681536 
L 136.369462 214.681536 
L 136.615711 199.64628 
L 136.861959 197.320004 
L 137.108208 190.710573 
L 137.600706 190.710573 
L 137.354457 165.967475 
L 137.846955 165.967475 
L 138.093204 161.448002 
L 138.585702 161.448002 
L 138.831951 185.719124 
L 139.078199 185.719124 
L 139.324448 195.927933 
L 139.570697 195.927933 
L 139.816946 192.848367 
L 140.063195 172.950324 
L 140.309444 180.733425 
L 141.29444 180.733425 
L 141.540688 164.415255 
L 142.033186 154.084894 
L 142.279435 158.2834 
L 142.525684 151.202908 
L 142.771933 151.202908 
L 143.018182 166.754013 
L 143.264431 165.898325 
L 143.51068 165.898325 
L 143.264431 153.192776 
L 143.756929 153.192776 
L 144.003177 147.890311 
L 144.249426 147.890311 
L 144.495675 162.996707 
L 144.741924 165.984193 
L 144.988173 202.599283 
L 145.234422 165.984193 
L 145.480671 165.984193 
L 145.72692 178.221033 
L 145.973169 169.510189 
L 146.219417 155.356649 
L 146.465666 153.345906 
L 146.711915 164.692936 
L 146.958164 153.345906 
L 147.204413 153.345906 
L 147.450662 164.692936 
L 147.696911 167.332741 
L 147.94316 167.697979 
L 148.189409 171.01536 
L 148.435658 203.972852 
L 148.681906 203.972852 
L 148.928155 207.35393 
L 149.174404 207.35393 
L 149.666902 177.002582 
L 149.913151 177.002582 
L 150.1594 173.054515 
L 150.405649 177.002582 
L 150.651898 200.395419 
L 150.898147 200.395419 
L 150.651898 200.395419 
L 151.390644 221.150159 
L 151.636893 221.150159 
L 151.883142 228.261212 
L 152.129391 221.89231 
L 153.114387 221.89231 
L 153.360635 220.41604 
L 153.606884 223.717875 
L 153.853133 223.717875 
L 154.099382 220.41604 
L 154.345631 223.717875 
L 154.59188 207.263067 
L 155.084378 207.263067 
L 155.330627 175.528233 
L 155.576876 175.528233 
L 155.823124 155.879742 
L 156.069373 167.430627 
L 156.315622 166.927797 
L 156.561871 166.927797 
L 156.80812 167.430627 
L 157.054369 167.430627 
L 157.300618 171.121118 
L 157.546867 162.75351 
L 157.793116 162.75351 
L 158.039365 171.121118 
L 158.285613 163.526275 
L 158.531862 178.621143 
L 158.778111 178.621143 
L 159.02436 163.526275 
L 159.270609 163.526275 
L 159.516858 162.75351 
L 159.763107 162.75351 
L 160.009356 163.700467 
L 159.516858 163.700467 
L 160.255605 150.497302 
L 160.748102 150.497302 
L 160.994351 144.816788 
L 161.2406 150.497302 
L 161.486849 144.816788 
L 161.733098 155.795961 
L 161.979347 203.184376 
L 162.225596 203.184376 
L 162.471845 166.155754 
L 163.210591 166.122939 
L 163.45684 173.648489 
L 163.703089 173.648489 
L 163.949338 183.492911 
L 164.195587 187.341312 
L 164.441836 242.381013 
L 164.688085 193.412057 
L 165.180583 193.412057 
L 165.67308 134.248038 
L 165.919329 158.968069 
L 166.165578 158.968069 
L 166.411827 124.478229 
L 166.658076 124.478229 
L 166.904325 153.482692 
L 167.150574 154.183048 
L 167.396823 209.295283 
L 167.643071 185.182659 
L 167.88932 210.89199 
L 168.135569 185.182659 
L 168.381818 217.61536 
L 168.628067 185.182659 
L 168.874316 217.61536 
L 169.120565 166.206913 
L 169.366814 194.074004 
L 169.859312 194.074004 
L 170.10556 168.571876 
L 170.351809 168.571876 
L 170.598058 150.651191 
L 170.844307 150.651191 
L 171.090556 168.571876 
L 171.336805 178.392599 
L 171.829303 216.84658 
L 172.075552 206.837689 
L 172.568049 206.755945 
L 172.814298 198.902149 
L 173.306796 198.902149 
L 173.553045 212.466711 
L 173.799294 212.466711 
L 174.045543 182.971897 
L 174.291792 186.169265 
L 174.538041 136.677372 
L 174.784289 136.677372 
L 175.030538 155.84225 
L 175.276787 186.169265 
L 175.523036 244.053483 
L 175.769285 218.405822 
L 176.015534 218.405822 
L 176.261783 190.569499 
L 176.754281 167.852589 
L 177.00053 167.852589 
L 177.246778 145.070687 
L 177.493027 145.070687 
L 178.231774 186.133842 
L 178.478023 189.266894 
L 179.21677 189.266894 
L 179.463019 182.016398 
L 179.709267 182.016398 
L 179.955516 213.449176 
L 180.201765 182.016398 
L 180.448014 213.449176 
L 180.940512 213.449176 
L 181.186761 211.065494 
L 181.679259 211.065494 
L 181.925508 206.487298 
L 182.171756 156.816102 
L 182.664254 156.816102 
L 182.910503 129.871204 
L 183.403001 129.871204 
L 183.64925 149.911166 
L 183.403001 152.546018 
L 183.895499 152.546018 
L 184.141748 149.911166 
L 184.387996 152.546018 
L 184.634245 152.546018 
L 183.64925 158.252497 
L 184.880494 166.178674 
L 185.126743 166.178674 
L 185.372992 166.32779 
L 185.619241 166.32779 
L 185.86549 161.942479 
L 186.111739 150.135991 
L 186.604237 150.135991 
L 186.850485 166.794723 
L 187.342983 182.477843 
L 187.589232 182.375919 
L 187.835481 166.609945 
L 188.820477 166.569297 
L 189.066726 159.668967 
L 189.559223 179.45374 
L 189.805472 169.42818 
L 190.29797 169.42818 
L 190.544219 176.312963 
L 190.790468 158.192251 
L 191.036717 176.312963 
L 191.529214 133.78876 
L 191.775463 133.78876 
L 192.021712 165.879032 
L 192.51421 165.879032 
L 192.760459 164.08624 
L 193.006708 149.640304 
L 193.252957 146.704044 
L 193.499206 141.771937 
L 193.745455 130.319255 
L 193.991703 127.495482 
L 194.237952 130.319255 
L 194.484201 149.640304 
L 194.73045 149.640304 
L 194.976699 140.339483 
L 195.222948 140.339483 
L 195.469197 144.196477 
L 195.715446 141.427517 
L 196.700441 141.427517 
L 196.94669 134.811292 
L 197.192939 157.439018 
L 197.439188 157.439018 
L 197.685437 160.535742 
L 197.931686 160.535742 
L 198.177935 148.693863 
L 197.685437 147.706698 
L 198.424184 137.230438 
L 198.916681 137.230438 
L 199.16293 139.751074 
L 199.409179 139.751074 
L 199.655428 144.413696 
L 199.901677 151.423093 
L 200.394175 152.086973 
L 200.640424 154.050329 
L 200.886673 154.050329 
L 201.132921 157.602486 
L 201.37917 167.613707 
L 201.625419 167.613707 
L 201.871668 174.722895 
L 202.856664 145.605278 
L 203.102913 145.605278 
L 202.856664 145.605278 
L 203.349162 144.997779 
L 203.59541 144.997779 
L 203.841659 145.947307 
L 204.580406 145.947307 
L 204.826655 139.268014 
L 205.319153 139.268014 
L 205.565402 164.66975 
L 205.81165 173.600298 
L 206.057899 176.062347 
L 206.304148 173.600298 
L 205.81165 175.631574 
L 206.550397 173.600298 
L 206.796646 163.099125 
L 207.042895 160.700679 
L 207.289144 160.700679 
L 207.535393 152.927488 
L 207.781642 152.927488 
L 208.027891 148.753843 
L 208.520388 156.466068 
L 208.766637 156.466068 
L 209.012886 151.614268 
L 209.259135 153.150008 
L 209.505384 151.614268 
L 209.751633 153.150008 
L 209.997882 166.767569 
L 210.244131 169.582344 
L 210.49038 169.582344 
L 210.736628 169.209559 
L 210.982877 169.582344 
L 211.229126 147.237764 
L 211.721624 147.237764 
L 211.967873 137.073597 
L 212.214122 146.184177 
L 212.460371 162.313234 
L 212.70662 151.529843 
L 212.952868 151.529843 
L 213.199117 160.285214 
L 213.691615 160.285214 
L 213.937864 160.767748 
L 214.676611 160.767748 
L 214.92286 156.814144 
L 215.169109 144.233723 
L 215.415357 137.520937 
L 215.907855 137.520937 
L 216.154104 138.762689 
L 216.646602 153.326932 
L 216.892851 153.326932 
L 217.1391 158.94412 
L 217.385349 153.326932 
L 217.631598 156.38452 
L 217.877846 156.159165 
L 218.370344 156.159165 
L 218.616593 156.38452 
L 218.862842 156.159165 
L 219.109091 163.005983 
L 219.35534 163.005983 
L 219.847838 139.924106 
L 220.094086 142.516824 
L 219.847838 142.516824 
L 220.340335 142.516824 
L 220.586584 161.88106 
L 220.832833 163.144392 
L 221.325331 163.144392 
L 221.57158 157.889081 
L 221.817829 156.045198 
L 222.064078 156.045198 
L 222.310327 157.717047 
L 222.556575 157.717047 
L 222.802824 166.715528 
L 223.049073 166.715528 
L 223.295322 165.788569 
L 223.541571 165.788569 
L 223.78782 159.914871 
L 224.034069 160.049919 
L 224.280318 160.049919 
L 224.526567 162.443418 
L 224.772816 168.648041 
L 225.019064 170.516012 
L 225.265313 170.516012 
L 225.511562 171.100468 
L 225.757811 174.85811 
L 226.00406 174.85811 
L 226.250309 184.827544 
L 226.496558 184.827544 
L 226.742807 158.41644 
L 226.989056 156.054953 
L 227.235305 152.162901 
L 227.481553 156.054953 
L 227.727802 150.814863 
L 227.974051 187.082914 
L 228.2203 180.858816 
L 228.466549 146.406056 
L 228.712798 147.637105 
L 228.959047 145.418422 
L 229.205296 140.688231 
L 230.190291 140.688231 
L 230.43654 148.236528 
L 231.175287 148.236528 
L 231.421536 149.49676 
L 231.667785 152.5061 
L 231.914034 152.5061 
L 232.160282 161.527888 
L 232.406531 161.527888 
L 232.65278 174.801479 
L 232.899029 161.527888 
L 233.145278 161.527888 
L 233.391527 148.128081 
L 233.637776 148.128081 
L 233.884025 147.459747 
L 234.130274 148.128081 
L 234.376523 154.685653 
L 234.622771 154.685653 
L 234.86902 147.459747 
L 235.115269 146.554623 
L 235.607767 146.554623 
L 235.854016 149.327313 
L 236.346514 149.327313 
L 236.592763 158.940018 
L 236.839011 163.205666 
L 237.331509 163.205666 
L 237.577758 160.199428 
L 237.331509 158.957602 
L 237.824007 148.537698 
L 238.316505 144.801186 
L 238.562754 144.801186 
L 239.3015 149.577738 
L 239.547749 149.577738 
L 240.040247 153.594778 
L 240.286496 154.043683 
L 240.532745 154.043683 
L 240.778994 158.316406 
L 241.025243 158.796529 
L 241.271492 165.053194 
L 241.517741 174.481893 
L 241.763989 174.481893 
L 241.517741 176.118278 
L 242.010238 176.118278 
L 242.256487 172.993406 
L 242.502736 150.663864 
L 242.748985 150.647006 
L 242.995234 149.925647 
L 243.241483 149.925647 
L 243.487732 148.914066 
L 243.733981 142.559435 
L 243.980229 148.740062 
L 244.226478 142.559435 
L 244.472727 142.559435 
L 244.718976 148.740062 
L 244.965225 150.062766 
L 245.211474 155.544921 
L 245.703972 155.544921 
L 245.950221 151.601888 
L 246.19647 149.548582 
L 246.935216 149.548582 
L 247.181465 151.219796 
L 248.166461 151.219796 
L 248.41271 150.071345 
L 248.658959 150.482237 
L 248.905207 150.482237 
L 249.151456 155.611851 
L 249.397705 150.482237 
L 249.643954 151.606767 
L 250.136452 171.011953 
L 250.382701 151.606767 
L 250.62895 171.011953 
L 250.875199 178.304797 
L 251.367696 178.268793 
L 251.613945 158.946703 
L 251.367696 158.946703 
L 251.860194 154.329364 
L 252.106443 154.329364 
L 252.352692 138.826316 
L 252.84519 138.826316 
L 253.337688 145.470117 
L 253.583936 146.845406 
L 253.830185 149.621154 
L 254.076434 162.07772 
L 254.322683 162.07772 
L 254.568932 149.621154 
L 254.815181 154.43987 
L 255.307679 154.43987 
L 255.553928 173.258876 
L 255.800177 174.990838 
L 256.292674 174.990838 
L 256.538923 174.403157 
L 256.785172 153.925605 
L 257.031421 173.551781 
L 257.27767 173.551781 
L 257.523919 168.909797 
L 257.770168 168.909797 
L 257.523919 167.024776 
L 258.016417 162.97607 
L 258.262665 162.97607 
L 258.508914 162.402276 
L 258.755163 162.402276 
L 259.001412 147.134182 
L 259.247661 162.402276 
L 259.49391 169.580626 
L 259.740159 169.580626 
L 259.986408 169.395373 
L 260.232657 169.395373 
L 260.725154 151.508939 
L 261.217652 151.508939 
L 261.463901 145.11188 
L 261.71015 145.11188 
L 261.956399 151.556014 
L 262.202648 151.782187 
L 262.448897 151.556014 
L 262.941395 151.556014 
L 263.187643 154.887892 
L 263.433892 150.404869 
L 263.680141 150.404869 
L 263.92639 148.856843 
L 264.172639 148.856843 
L 264.418888 143.095063 
L 264.665137 140.688231 
L 264.911386 140.382376 
L 265.403883 140.382376 
L 265.650132 145.461144 
L 265.896381 147.894376 
L 266.14263 149.035451 
L 266.388879 147.894376 
L 266.635128 149.035451 
L 266.881377 149.035451 
L 267.127626 156.00797 
L 267.373875 156.526359 
L 267.866372 173.280491 
L 268.112621 173.280491 
L 268.35887 150.871783 
L 268.605119 145.453226 
L 268.851368 145.453226 
L 269.097617 150.176442 
L 268.851368 150.176442 
L 269.590115 150.176442 
L 269.836364 157.123605 
L 270.082613 149.528932 
L 270.328861 149.528932 
L 270.57511 152.184792 
L 270.821359 157.123605 
L 271.067608 157.608221 
L 271.313857 157.608221 
L 271.560106 152.184792 
L 271.806355 157.608221 
L 272.052604 150.127635 
L 273.283848 150.212024 
L 273.530097 146.189282 
L 274.022595 155.570515 
L 274.268844 145.544178 
L 274.515093 153.788504 
L 274.761342 146.314131 
L 275.00759 146.314131 
L 275.253839 156.931865 
L 275.500088 156.931865 
L 275.746337 162.053875 
L 275.992586 162.053875 
L 276.238835 148.026821 
L 276.485084 146.189119 
L 276.731333 148.026821 
L 276.977582 146.189119 
L 277.223831 146.189119 
L 276.977582 146.189119 
L 277.470079 137.467457 
L 277.716328 136.655391 
L 278.208826 136.655391 
L 278.701324 150.17163 
L 278.947573 152.966648 
L 279.193822 163.666255 
L 279.440071 163.666255 
L 279.68632 159.120808 
L 279.932568 158.42571 
L 280.178817 159.120808 
L 280.671315 159.048818 
L 280.917564 146.724442 
L 281.163813 157.568118 
L 280.917564 157.568118 
L 281.410062 148.607902 
L 281.656311 148.607902 
L 281.90256 149.681624 
L 282.395057 149.681624 
L 282.148808 163.205548 
L 282.887555 163.205548 
L 283.133804 146.142397 
L 283.380053 146.142397 
L 283.626302 145.194859 
L 283.872551 146.142397 
L 284.1188 145.194859 
L 284.611297 145.194859 
L 284.857546 151.932394 
L 285.103795 123.681567 
L 285.350044 151.932394 
L 285.596293 151.932394 
L 285.842542 139.244113 
L 286.33504 139.244113 
L 286.581289 126.657482 
L 286.827538 133.439129 
L 287.320035 133.439129 
L 287.566284 147.331808 
L 287.812533 147.331808 
L 288.058782 152.921675 
L 288.55128 147.331808 
L 288.797529 146.271175 
L 289.043778 146.271175 
L 289.290026 145.357763 
L 289.536275 139.508981 
L 289.782524 145.357763 
L 290.028773 146.237499 
L 290.275022 150.062766 
L 290.521271 174.788277 
L 291.013769 174.788277 
L 291.260018 183.584535 
L 291.506267 165.715302 
L 291.998764 165.715302 
L 292.245013 148.860041 
L 292.491262 147.04404 
L 292.737511 146.681297 
L 292.98376 146.097486 
L 293.230009 146.097486 
L 293.476258 146.681297 
L 293.722507 174.387873 
L 293.968756 174.387873 
L 294.215004 174.682521 
L 294.461253 139.084468 
L 294.707502 139.084468 
L 294.953751 140.644334 
L 295.446249 140.644334 
L 295.692498 142.378953 
L 295.938747 142.378953 
L 296.184996 145.889743 
L 296.431244 142.378953 
L 296.677493 142.378953 
L 296.923742 145.889743 
L 296.677493 156.429858 
L 297.169991 141.710385 
L 297.41624 159.617733 
L 297.662489 159.617733 
L 298.154987 137.614707 
L 298.401236 145.875543 
L 298.647485 145.875543 
L 298.893733 137.614707 
L 299.139982 139.715102 
L 299.386231 144.750671 
L 299.878729 144.750671 
L 300.124978 150.032672 
L 300.371227 150.032672 
L 300.617476 153.852627 
L 299.878729 153.852627 
L 300.863725 153.852627 
L 301.109974 142.673358 
L 301.356222 164.928035 
L 301.602471 145.847347 
L 301.84872 142.673358 
L 302.094969 145.847347 
L 302.587467 145.847347 
L 302.833716 141.338832 
L 303.079965 149.686132 
L 303.326214 150.750239 
L 303.572462 151.203644 
L 303.818711 193.691167 
L 304.06496 193.691167 
L 304.311209 238.83789 
L 304.557458 146.999642 
L 304.803707 146.999642 
L 305.049956 170.137811 
L 305.296205 146.999642 
L 305.542454 166.529023 
L 305.788703 166.529023 
L 306.034951 149.035791 
L 306.2812 150.066449 
L 306.527449 149.035791 
L 306.773698 149.035791 
L 307.019947 148.710358 
L 307.266196 148.190031 
L 307.512445 136.086454 
L 307.758694 148.190031 
L 308.004943 136.686145 
L 308.251192 136.686145 
L 308.49744 138.592831 
L 308.743689 148.765682 
L 308.989938 153.611007 
L 309.482436 153.611007 
L 309.728685 150.500934 
L 309.974934 132.167352 
L 310.221183 132.167352 
L 310.467432 150.500934 
L 310.71368 138.98849 
L 310.959929 151.627114 
L 311.206178 151.627114 
L 311.452427 145.173751 
L 312.191174 145.173751 
L 312.437423 144.750671 
L 312.683672 148.6771 
L 312.929921 148.828436 
L 313.176169 144.750671 
L 313.422418 149.999211 
L 313.668667 136.421358 
L 313.914916 136.686145 
L 314.161165 145.570149 
L 314.407414 136.686145 
L 314.653663 145.570149 
L 314.899912 145.570149 
L 315.146161 144.800918 
L 315.39241 139.055844 
L 315.638658 144.800918 
L 316.131156 144.800918 
L 316.377405 149.969145 
L 316.623654 150.062766 
L 316.131156 149.969145 
L 316.869903 148.723684 
L 317.116152 150.062766 
L 317.60865 164.265975 
L 318.101147 164.265975 
L 318.347396 138.710313 
L 319.086143 138.710313 
L 319.332392 145.909523 
L 319.578641 145.909523 
L 319.82489 135.871832 
L 320.071139 135.871832 
L 320.317387 136.383133 
L 320.809885 136.383133 
L 321.056134 140.002012 
L 321.302383 140.002012 
L 321.548632 130.516741 
L 322.04113 153.454307 
L 322.287379 153.454307 
L 322.533628 157.775858 
L 322.779876 141.058906 
L 323.026125 141.058906 
L 323.272374 148.848333 
L 323.764872 148.848333 
L 324.25737 197.647587 
L 324.996117 197.647587 
L 325.242365 143.285039 
L 324.996117 143.285039 
L 325.488614 144.325579 
L 325.981112 144.325579 
L 326.227361 150.777984 
L 326.47361 149.029721 
L 326.227361 149.029721 
L 326.719859 149.029721 
L 326.966108 144.246713 
L 327.458605 144.246713 
L 327.704854 148.228385 
L 327.212357 150.69001 
L 327.951103 185.178637 
L 328.197352 166.64174 
L 328.443601 166.64174 
L 328.68985 147.580624 
L 328.936099 158.943466 
L 329.428597 158.943466 
L 329.674846 161.337943 
L 329.921094 158.943466 
L 329.428597 161.337943 
L 329.921094 146.190043 
L 330.167343 150.195979 
L 330.413592 146.190043 
L 330.659841 150.195979 
L 330.90609 145.273293 
L 331.152339 148.108151 
L 331.398588 145.273293 
L 331.891086 145.273293 
L 332.137335 146.865931 
L 332.383583 146.865931 
L 332.629832 150.241271 
L 332.876081 150.241271 
L 333.12233 154.849755 
L 333.368579 154.849755 
L 333.614828 150.062766 
L 334.107326 159.858921 
L 334.353575 150.062766 
L 334.599823 163.957343 
L 334.846072 163.957343 
L 335.092321 153.300968 
L 335.584819 153.300968 
L 335.831068 152.64287 
L 336.077317 153.300968 
L 336.323566 155.92497 
L 337.062312 155.92497 
L 337.308561 202.320134 
L 337.55481 202.320134 
L 337.801059 145.513814 
L 338.047308 142.093414 
L 338.293557 142.093414 
L 338.539806 140.658245 
L 338.786055 140.658245 
L 339.278553 146.198838 
L 339.524801 146.198838 
L 339.77105 146.980402 
L 340.017299 149.905704 
L 340.263548 236.441487 
L 340.509797 236.441487 
L 341.248544 151.918603 
L 341.494793 161.900209 
L 341.741041 151.918603 
L 341.98729 164.388976 
L 342.233539 246.24 
L 342.479788 246.24 
L 342.726037 171.840495 
L 342.972286 146.284991 
L 343.464784 146.284991 
L 343.711033 148.738483 
L 344.449779 148.738483 
L 344.696028 153.722596 
L 344.942277 156.17368 
L 345.188526 153.722596 
L 344.942277 153.722596 
L 345.434775 153.722596 
L 345.681024 163.125622 
L 345.927273 150.120057 
L 346.173522 150.062766 
L 346.419771 148.267192 
L 347.158517 148.267192 
L 347.404766 150.062766 
L 347.651015 153.318492 
L 347.897264 153.646009 
L 348.143513 208.243734 
L 348.389762 208.243734 
L 348.636011 176.267488 
L 348.882259 236.835522 
L 349.128508 176.267488 
L 349.374757 152.558825 
L 349.621006 142.536777 
L 349.867255 152.558825 
L 350.113504 152.558825 
L 350.606002 153.577778 
L 350.852251 153.598882 
L 351.0985 155.625289 
L 351.837246 155.625289 
L 352.083495 137.641865 
L 351.837246 136.686145 
L 352.329744 137.641865 
L 352.575993 149.998689 
L 353.807237 150.062766 
L 354.053486 156.618536 
L 354.792233 156.618536 
L 354.053486 178.427389 
L 355.038482 152.449644 
L 355.284731 217.155616 
L 355.53098 209.197585 
L 355.777229 188.267302 
L 356.269726 188.267302 
L 356.515975 171.391577 
L 356.762224 171.391577 
L 357.008473 155.118735 
L 357.254722 155.118735 
L 357.500971 153.351843 
L 357.74722 156.340541 
L 357.993469 156.340541 
L 358.239718 153.352212 
L 358.485966 156.340541 
L 358.732215 153.352212 
L 358.978464 153.352212 
L 358.239718 144.526723 
L 359.224713 154.108279 
L 359.717211 154.108279 
L 359.96346 146.310714 
L 360.455958 146.310714 
L 360.209709 146.310714 
L 360.455958 150.372861 
L 360.702207 150.372861 
L 361.194704 209.757814 
L 361.440953 209.757814 
L 361.687202 188.525072 
L 361.933451 188.525072 
L 362.1797 153.797183 
L 362.672198 136.383133 
L 362.918447 136.383133 
L 363.164695 143.441441 
L 363.410944 146.218776 
L 363.657193 153.107155 
L 363.903442 165.193339 
L 364.149691 201.824224 
L 364.39594 165.193339 
L 364.642189 165.193339 
L 364.888438 136.421358 
L 365.134687 136.421358 
L 365.380936 136.640977 
L 365.627184 138.139799 
L 365.873433 153.142629 
L 366.119682 153.142629 
L 366.365931 154.798244 
L 366.61218 158.709007 
L 367.104678 158.709007 
L 367.350927 137.562157 
L 367.597176 137.562157 
L 367.843425 144.750671 
L 368.089673 144.750671 
L 367.843425 179.968049 
L 368.335922 179.968049 
L 368.582171 167.074621 
L 369.074669 158.062164 
L 369.320918 148.509199 
L 369.567167 148.509199 
L 369.813416 150.195979 
L 370.059665 150.569838 
L 370.305914 182.552054 
L 370.552162 180.393241 
L 370.798411 150.569838 
L 371.04466 150.569838 
L 371.290909 144.001074 
L 371.537158 144.001074 
L 371.783407 150.062766 
L 372.029656 182.754352 
L 372.275905 182.754352 
L 372.522154 150.062766 
L 373.014651 150.052615 
L 373.2609 143.022847 
L 373.507149 150.052615 
L 373.753398 152.818024 
L 373.999647 148.919448 
L 374.245896 148.919448 
L 374.492145 145.740926 
L 374.984643 145.740926 
L 375.230891 145.099441 
L 375.47714 152.336229 
L 375.723389 177.45629 
L 375.969638 157.315631 
L 376.215887 157.315631 
L 376.462136 150.1221 
L 376.708385 150.062766 
L 376.954634 149.650763 
L 377.200883 240.192157 
L 377.447132 144.831383 
L 377.69338 144.831383 
L 377.939629 153.004336 
L 378.185878 213.925648 
L 378.432127 213.925648 
L 378.924625 134.048561 
L 379.170874 134.048561 
L 379.663372 150.758641 
L 379.90962 190.057632 
L 380.155869 153.745047 
L 380.402118 153.745047 
L 379.663372 150.758641 
L 380.648367 150.006129 
L 381.140865 150.006129 
L 381.387114 146.566735 
L 381.633363 172.636479 
L 381.879612 146.205227 
L 382.125861 140.052094 
L 382.372109 146.205227 
L 383.110856 146.256806 
L 383.357105 146.256806 
L 383.603354 233.026482 
L 383.849603 159.668967 
L 384.095852 245.542402 
L 384.342101 235.123955 
L 384.58835 159.668967 
L 384.834598 153.800639 
L 385.080847 151.267155 
L 385.327096 153.800639 
L 385.080847 153.800639 
L 385.573345 167.500805 
L 386.065843 167.500805 
L 386.312092 159.089694 
L 386.558341 159.089694 
L 386.80459 144.650355 
L 387.050838 142.326426 
L 387.297087 142.326426 
L 387.543336 136.686145 
L 387.789585 134.650935 
L 388.035834 142.326426 
L 388.282083 132.890934 
L 388.528332 132.890934 
L 388.774581 133.905586 
L 389.02083 130.516741 
L 389.267079 130.516741 
L 389.513327 131.37662 
L 389.759576 132.927934 
L 390.005825 132.927934 
L 390.252074 149.013824 
L 390.498323 149.346903 
L 390.744572 150.195979 
L 390.990821 149.346903 
L 391.483319 149.346903 
L 391.729568 151.480168 
L 391.975816 148.880994 
L 392.222065 151.480168 
L 392.468314 147.778239 
L 392.714563 151.480168 
L 392.960812 159.668967 
L 393.945808 159.668967 
L 394.192056 150.932569 
L 394.438305 150.932569 
L 394.684554 160.61023 
L 394.930803 160.61023 
L 395.423301 160.730579 
L 395.66955 159.517559 
L 395.915799 154.882381 
L 396.408297 154.882381 
L 396.654545 155.43893 
L 397.147043 159.596261 
L 397.393292 157.876493 
L 397.639541 157.876493 
L 397.88579 155.735051 
L 398.378288 155.735051 
L 398.624537 162.532265 
L 398.378288 168.677621 
L 398.624537 168.677621 
L 398.870786 170.53418 
L 399.117034 162.532265 
L 399.363283 150.814743 
L 399.609532 146.602001 
L 399.855781 137.55887 
L 400.10203 137.55887 
L 400.348279 150.814743 
L 400.594528 152.398746 
L 401.579523 152.398746 
L 401.825772 173.136708 
L 402.31827 173.136708 
L 402.564519 148.41675 
L 402.810768 147.701841 
L 403.057017 147.701841 
L 403.303266 178.821739 
L 403.549515 178.821739 
L 403.795763 166.537249 
L 404.042012 169.425516 
L 404.288261 169.425516 
L 404.53451 177.512752 
L 404.780759 178.105625 
L 405.027008 189.364227 
L 405.273257 153.336803 
L 406.012004 153.440167 
L 406.504501 152.360863 
L 406.75075 153.440167 
L 406.996999 149.494108 
L 407.489497 149.499536 
L 407.735746 167.460583 
L 407.981995 167.460583 
L 408.228244 175.475874 
L 408.474492 172.726889 
L 409.213239 172.726889 
L 409.459488 172.234287 
L 409.705737 172.234287 
L 409.951986 159.745065 
L 410.444484 159.71192 
L 410.690733 157.645759 
L 410.936981 157.645759 
L 411.18323 173.181834 
L 411.429479 173.181834 
L 411.675728 173.708509 
L 411.921977 176.602251 
L 412.168226 176.602251 
L 412.414475 179.917575 
L 412.660724 179.917575 
L 412.906973 177.783228 
L 413.153222 172.238784 
L 413.39947 169.928586 
L 413.645719 169.928586 
L 413.891968 170.905848 
L 414.138217 170.905848 
L 414.384466 169.919188 
L 414.630715 148.519392 
L 415.123213 148.519392 
L 415.369462 154.964494 
L 415.615711 154.964494 
L 416.108208 163.893448 
L 416.354457 165.188508 
L 416.600706 172.272494 
L 416.846955 173.802884 
L 417.093204 184.67903 
L 417.339453 184.67903 
L 417.585702 246.24 
L 417.831951 183.418626 
L 418.078199 182.468828 
L 418.324448 182.468828 
L 418.570697 179.79577 
L 418.816946 180.394751 
L 419.063195 189.326565 
L 419.309444 189.075614 
L 419.555693 189.326565 
L 419.801942 189.075614 
L 420.048191 183.707276 
L 420.29444 162.766699 
L 420.540688 183.707276 
L 420.786937 169.721209 
L 421.033186 170.53418 
L 421.771933 170.53418 
L 422.018182 159.760537 
L 422.51068 159.760537 
L 422.756929 181.613386 
L 423.003177 183.065065 
L 423.249426 183.253486 
L 423.495675 187.447352 
L 423.741924 187.447352 
L 423.988173 180.185057 
L 424.72692 180.185057 
L 424.973169 183.036648 
L 425.219417 184.531523 
L 425.465666 187.00889 
L 425.711915 222.080802 
L 425.958164 222.080802 
L 426.204413 209.096975 
L 426.450662 235.33651 
L 426.696911 216.05398 
L 426.94316 209.096975 
L 427.435658 158.82775 
L 427.681906 157.815916 
L 427.928155 157.815916 
L 428.174404 156.816557 
L 428.420653 156.816557 
L 428.913151 200.429824 
L 429.1594 180.96836 
L 429.405649 180.96836 
L 429.651898 162.041316 
L 429.898147 160.265759 
L 430.144395 160.265759 
L 430.390644 162.041316 
L 430.636893 176.486851 
L 430.883142 209.302762 
L 431.37564 209.302762 
L 431.621889 175.070931 
L 431.868138 175.070931 
L 432.114387 180.483696 
L 432.606884 180.483696 
L 432.853133 152.136157 
L 433.345631 152.136157 
L 433.59188 149.343823 
L 434.084378 149.343823 
L 434.330627 174.109919 
L 434.576876 177.840566 
L 435.315622 177.840566 
L 435.561871 174.519592 
L 435.80812 148.717743 
L 436.054369 148.717743 
L 436.300618 163.034616 
L 436.546867 163.034616 
L 436.793116 171.606127 
L 437.039365 173.233023 
L 437.285613 178.29021 
L 437.531862 178.941857 
L 437.778111 185.540403 
L 438.02436 185.540403 
L 438.270609 209.316228 
L 438.516858 220.405252 
L 438.763107 237.888999 
L 439.009356 237.888999 
L 439.255605 220.405252 
L 439.501853 220.405252 
L 439.748102 158.138099 
L 439.994351 150.062766 
L 440.2406 150.226807 
L 440.486849 150.226807 
L 440.733098 158.070231 
L 440.979347 175.112135 
L 441.225596 175.112135 
L 441.471845 170.802602 
L 441.718094 156.914572 
L 442.210591 156.914572 
L 442.45684 154.942786 
L 442.949338 184.471373 
L 443.441836 194.746963 
L 443.688085 188.883917 
L 443.934334 188.295633 
L 444.426831 153.345383 
L 444.67308 153.558157 
L 445.165578 153.558157 
L 445.904325 197.990022 
L 446.88932 197.990022 
L 447.135569 179.337833 
L 447.381818 179.337833 
L 447.628067 159.970915 
L 447.874316 159.970915 
L 448.120565 179.337833 
L 448.613063 193.067507 
L 448.859312 193.067507 
L 449.10556 187.117072 
L 449.351809 187.117072 
L 449.598058 172.616644 
L 449.844307 172.616644 
L 450.090556 178.160736 
L 450.336805 187.117072 
L 450.583054 178.160736 
L 450.829303 193.407395 
L 451.075552 178.160736 
L 451.321801 170.425396 
L 451.568049 170.425396 
L 451.814298 177.043655 
L 452.060547 170.425396 
L 452.306796 177.043655 
L 452.553045 179.089356 
L 452.799294 193.549084 
L 453.045543 193.549084 
L 453.291792 206.71538 
L 453.784289 176.431513 
L 454.030538 178.699812 
L 454.276787 157.040485 
L 454.523036 156.922655 
L 454.769285 178.699812 
L 455.015534 166.63648 
L 455.508032 166.63648 
L 455.754281 192.927498 
L 456.00053 192.927498 
L 456.246778 178.23144 
L 456.493027 195.337631 
L 456.739276 178.23144 
L 456.985525 178.23144 
L 457.231774 178.412361 
L 457.724272 178.288687 
L 457.970521 166.162569 
L 458.21677 164.397984 
L 458.709267 164.397984 
L 458.955516 208.413495 
L 459.448014 208.413495 
L 459.694263 179.726292 
L 460.43301 179.726292 
L 460.679259 191.494443 
L 460.925508 159.412886 
L 461.664254 159.482599 
L 461.910503 180.274289 
L 462.156752 180.274289 
L 462.403001 182.513607 
L 462.895499 173.440993 
L 463.141748 157.980893 
L 463.634245 157.980893 
L 464.126743 185.302269 
L 464.372992 185.302269 
L 464.619241 183.629999 
L 464.86549 183.629999 
L 465.357988 168.104342 
L 465.604237 168.104342 
L 465.850485 149.640304 
L 466.096734 152.623533 
L 466.342983 152.623533 
L 466.589232 149.640304 
L 466.835481 152.623533 
L 467.08173 167.893457 
L 467.327979 167.893457 
L 467.574228 149.640304 
L 467.820477 181.535838 
L 468.066726 157.49202 
L 468.559223 166.618187 
L 468.805472 166.618187 
L 469.051721 182.873201 
L 469.544219 182.873201 
L 469.790468 164.973719 
L 470.282966 164.973719 
L 470.529214 167.608833 
L 470.775463 177.074502 
L 471.267961 177.074502 
L 471.51421 173.898582 
L 471.760459 173.898582 
L 472.006708 179.419236 
L 472.252957 179.419236 
L 472.499206 180.5673 
L 472.745455 180.5673 
L 472.991703 178.080978 
L 473.237952 180.5673 
L 473.484201 234.495885 
L 474.222948 234.495885 
L 474.469197 170.926314 
L 474.715446 143.473507 
L 474.961695 143.473507 
L 475.207944 144.82955 
L 475.454192 144.82955 
L 475.700441 180.917568 
L 475.94669 180.917568 
L 476.192939 192.298088 
L 476.439188 221.05255 
L 476.685437 192.298088 
L 476.931686 186.980731 
L 477.177935 186.980731 
L 477.424184 184.213401 
L 477.670432 184.213401 
L 477.916681 175.169804 
L 478.16293 175.169804 
L 478.409179 182.603261 
L 478.655428 185.924168 
L 479.147926 185.924168 
L 479.394175 151.593075 
L 479.886673 151.593075 
L 480.132921 157.208065 
L 480.37917 157.208065 
L 480.625419 153.467907 
L 480.871668 146.248124 
L 481.610415 146.248124 
L 482.102913 154.678084 
L 482.59541 144.522859 
L 483.087908 160.424925 
L 483.580406 160.424925 
L 483.826655 149.82362 
L 484.319153 149.797957 
L 484.81165 157.119037 
L 485.057899 173.117816 
L 485.304148 173.117816 
L 485.550397 157.119037 
L 485.796646 149.97758 
L 486.042895 149.97758 
L 486.289144 158.505687 
L 486.535393 158.505687 
L 486.781642 147.84355 
L 487.274139 147.84355 
L 487.520388 149.640304 
L 488.012886 150.987974 
L 488.259135 166.290369 
L 488.505384 166.290369 
L 488.751633 166.009973 
L 488.997882 166.290369 
L 489.244131 166.009973 
L 489.49038 166.009973 
L 489.736628 165.742507 
L 489.982877 166.317391 
L 490.229126 171.492981 
L 490.475375 171.492981 
L 490.721624 166.530882 
L 490.967873 166.178587 
L 491.70662 166.178587 
L 491.952868 171.470226 
L 492.199117 185.620996 
L 492.445366 187.848242 
L 492.937864 187.848242 
L 493.184113 203.381953 
L 493.430362 232.77234 
L 493.676611 232.77234 
L 493.92286 217.865891 
L 494.169109 193.855509 
L 494.415357 193.855509 
L 494.661606 184.629385 
L 494.907855 216.994762 
L 495.154104 216.994762 
L 495.400353 220.977504 
L 495.892851 220.977504 
L 496.1391 205.349672 
L 496.631598 205.349672 
L 496.877846 205.66152 
L 497.124095 206.413171 
L 497.370344 205.66152 
L 497.616593 212.60008 
L 497.862842 214.217296 
L 498.109091 214.217296 
L 498.109091 214.217296 
" style="fill:none;stroke:#1f77b4;stroke-linecap:square;stroke-width:1.5;"/>
   </g>
   <g id="line2d_15">
    <path clip-path="url(#p8327ab5a63)" d="M 92.290909 149.015038 
L 92.537158 149.267781 
L 92.290909 148.485349 
L 93.029656 147.653493 
L 93.275905 146.37636 
L 93.522154 147.802918 
L 93.768402 139.671842 
L 94.014651 136.854655 
L 94.2609 145.888711 
L 94.014651 154.112412 
L 94.507149 148.817709 
L 94.753398 130.140863 
L 95.245896 142.25419 
L 95.492145 140.346841 
L 95.984643 145.218919 
L 96.230891 145.083826 
L 96.969638 159.731677 
L 97.462136 153.746378 
L 97.708385 154.628112 
L 97.954634 158.675085 
L 98.200883 151.02835 
L 98.447132 152.060429 
L 98.939629 139.366854 
L 99.432127 150.325153 
L 99.924625 152.14882 
L 100.417123 159.450582 
L 100.663372 156.667786 
L 101.155869 164.229084 
L 101.402118 162.958285 
L 101.894616 155.005548 
L 102.140865 131.982578 
L 102.633363 147.154374 
L 102.879612 91.562334 
L 103.372109 109.038332 
L 103.618358 114.126527 
L 104.110856 130.274494 
L 104.357105 133.521407 
L 104.603354 141.029055 
L 104.849603 142.633433 
L 105.095852 145.672719 
L 105.58835 143.575722 
L 105.834598 143.380598 
L 106.080847 147.110246 
L 106.327096 144.781506 
L 106.573345 144.568273 
L 106.819594 142.211534 
L 107.558341 150.198514 
L 107.80459 148.918764 
L 108.297087 152.779286 
L 108.543336 148.621088 
L 108.789585 155.597567 
L 109.035834 149.775699 
L 109.282083 119.400511 
L 109.528332 132.45503 
L 109.774581 137.326783 
L 110.02083 138.091432 
L 110.267079 141.595623 
L 110.513327 136.241363 
L 111.005825 146.158595 
L 111.498323 140.325957 
L 111.744572 146.064747 
L 111.990821 146.977545 
L 112.483319 140.354834 
L 112.729568 140.553663 
L 112.975816 141.853048 
L 113.222065 140.673405 
L 113.468314 135.778408 
L 113.714563 139.736464 
L 114.207061 142.728767 
L 114.45331 126.633493 
L 114.945808 140.609187 
L 115.192056 139.922786 
L 115.438305 135.030067 
L 115.684554 133.977602 
L 115.930803 136.639434 
L 116.177052 143.002602 
L 116.66955 147.414483 
L 117.408297 135.376537 
L 117.654545 138.663078 
L 117.900794 139.779467 
L 118.393292 150.76338 
L 118.639541 149.824814 
L 118.88579 149.751487 
L 119.132039 147.04097 
L 119.378288 145.705709 
L 119.624537 145.081616 
L 119.870786 136.086119 
L 120.609532 145.285629 
L 120.855781 144.774919 
L 121.10203 143.069244 
L 121.348279 146.911911 
L 121.594528 148.694308 
L 121.840777 154.707775 
L 122.087026 132.960776 
L 122.579523 142.368161 
L 122.825772 139.978677 
L 123.31827 149.332578 
L 123.564519 148.707029 
L 123.810768 98.862003 
L 124.303266 118.093851 
L 125.042012 132.776878 
L 125.288261 142.311139 
L 125.53451 146.549897 
L 125.288261 154.144907 
L 125.53451 149.41469 
L 126.027008 154.598452 
L 126.273257 151.345427 
L 126.519506 150.406611 
L 126.765755 141.504852 
L 127.012004 141.017655 
L 127.258252 145.123761 
L 127.504501 144.946873 
L 127.75075 153.233335 
L 127.996999 146.027289 
L 127.75075 149.302102 
L 128.243248 140.680198 
L 128.735746 151.220329 
L 128.981995 149.09461 
L 129.228244 143.768832 
L 129.474492 123.438276 
L 129.96699 139.701949 
L 130.705737 160.761308 
L 130.951986 159.546431 
L 131.198235 134.072149 
L 131.690733 142.573442 
L 131.936981 132.159298 
L 132.675728 149.569214 
L 132.921977 150.582626 
L 133.168226 153.211017 
L 133.414475 148.352366 
L 133.660724 151.904762 
L 133.906973 151.449866 
L 134.153222 147.729107 
L 134.39947 141.346707 
L 134.645719 145.334623 
L 134.891968 143.315306 
L 135.138217 143.681971 
L 135.384466 146.310512 
L 135.630715 145.270135 
L 135.876964 151.619143 
L 136.123213 147.667397 
L 136.615711 154.252738 
L 136.861959 154.36376 
L 137.108208 150.385732 
L 137.354457 151.534891 
L 137.600706 147.205284 
L 137.354457 147.23706 
L 137.846955 144.743751 
L 138.093204 144.62914 
L 138.339453 151.465733 
L 138.585702 144.920314 
L 139.078199 150.07369 
L 139.324448 156.061814 
L 139.570697 154.888141 
L 139.816946 146.132507 
L 140.063195 148.473449 
L 140.309444 147.872084 
L 140.555693 154.741932 
L 141.540688 143.842375 
L 141.786937 132.602938 
L 142.033186 135.219158 
L 142.279435 139.061928 
L 142.525684 138.125893 
L 142.771933 128.295055 
L 143.264431 141.494865 
L 143.51068 143.181105 
L 143.264431 144.104149 
L 144.003177 142.142529 
L 144.249426 148.10498 
L 144.495675 148.020336 
L 144.741924 143.155839 
L 144.988173 143.191357 
L 145.480671 137.21835 
L 145.72692 141.344716 
L 145.973169 46.342836 
L 147.94316 122.846992 
L 148.435658 135.186268 
L 148.681906 143.501296 
L 148.928155 145.969208 
L 149.174404 145.522988 
L 149.420653 145.348763 
L 149.666902 142.333468 
L 149.913151 149.036859 
L 150.1594 150.013549 
L 150.405649 154.146097 
L 150.651898 146.584512 
L 150.898147 155.963169 
L 150.651898 144.754068 
L 151.144395 140.700296 
L 151.390644 147.990705 
L 151.636893 137.998369 
L 152.129391 150.382648 
L 152.37564 151.060579 
L 152.621889 148.225406 
L 152.868138 149.562079 
L 153.114387 155.360426 
L 153.606884 147.952069 
L 153.853133 133.44984 
L 154.099382 140.604245 
L 154.345631 143.33506 
L 154.59188 142.857363 
L 154.838129 142.624302 
L 155.084378 139.044187 
L 155.330627 140.622777 
L 155.576876 147.814521 
L 155.823124 144.88138 
L 156.069373 147.017695 
L 156.561871 160.502113 
L 156.80812 142.774126 
L 157.054369 142.583288 
L 157.546867 136.499928 
L 157.793116 139.149251 
L 158.039365 139.149268 
L 158.285613 138.625526 
L 158.531862 140.387821 
L 158.778111 139.479859 
L 159.02436 137.102645 
L 159.270609 143.847051 
L 159.516858 139.273412 
L 160.009356 143.509617 
L 159.516858 138.560854 
L 160.255605 112.941922 
L 160.501853 116.257287 
L 160.748102 121.961679 
L 160.994351 121.722031 
L 161.2406 126.768209 
L 161.486849 122.024066 
L 161.979347 132.220814 
L 162.225596 129.215734 
L 162.471845 129.913726 
L 162.718094 136.386218 
L 162.964342 131.563347 
L 163.210591 44.64 
L 163.45684 54.616083 
L 163.949338 64.543465 
L 164.441836 83.388765 
L 164.688085 83.895396 
L 165.180583 100.521166 
L 165.67308 111.332956 
L 165.919329 106.397551 
L 166.165578 112.150545 
L 166.411827 112.833106 
L 166.904325 133.017026 
L 167.396823 126.694855 
L 167.643071 110.056002 
L 168.135569 116.1048 
L 168.874316 136.426329 
L 169.120565 136.518362 
L 169.366814 131.61055 
L 169.613063 133.85736 
L 169.859312 130.242509 
L 170.10556 137.506872 
L 170.351809 141.069368 
L 170.598058 131.79993 
L 171.090556 147.410161 
L 171.336805 143.281767 
L 171.583054 132.231597 
L 171.829303 136.715595 
L 172.075552 121.712084 
L 172.321801 123.325113 
L 172.568049 125.887338 
L 172.814298 131.904524 
L 173.060547 132.714241 
L 173.306796 113.626383 
L 173.553045 119.984376 
L 174.045543 126.553884 
L 174.291792 124.551023 
L 174.538041 125.514721 
L 174.784289 134.63984 
L 175.030538 136.380703 
L 175.276787 143.771887 
L 175.523036 145.143567 
L 175.769285 145.070669 
L 176.015534 150.386948 
L 176.261783 140.768838 
L 176.508032 141.062193 
L 176.754281 141.06221 
L 177.00053 129.386808 
L 177.246778 133.821989 
L 177.493027 133.822012 
L 177.739276 140.450626 
L 177.985525 135.313397 
L 178.231774 134.496123 
L 178.478023 140.171111 
L 178.724272 140.004352 
L 178.970521 137.469615 
L 179.21677 121.489574 
L 179.463019 127.967787 
L 179.709267 124.369094 
L 179.955516 124.369102 
L 180.201765 106.243972 
L 180.694263 123.519303 
L 180.940512 97.954696 
L 181.925508 129.165282 
L 182.171756 129.871185 
L 182.418005 133.41597 
L 182.664254 131.535333 
L 182.910503 127.67949 
L 183.156752 129.711134 
L 183.64925 123.715672 
L 183.403001 131.619195 
L 183.895499 136.740187 
L 184.141748 129.933286 
L 184.387996 131.918176 
L 184.634245 96.551728 
L 183.64925 102.193072 
L 184.880494 112.032194 
L 185.372992 121.787669 
L 185.619241 118.457473 
L 186.111739 126.247907 
L 186.357988 124.048716 
L 186.604237 131.709312 
L 186.850485 135.155493 
L 187.096734 122.386397 
L 187.589232 133.113157 
L 187.835481 132.455964 
L 188.08173 132.241524 
L 188.574228 147.265005 
L 188.820477 137.728657 
L 189.066726 137.668972 
L 189.312974 130.013111 
L 189.559223 131.381937 
L 189.805472 130.678363 
L 190.051721 132.16497 
L 190.29797 134.723467 
L 190.544219 133.38736 
L 190.790468 134.756037 
L 191.036717 129.214241 
L 191.282966 131.150782 
L 191.529214 130.150123 
L 192.021712 145.658241 
L 192.267961 141.595984 
L 192.51421 142.003205 
L 192.760459 143.264885 
L 193.006708 135.402496 
L 193.252957 117.966372 
L 193.499206 123.531932 
L 193.745455 121.274847 
L 193.991703 122.359423 
L 194.237952 124.694073 
L 194.484201 113.013692 
L 194.976699 122.110682 
L 195.222948 122.210135 
L 195.469197 123.057428 
L 195.715446 120.15962 
L 195.961695 121.148587 
L 196.207944 118.537171 
L 196.454192 120.722302 
L 196.700441 124.347133 
L 196.94669 123.874041 
L 197.192939 120.572085 
L 197.439188 122.336836 
L 197.685437 120.550867 
L 197.931686 121.416314 
L 198.177935 120.982593 
L 197.685437 120.775887 
L 198.424184 120.749073 
L 198.916681 130.267758 
L 199.16293 133.064821 
L 199.409179 130.588504 
L 199.655428 130.843302 
L 199.901677 133.349675 
L 200.147926 134.339723 
L 200.394175 133.704135 
L 200.886673 137.909618 
L 201.132921 143.305426 
L 201.37917 128.675724 
L 201.625419 131.369195 
L 201.871668 136.362503 
L 202.117917 136.362524 
L 202.364166 140.913734 
L 202.610415 130.781638 
L 202.856664 135.277596 
L 203.102913 137.089259 
L 202.856664 136.670287 
L 203.349162 136.640606 
L 203.59541 136.99669 
L 203.841659 138.243094 
L 204.087908 136.615471 
L 204.826655 136.652308 
L 205.072904 94.062916 
L 205.81165 118.206454 
L 206.304148 119.222258 
L 205.81165 116.054001 
L 206.550397 118.337227 
L 206.796646 118.021104 
L 207.042895 119.419945 
L 207.289144 125.222533 
L 207.535393 126.096904 
L 207.781642 133.689556 
L 208.027891 132.01635 
L 208.274139 131.904054 
L 208.520388 133.443258 
L 208.766637 132.663257 
L 209.012886 133.926606 
L 209.259135 133.659176 
L 209.505384 129.769385 
L 209.997882 132.77199 
L 210.49038 133.339109 
L 210.736628 125.889228 
L 210.982877 132.875805 
L 211.229126 130.390616 
L 211.475375 131.431832 
L 211.721624 134.24255 
L 211.967873 132.769093 
L 212.214122 135.263657 
L 212.460371 142.633733 
L 212.70662 143.039352 
L 213.199117 142.734086 
L 213.445366 142.683851 
L 213.691615 144.041585 
L 213.937864 144.45914 
L 214.184113 144.023522 
L 214.430362 144.211234 
L 214.676611 144.117092 
L 214.92286 128.300518 
L 215.415357 136.412652 
L 215.661606 134.922708 
L 215.907855 135.648528 
L 216.400353 135.648567 
L 216.646602 134.834204 
L 216.892851 136.440635 
L 217.385349 135.842576 
L 217.631598 137.598052 
L 218.124095 136.167113 
L 218.616593 136.581372 
L 218.862842 134.20307 
L 219.109091 139.924043 
L 219.35534 139.924139 
L 219.601589 136.402214 
L 219.847838 135.260927 
L 220.094086 135.561987 
L 219.847838 134.850229 
L 220.586584 134.746108 
L 220.832833 137.234162 
L 221.079082 135.424817 
L 221.325331 136.580808 
L 221.57158 134.812029 
L 221.817829 135.676422 
L 222.310327 134.419402 
L 222.556575 134.286906 
L 222.802824 132.577578 
L 223.049073 133.458941 
L 223.295322 135.143052 
L 223.78782 143.577955 
L 224.280318 143.578348 
L 224.526567 142.230495 
L 224.772816 142.888589 
L 225.019064 142.555838 
L 225.265313 140.918539 
L 225.511562 138.113732 
L 225.757811 129.682005 
L 226.00406 133.340099 
L 226.742807 126.194162 
L 226.989056 128.388522 
L 227.235305 127.249796 
L 227.481553 131.871575 
L 227.727802 130.0255 
L 227.974051 57.643575 
L 229.205296 104.717978 
L 230.190291 126.519416 
L 230.43654 126.735213 
L 231.421536 143.405751 
L 231.667785 141.862199 
L 231.914034 142.613404 
L 232.65278 143.692876 
L 232.899029 143.486669 
L 233.145278 134.05009 
L 233.391527 138.082595 
L 233.884025 141.462493 
L 234.376523 133.868906 
L 234.622771 135.260087 
L 234.86902 134.642466 
L 235.115269 134.948006 
L 235.361518 139.767014 
L 235.607767 139.71422 
L 235.854016 139.880437 
L 236.100265 138.25808 
L 236.346514 137.432759 
L 236.592763 125.69488 
L 236.839011 132.45251 
L 237.08526 134.28475 
L 237.331509 131.222461 
L 237.577758 117.257873 
L 237.331509 122.751035 
L 237.824007 126.009133 
L 238.316505 135.830305 
L 238.562754 135.828729 
L 238.809003 130.873946 
L 239.055252 130.292143 
L 239.547749 143.320114 
L 239.793998 128.267384 
L 240.040247 133.932408 
L 240.286496 132.515177 
L 240.532745 133.209797 
L 241.271492 149.092785 
L 241.517741 150.917474 
L 241.763989 148.367156 
L 241.517741 149.785169 
L 242.010238 134.505224 
L 242.256487 136.764008 
L 242.502736 134.157945 
L 242.748985 133.676984 
L 242.995234 137.996808 
L 243.241483 139.000314 
L 243.487732 135.050152 
L 243.733981 134.481048 
L 243.980229 137.254286 
L 244.472727 134.963176 
L 244.718976 141.955031 
L 244.965225 141.428772 
L 245.211474 147.307075 
L 245.457723 130.924654 
L 245.703972 123.434025 
L 246.19647 128.252615 
L 246.442718 126.529979 
L 246.688967 127.765388 
L 246.935216 116.451726 
L 247.181465 118.279832 
L 247.427714 126.068638 
L 247.673963 126.894166 
L 247.920212 124.542507 
L 248.166461 125.698197 
L 248.41271 127.907793 
L 248.658959 131.641175 
L 248.905207 126.373523 
L 249.151456 129.663133 
L 249.397705 127.925044 
L 249.643954 129.162938 
L 250.136452 138.90572 
L 250.382701 131.780428 
L 250.62895 134.29706 
L 250.875199 128.908237 
L 251.121447 132.042976 
L 251.613945 134.93819 
L 251.367696 132.809048 
L 251.860194 126.835279 
L 252.106443 128.312607 
L 252.352692 130.68071 
L 252.598941 128.145234 
L 252.84519 129.416517 
L 253.091439 126.120835 
L 253.337688 132.931217 
L 253.583936 132.694793 
L 253.830185 117.527306 
L 254.322683 125.891119 
L 254.568932 126.823414 
L 254.815181 124.512396 
L 255.06143 132.250298 
L 255.307679 127.534654 
L 255.553928 133.131436 
L 255.800177 107.345978 
L 256.538923 130.132723 
L 256.785172 121.64498 
L 257.031421 124.211869 
L 257.27767 128.35121 
L 257.523919 129.251773 
L 257.770168 118.941175 
L 257.523919 116.554532 
L 258.016417 120.166299 
L 258.508914 131.583886 
L 258.755163 126.911628 
L 259.001412 125.251523 
L 259.247661 127.829621 
L 259.49391 127.749931 
L 259.740159 131.042032 
L 259.986408 139.394898 
L 260.232657 134.505213 
L 260.725154 134.525974 
L 260.971403 133.537996 
L 261.217652 134.026903 
L 261.463901 127.158554 
L 261.71015 130.191234 
L 261.956399 136.109895 
L 262.202648 135.704891 
L 262.448897 133.005357 
L 262.695146 138.44603 
L 262.941395 135.471538 
L 263.187643 134.726652 
L 263.433892 134.726663 
L 263.680141 133.944414 
L 263.92639 136.926909 
L 264.172639 133.220149 
L 264.418888 133.111265 
L 264.665137 132.589694 
L 264.911386 137.941029 
L 265.157635 135.019356 
L 265.403883 134.185238 
L 265.650132 130.168199 
L 265.896381 134.80721 
L 266.14263 132.386645 
L 266.388879 128.804231 
L 266.635128 132.214966 
L 266.881377 138.354899 
L 267.127626 139.906071 
L 267.373875 92.6461 
L 267.620124 109.747674 
L 268.112621 120.928644 
L 268.35887 121.044427 
L 268.605119 122.127005 
L 269.097617 129.69693 
L 269.343866 130.10103 
L 269.590115 129.426601 
L 269.836364 129.961406 
L 270.082613 129.491118 
L 270.328861 135.942008 
L 270.57511 136.942874 
L 270.821359 144.463619 
L 271.067608 146.155087 
L 271.313857 128.023463 
L 271.560106 134.159133 
L 271.806355 128.465012 
L 272.052604 128.241966 
L 272.298853 131.76119 
L 272.545102 126.333001 
L 272.79135 127.255959 
L 273.037599 124.680648 
L 273.283848 130.284801 
L 273.530097 129.40983 
L 273.776346 116.894997 
L 274.022595 126.585182 
L 274.268844 130.771513 
L 274.761342 125.790564 
L 275.00759 134.096439 
L 275.253839 121.229185 
L 275.500088 114.747099 
L 275.746337 118.980694 
L 275.992586 102.760766 
L 276.238835 97.103125 
L 276.731333 115.755518 
L 277.223831 122.420577 
L 276.977582 119.794097 
L 277.470079 122.154079 
L 277.716328 122.33597 
L 277.962577 122.741542 
L 278.455075 133.20937 
L 278.701324 133.908189 
L 278.947573 133.636191 
L 279.193822 135.14245 
L 279.440071 141.849832 
L 279.68632 132.618189 
L 279.932568 131.049967 
L 280.178817 138.968293 
L 280.425066 135.029908 
L 280.671315 126.252551 
L 281.163813 132.06265 
L 280.917564 46.333684 
L 281.410062 56.189301 
L 282.395057 94.175254 
L 282.148808 94.696595 
L 283.380053 115.356667 
L 283.872551 111.790338 
L 284.1188 111.269197 
L 284.365049 111.891281 
L 284.611297 112.904792 
L 284.857546 121.874072 
L 285.103795 117.489329 
L 285.350044 125.43095 
L 285.596293 106.689606 
L 286.088791 117.195322 
L 286.33504 119.531623 
L 286.581289 115.7703 
L 286.827538 118.905619 
L 287.566284 121.63062 
L 288.058782 118.51293 
L 288.305031 123.160732 
L 288.55128 124.046848 
L 288.797529 117.481496 
L 289.290026 126.593622 
L 289.536275 126.593633 
L 289.782524 128.663523 
L 290.028773 136.61831 
L 290.275022 128.407994 
L 290.76752 127.313999 
L 291.013769 134.389452 
L 291.260018 134.842849 
L 291.506267 134.401441 
L 291.752515 124.671291 
L 291.998764 126.943507 
L 292.245013 125.762874 
L 292.491262 119.066476 
L 292.737511 120.447057 
L 292.98376 121.008717 
L 293.230009 129.406951 
L 293.476258 124.244243 
L 293.722507 103.303946 
L 293.968756 108.483738 
L 294.215004 121.195892 
L 294.461253 120.534611 
L 294.707502 120.861482 
L 294.953751 118.760123 
L 295.2 119.96086 
L 295.446249 120.565207 
L 295.692498 119.631044 
L 295.938747 127.47679 
L 296.184996 123.706849 
L 296.431244 126.670351 
L 296.677493 126.847841 
L 296.923742 101.62866 
L 296.677493 109.17092 
L 297.169991 114.887825 
L 297.41624 123.272464 
L 297.662489 123.09207 
L 297.908738 121.545848 
L 298.154987 123.745005 
L 298.401236 121.835586 
L 298.647485 129.941402 
L 298.893733 126.952789 
L 299.139982 128.385777 
L 299.386231 132.170357 
L 299.63248 125.33802 
L 299.878729 123.846906 
L 300.124978 125.349995 
L 300.371227 121.618159 
L 300.617476 129.592532 
L 299.878729 93.82521 
L 300.863725 102.265805 
L 301.109974 109.903474 
L 302.094969 120.260086 
L 302.587467 122.317653 
L 302.833716 126.333484 
L 303.079965 133.118603 
L 303.326214 129.780152 
L 304.06496 127.188198 
L 304.311209 119.500141 
L 304.557458 125.306273 
L 304.803707 124.497544 
L 305.049956 124.976323 
L 305.296205 123.958779 
L 305.542454 93.537397 
L 306.034951 109.58513 
L 306.2812 122.776298 
L 306.527449 122.697745 
L 306.773698 124.701274 
L 307.019947 123.476025 
L 307.266196 123.041485 
L 307.512445 126.301614 
L 307.758694 126.022509 
L 308.004943 124.165625 
L 308.251192 125.186254 
L 308.49744 132.168963 
L 308.989938 122.943485 
L 309.236187 126.240152 
L 309.482436 125.601993 
L 309.974934 123.341214 
L 310.221183 130.757415 
L 310.467432 119.517218 
L 310.71368 118.042117 
L 311.206178 122.498863 
L 311.452427 115.140435 
L 311.698676 119.08329 
L 312.191174 122.686869 
L 312.437423 120.773189 
L 312.683672 99.64385 
L 312.929921 105.992353 
L 313.176169 94.860696 
L 313.422418 97.471147 
L 313.668667 106.692456 
L 313.914916 111.264609 
L 314.161165 119.270998 
L 314.407414 118.396548 
L 314.653663 123.695451 
L 314.899912 124.911486 
L 315.146161 128.341189 
L 315.39241 125.391947 
L 315.638658 134.81924 
L 315.884907 133.682466 
L 316.623654 124.845498 
L 316.131156 124.812189 
L 317.116152 128.581102 
L 317.60865 118.478972 
L 317.854898 122.156805 
L 318.101147 119.539557 
L 318.347396 120.99778 
L 318.593645 121.239972 
L 318.839894 125.127374 
L 319.086143 123.053049 
L 319.332392 124.053645 
L 319.578641 123.546056 
L 319.82489 121.334078 
L 320.071139 124.834296 
L 320.317387 126.469154 
L 320.563636 130.918852 
L 320.809885 127.334498 
L 321.056134 130.163819 
L 321.302383 126.773152 
L 321.548632 128.524204 
L 321.794881 135.196207 
L 322.04113 126.846771 
L 322.533628 131.864724 
L 322.779876 129.991682 
L 323.026125 132.999196 
L 323.272374 131.417451 
L 323.518623 129.056632 
L 323.764872 128.778673 
L 324.011121 129.043988 
L 324.25737 127.6992 
L 324.503619 128.314818 
L 324.749868 123.19168 
L 324.996117 109.337172 
L 325.488614 118.573738 
L 325.734863 122.191783 
L 325.981112 128.337833 
L 326.227361 129.742793 
L 326.47361 127.038607 
L 326.227361 124.939559 
L 326.719859 125.620888 
L 326.966108 128.51044 
L 327.212357 126.643854 
L 327.704854 128.451095 
L 327.212357 123.437828 
L 327.951103 71.940776 
L 328.443601 91.195067 
L 328.68985 108.917062 
L 328.936099 118.103689 
L 329.428597 121.922592 
L 329.674846 128.498904 
L 329.921094 129.418929 
L 329.428597 125.623482 
L 329.921094 125.303681 
L 330.167343 131.496833 
L 330.413592 129.220696 
L 330.659841 132.8601 
L 330.90609 128.396901 
L 331.152339 114.332373 
L 331.398588 119.733565 
L 331.644837 121.528524 
L 331.891086 126.610358 
L 332.137335 123.853947 
L 332.383583 127.548984 
L 332.629832 113.513385 
L 332.876081 120.885257 
L 333.12233 117.461753 
L 333.368579 118.229386 
L 333.861077 135.732706 
L 334.107326 131.856166 
L 334.353575 130.248573 
L 334.599823 126.864707 
L 334.846072 125.606582 
L 335.092321 132.83629 
L 335.33857 128.774483 
L 335.584819 127.671548 
L 335.831068 128.567285 
L 336.077317 128.112523 
L 336.323566 127.356316 
L 336.569815 127.35632 
L 336.816064 127.61803 
L 337.062312 116.498586 
L 337.308561 115.362871 
L 337.55481 120.292361 
L 337.801059 118.868311 
L 338.047308 123.357702 
L 338.786055 122.805545 
L 339.524801 127.96911 
L 339.77105 127.231769 
L 340.017299 127.591464 
L 340.263548 133.126748 
L 340.509797 130.634309 
L 340.756046 126.536856 
L 341.002295 133.59854 
L 341.248544 133.681308 
L 341.494793 139.057728 
L 341.741041 135.929202 
L 342.233539 135.803584 
L 342.479788 134.600962 
L 342.972286 135.280258 
L 343.218535 130.573285 
L 343.464784 130.376718 
L 343.711033 132.917099 
L 343.957282 130.796077 
L 344.20353 130.655129 
L 344.449779 128.727937 
L 344.942277 144.31012 
L 345.188526 131.640307 
L 344.942277 128.559254 
L 345.434775 126.399457 
L 345.681024 135.3328 
L 345.927273 128.064987 
L 346.173522 126.446395 
L 346.419771 127.214951 
L 346.666019 123.000432 
L 346.912268 124.874321 
L 347.158517 123.885548 
L 347.404766 126.790956 
L 347.651015 126.46712 
L 347.897264 123.374858 
L 348.143513 102.511872 
L 348.389762 107.153287 
L 348.636011 107.550377 
L 348.882259 116.718619 
L 349.128508 120.271391 
L 349.374757 119.64262 
L 349.621006 118.339593 
L 350.113504 131.87842 
L 350.359753 135.048239 
L 350.606002 127.812082 
L 350.852251 130.872743 
L 351.0985 126.414123 
L 351.344748 130.096208 
L 351.590997 128.909008 
L 351.837246 118.486758 
L 352.083495 123.285865 
L 351.837246 126.454202 
L 352.329744 126.738029 
L 352.575993 125.805713 
L 352.822242 127.616318 
L 353.068491 127.616342 
L 353.31474 134.863794 
L 353.560989 134.863799 
L 353.807237 131.494762 
L 354.053486 136.306289 
L 354.299735 129.810802 
L 354.545984 130.904445 
L 354.053486 129.621456 
L 355.038482 133.01354 
L 355.777229 126.984323 
L 356.023477 129.864921 
L 356.515975 137.226358 
L 356.762224 136.269818 
L 357.008473 130.595911 
L 357.254722 121.010369 
L 357.500971 124.266726 
L 357.74722 129.182858 
L 357.993469 125.565594 
L 358.239718 126.752916 
L 358.485966 114.231351 
L 358.732215 119.103988 
L 358.978464 119.555384 
L 358.239718 114.255417 
L 359.224713 112.729929 
L 359.470962 111.509954 
L 359.717211 118.09381 
L 359.96346 119.965342 
L 360.209709 123.069754 
L 360.455958 124.076263 
L 360.209709 128.806981 
L 360.702207 128.437206 
L 360.948455 127.852258 
L 361.194704 121.961626 
L 361.933451 133.093422 
L 362.1797 125.243893 
L 362.425949 130.053862 
L 362.672198 126.829911 
L 362.918447 111.369174 
L 363.410944 126.083763 
L 363.657193 125.985404 
L 363.903442 125.611379 
L 364.149691 116.304747 
L 364.39594 118.318814 
L 364.642189 121.273571 
L 364.888438 110.509748 
L 365.134687 118.549526 
L 365.380936 122.176233 
L 365.627184 122.347183 
L 365.873433 125.380434 
L 366.119682 126.145966 
L 366.365931 120.409274 
L 367.104678 123.898527 
L 367.350927 126.758397 
L 367.843425 139.113181 
L 368.335922 124.512526 
L 368.582171 130.203829 
L 368.82842 128.941415 
L 369.074669 131.827853 
L 369.320918 132.984573 
L 369.567167 113.86226 
L 369.813416 114.150513 
L 370.305914 122.591608 
L 370.552162 132.355926 
L 370.798411 129.450323 
L 371.04466 131.5357 
L 371.290909 129.106737 
L 371.537158 123.54599 
L 371.783407 129.932421 
L 372.275905 128.407196 
L 372.522154 124.790018 
L 373.014651 126.517491 
L 373.2609 126.236545 
L 373.999647 126.7699 
L 374.245896 126.607469 
L 374.492145 126.779834 
L 374.738394 126.774962 
L 374.984643 131.389243 
L 375.230891 128.898929 
L 375.47714 137.795046 
L 375.723389 119.221746 
L 375.969638 122.023014 
L 376.215887 127.469342 
L 376.462136 140.399161 
L 376.708385 130.939151 
L 376.954634 129.726268 
L 377.200883 122.209915 
L 377.447132 119.540808 
L 377.69338 129.165374 
L 377.939629 125.464571 
L 378.185878 125.902679 
L 378.432127 123.621293 
L 378.678376 126.662059 
L 379.170874 122.737643 
L 379.417123 122.492505 
L 379.663372 123.663275 
L 380.155869 123.08044 
L 380.402118 128.339648 
L 379.663372 125.347727 
L 380.648367 123.864988 
L 381.387114 119.127194 
L 381.633363 121.936797 
L 382.125861 118.632775 
L 382.372109 124.222296 
L 382.618358 123.553312 
L 382.864607 131.123698 
L 383.110856 126.597303 
L 383.603354 124.55766 
L 383.849603 122.698417 
L 384.095852 126.310573 
L 384.342101 124.893707 
L 384.58835 125.921319 
L 384.834598 128.037342 
L 385.080847 126.94074 
L 385.327096 134.900969 
L 385.080847 128.187782 
L 385.573345 133.874734 
L 385.819594 132.271936 
L 386.065843 128.178092 
L 386.312092 134.231527 
L 386.80459 128.01576 
L 387.050838 128.571358 
L 387.297087 127.357979 
L 387.543336 121.464196 
L 387.789585 119.246517 
L 388.035834 109.550269 
L 388.282083 72.738289 
L 388.774581 90.833444 
L 389.02083 94.053034 
L 389.267079 103.276063 
L 390.252074 122.065481 
L 390.498323 122.059901 
L 390.744572 124.301109 
L 390.990821 128.468473 
L 391.23707 135.463027 
L 391.483319 130.639025 
L 391.729568 123.162538 
L 391.975816 123.818755 
L 392.222065 121.158689 
L 392.468314 122.427654 
L 392.714563 126.778506 
L 392.960812 124.440153 
L 393.207061 133.253772 
L 393.45331 133.979451 
L 393.699559 133.612084 
L 394.192056 133.612126 
L 394.438305 141.202039 
L 394.684554 135.09174 
L 394.930803 107.865285 
L 395.177052 46.291347 
L 396.900794 112.747067 
L 397.147043 121.203549 
L 397.393292 122.353728 
L 397.639541 127.698884 
L 397.88579 130.034311 
L 398.132039 138.597171 
L 398.378288 141.719259 
L 398.624537 137.944159 
L 398.378288 130.978869 
L 399.363283 133.755316 
L 399.609532 133.646974 
L 399.855781 133.7862 
L 400.10203 132.748586 
L 400.348279 132.256412 
L 400.594528 132.500407 
L 400.840777 132.382787 
L 401.087026 132.414665 
L 401.333274 137.486159 
L 401.579523 134.678368 
L 401.825772 140.275451 
L 402.072021 138.814281 
L 402.31827 138.638604 
L 402.564519 138.726288 
L 402.810768 130.286334 
L 403.303266 136.919012 
L 403.549515 137.794536 
L 403.795763 125.638124 
L 404.042012 138.394581 
L 404.288261 128.855524 
L 404.53451 127.643152 
L 404.780759 128.128605 
L 405.273257 128.745058 
L 405.519506 129.674721 
L 405.765755 129.323442 
L 406.012004 136.847877 
L 406.258252 129.737237 
L 406.504501 129.496375 
L 406.75075 136.632084 
L 407.243248 136.602638 
L 407.489497 144.159168 
L 407.735746 138.115474 
L 407.981995 138.939578 
L 408.228244 137.756169 
L 408.474492 138.472619 
L 408.720741 120.991939 
L 408.96699 118.689462 
L 409.213239 125.428226 
L 409.459488 124.732293 
L 409.705737 130.961263 
L 409.951986 130.737295 
L 410.198235 138.007112 
L 410.444484 129.363261 
L 410.936981 144.135455 
L 411.18323 134.015907 
L 411.675728 139.490433 
L 411.921977 130.495514 
L 412.168226 99.443847 
L 412.414475 107.542845 
L 412.660724 97.367565 
L 413.39947 120.33634 
L 413.645719 126.315086 
L 413.891968 126.720077 
L 414.138217 128.494228 
L 414.384466 131.137624 
L 414.876964 139.970371 
L 415.123213 139.970454 
L 415.369462 139.153473 
L 415.615711 135.216487 
L 415.861959 137.399168 
L 416.108208 137.399201 
L 416.354457 143.270046 
L 416.600706 143.9278 
L 416.846955 147.766247 
L 417.339453 148.357128 
L 417.585702 151.851902 
L 417.831951 158.217013 
L 418.078199 156.993507 
L 418.324448 147.371872 
L 418.570697 156.349022 
L 418.816946 136.833513 
L 419.309444 149.457582 
L 419.555693 89.500235 
L 420.048191 108.433683 
L 420.786937 121.151061 
L 421.279435 139.478596 
L 421.525684 144.478736 
L 421.771933 145.949796 
L 422.018182 145.949809 
L 422.264431 149.137378 
L 422.51068 147.456018 
L 422.756929 150.818007 
L 423.003177 160.54196 
L 423.249426 153.126362 
L 423.495675 156.364188 
L 423.741924 134.185038 
L 424.480671 148.659079 
L 424.72692 146.966722 
L 424.973169 146.340904 
L 425.219417 139.325841 
L 425.465666 127.519417 
L 425.958164 145.789264 
L 426.204413 149.037112 
L 426.450662 158.843098 
L 426.696911 157.588075 
L 426.94316 157.65036 
L 427.189409 158.206068 
L 427.681906 155.098009 
L 427.928155 155.935145 
L 428.174404 153.072064 
L 428.420653 161.136287 
L 428.666902 165.279126 
L 428.913151 162.610149 
L 429.1594 145.005835 
L 429.651898 155.081638 
L 429.898147 145.75202 
L 430.144395 149.58692 
L 430.390644 147.486437 
L 430.636893 130.470216 
L 431.37564 139.880295 
L 431.868138 152.136129 
L 432.114387 135.495777 
L 432.360635 136.078722 
L 432.606884 141.985561 
L 432.853133 140.060796 
L 433.099382 136.455549 
L 433.345631 139.783987 
L 433.59188 138.635706 
L 433.838129 136.574228 
L 434.330627 146.737577 
L 434.576876 129.984435 
L 435.069373 126.08139 
L 435.315622 127.901711 
L 435.561871 126.962959 
L 435.80812 127.428044 
L 436.300618 141.079771 
L 436.546867 137.066303 
L 436.793116 139.679625 
L 437.285613 158.037182 
L 437.531862 155.482588 
L 437.778111 165.092283 
L 438.02436 150.910073 
L 438.270609 156.099181 
L 438.516858 142.417792 
L 438.763107 145.58297 
L 439.009356 145.451842 
L 439.255605 145.502211 
L 439.501853 139.66244 
L 439.748102 142.286675 
L 439.994351 146.430709 
L 440.2406 130.013218 
L 440.733098 139.744059 
L 440.979347 139.000989 
L 441.225596 139.525495 
L 441.471845 134.442199 
L 441.718094 138.69714 
L 441.964342 136.413823 
L 442.210591 137.51049 
L 442.45684 135.857643 
L 442.703089 135.594576 
L 442.949338 135.151882 
L 443.195587 130.447833 
L 443.441836 132.726265 
L 443.688085 131.404406 
L 443.934334 135.884743 
L 444.180583 133.120725 
L 444.426831 134.436891 
L 444.67308 139.910612 
L 444.919329 148.701367 
L 445.165578 144.807946 
L 445.411827 146.624091 
L 445.658076 149.381851 
L 446.150574 149.382037 
L 446.643071 146.271782 
L 446.88932 146.271832 
L 447.135569 150.609398 
L 447.381818 145.690492 
L 447.628067 147.234037 
L 448.120565 129.429415 
L 448.366814 131.058218 
L 448.613063 135.988652 
L 448.859312 133.314445 
L 449.10556 134.902299 
L 449.598058 146.873315 
L 449.844307 143.3202 
L 450.336805 157.825247 
L 450.583054 156.723336 
L 450.829303 157.263818 
L 451.075552 149.433575 
L 451.568049 162.30741 
L 451.814298 139.771494 
L 452.306796 152.220395 
L 452.553045 149.396429 
L 452.799294 150.442732 
L 453.291792 136.407455 
L 453.538041 136.546129 
L 453.784289 135.202492 
L 454.030538 136.764007 
L 454.276787 118.639147 
L 454.523036 112.432378 
L 454.769285 122.035971 
L 455.015534 124.488078 
L 455.261783 119.069687 
L 455.754281 124.741618 
L 456.00053 124.886473 
L 456.246778 119.845142 
L 456.493027 128.85379 
L 456.739276 130.319416 
L 456.985525 136.081795 
L 457.231774 134.412318 
L 457.478023 137.542974 
L 457.724272 137.514067 
L 457.970521 141.811425 
L 458.21677 149.06681 
L 458.463019 144.953029 
L 458.709267 144.953191 
L 459.201765 146.489785 
L 459.448014 146.489786 
L 459.694263 151.776386 
L 459.940512 148.812822 
L 460.186761 150.379313 
L 460.43301 138.650517 
L 460.679259 143.664908 
L 460.925508 140.941563 
L 461.171756 149.655982 
L 461.418005 138.670601 
L 461.664254 134.208966 
L 461.910503 140.796193 
L 462.156752 136.028613 
L 462.403001 137.663752 
L 462.64925 137.166693 
L 462.895499 136.046025 
L 463.141748 143.035727 
L 463.387996 144.203535 
L 463.634245 148.18188 
L 463.880494 126.585428 
L 464.126743 133.318326 
L 464.372992 134.904464 
L 464.619241 134.45457 
L 464.86549 134.401173 
L 465.111739 137.205858 
L 465.604237 126.106831 
L 466.096734 138.777773 
L 466.342983 135.310584 
L 466.589232 140.769481 
L 467.08173 138.344287 
L 467.327979 131.563786 
L 467.574228 130.284253 
L 467.820477 132.663901 
L 468.066726 142.211552 
L 468.312974 139.022113 
L 468.559223 139.726423 
L 468.805472 138.993975 
L 469.051721 142.164019 
L 469.29797 142.632253 
L 469.544219 133.323734 
L 469.790468 135.759559 
L 470.036717 129.564716 
L 470.282966 132.235499 
L 470.529214 138.160642 
L 470.775463 137.728924 
L 471.021712 139.764559 
L 471.267961 136.508358 
L 471.51421 141.534147 
L 471.760459 137.253063 
L 472.006708 141.088268 
L 472.252957 142.987281 
L 472.499206 142.006833 
L 472.745455 142.488923 
L 472.991703 137.89803 
L 473.237952 145.23871 
L 473.484201 120.791301 
L 473.73045 120.034447 
L 473.976699 124.346353 
L 474.469197 138.908058 
L 474.715446 123.596921 
L 474.961695 128.663495 
L 475.207944 129.560465 
L 475.454192 129.105061 
L 475.700441 136.58363 
L 475.94669 133.087626 
L 476.192939 137.203416 
L 476.439188 134.999664 
L 476.685437 134.999722 
L 476.931686 136.059684 
L 477.177935 134.97492 
L 477.424184 136.001382 
L 477.670432 135.389074 
L 477.916681 117.964696 
L 478.16293 127.774306 
L 478.409179 129.208651 
L 478.655428 138.769359 
L 478.901677 137.435832 
L 479.147926 124.135053 
L 480.132921 142.169698 
L 480.37917 140.451806 
L 480.625419 134.225106 
L 480.871668 132.104896 
L 481.117917 139.21858 
L 481.364166 131.875309 
L 481.610415 133.793329 
L 481.856664 139.17295 
L 482.102913 136.171932 
L 482.59541 136.171938 
L 482.841659 141.512125 
L 483.087908 137.54689 
L 483.334157 130.854963 
L 483.580406 134.924676 
L 483.826655 132.747262 
L 484.072904 136.699075 
L 484.565402 147.319347 
L 484.81165 139.487013 
L 485.057899 146.12994 
L 485.550397 137.105406 
L 485.796646 137.105422 
L 486.289144 150.223202 
L 486.781642 142.924507 
L 487.027891 142.924529 
L 487.274139 137.058143 
L 487.766637 139.696036 
L 488.012886 137.632659 
L 488.259135 121.870461 
L 488.505384 123.45779 
L 488.751633 123.221627 
L 488.997882 123.376495 
L 489.244131 131.247884 
L 489.49038 130.258276 
L 489.982877 131.927064 
L 490.229126 130.555578 
L 490.475375 139.406324 
L 490.721624 134.346572 
L 490.967873 134.271804 
L 491.214122 136.612577 
L 491.70662 133.340713 
L 491.952868 78.248013 
L 492.445366 96.5131 
L 493.430362 109.999715 
L 493.676611 100.677757 
L 493.92286 71.079763 
L 494.415357 89.336537 
L 494.661606 86.670667 
L 494.907855 91.316212 
L 495.400353 107.314841 
L 495.892851 112.928015 
L 496.1391 117.412104 
L 496.385349 114.997047 
L 496.631598 116.113801 
L 497.124095 122.700723 
L 497.370344 130.043684 
L 497.616593 126.922209 
L 498.109091 128.035154 
L 498.109091 128.035154 
" style="fill:none;stroke:#ff7f0e;stroke-linecap:square;stroke-width:1.5;"/>
   </g>
   <g id="patch_3">
    <path d="M 72 256.32 
L 72 34.56 
" style="fill:none;stroke:#000000;stroke-linecap:square;stroke-linejoin:miter;stroke-width:0.8;"/>
   </g>
   <g id="patch_4">
    <path d="M 518.4 256.32 
L 518.4 34.56 
" style="fill:none;stroke:#000000;stroke-linecap:square;stroke-linejoin:miter;stroke-width:0.8;"/>
   </g>
   <g id="patch_5">
    <path d="M 72 256.32 
L 518.4 256.32 
" style="fill:none;stroke:#000000;stroke-linecap:square;stroke-linejoin:miter;stroke-width:0.8;"/>
   </g>
   <g id="patch_6">
    <path d="M 72 34.56 
L 518.4 34.56 
" style="fill:none;stroke:#000000;stroke-linecap:square;stroke-linejoin:miter;stroke-width:0.8;"/>
   </g>
  </g>
 </g>
 <defs>
  <clipPath id="p8327ab5a63">
   <rect height="221.76" width="446.4" x="72" y="34.56"/>
  </clipPath>
 </defs>
</svg>
