<?xml version="1.0" encoding="utf-8" standalone="no"?>
<!DOCTYPE svg PUBLIC "-//W3C//DTD SVG 1.1//EN"
  "http://www.w3.org/Graphics/SVG/1.1/DTD/svg11.dtd">
<svg height="345.6pt" version="1.1" viewBox="0 0 460.8 345.6" width="460.8pt" xmlns="http://www.w3.org/2000/svg" xmlns:xlink="http://www.w3.org/1999/xlink">
 <metadata>
  <rdf:RDF xmlns:cc="http://creativecommons.org/ns#" xmlns:dc="http://purl.org/dc/elements/1.1/" xmlns:rdf="http://www.w3.org/1999/02/22-rdf-syntax-ns#">
   <cc:Work>
    <dc:type rdf:resource="http://purl.org/dc/dcmitype/StillImage"/>
    <dc:date>2022-01-06T21:55:26.640443</dc:date>
    <dc:format>image/svg+xml</dc:format>
    <dc:creator>
     <cc:Agent>
      <dc:title>Matplotlib v3.4.3, https://matplotlib.org/</dc:title>
     </cc:Agent>
    </dc:creator>
   </cc:Work>
  </rdf:RDF>
 </metadata>
 <defs>
  <style type="text/css">*{stroke-linecap:butt;stroke-linejoin:round;}</style>
 </defs>
 <g id="figure_1">
  <g id="patch_1">
   <path d="M 0 345.6 
L 460.8 345.6 
L 460.8 0 
L 0 0 
z
" style="fill:#ffffff;"/>
  </g>
  <g id="axes_1">
   <g id="patch_2">
    <path d="M 57.6 307.584 
L 414.72 307.584 
L 414.72 41.472 
L 57.6 41.472 
z
" style="fill:#ffffff;"/>
   </g>
   <g id="matplotlib.axis_1">
    <g id="xtick_1">
     <g id="line2d_1">
      <defs>
       <path d="M 0 0 
L 0 3.5 
" id="m562484545e" style="stroke:#000000;stroke-width:0.8;"/>
      </defs>
      <g>
       <use style="stroke:#000000;stroke-width:0.8;" x="73.832727" xlink:href="#m562484545e" y="307.584"/>
      </g>
     </g>
     <g id="text_1">
      <!-- 39000 -->
      <g transform="translate(57.926477 322.182437)scale(0.1 -0.1)">
       <defs>
        <path d="M 2597 2516 
Q 3050 2419 3304 2112 
Q 3559 1806 3559 1356 
Q 3559 666 3084 287 
Q 2609 -91 1734 -91 
Q 1441 -91 1130 -33 
Q 819 25 488 141 
L 488 750 
Q 750 597 1062 519 
Q 1375 441 1716 441 
Q 2309 441 2620 675 
Q 2931 909 2931 1356 
Q 2931 1769 2642 2001 
Q 2353 2234 1838 2234 
L 1294 2234 
L 1294 2753 
L 1863 2753 
Q 2328 2753 2575 2939 
Q 2822 3125 2822 3475 
Q 2822 3834 2567 4026 
Q 2313 4219 1838 4219 
Q 1578 4219 1281 4162 
Q 984 4106 628 3988 
L 628 4550 
Q 988 4650 1302 4700 
Q 1616 4750 1894 4750 
Q 2613 4750 3031 4423 
Q 3450 4097 3450 3541 
Q 3450 3153 3228 2886 
Q 3006 2619 2597 2516 
z
" id="DejaVuSans-33" transform="scale(0.015625)"/>
        <path d="M 703 97 
L 703 672 
Q 941 559 1184 500 
Q 1428 441 1663 441 
Q 2288 441 2617 861 
Q 2947 1281 2994 2138 
Q 2813 1869 2534 1725 
Q 2256 1581 1919 1581 
Q 1219 1581 811 2004 
Q 403 2428 403 3163 
Q 403 3881 828 4315 
Q 1253 4750 1959 4750 
Q 2769 4750 3195 4129 
Q 3622 3509 3622 2328 
Q 3622 1225 3098 567 
Q 2575 -91 1691 -91 
Q 1453 -91 1209 -44 
Q 966 3 703 97 
z
M 1959 2075 
Q 2384 2075 2632 2365 
Q 2881 2656 2881 3163 
Q 2881 3666 2632 3958 
Q 2384 4250 1959 4250 
Q 1534 4250 1286 3958 
Q 1038 3666 1038 3163 
Q 1038 2656 1286 2365 
Q 1534 2075 1959 2075 
z
" id="DejaVuSans-39" transform="scale(0.015625)"/>
        <path d="M 2034 4250 
Q 1547 4250 1301 3770 
Q 1056 3291 1056 2328 
Q 1056 1369 1301 889 
Q 1547 409 2034 409 
Q 2525 409 2770 889 
Q 3016 1369 3016 2328 
Q 3016 3291 2770 3770 
Q 2525 4250 2034 4250 
z
M 2034 4750 
Q 2819 4750 3233 4129 
Q 3647 3509 3647 2328 
Q 3647 1150 3233 529 
Q 2819 -91 2034 -91 
Q 1250 -91 836 529 
Q 422 1150 422 2328 
Q 422 3509 836 4129 
Q 1250 4750 2034 4750 
z
" id="DejaVuSans-30" transform="scale(0.015625)"/>
       </defs>
       <use xlink:href="#DejaVuSans-33"/>
       <use x="63.623047" xlink:href="#DejaVuSans-39"/>
       <use x="127.246094" xlink:href="#DejaVuSans-30"/>
       <use x="190.869141" xlink:href="#DejaVuSans-30"/>
       <use x="254.492188" xlink:href="#DejaVuSans-30"/>
      </g>
     </g>
    </g>
    <g id="xtick_2">
     <g id="line2d_2">
      <g>
       <use style="stroke:#000000;stroke-width:0.8;" x="123.082507" xlink:href="#m562484545e" y="307.584"/>
      </g>
     </g>
     <g id="text_2">
      <!-- 39250 -->
      <g transform="translate(107.176257 322.182437)scale(0.1 -0.1)">
       <defs>
        <path d="M 1228 531 
L 3431 531 
L 3431 0 
L 469 0 
L 469 531 
Q 828 903 1448 1529 
Q 2069 2156 2228 2338 
Q 2531 2678 2651 2914 
Q 2772 3150 2772 3378 
Q 2772 3750 2511 3984 
Q 2250 4219 1831 4219 
Q 1534 4219 1204 4116 
Q 875 4013 500 3803 
L 500 4441 
Q 881 4594 1212 4672 
Q 1544 4750 1819 4750 
Q 2544 4750 2975 4387 
Q 3406 4025 3406 3419 
Q 3406 3131 3298 2873 
Q 3191 2616 2906 2266 
Q 2828 2175 2409 1742 
Q 1991 1309 1228 531 
z
" id="DejaVuSans-32" transform="scale(0.015625)"/>
        <path d="M 691 4666 
L 3169 4666 
L 3169 4134 
L 1269 4134 
L 1269 2991 
Q 1406 3038 1543 3061 
Q 1681 3084 1819 3084 
Q 2600 3084 3056 2656 
Q 3513 2228 3513 1497 
Q 3513 744 3044 326 
Q 2575 -91 1722 -91 
Q 1428 -91 1123 -41 
Q 819 9 494 109 
L 494 744 
Q 775 591 1075 516 
Q 1375 441 1709 441 
Q 2250 441 2565 725 
Q 2881 1009 2881 1497 
Q 2881 1984 2565 2268 
Q 2250 2553 1709 2553 
Q 1456 2553 1204 2497 
Q 953 2441 691 2322 
L 691 4666 
z
" id="DejaVuSans-35" transform="scale(0.015625)"/>
       </defs>
       <use xlink:href="#DejaVuSans-33"/>
       <use x="63.623047" xlink:href="#DejaVuSans-39"/>
       <use x="127.246094" xlink:href="#DejaVuSans-32"/>
       <use x="190.869141" xlink:href="#DejaVuSans-35"/>
       <use x="254.492188" xlink:href="#DejaVuSans-30"/>
      </g>
     </g>
    </g>
    <g id="xtick_3">
     <g id="line2d_3">
      <g>
       <use style="stroke:#000000;stroke-width:0.8;" x="172.332286" xlink:href="#m562484545e" y="307.584"/>
      </g>
     </g>
     <g id="text_3">
      <!-- 39500 -->
      <g transform="translate(156.426036 322.182437)scale(0.1 -0.1)">
       <use xlink:href="#DejaVuSans-33"/>
       <use x="63.623047" xlink:href="#DejaVuSans-39"/>
       <use x="127.246094" xlink:href="#DejaVuSans-35"/>
       <use x="190.869141" xlink:href="#DejaVuSans-30"/>
       <use x="254.492188" xlink:href="#DejaVuSans-30"/>
      </g>
     </g>
    </g>
    <g id="xtick_4">
     <g id="line2d_4">
      <g>
       <use style="stroke:#000000;stroke-width:0.8;" x="221.582065" xlink:href="#m562484545e" y="307.584"/>
      </g>
     </g>
     <g id="text_4">
      <!-- 39750 -->
      <g transform="translate(205.675815 322.182437)scale(0.1 -0.1)">
       <defs>
        <path d="M 525 4666 
L 3525 4666 
L 3525 4397 
L 1831 0 
L 1172 0 
L 2766 4134 
L 525 4134 
L 525 4666 
z
" id="DejaVuSans-37" transform="scale(0.015625)"/>
       </defs>
       <use xlink:href="#DejaVuSans-33"/>
       <use x="63.623047" xlink:href="#DejaVuSans-39"/>
       <use x="127.246094" xlink:href="#DejaVuSans-37"/>
       <use x="190.869141" xlink:href="#DejaVuSans-35"/>
       <use x="254.492188" xlink:href="#DejaVuSans-30"/>
      </g>
     </g>
    </g>
    <g id="xtick_5">
     <g id="line2d_5">
      <g>
       <use style="stroke:#000000;stroke-width:0.8;" x="270.831845" xlink:href="#m562484545e" y="307.584"/>
      </g>
     </g>
     <g id="text_5">
      <!-- 40000 -->
      <g transform="translate(254.925595 322.182437)scale(0.1 -0.1)">
       <defs>
        <path d="M 2419 4116 
L 825 1625 
L 2419 1625 
L 2419 4116 
z
M 2253 4666 
L 3047 4666 
L 3047 1625 
L 3713 1625 
L 3713 1100 
L 3047 1100 
L 3047 0 
L 2419 0 
L 2419 1100 
L 313 1100 
L 313 1709 
L 2253 4666 
z
" id="DejaVuSans-34" transform="scale(0.015625)"/>
       </defs>
       <use xlink:href="#DejaVuSans-34"/>
       <use x="63.623047" xlink:href="#DejaVuSans-30"/>
       <use x="127.246094" xlink:href="#DejaVuSans-30"/>
       <use x="190.869141" xlink:href="#DejaVuSans-30"/>
       <use x="254.492188" xlink:href="#DejaVuSans-30"/>
      </g>
     </g>
    </g>
    <g id="xtick_6">
     <g id="line2d_6">
      <g>
       <use style="stroke:#000000;stroke-width:0.8;" x="320.081624" xlink:href="#m562484545e" y="307.584"/>
      </g>
     </g>
     <g id="text_6">
      <!-- 40250 -->
      <g transform="translate(304.175374 322.182437)scale(0.1 -0.1)">
       <use xlink:href="#DejaVuSans-34"/>
       <use x="63.623047" xlink:href="#DejaVuSans-30"/>
       <use x="127.246094" xlink:href="#DejaVuSans-32"/>
       <use x="190.869141" xlink:href="#DejaVuSans-35"/>
       <use x="254.492188" xlink:href="#DejaVuSans-30"/>
      </g>
     </g>
    </g>
    <g id="xtick_7">
     <g id="line2d_7">
      <g>
       <use style="stroke:#000000;stroke-width:0.8;" x="369.331403" xlink:href="#m562484545e" y="307.584"/>
      </g>
     </g>
     <g id="text_7">
      <!-- 40500 -->
      <g transform="translate(353.425153 322.182437)scale(0.1 -0.1)">
       <use xlink:href="#DejaVuSans-34"/>
       <use x="63.623047" xlink:href="#DejaVuSans-30"/>
       <use x="127.246094" xlink:href="#DejaVuSans-35"/>
       <use x="190.869141" xlink:href="#DejaVuSans-30"/>
       <use x="254.492188" xlink:href="#DejaVuSans-30"/>
      </g>
     </g>
    </g>
   </g>
   <g id="matplotlib.axis_2">
    <g id="ytick_1">
     <g id="line2d_8">
      <defs>
       <path d="M 0 0 
L -3.5 0 
" id="md0e011c240" style="stroke:#000000;stroke-width:0.8;"/>
      </defs>
      <g>
       <use style="stroke:#000000;stroke-width:0.8;" x="57.6" xlink:href="#md0e011c240" y="307.584"/>
      </g>
     </g>
     <g id="text_8">
      <!-- 0 -->
      <g transform="translate(44.2375 311.383219)scale(0.1 -0.1)">
       <use xlink:href="#DejaVuSans-30"/>
      </g>
     </g>
    </g>
    <g id="ytick_2">
     <g id="line2d_9">
      <g>
       <use style="stroke:#000000;stroke-width:0.8;" x="57.6" xlink:href="#md0e011c240" y="254.3616"/>
      </g>
     </g>
     <g id="text_9">
      <!-- 2 -->
      <g transform="translate(44.2375 258.160819)scale(0.1 -0.1)">
       <use xlink:href="#DejaVuSans-32"/>
      </g>
     </g>
    </g>
    <g id="ytick_3">
     <g id="line2d_10">
      <g>
       <use style="stroke:#000000;stroke-width:0.8;" x="57.6" xlink:href="#md0e011c240" y="201.1392"/>
      </g>
     </g>
     <g id="text_10">
      <!-- 4 -->
      <g transform="translate(44.2375 204.938419)scale(0.1 -0.1)">
       <use xlink:href="#DejaVuSans-34"/>
      </g>
     </g>
    </g>
    <g id="ytick_4">
     <g id="line2d_11">
      <g>
       <use style="stroke:#000000;stroke-width:0.8;" x="57.6" xlink:href="#md0e011c240" y="147.9168"/>
      </g>
     </g>
     <g id="text_11">
      <!-- 6 -->
      <g transform="translate(44.2375 151.716019)scale(0.1 -0.1)">
       <defs>
        <path d="M 2113 2584 
Q 1688 2584 1439 2293 
Q 1191 2003 1191 1497 
Q 1191 994 1439 701 
Q 1688 409 2113 409 
Q 2538 409 2786 701 
Q 3034 994 3034 1497 
Q 3034 2003 2786 2293 
Q 2538 2584 2113 2584 
z
M 3366 4563 
L 3366 3988 
Q 3128 4100 2886 4159 
Q 2644 4219 2406 4219 
Q 1781 4219 1451 3797 
Q 1122 3375 1075 2522 
Q 1259 2794 1537 2939 
Q 1816 3084 2150 3084 
Q 2853 3084 3261 2657 
Q 3669 2231 3669 1497 
Q 3669 778 3244 343 
Q 2819 -91 2113 -91 
Q 1303 -91 875 529 
Q 447 1150 447 2328 
Q 447 3434 972 4092 
Q 1497 4750 2381 4750 
Q 2619 4750 2861 4703 
Q 3103 4656 3366 4563 
z
" id="DejaVuSans-36" transform="scale(0.015625)"/>
       </defs>
       <use xlink:href="#DejaVuSans-36"/>
      </g>
     </g>
    </g>
    <g id="ytick_5">
     <g id="line2d_12">
      <g>
       <use style="stroke:#000000;stroke-width:0.8;" x="57.6" xlink:href="#md0e011c240" y="94.6944"/>
      </g>
     </g>
     <g id="text_12">
      <!-- 8 -->
      <g transform="translate(44.2375 98.493619)scale(0.1 -0.1)">
       <defs>
        <path d="M 2034 2216 
Q 1584 2216 1326 1975 
Q 1069 1734 1069 1313 
Q 1069 891 1326 650 
Q 1584 409 2034 409 
Q 2484 409 2743 651 
Q 3003 894 3003 1313 
Q 3003 1734 2745 1975 
Q 2488 2216 2034 2216 
z
M 1403 2484 
Q 997 2584 770 2862 
Q 544 3141 544 3541 
Q 544 4100 942 4425 
Q 1341 4750 2034 4750 
Q 2731 4750 3128 4425 
Q 3525 4100 3525 3541 
Q 3525 3141 3298 2862 
Q 3072 2584 2669 2484 
Q 3125 2378 3379 2068 
Q 3634 1759 3634 1313 
Q 3634 634 3220 271 
Q 2806 -91 2034 -91 
Q 1263 -91 848 271 
Q 434 634 434 1313 
Q 434 1759 690 2068 
Q 947 2378 1403 2484 
z
M 1172 3481 
Q 1172 3119 1398 2916 
Q 1625 2713 2034 2713 
Q 2441 2713 2670 2916 
Q 2900 3119 2900 3481 
Q 2900 3844 2670 4047 
Q 2441 4250 2034 4250 
Q 1625 4250 1398 4047 
Q 1172 3844 1172 3481 
z
" id="DejaVuSans-38" transform="scale(0.015625)"/>
       </defs>
       <use xlink:href="#DejaVuSans-38"/>
      </g>
     </g>
    </g>
    <g id="ytick_6">
     <g id="line2d_13">
      <g>
       <use style="stroke:#000000;stroke-width:0.8;" x="57.6" xlink:href="#md0e011c240" y="41.472"/>
      </g>
     </g>
     <g id="text_13">
      <!-- 10 -->
      <g transform="translate(37.875 45.271219)scale(0.1 -0.1)">
       <defs>
        <path d="M 794 531 
L 1825 531 
L 1825 4091 
L 703 3866 
L 703 4441 
L 1819 4666 
L 2450 4666 
L 2450 531 
L 3481 531 
L 3481 0 
L 794 0 
L 794 531 
z
" id="DejaVuSans-31" transform="scale(0.015625)"/>
       </defs>
       <use xlink:href="#DejaVuSans-31"/>
       <use x="63.623047" xlink:href="#DejaVuSans-30"/>
      </g>
     </g>
    </g>
   </g>
   <g id="line2d_14">
    <path clip-path="url(#p4663acc16f)" d="M 73.832727 338.794902 
L 74.029726 338.247469 
L 73.832727 338.247469 
L 74.226726 338.247469 
L 74.423725 333.094847 
L 75.014722 333.094847 
L 75.211721 312.057107 
L 75.40872 311.436615 
L 75.211721 311.436615 
L 75.802718 311.436615 
L 75.999718 313.58824 
L 76.393716 335.449411 
L 76.590715 335.449411 
L 76.984713 332.994853 
L 77.378711 332.994853 
L 77.575711 337.949955 
L 77.705453 346.6 
M 78.602646 346.6 
L 78.757705 341.459446 
L 79.348703 341.459446 
L 79.545702 337.82349 
L 79.742701 344.634177 
L 79.9397 344.634177 
L 80.061417 346.6 
M 81.330589 346.6 
L 81.515693 345.134714 
L 81.712692 345.134714 
L 81.769931 346.6 
M 81.979391 346.6 
L 82.10669 340.065472 
L 82.228196 346.6 
M 82.771094 346.6 
L 83.091686 329.027506 
L 83.288685 339.764279 
L 83.485684 328.326875 
L 83.682683 327.887679 
L 83.879682 328.326875 
L 84.076681 328.326875 
L 84.27368 339.843318 
L 84.47068 339.843318 
L 84.608547 346.6 
M 84.697671 346.6 
L 84.864678 330.46352 
L 85.061677 330.46352 
L 85.258676 338.365446 
L 85.455675 338.443372 
L 85.849673 338.365446 
L 86.046673 330.324376 
L 86.440671 330.324376 
L 86.834669 339.670159 
L 87.031668 340.033049 
L 87.228667 340.033049 
L 87.425666 341.903718 
L 87.622665 341.500862 
L 88.016664 337.058474 
L 88.213663 336.447669 
L 88.410662 328.459932 
L 88.607661 326.154943 
L 88.80466 333.384669 
L 89.198658 321.243306 
L 89.395658 329.77287 
L 89.592657 329.77287 
L 89.789656 321.243306 
L 89.986655 319.396272 
L 90.183654 329.77287 
L 90.380653 319.396272 
L 90.577652 336.817089 
L 90.774651 336.817089 
L 90.97165 335.141261 
L 91.365649 335.141261 
L 91.562648 329.530872 
L 91.956646 339.068867 
L 92.153645 337.435233 
L 92.744643 337.435233 
L 92.941642 337.636307 
L 93.138641 337.636307 
L 93.33564 335.181833 
L 93.926637 335.181833 
L 94.123636 333.852573 
L 94.517635 333.852573 
L 94.714634 333.471893 
L 94.911633 338.322596 
L 95.305631 338.322596 
L 95.50263 324.374216 
L 95.699629 319.604987 
L 95.896628 319.41307 
L 96.487626 319.41307 
L 96.881624 336.315911 
L 97.078623 338.468657 
L 97.275622 338.774603 
L 97.66962 338.774603 
L 97.86662 328.309784 
L 98.063619 338.774603 
L 98.260618 340.354109 
L 98.457617 335.464432 
L 98.654616 335.464432 
L 98.851615 335.646606 
L 99.442613 335.646606 
L 99.836611 338.157204 
L 100.03361 340.965872 
L 100.230609 342.096434 
L 100.427608 342.096434 
L 100.230609 342.096434 
L 100.310416 346.6 
M 100.788695 346.6 
L 100.821606 344.983984 
L 101.018605 344.983984 
L 101.215605 336.504783 
L 101.412604 336.504783 
L 101.609603 336.047284 
L 101.691649 346.6 
M 101.941319 346.6 
L 102.003601 339.76463 
L 102.397599 339.76463 
L 102.2006 339.76463 
L 102.594598 335.96914 
L 103.185596 335.96914 
L 103.382595 334.007057 
L 103.776593 324.587797 
L 103.973592 324.587797 
L 104.170591 328.850444 
L 104.36759 329.047669 
L 104.56459 330.203824 
L 104.761589 343.032923 
L 104.958588 343.544726 
L 104.991928 346.6 
M 105.636342 346.6 
L 105.746584 332.081833 
L 106.337582 332.081833 
L 106.534581 332.522998 
L 106.73158 338.208455 
L 106.928579 339.691915 
L 107.125578 337.121261 
L 107.322577 337.121261 
L 107.613654 346.6 
M 109.983495 346.6 
L 109.883566 336.574331 
L 110.277564 336.574331 
L 110.474563 332.964233 
L 110.868561 332.964233 
L 111.007117 346.6 
M 111.995428 346.6 
L 112.050556 342.152143 
L 112.191495 346.6 
M 113.06229 346.6 
L 113.232551 335.334437 
L 113.626549 327.082675 
L 113.823548 330.436389 
L 114.020547 324.780581 
L 114.217546 324.780581 
L 114.414545 337.202607 
L 114.611545 336.519095 
L 114.808544 336.519095 
L 114.611545 326.370063 
L 115.005543 326.370063 
L 115.202542 322.13452 
L 115.399541 322.13452 
L 115.59654 334.201319 
L 115.793539 336.587685 
L 115.860978 346.6 
M 116.120099 346.6 
L 116.187538 336.587685 
L 116.384537 336.587685 
L 116.581536 346.362318 
L 116.778535 339.404207 
L 116.975534 328.098537 
L 117.172533 326.492381 
L 117.369532 335.556246 
L 117.566531 326.492381 
L 117.76353 326.492381 
L 117.96053 335.556246 
L 118.157529 337.664888 
L 118.354528 337.956636 
L 118.551527 340.606518 
L 118.596376 346.6 
M 119.7097 346.6 
L 119.733522 345.389035 
L 119.930521 345.389035 
L 120.12752 342.235369 
L 120.337286 346.6 
M 124.245938 346.6 
L 124.264501 344.211344 
L 124.4615 344.211344 
L 124.6585 328.516377 
L 124.855499 337.743078 
L 125.052498 337.341424 
L 125.249497 337.341424 
L 125.446496 337.743078 
L 125.643495 337.743078 
L 125.840494 340.690996 
L 126.037493 334.007057 
L 126.234492 334.007057 
L 126.431492 340.690996 
L 126.628491 334.624331 
L 126.824151 346.6 
M 127.023827 346.6 
L 127.219488 334.624331 
L 127.416487 334.624331 
L 127.613486 334.007057 
L 127.810485 334.007057 
L 128.007485 334.763474 
L 127.613486 334.763474 
L 128.204484 324.216952 
L 128.598482 324.216952 
L 128.795481 319.679428 
L 128.99248 324.216952 
L 129.189479 319.679428 
L 129.386478 328.449454 
L 129.480939 346.6 
M 129.911703 346.6 
L 129.977476 336.724726 
L 130.568473 336.698514 
L 130.765472 342.709828 
L 130.962471 342.709828 
L 131.059928 346.6 
M 132.229648 346.6 
L 132.538464 311.237245 
L 132.735463 330.983293 
L 132.932462 330.983293 
L 133.129462 303.433244 
L 133.326461 303.433244 
L 133.52346 326.601643 
L 133.720459 327.161079 
L 133.807447 346.6 
M 135.249273 346.6 
L 135.296452 336.765591 
L 135.383486 346.6 
M 136.007612 346.6 
L 136.084448 338.654693 
L 136.281447 338.654693 
L 136.478447 324.339876 
L 136.675446 324.339876 
L 137.0709 346.6 
M 139.463886 346.6 
L 139.630432 313.177766 
L 139.827432 313.177766 
L 140.171732 346.6 
M 141.180756 346.6 
L 141.403425 338.080136 
L 141.600424 338.080136 
L 141.797423 319.88224 
L 141.994422 319.88224 
L 142.476446 346.6 
M 145.651332 346.6 
L 145.737405 329.26433 
L 146.131403 329.26433 
L 146.328402 307.741085 
L 146.722401 307.741085 
L 146.9194 323.748754 
L 146.722401 325.853441 
L 147.116399 325.853441 
L 147.313398 323.748754 
L 147.510397 325.853441 
L 147.707396 325.853441 
L 146.9194 330.411704 
L 147.904395 336.743034 
L 148.101395 336.743034 
L 148.495393 336.862146 
L 148.692392 333.359215 
L 148.889391 323.928341 
L 149.283389 323.928341 
L 149.480388 337.235126 
L 149.78892 346.6 
M 150.119584 346.6 
L 150.268385 337.087528 
L 151.056381 337.055059 
L 151.25338 331.543162 
L 151.629003 346.6 
M 151.665754 346.6 
L 151.844378 339.338699 
L 152.238376 339.338699 
L 152.435375 344.838177 
L 152.632374 330.36358 
L 152.829373 344.838177 
L 153.223372 310.870379 
L 153.420371 310.870379 
L 153.61737 336.503684 
L 154.011368 336.503684 
L 154.208367 335.071624 
L 154.405366 323.532392 
L 154.602365 321.186945 
L 154.799365 317.24724 
L 154.996364 308.098983 
L 155.193363 305.843388 
L 155.390362 308.098983 
L 155.587361 323.532392 
L 155.78436 323.532392 
L 155.981359 316.103014 
L 156.178358 316.103014 
L 156.375357 319.183932 
L 156.572357 316.972122 
L 157.360353 316.972122 
L 157.557352 311.687165 
L 157.754351 329.761907 
L 157.95135 329.761907 
L 158.14835 332.235531 
L 158.345349 332.235531 
L 158.542348 322.776388 
L 158.14835 321.987853 
L 158.739347 313.619548 
L 159.133345 313.619548 
L 159.330344 315.633001 
L 159.527343 315.633001 
L 160.118341 325.215379 
L 160.31534 325.486761 
L 160.512339 327.055065 
L 160.709338 327.055065 
L 160.906337 329.892483 
L 161.103336 337.88932 
L 161.300335 337.88932 
L 161.497335 343.56805 
L 162.285331 320.309264 
L 162.48233 320.309264 
L 162.285331 320.309264 
L 162.679329 319.824002 
L 162.876328 319.824002 
L 163.073327 320.582473 
L 163.664325 320.582473 
L 163.861324 315.247138 
L 164.255322 315.247138 
L 164.452321 335.537725 
L 164.64932 342.671333 
L 164.84632 344.637987 
L 165.043319 342.671333 
L 164.64932 344.293891 
L 165.240318 342.671333 
L 165.437317 334.283129 
L 165.634316 332.367281 
L 165.831315 332.367281 
L 166.028314 326.158154 
L 166.225313 326.158154 
L 166.422312 322.824299 
L 166.816311 328.984727 
L 167.01331 328.984727 
L 167.210309 325.10917 
L 167.407308 326.3359 
L 167.604307 325.10917 
L 167.801306 326.3359 
L 167.998305 337.213436 
L 168.195305 339.461842 
L 168.392304 339.461842 
L 168.589303 339.164066 
L 168.786302 339.461842 
L 168.983301 321.613274 
L 169.377299 321.613274 
L 169.574298 313.494266 
L 169.771297 320.771682 
L 169.968297 333.655369 
L 170.165296 325.041733 
L 170.362295 325.041733 
L 170.559294 332.035413 
L 170.953292 332.035413 
L 171.150291 332.420854 
L 171.741289 332.420854 
L 171.938288 329.262766 
L 172.332286 313.851595 
L 172.726284 313.851595 
L 172.923283 314.843491 
L 173.317282 326.477225 
L 173.514281 326.477225 
L 173.71128 330.964164 
L 173.908279 326.477225 
L 174.105278 328.919588 
L 174.302277 328.739577 
L 174.696275 328.739577 
L 174.893274 328.919588 
L 175.090274 328.739577 
L 175.287273 334.208729 
L 175.484272 334.208729 
L 175.87827 315.771216 
L 176.075269 317.842247 
L 175.87827 317.842247 
L 176.272268 317.842247 
L 176.469267 333.310154 
L 176.666267 334.319288 
L 177.060265 334.319288 
L 177.257264 330.121412 
L 177.454263 328.648542 
L 177.651262 328.648542 
L 177.848261 329.983993 
L 178.04526 329.983993 
L 178.242259 337.171866 
L 178.439259 337.171866 
L 178.636258 336.431423 
L 178.833257 336.431423 
L 179.030256 331.739587 
L 179.424254 331.847462 
L 179.621253 333.759358 
L 179.818252 338.715533 
L 180.015252 340.207645 
L 180.212251 340.207645 
L 180.40925 340.674501 
L 180.606249 343.676058 
L 180.803248 343.676058 
L 180.87558 346.6 
M 181.244304 346.6 
L 181.394245 330.542659 
L 181.591244 328.656333 
L 181.788244 325.547411 
L 181.985243 328.656333 
L 182.182242 324.470616 
L 182.332722 346.6 
M 182.589621 346.6 
L 182.773239 320.948916 
L 182.970238 321.932262 
L 183.167237 320.160006 
L 183.364237 316.38159 
L 184.152233 316.38159 
L 184.349232 322.411074 
L 184.940229 322.411074 
L 185.137229 323.417732 
L 185.334228 325.821554 
L 185.531227 325.821554 
L 185.728226 333.028045 
L 185.925225 333.028045 
L 186.122224 343.630822 
L 186.319223 333.028045 
L 186.516222 333.028045 
L 186.713222 322.324448 
L 186.910221 322.324448 
L 187.10722 321.790591 
L 187.304219 322.324448 
L 187.501218 327.562554 
L 187.698217 327.562554 
L 187.895216 321.790591 
L 188.092215 321.067589 
L 188.486214 321.067589 
L 188.683213 323.282379 
L 189.077211 323.282379 
L 189.471209 334.368233 
L 189.865207 334.368233 
L 190.062207 331.966887 
L 189.865207 330.974933 
L 190.259206 322.651645 
L 190.653204 319.666966 
L 190.850203 319.666966 
L 191.4412 323.482415 
L 191.638199 323.482415 
L 192.032198 326.691177 
L 192.229197 327.049756 
L 192.426196 327.049756 
L 192.623195 330.462754 
L 192.820194 330.84627 
L 193.411192 343.375541 
L 193.214192 344.682664 
L 193.608191 344.682664 
L 193.80519 342.186556 
L 194.002189 324.35 
L 194.199188 324.336534 
L 194.396187 323.760321 
L 194.593186 323.760321 
L 194.790185 322.952283 
L 194.987184 317.876284 
L 195.184184 322.813291 
L 195.381183 317.876284 
L 195.578182 317.876284 
L 195.775181 322.813291 
L 195.97218 323.86985 
L 196.169179 328.248926 
L 196.563177 328.248926 
L 196.957176 323.459126 
L 197.548173 323.459126 
L 197.745172 324.794071 
L 198.533169 324.794071 
L 198.730168 323.876703 
L 198.927167 324.204918 
L 199.124166 324.204918 
L 199.321165 328.302389 
L 199.518164 324.204918 
L 199.715163 325.103179 
L 200.109162 340.603796 
L 200.306161 325.103179 
L 200.50316 340.603796 
L 200.700159 346.429228 
L 201.094157 346.400468 
L 201.291156 330.966226 
L 201.094157 330.966226 
L 201.488155 327.277954 
L 201.685154 327.277954 
L 201.882154 314.894315 
L 202.276152 314.894315 
L 202.67015 320.2013 
L 202.867149 321.299863 
L 203.064148 323.517096 
L 203.261147 333.467243 
L 203.458147 333.467243 
L 203.655146 323.517096 
L 203.852145 327.366226 
L 204.246143 327.366226 
L 204.443142 342.39861 
L 204.640141 343.78208 
L 205.034139 343.78208 
L 205.231139 343.312647 
L 205.428138 326.955437 
L 205.625137 342.632579 
L 205.822136 342.632579 
L 206.019135 338.924621 
L 206.216134 338.924621 
L 206.019135 337.41889 
L 206.413133 334.184835 
L 206.610132 334.184835 
L 206.807132 333.726495 
L 207.004131 333.726495 
L 207.20113 321.530534 
L 207.595128 339.46047 
L 207.792127 339.46047 
L 207.989126 339.312492 
L 208.186125 339.312492 
L 208.580124 325.025035 
L 208.974122 325.025035 
L 209.171121 319.915145 
L 209.36812 319.915145 
L 209.565119 325.062637 
L 209.762118 325.243302 
L 209.959117 325.062637 
L 210.353116 325.062637 
L 210.550115 327.7241 
L 210.747114 324.143117 
L 210.944113 324.143117 
L 211.141112 322.906574 
L 211.338111 322.906574 
L 211.53511 318.304136 
L 211.732109 316.38159 
L 211.929109 316.137276 
L 212.323107 316.137276 
L 212.717105 322.137768 
L 212.914104 323.049244 
L 213.111103 322.137768 
L 213.308102 323.049244 
L 213.505102 323.049244 
L 213.702101 328.618804 
L 213.8991 329.032887 
L 214.293098 342.415876 
L 214.490097 342.415876 
L 214.687096 324.516082 
L 214.884095 320.187808 
L 215.081094 320.187808 
L 215.278094 323.960653 
L 215.081094 323.960653 
L 215.672092 323.960653 
L 215.869091 329.509959 
L 216.06609 323.44343 
L 216.263089 323.44343 
L 216.460088 325.564898 
L 216.657087 329.509959 
L 216.854086 329.897064 
L 217.051086 329.897064 
L 217.248085 325.564898 
L 217.445084 329.897064 
L 217.642083 323.921667 
L 218.627079 323.989076 
L 218.824078 320.775759 
L 219.218076 328.26937 
L 219.415075 320.260459 
L 219.612074 326.845923 
L 219.809073 320.875488 
L 220.006072 320.875488 
L 220.203071 329.3568 
L 220.400071 329.3568 
L 220.59707 333.448197 
L 220.794069 333.448197 
L 220.991068 322.243563 
L 221.188067 320.77563 
L 221.385066 322.243563 
L 221.582065 320.77563 
L 221.779064 320.77563 
L 221.582065 320.77563 
L 221.976064 313.808876 
L 222.173063 313.160208 
L 222.567061 313.160208 
L 222.961059 323.956809 
L 223.158058 326.189434 
L 223.355057 334.736146 
L 223.552056 334.736146 
L 223.749056 331.105299 
L 223.946055 330.550064 
L 224.143054 331.105299 
L 224.537052 331.047795 
L 224.734051 321.203239 
L 224.93105 329.86503 
L 224.734051 329.86503 
L 225.128049 322.707723 
L 225.325049 322.707723 
L 225.522048 323.565399 
L 225.916046 323.565399 
L 225.719047 334.368138 
L 226.310044 334.368138 
L 226.507043 320.738309 
L 226.704042 320.738309 
L 226.901041 319.981427 
L 227.098041 320.738309 
L 227.29504 319.981427 
L 227.689038 319.981427 
L 227.886037 325.363285 
L 228.083036 302.796881 
L 228.280035 325.363285 
L 228.477034 325.363285 
L 228.674034 315.228046 
L 229.068032 315.228046 
L 229.265031 305.174004 
L 229.46203 310.591098 
L 229.856028 310.591098 
L 230.053027 321.688395 
L 230.250026 321.688395 
L 230.447026 326.153511 
L 230.841024 321.688395 
L 231.038023 320.841175 
L 231.235022 320.841175 
L 231.432021 320.111553 
L 231.62902 315.439619 
L 231.826019 320.111553 
L 232.023019 320.814275 
L 232.220018 323.86985 
L 232.417017 343.620276 
L 232.811015 343.620276 
L 232.894558 346.6 
M 233.063864 346.6 
L 233.205013 336.372898 
L 233.599011 336.372898 
L 233.796011 322.909128 
L 233.99301 321.45853 
L 234.584007 320.702434 
L 234.781006 321.168775 
L 234.978005 343.300439 
L 235.175004 343.300439 
L 235.372004 343.5358 
L 235.569003 315.100524 
L 235.766002 315.100524 
L 235.963001 316.346525 
L 236.356999 316.346525 
L 236.553998 317.732117 
L 236.750997 317.732117 
L 236.947996 320.536492 
L 237.144996 317.732117 
L 237.341995 317.732117 
L 237.538994 320.536492 
L 237.341995 328.955803 
L 237.735993 317.198073 
L 237.932992 331.502237 
L 238.129991 331.502237 
L 238.523989 313.926497 
L 238.720989 320.525149 
L 238.917988 320.525149 
L 239.114987 313.926497 
L 239.311986 315.604267 
L 239.508985 319.626616 
L 239.902983 319.626616 
L 240.099982 323.845811 
L 240.296981 323.845811 
L 240.493981 326.897143 
L 239.902983 326.897143 
L 240.69098 326.897143 
L 240.887979 317.967284 
L 241.084978 335.744039 
L 241.281977 320.502627 
L 241.478976 317.967284 
L 241.675975 320.502627 
L 242.069974 320.502627 
L 242.266973 316.901281 
L 242.463972 323.568999 
L 242.85797 324.781169 
L 242.984619 346.6 
M 243.578356 346.6 
L 243.645966 321.423065 
L 243.842966 321.423065 
L 244.039965 339.905543 
L 244.236964 321.423065 
L 244.433963 337.022889 
L 244.630962 337.022889 
L 244.827961 323.049515 
L 245.02496 323.872792 
L 245.221959 323.049515 
L 245.418959 323.049515 
L 245.812957 322.373933 
L 246.009956 312.705748 
L 246.206955 322.373933 
L 246.403954 313.184774 
L 246.600953 313.184774 
L 246.797952 314.70781 
L 247.191951 326.70414 
L 247.585949 326.70414 
L 247.782948 324.219853 
L 247.979947 309.575219 
L 248.176946 309.575219 
L 248.373945 324.219853 
L 248.570944 315.023858 
L 248.767944 325.119431 
L 248.964943 325.119431 
L 249.161942 319.964567 
L 249.752939 319.964567 
L 249.949938 319.626616 
L 250.146937 322.762997 
L 250.343936 322.883883 
L 250.540936 319.626616 
L 250.737935 323.819083 
L 250.934934 312.973265 
L 251.131933 313.184774 
L 251.328932 320.281204 
L 251.525931 313.184774 
L 251.72293 320.281204 
L 251.919929 320.281204 
L 252.116929 319.666752 
L 252.313928 315.077659 
L 252.510927 319.666752 
L 252.904925 319.666752 
L 253.101924 323.795067 
L 253.298923 323.86985 
L 252.904925 323.795067 
L 253.495922 322.800208 
L 253.692921 323.86985 
L 254.08692 335.215194 
L 254.480918 335.215194 
L 254.677917 314.801653 
L 255.268914 314.801653 
L 255.465914 320.552292 
L 255.662913 320.552292 
L 255.859912 312.534311 
L 256.056911 312.534311 
L 256.25391 312.942731 
L 256.647908 312.942731 
L 256.844907 315.833446 
L 257.041906 315.833446 
L 257.238906 308.256732 
L 257.632904 326.57897 
L 257.829903 326.57897 
L 258.026902 330.030971 
L 258.223901 316.67768 
L 258.4209 316.67768 
L 258.617899 322.899777 
L 259.011898 322.899777 
L 259.254184 346.6 
M 260.066213 346.6 
L 260.193892 318.455887 
L 259.996893 318.455887 
L 260.390891 319.287058 
L 260.78489 319.287058 
L 260.981889 324.441157 
L 261.178888 323.044667 
L 260.981889 323.044667 
L 261.375887 323.044667 
L 261.572886 319.22406 
L 261.966884 319.22406 
L 262.163883 322.404569 
L 261.769885 324.370884 
L 262.246756 346.6 
M 262.431662 346.6 
L 262.557882 337.112925 
L 262.754881 337.112925 
L 262.95188 321.887146 
L 263.148879 330.963641 
L 263.542877 330.963641 
L 263.739876 332.876319 
L 263.936876 330.963641 
L 263.542877 332.876319 
L 263.936876 320.776368 
L 264.133875 323.976259 
L 264.330874 320.776368 
L 264.527873 323.976259 
L 264.724872 320.04408 
L 264.921871 322.308528 
L 265.11887 320.04408 
L 265.512868 320.04408 
L 265.709868 321.316258 
L 265.906867 321.316258 
L 266.103866 324.012438 
L 266.300865 324.012438 
L 266.497864 327.693636 
L 266.694863 327.693636 
L 266.891862 323.86985 
L 267.285861 331.694895 
L 267.48286 323.86985 
L 267.679859 334.968663 
L 267.876858 334.968663 
L 268.073857 326.456485 
L 268.467855 326.456485 
L 268.664854 325.930804 
L 268.861853 326.456485 
L 269.058853 328.552504 
L 269.64985 328.552504 
L 269.745785 346.6 
M 270.12639 346.6 
L 270.240847 320.236204 
L 270.437846 317.504032 
L 270.634846 317.504032 
L 270.831845 316.357637 
L 271.028844 316.357637 
L 271.422842 320.783393 
L 271.619841 320.783393 
L 271.81684 321.407697 
L 272.013839 323.74439 
L 272.078977 346.6 
M 272.727051 346.6 
L 272.801836 333.32545 
L 272.998835 325.352269 
L 273.195834 333.32545 
L 273.392833 325.352269 
L 273.589832 335.313446 
L 273.623839 346.6 
M 274.163147 346.6 
L 274.18083 341.265626 
L 274.377829 320.852211 
L 274.771827 320.852211 
L 274.968826 322.812029 
L 275.559823 322.812029 
L 275.953822 328.751171 
L 276.150821 326.793276 
L 275.953822 326.793276 
L 276.34782 326.793276 
L 276.544819 334.304294 
L 276.741818 323.915613 
L 276.938817 323.86985 
L 277.135816 322.435568 
L 277.726814 322.435568 
L 277.923813 323.86985 
L 278.120812 326.470483 
L 278.317811 326.732099 
L 278.407556 346.6 
M 278.89494 346.6 
L 278.908808 344.801851 
L 278.91613 346.6 
M 279.295485 346.6 
L 279.302807 344.801851 
L 279.499806 325.86367 
L 279.696805 317.858185 
L 279.893804 325.86367 
L 280.090803 325.86367 
L 280.484801 326.677597 
L 280.681801 326.694455 
L 280.8788 328.313123 
L 281.469797 328.313123 
L 281.666796 313.948191 
L 281.469797 313.184774 
L 281.863795 313.948191 
L 282.060794 323.818666 
L 283.04579 323.86985 
L 283.242789 329.106516 
L 283.833786 329.106516 
L 283.242789 346.527153 
L 284.030786 325.776458 
L 284.110153 346.6 
M 285.129583 346.6 
L 285.21278 340.907035 
L 285.409779 340.907035 
L 285.606778 327.908494 
L 285.803778 327.908494 
L 286.000777 326.497123 
L 286.197776 328.884458 
L 286.394775 328.884458 
L 286.591774 326.497418 
L 286.788773 328.884458 
L 286.985772 326.497418 
L 287.182771 326.497418 
L 286.591774 319.447728 
L 287.379771 327.101354 
L 287.773769 327.101354 
L 287.970768 320.872758 
L 288.364766 320.872758 
L 288.167767 320.872758 
L 288.364766 324.11755 
L 288.561765 324.11755 
L 288.744981 346.6 
M 289.603524 346.6 
L 289.74376 326.852856 
L 290.137758 312.942731 
L 290.334757 312.942731 
L 290.531756 318.580819 
L 290.728756 320.79932 
L 290.925755 326.301669 
L 291.122754 335.955961 
L 291.194416 346.6 
M 291.445089 346.6 
L 291.516752 335.955961 
L 291.713751 335.955961 
L 291.91075 312.973265 
L 292.107749 312.973265 
L 292.304748 313.148694 
L 292.501748 314.345935 
L 292.698747 326.330005 
L 292.895746 326.330005 
L 293.092745 327.65249 
L 293.289744 330.776358 
L 293.683742 330.776358 
L 293.880741 313.884521 
L 294.077741 313.884521 
L 294.27474 319.626616 
L 294.471739 319.626616 
L 294.282848 346.6 
M 294.690884 346.6 
L 294.865737 337.458705 
L 295.259735 330.259668 
L 295.456734 322.62888 
L 295.653733 322.62888 
L 295.850733 323.976259 
L 296.047732 324.274893 
L 296.219886 346.6 
M 296.454113 346.6 
L 296.638729 324.274893 
L 296.835728 324.274893 
L 297.032727 319.027847 
L 297.229726 319.027847 
L 297.426726 323.86985 
L 297.5982 346.6 
M 297.846248 346.6 
L 298.017723 323.86985 
L 298.411721 323.861742 
L 298.60872 318.246451 
L 298.805719 323.861742 
L 299.002718 326.070715 
L 299.199718 322.956582 
L 299.396717 322.956582 
L 299.593716 320.417619 
L 299.987714 320.417619 
L 300.184713 319.905209 
L 300.381712 325.685864 
L 300.578711 345.751451 
L 300.775711 329.663347 
L 300.97271 329.663347 
L 301.169709 323.917245 
L 301.366708 323.86985 
L 301.563707 323.540747 
L 301.626517 346.6 
M 301.888113 346.6 
L 301.957705 319.691087 
L 302.154704 319.691087 
L 302.351703 326.219539 
L 302.434208 346.6 
M 302.889388 346.6 
L 303.1397 311.077905 
L 303.336699 311.077905 
L 303.730697 324.425706 
L 303.869853 346.6 
M 303.990297 346.6 
L 304.124695 326.811209 
L 304.321695 326.811209 
L 303.730697 324.425706 
L 304.518694 323.824609 
L 304.912692 323.824609 
L 305.109691 321.077265 
L 305.30669 341.901447 
L 305.503689 320.788497 
L 305.700688 315.873451 
L 305.897688 320.788497 
L 306.488685 320.829697 
L 306.685684 320.829697 
L 306.75893 346.6 
M 307.029062 346.6 
L 307.079682 331.543162 
L 307.122924 346.6 
M 307.621467 346.6 
L 307.67068 331.543162 
L 307.867679 326.855616 
L 308.064678 324.831901 
L 308.261677 326.855616 
L 308.064678 326.855616 
L 308.458676 337.799135 
L 308.852674 337.799135 
L 309.049673 331.080446 
L 309.246673 331.080446 
L 309.443672 319.546484 
L 309.640671 317.690159 
L 309.83767 317.690159 
L 310.034669 313.184774 
L 310.231668 311.559074 
L 310.428667 317.690159 
L 310.625666 310.153207 
L 310.822665 310.153207 
L 311.019665 310.963699 
L 311.216664 308.256732 
L 311.413663 308.256732 
L 311.610662 308.943592 
L 311.807661 310.182762 
L 312.00466 310.182762 
L 312.201659 323.031968 
L 312.398658 323.298028 
L 312.595658 323.976259 
L 312.792657 323.298028 
L 313.186655 323.298028 
L 313.383654 325.002053 
L 313.580653 322.925865 
L 313.777652 325.002053 
L 313.974651 322.044998 
L 314.17165 325.002053 
L 314.36865 331.543162 
L 315.156646 331.543162 
L 315.353645 324.564638 
L 315.550644 324.564638 
L 315.747643 332.295032 
L 316.338641 332.391164 
L 316.53564 331.422219 
L 316.732639 327.719698 
L 317.126637 327.719698 
L 317.323636 328.164262 
L 317.717635 331.485086 
L 317.914634 330.111356 
L 318.111633 330.111356 
L 318.308632 328.4008 
L 318.70263 328.4008 
L 318.899629 333.830328 
L 318.70263 338.739161 
L 318.899629 338.739161 
L 319.096628 340.222158 
L 319.884625 313.881895 
L 320.081624 313.881895 
L 320.278623 324.47052 
L 320.475622 325.735801 
L 321.263619 325.735801 
L 321.460618 342.301024 
L 321.854616 342.301024 
L 322.051615 322.555033 
L 322.248614 321.983973 
L 322.445613 321.983973 
L 322.640693 346.6 
M 322.844473 346.6 
L 323.036611 337.029459 
L 323.23361 339.336571 
L 323.430609 339.336571 
L 323.627608 345.796552 
L 323.824607 346.270132 
L 323.831833 346.6 
M 324.080911 346.6 
L 324.218605 326.485109 
L 324.809603 326.567675 
L 325.203601 325.705541 
L 325.4006 326.567675 
L 325.597599 323.415613 
L 325.991598 323.419949 
L 326.188597 337.767007 
L 326.385596 337.767007 
L 326.582595 344.16952 
L 326.779594 341.973665 
L 327.370591 341.973665 
L 327.56759 341.580181 
L 327.76459 341.580181 
L 327.961589 331.603948 
L 328.355587 331.577472 
L 328.552586 329.927049 
L 328.749585 329.927049 
L 328.946584 342.33707 
L 329.143583 342.33707 
L 329.340583 342.757771 
L 329.537582 345.069256 
L 329.734581 345.069256 
L 329.848451 346.6 
M 330.257705 346.6 
L 330.325578 346.012606 
L 330.522577 341.583774 
L 330.719576 339.738416 
L 330.916575 339.738416 
L 331.113575 340.519041 
L 331.310574 340.519041 
L 331.507573 339.730909 
L 331.704572 322.637022 
L 332.09857 322.637022 
L 332.295569 327.785289 
L 332.492568 327.785289 
L 332.886567 334.917624 
L 333.083566 335.952102 
L 333.280565 341.610701 
L 333.477564 342.833157 
L 333.562979 346.6 
M 336.087365 346.6 
L 336.235552 334.017591 
L 336.383738 346.6 
M 336.505635 346.6 
L 336.62955 339.572766 
L 336.826549 340.222158 
L 337.417546 340.222158 
L 337.614545 331.616307 
L 338.008544 331.616307 
L 338.177644 346.6 
M 341.74041 346.6 
L 341.948526 330.871209 
L 342.145525 330.062968 
L 342.342524 330.062968 
L 342.539523 329.264693 
L 342.736523 329.264693 
L 342.91354 346.6 
M 343.550017 346.6 
L 343.721518 333.438165 
L 343.918517 332.019872 
L 344.115516 332.019872 
L 344.312515 333.438165 
L 344.521711 346.6 
M 345.27767 346.6 
L 345.297511 343.846056 
L 345.49451 343.846056 
L 345.619989 346.6 
M 346.099164 346.6 
L 346.282507 325.526048 
L 346.676505 325.526048 
L 346.873504 323.295567 
L 347.267502 323.295567 
L 347.464501 343.078413 
L 347.6615 346.058406 
L 348.252498 346.058406 
L 348.449497 343.405654 
L 348.646496 322.795462 
L 348.843495 322.795462 
L 349.040494 334.2316 
L 349.237493 334.2316 
L 349.434492 341.078415 
L 349.631492 342.377959 
L 349.897531 346.6 
M 351.734003 346.6 
L 351.798482 330.320324 
L 351.995481 323.86985 
L 352.389479 324.000884 
L 352.586478 330.266112 
L 352.783477 343.87897 
L 352.980477 343.87897 
L 353.177476 340.436569 
L 353.374475 329.342986 
L 353.768473 329.342986 
L 353.965472 327.767948 
L 354.254787 346.6 
M 355.240355 346.6 
L 355.541465 326.491963 
L 355.738464 326.661924 
L 356.132462 326.661924 
L 356.45308 346.6 
M 357.913788 346.6 
L 358.102454 331.784355 
L 358.299453 331.784355 
L 358.488119 346.6 
M 359.598264 346.6 
L 359.678447 341.885603 
L 359.875446 341.885603 
L 360.080316 346.6 
M 360.458572 346.6 
L 360.466443 346.314154 
L 360.471067 346.6 
M 360.855818 346.6 
L 361.05744 340.135262 
L 361.25444 340.135262 
L 361.451439 345.421844 
L 361.648438 340.135262 
L 361.987471 346.6 
M 363.003412 346.6 
L 363.027432 344.932873 
L 363.208691 346.6 
M 363.226079 346.6 
L 363.42143 329.443564 
L 363.618429 329.349443 
L 363.813789 346.6 
M 363.818388 346.6 
L 364.012427 337.108723 
L 364.406425 337.108723 
L 364.495458 346.6 
M 364.993574 346.6 
L 364.997423 346.370632 
L 365.00073 346.6 
M 365.388114 346.6 
L 365.391421 346.370632 
L 365.58842 346.370632 
L 365.785419 346.515149 
L 366.179417 346.41636 
L 366.376417 336.73017 
L 366.573416 335.320642 
L 366.967414 335.320642 
L 367.030613 346.6 
M 368.623086 346.6 
L 368.740406 331.338608 
L 369.331403 331.394294 
L 369.511767 346.6 
M 370.129936 346.6 
L 370.316399 342.544083 
L 370.513398 330.19475 
L 370.907396 330.19475 
L 371.19213 346.6 
M 371.995523 346.6 
L 372.28639 338.281233 
L 372.483389 338.281233 
L 372.680388 323.532392 
L 372.877387 325.915359 
L 373.074387 325.915359 
L 373.271386 323.532392 
L 373.468385 325.915359 
L 373.665384 338.112781 
L 373.862383 338.112781 
L 374.059382 323.532392 
L 374.237746 346.6 
M 374.281103 346.6 
L 374.45338 329.804245 
L 374.847379 337.094111 
L 375.044378 337.094111 
L 375.188602 346.6 
M 375.683301 346.6 
L 375.832374 335.780531 
L 376.226372 335.780531 
L 376.423372 337.885427 
L 376.620371 345.446484 
L 377.014369 345.446484 
L 377.211368 342.9096 
L 377.408367 342.9096 
L 377.573227 346.6 
M 378.35869 346.6 
L 378.393363 346.250445 
L 378.428036 346.6 
M 379.551829 346.6 
L 379.575357 340.535389 
L 379.772357 318.606433 
L 379.969356 318.606433 
L 380.166355 319.689623 
L 380.363354 319.689623 
L 380.547257 346.6 
M 382.260398 346.6 
L 382.333345 343.925035 
L 382.530344 343.925035 
L 382.619093 346.6 
M 383.360835 346.6 
L 383.51534 325.092241 
L 383.909338 325.092241 
L 384.106337 329.577425 
L 384.303336 329.577425 
L 384.500335 326.589834 
L 384.697335 320.822762 
L 385.288332 320.822762 
L 385.68233 327.556507 
L 386.076328 319.444642 
L 386.470327 332.147012 
L 386.864325 332.147012 
L 387.061324 323.678823 
L 387.455322 323.658324 
L 387.84932 329.50631 
L 388.04632 342.285933 
L 388.243319 342.285933 
L 388.637317 323.801804 
L 388.834316 323.801804 
L 389.031315 330.613949 
L 389.228314 330.613949 
L 389.425313 322.097168 
L 389.819312 322.097168 
L 390.016311 323.532392 
L 390.410309 324.608895 
L 390.607308 336.832255 
L 390.804307 336.832255 
L 391.001306 336.608277 
L 391.198305 336.832255 
L 391.395305 336.608277 
L 391.592304 336.608277 
L 391.789303 336.394629 
L 391.986302 336.853839 
L 392.183301 340.988035 
L 392.3803 340.988035 
L 392.577299 337.024373 
L 392.774298 336.742965 
L 393.365296 336.742965 
L 393.562295 340.969859 
L 393.660418 346.6 
L 393.660418 346.6 
" style="fill:none;stroke:#1f77b4;stroke-linecap:square;stroke-width:1.5;"/>
   </g>
   <g id="line2d_15">
    <path clip-path="url(#p4663acc16f)" d="M 73.832727 323.032938 
L 74.029726 323.234826 
L 73.832727 322.609829 
L 74.423725 321.945353 
L 74.620724 320.925195 
L 74.817723 322.064712 
L 75.014722 315.569711 
L 75.211721 313.319377 
L 75.40872 320.535668 
L 75.211721 327.104656 
L 75.605719 322.875314 
L 75.802718 307.956485 
L 76.196717 317.632458 
L 76.393716 316.108892 
L 76.787714 320.000646 
L 76.984713 319.892735 
L 77.575711 331.593254 
L 77.969709 326.812273 
L 78.166708 327.516591 
L 78.363707 330.749261 
L 78.560706 324.641146 
L 78.757705 325.465558 
L 79.151703 315.32609 
L 79.545702 324.079441 
L 79.9397 325.536163 
L 80.333698 331.368719 
L 80.530697 329.145857 
L 80.924695 335.185726 
L 81.121695 334.170628 
L 81.515693 327.818082 
L 81.712692 309.427624 
L 82.10669 321.546663 
L 82.303689 277.140442 
L 82.894687 295.164435 
L 83.682683 316.653835 
L 83.879682 317.935392 
L 84.076681 320.363136 
L 84.47068 318.688081 
L 84.667679 318.532218 
L 84.864678 321.511414 
L 85.061677 319.651246 
L 85.258676 319.480918 
L 85.455675 317.598385 
L 86.046673 323.978283 
L 86.243672 322.956035 
L 86.63767 326.039772 
L 86.834669 322.718256 
L 87.031668 328.290979 
L 87.228667 323.640545 
L 87.425666 299.377228 
L 87.622665 309.805012 
L 87.819665 313.696507 
L 88.016664 314.307299 
L 88.213663 317.106403 
L 88.410662 312.829488 
L 88.80466 320.751248 
L 89.198658 316.09221 
L 89.395658 320.676282 
L 89.592657 321.405415 
L 89.986655 316.115276 
L 90.183654 316.274098 
L 90.380653 317.312031 
L 90.577652 316.369747 
L 90.774651 312.459685 
L 91.16865 317.158687 
L 91.365649 318.011544 
L 91.562648 305.154842 
L 91.956646 316.31845 
L 92.153645 315.770161 
L 92.350644 311.86192 
L 92.547643 311.021224 
L 92.744643 313.147462 
L 93.138641 320.465972 
L 93.33564 321.754435 
L 93.926637 312.138675 
L 94.123636 314.763923 
L 94.320635 315.655681 
L 94.714634 324.429492 
L 94.911633 323.679777 
L 95.108632 323.621204 
L 95.50263 320.389488 
L 95.699629 319.89097 
L 95.896628 312.705481 
L 96.487626 320.053933 
L 96.684625 319.645985 
L 96.881624 318.283513 
L 97.472621 327.580225 
L 97.66962 310.208996 
L 98.063619 317.723497 
L 98.260618 315.814807 
L 98.654616 323.286585 
L 98.851615 322.786904 
L 99.048614 282.971326 
L 99.442613 298.333484 
L 100.03361 310.0621 
L 100.427608 321.063815 
L 100.230609 327.130613 
L 100.427608 323.352175 
L 100.821606 327.492899 
L 101.018605 324.894424 
L 101.215605 324.144509 
L 101.412604 317.033896 
L 101.609603 316.644729 
L 101.806602 319.924635 
L 102.003601 319.783339 
L 102.2006 326.402461 
L 102.594598 316.375173 
L 102.988597 324.794496 
L 103.185596 323.096499 
L 103.382595 318.842334 
L 103.579594 302.602543 
L 103.973592 315.59376 
L 104.56459 332.415711 
L 104.761589 331.445282 
L 104.958588 311.096747 
L 105.352586 317.887473 
L 105.549585 309.568785 
L 106.140583 323.475606 
L 106.337582 324.285107 
L 106.534581 326.384633 
L 106.73158 322.503604 
L 106.928579 325.341213 
L 107.125578 324.977848 
L 107.322577 322.005753 
L 107.519576 316.907572 
L 107.716575 320.093069 
L 107.913575 318.480064 
L 108.110574 318.772951 
L 108.307573 320.872597 
L 108.504572 320.041556 
L 108.701571 325.113064 
L 108.89857 321.95646 
L 109.292568 327.216747 
L 109.489568 327.30543 
L 109.686567 324.127831 
L 109.883566 325.045765 
L 110.080565 321.587329 
L 109.883566 321.612711 
L 110.277564 319.621087 
L 110.474563 319.529538 
L 110.671562 324.990522 
L 110.868561 319.762124 
L 111.459559 328.661814 
L 111.656558 327.724299 
L 111.853557 320.730409 
L 112.050556 322.600324 
L 112.247555 322.119961 
L 112.444554 327.607509 
L 113.232551 318.90108 
L 113.42955 309.923159 
L 113.823548 315.082519 
L 114.020547 314.334826 
L 114.217546 306.482077 
L 114.611545 317.025919 
L 114.808544 318.372866 
L 114.611545 319.110182 
L 115.005543 318.042333 
L 115.202542 317.543264 
L 115.399541 322.305995 
L 115.59654 322.238382 
L 115.793539 318.352684 
L 115.990538 318.381055 
L 116.384537 313.609893 
L 116.581536 316.905981 
L 116.778535 241.019678 
L 118.354528 302.130233 
L 119.142524 320.599967 
L 119.536523 320.104364 
L 119.733522 317.695784 
L 119.930521 323.050368 
L 120.12752 323.830536 
L 120.324519 327.131563 
L 120.521518 321.091465 
L 120.718517 328.583017 
L 120.521518 319.629329 
L 120.915516 316.391227 
L 121.112515 322.214714 
L 121.309515 314.232962 
L 121.703513 324.125368 
L 121.900512 324.66689 
L 122.097511 322.40219 
L 122.29451 323.469908 
L 122.491509 328.101554 
L 122.885508 322.183852 
L 123.082507 310.599654 
L 123.279506 316.314503 
L 123.476505 318.495843 
L 123.870503 317.928099 
L 124.067502 315.068348 
L 124.264501 316.329305 
L 124.4615 322.07398 
L 124.6585 319.731024 
L 124.855499 321.437485 
L 125.249497 332.208669 
L 125.446496 318.047776 
L 125.643495 317.895338 
L 126.037493 313.036026 
L 126.234492 315.152272 
L 126.431492 315.152286 
L 126.628491 314.733927 
L 126.82549 316.141626 
L 127.022489 315.416357 
L 127.219488 313.517468 
L 127.416487 318.904815 
L 127.613486 315.25145 
L 128.007485 318.635277 
L 127.613486 314.682267 
L 128.204484 294.218188 
L 128.401483 296.866459 
L 128.598482 301.423056 
L 128.795481 301.231628 
L 128.99248 305.262451 
L 129.189479 301.47289 
L 129.583477 309.617923 
L 129.780477 307.217504 
L 129.977476 307.775051 
L 130.174475 312.945196 
L 130.371474 309.092747 
L 130.568473 239.659474 
L 130.765472 247.628243 
L 131.15947 255.558111 
L 131.553469 270.611499 
L 131.750468 271.016189 
L 132.144466 284.296645 
L 132.538464 292.932966 
L 132.735463 288.990627 
L 132.932462 293.586046 
L 133.129462 294.131267 
L 133.52346 310.253928 
L 133.917458 305.203857 
L 134.114457 291.912952 
L 134.508455 296.744655 
L 135.099453 312.977236 
L 135.296452 313.050751 
L 135.493451 309.130453 
L 135.69045 310.925176 
L 135.887449 308.037679 
L 136.281447 316.686037 
L 136.478447 309.281727 
L 136.872445 321.750982 
L 137.069444 318.453273 
L 137.266443 309.626537 
L 137.463442 313.208298 
L 137.660441 301.223683 
L 137.85744 302.51215 
L 138.05444 304.558823 
L 138.251439 309.365275 
L 138.448438 310.012067 
L 138.645437 294.764927 
L 139.039435 302.109983 
L 139.236434 305.091252 
L 139.433433 303.491392 
L 139.630432 304.261181 
L 139.827432 311.550211 
L 140.024431 312.94079 
L 140.22143 318.844775 
L 140.418429 319.940456 
L 140.615428 319.882226 
L 140.812427 324.128802 
L 141.009426 316.445978 
L 141.206425 316.680306 
L 141.403425 316.680319 
L 141.600424 307.354156 
L 141.797423 310.896922 
L 141.994422 310.896941 
L 142.191421 316.191794 
L 142.38842 312.08824 
L 142.585419 311.435412 
L 142.782418 315.968521 
L 142.979417 315.835316 
L 143.176417 313.8106 
L 143.373416 301.045944 
L 143.570415 306.22066 
L 143.767414 303.346069 
L 143.964413 303.346075 
L 144.161412 288.86795 
L 144.55541 302.667266 
L 144.75241 282.24658 
L 145.540406 307.177203 
L 145.737405 307.74107 
L 145.934404 310.572599 
L 146.131403 309.07037 
L 146.328402 305.990371 
L 146.525402 307.613223 
L 146.9194 302.824123 
L 146.722401 309.137358 
L 147.116399 313.227942 
L 147.313398 307.790676 
L 147.510397 309.37618 
L 147.707396 281.125907 
L 146.9194 285.632142 
L 147.904395 293.491509 
L 148.298394 301.284059 
L 148.495393 298.62394 
L 148.889391 304.846841 
L 149.08639 303.090154 
L 149.480388 311.962108 
L 149.677387 301.762315 
L 150.071386 310.330716 
L 150.268385 309.805759 
L 150.465384 309.634466 
L 150.859382 321.635034 
L 151.056381 314.017519 
L 151.25338 313.969843 
L 151.45038 307.854439 
L 151.647379 308.947839 
L 151.844378 308.385833 
L 152.041377 309.573316 
L 152.238376 311.617011 
L 152.435375 310.549746 
L 152.632374 311.643028 
L 152.829373 307.216311 
L 153.026372 308.763195 
L 153.223372 307.963882 
L 153.61737 320.351571 
L 153.814369 317.106691 
L 154.011368 317.431974 
L 154.208367 318.439788 
L 154.405366 312.159411 
L 154.602365 298.231655 
L 154.799365 302.677355 
L 154.996364 300.874424 
L 155.193363 301.740768 
L 155.390362 303.605658 
L 155.587361 294.275517 
L 155.981359 301.542077 
L 156.178358 301.62152 
L 156.375357 302.298326 
L 156.572357 299.983594 
L 156.769356 300.773569 
L 156.966355 298.687602 
L 157.163354 300.433057 
L 157.360353 303.328526 
L 157.557352 302.950626 
L 157.754351 300.313066 
L 157.95135 301.722726 
L 158.14835 300.296117 
L 158.345349 300.987425 
L 158.542348 300.640974 
L 158.14835 300.47586 
L 158.739347 300.454442 
L 159.330344 310.292106 
L 159.527343 308.314055 
L 159.724342 308.517584 
L 159.921342 310.519644 
L 160.118341 311.310482 
L 160.31534 310.802782 
L 160.709338 314.162069 
L 160.906337 318.472172 
L 161.103336 306.78615 
L 161.300335 308.937661 
L 161.497335 312.926253 
L 161.694334 312.926269 
L 161.891333 316.561719 
L 162.088332 308.468328 
L 162.285331 312.059643 
L 162.48233 313.506776 
L 162.285331 313.172107 
L 162.679329 313.148397 
L 162.876328 313.432833 
L 163.073327 314.428445 
L 163.270327 313.128321 
L 163.861324 313.157746 
L 164.058323 279.137876 
L 164.64932 298.423429 
L 165.043319 299.234841 
L 164.64932 296.704078 
L 165.240318 298.527889 
L 165.437317 298.275375 
L 165.634316 299.392751 
L 165.831315 304.027785 
L 166.028314 304.726222 
L 166.225313 310.791136 
L 166.422312 309.4546 
L 166.619312 309.3649 
L 166.816311 310.594397 
L 167.01331 309.971341 
L 167.210309 310.980489 
L 167.407308 310.766869 
L 167.604307 307.659753 
L 167.998305 310.058196 
L 168.392304 310.511204 
L 168.589303 304.560332 
L 168.786302 310.141122 
L 168.983301 308.155984 
L 169.1803 308.987695 
L 169.377299 311.232861 
L 169.574298 310.055882 
L 169.771297 312.048509 
L 169.968297 317.935632 
L 170.165296 318.259636 
L 170.559294 318.015793 
L 170.756293 317.975666 
L 170.953292 319.060206 
L 171.150291 319.393744 
L 171.34729 319.045778 
L 171.544289 319.19572 
L 171.741289 319.12052 
L 171.938288 306.486441 
L 172.332286 312.966311 
L 172.529285 311.776163 
L 172.726284 312.355938 
L 173.120282 312.355969 
L 173.317282 311.705467 
L 173.514281 312.988663 
L 173.908279 312.510942 
L 174.105278 313.913194 
L 174.499276 312.770178 
L 174.893274 313.101082 
L 175.090274 311.201325 
L 175.287273 315.771166 
L 175.484272 315.771243 
L 175.681271 312.957973 
L 175.87827 312.046328 
L 176.075269 312.286811 
L 175.87827 311.718267 
L 176.469267 311.635097 
L 176.666267 313.622523 
L 176.863266 312.177241 
L 177.060265 313.100632 
L 177.257264 311.687754 
L 177.454263 312.37822 
L 177.848261 311.374128 
L 178.04526 311.268292 
L 178.242259 309.902902 
L 178.439259 310.606924 
L 178.636258 311.95217 
L 179.030256 318.689864 
L 179.424254 318.690178 
L 179.621253 317.61353 
L 179.818252 318.139207 
L 180.015252 317.873411 
L 180.212251 316.565557 
L 180.40925 314.325112 
L 180.606249 307.589955 
L 180.803248 310.511994 
L 181.394245 304.80391 
L 181.591244 306.556737 
L 181.788244 305.647137 
L 181.985243 309.338956 
L 182.182242 307.864334 
L 182.379241 250.046565 
L 183.364237 287.649005 
L 184.152233 305.063719 
L 184.349232 305.236095 
L 185.137229 318.552311 
L 185.334228 317.319341 
L 185.728226 318.231523 
L 186.122224 318.781662 
L 186.319223 318.616946 
L 186.516222 311.079126 
L 186.713222 314.300241 
L 187.10722 317.00006 
L 187.501218 310.934399 
L 187.698217 312.045657 
L 187.895216 311.552309 
L 188.092215 311.796371 
L 188.289214 315.645733 
L 188.486214 315.603562 
L 188.683213 315.736334 
L 189.077211 313.78116 
L 189.27421 304.40509 
L 189.471209 309.802999 
L 189.668208 311.26657 
L 189.865207 308.820452 
L 190.062207 297.665715 
L 189.865207 302.053584 
L 190.259206 304.656111 
L 190.653204 312.501139 
L 190.850203 312.499881 
L 191.047202 308.542063 
L 191.244201 308.077325 
L 191.638199 318.483905 
L 191.835199 306.459974 
L 192.032198 310.985124 
L 192.229197 309.853057 
L 192.426196 310.407911 
L 193.017193 323.095041 
L 193.214192 324.55258 
L 193.411192 322.515418 
L 193.214192 323.648109 
L 193.608191 311.442682 
L 193.80519 313.24697 
L 194.002189 311.16528 
L 194.199188 310.781094 
L 194.396187 314.231715 
L 194.593186 315.033303 
L 194.790185 311.877963 
L 194.987184 311.42337 
L 195.184184 313.638598 
L 195.578182 311.808488 
L 195.775181 317.393493 
L 195.97218 316.973125 
L 196.169179 321.668639 
L 196.563177 302.599147 
L 196.957176 306.448177 
L 197.154175 305.072156 
L 197.351174 306.058986 
L 197.548173 297.021775 
L 197.745172 298.482043 
L 197.942171 304.703643 
L 198.13917 305.363065 
L 198.336169 303.484589 
L 198.533169 304.40774 
L 198.730168 306.172737 
L 198.927167 309.154916 
L 199.124166 304.947182 
L 199.321165 307.57488 
L 199.518164 306.186516 
L 199.715163 307.175331 
L 200.109162 314.957742 
L 200.306161 309.266149 
L 200.50316 311.276402 
L 200.700159 306.971879 
L 200.897158 309.475869 
L 201.291156 311.788529 
L 201.094157 310.087797 
L 201.488155 305.316026 
L 201.685154 306.496097 
L 201.882154 308.387708 
L 202.079153 306.362402 
L 202.276152 307.377887 
L 202.473151 304.745337 
L 202.67015 310.185385 
L 202.867149 309.996532 
L 203.064148 297.880934 
L 203.458147 304.561843 
L 203.655146 305.306549 
L 203.852145 303.460536 
L 204.049144 309.641475 
L 204.246143 305.874678 
L 204.443142 310.345317 
L 204.640141 289.748219 
L 205.231139 307.949983 
L 205.428138 301.170081 
L 205.625137 303.220479 
L 205.822136 306.526932 
L 206.019135 307.246291 
L 206.216134 299.010315 
L 206.019135 297.103895 
L 206.413133 299.988929 
L 206.807132 309.109153 
L 207.004131 305.377013 
L 207.20113 304.050942 
L 207.398129 306.110294 
L 207.595128 306.046639 
L 207.792127 308.676327 
L 207.989126 315.348492 
L 208.186125 311.442673 
L 208.580124 311.459257 
L 208.777123 310.670072 
L 208.974122 311.060605 
L 209.171121 305.574254 
L 209.36812 307.996721 
L 209.565119 312.724473 
L 209.762118 312.400961 
L 209.959117 310.244607 
L 210.156117 314.590548 
L 210.353116 312.214561 
L 210.550115 311.619555 
L 210.747114 311.619565 
L 210.944113 310.994714 
L 211.141112 313.377093 
L 211.338111 310.41618 
L 211.53511 310.329205 
L 211.732109 309.91258 
L 211.929109 314.187159 
L 212.126108 311.853364 
L 212.323107 311.187081 
L 212.520106 307.978321 
L 212.717105 311.683904 
L 213.111103 306.8888 
L 213.308102 309.613253 
L 213.505102 314.517754 
L 213.702101 315.75681 
L 213.8991 278.006141 
L 214.096099 291.666663 
L 214.490097 300.59788 
L 214.687096 300.690366 
L 214.884095 301.555117 
L 215.278094 307.601877 
L 215.475093 307.924667 
L 215.672092 307.385941 
L 215.869091 307.813137 
L 216.06609 307.437477 
L 216.263089 312.590367 
L 216.460088 313.389846 
L 216.657087 319.397322 
L 216.854086 320.748445 
L 217.051086 306.265132 
L 217.248085 311.166229 
L 217.445084 306.617837 
L 217.642083 306.43967 
L 217.839082 309.250782 
L 218.036081 304.914813 
L 218.23308 305.65206 
L 218.430079 303.594935 
L 218.627079 308.071461 
L 218.824078 307.372545 
L 219.021077 297.375855 
L 219.218076 305.116252 
L 219.415075 308.46024 
L 219.809073 304.481521 
L 220.006072 311.116149 
L 220.400071 295.660141 
L 220.59707 299.041882 
L 220.794069 286.085609 
L 220.991068 281.566356 
L 221.385066 296.465653 
L 221.779064 301.789618 
L 221.582065 299.691619 
L 221.976064 301.576742 
L 222.173063 301.722035 
L 222.370062 302.046001 
L 222.76406 310.407569 
L 222.961059 310.965778 
L 223.158058 310.748509 
L 223.355057 311.951689 
L 223.552056 317.309462 
L 223.749056 309.935342 
L 223.946055 308.682666 
L 224.143054 315.007725 
L 224.340053 311.861792 
L 224.537052 304.850551 
L 224.93105 309.491584 
L 224.734051 241.012367 
L 225.128049 248.88491 
L 225.916046 279.22761 
L 225.719047 279.644051 
L 226.704042 296.147056 
L 227.098041 293.298317 
L 227.29504 292.882036 
L 227.492039 293.378949 
L 227.689038 294.188529 
L 227.886037 301.353077 
L 228.083036 297.850599 
L 228.280035 304.194266 
L 228.477034 289.223917 
L 228.871033 297.61575 
L 229.068032 299.481958 
L 229.265031 296.47746 
L 229.46203 298.981914 
L 230.053027 301.15861 
L 230.447026 298.668239 
L 230.644025 302.380844 
L 230.841024 303.088663 
L 231.038023 297.844342 
L 231.432021 305.122993 
L 231.62902 305.123003 
L 231.826019 306.776405 
L 232.023019 313.130588 
L 232.220018 306.572291 
L 232.614016 305.698422 
L 232.811015 311.350204 
L 233.008014 311.712373 
L 233.205013 311.359781 
L 233.402012 303.58746 
L 233.599011 305.402477 
L 233.796011 304.459403 
L 233.99301 299.110404 
L 234.190009 300.213195 
L 234.387008 300.661842 
L 234.584007 307.370245 
L 234.781006 303.246339 
L 234.978005 286.519494 
L 235.175004 290.657047 
L 235.372004 300.811355 
L 235.569003 300.283132 
L 235.766002 300.544233 
L 235.963001 298.865694 
L 236.356999 300.307572 
L 236.553998 299.561374 
L 236.750997 305.828457 
L 236.947996 302.817076 
L 237.144996 305.184284 
L 237.341995 305.326061 
L 237.538994 285.181297 
L 237.341995 291.205959 
L 237.735993 295.77255 
L 237.932992 302.470094 
L 238.129991 302.325998 
L 238.32699 301.090896 
L 238.523989 302.847554 
L 238.720989 301.322335 
L 238.917988 307.797158 
L 239.114987 305.409891 
L 239.311986 306.554544 
L 239.508985 309.577619 
L 239.705984 304.120034 
L 239.902983 302.928952 
L 240.099982 304.1296 
L 240.296981 301.148657 
L 240.493981 307.518485 
L 239.902983 278.947999 
L 240.69098 285.69024 
L 240.887979 291.791114 
L 241.872974 301.0754 
L 242.069974 301.707404 
L 242.266973 304.915199 
L 242.463972 310.335066 
L 242.660971 307.668354 
L 243.251968 305.597933 
L 243.448967 299.45681 
L 243.645966 304.094675 
L 243.842966 303.448673 
L 244.039965 303.831115 
L 244.236964 303.018314 
L 244.433963 278.718098 
L 245.02496 302.073763 
L 245.221959 302.011016 
L 245.418959 303.61141 
L 245.615958 302.632696 
L 245.812957 302.285591 
L 246.009956 304.889742 
L 246.206955 304.666796 
L 246.403954 303.18354 
L 246.600953 303.998806 
L 246.797952 309.576506 
L 247.191951 302.20731 
L 247.38895 304.840647 
L 247.585949 304.330893 
L 247.979947 302.525011 
L 248.176946 308.448979 
L 248.373945 299.470451 
L 248.570944 298.292159 
L 248.964943 301.852151 
L 249.161942 295.974332 
L 249.358941 299.123835 
L 249.752939 302.002329 
L 249.949938 300.473705 
L 250.146937 283.595856 
L 250.343936 288.66696 
L 250.540936 279.775133 
L 250.737935 281.860328 
L 251.131933 292.878371 
L 251.328932 299.273774 
L 251.525931 298.575274 
L 251.72293 302.807972 
L 251.919929 303.779325 
L 252.116929 306.518928 
L 252.313928 304.163111 
L 252.510927 311.693513 
L 252.707926 310.785473 
L 253.298923 303.726614 
L 252.904925 303.700008 
L 253.692921 306.710568 
L 254.08692 298.641114 
L 254.283919 301.57892 
L 254.480918 299.488296 
L 254.677917 300.653105 
L 254.874916 300.846566 
L 255.071915 303.951773 
L 255.268914 302.294828 
L 255.465914 303.094092 
L 255.662913 302.688636 
L 255.859912 300.921736 
L 256.450909 308.577933 
L 256.647908 305.714796 
L 256.844907 307.974822 
L 257.041906 305.2664 
L 257.238906 306.665118 
L 257.435905 311.99463 
L 257.632904 305.325206 
L 258.026902 309.333483 
L 258.223901 307.837321 
L 258.4209 310.239685 
L 259.011898 306.868385 
L 259.208897 307.080315 
L 259.405896 306.006115 
L 259.602895 306.497864 
L 259.799894 302.405565 
L 259.996893 291.338759 
L 260.390891 298.716812 
L 260.587891 301.60686 
L 260.78489 306.516248 
L 260.981889 307.638512 
L 261.178888 305.478442 
L 260.981889 303.801749 
L 261.375887 304.345986 
L 261.572886 306.654123 
L 261.769885 305.163119 
L 262.163883 306.60672 
L 261.769885 302.602185 
L 262.360883 261.466989 
L 262.754881 276.847074 
L 263.148879 298.341342 
L 263.542877 301.391834 
L 263.739876 306.644909 
L 263.936876 307.379813 
L 263.542877 304.348058 
L 263.936876 304.092605 
L 264.133875 309.039617 
L 264.330874 307.221467 
L 264.527873 310.128578 
L 264.724872 306.56343 
L 264.921871 295.328863 
L 265.11887 299.643266 
L 265.315869 301.077057 
L 265.512868 305.136362 
L 265.709868 302.934576 
L 265.906867 305.886124 
L 266.103866 294.674665 
L 266.300865 300.563224 
L 266.497864 297.828572 
L 266.694863 298.441747 
L 267.088861 312.423179 
L 267.285861 309.326648 
L 267.48286 308.042523 
L 267.679859 305.339533 
L 267.876858 304.334559 
L 268.073857 310.109558 
L 268.270856 306.865038 
L 268.467855 305.984027 
L 268.664854 306.699531 
L 268.861853 306.336272 
L 269.058853 305.732224 
L 269.255852 305.732227 
L 269.452851 305.941278 
L 269.64985 297.059206 
L 269.846849 296.152011 
L 270.043848 300.089626 
L 270.240847 298.952113 
L 270.437846 302.538182 
L 271.028844 302.097126 
L 271.619841 306.221716 
L 271.81684 305.632737 
L 272.013839 305.920057 
L 272.210838 310.341572 
L 272.407838 308.350643 
L 272.604837 305.077649 
L 272.801836 310.718434 
L 272.998835 310.784548 
L 273.195834 315.079164 
L 273.392833 312.580137 
L 273.786831 312.479796 
L 273.983831 311.519156 
L 274.377829 312.061769 
L 274.574828 308.301899 
L 274.771827 308.144883 
L 274.968826 310.174108 
L 275.165825 308.479862 
L 275.362824 308.367274 
L 275.559823 306.827857 
L 275.953822 319.274709 
L 276.150821 309.154222 
L 275.953822 306.693116 
L 276.34782 304.967897 
L 276.544819 312.103739 
L 276.741818 306.298301 
L 276.938817 305.00539 
L 277.135816 305.619304 
L 277.332816 302.252799 
L 277.529815 303.749638 
L 277.726814 302.959818 
L 277.923813 305.280621 
L 278.120812 305.021945 
L 278.317811 302.551886 
L 278.51481 285.886795 
L 278.711809 289.594299 
L 278.908808 289.911489 
L 279.105808 297.234965 
L 279.302807 300.072876 
L 279.499806 299.570621 
L 279.696805 298.52978 
L 280.090803 309.344424 
L 280.287802 311.876435 
L 280.484801 306.096284 
L 280.681801 308.541102 
L 280.8788 304.979612 
L 281.075799 307.920816 
L 281.272798 306.972495 
L 281.469797 298.647333 
L 281.666796 302.480799 
L 281.469797 305.011627 
L 281.863795 305.238344 
L 282.060794 304.493622 
L 282.257793 305.93991 
L 282.454793 305.939929 
L 282.651792 311.729103 
L 282.848791 311.729107 
L 283.04579 309.037962 
L 283.242789 312.88135 
L 283.439788 307.692836 
L 283.636787 308.566425 
L 283.242789 307.541589 
L 284.030786 310.251143 
L 284.621783 305.43508 
L 285.21278 313.616289 
L 285.409779 312.852217 
L 285.606778 308.319972 
L 285.803778 300.663161 
L 286.197776 307.191243 
L 286.394775 304.301817 
L 286.591774 305.250236 
L 286.788773 295.248167 
L 286.985772 299.140369 
L 287.182771 299.500938 
L 286.591774 295.267391 
L 287.379771 294.048851 
L 287.57677 293.07435 
L 287.773769 298.333451 
L 287.970768 299.828407 
L 288.167767 302.308173 
L 288.364766 303.112159 
L 288.167767 306.890997 
L 288.561765 306.595626 
L 288.758764 306.128376 
L 288.955763 301.423014 
L 289.546761 310.314952 
L 289.74376 304.044847 
L 289.940759 307.88699 
L 290.137758 305.311738 
L 290.334757 292.961897 
L 290.728756 304.715724 
L 290.925755 304.637157 
L 291.122754 304.33839 
L 291.319753 296.90437 
L 291.713751 300.873404 
L 291.91075 292.275398 
L 292.304748 301.594439 
L 292.501748 301.730992 
L 292.698747 304.153914 
L 292.895746 304.765412 
L 293.092745 300.183015 
L 293.683742 302.970186 
L 293.880741 305.254614 
L 294.27474 315.12346 
L 294.668738 303.46064 
L 294.865737 308.006782 
L 295.062736 306.998381 
L 295.259735 309.304032 
L 295.456734 310.228005 
L 295.653733 294.953342 
L 295.850733 295.183595 
L 296.244731 301.926236 
L 296.44173 309.725849 
L 296.638729 307.40489 
L 296.835728 309.070663 
L 297.032727 307.130438 
L 297.229726 302.688583 
L 297.426726 307.789984 
L 297.820724 306.571654 
L 298.017723 303.682297 
L 298.411721 305.062181 
L 298.60872 304.837765 
L 299.199718 305.263802 
L 299.396717 305.134054 
L 299.593716 305.271738 
L 299.790715 305.267846 
L 299.987714 308.953676 
L 300.184713 306.964444 
L 300.381712 314.07055 
L 300.578711 299.234432 
L 300.775711 301.47205 
L 300.97271 305.822508 
L 301.169709 316.150684 
L 301.366708 308.594148 
L 301.563707 307.625311 
L 301.760706 301.621344 
L 301.957705 299.489295 
L 302.154704 307.177276 
L 302.351703 304.221122 
L 302.548703 304.571077 
L 302.745702 302.748735 
L 302.942701 305.17766 
L 303.336699 302.042886 
L 303.533698 301.847073 
L 303.730697 302.782269 
L 304.124695 302.316708 
L 304.321695 306.517697 
L 303.730697 304.127788 
L 304.518694 302.943395 
L 305.109691 299.158905 
L 305.30669 301.40318 
L 305.700688 298.763969 
L 305.897688 303.228809 
L 306.094687 302.694432 
L 306.291686 308.741561 
L 306.488685 305.125934 
L 306.882683 303.496693 
L 307.079682 302.011553 
L 307.276681 304.896898 
L 307.47368 303.765123 
L 307.67068 304.585966 
L 307.867679 306.276219 
L 308.064678 305.400267 
L 308.261677 311.758798 
L 308.064678 306.396388 
L 308.458676 310.939054 
L 308.655675 309.65876 
L 308.852674 306.388648 
L 309.049673 311.224056 
L 309.443672 306.25898 
L 309.640671 306.702784 
L 309.83767 305.733552 
L 310.034669 301.025673 
L 310.231668 299.254219 
L 310.428667 291.508979 
L 310.625666 262.104033 
L 311.413663 286.497222 
L 312.201659 301.505972 
L 312.398658 301.501515 
L 312.595658 303.291763 
L 312.792657 306.620601 
L 312.989656 312.207763 
L 313.383654 302.382287 
L 313.580653 302.906465 
L 313.777652 300.781637 
L 313.974651 301.795271 
L 314.17165 305.270677 
L 314.36865 303.40283 
L 314.565649 310.443037 
L 314.762648 311.022701 
L 314.959647 310.729253 
L 315.353645 310.729286 
L 315.550644 316.792013 
L 315.747643 311.911183 
L 315.944643 290.163034 
L 316.141642 240.978549 
L 317.717635 300.817472 
L 317.914634 301.73622 
L 318.70263 317.205162 
L 318.899629 314.189659 
L 318.70263 308.625874 
L 319.490627 310.843665 
L 319.687626 310.757122 
L 319.884625 310.868334 
L 320.278623 309.646359 
L 320.475622 309.841259 
L 320.86962 309.77277 
L 321.06662 313.823815 
L 321.263619 311.580987 
L 321.460618 316.051866 
L 321.657617 314.884702 
L 321.854616 314.744373 
L 322.051615 314.814414 
L 322.248614 308.072685 
L 322.642613 313.370785 
L 322.839612 314.070143 
L 323.036611 304.359754 
L 323.23361 314.549451 
L 323.430609 306.929773 
L 323.627608 305.961345 
L 323.824607 306.349119 
L 324.218605 306.841533 
L 324.415605 307.584137 
L 324.612604 307.303539 
L 324.809603 313.313963 
L 325.006602 307.634074 
L 325.203601 307.441676 
L 325.4006 313.14159 
L 325.794598 313.118069 
L 325.991598 319.15413 
L 326.188597 314.326504 
L 326.385596 314.984788 
L 326.582595 314.039495 
L 326.779594 314.611786 
L 326.976593 300.64844 
L 327.173592 298.80925 
L 327.370591 304.19209 
L 327.56759 303.636187 
L 327.76459 308.61181 
L 327.961589 308.432907 
L 328.158588 314.239946 
L 328.355587 307.335346 
L 328.749585 319.135189 
L 328.946584 311.051822 
L 329.340583 315.424803 
L 329.537582 308.239776 
L 329.734581 283.436096 
L 329.93158 289.905473 
L 330.128579 281.777588 
L 330.916575 304.900503 
L 331.113575 305.224004 
L 331.507573 308.752685 
L 331.901571 315.808172 
L 332.09857 315.808239 
L 332.295569 315.155644 
L 332.492568 312.01083 
L 332.689568 313.754327 
L 332.886567 313.754354 
L 333.083566 318.443911 
L 333.280565 318.969316 
L 333.477564 322.035419 
L 333.871562 322.507408 
L 334.068561 325.298989 
L 334.26556 330.383359 
L 334.46256 329.406039 
L 334.659559 321.720397 
L 334.856558 328.891232 
L 335.053557 313.302489 
L 335.447555 323.386436 
L 335.644554 275.493264 
L 336.235552 294.456441 
L 336.62955 300.775545 
L 337.220547 319.409397 
L 337.417546 320.584461 
L 337.614545 320.584472 
L 337.811545 323.130661 
L 338.008544 321.787612 
L 338.205543 324.473127 
L 338.402542 332.240498 
L 338.599541 326.317012 
L 338.79654 328.903347 
L 338.993539 311.186921 
L 339.584537 322.748603 
L 339.781536 321.396769 
L 339.978535 320.896873 
L 340.175534 315.293329 
L 340.372533 305.862507 
L 340.766531 320.456231 
L 340.96353 323.05057 
L 341.16053 330.883468 
L 341.357529 329.880972 
L 341.554528 329.930724 
L 341.751527 330.374617 
L 342.145525 327.891939 
L 342.342524 328.560632 
L 342.539523 326.273639 
L 342.933522 336.024487 
L 343.130521 333.892542 
L 343.32752 319.830437 
L 343.721518 327.878862 
L 343.918517 320.426481 
L 344.115516 323.48975 
L 344.312515 321.811911 
L 344.509515 308.219568 
L 345.100512 315.73622 
L 345.49451 325.526026 
L 345.691509 312.233923 
L 345.888508 312.699572 
L 346.085508 317.417881 
L 346.282507 315.880402 
L 346.479506 313.000576 
L 346.676505 315.659291 
L 346.873504 314.742059 
L 347.070503 313.095376 
L 347.464501 321.213731 
L 347.6615 307.831532 
L 348.055499 304.713829 
L 348.252498 306.167879 
L 348.449497 305.418015 
L 348.646496 305.789519 
L 349.040494 316.694347 
L 349.237493 313.488439 
L 349.434492 315.575928 
L 349.828491 330.239713 
L 350.02549 328.199136 
L 350.222489 335.875239 
L 350.419488 324.546668 
L 350.616487 328.691662 
L 350.813486 317.763141 
L 351.010485 320.291446 
L 351.207485 320.186702 
L 351.404484 320.226936 
L 351.601483 315.562201 
L 351.798482 317.658407 
L 351.995481 320.968609 
L 352.19248 307.854524 
L 352.586478 315.627397 
L 352.783477 315.033842 
L 352.980477 315.45281 
L 353.177476 311.392338 
L 353.374475 314.791131 
L 353.571474 312.967246 
L 353.768473 313.84325 
L 353.965472 312.522977 
L 354.35947 311.959224 
L 354.55647 308.201689 
L 354.753469 310.021672 
L 354.950468 308.965787 
L 355.147467 312.544624 
L 355.344466 310.336761 
L 355.541465 311.388098 
L 355.738464 315.760437 
L 355.935463 322.782381 
L 356.132462 319.672366 
L 356.72346 323.325966 
L 356.920459 323.326093 
L 357.314457 320.84166 
L 357.511456 320.841699 
L 357.708455 324.306493 
L 357.905455 320.377333 
L 358.102454 321.610297 
L 358.496452 307.388189 
L 358.693451 308.689257 
L 358.89045 312.627625 
L 359.087449 310.491503 
L 359.284448 311.75986 
L 359.678447 321.322157 
L 359.875446 318.483974 
L 360.269444 330.070422 
L 360.466443 329.190229 
L 360.663442 329.62196 
L 360.860441 323.36726 
L 361.25444 333.650718 
L 361.451439 315.649312 
L 361.845437 325.593337 
L 362.042436 323.337588 
L 362.239435 324.173362 
L 362.633433 312.96216 
L 362.830432 313.072931 
L 363.027432 311.999651 
L 363.224431 313.246969 
L 363.42143 298.769059 
L 363.618429 293.81117 
L 363.815428 301.4824 
L 364.012427 303.441112 
L 364.209426 299.112969 
L 364.603425 303.643636 
L 364.800424 303.759345 
L 364.997423 299.732393 
L 365.194422 306.928388 
L 365.391421 308.099111 
L 365.58842 312.702027 
L 365.785419 311.368469 
L 365.982418 313.869198 
L 366.179417 313.846107 
L 366.376417 317.278783 
L 366.573416 323.074293 
L 366.770415 319.788256 
L 366.967414 319.788386 
L 367.361412 321.015798 
L 367.558411 321.015799 
L 367.75541 325.238668 
L 367.95241 322.871411 
L 368.149409 324.122703 
L 368.346408 314.753889 
L 368.543407 318.759322 
L 368.740406 316.583948 
L 368.937405 323.544916 
L 369.134404 314.769932 
L 369.331403 311.206035 
L 369.528402 316.467829 
L 369.725402 312.659545 
L 369.922401 313.965674 
L 370.1194 313.568629 
L 370.316399 312.673454 
L 370.513398 318.25674 
L 370.710397 319.18957 
L 370.907396 322.367422 
L 371.104395 305.116448 
L 371.301395 310.494603 
L 371.498394 311.76159 
L 371.695393 311.40222 
L 371.892392 311.359567 
L 372.089391 313.599914 
L 372.483389 304.734151 
L 372.877387 314.85554 
L 373.074387 312.085993 
L 373.271386 316.446491 
L 373.665384 314.509277 
L 373.862383 309.093098 
L 374.059382 308.071023 
L 374.256381 309.971856 
L 374.45338 317.598399 
L 374.65038 315.050716 
L 374.847379 315.613309 
L 375.044378 315.028239 
L 375.241377 317.56043 
L 375.438376 317.93445 
L 375.635375 310.498922 
L 375.832374 312.444629 
L 376.029373 307.496266 
L 376.226372 309.629654 
L 376.423372 314.362583 
L 376.620371 314.017733 
L 376.81737 315.643772 
L 377.014369 313.04276 
L 377.211368 317.057297 
L 377.408367 313.637621 
L 377.802365 318.218042 
L 377.999365 317.434872 
L 378.196364 317.819959 
L 378.393363 314.152812 
L 378.590362 320.016455 
L 378.787361 300.488173 
L 378.98436 299.883607 
L 379.378358 308.506935 
L 379.575357 314.95961 
L 379.772357 302.729266 
L 379.969356 306.776382 
L 380.166355 307.492871 
L 380.363354 307.1291 
L 380.560353 313.102886 
L 380.757352 310.310322 
L 380.954351 313.597963 
L 381.15135 311.837634 
L 381.34835 311.83768 
L 381.545349 312.684365 
L 381.742348 311.817868 
L 381.939347 312.637794 
L 382.136346 312.148689 
L 382.333345 298.230316 
L 382.530344 306.066109 
L 382.727343 307.211845 
L 382.924342 314.848818 
L 383.121342 313.783614 
L 383.318341 303.159119 
L 384.106337 317.564967 
L 384.303336 316.192736 
L 384.500335 311.218927 
L 384.697335 309.52533 
L 384.894334 315.207651 
L 385.091333 309.341938 
L 385.288332 310.874029 
L 385.485331 315.171202 
L 385.68233 312.774027 
L 386.076328 312.774031 
L 386.273327 317.039706 
L 386.470327 313.872326 
L 386.667326 308.526899 
L 386.864325 311.777734 
L 387.061324 310.038444 
L 387.455322 318.114972 
L 387.652321 321.678442 
L 387.84932 315.422072 
L 388.04632 320.728358 
L 388.440318 313.519674 
L 388.637317 313.519687 
L 389.031315 323.998005 
L 389.425313 318.167899 
L 389.622312 318.167916 
L 389.819312 313.481921 
L 390.21331 315.589036 
L 390.410309 313.940837 
L 390.607308 301.350193 
L 390.804307 302.618131 
L 391.001306 302.429487 
L 391.198305 302.553193 
L 391.395305 308.840759 
L 391.592304 308.050273 
L 391.986302 309.383279 
L 392.183301 308.287754 
L 392.3803 315.357618 
L 392.577299 311.315952 
L 392.774298 311.256229 
L 392.971297 313.126008 
L 393.365296 310.512485 
L 393.562295 266.505131 
L 393.956293 281.095052 
L 394.744289 291.86799 
L 394.941289 284.421728 
L 395.138288 260.779223 
L 395.532286 275.362504 
L 395.729285 273.233041 
L 395.926284 276.943844 
L 396.320282 289.723346 
L 396.714281 294.207079 
L 396.91128 297.788913 
L 397.108279 295.859796 
L 397.305278 296.751845 
L 397.699276 302.013395 
L 397.896275 307.87886 
L 398.093274 305.385465 
L 398.487273 306.274471 
L 398.487273 306.274471 
" style="fill:none;stroke:#ff7f0e;stroke-linecap:square;stroke-width:1.5;"/>
   </g>
   <g id="patch_3">
    <path d="M 57.6 307.584 
L 57.6 41.472 
" style="fill:none;stroke:#000000;stroke-linecap:square;stroke-linejoin:miter;stroke-width:0.8;"/>
   </g>
   <g id="patch_4">
    <path d="M 414.72 307.584 
L 414.72 41.472 
" style="fill:none;stroke:#000000;stroke-linecap:square;stroke-linejoin:miter;stroke-width:0.8;"/>
   </g>
   <g id="patch_5">
    <path d="M 57.6 307.584 
L 414.72 307.584 
" style="fill:none;stroke:#000000;stroke-linecap:square;stroke-linejoin:miter;stroke-width:0.8;"/>
   </g>
   <g id="patch_6">
    <path d="M 57.6 41.472 
L 414.72 41.472 
" style="fill:none;stroke:#000000;stroke-linecap:square;stroke-linejoin:miter;stroke-width:0.8;"/>
   </g>
  </g>
 </g>
 <defs>
  <clipPath id="p4663acc16f">
   <rect height="266.112" width="357.12" x="57.6" y="41.472"/>
  </clipPath>
 </defs>
</svg>
