<?xml version="1.0" encoding="utf-8" standalone="no"?>
<!DOCTYPE svg PUBLIC "-//W3C//DTD SVG 1.1//EN"
  "http://www.w3.org/Graphics/SVG/1.1/DTD/svg11.dtd">
<svg height="345.6pt" version="1.1" viewBox="0 0 460.8 345.6" width="460.8pt" xmlns="http://www.w3.org/2000/svg" xmlns:xlink="http://www.w3.org/1999/xlink">
 <metadata>
  <rdf:RDF xmlns:cc="http://creativecommons.org/ns#" xmlns:dc="http://purl.org/dc/elements/1.1/" xmlns:rdf="http://www.w3.org/1999/02/22-rdf-syntax-ns#">
   <cc:Work>
    <dc:type rdf:resource="http://purl.org/dc/dcmitype/StillImage"/>
    <dc:date>2022-01-06T20:41:17.687778</dc:date>
    <dc:format>image/svg+xml</dc:format>
    <dc:creator>
     <cc:Agent>
      <dc:title>Matplotlib v3.4.3, https://matplotlib.org/</dc:title>
     </cc:Agent>
    </dc:creator>
   </cc:Work>
  </rdf:RDF>
 </metadata>
 <defs>
  <style type="text/css">*{stroke-linecap:butt;stroke-linejoin:round;}</style>
 </defs>
 <g id="figure_1">
  <g id="patch_1">
   <path d="M 0 345.6 
L 460.8 345.6 
L 460.8 0 
L 0 0 
z
" style="fill:#ffffff;"/>
  </g>
  <g id="axes_1">
   <g id="patch_2">
    <path d="M 57.6 307.584 
L 414.72 307.584 
L 414.72 41.472 
L 57.6 41.472 
z
" style="fill:#ffffff;"/>
   </g>
   <g id="matplotlib.axis_1">
    <g id="xtick_1">
     <g id="line2d_1">
      <defs>
       <path d="M 0 0 
L 0 3.5 
" id="m33528aa426" style="stroke:#000000;stroke-width:0.8;"/>
      </defs>
      <g>
       <use style="stroke:#000000;stroke-width:0.8;" x="73.832727" xlink:href="#m33528aa426" y="307.584"/>
      </g>
     </g>
     <g id="text_1">
      <!-- 0 -->
      <g transform="translate(70.651477 322.182437)scale(0.1 -0.1)">
       <defs>
        <path d="M 2034 4250 
Q 1547 4250 1301 3770 
Q 1056 3291 1056 2328 
Q 1056 1369 1301 889 
Q 1547 409 2034 409 
Q 2525 409 2770 889 
Q 3016 1369 3016 2328 
Q 3016 3291 2770 3770 
Q 2525 4250 2034 4250 
z
M 2034 4750 
Q 2819 4750 3233 4129 
Q 3647 3509 3647 2328 
Q 3647 1150 3233 529 
Q 2819 -91 2034 -91 
Q 1250 -91 836 529 
Q 422 1150 422 2328 
Q 422 3509 836 4129 
Q 1250 4750 2034 4750 
z
" id="DejaVuSans-30" transform="scale(0.015625)"/>
       </defs>
       <use xlink:href="#DejaVuSans-30"/>
      </g>
     </g>
    </g>
    <g id="xtick_2">
     <g id="line2d_2">
      <g>
       <use style="stroke:#000000;stroke-width:0.8;" x="152.51397" xlink:href="#m33528aa426" y="307.584"/>
      </g>
     </g>
     <g id="text_2">
      <!-- 10000 -->
      <g transform="translate(136.60772 322.182437)scale(0.1 -0.1)">
       <defs>
        <path d="M 794 531 
L 1825 531 
L 1825 4091 
L 703 3866 
L 703 4441 
L 1819 4666 
L 2450 4666 
L 2450 531 
L 3481 531 
L 3481 0 
L 794 0 
L 794 531 
z
" id="DejaVuSans-31" transform="scale(0.015625)"/>
       </defs>
       <use xlink:href="#DejaVuSans-31"/>
       <use x="63.623047" xlink:href="#DejaVuSans-30"/>
       <use x="127.246094" xlink:href="#DejaVuSans-30"/>
       <use x="190.869141" xlink:href="#DejaVuSans-30"/>
       <use x="254.492188" xlink:href="#DejaVuSans-30"/>
      </g>
     </g>
    </g>
    <g id="xtick_3">
     <g id="line2d_3">
      <g>
       <use style="stroke:#000000;stroke-width:0.8;" x="231.195214" xlink:href="#m33528aa426" y="307.584"/>
      </g>
     </g>
     <g id="text_3">
      <!-- 20000 -->
      <g transform="translate(215.288964 322.182437)scale(0.1 -0.1)">
       <defs>
        <path d="M 1228 531 
L 3431 531 
L 3431 0 
L 469 0 
L 469 531 
Q 828 903 1448 1529 
Q 2069 2156 2228 2338 
Q 2531 2678 2651 2914 
Q 2772 3150 2772 3378 
Q 2772 3750 2511 3984 
Q 2250 4219 1831 4219 
Q 1534 4219 1204 4116 
Q 875 4013 500 3803 
L 500 4441 
Q 881 4594 1212 4672 
Q 1544 4750 1819 4750 
Q 2544 4750 2975 4387 
Q 3406 4025 3406 3419 
Q 3406 3131 3298 2873 
Q 3191 2616 2906 2266 
Q 2828 2175 2409 1742 
Q 1991 1309 1228 531 
z
" id="DejaVuSans-32" transform="scale(0.015625)"/>
       </defs>
       <use xlink:href="#DejaVuSans-32"/>
       <use x="63.623047" xlink:href="#DejaVuSans-30"/>
       <use x="127.246094" xlink:href="#DejaVuSans-30"/>
       <use x="190.869141" xlink:href="#DejaVuSans-30"/>
       <use x="254.492188" xlink:href="#DejaVuSans-30"/>
      </g>
     </g>
    </g>
    <g id="xtick_4">
     <g id="line2d_4">
      <g>
       <use style="stroke:#000000;stroke-width:0.8;" x="309.876457" xlink:href="#m33528aa426" y="307.584"/>
      </g>
     </g>
     <g id="text_4">
      <!-- 30000 -->
      <g transform="translate(293.970207 322.182437)scale(0.1 -0.1)">
       <defs>
        <path d="M 2597 2516 
Q 3050 2419 3304 2112 
Q 3559 1806 3559 1356 
Q 3559 666 3084 287 
Q 2609 -91 1734 -91 
Q 1441 -91 1130 -33 
Q 819 25 488 141 
L 488 750 
Q 750 597 1062 519 
Q 1375 441 1716 441 
Q 2309 441 2620 675 
Q 2931 909 2931 1356 
Q 2931 1769 2642 2001 
Q 2353 2234 1838 2234 
L 1294 2234 
L 1294 2753 
L 1863 2753 
Q 2328 2753 2575 2939 
Q 2822 3125 2822 3475 
Q 2822 3834 2567 4026 
Q 2313 4219 1838 4219 
Q 1578 4219 1281 4162 
Q 984 4106 628 3988 
L 628 4550 
Q 988 4650 1302 4700 
Q 1616 4750 1894 4750 
Q 2613 4750 3031 4423 
Q 3450 4097 3450 3541 
Q 3450 3153 3228 2886 
Q 3006 2619 2597 2516 
z
" id="DejaVuSans-33" transform="scale(0.015625)"/>
       </defs>
       <use xlink:href="#DejaVuSans-33"/>
       <use x="63.623047" xlink:href="#DejaVuSans-30"/>
       <use x="127.246094" xlink:href="#DejaVuSans-30"/>
       <use x="190.869141" xlink:href="#DejaVuSans-30"/>
       <use x="254.492188" xlink:href="#DejaVuSans-30"/>
      </g>
     </g>
    </g>
    <g id="xtick_5">
     <g id="line2d_5">
      <g>
       <use style="stroke:#000000;stroke-width:0.8;" x="388.5577" xlink:href="#m33528aa426" y="307.584"/>
      </g>
     </g>
     <g id="text_5">
      <!-- 40000 -->
      <g transform="translate(372.65145 322.182437)scale(0.1 -0.1)">
       <defs>
        <path d="M 2419 4116 
L 825 1625 
L 2419 1625 
L 2419 4116 
z
M 2253 4666 
L 3047 4666 
L 3047 1625 
L 3713 1625 
L 3713 1100 
L 3047 1100 
L 3047 0 
L 2419 0 
L 2419 1100 
L 313 1100 
L 313 1709 
L 2253 4666 
z
" id="DejaVuSans-34" transform="scale(0.015625)"/>
       </defs>
       <use xlink:href="#DejaVuSans-34"/>
       <use x="63.623047" xlink:href="#DejaVuSans-30"/>
       <use x="127.246094" xlink:href="#DejaVuSans-30"/>
       <use x="190.869141" xlink:href="#DejaVuSans-30"/>
       <use x="254.492188" xlink:href="#DejaVuSans-30"/>
      </g>
     </g>
    </g>
   </g>
   <g id="matplotlib.axis_2">
    <g id="ytick_1">
     <g id="line2d_6">
      <defs>
       <path d="M 0 0 
L -3.5 0 
" id="me7b5ac4de0" style="stroke:#000000;stroke-width:0.8;"/>
      </defs>
      <g>
       <use style="stroke:#000000;stroke-width:0.8;" x="57.6" xlink:href="#me7b5ac4de0" y="295.488161"/>
      </g>
     </g>
     <g id="text_6">
      <!-- 0.0 -->
      <g transform="translate(34.696875 299.28738)scale(0.1 -0.1)">
       <defs>
        <path d="M 684 794 
L 1344 794 
L 1344 0 
L 684 0 
L 684 794 
z
" id="DejaVuSans-2e" transform="scale(0.015625)"/>
       </defs>
       <use xlink:href="#DejaVuSans-30"/>
       <use x="63.623047" xlink:href="#DejaVuSans-2e"/>
       <use x="95.410156" xlink:href="#DejaVuSans-30"/>
      </g>
     </g>
    </g>
    <g id="ytick_2">
     <g id="line2d_7">
      <g>
       <use style="stroke:#000000;stroke-width:0.8;" x="57.6" xlink:href="#me7b5ac4de0" y="263.239615"/>
      </g>
     </g>
     <g id="text_7">
      <!-- 0.2 -->
      <g transform="translate(34.696875 267.038834)scale(0.1 -0.1)">
       <use xlink:href="#DejaVuSans-30"/>
       <use x="63.623047" xlink:href="#DejaVuSans-2e"/>
       <use x="95.410156" xlink:href="#DejaVuSans-32"/>
      </g>
     </g>
    </g>
    <g id="ytick_3">
     <g id="line2d_8">
      <g>
       <use style="stroke:#000000;stroke-width:0.8;" x="57.6" xlink:href="#me7b5ac4de0" y="230.991068"/>
      </g>
     </g>
     <g id="text_8">
      <!-- 0.4 -->
      <g transform="translate(34.696875 234.790287)scale(0.1 -0.1)">
       <use xlink:href="#DejaVuSans-30"/>
       <use x="63.623047" xlink:href="#DejaVuSans-2e"/>
       <use x="95.410156" xlink:href="#DejaVuSans-34"/>
      </g>
     </g>
    </g>
    <g id="ytick_4">
     <g id="line2d_9">
      <g>
       <use style="stroke:#000000;stroke-width:0.8;" x="57.6" xlink:href="#me7b5ac4de0" y="198.742522"/>
      </g>
     </g>
     <g id="text_9">
      <!-- 0.6 -->
      <g transform="translate(34.696875 202.541741)scale(0.1 -0.1)">
       <defs>
        <path d="M 2113 2584 
Q 1688 2584 1439 2293 
Q 1191 2003 1191 1497 
Q 1191 994 1439 701 
Q 1688 409 2113 409 
Q 2538 409 2786 701 
Q 3034 994 3034 1497 
Q 3034 2003 2786 2293 
Q 2538 2584 2113 2584 
z
M 3366 4563 
L 3366 3988 
Q 3128 4100 2886 4159 
Q 2644 4219 2406 4219 
Q 1781 4219 1451 3797 
Q 1122 3375 1075 2522 
Q 1259 2794 1537 2939 
Q 1816 3084 2150 3084 
Q 2853 3084 3261 2657 
Q 3669 2231 3669 1497 
Q 3669 778 3244 343 
Q 2819 -91 2113 -91 
Q 1303 -91 875 529 
Q 447 1150 447 2328 
Q 447 3434 972 4092 
Q 1497 4750 2381 4750 
Q 2619 4750 2861 4703 
Q 3103 4656 3366 4563 
z
" id="DejaVuSans-36" transform="scale(0.015625)"/>
       </defs>
       <use xlink:href="#DejaVuSans-30"/>
       <use x="63.623047" xlink:href="#DejaVuSans-2e"/>
       <use x="95.410156" xlink:href="#DejaVuSans-36"/>
      </g>
     </g>
    </g>
    <g id="ytick_5">
     <g id="line2d_10">
      <g>
       <use style="stroke:#000000;stroke-width:0.8;" x="57.6" xlink:href="#me7b5ac4de0" y="166.493975"/>
      </g>
     </g>
     <g id="text_10">
      <!-- 0.8 -->
      <g transform="translate(34.696875 170.293194)scale(0.1 -0.1)">
       <defs>
        <path d="M 2034 2216 
Q 1584 2216 1326 1975 
Q 1069 1734 1069 1313 
Q 1069 891 1326 650 
Q 1584 409 2034 409 
Q 2484 409 2743 651 
Q 3003 894 3003 1313 
Q 3003 1734 2745 1975 
Q 2488 2216 2034 2216 
z
M 1403 2484 
Q 997 2584 770 2862 
Q 544 3141 544 3541 
Q 544 4100 942 4425 
Q 1341 4750 2034 4750 
Q 2731 4750 3128 4425 
Q 3525 4100 3525 3541 
Q 3525 3141 3298 2862 
Q 3072 2584 2669 2484 
Q 3125 2378 3379 2068 
Q 3634 1759 3634 1313 
Q 3634 634 3220 271 
Q 2806 -91 2034 -91 
Q 1263 -91 848 271 
Q 434 634 434 1313 
Q 434 1759 690 2068 
Q 947 2378 1403 2484 
z
M 1172 3481 
Q 1172 3119 1398 2916 
Q 1625 2713 2034 2713 
Q 2441 2713 2670 2916 
Q 2900 3119 2900 3481 
Q 2900 3844 2670 4047 
Q 2441 4250 2034 4250 
Q 1625 4250 1398 4047 
Q 1172 3844 1172 3481 
z
" id="DejaVuSans-38" transform="scale(0.015625)"/>
       </defs>
       <use xlink:href="#DejaVuSans-30"/>
       <use x="63.623047" xlink:href="#DejaVuSans-2e"/>
       <use x="95.410156" xlink:href="#DejaVuSans-38"/>
      </g>
     </g>
    </g>
    <g id="ytick_6">
     <g id="line2d_11">
      <g>
       <use style="stroke:#000000;stroke-width:0.8;" x="57.6" xlink:href="#me7b5ac4de0" y="134.245429"/>
      </g>
     </g>
     <g id="text_11">
      <!-- 1.0 -->
      <g transform="translate(34.696875 138.044648)scale(0.1 -0.1)">
       <use xlink:href="#DejaVuSans-31"/>
       <use x="63.623047" xlink:href="#DejaVuSans-2e"/>
       <use x="95.410156" xlink:href="#DejaVuSans-30"/>
      </g>
     </g>
    </g>
    <g id="ytick_7">
     <g id="line2d_12">
      <g>
       <use style="stroke:#000000;stroke-width:0.8;" x="57.6" xlink:href="#me7b5ac4de0" y="101.996883"/>
      </g>
     </g>
     <g id="text_12">
      <!-- 1.2 -->
      <g transform="translate(34.696875 105.796101)scale(0.1 -0.1)">
       <use xlink:href="#DejaVuSans-31"/>
       <use x="63.623047" xlink:href="#DejaVuSans-2e"/>
       <use x="95.410156" xlink:href="#DejaVuSans-32"/>
      </g>
     </g>
    </g>
    <g id="ytick_8">
     <g id="line2d_13">
      <g>
       <use style="stroke:#000000;stroke-width:0.8;" x="57.6" xlink:href="#me7b5ac4de0" y="69.748336"/>
      </g>
     </g>
     <g id="text_13">
      <!-- 1.4 -->
      <g transform="translate(34.696875 73.547555)scale(0.1 -0.1)">
       <use xlink:href="#DejaVuSans-31"/>
       <use x="63.623047" xlink:href="#DejaVuSans-2e"/>
       <use x="95.410156" xlink:href="#DejaVuSans-34"/>
      </g>
     </g>
    </g>
    <g id="text_14">
     <!-- 1e6 -->
     <g transform="translate(57.6 38.472)scale(0.1 -0.1)">
      <defs>
       <path d="M 3597 1894 
L 3597 1613 
L 953 1613 
Q 991 1019 1311 708 
Q 1631 397 2203 397 
Q 2534 397 2845 478 
Q 3156 559 3463 722 
L 3463 178 
Q 3153 47 2828 -22 
Q 2503 -91 2169 -91 
Q 1331 -91 842 396 
Q 353 884 353 1716 
Q 353 2575 817 3079 
Q 1281 3584 2069 3584 
Q 2775 3584 3186 3129 
Q 3597 2675 3597 1894 
z
M 3022 2063 
Q 3016 2534 2758 2815 
Q 2500 3097 2075 3097 
Q 1594 3097 1305 2825 
Q 1016 2553 972 2059 
L 3022 2063 
z
" id="DejaVuSans-65" transform="scale(0.015625)"/>
      </defs>
      <use xlink:href="#DejaVuSans-31"/>
      <use x="63.623047" xlink:href="#DejaVuSans-65"/>
      <use x="125.146484" xlink:href="#DejaVuSans-36"/>
     </g>
    </g>
   </g>
   <g id="line2d_14">
    <path clip-path="url(#p810af7f57c)" d="M 73.832727 295.487969 
L 316.989241 295.39809 
L 317.012845 295.311438 
L 317.067922 295.420612 
L 317.091527 295.420612 
L 336.533662 295.452838 
L 336.628079 294.792325 
L 336.651684 294.806977 
L 336.769706 295.396253 
L 336.777574 295.14203 
L 336.809046 295.140243 
L 336.927068 295.470302 
L 336.824782 294.798849 
L 336.934936 295.468445 
L 337.407024 295.472162 
L 337.643067 295.458584 
L 337.768957 295.468743 
L 337.776826 295.442918 
L 337.784694 295.48177 
L 337.879111 295.474608 
L 346.305872 295.467598 
L 346.31374 295.358517 
L 346.416026 295.445483 
L 350.397297 295.37616 
L 350.444506 295.414615 
L 350.531055 295.172047 
L 350.594 295.450896 
L 350.649077 295.365493 
L 350.704154 295.343626 
L 350.782835 295.445734 
L 350.885121 295.455435 
L 350.837912 295.390059 
L 350.900857 295.423306 
L 355.055227 295.440203 
L 355.086699 295.220933 
L 355.141776 295.467047 
L 355.16538 295.466511 
L 355.188985 295.386356 
L 355.196853 295.351131 
L 355.236193 295.45611 
L 355.29127 295.434716 
L 356.605247 295.431625 
L 356.628851 295.46574 
L 356.715401 295.43803 
L 357.990037 295.457722 
L 358.021509 294.714502 
L 358.06085 295.46467 
L 358.100191 295.456105 
L 358.477861 295.467512 
L 362.270297 295.442913 
L 362.293901 294.993684 
L 362.38045 295.467056 
L 373.726286 295.39053 
L 373.757758 295.269952 
L 373.820703 295.478373 
L 374.277054 295.403618 
L 374.29279 295.304901 
L 374.332131 295.479247 
L 374.37934 295.479808 
L 374.410812 295.439701 
L 374.434417 295.165771 
L 374.497362 295.464208 
L 374.520966 295.446766 
L 374.67046 295.369458 
L 374.694065 295.421594 
L 374.741274 295.372583 
L 374.819955 295.446629 
L 376.346371 295.374874 
L 376.362107 295.324147 
L 376.401448 295.469823 
L 376.440788 295.446792 
L 377.085975 295.385084 
L 377.101711 295.302653 
L 377.172524 295.448261 
L 377.196128 295.387191 
L 378.754017 295.447702 
L 378.840566 295.459344 
L 378.801226 295.364181 
L 378.872039 295.419673 
L 378.879907 295.353743 
L 378.903511 295.44705 
L 378.982193 295.388504 
L 384.781 295.373396 
L 384.804605 295.040457 
L 384.86755 295.484404 
L 384.883286 295.461524 
L 385.017044 295.422947 
L 385.087857 295.437013 
L 385.111461 295.225045 
L 385.182275 295.453997 
L 385.198011 295.45234 
L 385.24522 295.432215 
L 385.28456 295.123704 
L 385.355373 295.451406 
L 385.473395 295.478377 
L 385.811724 295.382742 
L 385.866801 295.305125 
L 385.874669 295.44762 
L 385.91401 295.412006 
L 386.032032 295.435765 
L 386.071373 295.369181 
L 386.110713 295.305391 
L 386.134318 295.453019 
L 386.16579 295.40352 
L 386.283812 295.484411 
L 386.41757 295.407388 
L 386.433306 295.371359 
L 386.480515 295.483411 
L 386.519856 295.42709 
L 387.448294 295.367551 
L 387.471899 295.309555 
L 387.487635 295.485 
L 387.542712 295.463814 
L 387.589921 295.481949 
L 387.597789 295.421 
L 387.637129 294.759713 
L 387.692206 295.486995 
L 387.700074 295.47719 
L 387.739415 295.482227 
L 387.715811 295.447439 
L 387.755151 295.45358 
L 387.770887 295.368827 
L 387.80236 295.486932 
L 387.857437 295.486497 
L 387.881041 295.477914 
L 387.896777 295.174676 
L 387.920382 295.487974 
L 387.991195 295.42957 
L 388.117085 295.486328 
L 388.148557 295.41023 
L 388.172162 294.986376 
L 388.250843 295.447778 
L 388.258711 295.447778 
L 388.290184 295.364501 
L 388.376733 295.455567 
L 388.43181 295.467909 
L 388.423942 295.4173 
L 388.439678 295.4173 
L 388.526227 294.896831 
L 388.463282 295.446506 
L 388.549832 295.360191 
L 388.620645 295.13152 
L 388.644249 295.427897 
L 388.659985 295.35154 
L 388.691458 295.186433 
L 388.754403 295.393813 
L 388.785875 295.465556 
L 388.817348 295.319028 
L 388.840952 295.311775 
L 388.903897 295.226069 
L 388.927502 295.467555 
L 389.014051 295.408321 
L 389.116337 295.337074 
L 389.124205 295.183144 
L 389.139941 295.434864 
L 389.234359 295.192431 
L 389.257963 295.216753 
L 389.360249 295.437356 
L 389.368117 295.379288 
L 389.375985 295.237689 
L 389.415325 295.437839 
L 389.470402 295.414934 
L 389.596292 295.476918 
L 389.714314 295.250574 
L 389.722182 295.347152 
L 389.785127 295.431891 
L 389.792995 295.465679 
L 389.871677 295.32977 
L 390.06838 295.420199 
L 390.10772 295.467634 
L 390.154929 295.353603 
L 390.186402 295.279397 
L 390.210006 295.403073 
L 390.265083 295.359377 
L 390.406709 295.47047 
L 390.422445 295.420901 
L 390.461786 295.217944 
L 390.540467 295.396319 
L 390.603412 295.46365 
L 390.650621 295.435191 
L 390.73717 295.375696 
L 390.800115 295.39912 
L 390.86306 295.245498 
L 390.918137 295.354728 
L 390.957478 295.463186 
L 390.973214 295.317241 
L 391.028291 295.359202 
L 391.264335 295.325717 
L 391.295807 295.174199 
L 391.32728 295.439622 
L 391.36662 295.421374 
L 391.523983 295.37894 
L 391.531851 294.718478 
L 391.626268 295.386158 
L 391.634136 295.357839 
L 391.673477 295.230398 
L 391.70495 295.465658 
L 391.752158 295.446032 
L 391.838708 295.222723 
L 391.807235 295.465027 
L 391.87018 295.276777 
L 391.909521 295.322321 
L 391.940993 295.423949 
L 391.95673 295.194341 
L 392.019675 295.363615 
L 392.137696 295.373298 
L 392.161301 295.487892 
L 392.169169 295.334567 
L 392.239982 295.354731 
L 392.255718 295.346698 
L 392.350136 295.060013 
L 392.310795 295.390904 
L 392.365872 295.220956 
L 392.381608 295.376611 
L 392.46029 295.169079 
L 392.476026 295.318617 
L 392.483894 295.174866 
L 392.554707 295.363873 
L 392.578311 295.363873 
L 392.609784 295.441593 
L 392.617652 295.215769 
L 392.656993 295.322548 
L 392.719938 295.008272 
L 392.75141 295.415231 
L 392.767146 295.256583 
L 392.830091 295.483526 
L 392.885168 295.354675 
L 392.940245 295.369147 
L 392.948113 295.477187 
L 393.026794 295.325728 
L 393.050399 295.365013 
L 393.089739 295.315102 
L 393.12908 295.398885 
L 393.152684 295.398885 
L 393.168421 295.363873 
L 393.270706 295.484805 
L 393.310047 295.250081 
L 393.38086 295.43332 
L 393.459541 295.32679 
L 393.420201 295.488 
L 393.498882 295.391651 
L 393.640508 295.487852 
L 393.561827 295.347451 
L 393.648376 295.467845 
L 393.750662 295.174866 
L 393.766398 295.363322 
L 393.852948 295.382776 
L 393.860816 295.486958 
L 393.963101 295.407625 
L 394.041782 295.327077 
L 394.057519 295.366509 
L 394.120464 295.168235 
L 394.167672 295.484688 
L 394.199145 295.169079 
L 394.293562 295.308737 
L 394.372244 295.475003 
L 394.403716 295.299196 
L 394.419452 295.363873 
L 394.435189 295.475186 
L 394.466661 295.285978 
L 394.521738 295.320606 
L 394.529606 295.31301 
L 394.537474 295.381946 
L 394.631892 295.486657 
L 394.600419 295.309735 
L 394.63976 295.445047 
L 394.655496 295.112214 
L 394.679101 295.480329 
L 394.749914 295.325898 
L 394.757782 295.239894 
L 394.804991 295.487759 
L 394.852199 295.373801 
L 394.89154 295.450923 
L 394.923012 295.276008 
L 394.930881 295.276008 
L 394.993826 295.008272 
L 395.033166 295.357569 
L 395.253474 295.415737 
L 395.340023 295.330287 
L 395.355759 295.193205 
L 395.410836 295.462937 
L 395.450177 295.341844 
L 395.513122 295.479944 
L 395.56033 295.382127 
L 395.576067 295.358891 
L 395.796374 295.458732 
L 397.731933 295.458773 
L 397.747669 295.292178 
L 397.794878 295.487242 
L 397.842087 295.466244 
L 397.928636 295.389937 
L 397.991581 295.305889 
L 398.007317 295.427433 
L 398.03879 295.361578 
L 398.29057 295.459858 
L 398.41646 295.487237 
L 398.487273 295.486687 
L 398.487273 295.486687 
" style="fill:none;stroke:#1f77b4;stroke-linecap:square;stroke-width:1.5;"/>
   </g>
   <g id="line2d_15">
    <path clip-path="url(#p810af7f57c)" d="M 73.832727 295.488 
L 73.8642 295.462741 
L 73.872068 295.314208 
L 73.935013 295.472454 
L 73.974354 295.459453 
L 79.529249 295.459138 
L 84.855969 295.459196 
L 84.863838 295.151193 
L 84.966123 295.451617 
L 85.217903 295.459138 
L 134.26779 295.466446 
L 134.275658 291.446235 
L 134.354339 295.477487 
L 134.377944 295.460284 
L 134.511702 295.475401 
L 134.669064 295.461658 
L 135.251306 295.474273 
L 135.408668 295.473189 
L 135.581767 295.464632 
L 135.865019 295.475796 
L 136.038118 295.487402 
L 136.045986 295.47327 
L 136.069591 295.482183 
L 136.164008 295.441748 
L 136.329239 295.46493 
L 136.541678 295.465539 
L 136.667568 295.459591 
L 138.847038 295.466353 
L 138.957192 295.482885 
L 138.972928 295.465074 
L 139.193236 295.445776 
L 139.295522 295.477633 
L 139.311258 295.456425 
L 139.492225 295.44904 
L 139.712532 295.459108 
L 191.461186 295.466273 
L 191.563471 295.464553 
L 191.48479 295.477049 
L 191.57134 295.476158 
L 191.768043 295.469563 
L 191.956878 295.448004 
L 191.964746 295.466992 
L 192.098504 295.463333 
L 192.334548 295.460492 
L 192.468306 295.484029 
L 192.609932 295.466621 
L 192.735822 295.480406 
L 192.74369 295.469772 
L 192.86958 295.456181 
L 192.893184 295.483812 
L 193.601316 295.484227 
L 193.703601 295.470604 
L 193.719337 295.482641 
L 193.860964 295.469882 
L 194.010458 295.480421 
L 194.026194 295.453978 
L 194.120612 295.486426 
L 195.119864 295.467667 
L 195.127732 295.437603 
L 195.151336 295.481255 
L 195.222149 295.487727 
L 211.249518 295.46961 
L 211.343936 295.470881 
L 211.359672 295.483542 
L 211.690133 295.465501 
L 211.83176 295.467206 
L 211.973386 295.48683 
L 212.08354 295.455391 
L 212.099276 295.465364 
L 212.225166 295.487902 
L 212.233034 295.47352 
L 212.398265 295.469457 
L 212.532023 295.484557 
L 212.657913 295.459595 
L 215.608459 295.483105 
L 216.009734 295.487772 
L 245.89287 295.487724 
L 245.900738 295.274659 
L 246.003024 295.486825 
L 247.419286 295.487396 
L 247.537308 295.466305 
L 247.671066 295.480337 
L 247.757615 295.464915 
L 247.78122 295.484968 
L 248.32412 295.487304 
L 248.434274 295.466313 
L 248.45001 295.485138 
L 249.008647 295.472324 
L 249.126669 295.473443 
L 249.299768 295.48314 
L 249.685306 295.48773 
L 249.763987 295.468765 
L 249.795459 295.486583 
L 251.101568 295.473039 
L 251.251062 295.454817 
L 251.258931 295.471288 
L 251.416293 295.480473 
L 251.550051 295.468076 
L 251.557919 295.475321 
L 251.801831 295.469277 
L 251.904117 295.473395 
L 251.833304 295.482558 
L 251.911985 295.480584 
L 252.218842 295.471136 
L 252.384072 295.482037 
L 252.683061 295.487585 
L 252.785347 295.473232 
L 252.793215 295.480616 
L 253.076467 295.487812 
L 253.163017 295.461718 
L 253.170885 295.26101 
L 253.23383 295.487223 
L 253.27317 295.484889 
L 253.753126 295.46434 
L 254.075719 295.468861 
L 254.233082 295.478807 
L 254.445521 295.484716 
L 254.579279 295.469817 
L 254.736642 295.483986 
L 255.130048 295.486946 
L 255.200861 295.455765 
L 255.240201 295.48736 
L 257.293782 295.486011 
L 257.372463 295.435595 
L 257.403936 295.481009 
L 257.695056 295.487803 
L 257.820946 295.486824 
L 259.22934 295.487993 
L 259.35523 295.487947 
L 275.42194 295.485098 
L 275.484885 295.4286 
L 275.532094 295.486981 
L 276.956225 295.460691 
L 277.05851 295.264896 
L 277.074246 295.30232 
L 277.113587 295.447653 
L 277.137191 295.426467 
L 277.14506 293.741966 
L 277.247345 295.262389 
L 277.357499 294.922169 
L 277.326026 295.412377 
L 277.365367 295.029901 
L 277.428312 295.454347 
L 277.499125 295.446869 
L 277.593543 295.064889 
L 277.64862 295.37656 
L 277.672224 295.289153 
L 277.719433 295.438973 
L 277.727301 289.658829 
L 277.829586 295.152163 
L 277.845323 294.925134 
L 277.955476 295.450904 
L 277.979081 295.40171 
L 278.128575 295.429991 
L 278.230861 295.429346 
L 278.246597 295.444233 
L 278.278069 295.423007 
L 278.285938 295.229158 
L 278.372487 295.446502 
L 278.388223 295.436074 
L 278.482641 295.456847 
L 278.451168 295.399414 
L 278.506245 295.446195 
L 278.561322 295.302093 
L 278.577058 295.417741 
L 278.655739 292.43373 
L 278.647871 295.441055 
L 278.687212 295.334444 
L 278.765893 295.456691 
L 278.702948 295.20603 
L 278.797366 295.392372 
L 278.805234 295.277592 
L 278.891783 295.459681 
L 278.899651 295.458425 
L 278.962596 294.592606 
L 279.009805 295.400755 
L 279.025541 295.464163 
L 279.080618 295.38268 
L 279.088486 295.427666 
L 279.096354 294.818062 
L 279.19864 295.44243 
L 279.277321 295.433543 
L 279.285189 295.395519 
L 279.403211 293.739797 
L 279.332398 295.470611 
L 279.411079 295.026182 
L 279.458288 295.465925 
L 279.536969 295.450972 
L 279.57631 295.251123 
L 279.568442 295.466937 
L 279.647123 295.450858 
L 279.678596 295.453425 
L 279.686464 295.289183 
L 279.741541 295.45672 
L 279.788749 295.373003 
L 279.914639 295.456171 
L 280.016925 295.408645 
L 280.040529 295.450228 
L 280.048397 294.509417 
L 280.134947 295.455479 
L 280.150683 295.424552 
L 280.166419 295.448265 
L 280.174287 289.663475 
L 280.268705 295.459906 
L 280.276573 295.458037 
L 280.355254 295.455604 
L 280.300177 295.431975 
L 280.370991 295.442236 
L 280.378859 292.240344 
L 280.45754 295.458898 
L 280.481144 295.429562 
L 280.489012 295.418236 
L 280.496881 295.017553 
L 280.591298 295.455984 
L 280.599166 295.454297 
L 280.630639 295.456367 
L 280.638507 294.353215 
L 280.717188 295.457791 
L 280.740792 295.414447 
L 280.764397 295.365881 
L 280.866682 295.459125 
L 280.898155 295.411638 
L 280.929627 295.447149 
L 280.937495 292.242801 
L 281.039781 295.450609 
L 281.079122 295.469445 
L 281.094858 295.406191 
L 281.102726 295.250102 
L 281.142067 295.463858 
L 281.197144 295.408985 
L 281.330902 295.465952 
L 281.441055 295.472248 
L 281.448924 295.455122 
L 281.59055 295.406836 
L 281.598418 295.439965 
L 281.62989 295.412475 
L 281.724308 295.473987 
L 281.771517 295.428935 
L 281.834462 295.452867 
L 281.976088 295.472138 
L 281.983956 295.465638 
L 282.227868 295.248679 
L 282.290813 295.034566 
L 282.306549 295.337139 
L 282.369494 295.468505 
L 282.330153 295.048114 
L 282.393098 295.36079 
L 282.400967 292.199621 
L 282.503252 295.418025 
L 282.526857 295.432325 
L 282.558329 295.357432 
L 282.566197 289.614788 
L 282.660615 295.45967 
L 282.668483 295.397755 
L 282.747164 295.484008 
L 282.7629 295.40587 
L 282.880922 292.19514 
L 282.84945 295.463377 
L 282.88879 293.841542 
L 282.920263 295.385116 
L 282.967472 289.417069 
L 282.998944 295.263909 
L 283.006812 53.568 
L 283.109098 295.409664 
L 283.124834 295.443056 
L 283.132702 295.038315 
L 283.164175 295.461204 
L 283.234988 295.213228 
L 283.360878 295.483539 
L 283.455295 295.399363 
L 283.471032 294.599684 
L 283.541845 295.436839 
L 283.565449 295.424283 
L 283.573317 295.454419 
L 283.581185 295.446208 
L 283.589053 289.662446 
L 283.683471 295.461821 
L 283.691339 295.449909 
L 283.809361 295.47736 
L 283.754284 295.418382 
L 283.817229 295.46391 
L 283.89591 295.46284 
L 283.919515 288.207284 
L 284.006064 295.440415 
L 284.0218 295.470053 
L 284.037536 295.460301 
L 284.045405 289.669493 
L 284.14769 294.721399 
L 284.194899 295.438727 
L 284.265712 295.409126 
L 284.312921 295.425389 
L 284.320789 295.221113 
L 284.383734 295.468455 
L 284.423075 295.419009 
L 284.517492 295.484418 
L 284.556833 295.460965 
L 284.596173 295.443201 
L 284.604041 295.371897 
L 284.61191 295.38645 
L 284.627646 294.502955 
L 284.690591 295.457202 
L 284.714195 295.449483 
L 284.769272 295.481541 
L 284.792876 295.383279 
L 284.832217 295.453511 
L 284.879426 295.203082 
L 284.855821 295.462637 
L 284.910898 295.436637 
L 284.918766 289.657661 
L 284.989579 295.4547 
L 285.021052 295.417542 
L 285.076129 295.47638 
L 285.139074 295.447744 
L 285.170546 294.955155 
L 285.217755 295.474458 
L 285.241359 295.450828 
L 285.2807 295.46181 
L 285.264964 295.405555 
L 285.304304 295.446391 
L 285.312173 237.419892 
L 285.414458 295.41177 
L 285.422326 295.377015 
L 285.469535 295.453752 
L 285.516744 295.458157 
L 285.611161 295.408751 
L 285.619029 289.643718 
L 285.721315 295.46964 
L 285.823601 295.387957 
L 285.839337 295.456745 
L 285.847205 295.46821 
L 285.855073 289.673447 
L 285.957359 295.438174 
L 285.980963 295.393256 
L 286.03604 295.472447 
L 286.051776 295.188621 
L 286.146194 295.284362 
L 286.154062 295.313311 
L 286.16193 289.595998 
L 286.232743 295.427871 
L 286.264216 295.419187 
L 286.279952 295.462561 
L 286.303556 295.154839 
L 286.311424 295.296418 
L 286.327161 286.733118 
L 286.421578 295.450227 
L 286.594677 295.442945 
L 286.602545 295.291497 
L 286.634017 295.470718 
L 286.704831 295.444839 
L 286.799248 295.029572 
L 286.814984 295.322845 
L 286.91727 293.206271 
L 286.901534 295.461337 
L 286.925138 294.339692 
L 287.051028 295.468023 
L 287.066764 295.482049 
L 287.074632 295.462738 
L 287.161182 292.255602 
L 287.153314 295.472752 
L 287.184786 295.268452 
L 287.255599 295.468432 
L 287.302808 295.415548 
L 287.334281 295.465222 
L 287.350017 295.023274 
L 287.397226 295.405504 
L 287.405094 289.642094 
L 287.499511 295.446521 
L 287.507379 295.403134 
L 287.562456 295.377161 
L 287.578192 295.46029 
L 287.609665 295.448476 
L 287.829972 295.38261 
L 287.83784 295.427631 
L 287.845709 295.443384 
L 287.877181 294.769178 
L 287.940126 295.462831 
L 287.955862 295.448556 
L 287.971599 295.439571 
L 287.979467 295.463786 
L 288.058148 289.669137 
L 288.042412 295.474714 
L 288.08962 295.070398 
L 288.17617 295.431985 
L 288.21551 295.359494 
L 288.239115 295.401164 
L 288.246983 295.364444 
L 288.254851 292.201448 
L 288.3414 295.436603 
L 288.357137 295.421772 
L 288.365005 295.453598 
L 288.412214 295.367982 
L 288.420082 294.995645 
L 288.46729 295.450677 
L 288.522367 295.256201 
L 288.640389 295.424087 
L 288.59318 295.150461 
L 288.648257 295.411972 
L 288.656125 295.377116 
L 288.671862 295.461381 
L 288.766279 289.652249 
L 288.742675 295.465865 
L 288.782015 293.963854 
L 288.907905 295.449133 
L 288.97085 295.458889 
L 288.93151 295.352765 
L 288.978719 295.42498 
L 288.986587 237.409187 
L 289.088872 295.210985 
L 289.136081 295.470203 
L 289.167554 295.121107 
L 289.214762 295.450863 
L 289.34852 295.365977 
L 289.364257 294.879084 
L 289.450806 295.444268 
L 289.545223 295.483068 
L 289.482278 295.388718 
L 289.568828 295.462129 
L 289.631773 295.294467 
L 289.734058 295.407164 
L 289.844212 289.65169 
L 289.797003 295.443203 
L 289.85208 292.348325 
L 289.954366 295.458733 
L 290.06452 285.564579 
L 290.174673 295.469124 
L 290.19041 295.420243 
L 290.22975 295.435491 
L 290.221882 295.384919 
L 290.245487 295.382672 
L 290.284827 289.460985 
L 290.35564 295.363473 
L 290.402849 295.458779 
L 290.44219 295.362446 
L 290.513003 295.072635 
L 290.552343 295.348557 
L 290.575948 295.259138 
L 290.623157 295.394467 
L 290.654629 295.382414 
L 290.780519 295.400726 
L 290.788387 295.333991 
L 290.867068 295.41402 
L 290.890673 295.381954 
L 291.008695 295.420515 
L 291.331288 295.290996 
L 291.347024 295.356233 
L 291.425705 295.413184 
L 291.44931 295.374176 
L 291.457178 293.813463 
L 291.559463 295.417939 
L 291.630276 295.34278 
L 291.685353 295.297646 
L 291.716826 295.393117 
L 291.732562 295.328308 
L 291.779771 295.190133 
L 291.858452 295.411449 
L 291.86632 295.416031 
L 291.874188 295.279809 
L 291.937133 295.420654 
L 291.976474 295.420633 
L 292.24399 295.400474 
L 292.251858 295.276776 
L 292.346276 295.462332 
L 292.385616 295.358705 
L 292.432825 295.41983 
L 292.511506 295.351223 
L 292.550847 295.387284 
L 292.598056 295.331918 
L 292.692473 295.431655 
L 292.889176 295.304512 
L 292.904913 295.391587 
L 292.920649 294.890554 
L 292.99933 295.413286 
L 293.015066 295.205004 
L 293.101616 295.420697 
L 293.117352 295.417198 
L 293.12522 292.227825 
L 293.227506 295.431226 
L 293.298319 295.276288 
L 293.321923 295.355126 
L 293.400604 294.975697 
L 293.369132 295.40749 
L 293.432077 295.30686 
L 293.581571 295.414064 
L 293.589439 295.417338 
L 293.597307 295.363529 
L 293.605176 295.250581 
L 293.652384 295.419648 
L 293.707461 295.36531 
L 293.746802 294.604807 
L 293.75467 294.949739 
L 293.762538 292.871969 
L 293.841219 295.40096 
L 293.856956 295.317212 
L 293.990714 295.419974 
L 293.998582 295.347108 
L 294.100867 295.420678 
L 294.667372 295.413287 
L 294.675241 295.199902 
L 294.738186 295.43844 
L 294.746054 295.429526 
L 294.753922 289.654105 
L 294.856207 295.448415 
L 294.871944 295.41104 
L 294.950625 295.442305 
L 294.958493 294.735727 
L 295.005702 295.446078 
L 295.060779 295.426775 
L 295.092251 295.427317 
L 295.100119 295.000018 
L 295.202405 295.46767 
L 295.328295 295.419245 
L 295.406976 295.427743 
L 295.414844 295.290663 
L 295.469921 295.362577 
L 295.477789 289.620631 
L 295.580075 295.455267 
L 295.611547 295.471055 
L 295.64302 295.425326 
L 295.68236 295.429529 
L 295.831855 295.462347 
L 295.902668 295.47376 
L 295.855459 295.433404 
L 295.926272 295.439544 
L 295.93414 295.399356 
L 295.949877 295.450154 
L 295.973481 295.445275 
L 295.981349 287.404581 
L 296.083635 295.410811 
L 296.18592 295.445398 
L 296.193789 295.433005 
L 296.201657 295.014712 
L 296.303942 295.431567 
L 296.31181 295.434782 
L 296.319679 289.656733 
L 296.421964 295.39831 
L 296.461305 295.476055 
L 296.508513 295.439231 
L 296.56359 294.831469 
L 296.618667 295.414758 
L 296.658008 295.376689 
L 296.665876 134.181086 
L 296.760293 295.383856 
L 296.768162 294.13263 
L 296.831107 295.357188 
L 296.838975 289.617936 
L 296.90192 295.389101 
L 296.94126 295.182967 
L 296.956997 288.730805 
L 297.043546 295.411684 
L 297.075018 295.339294 
L 297.098623 295.447464 
L 297.145832 295.433932 
L 297.19304 289.331333 
L 297.255985 295.426118 
L 297.358271 295.365241 
L 297.374007 295.369326 
L 297.492029 295.389033 
L 297.499897 295.310627 
L 297.554974 295.446952 
L 297.594315 295.41299 
L 297.633655 295.274114 
L 297.65726 295.413717 
L 297.665128 289.646201 
L 297.767413 295.412848 
L 297.78315 295.416548 
L 297.82249 289.287542 
L 297.893303 295.417036 
L 297.90904 295.037241 
L 297.971985 295.42939 
L 298.003457 295.390335 
L 298.042798 295.414772 
L 298.050666 295.274964 
L 298.07427 295.370729 
L 298.129347 295.257865 
L 298.097875 295.401938 
L 298.176556 295.386415 
L 298.20016 295.357275 
L 298.263105 295.413359 
L 298.349655 289.646971 
L 298.32605 295.448955 
L 298.373259 295.05976 
L 298.499149 295.409263 
L 298.640775 295.417754 
L 298.648643 295.445172 
L 298.656511 292.080569 
L 298.758797 295.396327 
L 298.766665 295.40847 
L 298.821742 291.257638 
L 298.813874 295.411738 
L 298.876819 295.367612 
L 298.884687 295.352784 
L 298.91616 295.439772 
L 298.986973 289.660899 
L 298.979105 295.443113 
L 299.026313 295.379077 
L 299.152203 295.411155 
L 299.183676 295.349245 
L 299.262357 295.391802 
L 299.278093 295.239407 
L 299.309566 295.431086 
L 299.364643 295.390079 
L 299.372511 289.634382 
L 299.466928 295.436361 
L 299.474796 295.428803 
L 299.545609 295.450741 
L 299.506269 295.389916 
L 299.58495 295.418842 
L 299.702972 295.360475 
L 299.632159 295.437072 
L 299.71084 295.377692 
L 299.773785 295.432625 
L 299.789521 295.360184 
L 299.813126 295.416565 
L 299.907543 295.351987 
L 299.844598 295.439258 
L 299.923279 295.417819 
L 299.954752 295.068969 
L 300.017697 295.425382 
L 300.025565 287.394635 
L 300.072774 295.436292 
L 300.127851 295.08532 
L 300.175059 295.462421 
L 300.253741 295.437658 
L 300.348158 295.460415 
L 300.293081 295.388489 
L 300.371763 295.431967 
L 300.489784 295.080153 
L 300.505521 295.376669 
L 300.544861 295.458411 
L 300.560598 295.378144 
L 300.568466 295.23987 
L 300.615674 295.445909 
L 300.623543 289.662297 
L 300.725828 295.407569 
L 300.749432 295.171173 
L 300.84385 295.457013 
L 300.96974 295.000891 
L 301.009081 295.367667 
L 301.079894 295.015252 
L 301.190047 295.470384 
L 301.205784 295.464049 
L 301.331674 295.007683 
L 301.34741 295.07469 
L 301.378882 295.005851 
L 301.4733 295.406212 
L 301.520509 295.455628 
L 301.544113 295.399784 
L 301.551981 295.124652 
L 301.614926 295.415022 
L 301.654267 295.343653 
L 301.670003 295.427691 
L 301.701476 295.417512 
L 301.709344 289.648098 
L 301.811629 295.41585 
L 301.819497 295.36214 
L 301.898179 295.468293 
L 301.913915 295.402095 
L 302.024069 295.464036 
L 302.039805 295.457963 
L 302.157827 295.483299 
L 302.071277 295.399198 
L 302.165695 295.435118 
L 302.307321 295.323439 
L 302.323057 295.421799 
L 302.409607 295.447919 
L 302.35453 295.390716 
L 302.433211 295.419493 
L 302.566969 295.146259 
L 302.472552 295.444961 
L 302.582705 295.327169 
L 302.684991 295.436061 
L 302.598442 295.218039 
L 302.700727 295.419935 
L 302.755804 295.475253 
L 302.795145 295.417616 
L 302.803013 295.324405 
L 302.850222 295.467168 
L 302.89743 295.401019 
L 303.007584 295.458958 
L 302.928903 295.377548 
L 303.015452 295.423564 
L 303.10987 295.391623 
L 303.054793 295.462386 
L 303.125606 295.45304 
L 303.164947 295.415586 
L 303.259364 295.473895 
L 303.267232 295.224152 
L 303.369518 295.451122 
L 303.393122 295.204713 
L 303.448199 295.464442 
L 303.479672 295.464585 
L 303.52688 295.377716 
L 303.597693 295.442964 
L 303.61343 295.458141 
L 303.621298 289.668413 
L 303.723583 295.436753 
L 303.73932 295.458321 
L 303.747188 295.450679 
L 303.755056 289.664682 
L 303.825869 295.456857 
L 303.857342 295.419155 
L 303.912418 295.318232 
L 303.951759 295.442664 
L 303.959627 295.465647 
L 303.975363 295.3845 
L 304.022572 295.440953 
L 304.038308 294.51916 
L 304.132726 295.457508 
L 304.250748 295.476122 
L 304.258616 295.465144 
L 304.329429 295.429242 
L 304.376638 295.473776 
L 304.40811 295.465861 
L 304.415978 295.157085 
L 304.518264 295.446166 
L 304.628418 295.475452 
L 304.534 295.292583 
L 304.644154 295.462311 
L 304.801517 295.155028 
L 304.825121 295.421948 
L 304.832989 295.447661 
L 304.848725 295.331 
L 304.856593 293.923001 
L 304.958879 295.433455 
L 305.092637 295.062977 
L 304.974615 295.44135 
L 305.108373 295.32551 
L 305.25 295.439713 
L 305.12411 295.301378 
L 305.257868 295.432244 
L 305.28934 288.893331 
L 305.368021 295.406908 
L 305.470307 295.331677 
L 305.41523 295.454175 
L 305.486043 295.369122 
L 305.533252 295.462003 
L 305.588329 295.349882 
L 305.596197 295.162145 
L 305.643406 295.465119 
L 305.659142 295.435299 
L 305.66701 289.656992 
L 305.769296 295.335591 
L 305.777164 294.44442 
L 305.824373 295.421724 
L 305.87945 295.167641 
L 305.895186 295.217407 
L 305.903054 295.090189 
L 305.958131 294.389851 
L 306.021076 294.61255 
L 306.028944 294.498905 
L 306.076153 295.356569 
L 306.084021 295.274112 
L 306.091889 295.250245 
L 306.146966 295.399552 
L 306.17057 295.337706 
L 306.217779 295.383605 
L 306.233515 295.250442 
L 306.264988 295.37305 
L 306.375141 294.942777 
L 306.42235 294.918288 
L 306.501031 295.413759 
L 306.532504 295.438238 
L 306.563976 295.286153 
L 306.571844 295.271062 
L 306.595449 295.339678 
L 306.603317 295.301619 
L 306.611185 294.181327 
L 306.650526 295.401651 
L 306.713471 295.35347 
L 306.721339 295.413341 
L 306.737075 295.126437 
L 306.784284 295.146201 
L 306.792152 295.060305 
L 306.870833 295.367718 
L 306.949514 295.269708 
L 306.988855 295.411003 
L 307.020328 295.450253 
L 307.036064 295.428653 
L 307.0518 295.256431 
L 307.146218 295.385693 
L 307.217031 295.25514 
L 307.201294 295.435062 
L 307.248503 295.441323 
L 307.358657 295.177549 
L 307.405866 295.326232 
L 307.460943 295.449453 
L 307.484547 295.312248 
L 307.523888 295.390113 
L 307.586833 295.42369 
L 307.563228 295.351743 
L 307.594701 295.40871 
L 307.602569 295.017987 
L 307.68125 295.417529 
L 307.704854 295.353259 
L 307.720591 295.426168 
L 307.767799 295.276426 
L 307.80714 295.392493 
L 307.822876 295.265276 
L 307.917294 295.390184 
L 307.925162 295.423756 
L 307.988107 295.277215 
L 307.995975 295.351834 
L 308.003843 295.245941 
L 308.027447 295.407719 
L 308.098261 295.357665 
L 308.239887 295.425357 
L 308.255623 295.284344 
L 308.342172 295.422546 
L 308.428722 295.456875 
L 308.43659 295.449956 
L 308.515271 295.292542 
L 308.546744 295.433148 
L 308.56248 295.06255 
L 308.656897 295.427652 
L 308.719842 295.349297 
L 308.782787 295.415145 
L 308.900809 295.046071 
L 308.81426 295.437758 
L 308.916546 295.327841 
L 308.94015 295.420993 
L 308.948018 295.134651 
L 308.963754 289.27256 
L 309.034567 295.415373 
L 309.050304 295.361061 
L 309.144721 293.313594 
L 309.184062 295.001349 
L 309.294216 295.401167 
L 309.302084 295.229467 
L 309.349292 295.360585 
L 309.325688 294.969195 
L 309.372897 295.340861 
L 309.380765 289.609773 
L 309.435842 295.39757 
L 309.48305 295.391321 
L 309.561732 295.428894 
L 309.545995 295.346559 
L 309.585336 295.403726 
L 309.687622 289.625367 
L 309.656149 295.430782 
L 309.69549 292.531682 
L 309.805644 295.352052 
L 309.813512 289.615368 
L 309.900061 295.412517 
L 309.915797 295.394223 
L 309.939402 295.161302 
L 309.98661 294.640787 
L 310.057424 294.799529 
L 310.065292 294.799189 
L 310.175445 295.192622 
L 310.183314 295.166433 
L 310.191182 295.280761 
L 310.230522 294.644705 
L 310.23839 293.206097 
L 310.32494 294.795464 
L 310.340676 294.640572 
L 310.419357 295.406919 
L 310.458698 295.211979 
L 310.466566 295.201816 
L 310.474434 295.292266 
L 310.482302 289.585475 
L 310.584588 295.250415 
L 310.639665 295.27501 
L 310.61606 295.104495 
L 310.663269 295.258444 
L 310.671137 294.088921 
L 310.734082 295.328375 
L 310.773423 295.164085 
L 310.8285 295.371751 
L 310.883577 295.173259 
L 310.938653 295.322202 
L 310.95439 287.935114 
L 311.048807 295.254263 
L 311.056675 295.251875 
L 311.064543 295.319854 
L 311.072412 289.599269 
L 311.174697 295.334451 
L 311.182565 295.338355 
L 311.190433 295.235431 
L 311.20617 284.588481 
L 311.300587 295.165005 
L 311.308455 295.134774 
L 311.316323 295.29615 
L 311.324192 295.296251 
L 311.434345 289.557503 
L 311.410741 295.327972 
L 311.450082 293.492872 
L 311.552367 295.383052 
L 311.481554 289.506209 
L 311.575972 295.336154 
L 311.599576 295.271893 
L 311.686125 295.370422 
L 311.693993 294.743152 
L 311.74907 295.392206 
L 311.796279 295.310859 
L 311.819883 295.151647 
L 311.83562 295.340476 
L 311.843488 295.071768 
L 311.87496 295.346983 
L 311.906433 295.08136 
L 311.914301 283.778153 
L 312.016587 294.851096 
L 312.024455 294.993644 
L 312.032323 293.527123 
L 312.048059 294.627815 
L 312.055927 293.344208 
L 312.150345 295.424753 
L 312.260498 289.551177 
L 312.276235 293.66135 
L 312.402125 295.442026 
L 312.441465 295.433889 
L 312.449333 295.295687 
L 312.457201 287.329788 
L 312.528015 295.38479 
L 312.559487 295.027611 
L 312.669641 286.428633 
L 312.6303 295.436586 
L 312.677509 290.936629 
L 312.75619 295.436074 
L 312.803399 295.363773 
L 312.897816 295.426302 
L 312.874212 295.280012 
L 312.905685 295.421502 
L 312.984366 293.690846 
L 313.055179 294.908197 
L 313.063047 287.270109 
L 313.13386 295.324252 
L 313.165333 295.241964 
L 313.212541 295.422705 
L 313.283355 295.362657 
L 313.314827 295.024228 
L 313.38564 281.275602 
L 313.424981 292.548613 
L 313.440717 294.121273 
L 313.456453 284.181933 
L 313.487926 292.789937 
L 313.495794 286.076913 
L 313.566607 295.29854 
L 313.590211 293.364388 
L 313.63742 295.376674 
L 313.668893 289.570518 
L 313.676761 292.456389 
L 313.692497 286.023111 
L 313.779046 295.125817 
L 313.786914 293.097964 
L 313.873464 295.377805 
L 313.8892 294.234766 
L 314.01509 295.385559 
L 314.085903 289.615316 
L 314.125244 295.244032 
L 314.203925 295.388276 
L 314.243266 295.360595 
L 314.259002 295.381023 
L 314.274738 295.198313 
L 314.290474 295.15464 
L 314.321947 295.37894 
L 314.345551 295.304607 
L 314.384892 295.414274 
L 314.39276 294.542395 
L 314.447837 295.426641 
L 314.495046 295.360102 
L 314.550123 295.441032 
L 314.620936 295.132472 
L 314.636672 295.103103 
L 314.652408 286.446308 
L 314.738958 295.336968 
L 314.746826 295.339614 
L 314.817639 293.570692 
L 314.856979 295.047842 
L 314.864848 295.195051 
L 314.943529 294.820533 
L 314.967133 295.101078 
L 314.975001 295.142915 
L 315.006474 294.998103 
L 315.02221 292.01413 
L 315.108759 295.218924 
L 315.234649 294.257929 
L 315.242517 294.553119 
L 315.368407 295.206686 
L 315.447089 294.328703 
L 315.423484 295.240892 
L 315.478561 295.193597 
L 315.533638 295.282773 
L 315.494297 295.158482 
L 315.549374 295.245654 
L 315.557242 293.84677 
L 315.659528 295.386249 
L 315.675264 295.404234 
L 315.691001 271.480551 
L 315.785418 295.293752 
L 315.816891 295.210152 
L 315.895572 295.407868 
L 315.989989 295.25089 
L 315.950649 295.433429 
L 316.005726 295.335518 
L 316.257506 295.414138 
L 316.265374 295.258476 
L 316.367659 295.268387 
L 316.422736 295.42834 
L 316.446341 295.223261 
L 316.469945 291.459138 
L 316.548626 295.264798 
L 316.643044 295.413949 
L 316.57223 294.771588 
L 316.666648 295.351153 
L 316.674516 295.346706 
L 316.745329 295.187519 
L 316.78467 295.229128 
L 316.808274 295.401541 
L 316.831879 294.984973 
L 316.847615 293.659485 
L 316.934164 295.265002 
L 316.997109 295.157721 
L 317.03645 295.293484 
L 317.044318 295.263382 
L 317.083659 294.976334 
L 317.107263 295.340852 
L 317.115131 295.330187 
L 317.130867 295.415465 
L 317.178076 294.99072 
L 317.217417 294.752505 
L 317.256757 295.275875 
L 317.264625 295.168372 
L 317.311834 295.210786 
L 317.32757 295.302249 
L 317.374779 295.144531 
L 317.437724 294.628992 
L 317.41412 295.307574 
L 317.477065 295.233503 
L 317.57935 294.953717 
L 317.524274 295.286707 
L 317.610823 295.065547 
L 317.634427 295.376752 
L 317.658032 294.555994 
L 317.689504 295.194216 
L 317.720977 294.225984 
L 317.79179 295.363859 
L 317.799658 295.390115 
L 317.823262 295.08457 
L 317.838999 295.294632 
L 317.846867 289.586658 
L 317.894075 295.346418 
L 317.949152 294.780638 
L 318.08291 295.41507 
L 318.130119 295.219622 
L 318.2088 295.349766 
L 318.232405 295.416817 
L 318.263877 295.22229 
L 318.311086 295.292971 
L 318.326822 295.125685 
L 318.33469 295.136979 
L 318.342558 294.319263 
L 318.436976 295.437663 
L 318.539262 294.814689 
L 318.54713 295.143037 
L 318.680888 287.688314 
L 318.814646 295.185728 
L 318.893327 293.493438 
L 318.9248 295.095769 
L 318.932668 295.071714 
L 318.940536 292.656079 
L 318.987745 295.407678 
L 319.042822 295.122978 
L 319.121503 295.362624 
L 319.152975 295.226395 
L 319.192316 294.743618 
L 319.223788 295.323662 
L 319.263129 295.17689 
L 319.318206 295.449881 
L 319.34181 295.124632 
L 319.373283 295.319249 
L 319.381151 294.913527 
L 319.444096 295.424855 
L 319.483436 295.272773 
L 319.59359 293.853392 
L 319.55425 295.393208 
L 319.609326 294.314484 
L 319.672271 293.600476 
L 319.71948 294.933925 
L 319.758821 291.765249 
L 319.821766 295.074552 
L 319.829634 293.983851 
L 319.924051 295.220011 
L 319.876843 293.95275 
L 319.955524 295.191695 
L 319.979128 295.196277 
L 319.986996 295.105192 
L 320.042073 295.154474 
L 320.09715 294.386258 
L 320.073546 295.224867 
L 320.144359 295.182792 
L 320.160095 295.209114 
L 320.246645 295.286889 
L 320.278117 294.567276 
L 320.317458 295.289545 
L 320.396139 295.157357 
L 320.404007 294.536391 
L 320.482688 295.345703 
L 320.498425 295.21017 
L 320.506293 295.347335 
L 320.522029 295.138876 
L 320.608578 295.235205 
L 320.647919 295.184514 
L 320.655787 295.238796 
L 320.671523 294.959481 
L 320.742336 295.372797 
L 320.765941 295.188632 
L 320.828886 295.291156 
L 320.797413 295.105536 
L 320.899699 295.225563 
L 321.080666 295.335296 
L 321.088534 295.395351 
L 321.112138 295.094543 
L 321.175083 295.293555 
L 321.206556 295.215098 
L 321.261633 295.366924 
L 321.293105 295.239209 
L 321.403259 295.139824 
L 321.450468 292.106301 
L 321.497676 295.271001 
L 321.505544 294.818442 
L 321.537017 295.310389 
L 321.560621 295.182299 
L 321.568489 289.530492 
L 321.639303 295.306465 
L 321.670775 294.700701 
L 321.788797 295.312211 
L 321.686511 293.4369 
L 321.796665 295.284051 
L 321.812401 295.072936 
L 321.851742 295.373256 
L 321.898951 295.287246 
L 322.009104 295.424954 
L 321.938291 295.254869 
L 322.016973 295.39206 
L 322.079918 295.247253 
L 322.119258 295.429862 
L 322.142863 295.313397 
L 322.205808 295.44077 
L 322.276621 295.122468 
L 322.323829 295.35072 
L 322.331697 295.292007 
L 322.418247 295.430018 
L 322.426115 295.331656 
L 322.504796 295.438096 
L 322.441851 295.288358 
L 322.536269 295.358974 
L 322.559873 295.258427 
L 322.567741 295.111447 
L 322.654291 295.338815 
L 322.662159 295.33426 
L 322.670027 295.361046 
L 322.677895 295.351653 
L 322.685763 293.753732 
L 322.788049 295.282129 
L 322.850994 294.443726 
L 322.827389 295.363401 
L 322.898202 295.248193 
L 322.906071 295.248175 
L 322.953279 294.977474 
L 323.008356 295.275977 
L 323.094906 295.38063 
L 323.039829 295.220692 
L 323.11851 295.298827 
L 323.181455 295.045594 
L 323.149982 295.371604 
L 323.205059 295.35486 
L 323.228664 295.266308 
L 323.307345 295.402371 
L 323.401762 295.210796 
L 323.425367 295.30368 
L 323.504048 295.217187 
L 323.480444 295.407714 
L 323.527652 295.313121 
L 323.559125 295.257691 
L 323.62207 295.359706 
L 323.763696 293.454119 
L 323.771564 294.106338 
L 323.87385 295.191971 
L 323.826641 293.509831 
L 323.897454 295.14002 
L 323.936795 294.14009 
L 324.007608 295.125023 
L 324.133498 295.360521 
L 324.086289 295.051206 
L 324.141366 295.317482 
L 324.180707 295.038233 
L 324.243652 295.273887 
L 324.25152 295.344434 
L 324.298729 294.892712 
L 324.345937 295.222576 
L 324.393146 295.355338 
L 324.408882 294.805983 
L 324.5033 295.332479 
L 324.511168 295.321769 
L 324.519036 295.085039 
L 324.589849 295.351664 
L 324.621322 295.300084 
L 324.660662 295.359214 
L 324.739344 295.154464 
L 324.802289 295.291785 
L 324.810157 295.241719 
L 324.818025 295.343601 
L 324.833761 289.67568 
L 324.928179 295.163904 
L 324.936047 295.160695 
L 324.943915 295.248726 
L 324.967519 295.003178 
L 325.054069 295.319262 
L 325.156354 295.230245 
L 325.17209 295.240877 
L 325.227167 295.211796 
L 325.203563 295.348011 
L 325.235035 295.259189 
L 325.242903 294.881797 
L 325.29798 295.352654 
L 325.337321 295.326027 
L 325.353057 295.172121 
L 325.416002 295.381955 
L 325.42387 295.18019 
L 325.526156 295.28692 
L 325.534024 295.311839 
L 325.581233 295.10378 
L 325.628442 295.25375 
L 325.738595 294.396873 
L 325.714991 295.280653 
L 325.770068 295.096928 
L 325.793672 295.275688 
L 325.825145 294.901516 
L 325.895958 289.514491 
L 325.88809 295.150297 
L 325.935298 294.860496 
L 326.029716 295.367372 
L 326.045452 294.966327 
L 326.132002 294.397886 
L 326.124133 295.294225 
L 326.147738 295.112591 
L 326.163474 295.302225 
L 326.171342 294.971125 
L 326.26576 295.261819 
L 326.312968 295.136442 
L 326.297232 295.328098 
L 326.360177 295.300877 
L 326.423122 295.104467 
L 326.462463 295.368542 
L 326.55688 294.764895 
L 326.572616 295.09134 
L 326.635561 295.371304 
L 326.651298 294.953371 
L 326.667034 295.211997 
L 326.674902 293.569159 
L 326.76932 295.304684 
L 326.777188 295.299677 
L 326.832265 294.510207 
L 326.816528 295.304676 
L 326.918814 294.984365 
L 326.926682 295.161817 
L 326.950286 295.112762 
L 326.958155 292.815556 
L 327.013231 295.178596 
L 327.06044 294.114305 
L 327.14699 295.307909 
L 327.18633 295.235 
L 327.265011 295.288191 
L 327.233539 295.151528 
L 327.280748 295.184979 
L 327.296484 295.119933 
L 327.320088 295.367256 
L 327.383033 295.201568 
L 327.390901 295.310442 
L 327.477451 295.158517 
L 327.493187 295.22986 
L 327.52466 295.342565 
L 327.548264 295.251229 
L 327.556132 295.039386 
L 327.619077 295.361671 
L 327.658418 295.225651 
L 327.674154 295.312824 
L 327.721363 295.18382 
L 327.807912 294.433428 
L 327.784308 295.335383 
L 327.831516 295.092067 
L 327.862989 295.365148 
L 327.918066 295.275445 
L 327.925934 294.410488 
L 328.020351 295.352306 
L 328.028219 295.2858 
L 328.06756 294.401775 
L 328.138373 295.075998 
L 328.161978 295.26558 
L 328.169846 294.405555 
L 328.209186 295.086212 
L 328.224923 294.006539 
L 328.311472 295.161129 
L 328.335076 295.314318 
L 328.358681 295.190637 
L 328.366549 294.287816 
L 328.468834 295.142674 
L 328.476703 295.187984 
L 328.484571 295.10692 
L 328.492439 295.134854 
L 328.500307 294.560804 
L 328.57112 295.284406 
L 328.602593 295.099605 
L 328.634065 295.271163 
L 328.649801 294.919845 
L 328.704878 294.237131 
L 328.673406 295.127361 
L 328.759955 294.922812 
L 328.815032 295.339713 
L 328.838636 294.790209 
L 328.877977 295.248465 
L 328.917318 295.042292 
L 328.940922 295.141555 
L 329.027471 294.583402 
L 329.051076 295.001076 
L 329.129757 293.828202 
L 329.07468 295.104802 
L 329.176966 294.832637 
L 329.255647 294.048828 
L 329.294988 295.187906 
L 329.310724 294.817131 
L 329.357933 295.14373 
L 329.365801 291.127823 
L 329.436614 295.26583 
L 329.468086 295.208888 
L 329.554636 294.884316 
L 329.523163 295.25329 
L 329.57824 295.223791 
L 329.641185 295.33391 
L 329.656921 295.054378 
L 329.672657 295.182597 
L 329.680526 295.068151 
L 329.743471 295.266193 
L 329.774943 295.077847 
L 329.822152 295.309223 
L 329.877229 295.301705 
L 329.885097 294.428638 
L 329.95591 295.305252 
L 329.987382 295.22449 
L 330.073932 295.3001 
L 330.034591 295.093363 
L 330.089668 295.238011 
L 330.105404 293.522842 
L 330.20769 294.882056 
L 330.239162 295.017539 
L 330.262767 294.460689 
L 330.286371 294.976972 
L 330.294239 293.327443 
L 330.380789 295.189911 
L 330.396525 294.78841 
L 330.427997 295.302726 
L 330.443734 294.287564 
L 330.514547 295.246603 
L 330.546019 294.786084 
L 330.553887 295.064195 
L 330.561756 292.434175 
L 330.648305 295.344029 
L 330.664041 295.230957 
L 330.687646 295.223791 
L 330.695514 295.18552 
L 330.726986 294.051847 
L 330.766327 295.235033 
L 330.813536 295.049042 
L 330.821404 295.065228 
L 330.829272 294.305379 
L 330.915821 295.399462 
L 330.931557 295.139448 
L 330.947294 295.067909 
L 331.08892 295.348725 
L 331.183337 289.256954 
L 331.21481 293.481221 
L 331.222678 293.468862 
L 331.230546 293.635982 
L 331.238414 293.543018 
L 331.348568 295.198866 
L 331.25415 293.156113 
L 331.411513 294.949159 
L 331.427249 294.491094 
L 331.50593 295.201628 
L 331.513799 295.142022 
L 331.529535 295.111267 
L 331.576744 294.463945 
L 331.63182 295.215897 
L 331.679029 295.281374 
L 331.686897 294.767918 
L 331.726238 295.330918 
L 331.789183 295.079192 
L 331.852128 295.428395 
L 331.907205 295.180356 
L 331.978018 295.420287 
L 331.954414 294.985493 
L 332.017359 295.262786 
L 332.064567 294.717811 
L 332.09604 295.293098 
L 332.127512 295.270744 
L 332.174721 294.35032 
L 332.26127 295.052023 
L 332.316347 295.204104 
L 332.277007 295.006621 
L 332.379292 295.126833 
L 332.465842 295.227209 
L 332.489446 294.16505 
L 332.615336 295.205045 
L 332.623204 294.338635 
L 332.72549 295.110527 
L 332.756962 295.066872 
L 332.788435 295.192968 
L 332.914325 287.882786 
L 332.835643 295.214853 
L 332.930061 293.152311 
L 333.000874 295.285322 
L 333.008742 295.208526 
L 333.01661 289.543605 
L 333.118896 295.173669 
L 333.126764 295.168472 
L 333.134632 295.199323 
L 333.1425 295.326506 
L 333.150368 295.304695 
L 333.158237 283.786952 
L 333.236918 295.373361 
L 333.260522 295.058352 
L 333.276258 295.186817 
L 333.284127 292.376022 
L 333.386412 295.08814 
L 333.457225 295.059486 
L 333.425753 295.17289 
L 333.48083 295.148524 
L 333.504434 295.170931 
L 333.512302 294.95824 
L 333.559511 295.299987 
L 333.614588 295.163999 
L 333.638192 295.005257 
L 333.716873 294.909273 
L 333.661797 295.201085 
L 333.724741 295.079801 
L 333.827027 295.427907 
L 333.850631 295.351568 
L 333.889972 294.464362 
L 333.874236 295.40722 
L 333.960785 295.256665 
L 333.992258 295.427824 
L 334.047335 295.239824 
L 334.078807 295.406264 
L 334.102411 295.231643 
L 334.188961 295.256979 
L 334.204697 295.374274 
L 334.244038 295.162377 
L 334.291246 295.193552 
L 334.338455 295.283959 
L 334.369928 295.211067 
L 334.377796 294.834203 
L 334.456477 295.262539 
L 334.480081 295.216556 
L 334.495818 295.136533 
L 334.503686 295.146747 
L 334.511554 294.769229 
L 334.558763 295.335475 
L 334.61384 295.169382 
L 334.621708 295.202402 
L 334.629576 294.373967 
L 334.661048 295.272468 
L 334.731861 295.227222 
L 334.786938 295.207495 
L 334.763334 295.259223 
L 334.818411 295.287943 
L 334.920696 295.397544 
L 334.928565 295.378356 
L 334.983641 295.209377 
L 334.944301 295.383947 
L 335.054455 295.255572 
L 335.164608 295.42168 
L 335.093795 294.788353 
L 335.172476 295.406919 
L 335.188213 294.852374 
L 335.290498 295.310936 
L 335.463597 294.992056 
L 335.314103 295.36243 
L 335.479333 295.159379 
L 335.573751 295.35882 
L 335.526542 295.061686 
L 335.620959 295.288085 
L 335.644564 295.216558 
L 335.652432 295.140856 
L 335.715377 295.318214 
L 335.738981 295.29361 
L 335.754718 295.316097 
L 335.770454 295.127086 
L 335.849135 295.280564 
L 335.935684 295.217182 
L 335.967157 295.249999 
L 336.077311 295.427784 
L 336.085179 295.347682 
L 336.093047 289.613183 
L 336.195333 295.233394 
L 336.274014 295.378064 
L 336.305486 295.063808 
L 336.368431 295.259452 
L 336.376299 295.200213 
L 336.384168 294.136789 
L 336.486453 295.310395 
L 336.502189 295.202332 
L 336.549398 295.209472 
L 336.573002 295.269887 
L 336.612343 295.42235 
L 336.635947 295.25617 
L 336.691024 295.369146 
L 336.816914 294.421032 
L 336.832651 294.800093 
L 336.958541 295.306592 
L 336.848387 294.104136 
L 336.966409 295.258122 
L 337.013617 295.408427 
L 337.068694 295.241577 
L 337.139507 295.360907 
L 337.155244 295.158276 
L 337.178848 295.255987 
L 337.249661 295.205236 
L 337.226057 295.361504 
L 337.289002 295.277213 
L 337.29687 295.337061 
L 337.304738 295.066804 
L 337.391287 295.275801 
L 337.430628 295.008089 
L 337.462101 295.303564 
L 337.477837 295.282431 
L 337.485705 295.36138 
L 337.493573 295.281012 
L 337.501441 289.579848 
L 337.564386 295.375132 
L 337.603727 295.269246 
L 337.619463 295.207304 
L 337.698144 295.415922 
L 337.713881 295.445383 
L 337.737485 295.249657 
L 337.768957 295.277778 
L 337.792562 295.237721 
L 337.871243 294.716489 
L 337.847639 295.305252 
L 337.902716 295.186776 
L 337.949924 294.864769 
L 338.036474 295.36681 
L 338.154495 295.147308 
L 338.162364 295.244857 
L 338.233177 295.38466 
L 338.241045 294.838864 
L 338.280385 295.343587 
L 338.327594 295.253646 
L 338.335462 295.204325 
L 338.422012 295.359277 
L 338.46922 295.175799 
L 338.437748 295.392689 
L 338.55577 295.231229 
L 338.59511 295.15727 
L 338.744605 295.392095 
L 338.791814 292.459786 
L 338.854759 295.298171 
L 338.909835 295.426436 
L 338.957044 295.275306 
L 338.964912 295.323379 
L 339.051462 295.449472 
L 339.075066 295.418796 
L 339.193088 294.410701 
L 339.216692 295.113476 
L 339.279637 295.311221 
L 339.263901 295.068063 
L 339.287505 295.251437 
L 339.326846 285.137699 
L 339.397659 295.321661 
L 339.405527 295.299159 
L 339.413395 289.588922 
L 339.484208 295.340681 
L 339.515681 295.194418 
L 339.531417 295.319416 
L 339.547153 295.117861 
L 339.555022 294.690947 
L 339.625835 295.231645 
L 339.657307 295.114929 
L 339.696648 295.312214 
L 339.783197 295.299358 
L 339.791065 295.225224 
L 339.85401 295.449529 
L 339.893351 295.276023 
L 339.964164 295.231806 
L 339.972032 295.046983 
L 340.003505 295.351144 
L 340.011373 289.614914 
L 340.097922 295.353214 
L 340.113658 295.204583 
L 340.208076 295.431479 
L 340.23168 295.345658 
L 340.239548 295.19762 
L 340.310362 295.389245 
L 340.341834 295.26457 
L 340.420515 295.255007 
L 340.365438 295.364828 
L 340.436252 295.300869 
L 340.451988 295.406539 
L 340.538537 295.24159 
L 340.546405 295.31439 
L 340.577878 295.115404 
L 340.601482 295.327108 
L 340.656559 295.248565 
L 340.688032 295.22194 
L 340.6959 294.229452 
L 340.766713 295.349453 
L 340.798185 295.197734 
L 340.806053 295.177849 
L 340.853262 295.306175 
L 340.868998 295.264366 
L 340.876866 294.541109 
L 340.94768 295.27054 
L 340.979152 295.220089 
L 340.994888 294.982865 
L 341.018493 295.260601 
L 341.081438 295.247365 
L 341.2388 295.37702 
L 341.246668 295.326839 
L 341.333218 295.117308 
L 341.309613 295.345509 
L 341.356822 295.283564 
L 341.388295 295.259801 
L 341.396163 295.355658 
L 341.404031 295.405809 
L 341.459108 295.271081 
L 341.49058 295.291348 
L 341.514185 295.23255 
L 341.522053 295.254603 
L 341.529921 294.400067 
L 341.57713 295.345611 
L 341.632206 295.320429 
L 341.640075 295.302511 
L 341.655811 295.362683 
L 341.663679 295.356028 
L 341.671547 294.934702 
L 341.74236 295.403395 
L 341.773833 295.376556 
L 341.781701 295.381006 
L 341.789569 295.308733 
L 341.891855 294.69699 
L 341.86825 295.367084 
L 341.915459 295.144906 
L 341.939063 295.277117 
L 341.9548 295.086351 
L 341.962668 295.181504 
L 342.041349 289.600127 
L 342.025613 295.366115 
L 342.072821 294.53671 
L 342.175107 295.356859 
L 342.198711 295.279309 
L 342.20658 295.277983 
L 342.253788 294.439587 
L 342.24592 295.355636 
L 342.316733 295.267358 
L 342.363942 295.415775 
L 342.395414 295.234222 
L 342.419019 295.308107 
L 342.450491 295.155473 
L 342.513436 295.419822 
L 342.521304 295.445722 
L 342.568513 295.313954 
L 342.592118 295.324944 
L 342.599986 295.26913 
L 342.62359 295.370578 
L 342.631458 289.624631 
L 342.733744 295.149022 
L 342.812425 295.398857 
L 342.867502 295.244197 
L 342.906843 295.397971 
L 342.993392 295.271837 
L 343.079941 294.992588 
L 343.072073 295.28884 
L 343.103546 295.257843 
L 343.221568 295.368238 
L 343.119282 294.98701 
L 343.229436 295.355249 
L 343.237304 294.45039 
L 343.339589 295.350543 
L 343.37893 295.132681 
L 343.418271 295.3661 
L 343.426139 294.455815 
L 343.528424 295.30388 
L 343.622842 295.373318 
L 343.583501 295.067328 
L 343.638578 295.313393 
L 343.654314 295.193785 
L 343.685787 295.362633 
L 343.748732 295.293958 
L 343.827413 295.283082 
L 343.788072 295.209046 
L 343.843149 295.241889 
L 343.851017 295.229889 
L 343.858886 295.284403 
L 343.906094 295.276939 
L 343.913962 294.866187 
L 343.937567 295.325258 
L 344.016248 295.255626 
L 344.047721 294.677206 
L 344.110666 295.421716 
L 344.118534 295.377476 
L 344.165742 295.22914 
L 344.228687 295.281857 
L 344.252292 295.37241 
L 344.275896 295.246388 
L 344.315237 295.25491 
L 344.323105 295.149111 
L 344.417522 295.364912 
L 344.425391 295.409953 
L 344.433259 295.395807 
L 344.543412 289.581242 
L 344.63783 295.28077 
L 344.669302 294.979302 
L 344.692907 295.178631 
L 344.716511 295.258316 
L 344.732247 295.035381 
L 344.755852 295.230497 
L 344.76372 294.388014 
L 344.858137 295.247182 
L 344.866006 295.234015 
L 344.881742 295.12021 
L 344.897478 295.274568 
L 344.905346 294.19985 
L 344.968291 295.28657 
L 345.007632 295.237789 
L 345.086313 295.342439 
L 345.062709 295.151052 
L 345.133522 295.30099 
L 345.14139 295.294953 
L 345.243675 294.324269 
L 345.220071 295.334857 
L 345.251544 294.833265 
L 345.338093 295.405067 
L 345.377434 295.3472 
L 345.456115 295.311373 
L 345.534796 289.224423 
L 345.566269 294.916899 
L 345.597741 295.210534 
L 345.652818 294.368875 
L 345.68429 295.180577 
L 345.692159 294.988219 
L 345.707895 295.231621 
L 345.715763 289.555153 
L 345.81018 295.26017 
L 345.818049 294.35256 
L 345.825917 294.373498 
L 345.833785 294.72807 
L 345.841653 294.1368 
L 345.849521 284.851496 
L 345.943939 295.236541 
L 345.951807 295.224928 
L 345.959675 295.231134 
L 345.967543 295.196334 
L 345.975411 294.118119 
L 346.054092 295.210537 
L 346.077697 295.136766 
L 346.124905 295.285597 
L 346.14851 295.276662 
L 346.18785 294.326558 
L 346.258664 295.280626 
L 346.368817 295.052058 
L 346.305872 295.361257 
L 346.376685 295.164358 
L 346.408158 295.29439 
L 346.416026 295.263835 
L 346.471103 288.029974 
L 346.52618 293.83736 
L 346.628465 295.271318 
L 346.541916 292.202613 
L 346.644202 294.915088 
L 346.659938 295.201676 
L 346.69141 294.343805 
L 346.722883 295.034122 
L 346.809432 293.216439 
L 346.770092 295.114382 
L 346.833037 294.280966 
L 346.90385 295.273793 
L 346.927454 293.722749 
L 346.958927 295.08806 
L 346.990399 293.115978 
L 347.053344 295.110481 
L 347.06908 295.023706 
L 347.092685 294.798078 
L 347.163498 295.265734 
L 347.273652 289.092734 
L 347.187102 295.266564 
L 347.297256 294.080158 
L 347.415278 295.296951 
L 347.470355 294.385086 
L 347.5333 295.11567 
L 347.549036 295.303303 
L 347.596245 293.891925 
L 347.643453 295.394245 
L 347.65919 294.626917 
L 347.706398 295.386391 
L 347.777212 295.174354 
L 347.816552 295.237363 
L 347.792948 294.925767 
L 347.82442 295.148058 
L 347.832288 294.816012 
L 347.926706 295.38455 
L 347.95031 295.084065 
L 348.052596 295.26418 
L 348.0762 295.11167 
L 348.107673 295.319638 
L 348.123409 295.421553 
L 348.131277 295.027252 
L 348.20209 295.24559 
L 348.209958 295.072374 
L 348.217826 289.475529 
L 348.320112 295.391733 
L 348.41453 295.052212 
L 348.461738 295.224971 
L 348.595496 295.358009 
L 348.603365 295.295452 
L 348.642705 294.953263 
L 348.713518 295.140981 
L 348.729255 295.322413 
L 348.737123 294.838849 
L 348.760727 295.276537 
L 348.768595 292.467828 
L 348.870881 295.343729 
L 348.941694 295.111986 
L 348.902353 295.36594 
L 348.981035 295.356147 
L 349.122661 295.037568 
L 349.16987 295.272188 
L 349.177738 295.355093 
L 349.240683 295.103468 
L 349.264287 295.1269 
L 349.280023 295.080135 
L 349.303628 295.310753 
L 349.319364 295.298198 
L 349.390177 295.356869 
L 349.398045 294.841669 
L 349.445254 295.409851 
L 349.500331 295.296676 
L 349.516067 295.101436 
L 349.531803 295.197233 
L 349.539671 295.001053 
L 349.610484 295.334717 
L 349.634089 295.305109 
L 349.641957 295.380487 
L 349.71277 295.100361 
L 349.744243 295.294786 
L 349.752111 295.298962 
L 349.783583 295.319635 
L 349.870133 294.662963 
L 349.972418 295.342996 
L 349.996023 295.220371 
L 350.09044 295.321244 
L 350.058968 295.203476 
L 350.098308 295.247043 
L 350.106176 292.512097 
L 350.184858 295.341701 
L 350.208462 295.268454 
L 350.247803 295.378916 
L 350.271407 295.349767 
L 350.279275 289.614226 
L 350.381561 295.292353 
L 350.413033 295.28287 
L 350.397297 295.340707 
L 350.436638 295.347441 
L 350.444506 294.9957 
L 350.515319 295.366312 
L 350.546791 295.353295 
L 350.562528 295.389708 
L 350.570396 134.196202 
L 350.672681 295.304254 
L 350.680549 295.335024 
L 350.71989 295.218056 
L 350.790703 294.8331 
L 350.759231 295.330219 
L 350.822176 295.279749 
L 350.837912 295.364377 
L 350.885121 295.127978 
L 350.892989 295.208142 
L 351.011011 294.28377 
L 351.121164 295.337242 
L 351.136901 295.090749 
L 351.144769 295.024019 
L 351.199846 295.317463 
L 351.22345 295.147197 
L 351.231318 295.277695 
L 351.239186 294.411613 
L 351.286395 294.974267 
L 351.388681 294.111245 
L 351.357208 295.306346 
L 351.396549 294.707192 
L 351.47523 295.359849 
L 351.498834 294.687121 
L 351.546043 294.326854 
L 351.577516 295.197538 
L 351.585384 295.022924 
L 351.695537 295.348927 
L 351.703406 295.187267 
L 351.742746 295.376641 
L 351.758482 295.142216 
L 351.774219 295.306142 
L 351.8529 293.833851 
L 351.884372 294.793373 
L 351.931581 295.339925 
L 352.002394 295.311026 
L 352.010262 294.405704 
L 352.112548 295.145697 
L 352.175493 295.345048 
L 352.238438 295.192388 
L 352.293515 294.402216 
L 352.332855 295.295242 
L 352.340724 295.284706 
L 352.411537 295.374005 
L 352.380064 295.200059 
L 352.435141 295.350093 
L 352.490218 295.044178 
L 352.545295 295.28734 
L 352.553163 295.3148 
L 352.561031 294.393512 
L 352.60824 295.348714 
L 352.663317 295.137342 
L 352.718394 294.400658 
L 352.765602 295.276603 
L 352.789207 295.369178 
L 352.852152 295.133825 
L 352.938701 295.329931 
L 352.891492 295.078817 
L 352.954437 295.193406 
L 353.001646 289.592652 
L 352.993778 295.306619 
L 353.064591 295.163018 
L 353.080327 295.014187 
L 353.159009 295.272678 
L 353.221954 295.402995 
L 353.174745 295.20025 
L 353.245558 295.340617 
L 353.253426 294.498237 
L 353.355712 295.274827 
L 353.457997 295.096119 
L 353.442261 295.345596 
L 353.465865 295.158762 
L 353.568151 295.395051 
L 353.48947 295.114299 
L 353.583887 295.324218 
L 353.662569 295.446474 
L 353.694041 295.321974 
L 353.788458 295.389924 
L 353.796327 295.33542 
L 353.898612 295.028201 
L 353.922217 295.195998 
L 354.040238 295.353759 
L 354.055975 294.467755 
L 354.166128 289.530026 
L 354.150392 295.411421 
L 354.173997 291.592942 
L 354.268414 295.340505 
L 354.299887 295.185455 
L 354.362832 295.416764 
L 354.425777 295.356911 
L 354.441513 295.379661 
L 354.449381 295.111426 
L 354.53593 295.390032 
L 354.551667 295.201308 
L 354.559535 295.176774 
L 354.567403 295.262579 
L 354.575271 295.207409 
L 354.583139 294.37647 
L 354.606743 295.181082 
L 354.614612 134.091889 
L 354.701161 295.240826 
L 354.716897 295.235983 
L 354.740502 295.202771 
L 354.771974 295.335635 
L 354.78771 293.959043 
L 354.827051 295.337406 
L 354.882128 295.303907 
L 354.889996 254.772222 
L 354.992282 295.106233 
L 355.023754 294.793917 
L 355.055227 295.306433 
L 355.070963 295.241292 
L 355.086699 295.280857 
L 355.196853 294.278685 
L 355.16538 295.313573 
L 355.204721 294.797427 
L 355.322743 295.346268 
L 355.330611 295.325544 
L 355.338479 295.094366 
L 355.41716 295.372752 
L 355.440765 295.331997 
L 355.448633 295.389354 
L 355.456501 294.935681 
L 355.550918 295.328241 
L 355.582391 295.382554 
L 355.613863 295.070351 
L 355.692545 295.261495 
L 355.700413 295.25848 
L 355.716149 295.35214 
L 355.731885 295.348871 
L 355.739753 295.372261 
L 355.763358 295.143407 
L 355.779094 295.211182 
L 355.786962 295.057262 
L 355.849907 295.343445 
L 355.88138 295.248333 
L 355.967929 295.364105 
L 355.928588 295.166285 
L 355.975797 295.314921 
L 355.983665 295.017138 
L 356.030874 295.34301 
L 356.085951 295.075441 
L 356.13316 295.249386 
L 356.141028 294.020198 
L 356.211841 295.320266 
L 356.243313 295.189407 
L 356.274786 295.357476 
L 356.282654 294.3108 
L 356.369203 295.366828 
L 356.38494 295.348808 
L 356.392808 295.403973 
L 356.471489 295.212005 
L 356.495093 295.338892 
L 356.534434 295.439688 
L 356.55017 295.148009 
L 356.558038 295.245134 
L 356.581643 291.536571 
L 356.668192 295.269844 
L 356.754741 295.32092 
L 356.715401 295.215563 
L 356.762609 295.23232 
L 356.778346 294.835859 
L 356.817686 295.002236 
L 356.825554 293.816266 
L 356.919972 295.320986 
L 356.92784 295.232353 
L 357.006521 295.354545 
L 357.030126 295.301751 
L 357.061598 295.438061 
L 357.085203 295.161483 
L 357.148148 295.370116 
L 357.258301 295.246569 
L 357.187488 295.404155 
L 357.266169 295.294415 
L 357.30551 295.416523 
L 357.360587 295.270735 
L 357.384191 295.011518 
L 357.415664 295.332761 
L 357.462873 295.290075 
L 357.486477 295.411238 
L 357.525818 295.363221 
L 357.533686 255.438496 
L 357.635971 295.041675 
L 357.675312 295.290818 
L 357.777598 246.89313 
L 357.801202 289.258746 
L 357.864147 295.337181 
L 357.927092 295.28643 
L 358.013641 295.20793 
L 357.974301 295.337904 
L 358.052982 295.284821 
L 358.108059 295.369034 
L 358.092322 295.259712 
L 358.155267 295.342862 
L 358.202476 294.995642 
L 358.18674 295.394217 
L 358.257553 295.359703 
L 358.328366 295.227853 
L 358.375575 295.423203 
L 358.399179 295.441474 
L 358.422784 295.399841 
L 358.430652 295.05451 
L 358.446388 295.336201 
L 358.454256 288.401628 
L 358.556542 295.335737 
L 358.580146 295.274316 
L 358.643091 295.403382 
L 358.650959 295.361383 
L 358.658827 294.453457 
L 358.761113 295.245035 
L 358.792586 295.15458 
L 358.81619 295.281826 
L 358.824058 294.860531 
L 358.894871 295.338909 
L 358.926344 295.214878 
L 358.997157 295.1616 
L 359.060102 295.398004 
L 359.123047 291.209381 
L 359.170256 295.329718 
L 359.19386 295.39732 
L 359.225332 295.255922 
L 359.280409 295.323676 
L 359.288277 295.37343 
L 359.304014 295.296138 
L 359.311882 294.705426 
L 359.351222 295.428829 
L 359.414167 295.35956 
L 359.547925 295.395835 
L 359.469244 295.261144 
L 359.563662 295.375897 
L 359.595134 295.307223 
L 359.634475 295.406059 
L 359.665947 295.343555 
L 359.673815 295.398217 
L 359.705288 295.07271 
L 359.728892 295.204541 
L 359.73676 294.928624 
L 359.791837 295.345864 
L 359.831178 295.186181 
L 359.839046 295.261113 
L 359.846914 134.131905 
L 359.941332 295.323229 
L 359.9492 295.318063 
L 360.035749 295.20203 
L 360.07509 295.359497 
L 360.106562 295.096331 
L 360.193112 295.427756 
L 360.311134 293.87126 
L 360.334738 294.606846 
L 360.389815 295.168303 
L 360.397683 295.04176 
L 360.405551 113.978487 
L 360.507837 294.592172 
L 360.61799 295.256751 
L 360.539309 293.51433 
L 360.625859 295.049001 
L 360.641595 295.338864 
L 360.673067 294.60624 
L 360.70454 295.075894 
L 360.712408 293.94597 
L 360.798957 295.366627 
L 360.806825 295.251894 
L 360.822562 295.256636 
L 360.95632 290.932467 
L 360.964188 292.933024 
L 361.058605 295.176034 
L 361.074342 295.052575 
L 361.08221 290.468581 
L 361.160891 295.139904 
L 361.184495 295.087106 
L 361.200232 295.062202 
L 361.2081 295.222966 
L 361.215968 295.337359 
L 361.294649 294.963066 
L 361.302517 295.028848 
L 361.365462 294.345639 
L 361.326122 295.319646 
L 361.396935 294.7705 
L 361.404803 293.879261 
L 361.507088 294.532539 
L 361.62511 295.289888 
L 361.703792 295.173878 
L 361.719528 295.206829 
L 361.751 295.174132 
L 361.758868 289.526408 
L 361.861154 295.05215 
L 361.994912 295.286208 
L 361.931967 294.8274 
L 362.010648 295.281902 
L 362.057857 295.300705 
L 362.065725 294.928835 
L 362.168011 295.172589 
L 362.183747 295.237687 
L 362.286033 295.121728 
L 362.301769 295.071982 
L 362.317505 295.139605 
L 362.348978 295.293593 
L 362.396186 294.979771 
L 362.411923 295.009517 
L 362.427659 294.84118 
L 362.451263 295.05117 
L 362.459131 294.991699 
L 362.467 221.600494 
L 362.569285 295.246922 
L 362.616494 295.295127 
L 362.63223 295.112254 
L 362.655835 295.177308 
L 362.765988 294.288298 
L 362.710911 295.236931 
L 362.781725 294.832853 
L 362.899746 295.371003 
L 362.915483 295.361466 
L 363.041373 294.705196 
L 363.080713 294.219546 
L 363.175131 295.219423 
L 363.277416 294.837893 
L 363.285285 295.082031 
L 363.293153 295.07534 
L 363.363966 293.107724 
L 363.356098 295.087612 
L 363.403306 294.746178 
L 363.505592 295.228357 
L 363.434779 294.228528 
L 363.529196 295.124417 
L 363.552801 294.882899 
L 363.592141 295.210748 
L 363.623614 295.109499 
L 363.710163 294.947973 
L 363.733768 295.237376 
L 363.741636 288.913059 
L 363.843921 295.180376 
L 363.859658 295.325335 
L 363.922603 294.769834 
L 363.938339 294.970117 
L 364.024888 290.656281 
L 363.985548 295.113456 
L 364.048493 294.422479 
L 364.135042 295.268903 
L 364.166514 295.136868 
L 364.174383 294.843786 
L 364.190119 295.056903 
L 364.197987 134.0298 
L 364.300273 293.67309 
L 364.339613 294.806135 
L 364.347481 292.997245 
L 364.449767 294.858799 
L 364.465503 294.942694 
L 364.473371 295.173393 
L 364.544184 294.42929 
L 364.567789 294.970014 
L 364.685811 291.954106 
L 364.701547 294.074734 
L 364.77236 295.060102 
L 364.811701 294.976617 
L 364.819569 289.427651 
L 364.890382 295.087257 
L 364.921854 294.800233 
L 364.945459 294.733085 
L 364.953327 289.305885 
L 365.047744 295.06006 
L 365.055613 294.901836 
L 365.197239 289.84624 
L 365.102821 295.016189 
L 365.212975 292.997736 
L 365.27592 295.131716 
L 365.338865 294.697066 
L 365.346733 294.385409 
L 365.441151 295.021426 
L 365.464755 294.86656 
L 365.480491 295.140883 
L 365.559172 294.905099 
L 365.567041 294.929388 
L 365.574909 294.691971 
L 365.685062 267.98305 
L 365.622117 294.981903 
L 365.700799 288.219439 
L 365.787348 295.08003 
L 365.818821 294.594979 
L 365.889634 295.153525 
L 365.850293 293.933879 
L 365.936842 294.946861 
L 365.999787 294.120388 
L 366.062732 294.847473 
L 366.133546 295.222232 
L 366.196491 295.081634 
L 366.298776 294.681377 
L 366.235831 295.303189 
L 366.338117 294.701988 
L 366.345985 292.163388 
L 366.416798 295.137313 
L 366.448271 294.994119 
L 366.464007 294.386002 
L 366.519084 295.132812 
L 366.53482 295.039639 
L 366.605633 295.186348 
L 366.589897 294.875566 
L 366.621369 295.010891 
L 366.707919 293.703043 
L 366.731523 294.685233 
L 366.794468 295.086558 
L 366.770864 294.62132 
L 366.818072 294.868994 
L 366.888885 293.575271 
L 366.928226 294.839021 
L 367.022644 293.970909 
L 366.975435 295.223249 
L 367.03838 294.439116 
L 367.054116 295.065557 
L 367.16427 294.866847 
L 367.172138 294.866638 
L 367.227215 295.245779 
L 367.20361 294.440593 
L 367.274424 294.807718 
L 367.345237 294.930346 
L 367.321632 294.65255 
L 367.360973 294.728174 
L 367.400314 294.397069 
L 367.423918 295.027987 
L 367.463259 294.780334 
L 367.494731 295.133724 
L 367.565544 294.891185 
L 367.589149 293.444115 
L 367.597017 269.458142 
L 367.691434 295.147229 
L 367.699302 295.012311 
L 367.79372 295.258863 
L 367.809456 293.191649 
L 367.817324 133.556652 
L 367.91961 295.266915 
L 367.935346 295.023358 
L 368.037632 295.128228 
L 368.0455 295.243698 
L 368.100577 294.815832 
L 368.132049 294.922149 
L 368.21073 295.301249 
L 368.242203 295.211257 
L 368.320884 295.300943 
L 368.375961 290.743792 
L 368.501851 295.298236 
L 368.533323 295.417422 
L 368.564796 295.178041 
L 368.580532 295.358564 
L 368.5884 287.316097 
L 368.690686 295.427923 
L 368.769367 294.897809 
L 368.80084 295.420417 
L 368.92673 295.339649 
L 368.934598 295.006727 
L 368.96607 295.380467 
L 369.036883 295.253401 
L 369.147037 295.444178 
L 369.060488 294.836118 
L 369.162773 295.406271 
L 369.225718 294.991277 
L 369.280795 295.168913 
L 369.320136 295.005981 
L 369.446026 295.368482 
L 369.477498 294.970818 
L 369.548311 295.41548 
L 369.571916 295.358349 
L 369.587652 295.434842 
L 369.674201 293.813301 
L 369.729278 294.484771 
L 369.831564 295.377756 
L 369.8473 295.366563 
L 369.965322 294.858442 
L 370.051871 295.251904 
L 370.020399 294.837263 
L 370.083344 295.074457 
L 370.130553 295.280445 
L 370.154157 294.975633 
L 370.201366 295.264066 
L 370.272179 294.497814 
L 370.256443 295.314688 
L 370.327256 294.959089 
L 370.429541 295.216878 
L 370.405937 294.345506 
L 370.43741 295.190686 
L 370.445278 294.742228 
L 370.47675 295.273697 
L 370.547563 295.163531 
L 370.571168 295.192961 
L 370.579036 295.01936 
L 370.673453 295.365244 
L 370.72853 294.615841 
L 370.838684 295.093364 
L 370.909497 266.296528 
L 370.948838 291.743017 
L 371.019651 294.992322 
L 371.035387 294.918482 
" style="fill:none;stroke:#ff7f0e;stroke-linecap:square;stroke-width:1.5;"/>
   </g>
   <g id="patch_3">
    <path d="M 57.6 307.584 
L 57.6 41.472 
" style="fill:none;stroke:#000000;stroke-linecap:square;stroke-linejoin:miter;stroke-width:0.8;"/>
   </g>
   <g id="patch_4">
    <path d="M 414.72 307.584 
L 414.72 41.472 
" style="fill:none;stroke:#000000;stroke-linecap:square;stroke-linejoin:miter;stroke-width:0.8;"/>
   </g>
   <g id="patch_5">
    <path d="M 57.6 307.584 
L 414.72 307.584 
" style="fill:none;stroke:#000000;stroke-linecap:square;stroke-linejoin:miter;stroke-width:0.8;"/>
   </g>
   <g id="patch_6">
    <path d="M 57.6 41.472 
L 414.72 41.472 
" style="fill:none;stroke:#000000;stroke-linecap:square;stroke-linejoin:miter;stroke-width:0.8;"/>
   </g>
  </g>
 </g>
 <defs>
  <clipPath id="p810af7f57c">
   <rect height="266.112" width="357.12" x="57.6" y="41.472"/>
  </clipPath>
 </defs>
</svg>
