<?xml version="1.0" encoding="utf-8" standalone="no"?>
<!DOCTYPE svg PUBLIC "-//W3C//DTD SVG 1.1//EN"
  "http://www.w3.org/Graphics/SVG/1.1/DTD/svg11.dtd">
<svg height="432pt" version="1.1" viewBox="0 0 864 432" width="864pt" xmlns="http://www.w3.org/2000/svg" xmlns:xlink="http://www.w3.org/1999/xlink">
 <metadata>
  <rdf:RDF xmlns:cc="http://creativecommons.org/ns#" xmlns:dc="http://purl.org/dc/elements/1.1/" xmlns:rdf="http://www.w3.org/1999/02/22-rdf-syntax-ns#">
   <cc:Work>
    <dc:type rdf:resource="http://purl.org/dc/dcmitype/StillImage"/>
    <dc:date>2022-01-06T21:23:41.003352</dc:date>
    <dc:format>image/svg+xml</dc:format>
    <dc:creator>
     <cc:Agent>
      <dc:title>Matplotlib v3.4.3, https://matplotlib.org/</dc:title>
     </cc:Agent>
    </dc:creator>
   </cc:Work>
  </rdf:RDF>
 </metadata>
 <defs>
  <style type="text/css">*{stroke-linecap:butt;stroke-linejoin:round;}</style>
 </defs>
 <g id="figure_1">
  <g id="patch_1">
   <path d="M 0 432 
L 864 432 
L 864 0 
L 0 0 
z
" style="fill:#ffffff;"/>
  </g>
  <g id="axes_1">
   <g id="patch_2">
    <path d="M 108 384.48 
L 777.6 384.48 
L 777.6 51.84 
L 108 51.84 
z
" style="fill:#ffffff;"/>
   </g>
   <g id="matplotlib.axis_1">
    <g id="xtick_1">
     <g id="line2d_1">
      <defs>
       <path d="M 0 0 
L 0 3.5 
" id="mf3aa7e9f64" style="stroke:#000000;stroke-width:0.8;"/>
      </defs>
      <g>
       <use style="stroke:#000000;stroke-width:0.8;" x="138.436364" xlink:href="#mf3aa7e9f64" y="384.48"/>
      </g>
     </g>
     <g id="text_1">
      <!-- 39000 -->
      <g transform="translate(122.530114 399.078438)scale(0.1 -0.1)">
       <defs>
        <path d="M 2597 2516 
Q 3050 2419 3304 2112 
Q 3559 1806 3559 1356 
Q 3559 666 3084 287 
Q 2609 -91 1734 -91 
Q 1441 -91 1130 -33 
Q 819 25 488 141 
L 488 750 
Q 750 597 1062 519 
Q 1375 441 1716 441 
Q 2309 441 2620 675 
Q 2931 909 2931 1356 
Q 2931 1769 2642 2001 
Q 2353 2234 1838 2234 
L 1294 2234 
L 1294 2753 
L 1863 2753 
Q 2328 2753 2575 2939 
Q 2822 3125 2822 3475 
Q 2822 3834 2567 4026 
Q 2313 4219 1838 4219 
Q 1578 4219 1281 4162 
Q 984 4106 628 3988 
L 628 4550 
Q 988 4650 1302 4700 
Q 1616 4750 1894 4750 
Q 2613 4750 3031 4423 
Q 3450 4097 3450 3541 
Q 3450 3153 3228 2886 
Q 3006 2619 2597 2516 
z
" id="DejaVuSans-33" transform="scale(0.015625)"/>
        <path d="M 703 97 
L 703 672 
Q 941 559 1184 500 
Q 1428 441 1663 441 
Q 2288 441 2617 861 
Q 2947 1281 2994 2138 
Q 2813 1869 2534 1725 
Q 2256 1581 1919 1581 
Q 1219 1581 811 2004 
Q 403 2428 403 3163 
Q 403 3881 828 4315 
Q 1253 4750 1959 4750 
Q 2769 4750 3195 4129 
Q 3622 3509 3622 2328 
Q 3622 1225 3098 567 
Q 2575 -91 1691 -91 
Q 1453 -91 1209 -44 
Q 966 3 703 97 
z
M 1959 2075 
Q 2384 2075 2632 2365 
Q 2881 2656 2881 3163 
Q 2881 3666 2632 3958 
Q 2384 4250 1959 4250 
Q 1534 4250 1286 3958 
Q 1038 3666 1038 3163 
Q 1038 2656 1286 2365 
Q 1534 2075 1959 2075 
z
" id="DejaVuSans-39" transform="scale(0.015625)"/>
        <path d="M 2034 4250 
Q 1547 4250 1301 3770 
Q 1056 3291 1056 2328 
Q 1056 1369 1301 889 
Q 1547 409 2034 409 
Q 2525 409 2770 889 
Q 3016 1369 3016 2328 
Q 3016 3291 2770 3770 
Q 2525 4250 2034 4250 
z
M 2034 4750 
Q 2819 4750 3233 4129 
Q 3647 3509 3647 2328 
Q 3647 1150 3233 529 
Q 2819 -91 2034 -91 
Q 1250 -91 836 529 
Q 422 1150 422 2328 
Q 422 3509 836 4129 
Q 1250 4750 2034 4750 
z
" id="DejaVuSans-30" transform="scale(0.015625)"/>
       </defs>
       <use xlink:href="#DejaVuSans-33"/>
       <use x="63.623047" xlink:href="#DejaVuSans-39"/>
       <use x="127.246094" xlink:href="#DejaVuSans-30"/>
       <use x="190.869141" xlink:href="#DejaVuSans-30"/>
       <use x="254.492188" xlink:href="#DejaVuSans-30"/>
      </g>
     </g>
    </g>
    <g id="xtick_2">
     <g id="line2d_2">
      <g>
       <use style="stroke:#000000;stroke-width:0.8;" x="230.7797" xlink:href="#mf3aa7e9f64" y="384.48"/>
      </g>
     </g>
     <g id="text_2">
      <!-- 39250 -->
      <g transform="translate(214.87345 399.078438)scale(0.1 -0.1)">
       <defs>
        <path d="M 1228 531 
L 3431 531 
L 3431 0 
L 469 0 
L 469 531 
Q 828 903 1448 1529 
Q 2069 2156 2228 2338 
Q 2531 2678 2651 2914 
Q 2772 3150 2772 3378 
Q 2772 3750 2511 3984 
Q 2250 4219 1831 4219 
Q 1534 4219 1204 4116 
Q 875 4013 500 3803 
L 500 4441 
Q 881 4594 1212 4672 
Q 1544 4750 1819 4750 
Q 2544 4750 2975 4387 
Q 3406 4025 3406 3419 
Q 3406 3131 3298 2873 
Q 3191 2616 2906 2266 
Q 2828 2175 2409 1742 
Q 1991 1309 1228 531 
z
" id="DejaVuSans-32" transform="scale(0.015625)"/>
        <path d="M 691 4666 
L 3169 4666 
L 3169 4134 
L 1269 4134 
L 1269 2991 
Q 1406 3038 1543 3061 
Q 1681 3084 1819 3084 
Q 2600 3084 3056 2656 
Q 3513 2228 3513 1497 
Q 3513 744 3044 326 
Q 2575 -91 1722 -91 
Q 1428 -91 1123 -41 
Q 819 9 494 109 
L 494 744 
Q 775 591 1075 516 
Q 1375 441 1709 441 
Q 2250 441 2565 725 
Q 2881 1009 2881 1497 
Q 2881 1984 2565 2268 
Q 2250 2553 1709 2553 
Q 1456 2553 1204 2497 
Q 953 2441 691 2322 
L 691 4666 
z
" id="DejaVuSans-35" transform="scale(0.015625)"/>
       </defs>
       <use xlink:href="#DejaVuSans-33"/>
       <use x="63.623047" xlink:href="#DejaVuSans-39"/>
       <use x="127.246094" xlink:href="#DejaVuSans-32"/>
       <use x="190.869141" xlink:href="#DejaVuSans-35"/>
       <use x="254.492188" xlink:href="#DejaVuSans-30"/>
      </g>
     </g>
    </g>
    <g id="xtick_3">
     <g id="line2d_3">
      <g>
       <use style="stroke:#000000;stroke-width:0.8;" x="323.123036" xlink:href="#mf3aa7e9f64" y="384.48"/>
      </g>
     </g>
     <g id="text_3">
      <!-- 39500 -->
      <g transform="translate(307.216786 399.078438)scale(0.1 -0.1)">
       <use xlink:href="#DejaVuSans-33"/>
       <use x="63.623047" xlink:href="#DejaVuSans-39"/>
       <use x="127.246094" xlink:href="#DejaVuSans-35"/>
       <use x="190.869141" xlink:href="#DejaVuSans-30"/>
       <use x="254.492188" xlink:href="#DejaVuSans-30"/>
      </g>
     </g>
    </g>
    <g id="xtick_4">
     <g id="line2d_4">
      <g>
       <use style="stroke:#000000;stroke-width:0.8;" x="415.466372" xlink:href="#mf3aa7e9f64" y="384.48"/>
      </g>
     </g>
     <g id="text_4">
      <!-- 39750 -->
      <g transform="translate(399.560122 399.078438)scale(0.1 -0.1)">
       <defs>
        <path d="M 525 4666 
L 3525 4666 
L 3525 4397 
L 1831 0 
L 1172 0 
L 2766 4134 
L 525 4134 
L 525 4666 
z
" id="DejaVuSans-37" transform="scale(0.015625)"/>
       </defs>
       <use xlink:href="#DejaVuSans-33"/>
       <use x="63.623047" xlink:href="#DejaVuSans-39"/>
       <use x="127.246094" xlink:href="#DejaVuSans-37"/>
       <use x="190.869141" xlink:href="#DejaVuSans-35"/>
       <use x="254.492188" xlink:href="#DejaVuSans-30"/>
      </g>
     </g>
    </g>
    <g id="xtick_5">
     <g id="line2d_5">
      <g>
       <use style="stroke:#000000;stroke-width:0.8;" x="507.809709" xlink:href="#mf3aa7e9f64" y="384.48"/>
      </g>
     </g>
     <g id="text_5">
      <!-- 40000 -->
      <g transform="translate(491.903459 399.078438)scale(0.1 -0.1)">
       <defs>
        <path d="M 2419 4116 
L 825 1625 
L 2419 1625 
L 2419 4116 
z
M 2253 4666 
L 3047 4666 
L 3047 1625 
L 3713 1625 
L 3713 1100 
L 3047 1100 
L 3047 0 
L 2419 0 
L 2419 1100 
L 313 1100 
L 313 1709 
L 2253 4666 
z
" id="DejaVuSans-34" transform="scale(0.015625)"/>
       </defs>
       <use xlink:href="#DejaVuSans-34"/>
       <use x="63.623047" xlink:href="#DejaVuSans-30"/>
       <use x="127.246094" xlink:href="#DejaVuSans-30"/>
       <use x="190.869141" xlink:href="#DejaVuSans-30"/>
       <use x="254.492188" xlink:href="#DejaVuSans-30"/>
      </g>
     </g>
    </g>
    <g id="xtick_6">
     <g id="line2d_6">
      <g>
       <use style="stroke:#000000;stroke-width:0.8;" x="600.153045" xlink:href="#mf3aa7e9f64" y="384.48"/>
      </g>
     </g>
     <g id="text_6">
      <!-- 40250 -->
      <g transform="translate(584.246795 399.078438)scale(0.1 -0.1)">
       <use xlink:href="#DejaVuSans-34"/>
       <use x="63.623047" xlink:href="#DejaVuSans-30"/>
       <use x="127.246094" xlink:href="#DejaVuSans-32"/>
       <use x="190.869141" xlink:href="#DejaVuSans-35"/>
       <use x="254.492188" xlink:href="#DejaVuSans-30"/>
      </g>
     </g>
    </g>
    <g id="xtick_7">
     <g id="line2d_7">
      <g>
       <use style="stroke:#000000;stroke-width:0.8;" x="692.496381" xlink:href="#mf3aa7e9f64" y="384.48"/>
      </g>
     </g>
     <g id="text_7">
      <!-- 40500 -->
      <g transform="translate(676.590131 399.078438)scale(0.1 -0.1)">
       <use xlink:href="#DejaVuSans-34"/>
       <use x="63.623047" xlink:href="#DejaVuSans-30"/>
       <use x="127.246094" xlink:href="#DejaVuSans-35"/>
       <use x="190.869141" xlink:href="#DejaVuSans-30"/>
       <use x="254.492188" xlink:href="#DejaVuSans-30"/>
      </g>
     </g>
    </g>
   </g>
   <g id="matplotlib.axis_2">
    <g id="ytick_1">
     <g id="line2d_8">
      <defs>
       <path d="M 0 0 
L -3.5 0 
" id="m28947200dd" style="stroke:#000000;stroke-width:0.8;"/>
      </defs>
      <g>
       <use style="stroke:#000000;stroke-width:0.8;" x="108" xlink:href="#m28947200dd" y="369.360269"/>
      </g>
     </g>
     <g id="text_8">
      <!-- 0 -->
      <g transform="translate(94.6375 373.159487)scale(0.1 -0.1)">
       <use xlink:href="#DejaVuSans-30"/>
      </g>
     </g>
    </g>
    <g id="ytick_2">
     <g id="line2d_9">
      <g>
       <use style="stroke:#000000;stroke-width:0.8;" x="108" xlink:href="#m28947200dd" y="326.988823"/>
      </g>
     </g>
     <g id="text_9">
      <!-- 50 -->
      <g transform="translate(88.275 330.788041)scale(0.1 -0.1)">
       <use xlink:href="#DejaVuSans-35"/>
       <use x="63.623047" xlink:href="#DejaVuSans-30"/>
      </g>
     </g>
    </g>
    <g id="ytick_3">
     <g id="line2d_10">
      <g>
       <use style="stroke:#000000;stroke-width:0.8;" x="108" xlink:href="#m28947200dd" y="284.617376"/>
      </g>
     </g>
     <g id="text_10">
      <!-- 100 -->
      <g transform="translate(81.9125 288.416595)scale(0.1 -0.1)">
       <defs>
        <path d="M 794 531 
L 1825 531 
L 1825 4091 
L 703 3866 
L 703 4441 
L 1819 4666 
L 2450 4666 
L 2450 531 
L 3481 531 
L 3481 0 
L 794 0 
L 794 531 
z
" id="DejaVuSans-31" transform="scale(0.015625)"/>
       </defs>
       <use xlink:href="#DejaVuSans-31"/>
       <use x="63.623047" xlink:href="#DejaVuSans-30"/>
       <use x="127.246094" xlink:href="#DejaVuSans-30"/>
      </g>
     </g>
    </g>
    <g id="ytick_4">
     <g id="line2d_11">
      <g>
       <use style="stroke:#000000;stroke-width:0.8;" x="108" xlink:href="#m28947200dd" y="242.24593"/>
      </g>
     </g>
     <g id="text_11">
      <!-- 150 -->
      <g transform="translate(81.9125 246.045149)scale(0.1 -0.1)">
       <use xlink:href="#DejaVuSans-31"/>
       <use x="63.623047" xlink:href="#DejaVuSans-35"/>
       <use x="127.246094" xlink:href="#DejaVuSans-30"/>
      </g>
     </g>
    </g>
    <g id="ytick_5">
     <g id="line2d_12">
      <g>
       <use style="stroke:#000000;stroke-width:0.8;" x="108" xlink:href="#m28947200dd" y="199.874484"/>
      </g>
     </g>
     <g id="text_12">
      <!-- 200 -->
      <g transform="translate(81.9125 203.673703)scale(0.1 -0.1)">
       <use xlink:href="#DejaVuSans-32"/>
       <use x="63.623047" xlink:href="#DejaVuSans-30"/>
       <use x="127.246094" xlink:href="#DejaVuSans-30"/>
      </g>
     </g>
    </g>
    <g id="ytick_6">
     <g id="line2d_13">
      <g>
       <use style="stroke:#000000;stroke-width:0.8;" x="108" xlink:href="#m28947200dd" y="157.503038"/>
      </g>
     </g>
     <g id="text_13">
      <!-- 250 -->
      <g transform="translate(81.9125 161.302257)scale(0.1 -0.1)">
       <use xlink:href="#DejaVuSans-32"/>
       <use x="63.623047" xlink:href="#DejaVuSans-35"/>
       <use x="127.246094" xlink:href="#DejaVuSans-30"/>
      </g>
     </g>
    </g>
    <g id="ytick_7">
     <g id="line2d_14">
      <g>
       <use style="stroke:#000000;stroke-width:0.8;" x="108" xlink:href="#m28947200dd" y="115.131592"/>
      </g>
     </g>
     <g id="text_14">
      <!-- 300 -->
      <g transform="translate(81.9125 118.930811)scale(0.1 -0.1)">
       <use xlink:href="#DejaVuSans-33"/>
       <use x="63.623047" xlink:href="#DejaVuSans-30"/>
       <use x="127.246094" xlink:href="#DejaVuSans-30"/>
      </g>
     </g>
    </g>
    <g id="ytick_8">
     <g id="line2d_15">
      <g>
       <use style="stroke:#000000;stroke-width:0.8;" x="108" xlink:href="#m28947200dd" y="72.760146"/>
      </g>
     </g>
     <g id="text_15">
      <!-- 350 -->
      <g transform="translate(81.9125 76.559364)scale(0.1 -0.1)">
       <use xlink:href="#DejaVuSans-33"/>
       <use x="63.623047" xlink:href="#DejaVuSans-35"/>
       <use x="127.246094" xlink:href="#DejaVuSans-30"/>
      </g>
     </g>
    </g>
   </g>
   <g id="line2d_16">
    <path clip-path="url(#p4e84b17ad4)" d="M 138.436364 369.30335 
L 140.652604 369.267061 
L 141.021977 368.784813 
L 142.130097 368.753072 
L 142.49947 368.856217 
L 142.868844 369.191487 
L 143.60759 369.284241 
L 145.454457 369.299033 
L 146.562577 369.345052 
L 155.427538 369.307929 
L 155.796911 369.227744 
L 156.166284 369.307929 
L 156.905031 369.214008 
L 165.400618 369.290532 
L 166.139365 369.19035 
L 166.508738 369.269369 
L 167.247485 369.100365 
L 167.616858 369.236022 
L 167.986231 369.236022 
L 168.724978 369.055325 
L 169.094351 369.236022 
L 169.463725 369.055325 
L 169.833098 369.292726 
L 178.698058 369.300976 
L 179.436805 369.060783 
L 180.914298 369.055768 
L 181.653045 369.289733 
L 183.130538 369.30325 
L 183.499912 369.219253 
L 184.238658 369.310534 
L 186.085525 369.285527 
L 194.211739 369.225698 
L 194.950485 369.165674 
L 196.427979 369.320823 
L 212.311033 369.283481 
L 214.157899 369.168893 
L 214.527273 369.294942 
L 215.635393 369.193483 
L 216.374139 369.119654 
L 216.743513 369.275571 
L 218.959753 369.306273 
L 219.6985 369.195239 
L 220.067873 369.28494 
L 220.80662 369.195239 
L 221.545366 369.297503 
L 233.365313 369.324647 
L 233.734687 369.221752 
L 234.473433 369.295722 
L 240.014034 369.279592 
L 239.275287 369.279592 
L 241.491527 369.062705 
L 241.8609 369.159328 
L 242.230274 369.062705 
L 242.96902 369.355002 
L 248.140247 369.248376 
L 248.50962 368.742507 
L 248.878994 369.248376 
L 249.248367 369.248376 
L 249.617741 368.146653 
L 249.987114 368.146653 
L 250.356487 369.196792 
L 250.725861 369.204517 
L 251.095234 369.356816 
L 253.680847 369.292424 
L 254.419594 369.350382 
L 255.527714 369.302655 
L 255.897087 369.161454 
L 256.266461 369.161454 
L 257.005207 369.331045 
L 259.221447 369.353188 
L 261.437688 369.343196 
L 261.807061 368.837993 
L 262.176434 368.837993 
L 262.545808 369.221392 
L 263.284554 369.359956 
L 265.500794 369.299719 
L 265.870168 369.067882 
L 266.239541 369.067882 
L 266.608914 369.262654 
L 267.717034 369.346486 
L 272.888261 369.356077 
L 273.257635 369.230432 
L 273.996381 369.230432 
L 274.365755 368.52428 
L 275.104501 368.52428 
L 275.473875 369.151021 
L 275.104501 369.185859 
L 276.212621 369.151021 
L 276.951368 369.185859 
L 275.473875 369.242703 
L 278.798235 369.269169 
L 279.536981 369.154247 
L 279.906355 369.154247 
L 280.645102 369.318864 
L 282.122595 369.294288 
L 286.924448 369.242213 
L 287.293822 368.722582 
L 287.663195 368.722582 
L 288.032568 369.290869 
L 289.140688 369.281715 
L 290.248808 368.993006 
L 290.618182 368.549772 
L 290.987555 368.375096 
L 291.356929 368.549772 
L 291.726302 369.147066 
L 292.095675 369.147066 
L 292.465049 368.954784 
L 295.050662 368.984159 
L 295.420035 368.766094 
L 295.789409 369.235904 
L 297.266902 369.132653 
L 296.528155 369.116581 
L 298.005649 368.857581 
L 299.113769 368.937954 
L 300.221889 369.175959 
L 302.438129 369.298711 
L 303.176876 369.298711 
L 305.023742 369.066405 
L 306.870609 369.085071 
L 307.239982 368.923615 
L 307.978729 368.923615 
L 308.348102 369.28482 
L 309.825596 369.319569 
L 312.041836 369.133595 
L 313.149956 369.227253 
L 314.258076 369.174257 
L 316.474316 369.306542 
L 316.843689 369.108554 
L 317.582436 369.108554 
L 317.951809 368.852102 
L 318.690556 369.271474 
L 319.429303 369.173169 
L 320.168049 369.258113 
L 322.384289 369.230415 
L 323.123036 368.867573 
L 324.231156 368.908095 
L 324.969903 369.195023 
L 329.402383 369.178883 
L 329.771756 368.942974 
L 330.510503 369.011436 
L 330.879876 369.268781 
L 335.312357 369.290434 
L 336.420477 369.256438 
L 339.744837 369.341537 
L 340.483583 369.223419 
L 341.591703 369.16369 
L 341.961077 369.344241 
L 342.33045 369.335625 
L 342.699823 369.09366 
L 343.43857 369.074825 
L 344.177317 368.964441 
L 345.285437 368.964441 
L 345.65481 369.125344 
L 347.87105 369.185377 
L 348.97917 369.322812 
L 350.826037 369.112386 
L 356.366637 369.257505 
L 355.997264 369.248295 
L 357.844131 369.062384 
L 361.168491 369.243221 
L 363.754104 369.161628 
L 365.231598 369.136091 
L 365.600971 369.012462 
L 365.970344 369.133379 
L 366.339718 369.012462 
L 366.709091 369.012462 
L 367.447838 369.153202 
L 368.186584 369.218509 
L 375.943425 369.311597 
L 377.051545 369.330794 
L 377.790291 369.206084 
L 378.159665 369.206084 
L 378.529038 368.910079 
L 379.637158 369.004592 
L 381.484025 369.270016 
L 381.853398 369.146784 
L 382.592145 369.207257 
L 382.961518 369.207257 
L 383.700265 369.323299 
L 384.808385 369.321766 
L 385.177758 369.201721 
L 385.547132 369.319433 
L 388.132745 369.272018 
L 388.502118 369.106745 
L 388.871492 369.272018 
L 390.348985 369.305843 
L 392.195852 369.068713 
L 394.412092 369.173507 
L 395.150838 369.15804 
L 396.258959 369.135203 
L 396.997705 368.964441 
L 398.105825 368.955984 
L 398.844572 369.119722 
L 402.168932 369.31866 
L 402.907679 369.075511 
L 404.385172 369.154822 
L 404.754545 369.233163 
L 405.493292 369.145419 
L 406.970786 369.23735 
L 408.078906 369.154128 
L 413.250132 369.231467 
L 413.988879 369.269867 
L 414.727626 369.089632 
L 415.835746 369.089632 
L 415.466372 369.089632 
L 416.574492 368.837199 
L 417.313239 368.837199 
L 417.682613 369.066264 
L 418.790733 369.279401 
L 421.006973 369.248999 
L 421.376346 369.099463 
L 421.745719 369.237008 
L 421.376346 369.237008 
L 424.331333 369.276784 
L 424.700706 369.088757 
L 427.28632 369.178303 
L 427.655693 368.077955 
L 428.025066 369.178303 
L 428.39444 369.178303 
L 428.763813 368.922894 
L 429.50256 368.922894 
L 429.871933 368.31635 
L 430.241306 368.706985 
L 430.980053 368.706985 
L 431.349426 369.110185 
L 433.93504 369.073626 
L 434.304413 368.930828 
L 434.673786 369.073626 
L 435.412533 369.153202 
L 435.781906 369.322778 
L 437.998147 369.29008 
L 438.36752 369.135253 
L 439.845013 369.087913 
L 440.214387 369.098684 
L 440.58376 369.321726 
L 441.322507 369.322503 
L 441.69188 368.918041 
L 443.90812 369.008096 
L 444.277493 369.083974 
L 445.01624 369.008096 
L 445.385613 369.083974 
L 445.01624 369.22692 
L 445.754987 368.99144 
L 446.12436 369.253289 
L 446.493733 369.253289 
L 447.23248 368.870756 
L 447.601853 369.083703 
L 447.971227 369.083703 
L 448.3406 368.870756 
L 450.187467 369.15277 
L 449.818094 369.200919 
L 451.295587 369.200919 
L 451.66496 369.01519 
L 452.034334 369.286155 
L 452.403707 369.083163 
L 452.77308 369.01519 
L 453.511827 369.083163 
L 455.358694 369.168902 
L 455.728067 369.350117 
L 456.466814 369.359821 
L 456.836187 369.104377 
L 457.20556 369.104377 
L 457.574934 369.308565 
L 457.944307 369.104377 
L 458.31368 369.293918 
L 458.683054 369.293918 
L 459.052427 369.13797 
L 460.899294 369.124588 
L 461.268667 368.81622 
L 461.638041 369.124588 
L 462.007414 368.838309 
L 462.746161 368.902755 
L 463.115534 369.13378 
L 463.854281 369.198236 
L 464.593027 369.159379 
L 464.962401 368.646961 
L 465.331774 368.646961 
L 465.701147 369.159379 
L 466.070521 368.915097 
L 466.439894 369.174422 
L 468.286761 369.069957 
L 469.764254 369.061342 
L 470.133628 369.15229 
L 470.503001 368.828669 
L 470.872374 368.838309 
L 471.241748 369.077803 
L 471.611121 368.838309 
L 471.980494 369.077803 
L 472.719241 369.062379 
L 473.088614 368.917165 
L 473.457988 369.062379 
L 475.674228 369.153202 
L 476.782348 369.282684 
L 477.151721 369.282684 
L 477.521094 368.906455 
L 478.629214 368.906455 
L 478.998588 369.084351 
L 479.367961 369.084351 
L 479.737335 368.80809 
L 481.214828 368.827263 
L 481.584201 368.945215 
L 481.953575 368.945215 
L 482.322948 368.56076 
L 483.061695 369.196471 
L 483.800441 369.238766 
L 484.169815 368.974453 
L 484.539188 368.974453 
L 484.908561 369.135071 
L 485.647308 369.135071 
L 486.016681 369.31728 
L 487.494175 369.352546 
L 487.863548 369.029475 
L 487.494175 369.029475 
L 488.971668 369.052429 
L 489.341041 369.163189 
L 491.187908 369.050747 
L 491.557282 369.125211 
L 490.818535 369.161987 
L 492.296028 369.294433 
L 492.665402 369.294433 
L 493.034775 369.114449 
L 493.404148 369.248186 
L 494.881642 369.248186 
L 494.142895 369.265282 
L 494.881642 369.08965 
L 495.251015 369.155099 
L 495.620388 369.08965 
L 495.989762 369.155099 
L 496.359135 369.071948 
L 497.097882 369.071948 
L 499.314122 369.155741 
L 500.052868 369.211531 
L 500.422242 369.153202 
L 501.160989 369.255058 
L 501.530362 369.153202 
L 501.899735 369.281012 
L 506.332215 369.354677 
L 506.701589 369.076701 
L 507.440335 369.001077 
L 508.179082 368.96362 
L 509.656575 369.104036 
L 510.025949 369.150942 
L 510.395322 369.35974 
L 511.503442 369.268902 
L 511.872816 369.178129 
L 512.242189 369.268902 
L 512.611562 369.178129 
L 513.350309 369.36 
L 514.089056 369.314305 
L 514.458429 369.09142 
L 517.044042 369.199481 
L 518.521536 369.276322 
L 518.890909 369.15402 
L 521.845896 369.198627 
L 522.215269 369.356556 
L 523.692763 369.326421 
L 524.431509 369.011917 
L 524.800883 369.186013 
L 527.755869 369.219294 
L 528.125243 368.871674 
L 527.755869 368.838309 
L 528.494616 368.871674 
L 528.863989 369.152283 
L 532.18835 369.228647 
L 531.080229 369.331115 
L 532.557723 369.184693 
L 532.927096 369.358263 
L 535.143336 369.312857 
L 535.882083 369.214271 
L 538.098323 369.195311 
L 538.467696 369.195311 
L 537.359576 369.05668 
L 539.206443 369.20371 
L 539.575816 369.20371 
L 540.314563 369.091897 
L 541.05331 369.157592 
L 541.422683 369.335242 
L 542.900177 369.345761 
L 544.37767 368.827263 
L 544.747043 369.033031 
L 546.963283 369.287501 
L 547.332657 368.828669 
L 548.440777 368.888203 
L 548.81015 369.192904 
L 550.657017 369.246355 
L 551.02639 368.868975 
L 551.395763 368.868975 
L 551.765137 369.061342 
L 552.13451 369.061342 
L 551.765137 369.33406 
L 553.612004 369.241146 
L 554.35075 369.12973 
L 555.089497 369.160333 
L 555.45887 369.338347 
L 555.828244 369.334819 
L 556.197617 369.160333 
L 556.56699 369.160333 
L 557.305737 369.045447 
L 558.413857 369.338651 
L 558.78323 369.153202 
L 559.521977 369.153056 
L 559.89135 369.023425 
L 560.630097 369.189107 
L 562.10759 369.081117 
L 563.215711 369.183311 
L 563.585084 369.329091 
L 564.693204 369.154049 
L 565.431951 369.14722 
L 565.801324 369.359861 
L 566.170697 369.063005 
L 566.540071 369.063005 
L 567.648191 369.357762 
L 568.017564 369.28844 
L 568.386937 368.733931 
L 568.756311 368.733931 
L 569.125684 369.027041 
L 569.864431 369.347219 
L 570.233804 369.19973 
L 569.495057 369.162925 
L 572.080671 369.096604 
L 572.450044 369.316766 
L 573.188791 368.946649 
L 573.558164 369.089933 
L 575.035658 369.090895 
L 575.405031 369.359599 
L 575.774404 369.253667 
L 576.513151 369.359689 
L 577.251898 369.200345 
L 577.990644 369.200345 
L 577.621271 369.200345 
L 579.098764 369.298228 
L 580.945631 369.006815 
L 581.684378 368.759472 
L 582.053751 369.006815 
L 582.423124 368.681757 
L 583.161871 368.727711 
L 583.531244 368.56076 
L 584.269991 368.606892 
L 585.008738 368.68349 
L 585.378111 369.137632 
L 598.675552 369.272808 
L 600.153045 368.868863 
L 600.522418 369.163689 
L 603.477405 369.318244 
L 603.846778 369.128252 
L 604.585525 369.116499 
L 604.954898 369.331899 
L 607.540512 369.346579 
L 607.909885 369.195135 
L 611.972992 369.298056 
L 613.450485 369.317037 
L 621.576699 369.307778 
L 621.946072 369.129892 
L 623.423566 369.212706 
L 625.270432 369.320135 
L 627.486673 369.33822 
L 636.721006 369.33445 
L 648.910327 369.334978 
L 649.2797 369.180847 
L 651.126567 369.142652 
L 651.49594 369.320978 
L 653.342807 369.322075 
L 653.71218 369.133029 
L 654.081553 369.133029 
L 654.450927 369.275792 
L 659.622154 369.24177 
L 660.3609 369.155536 
L 661.099647 369.241213 
L 661.838394 369.323608 
L 664.424007 369.34107 
L 666.270874 369.298483 
L 667.00962 369.197643 
L 668.117741 369.294759 
L 669.225861 369.352727 
L 681.045808 369.331659 
L 681.784554 369.231385 
L 682.153928 369.331659 
L 683.262048 369.294409 
L 684.000794 369.349567 
L 686.217034 369.330834 
L 698.406355 369.300763 
L 698.775728 369.147066 
L 699.514475 369.186791 
L 700.253222 369.186791 
L 700.991968 369.299889 
L 701.361342 369.147066 
L 701.730715 369.336751 
L 702.100088 369.236358 
L 703.946955 369.338828 
L 711.703795 369.311308 
L 712.073169 369.033756 
L 713.181289 369.062968 
L 713.550662 369.335725 
L 718.721889 369.342904 
L 719.091262 369.173985 
L 723.523742 369.151013 
L 723.893116 369.056598 
L 724.631862 369.259094 
L 729.803089 369.244743 
L 730.172462 369.118875 
L 732.019329 369.166028 
L 732.388703 369.292815 
L 747.163636 369.357812 
L 747.163636 369.357812 
" style="fill:none;stroke:#1f77b4;stroke-linecap:square;stroke-width:1.5;"/>
   </g>
   <g id="line2d_17">
    <path clip-path="url(#p4e84b17ad4)" d="M 138.436364 369.13765 
L 138.436364 369.129349 
L 140.28323 369.118197 
L 141.021977 368.844353 
L 141.39135 369.083954 
L 141.021977 369.203755 
L 141.760724 369.134593 
L 142.130097 368.539717 
L 142.868844 369.005046 
L 143.238217 368.95499 
L 145.454457 369.254129 
L 148.778817 369.067415 
L 149.517564 369.169051 
L 152.841924 369.213124 
L 153.211297 368.637793 
L 153.580671 368.96053 
L 153.950044 369.107099 
L 154.319417 357.553902 
L 154.688791 363.008911 
L 155.058164 365.832177 
L 155.796911 367.915308 
L 156.166284 368.547261 
L 157.643778 369.079798 
L 158.751898 369.031652 
L 159.121271 369.106325 
L 160.229391 369.003997 
L 162.076258 369.171153 
L 163.553751 369.149052 
L 163.923124 367.636422 
L 164.292498 368.661004 
L 164.661871 368.860917 
L 165.400618 368.988503 
L 165.769991 368.822014 
L 166.508738 369.089061 
L 167.247485 368.954405 
L 167.986231 369.103986 
L 169.094351 368.960742 
L 169.833098 368.964035 
L 170.202471 368.804513 
L 170.941218 368.990181 
L 171.310591 369.016509 
L 171.679965 368.314618 
L 172.418711 368.962273 
L 172.788085 368.942936 
L 173.157458 368.775011 
L 173.526831 368.730851 
L 175.004325 369.11161 
L 176.481818 368.904971 
L 177.220565 369.075561 
L 177.959312 369.149768 
L 179.436805 369.068102 
L 179.806178 368.816208 
L 180.914298 369.072193 
L 182.391792 369.13266 
L 182.761165 369.210064 
L 183.130538 368.685025 
L 183.869285 369.007833 
L 184.238658 368.944545 
L 184.977405 369.142483 
L 185.346778 369.13286 
L 185.716152 362.2317 
L 186.085525 365.677469 
L 186.454898 367.473491 
L 187.932392 369.006441 
L 188.301765 369.096297 
L 187.932392 369.204106 
L 188.301765 369.143716 
L 189.409885 369.170769 
L 189.779259 369.158065 
L 190.148632 368.986164 
L 190.887379 369.068952 
L 191.256752 369.065369 
L 191.626125 369.19395 
L 192.364872 368.964221 
L 193.103619 369.169123 
L 193.842365 369.040353 
L 194.211739 368.056209 
L 194.581112 368.6933 
L 195.319859 369.08789 
L 196.058605 369.261419 
L 196.427979 369.252761 
L 196.797352 368.734951 
L 197.536099 369.012798 
L 197.905472 368.646564 
L 198.644219 369.098175 
L 199.752339 369.193694 
L 200.121712 369.127217 
L 200.860459 369.172132 
L 202.337952 369.030166 
L 204.554192 369.171269 
L 205.292939 369.20645 
L 207.139806 369.058821 
L 207.509179 369.172338 
L 207.878553 369.064827 
L 209.356046 369.211925 
L 209.725419 369.088571 
L 210.833539 369.210419 
L 212.311033 369.041975 
L 212.680406 368.668116 
L 213.419153 368.917351 
L 213.788526 368.887749 
L 214.157899 368.428063 
L 214.896646 368.985905 
L 216.743513 369.121807 
L 217.482259 369.027326 
L 218.221006 368.857161 
L 218.59038 368.982 
L 218.959753 100.536166 
L 219.329126 234.80208 
L 219.6985 296.241284 
L 220.067873 331.778795 
L 220.437246 350.403297 
L 220.80662 359.66159 
L 221.175993 364.337966 
L 221.545366 366.834328 
L 221.91474 368.001812 
L 222.653486 368.781296 
L 223.02286 369.034382 
L 223.761606 369.076881 
L 225.2391 369.152496 
L 225.608473 369.204119 
L 225.977846 369.096928 
L 226.34722 369.222548 
L 225.977846 369.061413 
L 226.716593 368.964771 
L 227.085966 369.121318 
L 227.45534 368.883566 
L 228.194086 369.157729 
L 230.410327 369.120679 
L 230.7797 368.707468 
L 231.149073 368.962137 
L 231.88782 369.01955 
L 232.99594 368.962646 
L 233.365313 369.118391 
L 234.10406 369.104696 
L 234.842807 369.259633 
L 235.21218 369.017585 
L 235.950927 368.943501 
L 236.3203 368.831548 
L 237.059047 368.920017 
L 238.53654 368.853121 
L 238.905914 369.042078 
L 239.275287 368.923778 
L 240.014034 369.03457 
L 239.275287 368.901743 
L 240.383407 366.666465 
L 241.122154 367.916092 
L 241.491527 367.891972 
L 241.8609 368.324309 
L 242.230274 367.922306 
L 242.96902 368.649592 
L 243.338394 368.485536 
L 243.707767 368.526733 
L 244.07714 368.827376 
L 244.446514 368.616552 
L 244.815887 66.96 
L 245.18526 217.609653 
L 246.29338 330.620982 
L 246.662754 348.589052 
L 247.032127 349.303801 
L 247.4015 359.065532 
L 247.770874 363.004043 
L 248.140247 364.993506 
L 248.50962 366.349605 
L 248.878994 365.125711 
L 249.248367 366.515017 
L 249.617741 366.646129 
L 249.987114 367.867524 
L 250.356487 368.687645 
L 251.095234 368.319043 
L 251.464607 366.071809 
L 252.203354 367.195428 
L 252.572727 367.99995 
L 252.942101 368.537028 
L 253.311474 368.828852 
L 253.680847 368.832221 
L 254.050221 368.618975 
L 254.419594 368.725599 
L 254.788967 368.545461 
L 255.158341 368.867094 
L 255.527714 368.974732 
L 255.897087 368.628615 
L 256.266461 368.948936 
L 256.635834 369.111535 
L 257.005207 369.0294 
L 257.374581 368.650121 
L 257.743954 368.839371 
L 258.113327 367.890962 
L 258.852074 368.259277 
L 259.221447 368.633885 
L 259.590821 368.67342 
L 259.960194 366.790935 
L 260.329568 367.704602 
L 261.068314 368.308849 
L 261.437688 368.152744 
L 261.807061 368.230554 
L 262.176434 368.759011 
L 262.545808 368.827173 
L 262.915181 369.04042 
L 264.023301 369.15779 
L 264.392674 368.96664 
L 265.131421 368.974541 
L 265.500794 368.495818 
L 265.870168 368.724045 
L 266.239541 368.724046 
L 266.608914 368.957887 
L 266.978288 368.786361 
L 267.347661 368.753009 
L 267.717034 368.950038 
L 268.455781 368.865822 
L 268.825154 367.868191 
L 269.194528 368.406737 
L 269.563901 368.137464 
L 269.933274 368.137465 
L 270.302648 365.080522 
L 270.672021 367.046409 
L 271.041395 368.063492 
L 271.410768 361.770353 
L 271.780141 365.103337 
L 272.149515 367.117195 
L 272.518888 368.141961 
L 272.888261 368.48248 
L 273.257635 368.524279 
L 273.627008 368.705938 
L 273.996381 368.615111 
L 274.365755 368.387546 
L 274.735128 368.51498 
L 275.473875 368.080974 
L 275.104501 368.619417 
L 275.843248 368.840255 
L 276.212621 368.52786 
L 276.581995 368.63457 
L 276.951368 360.997506 
L 275.473875 363.697696 
L 277.320741 366.491647 
L 277.690115 367.50298 
L 278.059488 367.898618 
L 278.428861 367.520319 
L 279.167608 368.286376 
L 279.536981 368.110085 
L 279.906355 368.624018 
L 280.275728 368.780063 
L 280.645102 367.95787 
L 281.014475 368.473366 
L 281.383848 368.692099 
L 282.122595 368.650608 
L 282.861342 369.109027 
L 283.230715 368.874596 
L 283.600088 368.872589 
L 283.969462 368.53244 
L 285.446955 368.762477 
L 285.816328 368.704643 
L 286.185702 368.763821 
L 286.555075 368.485445 
L 286.924448 368.59504 
L 287.293822 368.540242 
L 287.663195 368.897508 
L 288.032568 369.079518 
L 288.771315 368.99883 
L 289.140688 369.029013 
L 289.510062 368.789884 
L 289.879435 367.456793 
L 290.248808 368.064624 
L 290.618182 367.845882 
L 291.356929 368.164624 
L 291.726302 366.679795 
L 292.465049 367.930889 
L 293.203795 368.021427 
L 293.573169 367.724535 
L 293.942542 367.832608 
L 294.311915 367.530427 
L 295.050662 368.135607 
L 295.420035 368.0949 
L 295.789409 367.770508 
L 296.158782 367.953058 
L 296.528155 367.768175 
L 296.897529 367.860617 
L 297.266902 367.814981 
L 296.528155 367.792745 
L 297.636275 367.789837 
L 298.375022 368.546882 
L 298.744395 368.689863 
L 299.113769 368.564716 
L 299.852515 368.702933 
L 301.699382 369.02994 
L 302.068756 368.45227 
L 303.546249 368.970563 
L 303.915622 368.575265 
L 304.284996 368.784939 
L 305.023742 368.836664 
L 307.239982 368.837087 
L 307.609356 359.427819 
L 307.978729 364.198815 
L 308.348102 366.513742 
L 308.717476 367.488118 
L 309.456222 367.615052 
L 308.717476 367.187814 
L 309.825596 367.504964 
L 310.194969 367.463981 
L 310.564342 367.638736 
L 310.933716 368.207508 
L 311.303089 368.27511 
L 311.672462 368.718195 
L 312.411209 368.633861 
L 313.149956 368.670995 
L 313.888703 368.716845 
L 314.258076 368.518376 
L 314.996823 368.676156 
L 315.735569 368.702453 
L 316.104943 368.259421 
L 316.474316 368.681047 
L 316.843689 368.55376 
L 318.321183 368.784384 
L 318.690556 369.014243 
L 322.014916 369.047961 
L 322.384289 368.428415 
L 323.123036 368.828349 
L 323.861783 368.799501 
L 328.294263 368.740584 
L 328.663636 368.942972 
L 329.03301 368.942975 
L 329.771756 368.784276 
L 329.771756 368.767691 
L 332.726743 368.800582 
L 334.57361 368.707879 
L 336.420477 369.036113 
L 338.267343 368.887352 
L 338.636717 368.513276 
L 339.00609 368.702498 
L 340.11421 368.28238 
L 340.483583 368.434066 
L 340.852957 368.358224 
L 341.22233 368.632229 
L 341.591703 368.533148 
L 341.961077 246.261318 
L 342.33045 307.446773 
L 342.699823 338.087728 
L 343.069197 353.472937 
L 343.43857 361.152718 
L 343.807944 364.604467 
L 344.177317 366.0987 
L 344.54669 366.813683 
L 344.916064 367.951984 
L 345.285437 368.306341 
L 345.65481 368.321944 
L 346.393557 368.778826 
L 347.132304 369.032223 
L 348.240424 369.02299 
L 349.348544 369.034053 
L 349.717917 368.733997 
L 350.08729 368.886333 
L 350.826037 368.985067 
L 351.564784 368.726105 
L 352.30353 368.75912 
L 352.672904 368.771682 
L 353.042277 368.938419 
L 354.519771 368.864561 
L 354.889144 368.244534 
L 355.258517 368.660882 
L 355.627891 368.744072 
L 355.997264 368.598822 
L 356.366637 367.361262 
L 355.997264 367.992772 
L 356.736011 368.268507 
L 357.474757 368.806503 
L 357.844131 368.806442 
L 358.213504 368.580257 
L 358.582877 368.548252 
L 358.952251 368.863026 
L 359.321624 369.030276 
L 359.690997 368.426279 
L 360.060371 368.728882 
L 360.799117 368.696547 
L 361.537864 369.036339 
L 362.276611 369.16508 
L 362.645984 369.127455 
L 362.276611 369.14919 
L 363.015357 368.753391 
L 363.384731 368.841111 
L 364.123477 368.717637 
L 364.492851 368.883515 
L 364.862224 368.915461 
L 365.600971 368.752376 
L 365.970344 368.858409 
L 366.709091 368.772299 
L 367.078464 368.997625 
L 367.447838 368.984191 
L 367.817211 369.109757 
L 368.555958 368.055826 
L 369.294704 368.425325 
L 369.664078 368.30711 
L 370.033451 368.393304 
L 370.402824 367.24672 
L 370.772198 367.497589 
L 371.141571 368.272988 
L 371.510944 368.333289 
L 371.880318 368.152033 
L 372.619064 368.402775 
L 372.988438 368.620542 
L 373.357811 368.29566 
L 373.727184 368.512171 
L 374.096558 368.403916 
L 374.465931 368.482338 
L 375.204678 368.912543 
L 375.574051 368.627628 
L 375.943425 368.744596 
L 376.312798 368.466746 
L 377.051545 368.704256 
L 377.420918 368.771283 
L 377.051545 368.677906 
L 377.790291 368.3291 
L 378.529038 368.569769 
L 378.898411 368.41836 
L 379.267785 368.497591 
L 379.637158 368.276903 
L 380.006531 368.683644 
L 380.375905 368.672496 
L 380.745278 367.398144 
L 381.114651 367.95837 
L 381.484025 368.259565 
L 381.853398 368.328254 
L 382.222771 368.149516 
L 382.592145 368.651039 
L 382.961518 368.37776 
L 383.330891 368.692943 
L 383.700265 365.394392 
L 384.069638 367.111531 
L 384.808385 368.539255 
L 385.177758 367.884132 
L 386.285878 368.487712 
L 386.655252 367.580815 
L 386.285878 367.261685 
L 387.024625 367.72529 
L 387.393998 368.281969 
L 387.763372 368.617607 
L 388.132745 368.334527 
L 388.502118 368.209815 
L 388.871492 368.397588 
L 389.240865 368.392271 
L 389.610238 368.589266 
L 389.979612 368.927428 
L 390.348985 368.753391 
L 391.826478 368.732992 
L 392.195852 368.351885 
L 393.303972 368.801682 
L 393.673345 368.687102 
L 394.042718 368.89809 
L 394.781465 368.762608 
L 396.997705 368.667482 
L 397.367079 368.881673 
L 398.475199 368.541266 
L 398.844572 368.765927 
L 399.583319 368.460299 
L 400.691439 368.942454 
L 401.060812 358.405962 
L 401.430185 366.000978 
L 401.799559 367.280869 
L 402.168932 367.809208 
L 402.907679 367.932501 
L 403.646425 368.51415 
L 405.123919 368.502027 
L 405.493292 368.810762 
L 405.862665 368.84749 
L 406.232039 369.055353 
L 406.601412 369.088995 
L 406.970786 368.410399 
L 407.340159 368.738699 
L 407.709532 368.43895 
L 408.078906 368.424637 
L 408.448279 368.626653 
L 408.817652 368.292674 
L 409.187026 368.358651 
L 409.556399 368.163514 
L 409.925772 368.54784 
L 410.295146 368.497192 
L 410.664519 367.310492 
L 411.033892 368.311121 
L 411.403266 368.574715 
L 412.142012 368.251888 
L 412.511386 368.736 
L 413.250132 366.982443 
L 413.619506 367.585669 
L 414.358252 361.31022 
L 414.727626 365.066609 
L 415.096999 367.14253 
L 415.835746 367.961179 
L 415.466372 367.682684 
L 416.574492 367.952974 
L 416.943866 367.991875 
L 417.313239 368.49595 
L 417.682613 368.696528 
L 418.790733 368.77954 
L 419.160106 368.994978 
L 419.529479 368.668845 
L 419.898853 368.589689 
L 420.268226 368.914476 
L 420.637599 368.775005 
L 421.006973 368.286721 
L 421.745719 368.64178 
L 421.376346 100.366056 
L 422.484466 300.361096 
L 422.853839 333.882643 
L 423.223213 350.377775 
L 423.592586 359.50464 
L 423.223213 359.853449 
L 424.331333 365.636782 
L 425.070079 367.080543 
L 425.808826 366.443292 
L 426.178199 366.336308 
L 426.916946 366.659543 
L 427.28632 367.907321 
L 427.655693 367.392987 
L 428.025066 368.223994 
L 428.39444 365.210332 
L 428.763813 366.516307 
L 429.133186 367.352601 
L 429.50256 367.651973 
L 429.871933 367.144795 
L 430.241306 367.576437 
L 431.349426 367.882666 
L 432.088173 367.527358 
L 432.457546 368.030952 
L 432.82692 368.109924 
L 433.196293 367.391921 
L 433.93504 368.311733 
L 434.304413 368.311733 
L 434.673786 368.451504 
L 435.04316 368.835857 
L 435.412533 368.435312 
L 436.15128 368.362661 
L 436.520653 368.748515 
L 437.2594 368.749022 
L 437.628773 368.16274 
L 437.998147 368.336785 
L 438.36752 368.249765 
L 438.736893 367.59616 
L 439.47564 367.817768 
L 439.845013 368.49702 
L 440.214387 368.126867 
L 440.58376 364.116196 
L 440.953133 365.694314 
L 441.322507 367.837595 
L 442.430627 367.558408 
L 443.169373 367.769752 
L 443.538747 367.663671 
L 443.90812 368.373823 
L 444.277493 368.080193 
L 444.646867 368.317278 
L 445.01624 368.329995 
L 445.385613 363.472433 
L 445.01624 365.864361 
L 445.754987 367.005459 
L 446.12436 368.041179 
L 446.493733 368.024629 
L 446.863107 367.873983 
L 447.23248 368.083565 
L 447.601853 367.903451 
L 447.971227 368.528326 
L 448.3406 368.337441 
L 448.709974 368.43389 
L 449.079347 368.647109 
L 449.44872 368.216672 
L 449.818094 368.092525 
L 450.187467 368.217618 
L 450.55684 367.881393 
L 450.926214 368.508022 
L 449.818094 359.263287 
L 451.295587 363.726091 
L 451.66496 366.036958 
L 452.77308 367.500931 
L 453.511827 367.871989 
L 453.8812 367.951191 
L 454.619947 368.69235 
L 454.98932 368.519002 
L 456.09744 368.353949 
L 456.466814 367.648251 
L 456.836187 368.21416 
L 457.944307 368.10229 
L 458.31368 359.06042 
L 458.683054 363.588504 
L 459.421801 367.995158 
L 459.791174 367.987726 
L 460.160547 368.165219 
L 460.899294 368.019951 
L 461.268667 368.290355 
L 461.638041 368.269516 
L 462.007414 368.120146 
L 462.376787 368.204613 
L 462.746161 368.64704 
L 463.484907 368.010842 
L 463.854281 368.285801 
L 464.962401 368.047432 
L 465.331774 368.573949 
L 465.701147 367.650271 
L 466.070521 367.466733 
L 466.809267 367.968729 
L 467.178641 367.046216 
L 467.548014 367.598209 
L 468.286761 367.986694 
L 468.656134 367.792453 
L 469.025508 362.606695 
L 469.394881 365.005442 
L 469.764254 359.960668 
L 470.133628 361.512402 
L 470.503001 365.211149 
L 471.241748 367.620921 
L 471.611121 367.512555 
L 471.980494 368.079184 
L 472.349868 368.182457 
L 472.719241 368.431031 
L 473.088614 368.220927 
L 473.457988 368.766421 
L 474.196734 368.571547 
L 474.935481 368.177072 
L 474.196734 368.174345 
L 475.674228 368.446313 
L 476.412974 367.523051 
L 476.782348 367.935438 
L 477.151721 367.652909 
L 477.521094 367.816602 
L 477.890468 367.842227 
L 478.259841 368.199901 
L 478.629214 368.021022 
L 478.998588 368.110511 
L 479.367961 368.065888 
L 479.737335 367.852069 
L 480.106708 368.176156 
L 480.476081 368.302673 
L 480.845455 368.582674 
L 481.214828 368.364073 
L 481.584201 368.541018 
L 481.953575 368.324663 
L 482.322948 368.442711 
L 482.692321 368.781693 
L 483.061695 368.329919 
L 483.800441 368.631884 
L 484.169815 368.531213 
L 484.539188 368.686815 
L 486.386055 368.38887 
L 486.755428 368.429336 
L 487.124801 368.033793 
L 487.494175 365.904302 
L 487.863548 366.969049 
L 488.602295 367.938879 
L 488.971668 368.430816 
L 489.341041 368.516827 
L 489.710415 368.34349 
L 489.341041 368.18474 
L 490.079788 368.238814 
L 490.449162 368.441838 
L 490.818535 368.315367 
L 491.557282 368.438063 
L 490.818535 368.056169 
L 491.926655 323.535972 
L 492.296028 345.404878 
L 493.034775 365.802481 
L 493.404148 367.474774 
L 494.142895 367.912185 
L 494.512268 368.441105 
L 494.881642 368.497735 
L 494.142895 368.239015 
L 494.881642 368.213955 
L 495.251015 368.613125 
L 495.620388 368.485836 
L 495.989762 368.68031 
L 496.359135 368.434602 
L 496.728508 366.913298 
L 497.097882 367.675651 
L 497.467255 367.872202 
L 497.836628 368.312945 
L 498.206002 368.093142 
L 498.575375 368.378732 
L 498.944748 366.77079 
L 499.314122 367.80455 
L 499.683495 367.389234 
L 500.052868 367.491083 
L 500.422242 368.460148 
L 500.791615 368.802755 
L 502.269109 368.237704 
L 502.638482 368.67919 
L 503.007855 368.458447 
L 503.377229 368.387012 
L 504.115975 368.416228 
L 504.854722 368.365575 
L 505.224095 368.383405 
L 505.593469 367.253554 
L 505.962842 367.08152 
L 506.332215 367.739474 
L 506.701589 367.571831 
L 507.070962 368.048927 
L 508.179082 367.997915 
L 509.287202 368.406824 
L 510.025949 368.38161 
L 510.395322 368.692726 
L 510.764695 368.56723 
L 511.134069 368.307611 
L 511.503442 368.714143 
L 511.872816 368.717829 
L 512.242189 368.917223 
L 512.611562 368.810275 
L 514.458429 368.785045 
L 514.827802 368.563878 
L 515.197176 368.552985 
L 515.566549 368.682983 
L 516.674669 368.455541 
L 517.413416 369.0521 
L 517.782789 368.620498 
L 517.413416 368.444932 
L 518.152162 368.297566 
L 518.521536 368.78713 
L 518.890909 368.413121 
L 519.260282 368.301008 
L 519.629656 368.355808 
L 519.999029 368.016143 
L 520.368402 368.179427 
L 520.737776 368.095906 
L 521.107149 368.325936 
L 521.476523 368.302525 
L 521.845896 368.050481 
L 522.215269 363.821103 
L 522.584643 365.341221 
L 522.954016 365.450026 
L 523.323389 367.28535 
L 523.692763 367.737123 
L 524.431509 367.505267 
L 524.800883 368.214543 
L 525.170256 368.632573 
L 525.539629 368.775746 
L 525.909003 368.39642 
L 526.278376 368.580192 
L 526.647749 368.298643 
L 527.017123 368.53718 
L 527.386496 368.466793 
L 527.755869 367.52404 
L 528.125243 368.0424 
L 527.755869 368.30158 
L 529.602736 368.383291 
L 529.972109 368.768247 
L 530.341483 368.768247 
L 530.710856 368.613018 
L 531.080229 368.824424 
L 531.449603 368.520783 
L 531.080229 368.509724 
L 532.557723 368.687483 
L 533.665843 368.339668 
L 534.773963 368.857439 
L 535.143336 368.823072 
L 535.51271 368.565123 
L 535.882083 367.817944 
L 536.62083 368.483546 
L 536.990203 368.234519 
L 537.359576 368.323213 
L 537.72895 366.896152 
L 538.098323 367.600727 
L 538.467696 367.654776 
L 537.359576 366.900248 
L 538.83707 366.626704 
L 539.206443 366.386212 
L 539.575816 367.473486 
L 540.683936 368.112463 
L 540.314563 368.460471 
L 541.422683 368.399093 
L 541.792056 367.916087 
L 542.530803 368.555111 
L 542.900177 368.691187 
L 543.26955 368.209208 
L 543.638923 368.534768 
L 544.008297 368.328718 
L 544.37767 366.357132 
L 545.116417 368.274124 
L 545.855163 368.238076 
L 546.224537 367.225139 
L 546.963283 367.845748 
L 547.332657 366.173339 
L 547.70203 367.531989 
L 548.071403 367.93735 
L 548.440777 367.954064 
L 548.81015 368.22002 
L 549.179523 368.278783 
L 549.548897 367.752518 
L 551.02639 368.323606 
L 551.765137 368.918918 
L 552.503883 368.149527 
L 552.873257 368.54328 
L 553.24263 368.468792 
L 553.981377 368.686134 
L 554.35075 366.832483 
L 554.720124 366.882346 
L 555.089497 367.612529 
L 555.45887 367.977621 
L 555.828244 368.656198 
L 556.197617 368.499604 
L 556.56699 368.61513 
L 556.936364 368.478921 
L 557.305737 368.065882 
L 557.67511 368.52781 
L 558.413857 368.435261 
L 558.78323 368.172527 
L 559.521977 368.306201 
L 561.368844 368.312736 
L 562.10759 368.324792 
L 562.476964 368.607549 
L 562.846337 368.466171 
L 563.215711 368.87682 
L 563.585084 367.61499 
L 564.323831 368.373315 
L 564.693204 368.956453 
L 565.062577 368.583764 
L 565.431951 368.515863 
L 565.801324 367.940659 
L 566.170697 367.653057 
L 566.540071 368.482486 
L 566.909444 368.226631 
L 567.278817 368.260444 
L 567.648191 368.072601 
L 568.017564 368.316681 
L 569.125684 367.968117 
L 569.495057 368.076332 
L 570.233804 368.023555 
L 570.603177 368.430932 
L 569.495057 368.217439 
L 570.972551 368.094108 
L 572.080671 367.603547 
L 572.450044 367.913606 
L 573.188791 367.542478 
L 573.558164 368.124994 
L 573.927538 368.066537 
L 574.296911 368.593606 
L 574.666284 368.311999 
L 575.774404 367.98779 
L 576.143778 368.291018 
L 576.513151 368.181008 
L 577.621271 368.336589 
L 577.990644 368.769766 
L 577.621271 368.421126 
L 578.360018 368.72636 
L 578.729391 368.652098 
L 579.098764 368.420497 
L 579.468138 368.741801 
L 580.206884 368.409893 
L 580.576258 368.445697 
L 580.945631 368.365689 
L 581.315004 367.865572 
L 581.684378 367.617976 
L 582.053751 365.95483 
L 582.423124 325.993518 
L 582.792498 345.545049 
L 583.161871 356.94388 
L 583.531244 359.421033 
L 583.900618 364.10608 
L 584.639365 366.891371 
L 585.378111 367.926416 
L 585.747485 367.925863 
L 586.486231 368.43917 
L 586.855605 368.792265 
L 587.224978 368.567489 
L 587.594351 368.031118 
L 587.963725 368.090056 
L 588.333098 367.833675 
L 588.702471 367.961863 
L 589.071845 368.325046 
L 589.441218 368.143455 
L 589.810591 368.698561 
L 590.918711 368.714749 
L 591.288085 368.714749 
L 591.657458 368.978251 
L 592.026831 368.777501 
L 592.396205 365.534214 
L 592.765578 99.577778 
L 593.134951 234.053988 
L 593.504325 301.315532 
L 593.873698 334.958225 
L 594.243071 351.67082 
L 594.612445 359.518137 
L 594.981818 363.976039 
L 595.351192 366.62994 
L 595.720565 367.838401 
L 596.089938 367.9547 
L 596.459312 368.388849 
L 596.828685 368.533652 
L 597.198058 368.902893 
L 597.567432 368.991667 
L 597.936805 368.881777 
L 597.567432 368.585893 
L 599.783672 368.722469 
L 600.891792 368.663193 
L 601.630538 368.65905 
L 601.999912 368.866387 
L 602.369285 368.76061 
L 602.738658 368.952985 
L 603.846778 368.906956 
L 604.216152 368.547926 
L 605.324272 368.876803 
L 605.693645 368.240149 
L 606.063019 368.896443 
L 606.432392 368.463484 
L 607.171139 368.417277 
L 608.648632 368.492023 
L 609.018005 368.844112 
L 609.387379 368.516503 
L 609.756752 368.502339 
L 610.126125 368.836356 
L 610.864872 368.835288 
L 611.234245 369.048868 
L 611.603619 368.887409 
L 612.711739 368.898938 
L 613.081112 367.815978 
L 613.450485 367.549586 
L 613.819859 368.22378 
L 614.189232 368.167778 
L 614.558605 368.58495 
L 614.927979 368.572855 
L 615.297352 368.883854 
L 615.666726 368.49441 
L 616.405472 369.048358 
L 616.774846 368.732515 
L 617.513592 368.930277 
L 617.882966 368.559586 
L 618.252339 362.512688 
L 618.621712 365.447989 
L 618.991086 361.456015 
L 619.360459 364.944978 
L 619.729832 366.874725 
L 620.099206 367.744393 
L 620.468579 368.291351 
L 621.207326 368.440808 
L 622.684819 368.944309 
L 623.054192 368.920145 
L 623.423566 368.782504 
L 625.270432 369.117582 
L 627.856046 369.226172 
L 628.225419 368.843599 
L 628.594793 369.060146 
L 628.964166 369.144357 
L 629.333539 355.745378 
L 629.702913 362.269453 
L 630.072286 365.681609 
L 630.441659 366.72143 
L 631.919153 368.929925 
L 632.657899 369.085118 
L 634.135393 369.163733 
L 634.504766 369.259909 
L 635.243513 369.226313 
L 635.612886 368.739811 
L 636.351633 369.086569 
L 637.09038 369.103794 
L 637.459753 369.092457 
L 637.829126 368.925357 
L 638.1985 368.376725 
L 638.567873 368.852183 
L 638.937246 369.082049 
L 640.41474 369.237707 
L 643.369726 369.273277 
L 643.7391 369.066568 
L 644.477846 369.213896 
L 644.84722 369.081331 
L 645.585966 369.112843 
L 645.95534 368.558185 
L 647.802207 369.180847 
L 648.17158 368.79355 
L 648.540953 368.81593 
L 648.910327 368.998389 
L 650.757193 368.834256 
L 651.49594 369.099699 
L 651.865313 368.530797 
L 652.60406 368.273945 
L 652.973433 368.402372 
L 653.71218 368.370493 
L 654.081553 368.761848 
L 654.450927 368.975009 
L 654.8203 368.851845 
L 655.189673 368.935863 
L 655.559047 369.155617 
L 656.297793 369.217897 
L 656.667167 369.286991 
L 657.03654 369.16498 
L 657.405914 369.223837 
L 657.775287 369.00904 
L 658.514034 369.075484 
L 658.883407 369.076473 
L 659.25278 368.935358 
L 659.991527 369.094114 
L 660.3609 368.532446 
L 660.730274 368.814155 
L 661.099647 368.937749 
L 661.838394 368.931317 
L 662.207767 368.750742 
L 662.57714 368.906042 
L 662.946514 368.828392 
L 663.68526 368.807548 
L 664.424007 368.779918 
L 664.79338 368.556943 
L 665.162754 368.673991 
L 665.532127 368.608337 
L 665.9015 368.808582 
L 666.270874 368.692448 
L 666.640247 368.750518 
L 667.378994 369.132771 
L 668.117741 369.097648 
L 669.225861 369.143226 
L 671.442101 369.108489 
L 672.180847 368.498359 
L 672.550221 368.590128 
L 672.919594 368.81253 
L 673.288967 368.70133 
L 673.658341 368.76982 
L 674.397087 369.102133 
L 674.766461 369.030277 
L 675.505207 369.23918 
L 677.352074 369.271438 
L 677.721447 368.938549 
L 678.460194 369.181889 
L 679.198941 369.158569 
L 679.937688 368.828158 
L 681.045808 368.841111 
L 681.784554 366.569904 
L 682.153928 367.923489 
L 682.523301 368.147479 
L 682.892674 367.596551 
L 683.262048 367.972188 
L 683.631421 368.168547 
L 684.000794 368.180419 
L 684.370168 367.688592 
L 684.739541 368.463377 
L 685.108914 368.549781 
L 685.478288 368.816045 
L 685.847661 368.749482 
L 686.217034 368.868323 
L 686.586408 368.867339 
L 687.325154 369.138446 
L 688.063901 369.065498 
L 690.280141 369.157683 
L 690.649515 368.904576 
L 691.018888 369.038047 
L 691.388261 368.971311 
L 691.757635 369.147297 
L 692.496381 368.740836 
L 692.865755 368.967384 
L 693.235128 368.814041 
L 693.973875 368.855361 
L 694.343248 368.814698 
L 694.712621 369.023725 
L 695.451368 369.124455 
L 695.820741 368.311139 
L 696.190115 368.701507 
L 696.928861 368.751263 
L 697.667608 368.856726 
L 698.406355 368.275854 
L 699.145102 368.908566 
L 699.514475 368.786249 
L 699.883848 368.966658 
L 700.622595 368.894828 
L 700.991968 368.616575 
L 701.361342 368.547809 
L 701.730715 368.671026 
L 702.100088 369.003998 
L 702.838835 368.937233 
L 703.577582 369.002825 
L 703.946955 369.014208 
L 704.316328 368.701753 
L 704.685702 368.803788 
L 705.055075 368.506382 
L 706.163195 368.874605 
L 706.532568 368.938347 
L 706.901942 368.831856 
L 707.271315 368.98692 
L 707.640688 368.858366 
L 708.379435 369.022596 
L 709.487555 368.880249 
L 709.856929 369.071258 
L 710.226302 367.794414 
L 710.595675 367.710322 
L 711.703795 368.912616 
L 712.073169 368.07043 
L 712.442542 368.451503 
L 713.181289 368.478819 
L 713.550662 368.834598 
L 713.920035 368.690919 
L 714.289409 368.856641 
L 715.028155 368.773782 
L 716.136275 368.813012 
L 716.505649 368.789355 
L 716.875022 367.456573 
L 717.244395 368.3939 
L 717.613769 368.485107 
L 717.983142 368.908304 
L 718.352515 368.864667 
L 718.721889 368.117523 
L 719.460635 368.691729 
L 720.199382 369.002965 
L 720.568756 368.95792 
L 721.307502 368.643875 
L 721.676876 368.922121 
L 722.046249 368.632416 
L 723.154369 368.819425 
L 723.893116 368.819425 
L 724.262489 368.986352 
L 724.631862 368.868456 
L 725.001236 368.579233 
L 725.370609 368.770732 
L 725.739982 368.674986 
L 726.848102 369.109969 
L 727.217476 368.930175 
L 727.586849 369.088523 
L 728.694969 368.853218 
L 729.433716 369.155485 
L 730.911209 368.851559 
L 732.019329 368.871363 
L 732.388703 367.906958 
L 732.758076 368.057967 
L 733.496823 368.050629 
L 733.866196 368.600158 
L 734.604943 368.584679 
L 734.974316 368.635015 
L 735.343689 368.562903 
L 735.713063 368.92777 
L 736.082436 368.7467 
L 737.559929 368.702526 
L 737.929303 339.727536 
L 738.298676 354.241473 
L 738.668049 360.975149 
L 739.406796 363.963085 
L 739.776169 364.654736 
L 740.145543 366.058991 
L 740.514916 363.072466 
L 740.884289 320.726179 
L 741.253663 343.516889 
L 741.623036 355.59046 
L 741.99241 352.804505 
L 743.10053 365.385848 
L 744.20865 367.382458 
L 744.578023 367.023168 
L 744.947396 367.196774 
L 746.055516 368.534187 
L 746.42489 368.335277 
L 747.163636 368.411166 
L 747.163636 368.411166 
" style="fill:none;stroke:#ff7f0e;stroke-linecap:square;stroke-width:1.5;"/>
   </g>
   <g id="patch_3">
    <path d="M 108 384.48 
L 108 51.84 
" style="fill:none;stroke:#000000;stroke-linecap:square;stroke-linejoin:miter;stroke-width:0.8;"/>
   </g>
   <g id="patch_4">
    <path d="M 777.6 384.48 
L 777.6 51.84 
" style="fill:none;stroke:#000000;stroke-linecap:square;stroke-linejoin:miter;stroke-width:0.8;"/>
   </g>
   <g id="patch_5">
    <path d="M 108 384.48 
L 777.6 384.48 
" style="fill:none;stroke:#000000;stroke-linecap:square;stroke-linejoin:miter;stroke-width:0.8;"/>
   </g>
   <g id="patch_6">
    <path d="M 108 51.84 
L 777.6 51.84 
" style="fill:none;stroke:#000000;stroke-linecap:square;stroke-linejoin:miter;stroke-width:0.8;"/>
   </g>
  </g>
 </g>
 <defs>
  <clipPath id="p4e84b17ad4">
   <rect height="332.64" width="669.6" x="108" y="51.84"/>
  </clipPath>
 </defs>
</svg>
