<?xml version="1.0" encoding="utf-8" standalone="no"?>
<!DOCTYPE svg PUBLIC "-//W3C//DTD SVG 1.1//EN"
  "http://www.w3.org/Graphics/SVG/1.1/DTD/svg11.dtd">
<svg height="720pt" version="1.1" viewBox="0 0 1440 720" width="1440pt" xmlns="http://www.w3.org/2000/svg" xmlns:xlink="http://www.w3.org/1999/xlink">
 <metadata>
  <rdf:RDF xmlns:cc="http://creativecommons.org/ns#" xmlns:dc="http://purl.org/dc/elements/1.1/" xmlns:rdf="http://www.w3.org/1999/02/22-rdf-syntax-ns#">
   <cc:Work>
    <dc:type rdf:resource="http://purl.org/dc/dcmitype/StillImage"/>
    <dc:date>2022-01-06T21:34:55.879285</dc:date>
    <dc:format>image/svg+xml</dc:format>
    <dc:creator>
     <cc:Agent>
      <dc:title>Matplotlib v3.4.3, https://matplotlib.org/</dc:title>
     </cc:Agent>
    </dc:creator>
   </cc:Work>
  </rdf:RDF>
 </metadata>
 <defs>
  <style type="text/css">*{stroke-linecap:butt;stroke-linejoin:round;}</style>
 </defs>
 <g id="figure_1">
  <g id="patch_1">
   <path d="M 0 720 
L 1440 720 
L 1440 0 
L 0 0 
z
" style="fill:#ffffff;"/>
  </g>
  <g id="axes_1">
   <g id="patch_2">
    <path d="M 180 640.8 
L 1296 640.8 
L 1296 86.4 
L 180 86.4 
z
" style="fill:#ffffff;"/>
   </g>
   <g id="matplotlib.axis_1">
    <g id="xtick_1">
     <g id="line2d_1">
      <defs>
       <path d="M 0 0 
L 0 3.5 
" id="m04a777540a" style="stroke:#000000;stroke-width:0.8;"/>
      </defs>
      <g>
       <use style="stroke:#000000;stroke-width:0.8;" x="230.727273" xlink:href="#m04a777540a" y="640.8"/>
      </g>
     </g>
     <g id="text_1">
      <!-- 39000 -->
      <g transform="translate(214.821023 655.398438)scale(0.1 -0.1)">
       <defs>
        <path d="M 2597 2516 
Q 3050 2419 3304 2112 
Q 3559 1806 3559 1356 
Q 3559 666 3084 287 
Q 2609 -91 1734 -91 
Q 1441 -91 1130 -33 
Q 819 25 488 141 
L 488 750 
Q 750 597 1062 519 
Q 1375 441 1716 441 
Q 2309 441 2620 675 
Q 2931 909 2931 1356 
Q 2931 1769 2642 2001 
Q 2353 2234 1838 2234 
L 1294 2234 
L 1294 2753 
L 1863 2753 
Q 2328 2753 2575 2939 
Q 2822 3125 2822 3475 
Q 2822 3834 2567 4026 
Q 2313 4219 1838 4219 
Q 1578 4219 1281 4162 
Q 984 4106 628 3988 
L 628 4550 
Q 988 4650 1302 4700 
Q 1616 4750 1894 4750 
Q 2613 4750 3031 4423 
Q 3450 4097 3450 3541 
Q 3450 3153 3228 2886 
Q 3006 2619 2597 2516 
z
" id="DejaVuSans-33" transform="scale(0.015625)"/>
        <path d="M 703 97 
L 703 672 
Q 941 559 1184 500 
Q 1428 441 1663 441 
Q 2288 441 2617 861 
Q 2947 1281 2994 2138 
Q 2813 1869 2534 1725 
Q 2256 1581 1919 1581 
Q 1219 1581 811 2004 
Q 403 2428 403 3163 
Q 403 3881 828 4315 
Q 1253 4750 1959 4750 
Q 2769 4750 3195 4129 
Q 3622 3509 3622 2328 
Q 3622 1225 3098 567 
Q 2575 -91 1691 -91 
Q 1453 -91 1209 -44 
Q 966 3 703 97 
z
M 1959 2075 
Q 2384 2075 2632 2365 
Q 2881 2656 2881 3163 
Q 2881 3666 2632 3958 
Q 2384 4250 1959 4250 
Q 1534 4250 1286 3958 
Q 1038 3666 1038 3163 
Q 1038 2656 1286 2365 
Q 1534 2075 1959 2075 
z
" id="DejaVuSans-39" transform="scale(0.015625)"/>
        <path d="M 2034 4250 
Q 1547 4250 1301 3770 
Q 1056 3291 1056 2328 
Q 1056 1369 1301 889 
Q 1547 409 2034 409 
Q 2525 409 2770 889 
Q 3016 1369 3016 2328 
Q 3016 3291 2770 3770 
Q 2525 4250 2034 4250 
z
M 2034 4750 
Q 2819 4750 3233 4129 
Q 3647 3509 3647 2328 
Q 3647 1150 3233 529 
Q 2819 -91 2034 -91 
Q 1250 -91 836 529 
Q 422 1150 422 2328 
Q 422 3509 836 4129 
Q 1250 4750 2034 4750 
z
" id="DejaVuSans-30" transform="scale(0.015625)"/>
       </defs>
       <use xlink:href="#DejaVuSans-33"/>
       <use x="63.623047" xlink:href="#DejaVuSans-39"/>
       <use x="127.246094" xlink:href="#DejaVuSans-30"/>
       <use x="190.869141" xlink:href="#DejaVuSans-30"/>
       <use x="254.492188" xlink:href="#DejaVuSans-30"/>
      </g>
     </g>
    </g>
    <g id="xtick_2">
     <g id="line2d_2">
      <g>
       <use style="stroke:#000000;stroke-width:0.8;" x="384.632833" xlink:href="#m04a777540a" y="640.8"/>
      </g>
     </g>
     <g id="text_2">
      <!-- 39250 -->
      <g transform="translate(368.726583 655.398438)scale(0.1 -0.1)">
       <defs>
        <path d="M 1228 531 
L 3431 531 
L 3431 0 
L 469 0 
L 469 531 
Q 828 903 1448 1529 
Q 2069 2156 2228 2338 
Q 2531 2678 2651 2914 
Q 2772 3150 2772 3378 
Q 2772 3750 2511 3984 
Q 2250 4219 1831 4219 
Q 1534 4219 1204 4116 
Q 875 4013 500 3803 
L 500 4441 
Q 881 4594 1212 4672 
Q 1544 4750 1819 4750 
Q 2544 4750 2975 4387 
Q 3406 4025 3406 3419 
Q 3406 3131 3298 2873 
Q 3191 2616 2906 2266 
Q 2828 2175 2409 1742 
Q 1991 1309 1228 531 
z
" id="DejaVuSans-32" transform="scale(0.015625)"/>
        <path d="M 691 4666 
L 3169 4666 
L 3169 4134 
L 1269 4134 
L 1269 2991 
Q 1406 3038 1543 3061 
Q 1681 3084 1819 3084 
Q 2600 3084 3056 2656 
Q 3513 2228 3513 1497 
Q 3513 744 3044 326 
Q 2575 -91 1722 -91 
Q 1428 -91 1123 -41 
Q 819 9 494 109 
L 494 744 
Q 775 591 1075 516 
Q 1375 441 1709 441 
Q 2250 441 2565 725 
Q 2881 1009 2881 1497 
Q 2881 1984 2565 2268 
Q 2250 2553 1709 2553 
Q 1456 2553 1204 2497 
Q 953 2441 691 2322 
L 691 4666 
z
" id="DejaVuSans-35" transform="scale(0.015625)"/>
       </defs>
       <use xlink:href="#DejaVuSans-33"/>
       <use x="63.623047" xlink:href="#DejaVuSans-39"/>
       <use x="127.246094" xlink:href="#DejaVuSans-32"/>
       <use x="190.869141" xlink:href="#DejaVuSans-35"/>
       <use x="254.492188" xlink:href="#DejaVuSans-30"/>
      </g>
     </g>
    </g>
    <g id="xtick_3">
     <g id="line2d_3">
      <g>
       <use style="stroke:#000000;stroke-width:0.8;" x="538.538394" xlink:href="#m04a777540a" y="640.8"/>
      </g>
     </g>
     <g id="text_3">
      <!-- 39500 -->
      <g transform="translate(522.632144 655.398438)scale(0.1 -0.1)">
       <use xlink:href="#DejaVuSans-33"/>
       <use x="63.623047" xlink:href="#DejaVuSans-39"/>
       <use x="127.246094" xlink:href="#DejaVuSans-35"/>
       <use x="190.869141" xlink:href="#DejaVuSans-30"/>
       <use x="254.492188" xlink:href="#DejaVuSans-30"/>
      </g>
     </g>
    </g>
    <g id="xtick_4">
     <g id="line2d_4">
      <g>
       <use style="stroke:#000000;stroke-width:0.8;" x="692.443954" xlink:href="#m04a777540a" y="640.8"/>
      </g>
     </g>
     <g id="text_4">
      <!-- 39750 -->
      <g transform="translate(676.537704 655.398438)scale(0.1 -0.1)">
       <defs>
        <path d="M 525 4666 
L 3525 4666 
L 3525 4397 
L 1831 0 
L 1172 0 
L 2766 4134 
L 525 4134 
L 525 4666 
z
" id="DejaVuSans-37" transform="scale(0.015625)"/>
       </defs>
       <use xlink:href="#DejaVuSans-33"/>
       <use x="63.623047" xlink:href="#DejaVuSans-39"/>
       <use x="127.246094" xlink:href="#DejaVuSans-37"/>
       <use x="190.869141" xlink:href="#DejaVuSans-35"/>
       <use x="254.492188" xlink:href="#DejaVuSans-30"/>
      </g>
     </g>
    </g>
    <g id="xtick_5">
     <g id="line2d_5">
      <g>
       <use style="stroke:#000000;stroke-width:0.8;" x="846.349515" xlink:href="#m04a777540a" y="640.8"/>
      </g>
     </g>
     <g id="text_5">
      <!-- 40000 -->
      <g transform="translate(830.443265 655.398438)scale(0.1 -0.1)">
       <defs>
        <path d="M 2419 4116 
L 825 1625 
L 2419 1625 
L 2419 4116 
z
M 2253 4666 
L 3047 4666 
L 3047 1625 
L 3713 1625 
L 3713 1100 
L 3047 1100 
L 3047 0 
L 2419 0 
L 2419 1100 
L 313 1100 
L 313 1709 
L 2253 4666 
z
" id="DejaVuSans-34" transform="scale(0.015625)"/>
       </defs>
       <use xlink:href="#DejaVuSans-34"/>
       <use x="63.623047" xlink:href="#DejaVuSans-30"/>
       <use x="127.246094" xlink:href="#DejaVuSans-30"/>
       <use x="190.869141" xlink:href="#DejaVuSans-30"/>
       <use x="254.492188" xlink:href="#DejaVuSans-30"/>
      </g>
     </g>
    </g>
    <g id="xtick_6">
     <g id="line2d_6">
      <g>
       <use style="stroke:#000000;stroke-width:0.8;" x="1000.255075" xlink:href="#m04a777540a" y="640.8"/>
      </g>
     </g>
     <g id="text_6">
      <!-- 40250 -->
      <g transform="translate(984.348825 655.398438)scale(0.1 -0.1)">
       <use xlink:href="#DejaVuSans-34"/>
       <use x="63.623047" xlink:href="#DejaVuSans-30"/>
       <use x="127.246094" xlink:href="#DejaVuSans-32"/>
       <use x="190.869141" xlink:href="#DejaVuSans-35"/>
       <use x="254.492188" xlink:href="#DejaVuSans-30"/>
      </g>
     </g>
    </g>
    <g id="xtick_7">
     <g id="line2d_7">
      <g>
       <use style="stroke:#000000;stroke-width:0.8;" x="1154.160635" xlink:href="#m04a777540a" y="640.8"/>
      </g>
     </g>
     <g id="text_7">
      <!-- 40500 -->
      <g transform="translate(1138.254385 655.398438)scale(0.1 -0.1)">
       <use xlink:href="#DejaVuSans-34"/>
       <use x="63.623047" xlink:href="#DejaVuSans-30"/>
       <use x="127.246094" xlink:href="#DejaVuSans-35"/>
       <use x="190.869141" xlink:href="#DejaVuSans-30"/>
       <use x="254.492188" xlink:href="#DejaVuSans-30"/>
      </g>
     </g>
    </g>
   </g>
   <g id="matplotlib.axis_2">
    <g id="ytick_1">
     <g id="line2d_8">
      <defs>
       <path d="M 0 0 
L -3.5 0 
" id="m349c2677a9" style="stroke:#000000;stroke-width:0.8;"/>
      </defs>
      <g>
       <use style="stroke:#000000;stroke-width:0.8;" x="180" xlink:href="#m349c2677a9" y="615.616147"/>
      </g>
     </g>
     <g id="text_8">
      <!-- 0 -->
      <g transform="translate(166.6375 619.415366)scale(0.1 -0.1)">
       <use xlink:href="#DejaVuSans-30"/>
      </g>
     </g>
    </g>
    <g id="ytick_2">
     <g id="line2d_9">
      <g>
       <use style="stroke:#000000;stroke-width:0.8;" x="180" xlink:href="#m349c2677a9" y="513.740953"/>
      </g>
     </g>
     <g id="text_9">
      <!-- 2 -->
      <g transform="translate(166.6375 517.540172)scale(0.1 -0.1)">
       <use xlink:href="#DejaVuSans-32"/>
      </g>
     </g>
    </g>
    <g id="ytick_3">
     <g id="line2d_10">
      <g>
       <use style="stroke:#000000;stroke-width:0.8;" x="180" xlink:href="#m349c2677a9" y="411.865759"/>
      </g>
     </g>
     <g id="text_10">
      <!-- 4 -->
      <g transform="translate(166.6375 415.664978)scale(0.1 -0.1)">
       <use xlink:href="#DejaVuSans-34"/>
      </g>
     </g>
    </g>
    <g id="ytick_4">
     <g id="line2d_11">
      <g>
       <use style="stroke:#000000;stroke-width:0.8;" x="180" xlink:href="#m349c2677a9" y="309.990565"/>
      </g>
     </g>
     <g id="text_11">
      <!-- 6 -->
      <g transform="translate(166.6375 313.789784)scale(0.1 -0.1)">
       <defs>
        <path d="M 2113 2584 
Q 1688 2584 1439 2293 
Q 1191 2003 1191 1497 
Q 1191 994 1439 701 
Q 1688 409 2113 409 
Q 2538 409 2786 701 
Q 3034 994 3034 1497 
Q 3034 2003 2786 2293 
Q 2538 2584 2113 2584 
z
M 3366 4563 
L 3366 3988 
Q 3128 4100 2886 4159 
Q 2644 4219 2406 4219 
Q 1781 4219 1451 3797 
Q 1122 3375 1075 2522 
Q 1259 2794 1537 2939 
Q 1816 3084 2150 3084 
Q 2853 3084 3261 2657 
Q 3669 2231 3669 1497 
Q 3669 778 3244 343 
Q 2819 -91 2113 -91 
Q 1303 -91 875 529 
Q 447 1150 447 2328 
Q 447 3434 972 4092 
Q 1497 4750 2381 4750 
Q 2619 4750 2861 4703 
Q 3103 4656 3366 4563 
z
" id="DejaVuSans-36" transform="scale(0.015625)"/>
       </defs>
       <use xlink:href="#DejaVuSans-36"/>
      </g>
     </g>
    </g>
    <g id="ytick_5">
     <g id="line2d_12">
      <g>
       <use style="stroke:#000000;stroke-width:0.8;" x="180" xlink:href="#m349c2677a9" y="208.115371"/>
      </g>
     </g>
     <g id="text_12">
      <!-- 8 -->
      <g transform="translate(166.6375 211.91459)scale(0.1 -0.1)">
       <defs>
        <path d="M 2034 2216 
Q 1584 2216 1326 1975 
Q 1069 1734 1069 1313 
Q 1069 891 1326 650 
Q 1584 409 2034 409 
Q 2484 409 2743 651 
Q 3003 894 3003 1313 
Q 3003 1734 2745 1975 
Q 2488 2216 2034 2216 
z
M 1403 2484 
Q 997 2584 770 2862 
Q 544 3141 544 3541 
Q 544 4100 942 4425 
Q 1341 4750 2034 4750 
Q 2731 4750 3128 4425 
Q 3525 4100 3525 3541 
Q 3525 3141 3298 2862 
Q 3072 2584 2669 2484 
Q 3125 2378 3379 2068 
Q 3634 1759 3634 1313 
Q 3634 634 3220 271 
Q 2806 -91 2034 -91 
Q 1263 -91 848 271 
Q 434 634 434 1313 
Q 434 1759 690 2068 
Q 947 2378 1403 2484 
z
M 1172 3481 
Q 1172 3119 1398 2916 
Q 1625 2713 2034 2713 
Q 2441 2713 2670 2916 
Q 2900 3119 2900 3481 
Q 2900 3844 2670 4047 
Q 2441 4250 2034 4250 
Q 1625 4250 1398 4047 
Q 1172 3844 1172 3481 
z
" id="DejaVuSans-38" transform="scale(0.015625)"/>
       </defs>
       <use xlink:href="#DejaVuSans-38"/>
      </g>
     </g>
    </g>
    <g id="ytick_6">
     <g id="line2d_13">
      <g>
       <use style="stroke:#000000;stroke-width:0.8;" x="180" xlink:href="#m349c2677a9" y="106.240177"/>
      </g>
     </g>
     <g id="text_13">
      <!-- 10 -->
      <g transform="translate(160.275 110.039396)scale(0.1 -0.1)">
       <defs>
        <path d="M 794 531 
L 1825 531 
L 1825 4091 
L 703 3866 
L 703 4441 
L 1819 4666 
L 2450 4666 
L 2450 531 
L 3481 531 
L 3481 0 
L 794 0 
L 794 531 
z
" id="DejaVuSans-31" transform="scale(0.015625)"/>
       </defs>
       <use xlink:href="#DejaVuSans-31"/>
       <use x="63.623047" xlink:href="#DejaVuSans-30"/>
      </g>
     </g>
    </g>
   </g>
   <g id="line2d_14">
    <path clip-path="url(#pf1e655c60e)" d="M 230.727273 612.194855 
L 231.342895 612.028897 
L 230.727273 612.028897 
L 231.958517 612.028897 
L 232.574139 610.013572 
L 234.421006 610.013572 
L 235.036628 581.026407 
L 235.652251 579.118551 
L 235.036628 579.118551 
L 236.883495 579.118551 
L 237.499117 585.318414 
L 238.11474 605.470983 
L 238.730362 611.046239 
L 239.345984 611.046239 
L 240.577229 609.964887 
L 241.808473 609.964887 
L 242.424095 611.935352 
L 243.039718 614.434777 
L 243.65534 614.434777 
L 244.270962 614.701516 
L 244.886584 614.701516 
L 245.502207 614.072174 
L 246.117829 612.899324 
L 247.964695 612.899324 
L 248.580318 611.894853 
L 249.19594 613.551904 
L 249.811562 613.551904 
L 250.427184 614.048678 
L 251.042807 614.048678 
L 251.658429 614.636362 
L 252.889673 614.636362 
L 253.505296 613.888916 
L 254.120918 613.888916 
L 254.73654 613.639398 
L 255.352162 613.639398 
L 255.967785 614.338412 
L 256.583407 612.551049 
L 257.199029 614.39062 
L 258.430274 614.39062 
L 259.045896 612.470118 
L 259.661518 607.65032 
L 260.27714 612.470118 
L 260.892763 607.152465 
L 261.508385 606.824636 
L 262.124007 607.152465 
L 262.739629 607.152465 
L 263.355252 612.491561 
L 263.970874 612.491561 
L 264.586496 614.260992 
L 265.202118 608.581082 
L 265.817741 608.581082 
L 266.433363 612.06533 
L 268.280229 612.06533 
L 268.895852 608.49587 
L 270.127096 608.49587 
L 271.358341 612.444393 
L 272.589585 612.542438 
L 273.205207 613.00178 
L 273.82083 612.909042 
L 274.436452 612.351245 
L 275.052074 611.640189 
L 275.667696 611.424403 
L 276.283319 607.249349 
L 276.898941 605.402602 
L 277.514563 610.152323 
L 278.745808 599.99378 
L 279.36143 608.147852 
L 279.977052 608.147852 
L 280.592674 599.99378 
L 281.208297 597.286464 
L 281.823919 608.147852 
L 282.439541 597.286464 
L 283.055163 611.556272 
L 283.670786 611.556272 
L 284.286408 610.922751 
L 285.517652 610.922751 
L 286.133274 607.989822 
L 286.748897 610.922751 
L 287.364519 612.275005 
L 287.980141 611.767714 
L 291.058252 611.834091 
L 291.673875 610.939199 
L 293.520741 610.939199 
L 294.136364 610.369115 
L 295.367608 610.369115 
L 295.98323 610.193404 
L 296.598853 612.052141 
L 297.830097 612.052141 
L 298.445719 603.701177 
L 299.061342 597.614516 
L 299.676964 597.313086 
L 301.523831 597.313086 
L 302.139453 607.032275 
L 302.755075 611.376341 
L 303.370697 612.0969 
L 304.601942 612.188841 
L 305.217564 612.188841 
L 305.833186 607.13994 
L 306.448808 612.188841 
L 307.064431 612.626651 
L 307.680053 611.052174 
L 310.758164 611.123552 
L 311.373786 611.635203 
L 311.989409 612.00077 
L 312.605031 612.780782 
L 313.220653 613.045014 
L 313.836275 613.045014 
L 313.220653 613.045014 
L 314.451898 615.240635 
L 313.836275 615.240635 
L 315.06752 613.613448 
L 315.683142 613.613448 
L 316.298764 611.445067 
L 316.914387 611.445067 
L 317.530009 611.276639 
L 318.145631 615.131651 
L 318.761253 612.470214 
L 319.992498 612.470214 
L 319.376876 612.470214 
L 320.60812 611.247197 
L 322.454987 611.247197 
L 323.070609 610.438785 
L 323.686231 607.527339 
L 324.301853 603.919348 
L 324.917476 603.919348 
L 325.533098 607.527339 
L 326.14872 607.664205 
L 326.764342 608.42121 
L 327.379965 613.245139 
L 327.995587 613.347848 
L 328.611209 615.140486 
L 329.226831 615.140486 
L 329.842454 614.968191 
L 330.458076 609.500324 
L 332.304943 609.500324 
L 332.920565 609.729382 
L 333.536187 612.016767 
L 334.151809 612.450358 
L 334.767432 611.66173 
L 335.383054 611.66173 
L 335.998676 613.794509 
L 336.614298 613.958563 
L 337.845543 613.958563 
L 338.461165 614.414962 
L 339.076787 614.414962 
L 339.69241 615.141329 
L 340.308032 615.47313 
L 340.923654 615.47313 
L 341.539276 615.211851 
L 342.154898 615.141329 
L 342.770521 614.866387 
L 344.001765 614.866387 
L 343.386143 611.470092 
L 344.617387 611.470092 
L 345.23301 609.949895 
L 346.464254 609.949895 
L 347.079876 614.557502 
L 347.695499 614.557502 
L 348.311121 615.093374 
L 348.926743 615.093374 
L 349.542365 614.969374 
L 350.157988 613.057378 
L 350.77361 614.121956 
L 353.236099 614.121956 
L 353.851721 611.000549 
L 355.082966 606.190438 
L 355.698588 608.564547 
L 356.31421 604.112845 
L 356.929832 604.112845 
L 357.545455 611.689466 
L 358.161077 611.450229 
L 358.776699 611.450229 
L 358.161077 605.590954 
L 359.392321 605.590954 
L 360.007944 601.153205 
L 360.623566 601.153205 
L 361.239188 610.525084 
L 361.85481 611.47488 
L 362.470432 615.286492 
L 363.086055 611.47488 
L 363.701677 611.47488 
L 364.317299 613.838603 
L 364.932921 612.370558 
L 365.548544 606.983582 
L 366.164166 605.696499 
L 366.779788 611.088289 
L 367.39541 605.696499 
L 368.011033 605.696499 
L 368.626655 611.088289 
L 369.242277 611.843433 
L 369.857899 611.937479 
L 370.473522 612.691234 
L 371.089144 615.316349 
L 372.936011 615.378824 
L 373.551633 614.803174 
L 374.167255 613.682422 
L 374.782877 613.682422 
L 375.3985 613.075738 
L 376.014122 613.682422 
L 376.629744 615.232252 
L 377.245366 615.232252 
L 376.629744 615.232252 
L 378.476611 615.52469 
L 385.864078 615.539562 
L 386.4797 615.377329 
L 387.710944 615.377329 
L 388.326567 613.474982 
L 388.942189 613.474982 
L 389.557811 607.290113 
L 390.173433 611.868871 
L 390.789056 611.736349 
L 391.404678 611.736349 
L 392.0203 611.868871 
L 392.635922 611.868871 
L 393.251545 612.712537 
L 393.867167 610.438785 
L 394.482789 610.438785 
L 395.098411 612.712537 
L 395.714034 610.708057 
L 396.329656 613.887086 
L 396.945278 613.887086 
L 397.5609 610.708057 
L 398.176523 610.708057 
L 398.792145 610.438785 
L 399.407767 610.438785 
L 400.023389 610.766795 
L 398.792145 610.766795 
L 400.639011 603.537935 
L 401.870256 603.537935 
L 402.485878 597.730096 
L 403.1015 603.537935 
L 403.717123 597.730096 
L 404.948367 615.299558 
L 405.563989 615.299558 
L 406.179612 611.523696 
L 408.026478 611.514403 
L 408.642101 613.177919 
L 409.257723 613.177919 
L 409.873345 614.381409 
L 410.488967 614.669785 
L 411.10459 615.595064 
L 411.720212 614.994087 
L 412.951456 614.994087 
L 413.567079 608.89047 
L 414.182701 578.483473 
L 414.798323 608.89047 
L 415.413945 608.89047 
L 416.029568 542.667672 
L 416.64519 542.667672 
L 417.260812 605.78984 
L 417.876434 606.254165 
L 418.492056 615.408624 
L 419.107679 614.517512 
L 419.723301 615.430308 
L 420.338923 614.517512 
L 420.954545 615.49938 
L 421.570168 614.517512 
L 422.18579 615.49938 
L 422.801412 611.538141 
L 423.417034 615.021906 
L 424.648279 615.021906 
L 425.263901 612.153096 
L 425.879523 612.153096 
L 426.495146 603.665721 
L 427.110768 603.665721 
L 427.72639 612.153096 
L 428.342012 613.859556 
L 428.957635 615.075206 
L 429.573257 615.493007 
L 430.188879 615.370204 
L 431.420124 615.36881 
L 432.035746 615.190513 
L 433.26699 615.190513 
L 433.882613 615.449473 
L 434.498235 615.449473 
L 435.113857 614.336135 
L 435.729479 614.589931 
L 436.345102 584.22299 
L 436.960724 584.22299 
L 437.576346 607.26851 
L 438.191968 614.589931 
L 438.80759 615.597366 
L 440.038835 615.505588 
L 440.654457 614.859041 
L 441.270079 613.643336 
L 441.885702 611.976581 
L 442.501324 611.976581 
L 443.116946 598.041234 
L 443.732568 598.041234 
L 444.348191 609.748712 
L 444.963813 612.952132 
L 445.579435 614.587416 
L 446.195057 614.787714 
L 448.041924 614.787714 
L 448.657546 614.248749 
L 449.273169 614.248749 
L 449.888791 615.460415 
L 450.504413 614.248749 
L 451.120035 615.460415 
L 454.813769 615.364175 
L 455.429391 607.811891 
L 456.660635 607.811891 
L 457.276258 565.366212 
L 458.507502 565.366212 
L 459.123124 603.038578 
L 458.507502 605.132644 
L 459.738747 605.132644 
L 460.354369 603.038578 
L 460.969991 605.132644 
L 461.585613 605.132644 
L 459.123124 608.549469 
L 462.201236 611.530174 
L 464.048102 611.572069 
L 464.663725 610.140276 
L 465.279347 603.232512 
L 466.510591 603.232512 
L 467.126214 611.700499 
L 468.357458 614.291672 
L 468.97308 614.282308 
L 469.588703 611.650171 
L 472.051192 611.639013 
L 472.666814 609.208521 
L 473.282436 612.352109 
L 473.898058 613.983778 
L 474.51368 612.352109 
L 475.744925 612.352109 
L 476.360547 613.588021 
L 476.976169 608.519983 
L 477.591792 613.588021 
L 478.207414 608.519983 
L 478.823036 577.285833 
L 479.438658 577.285833 
L 480.054281 611.44467 
L 481.285525 611.44467 
L 481.901147 610.894386 
L 482.51677 602.800895 
L 483.132392 599.917408 
L 483.748014 593.540592 
L 484.363636 566.898494 
L 484.979259 556.399002 
L 485.594881 566.898494 
L 486.210503 602.800895 
L 486.826125 602.800895 
L 487.441748 591.243116 
L 488.05737 591.243116 
L 488.672992 596.946577 
L 489.288614 593.008775 
L 491.751103 593.008775 
L 492.366726 579.90128 
L 492.982348 608.140764 
L 493.59797 608.140764 
L 494.213592 609.58112 
L 494.829214 609.58112 
L 495.444837 601.934562 
L 494.213592 600.968491 
L 496.060459 585.400378 
L 497.291703 585.400378 
L 497.907326 590.231461 
L 498.522948 590.231461 
L 499.754192 604.286582 
L 500.985437 604.794694 
L 501.601059 606.167892 
L 502.216681 606.167892 
L 502.832304 608.224748 
L 503.447926 611.91599 
L 504.063548 611.91599 
L 504.67917 613.352421 
L 505.294793 611.91599 
L 505.910415 608.114795 
L 506.526037 605.502896 
L 507.141659 598.678761 
L 507.757282 598.678761 
L 507.141659 598.678761 
L 508.372904 597.952448 
L 508.988526 597.952448 
L 509.604148 599.074463 
L 511.451015 599.074463 
L 512.066637 589.369623 
L 513.297882 589.369623 
L 513.913504 611.081027 
L 514.529126 613.169784 
L 515.144748 613.552584 
L 515.760371 613.169784 
L 514.529126 613.490221 
L 516.375993 613.169784 
L 516.991615 610.560995 
L 517.607237 609.649528 
L 518.22286 609.649528 
L 518.838482 605.405439 
L 519.454104 605.405439 
L 520.069726 601.991163 
L 520.685349 605.405439 
L 521.300971 607.620779 
L 521.916593 607.620779 
L 522.532215 604.435299 
L 523.147838 605.561276 
L 523.76346 604.435299 
L 524.379082 605.561276 
L 524.994704 611.693144 
L 525.610327 612.386704 
L 527.457193 612.386704 
L 528.072816 600.485966 
L 529.30406 600.485966 
L 529.919682 585.071049 
L 530.535305 599.343073 
L 531.150927 610.278814 
L 531.766549 604.369866 
L 532.382171 604.369866 
L 532.997793 609.47571 
L 534.229038 609.47571 
L 534.84466 609.677123 
L 536.691527 609.677123 
L 537.307149 607.810835 
L 538.538394 586.00101 
L 539.769638 586.00101 
L 540.38526 588.436731 
L 541.000883 598.15599 
L 541.616505 605.683482 
L 542.232127 605.683482 
L 542.847749 608.879329 
L 543.463372 605.683482 
L 544.078994 607.575588 
L 544.694616 607.449369 
L 545.925861 607.449369 
L 546.541483 607.575588 
L 547.157105 607.449369 
L 547.772727 610.528347 
L 548.38835 610.528347 
L 549.003972 604.713373 
L 549.619594 590.533238 
L 550.235216 594.64837 
L 549.619594 594.64837 
L 550.850838 594.64837 
L 551.466461 610.116981 
L 552.082083 610.576786 
L 553.313327 610.576786 
L 553.92895 608.36972 
L 554.544572 607.384786 
L 555.160194 607.384786 
L 555.775816 608.283043 
L 556.391439 608.283043 
L 557.007061 611.679008 
L 557.622683 611.679008 
L 558.238305 611.418506 
L 558.853928 611.418506 
L 559.46955 609.316505 
L 560.700794 609.375033 
L 561.316417 610.326623 
L 561.932039 612.171279 
L 562.547661 612.588524 
L 563.163283 612.588524 
L 563.778906 612.708389 
L 564.394528 613.373478 
L 565.01015 613.373478 
L 565.625772 614.490213 
L 566.241395 614.490213 
L 566.857017 608.629091 
L 567.472639 607.390333 
L 568.088261 604.851335 
L 568.703883 607.390333 
L 569.319506 603.800148 
L 569.935128 614.652731 
L 570.55075 614.13485 
L 571.166372 599.590726 
L 571.781995 600.897865 
L 572.397617 598.458598 
L 573.013239 591.823586 
L 575.475728 591.823586 
L 576.09135 601.495187 
L 577.938217 601.495187 
L 578.553839 602.673119 
L 579.169462 605.103679 
L 579.785084 605.103679 
L 580.400706 609.981094 
L 581.016328 609.981094 
L 581.631951 613.364683 
L 582.247573 609.981094 
L 582.863195 609.981094 
L 583.478817 601.388945 
L 584.09444 601.388945 
L 584.710062 600.716333 
L 585.325684 601.388945 
L 585.941306 606.573802 
L 586.556929 606.573802 
L 587.172551 600.716333 
L 587.788173 599.75444 
L 589.019417 599.75444 
L 589.63504 602.520643 
L 590.866284 602.520643 
L 591.481906 608.877418 
L 592.097529 610.598083 
L 593.328773 610.598083 
L 593.944395 609.439194 
L 593.328773 608.885603 
L 594.560018 601.786088 
L 595.17564 599.491027 
L 595.791262 597.710798 
L 596.406884 597.710798 
L 597.022507 599.491027 
L 597.638129 600.569698 
L 598.253751 602.745357 
L 598.869373 602.745357 
L 599.484996 604.579945 
L 600.100618 605.86567 
L 600.71624 606.163551 
L 601.331862 606.163551 
L 601.947485 608.580615 
L 602.563107 608.810255 
L 603.794351 613.314397 
L 604.409974 613.314397 
L 603.794351 613.560546 
L 605.025596 613.560546 
L 605.641218 613.064986 
L 606.25684 603.676184 
L 606.872462 603.662264 
L 607.488085 603.051161 
L 608.103707 603.051161 
L 608.719329 602.141214 
L 609.334951 594.710031 
L 609.950574 601.978178 
L 610.566196 594.710031 
L 611.181818 594.710031 
L 611.79744 601.978178 
L 612.413063 603.169679 
L 613.028685 607.095188 
L 614.259929 607.095188 
L 614.875552 604.425728 
L 615.491174 602.719394 
L 617.338041 602.719394 
L 617.953663 604.126264 
L 620.416152 604.126264 
L 621.031774 603.177057 
L 621.647396 603.525351 
L 622.263019 603.525351 
L 622.878641 607.134515 
L 623.494263 603.525351 
L 624.109885 604.429501 
L 624.725508 610.439391 
L 625.34113 612.690546 
L 625.956752 604.429501 
L 626.572374 612.690546 
L 627.187996 613.848864 
L 628.419241 613.844461 
L 629.034863 608.880531 
L 628.419241 608.880531 
L 629.650485 606.348365 
L 630.266108 606.348365 
L 630.88173 588.555995 
L 632.112974 588.555995 
L 632.728597 594.236991 
L 633.344219 598.519793 
L 633.959841 600.070045 
L 634.575463 602.783922 
L 635.191086 610.191222 
L 635.806708 610.191222 
L 636.42233 602.783922 
L 637.037952 606.418881 
L 638.269197 606.418881 
L 638.884819 613.111368 
L 639.500441 613.393958 
L 641.347308 613.301837 
L 641.96293 606.086091 
L 642.578553 613.161567 
L 643.194175 613.161567 
L 643.809797 612.233042 
L 644.425419 612.233042 
L 643.809797 611.762268 
L 645.041041 610.517817 
L 645.656664 610.517817 
L 646.272286 610.311561 
L 646.887908 610.311561 
L 647.50353 600.377257 
L 648.119153 610.311561 
L 648.734775 612.38632 
L 650.581642 612.344699 
L 651.197264 608.747904 
L 651.812886 604.353606 
L 653.044131 604.353606 
L 653.659753 598.091201 
L 654.275375 598.091201 
L 654.890997 604.39019 
L 655.50662 604.564314 
L 656.122242 604.39019 
L 657.353486 604.39019 
L 657.969109 606.699317 
L 658.584731 603.460523 
L 659.200353 603.460523 
L 659.815975 602.087814 
L 660.431598 602.087814 
L 661.04722 595.469841 
L 661.662842 591.823586 
L 662.278464 591.315264 
L 663.509709 591.315264 
L 664.125331 598.509186 
L 664.740953 601.157269 
L 665.356575 602.253792 
L 665.972198 601.157269 
L 666.58782 602.253792 
L 667.203442 602.253792 
L 667.819064 607.363578 
L 668.434687 607.654028 
L 669.050309 611.57686 
L 669.665931 613.115108 
L 670.281553 613.115108 
L 670.897176 603.846541 
L 671.512798 598.499823 
L 672.12842 598.499823 
L 672.744042 603.267086 
L 672.12842 603.267086 
L 673.975287 603.267086 
L 674.590909 607.976009 
L 675.206531 602.701867 
L 675.822154 602.701867 
L 676.437776 604.86761 
L 677.053398 607.976009 
L 677.66902 608.227677 
L 678.284643 608.227677 
L 678.900265 604.86761 
L 679.515887 608.227677 
L 680.131509 603.225358 
L 683.20962 603.29742 
L 683.825243 599.348814 
L 685.056487 607.110248 
L 685.672109 598.607083 
L 686.287732 605.995356 
L 686.903354 599.488584 
L 687.518976 599.488584 
L 688.134598 607.874085 
L 688.750221 607.874085 
L 689.365843 610.182274 
L 689.981465 610.182274 
L 690.597087 601.289023 
L 691.21271 599.348631 
L 691.828332 601.289023 
L 692.443954 599.348631 
L 693.059576 599.348631 
L 692.443954 599.348631 
L 693.675199 585.891339 
L 694.290821 584.175259 
L 695.522065 584.175259 
L 696.137688 597.94397 
L 696.75331 603.262978 
L 697.368932 605.433037 
L 697.984554 610.755314 
L 698.600177 610.755314 
L 699.215799 608.961099 
L 699.831421 608.633566 
L 700.447043 608.961099 
L 701.678288 608.927902 
L 702.29391 599.939526 
L 702.909532 608.20717 
L 702.29391 608.20717 
L 703.525154 601.853032 
L 704.140777 601.853032 
L 704.756399 602.837442 
L 705.987643 602.837442 
L 705.372021 610.598042 
L 707.218888 610.598042 
L 707.83451 599.296014 
L 708.450132 599.296014 
L 709.065755 598.191422 
L 709.681377 599.296014 
L 710.296999 598.191422 
L 711.528244 598.191422 
L 712.143866 604.678458 
L 712.759488 538.538296 
L 713.37511 604.678458 
L 713.990733 604.678458 
L 714.606355 589.326228 
L 715.837599 589.326228 
L 716.453222 552.86789 
L 717.068844 576.348288 
L 718.300088 576.348288 
L 718.915711 600.583994 
L 719.531333 600.583994 
L 720.146955 605.401336 
L 720.762577 602.56536 
L 721.378199 600.583994 
L 721.993822 599.440629 
L 722.609444 599.440629 
L 723.225066 598.386514 
L 723.840688 589.803133 
L 724.456311 598.386514 
L 725.071933 599.402936 
L 725.687555 603.169679 
L 726.303177 613.362627 
L 727.534422 613.362627 
L 728.150044 614.389204 
L 728.765666 611.397195 
L 729.996911 611.397195 
L 730.612533 602.090804 
L 731.228155 600.282018 
L 731.843778 599.892708 
L 732.4594 599.245276 
L 733.075022 599.245276 
L 733.690644 599.892708 
L 734.306267 613.299391 
L 735.537511 613.346095 
L 736.153133 589.034537 
L 736.768756 589.034537 
L 737.384378 591.751288 
L 738.615622 591.751288 
L 739.231244 594.447609 
L 739.846867 594.447609 
L 740.462489 599.008519 
L 741.078111 594.447609 
L 741.693733 594.447609 
L 742.309356 599.008519 
L 741.693733 607.600744 
L 742.924978 593.446476 
L 743.5406 609.185791 
L 744.156222 609.185791 
L 744.771845 598.992212 
L 745.387467 586.192327 
L 746.003089 598.992212 
L 746.618711 598.992212 
L 747.234334 586.192327 
L 747.849956 590.168269 
L 748.465578 597.648174 
L 749.696823 597.648174 
L 750.312445 603.143763 
L 750.928067 603.143763 
L 751.543689 606.037901 
L 749.696823 606.037901 
L 752.159312 606.037901 
L 752.774934 594.874 
L 753.390556 611.161268 
L 754.006178 598.959783 
L 754.621801 594.874 
L 755.237423 598.959783 
L 756.468667 598.959783 
L 757.084289 592.869775 
L 757.699912 602.841422 
L 758.315534 603.747252 
L 758.931156 604.11343 
L 759.546778 615.005973 
L 760.162401 615.005973 
L 760.778023 615.589214 
L 761.393645 600.234891 
L 762.009267 600.234891 
L 762.62489 612.508339 
L 763.240512 600.234891 
L 763.856134 611.627927 
L 764.471756 611.627927 
L 765.087379 602.254106 
L 765.703001 603.172847 
L 766.318623 602.254106 
L 766.934245 602.254106 
L 767.549868 601.950151 
L 768.16549 601.449733 
L 768.781112 582.914278 
L 769.396734 601.449733 
L 770.012357 584.242018 
L 770.627979 584.242018 
L 771.243601 588.115763 
L 771.859223 602.002307 
L 772.474846 605.876601 
L 773.70609 605.876601 
L 774.321712 603.540966 
L 774.937335 572.740361 
L 775.552957 572.740361 
L 776.168579 603.540966 
L 776.784201 588.857616 
L 777.399823 604.445221 
L 778.015446 604.445221 
L 778.631068 598.165983 
L 780.477935 598.165983 
L 781.093557 597.648174 
L 781.709179 601.9187 
L 782.324801 602.061227 
L 782.940424 597.648174 
L 783.556046 603.114885 
L 784.171668 583.662549 
L 784.78729 584.242018 
L 785.402913 598.637587 
L 786.018535 584.242018 
L 786.634157 598.637587 
L 787.249779 598.637587 
L 787.865402 597.710467 
L 788.481024 588.981895 
L 789.096646 597.710467 
L 790.327891 597.710467 
L 790.943513 603.08888 
L 791.559135 603.169679 
L 790.327891 603.08888 
L 792.174757 601.962732 
L 792.79038 603.169679 
L 793.406002 607.451737 
L 794.021624 610.95268 
L 795.252868 610.95268 
L 795.868491 588.338161 
L 797.715357 588.338161 
L 798.33098 599.031208 
L 798.946602 599.031208 
L 799.562224 582.425565 
L 800.177846 582.425565 
L 800.793469 583.578016 
L 802.024713 583.578016 
L 802.640335 590.667936 
L 803.255958 590.667936 
L 803.87158 567.55895 
L 804.487202 590.667936 
L 805.102824 605.770543 
L 805.718447 605.770543 
L 806.334069 608.31279 
L 806.949691 592.425404 
L 807.565313 592.425404 
L 808.180936 602.079855 
L 809.41218 602.079855 
L 810.027802 613.032146 
L 810.643425 615.151959 
L 812.490291 615.151959 
L 813.105914 595.732643 
L 812.490291 595.732643 
L 813.721536 597.112427 
L 814.95278 597.112427 
L 815.568402 603.769991 
L 816.184025 602.248499 
L 815.568402 602.248499 
L 816.799647 602.248499 
L 817.415269 597.011289 
L 818.646514 597.011289 
L 819.262136 601.487236 
L 818.030891 603.697741 
L 819.877758 614.517206 
L 820.49338 611.658877 
L 821.109003 611.658877 
L 821.724625 600.840296 
L 822.340247 608.879024 
L 823.571492 608.879024 
L 824.187114 609.906628 
L 824.802736 608.879024 
L 823.571492 609.906628 
L 824.802736 599.34967 
L 825.418358 603.28375 
L 826.033981 599.34967 
L 826.649603 603.28375 
L 827.265225 598.285629 
L 827.880847 601.369334 
L 828.49647 598.285629 
L 829.727714 598.285629 
L 830.343336 600.092083 
L 830.958959 600.092083 
L 831.574581 603.322296 
L 832.190203 603.322296 
L 832.805825 606.675782 
L 833.421447 606.675782 
L 834.03707 603.169679 
L 834.652692 606.675782 
L 835.268314 609.292097 
L 835.883936 603.169679 
L 836.499559 610.852132 
L 837.115181 610.852132 
L 837.730803 605.665641 
L 838.962048 605.665641 
L 839.57767 605.202586 
L 840.193292 605.665641 
L 840.808914 607.3161 
L 842.655781 607.3161 
L 843.271403 615.28007 
L 843.887026 615.28007 
L 844.502648 598.571349 
L 845.11827 594.025689 
L 845.733892 594.025689 
L 846.349515 591.774224 
L 846.965137 591.774224 
L 848.196381 599.359555 
L 848.812004 599.359555 
L 849.427626 600.214423 
L 850.043248 603.033829 
L 850.65887 615.584362 
L 851.274492 615.584362 
L 851.890115 615.349655 
L 853.121359 604.668027 
L 853.736981 610.124254 
L 854.352604 604.668027 
L 854.968226 610.992158 
L 855.583848 615.6 
L 856.19947 615.6 
L 856.815093 612.853376 
L 857.430715 599.456069 
L 858.661959 599.456069 
L 859.277582 601.97669 
L 861.124448 601.97669 
L 861.740071 605.95143 
L 862.355693 607.457558 
L 862.971315 605.95143 
L 862.355693 605.95143 
L 863.586937 605.95143 
L 864.20256 610.570244 
L 864.818182 603.218867 
L 865.433804 603.169679 
L 866.049426 601.525083 
L 867.896293 601.525083 
L 868.511915 603.169679 
L 869.127538 605.677686 
L 869.74316 605.900134 
L 870.358782 615.39298 
L 870.974404 615.39298 
L 871.590026 613.581636 
L 872.205649 615.585216 
L 872.821271 613.581636 
L 873.436893 605.141919 
L 874.052515 594.677267 
L 874.668138 605.141919 
L 875.28376 605.141919 
L 875.899382 605.611321 
L 876.515004 605.854207 
L 877.130627 605.868436 
L 877.746249 607.142388 
L 879.593116 607.142388 
L 880.208738 586.247507 
L 879.593116 584.242018 
L 880.82436 586.247507 
L 881.439982 603.114434 
L 884.518094 603.169679 
L 885.133716 607.704592 
L 886.980583 607.704592 
L 885.133716 613.863775 
L 887.596205 605.062579 
L 888.211827 615.49561 
L 888.827449 615.407218 
L 889.443071 614.728456 
L 890.674316 614.728456 
L 891.289938 612.76631 
L 891.90556 612.76631 
L 892.521183 606.840457 
L 893.136805 606.840457 
L 893.752427 605.700569 
L 894.368049 607.55111 
L 894.983672 607.55111 
L 895.599294 605.700822 
L 896.214916 607.55111 
L 896.830538 605.700822 
L 897.446161 605.700822 
L 895.599294 597.367892 
L 898.061783 606.205659 
L 899.293027 606.205659 
L 899.90865 599.484774 
L 901.139894 599.484774 
L 900.524272 599.484774 
L 901.139894 603.433602 
L 901.755516 603.433602 
L 902.371139 614.111861 
L 902.986761 615.415154 
L 903.602383 615.415154 
L 904.218005 614.744131 
L 904.833628 614.744131 
L 905.44925 606.001126 
L 906.064872 599.381942 
L 906.680494 583.578016 
L 907.296117 583.578016 
L 907.911739 595.946426 
L 908.527361 599.381942 
L 909.758605 611.242212 
L 910.374228 615.268351 
L 910.98985 611.242212 
L 911.605472 611.242212 
L 912.221094 583.662549 
L 912.836717 583.662549 
L 913.452339 584.14392 
L 914.067961 587.241049 
L 914.683583 605.556146 
L 915.299206 605.556146 
L 915.914828 606.643895 
L 916.53045 608.768959 
L 917.761695 608.768959 
L 918.377317 586.085264 
L 918.992939 586.085264 
L 919.608561 597.648174 
L 920.224184 597.648174 
L 919.608561 614.040785 
L 920.839806 614.040785 
L 921.455428 611.775522 
L 922.07105 610.469725 
L 922.686673 608.455892 
L 923.302295 601.758819 
L 923.917917 601.758819 
L 924.533539 603.28375 
L 925.149162 603.598336 
L 925.764784 614.298448 
L 926.380406 614.086408 
L 926.996028 603.598336 
L 927.61165 603.598336 
L 928.227273 596.692723 
L 928.842895 596.692723 
L 929.458517 603.169679 
L 930.074139 614.316744 
L 930.689762 614.316744 
L 931.305384 603.169679 
L 932.536628 603.160944 
L 933.152251 595.369033 
L 933.767873 603.160944 
L 934.383495 605.327893 
L 934.999117 602.146225 
L 935.61474 602.146225 
L 936.230362 598.836816 
L 937.461606 598.836816 
L 938.077229 598.076128 
L 938.692851 604.979526 
L 939.308473 613.742121 
L 939.924095 608.076741 
L 940.539718 608.076741 
L 941.15534 603.220617 
L 941.770962 603.169679 
L 942.386584 602.810155 
L 943.002207 615.591621 
L 943.617829 597.74813 
L 944.233451 597.74813 
L 944.849073 605.459529 
L 945.464695 615.46546 
L 946.080318 615.46546 
L 946.69594 611.298625 
L 947.311562 577.967972 
L 947.927184 577.967972 
L 948.542807 595.586364 
L 949.158429 603.754143 
L 949.774051 614.831776 
L 950.389673 605.966415 
L 951.005296 605.966415 
L 949.158429 603.754143 
L 951.620918 603.120861 
L 952.852162 603.120861 
L 953.467785 599.767713 
L 954.083407 613.001267 
L 954.699029 599.366732 
L 955.314651 590.754144 
L 955.930274 599.366732 
L 957.161518 599.424558 
L 958.392763 599.424558 
L 959.008385 615.575901 
L 959.624007 609.208521 
L 960.239629 615.599202 
L 960.855252 615.581332 
L 961.470874 609.208521 
L 962.086496 606.003422 
L 962.702118 604.163812 
L 963.317741 606.003422 
L 962.702118 606.003422 
L 963.933363 611.887003 
L 965.164607 611.887003 
L 965.780229 608.946772 
L 966.395852 608.946772 
L 967.011474 597.52316 
L 967.627096 594.370617 
L 968.242718 594.370617 
L 968.858341 584.242018 
L 969.473963 579.503238 
L 970.089585 594.370617 
L 970.705207 574.831909 
L 971.32083 574.831909 
L 971.936452 577.594092 
L 972.552074 567.55895 
L 973.167696 567.55895 
L 973.783319 570.331865 
L 974.398941 574.936071 
L 975.014563 574.936071 
L 975.630185 602.233803 
L 976.245808 602.538363 
L 976.86143 603.28375 
L 977.477052 602.538363 
L 978.708297 602.538363 
L 979.323919 604.331187 
L 979.939541 602.110377 
L 980.555163 604.331187 
L 981.170786 601.04074 
L 981.786408 604.331187 
L 982.40203 609.208521 
L 984.864519 609.208521 
L 985.480141 603.895886 
L 986.095763 603.895886 
L 986.711386 609.612111 
L 988.558252 609.661846 
L 989.173875 609.141114 
L 989.789497 606.69592 
L 991.020741 606.69592 
L 991.636364 607.032536 
L 992.251986 608.363413 
L 992.867608 609.176241 
L 993.48323 608.363413 
L 994.098853 608.363413 
L 994.714475 607.20643 
L 995.945719 607.20643 
L 996.561342 610.359006 
L 995.945719 612.178315 
L 996.561342 612.178315 
L 997.176964 612.592324 
L 997.792586 610.359006 
L 998.408208 603.80005 
L 999.023831 599.806296 
L 999.639453 586.078553 
L 1000.255075 586.078553 
L 1000.870697 603.80005 
L 1001.48632 605.025388 
L 1003.948808 605.025388 
L 1004.564431 613.090129 
L 1005.795675 613.090129 
L 1006.411297 601.66999 
L 1007.02692 600.963573 
L 1007.642542 600.963573 
L 1008.258164 613.910893 
L 1008.873786 613.910893 
L 1009.489409 611.630194 
L 1010.105031 612.351508 
L 1010.720653 612.351508 
L 1011.336275 613.74942 
L 1011.951898 613.824367 
L 1012.56752 614.793269 
L 1013.183142 605.690256 
L 1015.030009 605.760916 
L 1016.261253 604.997621 
L 1016.876876 605.760916 
L 1017.492498 602.670746 
L 1018.723742 602.675602 
L 1019.339365 611.876622 
L 1019.954987 611.876622 
L 1020.570609 613.467219 
L 1021.186231 613.017556 
L 1024.264342 612.927558 
L 1024.879965 609.242135 
L 1026.111209 609.227516 
L 1026.726831 608.246822 
L 1027.342454 608.246822 
L 1027.958076 613.097995 
L 1029.18932 613.188013 
L 1029.804943 613.62817 
L 1030.420565 613.62817 
L 1031.036187 614.03528 
L 1031.651809 614.03528 
L 1032.267432 613.783993 
L 1032.883054 612.928394 
L 1033.498676 612.46307 
L 1034.114298 612.46307 
L 1034.729921 612.669012 
L 1035.345543 612.669012 
L 1035.961165 612.461021 
L 1036.576787 601.768578 
L 1037.808032 601.768578 
L 1038.423654 606.746402 
L 1039.039276 606.746402 
L 1039.654898 609.208521 
L 1040.270521 610.831046 
L 1040.886143 611.240752 
L 1041.501765 612.934649 
L 1042.117387 613.2038 
L 1042.73301 614.478596 
L 1043.348632 614.478596 
L 1043.964254 615.6 
L 1044.579876 614.375054 
L 1047.042365 614.086568 
L 1047.657988 614.791124 
L 1049.504854 614.776689 
L 1050.120477 614.399569 
L 1050.736099 610.443502 
L 1051.351721 614.399569 
L 1051.967343 612.417551 
L 1052.582966 612.592324 
L 1054.429832 612.592324 
L 1055.045455 609.248947 
L 1056.276699 609.248947 
L 1056.892321 614.210124 
L 1057.507944 614.344351 
L 1058.123566 614.360807 
L 1058.739188 614.676696 
L 1059.35481 614.676696 
L 1059.970432 614.064237 
L 1061.817299 614.064237 
L 1062.432921 614.341851 
L 1063.664166 614.64779 
L 1064.279788 615.530387 
L 1064.89541 615.530387 
L 1065.511033 615.40576 
L 1066.126655 615.58184 
L 1067.357899 615.40576 
L 1067.973522 613.640161 
L 1068.589144 608.824925 
L 1069.204766 608.332982 
L 1069.820388 608.332982 
L 1070.436011 607.812137 
L 1071.051633 607.812137 
L 1071.667255 614.146023 
L 1072.282877 615.233164 
L 1072.8985 614.146023 
L 1073.514122 614.146023 
L 1074.129744 610.177556 
L 1074.745366 609.467447 
L 1075.360989 609.467447 
L 1075.976611 610.177556 
L 1076.592233 613.61225 
L 1077.207855 615.408732 
L 1078.4391 615.408732 
L 1079.054722 613.406225 
L 1079.670344 613.406225 
L 1080.285966 614.095942 
L 1081.517211 614.095942 
L 1082.132833 604.831418 
L 1083.364078 604.831418 
L 1083.9797 602.535578 
L 1085.210944 602.535578 
L 1085.826567 613.254453 
L 1086.442189 613.791239 
L 1088.289056 613.791239 
L 1088.904678 613.320387 
L 1089.5203 601.957124 
L 1090.135922 601.957124 
L 1090.751545 610.538406 
L 1091.367167 610.538406 
L 1091.982789 612.808259 
L 1092.598411 613.106889 
L 1093.214034 613.847081 
L 1093.829656 613.924992 
L 1094.445278 614.544344 
L 1095.0609 614.544344 
L 1095.676523 615.408925 
L 1096.907767 615.587389 
L 1098.754634 615.519858 
L 1099.370256 608.493373 
L 1099.985878 603.169679 
L 1100.6015 603.31 
L 1101.217123 603.31 
L 1102.448367 613.41251 
L 1103.063989 613.41251 
L 1103.679612 612.647906 
L 1104.295234 607.864826 
L 1105.526478 607.864826 
L 1106.142101 606.733084 
L 1106.757723 613.113128 
L 1107.373345 614.462151 
L 1108.60459 615.048913 
L 1109.220212 614.765493 
L 1109.835834 614.730192 
L 1110.451456 611.902309 
L 1111.067079 605.696141 
L 1111.682701 605.840959 
L 1112.913945 605.840959 
L 1113.529568 611.67848 
L 1114.14519 614.543282 
L 1114.760812 615.162816 
L 1117.223301 615.162816 
L 1117.838923 613.970649 
L 1118.454545 613.970649 
L 1119.070168 609.34086 
L 1119.68579 609.34086 
L 1120.301412 613.970649 
L 1120.917034 614.655003 
L 1121.532657 614.979096 
L 1122.148279 614.979096 
L 1122.763901 614.655003 
L 1123.379523 614.655003 
L 1123.995146 612.997679 
L 1124.610768 612.997679 
L 1125.842012 614.655003 
L 1126.457635 613.831179 
L 1127.073257 614.993887 
L 1128.304501 612.569502 
L 1128.920124 612.569502 
L 1129.535746 613.687904 
L 1130.151368 612.569502 
L 1130.76699 613.687904 
L 1131.382613 613.942145 
L 1131.998235 614.999951 
L 1132.613857 614.999951 
L 1133.229479 615.368116 
L 1133.845102 614.999951 
L 1134.460724 613.604571 
L 1135.076346 613.896462 
L 1135.691968 607.93199 
L 1136.30759 607.869155 
L 1136.923213 613.896462 
L 1137.538835 611.657438 
L 1138.770079 611.657438 
L 1139.385702 614.972901 
L 1140.001324 614.972901 
L 1140.616946 613.839881 
L 1141.232568 615.071604 
L 1141.848191 613.839881 
L 1144.31068 613.846895 
L 1144.926302 611.525623 
L 1145.541924 610.995036 
L 1146.773169 610.995036 
L 1147.388791 615.395583 
L 1148.620035 615.395583 
L 1149.235658 614.014241 
L 1151.082524 614.014241 
L 1151.698147 614.905927 
L 1152.313769 609.0941 
L 1154.160635 609.12545 
L 1154.776258 614.073779 
L 1155.39188 614.073779 
L 1156.007502 614.294941 
L 1156.623124 613.908979 
L 1157.238747 613.142699 
L 1157.854369 608.415558 
L 1159.085613 608.415558 
L 1159.701236 613.078743 
L 1160.316858 614.526557 
L 1160.93248 614.526557 
L 1161.548102 614.393053 
L 1162.163725 614.393053 
L 1163.394969 612.039362 
L 1164.010591 612.039362 
L 1164.626214 602.800895 
L 1165.241836 605.18866 
L 1165.857458 605.18866 
L 1166.47308 602.800895 
L 1167.088703 605.18866 
L 1167.704325 611.986847 
L 1168.319947 611.986847 
L 1168.935569 602.800895 
L 1169.551192 614.202568 
L 1170.166814 608.168099 
L 1170.782436 610.402568 
L 1171.398058 611.65243 
L 1172.01368 611.65243 
L 1172.629303 614.327374 
L 1173.860547 614.327374 
L 1174.476169 611.175312 
L 1175.707414 611.175312 
L 1176.323036 611.914743 
L 1176.938658 613.692011 
L 1178.169903 613.692011 
L 1178.785525 613.219703 
L 1179.401147 613.219703 
L 1180.01677 613.979881 
L 1180.632392 613.979881 
L 1181.248014 614.104701 
L 1181.863636 614.104701 
L 1182.479259 613.821312 
L 1183.094881 614.104701 
L 1183.710503 615.579788 
L 1185.55737 615.579788 
L 1186.172992 612.673177 
L 1186.788614 595.989971 
L 1187.404237 595.989971 
L 1188.019859 597.745866 
L 1188.635481 597.745866 
L 1189.251103 614.140853 
L 1189.866726 614.140853 
L 1190.482348 614.944301 
L 1191.09797 615.524071 
L 1191.713592 614.944301 
L 1192.329214 614.645903 
L 1192.944837 614.645903 
L 1193.560459 614.441391 
L 1194.176081 614.441391 
L 1194.791703 613.421276 
L 1195.407326 613.421276 
L 1196.022948 614.303103 
L 1196.63857 614.572399 
L 1197.869815 614.572399 
L 1198.485437 604.418909 
L 1199.716681 604.418909 
L 1200.332304 608.02048 
L 1200.947926 608.02048 
L 1201.563548 605.779794 
L 1202.17917 599.414838 
L 1204.026037 599.414838 
L 1205.257282 606.569069 
L 1205.872904 603.038136 
L 1206.488526 597.363018 
L 1207.104148 606.569069 
L 1207.719771 609.534719 
L 1208.951015 609.534719 
L 1209.566637 602.962242 
L 1210.797882 602.939777 
L 1211.413504 606.004708 
L 1212.029126 607.973597 
L 1212.644748 613.086828 
L 1213.260371 613.086828 
L 1214.491615 603.096181 
L 1215.107237 603.096181 
L 1215.72286 608.672058 
L 1216.338482 608.672058 
L 1216.954104 601.106386 
L 1218.185349 601.106386 
L 1218.800971 602.800895 
L 1219.416593 603.462466 
L 1220.032215 603.940682 
L 1220.647838 611.561596 
L 1223.725949 611.482252 
L 1224.341571 611.405121 
L 1224.957193 611.569161 
L 1225.572816 612.786214 
L 1226.188438 612.786214 
L 1226.80406 611.628439 
L 1228.035305 611.530149 
L 1229.266549 611.530149 
L 1229.882171 612.78176 
L 1230.497793 614.550297 
L 1231.113416 614.702369 
L 1232.34466 614.702369 
L 1232.960282 615.303851 
L 1233.575905 615.575188 
L 1234.807149 615.501384 
L 1235.422771 615.012864 
L 1236.038394 615.012864 
L 1236.654016 614.474686 
L 1237.269638 615.494262 
L 1239.732127 615.523592 
L 1240.347749 615.343563 
L 1244.041483 615.451002 
L 1245.272727 615.468467 
L 1245.272727 615.468467 
" style="fill:none;stroke:#1f77b4;stroke-linecap:square;stroke-width:1.5;"/>
   </g>
   <g id="line2d_15">
    <path clip-path="url(#pf1e655c60e)" d="M 230.727273 602.234926 
L 231.342895 602.466649 
L 230.727273 601.735958 
L 232.574139 600.914527 
L 233.189762 599.5578 
L 233.805384 601.065581 
L 234.421006 590.092066 
L 235.036628 584.605309 
L 235.652251 599.007335 
L 235.036628 606.208348 
L 236.267873 602.051173 
L 236.883495 566.294092 
L 237.499117 583.120163 
L 238.11474 594.264279 
L 238.730362 591.255508 
L 239.345984 595.095034 
L 239.961606 598.220375 
L 240.577229 598.057187 
L 241.192851 602.752075 
L 242.424095 609.236234 
L 243.65534 605.967303 
L 244.270962 606.537768 
L 244.886584 608.752887 
L 245.502207 603.973218 
L 246.117829 604.774822 
L 247.349073 589.548314 
L 247.964695 598.013166 
L 248.580318 603.393365 
L 249.811562 604.840853 
L 250.427184 607.71857 
L 251.042807 609.111071 
L 251.658429 607.731478 
L 252.274051 609.686692 
L 252.889673 610.940774 
L 253.505296 610.511546 
L 254.120918 608.80989 
L 254.73654 606.771534 
L 255.352162 572.189283 
L 255.967785 591.588499 
L 256.583407 600.39851 
L 257.814651 233.846176 
L 258.430274 403.548201 
L 259.661518 528.761901 
L 260.27714 566.74754 
L 260.892763 576.570962 
L 261.508385 592.377507 
L 262.124007 594.816683 
L 262.739629 598.757528 
L 263.355252 597.220988 
L 263.970874 596.128137 
L 264.586496 595.863536 
L 265.202118 600.352026 
L 265.817741 597.686427 
L 266.433363 597.420222 
L 267.048985 594.201237 
L 267.664607 597.544439 
L 268.280229 600.093804 
L 268.895852 603.285911 
L 269.511474 602.145589 
L 270.127096 604.248737 
L 270.742718 605.300311 
L 271.358341 601.86557 
L 271.973963 607.126137 
L 272.589585 602.920261 
L 273.205207 511.998463 
L 273.82083 573.584454 
L 274.436452 585.600918 
L 275.052074 587.146032 
L 275.667696 593.269929 
L 276.283319 583.262543 
L 276.898941 593.123902 
L 277.514563 599.314275 
L 278.130185 595.634269 
L 278.745808 591.220319 
L 279.36143 599.208189 
L 279.977052 600.211382 
L 280.592674 596.509631 
L 281.208297 591.268962 
L 281.823919 591.601261 
L 282.439541 593.664004 
L 283.055163 591.799193 
L 283.670786 582.210555 
L 284.286408 590.205814 
L 284.90203 593.370794 
L 285.517652 594.953284 
L 286.133274 552.763764 
L 286.748897 575.578106 
L 287.364519 591.693245 
L 287.980141 590.530948 
L 288.595763 580.437261 
L 289.211386 577.782877 
L 289.827008 584.140564 
L 290.44263 595.340683 
L 291.058252 598.906873 
L 291.673875 600.669646 
L 292.289497 595.884192 
L 292.905119 592.408327 
L 293.520741 581.269676 
L 294.136364 588.248961 
L 294.751986 590.281228 
L 295.367608 598.502832 
L 295.98323 603.758028 
L 296.598853 602.963286 
L 297.214475 602.898997 
L 297.830097 600.278764 
L 298.445719 598.795925 
L 299.061342 598.054505 
L 299.676964 582.913521 
L 300.292586 590.113304 
L 300.908208 595.663939 
L 301.523831 598.300398 
L 302.139453 597.678262 
L 302.755075 595.433859 
L 303.370697 600.14134 
L 303.98632 601.934982 
L 304.601942 606.587617 
L 305.217564 575.028309 
L 306.448808 594.431814 
L 307.064431 590.627666 
L 307.680053 598.258287 
L 308.295675 602.525409 
L 308.911297 601.947005 
L 309.52692 187.129266 
L 310.142542 394.248934 
L 310.758164 502.20497 
L 312.605031 574.509127 
L 313.220653 594.348159 
L 313.836275 599.749258 
L 313.220653 606.229453 
L 313.836275 602.599492 
L 315.06752 606.519138 
L 315.683142 604.225601 
L 316.298764 603.461987 
L 316.914387 593.129292 
L 317.530009 592.359189 
L 318.145631 598.105586 
L 318.761253 597.89019 
L 319.376876 605.619019 
L 319.992498 599.165655 
L 319.376876 602.497805 
L 320.60812 591.810373 
L 321.223742 599.144195 
L 321.839365 604.126687 
L 322.454987 602.308317 
L 323.070609 596.386517 
L 323.686231 537.231237 
L 324.301853 575.525728 
L 324.917476 590.145125 
L 325.533098 599.243875 
L 326.14872 606.295861 
L 326.764342 609.674479 
L 327.379965 609.154023 
L 327.995587 578.029301 
L 329.226831 594.730262 
L 329.842454 572.716485 
L 330.458076 587.707429 
L 331.073698 599.862098 
L 331.68932 602.737772 
L 332.304943 603.608953 
L 332.920565 605.603586 
L 333.536187 601.607792 
L 334.151809 604.657549 
L 334.767432 604.307527 
L 335.383054 600.991161 
L 335.998676 592.882153 
L 336.614298 598.358936 
L 337.229921 595.774195 
L 337.845543 596.270725 
L 338.461165 599.484549 
L 339.076787 598.281845 
L 339.69241 604.439066 
L 340.308032 600.928649 
L 340.923654 604.255677 
L 341.539276 606.299151 
L 342.154898 606.370371 
L 342.770521 603.444435 
L 343.386143 604.373789 
L 344.001765 600.451962 
L 343.386143 600.48523 
L 344.617387 597.639577 
L 345.23301 597.49661 
L 345.848632 604.319922 
L 346.464254 597.857621 
L 347.079876 601.405255 
L 347.695499 603.179073 
L 348.311121 607.394233 
L 348.926743 606.69947 
L 349.542365 599.284854 
L 350.157988 601.724537 
L 350.77361 601.134973 
L 351.389232 606.608906 
L 352.620477 601.937971 
L 353.236099 598.80964 
L 353.851721 596.484015 
L 354.467343 574.01195 
L 355.698588 588.993093 
L 356.31421 587.213762 
L 356.929832 559.582783 
L 357.545455 580.192484 
L 358.161077 593.113765 
L 358.776699 595.589294 
L 358.161077 596.827059 
L 360.007944 594.098856 
L 360.623566 601.366211 
L 361.239188 601.2826 
L 361.85481 595.554291 
L 362.470432 595.603481 
L 363.086055 591.832324 
L 363.701677 585.375124 
L 364.317299 592.879023 
L 368.626655 313.733589 
L 369.242277 463.785886 
L 369.857899 533.961484 
L 370.473522 561.104732 
L 371.089144 580.815011 
L 371.704766 596.027631 
L 372.320388 599.099483 
L 372.936011 598.582153 
L 373.551633 598.375792 
L 374.167255 594.380956 
L 374.782877 602.255092 
L 375.3985 603.127268 
L 376.014122 606.230225 
L 376.629744 599.787174 
L 377.245366 607.337984 
L 376.629744 597.652393 
L 377.860989 591.843418 
L 378.476611 601.253215 
L 379.092233 586.962317 
L 379.707855 596.258946 
L 380.323477 603.44184 
L 380.9391 603.999125 
L 381.554722 601.484328 
L 382.170344 602.73142 
L 382.785966 606.985836 
L 383.401589 604.842104 
L 384.017211 601.214809 
L 384.632833 576.377347 
L 385.248455 591.685073 
L 385.864078 595.801268 
L 386.4797 595.136124 
L 387.095322 594.803552 
L 387.710944 588.960429 
L 388.326567 591.715704 
L 388.942189 601.077245 
L 389.557811 597.809769 
L 390.173433 600.254071 
L 391.404678 609.567077 
L 392.0203 595.017961 
L 392.635922 594.744471 
L 393.251545 590.564893 
L 393.867167 583.835603 
L 394.482789 589.153292 
L 395.098411 589.153324 
L 395.714034 588.177838 
L 396.329656 591.324409 
L 396.945278 589.751124 
L 397.5609 585.132312 
L 398.176523 596.490197 
L 398.792145 589.379414 
L 400.023389 596.038893 
L 398.792145 588.054917 
L 400.639011 453.695915 
L 401.254634 486.855267 
L 401.870256 528.809015 
L 402.485878 527.359197 
L 403.1015 553.346272 
L 403.717123 529.182517 
L 404.948367 572.898497 
L 405.563989 563.037342 
L 406.179612 565.51368 
L 406.795234 583.584848 
L 407.410856 570.912546 
L 412.951456 233.55359 
L 413.567079 353.137 
L 414.182701 434.649984 
L 414.798323 361.083647 
L 415.413945 444.592619 
L 416.029568 452.473526 
L 416.64519 525.889676 
L 417.260812 575.1858 
L 418.492056 553.029766 
L 419.107679 417.952112 
L 420.338923 485.491033 
L 420.954545 533.849571 
L 421.570168 566.132477 
L 422.18579 583.673525 
L 422.801412 583.876068 
L 423.417034 571.058157 
L 424.032657 577.467143 
L 424.648279 566.639389 
L 425.263901 585.972207 
L 425.879523 592.442168 
L 426.495146 571.637589 
L 427.110768 590.891575 
L 427.72639 600.66518 
L 428.342012 595.728146 
L 428.957635 572.930323 
L 429.573257 584.305817 
L 430.188879 527.2985 
L 430.804501 536.615754 
L 431.420124 549.437324 
L 432.035746 571.954369 
L 432.651368 574.330778 
L 433.26699 461.177612 
L 433.882613 516.096681 
L 435.113857 552.416979 
L 435.729479 543.033776 
L 436.345102 547.710814 
L 436.960724 579.475533 
L 437.576346 583.572635 
L 438.191968 596.390578 
L 438.80759 598.12954 
L 439.423213 598.041212 
L 440.038835 603.445458 
L 440.654457 591.955773 
L 441.270079 592.430673 
L 441.885702 592.430699 
L 442.501324 563.655377 
L 443.116946 577.373765 
L 443.732568 577.373828 
L 444.348191 591.429627 
L 444.963813 581.11946 
L 445.579435 579.114751 
L 446.195057 590.957823 
L 446.81068 590.671971 
L 447.426302 585.895773 
L 448.041924 525.929751 
L 448.657546 558.300885 
L 449.273169 542.11534 
L 449.888791 542.11538 
L 450.504413 358.367425 
L 451.120035 476.533743 
L 451.735658 537.668991 
L 452.35128 159.398449 
L 452.966902 359.738793 
L 453.582524 480.788575 
L 454.198147 542.38564 
L 454.813769 562.853675 
L 455.429391 565.366148 
L 456.045013 576.285384 
L 456.660635 570.825906 
L 457.276258 557.147359 
L 457.89188 564.807186 
L 458.507502 554.980425 
L 459.123124 538.719772 
L 458.507502 571.08477 
L 459.738747 584.358989 
L 460.354369 565.58137 
L 460.969991 571.995549 
L 461.585613 112.943835 
L 459.123124 275.247981 
L 462.201236 443.187912 
L 462.816858 503.977484 
L 463.43248 527.758684 
L 464.048102 505.019738 
L 465.279347 551.066205 
L 465.894969 540.469621 
L 466.510591 571.361276 
L 467.126214 580.740908 
L 467.741836 531.320207 
L 468.357458 562.305858 
L 468.97308 575.453538 
L 469.588703 573.587167 
L 470.204325 572.9596 
L 470.819947 589.058852 
L 471.435569 600.514427 
L 472.051192 586.423155 
L 472.666814 586.302477 
L 473.282436 565.856664 
L 473.898058 570.348504 
L 474.51368 568.092798 
L 475.129303 572.733301 
L 475.744925 579.683824 
L 476.360547 576.207533 
L 476.976169 579.764622 
L 477.591792 563.031917 
L 478.207414 569.61947 
L 478.823036 566.325652 
L 479.438658 587.800336 
L 480.054281 598.74065 
L 480.669903 593.270486 
L 481.285525 593.890653 
L 481.901147 595.704927 
L 482.51677 581.331245 
L 483.132392 501.201297 
L 483.748014 537.737003 
L 484.363636 524.588774 
L 484.979259 531.162899 
L 485.594881 543.747868 
L 486.210503 454.497136 
L 486.826125 499.122531 
L 487.441748 529.698415 
L 488.05737 530.286981 
L 488.672992 535.140523 
L 489.288614 517.294816 
L 489.904237 523.790932 
L 490.519859 505.627277 
L 491.135481 521.045197 
L 491.751103 542.003686 
L 492.366726 539.556883 
L 492.982348 520.058206 
L 493.59797 531.030954 
L 494.213592 519.917961 
L 494.829214 525.474476 
L 495.444837 522.731356 
L 494.213592 521.394805 
L 496.060459 521.220023 
L 496.676081 548.030183 
L 497.291703 566.724784 
L 497.907326 575.319139 
L 498.522948 567.796725 
L 499.13857 568.63149 
L 499.754192 576.104753 
L 500.369815 578.718038 
L 500.985437 577.060985 
L 502.216681 586.786009 
L 502.832304 595.760641 
L 503.447926 561.037825 
L 504.063548 570.308621 
L 504.67917 583.532303 
L 505.294793 583.532348 
L 505.910415 592.191542 
L 506.526037 568.430814 
L 507.141659 581.033995 
L 507.757282 585.104095 
L 507.141659 584.207613 
L 508.372904 584.143112 
L 508.988526 584.908252 
L 509.604148 587.442909 
L 510.219771 584.08839 
L 512.066637 584.168559 
L 513.297882 305.369425 
L 513.913504 444.515987 
L 514.529126 503.084192 
L 515.760371 510.71397 
L 514.529126 485.033357 
L 516.375993 504.096741 
L 516.991615 501.633302 
L 517.607237 512.137546 
L 518.22286 546.325522 
L 518.838482 550.388982 
L 519.454104 577.022113 
L 520.069726 572.290532 
L 520.685349 571.952952 
L 521.300971 576.359494 
L 521.916593 574.185039 
L 522.532215 577.649292 
L 523.147838 576.94099 
L 523.76346 565.011337 
L 524.379082 571.333941 
L 524.994704 574.495239 
L 526.225949 576.075887 
L 526.841571 549.445965 
L 527.457193 574.789239 
L 528.072816 567.138187 
L 528.688438 570.504344 
L 529.30406 578.469386 
L 529.919682 574.487002 
L 530.535305 581.000662 
L 531.150927 594.817114 
L 531.766549 595.392118 
L 532.382171 595.104619 
L 533.613416 594.889037 
L 534.229038 596.745634 
L 534.84466 597.282454 
L 535.460282 596.722061 
L 536.075905 596.965609 
L 536.691527 596.843859 
L 537.307149 559.603937 
L 538.538394 583.643317 
L 539.154016 580.175252 
L 539.769638 581.909327 
L 541.000883 581.909418 
L 541.616505 579.957793 
L 542.232127 583.705093 
L 542.847749 582.807307 
L 543.463372 582.358384 
L 544.078994 586.158438 
L 544.694616 584.931798 
L 545.310238 583.096081 
L 546.541483 584.013996 
L 547.157105 578.367883 
L 547.772727 590.533128 
L 548.38835 590.533295 
L 549.003972 583.620241 
L 549.619594 580.994129 
L 550.235216 581.707109 
L 549.619594 579.997265 
L 551.466461 579.74001 
L 552.082083 585.408156 
L 552.697705 581.384097 
L 553.313327 584.012764 
L 553.92895 579.903098 
L 554.544572 581.974249 
L 555.775816 578.920682 
L 556.391439 578.583093 
L 557.007061 573.938964 
L 557.622683 576.402021 
L 558.238305 580.710906 
L 558.853928 589.73596 
L 559.46955 596.131144 
L 560.700794 596.131674 
L 561.316417 594.229282 
L 561.932039 595.180276 
L 562.547661 594.704834 
L 563.163283 592.19932 
L 563.778906 587.18988 
L 564.394528 564.70479 
L 565.01015 576.078592 
L 565.625772 567.683617 
L 566.241395 556.445191 
L 566.857017 550.825978 
L 567.472639 559.943598 
L 568.088261 555.384852 
L 568.703883 571.854824 
L 569.319506 565.899251 
L 572.397617 122.273405 
L 573.013239 329.752499 
L 573.628861 419.568474 
L 574.244484 462.544975 
L 574.860106 530.966381 
L 575.475728 552.26624 
L 576.09135 553.204103 
L 576.706973 569.757477 
L 577.938217 591.457898 
L 578.553839 595.897846 
L 579.169462 593.677884 
L 579.785084 594.78787 
L 580.400706 595.342863 
L 581.016328 595.730287 
L 581.631951 596.2853 
L 582.247573 596.007818 
L 582.863195 577.971951 
L 583.478817 587.128638 
L 584.710062 593.063361 
L 585.325684 584.486617 
L 585.941306 577.497575 
L 586.556929 580.99212 
L 587.172551 579.482093 
L 587.788173 580.237167 
L 588.403795 590.259412 
L 589.019417 590.166718 
L 589.63504 590.457417 
L 590.250662 587.472075 
L 590.866284 585.819967 
L 591.481906 548.551126 
L 592.097529 573.577132 
L 592.713151 578.577574 
L 593.328773 569.846785 
L 593.944395 495.459067 
L 593.328773 533.41813 
L 594.560018 549.992083 
L 595.791262 582.330164 
L 596.406884 582.326539 
L 597.022507 568.730899 
L 597.638129 566.807116 
L 598.253751 585.727671 
L 598.869373 595.780789 
L 599.484996 559.475515 
L 600.100618 577.664513 
L 600.71624 573.758825 
L 601.331862 575.720908 
L 601.947485 589.337148 
L 603.178729 602.306639 
L 603.794351 603.883651 
L 604.409974 601.622105 
L 603.794351 602.928568 
L 605.025596 579.137705 
L 605.641218 584.41041 
L 606.25684 578.251529 
L 606.872462 576.988563 
L 607.488085 586.959226 
L 608.103707 588.879476 
L 608.719329 580.486062 
L 609.334951 579.0767 
L 609.950574 585.450143 
L 610.566196 582.261064 
L 611.181818 580.274242 
L 611.79744 593.818194 
L 612.413063 593.010736 
L 613.028685 600.558275 
L 614.259929 537.208206 
L 614.875552 549.941327 
L 615.491174 559.41818 
L 616.106796 552.312473 
L 616.722418 557.49346 
L 617.338041 488.574111 
L 617.953663 503.653474 
L 618.569285 550.261425 
L 619.184907 553.886026 
L 619.80053 542.99104 
L 620.416152 548.566503 
L 621.031774 558.062726 
L 621.647396 571.152372 
L 622.263019 551.624213 
L 622.878641 564.63834 
L 623.494263 558.131308 
L 624.109885 562.845129 
L 625.34113 588.704098 
L 625.956752 571.57827 
L 626.572374 578.609073 
L 627.187996 561.907919 
L 627.803619 572.370191 
L 629.034863 580.213155 
L 628.419241 574.600426 
L 629.650485 553.634267 
L 630.266108 559.650717 
L 630.88173 568.100507 
L 631.497352 558.999538 
L 632.112974 563.761962 
L 632.728597 550.496778 
L 633.344219 574.945302 
L 633.959841 574.275246 
L 634.575463 497.675955 
L 635.191086 531.35028 
L 635.806708 549.454615 
L 636.42233 553.583419 
L 637.037952 542.839736 
L 637.653575 572.98546 
L 638.269197 556.559113 
L 638.884819 575.504247 
L 639.500441 377.233659 
L 640.116064 480.448104 
L 640.731686 527.976262 
L 641.347308 566.266335 
L 641.96293 526.887933 
L 642.578553 541.312258 
L 643.194175 559.799839 
L 643.809797 563.168148 
L 644.425419 508.656056 
L 643.809797 489.47362 
L 645.041041 517.340192 
L 645.656664 550.801259 
L 646.272286 570.975962 
L 646.887908 553.960484 
L 647.50353 546.464221 
L 648.119153 557.750927 
L 648.734775 557.43133 
L 649.350397 569.272437 
L 649.966019 589.598794 
L 650.581642 579.137676 
L 651.812886 579.189984 
L 652.428508 576.615704 
L 653.044131 577.911574 
L 653.659753 555.003813 
L 654.275375 566.465508 
L 654.890997 582.967219 
L 655.50662 582.040381 
L 656.122242 575.153179 
L 656.737864 587.835315 
L 657.353486 581.494462 
L 657.969109 579.691732 
L 658.584731 579.691761 
L 659.200353 577.695992 
L 659.815975 584.759789 
L 660.431598 575.749442 
L 661.04722 575.448287 
L 661.662842 573.973848 
L 662.278464 586.848532 
L 662.894086 580.411207 
L 663.509709 578.321948 
L 664.125331 566.387195 
L 664.740953 579.8912 
L 665.356575 573.385319 
L 665.972198 561.520441 
L 666.58782 572.88123 
L 667.203442 587.65978 
L 667.819064 590.501951 
L 669.050309 413.694572 
L 669.665931 490.626761 
L 670.281553 522.384364 
L 670.897176 523.127476 
L 671.512798 529.795296 
L 672.744042 564.757283 
L 673.359665 566.158116 
L 673.975287 563.798089 
L 674.590909 565.678519 
L 675.206531 564.028644 
L 675.822154 582.586162 
L 676.437776 584.79382 
L 677.053398 597.288129 
L 677.66902 599.310322 
L 678.284643 558.521016 
L 678.900265 578.254598 
L 679.515887 560.237149 
L 680.131509 559.376799 
L 680.747132 571.519674 
L 681.362754 551.444732 
L 681.978376 555.410505 
L 682.593998 543.681154 
L 683.20962 566.782341 
L 683.825243 563.737989 
L 684.440865 492.407326 
L 685.056487 552.553543 
L 685.672109 568.397781 
L 686.287732 557.65118 
L 686.903354 548.993189 
L 687.518976 578.09235 
L 688.750221 472.68885 
L 689.365843 508.947808 
L 689.981465 288.34442 
L 690.597087 131.740577 
L 691.21271 357.531144 
L 691.828332 482.311436 
L 693.059576 531.519109 
L 692.443954 514.779212 
L 693.675199 529.955735 
L 694.290821 531.025894 
L 694.906443 533.36418 
L 695.522065 563.663343 
L 696.137688 575.71973 
L 696.75331 577.600931 
L 697.368932 576.879501 
L 697.984554 580.709454 
L 698.600177 593.659124 
L 699.215799 574.055783 
L 699.831421 569.297848 
L 700.447043 588.820237 
L 701.062665 580.436872 
L 701.678288 551.086922 
L 702.909532 572.428958 
L 706.603266 288.982739 
L 707.218888 391.80333 
L 708.450132 478.585473 
L 709.681377 440.281334 
L 710.296999 433.850732 
L 710.912621 441.500356 
L 711.528244 453.279845 
L 712.143866 528.281798 
L 712.759488 497.365978 
L 713.37511 547.316507 
L 713.990733 366.170084 
L 714.606355 444.670162 
L 715.221977 494.938464 
L 715.837599 512.933202 
L 716.453222 482.447555 
L 717.068844 508.392879 
L 718.915711 526.799822 
L 719.531333 517.596947 
L 720.146955 505.442842 
L 720.762577 535.713073 
L 721.378199 540.459919 
L 721.993822 497.301942 
L 723.225066 552.59032 
L 723.840688 552.590369 
L 724.456311 560.991782 
L 725.071933 584.094575 
L 725.687555 560.018474 
L 726.9188 555.651537 
L 727.534422 578.844642 
L 728.150044 579.979093 
L 728.765666 578.875099 
L 729.381289 543.634616 
L 729.996911 554.096183 
L 730.612533 548.865561 
L 731.228155 509.578372 
L 731.843778 519.228859 
L 732.4594 522.898923 
L 733.075022 563.727666 
L 733.690644 541.478332 
L 734.306267 300.403332 
L 734.921889 395.261482 
L 735.537511 524.090672 
L 736.153133 519.810378 
L 736.768756 521.950578 
L 737.384378 507.309181 
L 738 515.934793 
L 738.615622 520.012764 
L 739.231244 513.636384 
L 739.846867 556.322452 
L 740.462489 538.672864 
L 741.078111 552.923678 
L 741.693733 553.68806 
L 742.309356 261.707738 
L 741.693733 405.482727 
L 742.924978 474.072288 
L 743.5406 536.327752 
L 744.156222 535.332978 
L 744.771845 526.27791 
L 745.387467 538.875513 
L 746.003089 528.049175 
L 746.618711 565.609427 
L 747.234334 554.135638 
L 747.849956 559.933035 
L 748.465578 572.749264 
L 749.0812 546.876402 
L 749.696823 539.414103 
L 750.312445 546.933272 
L 750.928067 526.723297 
L 751.543689 564.388975 
L 752.159312 276.954735 
L 752.774934 415.857266 
L 754.621801 503.854314 
L 755.237423 517.975184 
L 755.853045 526.158048 
L 756.468667 530.918736 
L 757.699912 575.468653 
L 758.315534 565.048983 
L 760.162401 555.127874 
L 760.778023 512.709529 
L 761.393645 546.725404 
L 762.009267 542.764993 
L 762.62489 545.136299 
L 763.240512 540.001045 
L 764.471756 268.684623 
L 765.703001 533.561528 
L 766.318623 533.114818 
L 766.934245 543.78363 
L 767.549868 537.435485 
L 768.16549 535.051797 
L 768.781112 551.305373 
L 769.396734 550.052723 
L 770.012357 541.074388 
L 770.627979 546.151559 
L 771.243601 572.745134 
L 771.859223 556.900152 
L 772.474846 534.504245 
L 773.090468 551.031598 
L 773.70609 548.119181 
L 774.321712 541.311182 
L 774.937335 536.703618 
L 775.552957 568.35175 
L 776.168579 512.830918 
L 776.784201 501.79872 
L 777.399823 518.739071 
L 778.015446 531.972918 
L 778.631068 476.522134 
L 779.24669 509.701532 
L 780.477935 533.052779 
L 781.093557 521.377231 
L 781.709179 209.669617 
L 782.324801 353.854466 
L 783.556046 143.893441 
L 784.171668 366.219213 
L 785.402913 511.066764 
L 786.018535 504.55304 
L 786.634157 538.612229 
L 787.249779 544.819751 
L 787.865402 559.761169 
L 788.481024 547.132136 
L 789.096646 579.920892 
L 789.712268 577.003197 
L 790.327891 568.207338 
L 790.943513 553.312815 
L 791.559135 544.496119 
L 790.327891 544.332199 
L 792.174757 555.945574 
L 792.79038 560.679717 
L 793.406002 536.394027 
L 794.021624 505.183955 
L 794.637246 529.971876 
L 795.252868 512.989499 
L 795.868491 522.828804 
L 796.484113 524.369091 
L 797.099735 545.868289 
L 797.715357 535.11616 
L 798.33098 540.495217 
L 798.946602 537.81299 
L 799.562224 524.960664 
L 800.177846 544.441031 
L 800.793469 552.045783 
L 801.409091 568.876192 
L 802.024713 555.736437 
L 802.640335 566.372287 
L 803.255958 553.367544 
L 803.87158 560.463247 
L 804.487202 580.83891 
L 805.102824 553.683478 
L 806.334069 571.834098 
L 806.949691 565.78291 
L 807.565313 575.135945 
L 808.180936 570.459484 
L 808.796558 562.455963 
L 809.41218 561.424799 
L 810.027802 562.409487 
L 810.643425 557.226955 
L 811.259047 559.659271 
L 811.874669 535.883804 
L 812.490291 407.883495 
L 813.105914 471.883764 
L 813.721536 505.904913 
L 814.337158 530.178677 
L 814.95278 559.748212 
L 815.568402 564.918244 
L 816.184025 554.49923 
L 815.568402 544.956981 
L 816.799647 548.207274 
L 817.415269 560.410754 
L 818.030891 552.80876 
L 819.262136 560.183855 
L 818.030891 537.228814 
L 821.724625 401.76322 
L 822.340247 502.282057 
L 822.955869 517.189055 
L 823.571492 528.574183 
L 824.187114 560.366719 
L 824.802736 563.770606 
L 823.571492 548.219357 
L 824.802736 546.713061 
L 825.418358 570.706561 
L 826.033981 563.05537 
L 826.649603 574.744899 
L 827.265225 559.975832 
L 827.880847 468.532636 
L 828.49647 514.356449 
L 829.112092 526.17087 
L 829.727714 552.663183 
L 830.343336 539.451176 
L 830.958959 556.617576 
L 831.574581 459.966719 
L 832.190203 522.104369 
L 832.805825 497.14038 
L 833.421447 503.262414 
L 834.03707 561.511362 
L 834.652692 582.104867 
L 835.268314 571.808195 
L 835.883936 566.659912 
L 836.499559 553.760209 
L 837.115181 548.140588 
L 837.730803 574.677581 
L 838.346425 561.409102 
L 838.962048 557.115256 
L 839.57767 560.62723 
L 840.193292 558.871387 
L 840.808914 555.826663 
L 841.424537 555.826681 
L 842.040159 556.898462 
L 842.655781 488.984905 
L 843.271403 478.644216 
L 843.887026 518.192752 
L 844.502648 508.116034 
L 845.11827 536.793497 
L 845.733892 535.836777 
L 846.349515 535.358416 
L 846.965137 533.727235 
L 847.580759 544.089838 
L 848.812004 558.306125 
L 849.427626 555.309758 
L 850.043248 556.790548 
L 850.65887 575.491247 
L 851.274492 567.947875 
L 851.890115 552.342553 
L 852.505737 576.778564 
L 853.121359 577.000107 
L 853.736981 588.985364 
L 854.352604 582.556913 
L 855.583848 582.268634 
L 856.19947 579.378288 
L 856.815093 580.104602 
L 857.430715 581.040356 
L 858.046337 567.746399 
L 858.661959 567.0916 
L 859.277582 574.905598 
L 859.893204 568.47788 
L 860.508826 568.016421 
L 861.124448 561.234431 
L 861.740071 583.592722 
L 862.355693 597.092645 
L 862.971315 571.149705 
L 862.355693 560.596696 
L 863.586937 551.738813 
L 864.20256 581.165691 
L 864.818182 558.684645 
L 865.433804 551.945705 
L 866.049426 555.23962 
L 866.665049 534.822878 
L 867.280671 544.63766 
L 867.896293 539.617351 
L 868.511915 553.444096 
L 869.127538 552.036843 
L 869.74316 536.886907 
L 870.358782 282.665741 
L 870.974404 374.037603 
L 871.590026 380.57769 
L 872.205649 490.896132 
L 872.821271 518.051449 
L 873.436893 513.717948 
L 874.052515 504.114979 
L 874.668138 546.748408 
L 875.28376 571.875524 
L 875.899382 580.481417 
L 876.515004 557.680737 
L 877.130627 568.727001 
L 877.746249 551.803528 
L 878.361871 566.141632 
L 878.977493 561.91078 
L 879.593116 505.243369 
L 880.208738 536.40116 
L 879.593116 551.980055 
L 880.82436 553.216248 
L 881.439982 549.06291 
L 882.055605 556.891513 
L 882.671227 556.891609 
L 883.286849 580.030644 
L 883.902471 580.030656 
L 884.518094 570.700131 
L 885.133716 583.407403 
L 885.749338 565.155992 
L 886.36496 568.829629 
L 885.133716 564.491283 
L 887.596205 575.176057 
L 889.443071 554.269489 
L 890.058694 565.344386 
L 891.289938 585.391858 
L 891.90556 583.326111 
L 892.521183 567.8212 
L 893.136805 522.909505 
L 894.368049 562.917734 
L 894.983672 547.94916 
L 895.599294 553.280421 
L 896.214916 467.502056 
L 896.830538 509.852941 
L 897.446161 513.101701 
L 895.599294 467.748218 
L 898.061783 451.305961 
L 898.677405 436.850348 
L 899.293027 502.204649 
L 899.90865 515.965669 
L 900.524272 535.209055 
L 901.139894 540.612562 
L 900.524272 561.530725 
L 901.755516 560.130616 
L 902.371139 557.84139 
L 902.986761 528.808697 
L 903.602383 550.860824 
L 904.218005 567.21942 
L 904.833628 575.398718 
L 905.44925 546.427742 
L 906.064872 565.996617 
L 906.680494 553.611265 
L 907.296117 435.102426 
L 908.527361 550.329709 
L 909.142983 549.884366 
L 909.758605 548.162955 
L 910.374228 487.276944 
L 910.98985 503.954727 
L 911.605472 524.580746 
L 912.221094 424.054931 
L 912.836717 505.721162 
L 913.452339 530.086802 
L 914.067961 531.091427 
L 914.683583 547.077618 
L 915.299206 550.609792 
L 915.914828 518.976822 
L 917.146072 534.164228 
L 917.761695 539.685497 
L 918.377317 553.30403 
L 918.992939 575.476102 
L 919.608561 589.087237 
L 920.839806 542.84039 
L 921.455428 566.508278 
L 922.07105 562.030939 
L 922.686673 571.722383 
L 923.302295 575.095011 
L 923.917917 463.675014 
L 924.533539 466.672196 
L 925.149162 510.562319 
L 925.764784 532.50738 
L 926.380406 573.295559 
L 926.996028 563.882981 
L 927.61165 570.827043 
L 928.227273 562.639742 
L 928.842895 537.812632 
L 929.458517 565.578377 
L 930.689762 560.015409 
L 931.305384 544.222878 
L 931.921006 549.182422 
L 932.536628 552.25781 
L 933.152251 551.015492 
L 933.767873 551.636702 
L 934.999117 553.353553 
L 935.61474 552.650609 
L 936.230362 553.396288 
L 936.845984 553.37533 
L 937.461606 570.371359 
L 938.077229 561.873354 
L 938.692851 586.556802 
L 939.308473 510.710253 
L 939.924095 529.176236 
L 940.539718 556.291918 
L 941.15534 591.343441 
L 941.770962 568.941724 
L 942.386584 564.860304 
L 943.002207 530.285683 
L 943.617829 512.998372 
L 944.233451 562.85401 
L 944.849073 547.475031 
L 945.464695 549.507458 
L 946.080318 538.216525 
L 946.69594 552.887738 
L 947.311562 544.947048 
L 947.927184 533.34201 
L 948.542807 531.936154 
L 949.158429 538.440785 
L 950.389673 535.268419 
L 951.005296 559.755219 
L 949.158429 546.922505 
L 951.620918 539.509279 
L 952.852162 517.61017 
L 953.467785 510.022441 
L 954.083407 528.659596 
L 955.314651 506.351667 
L 955.930274 541.365791 
L 956.545896 537.851997 
L 957.161518 569.533286 
L 957.77714 552.606354 
L 959.008385 543.067063 
L 959.624007 533.118652 
L 960.239629 551.345183 
L 960.855252 544.732697 
L 961.470874 549.592569 
L 962.086496 558.57576 
L 962.702118 554.084419 
L 963.317741 580.121961 
L 962.702118 559.165787 
L 963.933363 577.512927 
L 964.548985 573.049171 
L 965.164607 559.127968 
L 965.780229 578.441074 
L 966.395852 569.846668 
L 967.011474 558.490613 
L 967.627096 560.642705 
L 968.242718 555.833536 
L 968.858341 525.772299 
L 969.473963 510.889711 
L 970.089585 410.920681 
L 973.167696 299.795273 
L 974.398941 467.214686 
L 975.014563 504.717193 
L 975.630185 529.42958 
L 976.245808 529.396335 
L 976.86143 541.76915 
L 978.092674 581.474384 
L 978.708297 567.963413 
L 979.323919 535.72305 
L 979.939541 539.265695 
L 980.555163 523.85502 
L 981.170786 531.560235 
L 981.786408 553.390577 
L 982.40203 542.475442 
L 983.017652 575.841982 
L 983.633274 577.787711 
L 984.248897 576.814905 
L 985.480141 576.815017 
L 986.095763 592.653696 
L 986.711386 580.586895 
L 987.327008 385.638123 
L 991.636364 291.978725 
L 992.251986 451.500464 
L 992.867608 524.139095 
L 993.48323 531.129653 
L 994.098853 557.225682 
L 994.714475 565.929521 
L 995.330097 588.124012 
L 995.945719 593.46007 
L 996.561342 586.854754 
L 995.945719 569.069677 
L 996.561342 571.040514 
L 997.176964 572.412245 
L 998.408208 577.19713 
L 999.023831 576.90836 
L 999.639453 577.279052 
L 1000.255075 574.428666 
L 1000.870697 573.003472 
L 1001.48632 573.716071 
L 1002.101942 573.374058 
L 1002.717564 573.467027 
L 1003.333186 585.929737 
L 1003.948808 579.571645 
L 1004.564431 591.135009 
L 1005.180053 588.533476 
L 1005.795675 588.202629 
L 1006.411297 588.368264 
L 1007.02692 566.787514 
L 1008.258164 584.742944 
L 1008.873786 586.555778 
L 1009.489409 548.287529 
L 1010.105031 587.73635 
L 1010.720653 561.711883 
L 1011.336275 557.000326 
L 1011.951898 558.934427 
L 1013.183142 561.298745 
L 1013.798764 564.679154 
L 1014.414387 563.427307 
L 1015.030009 584.590777 
L 1015.645631 564.898771 
L 1016.261253 564.047384 
L 1016.876876 584.124569 
L 1018.10812 584.060412 
L 1018.723742 596.898372 
L 1019.339365 587.193302 
L 1019.954987 588.767003 
L 1020.570609 586.478613 
L 1021.186231 587.886321 
L 1021.801853 522.791337 
L 1022.417476 506.778929 
L 1023.033098 547.303646 
L 1023.64872 543.937468 
L 1024.264342 569.013002 
L 1024.879965 568.285976 
L 1025.495587 586.979627 
L 1026.111209 563.570742 
L 1026.726831 583.932191 
L 1027.342454 596.86767 
L 1027.958076 577.882908 
L 1028.573698 584.494672 
L 1029.18932 589.770021 
L 1029.804943 567.488393 
L 1030.420565 204.019032 
L 1031.036187 380.455298 
L 1031.651809 140.504128 
L 1032.267432 350.220106 
L 1032.883054 466.214108 
L 1033.498676 518.488436 
L 1034.114298 551.365227 
L 1034.729921 553.138773 
L 1035.345543 560.348862 
L 1035.961165 569.57762 
L 1036.576787 584.021289 
L 1037.19241 590.613316 
L 1037.808032 590.61346 
L 1038.423654 589.161012 
L 1039.039276 580.887623 
L 1039.654898 585.750709 
L 1040.270521 585.750778 
L 1040.886143 595.712029 
L 1041.501765 596.596643 
L 1042.117387 601.028654 
L 1043.348632 601.612402 
L 1043.964254 604.617438 
L 1044.579876 608.532117 
L 1045.195499 607.907 
L 1045.811121 600.625561 
L 1046.426743 607.555836 
L 1047.042365 584.55996 
L 1047.657988 597.576264 
L 1048.27361 602.638023 
L 1049.504854 189.398557 
L 1050.120477 394.497819 
L 1050.736099 456.999786 
L 1051.967343 523.806633 
L 1052.582966 568.199478 
L 1053.198588 589.748866 
L 1053.81421 597.307268 
L 1054.429832 599.077309 
L 1055.045455 599.077323 
L 1055.661077 602.347597 
L 1056.276699 600.712492 
L 1056.892321 603.802715 
L 1057.507944 609.583713 
L 1058.123566 605.544829 
L 1058.739188 607.56428 
L 1059.35481 578.321432 
L 1060.586055 599.164497 
L 1061.201677 601.901629 
L 1061.817299 600.199853 
L 1062.432921 599.518399 
L 1063.048544 589.474315 
L 1063.664166 556.496886 
L 1064.279788 585.075916 
L 1064.89541 598.892782 
L 1065.511033 602.255326 
L 1066.126655 608.832125 
L 1066.742277 608.217382 
L 1067.357899 608.249165 
L 1067.973522 608.526756 
L 1068.589144 607.825798 
L 1069.204766 606.827876 
L 1069.820388 607.321935 
L 1070.436011 605.506962 
L 1071.051633 609.826493 
L 1071.667255 611.26807 
L 1072.282877 610.38723 
L 1072.8985 597.962281 
L 1073.514122 603.248767 
L 1074.129744 606.817927 
L 1074.745366 598.849678 
L 1075.360989 602.753523 
L 1075.976611 600.743793 
L 1076.592233 567.404167 
L 1077.823477 584.074026 
L 1078.4391 590.457169 
L 1079.054722 598.422544 
L 1079.670344 604.831397 
L 1080.285966 581.551578 
L 1080.901589 582.896798 
L 1081.517211 593.864143 
L 1082.132833 590.769094 
L 1082.748455 583.737971 
L 1083.364078 590.289141 
L 1083.9797 588.197138 
L 1084.595322 583.998388 
L 1085.826567 599.95375 
L 1086.442189 565.757942 
L 1087.673433 550.318999 
L 1088.289056 558.038529 
L 1088.904678 554.178838 
L 1089.5203 556.122343 
L 1090.135922 579.646011 
L 1090.751545 592.458823 
L 1091.367167 585.055646 
L 1091.982789 590.105793 
L 1092.598411 603.31484 
L 1093.214034 608.443518 
L 1093.829656 607.058398 
L 1094.445278 611.211555 
L 1095.0609 603.877649 
L 1095.676523 607.41544 
L 1096.292145 594.504358 
L 1096.907767 598.652626 
L 1097.523389 598.498185 
L 1098.139011 598.557674 
L 1098.754634 590.075475 
L 1099.370256 594.312166 
L 1099.985878 599.618009 
L 1100.6015 565.857031 
L 1101.217123 582.790123 
L 1101.832745 590.219149 
L 1102.448367 588.880723 
L 1103.063989 589.832579 
L 1103.679612 578.978454 
L 1104.295234 588.313314 
L 1104.910856 583.645904 
L 1105.526478 585.979619 
L 1106.142101 582.392999 
L 1106.757723 581.783401 
L 1107.373345 580.732204 
L 1107.988967 567.329524 
L 1108.60459 574.365076 
L 1109.220212 570.418749 
L 1109.835834 582.455169 
L 1110.451456 575.474542 
L 1111.067079 578.965011 
L 1112.298323 601.941655 
L 1112.913945 597.719163 
L 1113.529568 599.830415 
L 1114.14519 602.569914 
L 1115.376434 602.570082 
L 1115.992056 601.310378 
L 1116.607679 599.441309 
L 1117.223301 599.441364 
L 1117.838923 603.631151 
L 1118.454545 598.778224 
L 1119.070168 600.482068 
L 1120.301412 563.808167 
L 1120.917034 569.324255 
L 1121.532657 582.692474 
L 1122.148279 576.008427 
L 1122.763901 580.125223 
L 1123.379523 591.461545 
L 1123.995146 600.100005 
L 1124.610768 595.780907 
L 1125.22639 604.105854 
L 1125.842012 608.337678 
L 1126.457635 607.761692 
L 1127.073257 608.049693 
L 1127.688879 602.616471 
L 1128.304501 606.928361 
L 1128.920124 610.276666 
L 1129.535746 590.267263 
L 1130.151368 600.271968 
L 1130.76699 604.894027 
L 1131.382613 602.583052 
L 1131.998235 603.492293 
L 1133.229479 583.63183 
L 1133.845102 583.936924 
L 1134.460724 580.854014 
L 1135.076346 584.410408 
L 1135.691968 506.39978 
L 1136.30759 447.891809 
L 1136.923213 529.253613 
L 1137.538835 542.717315 
L 1138.154457 509.601903 
L 1138.770079 532.18085 
L 1139.385702 543.983652 
L 1140.001324 544.697251 
L 1140.616946 515.134344 
L 1141.232568 561.705423 
L 1141.848191 566.899036 
L 1142.463813 582.903747 
L 1143.079435 578.90271 
L 1143.695057 586.046083 
L 1144.31068 585.986945 
L 1145.541924 602.282722 
L 1146.157546 597.89773 
L 1146.773169 597.897929 
L 1148.004413 599.683198 
L 1148.620035 599.683199 
L 1149.235658 604.559881 
L 1149.85128 602.046591 
L 1150.466902 603.439033 
L 1151.082524 588.225192 
L 1151.698147 596.247897 
L 1152.313769 592.236554 
L 1152.929391 602.814774 
L 1153.545013 588.263188 
L 1154.160635 578.38306 
L 1154.776258 592.000465 
L 1155.39188 582.783282 
L 1156.007502 586.2919 
L 1156.623124 585.266959 
L 1157.238747 582.822771 
L 1157.854369 595.38705 
L 1158.469991 596.955683 
L 1159.085613 601.44175 
L 1159.701236 552.554616 
L 1160.316858 576.01905 
L 1160.93248 580.130534 
L 1161.548102 579.009768 
L 1162.163725 578.874417 
L 1162.779347 585.349002 
L 1163.394969 569.351384 
L 1164.010591 550.433718 
L 1164.626214 573.760425 
L 1165.241836 588.465052 
L 1165.857458 581.112752 
L 1166.47308 591.956823 
L 1167.704325 587.639267 
L 1168.319947 570.913904 
L 1168.935569 566.780491 
L 1169.551192 574.186883 
L 1170.166814 594.201263 
L 1170.782436 588.91973 
L 1171.398058 590.188173 
L 1172.01368 588.867759 
L 1172.629303 594.130792 
L 1173.244925 594.814987 
L 1173.860547 576.033847 
L 1174.476169 582.167007 
L 1175.091792 564.290395 
L 1175.707414 572.941835 
L 1176.323036 587.281895 
L 1176.938658 586.423694 
L 1177.554281 590.255108 
L 1178.169903 583.854115 
L 1178.785525 593.174777 
L 1179.401147 585.447592 
L 1180.01677 592.472419 
L 1180.632392 595.319201 
L 1181.248014 593.896099 
L 1181.863636 594.607896 
L 1182.479259 586.76291 
L 1183.094881 598.244154 
L 1183.710503 521.495133 
L 1184.326125 516.440493 
L 1186.172992 588.708446 
L 1186.788614 538.086034 
L 1187.404237 560.991674 
L 1188.019859 564.275312 
L 1188.635481 562.633607 
L 1189.251103 584.01893 
L 1189.866726 575.382603 
L 1190.482348 585.343892 
L 1191.09797 580.363258 
L 1191.713592 580.363399 
L 1192.329214 582.853716 
L 1192.944837 580.302916 
L 1193.560459 582.721429 
L 1194.176081 581.299424 
L 1194.791703 501.188044 
L 1195.407326 557.529273 
L 1196.022948 563.011594 
L 1196.63857 588.449257 
L 1197.254192 585.826296 
L 1197.869815 540.91671 
L 1198.485437 560.371834 
L 1199.101059 575.431321 
L 1199.716681 587.327177 
L 1200.332304 594.139224 
L 1200.947926 591.431599 
L 1201.563548 578.42457 
L 1202.17917 572.554877 
L 1202.794793 589.279792 
L 1203.410415 571.866117 
L 1204.026037 577.297936 
L 1204.641659 589.196602 
L 1205.257282 583.106911 
L 1206.488526 583.106923 
L 1207.104148 593.140594 
L 1207.719771 586.054086 
L 1208.335393 568.669343 
L 1208.951015 580.180072 
L 1209.566637 574.424898 
L 1210.797882 595.137376 
L 1211.413504 600.571042 
L 1212.029126 589.76391 
L 1212.644748 599.281957 
L 1213.260371 593.907495 
L 1213.875993 585.138129 
L 1214.491615 585.138162 
L 1215.107237 595.571435 
L 1215.72286 603.306933 
L 1216.954104 595.230947 
L 1217.569726 595.230978 
L 1218.185349 585.038405 
L 1219.416593 590.134711 
L 1220.032215 586.228813 
L 1220.647838 528.259998 
L 1221.26346 537.336891 
L 1221.879082 536.048669 
L 1222.494704 536.895813 
L 1223.110327 569.927138 
L 1223.725949 566.692732 
L 1224.341571 568.996712 
L 1224.957193 572.022336 
L 1225.572816 567.687776 
L 1226.188438 589.619331 
L 1226.80406 578.735499 
L 1227.419682 578.544417 
L 1228.035305 584.082082 
L 1228.650927 579.253786 
L 1229.266549 576.080271 
L 1231.113416 111.6 
L 1232.34466 291.200061 
L 1232.960282 332.774136 
L 1233.575905 417.181623 
L 1234.191527 237.666373 
L 1237.88526 240.568758 
L 1238.500883 376.720078 
L 1239.116505 418.942286 
L 1239.732127 453.540197 
L 1240.347749 496.733129 
L 1240.963372 475.136796 
L 1241.578994 485.57196 
L 1242.194616 512.749011 
L 1242.810238 533.131799 
L 1243.425861 565.961698 
L 1244.041483 554.005559 
L 1245.272727 558.567133 
L 1245.272727 558.567133 
" style="fill:none;stroke:#ff7f0e;stroke-linecap:square;stroke-width:1.5;"/>
   </g>
   <g id="patch_3">
    <path d="M 180 640.8 
L 180 86.4 
" style="fill:none;stroke:#000000;stroke-linecap:square;stroke-linejoin:miter;stroke-width:0.8;"/>
   </g>
   <g id="patch_4">
    <path d="M 1296 640.8 
L 1296 86.4 
" style="fill:none;stroke:#000000;stroke-linecap:square;stroke-linejoin:miter;stroke-width:0.8;"/>
   </g>
   <g id="patch_5">
    <path d="M 180 640.8 
L 1296 640.8 
" style="fill:none;stroke:#000000;stroke-linecap:square;stroke-linejoin:miter;stroke-width:0.8;"/>
   </g>
   <g id="patch_6">
    <path d="M 180 86.4 
L 1296 86.4 
" style="fill:none;stroke:#000000;stroke-linecap:square;stroke-linejoin:miter;stroke-width:0.8;"/>
   </g>
  </g>
 </g>
 <defs>
  <clipPath id="pf1e655c60e">
   <rect height="554.4" width="1116" x="180" y="86.4"/>
  </clipPath>
 </defs>
</svg>
