<?xml version="1.0" encoding="utf-8" standalone="no"?>
<!DOCTYPE svg PUBLIC "-//W3C//DTD SVG 1.1//EN"
  "http://www.w3.org/Graphics/SVG/1.1/DTD/svg11.dtd">
<svg height="345.6pt" version="1.1" viewBox="0 0 460.8 345.6" width="460.8pt" xmlns="http://www.w3.org/2000/svg" xmlns:xlink="http://www.w3.org/1999/xlink">
 <metadata>
  <rdf:RDF xmlns:cc="http://creativecommons.org/ns#" xmlns:dc="http://purl.org/dc/elements/1.1/" xmlns:rdf="http://www.w3.org/1999/02/22-rdf-syntax-ns#">
   <cc:Work>
    <dc:type rdf:resource="http://purl.org/dc/dcmitype/StillImage"/>
    <dc:date>2022-01-06T21:58:35.563909</dc:date>
    <dc:format>image/svg+xml</dc:format>
    <dc:creator>
     <cc:Agent>
      <dc:title>Matplotlib v3.4.3, https://matplotlib.org/</dc:title>
     </cc:Agent>
    </dc:creator>
   </cc:Work>
  </rdf:RDF>
 </metadata>
 <defs>
  <style type="text/css">*{stroke-linecap:butt;stroke-linejoin:round;}</style>
 </defs>
 <g id="figure_1">
  <g id="patch_1">
   <path d="M 0 345.6 
L 460.8 345.6 
L 460.8 0 
L 0 0 
z
" style="fill:#ffffff;"/>
  </g>
  <g id="axes_1">
   <g id="patch_2">
    <path d="M 57.6 307.584 
L 414.72 307.584 
L 414.72 41.472 
L 57.6 41.472 
z
" style="fill:#ffffff;"/>
   </g>
   <g id="matplotlib.axis_1">
    <g id="xtick_1">
     <g id="line2d_1">
      <defs>
       <path d="M 0 0 
L 0 3.5 
" id="mea32b2f222" style="stroke:#000000;stroke-width:0.8;"/>
      </defs>
      <g>
       <use style="stroke:#000000;stroke-width:0.8;" x="73.832727" xlink:href="#mea32b2f222" y="307.584"/>
      </g>
     </g>
     <g id="text_1">
      <!-- 39000 -->
      <g transform="translate(57.926477 322.182437)scale(0.1 -0.1)">
       <defs>
        <path d="M 2597 2516 
Q 3050 2419 3304 2112 
Q 3559 1806 3559 1356 
Q 3559 666 3084 287 
Q 2609 -91 1734 -91 
Q 1441 -91 1130 -33 
Q 819 25 488 141 
L 488 750 
Q 750 597 1062 519 
Q 1375 441 1716 441 
Q 2309 441 2620 675 
Q 2931 909 2931 1356 
Q 2931 1769 2642 2001 
Q 2353 2234 1838 2234 
L 1294 2234 
L 1294 2753 
L 1863 2753 
Q 2328 2753 2575 2939 
Q 2822 3125 2822 3475 
Q 2822 3834 2567 4026 
Q 2313 4219 1838 4219 
Q 1578 4219 1281 4162 
Q 984 4106 628 3988 
L 628 4550 
Q 988 4650 1302 4700 
Q 1616 4750 1894 4750 
Q 2613 4750 3031 4423 
Q 3450 4097 3450 3541 
Q 3450 3153 3228 2886 
Q 3006 2619 2597 2516 
z
" id="DejaVuSans-33" transform="scale(0.015625)"/>
        <path d="M 703 97 
L 703 672 
Q 941 559 1184 500 
Q 1428 441 1663 441 
Q 2288 441 2617 861 
Q 2947 1281 2994 2138 
Q 2813 1869 2534 1725 
Q 2256 1581 1919 1581 
Q 1219 1581 811 2004 
Q 403 2428 403 3163 
Q 403 3881 828 4315 
Q 1253 4750 1959 4750 
Q 2769 4750 3195 4129 
Q 3622 3509 3622 2328 
Q 3622 1225 3098 567 
Q 2575 -91 1691 -91 
Q 1453 -91 1209 -44 
Q 966 3 703 97 
z
M 1959 2075 
Q 2384 2075 2632 2365 
Q 2881 2656 2881 3163 
Q 2881 3666 2632 3958 
Q 2384 4250 1959 4250 
Q 1534 4250 1286 3958 
Q 1038 3666 1038 3163 
Q 1038 2656 1286 2365 
Q 1534 2075 1959 2075 
z
" id="DejaVuSans-39" transform="scale(0.015625)"/>
        <path d="M 2034 4250 
Q 1547 4250 1301 3770 
Q 1056 3291 1056 2328 
Q 1056 1369 1301 889 
Q 1547 409 2034 409 
Q 2525 409 2770 889 
Q 3016 1369 3016 2328 
Q 3016 3291 2770 3770 
Q 2525 4250 2034 4250 
z
M 2034 4750 
Q 2819 4750 3233 4129 
Q 3647 3509 3647 2328 
Q 3647 1150 3233 529 
Q 2819 -91 2034 -91 
Q 1250 -91 836 529 
Q 422 1150 422 2328 
Q 422 3509 836 4129 
Q 1250 4750 2034 4750 
z
" id="DejaVuSans-30" transform="scale(0.015625)"/>
       </defs>
       <use xlink:href="#DejaVuSans-33"/>
       <use x="63.623047" xlink:href="#DejaVuSans-39"/>
       <use x="127.246094" xlink:href="#DejaVuSans-30"/>
       <use x="190.869141" xlink:href="#DejaVuSans-30"/>
       <use x="254.492188" xlink:href="#DejaVuSans-30"/>
      </g>
     </g>
    </g>
    <g id="xtick_2">
     <g id="line2d_2">
      <g>
       <use style="stroke:#000000;stroke-width:0.8;" x="123.082507" xlink:href="#mea32b2f222" y="307.584"/>
      </g>
     </g>
     <g id="text_2">
      <!-- 39250 -->
      <g transform="translate(107.176257 322.182437)scale(0.1 -0.1)">
       <defs>
        <path d="M 1228 531 
L 3431 531 
L 3431 0 
L 469 0 
L 469 531 
Q 828 903 1448 1529 
Q 2069 2156 2228 2338 
Q 2531 2678 2651 2914 
Q 2772 3150 2772 3378 
Q 2772 3750 2511 3984 
Q 2250 4219 1831 4219 
Q 1534 4219 1204 4116 
Q 875 4013 500 3803 
L 500 4441 
Q 881 4594 1212 4672 
Q 1544 4750 1819 4750 
Q 2544 4750 2975 4387 
Q 3406 4025 3406 3419 
Q 3406 3131 3298 2873 
Q 3191 2616 2906 2266 
Q 2828 2175 2409 1742 
Q 1991 1309 1228 531 
z
" id="DejaVuSans-32" transform="scale(0.015625)"/>
        <path d="M 691 4666 
L 3169 4666 
L 3169 4134 
L 1269 4134 
L 1269 2991 
Q 1406 3038 1543 3061 
Q 1681 3084 1819 3084 
Q 2600 3084 3056 2656 
Q 3513 2228 3513 1497 
Q 3513 744 3044 326 
Q 2575 -91 1722 -91 
Q 1428 -91 1123 -41 
Q 819 9 494 109 
L 494 744 
Q 775 591 1075 516 
Q 1375 441 1709 441 
Q 2250 441 2565 725 
Q 2881 1009 2881 1497 
Q 2881 1984 2565 2268 
Q 2250 2553 1709 2553 
Q 1456 2553 1204 2497 
Q 953 2441 691 2322 
L 691 4666 
z
" id="DejaVuSans-35" transform="scale(0.015625)"/>
       </defs>
       <use xlink:href="#DejaVuSans-33"/>
       <use x="63.623047" xlink:href="#DejaVuSans-39"/>
       <use x="127.246094" xlink:href="#DejaVuSans-32"/>
       <use x="190.869141" xlink:href="#DejaVuSans-35"/>
       <use x="254.492188" xlink:href="#DejaVuSans-30"/>
      </g>
     </g>
    </g>
    <g id="xtick_3">
     <g id="line2d_3">
      <g>
       <use style="stroke:#000000;stroke-width:0.8;" x="172.332286" xlink:href="#mea32b2f222" y="307.584"/>
      </g>
     </g>
     <g id="text_3">
      <!-- 39500 -->
      <g transform="translate(156.426036 322.182437)scale(0.1 -0.1)">
       <use xlink:href="#DejaVuSans-33"/>
       <use x="63.623047" xlink:href="#DejaVuSans-39"/>
       <use x="127.246094" xlink:href="#DejaVuSans-35"/>
       <use x="190.869141" xlink:href="#DejaVuSans-30"/>
       <use x="254.492188" xlink:href="#DejaVuSans-30"/>
      </g>
     </g>
    </g>
    <g id="xtick_4">
     <g id="line2d_4">
      <g>
       <use style="stroke:#000000;stroke-width:0.8;" x="221.582065" xlink:href="#mea32b2f222" y="307.584"/>
      </g>
     </g>
     <g id="text_4">
      <!-- 39750 -->
      <g transform="translate(205.675815 322.182437)scale(0.1 -0.1)">
       <defs>
        <path d="M 525 4666 
L 3525 4666 
L 3525 4397 
L 1831 0 
L 1172 0 
L 2766 4134 
L 525 4134 
L 525 4666 
z
" id="DejaVuSans-37" transform="scale(0.015625)"/>
       </defs>
       <use xlink:href="#DejaVuSans-33"/>
       <use x="63.623047" xlink:href="#DejaVuSans-39"/>
       <use x="127.246094" xlink:href="#DejaVuSans-37"/>
       <use x="190.869141" xlink:href="#DejaVuSans-35"/>
       <use x="254.492188" xlink:href="#DejaVuSans-30"/>
      </g>
     </g>
    </g>
    <g id="xtick_5">
     <g id="line2d_5">
      <g>
       <use style="stroke:#000000;stroke-width:0.8;" x="270.831845" xlink:href="#mea32b2f222" y="307.584"/>
      </g>
     </g>
     <g id="text_5">
      <!-- 40000 -->
      <g transform="translate(254.925595 322.182437)scale(0.1 -0.1)">
       <defs>
        <path d="M 2419 4116 
L 825 1625 
L 2419 1625 
L 2419 4116 
z
M 2253 4666 
L 3047 4666 
L 3047 1625 
L 3713 1625 
L 3713 1100 
L 3047 1100 
L 3047 0 
L 2419 0 
L 2419 1100 
L 313 1100 
L 313 1709 
L 2253 4666 
z
" id="DejaVuSans-34" transform="scale(0.015625)"/>
       </defs>
       <use xlink:href="#DejaVuSans-34"/>
       <use x="63.623047" xlink:href="#DejaVuSans-30"/>
       <use x="127.246094" xlink:href="#DejaVuSans-30"/>
       <use x="190.869141" xlink:href="#DejaVuSans-30"/>
       <use x="254.492188" xlink:href="#DejaVuSans-30"/>
      </g>
     </g>
    </g>
    <g id="xtick_6">
     <g id="line2d_6">
      <g>
       <use style="stroke:#000000;stroke-width:0.8;" x="320.081624" xlink:href="#mea32b2f222" y="307.584"/>
      </g>
     </g>
     <g id="text_6">
      <!-- 40250 -->
      <g transform="translate(304.175374 322.182437)scale(0.1 -0.1)">
       <use xlink:href="#DejaVuSans-34"/>
       <use x="63.623047" xlink:href="#DejaVuSans-30"/>
       <use x="127.246094" xlink:href="#DejaVuSans-32"/>
       <use x="190.869141" xlink:href="#DejaVuSans-35"/>
       <use x="254.492188" xlink:href="#DejaVuSans-30"/>
      </g>
     </g>
    </g>
    <g id="xtick_7">
     <g id="line2d_7">
      <g>
       <use style="stroke:#000000;stroke-width:0.8;" x="369.331403" xlink:href="#mea32b2f222" y="307.584"/>
      </g>
     </g>
     <g id="text_7">
      <!-- 40500 -->
      <g transform="translate(353.425153 322.182437)scale(0.1 -0.1)">
       <use xlink:href="#DejaVuSans-34"/>
       <use x="63.623047" xlink:href="#DejaVuSans-30"/>
       <use x="127.246094" xlink:href="#DejaVuSans-35"/>
       <use x="190.869141" xlink:href="#DejaVuSans-30"/>
       <use x="254.492188" xlink:href="#DejaVuSans-30"/>
      </g>
     </g>
    </g>
   </g>
   <g id="matplotlib.axis_2">
    <g id="ytick_1">
     <g id="line2d_8">
      <defs>
       <path d="M 0 0 
L -3.5 0 
" id="mc4d4dc5c7a" style="stroke:#000000;stroke-width:0.8;"/>
      </defs>
      <g>
       <use style="stroke:#000000;stroke-width:0.8;" x="57.6" xlink:href="#mc4d4dc5c7a" y="307.584"/>
      </g>
     </g>
     <g id="text_8">
      <!-- 0 -->
      <g transform="translate(44.2375 311.383219)scale(0.1 -0.1)">
       <use xlink:href="#DejaVuSans-30"/>
      </g>
     </g>
    </g>
    <g id="ytick_2">
     <g id="line2d_9">
      <g>
       <use style="stroke:#000000;stroke-width:0.8;" x="57.6" xlink:href="#mc4d4dc5c7a" y="263.232"/>
      </g>
     </g>
     <g id="text_9">
      <!-- 2 -->
      <g transform="translate(44.2375 267.031219)scale(0.1 -0.1)">
       <use xlink:href="#DejaVuSans-32"/>
      </g>
     </g>
    </g>
    <g id="ytick_3">
     <g id="line2d_10">
      <g>
       <use style="stroke:#000000;stroke-width:0.8;" x="57.6" xlink:href="#mc4d4dc5c7a" y="218.88"/>
      </g>
     </g>
     <g id="text_10">
      <!-- 4 -->
      <g transform="translate(44.2375 222.679219)scale(0.1 -0.1)">
       <use xlink:href="#DejaVuSans-34"/>
      </g>
     </g>
    </g>
    <g id="ytick_4">
     <g id="line2d_11">
      <g>
       <use style="stroke:#000000;stroke-width:0.8;" x="57.6" xlink:href="#mc4d4dc5c7a" y="174.528"/>
      </g>
     </g>
     <g id="text_11">
      <!-- 6 -->
      <g transform="translate(44.2375 178.327219)scale(0.1 -0.1)">
       <defs>
        <path d="M 2113 2584 
Q 1688 2584 1439 2293 
Q 1191 2003 1191 1497 
Q 1191 994 1439 701 
Q 1688 409 2113 409 
Q 2538 409 2786 701 
Q 3034 994 3034 1497 
Q 3034 2003 2786 2293 
Q 2538 2584 2113 2584 
z
M 3366 4563 
L 3366 3988 
Q 3128 4100 2886 4159 
Q 2644 4219 2406 4219 
Q 1781 4219 1451 3797 
Q 1122 3375 1075 2522 
Q 1259 2794 1537 2939 
Q 1816 3084 2150 3084 
Q 2853 3084 3261 2657 
Q 3669 2231 3669 1497 
Q 3669 778 3244 343 
Q 2819 -91 2113 -91 
Q 1303 -91 875 529 
Q 447 1150 447 2328 
Q 447 3434 972 4092 
Q 1497 4750 2381 4750 
Q 2619 4750 2861 4703 
Q 3103 4656 3366 4563 
z
" id="DejaVuSans-36" transform="scale(0.015625)"/>
       </defs>
       <use xlink:href="#DejaVuSans-36"/>
      </g>
     </g>
    </g>
    <g id="ytick_5">
     <g id="line2d_12">
      <g>
       <use style="stroke:#000000;stroke-width:0.8;" x="57.6" xlink:href="#mc4d4dc5c7a" y="130.176"/>
      </g>
     </g>
     <g id="text_12">
      <!-- 8 -->
      <g transform="translate(44.2375 133.975219)scale(0.1 -0.1)">
       <defs>
        <path d="M 2034 2216 
Q 1584 2216 1326 1975 
Q 1069 1734 1069 1313 
Q 1069 891 1326 650 
Q 1584 409 2034 409 
Q 2484 409 2743 651 
Q 3003 894 3003 1313 
Q 3003 1734 2745 1975 
Q 2488 2216 2034 2216 
z
M 1403 2484 
Q 997 2584 770 2862 
Q 544 3141 544 3541 
Q 544 4100 942 4425 
Q 1341 4750 2034 4750 
Q 2731 4750 3128 4425 
Q 3525 4100 3525 3541 
Q 3525 3141 3298 2862 
Q 3072 2584 2669 2484 
Q 3125 2378 3379 2068 
Q 3634 1759 3634 1313 
Q 3634 634 3220 271 
Q 2806 -91 2034 -91 
Q 1263 -91 848 271 
Q 434 634 434 1313 
Q 434 1759 690 2068 
Q 947 2378 1403 2484 
z
M 1172 3481 
Q 1172 3119 1398 2916 
Q 1625 2713 2034 2713 
Q 2441 2713 2670 2916 
Q 2900 3119 2900 3481 
Q 2900 3844 2670 4047 
Q 2441 4250 2034 4250 
Q 1625 4250 1398 4047 
Q 1172 3844 1172 3481 
z
" id="DejaVuSans-38" transform="scale(0.015625)"/>
       </defs>
       <use xlink:href="#DejaVuSans-38"/>
      </g>
     </g>
    </g>
    <g id="ytick_6">
     <g id="line2d_13">
      <g>
       <use style="stroke:#000000;stroke-width:0.8;" x="57.6" xlink:href="#mc4d4dc5c7a" y="85.824"/>
      </g>
     </g>
     <g id="text_13">
      <!-- 10 -->
      <g transform="translate(37.875 89.623219)scale(0.1 -0.1)">
       <defs>
        <path d="M 794 531 
L 1825 531 
L 1825 4091 
L 703 3866 
L 703 4441 
L 1819 4666 
L 2450 4666 
L 2450 531 
L 3481 531 
L 3481 0 
L 794 0 
L 794 531 
z
" id="DejaVuSans-31" transform="scale(0.015625)"/>
       </defs>
       <use xlink:href="#DejaVuSans-31"/>
       <use x="63.623047" xlink:href="#DejaVuSans-30"/>
      </g>
     </g>
    </g>
    <g id="ytick_7">
     <g id="line2d_14">
      <g>
       <use style="stroke:#000000;stroke-width:0.8;" x="57.6" xlink:href="#mc4d4dc5c7a" y="41.472"/>
      </g>
     </g>
     <g id="text_14">
      <!-- 12 -->
      <g transform="translate(37.875 45.271219)scale(0.1 -0.1)">
       <use xlink:href="#DejaVuSans-31"/>
       <use x="63.623047" xlink:href="#DejaVuSans-32"/>
      </g>
     </g>
    </g>
   </g>
   <g id="line2d_15">
    <path clip-path="url(#pac4be0cefb)" d="M 73.832727 301.758402 
L 74.029726 301.859284 
L 73.832727 301.541173 
L 74.423725 301.183558 
L 74.620724 300.592899 
L 74.817723 301.24932 
L 75.211721 294.083238 
L 75.40872 300.35325 
L 75.211721 303.488256 
L 75.605719 301.678404 
L 75.802718 286.111336 
L 76.196717 298.288331 
L 76.393716 296.978444 
L 76.787714 300.010642 
L 76.984713 299.939597 
L 77.378711 303.51841 
L 77.575711 304.806465 
L 77.969709 303.383316 
L 78.166708 303.631671 
L 78.363707 304.596037 
L 78.560706 302.515178 
L 78.757705 302.864162 
L 79.151703 296.235206 
L 79.545702 302.262736 
L 79.9397 302.892909 
L 80.333698 304.751974 
L 80.530697 304.15136 
L 80.924695 305.548547 
L 81.121695 305.36168 
L 81.515693 303.733443 
L 81.712692 288.677844 
L 82.10669 300.958907 
L 82.303447 -1 
M 82.304202 -1 
L 82.697688 215.258899 
L 83.288685 286.308747 
L 83.485684 290.585436 
L 83.682683 297.466913 
L 83.879682 298.528824 
L 84.076681 300.244495 
L 84.47068 299.099773 
L 84.667679 298.984578 
L 84.864678 300.93867 
L 85.061677 299.778185 
L 85.258676 299.662291 
L 85.455675 298.260885 
L 86.046673 302.215955 
L 86.243672 301.719508 
L 86.63767 303.092936 
L 86.834669 301.597601 
L 87.031668 303.887821 
L 87.228667 302.056767 
L 87.425666 262.473396 
L 87.622665 289.285241 
L 87.819665 294.516683 
L 88.016664 295.189358 
L 88.213663 297.855435 
L 88.410662 293.498657 
L 88.80466 300.486878 
L 89.198658 296.963124 
L 89.395658 300.440693 
L 89.592657 300.877439 
L 89.986655 296.984301 
L 90.183654 297.12897 
L 90.380653 298.026998 
L 90.577652 297.215141 
L 90.774651 293.040668 
L 90.97165 296.521453 
L 91.365649 298.588294 
L 91.562648 280.220823 
L 91.956646 297.169016 
L 92.153645 296.663003 
L 92.350644 292.268653 
L 92.547643 291.11305 
L 92.744643 293.880909 
L 92.941642 298.75695 
L 93.33564 301.076947 
L 93.729638 297.480331 
L 93.926637 292.63105 
L 94.123636 295.669525 
L 94.320635 296.554285 
L 94.714634 302.421494 
L 94.911633 302.075498 
L 95.108632 302.04751 
L 95.50263 300.261211 
L 95.699629 299.93843 
L 95.896628 293.346708 
L 96.290627 298.897682 
L 96.487626 300.045481 
L 96.684625 299.77463 
L 96.881624 298.797515 
L 97.078623 300.846946 
L 97.275622 301.62782 
L 97.472621 303.653373 
L 97.66962 289.913832 
L 98.063619 298.361269 
L 98.260618 296.705109 
L 98.654616 301.884865 
L 98.851615 301.633054 
L 99.048614 121.039568 
L 99.442613 258.209738 
L 100.230609 298.324849 
L 100.427608 300.676251 
L 100.230609 303.497444 
L 100.427608 301.917118 
L 100.821606 303.623561 
L 101.018605 302.625055 
L 101.215605 302.292611 
L 101.412604 297.794208 
L 101.609603 297.458939 
L 101.806602 299.960668 
L 102.003601 299.866894 
L 102.2006 303.231688 
L 102.594598 297.220008 
L 102.988597 302.581992 
L 103.185596 301.790353 
L 103.382595 299.212261 
L 103.579594 273.458641 
L 103.776593 290.130386 
L 104.170591 300.456229 
L 104.56459 304.997258 
L 104.761589 304.770674 
L 104.958588 291.220333 
L 105.352586 298.4912 
L 105.549585 288.907365 
L 105.943583 300.725377 
L 106.140583 301.977319 
L 106.337582 302.356593 
L 106.534581 303.224969 
L 106.73158 301.485375 
L 106.928579 302.813106 
L 107.125578 302.660722 
L 107.322577 301.216921 
L 107.519576 297.686614 
L 107.716575 300.070966 
L 107.913575 298.945683 
L 108.110574 299.16185 
L 108.307573 300.561008 
L 108.504572 300.037403 
L 108.701571 302.717988 
L 108.89857 301.189706 
L 109.292568 303.527788 
L 109.489568 303.558794 
L 109.686567 302.284969 
L 109.883566 302.689569 
L 110.080565 300.982178 
L 109.883566 300.996661 
L 110.277564 299.757788 
L 110.474563 299.695547 
L 110.671562 302.666118 
L 110.868561 299.852715 
L 111.459559 304.004538 
L 111.656558 303.702069 
L 111.853557 300.47407 
L 112.050556 301.536201 
L 112.247555 301.279531 
L 112.444554 303.662642 
L 113.232551 299.254707 
L 113.42955 289.471354 
L 113.823548 295.993487 
L 114.020547 295.218845 
L 114.217546 283.189526 
L 114.611545 297.787448 
L 114.808544 298.865185 
L 114.611545 299.404053 
L 115.005543 298.612227 
L 115.202542 298.216313 
L 115.399541 301.380202 
L 115.59654 301.343801 
L 115.793539 298.849946 
L 115.990538 298.871361 
L 116.187538 297.229565 
L 116.384537 294.418382 
L 116.581536 297.685252 
L 116.589912 -1 
M 117.718985 -1 
L 117.96053 176.157549 
L 118.354528 272.035134 
L 118.748526 292.433109 
L 118.945525 299.056017 
L 119.142524 300.393368 
L 119.536523 300.078304 
L 119.733522 298.339127 
L 119.930521 301.767181 
L 120.12752 302.146889 
L 120.324519 303.49778 
L 120.521518 300.692758 
L 120.718517 303.98005 
L 120.521518 299.763368 
L 120.915516 297.234394 
L 121.112515 301.331008 
L 121.309515 295.109376 
L 121.703513 302.28384 
L 121.900512 302.526457 
L 122.097511 301.431624 
L 122.29451 301.974554 
L 122.491509 303.82674 
L 122.688508 302.893453 
L 122.885508 301.314288 
L 123.082507 290.501144 
L 123.279506 297.165458 
L 123.476505 298.957469 
L 123.870503 298.523107 
L 124.067502 295.979267 
L 124.264501 297.178793 
L 124.4615 301.254398 
L 124.6585 299.831882 
L 124.855499 300.896024 
L 125.249497 304.950499 
L 125.446496 298.616451 
L 125.643495 298.497386 
L 125.840494 296.67778 
L 126.037493 293.748142 
L 126.234492 296.063231 
L 126.431492 296.063245 
L 126.628491 295.638561 
L 126.82549 297.008441 
L 127.022489 296.323501 
L 127.219488 294.312672 
L 127.416487 299.257398 
L 127.613486 296.161675 
L 128.007485 299.060921 
L 127.613486 295.585047 
L 128.204484 237.091019 
L 128.598482 269.791975 
L 128.795481 269.160787 
L 128.99248 280.474422 
L 129.189479 269.954581 
L 129.583477 288.986605 
L 129.780477 284.69349 
L 129.977476 285.771579 
L 130.174475 293.638974 
L 130.371474 288.122009 
L 130.378689 -1 
M 131.917248 -1 
L 131.947467 38.185502 
L 132.341465 193.312069 
L 132.538464 228.799254 
L 132.735463 196.771691 
L 132.932462 233.127842 
L 133.129462 236.558844 
L 133.52346 289.982397 
L 133.917458 280.336629 
L 134.114457 221.529731 
L 135.099453 293.677581 
L 135.296452 293.765759 
L 135.493451 288.185401 
L 135.69045 290.975593 
L 135.887449 286.261663 
L 136.084448 294.678326 
L 136.281447 297.495064 
L 136.478447 288.437661 
L 136.872445 301.075003 
L 137.069444 298.925635 
L 137.266443 289.000461 
L 137.463442 293.952853 
L 137.660441 269.134362 
L 138.05444 278.772637 
L 138.251439 288.575573 
L 138.448438 289.610158 
L 138.645437 240.348222 
L 138.842436 264.257581 
L 139.236434 280.069849 
L 139.433433 275.984813 
L 139.630432 278.020991 
L 139.827432 291.849958 
L 140.024431 293.633657 
L 140.22143 299.214029 
L 140.418429 299.971097 
L 140.615428 299.932643 
L 140.812427 302.285415 
L 141.009426 297.283309 
L 141.206425 297.490059 
L 141.403425 297.490071 
L 141.600424 284.962555 
L 141.797423 290.934941 
L 141.994422 290.934968 
L 142.191421 297.054248 
L 142.38842 292.565652 
L 142.585419 291.69289 
L 142.782418 296.848845 
L 142.979417 296.724398 
L 143.176417 294.64505 
L 143.373416 268.538469 
L 143.570415 282.631444 
L 143.767414 275.584966 
L 143.964413 275.584983 
L 144.161412 195.589167 
L 144.55541 273.64922 
L 144.75241 108.966785 
L 145.146408 248.885977 
L 145.343407 275.702643 
L 145.540406 284.613529 
L 145.737405 285.70735 
L 145.934404 290.461107 
L 146.131403 288.08429 
L 146.328402 282.129249 
L 146.525402 285.464003 
L 146.722401 281.185861 
L 146.9194 274.106684 
L 146.722401 288.196988 
L 147.116399 293.976001 
L 147.313398 285.801048 
L 147.510397 288.593501 
L 147.707396 88.742479 
L 146.9194 159.4026 
L 147.904395 232.516294 
L 148.101395 258.981413 
L 148.298394 269.334706 
L 148.495393 259.435165 
L 148.889391 279.481781 
L 149.08639 274.868492 
L 149.283389 288.317366 
L 149.480388 292.400847 
L 149.677387 270.885238 
L 149.874387 284.375034 
L 150.071386 290.098958 
L 150.268385 289.286422 
L 150.465384 289.013207 
L 150.859382 301.009372 
L 151.056381 294.874649 
L 151.25338 294.822111 
L 151.45038 285.920899 
L 151.647379 287.87645 
L 151.844378 286.894414 
L 152.238376 291.940639 
L 152.435375 290.427214 
L 152.632374 291.975815 
L 152.829373 284.691128 
L 153.026372 287.55906 
L 153.223372 286.125076 
L 153.61737 300.237147 
L 153.814369 297.855677 
L 154.011368 298.125671 
L 154.208367 298.915526 
L 154.405366 292.657854 
L 154.602365 257.772783 
L 154.799365 273.67883 
L 154.996364 267.954666 
L 155.193363 270.816753 
L 155.390362 276.295697 
L 155.587361 237.439835 
L 155.981359 270.17918 
L 156.178358 270.435416 
L 156.375357 272.548436 
L 156.572357 264.779196 
L 156.769356 267.607321 
L 156.966355 259.69966 
L 157.360353 275.536357 
L 157.557352 274.471126 
L 157.754351 265.982255 
L 157.95135 270.75931 
L 158.14835 265.921199 
L 158.345349 268.340262 
L 158.542348 267.146028 
L 158.14835 266.564152 
L 158.739347 266.48806 
L 159.133345 286.298841 
L 159.330344 290.040447 
L 159.527343 286.765517 
L 159.724342 287.128937 
L 159.921342 290.382468 
L 160.118341 291.520178 
L 160.31534 290.79877 
L 160.709338 295.03262 
L 160.906337 298.939782 
L 161.103336 283.822988 
L 161.497335 293.616098 
L 161.694334 293.616118 
L 161.891333 297.385952 
L 162.088332 287.041571 
L 162.285331 292.528445 
L 162.48233 294.300388 
L 162.285331 293.910099 
L 162.679329 293.882018 
L 162.876328 294.215127 
L 163.073327 295.318605 
L 163.270327 293.858195 
L 163.861324 293.893097 
L 164.058323 47.666036 
L 164.452321 233.09448 
L 164.64932 258.592512 
L 165.043319 261.914184 
L 164.64932 250.733969 
L 165.240318 259.033332 
L 165.437317 257.960858 
L 165.634316 262.533947 
L 165.831315 277.417895 
L 166.028314 279.186948 
L 166.225313 290.781847 
L 166.422312 288.721924 
L 166.619312 288.574956 
L 166.816311 290.493371 
L 167.01331 289.546709 
L 167.210309 291.054893 
L 167.407308 290.746529 
L 167.604307 285.552881 
L 167.998305 289.681756 
L 168.392304 290.369902 
L 168.589303 278.776399 
L 168.786302 289.809751 
L 168.983301 286.478818 
L 169.1803 287.944296 
L 169.377299 291.411926 
L 169.574298 289.678171 
L 169.771297 292.513933 
L 169.968297 298.529011 
L 170.165296 298.779343 
L 170.559294 298.5916 
L 170.756293 298.560324 
L 170.953292 299.368605 
L 171.150291 299.602312 
L 171.34729 299.358342 
L 171.544289 299.464372 
L 171.741289 299.411367 
L 171.938288 283.198736 
L 172.332286 293.664429 
L 172.529285 292.154586 
L 172.726284 292.909526 
L 173.120282 292.909566 
L 173.317282 292.059913 
L 173.514281 293.691324 
L 173.908279 293.105026 
L 174.105278 294.759403 
L 174.499276 293.426187 
L 174.893274 293.825807 
L 175.090274 291.367736 
L 175.287273 296.663951 
L 175.484272 296.664024 
L 175.681271 293.654383 
L 175.87827 292.511089 
L 176.075269 292.821489 
L 175.87827 292.077098 
L 176.469267 291.9651 
L 176.666267 294.432763 
L 176.863266 292.680864 
L 177.060265 293.825271 
L 177.257264 292.036102 
L 177.454263 292.93779 
L 177.848261 291.608401 
L 178.04526 291.461429 
L 178.242259 289.439579 
L 178.439259 290.511886 
L 178.636258 292.387786 
L 179.030256 299.101083 
L 179.424254 299.101313 
L 179.621253 298.273095 
L 179.818252 298.687116 
L 180.015252 298.48013 
L 180.212251 297.389339 
L 180.40925 295.208447 
L 180.606249 285.419424 
L 180.803248 290.371079 
L 181.394245 279.377197 
L 181.591244 283.346609 
L 181.788244 281.361931 
L 181.985243 288.532236 
L 182.182242 285.93944 
L 182.199908 -1 
M 183.075286 -1 
L 183.364237 183.131481 
L 183.758235 240.943512 
L 183.955234 270.731197 
L 184.152233 280.004224 
L 184.349232 280.412528 
L 184.74323 292.368475 
L 184.940229 297.066556 
L 185.137229 298.999515 
L 185.334228 298.033041 
L 185.728226 298.757899 
L 186.122224 299.168195 
L 186.319223 299.047392 
L 186.516222 291.195365 
L 186.713222 295.181786 
L 187.10722 297.765504 
L 187.501218 290.988842 
L 187.698217 292.510214 
L 187.895216 291.852815 
L 188.092215 292.181541 
L 188.289214 296.544787 
L 188.486214 296.504432 
L 188.683213 296.63099 
L 189.077211 294.612048 
L 189.27421 278.386825 
L 189.471209 289.282053 
L 189.668208 291.459027 
L 189.865207 287.658023 
L 190.062207 255.272867 
L 189.865207 271.798581 
L 190.259206 279.014155 
L 190.653204 293.09274 
L 190.850203 293.091162 
L 191.047202 287.172215 
L 191.244201 286.334684 
L 191.638199 298.948553 
L 191.835199 283.142826 
L 192.032198 291.06152 
L 192.229197 289.361154 
L 192.426196 290.215359 
L 192.820194 299.107231 
L 193.017193 301.789623 
L 193.214192 302.476185 
L 193.411192 301.491607 
L 193.214192 302.060383 
L 193.608191 291.702883 
L 193.80519 293.998388 
L 194.002189 291.317081 
L 194.199188 290.767241 
L 194.396187 295.108031 
L 194.593186 295.944024 
L 194.790185 292.289899 
L 194.987184 291.676324 
L 195.184184 294.451042 
L 195.578182 292.197682 
L 195.775181 298.094125 
L 195.97218 297.742594 
L 196.169179 301.028461 
L 196.563177 273.448614 
L 196.957176 283.117865 
L 197.154175 280.024351 
L 197.351174 282.279926 
L 197.548173 252.275458 
L 197.745172 258.840353 
L 197.942171 279.131415 
L 198.13917 280.709407 
L 198.336169 275.966207 
L 198.533169 278.39352 
L 198.927167 288.226419 
L 199.124166 279.724713 
L 199.321165 285.390494 
L 199.518164 282.557617 
L 199.715163 284.609809 
L 200.109162 295.867672 
L 200.306161 288.411836 
L 200.50316 291.47274 
L 200.700159 284.201788 
L 200.897158 288.756604 
L 201.291156 292.171087 
L 201.094157 289.727551 
L 201.488155 280.599803 
L 201.882154 286.89777 
L 202.079153 282.935607 
L 202.276152 285.008958 
L 202.473151 279.233877 
L 202.67015 289.877694 
L 202.867149 289.585981 
L 203.064148 256.238003 
L 203.458147 278.780165 
L 203.655146 280.577665 
L 203.852145 275.900336 
L 204.049144 289.024465 
L 204.246143 281.873152 
L 204.443142 290.121035 
L 204.640141 203.8027 
L 205.034139 269.42943 
L 205.231139 286.099252 
L 205.428138 268.955619 
L 206.019135 284.750437 
L 206.216134 261.018258 
L 206.019135 252.667065 
L 206.807132 288.149617 
L 207.20113 277.478279 
L 207.398129 282.392016 
L 207.595128 282.252878 
L 207.792127 287.407977 
L 207.989126 296.257183 
L 208.186125 291.702871 
L 208.580124 291.725643 
L 208.777123 290.604914 
L 208.974122 291.169079 
L 209.171121 281.196043 
L 209.565119 293.370086 
L 209.762118 292.966581 
L 209.959117 289.968195 
L 210.156117 295.489442 
L 210.353116 292.728912 
L 210.550115 291.944082 
L 210.747114 291.944095 
L 210.944113 291.075225 
L 211.141112 294.150492 
L 211.338111 290.227782 
L 211.53511 290.096672 
L 211.732109 289.454766 
L 211.929109 295.05984 
L 212.126108 292.25731 
L 212.323107 291.347738 
L 212.520106 286.151869 
L 212.717105 292.030922 
L 212.914104 289.198546 
L 213.111103 284.033098 
L 213.702101 296.650378 
L 213.8991 20.925509 
L 214.096099 219.676185 
L 214.293098 253.169093 
L 214.490097 266.994963 
L 214.687096 267.318481 
L 214.884095 270.221358 
L 215.278094 285.442277 
L 215.475093 286.052138 
L 215.672092 285.024686 
L 215.869091 285.843343 
L 216.06609 285.125059 
L 216.263089 293.20419 
L 216.460088 294.165308 
L 216.657087 299.604783 
L 216.854086 300.485157 
L 217.051086 282.727279 
L 217.248085 291.318417 
L 217.445084 283.474408 
L 217.642083 283.099849 
L 217.839082 288.386326 
L 218.036081 279.646575 
L 218.23308 281.373099 
L 218.430079 276.266653 
L 218.627079 286.323899 
L 218.824078 284.998521 
L 219.021077 253.944273 
L 219.218076 280.129302 
L 219.415075 287.02719 
L 219.809073 278.57928 
L 220.006072 291.247781 
L 220.400071 245.359711 
L 220.59707 261.145274 
L 220.991068 96.925758 
L 221.385066 249.548964 
L 221.779064 270.971831 
L 221.582065 263.684013 
L 221.976064 270.291206 
L 222.173063 270.757107 
L 222.370062 271.775094 
L 222.567061 284.966023 
L 222.76406 290.214846 
L 222.961059 291.033839 
L 223.158058 290.71976 
L 223.355057 292.387154 
L 223.552056 298.024873 
L 223.749056 289.490437 
L 223.946055 287.41904 
L 224.143054 295.918233 
L 224.340053 292.268484 
L 224.537052 279.4908 
L 224.93105 288.782188 
L 224.922919 -1 
M 225.874247 -1 
L 225.916046 49.67634 
L 225.719047 58.80417 
L 226.310044 210.145697 
L 226.704042 247.926843 
L 227.098041 231.250897 
L 227.29504 228.451295 
L 227.689038 236.90988 
L 227.886037 269.562447 
L 228.083036 256.103053 
L 228.280035 277.849326 
L 228.477034 198.986103 
L 228.871033 255.046219 
L 229.068032 262.88034 
L 229.265031 249.608224 
L 229.46203 260.903683 
L 230.053027 268.91726 
L 230.447026 259.619365 
L 230.644025 272.797699 
L 230.841024 274.864268 
L 231.038023 256.075174 
L 231.432021 280.145314 
L 231.62902 280.145335 
L 231.826019 283.802942 
L 232.023019 293.860887 
L 232.220018 283.379207 
L 232.614016 281.478034 
L 232.811015 291.575296 
L 233.008014 292.069187 
L 233.205013 291.588556 
L 233.402012 276.246392 
L 233.599011 280.8009 
L 233.796011 278.523717 
L 233.99301 261.419794 
L 234.190009 265.621194 
L 234.387008 267.218979 
L 234.584007 284.994027 
L 234.781006 275.30764 
L 234.978005 170.354138 
L 235.372004 267.737814 
L 235.569003 265.874362 
L 235.766002 266.806111 
L 235.963001 260.431888 
L 236.356999 265.962472 
L 236.553998 263.186475 
L 236.750997 281.770121 
L 236.947996 274.086263 
L 237.144996 280.290443 
L 237.341995 280.623222 
L 237.538994 153.507771 
L 237.341995 216.101107 
L 237.735993 245.961999 
L 237.932992 273.065304 
L 238.129991 272.632222 
L 238.32699 268.690042 
L 238.523989 274.174487 
L 238.720989 269.461174 
L 238.917988 285.813263 
L 239.114987 280.818077 
L 239.311986 283.34201 
L 239.508985 288.921635 
L 239.705984 277.657724 
L 239.902983 274.408966 
L 240.099982 277.682483 
L 240.296981 268.883944 
L 240.493981 285.281932 
L 239.902983 43.360454 
L 240.69098 160.145646 
L 240.887979 220.617727 
L 241.478976 258.92779 
L 241.872974 268.637859 
L 242.069974 270.710455 
L 242.463972 290.105538 
L 242.660971 285.56927 
L 243.251968 281.250054 
L 243.448967 262.782963 
L 243.645966 277.591986 
L 243.842966 275.867796 
L 244.039965 276.900159 
L 244.236964 274.664494 
L 244.433963 38.051735 
L 244.827961 218.683017 
L 245.02496 271.861011 
L 245.221959 271.666533 
L 245.418959 276.311266 
L 245.615958 273.547562 
L 245.812957 272.509808 
L 246.009956 279.585904 
L 246.206955 279.040555 
L 246.403954 275.131781 
L 246.600953 277.342159 
L 246.797952 288.919838 
L 247.191951 272.271428 
L 247.38895 279.466714 
L 247.585949 278.198776 
L 247.979947 273.228939 
L 248.176946 287.00715 
L 248.373945 262.83581 
L 248.570944 258.032874 
L 248.964943 271.1694 
L 249.161942 247.028555 
L 249.358941 261.473413 
L 249.752939 271.639524 
L 249.949938 266.556501 
L 250.146937 130.852651 
L 250.343936 193.624422 
L 250.540936 61.609916 
L 250.737935 102.216583 
L 250.934934 199.007492 
L 251.328932 262.067775 
L 251.525931 259.231985 
L 251.72293 274.059865 
L 251.919929 276.762348 
L 252.116929 283.267188 
L 252.313928 277.769059 
L 252.510927 292.043848 
L 252.707926 290.773612 
L 252.904925 286.94428 
L 253.298923 276.621453 
L 252.904925 276.550089 
L 253.692921 283.667083 
L 254.08692 259.506657 
L 254.283919 270.298233 
L 254.480918 262.90485 
L 254.677917 267.188452 
L 254.874916 267.859026 
L 255.071915 277.218836 
L 255.268914 272.537829 
L 255.465914 274.879635 
L 255.662913 273.711911 
L 255.859912 268.116571 
L 256.056911 276.59747 
L 256.25391 279.908246 
L 256.450909 287.23547 
L 256.647908 281.514995 
L 256.844907 286.145379 
L 257.041906 280.483683 
L 257.238906 283.572841 
L 257.435905 292.443513 
L 257.632904 280.621227 
L 258.026902 288.523212 
L 258.223901 285.88879 
L 258.4209 289.960692 
L 258.617899 287.924766 
L 258.814898 284.440383 
L 259.011898 283.991459 
L 259.208897 284.420149 
L 259.405896 282.163901 
L 259.602895 283.222826 
L 259.799894 272.872028 
L 259.996893 217.146296 
L 260.390891 259.820531 
L 260.78489 283.261546 
L 260.981889 285.512352 
L 261.178888 280.976369 
L 260.981889 276.822092 
L 261.375887 278.237127 
L 261.572886 283.549988 
L 261.769885 280.240413 
L 262.163883 283.451206 
L 261.769885 273.457586 
L 261.909112 -1 
M 262.7622 -1 
L 262.95188 214.481797 
L 263.148879 258.243298 
L 263.542877 269.689739 
L 263.739876 283.530818 
L 263.936876 285.012721 
L 263.542877 278.242388 
L 263.936876 277.586613 
L 264.133875 288.032332 
L 264.330874 284.701339 
L 264.527873 289.790448 
L 264.724872 283.360642 
L 264.921871 243.550277 
L 265.11887 263.49996 
L 265.315869 268.643442 
L 265.512868 280.177035 
L 265.709868 274.425106 
L 265.906867 281.898605 
L 266.103866 239.821052 
L 266.300865 266.873065 
L 266.497864 256.004837 
L 266.694863 258.670103 
L 266.891862 284.029145 
L 267.088861 292.994656 
L 267.679859 280.654632 
L 267.876858 278.208095 
L 268.073857 289.76114 
L 268.270856 283.984625 
L 268.467855 282.115273 
L 268.664854 283.644233 
L 268.861853 282.879815 
L 269.058853 281.554276 
L 269.255852 281.554283 
L 269.452851 282.02089 
L 269.64985 252.4543 
L 269.846849 247.952417 
L 270.043848 265.170118 
L 270.240847 260.783156 
L 270.437846 273.268069 
L 271.028844 271.933152 
L 271.422842 279.65155 
L 271.619841 282.633725 
L 271.81684 281.329238 
L 272.013839 281.973909 
L 272.210838 290.115375 
L 272.407838 286.831321 
L 272.604837 280.037447 
L 272.801836 290.675816 
L 272.998835 290.772266 
L 273.195834 295.990123 
L 273.392833 293.191456 
L 273.786831 293.065953 
L 273.983831 291.807622 
L 274.377829 292.531214 
L 274.574828 286.743607 
L 274.771827 286.458536 
L 274.968826 289.860409 
L 275.165825 287.062062 
L 275.362824 286.861163 
L 275.559823 283.908581 
L 275.953822 299.519678 
L 276.150821 288.225258 
L 275.953822 283.630939 
L 276.34782 279.774605 
L 276.544819 292.585779 
L 276.741818 282.798516 
L 276.938817 279.864677 
L 277.135816 281.298703 
L 277.332816 272.410147 
L 277.529815 276.683074 
L 277.726814 274.497451 
L 277.923813 280.517011 
L 278.120812 279.904354 
L 278.317811 273.308735 
L 278.51481 162.631968 
L 278.711809 202.411277 
L 278.908808 205.258544 
L 279.105808 253.286365 
L 279.302807 265.108601 
L 279.499806 263.221985 
L 279.696805 259.041272 
L 280.090803 288.541247 
L 280.287802 292.287877 
L 280.484801 282.361458 
L 280.681801 287.170518 
L 280.8788 279.802779 
L 281.075799 286.044962 
L 281.272798 284.203034 
L 281.469797 259.532524 
L 281.666796 273.097262 
L 281.469797 279.879631 
L 281.863795 280.417815 
L 282.060794 278.609634 
L 282.257793 282.017865 
L 282.454793 282.017907 
L 282.651792 292.09163 
L 282.848791 292.091635 
L 283.04579 288.029533 
L 283.242789 293.561723 
L 283.439788 285.615857 
L 283.636787 287.215198 
L 283.242789 285.326472 
L 284.030786 289.978155 
L 284.621783 280.876351 
L 285.21278 294.425667 
L 285.409779 293.526332 
L 285.606778 286.776172 
L 285.803778 267.223586 
L 286.197776 284.641418 
L 286.394775 278.124756 
L 286.591774 280.445754 
L 286.788773 243.101608 
L 286.985772 261.53933 
L 287.182771 262.953698 
L 286.591774 243.208776 
L 287.379771 236.050537 
L 287.57677 229.757196 
L 287.773769 258.209598 
L 288.364766 274.930722 
L 288.167767 284.037575 
L 288.561765 283.428028 
L 288.758764 282.4314 
L 288.955763 269.791836 
L 289.349762 286.514183 
L 289.546761 290.075092 
L 289.74376 277.462397 
L 289.940759 285.981829 
L 290.137758 280.589788 
L 290.334757 228.996228 
L 290.728756 279.161142 
L 290.925755 278.96726 
L 291.122754 278.217833 
L 291.319753 251.710729 
L 291.713751 267.951171 
L 291.91075 224.186632 
L 292.107749 259.740534 
L 292.304748 270.348267 
L 292.501748 270.785637 
L 292.698747 277.745325 
L 292.895746 279.283079 
L 293.092745 265.511468 
L 293.880741 280.456032 
L 294.27474 296.034474 
L 294.668738 275.900621 
L 294.865737 286.204583 
L 295.062736 284.255346 
L 295.259735 288.474576 
L 295.456734 289.942871 
L 295.653733 241.435482 
L 295.850733 242.740323 
L 296.244731 271.402081 
L 296.44173 289.159468 
L 296.638729 285.061644 
L 296.835728 288.084784 
L 297.032727 284.520392 
L 297.229726 273.711755 
L 297.426726 285.799745 
L 297.820724 283.377873 
L 298.017723 276.502496 
L 298.411721 280.000554 
L 298.60872 279.459703 
L 298.805719 279.73015 
L 299.199718 280.477592 
L 299.396717 280.171561 
L 299.593716 280.496197 
L 299.790715 280.487073 
L 299.987714 287.8864 
L 300.184713 284.18674 
L 300.381712 294.932833 
L 300.578711 261.912566 
L 300.97271 281.756827 
L 301.169709 297.016726 
L 301.366708 287.263999 
L 301.563707 285.487128 
L 301.957705 262.908713 
L 302.154704 284.613675 
L 302.351703 277.918341 
L 302.548703 278.80317 
L 302.745702 273.887593 
L 302.942701 280.274796 
L 303.533698 271.153394 
L 303.730697 273.985226 
L 304.124695 272.604116 
L 304.321695 283.264597 
L 303.730697 277.677795 
L 304.518694 274.450401 
L 305.109691 261.613122 
L 305.30669 269.726924 
L 305.700688 260.015028 
L 305.897688 275.258645 
L 306.094687 273.728893 
L 306.291686 287.521539 
L 306.488685 280.152294 
L 306.882683 275.999305 
L 307.079682 271.668202 
L 307.276681 279.603236 
L 307.47368 276.724449 
L 307.67068 278.840224 
L 307.867679 282.751112 
L 308.064678 280.795779 
L 308.261677 292.131385 
L 308.064678 283.007984 
L 308.458676 290.995526 
L 308.655675 289.052202 
L 308.852674 282.99152 
L 309.049673 291.3996 
L 309.443672 282.714043 
L 309.640671 283.65097 
L 309.83767 281.557268 
L 310.231668 261.990694 
L 310.428667 218.468555 
L 310.470012 -1 
M 311.069307 -1 
L 311.216664 47.488459 
L 311.413663 170.089416 
L 311.807661 242.9765 
L 312.201659 270.062141 
L 312.398658 270.047668 
L 312.792657 283.480175 
L 312.989656 292.720171 
L 313.186655 286.838085 
L 313.383654 272.802043 
L 313.580653 274.344355 
L 313.777652 267.635222 
L 313.974651 270.989735 
L 314.17165 280.493711 
L 314.36865 275.741739 
L 314.565649 290.268069 
L 314.762648 291.115155 
L 314.959647 290.691638 
L 315.353645 290.691686 
L 315.550644 297.587154 
L 315.747643 292.333797 
L 315.944643 207.461635 
L 315.950543 -1 
M 317.077684 -1 
L 317.323636 166.686433 
L 317.717635 267.758896 
L 317.914634 270.802279 
L 318.111633 282.163347 
L 318.308632 285.952618 
L 318.505631 295.615128 
L 318.70263 297.938214 
L 318.899629 295.062549 
L 318.70263 287.319705 
L 319.490627 290.858042 
L 319.687626 290.732324 
L 319.884625 290.893707 
L 320.278623 289.032307 
L 320.475622 289.342541 
L 320.672621 289.193644 
L 320.86962 289.234118 
L 321.06662 294.659837 
L 321.263619 291.891801 
L 321.460618 296.925984 
L 321.657617 295.793391 
L 321.854616 295.649354 
L 322.051615 295.721464 
L 322.248614 286.326151 
L 322.642613 294.143159 
L 322.839612 294.932388 
L 323.036611 278.272067 
L 323.23361 295.446357 
L 323.430609 284.116443 
L 323.627608 282.065237 
L 323.824607 282.90726 
L 324.218605 283.936581 
L 324.415605 285.408263 
L 324.612604 284.863263 
L 324.809603 294.076912 
L 325.006602 285.503875 
L 325.203601 285.133218 
L 325.4006 293.873945 
L 325.794598 293.846014 
L 325.991598 299.4351 
L 326.188597 295.209937 
L 326.385596 295.895058 
L 326.582595 294.898793 
L 326.779594 295.511647 
L 326.976593 267.172141 
L 327.173592 260.201039 
L 327.370591 277.843727 
L 327.56759 276.378241 
L 327.76459 287.295031 
L 327.961589 286.978515 
L 328.158588 295.116913 
L 328.355587 284.925709 
L 328.749585 299.421734 
L 328.946584 291.156599 
L 329.340583 296.331728 
L 329.537582 286.631283 
L 329.734581 128.392633 
L 329.93158 205.20526 
L 330.128579 100.741024 
L 330.522577 242.540892 
L 330.916575 279.611962 
L 331.113575 280.384086 
L 331.507573 287.540841 
L 331.901571 296.698862 
L 332.09857 296.698925 
L 332.295569 296.066592 
L 332.492568 292.464721 
L 332.689568 294.581895 
L 332.886567 294.581926 
L 333.083566 298.918618 
L 333.280565 299.303741 
L 333.477564 301.233244 
L 333.871562 301.487382 
L 334.26556 304.499923 
L 334.46256 304.227775 
L 334.659559 301.057755 
L 334.856558 304.074893 
L 335.053557 294.063496 
L 335.250556 299.730225 
L 335.447555 301.933893 
L 335.617756 -1 
M 335.699593 -1 
L 336.038553 211.318759 
L 336.235552 238.52938 
L 337.023548 296.322518 
L 337.220547 299.613115 
L 337.417546 300.383714 
L 337.614545 300.38372 
L 337.811545 301.807454 
L 338.008544 301.095601 
L 338.205543 302.440949 
L 338.402542 304.957742 
L 338.599541 303.199389 
L 338.79654 304.07857 
L 338.993539 291.347513 
L 339.387538 300.421672 
L 339.584537 301.613299 
L 339.781536 300.87242 
L 339.978535 300.575745 
L 340.175534 296.202991 
L 340.372533 281.846062 
L 340.766531 300.303379 
L 340.96353 301.767283 
L 341.16053 304.630534 
L 341.357529 304.362902 
L 341.751527 304.497589 
L 342.145525 303.757972 
L 342.342524 303.973063 
L 342.539523 303.182903 
L 342.736523 305.063438 
L 342.933522 305.691038 
L 343.130521 305.307558 
L 343.32752 299.898279 
L 343.721518 303.75364 
L 343.918517 300.284613 
L 344.115516 301.984176 
L 344.312515 301.109228 
L 344.509515 286.594614 
L 345.49451 302.888792 
L 345.691509 292.753778 
L 345.888508 293.339428 
L 346.085508 298.114129 
L 346.282507 296.766681 
L 346.479506 293.705637 
L 346.676505 296.55773 
L 346.873504 295.646964 
L 347.070503 293.819012 
L 347.464501 300.765278 
L 347.6615 285.87792 
L 348.055499 279.15648 
L 348.252498 282.517225 
L 348.449497 280.836885 
L 348.646496 281.683002 
L 349.040494 297.502315 
L 349.237493 294.279295 
L 349.434492 296.477908 
L 349.631492 302.22855 
L 349.828491 304.461351 
L 350.02549 303.858331 
L 350.222489 305.666433 
L 350.419488 302.473572 
L 350.616487 304.013771 
L 350.813486 298.392851 
L 351.010485 300.198826 
L 351.404484 300.157488 
L 351.601483 296.464709 
L 351.995481 300.619111 
L 352.19248 285.921059 
L 352.586478 296.527259 
L 352.783477 295.944567 
L 352.980477 296.358963 
L 353.177476 291.633552 
L 353.374475 295.697542 
L 353.571474 293.665555 
L 353.768473 294.681553 
L 353.965472 293.120096 
L 354.162471 292.854703 
L 354.35947 292.397058 
L 354.55647 286.562118 
L 354.753469 289.625089 
L 354.950468 287.907031 
L 355.147467 293.147162 
L 355.344466 290.108102 
L 355.541465 291.6277 
L 355.935463 301.630725 
L 356.132462 299.792436 
L 356.526461 301.904241 
L 356.920459 301.904314 
L 357.511456 300.542207 
L 357.708455 302.366257 
L 357.905455 300.253505 
L 358.102454 300.995285 
L 358.496452 285.029073 
L 358.693451 287.430537 
L 358.89045 293.250474 
L 359.087449 290.340532 
L 359.284448 292.132805 
L 359.678447 300.828951 
L 359.875446 298.948604 
L 360.269444 304.415273 
L 360.466443 304.164514 
L 360.663442 304.289897 
L 360.860441 301.92451 
L 361.25444 305.259423 
L 361.451439 296.548205 
L 361.845437 302.916058 
L 362.042436 301.909961 
L 362.239435 302.305805 
L 362.633433 293.659428 
L 362.830432 293.792253 
L 363.027432 292.450089 
L 363.224431 293.998387 
L 363.618429 234.564165 
L 363.815428 269.985533 
L 364.012427 275.847039 
L 364.209426 261.430039 
L 364.603425 276.398347 
L 364.800424 276.709017 
L 364.997423 263.838621 
L 365.194422 284.113631 
L 365.391421 286.374702 
L 365.58842 293.342453 
L 365.785419 291.600577 
L 365.982418 294.710488 
L 366.179417 294.684742 
L 366.573416 301.77921 
L 366.770415 299.870177 
L 366.967414 299.870263 
L 367.361412 300.647491 
L 367.558411 300.647492 
L 367.75541 302.770586 
L 367.95241 301.676409 
L 368.149409 302.282618 
L 368.346408 295.659177 
L 368.543407 299.151912 
L 368.740406 297.405548 
L 368.937405 302.010843 
L 369.331403 291.374344 
L 369.528402 297.302766 
L 369.725402 293.290008 
L 369.922401 294.817506 
L 370.1194 294.371292 
L 370.316399 293.307199 
L 370.513398 298.777136 
L 370.710397 299.460051 
L 370.907396 301.413088 
L 371.104395 280.12977 
L 371.301395 290.345157 
L 371.498394 292.135117 
L 371.695393 291.647185 
L 371.892392 291.588259 
L 372.089391 294.40701 
L 372.483389 279.206424 
L 372.877387 295.763602 
L 373.074387 292.562732 
L 373.271386 297.283766 
L 373.665384 295.404091 
L 373.862383 288.1226 
L 374.059382 286.323093 
L 374.256381 289.547512 
L 374.45338 298.260897 
L 374.65038 295.961548 
L 374.847379 296.513773 
L 375.044378 295.938923 
L 375.241377 298.230217 
L 375.438376 298.528085 
L 375.635375 290.351599 
L 375.832374 293.021708 
L 376.029373 285.239014 
L 376.226372 289.005473 
L 376.423372 295.248507 
L 376.620371 294.874884 
L 376.81737 296.542914 
L 377.014369 293.756202 
L 377.211368 297.81401 
L 377.408367 294.449932 
L 377.605366 297.508234 
L 377.802365 298.747598 
L 377.999365 298.128042 
L 378.196364 298.437927 
L 378.393363 295.022563 
L 378.590362 300.020995 
L 378.787361 266.607831 
L 378.98436 264.407262 
L 379.575357 295.869565 
L 379.772357 273.830782 
L 379.969356 283.802896 
L 380.166355 285.232448 
L 380.363354 284.517721 
L 380.560353 293.827955 
L 380.757352 290.068076 
L 380.954351 294.404785 
L 381.15135 292.236435 
L 381.34835 292.236497 
L 381.545349 293.320671 
L 381.742348 292.210165 
L 381.939347 293.263079 
L 382.136346 292.644001 
L 382.333345 257.767013 
L 382.530344 282.295518 
L 382.727343 284.68228 
L 382.924342 295.756725 
L 383.121342 294.614803 
L 383.318341 275.063135 
L 383.712339 290.089286 
L 384.106337 298.233888 
L 384.303336 297.055106 
L 384.697335 288.837008 
L 384.894334 296.118304 
L 385.091333 288.537152 
L 385.288332 290.901928 
L 385.485331 296.082086 
L 385.68233 293.430901 
L 386.076328 293.430907 
L 386.273327 297.799128 
L 386.470327 294.713972 
L 386.667326 287.145417 
L 386.864325 292.156684 
L 387.061324 289.651133 
L 387.652321 301.03402 
L 387.84932 296.329068 
L 388.04632 300.472808 
L 388.243319 298.133003 
L 388.440318 294.315205 
L 388.637317 294.315219 
L 389.031315 302.225107 
L 389.425313 298.709176 
L 389.622312 298.709189 
L 389.819312 294.271789 
L 390.21331 296.490498 
L 390.410309 294.790041 
L 390.607308 269.552956 
L 390.804307 273.504638 
L 391.001306 272.943803 
L 391.198305 273.312612 
L 391.395305 287.693005 
L 391.592304 286.284886 
L 391.986302 288.605163 
L 392.183301 286.718085 
L 392.3803 296.266124 
L 392.577299 291.52778 
L 392.774298 291.444592 
L 392.971297 293.855448 
L 393.365296 290.37181 
L 393.440998 -1 
M 393.856617 -1 
L 393.956293 88.157432 
L 394.350291 166.347437 
L 394.54729 184.446969 
L 394.744289 221.194294 
L 394.941289 143.041212 
L 394.966895 -1 
M 395.933686 -1 
L 396.123283 144.304784 
L 396.320282 203.579109 
L 396.91128 255.827538 
L 397.108279 246.42544 
L 397.305278 250.968453 
L 397.896275 285.966626 
L 398.093274 280.761447 
L 398.487273 282.747357 
L 398.487273 282.747357 
" style="fill:none;stroke:#1f77b4;stroke-linecap:square;stroke-width:1.5;"/>
   </g>
   <g id="line2d_16">
    <path clip-path="url(#pac4be0cefb)" d="M 73.832727 306.094519 
L 74.226726 306.022268 
L 74.423725 305.144884 
L 75.014722 305.144884 
L 75.211721 292.525141 
L 75.40872 291.694544 
L 75.211721 291.694544 
L 75.802718 291.694544 
L 75.999718 294.393693 
L 76.196717 303.16724 
L 76.393716 305.594462 
L 76.590715 305.594462 
L 76.984713 305.123689 
L 77.378711 305.123689 
L 77.77271 307.069683 
L 77.969709 307.069683 
L 78.363707 307.185809 
L 78.560706 306.911821 
L 78.757705 306.401214 
L 79.348703 306.401214 
L 79.545702 305.963911 
L 79.742701 306.685319 
L 79.9397 306.685319 
L 80.136699 306.901592 
L 80.333698 306.901592 
L 80.530697 307.157445 
L 80.924695 307.157445 
L 81.121695 306.832039 
L 81.712692 306.72341 
L 81.909691 307.02773 
L 82.10669 306.24959 
L 82.303689 307.050459 
L 82.697688 307.050459 
L 82.894687 306.214357 
L 83.091686 304.116027 
L 83.288685 306.214357 
L 83.485684 303.899283 
L 83.682683 303.756561 
L 83.879682 303.899283 
L 84.076681 303.899283 
L 84.27368 306.223692 
L 84.47068 306.223692 
L 84.667679 306.994025 
L 84.864678 304.52124 
L 85.061677 304.52124 
L 85.258676 306.03813 
L 85.849673 306.03813 
L 86.046673 304.484143 
L 86.440671 304.484143 
L 86.834669 306.203157 
L 87.228667 306.245841 
L 87.425666 306.445819 
L 87.622665 306.405445 
L 88.213663 305.759098 
L 88.607661 303.137469 
L 88.80466 305.20529 
L 89.198658 300.782705 
L 89.395658 304.332631 
L 89.592657 304.332631 
L 89.789656 300.782705 
L 89.986655 299.604058 
L 90.183654 304.332631 
L 90.380653 299.604058 
L 90.577652 305.816508 
L 90.774651 305.816508 
L 90.97165 305.540701 
L 91.365649 305.540701 
L 91.562648 304.263832 
L 91.956646 306.129413 
L 92.153645 305.908561 
L 93.138641 305.937458 
L 93.33564 305.547861 
L 93.926637 305.547861 
L 94.123636 305.299672 
L 94.714634 305.223175 
L 94.911633 306.032388 
L 95.305631 306.032388 
L 95.699629 299.746878 
L 96.093628 299.615648 
L 96.487626 299.615648 
L 96.881624 305.738174 
L 97.078623 306.051874 
L 97.66962 306.091901 
L 97.86662 303.89383 
L 98.063619 306.091901 
L 98.260618 306.282504 
L 98.457617 305.597046 
L 99.442613 305.628121 
L 100.230609 306.464641 
L 100.427608 306.464641 
L 100.230609 306.464641 
L 100.624607 307.420518 
L 100.427608 307.420518 
L 100.821606 306.712112 
L 101.018605 306.712112 
L 101.215605 305.768094 
L 101.609603 305.694768 
L 101.806602 307.373072 
L 102.003601 306.214398 
L 102.397599 306.214398 
L 102.2006 306.214398 
L 102.594598 305.68195 
L 103.185596 305.68195 
L 103.382595 305.330003 
L 103.776593 302.491726 
L 103.973592 302.491726 
L 104.170591 304.062487 
L 104.36759 304.122072 
L 104.56459 304.451639 
L 104.761589 306.551767 
L 104.958588 306.596482 
L 105.155587 307.376918 
L 105.549585 307.301908 
L 105.746584 304.921438 
L 106.534581 305.02116 
L 106.73158 306.016988 
L 106.928579 306.205754 
L 107.125578 305.86242 
L 107.322577 305.86242 
L 107.519576 306.790938 
L 107.913575 306.86236 
L 108.110574 306.86236 
L 108.307573 307.061056 
L 108.504572 307.061056 
L 108.89857 307.521737 
L 109.095569 307.521737 
L 109.686567 307.257587 
L 110.080565 307.257587 
L 109.883566 305.778989 
L 110.277564 305.778989 
L 110.474563 305.117162 
L 110.868561 305.117162 
L 111.06556 307.123112 
L 111.26256 307.123112 
L 111.459559 307.356408 
L 111.853557 307.302423 
L 112.050556 306.470024 
L 112.247555 306.933495 
L 113.035552 306.933495 
L 113.626549 303.480459 
L 113.823548 304.514042 
L 114.020547 302.575966 
L 114.217546 302.575966 
L 114.414545 305.874495 
L 114.808544 305.770341 
L 114.611545 303.21947 
L 115.005543 303.21947 
L 115.202542 301.287468 
L 115.399541 301.287468 
L 115.59654 305.367574 
L 115.793539 305.781074 
L 115.990538 307.440483 
L 116.187538 305.781074 
L 116.384537 305.781074 
L 116.581536 306.810135 
L 116.778535 306.171013 
L 116.975534 303.825759 
L 117.172533 303.26542 
L 117.369532 305.612769 
L 117.566531 303.26542 
L 117.76353 303.26542 
L 117.96053 305.612769 
L 118.157529 305.941525 
L 118.354528 305.982469 
L 118.551527 306.310621 
L 118.748526 307.453481 
L 119.339523 307.48068 
L 119.536523 307.230067 
L 119.733522 306.742141 
L 119.930521 306.742141 
L 120.12752 306.478017 
L 120.324519 306.742141 
L 120.521518 307.416869 
L 120.915516 307.522707 
L 122.097511 307.546174 
L 124.067502 307.480029 
L 124.264501 306.65183 
L 124.4615 306.65183 
L 124.6585 303.959209 
L 124.855499 305.9526 
L 125.249497 305.894906 
L 125.643495 305.9526 
L 125.840494 306.319895 
L 126.037493 305.330003 
L 126.234492 305.330003 
L 126.431492 306.319895 
L 126.628491 305.447233 
L 126.82549 306.831242 
L 127.022489 306.831242 
L 127.219488 305.447233 
L 127.416487 305.447233 
L 127.810485 305.330003 
L 128.007485 305.472804 
L 127.613486 305.472804 
L 128.204484 302.325675 
L 128.598482 302.325675 
L 128.795481 299.797196 
L 128.99248 302.325675 
L 129.189479 299.797196 
L 129.583477 307.446171 
L 129.780477 307.446171 
L 129.977476 305.802326 
L 130.568473 305.79828 
L 130.765472 306.522502 
L 130.962471 306.522502 
L 131.15947 307.046449 
L 131.35647 307.171995 
L 131.553469 307.574821 
L 131.750468 307.313182 
L 132.144466 307.313182 
L 132.341465 304.655935 
L 132.538464 291.418059 
L 132.735463 304.655935 
L 132.932462 304.655935 
L 133.129462 275.825427 
L 133.326461 275.825427 
L 133.52346 303.306056 
L 133.720459 303.508203 
L 133.917458 307.493654 
L 134.114457 307.105702 
L 134.311456 307.503094 
L 134.508455 307.105702 
L 134.705455 307.533164 
L 134.902454 307.105702 
L 135.099453 307.533164 
L 135.296452 305.808615 
L 135.493451 307.325294 
L 135.887449 307.325294 
L 136.084448 306.076339 
L 136.281447 306.076339 
L 136.478447 302.381307 
L 136.675446 302.381307 
L 136.872445 306.076339 
L 137.266443 307.348498 
L 137.463442 307.53039 
L 138.251439 307.398698 
L 138.645437 307.398698 
L 139.039435 307.511437 
L 139.236434 307.026739 
L 139.433433 307.137231 
L 139.630432 293.916794 
L 139.827432 293.916794 
L 140.024431 303.949804 
L 140.22143 307.137231 
L 140.418429 307.575823 
L 140.812427 307.535867 
L 141.009426 307.254389 
L 141.403425 305.999492 
L 141.600424 305.999492 
L 141.797423 299.932652 
L 141.994422 299.932652 
L 142.191421 305.029575 
L 142.585419 307.136135 
L 142.979417 307.223337 
L 143.373416 307.223337 
L 143.570415 306.988694 
L 143.767414 306.988694 
L 143.964413 307.516201 
L 144.161412 306.988694 
L 144.358411 307.516201 
L 145.540406 307.474302 
L 145.737405 304.186369 
L 146.131403 304.186369 
L 146.328402 285.707378 
L 146.722401 285.707378 
L 146.9194 302.108277 
L 146.722401 303.019941 
L 147.116399 303.019941 
L 147.313398 302.108277 
L 147.510397 303.019941 
L 147.707396 303.019941 
L 146.9194 304.507478 
L 147.904395 305.805146 
L 148.495393 305.823385 
L 148.692392 305.200045 
L 148.889391 302.192707 
L 149.283389 302.192707 
L 149.480388 305.879298 
L 149.874387 307.007381 
L 150.071386 307.003305 
L 150.268385 305.857388 
L 151.056381 305.85253 
L 151.25338 304.7944 
L 151.647379 306.873338 
L 151.844378 306.162981 
L 152.238376 306.162981 
L 152.435375 306.701043 
L 152.632374 304.494641 
L 152.829373 306.701043 
L 153.026372 304.494641 
L 153.223372 290.896659 
L 153.420371 290.896659 
L 153.61737 305.767921 
L 154.011368 305.767921 
L 154.208367 305.528352 
L 154.405366 302.0048 
L 154.602365 300.749456 
L 154.799365 297.97327 
L 154.996364 286.374467 
L 155.193363 281.803447 
L 155.390362 286.374467 
L 155.587361 302.0048 
L 155.78436 302.0048 
L 155.981359 296.973049 
L 156.178358 296.973049 
L 156.375357 299.456086 
L 156.572357 297.74174 
L 157.360353 297.74174 
L 157.557352 292.03531 
L 157.754351 304.329545 
L 157.95135 304.329545 
L 158.14835 304.956614 
L 158.345349 304.956614 
L 158.542348 301.627637 
L 158.14835 301.207052 
L 158.739347 294.429377 
L 159.133345 294.429377 
L 159.330344 296.532619 
L 159.527343 296.532619 
L 159.921342 302.651603 
L 160.31534 302.872813 
L 160.512339 303.470643 
L 160.709338 303.470643 
L 160.906337 304.366109 
L 161.103336 305.973113 
L 161.300335 305.973113 
L 161.497335 306.598473 
L 161.694334 305.973113 
L 162.48233 300.210203 
L 162.285331 300.210203 
L 162.679329 299.893998 
L 162.876328 299.893998 
L 163.073327 300.382475 
L 163.664325 300.382475 
L 163.861324 296.157412 
L 164.255322 296.157412 
L 164.452321 305.609607 
L 164.64932 306.518961 
L 164.84632 306.685615 
L 165.043319 306.518961 
L 164.64932 306.658465 
L 165.240318 306.518961 
L 165.437317 305.383208 
L 165.634316 304.986395 
L 165.831315 304.986395 
L 166.028314 303.138705 
L 166.225313 303.138705 
L 166.422312 301.652278 
L 166.816311 304.103167 
L 167.01331 304.103167 
L 167.210309 302.716348 
L 167.407308 303.206549 
L 167.604307 302.716348 
L 167.801306 303.206549 
L 167.998305 305.876096 
L 168.195305 306.178042 
L 168.786302 306.178042 
L 168.983301 300.996982 
L 169.377299 300.996982 
L 169.574298 294.286002 
L 169.968297 305.260359 
L 170.165296 302.687861 
L 170.362295 302.687861 
L 170.559294 304.910722 
L 171.741289 304.998409 
L 171.938288 304.185909 
L 172.332286 294.690866 
L 172.726284 294.690866 
L 172.923283 295.751272 
L 173.317282 303.259752 
L 173.514281 303.259752 
L 173.71128 304.651084 
L 173.908279 303.259752 
L 174.105278 304.083492 
L 174.696275 304.028542 
L 175.090274 304.028542 
L 175.287273 305.368994 
L 175.484272 305.368994 
L 175.681271 302.837409 
L 175.87827 296.663999 
L 176.075269 298.455548 
L 175.87827 298.455548 
L 176.272268 298.455548 
L 176.469267 305.189904 
L 176.666267 305.390083 
L 177.060265 305.390083 
L 177.454263 304.000425 
L 177.651262 304.000425 
L 177.848261 304.391487 
L 178.04526 304.391487 
L 178.242259 305.869942 
L 178.439259 305.869942 
L 178.833257 305.756531 
L 179.030256 304.841412 
L 179.424254 304.866892 
L 179.621253 305.281173 
L 179.818252 306.084255 
L 180.015252 306.265905 
L 180.40925 306.31809 
L 180.606249 306.60764 
L 180.803248 306.60764 
L 181.000247 307.093817 
L 181.197246 307.093817 
L 181.394245 304.542142 
L 181.591244 304.002841 
L 181.788244 302.897472 
L 181.985243 304.002841 
L 182.182242 302.439831 
L 182.379241 307.164571 
L 182.57624 306.939108 
L 182.773239 300.607233 
L 182.970238 301.176304 
L 183.167237 300.114354 
L 183.364237 297.22576 
L 184.152233 297.22576 
L 184.349232 301.436352 
L 184.940229 301.436352 
L 185.137229 301.949172 
L 185.334228 303.007332 
L 185.531227 303.007332 
L 185.728226 305.130745 
L 185.925225 305.130745 
L 186.122224 306.603811 
L 186.319223 305.130745 
L 186.516222 305.130745 
L 186.713222 301.390099 
L 186.910221 301.390099 
L 187.10722 301.097273 
L 187.304219 301.390099 
L 187.501218 303.647359 
L 187.698217 303.647359 
L 187.895216 301.097273 
L 188.092215 300.678507 
L 188.486214 300.678507 
L 188.683213 301.882791 
L 189.077211 301.882791 
L 189.27421 304.650252 
L 189.471209 305.399355 
L 189.865207 305.399355 
L 190.062207 304.894825 
L 189.865207 304.653816 
L 190.456205 300.563828 
L 190.653204 299.788795 
L 190.850203 299.788795 
L 191.4412 301.980621 
L 191.638199 301.980621 
L 192.032198 303.339069 
L 192.426196 303.468753 
L 192.623195 304.521037 
L 192.820194 304.621012 
L 193.214192 306.581919 
L 193.80519 306.473336 
L 194.002189 302.385863 
L 194.199188 302.379802 
L 194.396187 302.113755 
L 194.593186 302.113755 
L 194.790185 301.717604 
L 194.987184 298.482392 
L 195.184184 301.646625 
L 195.381183 298.482392 
L 195.578182 298.482392 
L 195.775181 301.646625 
L 195.97218 302.165353 
L 196.169179 303.874347 
L 196.563177 303.874347 
L 196.957176 301.969318 
L 197.548173 301.969318 
L 197.745172 302.581808 
L 198.533169 302.581808 
L 198.730168 302.168565 
L 198.927167 302.320197 
L 199.124166 302.320197 
L 199.321165 303.891468 
L 199.518164 302.320197 
L 199.715163 302.713824 
L 199.912162 305.330267 
L 200.109162 306.310321 
L 200.306161 302.713824 
L 200.50316 306.310321 
L 200.700159 306.814602 
L 201.094157 306.812685 
L 201.291156 304.651607 
L 201.094157 304.651607 
L 201.488155 303.549213 
L 201.685154 303.549213 
L 201.882154 295.803194 
L 202.276152 295.803194 
L 202.67015 300.140996 
L 202.867149 300.815908 
L 203.064148 301.997411 
L 203.261147 305.222225 
L 203.458147 305.222225 
L 203.655146 301.997411 
L 203.852145 303.579913 
L 204.246143 303.579913 
L 204.443142 306.493529 
L 204.83714 306.616556 
L 205.231139 306.576451 
L 205.428138 303.435031 
L 205.625137 306.515383 
L 205.822136 306.515383 
L 206.019135 306.111144 
L 206.216134 306.111144 
L 206.019135 305.90619 
L 206.413133 305.36441 
L 207.004131 305.274615 
L 207.20113 300.949654 
L 207.398129 305.274615 
L 207.595128 306.177875 
L 208.186125 306.159755 
L 208.580124 302.680782 
L 208.974122 302.680782 
L 209.171121 299.954406 
L 209.36812 299.954406 
L 209.565119 302.69671 
L 209.762118 302.772515 
L 210.156117 302.69671 
L 210.353116 302.69671 
L 210.550115 303.702002 
L 210.747114 302.291974 
L 210.944113 302.291974 
L 211.141112 301.694356 
L 211.338111 301.694356 
L 211.732109 297.22576 
L 211.929109 297.004459 
L 212.323107 297.004459 
L 212.520106 300.136378 
L 212.717105 301.289237 
L 212.914104 301.766616 
L 213.111103 301.289237 
L 213.308102 301.766616 
L 213.505102 301.766616 
L 213.702101 303.991193 
L 213.8991 304.117642 
L 214.096099 305.825471 
L 214.293098 306.495157 
L 214.490097 306.495157 
L 214.884095 300.132302 
L 215.081094 300.132302 
L 215.278094 302.207759 
L 215.081094 302.207759 
L 215.672092 302.207759 
L 215.869091 304.257818 
L 216.06609 301.961688 
L 216.263089 301.961688 
L 216.854086 304.367384 
L 217.051086 304.367384 
L 217.248085 302.904558 
L 217.445084 304.367384 
L 217.642083 302.189593 
L 218.627079 302.220965 
L 218.824078 300.501915 
L 219.218076 303.880904 
L 219.415075 300.178998 
L 219.612074 303.395529 
L 219.809073 300.562765 
L 220.006072 300.562765 
L 220.203071 304.213445 
L 220.400071 304.213445 
L 220.59707 305.21833 
L 220.794069 305.21833 
L 220.991068 301.346597 
L 221.188067 300.501836 
L 221.385066 301.346597 
L 221.582065 300.501836 
L 221.779064 300.501836 
L 221.582065 300.501836 
L 221.976064 294.64312 
L 222.173063 293.896013 
L 222.567061 293.896013 
L 222.76406 299.890307 
L 222.961059 302.205971 
L 223.158058 303.15072 
L 223.355057 305.467806 
L 223.552056 305.467806 
L 223.749056 304.686683 
L 223.946055 304.54409 
L 224.143054 304.686683 
L 224.537052 304.672231 
L 224.734051 300.759085 
L 224.93105 304.358456 
L 224.734051 304.358456 
L 225.128049 301.592142 
L 225.325049 301.592142 
L 225.522048 302.020711 
L 225.916046 302.020711 
L 225.719047 305.399337 
L 226.310044 305.399337 
L 226.507043 300.478928 
L 226.704042 300.478928 
L 226.901041 299.998037 
L 227.098041 300.478928 
L 227.29504 299.998037 
L 227.689038 299.998037 
L 227.886037 302.822209 
L 228.083036 274.027678 
L 228.280035 302.822209 
L 228.477034 302.822209 
L 228.674034 296.13852 
L 229.068032 296.13852 
L 229.265031 280.266155 
L 229.46203 290.488493 
L 229.856028 290.488493 
L 230.053027 301.039659 
L 230.250026 301.039659 
L 230.447026 303.136918 
L 230.841024 301.039659 
L 231.038023 300.541888 
L 231.235022 300.541888 
L 231.432021 300.082972 
L 231.62902 296.346144 
L 231.826019 300.082972 
L 232.023019 300.525478 
L 232.220018 302.165353 
L 232.417017 306.602916 
L 232.811015 306.602916 
L 233.008014 307.049843 
L 233.205013 305.747253 
L 233.599011 305.747253 
L 233.796011 301.695658 
L 233.99301 300.908191 
L 234.584007 300.456839 
L 234.781006 300.738703 
L 234.978005 306.575386 
L 235.372004 306.595719 
L 235.569003 296.01153 
L 235.766002 296.01153 
L 235.963001 297.194285 
L 236.356999 297.194285 
L 236.553998 298.368145 
L 236.750997 298.368145 
L 236.947996 300.353766 
L 237.144996 298.368145 
L 237.341995 298.368145 
L 237.538994 300.353766 
L 237.341995 304.094444 
L 237.735993 297.932296 
L 237.932992 304.784504 
L 238.129991 304.784504 
L 238.523989 294.774157 
L 238.720989 300.346666 
L 238.917988 300.346666 
L 239.114987 294.774157 
L 239.311986 296.505108 
L 239.508985 299.761531 
L 239.902983 299.761531 
L 240.099982 302.15407 
L 240.296981 302.15407 
L 240.493981 303.414051 
L 239.902983 303.414051 
L 240.69098 303.414051 
L 240.887979 298.553777 
L 241.084978 305.644541 
L 241.281977 300.332548 
L 241.478976 298.553777 
L 241.675975 300.332548 
L 242.069974 300.332548 
L 242.266973 297.681225 
L 242.463972 302.022444 
L 242.85797 302.57622 
L 243.054969 307.318357 
L 243.251968 307.318357 
L 243.448967 307.572275 
L 243.645966 300.887674 
L 243.842966 300.887674 
L 244.039965 306.230996 
L 244.236964 300.887674 
L 244.433963 305.847704 
L 244.630962 305.847704 
L 244.827961 301.766752 
L 245.02496 302.166732 
L 245.221959 301.766752 
L 245.418959 301.766752 
L 245.812957 301.416563 
L 246.009956 293.347038 
L 246.206955 301.416563 
L 246.403954 293.925078 
L 246.600953 293.925078 
L 246.797952 295.611537 
L 246.994951 301.65713 
L 247.191951 303.343828 
L 247.585949 303.343828 
L 247.782948 302.326995 
L 247.979947 288.91776 
L 248.176946 288.91776 
L 248.373945 302.326995 
L 248.570944 295.934507 
L 248.767944 302.720668 
L 248.964943 302.720668 
L 249.161942 299.986963 
L 249.752939 299.986963 
L 249.949938 299.761531 
L 250.146937 301.620731 
L 250.343936 301.682781 
L 250.540936 299.761531 
L 250.737935 302.141498 
L 250.934934 293.672802 
L 251.131933 293.925078 
L 251.328932 300.192278 
L 251.525931 293.925078 
L 251.72293 300.192278 
L 251.919929 300.192278 
L 252.116929 299.78865 
L 252.313928 295.988612 
L 252.510927 299.78865 
L 252.904925 299.78865 
L 253.101924 302.130176 
L 253.298923 302.165353 
L 252.904925 302.130176 
L 253.495922 301.6399 
L 253.692921 302.165353 
L 254.08692 305.55373 
L 254.480918 305.55373 
L 254.677917 295.708359 
L 255.268914 295.708359 
L 255.465914 300.363644 
L 255.662913 300.363644 
L 255.859912 293.134273 
L 256.056911 293.134273 
L 256.25391 293.636 
L 256.647908 293.636 
L 256.844907 296.722641 
L 257.041906 296.722641 
L 257.238906 286.662 
L 257.632904 303.297655 
L 257.829903 303.297655 
L 258.026902 304.404438 
L 258.223901 297.487766 
L 258.4209 297.487766 
L 258.617899 301.690891 
L 259.011898 301.690891 
L 259.208897 306.459039 
L 259.405896 307.381913 
L 259.996893 307.381913 
L 260.193892 298.927593 
L 259.996893 298.927593 
L 260.390891 299.52829 
L 260.78489 299.52829 
L 260.981889 302.426702 
L 261.178888 301.764311 
L 260.981889 301.764311 
L 261.375887 301.764311 
L 261.572886 299.484259 
L 261.966884 299.484259 
L 262.163883 301.432891 
L 261.769885 302.395248 
L 262.360883 307.105569 
L 262.557882 305.861178 
L 262.754881 305.861178 
L 262.95188 301.151241 
L 263.148879 304.650951 
L 263.542877 304.650951 
L 263.739876 305.098325 
L 263.936876 304.650951 
L 263.542877 305.098325 
L 263.936876 300.502288 
L 264.133875 302.215014 
L 264.330874 300.502288 
L 264.527873 302.215014 
L 264.724872 300.039051 
L 264.921871 301.381561 
L 265.11887 300.039051 
L 265.512868 300.039051 
L 265.709868 300.825502 
L 265.906867 300.825502 
L 266.103866 302.231795 
L 266.300865 302.231795 
L 266.497864 303.691756 
L 266.694863 303.691756 
L 266.891862 302.165353 
L 267.285861 304.830785 
L 267.48286 302.165353 
L 267.679859 305.509956 
L 267.876858 305.509956 
L 268.073857 303.251985 
L 268.467855 303.251985 
L 268.664854 303.050391 
L 268.861853 303.251985 
L 269.058853 303.970523 
L 269.64985 303.970523 
L 269.846849 307.437687 
L 270.043848 307.437687 
L 270.240847 300.163441 
L 270.437846 298.184459 
L 270.634846 298.184459 
L 270.831845 297.20427 
L 271.028844 297.20427 
L 271.422842 300.506591 
L 271.619841 300.506591 
L 271.81684 300.878764 
L 272.013839 302.106209 
L 272.210838 307.570162 
L 272.604837 307.467981 
L 272.998835 302.817668 
L 273.195834 305.19307 
L 273.392833 302.817668 
L 273.786831 307.57697 
L 273.983831 307.57697 
L 274.18083 306.381211 
L 274.377829 300.548609 
L 274.771827 300.548609 
L 274.968826 301.645977 
L 275.559823 301.645977 
L 275.756823 303.376405 
L 275.953822 304.032107 
L 276.150821 303.376405 
L 275.953822 303.376405 
L 276.34782 303.376405 
L 276.544819 305.387235 
L 276.741818 302.186767 
L 276.938817 302.165353 
L 277.135816 301.449367 
L 277.726814 301.449367 
L 278.317811 303.354073 
L 278.51481 307.486843 
L 278.711809 307.486843 
L 278.908808 306.698263 
L 279.105808 307.570534 
L 279.302807 306.698263 
L 279.696805 298.468128 
L 279.893804 303.023979 
L 280.090803 303.023979 
L 280.484801 303.334079 
L 280.681801 303.340273 
L 280.8788 303.894896 
L 281.469797 303.894896 
L 281.666796 294.79818 
L 281.469797 293.925078 
L 281.863795 294.79818 
L 282.060794 302.141301 
L 283.04579 302.165353 
L 283.242789 304.139655 
L 283.833786 304.139655 
L 283.242789 306.821094 
L 284.030786 302.989438 
L 284.227785 307.531523 
L 284.424784 307.493042 
L 284.621783 307.197538 
L 285.015781 307.197538 
L 285.21278 306.343306 
L 285.409779 306.343306 
L 285.606778 303.763448 
L 285.803778 303.763448 
L 286.000777 303.267191 
L 286.197776 304.072836 
L 286.394775 304.072836 
L 286.591774 303.267301 
L 286.788773 304.072836 
L 286.985772 303.267301 
L 287.182771 303.267301 
L 286.591774 299.639509 
L 287.379771 303.487086 
L 287.773769 303.487086 
L 287.970768 300.561106 
L 288.364766 300.561106 
L 288.167767 300.561106 
L 288.364766 302.280253 
L 288.561765 302.280253 
L 288.758764 306.9291 
L 288.955763 307.496496 
L 289.152763 307.496496 
L 289.349762 307.204362 
L 289.546761 307.204362 
L 290.334757 293.636 
L 290.531756 299.020664 
L 290.728756 300.516338 
L 291.319753 307.432585 
L 291.516752 305.67978 
L 291.713751 305.67978 
L 291.91075 293.672802 
L 292.107749 293.672802 
L 292.304748 293.88237 
L 292.501748 295.230724 
L 292.698747 303.204316 
L 292.895746 303.204316 
L 293.092745 303.677874 
L 293.289744 304.603034 
L 293.683742 304.603034 
L 293.880741 294.727546 
L 294.077741 294.727546 
L 294.27474 299.761531 
L 294.471739 299.761531 
L 294.27474 306.898156 
L 294.668738 306.898156 
L 295.259735 304.466738 
L 295.456734 301.551126 
L 295.653733 301.551126 
L 295.850733 302.215014 
L 296.047732 302.351971 
L 296.244731 307.010331 
L 296.44173 306.918018 
L 296.638729 302.351971 
L 296.835728 302.351971 
L 297.032727 299.34557 
L 297.229726 299.34557 
L 297.426726 302.165353 
L 297.623725 307.018297 
L 297.820724 307.018297 
L 298.017723 302.165353 
L 298.411721 302.16155 
L 298.60872 298.769293 
L 298.805719 302.16155 
L 299.002718 303.104945 
L 299.199718 301.719786 
L 299.396717 301.719786 
L 299.593716 300.279014 
L 299.987714 300.279014 
L 300.184713 299.947843 
L 300.578711 306.768131 
L 300.775711 304.301672 
L 300.97271 304.301672 
L 301.169709 302.187529 
L 301.366708 302.165353 
L 301.563707 302.008832 
L 301.760706 307.573322 
L 301.957705 299.805047 
L 302.154704 299.805047 
L 302.548703 307.518397 
L 302.745702 307.518397 
L 302.942701 305.70434 
L 303.1397 291.193632 
L 303.336699 291.193632 
L 303.730697 302.419802 
L 303.927696 307.242519 
L 304.124695 303.382929 
L 304.321695 303.382929 
L 303.730697 302.419802 
L 304.715693 302.144099 
L 304.912692 302.144099 
L 305.109691 300.684286 
L 305.30669 306.445596 
L 305.700688 296.760172 
L 305.897688 300.509716 
L 306.685684 300.534891 
L 306.882683 307.566478 
L 307.079682 304.7944 
L 307.276681 307.576623 
L 307.47368 307.568843 
L 307.867679 303.39904 
L 308.064678 302.598155 
L 308.261677 303.39904 
L 308.064678 303.39904 
L 308.458676 305.960494 
L 308.852674 305.960494 
L 309.049673 304.680446 
L 309.246673 304.680446 
L 309.443672 299.707105 
L 309.640671 298.334626 
L 309.83767 298.334626 
L 310.231668 291.86202 
L 310.428667 298.334626 
L 310.625666 289.828328 
L 310.822665 289.828328 
L 311.019665 291.030862 
L 311.216664 286.662 
L 311.413663 286.662 
L 311.610662 287.869206 
L 311.807661 289.873676 
L 312.00466 289.873676 
L 312.201659 301.757913 
L 312.398658 301.890505 
L 312.595658 302.215014 
L 312.792657 301.890505 
L 313.186655 301.890505 
L 313.383654 302.671022 
L 313.580653 301.704179 
L 313.777652 302.671022 
L 313.974651 301.238506 
L 314.565649 304.7944 
L 315.156646 304.7944 
L 315.353645 302.481511 
L 315.550644 302.481511 
L 315.747643 304.970106 
L 316.338641 304.991758 
L 316.53564 304.765054 
L 316.732639 303.700523 
L 317.126637 303.700523 
L 317.323636 303.847071 
L 317.717635 304.780347 
L 317.914634 304.426477 
L 318.111633 304.426477 
L 318.308632 303.922777 
L 318.70263 303.922777 
L 318.899629 305.295271 
L 318.70263 306.087318 
L 318.899629 306.087318 
L 319.096628 306.26756 
L 319.293628 305.295271 
L 319.687626 300.701083 
L 319.884625 294.724624 
L 320.081624 294.724624 
L 320.278623 302.439788 
L 320.475622 302.973247 
L 321.263619 302.973247 
L 321.460618 306.484282 
L 321.854616 306.484282 
L 322.051615 301.512454 
L 322.248614 301.20491 
L 322.445613 301.20491 
L 322.642613 306.841607 
L 322.839612 306.841607 
L 323.036611 305.84869 
L 323.23361 306.162719 
L 323.430609 306.162719 
L 323.627608 306.771309 
L 323.824607 306.803937 
L 324.021606 307.225755 
L 324.218605 303.262702 
L 324.809603 303.293464 
L 325.203601 302.961159 
L 325.4006 303.293464 
L 325.597599 301.948139 
L 325.991598 301.950253 
L 326.188597 305.955974 
L 326.385596 305.955974 
L 326.582595 306.648451 
L 326.779594 306.452687 
L 327.76459 306.413506 
L 327.961589 304.809034 
L 328.355587 304.802669 
L 328.552586 304.375718 
L 328.749585 304.375718 
L 328.946584 306.487707 
L 329.340583 306.526896 
L 329.537582 306.718522 
L 329.734581 306.718522 
L 329.93158 306.89576 
L 330.325578 306.78636 
L 330.719576 306.211288 
L 331.507573 306.210396 
L 331.704572 301.555375 
L 332.09857 301.555375 
L 332.295569 303.722501 
L 332.492568 303.722501 
L 332.886567 305.500777 
L 333.083566 305.679144 
L 333.280565 306.416593 
L 333.477564 306.533769 
L 333.674563 307.08876 
L 333.871562 307.08876 
L 334.068561 307.57697 
L 334.26556 307.043682 
L 335.053557 306.918088 
L 335.250556 307.224821 
L 335.841553 307.218537 
L 336.038553 307.054355 
L 336.235552 305.332057 
L 336.432551 307.054355 
L 336.62955 306.191471 
L 337.023548 306.26756 
L 337.417546 306.26756 
L 337.614545 304.812 
L 338.008544 304.812 
L 338.205543 306.971879 
L 338.993539 307.175004 
L 339.190538 306.908366 
L 339.781536 306.908366 
L 340.372533 307.16242 
L 340.569532 307.546664 
L 341.554528 307.492407 
L 341.751527 306.723742 
L 341.948526 304.627399 
L 342.145525 304.413229 
L 342.342524 304.413229 
L 342.539523 304.186475 
L 342.736523 304.186475 
L 342.933522 306.943972 
L 343.130521 307.417266 
L 343.32752 306.943972 
L 343.524519 306.943972 
L 343.721518 305.216275 
L 343.918517 304.907125 
L 344.115516 304.907125 
L 344.312515 305.216275 
L 344.706514 307.4937 
L 345.100512 307.4937 
L 345.297511 306.621897 
L 345.49451 306.621897 
L 345.691509 306.922169 
L 346.085508 306.922169 
L 346.282507 302.888801 
L 346.676505 302.888801 
L 346.873504 301.889293 
L 347.267502 301.889293 
L 347.464501 306.555822 
L 347.6615 306.789515 
L 348.252498 306.789515 
L 348.449497 306.584527 
L 348.646496 301.637459 
L 348.843495 301.637459 
L 349.040494 305.373374 
L 349.237493 305.373374 
L 349.434492 306.361568 
L 349.631492 306.491579 
L 349.828491 306.813826 
L 350.02549 306.847745 
L 350.222489 307.117384 
L 350.419488 307.117384 
L 350.616487 307.493784 
L 351.207485 307.57148 
L 351.601483 307.54208 
L 351.995481 302.165353 
L 352.389479 302.226442 
L 352.783477 306.624633 
L 352.980477 306.624633 
L 353.177476 306.291757 
L 353.374475 304.209414 
L 353.768473 304.209414 
L 353.965472 303.716703 
L 354.162471 306.494295 
L 354.35947 307.081601 
L 354.753469 307.337051 
L 355.147467 307.198294 
L 355.344466 305.967157 
L 355.541465 303.265264 
L 355.935463 303.328311 
L 356.132462 303.328311 
L 356.526461 307.116922 
L 356.72346 307.386639 
L 357.511456 307.386639 
L 357.708455 306.867622 
L 357.905455 306.867622 
L 358.102454 304.852015 
L 358.299453 304.852015 
L 358.496452 306.867622 
L 358.89045 307.306656 
L 359.087449 307.306656 
L 359.284448 307.16556 
L 359.481447 307.16556 
L 359.678447 306.444034 
L 359.875446 306.444034 
L 360.269444 307.16556 
L 360.466443 306.806903 
L 360.663442 307.313095 
L 361.05744 306.257624 
L 361.25444 306.257624 
L 361.451439 306.744527 
L 361.648438 306.257624 
L 361.845437 306.744527 
L 362.042436 306.855213 
L 362.239435 307.315735 
L 362.436434 307.315735 
L 362.633433 307.476018 
L 362.830432 307.315735 
L 363.027432 306.708248 
L 363.224431 306.835324 
L 363.42143 304.238655 
L 363.618429 304.211299 
L 363.815428 306.835324 
L 364.012427 305.860551 
L 364.406425 305.860551 
L 364.603425 307.303959 
L 364.800424 307.303959 
L 364.997423 306.810691 
L 365.194422 307.34693 
L 365.391421 306.810691 
L 366.179417 306.813745 
L 366.376417 305.803165 
L 366.573416 305.57217 
L 366.967414 305.57217 
L 367.164413 307.487976 
L 367.558411 307.487976 
L 367.75541 306.8866 
L 368.346408 306.8866 
L 368.543407 307.274801 
L 368.740406 304.744586 
L 369.331403 304.758235 
L 369.528402 306.912521 
L 370.1194 306.840774 
L 370.316399 306.507169 
L 370.513398 304.449179 
L 370.907396 304.449179 
L 371.104395 306.479325 
L 371.301395 307.10964 
L 371.892392 307.051518 
L 372.28639 306.026824 
L 372.483389 306.026824 
L 372.680388 302.0048 
L 372.877387 303.044328 
L 373.074387 303.044328 
L 373.271386 302.0048 
L 373.468385 303.044328 
L 373.665384 306.003961 
L 373.862383 306.003961 
L 374.059382 302.0048 
L 374.256381 306.96859 
L 374.45338 304.341446 
L 374.847379 305.858371 
L 375.044378 305.858371 
L 375.241377 307.022925 
L 375.635375 307.022925 
L 375.832374 305.650655 
L 376.226372 305.650655 
L 376.423372 305.972571 
L 376.620371 306.746315 
L 377.014369 306.746315 
L 377.211368 306.540693 
L 377.408367 306.540693 
L 377.605366 306.871641 
L 378.590362 306.925983 
L 378.787361 307.568171 
L 379.378358 307.568171 
L 379.575357 306.30276 
L 379.772357 299.039622 
L 379.969356 299.039622 
L 380.166355 299.804062 
L 380.363354 299.804062 
L 380.560353 306.941721 
L 380.757352 306.941721 
L 381.15135 307.543914 
L 381.545349 307.161598 
L 382.136346 307.072563 
L 382.333345 306.628449 
L 382.530344 306.628449 
L 382.727343 307.012358 
L 383.121342 307.129598 
L 383.318341 307.129598 
L 383.51534 302.709213 
L 383.909338 302.709213 
L 384.106337 304.277179 
L 384.303336 304.277179 
L 384.500335 303.301682 
L 384.697335 300.530659 
L 385.288332 300.530659 
L 385.68233 303.645298 
L 385.879329 302.108085 
L 386.076328 299.637387 
L 386.273327 303.645298 
L 386.470327 304.936412 
L 386.864325 304.936412 
L 387.061324 302.075044 
L 387.455322 302.065263 
L 388.04632 306.482845 
L 388.243319 306.482845 
L 388.637317 302.133355 
L 388.834316 302.133355 
L 389.031315 304.560848 
L 389.228314 304.560848 
L 389.425313 301.267085 
L 389.819312 301.267085 
L 390.016311 302.0048 
L 390.410309 302.501014 
L 390.607308 305.818826 
L 391.986302 305.82212 
L 392.183301 306.351971 
L 392.3803 306.351971 
L 392.577299 305.847927 
L 393.168297 305.805135 
L 393.365296 305.805135 
L 393.956293 307.186181 
L 394.350291 307.186181 
L 394.744289 307.566168 
L 395.138288 307.534037 
L 395.335287 307.321357 
L 395.532286 307.321357 
L 395.729285 307.087058 
L 395.926284 307.530937 
L 398.487273 307.519707 
L 398.487273 307.519707 
" style="fill:none;stroke:#ff7f0e;stroke-linecap:square;stroke-width:1.5;"/>
   </g>
   <g id="patch_3">
    <path d="M 57.6 307.584 
L 57.6 41.472 
" style="fill:none;stroke:#000000;stroke-linecap:square;stroke-linejoin:miter;stroke-width:0.8;"/>
   </g>
   <g id="patch_4">
    <path d="M 414.72 307.584 
L 414.72 41.472 
" style="fill:none;stroke:#000000;stroke-linecap:square;stroke-linejoin:miter;stroke-width:0.8;"/>
   </g>
   <g id="patch_5">
    <path d="M 57.6 307.584 
L 414.72 307.584 
" style="fill:none;stroke:#000000;stroke-linecap:square;stroke-linejoin:miter;stroke-width:0.8;"/>
   </g>
   <g id="patch_6">
    <path d="M 57.6 41.472 
L 414.72 41.472 
" style="fill:none;stroke:#000000;stroke-linecap:square;stroke-linejoin:miter;stroke-width:0.8;"/>
   </g>
  </g>
 </g>
 <defs>
  <clipPath id="pac4be0cefb">
   <rect height="266.112" width="357.12" x="57.6" y="41.472"/>
  </clipPath>
 </defs>
</svg>
