<?xml version="1.0" encoding="utf-8" standalone="no"?>
<!DOCTYPE svg PUBLIC "-//W3C//DTD SVG 1.1//EN"
  "http://www.w3.org/Graphics/SVG/1.1/DTD/svg11.dtd">
<svg height="720pt" version="1.1" viewBox="0 0 1440 720" width="1440pt" xmlns="http://www.w3.org/2000/svg" xmlns:xlink="http://www.w3.org/1999/xlink">
 <metadata>
  <rdf:RDF xmlns:cc="http://creativecommons.org/ns#" xmlns:dc="http://purl.org/dc/elements/1.1/" xmlns:rdf="http://www.w3.org/1999/02/22-rdf-syntax-ns#">
   <cc:Work>
    <dc:type rdf:resource="http://purl.org/dc/dcmitype/StillImage"/>
    <dc:date>2022-01-06T21:34:55.787717</dc:date>
    <dc:format>image/svg+xml</dc:format>
    <dc:creator>
     <cc:Agent>
      <dc:title>Matplotlib v3.4.3, https://matplotlib.org/</dc:title>
     </cc:Agent>
    </dc:creator>
   </cc:Work>
  </rdf:RDF>
 </metadata>
 <defs>
  <style type="text/css">*{stroke-linecap:butt;stroke-linejoin:round;}</style>
 </defs>
 <g id="figure_1">
  <g id="patch_1">
   <path d="M 0 720 
L 1440 720 
L 1440 0 
L 0 0 
z
" style="fill:#ffffff;"/>
  </g>
  <g id="axes_1">
   <g id="patch_2">
    <path d="M 180 640.8 
L 1296 640.8 
L 1296 86.4 
L 180 86.4 
z
" style="fill:#ffffff;"/>
   </g>
   <g id="matplotlib.axis_1">
    <g id="xtick_1">
     <g id="line2d_1">
      <defs>
       <path d="M 0 0 
L 0 3.5 
" id="m573a85f115" style="stroke:#000000;stroke-width:0.8;"/>
      </defs>
      <g>
       <use style="stroke:#000000;stroke-width:0.8;" x="230.727273" xlink:href="#m573a85f115" y="640.8"/>
      </g>
     </g>
     <g id="text_1">
      <!-- 39000 -->
      <g transform="translate(214.821023 655.398438)scale(0.1 -0.1)">
       <defs>
        <path d="M 2597 2516 
Q 3050 2419 3304 2112 
Q 3559 1806 3559 1356 
Q 3559 666 3084 287 
Q 2609 -91 1734 -91 
Q 1441 -91 1130 -33 
Q 819 25 488 141 
L 488 750 
Q 750 597 1062 519 
Q 1375 441 1716 441 
Q 2309 441 2620 675 
Q 2931 909 2931 1356 
Q 2931 1769 2642 2001 
Q 2353 2234 1838 2234 
L 1294 2234 
L 1294 2753 
L 1863 2753 
Q 2328 2753 2575 2939 
Q 2822 3125 2822 3475 
Q 2822 3834 2567 4026 
Q 2313 4219 1838 4219 
Q 1578 4219 1281 4162 
Q 984 4106 628 3988 
L 628 4550 
Q 988 4650 1302 4700 
Q 1616 4750 1894 4750 
Q 2613 4750 3031 4423 
Q 3450 4097 3450 3541 
Q 3450 3153 3228 2886 
Q 3006 2619 2597 2516 
z
" id="DejaVuSans-33" transform="scale(0.015625)"/>
        <path d="M 703 97 
L 703 672 
Q 941 559 1184 500 
Q 1428 441 1663 441 
Q 2288 441 2617 861 
Q 2947 1281 2994 2138 
Q 2813 1869 2534 1725 
Q 2256 1581 1919 1581 
Q 1219 1581 811 2004 
Q 403 2428 403 3163 
Q 403 3881 828 4315 
Q 1253 4750 1959 4750 
Q 2769 4750 3195 4129 
Q 3622 3509 3622 2328 
Q 3622 1225 3098 567 
Q 2575 -91 1691 -91 
Q 1453 -91 1209 -44 
Q 966 3 703 97 
z
M 1959 2075 
Q 2384 2075 2632 2365 
Q 2881 2656 2881 3163 
Q 2881 3666 2632 3958 
Q 2384 4250 1959 4250 
Q 1534 4250 1286 3958 
Q 1038 3666 1038 3163 
Q 1038 2656 1286 2365 
Q 1534 2075 1959 2075 
z
" id="DejaVuSans-39" transform="scale(0.015625)"/>
        <path d="M 2034 4250 
Q 1547 4250 1301 3770 
Q 1056 3291 1056 2328 
Q 1056 1369 1301 889 
Q 1547 409 2034 409 
Q 2525 409 2770 889 
Q 3016 1369 3016 2328 
Q 3016 3291 2770 3770 
Q 2525 4250 2034 4250 
z
M 2034 4750 
Q 2819 4750 3233 4129 
Q 3647 3509 3647 2328 
Q 3647 1150 3233 529 
Q 2819 -91 2034 -91 
Q 1250 -91 836 529 
Q 422 1150 422 2328 
Q 422 3509 836 4129 
Q 1250 4750 2034 4750 
z
" id="DejaVuSans-30" transform="scale(0.015625)"/>
       </defs>
       <use xlink:href="#DejaVuSans-33"/>
       <use x="63.623047" xlink:href="#DejaVuSans-39"/>
       <use x="127.246094" xlink:href="#DejaVuSans-30"/>
       <use x="190.869141" xlink:href="#DejaVuSans-30"/>
       <use x="254.492188" xlink:href="#DejaVuSans-30"/>
      </g>
     </g>
    </g>
    <g id="xtick_2">
     <g id="line2d_2">
      <g>
       <use style="stroke:#000000;stroke-width:0.8;" x="384.632833" xlink:href="#m573a85f115" y="640.8"/>
      </g>
     </g>
     <g id="text_2">
      <!-- 39250 -->
      <g transform="translate(368.726583 655.398438)scale(0.1 -0.1)">
       <defs>
        <path d="M 1228 531 
L 3431 531 
L 3431 0 
L 469 0 
L 469 531 
Q 828 903 1448 1529 
Q 2069 2156 2228 2338 
Q 2531 2678 2651 2914 
Q 2772 3150 2772 3378 
Q 2772 3750 2511 3984 
Q 2250 4219 1831 4219 
Q 1534 4219 1204 4116 
Q 875 4013 500 3803 
L 500 4441 
Q 881 4594 1212 4672 
Q 1544 4750 1819 4750 
Q 2544 4750 2975 4387 
Q 3406 4025 3406 3419 
Q 3406 3131 3298 2873 
Q 3191 2616 2906 2266 
Q 2828 2175 2409 1742 
Q 1991 1309 1228 531 
z
" id="DejaVuSans-32" transform="scale(0.015625)"/>
        <path d="M 691 4666 
L 3169 4666 
L 3169 4134 
L 1269 4134 
L 1269 2991 
Q 1406 3038 1543 3061 
Q 1681 3084 1819 3084 
Q 2600 3084 3056 2656 
Q 3513 2228 3513 1497 
Q 3513 744 3044 326 
Q 2575 -91 1722 -91 
Q 1428 -91 1123 -41 
Q 819 9 494 109 
L 494 744 
Q 775 591 1075 516 
Q 1375 441 1709 441 
Q 2250 441 2565 725 
Q 2881 1009 2881 1497 
Q 2881 1984 2565 2268 
Q 2250 2553 1709 2553 
Q 1456 2553 1204 2497 
Q 953 2441 691 2322 
L 691 4666 
z
" id="DejaVuSans-35" transform="scale(0.015625)"/>
       </defs>
       <use xlink:href="#DejaVuSans-33"/>
       <use x="63.623047" xlink:href="#DejaVuSans-39"/>
       <use x="127.246094" xlink:href="#DejaVuSans-32"/>
       <use x="190.869141" xlink:href="#DejaVuSans-35"/>
       <use x="254.492188" xlink:href="#DejaVuSans-30"/>
      </g>
     </g>
    </g>
    <g id="xtick_3">
     <g id="line2d_3">
      <g>
       <use style="stroke:#000000;stroke-width:0.8;" x="538.538394" xlink:href="#m573a85f115" y="640.8"/>
      </g>
     </g>
     <g id="text_3">
      <!-- 39500 -->
      <g transform="translate(522.632144 655.398438)scale(0.1 -0.1)">
       <use xlink:href="#DejaVuSans-33"/>
       <use x="63.623047" xlink:href="#DejaVuSans-39"/>
       <use x="127.246094" xlink:href="#DejaVuSans-35"/>
       <use x="190.869141" xlink:href="#DejaVuSans-30"/>
       <use x="254.492188" xlink:href="#DejaVuSans-30"/>
      </g>
     </g>
    </g>
    <g id="xtick_4">
     <g id="line2d_4">
      <g>
       <use style="stroke:#000000;stroke-width:0.8;" x="692.443954" xlink:href="#m573a85f115" y="640.8"/>
      </g>
     </g>
     <g id="text_4">
      <!-- 39750 -->
      <g transform="translate(676.537704 655.398438)scale(0.1 -0.1)">
       <defs>
        <path d="M 525 4666 
L 3525 4666 
L 3525 4397 
L 1831 0 
L 1172 0 
L 2766 4134 
L 525 4134 
L 525 4666 
z
" id="DejaVuSans-37" transform="scale(0.015625)"/>
       </defs>
       <use xlink:href="#DejaVuSans-33"/>
       <use x="63.623047" xlink:href="#DejaVuSans-39"/>
       <use x="127.246094" xlink:href="#DejaVuSans-37"/>
       <use x="190.869141" xlink:href="#DejaVuSans-35"/>
       <use x="254.492188" xlink:href="#DejaVuSans-30"/>
      </g>
     </g>
    </g>
    <g id="xtick_5">
     <g id="line2d_5">
      <g>
       <use style="stroke:#000000;stroke-width:0.8;" x="846.349515" xlink:href="#m573a85f115" y="640.8"/>
      </g>
     </g>
     <g id="text_5">
      <!-- 40000 -->
      <g transform="translate(830.443265 655.398438)scale(0.1 -0.1)">
       <defs>
        <path d="M 2419 4116 
L 825 1625 
L 2419 1625 
L 2419 4116 
z
M 2253 4666 
L 3047 4666 
L 3047 1625 
L 3713 1625 
L 3713 1100 
L 3047 1100 
L 3047 0 
L 2419 0 
L 2419 1100 
L 313 1100 
L 313 1709 
L 2253 4666 
z
" id="DejaVuSans-34" transform="scale(0.015625)"/>
       </defs>
       <use xlink:href="#DejaVuSans-34"/>
       <use x="63.623047" xlink:href="#DejaVuSans-30"/>
       <use x="127.246094" xlink:href="#DejaVuSans-30"/>
       <use x="190.869141" xlink:href="#DejaVuSans-30"/>
       <use x="254.492188" xlink:href="#DejaVuSans-30"/>
      </g>
     </g>
    </g>
    <g id="xtick_6">
     <g id="line2d_6">
      <g>
       <use style="stroke:#000000;stroke-width:0.8;" x="1000.255075" xlink:href="#m573a85f115" y="640.8"/>
      </g>
     </g>
     <g id="text_6">
      <!-- 40250 -->
      <g transform="translate(984.348825 655.398438)scale(0.1 -0.1)">
       <use xlink:href="#DejaVuSans-34"/>
       <use x="63.623047" xlink:href="#DejaVuSans-30"/>
       <use x="127.246094" xlink:href="#DejaVuSans-32"/>
       <use x="190.869141" xlink:href="#DejaVuSans-35"/>
       <use x="254.492188" xlink:href="#DejaVuSans-30"/>
      </g>
     </g>
    </g>
    <g id="xtick_7">
     <g id="line2d_7">
      <g>
       <use style="stroke:#000000;stroke-width:0.8;" x="1154.160635" xlink:href="#m573a85f115" y="640.8"/>
      </g>
     </g>
     <g id="text_7">
      <!-- 40500 -->
      <g transform="translate(1138.254385 655.398438)scale(0.1 -0.1)">
       <use xlink:href="#DejaVuSans-34"/>
       <use x="63.623047" xlink:href="#DejaVuSans-30"/>
       <use x="127.246094" xlink:href="#DejaVuSans-35"/>
       <use x="190.869141" xlink:href="#DejaVuSans-30"/>
       <use x="254.492188" xlink:href="#DejaVuSans-30"/>
      </g>
     </g>
    </g>
   </g>
   <g id="matplotlib.axis_2">
    <g id="ytick_1">
     <g id="line2d_8">
      <defs>
       <path d="M 0 0 
L -3.5 0 
" id="m67440c5637" style="stroke:#000000;stroke-width:0.8;"/>
      </defs>
      <g>
       <use style="stroke:#000000;stroke-width:0.8;" x="180" xlink:href="#m67440c5637" y="574.045101"/>
      </g>
     </g>
     <g id="text_8">
      <!-- −3 -->
      <g transform="translate(158.257812 577.84432)scale(0.1 -0.1)">
       <defs>
        <path d="M 678 2272 
L 4684 2272 
L 4684 1741 
L 678 1741 
L 678 2272 
z
" id="DejaVuSans-2212" transform="scale(0.015625)"/>
       </defs>
       <use xlink:href="#DejaVuSans-2212"/>
       <use x="83.789062" xlink:href="#DejaVuSans-33"/>
      </g>
     </g>
    </g>
    <g id="ytick_2">
     <g id="line2d_9">
      <g>
       <use style="stroke:#000000;stroke-width:0.8;" x="180" xlink:href="#m67440c5637" y="490.758859"/>
      </g>
     </g>
     <g id="text_9">
      <!-- −2 -->
      <g transform="translate(158.257812 494.558078)scale(0.1 -0.1)">
       <use xlink:href="#DejaVuSans-2212"/>
       <use x="83.789062" xlink:href="#DejaVuSans-32"/>
      </g>
     </g>
    </g>
    <g id="ytick_3">
     <g id="line2d_10">
      <g>
       <use style="stroke:#000000;stroke-width:0.8;" x="180" xlink:href="#m67440c5637" y="407.472617"/>
      </g>
     </g>
     <g id="text_10">
      <!-- −1 -->
      <g transform="translate(158.257812 411.271836)scale(0.1 -0.1)">
       <defs>
        <path d="M 794 531 
L 1825 531 
L 1825 4091 
L 703 3866 
L 703 4441 
L 1819 4666 
L 2450 4666 
L 2450 531 
L 3481 531 
L 3481 0 
L 794 0 
L 794 531 
z
" id="DejaVuSans-31" transform="scale(0.015625)"/>
       </defs>
       <use xlink:href="#DejaVuSans-2212"/>
       <use x="83.789062" xlink:href="#DejaVuSans-31"/>
      </g>
     </g>
    </g>
    <g id="ytick_4">
     <g id="line2d_11">
      <g>
       <use style="stroke:#000000;stroke-width:0.8;" x="180" xlink:href="#m67440c5637" y="324.186375"/>
      </g>
     </g>
     <g id="text_11">
      <!-- 0 -->
      <g transform="translate(166.6375 327.985593)scale(0.1 -0.1)">
       <use xlink:href="#DejaVuSans-30"/>
      </g>
     </g>
    </g>
    <g id="ytick_5">
     <g id="line2d_12">
      <g>
       <use style="stroke:#000000;stroke-width:0.8;" x="180" xlink:href="#m67440c5637" y="240.900133"/>
      </g>
     </g>
     <g id="text_12">
      <!-- 1 -->
      <g transform="translate(166.6375 244.699351)scale(0.1 -0.1)">
       <use xlink:href="#DejaVuSans-31"/>
      </g>
     </g>
    </g>
    <g id="ytick_6">
     <g id="line2d_13">
      <g>
       <use style="stroke:#000000;stroke-width:0.8;" x="180" xlink:href="#m67440c5637" y="157.613891"/>
      </g>
     </g>
     <g id="text_13">
      <!-- 2 -->
      <g transform="translate(166.6375 161.413109)scale(0.1 -0.1)">
       <use xlink:href="#DejaVuSans-32"/>
      </g>
     </g>
    </g>
   </g>
   <g id="line2d_14">
    <path clip-path="url(#p780c80a53c)" d="M 230.727273 421.868505 
L 231.342895 420.155181 
L 230.727273 420.155181 
L 231.958517 420.155181 
L 232.574139 404.028793 
L 234.421006 404.028793 
L 235.036628 338.186055 
L 235.652251 336.244073 
L 235.036628 336.244073 
L 236.883495 336.244073 
L 237.499117 342.97811 
L 238.11474 382.551655 
L 238.730362 411.397977 
L 239.345984 411.397977 
L 240.577229 403.715838 
L 241.808473 403.715838 
L 242.424095 419.224038 
L 243.039718 460.330444 
L 243.65534 460.330444 
L 244.270962 469.586849 
L 244.886584 469.586849 
L 246.117829 430.207846 
L 247.964695 430.207846 
L 248.580318 418.828236 
L 249.19594 440.143943 
L 249.811562 440.143943 
L 250.427184 450.101795 
L 251.042807 450.101795 
L 251.658429 467.097882 
L 252.889673 467.097882 
L 253.505296 446.591172 
L 254.120918 446.591172 
L 254.73654 441.710493 
L 255.352162 441.710493 
L 255.967785 457.49412 
L 256.583407 425.845067 
L 257.199029 459.003119 
L 258.430274 459.003119 
L 259.661518 391.299058 
L 260.27714 424.902408 
L 260.892763 389.106262 
L 261.508385 387.73169 
L 262.124007 389.106262 
L 262.739629 389.106262 
L 263.355252 425.14978 
L 263.970874 425.14978 
L 264.586496 455.366332 
L 265.202118 395.793413 
L 265.817741 395.793413 
L 266.433363 420.524418 
L 267.048985 420.768306 
L 267.664607 420.524418 
L 268.280229 420.524418 
L 268.895852 395.357928 
L 270.127096 395.357928 
L 270.742718 407.98371 
L 271.358341 424.607838 
L 271.973963 425.743588 
L 272.589585 425.743588 
L 273.205207 431.598304 
L 273.82083 430.337469 
L 275.052074 416.433932 
L 275.667696 414.522269 
L 276.283319 389.522695 
L 276.898941 382.308672 
L 277.514563 404.935862 
L 278.130185 381.112625 
L 278.745808 366.936504 
L 279.36143 393.631855 
L 279.977052 393.631855 
L 280.592674 366.936504 
L 281.208297 361.155763 
L 281.823919 393.631855 
L 282.439541 361.155763 
L 283.055163 415.678459 
L 283.670786 415.678459 
L 284.286408 410.433545 
L 285.517652 410.433545 
L 286.133274 392.874464 
L 286.748897 410.433545 
L 287.364519 422.725947 
L 287.980141 417.613092 
L 289.827008 417.613092 
L 290.44263 418.242401 
L 291.058252 418.242401 
L 291.673875 410.560525 
L 293.520741 410.560525 
L 294.136364 406.400281 
L 295.367608 406.400281 
L 295.98323 405.208851 
L 296.598853 420.390309 
L 297.830097 420.390309 
L 298.445719 376.735452 
L 299.061342 361.808985 
L 299.676964 361.208335 
L 301.523831 361.208335 
L 302.755075 414.109899 
L 303.370697 420.847444 
L 303.98632 421.804975 
L 305.217564 421.804975 
L 305.833186 389.052772 
L 306.448808 421.804975 
L 307.064431 426.748426 
L 307.680053 411.444987 
L 308.295675 411.444987 
L 308.911297 412.015146 
L 310.758164 412.015146 
L 311.373786 416.388603 
L 311.989409 419.872676 
L 312.605031 428.663086 
L 313.220653 432.201456 
L 313.836275 432.201456 
L 313.220653 432.201456 
L 314.451898 501.787149 
L 313.836275 501.787149 
L 315.06752 441.238749 
L 315.683142 441.238749 
L 316.298764 414.70102 
L 316.914387 414.70102 
L 317.530009 413.269166 
L 318.145631 492.570166 
L 318.761253 424.903507 
L 319.992498 424.903507 
L 319.376876 424.903507 
L 320.60812 413.024594 
L 322.454987 413.024594 
L 323.070609 406.883776 
L 324.301853 377.403904 
L 324.917476 377.403904 
L 325.533098 390.7449 
L 326.14872 391.362161 
L 326.764342 394.980632 
L 327.379965 435.132428 
L 327.995587 436.73424 
L 328.611209 493.235874 
L 329.226831 493.235874 
L 329.842454 482.054848 
L 330.458076 400.858318 
L 332.304943 400.858318 
L 332.920565 402.239053 
L 333.536187 420.033079 
L 334.151809 424.675926 
L 334.767432 416.630438 
L 335.383054 416.630438 
L 335.998676 444.666281 
L 336.614298 448.079885 
L 337.845543 448.079885 
L 338.461165 459.728773 
L 339.076787 459.728773 
L 339.69241 493.30001 
L 340.308032 536.703839 
L 340.923654 536.703839 
L 341.539276 499.115699 
L 342.154898 493.30001 
L 342.770521 476.776433 
L 344.001765 476.776433 
L 343.386143 414.918686 
L 344.617387 414.918686 
L 345.23301 403.620005 
L 346.464254 403.620005 
L 347.079876 464.297811 
L 347.695499 464.297811 
L 348.311121 489.819833 
L 348.926743 489.819833 
L 349.542365 482.120918 
L 350.157988 432.37581 
L 350.77361 451.833563 
L 353.236099 451.833563 
L 353.851721 411.038137 
L 354.467343 395.7085 
L 355.082966 385.212236 
L 355.698588 395.7085 
L 356.31421 378.00727 
L 356.929832 378.00727 
L 357.545455 416.885032 
L 358.161077 414.745812 
L 358.776699 414.745812 
L 358.161077 382.981941 
L 359.392321 382.981941 
L 360.007944 369.725776 
L 360.623566 369.725776 
L 361.239188 407.491767 
L 361.85481 414.960483 
L 362.470432 506.498209 
L 363.086055 414.960483 
L 363.701677 414.960483 
L 364.317299 445.552582 
L 364.932921 423.775474 
L 365.548544 388.391623 
L 366.164166 383.364765 
L 366.779788 411.732341 
L 367.39541 383.364765 
L 368.011033 383.364765 
L 368.626655 411.732341 
L 369.242277 418.331852 
L 369.857899 419.244947 
L 370.473522 427.538399 
L 371.089144 509.932129 
L 371.704766 509.932129 
L 372.320388 518.384826 
L 372.936011 518.384826 
L 373.551633 473.848603 
L 374.167255 442.506455 
L 374.782877 442.506455 
L 375.3985 432.636288 
L 376.014122 442.506455 
L 376.629744 500.988549 
L 377.245366 500.988549 
L 376.629744 500.988549 
L 378.476611 552.875397 
L 379.092233 552.875397 
L 379.707855 570.65303 
L 380.323477 554.730775 
L 382.785966 554.730775 
L 383.401589 551.040101 
L 384.017211 559.294687 
L 384.632833 559.294687 
L 385.248455 551.040101 
L 385.864078 559.294687 
L 386.4797 518.157667 
L 387.710944 518.157667 
L 388.326567 438.820583 
L 388.942189 438.820583 
L 389.557811 389.699356 
L 390.173433 418.576567 
L 390.789056 417.319492 
L 391.404678 417.319492 
L 392.0203 418.576567 
L 392.635922 418.576567 
L 393.251545 427.802794 
L 393.867167 406.883776 
L 394.482789 406.883776 
L 395.098411 427.802794 
L 395.714034 408.815687 
L 396.329656 446.552859 
L 396.945278 446.552859 
L 397.5609 408.815687 
L 398.176523 408.815687 
L 398.792145 406.883776 
L 399.407767 406.883776 
L 400.023389 409.251169 
L 398.792145 409.251169 
L 400.639011 376.243256 
L 401.870256 376.243256 
L 402.485878 362.041969 
L 403.1015 376.243256 
L 403.717123 362.041969 
L 404.332745 389.489902 
L 404.948367 507.96094 
L 405.563989 507.96094 
L 406.179612 415.389386 
L 407.410856 415.229308 
L 408.026478 415.307347 
L 408.642101 434.121222 
L 409.257723 434.121222 
L 409.873345 458.732278 
L 410.488967 468.353279 
L 411.10459 605.952534 
L 411.720212 483.530142 
L 412.951456 483.530142 
L 413.567079 397.420172 
L 414.182701 335.620096 
L 414.798323 397.420172 
L 415.413945 397.420172 
L 416.029568 311.195573 
L 416.64519 311.195573 
L 417.260812 383.706729 
L 417.876434 385.457619 
L 418.492056 523.238208 
L 419.107679 462.956647 
L 419.723301 527.229976 
L 420.338923 462.956647 
L 420.954545 544.0384 
L 421.570168 462.956647 
L 422.18579 544.0384 
L 422.801412 415.517283 
L 423.417034 485.185009 
L 424.648279 485.185009 
L 425.263901 421.429689 
L 425.879523 421.429689 
L 426.495146 376.627977 
L 427.110768 376.627977 
L 427.72639 421.429689 
L 428.342012 445.981497 
L 428.957635 488.584109 
L 429.573257 542.11645 
L 430.188879 517.094222 
L 430.804501 517.094222 
L 431.420124 516.889863 
L 432.035746 497.255374 
L 433.26699 497.255374 
L 433.882613 531.166777 
L 434.498235 531.166777 
L 435.113857 457.429744 
L 435.729479 465.423164 
L 436.345102 341.693431 
L 436.960724 341.693431 
L 437.576346 389.605626 
L 438.191968 465.423164 
L 438.80759 610.133707 
L 439.423213 546.014555 
L 440.038835 546.014555 
L 440.654457 476.423748 
L 441.270079 441.782629 
L 441.885702 419.631473 
L 442.501324 419.631473 
L 443.116946 362.676717 
L 443.732568 362.676717 
L 444.348191 402.35802 
L 444.963813 430.917839 
L 445.579435 465.334606 
L 446.195057 473.167235 
L 448.041924 473.167235 
L 448.657546 455.040995 
L 449.273169 455.040995 
L 449.888791 533.62294 
L 450.504413 455.040995 
L 451.120035 533.62294 
L 452.35128 533.62294 
L 452.966902 527.663736 
L 454.198147 527.663736 
L 454.813769 516.218244 
L 455.429391 392.040255 
L 456.660635 392.040255 
L 457.276258 324.678009 
L 458.507502 324.678009 
L 459.123124 374.777915 
L 458.507502 381.365046 
L 459.738747 381.365046 
L 460.354369 374.777915 
L 460.969991 381.365046 
L 461.585613 381.365046 
L 459.123124 395.631242 
L 462.201236 415.446686 
L 462.816858 415.446686 
L 463.43248 415.819475 
L 464.048102 415.819475 
L 464.663725 404.856198 
L 465.279347 375.339977 
L 466.510591 375.339977 
L 467.126214 416.986806 
L 467.741836 433.379543 
L 468.357458 456.194607 
L 468.97308 455.939798 
L 469.588703 416.524862 
L 472.051192 416.423242 
L 472.666814 399.172416 
L 473.898058 448.634351 
L 474.51368 423.570451 
L 475.744925 423.570451 
L 476.360547 440.782409 
L 476.976169 395.480628 
L 477.591792 440.782409 
L 478.207414 395.480628 
L 478.823036 334.471899 
L 479.438658 334.471899 
L 480.054281 414.697581 
L 481.285525 414.697581 
L 481.901147 410.215599 
L 482.51677 374.100759 
L 483.132392 366.76011 
L 483.748014 354.429843 
L 484.363636 325.798138 
L 484.979259 318.738704 
L 485.594881 325.798138 
L 486.210503 374.100759 
L 486.826125 374.100759 
L 487.441748 350.848709 
L 488.05737 350.848709 
L 488.672992 360.491192 
L 489.288614 353.568791 
L 491.751103 353.568791 
L 492.366726 337.028231 
L 492.982348 393.597544 
L 493.59797 393.597544 
L 494.213592 401.339356 
L 494.829214 401.339356 
L 495.444837 371.734659 
L 494.213592 369.266745 
L 496.060459 343.076094 
L 497.291703 343.076094 
L 497.907326 349.377686 
L 498.522948 349.377686 
L 499.13857 361.03424 
L 499.754192 378.557732 
L 500.985437 380.217432 
L 501.601059 385.125822 
L 502.216681 385.125822 
L 502.832304 394.006216 
L 503.447926 419.034266 
L 504.063548 419.034266 
L 504.67917 436.807236 
L 505.294793 419.034266 
L 505.910415 393.472108 
L 506.526037 382.665616 
L 507.141659 364.013194 
L 507.757282 364.013194 
L 507.141659 364.013194 
L 508.372904 362.494447 
L 508.988526 362.494447 
L 509.604148 364.868267 
L 511.451015 364.868267 
L 512.066637 348.170035 
L 513.297882 348.170035 
L 513.913504 411.674376 
L 514.529126 434.000744 
L 515.144748 440.155868 
L 515.760371 434.000744 
L 514.529126 439.078934 
L 516.375993 434.000744 
L 516.991615 407.747812 
L 517.607237 401.751698 
L 518.22286 401.751698 
L 518.838482 382.318721 
L 519.454104 382.318721 
L 520.069726 371.884609 
L 521.300971 391.165171 
L 521.916593 391.165171 
L 522.532215 379.035669 
L 523.147838 382.875019 
L 523.76346 379.035669 
L 524.379082 382.875019 
L 524.994704 416.918923 
L 525.610327 423.955859 
L 526.225949 423.955859 
L 526.841571 423.023896 
L 527.457193 423.955859 
L 528.072816 368.09441 
L 529.30406 368.09441 
L 529.919682 342.683994 
L 530.535305 365.460443 
L 531.150927 405.783085 
L 531.766549 378.824608 
L 532.382171 378.824608 
L 532.997793 400.713036 
L 534.229038 400.713036 
L 534.84466 401.919369 
L 536.691527 401.919369 
L 537.307149 392.03536 
L 537.922771 360.584308 
L 538.538394 343.802342 
L 539.769638 343.802342 
L 540.38526 346.906722 
L 541.000883 362.91367 
L 541.616505 383.31733 
L 542.232127 383.31733 
L 542.847749 397.360301 
L 543.463372 383.31733 
L 544.078994 390.961301 
L 544.694616 390.397914 
L 545.925861 390.397914 
L 546.541483 390.961301 
L 547.157105 390.397914 
L 547.772727 407.514958 
L 548.38835 407.514958 
L 549.619594 349.810265 
L 550.235216 356.29206 
L 549.619594 356.29206 
L 550.850838 356.29206 
L 551.466461 404.702649 
L 552.082083 407.860979 
L 553.313327 407.860979 
L 553.92895 394.722703 
L 554.544572 390.112996 
L 555.160194 390.112996 
L 555.775816 394.292616 
L 556.391439 394.292616 
L 557.007061 416.788819 
L 557.622683 416.788819 
L 558.238305 414.471423 
L 558.853928 414.471423 
L 559.46955 399.787177 
L 560.085172 400.124797 
L 560.700794 400.124797 
L 561.316417 406.108544 
L 561.932039 421.620103 
L 562.547661 426.29003 
L 563.163283 426.29003 
L 563.778906 427.75117 
L 564.394528 437.145276 
L 565.01015 437.145276 
L 565.625772 462.06886 
L 566.241395 462.06886 
L 566.857017 396.0411 
L 567.472639 390.137382 
L 568.088261 380.407253 
L 568.703883 390.137382 
L 569.319506 377.037158 
L 569.935128 467.707285 
L 570.55075 452.147041 
L 571.166372 366.01514 
L 571.781995 369.092761 
L 572.397617 363.546054 
L 573.013239 351.720578 
L 575.475728 351.720578 
L 576.09135 370.591321 
L 577.938217 370.591321 
L 578.553839 373.7419 
L 579.169462 381.265249 
L 579.785084 381.265249 
L 580.400706 403.81972 
L 581.016328 403.81972 
L 581.631951 437.003697 
L 582.247573 403.81972 
L 582.863195 403.81972 
L 583.478817 370.320203 
L 584.09444 370.320203 
L 584.710062 368.649367 
L 585.325684 370.320203 
L 585.941306 386.714134 
L 586.556929 386.714134 
L 587.172551 368.649367 
L 587.788173 366.386557 
L 589.019417 366.386557 
L 589.63504 373.318281 
L 590.866284 373.318281 
L 591.481906 397.350045 
L 592.097529 408.014166 
L 593.328773 408.014166 
L 593.944395 400.498569 
L 593.328773 397.394006 
L 594.560018 371.344245 
L 595.17564 365.790808 
L 595.791262 362.002965 
L 596.406884 362.002965 
L 597.022507 365.790808 
L 597.638129 368.295137 
L 598.253751 373.944344 
L 598.869373 373.944344 
L 599.484996 379.506663 
L 600.100618 383.986946 
L 600.71624 385.109208 
L 601.331862 385.109208 
L 601.947485 395.791016 
L 602.563107 396.991324 
L 603.178729 412.632985 
L 603.794351 436.204734 
L 604.409974 436.204734 
L 603.794351 440.295695 
L 605.025596 440.295695 
L 605.641218 432.483515 
L 606.25684 376.65966 
L 606.872462 376.617515 
L 607.488085 374.814118 
L 608.103707 374.814118 
L 608.719329 372.285166 
L 609.334951 356.398587 
L 609.950574 371.850155 
L 610.566196 356.398587 
L 611.181818 356.398587 
L 611.79744 371.850155 
L 612.413063 375.156915 
L 613.028685 388.862302 
L 614.259929 388.862302 
L 614.875552 379.00472 
L 615.491174 373.871454 
L 617.338041 373.871454 
L 617.953663 378.04949 
L 620.416152 378.04949 
L 621.031774 375.178363 
L 621.647396 376.205591 
L 622.263019 376.205591 
L 622.878641 389.029628 
L 623.494263 376.205591 
L 624.109885 379.016918 
L 624.725508 406.888006 
L 625.34113 427.529882 
L 625.956752 379.016918 
L 626.572374 427.529882 
L 627.187996 445.761992 
L 628.419241 445.671982 
L 629.034863 397.366756 
L 628.419241 397.366756 
L 629.650485 385.823409 
L 630.266108 385.823409 
L 630.88173 347.06579 
L 632.112974 347.06579 
L 633.344219 363.675292 
L 633.959841 367.113514 
L 634.575463 374.052885 
L 635.191086 405.194299 
L 635.806708 405.194299 
L 636.42233 374.052885 
L 637.037952 386.099676 
L 638.269197 386.099676 
L 638.884819 433.147189 
L 639.500441 437.477096 
L 640.731686 437.477096 
L 641.347308 436.007891 
L 641.96293 384.814012 
L 642.578553 433.879453 
L 643.194175 433.879453 
L 643.809797 422.274492 
L 644.425419 422.274492 
L 643.809797 417.561941 
L 645.041041 407.440176 
L 645.656664 407.440176 
L 646.272286 406.00569 
L 646.887908 406.00569 
L 647.50353 367.835454 
L 648.119153 406.00569 
L 648.734775 423.951564 
L 649.350397 423.951564 
L 649.966019 423.488432 
L 650.581642 423.488432 
L 651.197264 396.661463 
L 651.812886 378.772349 
L 653.044131 378.772349 
L 653.659753 362.779701 
L 654.275375 362.779701 
L 654.890997 378.890034 
L 655.50662 379.455468 
L 656.122242 378.890034 
L 657.353486 378.890034 
L 657.969109 387.21973 
L 658.584731 376.012172 
L 659.200353 376.012172 
L 659.815975 372.142107 
L 660.431598 372.142107 
L 661.04722 357.737657 
L 661.662842 351.720578 
L 662.278464 350.955939 
L 663.509709 350.955939 
L 664.125331 363.652859 
L 664.740953 369.735941 
L 665.356575 372.588628 
L 665.972198 369.735941 
L 666.58782 372.588628 
L 667.203442 372.588628 
L 667.819064 390.019925 
L 668.434687 391.315899 
L 669.050309 415.862346 
L 669.665931 433.201227 
L 670.281553 433.201227 
L 670.897176 377.179456 
L 671.512798 363.633066 
L 672.12842 363.633066 
L 672.744042 375.441104 
L 672.12842 375.441104 
L 673.975287 375.441104 
L 674.590909 392.809013 
L 675.206531 373.822331 
L 675.822154 373.822331 
L 676.437776 380.461981 
L 677.053398 392.809013 
L 677.66902 394.020552 
L 678.284643 394.020552 
L 678.900265 380.461981 
L 679.515887 394.020552 
L 680.131509 375.319089 
L 681.362754 375.319089 
L 681.978376 375.530061 
L 682.593998 375.319089 
L 683.20962 375.530061 
L 683.825243 365.473204 
L 684.440865 375.530061 
L 685.056487 388.926286 
L 685.672109 363.860445 
L 686.287732 384.471261 
L 686.903354 365.785328 
L 687.518976 365.785328 
L 688.134598 392.329662 
L 688.750221 392.329662 
L 689.365843 405.134688 
L 689.981465 405.134688 
L 690.597087 370.067052 
L 691.21271 365.472798 
L 691.828332 370.067052 
L 692.443954 365.472798 
L 693.059576 365.472798 
L 692.443954 365.472798 
L 693.675199 343.668642 
L 694.290821 341.638477 
L 695.522065 341.638477 
L 696.137688 362.47709 
L 696.75331 375.429074 
L 697.368932 382.416619 
L 697.984554 409.165639 
L 698.600177 409.165639 
L 699.215799 397.802019 
L 699.831421 396.064274 
L 700.447043 397.802019 
L 701.062665 397.622044 
L 701.678288 397.622044 
L 702.29391 366.811105 
L 702.909532 393.920294 
L 702.29391 393.920294 
L 703.525154 371.519755 
L 704.140777 371.519755 
L 704.756399 374.204061 
L 705.987643 374.204061 
L 705.372021 408.013869 
L 707.218888 408.013869 
L 707.83451 365.355993 
L 708.450132 365.355993 
L 709.065755 362.987146 
L 709.681377 365.355993 
L 710.296999 362.987146 
L 711.528244 362.987146 
L 712.143866 379.830985 
L 712.759488 309.203917 
L 713.37511 379.830985 
L 713.990733 379.830985 
L 714.606355 348.110282 
L 715.837599 348.110282 
L 716.453222 316.643705 
L 717.068844 333.597823 
L 718.300088 333.597823 
L 718.915711 368.329521 
L 719.531333 368.329521 
L 720.146955 382.304189 
L 720.762577 373.442004 
L 721.378199 368.329521 
L 721.993822 365.677936 
L 722.609444 365.677936 
L 723.225066 363.394407 
L 723.840688 348.772451 
L 724.456311 363.394407 
L 725.071933 365.593747 
L 725.687555 375.156915 
L 726.303177 436.970693 
L 727.534422 436.970693 
L 728.150044 458.961339 
L 728.765666 414.288254 
L 729.996911 414.288254 
L 730.612533 372.150102 
L 731.228155 367.6101 
L 731.843778 366.703243 
L 732.4594 365.243715 
L 733.075022 365.243715 
L 733.690644 366.703243 
L 734.306267 435.969683 
L 734.921889 435.969683 
L 735.537511 436.706302 
L 736.153133 347.711171 
L 736.768756 347.711171 
L 737.384378 351.610834 
L 738.615622 351.610834 
L 739.231244 355.947381 
L 739.846867 355.947381 
L 740.462489 364.724358 
L 741.078111 355.947381 
L 741.693733 355.947381 
L 742.309356 364.724358 
L 741.693733 391.074645 
L 742.924978 354.275962 
L 743.5406 399.044333 
L 744.156222 399.044333 
L 744.771845 364.688858 
L 745.387467 344.036768 
L 746.003089 364.688858 
L 746.618711 364.688858 
L 747.234334 344.036768 
L 747.849956 349.287755 
L 748.465578 361.876678 
L 749.696823 361.876678 
L 750.312445 375.081679 
L 750.928067 375.081679 
L 751.543689 384.631569 
L 749.696823 384.631569 
L 752.159312 384.631569 
L 752.774934 356.683396 
L 753.390556 412.320086 
L 754.006178 364.618368 
L 754.621801 356.683396 
L 755.237423 364.618368 
L 756.468667 364.618368 
L 757.084289 353.34708 
L 757.699912 374.215329 
L 758.315534 376.875598 
L 758.931156 378.009109 
L 759.546778 484.227919 
L 760.162401 484.227919 
L 760.778023 597.094724 
L 761.393645 367.499105 
L 762.009267 367.499105 
L 762.62489 425.344527 
L 763.240512 367.499105 
L 763.856134 416.322558 
L 764.471756 416.322558 
L 765.087379 372.589477 
L 765.703001 375.166123 
L 766.318623 372.589477 
L 766.934245 372.589477 
L 767.549868 371.775896 
L 768.16549 370.475078 
L 768.781112 340.216134 
L 769.396734 370.475078 
L 770.012357 341.715362 
L 770.627979 341.715362 
L 771.243601 346.482077 
L 771.859223 371.914206 
L 772.474846 384.027518 
L 773.70609 384.027518 
L 774.321712 376.252334 
L 774.937335 330.418381 
L 775.552957 330.418381 
L 776.168579 376.252334 
L 776.784201 347.471224 
L 777.399823 379.067784 
L 778.015446 379.067784 
L 778.631068 362.934378 
L 780.477935 362.934378 
L 781.093557 361.876678 
L 781.709179 371.692749 
L 782.324801 372.07109 
L 782.940424 361.876678 
L 783.556046 374.998026 
L 784.171668 341.053395 
L 784.78729 341.715362 
L 785.402913 363.925372 
L 786.018535 341.715362 
L 786.634157 363.925372 
L 787.249779 363.925372 
L 787.865402 362.002295 
L 788.481024 347.639609 
L 789.096646 362.002295 
L 790.327891 362.002295 
L 790.943513 374.922862 
L 791.559135 375.156915 
L 790.327891 374.922862 
L 792.174757 371.80921 
L 792.79038 375.156915 
L 793.406002 390.408404 
L 794.021624 410.664938 
L 795.252868 410.664938 
L 795.868491 346.775782 
L 797.715357 346.775782 
L 798.33098 364.773807 
L 798.946602 364.773807 
L 799.562224 339.67958 
L 800.177846 339.67958 
L 800.793469 340.957831 
L 802.024713 340.957831 
L 802.640335 350.00503 
L 803.255958 350.00503 
L 803.87158 326.291852 
L 804.487202 350.00503 
L 805.102824 383.635767 
L 805.718447 383.635767 
L 806.334069 394.439645 
L 806.949691 352.647265 
L 807.565313 352.647265 
L 808.180936 372.120834 
L 809.41218 372.120834 
L 810.643425 494.118969 
L 812.490291 494.118969 
L 813.105914 358.212597 
L 812.490291 358.212597 
L 813.721536 360.813948 
L 814.95278 360.813948 
L 815.568402 376.944961 
L 816.184025 372.574303 
L 815.568402 372.574303 
L 816.799647 372.574303 
L 817.415269 360.616783 
L 818.646514 360.616783 
L 819.262136 370.570962 
L 818.030891 376.725024 
L 819.877758 462.946593 
L 820.49338 416.604349 
L 821.109003 416.604349 
L 821.724625 368.951559 
L 822.340247 397.358665 
L 823.571492 397.358665 
L 824.187114 403.344858 
L 824.802736 397.358665 
L 823.571492 403.344858 
L 824.802736 365.475108 
L 825.418358 375.489947 
L 826.033981 365.475108 
L 826.649603 375.489947 
L 827.265225 363.183233 
L 827.880847 370.270377 
L 828.49647 363.183233 
L 829.727714 363.183233 
L 830.343336 367.164826 
L 830.958959 367.164826 
L 831.574581 375.603178 
L 832.190203 375.603178 
L 832.805825 387.124387 
L 833.421447 387.124387 
L 834.03707 375.156915 
L 835.268314 399.647303 
L 835.883936 375.156915 
L 836.499559 409.893357 
L 837.115181 409.893357 
L 837.730803 383.252419 
L 838.962048 383.252419 
L 839.57767 381.607174 
L 840.193292 383.252419 
L 840.808914 389.812424 
L 842.655781 389.812424 
L 843.271403 505.800336 
L 843.887026 505.800336 
L 844.502648 363.784534 
L 845.11827 355.233536 
L 845.733892 355.233536 
L 846.349515 351.645613 
L 846.965137 351.645613 
L 847.580759 357.889099 
L 848.196381 365.497096 
L 848.812004 365.497096 
L 849.427626 367.451005 
L 850.043248 374.764259 
L 850.65887 591.103719 
L 851.274492 591.103719 
L 851.890115 514.191761 
L 852.505737 404.750522 
L 853.121359 379.796508 
L 853.736981 404.750522 
L 854.352604 379.796508 
L 854.968226 410.972439 
L 855.583848 615.6 
L 856.19947 615.6 
L 856.815093 429.601238 
L 857.430715 365.712477 
L 858.661959 365.712477 
L 859.277582 371.846207 
L 861.124448 371.846207 
L 861.740071 384.306491 
L 862.355693 390.434199 
L 862.971315 384.306491 
L 862.355693 384.306491 
L 863.586937 384.306491 
L 864.20256 407.814054 
L 864.818182 375.300143 
L 865.433804 375.156915 
L 866.049426 370.667981 
L 867.896293 370.667981 
L 868.511915 375.156915 
L 869.127538 383.29623 
L 869.74316 384.115021 
L 870.358782 520.609334 
L 870.974404 520.609334 
L 871.590026 440.668719 
L 872.205649 592.088804 
L 872.821271 440.668719 
L 873.436893 381.397061 
L 874.052515 356.341943 
L 874.668138 381.397061 
L 875.28376 381.397061 
L 875.899382 383.055496 
L 876.515004 383.944446 
L 877.130627 383.997206 
L 877.746249 389.063222 
L 879.593116 389.063222 
L 880.208738 344.104664 
L 879.593116 341.715362 
L 880.82436 344.104664 
L 881.439982 374.996723 
L 882.671227 374.996723 
L 883.286849 375.156915 
L 884.518094 375.156915 
L 885.133716 391.546339 
L 886.980583 391.546339 
L 885.133716 446.068472 
L 887.596205 381.12411 
L 888.211827 542.889041 
L 888.827449 522.993962 
L 889.443071 470.668254 
L 890.674316 470.668254 
L 891.289938 428.478943 
L 891.90556 428.478943 
L 892.521183 387.796837 
L 893.136805 387.796837 
L 893.752427 383.379607 
L 894.368049 390.851354 
L 894.983672 390.851354 
L 895.599294 383.380529 
L 896.214916 390.851354 
L 896.830538 383.380529 
L 897.446161 383.380529 
L 895.599294 361.316807 
L 898.061783 385.270697 
L 899.293027 385.270697 
L 899.90865 365.776786 
L 901.139894 365.776786 
L 900.524272 365.776786 
L 901.139894 375.932153 
L 901.755516 375.932153 
L 902.986761 524.394536 
L 903.602383 524.394536 
L 904.218005 471.312681 
L 904.833628 471.312681 
L 905.44925 384.492959 
L 906.064872 365.546941 
L 906.680494 340.957831 
L 907.296117 340.957831 
L 907.911739 358.603602 
L 908.527361 365.546941 
L 909.142983 382.767886 
L 909.758605 412.983347 
L 910.374228 504.560559 
L 910.98985 412.983347 
L 911.605472 412.983347 
L 912.221094 341.053395 
L 912.836717 341.053395 
L 913.452339 341.602442 
L 914.067961 345.349498 
L 914.683583 382.856572 
L 915.299206 382.856572 
L 915.914828 386.99561 
L 916.53045 396.772516 
L 917.761695 396.772516 
L 918.377317 343.905393 
L 918.992939 343.905393 
L 919.608561 361.876678 
L 920.224184 361.876678 
L 919.608561 449.920123 
L 920.839806 449.920123 
L 921.455428 417.686553 
L 922.686673 395.155411 
L 923.302295 371.272997 
L 923.917917 371.272997 
L 924.533539 375.489947 
L 925.149162 376.424595 
L 925.764784 456.380134 
L 926.380406 450.983103 
L 926.996028 376.424595 
L 927.61165 376.424595 
L 928.227273 360.002685 
L 928.842895 360.002685 
L 929.458517 375.156915 
L 930.074139 456.885881 
L 930.689762 456.885881 
L 931.305384 375.156915 
L 932.536628 375.131538 
L 933.152251 357.557116 
L 933.767873 375.131538 
L 934.383495 382.045059 
L 934.999117 372.298619 
L 935.61474 372.298619 
L 936.230362 364.352316 
L 937.461606 364.352316 
L 938.077229 362.748603 
L 938.692851 380.840573 
L 939.308473 443.640725 
L 939.924095 393.289077 
L 940.539718 393.289077 
L 941.15534 375.305251 
L 941.770962 375.156915 
L 942.386584 374.126907 
L 943.002207 600.480392 
L 943.617829 362.078457 
L 944.233451 362.078457 
L 944.849073 382.510841 
L 945.464695 534.81412 
L 946.080318 534.81412 
L 946.69594 413.452895 
L 947.311562 335.121402 
L 947.927184 335.121402 
L 949.158429 376.896602 
L 949.774051 475.144079 
L 950.389673 384.362617 
L 951.005296 384.362617 
L 949.158429 376.896602 
L 951.620918 375.015323 
L 952.852162 375.015323 
L 953.467785 366.416839 
L 954.083407 431.591198 
L 954.699029 365.513069 
L 955.314651 350.130234 
L 955.930274 365.513069 
L 956.545896 365.642016 
L 958.392763 365.642016 
L 959.008385 582.566204 
L 959.624007 399.172416 
L 960.239629 613.856005 
L 960.855252 587.809886 
L 961.470874 399.172416 
L 962.086496 384.501598 
L 962.702118 378.167888 
L 963.317741 384.501598 
L 962.702118 384.501598 
L 963.933363 418.752012 
L 965.164607 418.752012 
L 965.780229 397.724236 
L 966.395852 397.724236 
L 967.011474 361.625887 
L 967.627096 355.816065 
L 968.242718 355.816065 
L 968.858341 341.715362 
L 969.473963 336.627339 
L 970.089585 355.816065 
L 970.705207 332.227336 
L 971.32083 332.227336 
L 971.936452 334.763966 
L 972.552074 326.291852 
L 973.167696 326.291852 
L 973.783319 328.441549 
L 974.398941 332.319834 
L 975.014563 332.319834 
L 975.630185 372.534559 
L 976.245808 373.367258 
L 976.86143 375.489947 
L 977.477052 373.367258 
L 978.708297 373.367258 
L 979.323919 378.70042 
L 979.939541 372.202485 
L 980.555163 378.70042 
L 981.170786 369.445597 
L 981.786408 378.70042 
L 982.40203 399.172416 
L 984.864519 399.172416 
L 985.480141 377.331422 
L 986.095763 377.331422 
L 986.711386 401.525576 
L 987.327008 401.525576 
L 987.94263 401.826447 
L 988.558252 401.826447 
L 989.173875 398.793897 
L 989.789497 387.205953 
L 991.020741 387.205953 
L 991.636364 388.597324 
L 992.251986 394.691232 
L 992.867608 398.990653 
L 993.48323 394.691232 
L 994.098853 394.691232 
L 994.714475 389.337627 
L 995.945719 389.337627 
L 996.561342 406.330662 
L 995.945719 421.694052 
L 996.561342 421.694052 
L 997.176964 426.335451 
L 997.792586 406.330662 
L 998.408208 377.036858 
L 999.023831 366.505002 
L 999.639453 343.897174 
L 1000.255075 343.897174 
L 1000.870697 377.036858 
L 1001.48632 380.996865 
L 1003.948808 380.996865 
L 1004.564431 432.84177 
L 1005.795675 432.84177 
L 1006.411297 371.041875 
L 1007.02692 369.254602 
L 1007.642542 369.254602 
L 1008.258164 447.054347 
L 1008.873786 447.054347 
L 1009.489409 416.343122 
L 1010.105031 423.56379 
L 1010.720653 423.56379 
L 1011.336275 443.781879 
L 1011.951898 445.264062 
L 1012.56752 473.410568 
L 1013.183142 383.342007 
L 1014.414387 383.342007 
L 1015.030009 383.600417 
L 1016.261253 380.902158 
L 1016.876876 383.600417 
L 1017.492498 373.73527 
L 1018.723742 373.748841 
L 1019.339365 418.651458 
L 1019.954987 418.651458 
L 1020.570609 438.689684 
L 1021.186231 431.817221 
L 1023.033098 431.817221 
L 1023.64872 430.585717 
L 1024.264342 430.585717 
L 1024.879965 399.362663 
L 1026.111209 399.2798 
L 1026.726831 394.114398 
L 1027.342454 394.114398 
L 1027.958076 432.954586 
L 1028.573698 432.954586 
L 1029.18932 434.271272 
L 1029.804943 441.505628 
L 1030.420565 441.505628 
L 1031.036187 449.793938 
L 1031.651809 449.793938 
L 1032.267432 444.45807 
L 1032.883054 430.596961 
L 1033.498676 424.821464 
L 1034.114298 424.821464 
L 1034.729921 427.264621 
L 1035.345543 427.264621 
L 1035.961165 424.797969 
L 1036.576787 371.29848 
L 1037.808032 371.29848 
L 1038.423654 387.411235 
L 1039.039276 387.411235 
L 1040.270521 409.733619 
L 1040.886143 412.97127 
L 1041.501765 430.681235 
L 1042.117387 434.507211 
L 1042.73301 461.697575 
L 1043.348632 461.697575 
L 1043.964254 615.6 
L 1044.579876 458.546564 
L 1045.195499 456.17207 
L 1045.811121 456.17207 
L 1046.426743 449.489424 
L 1047.042365 450.986877 
L 1047.657988 473.316412 
L 1048.27361 472.689035 
L 1048.889232 473.316412 
L 1049.504854 472.689035 
L 1050.120477 459.268189 
L 1050.736099 406.916747 
L 1051.351721 459.268189 
L 1051.967343 424.303022 
L 1052.582966 426.335451 
L 1054.429832 426.335451 
L 1055.045455 399.401343 
L 1056.276699 399.401343 
L 1056.892321 454.033465 
L 1057.507944 457.662663 
L 1058.123566 458.133714 
L 1058.739188 468.618381 
L 1059.35481 468.618381 
L 1059.970432 450.462642 
L 1061.817299 450.462642 
L 1062.432921 457.591619 
L 1063.048544 461.328807 
L 1063.664166 467.522224 
L 1064.279788 555.202005 
L 1064.89541 555.202005 
L 1065.511033 522.742438 
L 1066.126655 588.341274 
L 1066.742277 540.13495 
L 1067.357899 522.742438 
L 1067.973522 441.724455 
L 1068.589144 397.069376 
L 1069.204766 394.539789 
L 1069.820388 394.539789 
L 1070.436011 392.041393 
L 1071.051633 392.041393 
L 1071.667255 452.420899 
L 1072.282877 501.074559 
L 1072.8985 452.420899 
L 1073.514122 452.420899 
L 1074.129744 405.10329 
L 1074.745366 400.664396 
L 1075.360989 400.664396 
L 1075.976611 405.10329 
L 1076.592233 441.217129 
L 1077.207855 523.256905 
L 1078.4391 523.256905 
L 1079.054722 437.677326 
L 1079.670344 437.677326 
L 1080.285966 451.209241 
L 1081.517211 451.209241 
L 1082.132833 380.340392 
L 1083.364078 380.340392 
L 1083.9797 373.359557 
L 1085.210944 373.359557 
L 1085.826567 435.274798 
L 1086.442189 444.601415 
L 1088.289056 444.601415 
L 1088.904678 436.298979 
L 1089.5203 371.794356 
L 1090.135922 371.794356 
L 1090.751545 407.586541 
L 1091.367167 407.586541 
L 1091.982789 429.015317 
L 1092.598411 433.082557 
L 1093.214034 445.725524 
L 1093.829656 447.354642 
L 1094.445278 463.851008 
L 1095.0609 463.851008 
L 1095.676523 523.29057 
L 1096.292145 551.013131 
L 1096.907767 594.722497 
L 1097.523389 594.722497 
L 1098.139011 551.013131 
L 1098.754634 551.013131 
L 1099.370256 395.345247 
L 1099.985878 375.156915 
L 1100.6015 375.567018 
L 1101.217123 375.567018 
L 1101.832745 395.175577 
L 1102.448367 437.780337 
L 1103.063989 437.780337 
L 1103.679612 427.006505 
L 1104.295234 392.286431 
L 1105.526478 392.286431 
L 1106.142101 387.356965 
L 1106.757723 433.172613 
L 1107.373345 461.178432 
L 1107.988967 472.209792 
L 1108.60459 486.867407 
L 1109.220212 472.209792 
L 1109.835834 470.739083 
L 1110.451456 418.900777 
L 1111.067079 383.363458 
L 1111.682701 383.895392 
L 1112.913945 383.895392 
L 1113.529568 416.783968 
L 1114.14519 463.815207 
L 1114.760812 494.975056 
L 1117.223301 494.975056 
L 1117.838923 448.344583 
L 1118.454545 448.344583 
L 1119.070168 399.927289 
L 1119.68579 399.927289 
L 1120.301412 448.344583 
L 1120.917034 467.792679 
L 1121.532657 482.668767 
L 1122.148279 482.668767 
L 1122.763901 467.792679 
L 1123.379523 467.792679 
L 1123.995146 431.541609 
L 1124.610768 431.541609 
L 1125.22639 445.401841 
L 1125.842012 467.792679 
L 1126.457635 445.401841 
L 1127.073257 483.518488 
L 1127.688879 445.401841 
L 1128.304501 426.063489 
L 1128.920124 426.063489 
L 1129.535746 442.609137 
L 1130.151368 426.063489 
L 1130.76699 442.609137 
L 1131.382613 447.723389 
L 1131.998235 483.87271 
L 1132.613857 483.87271 
L 1133.229479 516.78845 
L 1133.845102 483.87271 
L 1134.460724 441.078783 
L 1135.076346 446.749529 
L 1135.691968 392.601212 
L 1136.30759 392.306638 
L 1136.923213 446.749529 
L 1137.538835 416.591199 
L 1138.770079 416.591199 
L 1139.385702 482.318745 
L 1140.001324 482.318745 
L 1140.616946 445.5786 
L 1141.232568 488.344078 
L 1141.848191 445.5786 
L 1142.463813 445.5786 
L 1143.079435 446.030903 
L 1143.695057 445.721719 
L 1144.31068 445.721719 
L 1144.926302 415.406422 
L 1145.541924 410.994961 
L 1146.773169 410.994961 
L 1147.388791 521.033737 
L 1148.620035 521.033737 
L 1149.235658 449.315731 
L 1151.082524 449.315731 
L 1151.698147 478.736107 
L 1152.313769 398.532214 
L 1152.929391 398.532214 
L 1153.545013 398.706499 
L 1154.160635 398.706499 
L 1154.776258 450.685722 
L 1155.39188 450.685722 
L 1156.007502 456.284018 
L 1156.623124 447.013768 
L 1157.238747 433.602484 
L 1157.854369 394.952232 
L 1159.085613 394.952232 
L 1159.701236 432.679096 
L 1160.316858 463.255674 
L 1160.93248 463.255674 
L 1161.548102 459.074997 
L 1162.163725 459.074997 
L 1162.779347 434.66558 
L 1163.394969 420.260855 
L 1164.010591 420.260855 
L 1164.626214 374.100759 
L 1165.241836 381.558833 
L 1165.857458 381.558833 
L 1166.47308 374.100759 
L 1167.088703 381.558833 
L 1167.704325 419.733644 
L 1168.319947 419.733644 
L 1168.935569 374.100759 
L 1169.551192 453.839595 
L 1170.166814 393.730051 
L 1170.782436 406.631634 
L 1171.398058 416.545466 
L 1172.01368 416.545466 
L 1172.629303 457.183003 
L 1173.860547 457.183003 
L 1174.476169 412.434297 
L 1175.707414 412.434297 
L 1176.323036 419.022083 
L 1176.938658 442.686255 
L 1178.169903 442.686255 
L 1178.785525 434.746456 
L 1179.401147 434.746456 
L 1180.01677 448.548089 
L 1180.632392 448.548089 
L 1181.248014 451.418251 
L 1181.863636 451.418251 
L 1182.479259 445.202446 
L 1183.094881 451.418251 
L 1183.710503 586.239712 
L 1185.55737 586.239712 
L 1186.172992 427.315784 
L 1186.788614 358.683766 
L 1187.404237 358.683766 
L 1188.019859 362.073874 
L 1188.635481 362.073874 
L 1189.251103 452.293921 
L 1189.866726 452.293921 
L 1190.482348 480.745219 
L 1191.09797 552.631375 
L 1191.713592 480.745219 
L 1192.329214 467.451827 
L 1192.944837 467.451827 
L 1193.560459 460.533503 
L 1194.176081 460.533503 
L 1194.791703 437.92451 
L 1195.407326 437.92451 
L 1196.022948 456.508153 
L 1196.63857 464.81042 
L 1197.869815 464.81042 
L 1198.485437 378.982686 
L 1199.716681 378.982686 
L 1200.332304 393.020163 
L 1200.947926 393.020163 
L 1201.563548 383.669769 
L 1202.17917 365.62031 
L 1204.026037 365.62031 
L 1204.641659 374.776644 
L 1205.257282 386.695209 
L 1206.488526 361.307146 
L 1207.104148 386.695209 
L 1207.719771 401.062313 
L 1208.951015 401.062313 
L 1209.566637 374.55905 
L 1210.797882 374.494892 
L 1212.029126 392.797592 
L 1212.644748 432.794539 
L 1213.260371 432.794539 
L 1213.875993 392.797592 
L 1214.491615 374.94395 
L 1215.107237 374.94395 
L 1215.72286 396.264218 
L 1216.338482 396.264218 
L 1216.954104 369.608875 
L 1218.185349 369.608875 
L 1218.800971 374.100759 
L 1219.416593 376.017954 
L 1220.032215 377.469936 
L 1220.647838 415.725924 
L 1221.26346 415.725924 
L 1221.879082 415.024931 
L 1222.494704 415.725924 
L 1223.110327 415.024931 
L 1223.725949 415.024931 
L 1224.341571 414.356267 
L 1224.957193 415.793477 
L 1225.572816 428.732451 
L 1226.188438 428.732451 
L 1226.80406 416.327204 
L 1227.419682 415.446468 
L 1229.266549 415.446468 
L 1229.882171 428.675565 
L 1230.497793 464.052491 
L 1231.113416 469.620604 
L 1232.34466 469.620604 
L 1232.960282 508.454882 
L 1233.575905 581.930851 
L 1234.191527 581.930851 
L 1234.807149 544.664726 
L 1235.422771 484.638772 
L 1236.038394 484.638772 
L 1236.654016 461.573463 
L 1237.269638 542.486905 
L 1237.88526 542.486905 
L 1238.500883 552.443759 
L 1239.732127 552.443759 
L 1240.347749 513.374181 
L 1241.578994 513.374181 
L 1242.194616 514.153799 
L 1242.810238 516.032928 
L 1243.425861 514.153799 
L 1244.041483 531.500201 
L 1244.657105 535.54324 
L 1245.272727 535.54324 
L 1245.272727 535.54324 
" style="fill:none;stroke:#1f77b4;stroke-linecap:square;stroke-width:1.5;"/>
   </g>
   <g id="line2d_15">
    <path clip-path="url(#p780c80a53c)" d="M 230.727273 372.537594 
L 231.342895 373.169452 
L 230.727273 371.213373 
L 232.574139 369.133731 
L 233.189762 365.9409 
L 233.805384 369.507296 
L 234.421006 349.179604 
L 235.036628 342.136637 
L 235.652251 364.721778 
L 235.036628 385.281031 
L 236.267873 372.044272 
L 236.883495 325.352156 
L 238.11474 355.635474 
L 238.730362 350.867103 
L 239.961606 363.047297 
L 240.577229 362.709564 
L 241.808473 385.548319 
L 242.424095 399.329192 
L 243.65534 384.365945 
L 244.270962 386.570281 
L 244.886584 396.687711 
L 245.502207 377.570874 
L 246.117829 380.151072 
L 246.733451 361.603852 
L 247.349073 348.417134 
L 248.580318 375.812882 
L 249.811562 380.37205 
L 250.427184 391.610299 
L 251.042807 398.626455 
L 251.658429 391.669465 
L 252.889673 410.57271 
L 253.505296 407.395712 
L 254.73654 387.513869 
L 255.352162 329.956444 
L 255.967785 351.364939 
L 256.583407 367.885935 
L 257.199029 228.905834 
L 258.430274 272.59583 
L 259.045896 285.316318 
L 260.27714 325.686234 
L 260.892763 333.803518 
L 261.508385 352.572636 
L 262.124007 356.583582 
L 262.739629 364.181798 
L 263.355252 361.026787 
L 263.970874 358.939305 
L 264.586496 358.451495 
L 265.202118 367.775616 
L 265.817741 361.953765 
L 266.433363 361.420682 
L 267.048985 355.528836 
L 268.280229 367.168836 
L 268.895852 375.496284 
L 269.511474 372.296909 
L 270.127096 378.437109 
L 270.742718 381.948215 
L 271.358341 371.55272 
L 271.973963 388.993917 
L 272.589585 374.439248 
L 273.205207 298.501278 
L 273.82083 331.137575 
L 274.436452 343.316957 
L 275.052074 345.22858 
L 275.667696 353.989059 
L 276.283319 340.603407 
L 277.514563 365.396488 
L 278.745808 350.814893 
L 279.36143 365.161867 
L 279.977052 367.443863 
L 281.208297 350.887085 
L 281.823919 351.384157 
L 282.439541 354.632621 
L 283.055163 351.683513 
L 283.670786 339.44602 
L 284.286408 349.34116 
L 284.90203 354.152694 
L 285.517652 356.821918 
L 286.133274 316.583732 
L 287.364519 351.522968 
L 287.980141 349.806964 
L 288.595763 337.575168 
L 289.211386 334.944006 
L 289.827008 341.598586 
L 290.44263 357.506505 
L 291.058252 364.50365 
L 291.673875 368.536207 
L 292.289497 358.48934 
L 292.905119 352.620639 
L 293.520741 338.441342 
L 294.136364 346.657694 
L 294.751986 349.448668 
L 295.98323 376.908451 
L 296.598853 374.562035 
L 297.214475 374.378717 
L 297.830097 367.602424 
L 298.445719 364.264274 
L 299.061342 362.704041 
L 299.676964 340.215297 
L 300.908208 358.08783 
L 301.523831 363.214072 
L 302.139453 361.937298 
L 302.755075 357.673111 
L 303.370697 367.279777 
L 303.98632 371.735771 
L 304.601942 386.769438 
L 305.217564 332.401941 
L 305.833186 342.439856 
L 306.448808 355.920404 
L 307.064431 349.946692 
L 307.680053 363.126212 
L 308.295675 373.331446 
L 308.911297 371.767571 
L 309.52692 247.155006 
L 310.758164 295.234627 
L 311.989409 316.774186 
L 312.605031 331.942195 
L 313.220653 355.777849 
L 313.836275 366.374743 
L 313.220653 385.362267 
L 313.836275 373.536725 
L 315.06752 386.496131 
L 315.683142 378.363568 
L 316.298764 376.016527 
L 316.914387 353.76213 
L 317.530009 352.544137 
L 318.145631 362.809401 
L 318.761253 362.367182 
L 319.376876 383.083338 
L 319.992498 365.068223 
L 319.376876 373.255254 
L 320.60812 351.700496 
L 321.839365 378.050821 
L 322.454987 372.736525 
L 323.070609 359.422079 
L 323.686231 308.595689 
L 324.301853 332.847965 
L 325.533098 365.24062 
L 326.14872 385.619075 
L 326.764342 401.903271 
L 327.379965 398.866077 
L 327.995587 335.180373 
L 328.611209 344.744126 
L 329.226831 356.433606 
L 329.842454 330.398244 
L 330.458076 345.94895 
L 331.073698 366.632896 
L 331.68932 373.923034 
L 332.304943 376.456564 
L 332.920565 383.027543 
L 333.536187 370.880916 
L 334.151809 379.761905 
L 334.767432 378.624665 
L 335.383054 369.322768 
L 335.998676 353.366768 
L 336.614298 363.336558 
L 337.229921 358.288265 
L 337.845543 359.204928 
L 338.461165 365.77628 
L 339.076787 363.175337 
L 339.69241 379.047858 
L 340.308032 369.168493 
L 340.923654 378.459201 
L 341.539276 385.631845 
L 342.154898 385.9094 
L 342.770521 375.964329 
L 343.386143 378.837227 
L 344.001765 368.013209 
L 343.386143 368.09265 
L 344.617387 361.859376 
L 345.23301 361.572849 
L 345.848632 378.664331 
L 346.464254 362.300785 
L 347.079876 370.361693 
L 347.695499 375.184224 
L 348.311121 390.154535 
L 348.926743 387.220353 
L 349.542365 365.331268 
L 350.157988 371.183623 
L 350.77361 369.680209 
L 351.389232 386.85483 
L 353.236099 364.293781 
L 353.851721 359.605937 
L 354.467343 331.507344 
L 355.082966 338.047895 
L 355.698588 347.654819 
L 356.31421 345.314731 
L 356.929832 320.737638 
L 358.161077 353.737163 
L 358.776699 357.952761 
L 358.161077 360.260373 
L 360.007944 355.356322 
L 360.623566 370.262451 
L 361.239188 370.050839 
L 361.85481 357.889597 
L 362.470432 357.978393 
L 363.086055 351.733864 
L 363.701677 343.045876 
L 364.317299 353.361789 
L 364.932921 115.85709 
L 367.39541 211.777793 
L 369.857899 307.117481 
L 371.089144 337.965669 
L 371.704766 358.753239 
L 372.320388 364.923019 
L 372.936011 363.807469 
L 373.551633 363.371907 
L 374.167255 355.83367 
L 374.782877 372.592147 
L 375.3985 375.033873 
L 376.014122 385.365243 
L 376.629744 366.46128 
L 377.245366 389.907922 
L 376.629744 361.885171 
L 377.860989 351.75074 
L 378.476611 369.976764 
L 379.092233 344.995922 
L 379.707855 359.182911 
L 380.323477 375.956621 
L 380.9391 377.651446 
L 381.554722 370.563516 
L 382.170344 373.905198 
L 382.785966 388.401064 
L 383.401589 380.376249 
L 384.017211 369.880172 
L 384.632833 333.624599 
L 385.248455 351.510614 
L 385.864078 358.33765 
L 386.4797 357.143408 
L 387.095322 356.560755 
L 387.710944 347.610468 
L 388.326567 351.556941 
L 388.942189 369.536303 
L 389.557811 362.20345 
L 390.173433 367.544237 
L 390.789056 382.11028 
L 391.404678 401.255282 
L 392.0203 356.935314 
L 392.635922 356.458221 
L 393.251545 349.855942 
L 393.867167 341.24982 
L 394.482789 347.873128 
L 395.098411 347.873171 
L 395.714034 346.563815 
L 396.329656 350.969554 
L 396.945278 348.699647 
L 397.5609 342.756612 
L 398.176523 359.617627 
L 398.792145 348.183531 
L 400.023389 358.774042 
L 398.792145 346.402134 
L 400.639011 282.354805 
L 401.254634 290.643217 
L 401.870256 304.904198 
L 402.485878 304.305077 
L 403.1015 316.920521 
L 403.717123 305.060164 
L 404.332745 315.854217 
L 404.948367 330.552034 
L 405.563989 323.039335 
L 406.179612 324.784315 
L 406.795234 340.965546 
L 407.410856 328.908367 
L 408.026478 111.6 
L 408.642101 136.540208 
L 409.873345 161.358662 
L 411.10459 208.471913 
L 411.720212 209.738489 
L 412.335834 233.861449 
L 412.951456 251.302915 
L 414.182701 278.332391 
L 414.798323 265.993878 
L 415.413945 280.376362 
L 416.029568 282.082766 
L 416.64519 303.707776 
L 417.260812 332.542565 
L 417.876434 323.063664 
L 418.492056 316.737138 
L 419.107679 275.140006 
L 420.338923 290.262 
L 422.18579 341.065822 
L 422.801412 341.295905 
L 423.417034 329.026376 
L 424.032657 334.643399 
L 424.648279 325.606273 
L 425.263901 343.76718 
L 425.879523 352.67342 
L 426.495146 329.499826 
L 427.72639 368.525402 
L 428.342012 358.204417 
L 428.957635 330.578992 
L 429.573257 341.788989 
L 430.188879 304.28021 
L 430.804501 308.312783 
L 431.420124 314.718346 
L 432.035746 329.761309 
L 432.651368 331.785602 
L 433.26699 284.065958 
L 433.882613 299.96094 
L 434.498235 307.054102 
L 435.113857 316.38471 
L 435.729479 311.377559 
L 436.345102 313.786802 
L 436.960724 336.599599 
L 437.576346 340.951757 
L 438.191968 359.429718 
L 438.80759 362.858917 
L 439.423213 362.676672 
L 440.038835 375.96737 
L 440.654457 351.922096 
L 441.270079 352.655484 
L 441.885702 352.655524 
L 442.501324 323.467021 
L 443.116946 334.554971 
L 443.732568 334.555031 
L 444.348191 351.126565 
L 444.963813 338.283492 
L 445.579435 336.240308 
L 446.195057 350.427779 
L 446.81068 350.01088 
L 447.426302 343.674038 
L 448.041924 303.723934 
L 448.657546 319.919468 
L 449.273169 310.922736 
L 449.888791 310.922756 
L 450.504413 265.60993 
L 451.735658 308.798257 
L 452.35128 244.886739 
L 454.198147 311.056 
L 454.813769 322.913205 
L 455.429391 324.677963 
L 456.045013 333.539926 
L 456.660635 328.838332 
L 457.276258 319.198725 
L 457.89188 324.277835 
L 458.507502 317.88243 
L 459.123124 309.28918 
L 458.507502 329.047986 
L 459.738747 341.850467 
L 460.354369 324.833216 
L 460.969991 329.795439 
L 461.585613 241.379319 
L 459.123124 255.482681 
L 462.201236 280.080485 
L 462.816858 295.804408 
L 463.43248 304.469173 
L 464.048102 296.143683 
L 464.663725 304.684358 
L 465.279347 315.619768 
L 465.894969 310.121789 
L 466.510591 329.27328 
L 467.126214 337.888732 
L 467.741836 305.965993 
L 468.357458 322.53959 
L 468.97308 332.782892 
L 469.588703 331.13991 
L 470.204325 330.603809 
L 470.819947 347.744273 
L 471.435569 368.162512 
L 472.051192 344.321643 
L 472.666814 344.172429 
L 473.282436 325.032779 
L 473.898058 328.454842 
L 474.51368 326.695907 
L 475.129303 330.412425 
L 475.744925 336.808668 
L 476.360547 333.468401 
L 476.976169 336.890093 
L 477.591792 323.035603 
L 478.207414 327.876954 
L 478.823036 325.375309 
L 480.054281 364.145603 
L 480.669903 353.98996 
L 481.285525 355.008013 
L 481.901147 358.162212 
L 482.51677 338.50624 
L 483.132392 294.915929 
L 483.748014 308.829831 
L 484.363636 303.187118 
L 484.979259 305.898556 
L 485.594881 311.735182 
L 486.210503 282.534231 
L 487.441748 305.276704 
L 488.05737 305.525338 
L 488.672992 307.64357 
L 489.288614 300.39905 
L 489.904237 302.871468 
L 490.519859 296.342927 
L 491.135481 301.805754 
L 491.751103 310.867831 
L 492.366726 309.685102 
L 492.982348 301.430214 
L 493.59797 305.842089 
L 494.213592 301.377167 
L 494.829214 303.540785 
L 495.444837 302.456481 
L 494.213592 301.939717 
L 496.060459 301.872682 
L 497.291703 325.669395 
L 497.907326 332.662053 
L 498.522948 326.471261 
L 499.13857 327.108255 
L 499.754192 333.374188 
L 500.369815 335.849309 
L 500.985437 334.260339 
L 501.601059 339.049041 
L 502.216681 344.774045 
L 502.832304 358.263564 
L 503.447926 321.689309 
L 504.063548 328.422988 
L 504.67917 340.906258 
L 505.294793 340.90631 
L 505.910415 352.284336 
L 506.526037 326.954096 
L 507.141659 338.19399 
L 507.757282 342.723147 
L 507.141659 341.675718 
L 508.372904 341.601514 
L 508.988526 342.491725 
L 509.604148 345.607736 
L 510.219771 341.538678 
L 512.066637 341.630771 
L 512.682259 235.15729 
L 513.913504 280.360158 
L 514.529126 295.516134 
L 515.760371 298.055645 
L 514.529126 290.135004 
L 516.375993 295.843068 
L 516.991615 295.05276 
L 517.607237 298.549862 
L 518.22286 313.056333 
L 518.838482 315.242261 
L 519.454104 334.223889 
L 520.069726 330.040874 
L 520.685349 329.760134 
L 521.300971 333.608146 
L 521.916593 331.658142 
L 522.532215 334.816516 
L 523.147838 334.147939 
L 523.76346 324.423461 
L 524.379082 329.250945 
L 524.994704 331.929976 
L 526.225949 333.347773 
L 526.841571 314.723069 
L 527.457193 332.189513 
L 528.072816 325.976539 
L 528.688438 328.57958 
L 529.30406 335.606376 
L 529.919682 331.922732 
L 530.535305 338.159144 
L 531.150927 356.584332 
L 531.766549 357.598381 
L 532.382171 357.087808 
L 532.997793 356.835215 
L 533.613416 356.709627 
L 534.229038 360.103962 
L 534.84466 361.14785 
L 535.460282 360.058805 
L 536.075905 360.528084 
L 536.691527 360.292729 
L 537.307149 320.751296 
L 538.538394 341.031631 
L 539.154016 337.306771 
L 539.769638 339.121319 
L 541.000883 339.121417 
L 541.616505 337.085511 
L 542.232127 341.101586 
L 542.847749 340.09801 
L 543.463372 339.606441 
L 544.078994 343.995131 
L 544.694616 342.51947 
L 545.310238 340.417783 
L 546.541483 341.453429 
L 547.157105 335.507675 
L 547.772727 349.810107 
L 548.38835 349.810348 
L 549.003972 341.005535 
L 549.619594 338.152317 
L 550.235216 338.904968 
L 549.619594 337.125572 
L 551.466461 336.86527 
L 552.082083 343.085406 
L 552.697705 338.562042 
L 553.313327 341.452019 
L 553.92895 337.030073 
L 554.544572 339.191054 
L 555.775816 336.048506 
L 556.391439 335.717265 
L 557.007061 331.443945 
L 557.622683 333.647351 
L 558.238305 337.857629 
L 559.46955 358.944886 
L 560.700794 358.945869 
L 561.316417 355.576236 
L 561.932039 357.221471 
L 562.547661 356.389595 
L 563.163283 352.296348 
L 563.778906 345.28433 
L 564.394528 324.205013 
L 565.01015 333.350247 
L 566.241395 318.766928 
L 566.857017 315.485406 
L 567.472639 320.971305 
L 568.088261 318.12449 
L 568.703883 329.678937 
L 569.319506 325.063749 
L 569.935128 144.108937 
L 572.397617 242.056954 
L 573.013239 261.794945 
L 573.628861 275.437002 
L 574.244484 284.387631 
L 574.860106 305.814487 
L 575.475728 316.298541 
L 576.09135 316.838034 
L 577.938217 351.168867 
L 578.553839 358.514378 
L 579.169462 354.655498 
L 579.785084 356.533511 
L 580.400706 357.510395 
L 581.016328 358.208312 
L 581.631951 359.232189 
L 582.247573 358.716672 
L 582.863195 335.125225 
L 583.478817 345.206488 
L 584.710062 353.656233 
L 585.325684 341.998461 
L 585.941306 334.672265 
L 586.556929 338.150218 
L 587.172551 336.606166 
L 587.788173 337.370016 
L 588.403795 349.417535 
L 589.019417 349.28555 
L 589.63504 349.701093 
L 590.250662 345.645201 
L 590.866284 343.581897 
L 591.481906 314.237199 
L 592.097529 331.131275 
L 592.713151 335.711875 
L 593.328773 328.056153 
L 593.944395 293.144683 
L 593.328773 306.877587 
L 594.560018 315.022833 
L 595.17564 325.530628 
L 595.791262 339.575762 
L 596.406884 339.571823 
L 597.022507 327.184865 
L 597.638129 325.730357 
L 598.869373 358.300286 
L 599.484996 320.66846 
L 600.100618 334.83102 
L 600.71624 331.287944 
L 601.331862 333.024492 
L 601.947485 348.125308 
L 602.563107 358.971113 
L 603.178729 372.731963 
L 603.794351 377.293684 
L 604.409974 370.917891 
L 603.794351 374.462921 
L 605.025596 336.263061 
L 605.641218 341.910021 
L 606.25684 335.394863 
L 606.872462 334.19246 
L 607.488085 344.992021 
L 608.103707 347.500785 
L 608.719329 337.62538 
L 609.334951 336.202621 
L 609.950574 343.135716 
L 610.566196 339.500751 
L 611.181818 337.407941 
L 611.79744 354.887577 
L 612.413063 353.571931 
L 613.028685 368.267687 
L 613.644307 327.311636 
L 614.259929 308.585063 
L 615.491174 320.631539 
L 616.106796 316.324947 
L 616.722418 319.413471 
L 617.338041 291.129316 
L 617.953663 295.699581 
L 618.569285 315.171595 
L 619.184907 317.235415 
L 619.80053 311.356268 
L 620.416152 314.245493 
L 621.031774 319.769481 
L 621.647396 329.102938 
L 622.263019 315.933809 
L 622.878641 324.157833 
L 623.494263 319.812609 
L 624.109885 322.907346 
L 625.34113 347.2643 
L 625.956752 329.451071 
L 626.572374 335.742649 
L 627.187996 322.270594 
L 627.803619 330.10744 
L 629.034863 337.345474 
L 628.419241 332.022619 
L 629.650485 317.088197 
L 630.266108 320.781517 
L 630.88173 326.701775 
L 631.497352 320.363086 
L 632.112974 323.541293 
L 632.728597 315.302087 
L 633.344219 332.328042 
L 633.959841 331.736982 
L 634.575463 293.818264 
L 635.191086 305.978899 
L 635.806708 314.727798 
L 636.42233 317.058536 
L 637.037952 311.28099 
L 637.653575 330.625744 
L 638.269197 318.836634 
L 638.884819 332.82859 
L 639.500441 268.364946 
L 640.116064 288.886703 
L 640.731686 304.55886 
L 641.347308 325.331806 
L 641.96293 304.112451 
L 642.578553 310.529672 
L 643.194175 320.878024 
L 643.809797 323.129433 
L 644.425419 297.352938 
L 643.809797 291.386331 
L 645.041041 300.415747 
L 646.272286 328.959715 
L 646.887908 317.27907 
L 647.50353 313.128808 
L 648.119153 319.574053 
L 648.734775 319.374827 
L 649.350397 327.60508 
L 649.966019 348.487246 
L 650.581642 336.263032 
L 651.812886 336.314936 
L 652.428508 333.84499 
L 653.044131 335.067258 
L 653.659753 317.896385 
L 654.275375 325.478085 
L 654.890997 340.274738 
L 655.50662 339.262228 
L 656.122242 332.513393 
L 656.737864 346.115075 
L 657.353486 338.678846 
L 657.969109 336.816629 
L 658.584731 336.816658 
L 659.200353 334.861035 
L 659.815975 342.317272 
L 660.431598 333.050372 
L 661.04722 332.778163 
L 661.662842 331.474234 
L 662.278464 344.852573 
L 662.894086 337.54839 
L 663.509709 335.463096 
L 664.125331 325.420498 
L 664.740953 337.018024 
L 665.356575 330.966612 
L 665.972198 322.010577 
L 666.58782 330.537416 
L 667.203442 345.887248 
L 667.819064 349.765176 
L 668.434687 231.615249 
L 669.050309 274.369186 
L 669.665931 291.718509 
L 670.281553 302.321609 
L 670.897176 302.611067 
L 671.512798 305.317513 
L 672.744042 324.242326 
L 673.359665 325.252575 
L 673.975287 323.566502 
L 674.590909 324.903515 
L 675.206531 323.727796 
L 675.822154 339.855021 
L 676.437776 342.357186 
L 677.053398 361.159048 
L 677.66902 365.387718 
L 678.284643 320.058657 
L 678.900265 335.397834 
L 679.515887 321.162531 
L 680.131509 320.604914 
L 680.747132 329.402975 
L 681.362754 315.832501 
L 681.978376 318.139898 
L 682.593998 311.701621 
L 683.20962 325.712002 
L 683.825243 323.524574 
L 684.440865 292.237493 
L 685.056487 316.462954 
L 685.672109 326.928782 
L 686.287732 319.511756 
L 686.903354 314.47641 
L 687.518976 335.241097 
L 688.134598 303.072963 
L 688.750221 286.867748 
L 689.365843 297.451734 
L 689.981465 256.901915 
L 690.597087 242.757812 
L 691.828332 289.388796 
L 693.059576 306.051441 
L 692.443954 299.485243 
L 693.675199 305.385196 
L 694.290821 305.839925 
L 694.906443 306.853855 
L 695.522065 323.472567 
L 696.137688 333.023424 
L 696.75331 334.770473 
L 697.368932 334.090478 
L 697.984554 337.856124 
L 698.600177 354.624581 
L 699.215799 331.545473 
L 699.831421 327.624918 
L 700.447043 347.420732 
L 701.062665 337.574769 
L 701.678288 315.631379 
L 702.909532 330.156626 
L 702.29391 115.834209 
L 703.525154 140.473253 
L 705.987643 235.438135 
L 705.372021 236.741488 
L 706.603266 256.972533 
L 707.218888 270.646106 
L 707.83451 278.063634 
L 708.450132 288.391668 
L 709.681377 279.475846 
L 710.296999 278.172991 
L 710.912621 279.728203 
L 711.528244 282.26198 
L 712.143866 304.685181 
L 712.759488 293.723323 
L 713.37511 313.577376 
L 713.990733 266.724015 
L 715.221977 292.988305 
L 715.837599 298.829057 
L 716.453222 289.425749 
L 717.068844 297.264048 
L 718.915711 304.07655 
L 719.531333 300.51037 
L 720.146955 296.282325 
L 720.762577 307.901829 
L 721.378199 310.117119 
L 721.993822 293.70374 
L 722.609444 303.702743 
L 723.225066 316.484054 
L 723.840688 316.484083 
L 724.456311 321.658808 
L 725.071933 341.545775 
L 725.687555 321.019985 
L 726.9188 318.284998 
L 727.534422 335.97363 
L 728.150044 337.107124 
L 728.765666 336.003602 
L 729.381289 311.678228 
L 729.996911 317.358767 
L 730.612533 314.407185 
L 731.228155 297.66619 
L 731.843778 301.117642 
L 732.4594 302.521794 
L 733.075022 323.517378 
L 733.690644 310.610606 
L 734.306267 258.259866 
L 734.921889 271.209346 
L 735.537511 302.989731 
L 736.153133 301.336527 
L 736.768756 302.153705 
L 737.384378 296.900308 
L 738 299.902149 
L 738.615622 301.413017 
L 739.231244 299.077609 
L 739.846867 318.691976 
L 740.462489 309.267122 
L 741.078111 316.675878 
L 741.693733 317.119603 
L 742.309356 254.07165 
L 741.693733 272.927301 
L 742.924978 287.219561 
L 743.5406 308.18116 
L 744.156222 307.730175 
L 744.771845 303.864621 
L 745.387467 309.362512 
L 746.003089 304.588966 
L 746.618711 324.853504 
L 747.234334 317.381972 
L 747.849956 320.964442 
L 748.465578 330.425892 
L 749.0812 313.345049 
L 749.696823 309.617265 
L 750.312445 313.374987 
L 750.928067 304.045398 
L 751.543689 323.98133 
L 749.696823 234.563024 
L 752.159312 255.664513 
L 752.774934 274.758685 
L 754.006178 287.629955 
L 754.621801 295.764523 
L 755.237423 300.650215 
L 755.853045 303.816125 
L 756.468667 305.794134 
L 757.084289 315.83371 
L 757.699912 332.796507 
L 758.315534 324.45038 
L 760.162401 317.970495 
L 760.778023 298.750352 
L 761.393645 313.265682 
L 762.009267 311.24386 
L 762.62489 312.440807 
L 763.240512 309.896946 
L 763.856134 233.843494 
L 765.087379 273.962826 
L 765.703001 306.940744 
L 766.318623 306.744362 
L 766.934245 311.753185 
L 767.549868 308.690062 
L 768.16549 307.603713 
L 768.781112 315.754036 
L 769.396734 315.056272 
L 770.012357 310.414063 
L 770.627979 312.965635 
L 771.243601 330.422408 
L 772.474846 307.358712 
L 773.090468 315.600381 
L 773.70609 314.004982 
L 774.321712 310.529148 
L 774.937335 308.353034 
L 775.552957 326.893538 
L 776.168579 298.793044 
L 776.784201 295.105292 
L 778.015446 306.247156 
L 778.631068 287.851087 
L 779.24669 297.708226 
L 779.862312 301.749802 
L 780.477935 306.717173 
L 781.093557 301.932971 
L 781.709179 249.109626 
L 782.324801 264.980882 
L 782.940424 237.15174 
L 783.556046 243.677868 
L 784.171668 266.731139 
L 784.78729 278.161522 
L 785.402913 298.177495 
L 786.018535 295.991369 
L 786.634157 309.238629 
L 787.249779 312.278716 
L 787.865402 320.852974 
L 788.481024 313.479867 
L 789.096646 337.048099 
L 789.712268 334.206165 
L 790.327891 326.783191 
L 790.943513 316.901092 
L 791.559135 312.113745 
L 790.327891 312.030473 
L 792.174757 318.462798 
L 792.79038 321.452755 
L 794.021624 296.19743 
L 794.637246 305.392013 
L 795.252868 298.848893 
L 795.868491 302.494449 
L 796.484113 303.09993 
L 797.099735 312.818434 
L 797.715357 307.632621 
L 798.33098 310.134111 
L 798.946602 308.86514 
L 799.562224 303.335196 
L 800.177846 312.085739 
L 800.793469 316.172885 
L 801.409091 327.29713 
L 802.024713 318.336246 
L 802.640335 325.409547 
L 803.255958 316.932879 
L 803.87158 321.310509 
L 804.487202 337.990518 
L 805.102824 317.116927 
L 806.334069 329.661809 
L 806.949691 324.979206 
L 807.565313 332.49799 
L 808.180936 328.543629 
L 808.796558 322.641579 
L 809.41218 321.946682 
L 810.027802 322.609971 
L 810.643425 319.247999 
L 811.259047 320.787046 
L 811.874669 307.979199 
L 812.490291 273.34293 
L 813.105914 286.664576 
L 814.337158 305.479458 
L 814.95278 320.844583 
L 815.568402 324.356983 
L 816.184025 317.596518 
L 815.568402 312.348896 
L 816.799647 314.05222 
L 817.415269 321.276099 
L 818.030891 316.609636 
L 819.262136 321.127739 
L 818.030891 308.594571 
L 819.877758 179.85194 
L 821.109003 227.987668 
L 821.724625 272.292654 
L 822.340247 295.259222 
L 823.571492 304.80648 
L 824.187114 321.247259 
L 824.802736 323.547323 
L 823.571492 314.058704 
L 824.802736 313.259201 
L 825.418358 328.742082 
L 826.033981 323.051739 
L 826.649603 332.150251 
L 827.265225 320.992253 
L 827.880847 285.830933 
L 828.49647 299.333912 
L 829.112092 303.821309 
L 829.727714 316.525895 
L 830.343336 309.634867 
L 830.958959 318.872459 
L 831.574581 283.783463 
L 832.190203 302.213143 
L 832.805825 293.654382 
L 833.421447 295.573465 
L 834.03707 322.004506 
L 834.652692 339.331765 
L 835.268314 329.640416 
L 835.883936 325.621433 
L 836.499559 317.161768 
L 837.115181 314.016455 
L 837.730803 332.090724 
L 838.346425 321.936207 
L 838.962048 319.17887 
L 839.57767 321.418214 
L 840.193292 320.281307 
L 840.808914 318.390789 
L 841.424537 318.3908 
L 842.040159 319.045075 
L 842.655781 291.246465 
L 843.271403 288.407178 
L 843.887026 300.730903 
L 844.502648 297.170777 
L 845.11827 308.394256 
L 845.733892 307.957871 
L 846.349515 307.741638 
L 846.965137 307.013863 
L 847.580759 311.907704 
L 848.812004 319.922775 
L 849.427626 318.079421 
L 850.043248 318.97866 
L 850.65887 332.816869 
L 851.274492 326.585771 
L 851.890115 316.342139 
L 852.505737 333.996349 
L 853.121359 334.203271 
L 853.736981 347.64432 
L 854.352604 339.823005 
L 855.583848 339.508961 
L 856.19947 336.502404 
L 856.815093 337.234737 
L 857.430715 338.200644 
L 858.046337 326.433213 
L 858.661959 325.941796 
L 859.277582 332.292748 
L 859.893204 326.990193 
L 860.508826 326.637822 
L 861.124448 321.819842 
L 862.355693 360.7753 
L 862.971315 329.100769 
L 862.355693 321.398135 
L 863.586937 315.998643 
L 864.20256 338.331999 
L 864.818182 320.162467 
L 865.433804 316.115987 
L 866.049426 318.037379 
L 866.665049 307.501081 
L 867.280671 312.185803 
L 867.896293 309.71387 
L 868.511915 316.977389 
L 869.127538 316.167799 
L 869.74316 308.437146 
L 870.358782 256.279679 
L 870.974404 267.883217 
L 871.590026 268.875942 
L 872.205649 291.796547 
L 872.821271 300.678479 
L 873.436893 299.106551 
L 874.052515 295.848984 
L 875.28376 329.69605 
L 875.899382 337.620598 
L 876.515004 319.530204 
L 877.130627 327.181858 
L 877.746249 316.035307 
L 878.361871 325.240521 
L 878.977493 322.272521 
L 879.593116 296.216896 
L 880.208738 308.214663 
L 879.593116 316.135506 
L 880.82436 316.845073 
L 881.439982 314.514282 
L 882.055605 319.040795 
L 882.671227 319.040854 
L 883.286849 337.159484 
L 883.902471 337.159497 
L 884.518094 328.736904 
L 885.133716 340.765723 
L 885.749338 324.527005 
L 886.36496 327.261114 
L 885.133716 324.05364 
L 887.596205 332.53385 
L 889.443071 317.460806 
L 890.058694 324.662302 
L 891.289938 343.065896 
L 891.90556 340.674545 
L 892.521183 326.489778 
L 893.136805 302.525922 
L 893.752427 310.666814 
L 894.368049 322.957146 
L 894.983672 313.913984 
L 895.599294 316.88229 
L 896.214916 285.578377 
L 896.830538 297.75997 
L 897.446161 298.888461 
L 895.599294 285.638542 
L 898.061783 281.824824 
L 898.677405 278.774886 
L 899.293027 295.234525 
L 899.90865 299.913354 
L 900.524272 307.674386 
L 901.139894 310.190657 
L 900.524272 322.017453 
L 901.755516 321.093016 
L 902.371139 319.630645 
L 902.986761 304.904065 
L 904.218005 326.0372 
L 904.833628 332.733554 
L 905.44925 313.109732 
L 906.064872 325.134656 
L 906.680494 317.074776 
L 907.296117 278.422936 
L 907.911739 293.719113 
L 908.527361 315.209407 
L 909.142983 314.96351 
L 909.758605 314.028447 
L 910.374228 290.761866 
L 910.98985 295.797035 
L 911.605472 303.183928 
L 912.221094 276.274371 
L 912.836717 296.373815 
L 913.452339 305.440583 
L 914.067961 305.867958 
L 914.683583 313.451084 
L 915.299206 315.364916 
L 915.914828 301.023185 
L 917.761695 309.746317 
L 918.377317 316.895992 
L 919.608561 347.782954 
L 920.839806 311.281315 
L 921.455428 325.509573 
L 922.07105 322.353538 
L 922.686673 329.569633 
L 923.302295 332.461432 
L 923.917917 284.65565 
L 924.533539 285.376284 
L 925.149162 298.003393 
L 925.764784 306.479021 
L 926.380406 330.889814 
L 926.996028 323.625808 
L 927.61165 328.83925 
L 928.227273 322.766841 
L 928.842895 308.864974 
L 929.458517 324.831052 
L 930.689762 321.017991 
L 931.305384 311.975044 
L 931.921006 314.579294 
L 932.536628 316.293728 
L 933.152251 315.591362 
L 933.767873 315.940869 
L 934.999117 316.924751 
L 935.61474 316.518671 
L 936.230362 316.949585 
L 936.845984 316.937404 
L 937.461606 328.473109 
L 938.077229 322.247323 
L 938.692851 344.487616 
L 939.308473 298.054364 
L 939.924095 305.057535 
L 940.539718 318.673354 
L 941.15534 350.997903 
L 941.770962 327.347878 
L 942.386584 324.315669 
L 943.002207 305.524788 
L 943.617829 298.852021 
L 944.233451 322.913434 
L 944.849073 313.661427 
L 945.464695 314.756699 
L 946.080318 309.053232 
L 946.69594 316.655148 
L 947.311562 312.343812 
L 947.927184 306.844107 
L 948.542807 306.231262 
L 949.158429 309.158187 
L 950.389673 307.7011 
L 951.005296 320.84912 
L 949.158429 313.369317 
L 951.620918 309.66247 
L 952.852162 300.51525 
L 953.467785 297.817985 
L 954.083407 304.841991 
L 954.699029 300.28792 
L 955.314651 296.581937 
L 955.930274 310.555741 
L 956.545896 308.883279 
L 957.161518 327.809244 
L 957.77714 316.493258 
L 959.008385 311.394151 
L 959.624007 306.746043 
L 960.239629 315.776433 
L 960.855252 312.234266 
L 961.470874 314.803297 
L 962.086496 320.093354 
L 962.702118 317.351851 
L 963.317741 337.252423 
L 962.702118 320.469454 
L 963.933363 334.686836 
L 964.548985 330.679841 
L 965.164607 320.44523 
L 965.780229 335.578818 
L 967.011474 320.039401 
L 967.627096 321.428394 
L 968.242718 318.394947 
L 968.858341 303.660489 
L 969.473963 298.116292 
L 970.089585 273.875674 
L 970.705207 181.845723 
L 971.936452 227.083611 
L 972.552074 235.132586 
L 973.167696 258.190158 
L 973.783319 269.569769 
L 974.398941 285.508267 
L 975.630185 305.163703 
L 976.245808 305.149753 
L 976.86143 310.752772 
L 977.477052 321.171183 
L 978.092674 338.657568 
L 978.708297 326.597564 
L 979.323919 307.906346 
L 979.939541 309.546889 
L 980.555163 302.896722 
L 981.170786 306.069134 
L 981.786408 316.946266 
L 982.40203 311.100383 
L 983.017652 333.13443 
L 983.633274 334.948628 
L 984.248897 334.030211 
L 985.480141 334.030315 
L 986.095763 353.005097 
L 986.711386 337.729349 
L 987.327008 269.663212 
L 987.94263 115.728367 
L 990.405119 214.280932 
L 991.636364 257.305833 
L 992.867608 303.008873 
L 993.48323 305.88432 
L 994.098853 319.24721 
L 994.714475 325.085778 
L 995.330097 346.492928 
L 995.945719 354.298148 
L 996.561342 344.860397 
L 995.945719 327.447173 
L 996.561342 329.012057 
L 997.176964 330.14263 
L 998.408208 334.38829 
L 999.023831 334.117435 
L 999.639453 334.4655 
L 1000.255075 331.871464 
L 1000.870697 330.64103 
L 1001.48632 331.251017 
L 1002.101942 330.956969 
L 1002.717564 331.036663 
L 1003.333186 343.715397 
L 1003.948808 336.69592 
L 1004.564431 350.688627 
L 1005.180053 347.035702 
L 1005.795675 346.59651 
L 1006.411297 346.815719 
L 1007.02692 325.715834 
L 1008.258164 342.297531 
L 1008.873786 344.486341 
L 1009.489409 314.09531 
L 1010.105031 345.986452 
L 1010.720653 322.13881 
L 1011.336275 319.107879 
L 1011.951898 320.321513 
L 1013.183142 321.862644 
L 1013.798764 324.186803 
L 1014.414387 323.308605 
L 1015.030009 342.119692 
L 1015.645631 324.343092 
L 1016.261253 323.740938 
L 1016.876876 341.580209 
L 1018.10812 341.506595 
L 1018.723742 360.39792 
L 1019.339365 345.288685 
L 1019.954987 347.348946 
L 1020.570609 344.390423 
L 1021.186231 346.181547 
L 1021.801853 302.479846 
L 1022.417476 296.723654 
L 1023.033098 313.570566 
L 1023.64872 311.830732 
L 1024.264342 327.403158 
L 1024.879965 326.843237 
L 1025.495587 345.017781 
L 1026.111209 323.408153 
L 1027.342454 360.338638 
L 1027.958076 335.039768 
L 1029.18932 348.726082 
L 1029.804943 326.238786 
L 1030.420565 248.609618 
L 1031.036187 268.857111 
L 1031.651809 243.418912 
L 1032.883054 285.265209 
L 1034.114298 315.787715 
L 1034.729921 316.800191 
L 1035.345543 321.23557 
L 1035.961165 327.84406 
L 1036.576787 341.461777 
L 1037.19241 349.925927 
L 1037.808032 349.926135 
L 1038.423654 347.883682 
L 1039.039276 338.041218 
L 1039.654898 343.497919 
L 1040.270521 343.498003 
L 1040.886143 358.175116 
L 1041.501765 359.8195 
L 1042.117387 369.415616 
L 1043.348632 370.89282 
L 1043.964254 379.629755 
L 1044.579876 395.542532 
L 1045.195499 392.483768 
L 1045.811121 368.429679 
L 1046.426743 390.872555 
L 1047.042365 342.083782 
L 1047.657988 361.732207 
L 1048.27361 373.643954 
L 1048.889232 223.750589 
L 1050.120477 271.084209 
L 1050.736099 283.100478 
L 1051.967343 302.877653 
L 1053.198588 348.696489 
L 1053.81421 361.196839 
L 1054.429832 364.87449 
L 1055.045455 364.874522 
L 1055.661077 372.843444 
L 1056.276699 368.640044 
L 1056.892321 377.045018 
L 1057.507944 401.3549 
L 1058.123566 382.815904 
L 1058.739188 390.910471 
L 1059.35481 335.462595 
L 1059.970432 347.828298 
L 1060.586055 365.065677 
L 1061.201677 371.647698 
L 1061.817299 367.416804 
L 1062.432921 365.85226 
L 1063.048544 348.314602 
L 1063.664166 318.798542 
L 1064.89541 364.473161 
L 1065.511033 372.59278 
L 1066.126655 397.107744 
L 1066.742277 393.970187 
L 1067.357899 394.1259 
L 1067.973522 395.515169 
L 1068.589144 392.104768 
L 1069.204766 387.745023 
L 1069.820388 389.837862 
L 1070.436011 382.680161 
L 1071.051633 402.840718 
L 1071.667255 413.197815 
L 1072.282877 406.525373 
L 1072.8985 362.514588 
L 1074.129744 387.704096 
L 1074.745366 364.380051 
L 1075.360989 373.9673 
L 1075.976611 368.716092 
L 1076.592233 326.17554 
L 1078.4391 349.700737 
L 1079.054722 363.470125 
L 1079.670344 380.340323 
L 1080.285966 338.739442 
L 1080.901589 340.196806 
L 1081.517211 354.963904 
L 1082.132833 350.15199 
L 1082.748455 341.138872 
L 1083.364078 349.459968 
L 1083.9797 346.589266 
L 1084.595322 341.435569 
L 1085.210944 352.153592 
L 1085.826567 366.843941 
L 1086.442189 324.961088 
L 1087.673433 315.203474 
L 1088.289056 319.754277 
L 1088.904678 317.407397 
L 1089.5203 318.570109 
L 1090.751545 352.699427 
L 1091.367167 342.665758 
L 1091.982789 349.199062 
L 1092.598411 375.581249 
L 1093.214034 395.092956 
L 1093.829656 388.706471 
L 1094.445278 412.730708 
L 1095.0609 377.275183 
L 1095.676523 390.247951 
L 1096.292145 356.044479 
L 1096.907767 363.957426 
L 1097.523389 363.629605 
L 1098.139011 363.755526 
L 1098.754634 349.156101 
L 1099.370256 355.716688 
L 1099.985878 366.076773 
L 1100.6015 325.033045 
L 1101.217123 340.07907 
L 1101.832745 349.360146 
L 1102.448367 347.502472 
L 1103.063989 348.813737 
L 1103.679612 336.105496 
L 1104.295234 346.742849 
L 1104.910856 341.034558 
L 1105.526478 343.776226 
L 1106.142101 339.644107 
L 1106.757723 338.98644 
L 1107.373345 337.879706 
L 1107.988967 326.119583 
L 1108.60459 331.815663 
L 1109.220212 328.511015 
L 1109.835834 339.711857 
L 1110.451456 332.801813 
L 1111.067079 336.092227 
L 1111.682701 349.776529 
L 1112.298323 371.753417 
L 1112.913945 362.019866 
L 1113.529568 366.560227 
L 1114.14519 373.454627 
L 1115.376434 373.455094 
L 1115.992056 370.121006 
L 1116.607679 365.679456 
L 1117.223301 365.679579 
L 1117.838923 376.523496 
L 1118.454545 364.226231 
L 1119.070168 368.085092 
L 1119.68579 339.662151 
L 1120.301412 323.573537 
L 1120.917034 327.645546 
L 1121.532657 339.97163 
L 1122.148279 333.286113 
L 1122.763901 337.255747 
L 1123.995146 367.183288 
L 1124.610768 358.300501 
L 1125.842012 394.563118 
L 1126.457635 391.80834 
L 1127.073257 393.159545 
L 1127.688879 373.583938 
L 1128.304501 388.16098 
L 1128.920124 405.768526 
L 1129.535746 349.428736 
L 1130.151368 367.5864 
L 1130.76699 380.550988 
L 1131.382613 373.491072 
L 1131.998235 376.10683 
L 1133.229479 341.018639 
L 1133.845102 341.365323 
L 1134.460724 338.006231 
L 1135.076346 341.910018 
L 1135.691968 296.597867 
L 1136.30759 281.080944 
L 1136.923213 305.089928 
L 1137.538835 311.220196 
L 1138.154457 297.674218 
L 1138.770079 306.337187 
L 1139.385702 311.854045 
L 1140.001324 312.216183 
L 1140.616946 299.612855 
L 1141.232568 322.134476 
L 1141.848191 325.79854 
L 1142.463813 340.204488 
L 1143.079435 336.030795 
L 1143.695057 343.857434 
L 1144.31068 343.785168 
L 1144.926302 354.528562 
L 1145.541924 372.667024 
L 1146.157546 362.382571 
L 1146.773169 362.382978 
L 1148.004413 366.224463 
L 1148.620035 366.224465 
L 1149.235658 379.440964 
L 1149.85128 372.032056 
L 1150.466902 375.948282 
L 1151.082524 346.626293 
L 1151.698147 359.16227 
L 1152.313769 352.353907 
L 1152.929391 374.139956 
L 1153.545013 346.676503 
L 1154.160635 335.522416 
L 1154.776258 351.990483 
L 1155.39188 340.071532 
L 1156.007502 344.15938 
L 1156.623124 342.916732 
L 1157.238747 340.115061 
L 1157.854369 357.589317 
L 1158.469991 360.508838 
L 1159.085613 370.454701 
L 1159.701236 316.46357 
L 1160.316858 333.295816 
L 1160.93248 337.26116 
L 1161.548102 336.136424 
L 1162.163725 336.002931 
L 1162.779347 343.014645 
L 1163.394969 327.666749 
L 1164.010591 315.267077 
L 1165.241836 346.944432 
L 1165.857458 338.276459 
L 1166.47308 351.923702 
L 1167.704325 345.860717 
L 1168.319947 328.909465 
L 1168.935569 325.710632 
L 1169.551192 331.659752 
L 1170.166814 355.52888 
L 1170.782436 347.555284 
L 1171.398058 349.316057 
L 1172.01368 347.484938 
L 1172.629303 355.410047 
L 1173.244925 356.580633 
L 1173.860547 333.309335 
L 1174.476169 339.398897 
L 1175.091792 323.911791 
L 1175.707414 330.588749 
L 1176.323036 345.401604 
L 1176.938658 344.322311 
L 1177.554281 349.411397 
L 1178.169903 341.270896 
L 1178.785525 353.835368 
L 1179.401147 343.132658 
L 1180.01677 352.720669 
L 1180.632392 357.468203 
L 1181.248014 355.017082 
L 1181.863636 356.222306 
L 1182.479259 344.745076 
L 1183.094881 363.096775 
L 1183.710503 301.978253 
L 1184.326125 300.086116 
L 1184.941748 310.865884 
L 1185.55737 327.074926 
L 1186.172992 347.270144 
L 1186.788614 308.992302 
L 1187.404237 321.658737 
L 1188.019859 323.901163 
L 1188.635481 322.762653 
L 1189.251103 341.459076 
L 1189.866726 332.719064 
L 1190.482348 343.008539 
L 1191.09797 337.499159 
L 1191.713592 337.499304 
L 1192.329214 340.14921 
L 1192.944837 337.437299 
L 1193.560459 340.003455 
L 1194.176081 338.472684 
L 1194.791703 294.91174 
L 1195.407326 319.435765 
L 1196.022948 323.021626 
L 1196.63857 346.923396 
L 1197.254192 343.589581 
L 1197.869815 310.337632 
L 1199.101059 332.762889 
L 1199.716681 345.459456 
L 1200.332304 355.424245 
L 1200.947926 351.129514 
L 1201.563548 335.562764 
L 1202.17917 330.26224 
L 1202.794793 348.046449 
L 1203.410415 329.688272 
L 1204.026037 334.483322 
L 1204.641659 347.932375 
L 1205.257282 340.42983 
L 1206.488526 340.429844 
L 1207.104148 353.780314 
L 1207.719771 343.867225 
L 1208.335393 327.137408 
L 1208.951015 337.31169 
L 1209.566637 331.868156 
L 1210.182259 341.747687 
L 1210.797882 357.145619 
L 1211.413504 368.298368 
L 1212.029126 348.717532 
L 1212.644748 365.32485 
L 1213.260371 355.036064 
L 1213.875993 342.763515 
L 1214.491615 342.763554 
L 1215.72286 375.558006 
L 1216.954104 357.311268 
L 1217.569726 357.311322 
L 1218.185349 342.645357 
L 1219.416593 349.240089 
L 1220.032215 344.081647 
L 1220.647838 304.676154 
L 1221.26346 308.644476 
L 1221.879082 308.054068 
L 1222.494704 308.441238 
L 1223.110327 328.11971 
L 1223.725949 325.64569 
L 1224.341571 327.390517 
L 1224.957193 329.817659 
L 1225.572816 326.388944 
L 1226.188438 348.515809 
L 1226.80406 335.866429 
L 1227.419682 335.67951 
L 1228.035305 341.531442 
L 1228.650927 336.378346 
L 1229.266549 333.351783 
L 1229.882171 195.620033 
L 1231.113416 241.28275 
L 1232.34466 257.218912 
L 1232.960282 262.179312 
L 1233.575905 274.999287 
L 1234.191527 251.694393 
L 1234.807149 177.699408 
L 1236.038394 223.341341 
L 1236.654016 216.676668 
L 1237.269638 228.290531 
L 1237.88526 251.973231 
L 1238.500883 268.287102 
L 1239.732127 282.320036 
L 1240.347749 293.530261 
L 1240.963372 287.492619 
L 1241.578994 290.284502 
L 1242.810238 306.751808 
L 1243.425861 325.10921 
L 1244.041483 317.305524 
L 1245.272727 320.087885 
L 1245.272727 320.087885 
" style="fill:none;stroke:#ff7f0e;stroke-linecap:square;stroke-width:1.5;"/>
   </g>
   <g id="patch_3">
    <path d="M 180 640.8 
L 180 86.4 
" style="fill:none;stroke:#000000;stroke-linecap:square;stroke-linejoin:miter;stroke-width:0.8;"/>
   </g>
   <g id="patch_4">
    <path d="M 1296 640.8 
L 1296 86.4 
" style="fill:none;stroke:#000000;stroke-linecap:square;stroke-linejoin:miter;stroke-width:0.8;"/>
   </g>
   <g id="patch_5">
    <path d="M 180 640.8 
L 1296 640.8 
" style="fill:none;stroke:#000000;stroke-linecap:square;stroke-linejoin:miter;stroke-width:0.8;"/>
   </g>
   <g id="patch_6">
    <path d="M 180 86.4 
L 1296 86.4 
" style="fill:none;stroke:#000000;stroke-linecap:square;stroke-linejoin:miter;stroke-width:0.8;"/>
   </g>
  </g>
 </g>
 <defs>
  <clipPath id="p780c80a53c">
   <rect height="554.4" width="1116" x="180" y="86.4"/>
  </clipPath>
 </defs>
</svg>
