<?xml version="1.0" encoding="utf-8" standalone="no"?>
<!DOCTYPE svg PUBLIC "-//W3C//DTD SVG 1.1//EN"
  "http://www.w3.org/Graphics/SVG/1.1/DTD/svg11.dtd">
<svg height="345.6pt" version="1.1" viewBox="0 0 460.8 345.6" width="460.8pt" xmlns="http://www.w3.org/2000/svg" xmlns:xlink="http://www.w3.org/1999/xlink">
 <metadata>
  <rdf:RDF xmlns:cc="http://creativecommons.org/ns#" xmlns:dc="http://purl.org/dc/elements/1.1/" xmlns:rdf="http://www.w3.org/1999/02/22-rdf-syntax-ns#">
   <cc:Work>
    <dc:type rdf:resource="http://purl.org/dc/dcmitype/StillImage"/>
    <dc:date>2022-01-06T21:55:26.560646</dc:date>
    <dc:format>image/svg+xml</dc:format>
    <dc:creator>
     <cc:Agent>
      <dc:title>Matplotlib v3.4.3, https://matplotlib.org/</dc:title>
     </cc:Agent>
    </dc:creator>
   </cc:Work>
  </rdf:RDF>
 </metadata>
 <defs>
  <style type="text/css">*{stroke-linecap:butt;stroke-linejoin:round;}</style>
 </defs>
 <g id="figure_1">
  <g id="patch_1">
   <path d="M 0 345.6 
L 460.8 345.6 
L 460.8 0 
L 0 0 
z
" style="fill:#ffffff;"/>
  </g>
  <g id="axes_1">
   <g id="patch_2">
    <path d="M 57.6 307.584 
L 414.72 307.584 
L 414.72 41.472 
L 57.6 41.472 
z
" style="fill:#ffffff;"/>
   </g>
   <g id="matplotlib.axis_1">
    <g id="xtick_1">
     <g id="line2d_1">
      <defs>
       <path d="M 0 0 
L 0 3.5 
" id="mbd728c0064" style="stroke:#000000;stroke-width:0.8;"/>
      </defs>
      <g>
       <use style="stroke:#000000;stroke-width:0.8;" x="73.832727" xlink:href="#mbd728c0064" y="307.584"/>
      </g>
     </g>
     <g id="text_1">
      <!-- 39000 -->
      <g transform="translate(57.926477 322.182437)scale(0.1 -0.1)">
       <defs>
        <path d="M 2597 2516 
Q 3050 2419 3304 2112 
Q 3559 1806 3559 1356 
Q 3559 666 3084 287 
Q 2609 -91 1734 -91 
Q 1441 -91 1130 -33 
Q 819 25 488 141 
L 488 750 
Q 750 597 1062 519 
Q 1375 441 1716 441 
Q 2309 441 2620 675 
Q 2931 909 2931 1356 
Q 2931 1769 2642 2001 
Q 2353 2234 1838 2234 
L 1294 2234 
L 1294 2753 
L 1863 2753 
Q 2328 2753 2575 2939 
Q 2822 3125 2822 3475 
Q 2822 3834 2567 4026 
Q 2313 4219 1838 4219 
Q 1578 4219 1281 4162 
Q 984 4106 628 3988 
L 628 4550 
Q 988 4650 1302 4700 
Q 1616 4750 1894 4750 
Q 2613 4750 3031 4423 
Q 3450 4097 3450 3541 
Q 3450 3153 3228 2886 
Q 3006 2619 2597 2516 
z
" id="DejaVuSans-33" transform="scale(0.015625)"/>
        <path d="M 703 97 
L 703 672 
Q 941 559 1184 500 
Q 1428 441 1663 441 
Q 2288 441 2617 861 
Q 2947 1281 2994 2138 
Q 2813 1869 2534 1725 
Q 2256 1581 1919 1581 
Q 1219 1581 811 2004 
Q 403 2428 403 3163 
Q 403 3881 828 4315 
Q 1253 4750 1959 4750 
Q 2769 4750 3195 4129 
Q 3622 3509 3622 2328 
Q 3622 1225 3098 567 
Q 2575 -91 1691 -91 
Q 1453 -91 1209 -44 
Q 966 3 703 97 
z
M 1959 2075 
Q 2384 2075 2632 2365 
Q 2881 2656 2881 3163 
Q 2881 3666 2632 3958 
Q 2384 4250 1959 4250 
Q 1534 4250 1286 3958 
Q 1038 3666 1038 3163 
Q 1038 2656 1286 2365 
Q 1534 2075 1959 2075 
z
" id="DejaVuSans-39" transform="scale(0.015625)"/>
        <path d="M 2034 4250 
Q 1547 4250 1301 3770 
Q 1056 3291 1056 2328 
Q 1056 1369 1301 889 
Q 1547 409 2034 409 
Q 2525 409 2770 889 
Q 3016 1369 3016 2328 
Q 3016 3291 2770 3770 
Q 2525 4250 2034 4250 
z
M 2034 4750 
Q 2819 4750 3233 4129 
Q 3647 3509 3647 2328 
Q 3647 1150 3233 529 
Q 2819 -91 2034 -91 
Q 1250 -91 836 529 
Q 422 1150 422 2328 
Q 422 3509 836 4129 
Q 1250 4750 2034 4750 
z
" id="DejaVuSans-30" transform="scale(0.015625)"/>
       </defs>
       <use xlink:href="#DejaVuSans-33"/>
       <use x="63.623047" xlink:href="#DejaVuSans-39"/>
       <use x="127.246094" xlink:href="#DejaVuSans-30"/>
       <use x="190.869141" xlink:href="#DejaVuSans-30"/>
       <use x="254.492188" xlink:href="#DejaVuSans-30"/>
      </g>
     </g>
    </g>
    <g id="xtick_2">
     <g id="line2d_2">
      <g>
       <use style="stroke:#000000;stroke-width:0.8;" x="123.082507" xlink:href="#mbd728c0064" y="307.584"/>
      </g>
     </g>
     <g id="text_2">
      <!-- 39250 -->
      <g transform="translate(107.176257 322.182437)scale(0.1 -0.1)">
       <defs>
        <path d="M 1228 531 
L 3431 531 
L 3431 0 
L 469 0 
L 469 531 
Q 828 903 1448 1529 
Q 2069 2156 2228 2338 
Q 2531 2678 2651 2914 
Q 2772 3150 2772 3378 
Q 2772 3750 2511 3984 
Q 2250 4219 1831 4219 
Q 1534 4219 1204 4116 
Q 875 4013 500 3803 
L 500 4441 
Q 881 4594 1212 4672 
Q 1544 4750 1819 4750 
Q 2544 4750 2975 4387 
Q 3406 4025 3406 3419 
Q 3406 3131 3298 2873 
Q 3191 2616 2906 2266 
Q 2828 2175 2409 1742 
Q 1991 1309 1228 531 
z
" id="DejaVuSans-32" transform="scale(0.015625)"/>
        <path d="M 691 4666 
L 3169 4666 
L 3169 4134 
L 1269 4134 
L 1269 2991 
Q 1406 3038 1543 3061 
Q 1681 3084 1819 3084 
Q 2600 3084 3056 2656 
Q 3513 2228 3513 1497 
Q 3513 744 3044 326 
Q 2575 -91 1722 -91 
Q 1428 -91 1123 -41 
Q 819 9 494 109 
L 494 744 
Q 775 591 1075 516 
Q 1375 441 1709 441 
Q 2250 441 2565 725 
Q 2881 1009 2881 1497 
Q 2881 1984 2565 2268 
Q 2250 2553 1709 2553 
Q 1456 2553 1204 2497 
Q 953 2441 691 2322 
L 691 4666 
z
" id="DejaVuSans-35" transform="scale(0.015625)"/>
       </defs>
       <use xlink:href="#DejaVuSans-33"/>
       <use x="63.623047" xlink:href="#DejaVuSans-39"/>
       <use x="127.246094" xlink:href="#DejaVuSans-32"/>
       <use x="190.869141" xlink:href="#DejaVuSans-35"/>
       <use x="254.492188" xlink:href="#DejaVuSans-30"/>
      </g>
     </g>
    </g>
    <g id="xtick_3">
     <g id="line2d_3">
      <g>
       <use style="stroke:#000000;stroke-width:0.8;" x="172.332286" xlink:href="#mbd728c0064" y="307.584"/>
      </g>
     </g>
     <g id="text_3">
      <!-- 39500 -->
      <g transform="translate(156.426036 322.182437)scale(0.1 -0.1)">
       <use xlink:href="#DejaVuSans-33"/>
       <use x="63.623047" xlink:href="#DejaVuSans-39"/>
       <use x="127.246094" xlink:href="#DejaVuSans-35"/>
       <use x="190.869141" xlink:href="#DejaVuSans-30"/>
       <use x="254.492188" xlink:href="#DejaVuSans-30"/>
      </g>
     </g>
    </g>
    <g id="xtick_4">
     <g id="line2d_4">
      <g>
       <use style="stroke:#000000;stroke-width:0.8;" x="221.582065" xlink:href="#mbd728c0064" y="307.584"/>
      </g>
     </g>
     <g id="text_4">
      <!-- 39750 -->
      <g transform="translate(205.675815 322.182437)scale(0.1 -0.1)">
       <defs>
        <path d="M 525 4666 
L 3525 4666 
L 3525 4397 
L 1831 0 
L 1172 0 
L 2766 4134 
L 525 4134 
L 525 4666 
z
" id="DejaVuSans-37" transform="scale(0.015625)"/>
       </defs>
       <use xlink:href="#DejaVuSans-33"/>
       <use x="63.623047" xlink:href="#DejaVuSans-39"/>
       <use x="127.246094" xlink:href="#DejaVuSans-37"/>
       <use x="190.869141" xlink:href="#DejaVuSans-35"/>
       <use x="254.492188" xlink:href="#DejaVuSans-30"/>
      </g>
     </g>
    </g>
    <g id="xtick_5">
     <g id="line2d_5">
      <g>
       <use style="stroke:#000000;stroke-width:0.8;" x="270.831845" xlink:href="#mbd728c0064" y="307.584"/>
      </g>
     </g>
     <g id="text_5">
      <!-- 40000 -->
      <g transform="translate(254.925595 322.182437)scale(0.1 -0.1)">
       <defs>
        <path d="M 2419 4116 
L 825 1625 
L 2419 1625 
L 2419 4116 
z
M 2253 4666 
L 3047 4666 
L 3047 1625 
L 3713 1625 
L 3713 1100 
L 3047 1100 
L 3047 0 
L 2419 0 
L 2419 1100 
L 313 1100 
L 313 1709 
L 2253 4666 
z
" id="DejaVuSans-34" transform="scale(0.015625)"/>
       </defs>
       <use xlink:href="#DejaVuSans-34"/>
       <use x="63.623047" xlink:href="#DejaVuSans-30"/>
       <use x="127.246094" xlink:href="#DejaVuSans-30"/>
       <use x="190.869141" xlink:href="#DejaVuSans-30"/>
       <use x="254.492188" xlink:href="#DejaVuSans-30"/>
      </g>
     </g>
    </g>
    <g id="xtick_6">
     <g id="line2d_6">
      <g>
       <use style="stroke:#000000;stroke-width:0.8;" x="320.081624" xlink:href="#mbd728c0064" y="307.584"/>
      </g>
     </g>
     <g id="text_6">
      <!-- 40250 -->
      <g transform="translate(304.175374 322.182437)scale(0.1 -0.1)">
       <use xlink:href="#DejaVuSans-34"/>
       <use x="63.623047" xlink:href="#DejaVuSans-30"/>
       <use x="127.246094" xlink:href="#DejaVuSans-32"/>
       <use x="190.869141" xlink:href="#DejaVuSans-35"/>
       <use x="254.492188" xlink:href="#DejaVuSans-30"/>
      </g>
     </g>
    </g>
    <g id="xtick_7">
     <g id="line2d_7">
      <g>
       <use style="stroke:#000000;stroke-width:0.8;" x="369.331403" xlink:href="#mbd728c0064" y="307.584"/>
      </g>
     </g>
     <g id="text_7">
      <!-- 40500 -->
      <g transform="translate(353.425153 322.182437)scale(0.1 -0.1)">
       <use xlink:href="#DejaVuSans-34"/>
       <use x="63.623047" xlink:href="#DejaVuSans-30"/>
       <use x="127.246094" xlink:href="#DejaVuSans-35"/>
       <use x="190.869141" xlink:href="#DejaVuSans-30"/>
       <use x="254.492188" xlink:href="#DejaVuSans-30"/>
      </g>
     </g>
    </g>
   </g>
   <g id="matplotlib.axis_2">
    <g id="ytick_1">
     <g id="line2d_8">
      <defs>
       <path d="M 0 0 
L -3.5 0 
" id="m04b215b4c3" style="stroke:#000000;stroke-width:0.8;"/>
      </defs>
      <g>
       <use style="stroke:#000000;stroke-width:0.8;" x="57.6" xlink:href="#m04b215b4c3" y="307.584"/>
      </g>
     </g>
     <g id="text_8">
      <!-- 0 -->
      <g transform="translate(44.2375 311.383219)scale(0.1 -0.1)">
       <use xlink:href="#DejaVuSans-30"/>
      </g>
     </g>
    </g>
    <g id="ytick_2">
     <g id="line2d_9">
      <g>
       <use style="stroke:#000000;stroke-width:0.8;" x="57.6" xlink:href="#m04b215b4c3" y="254.3616"/>
      </g>
     </g>
     <g id="text_9">
      <!-- 2 -->
      <g transform="translate(44.2375 258.160819)scale(0.1 -0.1)">
       <use xlink:href="#DejaVuSans-32"/>
      </g>
     </g>
    </g>
    <g id="ytick_3">
     <g id="line2d_10">
      <g>
       <use style="stroke:#000000;stroke-width:0.8;" x="57.6" xlink:href="#m04b215b4c3" y="201.1392"/>
      </g>
     </g>
     <g id="text_10">
      <!-- 4 -->
      <g transform="translate(44.2375 204.938419)scale(0.1 -0.1)">
       <use xlink:href="#DejaVuSans-34"/>
      </g>
     </g>
    </g>
    <g id="ytick_4">
     <g id="line2d_11">
      <g>
       <use style="stroke:#000000;stroke-width:0.8;" x="57.6" xlink:href="#m04b215b4c3" y="147.9168"/>
      </g>
     </g>
     <g id="text_11">
      <!-- 6 -->
      <g transform="translate(44.2375 151.716019)scale(0.1 -0.1)">
       <defs>
        <path d="M 2113 2584 
Q 1688 2584 1439 2293 
Q 1191 2003 1191 1497 
Q 1191 994 1439 701 
Q 1688 409 2113 409 
Q 2538 409 2786 701 
Q 3034 994 3034 1497 
Q 3034 2003 2786 2293 
Q 2538 2584 2113 2584 
z
M 3366 4563 
L 3366 3988 
Q 3128 4100 2886 4159 
Q 2644 4219 2406 4219 
Q 1781 4219 1451 3797 
Q 1122 3375 1075 2522 
Q 1259 2794 1537 2939 
Q 1816 3084 2150 3084 
Q 2853 3084 3261 2657 
Q 3669 2231 3669 1497 
Q 3669 778 3244 343 
Q 2819 -91 2113 -91 
Q 1303 -91 875 529 
Q 447 1150 447 2328 
Q 447 3434 972 4092 
Q 1497 4750 2381 4750 
Q 2619 4750 2861 4703 
Q 3103 4656 3366 4563 
z
" id="DejaVuSans-36" transform="scale(0.015625)"/>
       </defs>
       <use xlink:href="#DejaVuSans-36"/>
      </g>
     </g>
    </g>
    <g id="ytick_5">
     <g id="line2d_12">
      <g>
       <use style="stroke:#000000;stroke-width:0.8;" x="57.6" xlink:href="#m04b215b4c3" y="94.6944"/>
      </g>
     </g>
     <g id="text_12">
      <!-- 8 -->
      <g transform="translate(44.2375 98.493619)scale(0.1 -0.1)">
       <defs>
        <path d="M 2034 2216 
Q 1584 2216 1326 1975 
Q 1069 1734 1069 1313 
Q 1069 891 1326 650 
Q 1584 409 2034 409 
Q 2484 409 2743 651 
Q 3003 894 3003 1313 
Q 3003 1734 2745 1975 
Q 2488 2216 2034 2216 
z
M 1403 2484 
Q 997 2584 770 2862 
Q 544 3141 544 3541 
Q 544 4100 942 4425 
Q 1341 4750 2034 4750 
Q 2731 4750 3128 4425 
Q 3525 4100 3525 3541 
Q 3525 3141 3298 2862 
Q 3072 2584 2669 2484 
Q 3125 2378 3379 2068 
Q 3634 1759 3634 1313 
Q 3634 634 3220 271 
Q 2806 -91 2034 -91 
Q 1263 -91 848 271 
Q 434 634 434 1313 
Q 434 1759 690 2068 
Q 947 2378 1403 2484 
z
M 1172 3481 
Q 1172 3119 1398 2916 
Q 1625 2713 2034 2713 
Q 2441 2713 2670 2916 
Q 2900 3119 2900 3481 
Q 2900 3844 2670 4047 
Q 2441 4250 2034 4250 
Q 1625 4250 1398 4047 
Q 1172 3844 1172 3481 
z
" id="DejaVuSans-38" transform="scale(0.015625)"/>
       </defs>
       <use xlink:href="#DejaVuSans-38"/>
      </g>
     </g>
    </g>
    <g id="ytick_6">
     <g id="line2d_13">
      <g>
       <use style="stroke:#000000;stroke-width:0.8;" x="57.6" xlink:href="#m04b215b4c3" y="41.472"/>
      </g>
     </g>
     <g id="text_13">
      <!-- 10 -->
      <g transform="translate(37.875 45.271219)scale(0.1 -0.1)">
       <defs>
        <path d="M 794 531 
L 1825 531 
L 1825 4091 
L 703 3866 
L 703 4441 
L 1819 4666 
L 2450 4666 
L 2450 531 
L 3481 531 
L 3481 0 
L 794 0 
L 794 531 
z
" id="DejaVuSans-31" transform="scale(0.015625)"/>
       </defs>
       <use xlink:href="#DejaVuSans-31"/>
       <use x="63.623047" xlink:href="#DejaVuSans-30"/>
      </g>
     </g>
    </g>
   </g>
   <g id="line2d_14">
    <path clip-path="url(#p78565402e0)" d="M 73.832727 305.796623 
L 74.226726 305.709922 
L 74.423725 304.657061 
L 75.014722 304.657061 
L 75.211721 289.513369 
L 75.40872 288.516653 
L 75.211721 288.516653 
L 75.802718 288.516653 
L 75.999718 291.755632 
L 76.196717 302.283888 
L 76.393716 305.196554 
L 76.590715 305.196554 
L 76.984713 304.631627 
L 77.378711 304.631627 
L 77.77271 306.96682 
L 77.969709 306.96682 
L 78.166708 307.106171 
L 78.363707 307.106171 
L 78.560706 306.777386 
L 78.757705 306.164657 
L 79.348703 306.164657 
L 79.545702 305.639894 
L 79.742701 306.505583 
L 79.9397 306.505583 
L 80.136699 306.765111 
L 80.333698 306.765111 
L 80.530697 307.072133 
L 80.924695 307.072133 
L 81.121695 306.681647 
L 81.318694 306.681647 
L 81.712692 306.551292 
L 81.909691 306.916476 
L 82.10669 305.982708 
L 82.303689 306.943751 
L 82.697688 306.943751 
L 82.894687 305.940428 
L 83.091686 303.422433 
L 83.288685 305.940428 
L 83.485684 303.16234 
L 83.682683 302.991073 
L 83.879682 303.16234 
L 84.076681 303.16234 
L 84.27368 305.95163 
L 84.47068 305.95163 
L 84.667679 306.87603 
L 84.864678 303.908689 
L 85.061677 303.908689 
L 85.258676 305.728956 
L 85.849673 305.728956 
L 86.046673 303.864172 
L 86.440671 303.864172 
L 86.834669 305.926988 
L 87.228667 305.97821 
L 87.425666 306.218183 
L 87.622665 306.169734 
L 88.213663 305.394118 
L 88.607661 302.248163 
L 88.80466 304.729548 
L 89.198658 299.422446 
L 89.395658 303.682357 
L 89.592657 303.682357 
L 89.789656 299.422446 
L 89.986655 298.00807 
L 90.183654 303.682357 
L 90.380653 298.00807 
L 90.577652 305.46301 
L 90.774651 305.46301 
L 90.97165 305.132041 
L 91.365649 305.132041 
L 91.562648 303.599798 
L 91.956646 305.838495 
L 92.153645 305.573473 
L 93.138641 305.60815 
L 93.33564 305.140634 
L 93.926637 305.140634 
L 94.123636 304.842806 
L 94.714634 304.75101 
L 94.911633 305.722065 
L 95.305631 305.722065 
L 95.699629 298.179453 
L 95.896628 298.021978 
L 96.487626 298.021978 
L 96.881624 305.369009 
L 97.078623 305.745449 
L 97.66962 305.793481 
L 97.86662 303.155796 
L 98.063619 305.793481 
L 98.260618 306.022205 
L 98.457617 305.199655 
L 99.442613 305.236945 
L 100.230609 306.240769 
L 100.427608 306.240769 
L 100.230609 306.240769 
L 100.624607 307.387822 
L 100.427608 307.387822 
L 100.821606 306.537735 
L 101.018605 306.537735 
L 101.215605 305.404913 
L 101.609603 305.316922 
L 101.806602 307.330886 
L 102.003601 305.940478 
L 102.397599 305.940478 
L 102.2006 305.940478 
L 102.594598 305.301541 
L 103.185596 305.301541 
L 103.382595 304.879204 
L 103.776593 301.473271 
L 103.973592 301.473271 
L 104.170591 303.358184 
L 104.36759 303.429687 
L 104.56459 303.825167 
L 104.761589 306.34532 
L 104.958588 306.398978 
L 105.155587 307.335502 
L 105.549585 307.24549 
L 105.746584 304.388926 
L 106.337582 304.388926 
L 106.534581 304.508592 
L 106.73158 305.703585 
L 106.928579 305.930105 
L 107.125578 305.518104 
L 107.322577 305.518104 
L 107.519576 306.632326 
L 107.913575 306.718032 
L 108.110574 306.718032 
L 108.307573 306.956468 
L 108.504572 306.956468 
L 108.89857 307.509284 
L 109.095569 307.509284 
L 109.686567 307.192305 
L 110.080565 307.192305 
L 109.883566 305.417987 
L 110.277564 305.417987 
L 110.474563 304.623794 
L 110.868561 304.623794 
L 111.06556 307.030934 
L 111.26256 307.030934 
L 111.459559 307.310889 
L 111.853557 307.246108 
L 112.050556 306.247229 
L 112.247555 306.803394 
L 113.035552 306.803394 
L 113.626549 302.65975 
L 113.823548 303.90005 
L 114.020547 301.574359 
L 114.217546 301.574359 
L 114.414545 305.532594 
L 114.808544 305.40761 
L 114.611545 302.346564 
L 115.005543 302.346564 
L 115.202542 300.028162 
L 115.399541 300.028162 
L 115.59654 304.924289 
L 115.793539 305.420488 
L 115.990538 307.411779 
L 116.187538 305.420488 
L 116.384537 305.420488 
L 116.581536 306.655362 
L 116.778535 305.888415 
L 116.975534 303.074111 
L 117.172533 302.401704 
L 117.369532 305.218522 
L 117.566531 302.401704 
L 117.76353 302.401704 
L 117.96053 305.218522 
L 118.157529 305.61303 
L 118.354528 305.662163 
L 118.551527 306.055945 
L 118.748526 307.427377 
L 119.339523 307.460016 
L 119.536523 307.15928 
L 119.733522 306.573769 
L 119.930521 306.573769 
L 120.12752 306.25682 
L 120.324519 306.573769 
L 120.521518 307.383443 
L 120.718517 307.383443 
L 120.521518 307.383443 
L 121.309515 307.53622 
L 122.491509 307.538609 
L 124.067502 307.459235 
L 124.264501 306.465397 
L 124.4615 306.465397 
L 124.6585 303.234251 
L 124.855499 305.62632 
L 125.249497 305.557087 
L 125.643495 305.62632 
L 125.840494 306.067074 
L 126.037493 304.879204 
L 126.234492 304.879204 
L 126.431492 306.067074 
L 126.628491 305.019879 
L 126.82549 306.680691 
L 127.022489 306.680691 
L 127.219488 305.019879 
L 127.416487 305.019879 
L 127.613486 304.879204 
L 127.810485 304.879204 
L 128.007485 305.050565 
L 127.613486 305.050565 
L 128.204484 301.27401 
L 128.598482 301.27401 
L 128.795481 298.239835 
L 128.99248 301.27401 
L 129.189479 298.239835 
L 129.583477 307.418605 
L 129.780477 307.418605 
L 129.977476 305.445991 
L 130.568473 305.441136 
L 130.765472 306.310203 
L 130.962471 306.310203 
L 131.15947 306.938939 
L 131.35647 307.089594 
L 131.553469 307.572986 
L 131.750468 307.259019 
L 132.144466 307.259019 
L 132.341465 304.070322 
L 132.538464 288.184871 
L 132.735463 304.070322 
L 132.932462 304.070322 
L 133.129462 269.473712 
L 133.326461 269.473712 
L 133.52346 302.450467 
L 133.720459 302.693043 
L 133.917458 307.475584 
L 134.114457 307.010043 
L 134.311456 307.486912 
L 134.508455 307.010043 
L 134.705455 307.522997 
L 134.902454 307.010043 
L 135.099453 307.522997 
L 135.296452 305.453538 
L 135.493451 307.273552 
L 135.887449 307.273552 
L 136.084448 305.774807 
L 136.281447 305.774807 
L 136.478447 301.340769 
L 136.675446 301.340769 
L 136.872445 305.774807 
L 137.266443 307.301397 
L 137.463442 307.519668 
L 137.85744 307.455512 
L 139.039435 307.496925 
L 139.236434 306.915287 
L 139.433433 307.047877 
L 139.630432 291.183352 
L 139.827432 291.183352 
L 140.024431 303.222965 
L 140.22143 307.047877 
L 140.418429 307.574188 
L 140.812427 307.526241 
L 141.009426 307.188467 
L 141.403425 305.68259 
L 141.600424 305.68259 
L 141.797423 298.402383 
L 141.994422 298.402383 
L 142.191421 304.518691 
L 142.585419 307.046562 
L 142.979417 307.151204 
L 143.373416 307.151204 
L 143.570415 306.869633 
L 143.767414 306.869633 
L 143.964413 307.502641 
L 144.161412 306.869633 
L 144.358411 307.502641 
L 145.540406 307.452363 
L 145.737405 303.506842 
L 146.131403 303.506842 
L 146.328402 281.332054 
L 146.722401 281.332054 
L 146.9194 301.013132 
L 146.722401 302.10713 
L 147.116399 302.10713 
L 147.313398 301.013132 
L 147.510397 302.10713 
L 147.707396 302.10713 
L 146.9194 303.892173 
L 147.904395 305.449375 
L 148.495393 305.471263 
L 148.692392 304.723254 
L 148.889391 301.114449 
L 149.283389 301.114449 
L 149.480388 305.538358 
L 149.874387 306.892058 
L 150.071386 306.887166 
L 150.268385 305.512065 
L 151.056381 305.506236 
L 151.25338 304.23648 
L 151.647379 306.731206 
L 151.844378 305.878777 
L 152.238376 305.878777 
L 152.435375 306.524451 
L 152.632374 303.876769 
L 152.829373 306.524451 
L 153.026372 303.876769 
L 153.223372 287.559191 
L 153.420371 287.559191 
L 153.61737 305.404706 
L 154.011368 305.404706 
L 154.208367 305.117222 
L 154.405366 300.88896 
L 154.602365 299.382547 
L 154.799365 296.051124 
L 154.996364 282.13256 
L 155.193363 276.647337 
L 155.390362 282.13256 
L 155.587361 300.88896 
L 155.78436 300.88896 
L 155.981359 294.850859 
L 156.178358 294.850859 
L 156.375357 297.830504 
L 156.572357 295.773287 
L 157.360353 295.773287 
L 157.557352 288.925572 
L 157.754351 303.678654 
L 157.95135 303.678654 
L 158.14835 304.431136 
L 158.345349 304.431136 
L 158.542348 300.436364 
L 158.14835 299.931662 
L 158.739347 291.798452 
L 159.133345 291.798452 
L 159.330344 294.322343 
L 159.527343 294.322343 
L 159.921342 301.665124 
L 160.31534 301.930575 
L 160.512339 302.647972 
L 160.709338 302.647972 
L 160.906337 303.72253 
L 161.103336 305.650936 
L 161.300335 305.650936 
L 161.497335 306.401367 
L 161.694334 305.650936 
L 162.48233 298.735444 
L 162.285331 298.735444 
L 162.679329 298.355998 
L 162.876328 298.355998 
L 163.073327 298.94217 
L 163.664325 298.94217 
L 163.861324 293.872095 
L 164.255322 293.872095 
L 164.452321 305.214728 
L 164.64932 306.305953 
L 164.84632 306.505938 
L 165.043319 306.305953 
L 164.64932 306.473358 
L 165.240318 306.305953 
L 165.437317 304.94305 
L 165.634316 304.466874 
L 165.831315 304.466874 
L 166.028314 302.249645 
L 166.225313 302.249645 
L 166.422312 300.465934 
L 166.816311 303.407 
L 167.01331 303.407 
L 167.210309 301.742818 
L 167.407308 302.331059 
L 167.604307 301.742818 
L 167.801306 302.331059 
L 167.998305 305.534515 
L 168.195305 305.89685 
L 168.786302 305.89685 
L 168.983301 299.679578 
L 169.377299 299.679578 
L 169.574298 291.626402 
L 169.968297 304.795631 
L 170.165296 301.708634 
L 170.362295 301.708634 
L 170.559294 304.376067 
L 171.741289 304.481291 
L 171.938288 303.506291 
L 172.332286 292.112239 
L 172.726284 292.112239 
L 172.923283 293.384726 
L 173.317282 302.394903 
L 173.514281 302.394903 
L 173.71128 304.064501 
L 173.908279 302.394903 
L 174.105278 303.383391 
L 174.499276 303.317451 
L 175.090274 303.317451 
L 175.287273 304.925993 
L 175.484272 304.925993 
L 175.681271 301.888091 
L 175.87827 294.479999 
L 176.075269 296.629857 
L 175.87827 296.629857 
L 176.272268 296.629857 
L 176.469267 304.711084 
L 176.666267 304.951299 
L 177.060265 304.951299 
L 177.454263 303.283711 
L 177.651262 303.283711 
L 177.848261 303.752985 
L 178.04526 303.752985 
L 178.242259 305.52713 
L 178.439259 305.52713 
L 178.636258 305.391037 
L 178.833257 305.391037 
L 179.030256 304.292894 
L 179.424254 304.32347 
L 179.621253 304.820607 
L 179.818252 305.784306 
L 180.015252 306.002287 
L 180.40925 306.064907 
L 180.606249 306.412368 
L 180.803248 306.412368 
L 181.000247 306.995781 
L 181.197246 306.995781 
L 181.394245 303.93377 
L 181.591244 303.286609 
L 181.788244 301.960166 
L 181.985243 303.286609 
L 182.182242 301.410997 
L 182.379241 307.080685 
L 182.57624 306.81013 
L 182.773239 299.21188 
L 182.970238 299.894765 
L 183.167237 298.620425 
L 183.364237 295.154112 
L 184.152233 295.154112 
L 184.349232 300.206822 
L 184.940229 300.206822 
L 185.137229 300.822206 
L 185.334228 302.091998 
L 185.531227 302.091998 
L 185.728226 304.640094 
L 185.925225 304.640094 
L 186.122224 306.407773 
L 186.319223 304.640094 
L 186.516222 304.640094 
L 186.713222 300.151319 
L 186.910221 300.151319 
L 187.10722 299.799928 
L 187.304219 300.151319 
L 187.501218 302.86003 
L 187.698217 302.86003 
L 187.895216 299.799928 
L 188.092215 299.297408 
L 188.486214 299.297408 
L 188.683213 300.742549 
L 189.077211 300.742549 
L 189.27421 304.063503 
L 189.471209 304.962426 
L 189.865207 304.962426 
L 190.062207 304.35699 
L 189.865207 304.067779 
L 190.456205 299.159794 
L 190.653204 298.229754 
L 190.850203 298.229754 
L 191.4412 300.859946 
L 191.638199 300.859946 
L 192.032198 302.490083 
L 192.229197 302.645704 
L 192.426196 302.645704 
L 192.623195 303.908445 
L 192.820194 304.028415 
L 193.214192 306.381503 
L 193.411192 306.381503 
L 193.214192 306.510098 
L 193.608191 306.510098 
L 193.80519 306.251203 
L 194.002189 301.346235 
L 194.199188 301.338963 
L 194.396187 301.019706 
L 194.593186 301.019706 
L 194.790185 300.544325 
L 194.987184 296.662071 
L 195.184184 300.45915 
L 195.381183 296.662071 
L 195.578182 296.662071 
L 195.775181 300.45915 
L 195.97218 301.081623 
L 196.169179 303.132417 
L 196.563177 303.132417 
L 196.957176 300.846382 
L 197.548173 300.846382 
L 197.745172 301.581369 
L 198.533169 301.581369 
L 198.730168 301.085478 
L 198.927167 301.267436 
L 199.124166 301.267436 
L 199.321165 303.152962 
L 199.518164 301.267436 
L 199.715163 301.739789 
L 199.912162 304.87952 
L 200.109162 306.055585 
L 200.306161 301.739789 
L 200.50316 306.055585 
L 200.700159 306.660723 
L 201.094157 306.658422 
L 201.291156 304.065129 
L 201.094157 304.065129 
L 201.488155 302.742256 
L 201.685154 302.742256 
L 201.882154 293.447033 
L 202.276152 293.447033 
L 202.67015 298.652395 
L 202.867149 299.462289 
L 203.064148 300.880093 
L 203.261147 304.74987 
L 203.458147 304.74987 
L 203.655146 300.880093 
L 203.852145 302.779095 
L 204.246143 302.779095 
L 204.443142 306.275435 
L 204.640141 306.423067 
L 205.231139 306.374941 
L 205.428138 302.605237 
L 205.625137 306.30166 
L 205.822136 306.30166 
L 206.019135 305.816573 
L 206.216134 305.816573 
L 206.019135 305.570628 
L 206.413133 304.920492 
L 207.004131 304.812738 
L 207.20113 299.622785 
L 207.398129 304.812738 
L 207.595128 305.89665 
L 208.186125 305.874906 
L 208.580124 301.700139 
L 208.974122 301.700139 
L 209.171121 298.428487 
L 209.36812 298.428487 
L 209.565119 301.719252 
L 209.762118 301.810218 
L 210.156117 301.719252 
L 210.353116 301.719252 
L 210.550115 302.925603 
L 210.747114 301.233568 
L 210.944113 301.233568 
L 211.141112 300.516427 
L 211.338111 300.516427 
L 211.732109 295.154112 
L 211.929109 294.888551 
L 212.323107 294.888551 
L 212.520106 298.646854 
L 212.717105 300.030285 
L 212.914104 300.603139 
L 213.111103 300.030285 
L 213.308102 300.603139 
L 213.505102 300.603139 
L 213.702101 303.272631 
L 213.8991 303.42437 
L 214.096099 305.473765 
L 214.293098 306.277388 
L 214.490097 306.277388 
L 214.884095 298.641962 
L 215.081094 298.641962 
L 215.278094 301.132511 
L 215.081094 301.132511 
L 215.672092 301.132511 
L 215.869091 303.592582 
L 216.06609 300.837225 
L 216.263089 300.837225 
L 216.854086 303.72406 
L 217.051086 303.72406 
L 217.248085 301.968669 
L 217.445084 303.72406 
L 217.642083 301.110712 
L 218.627079 301.148358 
L 218.824078 299.085498 
L 219.218076 303.140284 
L 219.415075 298.697997 
L 219.612074 302.557834 
L 219.809073 299.158518 
L 220.006072 299.158518 
L 220.203071 303.539334 
L 220.400071 303.539334 
L 220.59707 304.745196 
L 220.794069 304.745196 
L 220.991068 300.099117 
L 221.188067 299.085403 
L 221.385066 300.099117 
L 221.582065 299.085403 
L 221.779064 299.085403 
L 221.582065 299.085403 
L 221.976064 292.054944 
L 222.173063 291.158416 
L 222.567061 291.158416 
L 222.76406 298.351569 
L 222.961059 301.130365 
L 223.158058 302.264064 
L 223.355057 305.044567 
L 223.552056 305.044567 
L 223.749056 304.10722 
L 223.946055 303.936108 
L 224.143054 304.10722 
L 224.537052 304.089877 
L 224.734051 299.394102 
L 224.93105 303.713347 
L 224.734051 303.713347 
L 225.128049 300.393771 
L 225.325049 300.393771 
L 225.522048 300.908053 
L 225.916046 300.908053 
L 225.719047 304.962404 
L 226.310044 304.962404 
L 226.507043 299.057914 
L 226.704042 299.057914 
L 226.901041 298.480845 
L 227.098041 299.057914 
L 227.29504 298.480845 
L 227.689038 298.480845 
L 227.886037 301.869851 
L 228.083036 267.316413 
L 228.280035 301.869851 
L 228.477034 301.869851 
L 228.674034 293.849424 
L 229.068032 293.849424 
L 229.265031 274.802587 
L 229.46203 287.069392 
L 229.856028 287.069392 
L 230.053027 299.73079 
L 230.250026 299.73079 
L 230.447026 302.247502 
L 230.841024 299.73079 
L 231.038023 299.133465 
L 231.235022 299.133465 
L 231.432021 298.582766 
L 231.62902 294.098572 
L 231.826019 298.582766 
L 232.023019 299.113773 
L 232.220018 301.081623 
L 232.417017 306.406699 
L 232.811015 306.406699 
L 233.008014 306.943011 
L 233.205013 305.379904 
L 233.599011 305.379904 
L 233.796011 300.517989 
L 233.99301 299.57303 
L 234.584007 299.031407 
L 234.781006 299.369643 
L 234.978005 306.373663 
L 235.372004 306.398062 
L 235.569003 293.697037 
L 235.766002 293.697037 
L 235.963001 295.116342 
L 236.356999 295.116342 
L 236.553998 296.524974 
L 236.750997 296.524974 
L 236.947996 298.907719 
L 237.144996 296.524974 
L 237.341995 296.524974 
L 237.538994 298.907719 
L 237.341995 303.396533 
L 237.735993 296.001955 
L 237.932992 304.224605 
L 238.129991 304.224605 
L 238.523989 292.212188 
L 238.720989 298.899199 
L 238.917988 298.899199 
L 239.114987 292.212188 
L 239.311986 294.289329 
L 239.508985 298.197037 
L 239.902983 298.197037 
L 240.099982 301.068084 
L 240.296981 301.068084 
L 240.493981 302.580061 
L 239.902983 302.580061 
L 240.69098 302.580061 
L 240.887979 296.747733 
L 241.084978 305.256649 
L 241.281977 298.882258 
L 241.478976 296.747733 
L 241.675975 298.882258 
L 242.069974 298.882258 
L 242.266973 295.70067 
L 242.463972 300.910133 
L 242.85797 301.574664 
L 243.054969 307.265228 
L 243.251968 307.265228 
L 243.448967 307.569929 
L 243.645966 299.548409 
L 243.842966 299.548409 
L 244.039965 305.960395 
L 244.236964 299.548409 
L 244.433963 305.500444 
L 244.630962 305.500444 
L 244.827961 300.603302 
L 245.02496 301.083278 
L 245.221959 300.603302 
L 245.418959 300.603302 
L 245.812957 300.183076 
L 246.009956 290.499645 
L 246.206955 300.183076 
L 246.403954 291.193293 
L 246.600953 291.193293 
L 246.797952 293.217044 
L 246.994951 300.471756 
L 247.191951 302.495794 
L 247.585949 302.495794 
L 247.782948 301.275593 
L 247.979947 285.184512 
L 248.176946 285.184512 
L 248.373945 301.275593 
L 248.570944 293.604608 
L 248.767944 301.748001 
L 248.964943 301.748001 
L 249.161942 298.467555 
L 249.752939 298.467555 
L 249.949938 298.197037 
L 250.146937 300.428077 
L 250.343936 300.502537 
L 250.540936 298.197037 
L 250.737935 301.052997 
L 250.934934 290.890563 
L 251.131933 291.193293 
L 251.328932 298.713934 
L 251.525931 291.193293 
L 251.72293 298.713934 
L 251.919929 298.713934 
L 252.116929 298.229581 
L 252.313928 293.669535 
L 252.510927 298.229581 
L 252.904925 298.229581 
L 253.101924 301.039411 
L 253.298923 301.081623 
L 252.904925 301.039411 
L 253.495922 300.451081 
L 253.692921 301.081623 
L 254.08692 305.147677 
L 254.480918 305.147677 
L 254.677917 293.333231 
L 255.268914 293.333231 
L 255.465914 298.919572 
L 255.662913 298.919572 
L 255.859912 290.244328 
L 256.056911 290.244328 
L 256.25391 290.8464 
L 256.647908 290.8464 
L 256.844907 294.550369 
L 257.041906 294.550369 
L 257.238906 282.4776 
L 257.632904 302.440386 
L 257.829903 302.440386 
L 258.026902 303.768526 
L 258.223901 295.468519 
L 258.4209 295.468519 
L 258.617899 300.512269 
L 259.011898 300.512269 
L 259.208897 306.234047 
L 259.405896 307.341495 
L 259.996893 307.341495 
L 260.193892 297.196311 
L 259.996893 297.196311 
L 260.390891 297.917148 
L 260.78489 297.917148 
L 260.981889 301.395243 
L 261.178888 300.600373 
L 260.981889 300.600373 
L 261.375887 300.600373 
L 261.572886 297.864311 
L 261.966884 297.864311 
L 262.163883 300.202669 
L 261.769885 301.357497 
L 262.360883 307.009883 
L 262.557882 305.516613 
L 262.754881 305.516613 
L 262.95188 299.864689 
L 263.148879 304.064342 
L 263.542877 304.064342 
L 263.739876 304.60119 
L 263.936876 304.064342 
L 263.542877 304.60119 
L 263.936876 299.085945 
L 264.133875 301.141217 
L 264.330874 299.085945 
L 264.527873 301.141217 
L 264.724872 298.530061 
L 264.921871 300.141073 
L 265.11887 298.530061 
L 265.512868 298.530061 
L 265.709868 299.473802 
L 265.906867 299.473802 
L 266.103866 301.161354 
L 266.300865 301.161354 
L 266.497864 302.913307 
L 266.694863 302.913307 
L 266.891862 301.081623 
L 267.285861 304.280142 
L 267.48286 301.081623 
L 267.679859 305.095148 
L 267.876858 305.095148 
L 268.073857 302.385582 
L 268.467855 302.385582 
L 268.664854 302.14367 
L 268.861853 302.385582 
L 269.058853 303.247827 
L 269.64985 303.247827 
L 269.846849 307.408424 
L 270.043848 307.408424 
L 270.240847 298.679329 
L 270.437846 296.304551 
L 270.634846 296.304551 
L 270.831845 295.128324 
L 271.028844 295.128324 
L 271.422842 299.09111 
L 271.619841 299.09111 
L 271.81684 299.537716 
L 272.013839 301.010651 
L 272.210838 307.567395 
L 272.407838 307.567395 
L 272.604837 307.444777 
L 272.998835 301.864401 
L 273.195834 304.714884 
L 273.392833 301.864401 
L 273.786831 307.575564 
L 273.983831 307.575564 
L 274.18083 306.140653 
L 274.377829 299.141531 
L 274.771827 299.141531 
L 274.968826 300.458373 
L 275.559823 300.458373 
L 275.756823 302.534886 
L 275.953822 303.321729 
L 276.150821 302.534886 
L 275.953822 302.534886 
L 276.34782 302.534886 
L 276.544819 304.947882 
L 276.741818 301.10732 
L 276.938817 301.081623 
L 277.135816 300.222441 
L 277.726814 300.222441 
L 278.317811 302.508088 
L 278.51481 307.467411 
L 278.711809 307.467411 
L 278.908808 306.521116 
L 279.105808 307.567841 
L 279.302807 306.521116 
L 279.696805 296.644954 
L 279.893804 302.111975 
L 280.090803 302.111975 
L 280.484801 302.484094 
L 280.681801 302.491528 
L 280.8788 303.157076 
L 281.469797 303.157076 
L 281.666796 292.241015 
L 281.469797 291.193293 
L 281.863795 292.241015 
L 282.060794 301.052762 
L 283.04579 301.081623 
L 283.242789 303.450786 
L 283.833786 303.450786 
L 283.242789 306.668513 
L 284.030786 302.070526 
L 284.227785 307.521028 
L 284.424784 307.47485 
L 284.621783 307.120246 
L 285.015781 307.120246 
L 285.21278 306.095167 
L 285.409779 306.095167 
L 285.606778 302.999338 
L 285.803778 302.999338 
L 286.000777 302.40383 
L 286.197776 303.370603 
L 286.394775 303.370603 
L 286.591774 302.403962 
L 286.788773 303.370603 
L 286.985772 302.403962 
L 287.182771 302.403962 
L 286.591774 298.05061 
L 287.379771 302.667703 
L 287.773769 302.667703 
L 287.970768 299.156528 
L 288.364766 299.156528 
L 288.167767 299.156528 
L 288.364766 301.219504 
L 288.561765 301.219504 
L 288.758764 306.79812 
L 288.955763 307.478995 
L 289.152763 307.478995 
L 289.349762 307.128435 
L 289.546761 307.128435 
L 289.940759 299.102805 
L 290.137758 290.8464 
L 290.334757 290.8464 
L 290.531756 297.307997 
L 290.728756 299.102805 
L 291.319753 307.402302 
L 291.516752 305.298936 
L 291.713751 305.298936 
L 291.91075 290.890563 
L 292.107749 290.890563 
L 292.304748 291.142044 
L 292.501748 292.760069 
L 292.698747 302.328379 
L 292.895746 302.328379 
L 293.092745 302.896649 
L 293.289744 304.006841 
L 293.683742 304.006841 
L 293.880741 292.156255 
L 294.077741 292.156255 
L 294.27474 298.197037 
L 294.471739 298.197037 
L 294.27474 306.760988 
L 294.668738 306.760988 
L 295.259735 303.843286 
L 295.456734 300.344551 
L 295.653733 300.344551 
L 295.850733 301.141217 
L 296.047732 301.305565 
L 296.244731 306.895598 
L 296.44173 306.784822 
L 296.638729 301.305565 
L 296.835728 301.305565 
L 297.032727 297.697883 
L 297.229726 297.697883 
L 297.426726 301.081623 
L 297.623725 306.905156 
L 297.820724 306.905156 
L 298.017723 301.081623 
L 298.411721 301.07706 
L 298.60872 297.006351 
L 298.805719 301.07706 
L 299.002718 302.209134 
L 299.199718 300.546943 
L 299.396717 300.546943 
L 299.593716 298.818017 
L 299.987714 298.818017 
L 300.184713 298.420612 
L 300.578711 306.604957 
L 300.775711 303.645207 
L 300.97271 303.645207 
L 301.169709 301.108235 
L 301.366708 301.081623 
L 301.563707 300.893798 
L 301.760706 307.571187 
L 301.957705 298.249257 
L 302.154704 298.249257 
L 302.548703 307.505277 
L 302.745702 307.505277 
L 302.942701 305.328408 
L 303.1397 287.915559 
L 303.336699 287.915559 
L 303.730697 301.386963 
L 303.927696 307.174223 
L 304.124695 302.542715 
L 304.321695 302.542715 
L 303.730697 301.386963 
L 304.715693 301.056119 
L 304.912692 301.056119 
L 305.109691 299.304343 
L 305.30669 306.217915 
L 305.700688 294.595407 
L 305.897688 299.094859 
L 306.685684 299.125069 
L 306.882683 307.562974 
L 307.079682 304.23648 
L 307.276681 307.575148 
L 307.47368 307.565812 
L 307.867679 302.562048 
L 308.064678 301.600986 
L 308.261677 302.562048 
L 308.064678 302.562048 
L 308.458676 305.635793 
L 308.852674 305.635793 
L 309.049673 304.099735 
L 309.246673 304.099735 
L 309.443672 298.131726 
L 309.640671 296.484752 
L 309.83767 296.484752 
L 310.231668 288.717624 
L 310.428667 296.484752 
L 310.625666 286.277193 
L 310.822665 286.277193 
L 311.019665 287.720234 
L 311.216664 282.4776 
L 311.413663 282.4776 
L 311.610662 283.926247 
L 311.807661 286.331611 
L 312.00466 286.331611 
L 312.201659 300.592696 
L 312.398658 300.751806 
L 312.595658 301.141217 
L 312.792657 300.751806 
L 313.186655 300.751806 
L 313.383654 301.688427 
L 313.580653 300.528215 
L 313.777652 301.688427 
L 313.974651 299.969407 
L 314.565649 304.23648 
L 315.156646 304.23648 
L 315.353645 301.461014 
L 315.550644 301.461014 
L 315.747643 304.447327 
L 316.338641 304.47331 
L 316.53564 304.201265 
L 316.732639 302.923828 
L 317.126637 302.923828 
L 317.323636 303.099686 
L 317.717635 304.219616 
L 317.914634 303.794972 
L 318.111633 303.794972 
L 318.308632 303.190533 
L 318.70263 303.190533 
L 318.899629 304.837525 
L 318.70263 305.787982 
L 318.899629 305.787982 
L 319.096628 306.004271 
L 319.293628 304.837525 
L 319.687626 299.324499 
L 319.884625 292.152749 
L 320.081624 292.152749 
L 320.278623 301.410946 
L 320.475622 302.051096 
L 321.263619 302.051096 
L 321.460618 306.264339 
L 321.854616 306.264339 
L 322.051615 300.298145 
L 322.248614 299.929093 
L 322.445613 299.929093 
L 322.642613 306.693128 
L 322.839612 306.693128 
L 323.036611 305.501628 
L 323.23361 305.878463 
L 323.430609 305.878463 
L 323.627608 306.60877 
L 323.824607 306.647925 
L 324.021606 307.154106 
L 324.218605 302.398442 
L 324.809603 302.435356 
L 325.203601 302.03659 
L 325.4006 302.435356 
L 325.597599 300.820967 
L 325.991598 300.823504 
L 326.188597 305.630369 
L 326.385596 305.630369 
L 326.582595 306.461341 
L 326.779594 306.226424 
L 327.76459 306.179407 
L 327.961589 304.254041 
L 328.355587 304.246403 
L 328.552586 303.734062 
L 328.749585 303.734062 
L 328.946584 306.268448 
L 329.340583 306.315476 
L 329.537582 306.545426 
L 329.734581 306.545426 
L 329.93158 306.758111 
L 330.128579 306.758111 
L 330.325578 306.626832 
L 330.719576 305.936746 
L 331.507573 305.935676 
L 331.704572 300.34965 
L 332.09857 300.34965 
L 332.295569 302.950201 
L 332.492568 302.950201 
L 332.886567 305.084132 
L 333.083566 305.298173 
L 333.280565 306.183112 
L 333.477564 306.323723 
L 333.674563 306.989712 
L 333.871562 306.989712 
L 334.068561 307.575564 
L 334.26556 306.935619 
L 335.053557 306.784906 
L 335.250556 307.152985 
L 335.841553 307.145444 
L 336.038553 306.948426 
L 336.235552 304.881668 
L 336.432551 306.948426 
L 336.62955 305.912966 
L 337.023548 306.004271 
L 337.417546 306.004271 
L 337.614545 304.2576 
L 338.008544 304.2576 
L 338.205543 306.849455 
L 338.993539 307.093205 
L 339.190538 306.77324 
L 339.781536 306.77324 
L 340.372533 307.078103 
L 340.569532 307.539197 
L 341.554528 307.474088 
L 341.751527 306.55169 
L 341.948526 304.036079 
L 342.145525 303.779075 
L 342.342524 303.779075 
L 342.539523 303.506971 
L 342.736523 303.506971 
L 342.933522 306.815967 
L 343.130521 307.383919 
L 343.32752 306.815967 
L 343.524519 306.815967 
L 343.721518 304.74273 
L 343.918517 304.37175 
L 344.115516 304.37175 
L 344.312515 304.74273 
L 344.706514 307.47564 
L 345.100512 307.47564 
L 345.297511 306.429476 
L 345.49451 306.429476 
L 345.691509 306.789803 
L 346.085508 306.789803 
L 346.282507 301.949761 
L 346.676505 301.949761 
L 346.873504 300.750352 
L 347.267502 300.750352 
L 347.464501 306.350186 
L 347.6615 306.630618 
L 348.252498 306.630618 
L 348.449497 306.384632 
L 348.646496 300.448151 
L 348.843495 300.448151 
L 349.040494 304.931248 
L 349.237493 304.931248 
L 349.434492 306.117082 
L 349.631492 306.273094 
L 349.828491 306.659791 
L 350.02549 306.700494 
L 350.222489 307.02406 
L 350.419488 307.02406 
L 350.616487 307.475741 
L 351.207485 307.568976 
L 351.601483 307.533696 
L 351.995481 301.081623 
L 352.389479 301.15493 
L 352.783477 306.432759 
L 352.980477 306.432759 
L 353.177476 306.033309 
L 353.374475 303.534497 
L 353.768473 303.534497 
L 353.965472 302.943244 
L 354.162471 306.276354 
L 354.35947 306.981121 
L 354.753469 307.287661 
L 355.147467 307.121153 
L 355.344466 305.643789 
L 355.541465 302.401516 
L 355.935463 302.477173 
L 356.132462 302.477173 
L 356.526461 307.023506 
L 356.72346 307.347167 
L 357.511456 307.347167 
L 357.708455 306.724346 
L 357.905455 306.724346 
L 358.102454 304.305618 
L 358.299453 304.305618 
L 358.496452 306.724346 
L 358.89045 307.251187 
L 359.087449 307.251187 
L 359.284448 307.081872 
L 359.481447 307.081872 
L 359.678447 306.21604 
L 359.875446 306.21604 
L 360.269444 307.081872 
L 360.466443 306.651484 
L 360.663442 307.258914 
L 361.05744 305.992349 
L 361.25444 305.992349 
L 361.451439 306.576633 
L 361.648438 305.992349 
L 361.845437 306.576633 
L 362.042436 306.709455 
L 362.239435 307.262082 
L 362.436434 307.262082 
L 362.633433 307.454422 
L 362.830432 307.262082 
L 363.027432 306.533097 
L 363.224431 306.685589 
L 363.42143 303.569585 
L 363.618429 303.536759 
L 363.815428 306.685589 
L 364.012427 305.515862 
L 364.406425 305.515862 
L 364.603425 307.247951 
L 364.800424 307.247951 
L 364.997423 306.65603 
L 365.194422 307.299516 
L 365.391421 306.65603 
L 366.179417 306.659694 
L 366.376417 305.446998 
L 366.573416 305.169805 
L 366.967414 305.169805 
L 367.164413 307.468771 
L 367.558411 307.468771 
L 367.75541 306.74712 
L 368.346408 306.74712 
L 368.543407 307.212961 
L 368.740406 304.176703 
L 369.331403 304.193081 
L 369.528402 306.778225 
L 369.725402 306.778225 
L 369.922401 306.893766 
L 370.1194 306.692128 
L 370.316399 306.291803 
L 370.513398 303.822214 
L 370.907396 303.822214 
L 371.104395 306.25839 
L 371.301395 307.014768 
L 371.892392 306.945022 
L 372.28639 305.715389 
L 372.483389 305.715389 
L 372.680388 300.88896 
L 372.877387 302.136394 
L 373.074387 302.136394 
L 373.271386 300.88896 
L 373.468385 302.136394 
L 373.665384 305.687954 
L 373.862383 305.687954 
L 374.059382 300.88896 
L 374.256381 306.845507 
L 374.45338 303.692935 
L 374.847379 305.513245 
L 375.044378 305.513245 
L 375.241377 306.910709 
L 375.635375 306.910709 
L 375.832374 305.263986 
L 376.226372 305.263986 
L 376.423372 305.650285 
L 376.620371 306.578778 
L 377.014369 306.578778 
L 377.211368 306.332032 
L 377.408367 306.332032 
L 377.605366 306.729169 
L 378.590362 306.794379 
L 378.787361 307.565005 
L 379.378358 307.565005 
L 379.575357 306.046512 
L 379.772357 297.330747 
L 379.969356 297.330747 
L 380.166355 298.248074 
L 380.363354 298.248074 
L 380.560353 306.813266 
L 380.757352 306.813266 
L 381.15135 307.535897 
L 381.545349 307.077118 
L 382.136346 306.970275 
L 382.333345 306.437339 
L 382.530344 306.437339 
L 382.727343 306.89803 
L 382.924342 307.038717 
L 383.318341 307.038717 
L 383.51534 301.734255 
L 383.909338 301.734255 
L 384.106337 303.615815 
L 384.303336 303.615815 
L 384.500335 302.445219 
L 384.697335 299.119991 
L 385.288332 299.119991 
L 385.68233 302.857558 
L 385.879329 301.012902 
L 386.076328 298.048064 
L 386.273327 302.857558 
L 386.470327 304.406895 
L 386.864325 304.406895 
L 387.061324 300.973252 
L 387.455322 300.961516 
L 388.04632 306.262614 
L 388.243319 306.262614 
L 388.637317 301.043226 
L 388.834316 301.043226 
L 389.031315 303.956217 
L 389.228314 303.956217 
L 389.425313 300.003702 
L 389.819312 300.003702 
L 390.016311 300.88896 
L 390.410309 301.484416 
L 390.607308 305.465791 
L 391.986302 305.469743 
L 392.183301 306.105565 
L 392.3803 306.105565 
L 392.577299 305.500712 
L 393.168297 305.449362 
L 393.365296 305.449362 
L 393.956293 307.106617 
L 394.350291 307.106617 
L 394.744289 307.562602 
L 395.138288 307.524045 
L 395.335287 307.268828 
L 395.532286 307.268828 
L 395.729285 306.987669 
L 395.926284 307.520324 
L 398.487273 307.506848 
L 398.487273 307.506848 
" style="fill:none;stroke:#1f77b4;stroke-linecap:square;stroke-width:1.5;"/>
   </g>
   <g id="line2d_15">
    <path clip-path="url(#p78565402e0)" d="M 73.832727 300.593282 
L 74.029726 300.714341 
L 73.832727 300.332608 
L 74.423725 299.90347 
L 74.620724 299.194678 
L 74.817723 299.982384 
L 75.211721 291.383086 
L 75.40872 298.9071 
L 75.211721 302.669107 
L 75.605719 300.497285 
L 75.802718 281.816803 
L 76.196717 296.429197 
L 76.393716 294.857333 
L 76.787714 298.495971 
L 76.984713 298.410717 
L 77.378711 302.705292 
L 77.575711 304.250958 
L 77.969709 302.543179 
L 78.166708 302.841205 
L 78.363707 303.998444 
L 78.560706 301.501414 
L 78.757705 301.920194 
L 79.151703 293.965448 
L 79.545702 301.198483 
L 79.9397 301.95469 
L 80.333698 304.185569 
L 80.530697 303.464832 
L 80.924695 305.141457 
L 81.121695 304.917216 
L 81.515693 302.963331 
L 81.712692 284.896613 
L 82.10669 299.633888 
L 82.269935 -1 
M 82.375178 -1 
L 82.697688 196.793879 
L 83.288685 282.053697 
L 83.485684 287.185723 
L 83.682683 295.443496 
L 83.879682 296.717788 
L 84.076681 298.776594 
L 84.47068 297.402928 
L 84.667679 297.264693 
L 84.864678 299.609604 
L 85.061677 298.217021 
L 85.258676 298.077949 
L 85.455675 296.396263 
L 86.046673 301.142346 
L 86.243672 300.54661 
L 86.63767 302.194724 
L 86.834669 300.400321 
L 87.031668 303.148585 
L 87.228667 300.95132 
L 87.425666 253.451275 
L 87.622665 285.625489 
L 87.819665 291.90322 
L 88.016664 292.71043 
L 88.213663 295.909722 
L 88.410662 290.681588 
L 88.80466 299.067454 
L 89.198658 294.838949 
L 89.395658 299.012032 
L 89.592657 299.536127 
L 89.986655 294.864361 
L 90.183654 295.037964 
L 90.380653 296.115597 
L 90.577652 295.141369 
L 90.774651 290.132001 
L 90.97165 294.308944 
L 91.365649 296.789153 
L 91.562648 274.748188 
L 91.956646 295.086019 
L 92.153645 294.478803 
L 92.350644 289.205583 
L 92.547643 287.81886 
L 92.744643 291.140291 
L 92.941642 296.99154 
L 93.33564 299.775537 
L 93.729638 295.459597 
L 93.926637 289.64046 
L 94.123636 293.28663 
L 94.320635 294.348342 
L 94.714634 301.388993 
L 94.911633 300.973798 
L 95.108632 300.940211 
L 95.50263 298.796654 
L 95.699629 298.409316 
L 95.896628 290.49925 
L 96.290627 297.160418 
L 96.487626 298.537777 
L 96.684625 298.212756 
L 96.881624 297.040218 
L 97.078623 299.499536 
L 97.275622 300.436584 
L 97.472621 302.867248 
L 97.66962 286.379798 
L 98.063619 296.516723 
L 98.260618 294.529331 
L 98.654616 300.745039 
L 98.851615 300.442865 
L 99.048614 83.730682 
L 99.442613 248.334885 
L 100.230609 296.473019 
L 100.427608 299.294701 
L 100.230609 302.680133 
L 100.427608 300.783742 
L 100.821606 302.831473 
L 101.018605 301.633266 
L 101.215605 301.234333 
L 101.412604 295.836249 
L 101.609603 295.433926 
L 101.806602 298.436002 
L 102.003601 298.323473 
L 102.2006 302.361225 
L 102.594598 295.147209 
L 102.988597 301.58159 
L 103.185596 300.631624 
L 103.382595 297.537913 
L 103.579594 266.63357 
L 103.776593 286.639663 
L 104.170591 299.030675 
L 104.56459 304.479909 
L 104.761589 304.208009 
L 104.958588 287.947599 
L 105.352586 296.67264 
L 105.549585 285.172038 
L 105.943583 299.353652 
L 106.140583 300.855983 
L 106.337582 301.311112 
L 106.534581 302.353163 
L 106.73158 300.265651 
L 106.928579 301.858927 
L 107.125578 301.676066 
L 107.322577 299.943505 
L 107.519576 295.707137 
L 107.716575 298.568359 
L 107.913575 297.218019 
L 108.110574 297.47742 
L 108.307573 299.15641 
L 108.504572 298.528084 
L 108.701571 301.744786 
L 108.89857 299.910847 
L 109.292568 302.716545 
L 109.489568 302.753753 
L 109.686567 301.225163 
L 109.883566 301.710683 
L 110.080565 299.661813 
L 109.883566 299.679193 
L 110.277564 298.192546 
L 110.474563 298.117856 
L 110.671562 301.682542 
L 110.868561 298.306458 
L 111.459559 303.288646 
L 111.656558 302.925683 
L 111.853557 299.052084 
L 112.050556 300.326641 
L 112.247555 300.018637 
L 112.444554 302.87837 
L 113.232551 297.588848 
L 113.42955 285.848824 
L 113.823548 293.675385 
L 114.020547 292.745814 
L 114.217546 278.310631 
L 114.611545 295.828138 
L 114.808544 297.121422 
L 114.611545 297.768064 
L 115.005543 296.817872 
L 115.202542 296.342776 
L 115.399541 300.139442 
L 115.59654 300.095761 
L 115.793539 297.103135 
L 115.990538 297.128833 
L 116.187538 295.158677 
L 116.384537 291.785259 
L 116.581536 295.705502 
L 116.58847 -1 
M 117.760804 -1 
L 117.96053 149.872258 
L 118.354528 264.925361 
L 118.748526 289.40293 
L 118.945525 297.350421 
L 119.142524 298.955241 
L 119.536523 298.577165 
L 119.733522 296.490153 
L 119.930521 300.603818 
L 120.12752 301.059466 
L 120.324519 302.680537 
L 120.521518 299.314509 
L 120.718517 303.25926 
L 120.521518 298.199241 
L 120.915516 295.164473 
L 121.112515 300.08041 
L 121.309515 292.614452 
L 121.703513 301.223808 
L 121.900512 301.514948 
L 122.097511 300.201149 
L 122.29451 300.852665 
L 122.491509 303.075288 
L 122.688508 301.955344 
L 122.885508 300.060345 
L 123.082507 287.084573 
L 123.279506 295.081749 
L 123.476505 297.232163 
L 123.870503 296.710929 
L 124.067502 293.65832 
L 124.264501 295.097752 
L 124.4615 299.988478 
L 124.6585 298.281459 
L 124.855499 299.558429 
L 125.249497 304.423799 
L 125.446496 296.822942 
L 125.643495 296.680063 
L 125.840494 294.496537 
L 126.037493 290.980971 
L 126.234492 293.759077 
L 126.431492 293.759094 
L 126.628491 293.249474 
L 126.82549 294.893329 
L 127.022489 294.071402 
L 127.219488 291.658407 
L 127.416487 297.592078 
L 127.613486 293.87721 
L 128.007485 297.356305 
L 127.613486 293.185256 
L 128.204484 222.992422 
L 128.598482 262.233569 
L 128.795481 261.476145 
L 128.99248 275.052507 
L 129.189479 262.428697 
L 129.583477 285.267126 
L 129.780477 280.115388 
L 129.977476 281.409095 
L 130.174475 290.849969 
L 130.371474 284.229611 
L 130.377406 -1 
M 131.970872 -1 
L 132.341465 170.457683 
L 132.538464 213.042305 
L 132.735463 174.609229 
L 132.932462 218.236611 
L 133.129462 222.353813 
L 133.52346 286.462076 
L 133.917458 274.887155 
L 134.114457 204.318878 
L 135.099453 290.896297 
L 135.296452 291.002111 
L 135.493451 284.305682 
L 135.69045 287.653912 
L 135.887449 281.997196 
L 136.084448 292.097191 
L 136.281447 295.477276 
L 136.478447 284.608393 
L 136.872445 299.773204 
L 137.069444 297.193962 
L 137.266443 285.283753 
L 137.463442 291.226623 
L 137.660441 261.444435 
L 138.05444 273.010365 
L 138.251439 284.773888 
L 138.448438 286.015389 
L 138.645437 226.901067 
L 138.842436 255.592297 
L 139.236434 274.567019 
L 139.433433 269.664975 
L 139.630432 272.108389 
L 139.827432 288.70315 
L 140.024431 290.843589 
L 140.22143 297.540034 
L 140.418429 298.448516 
L 140.615428 298.402371 
L 140.812427 301.225698 
L 141.009426 295.22317 
L 141.206425 295.471271 
L 141.403425 295.471285 
L 141.600424 280.438266 
L 141.797423 287.605129 
L 141.994422 287.605162 
L 142.191421 294.948297 
L 142.38842 289.561983 
L 142.585419 288.514668 
L 142.782418 294.701814 
L 142.979417 294.552477 
L 143.176417 292.05726 
L 143.373416 260.729363 
L 143.570415 277.640933 
L 143.767414 269.185159 
L 143.964413 269.18518 
L 144.161412 173.1902 
L 144.55541 266.862264 
L 144.75241 69.243342 
L 145.146408 237.146372 
L 145.343407 269.326371 
L 145.540406 280.019435 
L 145.737405 281.33202 
L 145.934404 287.036529 
L 146.131403 284.184348 
L 146.328402 277.038299 
L 146.525402 281.040003 
L 146.722401 275.906233 
L 146.9194 267.411221 
L 146.722401 284.319585 
L 147.116399 291.254402 
L 147.313398 281.444458 
L 147.510397 284.795401 
L 147.707396 44.974175 
L 146.9194 129.76632 
L 147.904395 217.502753 
L 148.101395 249.260895 
L 148.298394 261.684848 
L 148.495393 249.805397 
L 148.889391 273.861337 
L 149.08639 268.32539 
L 149.283389 284.46404 
L 149.480388 289.364217 
L 149.677387 263.545485 
L 149.874387 279.73324 
L 150.071386 286.60195 
L 150.268385 285.626906 
L 150.465384 285.299048 
L 150.859382 299.694446 
L 151.056381 292.332779 
L 151.25338 292.269734 
L 151.45038 281.588279 
L 151.647379 283.934939 
L 151.844378 282.756497 
L 152.238376 288.811967 
L 152.435375 286.995857 
L 152.632374 288.854178 
L 152.829373 280.112554 
L 153.026372 283.554072 
L 153.223372 281.833291 
L 153.61737 298.767776 
L 153.814369 295.910013 
L 154.011368 296.234005 
L 154.208367 297.181831 
L 154.405366 289.672625 
L 154.602365 247.810539 
L 154.799365 266.897796 
L 154.996364 260.0288 
L 155.193363 263.463303 
L 155.390362 270.038037 
L 155.587361 223.411002 
L 155.981359 262.698217 
L 156.178358 263.005699 
L 156.375357 265.541323 
L 156.572357 256.218236 
L 156.769356 259.611985 
L 156.966355 250.122793 
L 157.360353 269.126828 
L 157.557352 267.848551 
L 157.754351 257.661906 
L 157.95135 263.394372 
L 158.14835 257.588638 
L 158.345349 260.491515 
L 158.542348 259.058433 
L 158.14835 258.360183 
L 158.739347 258.268872 
L 159.133345 282.041809 
L 159.330344 286.531736 
L 159.527343 282.60182 
L 159.724342 283.037924 
L 159.921342 286.942162 
L 160.118341 288.307414 
L 160.31534 287.441724 
L 160.709338 292.522344 
L 160.906337 297.210938 
L 161.103336 279.070785 
L 161.497335 290.822518 
L 161.694334 290.822542 
L 161.891333 295.346343 
L 162.088332 282.933086 
L 162.285331 289.517333 
L 162.48233 291.643666 
L 162.285331 291.175319 
L 162.679329 291.141622 
L 162.876328 291.541352 
L 163.073327 292.865526 
L 163.270327 291.113034 
L 163.861324 291.154916 
L 164.056111 -1 
M 164.062685 -1 
L 164.452321 218.196576 
L 164.64932 248.794215 
L 165.043319 252.780221 
L 164.64932 239.363963 
L 165.240318 249.323199 
L 165.437317 248.03623 
L 165.634316 253.523936 
L 165.831315 271.384674 
L 166.028314 273.507537 
L 166.225313 287.421417 
L 166.422312 284.949508 
L 166.619312 284.773147 
L 166.816311 287.075246 
L 167.01331 285.939251 
L 167.210309 287.749072 
L 167.407308 287.379035 
L 167.604307 281.146657 
L 167.998305 286.101308 
L 168.392304 286.927082 
L 168.589303 273.014879 
L 168.786302 286.254902 
L 168.983301 282.257782 
L 169.1803 284.016355 
L 169.377299 288.177511 
L 169.574298 286.097005 
L 169.771297 289.49992 
L 169.968297 296.718014 
L 170.165296 297.018412 
L 170.559294 296.79312 
L 170.756293 296.755588 
L 170.953292 297.725526 
L 171.150291 298.005975 
L 171.34729 297.71321 
L 171.544289 297.840447 
L 171.741289 297.776841 
L 171.938288 278.321683 
L 172.332286 290.880515 
L 172.529285 289.068703 
L 172.726284 289.974631 
L 173.120282 289.974679 
L 173.317282 288.955096 
L 173.514281 290.912789 
L 173.908279 290.209231 
L 174.105278 292.194483 
L 174.499276 290.594624 
L 174.893274 291.074168 
L 175.090274 288.124484 
L 175.287273 294.479942 
L 175.484272 294.480029 
L 175.681271 290.86846 
L 175.87827 289.496507 
L 176.075269 289.868987 
L 175.87827 288.975717 
L 176.469267 288.84132 
L 176.666267 291.802515 
L 176.863266 289.700237 
L 177.060265 291.073525 
L 177.257264 288.926522 
L 177.454263 290.008548 
L 177.848261 288.413281 
L 178.04526 288.236915 
L 178.242259 285.810694 
L 178.439259 287.097463 
L 178.636258 289.348543 
L 179.030256 297.404499 
L 179.424254 297.404776 
L 179.621253 296.410914 
L 179.818252 296.90774 
L 180.015252 296.659356 
L 180.212251 295.350406 
L 180.40925 292.733337 
L 180.606249 280.986508 
L 180.803248 286.928495 
L 181.394245 273.735836 
L 181.591244 278.499131 
L 181.788244 276.117517 
L 181.985243 284.721883 
L 182.182242 281.610528 
L 182.196742 -1 
M 183.125701 -1 
L 183.364237 158.240977 
L 183.758235 227.615415 
L 183.955234 263.360637 
L 184.152233 274.488268 
L 184.349232 274.978234 
L 184.74323 289.325371 
L 184.940229 294.963067 
L 185.137229 297.282618 
L 185.334228 296.122849 
L 185.728226 296.992679 
L 186.122224 297.485034 
L 186.319223 297.34007 
L 186.516222 287.917638 
L 186.713222 292.701343 
L 187.10722 295.801805 
L 187.501218 287.669811 
L 187.698217 289.495457 
L 187.895216 288.706578 
L 188.092215 289.101049 
L 188.289214 294.336945 
L 188.486214 294.288519 
L 188.683213 294.440388 
L 189.077211 292.017657 
L 189.27421 272.54739 
L 189.471209 285.621664 
L 189.668208 288.234032 
L 189.865207 283.672828 
L 190.062207 244.81064 
L 189.865207 264.641498 
L 190.259206 273.300186 
L 190.653204 290.194488 
L 190.850203 290.192594 
L 191.047202 283.089858 
L 191.244201 282.084821 
L 191.638199 297.221464 
L 191.835199 278.254591 
L 192.032198 287.757024 
L 192.229197 285.716585 
L 192.426196 286.741631 
L 192.820194 297.411878 
L 193.017193 300.630747 
L 193.214192 301.454622 
L 193.411192 300.273128 
L 193.214192 300.95566 
L 193.608191 288.52666 
L 193.80519 291.281266 
L 194.002189 288.063697 
L 194.199188 287.403889 
L 194.396187 292.612837 
L 194.593186 293.616028 
L 194.790185 289.231078 
L 194.987184 288.494789 
L 195.184184 291.824451 
L 195.578182 289.120418 
L 195.775181 296.19615 
L 195.97218 295.774312 
L 196.169179 299.717354 
L 196.563177 266.621537 
L 196.957176 278.224638 
L 197.154175 274.512421 
L 197.351174 277.219112 
L 197.548173 241.21375 
L 197.745172 249.091624 
L 197.942171 273.440898 
L 198.13917 275.334489 
L 198.336169 269.642649 
L 198.533169 272.555424 
L 198.927167 284.354903 
L 199.124166 274.152855 
L 199.321165 280.951793 
L 199.518164 277.552341 
L 199.715163 280.01497 
L 200.109162 293.524406 
L 200.306161 284.577403 
L 200.50316 288.250488 
L 200.700159 279.525346 
L 200.897158 284.991125 
L 201.291156 289.088504 
L 201.094157 286.156261 
L 201.488155 275.202963 
L 201.882154 282.760524 
L 202.079153 278.005928 
L 202.276152 280.493949 
L 202.473151 273.563852 
L 202.67015 286.336433 
L 202.867149 285.986378 
L 203.064148 245.968804 
L 203.458147 273.019398 
L 203.655146 275.176399 
L 203.852145 269.563603 
L 204.049144 285.312558 
L 204.246143 276.730983 
L 204.443142 286.628442 
L 204.640141 183.04644 
L 205.034139 261.798516 
L 205.231139 281.802302 
L 205.428138 261.229943 
L 206.019135 280.183724 
L 206.216134 251.70511 
L 206.019135 241.683678 
L 206.807132 284.262741 
L 207.20113 271.457134 
L 207.398129 277.353619 
L 207.595128 277.186653 
L 207.792127 283.372773 
L 207.989126 293.99182 
L 208.186125 288.526645 
L 208.580124 288.553972 
L 208.777123 287.209097 
L 208.974122 287.886095 
L 209.171121 275.918452 
L 209.565119 290.527303 
L 209.762118 290.043098 
L 209.959117 286.445034 
L 210.156117 293.07053 
L 210.353116 289.757895 
L 210.550115 288.816099 
L 210.747114 288.816114 
L 210.944113 287.773469 
L 211.141112 291.463791 
L 211.338111 286.756538 
L 211.53511 286.599207 
L 211.732109 285.828919 
L 211.929109 292.555008 
L 212.126108 289.191972 
L 212.323107 288.100486 
L 212.520106 281.865443 
L 212.717105 288.920306 
L 212.914104 285.521455 
L 213.111103 279.322917 
L 213.702101 294.463654 
L 213.878019 -1 
M 213.928345 -1 
L 214.096099 202.094622 
L 214.293098 242.286111 
L 214.490097 258.877155 
L 214.687096 259.265378 
L 214.884095 262.74883 
L 215.278094 281.013932 
L 215.475093 281.745766 
L 215.672092 280.512823 
L 215.869091 281.495211 
L 216.06609 280.633271 
L 216.263089 290.328228 
L 216.460088 291.481569 
L 216.657087 298.00894 
L 216.854086 299.065389 
L 217.051086 277.755935 
L 217.248085 288.0653 
L 217.445084 278.65249 
L 217.642083 278.203019 
L 217.839082 284.546791 
L 218.036081 274.05909 
L 218.23308 276.130918 
L 218.430079 270.003184 
L 218.627079 282.071878 
L 218.824078 280.481425 
L 219.021077 243.216327 
L 219.218076 274.638363 
L 219.415075 282.915828 
L 219.809073 272.778336 
L 220.006072 287.980538 
L 220.400071 232.914853 
L 220.59707 251.857529 
L 220.991068 54.79411 
L 221.385066 237.941957 
L 221.779064 263.649397 
L 221.582065 254.904015 
L 221.976064 262.832648 
L 222.173063 263.391728 
L 222.370062 264.613313 
L 222.567061 280.442428 
L 222.76406 286.741015 
L 222.961059 287.723807 
L 223.158058 287.346912 
L 223.355057 289.347785 
L 223.552056 296.113048 
L 223.749056 285.871724 
L 223.946055 283.386048 
L 224.143054 293.58508 
L 224.340053 289.20538 
L 224.537052 273.87216 
L 224.93105 285.021826 
L 224.924362 -1 
M 225.899766 -1 
L 225.719047 9.048204 
L 226.310044 190.658036 
L 226.704042 235.995411 
L 227.098041 215.984277 
L 227.29504 212.624754 
L 227.689038 222.775056 
L 227.886037 261.958137 
L 228.083036 245.806863 
L 228.280035 271.902392 
L 228.477034 177.266524 
L 228.871033 244.538663 
L 229.068032 253.939608 
L 229.265031 238.013069 
L 229.46203 251.567619 
L 230.053027 261.183912 
L 230.447026 250.026439 
L 230.644025 265.840439 
L 230.841024 268.320322 
L 231.038023 245.773409 
L 231.432021 274.657576 
L 231.62902 274.657602 
L 231.826019 279.046731 
L 232.023019 291.116265 
L 232.220018 278.538248 
L 232.614016 276.25684 
L 232.811015 288.373555 
L 233.008014 288.966224 
L 233.205013 288.389467 
L 233.402012 269.978871 
L 233.599011 275.44428 
L 233.796011 272.71166 
L 233.99301 252.186953 
L 234.190009 257.228633 
L 234.387008 259.145975 
L 234.584007 280.476032 
L 234.781006 268.852369 
L 234.978005 142.908166 
L 235.372004 259.768577 
L 235.569003 257.532434 
L 235.766002 258.650534 
L 235.963001 251.001466 
L 236.356999 257.638166 
L 236.553998 254.30697 
L 236.750997 276.607345 
L 236.947996 267.386715 
L 237.144996 274.831732 
L 237.341995 275.231066 
L 237.538994 122.692525 
L 237.341995 197.804529 
L 237.735993 233.637599 
L 237.932992 266.161564 
L 238.129991 265.641867 
L 238.32699 260.911251 
L 238.523989 267.492585 
L 238.720989 261.836608 
L 238.917988 281.459116 
L 239.114987 275.464893 
L 239.311986 278.493612 
L 239.508985 285.189163 
L 239.705984 271.672469 
L 239.902983 267.773959 
L 240.099982 271.702179 
L 240.296981 261.143933 
L 240.493981 280.821518 
L 239.920255 -1 
M 239.950689 -1 
L 240.69098 130.657975 
L 240.887979 203.224473 
L 241.478976 249.196548 
L 241.872974 260.848631 
L 242.069974 263.335745 
L 242.463972 286.609846 
L 242.660971 281.166324 
L 243.251968 275.983264 
L 243.448967 253.822755 
L 243.645966 271.593583 
L 243.842966 269.524556 
L 244.039965 270.763391 
L 244.236964 268.080593 
L 244.423656 -1 
M 244.454543 -1 
L 244.827961 200.90282 
L 245.02496 264.716413 
L 245.221959 264.483039 
L 245.418959 270.05672 
L 245.615958 266.740275 
L 245.812957 265.49497 
L 246.009956 273.986285 
L 246.206955 273.331866 
L 246.403954 268.641337 
L 246.600953 271.293791 
L 246.797952 285.187005 
L 247.191951 265.208914 
L 247.38895 273.843257 
L 247.585949 272.321731 
L 247.979947 266.357927 
L 248.176946 282.89178 
L 248.373945 253.886173 
L 248.570944 248.122649 
L 248.964943 263.886479 
L 249.161942 234.917466 
L 249.358941 252.251295 
L 249.752939 264.450628 
L 249.949938 258.351001 
L 250.146937 95.506381 
L 250.343936 170.832507 
L 250.540936 12.415099 
L 250.737935 61.143099 
L 250.934934 177.29219 
L 251.328932 252.96453 
L 251.525931 249.561582 
L 251.72293 267.355038 
L 251.919929 270.598018 
L 252.116929 278.403825 
L 252.313928 271.806071 
L 252.510927 288.935818 
L 252.707926 287.411534 
L 252.904925 282.816336 
L 253.298923 270.428943 
L 252.904925 270.343307 
L 253.692921 278.8837 
L 254.08692 249.891189 
L 254.283919 262.84108 
L 254.480918 253.96902 
L 254.677917 259.109343 
L 254.874916 259.914031 
L 255.071915 271.145803 
L 255.268914 265.528595 
L 255.465914 268.338762 
L 255.662913 266.937493 
L 255.859912 260.223085 
L 256.056911 270.400164 
L 256.25391 274.373095 
L 256.450909 283.165764 
L 256.647908 276.301194 
L 256.844907 281.857655 
L 257.041906 275.063619 
L 257.238906 278.77061 
L 257.435905 289.415416 
L 257.632904 275.228672 
L 258.026902 284.711055 
L 258.223901 281.549748 
L 258.4209 286.43603 
L 258.617899 283.992919 
L 258.814898 279.811659 
L 259.011898 279.272951 
L 259.208897 279.787379 
L 259.405896 277.079882 
L 259.602895 278.350591 
L 259.799894 265.929634 
L 259.996893 199.058756 
L 260.390891 250.267837 
L 260.78489 278.397056 
L 260.981889 281.098023 
L 261.178888 275.654843 
L 260.981889 270.66971 
L 261.375887 272.367753 
L 261.572886 278.743186 
L 261.769885 274.771695 
L 262.163883 278.624648 
L 261.769885 266.632304 
L 261.883023 -1 
M 262.807472 -1 
L 262.95188 195.861356 
L 263.148879 248.375158 
L 263.542877 262.110887 
L 263.739876 278.720181 
L 263.936876 280.498465 
L 263.542877 272.374065 
L 263.936876 271.587135 
L 264.133875 284.121999 
L 264.330874 280.124806 
L 264.527873 286.231737 
L 264.724872 278.515971 
L 264.921871 230.743533 
L 265.11887 254.683152 
L 265.315869 260.85533 
L 265.512868 274.695642 
L 265.709868 267.793327 
L 265.906867 276.761526 
L 266.103866 226.268463 
L 266.300865 258.730878 
L 266.497864 245.689004 
L 266.694863 248.887323 
L 266.891862 279.318174 
L 267.088861 290.076787 
L 267.679859 275.268759 
L 267.876858 272.332914 
L 268.073857 286.196568 
L 268.270856 279.26475 
L 268.467855 277.021527 
L 268.664854 278.856279 
L 268.861853 277.938979 
L 269.058853 276.348331 
L 269.255852 276.34834 
L 269.452851 276.908268 
L 269.64985 241.428361 
L 269.846849 236.0261 
L 270.043848 256.687342 
L 270.240847 251.422987 
L 270.437846 266.404882 
L 271.028844 264.802982 
L 271.422842 274.06506 
L 271.619841 277.64367 
L 271.81684 276.078285 
L 272.013839 276.851891 
L 272.210838 286.62165 
L 272.407838 282.680785 
L 272.604837 274.528136 
L 272.801836 287.294179 
L 272.998835 287.40992 
L 273.195834 293.671347 
L 273.392833 290.312948 
L 273.786831 290.162343 
L 273.983831 288.652347 
L 274.377829 289.520657 
L 274.574828 282.575528 
L 274.771827 282.233444 
L 274.968826 286.31569 
L 275.165825 282.957674 
L 275.362824 282.716595 
L 275.559823 279.173498 
L 275.953822 297.906814 
L 276.150821 284.353509 
L 275.953822 278.840327 
L 276.34782 274.212726 
L 276.544819 289.586135 
L 276.741818 277.841419 
L 276.938817 274.320812 
L 277.135816 276.041644 
L 277.332816 265.375376 
L 277.529815 270.502888 
L 277.726814 267.880141 
L 277.923813 275.103613 
L 278.120812 274.368425 
L 278.317811 266.453682 
L 278.51481 133.641561 
L 278.711809 181.376732 
L 278.908808 184.793453 
L 279.105808 242.426838 
L 279.302807 256.613521 
L 279.499806 254.349582 
L 279.696805 249.332727 
L 280.090803 284.732697 
L 280.287802 289.228652 
L 280.484801 277.31695 
L 280.681801 283.087822 
L 280.8788 274.246535 
L 281.075799 281.737154 
L 281.272798 279.526841 
L 281.469797 249.922229 
L 281.666796 266.199914 
L 281.469797 274.338757 
L 281.863795 274.984579 
L 282.060794 272.814761 
L 282.257793 276.904638 
L 282.454793 276.904688 
L 282.651792 288.993155 
L 282.848791 288.993162 
L 283.04579 284.118639 
L 283.242789 290.757267 
L 283.439788 281.222229 
L 283.636787 283.141438 
L 283.242789 280.874966 
L 284.030786 286.456986 
L 284.621783 275.534821 
L 285.21278 291.794001 
L 285.409779 290.714798 
L 285.606778 282.614607 
L 285.803778 259.151503 
L 286.197776 280.052901 
L 286.394775 272.232907 
L 286.591774 275.018104 
L 286.788773 230.20513 
L 286.985772 252.330396 
L 287.182771 254.027637 
L 286.591774 230.333732 
L 287.379771 221.743845 
L 287.57677 214.191835 
L 287.773769 248.334718 
L 288.364766 268.400067 
L 288.167767 279.32829 
L 288.561765 278.596834 
L 288.758764 277.40088 
L 288.955763 262.233403 
L 289.349762 282.30022 
L 289.546761 286.57331 
L 289.74376 271.438076 
L 289.940759 281.661394 
L 290.137758 275.190946 
L 290.334757 213.278673 
L 290.728756 273.476571 
L 290.925755 273.243912 
L 291.122754 272.344599 
L 291.319753 240.536075 
L 291.713751 260.024606 
L 291.91075 207.507158 
L 292.107749 250.171841 
L 292.304748 262.90112 
L 292.501748 263.425964 
L 292.698747 271.77759 
L 292.895746 273.622894 
L 293.092745 257.096962 
L 293.880741 275.030438 
L 294.27474 293.724569 
L 294.668738 269.563945 
L 294.865737 281.9287 
L 295.062736 279.589615 
L 295.259735 284.652692 
L 295.456734 286.414645 
L 295.653733 228.205778 
L 295.850733 229.771588 
L 296.244731 264.165697 
L 296.44173 285.474562 
L 296.638729 280.557173 
L 296.835728 284.184941 
L 297.032727 279.907671 
L 297.229726 266.937307 
L 297.426726 281.442894 
L 297.820724 278.536647 
L 298.017723 270.286195 
L 298.411721 274.483864 
L 298.60872 273.834843 
L 298.805719 274.15938 
L 299.199718 275.05631 
L 299.396717 274.689073 
L 299.593716 275.078636 
L 299.790715 275.067687 
L 299.987714 283.94688 
L 300.184713 279.507288 
L 300.381712 292.4026 
L 300.578711 252.778279 
L 300.97271 276.591393 
L 301.169709 294.903271 
L 301.366708 283.199999 
L 301.563707 281.067753 
L 301.957705 253.973655 
L 302.154704 280.01961 
L 302.351703 271.985209 
L 302.548703 273.047005 
L 302.745702 267.148311 
L 302.942701 274.812956 
L 303.533698 263.867273 
L 303.730697 267.265471 
L 304.124695 265.60814 
L 304.321695 278.400716 
L 303.730697 271.696554 
L 304.518694 267.823681 
L 305.109691 252.418947 
L 305.30669 262.155509 
L 305.700688 250.501234 
L 305.897688 268.793574 
L 306.094687 266.957872 
L 306.291686 283.509047 
L 306.488685 274.665953 
L 306.882683 269.682366 
L 307.079682 264.485042 
L 307.276681 274.007083 
L 307.47368 270.552538 
L 307.67068 273.091469 
L 307.867679 277.784535 
L 308.064678 275.438135 
L 308.261677 289.040862 
L 308.064678 278.092781 
L 308.458676 287.677831 
L 308.655675 285.345842 
L 308.852674 278.073023 
L 309.049673 288.162721 
L 309.443672 277.740051 
L 309.640671 278.864363 
L 309.83767 276.351922 
L 310.231668 252.872033 
L 310.428667 200.645465 
L 310.460323 -1 
M 311.221391 -1 
L 311.413663 142.590499 
L 311.807661 230.055 
L 312.201659 262.557769 
L 312.398658 262.540401 
L 312.792657 278.65941 
L 312.989656 289.747405 
L 313.186655 282.688902 
L 313.383654 265.845651 
L 313.580653 267.696426 
L 313.777652 259.645466 
L 313.974651 263.670882 
L 314.17165 275.075653 
L 314.36865 269.373286 
L 314.565649 286.804883 
L 314.762648 287.821386 
L 314.959647 287.313165 
L 315.353645 287.313224 
L 315.550644 295.587785 
L 315.747643 289.283756 
L 315.944643 187.437162 
L 315.949087 -1 
M 317.127315 -1 
L 317.520635 221.845459 
L 317.717635 259.793875 
L 317.914634 263.445934 
L 318.111633 277.079217 
L 318.308632 281.626341 
L 318.505631 293.221353 
L 318.70263 296.009057 
L 318.899629 292.558258 
L 318.70263 283.266845 
L 319.490627 287.51285 
L 319.687626 287.361989 
L 319.884625 287.555648 
L 320.278623 285.321968 
L 320.475622 285.694249 
L 320.672621 285.515572 
L 320.86962 285.564142 
L 321.06662 292.075004 
L 321.263619 288.753362 
L 321.460618 294.794381 
L 321.657617 293.435269 
L 321.854616 293.262425 
L 322.051615 293.348957 
L 322.248614 282.074581 
L 322.642613 291.45499 
L 322.839612 292.402065 
L 323.036611 272.40968 
L 323.23361 293.018828 
L 323.430609 279.422932 
L 323.627608 276.961485 
L 323.824607 277.971912 
L 324.218605 279.207097 
L 324.415605 280.973115 
L 324.612604 280.319116 
L 324.809603 291.375494 
L 325.006602 281.087849 
L 325.203601 280.643062 
L 325.4006 291.131934 
L 325.794598 291.098417 
L 325.991598 297.80532 
L 326.188597 292.735125 
L 326.385596 293.55727 
L 326.582595 292.361752 
L 326.779594 293.097177 
L 326.976593 259.089769 
L 327.173592 250.724447 
L 327.370591 271.895673 
L 327.56759 270.137089 
L 327.76459 283.237237 
L 327.961589 282.857418 
L 328.158588 292.623495 
L 328.355587 280.39405 
L 328.749585 297.78928 
L 328.946584 287.871119 
L 329.340583 294.081273 
L 329.537582 282.440739 
L 329.734581 92.55436 
L 329.93158 184.729512 
L 330.128579 59.372429 
L 330.522577 229.53227 
L 330.916575 274.017554 
L 331.113575 274.944103 
L 331.507573 283.532209 
L 331.901571 294.521834 
L 332.09857 294.52191 
L 332.295569 293.763111 
L 332.492568 289.440865 
L 332.689568 291.981475 
L 332.886567 291.981511 
L 333.083566 297.185542 
L 333.280565 297.647689 
L 333.477564 299.963093 
L 333.871562 300.268059 
L 334.26556 303.883108 
L 334.46256 303.55653 
L 334.659559 299.752506 
L 334.856558 303.373072 
L 335.053557 291.359395 
L 335.250556 298.15947 
L 335.447555 300.803871 
L 335.58886 -1 
M 335.758938 -1 
L 336.038553 192.065711 
L 336.235552 224.718455 
L 337.023548 294.070222 
L 337.220547 298.018938 
L 337.417546 298.943656 
L 337.614545 298.943664 
L 337.811545 300.652145 
L 338.008544 299.797921 
L 338.205543 301.412338 
L 338.402542 304.432491 
L 338.599541 302.322467 
L 338.79654 303.377484 
L 338.993539 288.100216 
L 339.387538 298.989206 
L 339.584537 300.419159 
L 339.781536 299.530105 
L 339.978535 299.174094 
L 340.175534 293.926789 
L 340.372533 276.698474 
L 340.766531 298.847255 
L 340.96353 300.60394 
L 341.16053 304.039841 
L 341.357529 303.718682 
L 341.554528 303.735286 
L 341.751527 303.880307 
L 342.145525 302.992766 
L 342.342524 303.250876 
L 342.539523 302.302684 
L 342.736523 304.559325 
L 342.933522 305.312445 
L 343.130521 304.85227 
L 343.32752 298.361135 
L 343.721518 302.987568 
L 343.918517 298.824736 
L 344.115516 300.864212 
L 344.312515 299.814274 
L 344.509515 282.396737 
L 345.49451 301.94975 
L 345.691509 289.787733 
L 345.888508 290.490513 
L 346.085508 296.220155 
L 346.282507 294.603217 
L 346.479506 290.929965 
L 346.676505 294.352476 
L 346.873504 293.259556 
L 347.070503 291.066014 
L 347.464501 299.401534 
L 347.6615 281.536704 
L 348.055499 273.470976 
L 348.252498 277.50387 
L 348.449497 275.487462 
L 348.646496 276.502802 
L 349.040494 295.485978 
L 349.237493 291.618354 
L 349.434492 294.25669 
L 349.631492 301.157459 
L 349.828491 303.836821 
L 350.02549 303.113197 
L 350.222489 305.28292 
L 350.419488 301.451486 
L 350.616487 303.299725 
L 350.813486 296.554621 
L 351.010485 298.721791 
L 351.404484 298.672185 
L 351.601483 294.240851 
L 351.995481 299.226133 
L 352.19248 281.588471 
L 352.586478 294.31591 
L 352.783477 293.61668 
L 352.980477 294.113956 
L 353.177476 288.443463 
L 353.374475 293.32025 
L 353.571474 290.881867 
L 353.768473 292.101064 
L 353.965472 290.227315 
L 354.162471 289.908844 
L 354.35947 289.35967 
L 354.55647 282.357741 
L 354.753469 286.033307 
L 354.950468 283.971638 
L 355.147467 290.259794 
L 355.344466 286.612923 
L 355.541465 288.43644 
L 355.935463 300.44007 
L 356.132462 298.234124 
L 356.526461 300.768289 
L 356.920459 300.768377 
L 357.511456 299.133849 
L 357.708455 301.322709 
L 357.905455 298.787407 
L 358.102454 299.677541 
L 358.496452 280.518088 
L 358.693451 283.399844 
L 358.89045 290.383769 
L 359.087449 286.891839 
L 359.284448 289.042566 
L 359.678447 299.477941 
L 359.875446 297.221525 
L 360.269444 303.781528 
L 360.466443 303.480617 
L 360.663442 303.631076 
L 360.860441 300.792612 
L 361.25444 304.794508 
L 361.451439 294.341046 
L 361.845437 301.98247 
L 362.042436 300.775153 
L 362.239435 301.250165 
L 362.633433 290.874514 
L 362.830432 291.033904 
L 363.027432 289.423307 
L 363.224431 291.281264 
L 363.618429 219.960198 
L 363.815428 262.46584 
L 364.012427 269.499647 
L 364.209426 252.199246 
L 364.603425 270.161217 
L 364.800424 270.534021 
L 364.997423 255.089546 
L 365.194422 279.419557 
L 365.391421 282.132843 
L 365.58842 290.494144 
L 365.785419 288.403892 
L 365.982418 292.135786 
L 366.179417 292.104891 
L 366.573416 300.618253 
L 366.770415 298.327412 
L 366.967414 298.327516 
L 367.361412 299.26019 
L 367.558411 299.26019 
L 367.75541 301.807903 
L 367.95241 300.494891 
L 368.149409 301.222341 
L 368.346408 293.274212 
L 368.543407 297.465494 
L 368.740406 295.369858 
L 368.937405 300.896211 
L 369.331403 288.132412 
L 369.528402 295.246519 
L 369.725402 290.431209 
L 369.922401 292.264207 
L 370.1194 291.72875 
L 370.316399 290.451839 
L 370.513398 297.015764 
L 370.710397 297.835261 
L 370.907396 300.178905 
L 371.104395 274.638924 
L 371.301395 286.897388 
L 371.498394 289.045341 
L 371.695393 288.459822 
L 371.892392 288.389111 
L 372.089391 291.771612 
L 372.483389 273.530908 
L 372.877387 293.399522 
L 373.074387 289.558478 
L 373.271386 295.223719 
L 373.665384 292.968109 
L 373.862383 284.23032 
L 374.059382 282.070912 
L 374.256381 285.940215 
L 374.45338 296.396276 
L 374.65038 293.637058 
L 374.847379 294.299728 
L 375.044378 293.609907 
L 375.241377 296.35946 
L 375.438376 296.716902 
L 375.635375 286.905119 
L 375.832374 290.10925 
L 376.029373 280.770017 
L 376.226372 285.289767 
L 376.423372 292.781408 
L 376.620371 292.33306 
L 376.81737 294.334697 
L 377.014369 290.990642 
L 377.211368 295.860012 
L 377.408367 291.823118 
L 377.605366 295.493081 
L 377.802365 296.980318 
L 377.999365 296.23685 
L 378.196364 296.608712 
L 378.393363 292.510276 
L 378.590362 298.508394 
L 378.787361 258.412597 
L 378.98436 255.771914 
L 379.575357 293.526678 
L 379.772357 267.080139 
L 379.969356 279.046675 
L 380.166355 280.762137 
L 380.363354 279.904466 
L 380.560353 291.076746 
L 380.757352 286.564891 
L 380.954351 291.768942 
L 381.15135 289.166922 
L 381.34835 289.166996 
L 381.545349 290.468006 
L 381.742348 289.135398 
L 381.939347 290.398895 
L 382.136346 289.656001 
L 382.333345 247.803615 
L 382.530344 277.237821 
L 382.727343 280.101936 
L 382.924342 293.39127 
L 383.121342 292.020963 
L 383.318341 268.558962 
L 383.712339 286.590343 
L 384.106337 296.363865 
L 384.303336 294.949328 
L 384.697335 285.087609 
L 384.894334 293.825165 
L 385.091333 284.727782 
L 385.288332 287.565514 
L 385.485331 293.781704 
L 385.68233 290.600282 
L 386.076328 290.600288 
L 386.273327 295.842153 
L 386.470327 292.139967 
L 386.667326 283.0577 
L 386.864325 289.071221 
L 387.061324 286.06456 
L 387.652321 299.724024 
L 387.84932 294.078081 
L 388.04632 299.05057 
L 388.243319 296.242804 
L 388.440318 291.661446 
L 388.637317 291.661463 
L 389.031315 301.153328 
L 389.425313 296.934211 
L 389.622312 296.934227 
L 389.819312 291.609347 
L 390.21331 294.271798 
L 390.410309 292.231249 
L 390.607308 261.946748 
L 390.804307 266.688766 
L 391.001306 266.015763 
L 391.198305 266.458335 
L 391.395305 283.714806 
L 391.592304 282.025064 
L 391.986302 284.809396 
L 392.183301 282.544902 
L 392.3803 294.002549 
L 392.577299 288.316536 
L 392.774298 288.21671 
L 392.971297 291.109738 
L 393.365296 286.929372 
L 393.427636 -1 
M 393.914115 -1 
L 393.956293 44.272119 
L 394.350291 138.100124 
L 394.54729 159.819563 
L 394.744289 203.916353 
L 394.941289 110.132655 
L 394.957752 -1 
M 396.000794 -1 
L 396.123283 111.648941 
L 396.320282 182.778131 
L 396.91128 245.476246 
L 397.108279 234.193728 
L 397.305278 239.645344 
L 397.896275 281.643152 
L 398.093274 275.396936 
L 398.487273 277.780028 
L 398.487273 277.780028 
" style="fill:none;stroke:#ff7f0e;stroke-linecap:square;stroke-width:1.5;"/>
   </g>
   <g id="patch_3">
    <path d="M 57.6 307.584 
L 57.6 41.472 
" style="fill:none;stroke:#000000;stroke-linecap:square;stroke-linejoin:miter;stroke-width:0.8;"/>
   </g>
   <g id="patch_4">
    <path d="M 414.72 307.584 
L 414.72 41.472 
" style="fill:none;stroke:#000000;stroke-linecap:square;stroke-linejoin:miter;stroke-width:0.8;"/>
   </g>
   <g id="patch_5">
    <path d="M 57.6 307.584 
L 414.72 307.584 
" style="fill:none;stroke:#000000;stroke-linecap:square;stroke-linejoin:miter;stroke-width:0.8;"/>
   </g>
   <g id="patch_6">
    <path d="M 57.6 41.472 
L 414.72 41.472 
" style="fill:none;stroke:#000000;stroke-linecap:square;stroke-linejoin:miter;stroke-width:0.8;"/>
   </g>
  </g>
 </g>
 <defs>
  <clipPath id="p78565402e0">
   <rect height="266.112" width="357.12" x="57.6" y="41.472"/>
  </clipPath>
 </defs>
</svg>
