<?xml version="1.0" encoding="utf-8" standalone="no"?>
<!DOCTYPE svg PUBLIC "-//W3C//DTD SVG 1.1//EN"
  "http://www.w3.org/Graphics/SVG/1.1/DTD/svg11.dtd">
<svg height="345.6pt" version="1.1" viewBox="0 0 460.8 345.6" width="460.8pt" xmlns="http://www.w3.org/2000/svg" xmlns:xlink="http://www.w3.org/1999/xlink">
 <metadata>
  <rdf:RDF xmlns:cc="http://creativecommons.org/ns#" xmlns:dc="http://purl.org/dc/elements/1.1/" xmlns:rdf="http://www.w3.org/1999/02/22-rdf-syntax-ns#">
   <cc:Work>
    <dc:type rdf:resource="http://purl.org/dc/dcmitype/StillImage"/>
    <dc:date>2022-01-06T22:06:49.956643</dc:date>
    <dc:format>image/svg+xml</dc:format>
    <dc:creator>
     <cc:Agent>
      <dc:title>Matplotlib v3.4.3, https://matplotlib.org/</dc:title>
     </cc:Agent>
    </dc:creator>
   </cc:Work>
  </rdf:RDF>
 </metadata>
 <defs>
  <style type="text/css">*{stroke-linecap:butt;stroke-linejoin:round;}</style>
 </defs>
 <g id="figure_1">
  <g id="patch_1">
   <path d="M 0 345.6 
L 460.8 345.6 
L 460.8 0 
L 0 0 
z
" style="fill:#ffffff;"/>
  </g>
  <g id="axes_1">
   <g id="patch_2">
    <path d="M 57.6 307.584 
L 414.72 307.584 
L 414.72 41.472 
L 57.6 41.472 
z
" style="fill:#ffffff;"/>
   </g>
   <g id="matplotlib.axis_1">
    <g id="xtick_1">
     <g id="line2d_1">
      <defs>
       <path d="M 0 0 
L 0 3.5 
" id="md1462bf2f8" style="stroke:#000000;stroke-width:0.8;"/>
      </defs>
      <g>
       <use style="stroke:#000000;stroke-width:0.8;" x="73.832727" xlink:href="#md1462bf2f8" y="307.584"/>
      </g>
     </g>
     <g id="text_1">
      <!-- 39000 -->
      <g transform="translate(57.926477 322.182437)scale(0.1 -0.1)">
       <defs>
        <path d="M 2597 2516 
Q 3050 2419 3304 2112 
Q 3559 1806 3559 1356 
Q 3559 666 3084 287 
Q 2609 -91 1734 -91 
Q 1441 -91 1130 -33 
Q 819 25 488 141 
L 488 750 
Q 750 597 1062 519 
Q 1375 441 1716 441 
Q 2309 441 2620 675 
Q 2931 909 2931 1356 
Q 2931 1769 2642 2001 
Q 2353 2234 1838 2234 
L 1294 2234 
L 1294 2753 
L 1863 2753 
Q 2328 2753 2575 2939 
Q 2822 3125 2822 3475 
Q 2822 3834 2567 4026 
Q 2313 4219 1838 4219 
Q 1578 4219 1281 4162 
Q 984 4106 628 3988 
L 628 4550 
Q 988 4650 1302 4700 
Q 1616 4750 1894 4750 
Q 2613 4750 3031 4423 
Q 3450 4097 3450 3541 
Q 3450 3153 3228 2886 
Q 3006 2619 2597 2516 
z
" id="DejaVuSans-33" transform="scale(0.015625)"/>
        <path d="M 703 97 
L 703 672 
Q 941 559 1184 500 
Q 1428 441 1663 441 
Q 2288 441 2617 861 
Q 2947 1281 2994 2138 
Q 2813 1869 2534 1725 
Q 2256 1581 1919 1581 
Q 1219 1581 811 2004 
Q 403 2428 403 3163 
Q 403 3881 828 4315 
Q 1253 4750 1959 4750 
Q 2769 4750 3195 4129 
Q 3622 3509 3622 2328 
Q 3622 1225 3098 567 
Q 2575 -91 1691 -91 
Q 1453 -91 1209 -44 
Q 966 3 703 97 
z
M 1959 2075 
Q 2384 2075 2632 2365 
Q 2881 2656 2881 3163 
Q 2881 3666 2632 3958 
Q 2384 4250 1959 4250 
Q 1534 4250 1286 3958 
Q 1038 3666 1038 3163 
Q 1038 2656 1286 2365 
Q 1534 2075 1959 2075 
z
" id="DejaVuSans-39" transform="scale(0.015625)"/>
        <path d="M 2034 4250 
Q 1547 4250 1301 3770 
Q 1056 3291 1056 2328 
Q 1056 1369 1301 889 
Q 1547 409 2034 409 
Q 2525 409 2770 889 
Q 3016 1369 3016 2328 
Q 3016 3291 2770 3770 
Q 2525 4250 2034 4250 
z
M 2034 4750 
Q 2819 4750 3233 4129 
Q 3647 3509 3647 2328 
Q 3647 1150 3233 529 
Q 2819 -91 2034 -91 
Q 1250 -91 836 529 
Q 422 1150 422 2328 
Q 422 3509 836 4129 
Q 1250 4750 2034 4750 
z
" id="DejaVuSans-30" transform="scale(0.015625)"/>
       </defs>
       <use xlink:href="#DejaVuSans-33"/>
       <use x="63.623047" xlink:href="#DejaVuSans-39"/>
       <use x="127.246094" xlink:href="#DejaVuSans-30"/>
       <use x="190.869141" xlink:href="#DejaVuSans-30"/>
       <use x="254.492188" xlink:href="#DejaVuSans-30"/>
      </g>
     </g>
    </g>
    <g id="xtick_2">
     <g id="line2d_2">
      <g>
       <use style="stroke:#000000;stroke-width:0.8;" x="123.082507" xlink:href="#md1462bf2f8" y="307.584"/>
      </g>
     </g>
     <g id="text_2">
      <!-- 39250 -->
      <g transform="translate(107.176257 322.182437)scale(0.1 -0.1)">
       <defs>
        <path d="M 1228 531 
L 3431 531 
L 3431 0 
L 469 0 
L 469 531 
Q 828 903 1448 1529 
Q 2069 2156 2228 2338 
Q 2531 2678 2651 2914 
Q 2772 3150 2772 3378 
Q 2772 3750 2511 3984 
Q 2250 4219 1831 4219 
Q 1534 4219 1204 4116 
Q 875 4013 500 3803 
L 500 4441 
Q 881 4594 1212 4672 
Q 1544 4750 1819 4750 
Q 2544 4750 2975 4387 
Q 3406 4025 3406 3419 
Q 3406 3131 3298 2873 
Q 3191 2616 2906 2266 
Q 2828 2175 2409 1742 
Q 1991 1309 1228 531 
z
" id="DejaVuSans-32" transform="scale(0.015625)"/>
        <path d="M 691 4666 
L 3169 4666 
L 3169 4134 
L 1269 4134 
L 1269 2991 
Q 1406 3038 1543 3061 
Q 1681 3084 1819 3084 
Q 2600 3084 3056 2656 
Q 3513 2228 3513 1497 
Q 3513 744 3044 326 
Q 2575 -91 1722 -91 
Q 1428 -91 1123 -41 
Q 819 9 494 109 
L 494 744 
Q 775 591 1075 516 
Q 1375 441 1709 441 
Q 2250 441 2565 725 
Q 2881 1009 2881 1497 
Q 2881 1984 2565 2268 
Q 2250 2553 1709 2553 
Q 1456 2553 1204 2497 
Q 953 2441 691 2322 
L 691 4666 
z
" id="DejaVuSans-35" transform="scale(0.015625)"/>
       </defs>
       <use xlink:href="#DejaVuSans-33"/>
       <use x="63.623047" xlink:href="#DejaVuSans-39"/>
       <use x="127.246094" xlink:href="#DejaVuSans-32"/>
       <use x="190.869141" xlink:href="#DejaVuSans-35"/>
       <use x="254.492188" xlink:href="#DejaVuSans-30"/>
      </g>
     </g>
    </g>
    <g id="xtick_3">
     <g id="line2d_3">
      <g>
       <use style="stroke:#000000;stroke-width:0.8;" x="172.332286" xlink:href="#md1462bf2f8" y="307.584"/>
      </g>
     </g>
     <g id="text_3">
      <!-- 39500 -->
      <g transform="translate(156.426036 322.182437)scale(0.1 -0.1)">
       <use xlink:href="#DejaVuSans-33"/>
       <use x="63.623047" xlink:href="#DejaVuSans-39"/>
       <use x="127.246094" xlink:href="#DejaVuSans-35"/>
       <use x="190.869141" xlink:href="#DejaVuSans-30"/>
       <use x="254.492188" xlink:href="#DejaVuSans-30"/>
      </g>
     </g>
    </g>
    <g id="xtick_4">
     <g id="line2d_4">
      <g>
       <use style="stroke:#000000;stroke-width:0.8;" x="221.582065" xlink:href="#md1462bf2f8" y="307.584"/>
      </g>
     </g>
     <g id="text_4">
      <!-- 39750 -->
      <g transform="translate(205.675815 322.182437)scale(0.1 -0.1)">
       <defs>
        <path d="M 525 4666 
L 3525 4666 
L 3525 4397 
L 1831 0 
L 1172 0 
L 2766 4134 
L 525 4134 
L 525 4666 
z
" id="DejaVuSans-37" transform="scale(0.015625)"/>
       </defs>
       <use xlink:href="#DejaVuSans-33"/>
       <use x="63.623047" xlink:href="#DejaVuSans-39"/>
       <use x="127.246094" xlink:href="#DejaVuSans-37"/>
       <use x="190.869141" xlink:href="#DejaVuSans-35"/>
       <use x="254.492188" xlink:href="#DejaVuSans-30"/>
      </g>
     </g>
    </g>
    <g id="xtick_5">
     <g id="line2d_5">
      <g>
       <use style="stroke:#000000;stroke-width:0.8;" x="270.831845" xlink:href="#md1462bf2f8" y="307.584"/>
      </g>
     </g>
     <g id="text_5">
      <!-- 40000 -->
      <g transform="translate(254.925595 322.182437)scale(0.1 -0.1)">
       <defs>
        <path d="M 2419 4116 
L 825 1625 
L 2419 1625 
L 2419 4116 
z
M 2253 4666 
L 3047 4666 
L 3047 1625 
L 3713 1625 
L 3713 1100 
L 3047 1100 
L 3047 0 
L 2419 0 
L 2419 1100 
L 313 1100 
L 313 1709 
L 2253 4666 
z
" id="DejaVuSans-34" transform="scale(0.015625)"/>
       </defs>
       <use xlink:href="#DejaVuSans-34"/>
       <use x="63.623047" xlink:href="#DejaVuSans-30"/>
       <use x="127.246094" xlink:href="#DejaVuSans-30"/>
       <use x="190.869141" xlink:href="#DejaVuSans-30"/>
       <use x="254.492188" xlink:href="#DejaVuSans-30"/>
      </g>
     </g>
    </g>
    <g id="xtick_6">
     <g id="line2d_6">
      <g>
       <use style="stroke:#000000;stroke-width:0.8;" x="320.081624" xlink:href="#md1462bf2f8" y="307.584"/>
      </g>
     </g>
     <g id="text_6">
      <!-- 40250 -->
      <g transform="translate(304.175374 322.182437)scale(0.1 -0.1)">
       <use xlink:href="#DejaVuSans-34"/>
       <use x="63.623047" xlink:href="#DejaVuSans-30"/>
       <use x="127.246094" xlink:href="#DejaVuSans-32"/>
       <use x="190.869141" xlink:href="#DejaVuSans-35"/>
       <use x="254.492188" xlink:href="#DejaVuSans-30"/>
      </g>
     </g>
    </g>
    <g id="xtick_7">
     <g id="line2d_7">
      <g>
       <use style="stroke:#000000;stroke-width:0.8;" x="369.331403" xlink:href="#md1462bf2f8" y="307.584"/>
      </g>
     </g>
     <g id="text_7">
      <!-- 40500 -->
      <g transform="translate(353.425153 322.182437)scale(0.1 -0.1)">
       <use xlink:href="#DejaVuSans-34"/>
       <use x="63.623047" xlink:href="#DejaVuSans-30"/>
       <use x="127.246094" xlink:href="#DejaVuSans-35"/>
       <use x="190.869141" xlink:href="#DejaVuSans-30"/>
       <use x="254.492188" xlink:href="#DejaVuSans-30"/>
      </g>
     </g>
    </g>
    <g id="text_8">
     <!-- Block Height -->
     <g transform="translate(204.518594 335.860562)scale(0.1 -0.1)">
      <defs>
       <path d="M 1259 2228 
L 1259 519 
L 2272 519 
Q 2781 519 3026 730 
Q 3272 941 3272 1375 
Q 3272 1813 3026 2020 
Q 2781 2228 2272 2228 
L 1259 2228 
z
M 1259 4147 
L 1259 2741 
L 2194 2741 
Q 2656 2741 2882 2914 
Q 3109 3088 3109 3444 
Q 3109 3797 2882 3972 
Q 2656 4147 2194 4147 
L 1259 4147 
z
M 628 4666 
L 2241 4666 
Q 2963 4666 3353 4366 
Q 3744 4066 3744 3513 
Q 3744 3084 3544 2831 
Q 3344 2578 2956 2516 
Q 3422 2416 3680 2098 
Q 3938 1781 3938 1306 
Q 3938 681 3513 340 
Q 3088 0 2303 0 
L 628 0 
L 628 4666 
z
" id="DejaVuSans-42" transform="scale(0.015625)"/>
       <path d="M 603 4863 
L 1178 4863 
L 1178 0 
L 603 0 
L 603 4863 
z
" id="DejaVuSans-6c" transform="scale(0.015625)"/>
       <path d="M 1959 3097 
Q 1497 3097 1228 2736 
Q 959 2375 959 1747 
Q 959 1119 1226 758 
Q 1494 397 1959 397 
Q 2419 397 2687 759 
Q 2956 1122 2956 1747 
Q 2956 2369 2687 2733 
Q 2419 3097 1959 3097 
z
M 1959 3584 
Q 2709 3584 3137 3096 
Q 3566 2609 3566 1747 
Q 3566 888 3137 398 
Q 2709 -91 1959 -91 
Q 1206 -91 779 398 
Q 353 888 353 1747 
Q 353 2609 779 3096 
Q 1206 3584 1959 3584 
z
" id="DejaVuSans-6f" transform="scale(0.015625)"/>
       <path d="M 3122 3366 
L 3122 2828 
Q 2878 2963 2633 3030 
Q 2388 3097 2138 3097 
Q 1578 3097 1268 2742 
Q 959 2388 959 1747 
Q 959 1106 1268 751 
Q 1578 397 2138 397 
Q 2388 397 2633 464 
Q 2878 531 3122 666 
L 3122 134 
Q 2881 22 2623 -34 
Q 2366 -91 2075 -91 
Q 1284 -91 818 406 
Q 353 903 353 1747 
Q 353 2603 823 3093 
Q 1294 3584 2113 3584 
Q 2378 3584 2631 3529 
Q 2884 3475 3122 3366 
z
" id="DejaVuSans-63" transform="scale(0.015625)"/>
       <path d="M 581 4863 
L 1159 4863 
L 1159 1991 
L 2875 3500 
L 3609 3500 
L 1753 1863 
L 3688 0 
L 2938 0 
L 1159 1709 
L 1159 0 
L 581 0 
L 581 4863 
z
" id="DejaVuSans-6b" transform="scale(0.015625)"/>
       <path id="DejaVuSans-20" transform="scale(0.015625)"/>
       <path d="M 628 4666 
L 1259 4666 
L 1259 2753 
L 3553 2753 
L 3553 4666 
L 4184 4666 
L 4184 0 
L 3553 0 
L 3553 2222 
L 1259 2222 
L 1259 0 
L 628 0 
L 628 4666 
z
" id="DejaVuSans-48" transform="scale(0.015625)"/>
       <path d="M 3597 1894 
L 3597 1613 
L 953 1613 
Q 991 1019 1311 708 
Q 1631 397 2203 397 
Q 2534 397 2845 478 
Q 3156 559 3463 722 
L 3463 178 
Q 3153 47 2828 -22 
Q 2503 -91 2169 -91 
Q 1331 -91 842 396 
Q 353 884 353 1716 
Q 353 2575 817 3079 
Q 1281 3584 2069 3584 
Q 2775 3584 3186 3129 
Q 3597 2675 3597 1894 
z
M 3022 2063 
Q 3016 2534 2758 2815 
Q 2500 3097 2075 3097 
Q 1594 3097 1305 2825 
Q 1016 2553 972 2059 
L 3022 2063 
z
" id="DejaVuSans-65" transform="scale(0.015625)"/>
       <path d="M 603 3500 
L 1178 3500 
L 1178 0 
L 603 0 
L 603 3500 
z
M 603 4863 
L 1178 4863 
L 1178 4134 
L 603 4134 
L 603 4863 
z
" id="DejaVuSans-69" transform="scale(0.015625)"/>
       <path d="M 2906 1791 
Q 2906 2416 2648 2759 
Q 2391 3103 1925 3103 
Q 1463 3103 1205 2759 
Q 947 2416 947 1791 
Q 947 1169 1205 825 
Q 1463 481 1925 481 
Q 2391 481 2648 825 
Q 2906 1169 2906 1791 
z
M 3481 434 
Q 3481 -459 3084 -895 
Q 2688 -1331 1869 -1331 
Q 1566 -1331 1297 -1286 
Q 1028 -1241 775 -1147 
L 775 -588 
Q 1028 -725 1275 -790 
Q 1522 -856 1778 -856 
Q 2344 -856 2625 -561 
Q 2906 -266 2906 331 
L 2906 616 
Q 2728 306 2450 153 
Q 2172 0 1784 0 
Q 1141 0 747 490 
Q 353 981 353 1791 
Q 353 2603 747 3093 
Q 1141 3584 1784 3584 
Q 2172 3584 2450 3431 
Q 2728 3278 2906 2969 
L 2906 3500 
L 3481 3500 
L 3481 434 
z
" id="DejaVuSans-67" transform="scale(0.015625)"/>
       <path d="M 3513 2113 
L 3513 0 
L 2938 0 
L 2938 2094 
Q 2938 2591 2744 2837 
Q 2550 3084 2163 3084 
Q 1697 3084 1428 2787 
Q 1159 2491 1159 1978 
L 1159 0 
L 581 0 
L 581 4863 
L 1159 4863 
L 1159 2956 
Q 1366 3272 1645 3428 
Q 1925 3584 2291 3584 
Q 2894 3584 3203 3211 
Q 3513 2838 3513 2113 
z
" id="DejaVuSans-68" transform="scale(0.015625)"/>
       <path d="M 1172 4494 
L 1172 3500 
L 2356 3500 
L 2356 3053 
L 1172 3053 
L 1172 1153 
Q 1172 725 1289 603 
Q 1406 481 1766 481 
L 2356 481 
L 2356 0 
L 1766 0 
Q 1100 0 847 248 
Q 594 497 594 1153 
L 594 3053 
L 172 3053 
L 172 3500 
L 594 3500 
L 594 4494 
L 1172 4494 
z
" id="DejaVuSans-74" transform="scale(0.015625)"/>
      </defs>
      <use xlink:href="#DejaVuSans-42"/>
      <use x="68.603516" xlink:href="#DejaVuSans-6c"/>
      <use x="96.386719" xlink:href="#DejaVuSans-6f"/>
      <use x="157.568359" xlink:href="#DejaVuSans-63"/>
      <use x="212.548828" xlink:href="#DejaVuSans-6b"/>
      <use x="270.458984" xlink:href="#DejaVuSans-20"/>
      <use x="302.246094" xlink:href="#DejaVuSans-48"/>
      <use x="377.441406" xlink:href="#DejaVuSans-65"/>
      <use x="438.964844" xlink:href="#DejaVuSans-69"/>
      <use x="466.748047" xlink:href="#DejaVuSans-67"/>
      <use x="530.224609" xlink:href="#DejaVuSans-68"/>
      <use x="593.603516" xlink:href="#DejaVuSans-74"/>
     </g>
    </g>
   </g>
   <g id="matplotlib.axis_2">
    <g id="ytick_1">
     <g id="line2d_8">
      <defs>
       <path d="M 0 0 
L -3.5 0 
" id="m29eb955ccf" style="stroke:#000000;stroke-width:0.8;"/>
      </defs>
      <g>
       <use style="stroke:#000000;stroke-width:0.8;" x="57.6" xlink:href="#m29eb955ccf" y="295.488215"/>
      </g>
     </g>
     <g id="text_9">
      <!-- 0 -->
      <g transform="translate(44.2375 299.287434)scale(0.1 -0.1)">
       <use xlink:href="#DejaVuSans-30"/>
      </g>
     </g>
    </g>
    <g id="ytick_2">
     <g id="line2d_9">
      <g>
       <use style="stroke:#000000;stroke-width:0.8;" x="57.6" xlink:href="#m29eb955ccf" y="261.591058"/>
      </g>
     </g>
     <g id="text_10">
      <!-- 50 -->
      <g transform="translate(37.875 265.390277)scale(0.1 -0.1)">
       <use xlink:href="#DejaVuSans-35"/>
       <use x="63.623047" xlink:href="#DejaVuSans-30"/>
      </g>
     </g>
    </g>
    <g id="ytick_3">
     <g id="line2d_10">
      <g>
       <use style="stroke:#000000;stroke-width:0.8;" x="57.6" xlink:href="#m29eb955ccf" y="227.693901"/>
      </g>
     </g>
     <g id="text_11">
      <!-- 100 -->
      <g transform="translate(31.5125 231.49312)scale(0.1 -0.1)">
       <defs>
        <path d="M 794 531 
L 1825 531 
L 1825 4091 
L 703 3866 
L 703 4441 
L 1819 4666 
L 2450 4666 
L 2450 531 
L 3481 531 
L 3481 0 
L 794 0 
L 794 531 
z
" id="DejaVuSans-31" transform="scale(0.015625)"/>
       </defs>
       <use xlink:href="#DejaVuSans-31"/>
       <use x="63.623047" xlink:href="#DejaVuSans-30"/>
       <use x="127.246094" xlink:href="#DejaVuSans-30"/>
      </g>
     </g>
    </g>
    <g id="ytick_4">
     <g id="line2d_11">
      <g>
       <use style="stroke:#000000;stroke-width:0.8;" x="57.6" xlink:href="#m29eb955ccf" y="193.796744"/>
      </g>
     </g>
     <g id="text_12">
      <!-- 150 -->
      <g transform="translate(31.5125 197.595963)scale(0.1 -0.1)">
       <use xlink:href="#DejaVuSans-31"/>
       <use x="63.623047" xlink:href="#DejaVuSans-35"/>
       <use x="127.246094" xlink:href="#DejaVuSans-30"/>
      </g>
     </g>
    </g>
    <g id="ytick_5">
     <g id="line2d_12">
      <g>
       <use style="stroke:#000000;stroke-width:0.8;" x="57.6" xlink:href="#m29eb955ccf" y="159.899587"/>
      </g>
     </g>
     <g id="text_13">
      <!-- 200 -->
      <g transform="translate(31.5125 163.698806)scale(0.1 -0.1)">
       <use xlink:href="#DejaVuSans-32"/>
       <use x="63.623047" xlink:href="#DejaVuSans-30"/>
       <use x="127.246094" xlink:href="#DejaVuSans-30"/>
      </g>
     </g>
    </g>
    <g id="ytick_6">
     <g id="line2d_13">
      <g>
       <use style="stroke:#000000;stroke-width:0.8;" x="57.6" xlink:href="#m29eb955ccf" y="126.00243"/>
      </g>
     </g>
     <g id="text_14">
      <!-- 250 -->
      <g transform="translate(31.5125 129.801649)scale(0.1 -0.1)">
       <use xlink:href="#DejaVuSans-32"/>
       <use x="63.623047" xlink:href="#DejaVuSans-35"/>
       <use x="127.246094" xlink:href="#DejaVuSans-30"/>
      </g>
     </g>
    </g>
    <g id="ytick_7">
     <g id="line2d_14">
      <g>
       <use style="stroke:#000000;stroke-width:0.8;" x="57.6" xlink:href="#m29eb955ccf" y="92.105273"/>
      </g>
     </g>
     <g id="text_15">
      <!-- 300 -->
      <g transform="translate(31.5125 95.904492)scale(0.1 -0.1)">
       <use xlink:href="#DejaVuSans-33"/>
       <use x="63.623047" xlink:href="#DejaVuSans-30"/>
       <use x="127.246094" xlink:href="#DejaVuSans-30"/>
      </g>
     </g>
    </g>
    <g id="ytick_8">
     <g id="line2d_15">
      <g>
       <use style="stroke:#000000;stroke-width:0.8;" x="57.6" xlink:href="#m29eb955ccf" y="58.208117"/>
      </g>
     </g>
     <g id="text_16">
      <!-- 350 -->
      <g transform="translate(31.5125 62.007335)scale(0.1 -0.1)">
       <use xlink:href="#DejaVuSans-33"/>
       <use x="63.623047" xlink:href="#DejaVuSans-35"/>
       <use x="127.246094" xlink:href="#DejaVuSans-30"/>
      </g>
     </g>
    </g>
    <g id="text_17">
     <!-- Estimated fee for "stack-stx" -->
     <g transform="translate(25.432812 246.543625)rotate(-90)scale(0.1 -0.1)">
      <defs>
       <path d="M 628 4666 
L 3578 4666 
L 3578 4134 
L 1259 4134 
L 1259 2753 
L 3481 2753 
L 3481 2222 
L 1259 2222 
L 1259 531 
L 3634 531 
L 3634 0 
L 628 0 
L 628 4666 
z
" id="DejaVuSans-45" transform="scale(0.015625)"/>
       <path d="M 2834 3397 
L 2834 2853 
Q 2591 2978 2328 3040 
Q 2066 3103 1784 3103 
Q 1356 3103 1142 2972 
Q 928 2841 928 2578 
Q 928 2378 1081 2264 
Q 1234 2150 1697 2047 
L 1894 2003 
Q 2506 1872 2764 1633 
Q 3022 1394 3022 966 
Q 3022 478 2636 193 
Q 2250 -91 1575 -91 
Q 1294 -91 989 -36 
Q 684 19 347 128 
L 347 722 
Q 666 556 975 473 
Q 1284 391 1588 391 
Q 1994 391 2212 530 
Q 2431 669 2431 922 
Q 2431 1156 2273 1281 
Q 2116 1406 1581 1522 
L 1381 1569 
Q 847 1681 609 1914 
Q 372 2147 372 2553 
Q 372 3047 722 3315 
Q 1072 3584 1716 3584 
Q 2034 3584 2315 3537 
Q 2597 3491 2834 3397 
z
" id="DejaVuSans-73" transform="scale(0.015625)"/>
       <path d="M 3328 2828 
Q 3544 3216 3844 3400 
Q 4144 3584 4550 3584 
Q 5097 3584 5394 3201 
Q 5691 2819 5691 2113 
L 5691 0 
L 5113 0 
L 5113 2094 
Q 5113 2597 4934 2840 
Q 4756 3084 4391 3084 
Q 3944 3084 3684 2787 
Q 3425 2491 3425 1978 
L 3425 0 
L 2847 0 
L 2847 2094 
Q 2847 2600 2669 2842 
Q 2491 3084 2119 3084 
Q 1678 3084 1418 2786 
Q 1159 2488 1159 1978 
L 1159 0 
L 581 0 
L 581 3500 
L 1159 3500 
L 1159 2956 
Q 1356 3278 1631 3431 
Q 1906 3584 2284 3584 
Q 2666 3584 2933 3390 
Q 3200 3197 3328 2828 
z
" id="DejaVuSans-6d" transform="scale(0.015625)"/>
       <path d="M 2194 1759 
Q 1497 1759 1228 1600 
Q 959 1441 959 1056 
Q 959 750 1161 570 
Q 1363 391 1709 391 
Q 2188 391 2477 730 
Q 2766 1069 2766 1631 
L 2766 1759 
L 2194 1759 
z
M 3341 1997 
L 3341 0 
L 2766 0 
L 2766 531 
Q 2569 213 2275 61 
Q 1981 -91 1556 -91 
Q 1019 -91 701 211 
Q 384 513 384 1019 
Q 384 1609 779 1909 
Q 1175 2209 1959 2209 
L 2766 2209 
L 2766 2266 
Q 2766 2663 2505 2880 
Q 2244 3097 1772 3097 
Q 1472 3097 1187 3025 
Q 903 2953 641 2809 
L 641 3341 
Q 956 3463 1253 3523 
Q 1550 3584 1831 3584 
Q 2591 3584 2966 3190 
Q 3341 2797 3341 1997 
z
" id="DejaVuSans-61" transform="scale(0.015625)"/>
       <path d="M 2906 2969 
L 2906 4863 
L 3481 4863 
L 3481 0 
L 2906 0 
L 2906 525 
Q 2725 213 2448 61 
Q 2172 -91 1784 -91 
Q 1150 -91 751 415 
Q 353 922 353 1747 
Q 353 2572 751 3078 
Q 1150 3584 1784 3584 
Q 2172 3584 2448 3432 
Q 2725 3281 2906 2969 
z
M 947 1747 
Q 947 1113 1208 752 
Q 1469 391 1925 391 
Q 2381 391 2643 752 
Q 2906 1113 2906 1747 
Q 2906 2381 2643 2742 
Q 2381 3103 1925 3103 
Q 1469 3103 1208 2742 
Q 947 2381 947 1747 
z
" id="DejaVuSans-64" transform="scale(0.015625)"/>
       <path d="M 2375 4863 
L 2375 4384 
L 1825 4384 
Q 1516 4384 1395 4259 
Q 1275 4134 1275 3809 
L 1275 3500 
L 2222 3500 
L 2222 3053 
L 1275 3053 
L 1275 0 
L 697 0 
L 697 3053 
L 147 3053 
L 147 3500 
L 697 3500 
L 697 3744 
Q 697 4328 969 4595 
Q 1241 4863 1831 4863 
L 2375 4863 
z
" id="DejaVuSans-66" transform="scale(0.015625)"/>
       <path d="M 2631 2963 
Q 2534 3019 2420 3045 
Q 2306 3072 2169 3072 
Q 1681 3072 1420 2755 
Q 1159 2438 1159 1844 
L 1159 0 
L 581 0 
L 581 3500 
L 1159 3500 
L 1159 2956 
Q 1341 3275 1631 3429 
Q 1922 3584 2338 3584 
Q 2397 3584 2469 3576 
Q 2541 3569 2628 3553 
L 2631 2963 
z
" id="DejaVuSans-72" transform="scale(0.015625)"/>
       <path d="M 1147 4666 
L 1147 2931 
L 616 2931 
L 616 4666 
L 1147 4666 
z
M 2328 4666 
L 2328 2931 
L 1797 2931 
L 1797 4666 
L 2328 4666 
z
" id="DejaVuSans-22" transform="scale(0.015625)"/>
       <path d="M 313 2009 
L 1997 2009 
L 1997 1497 
L 313 1497 
L 313 2009 
z
" id="DejaVuSans-2d" transform="scale(0.015625)"/>
       <path d="M 3513 3500 
L 2247 1797 
L 3578 0 
L 2900 0 
L 1881 1375 
L 863 0 
L 184 0 
L 1544 1831 
L 300 3500 
L 978 3500 
L 1906 2253 
L 2834 3500 
L 3513 3500 
z
" id="DejaVuSans-78" transform="scale(0.015625)"/>
      </defs>
      <use xlink:href="#DejaVuSans-45"/>
      <use x="63.183594" xlink:href="#DejaVuSans-73"/>
      <use x="115.283203" xlink:href="#DejaVuSans-74"/>
      <use x="154.492188" xlink:href="#DejaVuSans-69"/>
      <use x="182.275391" xlink:href="#DejaVuSans-6d"/>
      <use x="279.6875" xlink:href="#DejaVuSans-61"/>
      <use x="340.966797" xlink:href="#DejaVuSans-74"/>
      <use x="380.175781" xlink:href="#DejaVuSans-65"/>
      <use x="441.699219" xlink:href="#DejaVuSans-64"/>
      <use x="505.175781" xlink:href="#DejaVuSans-20"/>
      <use x="536.962891" xlink:href="#DejaVuSans-66"/>
      <use x="572.167969" xlink:href="#DejaVuSans-65"/>
      <use x="633.691406" xlink:href="#DejaVuSans-65"/>
      <use x="695.214844" xlink:href="#DejaVuSans-20"/>
      <use x="727.001953" xlink:href="#DejaVuSans-66"/>
      <use x="762.207031" xlink:href="#DejaVuSans-6f"/>
      <use x="823.388672" xlink:href="#DejaVuSans-72"/>
      <use x="864.501953" xlink:href="#DejaVuSans-20"/>
      <use x="896.289062" xlink:href="#DejaVuSans-22"/>
      <use x="942.285156" xlink:href="#DejaVuSans-73"/>
      <use x="994.384766" xlink:href="#DejaVuSans-74"/>
      <use x="1033.59375" xlink:href="#DejaVuSans-61"/>
      <use x="1094.873047" xlink:href="#DejaVuSans-63"/>
      <use x="1149.853516" xlink:href="#DejaVuSans-6b"/>
      <use x="1207.763672" xlink:href="#DejaVuSans-2d"/>
      <use x="1243.847656" xlink:href="#DejaVuSans-73"/>
      <use x="1295.947266" xlink:href="#DejaVuSans-74"/>
      <use x="1335.15625" xlink:href="#DejaVuSans-78"/>
      <use x="1394.335938" xlink:href="#DejaVuSans-22"/>
     </g>
    </g>
   </g>
   <g id="line2d_16">
    <path clip-path="url(#p2965c54db3)" d="M 73.832727 295.31012 
L 73.832727 295.303479 
L 74.817723 295.294557 
L 75.211721 295.075483 
L 75.40872 295.267163 
L 75.211721 295.363004 
L 75.605719 295.307675 
L 75.802718 294.831773 
L 76.196717 295.204037 
L 76.590715 295.215094 
L 77.575711 295.403303 
L 79.348703 295.253932 
L 79.742701 295.335241 
L 81.515693 295.370499 
L 81.712692 294.910234 
L 82.10669 295.285679 
L 82.303689 286.043122 
L 82.697688 292.665742 
L 83.288685 294.837809 
L 84.076681 295.263839 
L 85.455675 295.203198 
L 86.440671 295.336923 
L 87.228667 295.319242 
L 87.425666 294.109137 
L 87.622665 294.928803 
L 88.016664 295.109298 
L 88.213663 295.190803 
L 88.410662 295.057611 
L 88.80466 295.271249 
L 89.198658 295.163524 
L 89.592657 295.283188 
L 90.380653 295.196048 
L 91.16865 295.192145 
L 91.365649 295.213207 
L 91.562648 294.651694 
L 91.956646 295.169818 
L 92.153645 295.154349 
L 92.547643 294.984681 
L 93.33564 295.289288 
L 94.123636 295.123977 
L 94.517635 295.260449 
L 94.911633 295.319814 
L 95.699629 295.254482 
L 95.896628 295.052966 
L 96.487626 295.257755 
L 97.275622 295.306128 
L 97.472621 295.368052 
L 97.66962 294.94802 
L 98.063619 295.206267 
L 98.260618 295.155636 
L 98.654616 295.313987 
L 98.851615 295.306288 
L 99.048614 289.78536 
L 99.442613 293.978793 
L 100.230609 295.205153 
L 100.427608 295.277038 
L 100.230609 295.363285 
L 100.427608 295.314972 
L 101.215605 295.326452 
L 101.609603 295.178681 
L 102.2006 295.35516 
L 102.594598 295.171377 
L 102.988597 295.335298 
L 103.382595 295.232282 
L 103.579594 294.444968 
L 103.776593 294.95464 
L 104.170591 295.270312 
L 104.56459 295.409136 
L 104.761589 295.402209 
L 104.958588 294.987961 
L 105.352586 295.210239 
L 105.549585 294.917251 
L 105.943583 295.27854 
L 106.534581 295.354955 
L 106.928579 295.342364 
L 107.322577 295.293567 
L 107.519576 295.185642 
L 107.913575 295.224133 
L 112.838553 295.306168 
L 113.232551 295.23358 
L 113.42955 294.934493 
L 114.020547 295.110199 
L 114.217546 294.742451 
L 114.611545 295.188724 
L 115.59654 295.297446 
L 116.384537 295.085728 
L 116.581536 295.1856 
L 116.778535 80.428933 
L 117.172533 236.993027 
L 117.566531 280.322638 
L 117.96053 291.470373 
L 118.354528 294.401449 
L 118.748526 295.025037 
L 118.945525 295.227506 
L 119.536523 295.258758 
L 119.733522 295.20559 
L 120.12752 295.321997 
L 120.324519 295.363295 
L 120.521518 295.277543 
L 120.718517 295.378038 
L 120.521518 295.24913 
L 120.915516 295.171817 
L 121.112515 295.297055 
L 121.309515 295.106853 
L 121.703513 295.326184 
L 122.885508 295.296543 
L 123.082507 294.965974 
L 123.476505 295.224493 
L 124.264501 295.170117 
L 124.4615 295.294712 
L 124.855499 295.283757 
L 125.249497 295.407706 
L 125.446496 295.214068 
L 125.840494 295.154801 
L 126.037493 295.065238 
L 126.431492 295.136014 
L 127.219488 295.082497 
L 127.416487 295.233662 
L 127.613486 295.139023 
L 128.007485 295.227656 
L 127.613486 295.121395 
L 128.204484 293.333172 
L 128.598482 294.332874 
L 128.795481 294.313578 
L 128.99248 294.659447 
L 129.189479 294.337845 
L 129.583477 294.919673 
L 129.780477 294.788428 
L 129.977476 294.821387 
L 130.174475 295.061901 
L 130.371474 294.893242 
L 130.568473 53.568 
L 130.765472 174.087722 
L 131.553469 278.871241 
L 131.750468 279.443041 
L 131.947467 287.252426 
L 132.341465 291.994804 
L 132.538464 293.079684 
L 132.735463 292.100569 
L 132.932462 293.212014 
L 133.129462 293.316903 
L 133.52346 294.950116 
L 133.917458 294.655235 
L 134.114457 292.857447 
L 135.099453 295.063081 
L 135.296452 295.065777 
L 135.493451 294.89518 
L 135.69045 294.980479 
L 135.887449 294.836369 
L 136.281447 295.179786 
L 136.478447 294.902892 
L 136.872445 295.289228 
L 137.069444 295.22352 
L 137.266443 294.920097 
L 137.463442 295.071497 
L 137.660441 294.31277 
L 138.05444 294.607422 
L 138.251439 294.907108 
L 138.448438 294.938736 
L 138.645437 293.432748 
L 138.842436 294.163682 
L 139.236434 294.647079 
L 139.433433 294.522195 
L 139.630432 294.584443 
L 139.827432 295.007209 
L 140.024431 295.061739 
L 140.22143 295.232336 
L 140.812427 295.326232 
L 141.009426 295.173312 
L 141.403425 295.179633 
L 141.600424 294.796654 
L 141.797423 294.979236 
L 141.994422 294.979237 
L 142.191421 295.16631 
L 142.585419 295.002407 
L 142.782418 295.16003 
L 143.176417 295.092658 
L 143.373416 294.294553 
L 143.570415 294.72539 
L 143.767414 294.509972 
L 143.964413 294.509972 
L 144.161412 292.064418 
L 144.55541 294.450794 
L 144.75241 289.416282 
L 145.146408 293.693756 
L 145.343407 294.513569 
L 145.540406 294.785984 
L 146.131403 294.892089 
L 146.328402 294.710037 
L 146.525402 294.811984 
L 146.9194 294.464779 
L 146.722401 294.895534 
L 147.116399 295.072204 
L 147.313398 294.822288 
L 147.510397 294.907656 
L 147.707396 288.798004 
L 146.9194 290.958157 
L 147.904395 293.193318 
L 148.101395 294.002384 
L 148.298394 294.318895 
L 148.495393 294.016255 
L 148.889391 294.629101 
L 149.08639 294.488068 
L 149.283389 294.899214 
L 149.480388 295.02405 
L 149.677387 294.366296 
L 150.071386 294.953679 
L 150.465384 294.920487 
L 150.859382 295.287222 
L 151.056381 295.099677 
L 151.25338 295.098071 
L 151.45038 294.825952 
L 152.238376 295.009981 
L 153.223372 294.832194 
L 153.61737 295.263614 
L 154.011368 295.199064 
L 154.208367 295.223211 
L 154.405366 295.031907 
L 154.602365 293.965435 
L 154.799365 294.451699 
L 154.996364 294.276705 
L 155.390362 294.531699 
L 155.587361 293.343836 
L 155.981359 294.344711 
L 156.375357 294.417142 
L 156.572357 294.179628 
L 156.769356 294.266087 
L 156.966355 294.024341 
L 157.360353 294.508485 
L 157.557352 294.47592 
L 157.754351 294.216407 
L 157.95135 294.362446 
L 158.14835 294.21454 
L 158.542348 294.251984 
L 158.14835 294.234196 
L 158.739347 294.23187 
L 159.133345 294.837506 
L 159.330344 294.95189 
L 159.724342 294.862883 
L 160.118341 294.997127 
L 160.512339 295.038704 
L 160.906337 295.223952 
L 161.103336 294.761816 
L 161.891333 295.17645 
L 162.088332 294.860212 
L 162.48233 295.082121 
L 162.285331 295.07019 
L 163.861324 295.06967 
L 164.058323 287.542255 
L 164.452321 293.210994 
L 164.64932 293.990495 
L 165.043319 294.092042 
L 164.64932 293.750251 
L 165.634316 294.110988 
L 165.831315 294.566006 
L 166.028314 294.620088 
L 166.225313 294.974556 
L 166.619312 294.907089 
L 167.210309 294.982903 
L 167.407308 294.973476 
L 167.604307 294.814701 
L 167.998305 294.940925 
L 168.392304 294.961962 
L 168.589303 294.607537 
L 168.786302 294.944838 
L 168.983301 294.843008 
L 169.771297 295.027507 
L 169.968297 295.211395 
L 171.741289 295.238369 
L 171.938288 294.742732 
L 172.332286 295.062679 
L 172.726284 295.039601 
L 175.090274 294.992467 
L 175.287273 295.154378 
L 175.681271 295.062372 
L 176.469267 295.010729 
L 176.666267 295.086168 
L 177.257264 295.0129 
L 177.848261 294.999824 
L 178.636258 295.023651 
L 179.030256 295.228883 
L 180.212251 295.176554 
L 180.40925 295.109882 
L 180.606249 294.810621 
L 180.803248 294.961998 
L 181.394245 294.625904 
L 181.591244 294.747253 
L 181.788244 294.686579 
L 181.985243 294.905783 
L 182.182242 294.826518 
L 182.379241 197.009054 
L 182.773239 270.470182 
L 183.167237 288.922174 
L 183.364237 291.683573 
L 183.758235 293.450947 
L 183.955234 294.361587 
L 184.152233 294.645073 
L 184.349232 294.657555 
L 184.940229 295.166686 
L 185.334228 295.196232 
L 186.319223 295.227242 
L 186.516222 294.987197 
L 186.713222 295.109066 
L 187.10722 295.188053 
L 187.501218 294.980884 
L 188.683213 295.15337 
L 189.077211 295.091649 
L 189.27421 294.595627 
L 189.471209 294.928706 
L 189.668208 294.995258 
L 189.865207 294.879057 
L 190.062207 293.88901 
L 189.865207 294.394218 
L 190.456205 294.835004 
L 190.653204 295.045202 
L 190.850203 295.045154 
L 191.047202 294.864206 
L 191.244201 294.838601 
L 191.638199 295.22422 
L 191.835199 294.741023 
L 192.032198 294.983106 
L 192.426196 294.957238 
L 192.820194 295.229071 
L 193.214192 295.332064 
L 193.411192 295.301964 
L 193.214192 295.319352 
L 193.608191 295.002713 
L 193.80519 295.072889 
L 194.199188 294.974109 
L 194.593186 295.132369 
L 194.987184 295.001901 
L 195.184184 295.086727 
L 195.578182 295.017839 
L 195.775181 295.1981 
L 196.169179 295.287805 
L 196.563177 294.444661 
L 196.957176 294.74026 
L 197.154175 294.645688 
L 197.351174 294.714643 
L 197.548173 293.797376 
L 197.745172 293.998071 
L 197.942171 294.61839 
L 198.13917 294.666631 
L 198.336169 294.521626 
L 198.730168 294.72222 
L 198.927167 294.896434 
L 199.124166 294.636528 
L 199.321165 294.809737 
L 199.518164 294.723133 
L 199.715163 294.78587 
L 200.109162 295.130035 
L 200.306161 294.902102 
L 200.50316 294.995677 
L 200.700159 294.773397 
L 201.094157 294.963405 
L 201.291156 295.017026 
L 201.094157 294.942325 
L 201.488155 294.66328 
L 201.882154 294.855816 
L 202.079153 294.734688 
L 202.276152 294.798073 
L 202.473151 294.621522 
L 202.67015 294.946915 
L 202.867149 294.937997 
L 203.064148 293.918515 
L 203.458147 294.607652 
L 203.655146 294.662603 
L 203.852145 294.519613 
L 204.049144 294.920831 
L 204.246143 294.702208 
L 204.443142 294.954354 
L 204.640141 292.315514 
L 205.034139 294.32179 
L 205.231139 294.831404 
L 205.428138 294.307306 
L 206.019135 294.790169 
L 206.216134 294.064652 
L 206.019135 293.809348 
L 206.807132 294.894086 
L 207.20113 294.567852 
L 207.398129 294.71807 
L 207.595128 294.713816 
L 207.989126 295.141942 
L 208.186125 295.002712 
L 208.974122 294.986394 
L 209.171121 294.681508 
L 209.762118 295.041345 
L 209.959117 294.949682 
L 210.156117 295.118472 
L 210.550115 295.010087 
L 212.323107 294.991856 
L 212.520106 294.833013 
L 212.717105 295.012741 
L 213.111103 294.76824 
L 213.702101 295.153963 
L 213.8991 286.72477 
L 214.096099 292.800783 
L 214.293098 293.824695 
L 214.490097 294.247366 
L 214.884095 294.346001 
L 215.278094 294.81132 
L 216.06609 294.801622 
L 216.263089 295.048609 
L 216.460088 295.077992 
L 216.854086 295.271196 
L 217.051086 294.728319 
L 217.248085 294.990959 
L 217.445084 294.75116 
L 217.642083 294.739709 
L 217.839082 294.901322 
L 218.036081 294.634139 
L 218.23308 294.686921 
L 218.430079 294.530811 
L 218.627079 294.838272 
L 218.824078 294.797754 
L 219.021077 293.848393 
L 219.218076 294.648897 
L 219.415075 294.859772 
L 219.809073 294.601511 
L 220.006072 294.9888 
L 220.400071 293.585954 
L 220.59707 294.068535 
L 220.991068 289.048176 
L 221.385066 293.714024 
L 221.779064 294.368943 
L 221.582065 294.146147 
L 222.173063 294.362379 
L 222.370062 294.3935 
L 222.76406 294.957222 
L 223.355057 295.023632 
L 223.552056 295.195983 
L 223.749056 294.935076 
L 223.946055 294.871751 
L 224.143054 295.13158 
L 224.340053 295.020004 
L 224.537052 294.629377 
L 224.93105 294.913424 
L 224.734051 80.292845 
L 225.522048 267.106114 
L 225.916046 287.603712 
L 225.719047 287.88276 
L 226.310044 292.509426 
L 226.704042 293.664434 
L 227.29504 293.069047 
L 227.689038 293.327634 
L 227.886037 294.325857 
L 228.083036 293.914389 
L 228.280035 294.579195 
L 228.477034 292.168265 
L 228.871033 293.882081 
L 229.068032 294.121578 
L 229.265031 293.715836 
L 229.46203 294.06115 
L 230.053027 294.306133 
L 230.447026 294.021887 
L 230.644025 294.424762 
L 230.841024 294.487939 
L 231.038023 293.913537 
L 231.432021 294.649386 
L 231.62902 294.649387 
L 231.826019 294.761204 
L 232.023019 295.068685 
L 232.220018 294.748249 
L 232.614016 294.690129 
L 232.811015 294.998812 
L 233.205013 294.999218 
L 233.402012 294.530192 
L 233.599011 294.669428 
L 233.796011 294.599812 
L 233.99301 294.076928 
L 234.387008 294.254215 
L 234.584007 294.797616 
L 234.781006 294.501493 
L 234.978005 291.292957 
L 235.372004 294.270076 
L 235.963001 294.046726 
L 236.356999 294.215802 
L 236.553998 294.130937 
L 236.750997 294.699058 
L 236.947996 294.464155 
L 237.144996 294.653823 
L 237.341995 294.663996 
L 237.538994 290.777946 
L 237.341995 292.691489 
L 237.735993 293.604367 
L 237.932992 294.432943 
L 238.720989 294.322761 
L 238.917988 294.822661 
L 239.114987 294.669953 
L 239.508985 294.917687 
L 239.705984 294.573338 
L 239.902983 294.47402 
L 240.099982 294.574095 
L 240.296981 294.305114 
L 240.493981 294.806418 
L 239.902983 287.410629 
L 240.69098 290.980873 
L 240.887979 292.829566 
L 241.675975 294.188683 
L 242.266973 294.634168 
L 242.463972 294.95388 
L 242.660971 294.815202 
L 243.251968 294.683159 
L 243.448967 294.118601 
L 243.645966 294.571328 
L 244.236964 294.481832 
L 244.433963 287.248336 
L 244.827961 292.77042 
L 245.02496 294.396126 
L 245.221959 294.390181 
L 245.418959 294.532175 
L 245.812957 294.415961 
L 246.009956 294.632284 
L 246.600953 294.563691 
L 246.797952 294.917632 
L 247.191951 294.408673 
L 247.38895 294.628641 
L 247.979947 294.437945 
L 248.176946 294.859159 
L 248.373945 294.120217 
L 248.570944 293.973386 
L 248.964943 294.374983 
L 249.161942 293.636973 
L 249.358941 294.078567 
L 249.752939 294.389355 
L 249.949938 294.233962 
L 250.146937 290.085356 
L 250.343936 292.004353 
L 250.540936 287.968534 
L 250.737935 289.209922 
L 250.934934 292.168919 
L 251.328932 294.096737 
L 251.525931 294.010044 
L 251.72293 294.463348 
L 252.116929 294.744825 
L 252.313928 294.576741 
L 252.510927 295.013136 
L 252.904925 294.857237 
L 253.298923 294.541658 
L 252.904925 294.539476 
L 253.692921 294.75705 
L 254.08692 294.018441 
L 254.283919 294.348351 
L 254.480918 294.122327 
L 255.071915 294.559921 
L 255.268914 294.416817 
L 255.662913 294.45271 
L 255.859912 294.281655 
L 256.25391 294.642139 
L 256.450909 294.866139 
L 256.647908 294.691259 
L 256.844907 294.832814 
L 257.041906 294.65973 
L 257.238906 294.754169 
L 257.435905 295.025355 
L 257.632904 294.663935 
L 258.026902 294.905507 
L 258.223901 294.82497 
L 258.4209 294.949452 
L 259.405896 294.711096 
L 259.602895 294.743469 
L 259.799894 294.427034 
L 259.996893 292.723441 
L 260.390891 294.028037 
L 260.981889 294.813462 
L 261.178888 294.674792 
L 260.981889 294.547792 
L 261.375887 294.591051 
L 261.572886 294.75347 
L 261.769885 294.652293 
L 262.163883 294.750451 
L 261.769885 294.444935 
L 262.360883 258.828778 
L 262.754881 285.800297 
L 262.95188 292.641985 
L 263.148879 293.979819 
L 263.542877 294.329748 
L 263.739876 294.752884 
L 263.936876 294.798188 
L 263.542877 294.591212 
L 263.936876 294.571164 
L 264.133875 294.8905 
L 264.330874 294.788668 
L 264.527873 294.944248 
L 264.724872 294.747682 
L 264.921871 293.530638 
L 265.11887 294.14052 
L 265.315869 294.297762 
L 265.512868 294.650356 
L 265.709868 294.474513 
L 265.906867 294.702986 
L 266.103866 293.416632 
L 266.300865 294.24364 
L 266.497864 293.911387 
L 266.694863 293.992867 
L 266.891862 294.768119 
L 267.088861 295.042204 
L 267.876858 294.590163 
L 268.073857 294.943352 
L 268.467855 294.70961 
L 268.861853 294.732983 
L 269.452851 294.706724 
L 269.64985 293.802843 
L 269.846849 293.665216 
L 270.043848 294.191579 
L 270.240847 294.057465 
L 270.437846 294.439142 
L 271.028844 294.398332 
L 271.619841 294.725459 
L 272.013839 294.705288 
L 272.210838 294.954181 
L 272.604837 294.646088 
L 272.801836 294.971314 
L 272.998835 294.974263 
L 273.195834 295.133778 
L 273.392833 295.04822 
L 274.377829 295.028036 
L 274.574828 294.851103 
L 274.771827 294.842388 
L 274.968826 294.946386 
L 275.559823 294.764433 
L 275.953822 295.24168 
L 276.150821 294.896398 
L 275.953822 294.755945 
L 276.34782 294.638053 
L 276.544819 295.029704 
L 276.741818 294.730497 
L 276.938817 294.640807 
L 277.135816 294.684646 
L 277.332816 294.412914 
L 277.529815 294.543542 
L 277.726814 294.476725 
L 277.923813 294.660749 
L 278.120812 294.64202 
L 278.317811 294.440385 
L 278.51481 291.056882 
L 278.711809 292.272977 
L 278.908808 292.36002 
L 279.105808 293.82828 
L 279.302807 294.189698 
L 279.696805 294.004214 
L 280.090803 294.906058 
L 280.287802 295.020597 
L 280.484801 294.717136 
L 280.681801 294.864154 
L 280.8788 294.638914 
L 281.075799 294.829744 
L 281.272798 294.773435 
L 281.469797 294.019232 
L 281.666796 294.43392 
L 281.469797 294.641264 
L 282.454793 294.706633 
L 282.651792 295.014597 
L 282.848791 295.014597 
L 283.04579 294.890415 
L 283.242789 295.059539 
L 283.439788 294.816626 
L 283.242789 294.807779 
L 284.030786 294.949986 
L 284.621783 294.671735 
L 285.21278 295.085951 
L 285.409779 295.058458 
L 285.606778 294.852098 
L 285.803778 294.254356 
L 286.197776 294.786837 
L 286.394775 294.587616 
L 286.591774 294.658571 
L 286.788773 293.516922 
L 286.985772 294.080582 
L 287.182771 294.123821 
L 286.591774 293.520198 
L 287.379771 293.301363 
L 287.57677 293.108969 
L 287.773769 293.978789 
L 288.364766 294.489971 
L 288.167767 294.768376 
L 288.758764 294.719274 
L 288.955763 294.33287 
L 289.349762 294.844089 
L 289.546761 294.95295 
L 289.74376 294.567367 
L 289.940759 294.827814 
L 290.137758 294.662974 
L 290.334757 293.085706 
L 290.728756 294.619299 
L 291.122754 294.590461 
L 291.319753 293.780112 
L 291.713751 294.276599 
L 291.91075 292.938672 
L 292.107749 294.025591 
L 292.304748 294.34988 
L 292.501748 294.363251 
L 292.698747 294.576016 
L 292.895746 294.623027 
L 293.092745 294.202014 
L 293.880741 294.658885 
L 294.27474 295.135134 
L 294.668738 294.519621 
L 294.865737 294.834624 
L 295.062736 294.775034 
L 295.456734 294.948907 
L 295.653733 293.465987 
L 295.850733 293.505877 
L 296.44173 294.924958 
L 296.638729 294.799683 
L 296.835728 294.892104 
L 297.032727 294.783137 
L 297.229726 294.452706 
L 297.426726 294.822248 
L 297.820724 294.748209 
L 298.017723 294.538021 
L 298.60872 294.628426 
L 299.790715 294.659834 
L 299.987714 294.886039 
L 300.184713 294.772937 
L 300.381712 295.101456 
L 300.578711 294.091992 
L 300.97271 294.698652 
L 301.169709 295.165162 
L 301.366708 294.867012 
L 301.563707 294.812691 
L 301.957705 294.122445 
L 302.154704 294.785988 
L 302.351703 294.581305 
L 302.548703 294.608355 
L 302.745702 294.458081 
L 302.942701 294.653344 
L 303.533698 294.374494 
L 303.730697 294.461066 
L 304.124695 294.418844 
L 304.321695 294.744746 
L 303.730697 294.573951 
L 304.518694 294.475287 
L 305.109691 294.082838 
L 305.30669 294.330885 
L 305.700688 294.033982 
L 305.897688 294.499996 
L 306.094687 294.453229 
L 306.291686 294.874885 
L 306.488685 294.649599 
L 307.079682 294.390232 
L 307.276681 294.632814 
L 307.47368 294.544807 
L 308.064678 294.669271 
L 308.261677 295.015813 
L 308.064678 294.736901 
L 308.458676 294.981088 
L 308.655675 294.921679 
L 308.852674 294.736397 
L 309.049673 294.993441 
L 309.640671 294.756558 
L 309.83767 294.692551 
L 310.231668 294.094381 
L 310.428667 292.763864 
L 310.625666 260.794815 
L 311.019665 285.555104 
L 311.216664 287.536827 
L 311.413663 291.284864 
L 311.807661 293.513097 
L 312.201659 294.341133 
L 312.398658 294.340691 
L 312.792657 294.751336 
L 312.989656 295.033812 
L 313.186655 294.853991 
L 313.383654 294.424895 
L 313.580653 294.472045 
L 313.777652 294.26694 
L 313.974651 294.369491 
L 314.17165 294.660037 
L 314.36865 294.514764 
L 314.565649 294.958849 
L 315.747643 295.022001 
L 315.944643 292.427371 
L 316.141642 79.662222 
L 316.53564 241.052426 
L 316.929638 281.336656 
L 317.323636 291.180831 
L 317.717635 294.27072 
L 317.914634 294.36376 
L 318.111633 294.711079 
L 318.308632 294.826921 
L 318.505631 295.122314 
L 318.70263 295.193333 
L 318.899629 295.105421 
L 318.70263 294.868715 
L 319.884625 294.977975 
L 320.672621 294.926003 
L 320.86962 294.92724 
L 321.06662 295.09311 
L 321.263619 295.008488 
L 321.460618 295.162388 
L 322.051615 295.125565 
L 322.248614 294.838341 
L 322.839612 295.101442 
L 323.036611 294.592119 
L 323.23361 295.117155 
L 323.430609 294.770788 
L 323.824607 294.733822 
L 324.612604 294.793619 
L 324.809603 295.075289 
L 325.006602 294.813203 
L 325.203601 294.801871 
L 325.4006 295.069084 
L 325.794598 295.068231 
L 325.991598 295.239095 
L 326.188597 295.109927 
L 326.779594 295.119151 
L 326.976593 294.252783 
L 327.173592 294.039669 
L 327.370591 294.579024 
L 327.56759 294.534223 
L 327.76459 294.86796 
L 327.961589 294.858284 
L 328.158588 295.107083 
L 328.355587 294.795528 
L 328.749585 295.238686 
L 328.946584 294.986012 
L 329.340583 295.144221 
L 329.537582 294.847669 
L 329.734581 290.01015 
L 329.93158 292.358391 
L 330.128579 289.164812 
L 330.522577 293.49978 
L 330.916575 294.633081 
L 331.310574 294.752647 
L 332.09857 295.155447 
L 332.886567 295.090728 
L 333.280565 295.235079 
L 333.871562 295.301835 
L 334.46256 295.385612 
L 334.659559 295.288701 
L 334.856558 295.380938 
L 335.053557 295.074879 
L 335.447555 295.315485 
L 335.644554 284.596302 
L 336.038553 292.545287 
L 336.235552 293.377144 
L 337.023548 295.14394 
L 337.417546 295.268095 
L 338.205543 295.330987 
L 338.402542 295.407928 
L 338.79654 295.38105 
L 338.993539 294.991849 
L 339.584537 295.305684 
L 340.175534 295.140286 
L 340.372533 294.70138 
L 340.766531 295.265639 
L 341.751527 295.39386 
L 344.312515 295.290274 
L 344.509515 294.846548 
L 345.49451 295.344678 
L 345.691509 295.03484 
L 345.888508 295.052744 
L 346.085508 295.198711 
L 347.070503 295.067405 
L 347.464501 295.27976 
L 347.6615 294.824638 
L 348.055499 294.619156 
L 348.252498 294.721898 
L 348.646496 294.696395 
L 349.040494 295.180007 
L 349.237493 295.081476 
L 350.222489 295.429593 
L 350.419488 295.331984 
L 350.616487 295.379069 
L 350.813486 295.207232 
L 351.404484 295.261179 
L 351.601483 295.148287 
L 351.995481 295.275291 
L 352.19248 294.825957 
L 352.586478 295.150199 
L 354.35947 295.023934 
L 354.55647 294.845554 
L 354.753469 294.939193 
L 354.950468 294.88667 
L 355.147467 295.046866 
L 355.344466 294.953959 
L 355.738464 295.154068 
L 355.935463 295.306217 
L 356.329462 295.278118 
L 356.920459 295.314581 
L 358.102454 295.286791 
L 358.496452 294.798688 
L 360.269444 295.391344 
L 361.25444 295.41715 
L 361.451439 295.150839 
L 361.845437 295.345511 
L 362.239435 295.326855 
L 362.633433 295.062526 
L 363.224431 295.072889 
L 363.618429 293.255923 
L 363.815428 294.338791 
L 364.012427 294.517983 
L 364.209426 294.077241 
L 364.603425 294.534837 
L 364.800424 294.544335 
L 364.997423 294.150874 
L 365.194422 294.770702 
L 365.391421 294.839825 
L 365.58842 295.052836 
L 365.785419 294.999585 
L 366.573416 295.310757 
L 366.967414 295.252398 
L 368.149409 295.326146 
L 368.346408 295.123661 
L 368.543407 295.230437 
L 368.740406 295.177049 
L 368.937405 295.317838 
L 369.331403 294.992669 
L 369.528402 295.173907 
L 369.725402 295.051233 
L 370.1194 295.084289 
L 370.316399 295.051758 
L 370.513398 295.21898 
L 370.907396 295.299564 
L 371.104395 294.648911 
L 371.301395 294.961206 
L 371.695393 295.00101 
L 372.089391 295.085381 
L 372.483389 294.620683 
L 372.877387 295.126853 
L 373.074387 295.028999 
L 373.271386 295.173326 
L 373.665384 295.115863 
L 374.059382 294.838247 
L 374.256381 294.936821 
L 374.45338 295.203198 
L 374.847379 295.149787 
L 375.241377 295.20226 
L 375.438376 295.211366 
L 375.635375 294.961403 
L 375.832374 295.043031 
L 376.029373 294.805106 
L 376.81737 295.150678 
L 377.014369 295.065485 
L 377.211368 295.189536 
L 377.408367 295.086693 
L 377.802365 295.218077 
L 378.393363 295.104199 
L 378.590362 295.257006 
L 378.787361 294.235531 
L 378.98436 294.168258 
L 379.575357 295.130093 
L 379.772357 294.456344 
L 379.969356 294.761202 
L 380.363354 294.783055 
L 380.560353 295.067678 
L 380.757352 294.952735 
L 380.954351 295.085313 
L 381.34835 295.019026 
L 381.939347 295.05041 
L 382.136346 295.031484 
L 382.333345 293.965258 
L 382.530344 294.71512 
L 382.727343 294.788086 
L 382.924342 295.126643 
L 383.121342 295.091733 
L 383.318341 294.494019 
L 383.909338 295.111709 
L 384.106337 295.202372 
L 384.303336 295.166336 
L 384.697335 294.9151 
L 384.894334 295.137697 
L 385.091333 294.905933 
L 385.68233 295.05554 
L 386.076328 295.05554 
L 386.273327 295.189081 
L 386.470327 295.094765 
L 386.667326 294.863386 
L 386.864325 295.016586 
L 387.061324 294.939989 
L 387.652321 295.287975 
L 387.84932 295.14414 
L 388.04632 295.270818 
L 388.637317 295.082575 
L 389.031315 295.324388 
L 389.819312 295.081247 
L 390.410309 295.09709 
L 390.607308 294.325567 
L 390.804307 294.446374 
L 391.198305 294.440503 
L 391.395305 294.880127 
L 391.789303 294.867743 
L 392.183301 294.850322 
L 392.3803 295.142216 
L 392.577299 294.99736 
L 393.365296 294.962021 
L 393.562295 271.782029 
L 393.956293 288.780119 
L 394.350291 291.170468 
L 394.54729 291.723789 
L 394.744289 292.847193 
L 394.941289 290.457973 
L 395.138288 256.580943 
L 395.532286 284.472368 
L 395.729285 282.243604 
L 396.320282 292.308678 
L 396.91128 293.905967 
L 397.108279 293.618535 
L 397.305278 293.757419 
L 397.896275 294.82735 
L 398.093274 294.668222 
L 398.487273 294.728933 
L 398.487273 294.728933 
" style="fill:none;stroke:#1f77b4;stroke-linecap:square;stroke-width:1.5;"/>
   </g>
   <g id="line2d_17">
    <path clip-path="url(#p2965c54db3)" d="M 73.832727 295.44268 
L 75.014722 295.413649 
L 75.211721 295.02785 
L 75.802718 295.002458 
L 75.999718 295.084974 
L 76.196717 295.35319 
L 76.590715 295.427393 
L 78.166708 295.476042 
L 88.410662 295.376859 
L 89.198658 295.280292 
L 89.592657 295.388817 
L 89.986655 295.24426 
L 90.183654 295.388817 
L 90.380653 295.24426 
L 90.577652 295.434181 
L 95.50263 295.329635 
L 95.896628 295.244614 
L 96.487626 295.244614 
L 96.881624 295.431786 
L 99.048614 295.428422 
L 115.005543 295.354787 
L 115.399541 295.295723 
L 115.793539 295.433098 
L 116.187538 295.433098 
L 128.598482 295.327462 
L 128.795481 295.250164 
L 128.99248 295.327462 
L 129.189479 295.250164 
L 129.583477 295.484001 
L 132.341465 295.398701 
L 132.538464 294.994005 
L 132.735463 295.398701 
L 132.932462 295.398701 
L 133.129462 294.517323 
L 133.326461 294.517323 
L 133.52346 295.357434 
L 133.720459 295.363614 
L 133.917458 295.485453 
L 135.69045 295.480306 
L 136.281447 295.442124 
L 136.675446 295.329163 
L 137.069444 295.464836 
L 138.448438 295.48255 
L 139.433433 295.474557 
L 139.630432 295.070394 
L 139.827432 295.070394 
L 140.024431 295.377114 
L 140.418429 295.487965 
L 141.600424 295.439775 
L 141.797423 295.254305 
L 141.994422 295.254305 
L 142.38842 295.452759 
L 143.373416 295.477189 
L 146.131403 295.384346 
L 146.328402 294.819424 
L 146.722401 294.819424 
L 146.9194 295.320816 
L 146.722401 295.348687 
L 147.510397 295.348687 
L 146.9194 295.394162 
L 149.677387 295.455092 
L 150.662383 295.435282 
L 153.026372 295.39377 
L 153.223372 294.978066 
L 153.420371 294.978066 
L 153.61737 295.432696 
L 154.208367 295.425372 
L 154.799365 295.194405 
L 155.193363 294.700077 
L 155.390362 294.839818 
L 155.587361 295.317653 
L 155.78436 295.317653 
L 155.981359 295.163827 
L 157.360353 295.187327 
L 157.557352 295.012875 
L 157.754351 295.388723 
L 158.542348 295.306123 
L 158.14835 295.293265 
L 158.936346 295.086065 
L 159.527343 295.150363 
L 160.118341 295.340767 
L 162.088332 295.353615 
L 162.48233 295.26279 
L 162.285331 295.26279 
L 164.255322 295.138892 
L 164.452321 295.427856 
L 165.240318 295.455656 
L 166.422312 295.306876 
L 167.01331 295.381802 
L 167.604307 295.339406 
L 168.786302 295.445233 
L 168.983301 295.286843 
L 169.377299 295.286843 
L 169.574298 295.081681 
L 169.968297 295.417179 
L 170.362295 295.338535 
L 170.756293 295.40649 
L 171.938288 295.384332 
L 172.332286 295.094059 
L 172.923283 295.126476 
L 173.317282 295.356018 
L 175.681271 295.343107 
L 175.87827 295.154379 
L 177.060265 295.421145 
L 177.848261 295.390617 
L 182.57624 295.4685 
L 182.773239 295.274928 
L 183.167237 295.25986 
L 183.561236 295.171553 
L 184.152233 295.171553 
L 184.546231 295.300275 
L 185.531227 295.348301 
L 186.122224 295.45825 
L 187.304219 295.298861 
L 187.698217 295.367868 
L 188.092215 295.277107 
L 189.077211 295.313923 
L 189.471209 295.421428 
L 190.062207 295.406004 
L 189.865207 295.398636 
L 190.850203 295.249907 
L 193.411192 295.45758 
L 193.214192 295.460856 
L 193.80519 295.454261 
L 194.199188 295.329117 
L 195.97218 295.322561 
L 196.563177 295.374807 
L 197.351174 295.316568 
L 199.912162 295.419316 
L 200.109162 295.449277 
L 200.306161 295.339329 
L 200.700159 295.464694 
L 201.685154 295.364867 
L 201.882154 295.128064 
L 202.473151 295.203674 
L 203.458147 295.416013 
L 203.655146 295.317427 
L 204.640141 295.458639 
L 207.004131 295.417615 
L 207.20113 295.285396 
L 207.595128 295.445228 
L 208.974122 295.338319 
L 209.36812 295.25497 
L 209.762118 295.341123 
L 211.53511 295.220082 
L 212.126108 295.164787 
L 212.520106 295.260533 
L 213.308102 295.310371 
L 213.8991 295.382245 
L 214.490097 295.454928 
L 214.884095 295.260409 
L 215.672092 295.323858 
L 215.869091 295.38653 
L 216.263089 295.316335 
L 217.051086 295.38988 
L 217.839082 295.323302 
L 221.779064 295.271706 
L 221.582065 295.271706 
L 222.173063 295.069759 
L 222.567061 295.069759 
L 222.961059 295.323803 
L 224.143054 295.399641 
L 224.537052 295.399199 
L 224.734051 295.27957 
L 224.93105 295.389607 
L 224.734051 295.389607 
L 225.522048 295.318139 
L 227.886037 295.342642 
L 228.083036 294.462364 
L 228.280035 295.342642 
L 228.477034 295.342642 
L 228.674034 295.138315 
L 229.068032 295.138315 
L 229.265031 294.65308 
L 229.46203 294.965588 
L 229.856028 294.965588 
L 230.053027 295.288148 
L 231.432021 295.258901 
L 231.62902 295.144662 
L 232.023019 295.272429 
L 233.008014 295.471885 
L 234.387008 295.27033 
L 234.781006 295.278947 
L 234.978005 295.457381 
L 235.372004 295.458002 
L 235.569003 295.134433 
L 236.750997 295.206477 
L 236.947996 295.267179 
L 237.341995 295.206477 
L 237.538994 295.267179 
L 237.341995 295.381536 
L 237.735993 295.193152 
L 237.932992 295.402631 
L 238.129991 295.402631 
L 238.523989 295.096605 
L 238.720989 295.266962 
L 238.917988 295.266962 
L 239.114987 295.096605 
L 240.493981 295.360735 
L 239.902983 295.360735 
L 240.69098 295.360735 
L 240.887979 295.212152 
L 241.084978 295.428924 
L 241.478976 295.212152 
L 242.069974 295.266531 
L 242.266973 295.185477 
L 242.660971 295.330248 
L 242.85797 295.335122 
L 243.054969 295.480094 
L 243.448967 295.487856 
L 243.645966 295.283501 
L 243.842966 295.283501 
L 244.039965 295.446852 
L 244.236964 295.283501 
L 244.433963 295.435135 
L 244.630962 295.435135 
L 244.827961 295.310376 
L 245.812957 295.29967 
L 246.009956 295.052976 
L 246.206955 295.29967 
L 246.403954 295.070648 
L 246.797952 295.122204 
L 247.191951 295.358588 
L 247.782948 295.327503 
L 247.979947 294.917569 
L 248.176946 294.917569 
L 248.373945 295.327503 
L 248.570944 295.132078 
L 248.767944 295.339538 
L 250.737935 295.321832 
L 250.934934 295.062935 
L 251.131933 295.070648 
L 251.328932 295.262242 
L 251.525931 295.070648 
L 251.72293 295.262242 
L 252.116929 295.249903 
L 252.313928 295.133732 
L 252.707926 295.249903 
L 253.692921 295.322561 
L 254.283919 295.426147 
L 254.480918 295.426147 
L 254.677917 295.125164 
L 255.268914 295.125164 
L 255.465914 295.267481 
L 255.662913 295.267481 
L 255.859912 295.046472 
L 257.041906 295.156172 
L 257.238906 294.848608 
L 257.632904 295.357177 
L 258.026902 295.391012 
L 258.223901 295.179563 
L 258.4209 295.179563 
L 258.814898 295.308057 
L 259.011898 295.308057 
L 259.405896 295.482037 
L 259.996893 295.482037 
L 260.193892 295.22358 
L 259.996893 295.22358 
L 262.163883 295.300169 
L 261.769885 295.329589 
L 262.557882 295.435546 
L 262.754881 295.435546 
L 262.95188 295.291559 
L 263.345878 295.398549 
L 263.936876 295.398549 
L 263.542877 295.412225 
L 263.936876 295.27172 
L 264.527873 295.324079 
L 264.921871 295.2986 
L 265.512868 295.257558 
L 267.285861 295.404046 
L 267.48286 295.322561 
L 267.876858 295.424809 
L 268.270856 295.355781 
L 269.64985 295.377747 
L 270.043848 295.483742 
L 270.437846 295.200861 
L 271.81684 295.283229 
L 272.013839 295.320753 
L 272.210838 295.487792 
L 272.801836 295.415122 
L 272.998835 295.342503 
L 273.195834 295.415122 
L 273.392833 295.342503 
L 273.983831 295.488 
L 274.18083 295.451444 
L 274.377829 295.273136 
L 276.34782 295.359584 
L 276.544819 295.421058 
L 276.938817 295.322561 
L 277.923813 295.322561 
L 279.302807 295.461137 
L 279.696805 295.209533 
L 279.893804 295.34881 
L 281.469797 295.375435 
L 281.666796 295.097339 
L 281.469797 295.070648 
L 281.863795 295.097339 
L 282.060794 295.321826 
L 283.833786 295.382918 
L 283.242789 295.464892 
L 284.030786 295.347754 
L 284.227785 295.486611 
L 285.803778 295.371417 
L 287.182771 295.356249 
L 286.591774 295.245344 
L 287.773769 295.362968 
L 288.167767 295.273518 
L 288.561765 295.326074 
L 288.955763 295.48554 
L 289.546761 295.476609 
L 290.334757 295.06181 
L 290.728756 295.272149 
L 291.319753 295.483586 
L 291.713751 295.430001 
L 291.91075 295.062935 
L 292.501748 295.110563 
L 292.698747 295.354323 
L 293.683742 295.397084 
L 293.880741 295.09518 
L 294.077741 295.09518 
L 294.27474 295.249074 
L 294.471739 295.249074 
L 294.27474 295.467248 
L 295.259735 295.392917 
L 295.653733 295.303784 
L 296.835728 295.328266 
L 297.229726 295.236358 
L 297.820724 295.470921 
L 298.017723 295.322561 
L 300.381712 295.346649 
L 300.578711 295.463273 
L 301.169709 295.323239 
L 301.563707 295.317776 
L 301.760706 295.487888 
L 301.957705 295.250404 
L 302.351703 295.353038 
L 302.745702 295.486209 
L 302.942701 295.430752 
L 303.1397 294.987145 
L 303.336699 294.987145 
L 303.730697 295.33034 
L 303.927696 295.477775 
L 304.321695 295.359784 
L 303.730697 295.33034 
L 304.912692 295.321912 
L 305.109691 295.277284 
L 305.30669 295.453413 
L 305.700688 295.157319 
L 306.094687 295.272716 
L 306.685684 295.272716 
L 306.882683 295.487679 
L 307.079682 295.402934 
L 307.47368 295.487752 
L 308.064678 295.335792 
L 309.246673 295.39945 
L 309.640671 295.205452 
L 309.83767 295.205452 
L 310.231668 295.007578 
L 310.428667 295.205452 
L 310.625666 294.945406 
L 312.00466 294.946792 
L 312.201659 295.310105 
L 319.293628 295.418246 
L 320.081624 295.095091 
L 320.278623 295.330951 
L 321.854616 295.454595 
L 322.051615 295.302601 
L 322.445613 295.2932 
L 322.642613 295.465519 
L 324.809603 295.357049 
L 325.991598 295.315985 
L 326.385596 295.438444 
L 327.370591 295.45363 
L 331.507573 295.446222 
L 331.704572 295.303914 
L 332.689568 295.402934 
L 334.26556 295.471697 
L 350.813486 295.486933 
L 351.798482 295.393416 
L 352.19248 295.324429 
L 352.586478 295.39297 
L 352.980477 295.458886 
L 354.55647 295.476893 
L 355.344466 295.438786 
L 355.738464 295.358114 
L 356.329462 295.435807 
L 357.117458 295.482181 
L 372.483389 295.44061 
L 372.680388 295.317653 
L 373.862383 295.439912 
L 374.059382 295.317653 
L 374.256381 295.469401 
L 374.65038 295.418826 
L 376.029373 295.429111 
L 379.575357 295.449046 
L 379.772357 295.227004 
L 380.363354 295.250374 
L 380.560353 295.46858 
L 383.318341 295.474323 
L 383.51534 295.339188 
L 387.84932 295.386498 
L 388.243319 295.454551 
L 388.834316 295.321583 
L 389.228314 295.395794 
L 389.622312 295.2951 
L 390.410309 295.332823 
L 390.804307 295.434252 
L 398.487273 295.486249 
L 398.487273 295.486249 
" style="fill:none;stroke:#ff7f0e;stroke-linecap:square;stroke-width:1.5;"/>
   </g>
   <g id="patch_3">
    <path d="M 57.6 307.584 
L 57.6 41.472 
" style="fill:none;stroke:#000000;stroke-linecap:square;stroke-linejoin:miter;stroke-width:0.8;"/>
   </g>
   <g id="patch_4">
    <path d="M 414.72 307.584 
L 414.72 41.472 
" style="fill:none;stroke:#000000;stroke-linecap:square;stroke-linejoin:miter;stroke-width:0.8;"/>
   </g>
   <g id="patch_5">
    <path d="M 57.6 307.584 
L 414.72 307.584 
" style="fill:none;stroke:#000000;stroke-linecap:square;stroke-linejoin:miter;stroke-width:0.8;"/>
   </g>
   <g id="patch_6">
    <path d="M 57.6 41.472 
L 414.72 41.472 
" style="fill:none;stroke:#000000;stroke-linecap:square;stroke-linejoin:miter;stroke-width:0.8;"/>
   </g>
   <g id="text_18">
    <!-- New vs. Old Fee Estimator -->
    <g transform="translate(157.210312 35.472)scale(0.12 -0.12)">
     <defs>
      <path d="M 628 4666 
L 1478 4666 
L 3547 763 
L 3547 4666 
L 4159 4666 
L 4159 0 
L 3309 0 
L 1241 3903 
L 1241 0 
L 628 0 
L 628 4666 
z
" id="DejaVuSans-4e" transform="scale(0.015625)"/>
      <path d="M 269 3500 
L 844 3500 
L 1563 769 
L 2278 3500 
L 2956 3500 
L 3675 769 
L 4391 3500 
L 4966 3500 
L 4050 0 
L 3372 0 
L 2619 2869 
L 1863 0 
L 1184 0 
L 269 3500 
z
" id="DejaVuSans-77" transform="scale(0.015625)"/>
      <path d="M 191 3500 
L 800 3500 
L 1894 563 
L 2988 3500 
L 3597 3500 
L 2284 0 
L 1503 0 
L 191 3500 
z
" id="DejaVuSans-76" transform="scale(0.015625)"/>
      <path d="M 684 794 
L 1344 794 
L 1344 0 
L 684 0 
L 684 794 
z
" id="DejaVuSans-2e" transform="scale(0.015625)"/>
      <path d="M 2522 4238 
Q 1834 4238 1429 3725 
Q 1025 3213 1025 2328 
Q 1025 1447 1429 934 
Q 1834 422 2522 422 
Q 3209 422 3611 934 
Q 4013 1447 4013 2328 
Q 4013 3213 3611 3725 
Q 3209 4238 2522 4238 
z
M 2522 4750 
Q 3503 4750 4090 4092 
Q 4678 3434 4678 2328 
Q 4678 1225 4090 567 
Q 3503 -91 2522 -91 
Q 1538 -91 948 565 
Q 359 1222 359 2328 
Q 359 3434 948 4092 
Q 1538 4750 2522 4750 
z
" id="DejaVuSans-4f" transform="scale(0.015625)"/>
      <path d="M 628 4666 
L 3309 4666 
L 3309 4134 
L 1259 4134 
L 1259 2759 
L 3109 2759 
L 3109 2228 
L 1259 2228 
L 1259 0 
L 628 0 
L 628 4666 
z
" id="DejaVuSans-46" transform="scale(0.015625)"/>
     </defs>
     <use xlink:href="#DejaVuSans-4e"/>
     <use x="74.804688" xlink:href="#DejaVuSans-65"/>
     <use x="136.328125" xlink:href="#DejaVuSans-77"/>
     <use x="218.115234" xlink:href="#DejaVuSans-20"/>
     <use x="249.902344" xlink:href="#DejaVuSans-76"/>
     <use x="309.082031" xlink:href="#DejaVuSans-73"/>
     <use x="361.181641" xlink:href="#DejaVuSans-2e"/>
     <use x="392.96875" xlink:href="#DejaVuSans-20"/>
     <use x="424.755859" xlink:href="#DejaVuSans-4f"/>
     <use x="503.466797" xlink:href="#DejaVuSans-6c"/>
     <use x="531.25" xlink:href="#DejaVuSans-64"/>
     <use x="594.726562" xlink:href="#DejaVuSans-20"/>
     <use x="626.513672" xlink:href="#DejaVuSans-46"/>
     <use x="678.533203" xlink:href="#DejaVuSans-65"/>
     <use x="740.056641" xlink:href="#DejaVuSans-65"/>
     <use x="801.580078" xlink:href="#DejaVuSans-20"/>
     <use x="833.367188" xlink:href="#DejaVuSans-45"/>
     <use x="896.550781" xlink:href="#DejaVuSans-73"/>
     <use x="948.650391" xlink:href="#DejaVuSans-74"/>
     <use x="987.859375" xlink:href="#DejaVuSans-69"/>
     <use x="1015.642578" xlink:href="#DejaVuSans-6d"/>
     <use x="1113.054688" xlink:href="#DejaVuSans-61"/>
     <use x="1174.333984" xlink:href="#DejaVuSans-74"/>
     <use x="1213.542969" xlink:href="#DejaVuSans-6f"/>
     <use x="1274.724609" xlink:href="#DejaVuSans-72"/>
    </g>
   </g>
   <g id="legend_1">
    <g id="patch_7">
     <path d="M 355.05125 78.82825 
L 407.72 78.82825 
Q 409.72 78.82825 409.72 76.82825 
L 409.72 48.472 
Q 409.72 46.472 407.72 46.472 
L 355.05125 46.472 
Q 353.05125 46.472 353.05125 48.472 
L 353.05125 76.82825 
Q 353.05125 78.82825 355.05125 78.82825 
z
" style="fill:#ffffff;opacity:0.8;stroke:#cccccc;stroke-linejoin:miter;"/>
    </g>
    <g id="line2d_18">
     <path d="M 357.05125 54.570437 
L 377.05125 54.570437 
" style="fill:none;stroke:#1f77b4;stroke-linecap:square;stroke-width:1.5;"/>
    </g>
    <g id="line2d_19"/>
    <g id="text_19">
     <!-- old -->
     <g transform="translate(385.05125 58.070437)scale(0.1 -0.1)">
      <use xlink:href="#DejaVuSans-6f"/>
      <use x="61.181641" xlink:href="#DejaVuSans-6c"/>
      <use x="88.964844" xlink:href="#DejaVuSans-64"/>
     </g>
    </g>
    <g id="line2d_20">
     <path d="M 357.05125 69.248562 
L 377.05125 69.248562 
" style="fill:none;stroke:#ff7f0e;stroke-linecap:square;stroke-width:1.5;"/>
    </g>
    <g id="line2d_21"/>
    <g id="text_20">
     <!-- new -->
     <g transform="translate(385.05125 72.748562)scale(0.1 -0.1)">
      <defs>
       <path d="M 3513 2113 
L 3513 0 
L 2938 0 
L 2938 2094 
Q 2938 2591 2744 2837 
Q 2550 3084 2163 3084 
Q 1697 3084 1428 2787 
Q 1159 2491 1159 1978 
L 1159 0 
L 581 0 
L 581 3500 
L 1159 3500 
L 1159 2956 
Q 1366 3272 1645 3428 
Q 1925 3584 2291 3584 
Q 2894 3584 3203 3211 
Q 3513 2838 3513 2113 
z
" id="DejaVuSans-6e" transform="scale(0.015625)"/>
      </defs>
      <use xlink:href="#DejaVuSans-6e"/>
      <use x="63.378906" xlink:href="#DejaVuSans-65"/>
      <use x="124.902344" xlink:href="#DejaVuSans-77"/>
     </g>
    </g>
   </g>
  </g>
 </g>
 <defs>
  <clipPath id="p2965c54db3">
   <rect height="266.112" width="357.12" x="57.6" y="41.472"/>
  </clipPath>
 </defs>
</svg>
